<svg id="Layer_1" data-name="Layer 1" xmlns="http://www.w3.org/2000/svg" width="339.8" height="256" viewBox="0 0 339.8 256">
  <defs>
    <style>
      .cls-1 {
        fill: #fff;
      }
    </style>
  </defs>
  <g>
    <path class="cls-1" d="M321.1,147.9l-27.2-23a10.4,10.4,0,0,0-13.3,0,10.6,10.6,0,0,0-1.5,14.8l23,27.2.7.7a12.9,12.9,0,0,0,9.6,4,13.4,13.4,0,0,0,9.5-3.9l.7-.8a13,13,0,0,0,3.2-9.8A13.2,13.2,0,0,0,321.1,147.9Z"/>
    <path class="cls-1" d="M254.1,28.6a50.6,50.6,0,0,0-71.2,0c-14.6,14.2-18.7,35.1-10.8,54.5s25.4,31.5,45.7,31.5h1.5c20.2,0,37.7-12.1,45.6-31.6S268.6,42.7,254.1,28.6Zm-2.5,34.8c-.5,1.9-1.9,2.9-4.1,3.2a4.3,4.3,0,0,1-4.2-4,26.2,26.2,0,0,0-26-24.2,4.3,4.3,0,0,1-3-1.3,5.1,5.1,0,0,1-1.3-2.9c.3-2,1.2-4.6,6.2-4.6,7.7,0,19.5,6.3,22.5,10.2l.2.2C246.2,43.7,253.5,57.2,251.6,63.4Z"/>
    <path class="cls-1" d="M333.2,140.4h-.1l-2.9-2.9-27.4-23a24.2,24.2,0,0,0-15.6-5.7,23.8,23.8,0,0,0-9.1,1.8l-8.1-8c14.1-18.5,16.6-43.2,6.5-65.2S243.9,0,219.3,0h-.9a64.7,64.7,0,0,0-37.5,12.1,78.8,78.8,0,0,0-10.9-.8h-.3a71.7,71.7,0,0,0-43.2,14.6c-.9.6-2.7,1.8-3.9,1.8s-3.3-.9-6.2-3h-.1c-14-9.1-28.4-13.7-42.7-13.7-20.9,0-41,10.1-55.2,27.6A80.3,80.3,0,0,0,.1,94.3a79.1,79.1,0,0,0,24.5,53.2h.1a33.1,33.1,0,0,1,11.1,26.2v.2c0,32,14.1,61.9,36.9,77.9a19.6,19.6,0,0,0,11.6,4h.3a21.2,21.2,0,0,0,15.2-7.1,26.4,26.4,0,0,0,6.9-19.7,139.9,139.9,0,0,1,8.4-53.3c2.5-6.6,5.5-10.8,7.2-12.3l1.4,1.9c12.6,19.7,14,45.4,14,63a27.5,27.5,0,0,0,6.7,20.2c4.2,4.8,9.6,7.4,15.2,7.4h.1a20.3,20.3,0,0,0,11.5-3.8h.1a93.6,93.6,0,0,0,37.2-77.8,35.1,35.1,0,0,1,11.1-26.4h.1a87.8,87.8,0,0,0,16.2-21.7,66.3,66.3,0,0,0,20.8-10.3l8,8a24.1,24.1,0,0,0,3.9,24.8l23,27.2a27.1,27.1,0,0,0,20.7,9.6h.3a27.2,27.2,0,0,0,17.8-6.6,27.3,27.3,0,0,0,2.8-38.4ZM327.1,175a22.1,22.1,0,0,1-14.7,5.4,22.4,22.4,0,0,1-17-7.8l-23-27.2a19.6,19.6,0,0,1-2.2-21.6,1.4,1.4,0,0,0-.2-1.8l-11.9-11.9a1.5,1.5,0,0,0-1.1-.4,1.9,1.9,0,0,0-1,.3,58.5,58.5,0,0,1-22.9,11.6,1.6,1.6,0,0,0-1,.8,81.5,81.5,0,0,1-15.9,21.8,40.5,40.5,0,0,0-12.7,30.2,88.7,88.7,0,0,1-35.2,73.7,15.6,15.6,0,0,1-8.7,2.9c-4.2,0-8.2-2-11.4-5.7a22.6,22.6,0,0,1-5.5-16.7v-.2c0-18.2-1.5-44.8-14.8-65.7-2-3.1-3.8-4.6-5.4-4.6h-.4c-3.5.4-8.5,7.3-11.7,16a146.2,146.2,0,0,0-8.7,55.2,21.9,21.9,0,0,1-5.6,16.2,16.3,16.3,0,0,1-11.7,5.4,15.1,15.1,0,0,1-8.8-3C54.1,232.7,40.8,204.3,40.8,174A38,38,0,0,0,28,143.9,75.4,75.4,0,0,1,22.2,41.7c13.3-16.4,32-25.8,51.4-25.8,13.3,0,26.7,4.3,39.9,12.9,3.9,2.7,6.6,3.9,9.1,3.9s4.8-1.4,6.8-2.8a67.5,67.5,0,0,1,52.2-12.6h.3a1,1,0,0,0,.9-.4A59.5,59.5,0,0,1,218.4,5h.9c22.6,0,42.8,13.2,52.6,34.4s6.9,45.1-7.7,62.4a1.8,1.8,0,0,0,.1,2.1l11.9,11.8a1.6,1.6,0,0,0,1.1.5l.7-.2a19.4,19.4,0,0,1,21.6,2.2l27.2,22.9,2.6,2.6A22.2,22.2,0,0,1,327.1,175Z"/>
    <path class="cls-1" d="M218.4,123.5a59.3,59.3,0,0,1-46.4-96,1.4,1.4,0,0,0,.2-1.6,1.4,1.4,0,0,0-1.4-.9h-1.3a57.3,57.3,0,0,0-34.9,11.9c-4.2,3.1-8.1,4.7-12.1,4.7s-8.9-1.8-14-5.5C97.1,28.6,85.4,24.9,73.8,24.9c-17,0-33.2,8.1-44.7,22.3a67.1,67.1,0,0,0,5.1,90.5,46.9,46.9,0,0,1,15.4,36.5,64.1,64.1,0,0,0,.9,12.4A79.5,79.5,0,0,0,80.9,241a6.6,6.6,0,0,0,3.6,1.1,5.7,5.7,0,0,0,3.2-.9c2.7-1.8,5.2-4.4,5.2-11.8-.2-25.3,5.5-74.5,28.3-80h.7a15.1,15.1,0,0,1,13.3,8.3v.2c14.5,22.9,16.2,51.3,16.2,70.6-.1,5,1.1,9.2,3.4,11.5a6.3,6.3,0,0,0,4.6,2,7.7,7.7,0,0,0,3.4-.8l.2-.2a80,80,0,0,0,31.5-66.6A49.6,49.6,0,0,1,209.8,138a58.2,58.2,0,0,0,9.9-12.2,1.5,1.5,0,0,0,0-1.6A1.7,1.7,0,0,0,218.4,123.5Z"/>
  </g>
</svg>
