<svg id="Layer_1" data-name="Layer 1" xmlns="http://www.w3.org/2000/svg" width="271.4" height="255.4" viewBox="0 0 271.4 255.4">
  <defs>
    <style>
      .cls-1 {
        fill: #fff;
      }
    </style>
  </defs>
  <path class="cls-1" d="M24.1,89.3C23.9,84.1,24,78.8,24,74V67.7c0-4,2.2-6.2,6.1-6.2h34a5.8,5.8,0,0,1,4.3,1.8A5.4,5.4,0,0,1,70,67.8c-.1,3.7,0,7.4,0,11s.1,8.4-.1,12.4a52.6,52.6,0,0,1-14.2,34c-2.9,3.1-5.9,4.6-8.7,4.6s-6-1.7-9-5A54.8,54.8,0,0,1,24.1,89.3Z"/>
  <path class="cls-1" d="M190,14.9a2.6,2.6,0,0,1-2.2,1.4,4.4,4.4,0,0,1-2.2-.7,27.6,27.6,0,0,0-13.7-3.7c-8.6,0-16.6,4.4-21.9,12a3.2,3.2,0,0,1-2.6,1.7h-.9a2.5,2.5,0,0,1-1.9-2.7,3.8,3.8,0,0,1,.8-2.3l.2-.2a32,32,0,0,1,42.9-9.7Q191.5,12.5,190,14.9Z"/>
  <path class="cls-1" d="M194.6,101.4a41.2,41.2,0,0,1-1.7-12.6V67.5c0-3.7,2.3-6,5.9-6h34a5.9,5.9,0,0,1,4.6,1.6,6.4,6.4,0,0,1,1.5,4.6c0,2.5.1,5.1.1,7.6a170.3,170.3,0,0,1-.3,17.5,52.1,52.1,0,0,1-14.1,32.3c-2.9,3.1-5.8,4.6-8.7,4.6s-6-1.6-9.1-4.9C201.3,118.8,197.4,111.4,194.6,101.4Z"/>
  <path class="cls-1" d="M246.1,118.7a1.1,1.1,0,0,1-.1.8,8.4,8.4,0,0,0-1.1,4.1v3.6c0,2.2,0,4.4-.1,6.6a103.4,103.4,0,0,1-2.2,16.6,94.8,94.8,0,0,1-3.3,12.7,91.2,91.2,0,0,1-5.7,13.8,103.8,103.8,0,0,1-9.1,15.4,86.5,86.5,0,0,1-8,10.1,106.6,106.6,0,0,1-23,19.9A111.3,111.3,0,0,1,156.3,238a113.1,113.1,0,0,1-24.6,2.7l-7.4-.2A114.2,114.2,0,0,1,26,169.4a116.9,116.9,0,0,1-7.2-28.5,124.6,124.6,0,0,1-.9-17.3,6,6,0,0,0-1-3.9,2.2,2.2,0,0,1-.1-.8,1.3,1.3,0,0,1,.6-.7l2.3-1h.4a1,1,0,0,1,.9.6c3.5,7.1,7.3,12.3,11.9,16.3s9.1,6,14,6a20.2,20.2,0,0,0,4.3-.5c4.3-1,8.3-3.4,12.1-7.4a54.2,54.2,0,0,0,11-16.9,1,1,0,0,1,.9-.6.9.9,0,0,1,.9.6c.7,1.6,1.4,2.9,2,4.2,3.2,5.7,7.3,12.2,14,16.9a19.2,19.2,0,0,0,23-.3c6.4-4.6,10.5-11,13.3-16.2.8-1.4,1.4-2.8,2-4a1,1,0,0,1,.9-.6,1.1,1.1,0,0,1,.9.6v.2a1.4,1.4,0,0,0,.2.6c4.2,8.9,8.7,14.9,14.5,19.3a20.1,20.1,0,0,0,24.7.5c6.5-4.5,10.5-10.7,13.2-15.7a29.2,29.2,0,0,0,2.3-4.7,1.1,1.1,0,0,1,.9-.6.9.9,0,0,1,.9.6l1.7,3.3c2.8,5.4,6.9,12.1,13.7,16.8a19.6,19.6,0,0,0,11.4,3.9,21.4,21.4,0,0,0,8.3-1.9,27.1,27.1,0,0,0,8.7-6.7c3.3-3.6,7.1-10.4,9.1-14.2a1,1,0,0,1,.8-.5h.5l2.4,1.3A.9.9,0,0,1,246.1,118.7Z"/>
  <path class="cls-1" d="M264.8,51,219.6,23.3c-5.7-3.5-9.1-5.8-12-7.7l-1.5-1c-3.2-2.2-6.9-4.6-13.9-9a39.5,39.5,0,0,0-20-5.6h-.4a37,37,0,0,0-29.2,14.1A139.3,139.3,0,0,0,131,31.9l-1.3,2.2a5.4,5.4,0,0,0-.7,1.3,4.2,4.2,0,0,0-.6,1.4A9.5,9.5,0,0,0,117.1,35a10.5,10.5,0,0,0-4.1,4l-3,5.4a3.4,3.4,0,0,1-1.6,1.5l-5.3,2.9a7.6,7.6,0,0,0-2.5,1.9,7.8,7.8,0,0,0-1.1-2,6.8,6.8,0,0,0-5-2.5H85.9a20.6,20.6,0,0,0-10.6,2.9A19.8,19.8,0,0,0,65,46.2H29.3a20.4,20.4,0,0,0-20.5,20V90.9a51.3,51.3,0,0,0,1,9.6c.3,1.5.7,3,1.1,4.5l-2.3,1.1A13.3,13.3,0,0,0,0,117.8a14,14,0,0,0,3.2,9.6c.1,5,.5,10.1,1,15.2a125.7,125.7,0,0,0,8.2,32.3A129.8,129.8,0,0,0,37,214a127.7,127.7,0,0,0,86.3,41.2c2.8.2,5.6.2,8.2.2h.9a123.7,123.7,0,0,0,27.1-3,127.2,127.2,0,0,0,68-40.2,112.1,112.1,0,0,0,9.1-11.5,143.4,143.4,0,0,0,10.3-17.3,132.5,132.5,0,0,0,6.4-15.7h.1c1.6-5.4,2.8-9.9,3.7-14.3a132.6,132.6,0,0,0,2.5-18.8h0a52.3,52.3,0,0,0,0-5.6v-1.3a13,13,0,0,0,3.3-9,13.5,13.5,0,0,0-7.9-12.3l-2.8-1.3a54.5,54.5,0,0,0,2.1-14V73.7a12.2,12.2,0,0,0,4.6.9,12.3,12.3,0,0,0,12-9.3A12.6,12.6,0,0,0,264.8,51ZM103.5,55.1a4.4,4.4,0,0,1,1.9-1.9l5.4-2.9a8.7,8.7,0,0,0,3.6-3.5l3-5.4a4.6,4.6,0,0,1,2-1.9,4.7,4.7,0,0,1,6.3,2l2.9,5.5a8.9,8.9,0,0,0,3.6,3.6l5.3,3a4.4,4.4,0,0,1,2.2,2.8,4.5,4.5,0,0,1-.4,3.6,4.4,4.4,0,0,1-1.9,1.9L132,64.8a8.7,8.7,0,0,0-3.6,3.5l-3.1,5.3a4.2,4.2,0,0,1-1.7,1.8,4.8,4.8,0,0,1-2.4.7,4.6,4.6,0,0,1-4.1-2.6l-2.9-5.4a8.9,8.9,0,0,0-3.6-3.6l-5.3-3h0A4.6,4.6,0,0,1,103.5,55.1ZM266.1,64a7.5,7.5,0,0,1-11,4.6l-4-2.4-.3-.2h-1a1.1,1.1,0,0,0-.5.9V90.8a50.8,50.8,0,0,1-2.9,15.9,1.1,1.1,0,0,0,.5,1.2l.5.3.8.4,4.7,2.2a8.3,8.3,0,0,1,5,7.7,8.8,8.8,0,0,1-2.9,6.6.8.8,0,0,0-.4.7v.6c0,2.5.1,5.1,0,7.8a110.8,110.8,0,0,1-2.4,18.1c-.9,4.4-2.1,8.9-3.6,13.8a140.9,140.9,0,0,1-6.2,15.1,133.4,133.4,0,0,1-9.9,16.7,129.8,129.8,0,0,1-8.7,10.9,121.3,121.3,0,0,1-65.4,38.7,119.4,119.4,0,0,1-26.7,2.9c-2.7,0-5.4,0-8-.2A123.3,123.3,0,0,1,17,173a118.6,118.6,0,0,1-7.8-31,148.9,148.9,0,0,1-1-16.4,1,1,0,0,0-.4-.7A8.6,8.6,0,0,1,5,118.1a8.5,8.5,0,0,1,5.4-7.4,50.3,50.3,0,0,0,5.7-2.8h0a.9.9,0,0,0,.5-1.2,63.8,63.8,0,0,1-1.9-7.2,41.2,41.2,0,0,1-.9-8.6V66.3A15.5,15.5,0,0,1,29.7,51.2H64.8a14.7,14.7,0,0,1,9.8,3.6l.6.2.7-.2a15.6,15.6,0,0,1,10.3-3.6h8.1a1.7,1.7,0,0,1,1.3.7,1.2,1.2,0,0,1,.3,1.4,14,14,0,0,0,.1,6.1,2.1,2.1,0,0,1-.3,1.5,1.6,1.6,0,0,1-1.3.6h-9a5.3,5.3,0,0,0-5,5.6V86.5c-.5,8.4,1.4,16.8,5.8,25.9,2.4,5.1,5.7,10.9,11.2,15a9.3,9.3,0,0,0,12,0,27.1,27.1,0,0,0,6.9-7.4,59.8,59.8,0,0,0,10.2-37.2,1.8,1.8,0,0,1,1-1.6,13.5,13.5,0,0,0,5.7-5.4l.8-1.4a1.8,1.8,0,0,1,1.5-.8h.3a1.8,1.8,0,0,1,1.4,1.6c0,3.1,0,7.2-.1,11.3-.3,8.4,1.5,16.6,5.6,25.3,2.1,4.6,5.2,10.3,10.4,14.6,2.3,1.9,4.4,2.8,6.6,2.8a10.1,10.1,0,0,0,6.2-2.5,21.1,21.1,0,0,0,2.3-1.9,54.6,54.6,0,0,0,14.1-34.1c.3-5.5.2-11,.1-16.3v-7c0-3.4-2.1-5.6-5.5-5.6H149.3a1.6,1.6,0,0,1-1.3-.6,2,2,0,0,1-.3-1.5,11.2,11.2,0,0,0,.4-3.2,14.1,14.1,0,0,0-.5-3.5,1.6,1.6,0,0,1,.2-1.5,2.1,2.1,0,0,1,1.4-.7h28.6a15.2,15.2,0,0,1,9.8,3.6l.6.3.6-.2a16.5,16.5,0,0,1,9.8-3.3h24.6a1,1,0,0,0,.9-.7h0a.7.7,0,0,0-.4-1c-7.8-4.8-11.9-7.5-18.7-11.9S191.9,29,181.6,22.7a18.1,18.1,0,0,0-24.9,5.9l-6,9.6c-1,1.6-1.9,3.2-2.9,4.7l-.2.4a3.6,3.6,0,0,0-.7,1c-1.3,2.2-2.8,3.2-4.7,3.2a8.9,8.9,0,0,1-3.2-.8,12.8,12.8,0,0,1-4.9-3.7c-1-1.3-1.9-3.2-.7-5.3a2.2,2.2,0,0,1,.5-.8l1.5-2.6a128.3,128.3,0,0,1,11.1-17.1A32.4,32.4,0,0,1,172.1,5a33.7,33.7,0,0,1,17.5,4.9c6.9,4.3,10.5,6.7,13.8,8.9s6.8,4.6,13.6,8.8l45.2,27.7C265.6,57.3,267,60.6,266.1,64ZM112.5,58.3l1.2.7a14.4,14.4,0,0,1,6,6.2l.7,1.2a1,1,0,0,0,1.8,0l.7-1.2a14.7,14.7,0,0,1,6.1-6l1.3-.7a.9.9,0,0,0,.5-.8,1.1,1.1,0,0,0-.5-.9l-1.2-.7a15.8,15.8,0,0,1-6.1-6.2l-.6-1.2a.9.9,0,0,0-.9-.6,1.1,1.1,0,0,0-.9.5l-.7,1.3a15.3,15.3,0,0,1-6.1,6l-1.3.7a1,1,0,0,0-.5.8A1.1,1.1,0,0,0,112.5,58.3Z"/>
</svg>
