<svg id="Layer_1" data-name="Layer 1" xmlns="http://www.w3.org/2000/svg" width="322.7" height="256.6" viewBox="0 0 322.7 256.6">
  <defs>
    <style>
      .cls-1 {
        fill: #fff;
      }
    </style>
  </defs>
  <g>
    <path class="cls-1" d="M274.5,13.7A54.5,54.5,0,0,0,258.9,16H258c-25.5,2.7-31.6,23.4-38.1,45.4l-.3.7c-3.3,11.4-6.8,23.2-13.3,32.3-10.9,15.3-27.3,24.1-45.2,24.1s-34.3-8.8-45.1-24.1c-6.3-9-10.7-20.6-14.8-31.7C93.5,42.1,85.5,20.9,65.3,16.5h-.4a55.3,55.3,0,0,0-17.1-2.9c-12.2,0-21.6,4.7-28,14S11.9,46.4,14.7,56c1.9,6.9,6.1,13.3,10.9,16.6l1,.8a1.5,1.5,0,0,1,.6,1.1v1.3c4.1,60.2,25.5,93.7,32,102.5l.2.3.2.4.2.4c1.2,4,6.1,17.7,18.8,31.5s38.6,32.1,82.1,32.3h2.4c42.8-.5,67.6-17.8,80.8-32.3s18-28.7,18.8-31.4l.2-.5c.1-.1.1-.3.2-.4l.3-.4c6.4-8.7,27.8-41.9,31.9-102.4V74.5a1.3,1.3,0,0,1,.6-1.1l1-.7c4.9-3.5,9.1-9.9,11-16.7,2.7-9.5.9-19.6-5.2-28.4S286.8,13.7,274.5,13.7Zm29.8,41c-2.3,8.1-7.5,14-11.5,15.8a1.9,1.9,0,0,0-1.2,1.7c0,.5-2.9,65.7-31.9,104.4a.5.5,0,0,0-.3.5v.2a82.7,82.7,0,0,1-18.6,31.2c-18.8,20.5-45.5,30.9-79.4,30.9S100.9,229.1,82,208.8a84.4,84.4,0,0,1-18.6-31.1v-.2l-.3-.7h-.1C36.2,141.1,31.6,83.8,31,72.7v-.2a2.2,2.2,0,0,0-1.2-1.8C25.8,69,20.6,63,18.3,55c-1.7-5.9-2.3-15.1,4.6-25.2,5.6-8.2,14.3-12.5,24.9-12.5a50.3,50.3,0,0,1,13.3,1.9l.7.2c.2,0,.4.2.6.4l.5.5c5.5,5.4,8.1,11.6,7.8,18.4C70.3,49.4,67.2,55,64,58.5c7.8,2.3,21.8,7.8,20.7,25.8-.9,13.8-5.6,19-8.2,21.8h-.2c6.8,8.2,13.3,20.4,6.4,32.4a1.8,1.8,0,0,0-.4,1,16.9,16.9,0,0,0,3.1,2.1h.3c3,1.6,7,3.8,8.3,8.3.9,2.9.4,6.1-1.6,9.6s-1.2,5.5,3,9,9,7.3,9,15.3c0,11.6,22.9,23.9,56.9,23.9,22.2,0,35.8-4.7,43.4-8.6s13.6-10.2,13.6-15.3c0-7.9,5.1-12.1,8.8-15.2l.2-.2c4.2-3.5,5.5-4.5,3.1-9s-2.5-6.7-1.6-9.6c1.3-4.5,5.3-6.6,8.3-8.2l.3-.2c1-.5,2.8-1.5,3.1-2.1a3,3,0,0,0-.4-1c-6.9-11.9-.4-24.1,6.4-32.3h-.1c-2.4-2.5-7.3-7.8-8.3-21.9-1.1-18,12.9-23.4,20.7-25.8-3.2-3.5-6.3-9-6.7-19.8-.3-6.9,2.4-13.1,7.9-18.5l.5-.5.6-.4.7-.2a46.7,46.7,0,0,1,12.9-1.8c10.7,0,19.4,4.3,25,12.4C306.6,39.5,306,48.7,304.3,54.7Z"/>
    <path class="cls-1" d="M314,19.9A44.8,44.8,0,0,0,284.7.9a53.6,53.6,0,0,0-9.9-.9,68.7,68.7,0,0,0-18.6,2.8c-33.8,3.9-41.8,30.9-48.9,54.8l-.2.7v.2c-3.2,10.7-6.3,20.9-11.4,28.2-8.4,11.7-20.8,18.4-34.2,18.4s-26-6.7-34.2-18.4c-5.2-7.4-9-17.4-13-28L114,58v-.3c-8.4-22.5-18.1-48.1-45-54.2A70.9,70.9,0,0,0,48,.1h-.2a50.7,50.7,0,0,0-8.6.7A44.6,44.6,0,0,0,8.7,19.9C.4,32-2.1,46.1,1.7,59.5A46,46,0,0,0,14.2,80.6,290.9,290.9,0,0,0,21,122.2c5.9,25.3,14.9,46.4,26.6,62.7A101.2,101.2,0,0,0,68.9,220c15,16.4,43,36.1,90.8,36.6h1.9c48.7-.1,77-19.9,92.2-36.6a100.8,100.8,0,0,0,21.3-35c24.7-34.6,31.5-83.1,33.4-104.4A45.3,45.3,0,0,0,321,59.6C324.8,45.9,322.3,31.9,314,19.9Zm2.2,38.3a40.6,40.6,0,0,1-12.5,19.9c-1.6,20.4-8,69.9-33,104.5a98.2,98.2,0,0,1-20.5,33.9c-14.6,16-41.9,35-88.7,35h-1.7c-45.9-.5-72.8-19.3-87.2-35a97.1,97.1,0,0,1-20.5-34c-11.4-15.7-20.3-36.4-26.2-61.5a271.7,271.7,0,0,1-6.8-42.9,39.5,39.5,0,0,1-12.5-20c-3.4-12-1.2-24.6,6.3-35.5A39.4,39.4,0,0,1,40,5.7a52.9,52.9,0,0,1,8-.6A65.9,65.9,0,0,1,67.6,8.3c24.6,5.5,33.3,28.9,41.8,51.5l.2.5c4.1,10.9,8,21.3,13.6,29.3,9.2,13,23.2,20.5,38.3,20.5s29-7.5,38.3-20.5c5.7-8.2,8.9-19,12.3-30.4V59c7-23.5,14.3-47.9,45.1-51.3A66,66,0,0,1,274.9,5a54.7,54.7,0,0,1,9,.8,39.8,39.8,0,0,1,26,16.9C317.4,33.5,319.6,46.1,316.2,58.2Z"/>
    <path class="cls-1" d="M274.8,25.7a38.3,38.3,0,0,0-9.6,1.2,15.5,15.5,0,0,0-4.7,11.5c.4,11.1,4.1,14.3,6.4,16.2s3.2,2.7,3.2,5.5-3.6,4.9-7.2,5.9c-8.7,2.5-17.2,5.9-16.4,17.8s3.8,14.3,5.9,16.6h.1c1.8,1.9,5.1,5.5.5,10.9-7.5,8.9-9.4,16.6-5.8,22.9,1.5,2.6,2,5.1,1.3,7.5-1,3.9-4.6,5.8-7.5,7.3h-.2c-1.7,1-3.8,2.1-4.1,3.1s-.3,1.1.9,3.3c5.8,10.5-.7,15.9-5,19.4h-.1c-3.7,3-5.9,5-5.9,8.9,0,15.7-23,32.3-65.5,32.3s-65.3-16.6-65.3-32.3c0-3.9-2.6-6.1-5.8-8.8h-.1c-4.4-3.5-10.9-8.9-5.1-19.5,1.2-2.1,1.1-3.1,1-3.3a23.2,23.2,0,0,0-4.2-3.1h-.1c-2.9-1.5-6.5-3.4-7.6-7.3a9.9,9.9,0,0,1,1.3-7.5c3.6-6.3,1.7-14-5.7-22.9-4.6-5.5-1.3-9,.5-10.9s5.4-5.8,6-16.7S68.3,68.4,59.6,65.9c-3.4-.9-7.2-2-7.2-5.9s1.8-4.3,3.2-5.5,6-5.1,6.4-16.2a16.1,16.1,0,0,0-4.7-11.4,38.2,38.2,0,0,0-9.5-1.3c-7.8,0-13.9,3-18,8.9s-4.6,13.8-3.4,18.1c1.6,6,5.4,9.7,6.8,10.3a10.4,10.4,0,0,1,6.1,9c0,.7,2.7,62.9,30.3,99.7a9.9,9.9,0,0,1,1.7,3.6v.2c.1.5,4.2,14.3,16.6,27.6,17.4,18.6,42,28,73.3,28s56.1-9.4,73.3-28c13-13.8,16.7-27.6,16.7-27.7a8.5,8.5,0,0,1,1.8-3.7c27.6-36.8,30.2-99,30.3-99.6a10.1,10.1,0,0,1,6.1-9.1c1.3-.6,5.1-4.3,6.8-10.3,1.2-4.3,1.6-10.9-3.5-18.1S282.7,25.7,274.8,25.7Z"/>
  </g>
</svg>
