<svg id="Layer_1" data-name="Layer 1" xmlns="http://www.w3.org/2000/svg" width="283.5" height="204.7" viewBox="0 0 283.5 204.7">
  <defs>
    <style>
      .cls-1 {
        fill: #fff;
      }
    </style>
  </defs>
  <g>
    <path class="cls-1" d="M170.3,23.6a12.6,12.6,0,0,1,3.5-3.4,11.7,11.7,0,0,1-3.5-3.5,12.6,12.6,0,0,1-3.4,3.5A13.7,13.7,0,0,1,170.3,23.6Z"/>
    <path class="cls-1" d="M155.6,29.3l3.7,2.1,2,3.6a10.2,10.2,0,0,0,9,5.4h.2a10.5,10.5,0,0,0,8.9-5.3l2.1-3.8,3.8-2.1h.2a12.2,12.2,0,0,0,3.8-4,10.1,10.1,0,0,0,.8-7.8,10.5,10.5,0,0,0-4.8-6.1l-3.8-2-2.1-3.8a10.4,10.4,0,0,0-4.1-4.2h-.2A10.9,10.9,0,0,0,170.3,0a10.8,10.8,0,0,0-9.1,5.3h0l-2,3.7-3.6,2a10.5,10.5,0,0,0-4.1,4h-.1a10.4,10.4,0,0,0-.8,7.9A10,10,0,0,0,155.6,29.3Zm.2-11.7a5.6,5.6,0,0,1,2.2-2.1l3.8-2.1a6.2,6.2,0,0,0,1.8-1.8l2-3.8A5.6,5.6,0,0,1,170.4,5a5.7,5.7,0,0,1,2.5.6,5.8,5.8,0,0,1,2.2,2.2l2.1,3.8a3.3,3.3,0,0,0,1.7,1.8l3.9,2.1a5.7,5.7,0,0,1,2.5,3.2,5.5,5.5,0,0,1-.4,4,6.3,6.3,0,0,1-2.1,2.2L178.9,27a4.6,4.6,0,0,0-1.7,1.7l-2.1,3.9a5.6,5.6,0,0,1-4.7,2.8,5.3,5.3,0,0,1-4.7-2.8l-2.1-3.9a5.8,5.8,0,0,0-1.8-1.7L158,24.9a5.2,5.2,0,0,1-2.6-3.2A4.9,4.9,0,0,1,155.8,17.6Z"/>
    <path class="cls-1" d="M219.4,170.2l-5.5-3h-.2a2,2,0,0,1-.9-.9h-.1l-3.1-5.7a10.8,10.8,0,0,0-9.5-5.5H200a10.6,10.6,0,0,0-9.4,5.6l-3,5.5a3.4,3.4,0,0,1-1.2,1.2l-5.7,3.1a12.4,12.4,0,0,0-4.1,4.1v.2a10.8,10.8,0,0,0,4.3,14.7l5.5,3a3.3,3.3,0,0,1,1.3,1.3l2.9,5.3a10.7,10.7,0,0,0,9.5,5.8h.1a11.1,11.1,0,0,0,9.6-5.7l3-5.6a2.6,2.6,0,0,1,1.2-1.1l5.6-3.1a12.1,12.1,0,0,0,4.2-4.2,11,11,0,0,0-4.3-14.8Zm-.1,12.4a6.3,6.3,0,0,1-2.3,2.3l-5.5,3a7.1,7.1,0,0,0-3.2,3.2l-3,5.5a6.1,6.1,0,0,1-5.2,3.1,5.7,5.7,0,0,1-5.1-3.1l-3-5.5a9.2,9.2,0,0,0-3.3-3.2l-5.4-3h-.1a5.8,5.8,0,0,1-2.3-7.9,6.9,6.9,0,0,1,2.4-2.4l5.4-3a7.8,7.8,0,0,0,3.3-3.2l3-5.5a5.6,5.6,0,0,1,5.1-3,6,6,0,0,1,5.2,3l3,5.5a7.1,7.1,0,0,0,3.2,3.2l5.5,3a5.8,5.8,0,0,1,2.8,3.5A6.4,6.4,0,0,1,219.3,182.6Z"/>
    <path class="cls-1" d="M200.8,172.4l-.7-1.2-.7,1.2a16.4,16.4,0,0,1-6.6,6.7l-1.3.7,1.3.7a16.1,16.1,0,0,1,6.6,6.6l.7,1.2.7-1.2a16.1,16.1,0,0,1,6.6-6.6l1.3-.7-1.3-.7A16.4,16.4,0,0,1,200.8,172.4Z"/>
    <path class="cls-1" d="M48.4,107.9A19.9,19.9,0,0,0,33.3,92L31,91.8c-3,0-5.1,1.1-6.4,3.3-3.7,6.3-2.1,30.3-.4,34.4.2.3,2.6,2.2,9.1,3.7a48.4,48.4,0,0,0,10.8,1.4,22.5,22.5,0,0,0,4.4-.4A110.2,110.2,0,0,1,48.4,107.9Z"/>
    <path class="cls-1" d="M88.7,117h-1a15,15,0,0,0-14.9,13.1C70,146.3,71.4,167,71.7,171h0a6.6,6.6,0,0,0,5.4,6.7,137,137,0,0,0,23.9,2.1c3.5,0,7.1-.2,10.7-.4h.2a6.9,6.9,0,0,0,4.5-1.8c1.7-4.2,2.1-23.7-1.9-40.6C111.5,124,98.9,117,88.7,117Z"/>
    <path class="cls-1" d="M44.3,162.9a11.4,11.4,0,0,1-3.5,3.4,13,13,0,0,1,3.5,3.5,12.2,12.2,0,0,1,3.4-3.4A12.6,12.6,0,0,1,44.3,162.9Z"/>
    <path class="cls-1" d="M215.9,91.9a20.2,20.2,0,0,0-4.3.5c-8.2,1.7-16.8,8.1-17.6,18.5a211.4,211.4,0,0,1-.1,28.7,2.8,2.8,0,0,1-.1.9,26.9,26.9,0,0,0,8,.9,60.9,60.9,0,0,0,10.4-.9c9.6-1.5,13.7-4.2,14-4.9,2-4.7,1.9-32-2.5-40.4C222.6,93.1,219.7,91.9,215.9,91.9Z"/>
    <path class="cls-1" d="M270.7,39.7C263.5,32,251.5,28.1,235,28.1c-26.9,0-60,10.3-80.2,19a32.6,32.6,0,0,1-26,0c-20.2-8.7-53.3-19-80.2-19-16.4,0-28.4,3.9-35.8,11.6-15.5,16.4-17.1,44.6-4,69-.2,9.9,1.1,21.5,3,25.9,3.6,8.9,17.8,12.2,27,13.1a10.1,10.1,0,0,0-3.6,3.8l-2,3.6-3.9,2.2a11,11,0,0,0-3.9,4.1,10.3,10.3,0,0,0-.9,7.9,10.4,10.4,0,0,0,5,6.1l3.7,2,2,3.7a10.2,10.2,0,0,0,9,5.4h.1a10.4,10.4,0,0,0,9.1-5.4l2-3.7,3.2-1.8a20.1,20.1,0,0,0,16,15.5,147.9,147.9,0,0,0,25.7,2.3h.9c4.5,0,8.2-.1,11.6-.4s11.9-1,15.8-9.4c2.2-4.7,3-12.5,2.4-23.9h2.9a23.6,23.6,0,0,0,7.8-2h.2a23.6,23.6,0,0,0,7.4,2.1h.5c3.1.2,6.5.3,10.1.3h.8a136.2,136.2,0,0,0,22.9-2A17.6,17.6,0,0,0,192,154a34.7,34.7,0,0,0,5.5.8h4.1c8,0,22.8-1.6,31.2-7.4a21.1,21.1,0,0,0,3.5.5h3c7.5,0,27.9-2.4,32.6-13.3v-.2c1.7-4.3,3-16.1,2.9-25.8C287.7,84.6,286.1,55.8,270.7,39.7ZM58.8,168.9a5.3,5.3,0,0,1-2.1,2.1l-3.8,2.1a3.9,3.9,0,0,0-1.8,1.8L49,178.7a5.6,5.6,0,0,1-4.7,2.8,5.3,5.3,0,0,1-4.7-2.8l-2.1-3.8a3.9,3.9,0,0,0-1.8-1.8L31.9,171a5.2,5.2,0,0,1-2.6-3.2,5.1,5.1,0,0,1,.5-4,5.6,5.6,0,0,1,2.1-2.2l3.8-2.1a4.9,4.9,0,0,0,1.8-1.7l2.1-3.9a5.2,5.2,0,0,1,4.7-2.7,5.8,5.8,0,0,1,2.6.6,5.3,5.3,0,0,1,2.1,2.1l2.1,3.9a4.2,4.2,0,0,0,1.8,1.7l3.8,2.1A5.4,5.4,0,0,1,58.8,168.9Zm211-61.5c.3,10.5-1.2,21.9-2.5,25.2-3,7-18.5,10.3-28,10.3h-2.7a20.2,20.2,0,0,1-4.9-.9c-6.2,5.7-21.2,7.8-30.1,7.8h-3.8a22,22,0,0,1-7.2-1.5,13.2,13.2,0,0,1-7.9,4.7,129.1,129.1,0,0,1-22.3,1.9h-.5c-3.4,0-6.7-.1-9.8-.3-1.5-.2-5.7-.7-8.6-3.3a4.9,4.9,0,0,1-1.8,1.7,19.6,19.6,0,0,1-6.2,1.6l-3.9.2h-.3a4.1,4.1,0,0,1-3.8-2.5c1.2,12.9,1.1,23.9-1.4,29.2s-8.1,6.2-11.7,6.5-7.3.4-11.2.4h-.6a141.1,141.1,0,0,1-25.1-2.2,15,15,0,0,1-12.3-14.6c-.6-8-.7-16.1-.5-24.2A26.5,26.5,0,0,1,52,142a17.1,17.1,0,0,1-5,1H44.4c-9.6,0-25.1-3.3-28-10.3-1.4-3.3-2.9-14.7-2.5-25.2C1.3,85,2.3,58.1,16.5,43.1c6.3-6.6,17.1-10,32.1-10,26.1,0,58.4,10,78.2,18.6a38.1,38.1,0,0,0,30,0C176.6,43.1,209,33.1,235,33.1c15.1,0,25.9,3.4,32.1,10C281.4,58.1,282.4,85,269.8,107.4Z"/>
    <path class="cls-1" d="M171.9,92h-1a23.2,23.2,0,0,0-22.2,17.3c-3.4,14.7-3.1,31.7-1.7,35.3a5.3,5.3,0,0,0,3.6,1.3h.2c3.1.3,6.3.4,9.4.4a112.9,112.9,0,0,0,20.9-1.9,5.2,5.2,0,0,0,4.4-5.4c.4-4.9,1.4-22.2-1-35.9A12.6,12.6,0,0,0,171.9,92Z"/>
    <path class="cls-1" d="M260.9,48.9c-4.5-4.8-13.5-7.3-25.9-7.3-20.7,0-49.4,6.9-74.8,17.9a46.6,46.6,0,0,1-18.4,3.8,46.3,46.3,0,0,1-18.4-3.8c-25.4-11-54-17.9-74.8-17.9-12.4,0-21.4,2.5-25.9,7.3-9.4,9.9-11.5,27.2-6.2,43.5a4.8,4.8,0,0,1,.8-1.6,15.1,15.1,0,0,1,13.6-7.5,27.1,27.1,0,0,1,4,.4A28.7,28.7,0,0,1,51.3,94a13.9,13.9,0,0,1,1.2-2.8c2.6-4.9,8-7.7,15.1-7.8h.1A32.4,32.4,0,0,1,92.6,95.8,28.2,28.2,0,0,1,94.7,92a4.4,4.4,0,0,1,3.4-1.7,4.3,4.3,0,0,1,3.5,6.7,13.7,13.7,0,0,0-2.5,6.1v.4a4.4,4.4,0,0,1-4.2,3.5h-.7a4.1,4.1,0,0,1-2.5-1.5h-.5a4.2,4.2,0,0,1-3.8-2.2A23.7,23.7,0,0,0,67.7,91.9h-.1c-3.8,0-6.5,1.2-7.6,3.3-4.5,8.4-4.6,35.7-2.6,40.4.2.4,1.9,1.7,5.8,2.9.3-3.6.7-6.8,1.2-9.8a23.6,23.6,0,0,1,23.2-20.2h3.1a3.7,3.7,0,0,1,2.2-1.4h1a4.2,4.2,0,0,1,3.9,2.7,34.9,34.9,0,0,1,25,25.3,118.5,118.5,0,0,1,2.4,14.5,4.3,4.3,0,0,1,4-3.3l3.6-.3a7.2,7.2,0,0,0,3.2-.8h.2a3.3,3.3,0,0,1,1.7-.4h.5c-1.4-7.2-1.1-20.8,1.2-33.2h-.8a4.3,4.3,0,0,1-4.1-3.1,21.8,21.8,0,0,0-2.9-6.4h-.1a4.2,4.2,0,0,1,1.1-5.9,4.1,4.1,0,0,1,2.4-.8,4.2,4.2,0,0,1,3.5,1.9,32.3,32.3,0,0,1,3.1,5.8c5.1-12.9,18-19.6,29.3-19.6h.8a21.2,21.2,0,0,1,19.2,12.3,31.3,31.3,0,0,1,18.7-11.7,30.8,30.8,0,0,1,6.1-.7c7.1,0,12.7,2.9,15.3,7.8l1.2,2.8a28.1,28.1,0,0,1,16.3-10.3,25.8,25.8,0,0,1,4-.4,15.6,15.6,0,0,1,13.7,7.5,7.7,7.7,0,0,1,.7,1.6C272.4,76.1,270.3,58.8,260.9,48.9ZM113.3,92h-.8a17.3,17.3,0,0,0-6,1.1,3.2,3.2,0,0,1-1.6.4,4.1,4.1,0,0,1-3.9-2.6,4.2,4.2,0,0,1-.1-3.3,5.1,5.1,0,0,1,2.3-2.3,24.4,24.4,0,0,1,9.3-1.8h.9a4.3,4.3,0,0,1,4.1,4.3A4.2,4.2,0,0,1,113.3,92Zm19.3,4a4,4,0,0,1-5.9.7,26.2,26.2,0,0,0-6.4-3.4h-.2a3.7,3.7,0,0,1-2.3-2.3,4,4,0,0,1-.1-3.2,4.3,4.3,0,0,1,4-2.7,4,4,0,0,1,1.5.3,31.3,31.3,0,0,1,8.6,4.7,4.6,4.6,0,0,1,1.7,2.8A4.4,4.4,0,0,1,132.6,96Z"/>
    <path class="cls-1" d="M252.6,91.8l-2.3.2a20,20,0,0,0-15.1,15.9,105.2,105.2,0,0,1,0,26.3,21.2,21.2,0,0,0,4.4.4,50,50,0,0,0,10.8-1.4c6.3-1.4,8.7-3.3,9-3.7,1.7-4.2,3.3-28.1-.4-34.4C257.8,92.9,255.6,91.8,252.6,91.8Z"/>
  </g>
</svg>
