<svg id="Layer_1" data-name="Layer 1" xmlns="http://www.w3.org/2000/svg" width="177.8" height="256.5" viewBox="0 0 177.8 256.5">
  <defs>
    <style>
      .cls-1 {
        fill: #fff;
      }
    </style>
  </defs>
  <g>
    <path class="cls-1" d="M151.1,22.1c-8.2-5.7-17.9-7.6-29.5-7.6H121a77.6,77.6,0,0,0-17.9,2.2c-.5.1-.8.4-.8.8a.8.8,0,0,0,.5,1l8.6,4.6a4.8,4.8,0,0,1-2.5,9,4.6,4.6,0,0,1-2-.5L86.9,21l-2.8-1.3c-5.4-2.4-13.1-4.2-21-4.9L48.5,15h-.1c-8.5,1-15.9,3.4-21.4,7.1-8.2,5.7-11.9,13-12.3,24.3V49c1.5,19,3.5,25.1,7.9,35.6.6,1.3,1.4,2.8,2.3,4.4l.2.4,1,1.7a1.1,1.1,0,0,0,.9.5H52a5.5,5.5,0,0,0,5.2-3.1c0-.1.1-.2.1-.4V79.5a13.4,13.4,0,0,1,3.1-9.4C62,68.2,65.1,66,70.6,66h36.8c5.5,0,8.6,2.3,10.3,4.1,3.1,3.5,3.1,8,3.1,9.3v8.7c0,.2.1.3.1.4a5.5,5.5,0,0,0,5.2,3.1h25.8a.6.6,0,0,0,.7-.2c.7-.6,2.3-2.3,4-6.5,5.6-14.1,5.9-18.7,6.9-35.9a2.4,2.4,0,0,0,0-1.2V46.2C163.1,35,159.3,27.8,151.1,22.1Z"/>
    <path class="cls-1" d="M159,10.2C149.4,3.6,136,0,121.3,0h-.4a86,86,0,0,0-32,6.1c-6.8-3-15.4-4.9-25-5.8H63L48,.5H46.9C35.8,1.8,26.1,5.2,18.7,10.2,6.7,18.5.6,30.2,0,46v4.2C1.8,71.5,4.2,78.8,9.1,90.4c.7,1.6,1.5,3.1,2.3,4.6v.2l.7,1.2c.8,1.4,1.6,2.8,2.3,4.3a9.9,9.9,0,0,0,8.9,5.6H51.2c-8.9,1.6-16,5.5-21.2,11.5-15.3,17.3-8.5,45.5-5.9,54.3v.3l.4.7v.6l.2.2c2.3,5.5,2.2,9.4,1.9,22.1v2.9c-.5,20,5.1,34.5,9.8,43.3s8.9,14.2,19.6,14.2,16.4-9.1,17.1-17.5c.3-3.2.4-6.2.4-9.5a83.6,83.6,0,0,1,3.6-24.3,63,63,0,0,1,5.6-14.6,11.1,11.1,0,0,1,5.4-3.5c1.5,0,3,2.3,3.6,3.3a49.6,49.6,0,0,1,5.6,14.4c1.4,6.4,2.3,14.2,2.9,19.4l.2,1.8c.4,2.8.6,5.2,1,7.1,3,16.2,11,23.5,17.1,23.5,9.9,0,14-4.4,19.6-14.3s9-25.7,9.8-42.5c.7-14.1,2.4-18.9,5.3-26.1a4.1,4.1,0,0,0,.6-1.6c5.7-20.1,4.1-38.6-4.3-49.5S128.2,107,110.5,107h-3.2a9.9,9.9,0,0,0-8.6,5.1V91.2H79.1v16.1h-.7a86.3,86.3,0,0,0-16.8-1.7l-4.3.2A19.7,19.7,0,0,0,71.5,91.9h0a10,10,0,0,0,.4-2.4V83.9h.6l-.4-3.3h34.1V89a9.7,9.7,0,0,0,.2,2.4v.4c3.3,11.4,13.8,14.4,19.5,14.4h26.6c3.3,0,11.4-1.5,17.2-15.8s6.7-21.3,8-40.5h0v-4C177.2,30.2,171.1,18.5,159,10.2ZM61.6,110.4A83.8,83.8,0,0,1,77.4,112l.6.2,4.8,1.5h.3l.6-.2a.9.9,0,0,0,.4-.8V96.2h9.6v43.3a1.3,1.3,0,0,0,.6,1h.4a.9.9,0,0,0,.7-.3l6.4-6.3,6.8,6.8L92.3,156.9a4.8,4.8,0,0,1-6.8,0h0L69.2,140.7l6.8-6.8,6.4,6.3a.9.9,0,0,0,.7.3h.4a1.1,1.1,0,0,0,.6-1V125a1.1,1.1,0,0,0-.7-1l-8-2.6h-.1A71,71,0,0,0,61.5,120c-9.4,0-16.3,2.5-20.6,7.4-9.2,10.5-5.8,31.1-2.8,40.5s3.5,15.4,3.2,29.7v1.7c-.4,17.8,4.8,30,8,35.7s4,6.9,6.8,6.9,2.5-3.4,2.5-4.3a75,75,0,0,0,.4-8.2v-.2a98.1,98.1,0,0,1,4.1-27.9c1.7-5.8,3.5-12.2,7.3-18.4s9.9-10.5,17.5-10.5h.5c3.7.1,10.7,1.5,16,10.6a63.2,63.2,0,0,1,7.3,18.6,204.7,204.7,0,0,1,3.1,20.6v.2c.4,3.5.7,6.2,1,7.9,1.1,5.7,2.7,9,3.9,10.7a.7.7,0,0,0,.7.4h.1a.7.7,0,0,0,.6-.2c1.1-.7,2.2-2.3,4.4-6.2,4.2-7.6,7.3-21.7,7.9-36.1.8-16.3,2.9-22.6,6.5-31,4.7-16.6,4.1-28.9-1.8-36.4s-18.5-9.9-27.6-9.9h-3.2a4.8,4.8,0,0,1-4.8-4.8,4.9,4.9,0,0,1,4.8-4.8h3.2c16,0,28.2,4.7,35.1,13.6s9.1,25.4,3.4,45.3c0,.2-.1.3-.2.5-3.1,7.5-5.1,12.9-5.8,28.1s-4.1,31.2-9.2,40.3-7.8,11.7-15.2,11.7c-3.6,0-9.7-6.1-12.2-19.4-.4-2.1-.7-5.1-1.1-8.6-.7-6-1.6-13.5-3-19.9a53.6,53.6,0,0,0-6.2-15.8c-2.2-3.8-4.9-5.8-7.9-5.8s-7.8,3-9.6,5.9c-3.1,5.1-4.8,10.8-6.2,15.8a89.3,89.3,0,0,0-3.8,25.7c0,2.8-.1,5.7-.4,9-.5,6.3-4.5,13-12.1,13S45.6,248,40.9,239.7c-3.6-6.6-9.7-20.6-9.2-40.7v-1.7c.3-14.1.5-18.9-2.5-25.8a.4.4,0,0,0-.1-.3c-.4-1.4-10.7-32.7,4.6-50.1C39.9,114,49.3,110.4,61.6,110.4ZM172.8,49.7c-1.2,18.5-1.7,23.9-7.7,38.9-4.7,11.8-10.8,12.7-12.5,12.7H126c-4.3,0-12.2-2.3-14.7-10.8a5.7,5.7,0,0,1-.1-1.3V78.8a3.9,3.9,0,0,0-.7-2.3,4.4,4.4,0,0,0-3.1-.9H70.6c-1.1,0-2.5.2-3.1.9a3.5,3.5,0,0,0-.6,2.4h-.1c0,.2.1.3.1.5v9.8a5.9,5.9,0,0,1-.2,1.3C64.2,99,56.3,101.3,52,101.3H23.3a4.9,4.9,0,0,1-4.4-2.8,42.3,42.3,0,0,0-2.5-4.7v-.2a51.2,51.2,0,0,1-2.7-5.2C8.9,77.2,6.7,70.2,5,49.8V46.2c.5-14.3,5.8-24.5,16.5-31.9,6.8-4.6,15.8-7.6,26-8.8H48l15.1-.2h.4c9.3.8,17.9,2.8,24.4,5.8l.6.2h.8l.6-.2c8.4-3.8,20-6.1,31-6.1h.4c13.7,0,26.1,3.3,34.9,9.3,10.8,7.4,16.1,17.5,16.6,31.8Z"/>
  </g>
</svg>
