<svg id="Layer_1" data-name="Layer 1" xmlns="http://www.w3.org/2000/svg" width="322.2" height="248.6" viewBox="0 0 322.2 248.6">
  <defs>
    <style>
      .cls-1 {
        fill: #fff;
      }
    </style>
  </defs>
  <g>
    <path class="cls-1" d="M183.5,154.1c4.3.9,8.9.9,13.3,1h1.7c10.8,0,19.7-7.3,22-18.1,1.3-6.1,1.3-12.5,1.2-18.6,0-2.1-.1-4.4,0-6.6,0-.3-.1-.5-.1-.7l-2.1-5c-1.5-3.7-3.1-7.6-4.4-11.4-.7-1.7-1.4-2.2-3.1-2.2H180.4c-9.1.2-15.5,6.7-15.5,15.9q-.2,11.3,0,22.2C164.9,141.7,172.9,151.8,183.5,154.1Z"/>
    <path class="cls-1" d="M235.8,97a1.6,1.6,0,0,1-.3.9c0,.1.4-.8-.1.4s-1,2.5-1.6,3.8a31.7,31.7,0,0,0-2.7,8.4,101.3,101.3,0,0,0,.5,22.7c1.7,11.2,8.3,18.5,19,21.1a34.5,34.5,0,0,0,8.5.8h4.4c13.1,0,23.3-8.7,25.4-21.5a84.2,84.2,0,0,0,.7-10.1c.1-1.4.4-4.2.2-4.2s-.3-.2-.3-.4v-3.8h0c0-2.6.1-5.4-.1-8.2a14.8,14.8,0,0,0-14.7-14.4H241.6C237.8,92.5,236.2,93.8,235.8,97Z"/>
    <path class="cls-1" d="M108.2,95l10.7,4.1,2.7,1c2.7,1,4,2.6,4,5.1s-1.4,4.3-4,5.3l-4.1,1.4-9.3,3.5a3.9,3.9,0,0,0-1.8,1.8l-2.1,5.6c-.7,1.8-1.4,3.7-2.2,5.5-1.3,3.4-2.7,7.3-1.6,11.5,1.9,7.4,6.9,12.3,14.4,14.2,4.2,1,8.8,1,13.2,1.1h1.5c12.6,0,23.1-9,24.6-20.9a147.2,147.2,0,0,0,.4-27.8,14.4,14.4,0,0,0-14.5-13.2H106.3v.3l.4.4A4.2,4.2,0,0,0,108.2,95Z"/>
    <path class="cls-1" d="M216.8,72.7c1.6,4.7,3.4,9.5,5.1,14.1l1,2.5c.7,2,1.5,3.9,2.3,6l.7,1.9c.1-.2.2-.3.2-.5l2.1-5.5L234.8,73a8.2,8.2,0,0,1,5-5.1c2.6-.8,5.2-1.8,7.7-2.8l2.6-.9,10.4-3.9,3.9-1.5-.8-.4-5.6-2c-4.9-1.8-10.7-3.9-14.8-5.2s-8.4-3.4-9.4-9.3a4.9,4.9,0,0,0-.6-1.7l-.4-.9-6.9-18.7-.7,1.6-1.6,4.3-6.9,18.8a7,7,0,0,1-4.3,4.4l-20,7.3-3.7,1.5-1.1.4h.4l2.2.9,4.9,1.8L212.2,68A7.4,7.4,0,0,1,216.8,72.7Z"/>
    <path class="cls-1" d="M307.9,153.6a10.7,10.7,0,0,0-.3-2.5c-1.1-5.3-3.5-7.3-8.9-7.3h-2c-.9,0-1.5.5-2.2,1.7a34.6,34.6,0,0,1-19.8,17.2,39.9,39.9,0,0,1-13.3,1.7h-4.7c-12.4-.2-22.3-5.6-29.2-16.2a4.4,4.4,0,0,0-.8-1.1c-4.4,8-10.4,13.1-18.4,15.7a41,41,0,0,1-12.5,1.7l-6.5-.2h-.9a31.9,31.9,0,0,1-21.5-8.8,79.9,79.9,0,0,1-5.4-6.2l-2-2.4-.3.4c-6.6,10.6-16,16.4-27.7,17-2.3.2-4.8.3-7.3.3a40.1,40.1,0,0,1-11.9-1.5A31.7,31.7,0,0,1,94.7,150l-1.1,1.2-3.1,3.2c-7.3,6.9-16.4,10.3-27.8,10.3a70.5,70.5,0,0,1-11.2-.9c-10.5-1.5-18.8-7.7-24.7-18.5a3.2,3.2,0,0,0-1-1.3,11,11,0,0,0-3.1-.4c-3.8,0-6.5,2.3-7.7,6.4a19.7,19.7,0,0,0-.6,4.8c-.1,12.9-.1,23.8,0,34.7a51.2,51.2,0,0,0,.8,8.7,44.6,44.6,0,0,0,44.1,36.4H260.1a55.9,55.9,0,0,0,14.1-1.5,44.7,44.7,0,0,0,33.5-41c.4-9,.3-18.1.2-26.9Z"/>
    <path class="cls-1" d="M85,105.8c1.3.5,2.7,1.1,4.1,1.5a7,7,0,0,1,5,5l1.6,4.4.5,1.2c.1-.4-.2.3.4-1.2s1.1-2.8,1.5-4.1a7.2,7.2,0,0,1,5.2-5.3l4.3-1.6,1.2-.5-1.2-.5-4.3-1.5a7.2,7.2,0,0,1-5.2-5.3l-1.6-4.2-.3-1a6.9,6.9,0,0,0-.5,1.3,22.8,22.8,0,0,1-2.1,5.1,9.7,9.7,0,0,1-3.8,3.7,26.2,26.2,0,0,1-4.6,1.9l-1.6.6Z"/>
    <path class="cls-1" d="M322.1,157v-3.4c0-8.8-4-16.4-11.7-21.8h-.2a12.6,12.6,0,0,0-6.2-2h-.1v-4.1c-.1-2-.1-4-.1-6.1,0-5.1,0-10.4-.4-15.7h0c-1.4-13.7-13.6-25-27.3-25.3H252.4l20.4-7.4,4-1.3c7-2.6,8-7.9,8-10.8s-1.4-7.9-7.9-10.5l-4.8-1.7-24.7-9.1c-1.3-3.7-2.7-7.4-4-10.9l-3.3-8.9c-1.2-3.2-2.4-6.4-3.5-9.5C234.8,3,230.9,0,225.9,0c-2.8,0-7.9,1-10.6,7.8l-.5,1.5-3,8.1c-2.5,6.6-5,13.4-7.4,20.1l-29.9,11c-6,2.2-8.9,8.1-6.9,14a10,10,0,0,0,7.2,7l.7.2,23.3,8.6H179.4A27.1,27.1,0,0,0,162.8,84a38.8,38.8,0,0,0-3.1,2.6,27,27,0,0,0-19.1-7.7H106.4a11.7,11.7,0,0,1-.5-1.1c-1.7-4.4-5.2-7-9.7-7a10.5,10.5,0,0,0-9.9,7.3L85.7,80a34.9,34.9,0,0,0-7.8-1.6h-.2l-14.3-.2H47a29,29,0,0,0-28.2,22.1,52.8,52.8,0,0,0-1.1,8.9v20.7H16a8,8,0,0,0-4.5,1.7l-.2.2-2.1,2a32.6,32.6,0,0,0-5.6,6.6C1.5,143.8.1,149.9,0,153.9v34.5c0,16.2,5.4,30.1,16.1,41.4s24.4,18,39.2,18.5c5.7.2,12.1.3,19.5.3H258.2c7.3,0,15.8-.2,24.2-3.2,22.7-7.6,39.4-30.3,39.7-53.8C322.3,179.9,322.2,167.7,322.1,157Zm-5,34.5c-.3,21.5-15.6,42.2-36.3,49.2-7.8,2.7-15.8,2.9-22.6,2.9H74.8c-7.5,0-13.7-.1-19.3-.3-13.7-.5-26-6.5-35.8-16.9S5,203.2,5,188.4V154c.1-3.5,1.4-8.6,2.8-10.8a29.6,29.6,0,0,1,4.9-5.7l1.9-1.9a2.5,2.5,0,0,1,1.6-.6h.6l5.9-.6V109.3a41.7,41.7,0,0,1,1-7.9A24.1,24.1,0,0,1,47.1,83.2H63.4l14.1.2a26.1,26.1,0,0,1,7.8,1.8l3.3,1,.6-1.4c.6-1.6,1.3-3.4,1.9-5.2a5.3,5.3,0,0,1,5.1-3.8q3.6,0,5.1,3.9c1.7,4.1,1.8,4.2,5.2,4.2h34.1c7,0,12.9,2.9,17.7,8.5l1.3,1.4,1.7-1.7a45.8,45.8,0,0,1,4.6-4.2,21.9,21.9,0,0,1,13.9-4.6h30.9c-.2-.5-.3-1-.5-1.5l-1.8-4.9c-.1-.2-.5-.5-1.4-.9L177.2,65c-1.9-.7-3.8-.8-4.9-4.1s.4-6.4,3.9-7.7l30.1-11.1a4.1,4.1,0,0,0,2.8-2.9c3.4-9.4,7-19,10.4-28.2l.5-1.4c1.2-3.1,3.1-4.6,5.9-4.6s4.9,1.6,6,4.8,2.3,6.4,3.5,9.6c2.4,6.6,5,13.3,7.4,20a4.1,4.1,0,0,0,2.7,2.7l24.9,9.2,4.7,1.7c3.1,1.2,4.7,2.9,4.7,5.8s-1.6,4.9-4.8,6.1l-3.8,1.3-26.3,9.5a3.3,3.3,0,0,0-2.1,2.2c-.4,1.3-1.2,3.5-1.3,4s-.3.9-.4,1.4h35c11,.2,21.2,9.7,22.3,20.8.4,5.1.4,10.3.4,15.3,0,2.1,0,4.2.1,6.3v8.9h4.8a8.5,8.5,0,0,1,3.8,1.2c6.4,4.6,9.6,10.6,9.6,17.8V157C317.2,168.3,317.3,180.1,317.1,191.5Z"/>
    <path class="cls-1" d="M51.9,154.4a49.1,49.1,0,0,0,9.4.9l6-.3c10.7-.9,18.6-6.4,22.7-15.7a16.3,16.3,0,0,0,.7-9A65.5,65.5,0,0,0,87,119.8l-1-2.4a4.1,4.1,0,0,0-2.1-2c-2.3-1-4.7-1.9-7-2.7l-6.1-2.3a6.8,6.8,0,0,1-3.1-2.2,5.3,5.3,0,0,1-.8-4.4,6.4,6.4,0,0,1,3.9-3.8l9.5-3.5L84,95.1l-.2-.2-1.2-.7-1.9-.5a22.9,22.9,0,0,0-5.8-1.1c-6.2-.2-12.4-.2-18.5-.2H48.9c-10.5,0-16.8,6.3-16.8,16.8,0,1.8,0,3.5-.1,5.2,0,5.2,0,10.6.2,15.9C32.6,142,40.9,152.1,51.9,154.4Z"/>
  </g>
</svg>
