<svg id="Layer_1" data-name="Layer 1" xmlns="http://www.w3.org/2000/svg" width="204.2" height="258.4" viewBox="0 0 204.2 258.4">
  <defs>
    <style>
      .cls-1 {
        fill: #fff;
      }
    </style>
  </defs>
  <g>
    <path class="cls-1" d="M180,60.8l-.4.4a4.1,4.1,0,0,1-5.8-.4L155.7,41a4.3,4.3,0,0,1-.7-4.6,4.3,4.3,0,0,1,3.8-2.5h5.5V30.7a26.5,26.5,0,0,0-7.4-1.1c-5.9,0-12.7,1.8-20.2,5.5a42.2,42.2,0,0,0,41.6,35.5,36.9,36.9,0,0,0,8.7-1,91.6,91.6,0,0,0-2.5-13.7Z"/>
    <path class="cls-1" d="M171.2,98.1c-18.9,0-36.1-11-44.8-27.2a4,4,0,0,1-2.6,4.2A72.1,72.1,0,0,1,97,80.2a72,72,0,0,1-26.7-5.1h-.2a4.1,4.1,0,0,1-2.2-5.3A4.2,4.2,0,0,1,71.8,67l1.5.3a64.7,64.7,0,0,0,47.4,0l1.5-.3a4.3,4.3,0,0,1,2.8,1.1,47.9,47.9,0,0,1-3.2-9.7l-3,1.8-.7.4a59,59,0,0,1-42.2,0l-.7-.4C63.1,52.5,52.7,48.6,44.1,48.6c-12,0-20.7,7.7-26.8,23.5-7,25.1-4.4,49.5,7.6,70.6l.5,1c2.8,4.8,4.1,7.4,3,14.2-6.3,38.2,4.9,66.7,34.3,87.1H63s.4,0,.4-.5V195.1a22.8,22.8,0,0,1,0-3.7,33.6,33.6,0,1,1,67.1,3.7v49.3l.2.3c0,.1.2.2.4.2h.2c29.4-20.4,40.6-48.9,34.3-87.1-1.1-7,.3-9.6,2.8-14l.7-1.2h0a86,86,0,0,0,11.4-45.4A48.8,48.8,0,0,1,171.2,98.1Z"/>
    <path class="cls-1" d="M185.4,42.3h-.1a4.2,4.2,0,0,1-4.2-4.2V13.5h-8.4V38.1h0a4.2,4.2,0,0,1-4.2,4.2h-.1l8.5,9.4Z"/>
    <path class="cls-1" d="M203.3,34.3a9.3,9.3,0,0,0-8.2-5.4h-.5V9.3a9.2,9.2,0,0,0-9-9.3H168.5a9.2,9.2,0,0,0-9.2,9.2v7h-2.2c-8.7,0-18.6,2.8-29.2,8.3a9.4,9.4,0,0,0-5,9,52.9,52.9,0,0,0,1.6,9,9.4,9.4,0,0,0-3.7,1.1,74.8,74.8,0,0,0-8.3,4.8,46.2,46.2,0,0,1-15.2,2.6h-.7a45.1,45.1,0,0,1-15-2.6C67.6,39.5,55,35.1,44.1,35.1c-12.4,0-29.3,5.6-39.4,32.3l-.3.9v.3c-8,28.5-5,56.4,8.7,80.7l.2.2.7,1c1.5,2.7,1.5,2.8,1.2,5.1-7.2,43.2,6.3,77,40,100.4a13.6,13.6,0,0,0,7.8,2.4,13.7,13.7,0,0,0,11.5-6.1,13.6,13.6,0,0,0,2.4-7.8V195.1a20.1,20.1,0,0,1,40.2,0v49.4A13.9,13.9,0,0,0,131,258.4h.1a13.2,13.2,0,0,0,7.8-2.5c33.7-23.3,47.1-57,39.9-100.4-.4-2.1-.4-2.1,1.1-4.8v-.2l.7-1.2a99.6,99.6,0,0,0,13-58.2,9.4,9.4,0,0,0-3.9-6.8,9.1,9.1,0,0,0-2.2-1.1c2.2-.4,4.4-.9,6.5-1.5a9.2,9.2,0,0,0,6.6-9.6,118.6,118.6,0,0,0-3.9-22.2l5-5.6A9.3,9.3,0,0,0,203.3,34.3ZM188.7,91.5a95.5,95.5,0,0,1-12.3,55.3l-.7,1.2c-2.1,3.8-2.5,4.4-1.8,8.4,6.8,41.2-5.9,73.3-37.8,95.4a9,9,0,0,1-5,1.6H131a8.9,8.9,0,0,1-8.9-8.9V195.1h0a25.1,25.1,0,0,0-50.2,0v49.4A8.9,8.9,0,0,1,58,251.9c-31.9-22.2-44.7-54.3-37.9-95.5.6-4.1.3-4.7-1.9-8.6l-.7-1C4.4,123.7,1.5,97,9.3,69.6v-.4c7.3-19.3,19-29.1,34.7-29.1,10.1,0,22,4.3,35.3,12.7A50.2,50.2,0,0,0,97,55.9a51.2,51.2,0,0,0,17.7-3.1,87.7,87.7,0,0,1,8.4-4.9,4.1,4.1,0,0,1,1.9-.5,4.6,4.6,0,0,1,2,.5,4.2,4.2,0,0,1,2.2,3.4c1.9,21.4,20.4,38.3,42,38.3a41.2,41.2,0,0,0,12.1-1.8l1.2-.2a4.1,4.1,0,0,1,2.4.8A4.2,4.2,0,0,1,188.7,91.5ZM198.1,41l-7,7.7.6,1.6a111.2,111.2,0,0,1,4,22.2,4.2,4.2,0,0,1-3,4.4,54.7,54.7,0,0,1-9.8,1.9,50.7,50.7,0,0,1-55-45.8,4.4,4.4,0,0,1,2.3-4.1c9.8-5.1,18.9-7.8,26.9-7.8a35.3,35.3,0,0,1,7.2.8V9.3h0A4.2,4.2,0,0,1,168.5,5h17a4.2,4.2,0,0,1,4.1,4.3V33.9H195a4.3,4.3,0,0,1,3.8,2.5A4.3,4.3,0,0,1,198.1,41Z"/>
  </g>
</svg>
