<svg id="Layer_1" data-name="Layer 1" xmlns="http://www.w3.org/2000/svg" width="304" height="256.6" viewBox="0 0 304 256.6">
  <defs>
    <style>
      .cls-1 {
        fill: #fff;
      }
    </style>
  </defs>
  <g>
    <path class="cls-1" d="M194.3,171.4a12.7,12.7,0,0,0,2.6,13.4c1,1.1,2.2,2.6,2,4.4a5.9,5.9,0,0,1-2.5,3.8l-2,1.5a100.8,100.8,0,0,1-10.1,7,59.2,59.2,0,0,1-41.6,8.5c-12.2-1.9-23.5-7.3-34.5-16.5-1.7-1.4-3-2.6-3.1-4.3s.9-3.1,2.4-4.8a12.6,12.6,0,0,0,.1-16.4,13.2,13.2,0,0,0-9.8-4.6A11.5,11.5,0,0,0,92,165L66.1,181.6a5.5,5.5,0,0,0-1.6,8c11,15.6,22.8,27.5,36.2,36.6,16.2,10.9,33.3,16.5,50.7,16.6a88.2,88.2,0,0,0,43.7-11.6c16.7-9.3,31.2-23,44.4-41.7a5.5,5.5,0,0,0,1-4.1,6.4,6.4,0,0,0-3-4l-25-16-1.8-1A12.6,12.6,0,0,0,194.3,171.4Z"/>
    <path class="cls-1" d="M147.5,201.7V139.4l-1.6.2-7.7,1.1c-12.1,2.2-22,8.5-32.3,15.5A21.9,21.9,0,0,1,118.2,169a22.3,22.3,0,0,1-2.4,19.3C126,196.3,136.4,200.8,147.5,201.7Z"/>
    <path class="cls-1" d="M41.6,76.3H41L25.9,81.1,19.8,83c-5.4,1.7-7.1,4.9-5.4,10.3L27,133.6c1.1,3.6,3.5,5.5,6.7,5.5a9,9,0,0,0,2.8-.4l9.9-3.1c4.2-1.3,8.3-2.7,12.5-3.9l.4-.2v-.2c.2-2.4.4-4.8.6-6.5v-1.4c0-17.9-6.4-34.5-18-46.8C42,76.5,41.7,76.3,41.6,76.3Z"/>
    <path class="cls-1" d="M185.9,168.8a20.5,20.5,0,0,1,12.5-12.7c-12.5-9.4-30.5-16.7-41.7-16.7h-.2v62.3c11.1-1,21.6-5.4,31.8-13.5A21.2,21.2,0,0,1,185.9,168.8Z"/>
    <path class="cls-1" d="M63.8,72.4a3.5,3.5,0,0,0-3-1.9H60c-2.7.7-5.4,1.6-8.3,2.5l-.8.3C64.2,89.5,70,107.6,68.5,128.6l3.8-1.1,15.4-5a3.2,3.2,0,0,0,1.8-1.8,4.1,4.1,0,0,0-.3-3.4Z"/>
    <path class="cls-1" d="M101.2,148.7l6.8-4.4c12.4-8.3,25.7-12.9,39.6-13.6V96c-2.6-.3-5.4-.6-8.1-1.1C128.1,92.7,117.2,88,105,80.1,90.2,70.5,76.3,58.2,61.2,41.5c-5.2-5.9-10.3-12-15.3-18l-3.2-3.8c-2.8-3.3-5.7-5.1-9.2-5.7h-.4l-1.6-.2a1.1,1.1,0,0,0-1.2.6c-.3.6-.5,1.2.9,2.9l.3.5h.1c9.9,14,15,28.2,15.7,43.6v3.9l1.2-.4,7.4-2.3a16.2,16.2,0,0,1,4.9-.8c4.6,0,8.5,2.4,11.1,7.1l6.7,11.9L82,86.7l4.5,8,10.2,17.9a13.2,13.2,0,0,1,1.1,10.8,12.8,12.8,0,0,1-5.5,6.6A21.1,21.1,0,0,1,101.2,148.7Z"/>
    <path class="cls-1" d="M232.4,68.3a12.1,12.1,0,0,1,11.1-6.5h1.1a15.5,15.5,0,0,1,3.6.8l.7.2,7.3,2.3h.4a73.8,73.8,0,0,1,7.9-33.9c1.9-3.8,4.2-7.4,6.4-10.9l2.4-3.8c.7-1.2.6-1.7.3-2.2s-.3-.5-1.2-.5h-.5a12.7,12.7,0,0,0-9.7,4.9l-5.6,6.6-4.2,5c-16,19.1-30.4,33.1-45.3,44.1C194.2,84,182.6,90,170.8,93.2A104,104,0,0,1,160,95.5l-3.5.7v34.3l.3.2c9.9.5,18.2,2.5,25.3,6.1,5.3,2.6,10.4,5.7,15.3,8.7l5.3,3.2a21.2,21.2,0,0,1,9-18.8,12.5,12.5,0,0,1-5.6-6.6,12.7,12.7,0,0,1,1.4-10.9C214.6,99.6,222.3,86.1,232.4,68.3Z"/>
    <path class="cls-1" d="M288.7,70l-5.2-1.6-13.2-4a67.3,67.3,0,0,1,4.3-22.2,77.1,77.1,0,0,1,9.9-17.7A15.5,15.5,0,0,0,286,8.1,14.5,14.5,0,0,0,273.1,0h-.8a30.9,30.9,0,0,0-7.4,1.2c-7.3,1.9-12,6.8-15.7,11.4-10,12.3-23.5,28.2-39.5,42C197.7,64.9,187,72,176.1,76.8c-8.5,3.7-16.4,5.5-24.2,5.5a58.5,58.5,0,0,1-8.5-.7c-8.7-1.6-17.6-5.1-27.1-10.9C102,62.2,88.4,50.6,73.5,34.3c-4.8-5.3-9.7-11-14.2-16.4l-7-8.2A26.8,26.8,0,0,0,31.9,0h-.6A15.3,15.3,0,0,0,20.2,4.8a14.4,14.4,0,0,0-3.8,10.8h0v.2a20.7,20.7,0,0,0,3.5,9.2c9,12.6,13.5,25.5,13.7,39.2l-9.8,3.1-8.2,2.5C9.7,71.8,4.9,75.5,2.3,80.4s-3,10.8-1.1,17.1c4.9,15.4,8.8,28.1,12.5,40,3.1,9.5,10.7,15.4,20,15.4a20.5,20.5,0,0,0,7.3-1.3l10.4-3.2,26.4-8.2a6.6,6.6,0,0,1,2.3-.4,7.5,7.5,0,0,1,4,13.9l-14.4,9.2-10.9,7a20.3,20.3,0,0,0-8.9,12.7v.2a18.8,18.8,0,0,0,3.2,14.5c11.6,16.7,24.5,29.8,39.5,40,18.4,12.5,37.8,19.2,56.3,19.3h.1c20.7,0,38.3-4.7,55.5-14.9s32-24.3,45.6-43.3a20.3,20.3,0,0,0,3.9-15.6v-.2h0a21.1,21.1,0,0,0-9.5-13.1l-6.5-4.1-17.9-11.5a7.6,7.6,0,0,1-3-9.7,7.4,7.4,0,0,1,6.6-4.2h.2a8.4,8.4,0,0,1,2.7.4l36.5,11.5a24.6,24.6,0,0,0,7.2,1.1c9.3,0,16.9-5.8,19.9-15.2l6.3-20.4c2.1-6.7,4.3-13.5,6.4-20.3C306.6,85,300.7,73.9,288.7,70Zm9.4,25.5c-4.2,13.6-8.5,27.1-12.7,40.7-2.3,7.3-8,11.7-15.1,11.7a18.4,18.4,0,0,1-5.7-.9l-36.5-11.5a15.2,15.2,0,0,0-4.2-.6,12.2,12.2,0,0,0-11.3,7.1,12.6,12.6,0,0,0,4.9,16.1l17.8,11.4,6.6,4.2a16.1,16.1,0,0,1,7.2,9.9,15.1,15.1,0,0,1-3,11.8c-13.2,18.5-27.7,32.3-44.1,42s-33.2,14.2-53,14.2h-.1c-17.5-.1-36-6.5-53.5-18.4-14.3-9.8-26.8-22.4-38.2-38.8a13.7,13.7,0,0,1-2.4-10.7,15.4,15.4,0,0,1,6.7-9.6l10.9-7,14.4-9.2a12.7,12.7,0,0,0,5.8-10,12.8,12.8,0,0,0-4.9-10.4,12.1,12.1,0,0,0-7.5-2.7,13.2,13.2,0,0,0-3.9.6l-26.4,8.2-10.5,3.3a16.5,16.5,0,0,1-5.8,1c-7.1,0-12.7-4.5-15.1-11.9C14.4,122.7,10.2,109.3,6,96c-1.5-4.9-1.3-9.5.7-13.2a17.4,17.4,0,0,1,10.4-8.1l8.2-2.5,12.9-4.1h.3a.4.4,0,0,1,.1-.3c.5-16-4.2-30.9-14.6-45.5a15.3,15.3,0,0,1-2.6-6.9,9.3,9.3,0,0,1,2.5-7.1A10.1,10.1,0,0,1,31.4,5h.5a22.2,22.2,0,0,1,16.6,7.9l7,8.2c4.6,5.5,9.4,11.2,14.3,16.6,15.1,16.5,29,28.4,43.9,37.3,10,6,19.4,9.8,28.8,11.5a58.6,58.6,0,0,0,9.4.8c8.4,0,17-1.9,26.2-5.9,11.4-5,22.5-12.3,34.9-23,16.2-14,29.9-30.1,40.1-42.7,3.4-4.2,7.3-8.2,13.1-9.7a26.7,26.7,0,0,1,6.3-1h.3a9.4,9.4,0,0,1,8.7,5.3,10.4,10.4,0,0,1-1,11.2A81.4,81.4,0,0,0,270,40.4a71.4,71.4,0,0,0-4.7,26.2c0,1.4.2,1.5,1.3,1.9l15.5,4.7,5.1,1.6C296.6,77.8,301,86.1,298.1,95.5Z"/>
    <path class="cls-1" d="M284.7,83.3l-5.9-1.9-15.9-5h-.5s-.2,0-.5.3c-11.7,12.8-17.6,27.9-18,46.4.1.5.1,1.1.2,1.7s.4,4.2.6,6.6h0l.4.2,12.7,4,9.6,3a9.2,9.2,0,0,0,2.9.4c3.2,0,5.5-1.9,6.7-5.5,4.2-13.6,8.5-27.2,12.8-40.8C291.2,88.3,289.3,84.7,284.7,83.3Z"/>
    <path class="cls-1" d="M253.1,73.3h-.6L245.3,71l-2-.4c-1,0-2.2.3-3.5,2.5l-24.6,43.4a5.4,5.4,0,0,0-.7,4.1,4.9,4.9,0,0,0,3.2,2.4l16,5.1,1.8.5C234,108,239.9,89.4,253.1,73.3Z"/>
  </g>
</svg>
