<svg id="Layer_1" data-name="Layer 1" xmlns="http://www.w3.org/2000/svg" width="311.1" height="256.4" viewBox="0 0 311.1 256.4">
  <defs>
    <style>
      .cls-1 {
        fill: #fff;
      }
    </style>
  </defs>
  <g>
    <path class="cls-1" d="M311,42.3c-.9-23.9-19.9-42-44.2-42h-.9c-23.3.5-42.3,20.1-42.3,43.9V52c0,5.5,0,11.2-.1,16.8a126.3,126.3,0,0,1-9.6,47.8c-8.4,20-19.5,34.7-33.8,44.8-8.4,6.1-16.3,9-24.2,9l-3.6-.2h-.1c-10-1.1-19.4-5.9-28.5-14.6-21-20-33-46.2-35.5-77.9-.5-6.2-.5-13.6-.5-19s0-11.5-.3-17.4C86.4,24.1,77.1,10.9,61.3,4A45.1,45.1,0,0,0,43.1,0c-9.5,0-18.6,3.4-27,10.2C2.4,21.6-2.7,36.7,1.5,53.5A52.7,52.7,0,0,0,7.1,67.2,14.2,14.2,0,0,0,7.9,69,44.5,44.5,0,0,0,.3,99.3a45.5,45.5,0,0,0,14.3,27.8,41.3,41.3,0,0,0-2.4,7,43.5,43.5,0,0,0,28.3,52,44.7,44.7,0,0,0,12.1,30.1,43.3,43.3,0,0,0,31,13.2H84l5.5-.3a42.8,42.8,0,0,0,39.9,27.2,44.5,44.5,0,0,0,14.9-2.6h.2a68.1,68.1,0,0,0,10.8-5.4h.1a43.2,43.2,0,0,0,25.5,8.3h.2a44.2,44.2,0,0,0,41.1-27.2,41.9,41.9,0,0,0,5,.3h.3a42.3,42.3,0,0,0,28.4-10.9c9.6-8.5,14.6-19.4,14.9-32.5,12.2-4.3,20.9-12.3,25.9-24s5-23.5-.3-35.3a42.4,42.4,0,0,0,14.3-27.4A42.9,42.9,0,0,0,303,69.2,42.3,42.3,0,0,0,311,42.3Zm-5.3,56.5c-1.3,10.7-6.3,19.5-15.5,26.7,6.2,11.6,6.8,23.2,1.9,34.6s-13.8,18.9-26.4,22.3c.6,13.3-3.8,24.2-13.1,32.4a37.2,37.2,0,0,1-25.4,9.7,47.6,47.6,0,0,1-8.3-.8c-5.6,16.9-20.3,27.7-37.8,27.7a38.4,38.4,0,0,1-25.4-9.4l-3.1,1.9a58.8,58.8,0,0,1-10,5.1,39.6,39.6,0,0,1-13.3,2.3c-16.2,0-30.3-10.1-35.9-25.8-.7-1.8-.9-1.8-1.5-1.8l-1.2.2a50.6,50.6,0,0,1-6.8.5,37.9,37.9,0,0,1-27.7-11.7,39.8,39.8,0,0,1-10.7-29v-1.3l-.6-.2A38.7,38.7,0,0,1,17,135.3a46,46,0,0,1,3.8-9.5A40.7,40.7,0,0,1,5.2,98.7a39.3,39.3,0,0,1,8.5-29.1C13,68,12.2,66.5,11.5,65c-2.2-4.2-4.2-8.2-5.2-12.6-3.7-15.1.9-28.3,13-38.4,7.3-5.9,15.3-9,23.8-9A40.3,40.3,0,0,1,59.2,8.6c14.3,6.2,22.3,17.6,23.2,32.9.3,5.7.3,11.5.3,17.1s0,13,.5,19.4c2.6,32.9,15,60.2,37,81.1,10,9.5,20.3,14.7,31.4,16l4.3.3c8.9,0,17.7-3.2,27.1-9.9,15.1-10.7,26.7-26.1,35.5-47a132.4,132.4,0,0,0,10-49.7c.1-5.6.1-11.3.1-16.8V44.2c0-21,16.8-38.5,37.4-38.9h.8c21.5,0,38.4,16,39.2,37.2a37.6,37.6,0,0,1-9.3,26.6C303.9,78.1,307,88.1,305.7,98.8Z"/>
    <path class="cls-1" d="M289.9,62.6a29.3,29.3,0,0,0-3.6-41.3,29.7,29.7,0,0,0-19-6.8,33.8,33.8,0,0,0-6.3.7c-12.5,2.9-21.9,13.3-22.8,25.3-.5,7.2-.5,14.6-.5,21.7v6.3a134.9,134.9,0,0,1-9.5,50.6c-9.4,24.2-22.7,42-40.6,54.5-10.6,7.4-21.4,11.1-32,11.1S134,181,123.3,173.5c-16.3-11.4-28.8-27.4-38.2-49A139.4,139.4,0,0,1,73.4,63.4V56.2c0-4.3.1-7.9,0-11.5C73,29.4,63.1,17.4,48.7,14.8a40.5,40.5,0,0,0-5-.4A29.4,29.4,0,0,0,22.6,64.3c3.8,3.9,3.8,5.6.1,9.5a29.5,29.5,0,0,0,.5,41.6,34.8,34.8,0,0,0,4.8,3.8c4.6,3,5,4.6,2,9.3a29.6,29.6,0,0,0,8.3,40.8A28.8,28.8,0,0,0,50,173.8c4.1.7,5.8,3.1,5.1,7.3a30.1,30.1,0,0,0,6.5,23.8,29.4,29.4,0,0,0,22.2,10.3,24.5,24.5,0,0,0,4.8-.4,39.8,39.8,0,0,1,5.8-.7c4.5,0,5.6,2.8,7.8,8.5,4.7,12,15.2,19.4,27.5,19.4a29.9,29.9,0,0,0,21-8.8c1.8-1.7,3.1-3,4.9-3s3,1.3,4.8,3c6.1,5.9,12.9,8.8,20.4,8.8a31,31,0,0,0,8.1-1.1c10.7-2.8,17.7-10,21.5-22.1.8-2.7,1.6-5.5,4.9-5.5a15.1,15.1,0,0,1,3.7.7,29.6,29.6,0,0,0,30.1-8.8,29.3,29.3,0,0,0,6.9-23.7c-.7-5.3.4-6.8,5.6-7.8a29.4,29.4,0,0,0,23.9-34,29.7,29.7,0,0,0-4.4-11.1c-3.2-4.9-2.8-6.4,2.1-9.5a30.1,30.1,0,0,0,13.2-20.5,28.7,28.7,0,0,0-6.5-23C284.9,69.6,284.9,68.5,289.9,62.6ZM33.3,30.7A7,7,0,0,1,37.8,29a3.8,3.8,0,0,1,1.9.5,4,4,0,0,1,2.2,2.7c.4,1.8-.7,3.5-1.5,4.6-4.5,5.8-4.5,10.6-.1,16.6,1.2,1.6,1.6,4.9.3,6.5a3.8,3.8,0,0,1-3.3,1.7,5.6,5.6,0,0,1-4.2-2.3c-3.8-4.6-5.4-9.5-5.3-16.7A18.6,18.6,0,0,1,33.3,30.7Zm.6,79.1c-4-3.7-6-8.8-6.2-15.4v-.2c.4-5.9,2.3-10.5,5.8-13.8a6.7,6.7,0,0,1,4.1-1.1H39a1.8,1.8,0,0,1,2,1.8v.2c0,.3.1.7.1,1.1s.3,2.7-.5,3.9c-4.8,7.4-4.8,10,.2,17.7a4.8,4.8,0,0,1,.4,3.7v1.1a2.1,2.1,0,0,1-.7,1.4,1.6,1.6,0,0,1-1.3.6H36.7A3.7,3.7,0,0,1,33.9,109.8Zm22.5,49.8a4,4,0,0,1-3.9,2.6,7.9,7.9,0,0,1-3.6-1.1c-7.6-3.8-11.5-10.3-12.1-19.9v-.5a2.5,2.5,0,0,0,.2-1.2,18.3,18.3,0,0,1,1.2-4.6c.6-1.4,2-2,3-2.6l1-.5a1.5,1.5,0,0,1,1.1-.4h.5a1.6,1.6,0,0,1,1.3,1.1,1.9,1.9,0,0,1,.5,1,7.1,7.1,0,0,1,1.3,3.4,11.5,11.5,0,0,1-.2,3.7,21.7,21.7,0,0,0-.1,3.6,11.1,11.1,0,0,0,6.7,8.5c1.4.7,3,1.6,3.5,3.3A3.9,3.9,0,0,1,56.4,159.6Zm35.5,38.1c-.3,1.7-1.8,2.7-3.1,3.6l-1.3.9a1.8,1.8,0,0,1-1.3.4H86c-10.6-1.1-19.4-9.3-20.6-19-.2-1.8-.7-5.9,3.6-6.7h1.1c3.5,0,4.2,3.4,4.5,5v.2c1.2,6.1,5.5,10,11.4,10.4h.4c1.6.1,3.6.3,4.8,1.8A4.1,4.1,0,0,1,91.9,197.7Zm52.5,21.2a5.3,5.3,0,0,1-3.1,3.3c-2.6,1.2-5.3,2.2-7.9,3.3l-3.2,1.2h-1.1c-7.1-1.2-12-3.6-15.7-7.8q-2.1-2.4-1.8-4.5a4.3,4.3,0,0,1,2-2.9,4.2,4.2,0,0,1,2.1-.6,6.6,6.6,0,0,1,4.3,1.5c3.2,2.8,6.2,4.1,9.1,4.1a14.3,14.3,0,0,0,7.3-2.3A6.9,6.9,0,0,1,140,213a4,4,0,0,1,3.6,2A4.3,4.3,0,0,1,144.4,218.9Zm53.3-.1c-3.2,4.2-8.7,6.8-14.7,7.1a1.8,1.8,0,0,1-1.6.8h-.8l-3-1.2c-2.7-1.1-5.4-2.2-8.1-3.6s-1.8-2.5-2-4-.2-.9-.3-1.2a1.9,1.9,0,0,1,.3-1.8,1.9,1.9,0,0,1,1.5-.8l1.2-.2,2.1-.2a4.6,4.6,0,0,1,2.1.5c3.1,1.7,5.6,2.5,7.9,2.5s5.5-1.4,8.7-4.3a6.2,6.2,0,0,1,4.1-2,4,4,0,0,1,3.3,1.9C199.6,214.2,198.8,217.4,197.7,218.8Zm48.1-35.6c-1,10.4-10.7,18.5-22,18.6h0a2,2,0,0,1-1.4-.6l-.3-.2c-1-.6-2.6-1.7-2.9-3.5a4.5,4.5,0,0,1,.7-3.4c1.2-1.5,3.3-1.7,4.9-1.8,6.4-.4,10.6-4.1,11.7-10.4.2-1.5.9-5.3,4.7-5.3h.7C246.4,177.2,246,181.7,245.8,183.2Zm28.7-41.4a21.9,21.9,0,0,1-13,19.7,6,6,0,0,1-3,.7,4.1,4.1,0,0,1-3.9-3.1c-.6-2.1,1-5,2.7-6,6.7-3.9,8.4-7.6,7-15.1-.3-1.7-.5-3.6.6-5a3.8,3.8,0,0,1,2.9-1.5h.2c2.2,0,4.4,2.3,5.2,4a13,13,0,0,1,1.1,4.3c.1.5.1,1.1.2,1.6Zm3.3-32.5a6.3,6.3,0,0,1-4,1.4h-1.6v.2a2.1,2.1,0,0,1-1.2-.5,1.8,1.8,0,0,1-.8-1.5,2.5,2.5,0,0,0-.1-1.2c-.1-1.3-.3-2.9.6-4.1,4.5-6.9,4.5-10.5,0-17.1-1.1-1.7-1.4-4.9,0-6.6a4.3,4.3,0,0,1,3.1-1.6c1.8,0,3.3,1.4,4.2,2.4a19.6,19.6,0,0,1,5.4,13.9C283.4,100.6,281.6,105.5,277.8,109.3Zm5.6-63.4a18.2,18.2,0,0,1-5.3,13.2,7.1,7.1,0,0,1-4.9,1.9,3.9,3.9,0,0,1-1.8-.4,3.8,3.8,0,0,1-2.2-2.6c-.4-1.9.7-3.6,1.6-4.7,4.4-5.7,4.4-10.4,0-16.7-1.2-1.6-1.5-4.8-.2-6.5a4,4,0,0,1,3.2-1.7,5.4,5.4,0,0,1,4.2,2.4A20.6,20.6,0,0,1,283.4,45.9Z"/>
  </g>
</svg>
