<svg id="Layer_1" data-name="Layer 1" xmlns="http://www.w3.org/2000/svg" width="268.9" height="257.4" viewBox="0 0 268.9 257.4">
  <defs>
    <style>
      .cls-1 {
        fill: #fff;
      }
    </style>
  </defs>
  <g>
    <path class="cls-1" d="M175.9,166.6c-30.3-6.4-59.1-17.1-86.7-31.1C68.7,125,49.2,112.8,32.1,97c-6-5.6-11.5-11.8-17.1-17.7a5.3,5.3,0,0,0-.4,1.7c0,6.3-.4,12.7.3,19,1.3,12,6.8,22.4,12.9,32.5,4.3,7.2,9.1,14.2,13.5,21.4s9.7,17.7,11.1,27.8c1.1,7.7,1.3,15.5,1.9,23.3.8,10.4,3.3,20.2,9.6,28.7,10.2,13.9,29.2,13.5,38.7-.9a41.4,41.4,0,0,0,4.9-9.6c3.2-10.4,5.9-21,9.2-31.4a62.3,62.3,0,0,1,6.7-15.2c5.6-8.7,16.2-8.5,22.1,0a33,33,0,0,1,4.4,8.8c2.4,7.5,4.4,15.2,6.5,22.8s4.6,17,9.6,24.4a24.2,24.2,0,0,0,23.7,10.8c7.6-1.1,12.8-5.8,16.7-12,5.7-9,7.7-19,8.3-29.5.3-6.6.7-13.2,1.5-19.8.5-3.7,1.7-7.3,2.7-11.3h-3A178.8,178.8,0,0,1,175.9,166.6Z"/>
    <path class="cls-1" d="M195.8,78.8c-2.2,6.3-6.7,10-12.4,12.9,6.2,2.4,9.9,6.7,12.8,12.6,2.3-6.4,6.6-10,12.5-13C202.3,88.9,198.7,84.6,195.8,78.8Z"/>
    <path class="cls-1" d="M27.4,36.5c-8.8,2.4-15.1,11-13.2,17.8,2-3.1,3.9-6.2,6-9.1S24.9,39.6,27.4,36.5Z"/>
    <path class="cls-1" d="M204.7,42a13.5,13.5,0,0,0,2.6,1.5A37.8,37.8,0,0,1,225,61.1c.8,1.8,1.4,4.1,4.1,4.1s3.2-2.4,4-4.2a37.4,37.4,0,0,1,17.6-17.5,10.5,10.5,0,0,0,2.3-1.3c2.5-1.6,2.5-4,0-5.5l-4.9-2.8a33.2,33.2,0,0,1-13.6-13.7c-.9-1.6-1.7-3.2-2.7-4.7s-1.6-1.4-2.9-2.5c-1.2,1.2-2.5,1.9-3,3.1a40.4,40.4,0,0,1-20.3,20.2l-.9.6C202.7,38.4,202.7,40.5,204.7,42Z"/>
    <path class="cls-1" d="M268.3,136.7a67.2,67.2,0,0,0-4.8-13.7l-1-2.4v-.2h0c7.6-18.9,8.1-38,1.5-56.9-1.2-3.2-2.6-6.4-4-9.5a16.5,16.5,0,0,0,8.5-14.5,16.1,16.1,0,0,0-10-15.3A28.3,28.3,0,0,1,244.3,9.8a16.5,16.5,0,0,0-15-9.8h-.5c-6.5.1-11.8,3.5-14.9,9.7l-2.7,4.6-2.1-.4A87,87,0,0,0,194.5,12h-2c-16.9,0-32.7,5.9-48.2,18.1-2.9,2.3-5.6,4.7-8.4,7.2l-1.7,1.6-1.9-1.8a116.8,116.8,0,0,0-12.5-10.4c-14.5-9.9-29.5-14.9-44.4-14.9a77,77,0,0,0-31.5,7.1,2,2,0,0,1-1.1.3h-.2C33,20.3,25.8,22,19.3,24.9-.8,34-3.3,52.9,3.1,67.8a2.8,2.8,0,0,1,.1.9V69q-.5,2.7-.9,5.7A99,99,0,0,0,.4,87.2c-.8,15,3,30,11.3,44.4,3.9,6.8,8.2,13.6,12.3,20.3l5.2,8.3c4.1,6.7,8.9,15.6,10.1,25.6.5,4.1.7,8.1.9,12.4.2,2.5.3,5,.5,7.5.9,13.7,4.7,25.3,11.5,35.2A36.9,36.9,0,0,0,83,257.4a36,36,0,0,0,31.2-17.6,87.9,87.9,0,0,0,8.1-18c2-5.9,3.6-11.9,5.1-17.7.8-3.3,1.7-6.7,2.7-10a38.6,38.6,0,0,1,3.5-8.7,4.8,4.8,0,0,1,.8-1.2l.9,1.3a27.6,27.6,0,0,1,1.8,3.9c1.9,6.6,3.7,13.3,5.5,19.7l1.5,5.3c2.5,9.5,5.9,20.3,13.2,29.5a36.6,36.6,0,0,0,51.1,5.6c6.5-5.2,11.3-12.2,15.2-22.1s4.6-20,4.9-31.9a62.3,62.3,0,0,1,3.8-20.9h.1c9.2-1.3,16.3-3.8,22.4-7.8C266,159.4,270.7,149,268.3,136.7Zm-16.2,25.9c-6.2,4.1-13.2,6-20.4,7-2.2.3-3.3,1.1-4,3.1a68.1,68.1,0,0,0-4.2,22.7c-.2,10.3-.9,20.4-4.6,30.2-3,7.7-7,14.7-13.6,20a31.6,31.6,0,0,1-44.1-4.9c-6.4-8.1-9.6-17.8-12.3-27.6-2.3-8.3-4.6-16.7-7-25.1a29.4,29.4,0,0,0-2.3-5.1c-3.1-5.3-7.5-5.3-10.4.1a42.8,42.8,0,0,0-3.9,9.7c-2.6,9.1-4.7,18.4-7.7,27.5a79.1,79.1,0,0,1-7.7,17c-11.6,19.5-40,20.7-53.5.9-6.8-9.9-9.9-21-10.7-32.8-.5-6.7-.6-13.5-1.4-20.1-1.2-10.1-5.6-19.1-10.8-27.6s-11.9-18.8-17.4-28.5C8.7,116.3,4.6,102.4,5.4,87.5c.4-6,1.8-11.9,2.7-17.8a8.1,8.1,0,0,0-.3-3.8C2.6,54,3.6,37.5,21.4,29.5c6.9-3.1,14.3-4.5,21.8-5.3a9.6,9.6,0,0,0,2.8-.7c25.1-11.4,48.7-7.9,71,7.3,5.5,3.8,10.3,8.6,15.3,13.1a9.5,9.5,0,0,1,1.5,2c4.9-4.2,9-8.3,13.6-11.9,13.8-10.8,29.2-17.5,47-17,5.8.1,11.5,1.4,17.2,2.4,1.6.3,2.4.1,3.1-1.1l3.6-6.3c2.2-4.4,5.7-7,10.6-7a11.3,11.3,0,0,1,10.8,6.8,33.2,33.2,0,0,0,16.8,17,11.1,11.1,0,0,1,6.9,10.6c0,5-2.6,8.5-6.9,10.8l-3,1.6c2,4.6,4.1,8.9,5.7,13.4,6.3,18,5.6,35.8-1.5,53.4a4.3,4.3,0,0,0,.2,4c2.1,4.9,4.5,9.8,5.5,15C265.5,148.4,261.1,156.7,252.1,162.6Z"/>
    <path class="cls-1" d="M233.4,160.5a35.3,35.3,0,0,0,14-5.1c8.2-5.2,10.3-16.4,4.8-24.8C246,140.5,239.9,150.3,233.4,160.5Z"/>
    <path class="cls-1" d="M247,121.3c8.3-15.9,10.2-32.6,5.1-49.9-1.4-4.8-3.6-9.4-5.5-14.1h-1.1c-2,3.4-4.1,6.7-6,10.1s-6.3,6.8-11.5,6.4a11,11,0,0,1-9.5-6.6A33.4,33.4,0,0,0,201.2,50l-1.1-.7a11.6,11.6,0,0,1-3.8-16,12.9,12.9,0,0,1,3.9-3.8l4.8-2.8-4.5-.8c-2.1-.2-4.3-.4-6.4-.4-22.2.3-39.1,11.2-53.7,26.8a1.9,1.9,0,0,0-.3,1.8c3.4,7.7,8.7,12.9,17.3,14.1a37.1,37.1,0,0,0,6.7.6c2.9.2,4.7,2,4.7,4.5s-2,4.2-5,4.1c-14.2,0-25.1-5.6-31.2-19A28.2,28.2,0,0,0,130,54a103.2,103.2,0,0,0-19.5-17.2C97.5,28.4,83.4,24,67.9,26,46.7,28.8,31.6,40.5,21.7,59c-5,9.4-5.1,6.7,1.1,15.4,8.9,12.4,20.7,22.1,33.1,30.9,31.3,22.1,65.7,37.7,102.6,48.1,20.2,5.7,40.8,9.5,62,8.7,2,0,2.9-.8,3.8-2.4,3.7-6.3,7.5-12.5,11.2-18.7S243.5,128,247,121.3ZM35.5,65.2h-.1a4.3,4.3,0,0,1-4.3-4.3,4.2,4.2,0,0,1,4.3-4.2A4.3,4.3,0,0,1,39.7,61,4.2,4.2,0,0,1,35.5,65.2ZM75.1,42.6c-2.7.4-5.7.5-8.5,1A40.8,40.8,0,0,0,50,51.3c-1,.7-2.3,1.8-3.3,1.7a7.2,7.2,0,0,1-4.3-2.4c-1.4-1.9-.5-3.9,1.3-5.4A50.5,50.5,0,0,1,66.4,34.9a54,54,0,0,1,5.8-.8h0a9.7,9.7,0,0,1,2.4-.1c2.7.1,4.4,1.6,4.5,4S77.8,42.2,75.1,42.6ZM212.4,99.1a20.7,20.7,0,0,0-8.9,8.9c-3.5,6.5-11.6,6.4-15.1-.1a21.2,21.2,0,0,0-8.9-8.9c-6.3-3.4-6.4-11.6,0-14.9a20.5,20.5,0,0,0,9-9.2,7.8,7.8,0,0,1,7.3-4.5c3.4,0,6.1,1.4,7.6,4.4a24.7,24.7,0,0,0,9.2,9.3C218.9,87.6,218.7,95.6,212.4,99.1Z"/>
  </g>
</svg>
