<svg id="Layer_1" data-name="Layer 1" xmlns="http://www.w3.org/2000/svg" width="287.6" height="226.8" viewBox="0 0 287.6 226.8">
  <defs>
    <style>
      .cls-1 {
        fill: #fff;
      }
    </style>
  </defs>
  <g>
    <path class="cls-1" d="M252,150.6c1.7,1.3,3.2,2.8,5.6,1.9s3-3.1,3-5.4c.1-7.7.1-15.4.2-23,0-.6-.3-1.2-.6-3-3,5.6-7.7,5.5-12.4,5.5,0,4.8.3,9.3-.1,13.7S248.6,147.9,252,150.6Z"/>
    <path class="cls-1" d="M252,116.9c.1-5.4,0-10.9.1-16.3A29.3,29.3,0,0,0,248,85.1c-4.7-8.2-8.5-8.1-13.4-.1-6.2,10.3-3.4,21.5-4.2,32.6h21.3A.9.9,0,0,0,252,116.9Z"/>
    <path class="cls-1" d="M54.5,50.2c5.1-3.6,9.5-7.4,14.8-10,15.8-7.9,31.9-6.9,48.1-.8a60.1,60.1,0,0,0,14.3,4.2c11.8,1.8,23.1-.7,34.2-4.6,20.9-7.4,40.9-5.7,59.6,6.9,2.9,1.9,5.9,3.8,9,5.5,4.7,2.4,10.4,1.5,15-2.6-2.9-3.1-5.5-6.4-8.7-9.2C233,32.8,223.7,28.4,214,25.1c-43.7-14.5-87.6-14.8-131.8-2.8-11.3,3.1-22,7.6-31.6,14.4-4.8,3.4-9.1,7.3-12,12.5C43.7,53.5,49.4,53.8,54.5,50.2Z"/>
    <path class="cls-1" d="M148.5,135.3c0,7-.4,13.9.2,20.6s3,10.4,6.7,14.7,7.7,4.7,11.6-.1a34.8,34.8,0,0,0,4.5-7.4c4.4-8.9,2-18.4,2.6-27.8Z"/>
    <path class="cls-1" d="M27.2,73.5c2.6,3.8,3.1,4.7,4.8,7.1,4.1-5.7,8.1-11.1,15.8-10.3S58.5,77.2,62,82.8c1.8-2.4,3.2-4.6,5-6.6,6.4-7.1,14.6-8.1,22.3-2.5,2.9,2.1,5.2,5,7.6,7.7a42.8,42.8,0,0,1,3.7,5.7c5.1-8.7,10.7-16.9,21.8-16.8s16.4,8.4,21.5,16.8c5.2-8.8,10.7-16.9,21.7-16.8s16.5,8.3,21.2,16.1c3.5-4,6.6-8.5,10.6-11.9,8.2-6.9,17.3-5.7,24.1,2.6,1.5,1.8,2.7,3.7,4.1,5.6,8.5-15.3,20.3-17.3,30.2-2.2l4.7-6.9c2.6-3.8,3.8-4.3,8.2-2.8a16.9,16.9,0,0,1,2.7,1.1,10.9,10.9,0,0,0,1.2-3.6c.5-6,.9-12,1.2-18.1.1-3.5-1.7-5.9-4.5-6.5s-5.2.5-7.1,3.7c-8.5,14.5-22.4,17.9-36.6,9-4.9-3.1-9.7-6.3-14.9-8.7-14.5-6.5-29.2-5.3-43.7,0-18.6,6.8-36.7,6.8-55.4-.9C96,40.5,80.2,41.6,66.1,52.4c-2.5,1.9-5.1,3.9-7.7,5.7a17.7,17.7,0,0,1-14.3,3c-8.5-1.6-14.7-6.4-18.8-14-1.4-2.7-3.7-4.2-6.8-3.4A5.5,5.5,0,0,0,14,49.2a132.7,132.7,0,0,0,.2,14.1c.2,2.9,1.2,5.7,1.9,8.7A17.8,17.8,0,0,1,19,70.8C23.4,69.3,24.6,69.7,27.2,73.5Z"/>
    <path class="cls-1" d="M221.8,102.6a30.7,30.7,0,0,0-4.1-15.9c-5.6-9.9-11.8-10.2-18.9-1.3-8.8,10.9-7.5,23.7-7.2,36.5h30.2C221.8,115.2,221.7,108.9,221.8,102.6Z"/>
    <path class="cls-1" d="M189.8,131.6l-6.8,4.6c0,5.7-.4,12,.1,18.2a27.3,27.3,0,0,0,7.2,16.4c3.8,4.3,7.2,4.4,11,.1a28.7,28.7,0,0,0,7.4-18.9c.1-6.3.1-12.6.1-18.9,0-.7-.2-1.4-.3-2.3H191.7A4.6,4.6,0,0,0,189.8,131.6Z"/>
    <path class="cls-1" d="M235,162.9c1.9-1.8,3.8-4.8,3.9-7.3.5-9.5.2-19.1.2-29.1h0c-4.7.3-9.3-1.5-12.7,2.9-.8.9-2.7,1.1-4.2,1.3a24.4,24.4,0,0,1-4.7.1v13.7c-.1,6.3,2.1,11.9,5.6,17S230.7,166.9,235,162.9Z"/>
    <path class="cls-1" d="M267.5,80.3l-1-.2c-1.9,3.1-5,6-5.3,9.2-.8,7.9-.3,15.9-.3,23.9h8.7C268.6,102.1,271.1,91,267.5,80.3Z"/>
    <path class="cls-1" d="M182.8,105.5a32.8,32.8,0,0,0-8.9-22c-5.6-6.2-11.3-6.2-16.9.1a33.4,33.4,0,0,0-8.8,22.1v17.9l.3,2.7h34.3C182.8,119.2,182.9,112.3,182.8,105.5Z"/>
    <path class="cls-1" d="M27,94.9c.6-6-2.9-10.3-6.5-15.5-3.8,11.7-1.5,22.8-2.3,34h8.7C26.9,107,26.4,100.9,27,94.9Z"/>
    <path class="cls-1" d="M268.5,153c-2,4.2-4.9,7-9.2,8.2s-8.1-.2-11.8-2.6c-2.2,7.8-6.9,12.8-14.4,14.9s-13.7-1.8-17.9-8c-2.4,3.7-4.3,7.4-6.9,10.5-7.4,9-17.2,9-24.8.2q-2.7-3.3-5.1-6.9c-4.2,6.7-8.5,13.5-17.4,13.4s-13-7-17.2-13.6c-4.3,6.9-8.4,13.6-17.3,13.6s-13.1-6.9-17.2-13.5c-1.7,2.4-3.1,4.7-4.8,6.7-7.9,9.3-17.7,9.2-25.5-.2-.9-1.2-1.8-2.4-2.6-3.7s-2.5-4.6-3.8-7.2c-4.4,6.4-9.5,11-17.7,8.8s-13.3-8.1-15-16.9c-8.3,5.1-15,3.2-20.5-4.2-4.7,6.2-5.9,13-5.4,20.2a5.9,5.9,0,0,0,1.8,3.7c7.1,6.5,14.4,12.7,21.4,19.2,12.2,11,26,17.6,42.8,17.5a126.4,126.4,0,0,0,33.5-4.5,110.2,110.2,0,0,1,60-.2,132.4,132.4,0,0,0,34.2,4.7c19.7.2,35.8-7.1,48.7-22.1a72.9,72.9,0,0,1,12.5-11.7c4-2.9,5.4-6,5-10.7S272.2,157.7,268.5,153Z"/>
    <path class="cls-1" d="M95.6,100.8a28.9,28.9,0,0,0-10.1-19c-4.9-4.3-8.8-3.9-12.9,1.1a30.7,30.7,0,0,0-6.7,18.6c-.1,5.9,0,11.8,0,17.6,0,.9.2,1.8.2,2.8H95.8C95.8,114.6,96.4,107.6,95.6,100.8Z"/>
    <path class="cls-1" d="M287.6,170.3c-.5-13.2-4.7-23.5-13.1-31.4-.1-4.2-.1-8.4-.1-12.7,7.7-3,8.6-9.3,8.6-12.1,0-7.2-.2-14.6-.5-21.7-.1-3.5-.3-7-.4-10.6v-.6c5.9-9.8,5.6-20.6,5.4-30.1,0-.8-.1-2.6-.1-2.6a19.5,19.5,0,0,0-19.5-18.7,19.5,19.5,0,0,0-12.7,4.7,89,89,0,0,0-7.8-7.1c-9.6-7.6-21-13.2-34.7-17.3A237.4,237.4,0,0,0,144.4,0,252,252,0,0,0,87.7,6.6C70.5,10.6,49,17.4,32.5,34.5A18.9,18.9,0,0,0,20,29.7a21.5,21.5,0,0,0-5.5.8C6.6,32.8,1.6,38.3.9,45.7c-1,9.1-2.2,20.4,2.8,30.9A17.8,17.8,0,0,1,5.1,86v.2c-.4,5.7-.4,11.3-.4,16.8,0,2.4.1,4.8,0,7.2-.1,8.9,1.8,12.7,8.7,15.8a56.1,56.1,0,0,0,0,5.8c.5,5.9-.2,8.5-3,10.5a5.5,5.5,0,0,0-1.7,1.8H8.5l-.2.3C2.5,152.1,0,161.2.2,173.8a15.5,15.5,0,0,0,6,12.6c7.9,6.7,15.6,13.6,21.3,18.8,14.1,13,29,20,45.4,21.3,3,.2,6.1.3,9.2.3a125.2,125.2,0,0,0,34.9-4.9,98.2,98.2,0,0,1,26.9-3.8,96.7,96.7,0,0,1,26.7,3.7,138.2,138.2,0,0,0,36.7,5h2.3c23-.3,42-9.1,56.3-26a53.4,53.4,0,0,1,12.2-11.4C284.9,185.1,287.9,179.1,287.6,170.3Zm-12.2,14.9c-5.5,3.5-9.3,7.6-13.3,12.3-13.7,16.2-31.4,24-52.6,24.3a132.9,132.9,0,0,1-37.6-4.8,101.7,101.7,0,0,0-56.3.1,118.9,118.9,0,0,1-42.4,4.4c-16.6-1.3-30.3-8.9-42.3-20-7.1-6.4-14.3-12.8-21.6-19a10.4,10.4,0,0,1-4.1-8.7c-.2-9.6,1.2-18.6,7.1-26.4.3-.3.5-.8.8-1,5.3-3.7,5.7-9.1,5.2-15-.2-2.9,0-5.9,0-8.7-7.6-2.8-8.8-4.4-8.7-12.4s-.2-15.8.4-23.7A22.9,22.9,0,0,0,8.2,74.5c-4.3-9-3.4-18.8-2.4-28.3.6-5.6,4.6-9.3,10.1-10.9s10.3,0,14.4,4c.8.8,1.5,1.7,2.3,2.6C47.3,24.2,67.5,16.4,88.8,11.5c41-9.5,81.9-8.8,122.4,3.4,11.9,3.5,23.2,8.6,33.1,16.4,3.9,3.1,7.3,6.8,11,10.3l1.5-1.6a14.7,14.7,0,0,1,20.5-1.8,14.2,14.2,0,0,1,5.1,10.5c.2,10.5,1,21.2-5.1,30.7-.4.6-.2,1.6-.2,2.5.3,10.7.9,21.5.9,32.2,0,5-3.7,7.4-8.6,8.3,0,6,0,11.8.1,17.7a4,4,0,0,0,1.2,2.1c8.2,7.6,11.5,17.2,11.9,28.3C282.8,177.1,280.9,181.7,275.4,185.2Z"/>
    <path class="cls-1" d="M118.9,168.1c5.1,7.9,10,7.8,15.4,0,7.1-10.1,4.9-21.5,5.1-32.8H113.6c0,5.4.1,10.5,0,15.6S115.5,162.9,118.9,168.1Z"/>
    <path class="cls-1" d="M87.2,171.8c3.3,3.1,6.3,3.3,9.2-.1a38.7,38.7,0,0,0,6.5-10.4c3.6-8.4,1.3-17.2,1.9-24.6-7.7-8.1-16.7-5.5-25.5-5.9,0,8.7-.5,17,.1,25.2A25.2,25.2,0,0,0,87.2,171.8Z"/>
    <path class="cls-1" d="M56.9,96.9a39.7,39.7,0,0,0-5.4-14.1c-3.2-5.4-6.9-5.4-10.2.1S36.6,91.7,36,96.4c-.9,6.9-.3,14-.3,21.2H57.1C57.1,110.5,57.8,103.6,56.9,96.9Z"/>
    <path class="cls-1" d="M139.1,101.2c-.6-8.2-3.9-12.8-8.6-17.9s-10.9-5.9-16.5,0-8,10.6-8.5,17.2c-.6,8.4-.1,16.9-.1,25.7h33.8C139.2,117.8,139.7,109.4,139.1,101.2Z"/>
    <path class="cls-1" d="M27.2,122.2c0,8.6-.1,16.9.1,25.2,0,2.7,3.8,4.7,5.7,2.9s5.8-5.6,6.6-8.9.3-9.7.3-14.7c-2.5-.2-4.8,0-6.9-.7S29.4,123.7,27.2,122.2Z"/>
    <path class="cls-1" d="M52.1,162.3c3.9,3.8,8.8,5,12.4-1.2l2.7-4.7c4.4-8,2.7-16.6,3-24.7-3.5-1-7.3-1-9.3-2.9-4-3.7-8.1-1.8-12.3-2.3,0,9.8-.3,19.2.1,28.6A12.2,12.2,0,0,0,52.1,162.3Z"/>
  </g>
</svg>
