<svg id="Layer_1" data-name="Layer 1" xmlns="http://www.w3.org/2000/svg" width="221" height="229.4" viewBox="0 0 221 229.4">
  <defs>
    <style>
      .cls-1 {
        fill: #fff;
      }
    </style>
  </defs>
  <g>
    <path class="cls-1" d="M180.3,83.2a33.9,33.9,0,0,0-11.6-20l-.4,1.2a1,1,0,0,1-.9.6h-.2a1,1,0,0,1-.8-1c0-3.3-2.4-4.5-5.1-5.9A40.9,40.9,0,0,0,142.9,54a66.2,66.2,0,0,0-14.1,1.6,65.3,65.3,0,0,0-10.7,3l-3.4,1.1A60.8,60.8,0,0,0,134,67.3a1.1,1.1,0,0,1,.8,1.1,1.1,1.1,0,0,1-1,.9h-2.9c-7.1-.3-14.1-2.5-22.7-7S91,54.9,82.8,54.2L78,54c-10.1,0-18.4,2.9-25.1,8.7-13,11.2-16.6,29.5-8.8,45.7,3,6.3,7.1,12.3,11.1,18l1.7,2.5c8.4,12.1,12.2,25.5,11.6,40.9-.3,9-.7,19.5-.5,29.8a51.4,51.4,0,0,0,2.3,12.8,6.1,6.1,0,0,0,3.2,3.5h.8c1.4,0,2.6-1.4,3.3-2.8A56.9,56.9,0,0,0,82,202.6c1.3-4.4,2.4-9,3.5-13.4.6-2.6,1.2-5.3,1.9-7.9,2-7.9,4-14.9,8.4-21.3s8.9-8.2,14.6-8.2a18.8,18.8,0,0,1,5.2.8,17.2,17.2,0,0,1,10.7,9.2c2.9,6.8,5.4,13.7,7.6,20.7,1.3,4.3,2.5,8.8,3.6,13.1s1.9,7.7,3,11.5a23.7,23.7,0,0,0,4,7.3,3.8,3.8,0,0,0,2.8,1.7c1.2,0,2.3-.9,3-2.5a32.1,32.1,0,0,0,2.1-7.5c1.8-11.1,1.1-22.4.3-33.4v-.3c-1.1-16.8,2.7-31.2,11.8-44l2.7-3.7c2.3-3.2,4.7-6.4,6.8-9.8A42.2,42.2,0,0,0,180.3,83.2Z"/>
    <path class="cls-1" d="M207.4,57.6h0c-2.3-4-4.8-7.7-6.9-10.9l-2.7-3.8-.4-.6a5.7,5.7,0,0,0,2.5-4.7,6.2,6.2,0,0,0-4.2-5.9h-.3l-5.1-1.3h0a4.1,4.1,0,0,0,.2-.9c.1-.4.3-1,.4-1.5l.6-2.8,2.4-.4,1.7-.5a5.8,5.8,0,0,0,3.9-3.4l.5-1.1v-.3a6.3,6.3,0,0,0-.4-5l-.4-.7-.6-.5a5.9,5.9,0,0,0-4.2-1.7H194l-2.4.2h-.3a5.6,5.6,0,0,1-.2-2.8,5.6,5.6,0,0,0-1.9-4.6,5.3,5.3,0,0,0-4.1-1.7h-1.5l-.6.2A6.1,6.1,0,0,0,178.5,7h0c-.2,1-.4,2-.5,3s-.1.7-.1,1.1l-1.2.2-2.8.5-.2-1.2-.3-1.4a6.1,6.1,0,0,0-5.9-4.7h-.3a5.9,5.9,0,0,0-5.4,4.2V9c-.3,1.2-.5,2.3-.8,3.5a8.4,8.4,0,0,0-2.8-1.8l-1.6-.8h-.2A111.5,111.5,0,0,0,110.8,0h-.7A121.1,121.1,0,0,0,94.3,1.1a111.4,111.4,0,0,0-66,35.3A108.9,108.9,0,0,0,.1,105.5c-1.3,37.9,13.4,69.2,43.5,93l.7.5a10.6,10.6,0,0,0,6.9,3h.3a9.4,9.4,0,0,0,3.7-1.1c0,.7.1,1.4.1,2.1a43.8,43.8,0,0,0,4.1,17,15.3,15.3,0,0,0,14.1,9.4h.1a16.7,16.7,0,0,0,10.8-4.3,26.9,26.9,0,0,0,5.7-6.9,9.1,9.1,0,0,0,5.4,1.7l14.6,1.3h.5l4.3-.3,10.7-1a9.9,9.9,0,0,0,5.3-1.8,32.8,32.8,0,0,0,3.9,5.3,16.9,16.9,0,0,0,12.4,5.9h.1c6.1,0,11.5-3.6,14.7-9.7a35.1,35.1,0,0,0,3-9.5c.5-3,.9-5.9,1.1-8.8a11.6,11.6,0,0,0,3.1.7h.6a10.6,10.6,0,0,0,5.5-2l2.5-1.9c27.3-21.7,42.2-50.6,43.2-83.6h0C220.9,91.8,216.7,74.3,207.4,57.6ZM174,18.1a.4.4,0,0,1,.1-.3l.2-.3a1.1,1.1,0,0,1,.8-.7l2.5-.5c1.7-.3,3.4-.6,4.2-1.5s1-2.5,1.2-4.1a21.7,21.7,0,0,1,.4-2.5,1.1,1.1,0,0,1,.8-.8h.9c.2,0,.5,0,.6.2a1.2,1.2,0,0,1,.4.8c-.2,3.1.4,5.3,1.6,6.6a5.7,5.7,0,0,0,4.4,1.6l2.2-.2h.2a1.1,1.1,0,0,1,.8.3,1.4,1.4,0,0,1,.1,1.1l-.4.9a1.3,1.3,0,0,1-.7.6l-1.5.4-3.6.7c-1.7.2-2.3.8-2.4,2.3a25.7,25.7,0,0,1-.8,4c-.1.7-.3,1.4-.5,2.3a1.1,1.1,0,0,1-1,.8h0a1,1,0,0,1-1-.8c-.2-.9-.3-1.7-.5-2.5a32.9,32.9,0,0,1-.9-4.3c-.1-1.1-.4-1.5-1.6-1.7l-4-.8-1.8-.4A.9.9,0,0,1,174,18.1ZM54.2,195.5a4.6,4.6,0,0,1-3,1.5c-1.5,0-2.7-1-3.8-1.9l-.6-.5C17.9,171.8,3.9,141.9,5.1,105.7A103.3,103.3,0,0,1,32,39.8,105.9,105.9,0,0,1,95.1,6.1,102.7,102.7,0,0,1,110.8,5a105.4,105.4,0,0,1,43.5,9.4l1.8.9a5.3,5.3,0,0,1,2.8,2.7,4.2,4.2,0,0,1-.4,3.1,3.7,3.7,0,0,1-3.2,2,10.1,10.1,0,0,1-2.5-.5l-5.4-2.1a132.4,132.4,0,0,0-15-5.1,97.4,97.4,0,0,0-22.1-2.6c-47.1,0-88.4,34.7-95.9,80.8-.7,3.9-1,7.9-1.4,11.3q-.1,2.1-.3,3.9c.9,33.8,13.7,59.8,38.9,79.5,2.4,1.9,3.5,3.3,3.6,4.7A3.3,3.3,0,0,1,54.2,195.5Zm74.6,17.9a5.3,5.3,0,0,1-3.5,1.5l-10.8,1-4.1.3h-.1l-14.6-1.3a4.5,4.5,0,0,1-3.5-1.5,3.6,3.6,0,0,1-.8-3c.2-1.5,1-3.4,4-3.4h1.3a105.4,105.4,0,0,0,13.8.9,108.1,108.1,0,0,0,13.9-.9h1.2a3.6,3.6,0,0,1,3.9,3.3h0A4.8,4.8,0,0,1,128.8,213.4Zm31.6-41.5c1,12.2,2,24.8-.3,37.3a34,34,0,0,1-2.6,8.2c-2.2,4.3-6,6.9-10.2,6.9a11.6,11.6,0,0,1-8.7-4.2,27.9,27.9,0,0,1-5.8-10c-1.7-5.2-3.1-10.6-4.4-15.7-.8-3.2-1.7-6.5-2.6-9.8-1.5-5.4-3.1-10.1-4.7-14.5a25.7,25.7,0,0,0-3.6-6.2,9.3,9.3,0,0,0-7.1-3.8,8,8,0,0,0-6.6,3.8,41.6,41.6,0,0,0-6.2,12.9c-1.6,4.9-2.8,10-4,14.8s-1.7,6.8-2.6,10.2a72.5,72.5,0,0,1-4.3,12.1,24.6,24.6,0,0,1-5.6,7.5,11.9,11.9,0,0,1-7.6,3A10.2,10.2,0,0,1,64,218a40,40,0,0,1-3.7-15.2c-.3-9.5,0-19.3.4-28.7,0-2,.1-4.1.2-6.1.4-12.8-2.5-23.7-8.8-33.4l-5.2-7.4c-2.4-3.4-4.9-7-7.1-10.6C30.9,102,29.4,87.1,35.4,72.4s22-26.1,40.2-26.1l4.1.2a63.5,63.5,0,0,1,30.6,10.6h.1a3.5,3.5,0,0,0,1.5.7,2.2,2.2,0,0,0,1.1-.5c10.1-7.4,20.8-11.2,31.8-11.2a56.6,56.6,0,0,1,18.6,3.4c-.1-.2-.1-.5-.2-.7-.3-2-.6-3.8-1-5.6a3.3,3.3,0,0,0-1.4-1l-12.9-2.4-5.3-1a4.2,4.2,0,0,1-2.6-1.2,1,1,0,0,1-.2-1,1,1,0,0,1,.7-.7l5.5-1c4.6-.9,9.4-1.8,14.2-2.5,1.6-.3,2-.7,2.3-2.2a195.1,195.1,0,0,1,4.1-19.9,1,1,0,0,1,.9-.7,1,1,0,0,1,1,.8l.3,1.3.6,3c.2,1.2.4,2.5.7,3.7.7,3.8,1.4,7.8,2,11.7.3,1.6.7,2,2.2,2.3,7.1,1.1,13.6,2.4,19.9,4a1,1,0,0,1,.7,1,1.1,1.1,0,0,1-.8,1l-2.3.4-5.3,1.1-2.7.5-9.9,1.7c-1.2.2-1.5.5-1.7,1.7s-.4,2.8-.7,4.1a23.4,23.4,0,0,0-.7,4.5,2.2,2.2,0,0,0,.5,1.7c21.9,16.1,21.4,44.1,9.8,62.3-3.1,4.8-6.5,9.9-10.4,15.4C162.6,143.4,159.2,156.5,160.4,171.9Zm14.3,22.3-2.4,1.8a5.6,5.6,0,0,1-2.8,1,3.9,3.9,0,0,1-3-1.7c-1.4-1.9-1-4,1-5.7l2.2-1.6,5.2-4.3c38.8-34.8,44.4-90.3,13.4-132l-.3-.4a8.6,8.6,0,0,0-.7-1,4.7,4.7,0,0,1-1.4-3.7,3.9,3.9,0,0,1,1.7-2.5,3.6,3.6,0,0,1,2.4-.9c1.4,0,2.6.8,3.7,2.4l2.7,3.9c2.3,3.4,4.6,6.9,6.7,10.5,8.8,15.9,12.8,32.7,12.9,54.4C215.1,145.8,200.9,173.4,174.7,194.2Z"/>
  </g>
</svg>
