<svg id="Layer_1" data-name="Layer 1" xmlns="http://www.w3.org/2000/svg" width="154.4" height="232.5" viewBox="0 0 154.4 232.5">
  <defs>
    <style>
      .cls-1 {
        fill: #fff;
      }
    </style>
  </defs>
  <path class="cls-1" d="M154.4,13.4A14.4,14.4,0,0,0,147.5,2a14.1,14.1,0,0,0-7.1-2,13.8,13.8,0,0,0-8.8,3.3l-4.5,3.5c-5.1,4.1-10.4,8.4-15.4,12.9s-9.2,8.3-9.3,12.9a8.6,8.6,0,0,0,.8,3.6,8.8,8.8,0,0,0-5,2.8C92.4,44.4,87.4,49.4,83,54.1H29.2c-14.4,0-25.1,9.3-28,24.3C-2.1,95.6,2,112.1,6.5,126a43.5,43.5,0,0,1,.9,25c-3.3,12.8-3.5,25.1-.6,36.6,4.7,17.5,11.9,30.1,22.5,39.3,1.3,1.2,5.2,4.7,10.4,4.7a13.3,13.3,0,0,0,5.5-1.2c3.8-1.8,8.2-5.7,7.5-14.7h0c-.3-3.4-.7-6.7-1.1-10.1-.6-5.6-1.3-11.3-1.7-16.8-.9-12.1,1.7-23,7.6-32.5,3.3-5.2,6.9-8.1,10-8.1s6.6,2.9,9.7,8.1c5.8,9.6,8.5,21.1,8.5,36.2a71.2,71.2,0,0,1-1.2,10.9,73.7,73.7,0,0,0-1.4,13.6h0c.3,7.1,3.3,11.9,8.7,14.1a14.7,14.7,0,0,0,17.1-3.4,36.4,36.4,0,0,0,4.8-5.6v-.2c16.8-25.8,23-51.7,19.2-79.1-1.3-8.6-.7-15.7,1.6-22.3a183.6,183.6,0,0,0,6.1-20.4c4.7-20.5-4.2-37.1-24.1-44.6h-.1a35.8,35.8,0,0,0-9.2-1.3l2.4-2.1a9.8,9.8,0,0,0,3.3-5,8.5,8.5,0,0,0,4.7,1.6,9.3,9.3,0,0,0,6-2.6c5.7-4.9,11.6-9.8,17.3-14.5l7.5-6.3a14.5,14.5,0,0,0,5.9-11.3v-.5ZM116.9,141.7a48.7,48.7,0,0,1,2.3-24.8c2.4-7.1,4.6-14.2,6.3-21.5,2.4-9.9-1-17-9.4-22.3-1.6-1-5.9-2.4-6.7-5.4s1.8-6.1,2.4-7.3,2-.6,3.1-.2c17.3,6.5,25.1,20.7,20.9,38.7a168.7,168.7,0,0,1-5.9,19.9c-2.9,8.1-3.1,16.2-1.9,24.7,3.9,27.6-3.4,52.6-18.4,75.7a34.3,34.3,0,0,1-4.3,5,9.8,9.8,0,0,1-11.5,2.3c-4.3-1.7-5.5-5.4-5.7-9.7-.2-8.3,2.6-16.2,2.6-24.4,0-13.7-2-26.9-9.2-38.8-8.4-13.9-19.4-14-28.2-.1-6.7,10.8-9.3,22.8-8.4,35.5.7,9,1.9,18.1,2.8,27.1.3,4-.4,7.8-4.6,9.7s-7.6,0-10.5-2.6c-11.2-9.8-17.2-22.8-21-36.9-2.9-11.4-2.3-22.9.6-34.1a47.9,47.9,0,0,0-1-27.8C6.5,109.8,3.1,94.9,6.1,79.3c2.5-13,11.6-20.6,24-20.2,2.8.1,3.7.9,3.3,3.8s-.4,7.3-7,7.6-7.9,4.6-9.2,9.3a43.2,43.2,0,0,0,.5,25.9c6.9,20.6,7.5,40.8,3.5,62.2-2.9,15.7,4.1,30.2,14.4,42.5.1.4.1,1.1.7.7s0-.8,0-1.3c-1.6-13.5-3.8-27.1-.7-40.7,2.4-10,6-19.4,13.1-27.3,11.6-13,27.6-12.8,38.4.9s14.5,31.8,14.4,49.9c-.1,7.1-1.5,13.9-2.7,21.8a18.5,18.5,0,0,0,5.6-7.1C115.6,186.8,121.2,165.2,116.9,141.7ZM106.4,48.2C83,69,62.5,92.3,47.5,120.1c-8.8,16.3-15.3,33.3-18.6,51.6-.3,1.6-.1,3.6-2.6,4.8-1.2-4.6.4-8.5,1.2-12.4,7.8-38.6,27.3-71,53.1-100,6.6-7.5,13.7-14.6,21-21.5,2.1-2,3.1-2,5.1.1S108.8,46.1,106.4,48.2Zm39-26.9c-8.4,7-16.8,13.8-25,20.9-2.2,1.9-3.4,1.8-5.4-.1-10-9.4-10.2-9.5,0-18.7,6.3-5.7,13.1-10.9,19.7-16.2,3.1-2.5,6.7-3,10.2-.9a9.5,9.5,0,0,1,4.5,7.4A10,10,0,0,1,145.4,21.3Z"/>
</svg>
