<svg id="Layer_1" data-name="Layer 1" xmlns="http://www.w3.org/2000/svg" width="150.4" height="226.9" viewBox="0 0 150.4 226.9">
  <defs>
    <style>
      .cls-1 {
        fill: #fff;
      }
    </style>
  </defs>
  <g>
    <path class="cls-1" d="M102.8,122.8c-4.1-8-4.3-9.4-4.4-18.7,0-4.7-2.2-6.9-7-6.9h-32c-2.7,0-4.6.6-5.8,1.8s-1.7,3-1.6,5.6c.2,7.3-1.1,13.1-4.3,18.2Z"/>
    <path class="cls-1" d="M126.1,89.3a61.1,61.1,0,0,0-14.2-5.4,163.2,163.2,0,0,0-36.1-4.1,182.7,182.7,0,0,0-32.2,2.9c-5.6,1-12.9,2.6-19.4,6.6-2.2,1.3-3.3,2.5-3.3,3.4s1.1,2.2,3.3,3.5c5.7,3.5,12.2,5.1,18.9,6.5a9.9,9.9,0,0,1,.2-1.7A14.6,14.6,0,0,1,57.6,88.3H92.9a14.5,14.5,0,0,1,13.9,11,15.9,15.9,0,0,1,.6,3v.4c7-1.5,13.2-3,18.7-6.4,2.4-1.4,3.6-2.7,3.5-3.7S128.4,90.4,126.1,89.3Z"/>
    <path class="cls-1" d="M28.9,136.7,35,150.5a36.7,36.7,0,0,1,3.2,14.2,91.5,91.5,0,0,0,4.2,28.5c1.6,5,3.7,10,5.7,14.8l.9,2.2a3.9,3.9,0,0,0,3.7,2.7h.9c2.6-.6,3.2-2.7,3.3-4.4v-2.6a188.5,188.5,0,0,1,5.5-41.7,12.8,12.8,0,0,1,12.5-10.1h.3c6.2,0,11.4,4,12.6,9.7,2,9.5,3.5,18.1,4.7,26.2.5,4.3.7,8.7.8,13,.1,1.7.1,3.3.2,5s.7,3.5,2.1,4.3a3.7,3.7,0,0,0,2.1.6c1.6,0,3-1,3.9-2.9a102.2,102.2,0,0,0,10.6-44.1,37.1,37.1,0,0,1,3.6-16.1c1.5-3.2,2.9-6.5,4.3-9.6.5-1.3,1.1-2.6,1.7-3.8s1.1-2.6,1.7-3.9l.2-.6H26.8Z"/>
    <path class="cls-1" d="M133.3,9.9C125.1,3.2,115.5,0,104,0A83.3,83.3,0,0,0,89.9,1.5,41.4,41.4,0,0,0,75.1,7.8c-2.2-1.3-4.2-2.5-6.3-3.5C61.6.7,54,.2,47,.2H44.1A45.1,45.1,0,0,0,.5,52l1.6,9.7c1.6,9.8,3.1,19.4,4.2,28.8s5.8,15.7,14.6,19.7H21l.5.2a39.9,39.9,0,0,0,4.8,1.9h.1l9.6,2.7a14.4,14.4,0,0,1-2.2,2.7H21.2c-5.5,0-8.1,2.7-9.2,4.2s-2.5,5.3-.3,10.3l2.8,6.5c.8,1.7,1.6,3.4,2.3,5.1,1.7,3.6,3.3,7.4,5,11a25.7,25.7,0,0,1,2.5,11,119.6,119.6,0,0,0,12.1,50.2c3.3,6.7,9.4,10.7,16.3,10.7h3.9c8.3-1.9,13.7-8.6,14.2-17.5V209c.1-1.3.2-2.7.2-4.1a16.9,16.9,0,0,1,.1-2.3,101.6,101.6,0,0,1,.9-12.4c.9-6.2,2.1-12.6,3.4-18.7a174.5,174.5,0,0,1,4.2,35.2,22.9,22.9,0,0,0,.9,7.3,17.6,17.6,0,0,0,15.7,12.9h1.6A18.1,18.1,0,0,0,114,216.5a119.1,119.1,0,0,0,12.2-50.4v-.2a23.7,23.7,0,0,1,2.2-10.4c2.8-5.9,5.4-11.9,8-17.8l2.5-5.7a9.9,9.9,0,0,0-.2-9.6c-1-1.7-3.5-4.5-8.9-4.5H116.7a10.9,10.9,0,0,1-2.2-2.6l3.1-.8c7.6-2.1,13.8-4.4,19.3-8.9a17.1,17.1,0,0,0,6.5-11.3c1.1-7.6,2.4-15.8,4.1-26.5.4-2.4.8-4.7,1.1-7.1s.8-4.8,1.1-7.1C152.5,35.6,147,20.9,133.3,9.9Zm11.5,42.9c-.7,4.8-1.5,9.5-2.2,14.3-1.4,8.7-2.8,17.6-4.1,26.5a13,13,0,0,1-4.7,8.1c-4.8,4-10.5,6.1-17.5,8l-6.4,1.6-2,.5a16.6,16.6,0,0,0,6.5,10.7,2.8,2.8,0,0,0,1.8.4h13.6c2.7,0,4,1.1,4.6,2.1s1.1,2.5,0,4.9l-1.5,3.4c-2.9,6.6-5.9,13.5-9,20.1a28.6,28.6,0,0,0-2.7,12.6,113.8,113.8,0,0,1-11.7,48.3,13.4,13.4,0,0,1-11.8,7.6H96.6a12.5,12.5,0,0,1-11.3-9.2,20.5,20.5,0,0,1-.7-6,178,178,0,0,0-5.2-39.8c-.5-2.2-1.6-3.4-3.5-3.7h-.8a3.9,3.9,0,0,0-3.9,3.5l-.6,3.2c-1.3,6.4-2.6,13.1-3.5,19.6A132.1,132.1,0,0,0,66,204.8c0,1.4-.1,2.7-.2,4.1-.3,6.7-4.1,11.5-10.3,12.9H52.7c-5,0-9.4-3-11.8-7.9a113.1,113.1,0,0,1-11.6-48.1,32.4,32.4,0,0,0-2.9-13c-2.5-5.3-4.9-10.8-7.3-16.1l-2.8-6.4c-1-2.3-1.1-4.1-.2-5.4s2.6-2.1,5.1-2.1h13a5.4,5.4,0,0,0,2.7-1.1,18.2,18.2,0,0,0,5.7-9.8L39,110.9l-11.1-3.2a33.8,33.8,0,0,1-4.4-1.8l-.5-.2c-7.2-3.3-10.9-8.3-11.7-15.7C10.2,80.3,8.6,70.5,7,60.9L5.5,51.2a39.5,39.5,0,0,1,8.9-31.8A39.9,39.9,0,0,1,44.2,5.2H47c6.4,0,13.2.4,19.6,3.6,2.2,1.1,4.3,2.3,6.4,3.6l2.4,1.5A36.2,36.2,0,0,1,90.9,6.4,73,73,0,0,1,104.1,5c10.3,0,18.8,2.9,26.1,8.8C142.4,23.6,147.3,36.7,144.8,52.8Z"/>
    <path class="cls-1" d="M120.3,17.8c-6-3.3-12.5-3.7-18-3.7h-1.6a30.9,30.9,0,0,0-21.6,8.4c-1.3,1.3-2.5,2.1-3.9,2.1s-2.7-1-3.9-2.1a28.1,28.1,0,0,0-15.2-7.7,78.9,78.9,0,0,0-9.7-.6H44A30.7,30.7,0,0,0,14,45.6a16.2,16.2,0,0,0,.1,2.2c.5,4.7,1.3,9.4,2,14,.4,2,.7,3.9,1,5.8.5,3.7,1.1,7.3,1.6,10.8l.5,3.1,3.4-1.4c3.2-1.3,6.6-2.8,10-3.8,11.8-3.7,24-4.6,33.3-5.1l10-.2A178.2,178.2,0,0,1,110,74.2c6.5,1.4,14,3.3,21.3,7.7l1.3-9c1.2-7.8,2.4-15.4,3.6-23A31.4,31.4,0,0,0,120.3,17.8ZM44.9,27.7H44A16.7,16.7,0,0,0,27.7,44v1l-8.7.2v-1a23.7,23.7,0,0,1,7-17.4,23.8,23.8,0,0,1,17-7.6h1.9Z"/>
  </g>
</svg>
