<svg id="Layer_1" data-name="Layer 1" xmlns="http://www.w3.org/2000/svg" width="156.7" height="232.7" viewBox="0 0 156.7 232.7">
  <defs>
    <style>
      .cls-1 {
        fill: #fff;
      }
    </style>
  </defs>
  <g>
    <path class="cls-1" d="M53.7,62.8c5.7,3.2,12.4,4.9,21,5.3H79c8.2,0,15.2-1.3,21.3-4.2a33.2,33.2,0,0,0,8.5-5.9,5.3,5.3,0,0,0,1.9-4.1c-10.5,8.7-23.2,9.8-32,9.8-13.2.1-23.9-3.3-32.7-10.2h0a5.2,5.2,0,0,0,1.6,4.4A26.3,26.3,0,0,0,53.7,62.8Z"/>
    <path class="cls-1" d="M101.8,23.8a25,25,0,0,0,7.6-6.1l.9-1-1.5-.3c-8.1-.9-16.4-1.6-24.4-2.4-2.7-.3-13.1-.4-13.8-.4H68.2l-3.1.2c-5.8.4-11.9.9-17.8,1.6a2.4,2.4,0,0,0-1.2.3l.7,1.5c1.6,2.9,4.3,5.1,8.3,6.8a61.9,61.9,0,0,0,23.3,4.9A59.4,59.4,0,0,0,101.8,23.8Z"/>
    <path class="cls-1" d="M126.1,50.7a48.9,48.9,0,0,0-6.6-.5h-.7c1.4,6.2-.5,11.5-5.6,15.9a39.6,39.6,0,0,1-8.9,5.7c-7.6,3.5-15.9,5.1-25.3,5.1-2.1,0-4.2,0-6.4-.2-10.5-.8-18.7-3.3-25.7-7.8s-10.3-10.4-9-18.7h-.6a56.8,56.8,0,0,0-5.9.3c-9,1.1-14.6,6.1-16.7,14.9a48,48,0,0,0-.5,16.9C15.6,94,19,106,24.9,120.2a46.9,46.9,0,0,1,3.6,19.9c-.6,13.1-1,30.4.7,47.6.9,8.2,1.9,16.2,4.9,23.7a20.7,20.7,0,0,0,3.7,6c1,1.2,1.6,1.4,1.8,1.4a4.9,4.9,0,0,0,1.9-1.7,25.5,25.5,0,0,0,2.5-4.6l.3-1c1.5-4.3,2.7-8.6,3.8-13s1.5-7.8,2.1-11.6,1.5-8.7,2.5-13c2.3-10.3,6-17.8,11.8-23.6,4.1-4,8.8-6.2,13.7-6.2s9.3,2,13.3,5.6a49.3,49.3,0,0,1,4.2,4.9c4.1,5.8,7,12.7,8.7,21.4.8,3.9,1.5,7.9,2.2,11.8s1.5,8.6,2.4,12.8,2.7,11.4,6,16.4c.8,1.1,1.5,1.8,2.1,1.8s1.1-.5,1.8-1.4a29.1,29.1,0,0,0,4.1-7.3c3.1-8.4,4-17,4.8-27.4,1.3-15.3.8-30.6.3-42.3a46.8,46.8,0,0,1,3.5-19.9c2.6-6.3,4.8-12.7,6.7-19,3.8-12.6,5.2-22.3,4.4-31.7C141.7,58.7,136.3,52.4,126.1,50.7Z"/>
    <path class="cls-1" d="M156.1,67.4c-1.9-16.3-11.9-27.2-27.2-29.7a42.5,42.5,0,0,0-7.1-.6h-9.2a12.2,12.2,0,0,0-8.3,4.2,22.9,22.9,0,0,1-8.9,6.1,24,24,0,0,1-3.8,1.2,9.9,9.9,0,0,0,1.2-7.7,56.1,56.1,0,0,0,18.8-6.8c5.5-3.5,9.2-7.6,11.4-12.8v-.2c.8-2.2,2.5-6.8.2-11.3S116,4,113.9,3.4H113L111.7,3h-.2A263.3,263.3,0,0,0,72.8,0c-5.9,0-12,.2-17.9.6A57.1,57.1,0,0,0,41.8,2.9c-7.4,2-10.9,8-9.1,15.6h0A23.1,23.1,0,0,0,41,31.2c5.5,4.5,12.1,7.5,20.4,9.3l2.1.4a8.9,8.9,0,0,0,.9,7.3,21.3,21.3,0,0,1-9.5-5.3c-5.8-5.6-12-6.3-16.8-6.3H32.4C15.3,37.8,4.1,47.7.9,64.7H.8A69.1,69.1,0,0,0,.7,85.1C2.3,97.6,6,110.4,12.3,125.6a34.2,34.2,0,0,1,2.6,13.8c-.1,4.2-.1,8.6-.1,12.9v7.9c0,5.9,0,18.2.6,26.4.8,11.5,2.4,20.2,5.3,28.2,1.3,3.9,3.5,9,7.9,13a16.8,16.8,0,0,0,11,4.6h.2a15.4,15.4,0,0,0,12.5-6.8,33.9,33.9,0,0,0,4.6-8.6c4.2-10.4,6-21,7.2-30,1-6.5,2.4-14.2,6.1-21.2,1.8-3.4,3.5-5.5,5.6-6.8h.3a3.6,3.6,0,0,1,2.3-.8,3.2,3.2,0,0,1,1.8.6,27.3,27.3,0,0,1,4.8,4.8c2.7,3.8,4.7,9,6.2,16.1.4,2.3.7,4.2,1.2,6.6s.4,2.6.6,4c1,5.4,1.9,10.1,2.8,14.2,1.5,7.1,3.6,14.5,8.3,21.2s9.3,7.1,12.8,7.1h.2a16.7,16.7,0,0,0,11.1-4.9c4.3-3.9,6.4-8.9,7.8-12.9,3.5-10.3,5.3-21.3,5.7-34.9.3-11.9.2-24.2.1-35.1v-4.6a36.5,36.5,0,0,1,2.6-14.7c2.8-6.8,5.2-13.8,7.3-20.8C154.9,93.9,157.9,82,156.1,67.4ZM62.4,35.6C54.9,34,49,31.3,44.1,27.3a18.4,18.4,0,0,1-6.5-9.9c-1.2-5.1.7-8.4,5.5-9.7A61.3,61.3,0,0,1,55.2,5.6C61.1,5.2,67,5,72.8,5a254.9,254.9,0,0,1,38,2.9l1.7.4h.2c2.4.6,5,1.5,6.2,3.8s.4,4.9-.5,7.3c-1.7,4.1-4.7,7.5-9.4,10.4C102.4,33.7,94.9,36,85.2,37l-2.5.2v2.5l1.7-.2a4.2,4.2,0,0,1,2.8,1,5.1,5.1,0,0,1,.1,5.7,70.1,70.1,0,0,1-5.4,5.5l-.6.6a4.2,4.2,0,0,1-6.2-.1l-5.4-5.4a4.3,4.3,0,0,1-.7-5.9c.1-.1.2-.3.4-.4a3.7,3.7,0,0,1,3-1.4,4,4,0,0,1,1.5.3v-2l-2.4-.3C68.5,36.7,65.4,36.2,62.4,35.6Zm84.5,67.8a203,203,0,0,1-7.1,20.3,41.5,41.5,0,0,0-3,16.7v4.5c.1,11.4.2,23.3-.1,35-.4,13.3-2.2,23.9-5.4,33.4-1.2,3.4-3,7.7-6.5,10.9a12,12,0,0,1-7.9,3.5c-2.3,0-5.7-.8-8.7-5-4.2-5.9-6.1-12.8-7.5-19.3-1-4.6-1.9-9.4-2.7-14s-1.2-7.3-1.9-10.8c-1.6-7.7-3.8-13.5-7.1-18.1a35.4,35.4,0,0,0-5.8-5.8,8.4,8.4,0,0,0-4.8-1.6,8.7,8.7,0,0,0-5.2,1.7c-2.9,1.8-5.2,4.5-7.4,8.6-4,7.7-5.6,15.9-6.6,22.9-1.3,9.4-3.1,19.3-6.9,28.9a33.7,33.7,0,0,1-4,7.5c-2.9,3.9-6.2,4.7-8.5,4.7a11.6,11.6,0,0,1-7.7-3.2c-3.6-3.3-5.4-7.4-6.7-11.1-2.7-7.6-4.2-15.8-5-26.9-.6-8-.6-20.1-.6-26v-7.9c0-4.2,0-8.6.1-12.8a39,39,0,0,0-3-15.8c-6-14.6-9.6-27-11.2-39.2a59.9,59.9,0,0,1,.1-18.9c2.8-14.7,12.1-23,27-24h5.3c4.1,0,8.9.6,13.3,4.9s9.9,6.6,17.7,7.9a73.1,73.1,0,0,0,10.5.8,48.4,48.4,0,0,0,17.6-3.1,28.4,28.4,0,0,0,10.9-7.5,6.7,6.7,0,0,1,4.9-2.5h7.9a34.9,34.9,0,0,1,7.2.5c13.2,2.2,21.4,11.2,23.1,25.4S149.7,93.9,146.9,103.4Z"/>
  </g>
</svg>
