<svg id="Layer_1" data-name="Layer 1" xmlns="http://www.w3.org/2000/svg" width="191.4" height="227.4" viewBox="0 0 191.4 227.4">
  <defs>
    <style>
      .cls-1 {
        fill: #fff;
      }
    </style>
  </defs>
  <g>
    <path class="cls-1" d="M29.4,90.9c-2-12,1.7-21.8,10.8-29.1a70,70,0,0,1,11-7.7c2.8-1.8,5.9-3.2,8.8-4.7l2.4-1.1a34.1,34.1,0,0,1,.2-18.2h-.5l-7.7,3.9C41.1,41.4,32,48.3,24.6,56.4c-5.8,6.5-9,12.5-10.1,19s-.6,11.9,1.2,19.9c2.9,12.6,8.7,22.3,17.7,29.8A22.2,22.2,0,0,0,38,128h.3a3.3,3.3,0,0,0,.6-3.3A146.5,146.5,0,0,1,29.4,90.9Z"/>
    <path class="cls-1" d="M118.9,94.2l-3.4.2-5.5.9a90.7,90.7,0,0,1-9.1,1.4A6.2,6.2,0,0,0,97.5,98l.3.3,4.9,4.1c1.7,1.4,2.5,2.9,2.3,4.5s-2.4,3.6-3.1,4l-15,8.5a6,6,0,0,1-3.4,1.1c-2.9,0-4-2.8-4.4-3.9L77.2,112c-2.4-5.9-4.7-11.8-7-17.7-12.9,1.5-21.7,11.6-21.6,24.5a63.9,63.9,0,0,0,3.5,19.4c3.5,9.8,7.2,19.7,10.8,29.3,1.2,3,2.3,6.1,3.5,9.2l1.5,4c3.2,8.4,6.6,17.1,6.8,26.7a6.7,6.7,0,0,0,2.1,4.8,1.2,1.2,0,0,0,.8.4c0-.2.1-.4.1-.6l.3-7c.1-3.4.2-7,.6-10.6a33.5,33.5,0,0,1,5-16,14.5,14.5,0,0,1,12.1-6.8,14.3,14.3,0,0,1,12,6.9,39.6,39.6,0,0,1,4,9.8c2,7.8,2,15.8,1.9,22.8V213a3.9,3.9,0,0,0,1-.8,8.7,8.7,0,0,0,2.2-5.7,13.4,13.4,0,0,0,.1-2,18.2,18.2,0,0,1,.6-4.6c1.5-5.6,3.3-11.9,5.4-17.9l7-18.3c2.7-6.9,5.4-14.2,8-21.3,3.3-9.2,4.9-17,4.8-24.4A23.9,23.9,0,0,0,118.9,94.2Z"/>
    <path class="cls-1" d="M92.4,64.8a17.1,17.1,0,0,0,3.2,0h.1a25.4,25.4,0,0,0,.1-50.7h-.1a25.4,25.4,0,1,0-3.3,50.7Zm3.2-44.3a18.9,18.9,0,1,1,.2,37.8h-.2A18.8,18.8,0,0,1,76.8,39.5,19,19,0,0,1,95.6,20.5Z"/>
    <path class="cls-1" d="M95.7,49.3a10.3,10.3,0,0,0,6.9-2.9,9.8,9.8,0,0,0-6.9-16.8h-.1a10,10,0,0,0-8.8,10.9A9.8,9.8,0,0,0,95.7,49.3Z"/>
    <path class="cls-1" d="M149,72.2A47.3,47.3,0,0,0,136.1,62l-8.5-4.3-2.1-1.1C118.3,68,108.3,73.8,95.7,73.8S73,68,65.8,56.6l-2.6,1.3c-3.2,1.7-6.5,3.3-9.6,5.1a41.5,41.5,0,0,0-11.8,9.9A16.7,16.7,0,0,0,38,84.2a87.8,87.8,0,0,0,3.2,19l.8,2.6A32.6,32.6,0,0,1,71.8,85.2h.3c3.2,0,4.5.9,5.8,4L86,109.5l6.6-3.8L88,101.8a5.3,5.3,0,0,1-2-3.6,4.9,4.9,0,0,1,1.8-3.7l1-.9L90,92.5a13.8,13.8,0,0,1,10.5-4.9,60.7,60.7,0,0,0,8.4-1.2l5.5-1,4.5-.3a32.8,32.8,0,0,1,30.5,20.7,93.7,93.7,0,0,0,3.9-21A16.7,16.7,0,0,0,149,72.2Z"/>
    <path class="cls-1" d="M179.9,50.1a86,86,0,0,0-10.3-10.6c-11.7-10.4-25.9-18.9-44.9-26.8h-.1c-.7-.8-1.5-1.5-2.3-2.3a39.6,39.6,0,0,0-55.6,2.3,184.4,184.4,0,0,0-25.9,13C28.2,33.3,19,40.9,11.8,49.7S.6,67.9.1,77.5a75.2,75.2,0,0,0,9,40c5.3,9.5,11.8,16.6,19.9,21.7l.4.2a17.8,17.8,0,0,0,9.2,2.9H39c0,.2.9,3.1.9,3.1,1.2,4.1,2.4,8,4.5,13.8s5.3,13.9,7.9,20.4l5.1,13.1a42.3,42.3,0,0,1,3.1,14.5,21.8,21.8,0,0,0,4.8,13.3h.2a22.7,22.7,0,0,0,7.6,5.7,13.2,13.2,0,0,0,5.3,1.1h.2a13.3,13.3,0,0,0,12.9-11.5,32.6,32.6,0,0,0,.3-5.4v-.3c0-5.5.1-11.9,1.3-17.7.7-3.3,1.3-5.2,2.5-6.5v-.2h0l.2.2a9.4,9.4,0,0,1,1.2,2.2,67.7,67.7,0,0,1,2.1,10.9c.2,2.1.3,4.4.3,6.8a21.8,21.8,0,0,1,.1,2.5v5.1c.4,7.3,4.2,10.7,7.4,12.3a12.5,12.5,0,0,0,6.2,1.6h.2a15.5,15.5,0,0,0,8.8-3,22.3,22.3,0,0,0,4.7-5,20.7,20.7,0,0,0,4-12.2c.1-5.2,1.7-10.4,3.3-14.8s4.5-12.1,7.2-18.7a320,320,0,0,0,11.4-31.4h.3a15.1,15.1,0,0,0,7.8-2.3,47.2,47.2,0,0,0,12.8-10.3c10-11.4,15.8-25.2,17.5-42.1A49.5,49.5,0,0,0,179.9,50.1ZM186.1,87c-1.6,16-7,28.9-16.3,39.4a41.3,41.3,0,0,1-11.5,9.3,10.3,10.3,0,0,1-5.4,1.6,7.9,7.9,0,0,1-3.7-1c-3.2,12.3-7.9,24.1-12.5,35.5-2.5,6.1-5,12.5-7.3,18.9-1.7,4.7-3.5,10.4-3.6,16.4a15.8,15.8,0,0,1-3.1,9.4,17.1,17.1,0,0,1-3.7,3.9,9.5,9.5,0,0,1-5.8,2,7.9,7.9,0,0,1-4-1c-3-1.5-4.5-4.3-4.7-8.2v-4.9c-.1-3.3-.1-6.6-.4-9.8a96.7,96.7,0,0,0-2.3-11.7,12,12,0,0,0-2.2-4,4.7,4.7,0,0,0-3.9-2.1,4.9,4.9,0,0,0-4,2.1c-1.9,2.3-2.8,5.1-3.5,8.7-1.3,6.3-1.4,13-1.4,18.7v.4a17.8,17.8,0,0,1-.3,4.6,8.2,8.2,0,0,1-8,7.2,8,8,0,0,1-3.4-.7,16.9,16.9,0,0,1-5.9-4.4,16,16,0,0,1-3.7-10.2A48.1,48.1,0,0,0,62,190.8l-5.1-13c-2.6-6.6-5.3-13.5-7.8-20.3s-3.6-10.8-5.2-16.1c-.5-1.7-1.1-3.4-1.6-5.1a7.2,7.2,0,0,1-3.8,1c-2.7,0-5-1.3-6.8-2.3-7.3-4.6-13.3-11.1-18.2-19.9A70.1,70.1,0,0,1,5.1,77.8c.4-8.5,3.8-16.6,10.6-24.9S31.2,37.3,43.4,29.8A189.3,189.3,0,0,1,68.9,17.1a3,3,0,0,0,1.3-.9A34.6,34.6,0,0,1,118.9,14l2.3,2.3a5.4,5.4,0,0,0,1.6,1c18.2,7.6,32.1,15.8,43.5,25.9A84,84,0,0,1,176,53.3,44.4,44.4,0,0,1,186.1,87Z"/>
    <path class="cls-1" d="M131.7,31.2l-2.9-1.4a33.8,33.8,0,0,1,.3,18.4l1.4.8c2.4,1.1,4.6,2.1,6.8,3.3,6.3,3.3,14.3,8.2,20.1,16,3.8,5.2,5.5,10.5,4.9,15.9v1.7a112.9,112.9,0,0,1-2.6,16.3c-1.4,5.6-3.3,11.2-5.2,16.5-.7,2.1-1.5,4.2-2.2,6.4a4.5,4.5,0,0,0,1,3.1h.1l.9-.6,1.8-1.4a49.5,49.5,0,0,0,6.9-6c7.4-8.1,12.1-18.4,13.7-30.5.8-6.1,1.1-11.2-.1-16.2-1.8-6.8-5.5-13-11.9-19.5C156.4,45.6,146.2,38.6,131.7,31.2Z"/>
  </g>
</svg>
