<svg id="Layer_1" data-name="Layer 1" xmlns="http://www.w3.org/2000/svg" width="350.7" height="227.3" viewBox="0 0 350.7 227.3">
  <defs>
    <style>
      .cls-1 {
        fill: #fff;
      }
    </style>
  </defs>
  <g>
    <path class="cls-1" d="M57.5,146.8a112.4,112.4,0,0,1-21.7-2.1c.3,1.4.5,2.8.8,4.2.8,4.6,1.6,8.9,2.3,13.2s.8,5.9,1.1,8.7.8,7.1,1.4,10.6c1.5,8.4,3.3,17,5.3,25.7a17.3,17.3,0,0,0,2.2,5c0,.2.1.3.2.5s.1-.2.1-.4a47.1,47.1,0,0,0,.3-5.3c-.7-15.8.4-27.9,3.5-39.1,2.4-8.4,8.4-13.4,16.1-13.4h.2c7.7.1,13.6,5.1,15.8,13.5.2.5.3,1.1.5,1.6a33.4,33.4,0,0,1,1.4,7c.4,6.3.7,12.7,1,18.9.2,4,.3,8.1.6,12.1a42.3,42.3,0,0,0,.5,5,7,7,0,0,0,1.3-2.4l.6-1.9a81.9,81.9,0,0,0,3.3-12c2.3-13.6,4.5-27.4,6.6-40.7.7-4.3,1.4-8.6,2-13a.9.9,0,0,0,.1-.5l-7.6,1.1C83,144.9,70.2,146.8,57.5,146.8Z"/>
    <path class="cls-1" d="M94.1,134.9l5.8-.9a42.5,42.5,0,0,0-4.6-2.7,14.8,14.8,0,0,1-8.4-8.9c-2.1-5.1-4.4-10.4-7.7-14.7a12.7,12.7,0,0,0-10.1-5.4,13.5,13.5,0,0,0-10.9,6.2A41.1,41.1,0,0,0,53,119c-2,6.9-5.8,11.1-11.8,13.1a7.8,7.8,0,0,0-4.7,4.2,96,96,0,0,0,21.4,2.2C70,138.5,82.2,136.7,94.1,134.9Z"/>
    <path class="cls-1" d="M237.9,72.9c.7,2.9,2,4.2,4.7,4.6l7.6,1.3c6.2,1.1,12.6,2.3,18.9,2.8,3.3.3,6.7.5,10.1.5a138.2,138.2,0,0,0,35.1-4.8,5.1,5.1,0,0,0,4.1-4.1A84.7,84.7,0,0,1,323,60.1c3.8-8.7,5.4-16.7,4.8-24.5-.9-13.7-9.2-22.2-21.7-22.2h-1.7a110.7,110.7,0,0,0-14,2.4l-4.1.9a10.4,10.4,0,0,0,4.6,1.1,6.9,6.9,0,0,0,2.5-.4h.8c1.2,0,3.7.8,4.1,2.4a5.6,5.6,0,0,1-1.7,5,7.7,7.7,0,0,1-4.4,1.4h-.9a40.1,40.1,0,0,1-10.2-2.5c-2.6-1.1-5.2-2.5-7.7-3.8s-3.8-2-5.8-2.9A32.2,32.2,0,0,0,254,13.6c-13.6,0-23.7,10.2-25,25.4-.5,6.4.8,12.8,4.3,20.8A67.9,67.9,0,0,1,237.9,72.9Z"/>
    <path class="cls-1" d="M129.6,72.9c.7,2.9,2,4.2,4.6,4.6l7.8,1.3c6.2,1.1,12.5,2.3,18.8,2.8,3.3.3,6.8.5,10.2.5a138,138,0,0,0,35-4.8,5.1,5.1,0,0,0,4.1-4.1,88.6,88.6,0,0,1,4.7-13.4c4.4-10.2,5.7-19,4.3-27.8-1.9-10.9-8.9-17.5-19.8-18.6h-3.1c-5.2,0-10.5,1.2-16.9,3.7a8.1,8.1,0,0,0,3.4.8l2.1-.3h.8a5.6,5.6,0,0,1,2.8,1l1.1.6,1.5.7-.8,1.4a3.7,3.7,0,0,0-.5,1.1c-.6,1.3-1.1,2.7-2.5,3a33.3,33.3,0,0,1-5.4.7,10.3,10.3,0,0,1-3-.4,56.7,56.7,0,0,1-8.9-3.5l-2.6-1.1-4.7-2.3a69.5,69.5,0,0,0-8.9-3.7,28.2,28.2,0,0,0-8.2-1.4c-12.4,0-22.2,8.8-24.4,22-1.2,7.5,0,15.2,3.9,24.1A84.7,84.7,0,0,1,129.6,72.9Z"/>
    <path class="cls-1" d="M99.5,77.9a3.9,3.9,0,0,0,2.3-1.5l1-3.2c2.5-7.9,5.1-16,7-24.1a37.5,37.5,0,0,0-1.6-22.7c-2.6-6.5-6.6-10.1-12.2-11.1a24,24,0,0,0-4.6-.5c-5.3,0-10.4,1.7-14.6,3.5a5.9,5.9,0,0,0,2.9.7,4.7,4.7,0,0,0,1.7-.2h.7a6.3,6.3,0,0,1,2.9,1l1,.6,1.5.6-.8,1.5c-.1.3-.3.7-.4,1.1s-1.1,2.5-2.4,3a17.7,17.7,0,0,1-4.6.7,11.5,11.5,0,0,1-2.6-.3,48.9,48.9,0,0,1-9.1-3.9l-.2-.2-4.2-2.4c-1.7-1-3.2-2-4.9-2.8a24.1,24.1,0,0,0-10.2-2.6c-7.6,0-13.8,4.5-17.5,12.7-4.3,9.9-4.2,20.4.5,33.2a129.8,129.8,0,0,1,4.3,13.8c.5,2,1.2,2.9,3,3.3A118.6,118.6,0,0,0,68.6,82,119.8,119.8,0,0,0,99.5,77.9Z"/>
    <path class="cls-1" d="M278.3,146.1h-2.2c-9,0-18.2-1.1-27-2.2L238,142.7c.8,4.1,1.5,8.1,2.2,12.2,1.9,10.4,3.8,21.1,6,31.6,1.6,7.9,4.1,15.7,6.4,23.2a12.3,12.3,0,0,0,2.3,3.3l.5.7a5,5,0,0,0,.2-1.2,46,46,0,0,0,.6-5.2c-.5-11.9-.4-25.9,4-39.5,2.8-8.4,9.6-13.4,18.3-13.4s15.6,5.1,18,13.4c1.5,4.9,3,10,3.4,15.2s.5,10.6.6,15.8c0,3.1,0,6.4.1,9.6a23.6,23.6,0,0,0,.8,4.5,1.9,1.9,0,0,0,.2.7l.6-.7a14.3,14.3,0,0,0,2.3-3.7A144.7,144.7,0,0,0,310,190c2.5-12.3,4.8-24.8,7-37l1.8-9.9a14.8,14.8,0,0,0,.1-2.1l-11.4,1.8C297.5,144.4,288,145.9,278.3,146.1Z"/>
    <path class="cls-1" d="M312.6,132.6l-3.9-1.7a14.3,14.3,0,0,1-8.5-8c-2.3-5-4.5-9.5-7.5-13.3a18.4,18.4,0,0,0-14.3-7.3c-6.1,0-11.7,3.2-15.4,8.9a31.6,31.6,0,0,0-4.1,7.7,18.4,18.4,0,0,1-13.5,13.3,14.7,14.7,0,0,0-3.9,2.1,153,153,0,0,0,31.7,3.3A158.8,158.8,0,0,0,312.6,132.6Z"/>
    <path class="cls-1" d="M349.2,131.6c-1.2-1.7-3.5-3.8-8-4.3l-9.1-.6-5.5-.4a29.8,29.8,0,0,0-12.9-7.7h-.2c-.3-.1-.6-.2-1.3-1.6v-.3l-.2-.2c-.1-.3-.4-.7-.6-1.1l-.6-1.2-.4-.8c-2.4-4.6-4.8-9.3-8.5-13.5a34.1,34.1,0,0,0-6-5.4,137.7,137.7,0,0,0,22-4.2c7.4-1.9,12-6.5,13.5-13.7a61.2,61.2,0,0,1,3.8-10.9,65.5,65.5,0,0,0,6.1-29.9h0c-1-18.9-12.1-32.3-28.9-34.9a44.3,44.3,0,0,0-8.1-.7,52.1,52.1,0,0,0-20.6,4.3,18,18,0,0,1-6.9,1.9,7.1,7.1,0,0,1-4.2-1.4l-.2-.2a13.2,13.2,0,0,0-4-1.8h-.4A45.4,45.4,0,0,0,253.7.4a35.8,35.8,0,0,0-28.2,13.3C219.9,6.1,211.9,1.5,201.9.4a56.3,56.3,0,0,0-5.8-.3H196a57.9,57.9,0,0,0-22.5,4.8h-.2a12.9,12.9,0,0,1-5,1.4,5.2,5.2,0,0,1-2.7-1l-.2-.2h-.1a19.2,19.2,0,0,0-5.1-2.2l-.8-.2A43.6,43.6,0,0,0,145.5.4a36.2,36.2,0,0,0-28.8,13.9A27.8,27.8,0,0,0,93.3,1.8H90c-7,.7-13.6,3-20.5,5.4h-.3a5,5,0,0,1-1.3.3l-.5-.2h-.1A38.2,38.2,0,0,0,48.1,1.8C34,1.8,22,11.1,17,26.2c-4.2,12.5-3.6,25.6,2,40.2a74.7,74.7,0,0,1,3.4,11.4c1.2,6.8,5.5,11.3,12.3,13.1a133.8,133.8,0,0,0,18.7,3.5,29.7,29.7,0,0,0-8.1,9.4v.2a84.9,84.9,0,0,0-3.6,8v.2c-.6,1.7-1.4,3.4-2.2,5.1v.2a2.7,2.7,0,0,1-.9,1.2c-4.7,2-10,5.1-13.4,10.9l-1.1-.2-13.2-1.6H9.4c-6.1,0-9.2,3-9.4,8.9-.1,2.4.7,8.2,8.9,9.3h.4c4.9.5,9.1,1,13.3,1.7.6,3.4,1.1,6.9,1.7,10l.8,5.2c.7,4.1,1.4,8.4,2.2,12.6,2.2,12.5,4.5,24.5,6.8,35.7v.2h.1a26.9,26.9,0,0,0,5.5,10.6c2.1,2.5,4.8,5.1,10,5.1s9.6-3.5,11.5-8.8v-.3a37.5,37.5,0,0,0,1.5-10.5c.1-3,.1-6,.1-9v-2.5c0-3.6.1-7,.4-11.3a83.6,83.6,0,0,1,3.1-15.2h.1a2.4,2.4,0,0,1,2.3-1.9H69c.9,0,1.8.1,2.9,2.4l.5,1.9.2.5c3.2,11.9,3.2,24,2.8,33.2a41,41,0,0,0,.8,10.5c1.2,5.9,5,9.9,10.3,10.8h2.3a12.7,12.7,0,0,0,11.5-7.5l.2-.3v-.4a46.6,46.6,0,0,0,4.9-12.6c3.7-20,6.9-39.7,9.7-57.2l.4-2.8,4.8.3h.2a116.5,116.5,0,0,1,14.4,1.2,225.6,225.6,0,0,0,37.6,3.4h.1a167.3,167.3,0,0,0,30.8-2.9,124.5,124.5,0,0,1,18.3-1.7l3.5-.2c.8,4,1.4,7.8,2.4,13,1.3,7.2,2.7,14.6,3.8,20.2,2.7,12.8,5,22.6,7.4,31.6h0a28.2,28.2,0,0,0,7.1,11.4,13.1,13.1,0,0,0,9.6,4.5h.1c5.5,0,10.2-3.6,12.2-9.4h.1a33.4,33.4,0,0,0,1.4-11.3c-.3-11.1-.3-22.9,3.3-33.7h0c1.5-5.1,4.7-5.1,5.8-5.1s4,0,5.7,5.3c3.5,10.9,3.6,22.2,3.2,30.9a52.2,52.2,0,0,0,.3,9.7c.8,7.1,4.7,11.9,10.7,13.3h.3l2.7.3h.2c5.1,0,9.4-2.8,12.7-8.1a41.9,41.9,0,0,0,4.8-10.8V208c2.6-11.2,4.7-21.2,6.6-31.4,1.6-8.5,3.1-16.8,4.7-26l1.1-5.9,6.5.6,1,.2,2.4.3h.3a8.7,8.7,0,0,0,8.5-6.5A9.1,9.1,0,0,0,349.2,131.6ZM36,86.1c-4.9-1.3-7.8-4.3-8.7-9.3a71.7,71.7,0,0,0-3.7-12.2c-5.1-13.4-5.7-25.5-1.9-36.8,4.4-13.1,14.3-21,26.4-21a32.4,32.4,0,0,1,16.6,4.8,6.3,6.3,0,0,0,3.2,1,8.8,8.8,0,0,0,3.2-.7C77.7,9.6,84,7.4,90.5,6.8h2.8c9.9,0,17.8,5.5,22.2,15.6a7.7,7.7,0,0,1,.7,1.6C122.7,12,133,5.4,145.5,5.4a37.6,37.6,0,0,1,12.4,2.1l1.1.3a10.9,10.9,0,0,1,3.5,1.5,9.9,9.9,0,0,0,5.9,2.1,19.2,19.2,0,0,0,7.1-1.9A53.5,53.5,0,0,1,196,5.1a47.1,47.1,0,0,1,5.3.3c10.9,1.2,18.8,6.9,23.4,16.9l.3.8c6.8-11.6,16.7-17.7,28.7-17.7a42.2,42.2,0,0,1,12.7,2.1l.7.2a6.7,6.7,0,0,1,2.3,1,12.2,12.2,0,0,0,7.3,2.5c2.4,0,5.2-.7,8.9-2.3A46,46,0,0,1,304.2,5a44.9,44.9,0,0,1,7.3.6c14.4,2.3,23.8,13.9,24.7,30.3a61,61,0,0,1-5.6,27.6,62.3,62.3,0,0,0-4.2,11.9c-1.1,5.4-4.2,8.5-9.9,10a145.5,145.5,0,0,1-36.6,5A88.3,88.3,0,0,1,271,90c-8.3-.6-16.6-2.1-24.7-3.5l-5.5-.9c-5.9-1-9.4-4.5-11-10.7a99.9,99.9,0,0,0-4.5-13c-.4-1.1-.8-2.2-1.3-3.3-.4,1.2-.9,2.4-1.3,3.5a122.8,122.8,0,0,0-4.6,13.3c-1.4,5.5-4.7,8.8-10,9.9l-1.5.3c-7.2,1.5-14.7,3.1-22.1,3.9a127.9,127.9,0,0,1-15.2.9,151.2,151.2,0,0,1-36.6-4.7c-6.4-1.6-9.8-4.9-11.2-10.8a80.5,80.5,0,0,0-4.4-12.8L115.9,59c-.4,1.2-.7,2.3-1.1,3.4a146.5,146.5,0,0,0-4.3,14.3c-1.2,5.1-4,8.1-8.8,9.3a131.8,131.8,0,0,1-33.1,4.3A127.9,127.9,0,0,1,36,86.1Zm130.1,14.4c-.1-1.5-.3-3.4.9-4.7a3.9,3.9,0,0,1,3.1-1.2h.2a4.1,4.1,0,0,1,3.2,1.2c1.2,1.3,1,3.2.9,4.7a5.7,5.7,0,0,0-.1,1.3c.1,4.1.1,8.2.1,12.2v2.3a7.7,7.7,0,0,1,2.2-2.2,5.4,5.4,0,0,1,2.2-.5h4v2.6c.1,1.1.2,2.5-.6,3.4a78.2,78.2,0,0,1-9,9.2,3.8,3.8,0,0,1-2.7,1,5.9,5.9,0,0,1-3.4-1,64.3,64.3,0,0,1-8.6-8.7c-.9-1-.8-2.5-.7-3.7v-3l1.8.2h1.1a5.7,5.7,0,0,1,3.4.7,11.2,11.2,0,0,1,2,1.8v-2.2c0-4,0-8.1.1-12.2A4.9,4.9,0,0,0,166.1,100.5Zm179.4,37.3c-.6,2-1.8,3-3.7,3l-1.9-.2-.9-.2c-3-.4-6.2-.6-9.2-.8l-2.4-.2-1.8,10.4c-1.6,9-3.1,17.4-4.7,25.9-2.1,11.3-4.3,21.4-6.6,31.2a33,33,0,0,1-4.2,9.4c-2.4,3.9-5.1,5.8-8.5,5.8l-2.1-.2c-5.7-1.3-6.6-7.1-6.8-9a43.2,43.2,0,0,1-.3-8.8c.4-9.9.2-21.4-3.4-32.7-1.3-4-4.1-8.8-10.5-8.8s-9.4,4.7-10.6,8.7c-3.8,11.6-3.8,23.9-3.5,35.4a28.5,28.5,0,0,1-1.2,9.6c-1.3,3.7-4.1,6-7.5,6a8.4,8.4,0,0,1-6.1-2.9,23.5,23.5,0,0,1-5.9-9.5c-2.5-9.3-4.8-19.3-7.3-31.3-1.3-6.7-2.6-13.5-3.8-20.1s-2-11-3.1-16.4a2.2,2.2,0,0,0-1.3-.8l-6.5.3a122.3,122.3,0,0,0-19.1,1.8,158.8,158.8,0,0,1-30,2.8,227.8,227.8,0,0,1-36.8-3.3,126.4,126.4,0,0,0-15.1-1.3l-7.6-.5h-.5c-.8,0-1.2,0-1.5,1.9-3,18.5-6.5,40.4-10.5,62.4-.8,4.1-2.7,7.9-4.6,11.5l-.2.6a7.8,7.8,0,0,1-7.1,4.6H87.4c-2.3-.4-5.3-1.9-6.3-6.9a35.4,35.4,0,0,1-.7-9.2c.4-9.7.4-22.4-3-34.9l-.2-.6-.6-2.1c-1.7-3.8-4-5.6-7.5-5.7h-.2a7.5,7.5,0,0,0-7.2,5.7c-1.4,5.1-2.9,10.6-3.3,16.1s-.4,9.5-.5,14.2c0,2.9,0,6-.1,8.9a32,32,0,0,1-1.3,9.2c-1.2,3.4-3.8,5.5-6.8,5.5s-4.4-1.2-6.2-3.3a23.3,23.3,0,0,1-4.5-8.7c-2.5-12-4.8-24.2-6.8-35.6-.9-4.9-1.7-9.8-2.5-14.6S28,149.6,27,144.4a2.1,2.1,0,0,0-1.3-1.1c-4.6-.8-9.4-1.5-15.9-2.2-1.4-.2-4.9-.5-4.8-4.3s1.7-4,4.4-4h.9l12.9,1.6,1.4.2,3,.4h.3c2.3-6.5,7.4-9.6,12.7-11.9a8,8,0,0,0,3.2-3.6,55.5,55.5,0,0,0,2.4-5.6c1-2.5,2.1-5.1,3.4-7.6C54,98.6,61.3,94,69,94s14,4,18.6,10.9a50.9,50.9,0,0,1,4.6,9c.9,1.9,1.7,3.9,2.7,5.8a9.5,9.5,0,0,0,3.3,3.6c4.7,2.3,8.8,4.6,11.2,9.4l.5.3a57.9,57.9,0,0,1,7.2-.4c8.6,0,17,1.4,25.2,2.8l5.3.8a150.1,150.1,0,0,0,23.2,1.8,181.7,181.7,0,0,0,33.7-3.4,94.1,94.1,0,0,1,18.3-2,66.4,66.4,0,0,1,7.7.5,2.4,2.4,0,0,0,1.4-.5,19.6,19.6,0,0,1,11.5-8.6c3.8-1.1,6-3.3,7.4-7.2a45.3,45.3,0,0,1,5.7-10.9A26.6,26.6,0,0,1,278.4,94a25.5,25.5,0,0,1,19.6,9.1c3.5,4,5.9,8.8,8.3,13.4.5.9.9,1.8,1.4,2.6,1.2,2.4,2.4,3.6,4.4,4.2,4.1,1.4,8.7,3.5,12,7.8l2,.2,5.6.4,9,.6c2.1.2,3.5.9,4.3,2.1A3.7,3.7,0,0,1,345.5,137.8Z"/>
  </g>
</svg>
