<svg id="Layer_1" data-name="Layer 1" xmlns="http://www.w3.org/2000/svg" width="235.6" height="227.5" viewBox="0 0 235.6 227.5">
  <defs>
    <style>
      .cls-1 {
        fill: #fff;
      }
    </style>
  </defs>
  <g>
    <path class="cls-1" d="M126.9,29A36.6,36.6,0,0,0,90.4,65.4a36.1,36.1,0,0,0,36.1,36.1,36.7,36.7,0,0,0,36.6-36.4A36.2,36.2,0,0,0,126.9,29Z"/>
    <path class="cls-1" d="M176.9,65.5a50.2,50.2,0,0,0-49.8-50.4h-.2A50.6,50.6,0,0,0,76.6,65.5a49.8,49.8,0,0,0,49.7,49.8h.2A50.1,50.1,0,0,0,176.9,65.5Zm-50,46.1h-.3c-25.4,0-46.2-20.4-46.3-45.5S100.7,19,126.9,18.8,173,39.3,173.2,64.7A46.7,46.7,0,0,1,126.9,111.6Z"/>
    <path class="cls-1" d="M79.9,103C66,85.8,62.8,65.9,70.4,43.9A43.3,43.3,0,0,1,53.1,30.7,24.4,24.4,0,0,0,50.2,28a23.9,23.9,0,0,0-17.3-3.4c-8.8,1.5-14.5,6.5-16.9,15-1.4,5-1.1,10.1-.5,15.8a267,267,0,0,0,5.4,33.2c2.7,12.9,5.6,25.9,8.4,38.6l3.6,16.4c1.9,8.5,3.1,15.7,3.2,23.2,0,2.8-.1,5.7-.1,8.5s-.1,3.7-.1,5.5a10.8,10.8,0,0,0,3.4,8.8,6.1,6.1,0,0,0,4.4,2,6.4,6.4,0,0,0,3.9-1.6,28.6,28.6,0,0,0,4.2-5,64.6,64.6,0,0,0,6.9-17c1.2-5,2.2-10.2,3.2-15.3.4-1.9.7-3.7,1.1-5.6a48.8,48.8,0,0,1,7.9-19.3,11.8,11.8,0,0,1,9.9-5.2,12.2,12.2,0,0,1,10.8,6.5l2.1,4.9c2.8,7.3,3.4,15.1,3.9,22a100.2,100.2,0,0,0,5.6,28.1A23.4,23.4,0,0,0,108,193a7,7,0,0,0,5.1,2.5,6.9,6.9,0,0,0,5.1-2.4,11.1,11.1,0,0,0,3-8c.2-7,.6-15.2,2.7-23s3.8-13.5,5.8-20.1c.6-1.9,1.1-3.8,1.7-5.8l2.8-8.9c.3-.8.5-1.6.8-2.4a76.7,76.7,0,0,1-8.2.5C107.6,125.4,91.8,117.8,79.9,103Z"/>
    <path class="cls-1" d="M200.7,166.5l-10.2-17c-3.9-6.7-7.9-13.3-11.9-20a8.4,8.4,0,0,0-7.3-4.4,9.5,9.5,0,0,0-4.7,1.3l-1.7,1.1-.8.4c-4.8,2.9-6.1,8-3.3,12.7l14.1,23.6,11,18.6c5,8.4,10,16.8,15.1,25.2a8.3,8.3,0,0,0,7.5,4.5,9.2,9.2,0,0,0,4.7-1.4l2.9-1.7a9.1,9.1,0,0,0,4.3-7.5,10.4,10.4,0,0,0-1.7-5.2Z"/>
    <path class="cls-1" d="M232.1,189.4l-5.8-9.8-9.1-15.2-15.8-26.5-9.9-16.6a23.1,23.1,0,0,0-11.9-9.9l-2.1-3.4-.7-1.2c13.1-15.9,17.9-34.1,14.1-54.2A65.1,65.1,0,0,0,127.4,0h-.7a56.6,56.6,0,0,0-8.2.6C99.4,3.2,84.1,12.5,73.2,28.3a29.6,29.6,0,0,1-7.9-6.6,30.9,30.9,0,0,0-6.5-6,36.6,36.6,0,0,0-21-6.6h-.4a30.4,30.4,0,0,0-6,.5C16.8,11.7,6.7,20,2.1,33.5-.5,41.1-.2,48.9.5,56.1A291.2,291.2,0,0,0,6,90.8c3.5,17,7.5,35.1,12.1,55.3a111.9,111.9,0,0,1,2.8,32.6,27.7,27.7,0,0,0,5.4,19.1,22.2,22.2,0,0,0,17.3,8.9h.1A21.8,21.8,0,0,0,59.1,200a33.7,33.7,0,0,0,5.9-7.6,72.1,72.1,0,0,0,8.4-20.7c1.2-4.9,2.3-10.2,3.4-15.9h0c.1-.8.3-1.6.5-2.5a25.6,25.6,0,0,1,.5-2.7,36.5,36.5,0,0,1,2.6-8.7c1.3,4.2,1.7,8.8,2.1,13.8v1.2a121,121,0,0,0,5.1,28.5c1.6,5.2,3.8,11.2,8,16.4a21.7,21.7,0,0,0,17.2,8.9h.1a22.6,22.6,0,0,0,17.5-8.5,26.3,26.3,0,0,0,5.9-16.1c.2-7.3,1.2-17.8,3.5-25.6,1.8-5.9,3.7-11.8,5.5-17.6a22,22,0,0,0,2.5,5.4l22.5,38,8.7,14.6,2.8,4.8,4.2,7,2,3.4a23.5,23.5,0,0,0,20.1,11.5h.9l2.3-.3c6.4-.6,11.2-4,14.4-6.2h.1A23.7,23.7,0,0,0,232.1,189.4Zm-9.2,27.5c-3.3,2.3-7.2,4.9-12.1,5.3l-2.2.3a18.1,18.1,0,0,1-16.2-9L186.1,203l-2.7-4.7-8.8-14.7-22.5-37.9a18.5,18.5,0,0,1-2.2-14.7v-.7c-1.1-2-2.3-4-3.5-5.9l-.4-.7c-.3,1.1-.7,2.2-1,3.3l-2.2,7.1c-2.6,8.3-5.2,16.6-7.7,24.9s-3.6,19.4-3.8,26.9a21.3,21.3,0,0,1-4.7,13,18,18,0,0,1-13.7,6.7,16.7,16.7,0,0,1-13.3-6.9c-3.6-4.5-5.6-9.8-7.2-14.9a115.1,115.1,0,0,1-4.9-27.3v-1.1c-.4-5.7-.9-11.6-2.9-17.1-.5-1.4-1-2.7-1.7-4.2a2.5,2.5,0,0,0-1.9-1.4,2.1,2.1,0,0,0-1.9,1.2,41,41,0,0,0-6.2,15.7c-.3,1.8-.7,3.5-1,5.3-1,5.2-2.1,10.5-3.3,15.7a70.7,70.7,0,0,1-7.9,19.3,36.3,36.3,0,0,1-5.1,6.6,16.4,16.4,0,0,1-11.9,5.2,16.7,16.7,0,0,1-13.3-6.9,22.2,22.2,0,0,1-4.5-15.7A119.1,119.1,0,0,0,23,144.9c-4-17.6-8.1-36.1-12.1-55.1A282.9,282.9,0,0,1,5.5,55.6c-.6-6.2-1-13.5,1.4-20.5,4-11.8,12.5-18.7,25.3-20.6a33.1,33.1,0,0,1,5.5-.4A32.5,32.5,0,0,1,56,19.8a29.5,29.5,0,0,1,5.5,5.1,34.2,34.2,0,0,0,13.3,9.8H75l.2-.3c10.3-16.6,25.1-26.3,44-28.9a55.6,55.6,0,0,1,8.2-.5A59.9,59.9,0,0,1,186,53.5c3.7,19.6-1.4,37.3-15.2,52.6l-.2.2h.1l2.6,4.3,2.7,4.5a1.2,1.2,0,0,0,.8.6,19.4,19.4,0,0,1,10.5,8.2c8.6,14.4,17.1,28.8,25.7,43.1l9,15.2,5.9,9.8A19,19,0,0,1,222.9,216.9Z"/>
    <polygon class="cls-1" points="163.1 113.7 154.8 118.6 156.1 120.9 164.4 115.9 163.1 113.7"/>
  </g>
</svg>
