<svg width="54" height="54" viewBox="0 0 54 54" fill="none" xmlns="http://www.w3.org/2000/svg">
<g filter="url(#filter0_b_374_13723)">
<circle cx="27" cy="27" r="27" fill="white" fill-opacity="0.24"/>
</g>
<path d="M38.2451 17.2056L36.7662 15.7403C35.7803 14.7532 34.0704 14.7532 33.0999 15.7403L23.2253 25.6271L16.6166 32.2285C16.5559 32.3017 16.5089 32.3853 16.478 32.4753L15.0145 38.3519C14.9935 38.4391 14.9952 38.5303 15.0195 38.6168C15.0438 38.7032 15.0898 38.7819 15.1532 38.8454C15.2 38.8964 15.2573 38.9366 15.3211 38.9632C15.3849 38.9899 15.4538 39.0023 15.5229 38.9997H15.6461L21.5154 37.5344C21.6117 37.5197 21.6993 37.4703 21.7619 37.3956L38.2451 20.8919C38.7268 20.3962 38.9974 19.7327 38.9999 19.0411C38.9966 18.3542 38.7258 17.6957 38.2451 17.2056Z" fill="white"/>
<defs>
<filter id="filter0_b_374_13723" x="-25.7143" y="-25.7143" width="105.429" height="105.429" filterUnits="userSpaceOnUse" color-interpolation-filters="sRGB">
<feFlood flood-opacity="0" result="BackgroundImageFix"/>
<feGaussianBlur in="BackgroundImageFix" stdDeviation="12.8571"/>
<feComposite in2="SourceAlpha" operator="in" result="effect1_backgroundBlur_374_13723"/>
<feBlend mode="normal" in="SourceGraphic" in2="effect1_backgroundBlur_374_13723" result="shape"/>
</filter>
</defs>
</svg>
