<svg width="445" height="250" viewBox="0 0 445 250" fill="none" xmlns="http://www.w3.org/2000/svg">
<circle cx="320.008" cy="125" r="124.5" fill="#100E10" stroke="#605E60"/>
<circle cx="255.008" cy="125" r="124.5" fill="#100E10" stroke="#605E60"/>
<circle cx="190.008" cy="125" r="124.5" fill="#100E10" stroke="#605E60"/>
<circle cx="125.008" cy="125" r="124.5" fill="#100E10" stroke="#605E60"/>
<path d="M78.5958 105.426H81.2238V108H73.2498V105.426H75.8778V98.46L73.3578 98.964V96.282L78.5958 95.22V105.426ZM87.9014 95.04C90.4574 95.04 92.9774 96.606 92.9774 99.792V103.428C92.9774 106.596 90.4574 108.18 87.9014 108.18C85.3454 108.18 82.8254 106.596 82.8254 103.428V99.792C82.8254 96.606 85.3454 95.04 87.9014 95.04ZM87.9014 105.606C89.1434 105.606 90.2414 104.832 90.2414 103.428V99.792C90.2414 98.388 89.1434 97.596 87.9014 97.596C86.6414 97.596 85.5434 98.388 85.5434 99.792V103.428C85.5434 104.832 86.6414 105.606 87.9014 105.606ZM100.091 95.04C102.647 95.04 105.167 96.606 105.167 99.792V103.428C105.167 106.596 102.647 108.18 100.091 108.18C97.5355 108.18 95.0155 106.596 95.0155 103.428V99.792C95.0155 96.606 97.5355 95.04 100.091 95.04ZM100.091 105.606C101.333 105.606 102.431 104.832 102.431 103.428V99.792C102.431 98.388 101.333 97.596 100.091 97.596C98.8315 97.596 97.7335 98.388 97.7335 99.792V103.428C97.7335 104.832 98.8315 105.606 100.091 105.606ZM112.282 95.04C114.838 95.04 117.358 96.606 117.358 99.792V103.428C117.358 106.596 114.838 108.18 112.282 108.18C109.726 108.18 107.206 106.596 107.206 103.428V99.792C107.206 96.606 109.726 95.04 112.282 95.04ZM112.282 105.606C113.524 105.606 114.622 104.832 114.622 103.428V99.792C114.622 98.388 113.524 97.596 112.282 97.596C111.022 97.596 109.924 98.388 109.924 99.792V103.428C109.924 104.832 111.022 105.606 112.282 105.606ZM128.375 101.628V104.202H125.765V106.812H123.191V104.202H120.617V101.628H123.191V99.054H125.765V101.628H128.375ZM83.7618 123C83.4558 122.622 82.2858 121.596 80.3778 121.596C78.1998 121.596 76.3458 123.18 76.3458 125.61C76.3458 128.04 78.1998 129.606 80.3778 129.606C82.2858 129.606 83.4558 128.598 83.7618 128.22V130.938C83.3298 131.316 82.0878 132.18 80.0358 132.18C76.4718 132.18 73.6278 129.354 73.6278 125.61C73.6278 121.866 76.4718 119.04 80.0358 119.04C82.0878 119.04 83.3298 119.904 83.7618 120.282V123ZM91.8074 132.18C88.1534 132.18 85.2554 129.246 85.2554 125.61C85.2554 121.956 88.1534 119.04 91.8074 119.04C95.4434 119.04 98.3414 121.956 98.3414 125.61C98.3414 129.246 95.4434 132.18 91.8074 132.18ZM91.8074 129.606C94.0574 129.606 95.6234 127.788 95.6234 125.61C95.6234 123.414 94.0574 121.596 91.8074 121.596C89.5394 121.596 87.9734 123.414 87.9734 125.61C87.9734 127.788 89.5394 129.606 91.8074 129.606ZM111.681 119.22H114.399V132H111.681V124.08L108.063 129.804H107.037L103.419 124.08V132H100.701V119.22H103.419L107.541 125.646L111.681 119.22ZM121.415 119.22C123.899 119.22 126.167 120.876 126.167 123.702C126.167 126.51 123.899 128.166 121.415 128.166H119.219V132H116.483V119.22H121.415ZM121.415 125.61C122.585 125.61 123.449 124.926 123.449 123.702C123.449 122.478 122.585 121.776 121.415 121.776H119.219V125.61H121.415ZM130.801 129.426H136.021V132H128.083V119.22H130.801V129.426ZM144.992 121.776H140.312V124.26H144.02V126.834H140.312V129.426H144.992V132H137.576V119.22H144.992V121.776ZM155.241 119.22V121.776H152.289V132H149.571V121.776H146.637V119.22H155.241ZM164.169 121.776H159.489V124.26H163.197V126.834H159.489V129.426H164.169V132H156.753V119.22H164.169V121.776ZM170.545 119.22C174.181 119.22 176.755 122.028 176.755 125.61C176.755 129.192 174.181 132 170.545 132H165.937V119.22H170.545ZM170.545 129.426C172.435 129.426 174.037 128.202 174.037 125.61C174.037 123.018 172.435 121.776 170.545 121.776H168.673V129.426H170.545ZM81.4398 143.22H84.1578V156H81.4398V150.996H76.0218V156H73.2858V143.22H76.0218V148.422H81.4398V143.22ZM95.0364 156L94.1004 153.444H89.2764L88.3584 156H85.5324L90.1404 143.22H93.2364L97.8444 156H95.0364ZM90.1944 150.87H93.1824L91.6884 146.73L90.1944 150.87ZM104.004 143.22C106.488 143.22 108.756 144.876 108.756 147.702C108.756 150.51 106.488 152.166 104.004 152.166H101.808V156H99.0722V143.22H104.004ZM104.004 149.61C105.174 149.61 106.038 148.926 106.038 147.702C106.038 146.478 105.174 145.776 104.004 145.776H101.808V149.61H104.004ZM115.263 143.22C117.747 143.22 120.015 144.876 120.015 147.702C120.015 150.51 117.747 152.166 115.263 152.166H113.067V156H110.331V143.22H115.263ZM115.263 149.61C116.433 149.61 117.297 148.926 117.297 147.702C117.297 146.478 116.433 145.776 115.263 145.776H113.067V149.61H115.263ZM129.187 143.22H132.265L127.477 151.014V156H124.759V151.014L119.989 143.22H123.067L126.127 148.206L129.187 143.22ZM139.65 151.896H142.368C142.386 153.066 143.178 153.606 144.132 153.606C145.086 153.606 145.554 153.138 145.554 152.598C145.554 151.824 144.762 151.464 143.376 150.654C140.55 148.98 139.92 147.972 139.92 146.406C139.92 144.408 141.612 143.04 143.808 143.04C146.292 143.04 147.876 144.894 147.894 147.252H145.176C145.158 146.172 144.6 145.596 143.808 145.596C143.16 145.596 142.638 145.956 142.638 146.532C142.638 147.234 143.142 147.54 144.384 148.242C146.94 149.682 148.29 150.78 148.29 152.706C148.29 154.956 146.346 156.18 144.132 156.18C141.162 156.18 139.668 153.984 139.65 151.896ZM161.205 143.22H163.923V156H161.205V148.08L157.587 153.804H156.561L152.943 148.08V156H150.225V143.22H152.943L157.065 149.646L161.205 143.22ZM166.17 156V143.22H168.888V156H166.17ZM173.717 153.426H178.937V156H170.999V143.22H173.717V153.426ZM187.907 145.776H183.227V148.26H186.935V150.834H183.227V153.426H187.907V156H180.491V143.22H187.907V145.776Z" fill="white"/>
</svg>
