<svg width="445" height="251" viewBox="0 0 445 251" fill="none" xmlns="http://www.w3.org/2000/svg">
<circle cx="320.007" cy="125.781" r="124.5" fill="#100E10" stroke="#605E60"/>
<circle cx="255.007" cy="125.781" r="124.5" fill="#100E10" stroke="#605E60"/>
<circle cx="190.007" cy="125.781" r="124.5" fill="#100E10" stroke="#605E60"/>
<circle cx="125.007" cy="125.781" r="124.5" fill="#100E10" stroke="#605E60"/>
<path d="M78.9728 100.069C81.2948 100.069 83.1488 101.851 83.1488 104.479C83.1488 106.801 81.3128 108.961 78.3788 108.961C75.4088 108.961 73.6268 106.909 73.6268 104.767H76.3448C76.4168 105.559 77.2088 106.243 78.3428 106.243C79.4768 106.243 80.4128 105.523 80.4128 104.335C80.4128 103.183 79.5488 102.463 78.3428 102.463C77.5508 102.463 76.7228 102.859 76.3988 103.579H73.7348L74.8868 96.0012H82.2488V98.5572H77.1728L76.8848 100.429C77.4968 100.195 78.1988 100.069 78.9728 100.069ZM91.293 95.8212C93.849 95.8212 96.369 97.3872 96.369 100.573V104.209C96.369 107.377 93.849 108.961 91.293 108.961C88.737 108.961 86.217 107.377 86.217 104.209V100.573C86.217 97.3872 88.737 95.8212 91.293 95.8212ZM91.293 106.387C92.535 106.387 93.633 105.613 93.633 104.209V100.573C93.633 99.1692 92.535 98.3772 91.293 98.3772C90.033 98.3772 88.935 99.1692 88.935 100.573V104.209C88.935 105.613 90.033 106.387 91.293 106.387ZM103.483 95.8212C106.039 95.8212 108.559 97.3872 108.559 100.573V104.209C108.559 107.377 106.039 108.961 103.483 108.961C100.927 108.961 98.4071 107.377 98.4071 104.209V100.573C98.4071 97.3872 100.927 95.8212 103.483 95.8212ZM103.483 106.387C104.725 106.387 105.823 105.613 105.823 104.209V100.573C105.823 99.1692 104.725 98.3772 103.483 98.3772C102.223 98.3772 101.125 99.1692 101.125 100.573V104.209C101.125 105.613 102.223 106.387 103.483 106.387ZM119.577 102.409V104.983H116.967V107.593H114.393V104.983H111.819V102.409H114.393V99.8352H116.967V102.409H119.577ZM83.7608 123.781C83.4548 123.403 82.2848 122.377 80.3768 122.377C78.1988 122.377 76.3448 123.961 76.3448 126.391C76.3448 128.821 78.1988 130.387 80.3768 130.387C82.2848 130.387 83.4548 129.379 83.7608 129.001V131.719C83.3288 132.097 82.0868 132.961 80.0348 132.961C76.4708 132.961 73.6268 130.135 73.6268 126.391C73.6268 122.647 76.4708 119.821 80.0348 119.821C82.0868 119.821 83.3288 120.685 83.7608 121.063V123.781ZM91.8064 132.961C88.1524 132.961 85.2544 130.027 85.2544 126.391C85.2544 122.737 88.1524 119.821 91.8064 119.821C95.4424 119.821 98.3404 122.737 98.3404 126.391C98.3404 130.027 95.4424 132.961 91.8064 132.961ZM91.8064 130.387C94.0564 130.387 95.6224 128.569 95.6224 126.391C95.6224 124.195 94.0564 122.377 91.8064 122.377C89.5384 122.377 87.9724 124.195 87.9724 126.391C87.9724 128.569 89.5384 130.387 91.8064 130.387ZM111.68 120.001H114.398V132.781H111.68V124.861L108.062 130.585H107.036L103.418 124.861V132.781H100.7V120.001H103.418L107.54 126.427L111.68 120.001ZM121.414 120.001C123.898 120.001 126.166 121.657 126.166 124.483C126.166 127.291 123.898 128.947 121.414 128.947H119.218V132.781H116.482V120.001H121.414ZM121.414 126.391C122.584 126.391 123.448 125.707 123.448 124.483C123.448 123.259 122.584 122.557 121.414 122.557H119.218V126.391H121.414ZM130.8 130.207H136.02V132.781H128.082V120.001H130.8V130.207ZM144.991 122.557H140.311V125.041H144.019V127.615H140.311V130.207H144.991V132.781H137.575V120.001H144.991V122.557ZM155.24 120.001V122.557H152.288V132.781H149.57V122.557H146.636V120.001H155.24ZM164.168 122.557H159.488V125.041H163.196V127.615H159.488V130.207H164.168V132.781H156.752V120.001H164.168V122.557ZM170.544 120.001C174.18 120.001 176.754 122.809 176.754 126.391C176.754 129.973 174.18 132.781 170.544 132.781H165.936V120.001H170.544ZM170.544 130.207C172.434 130.207 174.036 128.983 174.036 126.391C174.036 123.799 172.434 122.557 170.544 122.557H168.672V130.207H170.544ZM81.4388 144.001H84.1568V156.781H81.4388V151.777H76.0208V156.781H73.2848V144.001H76.0208V149.203H81.4388V144.001ZM95.0354 156.781L94.0994 154.225H89.2754L88.3574 156.781H85.5314L90.1394 144.001H93.2354L97.8434 156.781H95.0354ZM90.1934 151.651H93.1814L91.6874 147.511L90.1934 151.651ZM104.003 144.001C106.487 144.001 108.755 145.657 108.755 148.483C108.755 151.291 106.487 152.947 104.003 152.947H101.807V156.781H99.0712V144.001H104.003ZM104.003 150.391C105.173 150.391 106.037 149.707 106.037 148.483C106.037 147.259 105.173 146.557 104.003 146.557H101.807V150.391H104.003ZM115.262 144.001C117.746 144.001 120.014 145.657 120.014 148.483C120.014 151.291 117.746 152.947 115.262 152.947H113.066V156.781H110.33V144.001H115.262ZM115.262 150.391C116.432 150.391 117.296 149.707 117.296 148.483C117.296 147.259 116.432 146.557 115.262 146.557H113.066V150.391H115.262ZM129.186 144.001H132.264L127.476 151.795V156.781H124.758V151.795L119.988 144.001H123.066L126.126 148.987L129.186 144.001ZM139.649 152.677H142.367C142.385 153.847 143.177 154.387 144.131 154.387C145.085 154.387 145.553 153.919 145.553 153.379C145.553 152.605 144.761 152.245 143.375 151.435C140.549 149.761 139.919 148.753 139.919 147.187C139.919 145.189 141.611 143.821 143.807 143.821C146.291 143.821 147.875 145.675 147.893 148.033H145.175C145.157 146.953 144.599 146.377 143.807 146.377C143.159 146.377 142.637 146.737 142.637 147.313C142.637 148.015 143.141 148.321 144.383 149.023C146.939 150.463 148.289 151.561 148.289 153.487C148.289 155.737 146.345 156.961 144.131 156.961C141.161 156.961 139.667 154.765 139.649 152.677ZM161.204 144.001H163.922V156.781H161.204V148.861L157.586 154.585H156.56L152.942 148.861V156.781H150.224V144.001H152.942L157.064 150.427L161.204 144.001ZM166.169 156.781V144.001H168.887V156.781H166.169ZM173.716 154.207H178.936V156.781H170.998V144.001H173.716V154.207ZM187.906 146.557H183.226V149.041H186.934V151.615H183.226V154.207H187.906V156.781H180.49V144.001H187.906V146.557Z" fill="white"/>
</svg>
