<svg width="584" height="471" viewBox="0 0 584 471" fill="none" xmlns="http://www.w3.org/2000/svg">
<rect y="0.788086" width="584" height="470" rx="16" fill="#2D2D2D"/>
<path fill-rule="evenodd" clip-rule="evenodd" d="M292 265.788C308.569 265.788 322 252.357 322 235.788C322 219.22 308.569 205.788 292 205.788C275.431 205.788 262 219.22 262 235.788C262 252.357 275.431 265.788 292 265.788ZM295.078 227.613C294.367 227.113 293.56 226.596 292.726 226.089C289.509 224.132 287.9 223.154 286.457 224.237C285.015 225.32 284.883 227.587 284.621 232.122C284.547 233.404 284.5 234.661 284.5 235.788C284.5 236.915 284.547 238.172 284.621 239.455C284.883 243.989 285.015 246.256 286.457 247.339C287.9 248.422 289.509 247.444 292.726 245.488C293.56 244.98 294.367 244.463 295.078 243.963C295.89 243.394 296.773 242.71 297.663 241.984C300.888 239.353 302.5 238.038 302.5 235.788C302.5 233.539 300.888 232.223 297.663 229.593C296.773 228.866 295.89 228.183 295.078 227.613Z" fill="#454545"/>
</svg>
