<svg width="389" height="389" viewBox="0 0 389 389" fill="none" xmlns="http://www.w3.org/2000/svg">
<g clip-path="url(#clip0_1172_56459)">
<path fill-rule="evenodd" clip-rule="evenodd" d="M98.5996 222.1H101.5L195.3 383.4L288.9 222.1H292L195.3 388.8L99.9996 224.7L98.5996 222.1Z" fill="white"/>
<path fill-rule="evenodd" clip-rule="evenodd" d="M128.6 222.1H136.2L195.3 323.6L254.2 222.1H261.9L195.3 337L131.8 227.9L128.6 222.1Z" fill="white"/>
<path d="M95.7 43.1001C95.7 41.6001 96.4 41.3001 99.9 41.3001C107.2 41.3001 111.3 49.2001 111.3 63.7001C111.3 83.2001 105.9 87.0001 99.9 87.0001C96.4 87.0001 95.7 86.1001 95.7 84.3001V43.1001ZM81 38.6001V40.9001C84.9 41.1001 85.5 41.5001 85.5 45.2001V83.1001C85.5 86.8001 85.1 87.2001 81 87.4001V89.7001H98.2C107 89.7001 122.4 88.6001 122.4 63.1001C122.4 54.7001 121 48.7001 117.5 44.5001C114 40.3001 109.1 38.6001 101.2 38.6001H81Z" fill="white"/>
<path d="M148.3 70.8999C150.5 70.8999 151.6 70.3999 151.6 67.9999C151.6 62.0999 150 52.8999 138.3 52.8999C126.6 52.8999 123.7 61.4999 123.7 71.6999C123.7 81.8999 126.9 90.6999 138.2 90.5999C145.3 90.5999 149.1 86.2999 151.2 79.4999L149.6 78.3999C147.6 83.4999 144.8 85.1999 141.3 85.1999C135.5 85.1999 133.5 79.1999 133.5 70.8999H148.3ZM133.5 68.0999C133.5 61.9999 134.5 55.5999 138.1 55.5999C141.7 55.5999 142.2 61.1999 142.2 65.7999C142.2 67.6999 141.6 68.0999 140.3 68.0999H133.5Z" fill="white"/>
<path d="M182.6 64.1999C182.6 57.3999 179.9 52.8999 173.7 52.8999C170.4 52.8999 167.6 54.9999 163.6 57.8999L162.8 52.8999L150.9 55.0999V57.2999L152.8 57.6999C153.7 57.7999 154.2 58.4999 154.2 61.3999V84.0999C154.2 86.9999 153.8 87.1999 150.5 87.4999V89.6999H166.5V87.4999C164.8 87.1999 163.6 87.3999 163.6 84.3999V65.6999C163.525 64.2487 163.694 62.7952 164.1 61.3999C164.397 60.4042 165.002 59.5285 165.829 58.8994C166.656 58.2703 167.661 57.9203 168.7 57.8999C171.7 57.8999 173.2 60.2999 173.2 64.4999V84.5999C173.2 87.4999 172 87.1999 170.2 87.4999V89.6999H186.3V87.4999C183 87.1999 182.6 87.0999 182.6 84.1999V64.1999Z" fill="white"/>
<path d="M201.7 57.0001V53.8001H195.8V44.6001H192.2L186.8 53.8001H183.1V57.0001H186.5V81.1001C186.5 87.8001 190.1 90.6001 193.5 90.6001C196.9 90.6001 199 89.6001 202.6 86.6001L202.1 84.8001C201.258 85.2175 200.338 85.4558 199.4 85.5001C197.2 85.5001 195.8 83.5001 195.8 78.9001V57.0001H201.7Z" fill="white"/>
<path d="M211.3 37.3999C208.1 37.3999 206.4 40.2999 206.4 43.3999C206.4 46.4999 208.1 49.5999 211.3 49.5999C214.5 49.5999 216.3 46.6999 216.3 43.3999C216.3 40.0999 214.5 37.3999 211.3 37.3999ZM206.8 83.9999C206.8 86.8999 206.4 87.2999 203.2 87.4999V89.6999H219.9V87.4999C216.6 87.1999 216.2 86.8999 216.2 83.9999V53.2999L215.8 52.9999L203.5 55.0999V57.2999L205.5 57.6999C206.4 57.8999 206.8 58.4999 206.8 61.3999V83.9999Z" fill="white"/>
<path d="M240.5 65.2998V55.3998C237.896 53.6766 234.821 52.8032 231.7 52.8998C224.6 52.8998 220.1 57.2998 220.1 64.6998C220.1 70.0998 222.6 73.4998 228.5 76.3998C232 78.1998 234.5 80.0998 234.5 83.3998C234.5 86.6998 232.9 87.9998 230.5 87.9998C228.1 87.9998 223.2 82.1998 221.7 76.1998H219.8L220.6 87.1998C222.6 89.6998 227.1 90.5998 230.3 90.5998C237.4 90.5998 242.5 86.5998 242.5 78.3998C242.5 72.2998 239.6 69.2998 234.1 66.6998C230.5 64.8998 227.9 63.1998 227.9 60.0998C227.9 56.9998 229.1 55.5998 231.7 55.5998C234.3 55.5998 237.6 59.6998 238.8 65.2998H240.5Z" fill="white"/>
<path d="M260.7 57.0001V53.8001H254.8V44.6001H251.3L245.8 53.8001H242.1V57.0001H245.5V81.1001C245.5 87.8001 249.1 90.6001 252.5 90.6001C255.9 90.6001 258.1 89.6001 261.6 86.6001L261.1 84.8001C260.258 85.2175 259.338 85.4558 258.4 85.5001C256.2 85.5001 254.8 83.5001 254.8 78.9001V57.0001H260.7Z" fill="white"/>
<path d="M274.9 66.6999C274.9 63.0999 275.3 61.3999 276.8 61.3999C278.3 61.3999 278.6 62.0999 279.8 63.2999C280.115 63.7297 280.52 64.0862 280.986 64.3451C281.452 64.604 281.968 64.7591 282.5 64.7999C285.4 64.7999 286.9 61.1999 286.9 58.1999C286.9 55.1999 285.2 52.8999 282.6 52.8999C280 52.8999 278.2 55.0999 274.6 59.8999L273.9 52.8999L262.2 55.0999V57.2999L264.2 57.6999C265 57.7999 265.5 58.4999 265.5 61.3999V83.8999C265.5 86.9999 265.1 87.1999 261.8 87.3999V89.6999H279.8V87.3999C275.3 87.0999 274.9 86.9999 274.9 83.8999V66.6999Z" fill="white"/>
<path d="M309.3 53.7998V56.0998L312.4 56.5998C313.3 56.6998 313.6 57.1998 313.3 58.7998C311.7 65.6998 309.8 73.6998 308 80.0998H307.9C306 74.1998 303.1 65.5998 301.3 58.9998C300.9 57.4998 301 56.7998 301.9 56.5998L304.2 56.0998V53.7998H287.1V56.0998C289.7 56.5998 290.2 56.4998 291.3 59.4998C294.4 68.0998 298.7 80.5998 302.2 91.1998C302.6 92.6998 303.4 95.5998 302.9 96.7998C302.4 97.9998 301.4 100.2 300.2 100.2C299.313 100.025 298.506 99.5693 297.9 98.8998C296.6 97.6998 296.3 97.3998 295.2 97.3998C294.1 97.3998 291.2 100.6 291.2 103.5C291.199 104.756 291.691 105.962 292.57 106.859C293.449 107.756 294.644 108.274 295.9 108.3C300.2 108.3 302.8 105.3 306 94.7998C309.2 84.2998 313.1 70.7998 316.2 61.1998C317.6 57.0998 317.7 56.4998 321.1 56.0998V53.7998H309.3Z" fill="white"/>
<path d="M102.6 115.9V115C101 115 100.6 114.7 100.1 113.6C98.6 109.6 95.3 99.5002 93.7 94.4002H89.7C87.8 100.2 84.2 110.8 83 113.5C82.4 114.6 82.2 114.9 80.5 115V116H87.4V115L85.5 114.8C84.8 114.8 84.8 114.4 84.9 113.8C85 113.2 85.9 110.3 86.5 108.2H92.8C93.3 109.6 94.1 112.1 94.6 113.7C95.1 115.3 94.7 114.7 94.1 114.8L92.2 115V116H102.6V115.9ZM92.3 106.9H87C87.6 104.9 89.1 100 89.6 98.5002H89.7C90.3 100.5 91.8 105.1 92.3 106.9ZM124.2 94.6002V95.5002L126.1 95.7002C126.7 95.8002 126.7 96.2002 126.6 96.9002C125.7 101.6 124.5 106.4 123.2 111.2H123.1C122 107.5 119.4 99.1002 118.4 95.0002H114.8C114.4 97.0002 112 108.9 111.5 111H111.4C110.5 107.7 108.3 99.1002 107.8 96.8002C107.7 96.2002 107.6 95.8002 108.3 95.7002L109.7 95.5002V94.6002H100.1V95.5002C101.6 95.6002 102 95.9002 102.3 96.9002C104.2 103.1 106 109.9 107.6 116H111.6C111.6 116.3 115 101 114.9 101.3H115C115.6 103.5 118.3 113 119.1 116H123.2C124.6 110.6 126.9 102.3 128.5 97.2002C128.9 95.8002 129.2 95.7002 130.9 95.5002V94.6002H124.2ZM149.8 116V115C148.2 115 147.8 114.7 147.4 113.6C145.9 109.6 142.6 99.5002 140.9 94.4002H137C135.1 100.2 131.4 110.8 130.2 113.5C129.7 114.6 129.4 114.9 127.8 115V116H134.6V115L132.7 114.8C132 114.8 132 114.4 132.2 113.8C132.613 111.901 133.148 110.031 133.8 108.2H140C140.5 109.6 141.3 112.1 141.8 113.7C142.3 115.3 141.9 114.7 141.3 114.8L139.4 115V116H149.8ZM139.6 107H134.2C134.8 104.9 136.4 100 136.8 98.5002H136.9C137.6 100.5 139 105.1 139.6 107ZM157.9 105.9H159C160.8 105.9 161.6 106.3 162.1 108.6C162.276 110.024 162.578 111.429 163 112.8C163.8 115.1 165.2 116 168.7 116H171.1V115C169.1 114.9 168.8 113.7 168.1 110.5C167.4 107.3 166.3 105.9 163 105.1V104.9C166.4 104.5 168.4 102.7 168.4 99.8002C168.4 95.1002 164.9 94.6002 161.3 94.6002H150.3V95.5002C152.4 95.6002 152.6 95.8002 152.6 97.3002V113.2C152.6 114.7 152.4 114.9 150.3 115V115.9H160.3V115C158.2 114.9 157.9 114.7 157.9 113.2V105.9ZM157.9 96.7002C157.9 95.9002 158 95.7002 159.6 95.7002C161.2 95.7002 162.9 97.2002 162.9 100.2C162.9 103.2 162.4 104.7 159 104.7H157.9V96.8002V96.7002ZM179 96.5002C179 95.8002 179.4 95.7002 181.2 95.7002C185.1 95.7002 187.2 99.0002 187.2 105.1C187.2 113.2 184.4 114.8 181.2 114.8C178 114.8 179 114.4 179 113.7V96.5002ZM171.4 94.6002V95.5002C173.4 95.6002 173.7 95.8002 173.7 97.3002V113.2C173.7 114.7 173.5 114.9 171.4 115V116H180.4C184.9 116 193 115.5 193 104.8C193 101.3 192.2 98.8002 190.4 97.0002C188.6 95.2002 186 94.6002 181.9 94.6002H171.4ZM209.3 100.6V95.4002C207.509 94.4685 205.518 93.9879 203.5 94.0002C198 94.0002 195.8 96.8002 195.8 100.5C195.8 104.2 198.6 106 201.8 107.5C205 109 205.8 110 205.8 112C205.8 114 204.8 115.3 202.4 115.3C200 115.3 197.7 112.9 196.4 109H195.5L196 114.7C197.7 116.2 200.5 116.5 202.4 116.5C208.7 116.5 210.5 113 210.5 109.7C210.5 106.4 207.6 104.3 204.9 103.1C202.2 101.9 200.2 100.9 200.2 98.4002C200.17 97.9724 200.233 97.5431 200.383 97.1415C200.534 96.7398 200.768 96.375 201.072 96.0718C201.375 95.7685 201.74 95.5338 202.141 95.3834C202.543 95.2331 202.972 95.1706 203.4 95.2002C205.5 95.2002 207.5 96.9002 208.4 100.6H209.3ZM234.4 109.9L233.5 109.7C232.3 111.9 231.8 112.1 230.9 112.1H221.4C222 111.1 224.2 109.6 227.8 107.9C231.4 106.2 233.3 104.4 233.3 101.2C233.3 98.0002 230.3 95.1002 226.1 95.1002C221.9 95.1002 218.7 97.6002 218.7 100.2C218.751 100.793 219.029 101.342 219.477 101.734C219.924 102.125 220.506 102.328 221.1 102.3C221.456 102.329 221.809 102.221 222.088 101.998C222.367 101.775 222.55 101.454 222.6 101.1C223.2 97.8002 223.9 96.3002 225.6 96.3002C227.3 96.3002 227.9 98.0002 227.9 100.1C227.9 102.2 227.8 104.5 224.3 107.5C220.8 110.5 218.5 113.6 218.5 115.7L218.7 116H233.1L234.4 109.9ZM243.3 96.3002C245.8 96.3002 245.8 102.1 245.8 105.7C245.8 109.3 245.7 115.2 243.4 115.2C241.1 115.2 240.8 109.5 240.8 105.7C240.8 101.9 240.8 96.3002 243.3 96.3002ZM243.3 95.1002C237.3 95.1002 235.5 100.1 235.5 105.7C235.5 111.3 237.3 116.3 243.3 116.3C249.3 116.3 251.1 111.3 251.1 105.7C251.1 100.1 249.2 95.1002 243.4 95.1002H243.3ZM268.4 109.9L267.5 109.7C266.3 111.9 265.8 112.1 264.9 112.1H255.4C256 111.1 258.2 109.6 261.8 107.9C265.4 106.2 267.3 104.4 267.3 101.2C267.3 98.0002 264.3 95.1002 260.1 95.1002C255.9 95.1002 252.7 97.6002 252.7 100.2C252.751 100.793 253.029 101.342 253.477 101.734C253.924 102.125 254.506 102.328 255.1 102.3C255.271 102.314 255.443 102.294 255.606 102.241C255.769 102.188 255.919 102.103 256.05 101.991C256.18 101.88 256.286 101.744 256.364 101.591C256.441 101.438 256.487 101.271 256.5 101.1C257.2 97.8002 257.9 96.3002 259.6 96.3002C261.3 96.3002 261.9 98.0002 261.9 100.1C261.9 102.2 261.7 104.5 258.3 107.5C254.9 110.5 252.5 113.6 252.5 115.7L252.7 116H267L268.4 109.9ZM272.8 105C272.784 105.149 272.802 105.299 272.852 105.439C272.901 105.58 272.982 105.707 273.087 105.813C273.193 105.918 273.32 105.999 273.461 106.049C273.602 106.098 273.752 106.116 273.9 106.1C274.6 106.1 275.3 105.7 276.5 105.7C277.7 105.7 279.3 106.2 279.3 110.2C279.3 114.2 278.7 115.2 276.8 115.2C274.9 115.2 274.4 114.4 273.4 111.5C273.2 110.8 272.8 110.3 272.1 110.3C271.463 110.3 270.853 110.553 270.403 111.003C269.953 111.453 269.7 112.064 269.7 112.7C269.7 113.8 271 116.3 276.8 116.3C282.6 116.3 284.8 114 284.8 110.1C284.8 106.2 280.5 105.2 278.8 104.9V104.6C280.9 104.1 283.9 103.4 283.9 100.2C283.9 97.0002 280 95.1002 276.8 95.1002C273.6 95.1002 270.1 97.0002 270.1 99.2002C270.151 99.7395 270.408 100.238 270.818 100.592C271.228 100.946 271.759 101.128 272.3 101.1C273 101.1 273.3 100.7 273.5 100C274.3 97.6002 274.9 96.3002 276.4 96.3002C277.9 96.3002 278.6 98.8002 278.6 100.1C278.6 101.4 278.4 104.3 276.5 104.3C274.6 104.3 274.6 103.9 273.8 103.9C273 103.9 272.8 104.2 272.8 105Z" fill="white"/>
<path d="M123.3 29.3999L122.4 31.9999C122.332 32.1222 122.298 32.2601 122.3 32.3999C122.3 32.506 122.342 32.6077 122.417 32.6827C122.492 32.7578 122.594 32.7999 122.7 32.7999C123.2 32.7999 123.4 31.9999 124.1 31.5999C124.8 31.1999 127.1 30.4999 129.8 30.4999V47.2999C129.8 48.1999 129.8 48.3999 129.1 48.3999H126.8V49.3999H136.6V48.3999H134.9C133.5 48.3999 133.4 47.5999 133.4 44.2999V30.4999C136 30.4999 137.8 30.7999 139 31.4999C140.2 32.1999 140 32.7999 140.5 32.7999C141 32.7999 140.8 32.6999 140.8 32.3999C140.802 32.2601 140.768 32.1222 140.7 31.9999L139.9 29.3999H123.3ZM141.4 29.3999V30.3999H142.4C143.8 30.3999 143.9 31.2999 143.9 34.4999V47.2999C143.9 48.1999 143.9 48.3999 143.2 48.3999H142V49.3999H150.2V48.3999H149C147.6 48.3999 147.5 47.5999 147.5 44.2999V39.0999H156.4V47.2999C156.4 48.1999 156.4 48.3999 155.7 48.3999H154.5V49.3999H162.6V48.3999H161.5C160.1 48.3999 160 47.5999 160 44.2999V31.2999C160 30.5999 160 30.3999 160.7 30.3999H161.9V29.3999H153.8V30.3999H154.9C156.4 30.3999 156.4 31.2999 156.4 34.4999V37.8999H147.5V31.1999C147.5 30.5999 147.6 30.3999 148.2 30.3999H149.4V29.3999H141.4ZM164.4 29.3999V30.3999H165.4C166.8 30.3999 166.9 31.1999 166.9 34.4999V47.5999C166.9 48.1999 166.9 48.3999 166.2 48.3999H165V49.3999H180L180.8 46.6999V46.2999C180.8 46.2203 180.768 46.144 180.712 46.0878C180.656 46.0315 180.579 45.9999 180.5 45.9999C179.9 45.9999 179.5 47.0999 178.4 47.4999C176.934 48.0677 175.371 48.3396 173.8 48.2999H172C170.6 48.2999 170.5 47.4999 170.5 44.1999V38.8999H174C176.3 38.8999 177 38.9999 177 39.8999V40.9999H178V35.4999H177V36.3999C177 37.5999 176.2 37.7999 173.2 37.7999H170.5V31.1999C170.5 30.6999 170.6 30.4999 171.3 30.4999H173.2C175.8 30.4999 177.5 30.8999 178.1 31.2999C178.7 31.6999 178.8 32.4999 179.2 32.4999C179.6 32.4999 179.5 32.3999 179.6 31.9999L180 29.3999H164.4Z" fill="white"/>
<path fill-rule="evenodd" clip-rule="evenodd" d="M0 0L11.6 7.2H376.8L388.8 0.3H5.5L0 0Z" fill="white"/>
<path fill-rule="evenodd" clip-rule="evenodd" d="M11.5 20.9L82.7 142L90.9 141.8L11.6 7.2L0 0L11.5 20.9Z" fill="white"/>
<path fill-rule="evenodd" clip-rule="evenodd" d="M307.8 141.8L388.8 0.299805L376.8 7.1998L298.7 141.9L307.8 141.8Z" fill="white"/>
<path d="M136.3 167.2V177.7C136.3 179.7 136.1 179.9 133.1 180V181.3H147.1V180C144.1 179.9 143.8 179.6 143.8 177.7V156.9C143.8 155 144.1 154.7 147.1 154.6V153.4H133.1V154.6C136 154.7 136.3 155 136.3 156.9V165.6H125.8V156.9C125.8 154.9 126.2 154.7 129.3 154.6V153.4H115.1V154.6C118.1 154.7 118.4 154.9 118.4 156.9V177.7C118.4 179.7 118.1 179.9 115.1 180V181.3H129.3V180C126.1 179.9 125.8 179.6 125.8 177.7V167.2H136.3ZM159.9 157C159.9 154.9 160.3 154.7 163.2 154.6V153.4H149.2V154.6C152.2 154.7 152.5 154.9 152.5 157V177.7C152.5 179.7 152.2 179.9 149.2 180V181.3H163.2V180C160.3 179.9 159.9 179.7 159.9 177.7V157ZM192.8 171.8C192.8 169.9 193.2 169.7 195.1 169.5V168.3H181.6V169.5C184.7 169.7 185.1 169.9 185.1 171.9V178.7C185.1 179.4 185.1 179.9 184.5 180.1C183.77 180.397 182.986 180.533 182.2 180.5C174.4 180.5 174 169.8 174 167.1C174 164.4 174.8 154.1 182.4 154.1C187.5 154.1 189.4 158.1 191 161.9H192.4V154.6C189.4 153.1 185.6 152.7 182.2 152.7C167.8 152.7 165.8 162.4 165.8 167.5C165.8 174.3 168.3 177.8 171.6 179.9C174.9 182 179.3 182 182 182C185.686 181.945 189.338 181.269 192.8 180V171.8ZM218.2 167.2V177.7C218.2 179.7 218 179.9 214.9 180V181.3H229V180C226 179.9 225.7 179.6 225.7 177.7V156.9C225.7 155 225.9 154.7 229 154.6V153.4H214.9V154.6C217.9 154.7 218.2 155 218.2 156.9V165.6H207.7V156.9C207.7 154.9 208.1 154.7 211.1 154.6V153.4H197V154.6C200 154.7 200.3 154.9 200.3 156.9V177.7C200.3 179.7 200 179.9 197 180V181.3H211.1V180C207.9 179.9 207.7 179.6 207.7 177.7V167.2H218.2ZM241.8 157C241.8 155 242.1 154.7 245.6 154.6V153.4H231V154.6C234.1 154.7 234.4 155 234.4 157V177.7C234.4 179.7 234.1 179.9 231 180V181.3H254.6L255.1 173.1H253.7C252.1 176.9 251.4 179.7 246.3 179.7C242.9 179.7 241.8 179.3 241.8 176.8V157ZM274.7 181.3V180C270.9 179.9 270.6 179.7 270.6 177.7V170.6C270.603 169.548 270.879 168.514 271.4 167.6C273.2 164.1 275.3 160.1 277.4 156.7C278.4 155.2 279.1 154.9 281.4 154.7V153.4H271.7V154.7L274 154.9C274.8 155 275.1 155.5 274.7 156.5C274.3 157.5 271.5 163.8 269.6 167.5H269.5C268 164.9 265 159.5 263.3 156.2C263 155.6 262.8 155 263.9 154.9L266.2 154.7V153.4H251.9V154.7C254.2 154.8 254.5 155.2 255.6 157C256.7 158.8 260.6 165.2 262.2 168.2C262.748 169.035 263.059 170.002 263.1 171V177.7C263.1 179.7 262.7 179.9 259 180V181.3H274.7Z" fill="white"/>
<path d="M74.3996 205.3C72.3996 210.3 70.4996 213.5 65.4996 213.5C57.6996 213.5 56.5996 205.4 56.5996 200C56.5996 197 56.8996 187.2 64.9996 187.2C70.8996 187.2 72.5996 191.9 73.7996 194.8H75.1996V187.6C72.3996 186 67.3996 185.7 65.3996 185.7C58.5996 185.7 54.5996 187.4 51.8996 190C49.1996 192.6 48.0996 196.5 48.0996 200.7C48.0996 209.4 52.4996 215 64.5996 215C67.6996 215 72.3996 214.6 75.2996 213.1L75.7996 205.3H74.3996ZM94.5996 187.2C101 187.2 101.5 195.3 101.5 200.4C101.5 205.5 101 213.6 94.5996 213.6C88.1996 213.6 87.5996 205.9 87.5996 200.4C87.5996 194.9 88.1996 187.2 94.4996 187.2H94.5996ZM94.5996 185.7C83.9996 185.7 79.0996 191.2 79.0996 200.4C79.0996 209.6 83.9996 215 94.5996 215C105.2 215 110 209.6 110 200.4C110 191.2 105.1 185.7 94.5996 185.7ZM123.1 214.4V213.1C120.3 212.8 119 213.3 118.6 210.2C118.406 208.206 118.339 206.202 118.4 204.2V190.6H118.5C121.4 197.2 125.7 207.8 128.3 214.4H130.9C132.6 209.6 137.4 197 139.9 190.5H140.1V210.7C140.1 212.8 139.6 212.9 136.7 213.1V214.4H150.9V213.1C147.8 213 147.5 212.8 147.5 210.7V190.1C147.5 188 147.8 187.8 150.9 187.7V186.5H139.7C137.6 191.7 134.9 198.8 132.6 204.3H132.4C131 201.2 126.2 191 124.3 186.5H112.7V187.7C115.8 187.8 116.3 188 116.3 190V204.2C116.335 206.205 116.235 208.209 116 210.2C115.8 213.1 115.1 212.7 112.2 213.1V214.4H123.1ZM163.4 214.4V213.1C160.6 212.8 159.3 213.3 158.9 210.2C158.8 208.8 158.7 207 158.7 204.2V190.6H158.8C161.7 197.2 166 207.8 168.7 214.4H171.2C172.9 209.6 177.7 197 180.2 190.5H180.4V210.7C180.4 212.8 180 212.9 177 213.1V214.4H191.3V213.1C188.1 213 187.8 212.8 187.8 210.7V190.1C187.8 188 188.1 187.8 191.3 187.7V186.5H180.1C177.9 191.7 175.2 198.8 172.9 204.3H172.7C171.3 201.2 166.5 191 164.6 186.5H153V187.7C156.1 187.8 156.6 188 156.6 190V204.2C156.6 206.9 156.5 208.8 156.4 210.2C156.1 213.1 155.4 212.7 152.6 213.1V214.4H163.4ZM196.9 210.7C196.9 212.8 196.5 213 193.4 213.1V214.4H218.8L219.6 205.9H218.2C216.5 210 215.3 212.7 209.9 212.7C204.5 212.7 204.5 212.4 204.5 209.9V200.8H208.4C211.5 200.8 212 201.6 212.9 204.8H214.3V195.2H212.9C212 198.5 211.4 199 208.4 199H204.5V189.5C204.5 188.4 204.9 188.1 206.1 188.1H209.2C213.8 188.1 215 190 216.5 194H217.9V186.5H193.3V187.7C196.4 187.9 196.9 188 196.9 190.1V210.7ZM249.1 214.4V196.7C249.1 193.9 249.2 192 249.3 190.5C249.4 189 250.1 188 252.8 187.7V186.5H242.1V187.7C245 187.9 246.4 187.4 246.7 190.5C246.934 192.558 247.034 194.629 247 196.7V205.5H246.8C242.2 199.3 237 192.8 232.4 186.5H221.9V187.7C225.1 188 225.4 188.2 225.4 189.9V204.1C225.4 207.1 225.3 208.8 225.2 210.2C225.1 211.6 224.3 212.8 221.5 213.1V214.4H232.3V213.1C229.5 212.8 228.1 213.3 227.8 210.2C227.604 208.207 227.537 206.202 227.6 204.2V192H227.7C233.2 199.4 238.9 207.2 244.1 214.4H249.1ZM265.4 188.9C265.4 188.1 266 187.9 268.6 187.9C274.2 187.9 277.2 192.2 277.2 200.2C277.2 210.8 273.2 212.9 268.6 212.9C265.9 212.9 265.4 212.4 265.4 211.4V188.9ZM254.3 186.5V187.7C257.2 187.8 257.7 188 257.7 190.1V210.7C257.7 212.7 257.4 213 254.3 213.1V214.4H267.3C274 214.4 285.7 213.8 285.7 199.9C285.7 195.3 284.6 192 282 189.7C279.4 187.4 275.6 186.5 269.6 186.5H254.3ZM291.9 210.7C291.9 212.8 291.6 213 288.5 213.1V214.4H313.9L314.7 205.9H313.3C311.6 210 310.4 212.7 305 212.7C299.6 212.7 299.6 212.4 299.6 209.9V200.8H303.5C306.6 200.8 307.1 201.6 307.9 204.8H309.4V195.2H307.9C307.1 198.5 306.5 199 303.5 199H299.6V189.5C299.6 188.4 300 188.1 301.2 188.1H304.3C308.9 188.1 310.1 190 311.5 194H313V186.5H288.4V187.7C291.5 187.9 291.9 188 291.9 190.1V210.7ZM328.2 188.9C328.2 188.1 328.8 188 331.4 188C336.9 187.9 340 192.2 340 200.2C340 210.8 336 212.9 331.4 212.9C328.7 212.9 328.2 212.4 328.2 211.4V188.9ZM317.1 186.5V187.7C320 187.8 320.5 188 320.5 190.1V210.8C320.5 212.8 320.2 213 317.1 213.1V214.4H330.1C336.8 214.4 348.5 213.8 348.5 199.9C348.5 195.3 347.4 192 344.7 189.7C342 187.4 338.3 186.5 332.4 186.5H317.1Z" fill="white"/>
<path fill-rule="evenodd" clip-rule="evenodd" d="M357.2 53.6001H387.5L336.5 141.5H333.4L382.8 56.4001H355.6L357.2 53.6001Z" fill="white"/>
<path fill-rule="evenodd" clip-rule="evenodd" d="M67.2002 236.2H323.9V297.2H67.2002V236.2Z" fill="white"/>
<path fill-rule="evenodd" clip-rule="evenodd" d="M323.3 262.3C323.3 262.3 338.9 267.3 347.1 272.4L334.3 294.2L350.1 336.2C350.1 336.2 322.2 310.7 268.2 313.6L323.3 297.2V262.3Z" fill="white"/>
<path fill-rule="evenodd" clip-rule="evenodd" d="M323.3 297.2L268.2 313.6V297.2H323.3Z" fill="white"/>
<path d="M141.3 259.2H138.5L135.2 264.9L131.8 259.2H128.8L133.6 267.5V272.1H136.5V267.5L141.3 259.2ZM145.8 272.2C146.804 272.18 147.78 271.865 148.605 271.292C149.431 270.72 150.069 269.917 150.44 268.983C150.81 268.05 150.897 267.028 150.689 266.045C150.481 265.063 149.988 264.163 149.271 263.46C148.554 262.757 147.645 262.281 146.659 262.092C145.672 261.903 144.652 262.01 143.726 262.399C142.8 262.787 142.009 263.441 141.453 264.277C140.897 265.114 140.6 266.096 140.6 267.1C140.586 267.782 140.711 268.46 140.969 269.092C141.226 269.724 141.611 270.296 142.098 270.774C142.585 271.252 143.165 271.625 143.801 271.87C144.438 272.115 145.118 272.228 145.8 272.2ZM145.8 269.9C145.453 269.889 145.113 269.805 144.8 269.655C144.487 269.505 144.209 269.292 143.983 269.028C143.758 268.765 143.589 268.458 143.489 268.126C143.388 267.794 143.358 267.444 143.4 267.1C143.326 266.737 143.334 266.362 143.423 266.002C143.512 265.643 143.68 265.307 143.914 265.02C144.149 264.734 144.444 264.502 144.779 264.344C145.113 264.185 145.479 264.103 145.85 264.103C146.22 264.103 146.586 264.185 146.921 264.344C147.256 264.502 147.551 264.734 147.785 265.02C148.02 265.307 148.188 265.643 148.277 266.002C148.366 266.362 148.374 266.737 148.3 267.1C148.327 267.45 148.283 267.801 148.171 268.133C148.059 268.466 147.881 268.772 147.647 269.033C147.414 269.295 147.129 269.507 146.812 269.656C146.495 269.804 146.15 269.888 145.8 269.9ZM159.9 262.2V267.1C159.9 268.9 158.9 269.7 157.6 269.7C156.3 269.7 155.7 269 155.7 267.4V262.2H152.9V267.8C152.9 270.8 154.6 272.2 157 272.2C157.566 272.228 158.131 272.125 158.651 271.899C159.171 271.674 159.633 271.332 160 270.9V272.1H162.6V262.2H159.9ZM171.1 262.1C170.502 262.056 169.903 262.151 169.348 262.377C168.793 262.602 168.298 262.952 167.9 263.4V262.2H165.2V272.1H168V267.2C168 265.4 169 264.5 170.3 264.5C171.6 264.5 172.3 265.3 172.3 266.9V272.1H175V266.4C175 263.4 173.3 262.1 171.1 262.1ZM184.9 262.2V263.5C184.529 263.014 184.041 262.631 183.481 262.386C182.921 262.141 182.308 262.043 181.7 262.1C181.071 262.073 180.442 262.174 179.854 262.4C179.266 262.625 178.73 262.968 178.28 263.409C177.83 263.85 177.476 264.378 177.238 264.961C177.001 265.545 176.886 266.17 176.9 266.8C176.886 267.434 177.001 268.064 177.237 268.653C177.474 269.242 177.827 269.776 178.275 270.225C178.724 270.673 179.258 271.026 179.847 271.263C180.435 271.499 181.066 271.614 181.7 271.6C182.272 271.628 182.843 271.535 183.377 271.328C183.911 271.122 184.396 270.805 184.8 270.4V270.8C184.8 272.6 183.9 273.5 182 273.5C180.781 273.487 179.595 273.104 178.6 272.4L177.5 274.4C178.872 275.367 180.522 275.858 182.2 275.8C185.6 275.8 187.6 274.1 187.6 270.4V262.2H184.9ZM182.3 269.3C181.968 269.314 181.636 269.259 181.327 269.139C181.017 269.018 180.736 268.834 180.501 268.599C180.266 268.364 180.082 268.083 179.961 267.773C179.841 267.464 179.786 267.132 179.8 266.8C179.8 266.137 180.063 265.501 180.532 265.032C181.001 264.563 181.637 264.3 182.3 264.3C182.963 264.3 183.599 264.563 184.068 265.032C184.536 265.501 184.8 266.137 184.8 266.8C184.814 267.132 184.759 267.464 184.638 267.773C184.518 268.083 184.334 268.364 184.099 268.599C183.864 268.834 183.583 269.018 183.273 269.139C182.963 269.259 182.632 269.314 182.3 269.3ZM195.4 272.1H201.1C205.1 272.1 207.9 269.5 207.9 265.7C207.9 261.9 205.1 259.2 201.1 259.2H195.4V272.1ZM198.3 269.6V261.7H200.9C201.441 261.656 201.985 261.729 202.495 261.913C203.006 262.097 203.471 262.389 203.859 262.768C204.248 263.147 204.551 263.605 204.747 264.11C204.944 264.616 205.03 265.158 205 265.7C205 268.1 203.4 269.6 200.9 269.6H198.3ZM219.3 267.2C219.357 266.52 219.269 265.835 219.041 265.191C218.813 264.548 218.45 263.96 217.977 263.468C217.504 262.976 216.931 262.591 216.297 262.337C215.663 262.084 214.982 261.969 214.3 262C213.626 261.986 212.957 262.109 212.332 262.361C211.707 262.612 211.14 262.987 210.663 263.464C210.187 263.94 209.812 264.508 209.56 265.132C209.309 265.757 209.186 266.427 209.2 267.1C209.2 270.1 211.4 272.2 214.7 272.2C215.444 272.256 216.192 272.141 216.885 271.863C217.578 271.586 218.199 271.154 218.7 270.6L217.2 269C216.548 269.602 215.687 269.925 214.8 269.9C214.17 269.965 213.537 269.798 213.022 269.43C212.506 269.061 212.143 268.517 212 267.9H219.3V267.2ZM214.4 264.2C214.977 264.198 215.533 264.413 215.959 264.802C216.385 265.191 216.65 265.725 216.7 266.3H212C212.051 265.708 212.329 265.158 212.777 264.767C213.224 264.375 213.806 264.172 214.4 264.2ZM227 262.1C226.404 262.071 225.809 262.172 225.256 262.397C224.704 262.621 224.206 262.964 223.8 263.4V262.2H221.2V272.1H224V267.2C224 265.4 224.9 264.5 226.3 264.5C227.7 264.5 228.2 265.3 228.2 266.9V272.1H231V266.4C231 263.4 229.3 262.1 227 262.1ZM239 269.6C238.633 269.803 238.219 269.907 237.8 269.9C237.629 269.919 237.456 269.897 237.295 269.837C237.133 269.776 236.989 269.679 236.872 269.553C236.755 269.426 236.67 269.274 236.623 269.109C236.575 268.943 236.568 268.769 236.6 268.6V264.6H239V262.4H236.6V260H233.9V262.4H232.4V264.6H233.9V268.7C233.853 269.171 233.912 269.647 234.071 270.093C234.23 270.539 234.487 270.944 234.821 271.278C235.156 271.613 235.561 271.87 236.007 272.029C236.453 272.188 236.929 272.247 237.4 272.2C238.209 272.232 239.009 272.023 239.7 271.6L239 269.6ZM242.7 260.8C243.124 260.8 243.531 260.632 243.831 260.331C244.131 260.031 244.3 259.624 244.3 259.2C244.3 258.776 244.131 258.369 243.831 258.069C243.531 257.769 243.124 257.6 242.7 257.6C242.275 257.6 241.868 257.769 241.568 258.069C241.268 258.369 241.1 258.776 241.1 259.2C241.1 259.624 241.268 260.031 241.568 260.331C241.868 260.632 242.275 260.8 242.7 260.8ZM241.3 272.1H244.1V262.2H241.3V272.1ZM249.9 272.2C252.7 272.2 254.4 270.9 254.4 269.1C254.4 265.2 248.6 266.8 248.6 265.1C248.6 263.4 249.1 264.2 250.4 264.2C251.39 264.195 252.362 264.472 253.2 265L254.1 262.9C252.943 262.355 251.678 262.082 250.4 262.1C247.6 262.1 245.9 263.4 245.9 265.2C245.9 269.2 251.7 267.5 251.7 269.2C251.7 270.9 251.3 270.1 250 270.1C248.796 270.088 247.619 269.742 246.6 269.1L245.7 271.2C246.984 271.907 248.435 272.253 249.9 272.2ZM261.6 269.6C261.233 269.803 260.819 269.907 260.4 269.9C260.229 269.919 260.056 269.897 259.895 269.837C259.733 269.776 259.589 269.679 259.472 269.553C259.355 269.426 259.27 269.274 259.223 269.109C259.175 268.943 259.168 268.769 259.2 268.6V264.6H261.6V262.4H259.2V260H256.5V262.4H255V264.6H256.5V268.7C256.453 269.171 256.512 269.647 256.671 270.093C256.83 270.539 257.087 270.944 257.421 271.278C257.756 271.613 258.161 271.87 258.607 272.029C259.053 272.188 259.529 272.247 260 272.2C260.809 272.232 261.609 272.023 262.3 271.6L261.6 269.6Z" fill="white"/>
</g>
<defs>
<clipPath id="clip0_1172_56459">
<rect width="388.8" height="388.8" fill="white"/>
</clipPath>
</defs>
</svg>
