<svg width="92" height="89" viewBox="0 0 92 89" fill="none" xmlns="http://www.w3.org/2000/svg">
<path fill-rule="evenodd" clip-rule="evenodd" d="M60.1892 77.3275C60.1697 77.3966 60.1496 77.3832 59.9912 77.5372L58.8031 78.6597C58.2664 79.1501 57.8071 79.5022 57.274 79.989L54.0502 82.446C52.2699 83.6839 48.9314 85.7549 46.002 85.769C42.1292 85.7877 37.4484 82.2357 34.7176 80.0019C33.8091 79.2585 32.754 78.3129 31.9513 77.4886C31.8479 77.3826 31.8372 77.3949 31.8083 77.2965L28.3859 77.2929C28.5402 77.3896 28.6684 77.587 29.0089 77.9878C29.1537 78.1582 29.3033 78.3076 29.4475 78.4722C30.1775 79.3041 30.9666 80.0909 31.732 80.8484C32.3467 81.4571 33.0147 82.0043 33.7057 82.6148L34.454 83.2498C35.2312 83.8696 36.0209 84.5018 36.8419 85.0659C39.3901 86.8159 42.605 88.963 45.9092 88.9999C48.8404 89.0327 51.7178 87.3384 53.9734 85.8633C54.7347 85.3653 55.4156 84.8539 56.1296 84.3243L57.1906 83.4935C58.1281 82.777 59.3883 81.7102 60.1667 80.9275C60.9245 80.1659 62.2261 78.9028 62.8993 78.078C63.03 77.918 63.3119 77.5349 63.5684 77.331H63.5678L60.1886 77.3275H60.1892ZM20.2632 63.0727C19.908 62.4892 19.1407 61.4558 18.7128 60.8078C17.254 58.5957 15.5919 56.0309 14.3263 53.7572L12.9609 51.2978C11.2763 48.2186 9.47353 44.2876 8.02301 40.9781C6.13036 36.6605 4.21229 31.2889 3.35581 26.6314C2.63527 22.7144 2.01286 16.9239 3.96108 13.4112C5.59661 10.4632 10.1261 8.585 13.1418 7.34828C14.9003 6.62711 16.9088 5.93288 18.7813 5.35758C27.1245 2.79334 36.5488 1.95499 46.002 1.95441C55.3725 1.95441 65.029 2.79802 73.2138 5.36461C76.59 6.42323 78.4768 7.19714 81.5741 8.51939C83.3071 9.25931 86.0941 10.9032 87.2698 12.3379C87.5659 12.6988 87.7692 13.0193 88.0352 13.4651C89.0046 15.0914 89.3492 17.5391 89.3084 19.7922C89.1737 27.325 86.8188 34.4319 83.9189 41.0561C82.125 45.154 79.88 49.9439 77.6238 53.8023C75.6207 57.2283 74.0561 59.6403 71.8885 62.8126L71.7047 63.0809L74.5679 63.0282C76.0066 61.0703 79.374 55.5276 80.4439 53.4731C80.8979 52.6019 81.3471 51.811 81.7821 50.9428C83.0695 48.375 84.3664 45.7774 85.5001 43.1423C87.9129 37.5351 90.2861 31.9298 91.3063 25.8276C91.9754 21.8263 92.7018 15.9286 90.6466 12.253C89.6944 10.5505 88.2983 9.479 86.5942 8.45905C84.1465 6.99443 81.2318 5.80985 78.4461 4.81919C73.1493 2.9357 68.4047 1.83079 62.5908 1.01002C56.8596 0.200385 51.57 0.00295501 45.7709 2.57807e-05C39.7974 -0.00290345 35.1792 0.243152 28.9947 1.06158C24.668 1.63395 20.2514 2.5713 16.3756 3.84903C12.822 5.02013 8.64779 6.4783 5.51327 8.38113C4.29386 9.12164 3.23582 9.87738 2.24989 10.9342C0.603714 12.6988 -0.00392126 15.5642 -0.00096584 18.2309C0.0108559 28.2823 3.61706 36.9856 7.61812 45.6673C9.70051 50.1859 11.7853 54.0806 14.3784 58.3496C14.8719 59.1616 15.3684 59.9443 15.8791 60.7229C16.1108 61.0762 17.3314 62.8325 17.3982 63.0768L20.2626 63.0721L20.2632 63.0727Z" fill="url(#paint0_linear_1145_56012)"/>
<path d="M15.8307 16.3172C15.8307 15.8913 16.0506 15.801 17.0418 15.801C19.1703 15.7788 20.3448 18.0659 20.3448 22.2366C20.3448 27.8642 18.8032 28.941 17.0601 28.941C16.0328 28.941 15.8307 28.6721 15.8307 28.1559V16.3172ZM11.5914 15.0166V15.6669C12.7103 15.7343 12.8942 15.8462 12.8942 16.9224V27.8197C12.8942 28.8736 12.7842 29.0078 11.5914 29.0529V29.7254H16.5642C19.0964 29.7254 23.5745 29.4114 23.5745 22.0796C23.5745 19.6577 23.1524 17.9312 22.1429 16.7208C21.1522 15.5327 19.7023 15.0166 17.4266 15.0166H11.5908H11.5914Z" fill="black"/>
<path d="M31.0524 24.3218C31.6944 24.3218 32.0065 24.1648 32.0065 23.47C32.0065 21.7886 31.5478 19.1201 28.1709 19.1201C25.0145 19.1201 23.9316 21.6088 23.9316 24.5462C23.9316 27.4163 24.849 30.0174 28.1159 29.9952C30.1895 29.9952 31.2906 28.7397 31.8965 26.7888L31.4195 26.4748C30.832 27.9324 30.0435 28.4257 29.0156 28.4257C27.3452 28.4257 26.7582 26.6992 26.7582 24.3224H31.0524V24.3218ZM26.7582 23.4923C26.7582 21.7435 27.0703 19.9051 28.0982 19.9051C29.0705 19.9051 29.2727 21.5197 29.2727 22.8426C29.2727 23.4032 29.1255 23.4929 28.7407 23.4929H26.7588L26.7582 23.4923Z" fill="black"/>
<path d="M40.9686 22.3938C40.9686 20.4207 40.1795 19.1201 38.3808 19.1201C37.4268 19.1201 36.6188 19.7481 35.4632 20.5554L35.2433 19.143L31.7931 19.771V20.399L32.3618 20.5109C32.6006 20.5554 32.7472 20.7353 32.7472 21.5871V28.1123C32.7472 28.9418 32.6372 29.0092 31.6826 29.0766V29.7268H36.3256V29.0766C35.8113 29.0092 35.4632 29.0543 35.4632 28.2019V22.8203C35.4632 22.3493 35.5182 21.8338 35.6281 21.5649C35.8303 21.0265 36.2523 20.5783 36.9492 20.5783C37.8116 20.5783 38.2519 21.2508 38.2519 22.4618V28.2464C38.2519 29.0988 37.9032 29.0086 37.3895 29.076V29.7263H42.0325V29.076C41.0779 29.0086 40.968 28.9863 40.968 28.1345V22.3944L40.9686 22.3938Z" fill="black"/>
<path d="M46.4923 20.3085V19.3893H44.7853V16.7437H43.758L42.1798 19.3893H41.1152V20.3085H42.0882V27.2367C42.0882 29.1876 43.1344 29.9949 44.125 29.9949C44.8042 29.9949 45.7216 29.7037 46.7495 28.8291L46.6023 28.3129C46.3824 28.4254 46.052 28.515 45.8132 28.515C45.189 28.515 44.7853 27.9321 44.7853 26.6093V20.3085H46.4923Z" fill="black"/>
<path d="M49.2574 14.6802C48.34 14.6802 47.8441 15.4875 47.8441 16.4067C47.8441 17.3481 48.34 18.1783 49.2574 18.1783C50.1564 18.1783 50.7073 17.3487 50.7073 16.4067C50.7073 15.4875 50.1937 14.6802 49.2757 14.6802H49.2574ZM47.973 28.0662C47.973 28.918 47.8447 29.0305 46.9268 29.075V29.7253H51.753V29.075C50.799 29.0076 50.689 28.918 50.689 28.0662V19.2316L50.5791 19.142L47.019 19.7472V20.3974L47.5876 20.5093C47.8447 20.5539 47.973 20.7337 47.973 21.5855V28.0656V28.0662Z" fill="black"/>
<path d="M57.7222 22.685V19.86C57.0064 19.3216 56.034 19.1201 55.1533 19.1201C53.0981 19.1201 51.8137 20.3984 51.8137 22.5286C51.8137 24.0758 52.5478 25.0623 54.236 25.8919C55.2455 26.4074 55.9797 26.9681 55.9797 27.9096C55.9797 28.7842 55.521 29.2324 54.8235 29.2324C53.7406 29.2324 52.7133 27.551 52.273 25.8245H51.7227L51.9425 29.0086C52.5301 29.7263 53.8328 29.9952 54.7685 29.9952C56.8054 29.9952 58.292 28.8293 58.292 26.4748C58.292 24.7032 57.4479 23.8514 55.8697 23.0892C54.8052 22.5737 54.071 22.1027 54.071 21.2057C54.071 20.4658 54.4198 19.9051 55.1539 19.9051C55.9796 19.9051 56.8787 21.0932 57.2091 22.6856H57.7228L57.7222 22.685Z" fill="black"/>
<path d="M63.5578 20.3085V19.3893H61.8507V16.7437H60.8234L59.2452 19.3893H58.1807V20.3085H59.1536V27.2367C59.1536 29.1876 60.1998 29.9949 61.1905 29.9949C61.8696 29.9949 62.787 29.7037 63.8149 28.8291L63.6677 28.3129C63.4478 28.4254 63.1174 28.515 62.8786 28.515C62.2544 28.515 61.8507 27.9321 61.8507 26.6093V20.3085H63.5578Z" fill="black"/>
<path d="M67.6542 23.111C67.6542 22.0793 67.7825 21.5638 68.2045 21.5638C68.4616 21.5638 68.7182 21.7882 69.0852 22.1244C69.3051 22.3488 69.5073 22.5503 69.856 22.5503C70.6818 22.5503 71.1404 21.5193 71.1404 20.6668C71.1404 19.6803 70.6451 19.1196 69.8927 19.1196C69.1402 19.1196 68.6082 19.7699 67.5803 21.1601L67.3788 19.1425L63.9836 19.7705V20.3985L64.5522 20.5104C64.8093 20.555 64.9376 20.7571 64.9376 21.5866V28.0667C64.9376 28.9413 64.8276 29.0081 63.873 29.0755V29.7258H69.0846V29.0755C67.7819 28.9859 67.6536 28.9413 67.6536 28.0667V23.1116L67.6542 23.111Z" fill="black"/>
<path d="M77.6128 19.3892V20.0617L78.4935 20.1965C78.7506 20.2187 78.8422 20.3757 78.7506 20.8245C78.3103 22.8199 77.741 25.107 77.2274 26.9682H77.1907C76.6582 25.264 75.8141 22.7976 75.2821 20.8919C75.1722 20.4659 75.2088 20.2416 75.466 20.197L76.1262 20.0623V19.3897H71.1895V20.0623C71.9236 20.197 72.0885 20.1519 72.4006 21.0266C73.2813 23.493 74.5474 27.103 75.5387 30.1523C75.6669 30.5782 75.8874 31.4306 75.7585 31.7669C75.5387 32.5068 75.3182 32.7312 74.9694 32.7312C74.7673 32.7312 74.4924 32.5519 74.3086 32.3727C73.9415 32.0364 73.8316 31.9245 73.5195 31.9245C72.9692 31.9245 72.3633 32.8659 72.3633 33.6961C72.3633 34.5479 73.0791 35.0635 73.7211 35.0635C74.9872 35.0635 75.7213 34.2116 76.6576 31.1846C77.6666 27.9782 78.7128 24.2786 79.6124 21.5205C79.9978 20.3318 80.0344 20.1525 81.0257 20.0629V19.3903H77.6122L77.6128 19.3892Z" fill="black"/>
<path d="M14.1845 32.8061L14.9027 34.7927H13.347L14.1845 32.8061ZM17.176 36.7793H16.9195C16.7398 36.7793 16.6458 36.7207 16.5518 36.4524L14.9707 32.1107C14.9535 32.0521 14.9364 32.0017 14.9364 31.9513C14.9364 31.7756 15.1161 31.7504 15.1161 31.6496C15.1161 31.591 15.0735 31.5576 15.005 31.5576C14.9624 31.5576 14.9281 31.5576 14.8938 31.5658L14.3471 31.6836L12.2446 36.5783C12.1849 36.7207 12.1335 36.7798 11.9881 36.7798H11.7227V37.0564H13.4321V36.7798H13.013C12.7736 36.7798 12.6796 36.7547 12.6796 36.5871C12.6796 36.5033 12.7393 36.3522 12.825 36.126L13.2181 35.1119H15.0386L15.5428 36.5953C15.56 36.6375 15.5683 36.6709 15.5683 36.7043C15.5683 36.7629 15.5257 36.7798 15.4057 36.7798H15.0381V37.0564H17.1748V36.7798L17.176 36.7793ZM17.0353 31.7416V32.0181H17.2493C17.5312 32.0181 17.5998 32.1687 17.7281 32.4792L19.5912 36.9468C19.6337 37.0558 19.668 37.1144 19.7023 37.1144C19.7703 37.1144 19.7963 37.0558 19.8477 36.9386L21.2409 33.485L22.6766 36.972C22.7192 37.0728 22.7535 37.1226 22.7795 37.1226C22.8303 37.1226 22.8818 37.081 22.916 36.9884L24.8648 32.2864C24.9328 32.1189 24.9417 32.0181 25.1551 32.0181H25.3945V31.7416H23.7962V32.0181H24.1295C24.3518 32.0181 24.4458 32.0685 24.4458 32.2278C24.4458 32.3286 24.4026 32.4792 24.3264 32.6801L23.1808 35.5548C23.1637 35.597 23.1466 35.6134 23.1466 35.6134C23.1294 35.6134 23.1294 35.5882 23.1123 35.5466L21.7362 32.236C21.7019 32.1523 21.6937 32.0937 21.6937 32.0767C21.6937 32.0515 21.7362 32.0181 21.8219 32.0181H22.2918V31.7416H20.1036V32.0181H20.3342C20.531 32.0181 20.6161 32.0767 20.7018 32.2694L21.0523 33.0492L20.0954 35.4716C20.0782 35.5138 20.07 35.5384 20.0611 35.5384C20.0528 35.5384 20.044 35.5132 20.0268 35.4716L18.6336 32.2114C18.6082 32.1528 18.5993 32.1107 18.5993 32.0937C18.5993 32.0603 18.6502 32.0181 18.7365 32.0181H19.1467V31.7416H17.0353ZM27.4171 32.8061L28.1353 34.7927H26.5796L27.4171 32.8061ZM30.4086 36.7793H30.1521C29.9724 36.7793 29.879 36.7207 29.785 36.4524L28.2039 32.1107C28.1867 32.0521 28.1696 32.0017 28.1696 31.9513C28.1696 31.7756 28.3493 31.7504 28.3493 31.6496C28.3493 31.591 28.3061 31.5576 28.2382 31.5576C28.1956 31.5576 28.1613 31.5576 28.127 31.5658L27.5803 31.6836L25.4778 36.5783C25.4181 36.7207 25.3667 36.7798 25.2213 36.7798H24.9565V37.0564H26.6659V36.7798H26.2468C26.0074 36.7798 25.9134 36.7547 25.9134 36.5871C25.9134 36.5033 25.9731 36.3522 26.0588 36.126L26.4519 35.1119H28.2724L28.7766 36.5953C28.7938 36.6375 28.8026 36.6709 28.8026 36.7043C28.8026 36.7629 28.7595 36.7798 28.6401 36.7798H28.2724V37.0564H30.4092V36.7798L30.4086 36.7793ZM31.1995 31.7416V32.0099H31.456C31.8408 32.0099 31.8662 32.2448 31.8662 33.1078V36.4354C31.8662 36.4606 31.8662 36.4775 31.8662 36.494C31.8662 36.7201 31.8574 36.7793 31.6783 36.7793H31.362V37.0558H33.5242V36.7793H33.1909C32.8067 36.7793 32.7889 36.5531 32.7889 35.6896V34.6503C32.9432 34.6585 33.0797 34.6673 33.1826 34.6673C33.2677 34.6673 33.3274 34.6591 33.3877 34.6591C34.0887 35.8747 34.5669 36.5783 34.73 36.7968C34.918 37.04 35.0209 37.0564 35.2171 37.0564C35.2425 37.0564 35.2679 37.0564 35.2939 37.0564H36.2681V36.7798H36.0972C35.7727 36.7798 35.6699 36.5537 35.3022 36.0593C34.8577 35.464 34.4989 34.9362 34.217 34.4921C34.986 34.3416 35.4222 33.8553 35.4222 33.2431C35.4222 32.304 34.7383 31.7427 33.4137 31.7427H31.1995V31.7416ZM32.7895 34.3486V32.178C32.7895 32.0691 32.8581 32.0357 33.0118 32.0357C33.9008 32.0357 34.4646 32.5635 34.4646 33.3181C34.4646 33.9215 33.9859 34.3744 33.1737 34.3744C33.0715 34.3744 32.9432 34.3662 32.7889 34.3492L32.7895 34.3486ZM38.6749 32.0521H38.9398C40.2904 32.0521 41.2479 33.0562 41.2479 34.5624C41.2479 35.9761 40.4872 36.7541 39.1023 36.7541H38.8972C38.4953 36.7541 38.487 36.5877 38.487 35.7751C38.487 35.7429 38.487 35.7095 38.487 35.6761V32.3614C38.487 32.1112 38.4953 32.0527 38.6749 32.0527V32.0521ZM37.0252 37.0558C37.4012 37.0388 37.7345 37.0388 38.0253 37.0388C38.4781 37.0388 38.8375 37.047 39.1194 37.047C40.0853 37.047 40.7692 36.9128 41.3928 36.3276C41.9401 35.8161 42.2475 35.0885 42.2475 34.2771C42.2475 32.6871 41.1616 31.7246 39.1531 31.7246C38.6489 31.7246 38.2299 31.7498 37.9142 31.7498C37.2818 31.7498 36.923 31.7416 36.8627 31.7328V32.0093H37.1192C37.5034 32.0093 37.5294 32.2343 37.5294 33.1043V36.4277C37.5294 36.4529 37.5294 36.4693 37.5294 36.4863C37.5294 36.7113 37.5211 36.7699 37.3415 36.7699H37.0252V37.0552V37.0558ZM46.6292 31.7416C46.2875 31.6326 45.9542 31.5822 45.6291 31.5822C44.3813 31.5822 43.5691 32.2864 43.5691 33.2501C43.5691 33.6356 43.7317 33.9455 44.0479 34.222C44.3127 34.4482 44.7572 34.6163 45.3471 34.8589C45.9287 35.102 46.2107 35.4459 46.2107 35.9233C46.2107 36.4852 45.7236 36.8876 44.9883 36.8876C44.373 36.8876 43.9711 36.6949 43.7145 36.2842C43.6117 36.1249 43.5691 36.0247 43.484 36.0247C43.4243 36.0247 43.3818 36.0751 43.3818 36.167C43.3818 36.184 43.39 36.2004 43.39 36.2256L43.5012 36.9462C43.9882 37.1308 44.467 37.2145 44.8772 37.2145C46.1935 37.2145 47.0571 36.4102 47.0571 35.4881C47.0571 34.6667 46.5098 34.2724 45.4671 33.8284C44.7235 33.5097 44.3304 33.2413 44.3304 32.7891C44.3304 32.311 44.7921 31.9003 45.4157 31.9003C45.8685 31.9003 46.1764 32.0427 46.3644 32.3362C46.4412 32.4616 46.4755 32.5372 46.5783 32.5372C46.6469 32.5372 46.6641 32.495 46.6641 32.4112C46.6641 32.3942 46.6641 32.3778 46.6641 32.3608L46.6298 31.7404L46.6292 31.7416ZM51.4294 36.3182C52.8651 35.1114 53.7033 34.3064 53.7033 33.2167C53.7033 32.2278 53.0708 31.591 52.0707 31.591C51.4808 31.591 50.9595 31.8007 50.4807 32.2278L50.6178 32.4206C50.9595 32.2026 51.2928 32.0855 51.6345 32.0855C52.3438 32.0855 52.8054 32.5635 52.8054 33.3679C52.8054 34.2982 52.2327 35.0528 51.3271 36.0247C50.8146 36.5777 50.4553 36.8126 50.4553 36.9802C50.4553 37.0388 50.5238 37.0558 50.6521 37.0558H53.9344L54.276 36.1922C54.3015 36.1337 54.3103 36.1003 54.3103 36.0751C54.3103 36.0165 54.276 35.9743 54.2163 35.9743C54.1224 35.9743 54.0367 36.184 53.6436 36.2426C53.4213 36.276 52.686 36.3012 51.4294 36.3182ZM55.6905 34.6503C55.6905 36.2848 56.3915 37.2151 57.4342 37.2151C58.6051 37.2151 59.4941 36.0499 59.4941 34.1307C59.4941 32.5547 58.7334 31.5746 57.7333 31.5746C57.212 31.5746 56.6995 31.8511 56.3318 32.3626C55.9128 32.9496 55.6905 33.7206 55.6905 34.6509V34.6503ZM57.4602 31.9343C58.1098 31.9343 58.6654 32.9988 58.6654 34.8676C58.6654 36.1501 58.2381 36.8542 57.7085 36.8542C57.0589 36.8542 56.5121 35.7986 56.5121 33.9291C56.5121 32.6297 56.9306 31.9343 57.4608 31.9343H57.4602ZM61.6788 36.3182C63.1145 35.1114 63.9527 34.3064 63.9527 33.2167C63.9527 32.2278 63.3202 31.591 62.3201 31.591C61.7302 31.591 61.2089 31.8007 60.7301 32.2278L60.8672 32.4206C61.2089 32.2026 61.5422 32.0855 61.8845 32.0855C62.5938 32.0855 63.0554 32.5635 63.0554 33.3679C63.0554 34.2982 62.4827 35.0528 61.5771 36.0247C61.0647 36.5777 60.7053 36.8126 60.7053 36.9802C60.7053 37.0388 60.7732 37.0558 60.9021 37.0558H64.1844L64.5261 36.1922C64.5521 36.1337 64.5603 36.1003 64.5603 36.0751C64.5603 36.0165 64.5261 35.9743 64.4664 35.9743C64.3724 35.9743 64.2867 36.184 63.8936 36.2426C63.6713 36.276 62.936 36.3012 61.6794 36.3182H61.6788ZM65.9405 34.6503C65.9405 36.2848 66.6415 37.2151 67.6842 37.2151C68.8552 37.2151 69.7441 36.0499 69.7441 34.1307C69.7441 32.5547 68.9834 31.5746 67.9833 31.5746C67.462 31.5746 66.9489 31.8511 66.5818 32.3626C66.1628 32.9496 65.9405 33.7206 65.9405 34.6509V34.6503ZM67.7102 31.9343C68.3598 31.9343 68.9154 32.9988 68.9154 34.8676C68.9154 36.1501 68.4881 36.8542 67.9585 36.8542C67.3089 36.8542 66.7621 35.7986 66.7621 33.9291C66.7621 32.6297 67.1812 31.9343 67.7108 31.9343H67.7102Z" fill="url(#paint1_linear_1145_56012)"/>
<path d="M23.8227 12.356L23.5638 13.1211C23.5449 13.1668 23.5449 13.2031 23.5449 13.2306C23.5449 13.3033 23.5822 13.349 23.6466 13.349C23.7855 13.349 23.8411 13.1211 24.0533 12.9846C24.3772 12.7748 24.9222 12.6934 25.6994 12.684V17.4581C25.6994 17.4856 25.6994 17.5038 25.6994 17.5219C25.6994 17.768 25.69 17.8319 25.4961 17.8319H24.8211V18.1324H27.679V17.8319H27.1706C26.7545 17.8319 26.7362 17.5952 26.7362 16.6473V12.684C27.4946 12.6934 28.0218 12.766 28.364 12.9752C28.5857 13.1117 28.6413 13.349 28.7802 13.349C28.8446 13.349 28.8913 13.3033 28.8913 13.2306C28.8913 13.2031 28.8818 13.1668 28.8635 13.1211L28.6141 12.356H23.8233H23.8227ZM29.0574 12.356V12.6477H29.3352C29.7513 12.6477 29.7791 12.9026 29.7791 13.8411V17.4581C29.7791 17.4856 29.7791 17.5038 29.7791 17.5219C29.7791 17.768 29.7696 17.8319 29.5758 17.8319H29.2335V18.1324H31.6008V17.8319H31.2497C30.8336 17.8319 30.8147 17.5952 30.8147 16.6473V15.1622H33.3954V17.4581C33.3954 17.4856 33.3954 17.5038 33.3954 17.5219C33.3954 17.768 33.3859 17.8319 33.1914 17.8319H32.8492V18.1324H35.1893V17.8319H34.8654C34.4493 17.8319 34.4309 17.5952 34.4309 16.6473V13.0303C34.4309 12.9846 34.4309 12.9482 34.4309 12.9119C34.4309 12.7116 34.4404 12.6477 34.6343 12.6477H34.9765V12.356H32.6459V12.6477H32.9603C33.3764 12.6477 33.3948 12.9119 33.3948 13.8411V14.7978H30.8141V13.0303C30.8141 12.9664 30.8141 12.9207 30.8141 12.8756C30.8141 12.7022 30.8324 12.6477 31.0086 12.6477H31.3602V12.356H29.0574ZM35.716 12.356V12.6477H35.9938C36.4099 12.6477 36.4377 12.8938 36.4377 13.8411V17.4581C36.4377 17.5126 36.4377 17.5671 36.4377 17.604C36.4377 17.7774 36.4193 17.8406 36.2343 17.8406H35.8921V18.1324H40.2017L40.4328 17.3491C40.4511 17.2853 40.4511 17.2489 40.4511 17.2308C40.4511 17.1851 40.405 17.14 40.3583 17.14C40.1828 17.14 40.0717 17.4587 39.7483 17.5864C39.4339 17.7047 38.9527 17.8049 38.4166 17.8049H37.9083C37.4922 17.8049 37.4732 17.5864 37.4732 16.6203V15.0989H38.2411C38.3333 15.0989 38.4072 15.0989 38.4911 15.0989C39.1478 15.0989 39.3511 15.117 39.3511 15.3994V15.7H39.6283V14.1147H39.3511V14.3701C39.3511 14.7345 39.1106 14.7708 38.2505 14.7708H37.4738V12.967C37.4738 12.9395 37.4738 12.9125 37.4738 12.885C37.4738 12.7303 37.4833 12.6846 37.6866 12.6846H38.26C39.0089 12.6846 39.49 12.7848 39.675 12.9213C39.8323 13.0396 39.86 13.2675 39.9895 13.2675C40.0634 13.2675 40.0817 13.2218 40.1006 13.1129L40.2112 12.3565H35.7165L35.716 12.356Z" fill="url(#paint2_linear_1145_56012)"/>
<path d="M19.0856 55.8372L16.6621 45.6206H18.8072L20.3404 52.6384L22.2213 45.6206H24.7026L26.5019 52.7574L28.0712 45.6206H30.166L27.6829 55.8372H25.4539L23.4218 48.1983L21.3748 55.8372H19.0856ZM31.1857 55.8372V45.6206H33.2734V55.8372H31.1857ZM35.2576 55.8372V45.6206H37.278L41.5202 52.4674V45.6206H43.4495V55.8372H41.3647L37.1869 49.1216V55.8372H35.2576ZM45.6542 55.8372V45.6206H47.6746L51.9168 52.4674V45.6206H53.8461V55.8372H51.7613L47.5835 49.1216V55.8372H45.6542ZM56.0508 55.8372V45.6206H63.6811V47.3471H58.1385V49.6161H63.2922V51.3426H58.1385V54.1107H63.8827V55.8372H56.0508ZM65.6536 55.8372V45.6206H70.0371C71.1383 45.6206 71.9398 45.7132 72.4387 45.8965C72.9399 46.0793 73.3383 46.4056 73.6386 46.8737C73.9382 47.3447 74.0896 47.8796 74.0896 48.4836C74.0896 49.2517 73.8638 49.8844 73.4104 50.3841C72.957 50.8833 72.2802 51.1973 71.3782 51.3279C71.8269 51.5874 72.1963 51.8727 72.4865 52.1844C72.7791 52.4961 73.1728 53.0503 73.6669 53.8441L74.9242 55.8372H72.4357L70.9432 53.6063C70.4083 52.8142 70.0412 52.3151 69.842 52.1083C69.6452 51.9038 69.4365 51.7608 69.2155 51.6847C68.9926 51.6085 68.6421 51.5705 68.1622 51.5705H67.7395V55.8372H65.6518H65.6536ZM67.7413 49.9441H69.2817C70.28 49.9441 70.9012 49.9014 71.1507 49.8182C71.3978 49.735 71.5946 49.5903 71.7335 49.3852C71.8748 49.1808 71.9445 48.9236 71.9445 48.6172C71.9445 48.2721 71.8505 47.9962 71.6661 47.7824C71.4817 47.5709 71.2198 47.4373 70.8841 47.3828C70.7139 47.3588 70.2073 47.3471 69.365 47.3471H67.7407L67.7413 49.9441Z" fill="url(#paint3_linear_1145_56012)"/>
<path fill-rule="evenodd" clip-rule="evenodd" d="M9.61133 62.9858H82.3892V77.574H9.61133V62.9858Z" fill="url(#paint4_linear_1145_56012)"/>
<path fill-rule="evenodd" clip-rule="evenodd" d="M9.6308 69.2275C9.6308 69.2275 5.20062 70.4262 2.86997 71.6494L6.49214 76.8494L2.01172 86.8984C2.01172 86.8984 9.93876 80.7986 25.2538 81.4934L9.61189 77.5741L9.6308 69.2275Z" fill="url(#paint5_linear_1145_56012)"/>
<path fill-rule="evenodd" clip-rule="evenodd" d="M9.61133 77.5742L25.2467 81.4918V77.5742H9.61133Z" fill="url(#paint6_linear_1145_56012)"/>
<path d="M18.9018 69.5042C19.3747 69.2528 19.6348 68.8357 19.6348 68.2844C19.6348 67.3975 18.9456 66.869 17.764 66.869H15.801L15.7998 72.3959H17.8733C19.1578 72.3959 19.8558 71.7995 19.8558 70.8153C19.8558 70.1709 19.5106 69.7315 18.9024 69.5053V69.5036L18.9018 69.5042ZM17.7717 67.7349C18.2989 67.7349 18.5945 67.9851 18.5945 68.3975C18.5945 68.8656 18.2812 69.1368 17.7468 69.1368H16.8312V67.7349H17.7717ZM17.8686 71.5306H16.8295L16.8307 69.9664H17.8639C18.4591 69.9664 18.8232 70.2271 18.8232 70.7327C18.8232 71.2389 18.4957 71.5306 17.868 71.5306H17.8686ZM21.9039 68.7648C20.762 68.7648 20.1904 69.5493 20.1904 70.5763C20.1904 71.8516 20.9954 72.5049 22.0026 72.5049C22.5098 72.5049 22.9839 72.3678 23.4354 72.0637L23.1458 71.3847C22.8107 71.5804 22.4554 71.6935 22.1351 71.6935C21.6338 71.6935 21.275 71.4298 21.1769 70.8967H23.4869C23.5501 69.6846 23.1795 68.7648 21.9039 68.7648ZM21.8874 69.6049C22.3502 69.6049 22.5092 69.9184 22.5547 70.2915H21.1692C21.2336 69.8592 21.463 69.6049 21.888 69.6049H21.8874ZM24.0915 71.5335L23.8723 72.2565C24.3351 72.4193 24.8038 72.5037 25.2182 72.5037C26.1012 72.5037 26.7567 72.103 26.7567 71.3021C26.7567 69.991 24.8966 70.4591 24.8966 69.8645C24.8966 69.643 25.0964 69.5229 25.4889 69.5229C25.7093 69.5229 26.106 69.5879 26.4559 69.7051L26.6291 68.9886C26.1911 68.8228 25.7696 68.7672 25.3978 68.7672C24.6235 68.7672 23.9036 69.1433 23.9036 69.9248C23.9036 71.2664 25.7726 70.7743 25.7726 71.3882C25.7726 71.6202 25.5255 71.748 25.1449 71.748C24.8304 71.748 24.4497 71.6665 24.0915 71.5341V71.5335ZM29.4314 71.4808C29.205 71.564 29.007 71.6015 28.838 71.6015C28.4957 71.6015 28.293 71.431 28.293 71.028V69.6413H29.2819V68.8732H28.293V67.8163H27.3319V68.8732H26.7969V69.6413H27.3319V71.1422C27.3319 72.0965 27.8254 72.4955 28.6163 72.4955C28.9278 72.4955 29.2511 72.4322 29.6306 72.2846L29.432 71.4808H29.4314ZM36.3938 66.8673H35.3062L33.9047 69.5083L32.5027 66.8673H31.4157L33.3893 70.4327V72.3959H34.4208V70.4327L36.3944 66.8673H36.3938ZM37.3194 72.4955C38.3763 72.4955 39.0667 71.762 39.0667 70.6378C39.0667 69.51 38.3763 68.7736 37.3194 68.7736C36.2643 68.7736 35.5751 69.51 35.5751 70.6378C35.5751 71.7626 36.2643 72.4955 37.3194 72.4955ZM37.3194 71.6466C36.8064 71.6466 36.4742 71.2506 36.4742 70.6378C36.4742 70.0221 36.8064 69.6231 37.3194 69.6231C37.8337 69.6231 38.167 70.0221 38.167 70.6378C38.167 71.2506 37.8337 71.6466 37.3194 71.6466ZM41.7733 68.8732V71.3408C41.5894 71.547 41.3737 71.6284 41.1532 71.6284C40.6727 71.6284 40.5302 71.339 40.5302 70.9495V68.8732H39.5691V71.0414C39.5691 72.0532 40.1395 72.5049 40.8624 72.5049C41.259 72.5049 41.6148 72.3438 41.9246 72.011V72.3965H42.7344V68.8732H41.7733ZM45.4616 68.7648C45.0443 68.7648 44.6743 68.9412 44.3551 69.3067L44.3563 68.8732H43.5276V72.3965H44.4887V70.0056C44.6838 69.7426 44.9249 69.6413 45.1702 69.6413C45.6508 69.6413 45.7932 69.9301 45.7932 70.3202V72.3965H46.7543V70.2283C46.7543 69.2177 46.1839 68.7648 45.461 68.7648H45.4616ZM50.9841 68.8568L49.7966 68.9576C49.559 68.831 49.2694 68.7648 48.9431 68.7648C47.9992 68.7648 47.3549 69.2845 47.3549 70.1486C47.3549 70.6032 47.5298 70.9664 47.8277 71.2084C47.5221 71.3906 47.3472 71.6747 47.3472 71.9671C47.3472 72.2114 47.4134 72.3859 47.5251 72.5125C47.2461 72.6871 47.0741 72.9747 47.0741 73.3584C47.0741 73.9712 47.615 74.6081 48.861 74.6081C50.2423 74.6081 50.8813 73.9894 50.8813 73.1013C50.8813 71.4134 48.2628 72.5635 48.2628 71.7731C48.2628 71.6741 48.329 71.5681 48.4407 71.5007C48.5967 71.537 48.764 71.5552 48.9437 71.5552C49.8546 71.5552 50.4853 71.0239 50.4853 70.1504C50.4853 69.9863 50.4616 69.8346 50.4191 69.6957L50.9806 69.6928L50.9847 68.8574L50.9841 68.8568ZM48.9195 70.8247C48.514 70.8247 48.2273 70.5733 48.2273 70.1504C48.2273 69.735 48.514 69.4971 48.9195 69.4971C49.325 69.4971 49.6116 69.735 49.6116 70.1492C49.6116 70.5739 49.325 70.8252 48.9195 70.8252V70.8247ZM49.8853 73.2354C49.8853 73.5348 49.5513 73.8148 48.9579 73.8148C48.3745 73.8148 47.9974 73.625 47.9974 73.2202C47.9974 73.0456 48.0665 72.9114 48.1812 72.8107C48.9201 72.9237 49.8859 72.7099 49.8859 73.2354H49.8853ZM54.6577 66.8679H53.2356V72.3965H54.6577C56.6243 72.3965 57.651 71.4252 57.651 69.5329C57.651 67.7818 56.6237 66.8679 54.6577 66.8679ZM54.6577 71.5294H54.267V67.7355H54.6577C55.938 67.7355 56.6048 68.3577 56.6048 69.5335C56.6048 70.851 55.938 71.53 54.6577 71.53V71.5294ZM59.8421 68.7648C58.7002 68.7648 58.1286 69.5493 58.1286 70.5763C58.1286 71.8516 58.9336 72.5049 59.9403 72.5049C60.4474 72.5049 60.9214 72.3678 61.373 72.0637L61.0834 71.3847C60.7483 71.5804 60.393 71.6935 60.0727 71.6935C59.5714 71.6935 59.2126 71.4298 59.1145 70.8967H61.4245C61.4877 69.6846 61.1171 68.7648 59.8415 68.7648H59.8421ZM59.8262 69.6049C60.289 69.6049 60.4474 69.9184 60.4935 70.2915H59.1074C59.1724 69.8592 59.4012 69.6049 59.8262 69.6049ZM63.9419 68.7648C63.5246 68.7648 63.1546 68.9412 62.8354 69.3067L62.8366 68.8732H62.0079V72.3965H62.969V70.0056C63.164 69.7426 63.4052 69.6413 63.6511 69.6413C64.1316 69.6413 64.2741 69.9301 64.2741 70.3202V72.3965H65.2352V70.2283C65.2352 69.2177 64.6648 68.7648 63.9419 68.7648ZM68.287 71.4808C68.0606 71.564 67.8626 71.6015 67.6935 71.6015C67.3513 71.6015 67.1479 71.431 67.1479 71.028V69.6413H68.1368V68.8732H67.1479V67.8163H66.1874V68.8732H65.6525V69.6413H66.1874V71.1422C66.1874 72.0965 66.681 72.4955 67.4719 72.4955C67.7834 72.4955 68.1067 72.4322 68.4862 72.2846L68.2876 71.4808H68.287ZM69.3657 68.0149C69.7109 68.0149 69.9432 67.7742 69.9432 67.4145C69.9432 67.0606 69.7109 66.8228 69.3657 66.8228C69.0146 66.8228 68.7793 67.0606 68.7793 67.4145C68.7793 67.7742 69.0146 68.0149 69.3657 68.0149ZM69.8462 68.8732H68.8851V72.3965H69.8462V68.8732ZM70.6619 71.5335L70.4426 72.2565C70.9055 72.4193 71.3742 72.5037 71.7885 72.5037C72.6716 72.5037 73.3271 72.103 73.3271 71.3021C73.3271 69.991 71.467 70.4591 71.467 69.8645C71.467 69.643 71.6668 69.5229 72.0593 69.5229C72.2797 69.5229 72.6764 69.5879 73.0263 69.7051L73.1995 68.9886C72.7615 68.8228 72.34 68.7672 71.9682 68.7672C71.1939 68.7672 70.474 69.1433 70.474 69.9248C70.474 71.2664 72.343 70.7743 72.343 71.3882C72.343 71.6202 72.0959 71.748 71.7158 71.748C71.4014 71.748 71.0207 71.6665 70.6625 71.5341L70.6619 71.5335ZM76.0018 71.4808C75.7754 71.564 75.5774 71.6015 75.4084 71.6015C75.0661 71.6015 74.8634 71.431 74.8634 71.028V69.6413H75.8523V68.8732H74.8634V67.8163H73.9023V68.8732H73.3673V69.6413H73.9023V71.1422C73.9023 72.0965 74.3958 72.4955 75.1867 72.4955C75.4982 72.4955 75.8215 72.4322 76.201 72.2846L76.0024 71.4808H76.0018Z" fill="white"/>
<defs>
<linearGradient id="paint0_linear_1145_56012" x1="46.1705" y1="-7.12913" x2="46.1705" y2="88.9044" gradientUnits="userSpaceOnUse">
<stop/>
</linearGradient>
<linearGradient id="paint1_linear_1145_56012" x1="13.2329" y1="31.8365" x2="69.2394" y2="31.7923" gradientUnits="userSpaceOnUse">
<stop/>
</linearGradient>
<linearGradient id="paint2_linear_1145_56012" x1="24.5374" y1="12.9313" x2="40.4516" y2="12.6116" gradientUnits="userSpaceOnUse">
<stop/>
</linearGradient>
<linearGradient id="paint3_linear_1145_56012" x1="13.1126" y1="50.1556" x2="76.0602" y2="50.155" gradientUnits="userSpaceOnUse">
<stop/>
</linearGradient>
<linearGradient id="paint4_linear_1145_56012" x1="9.6267" y1="70.8227" x2="82.3892" y2="70.8227" gradientUnits="userSpaceOnUse">
<stop/>
</linearGradient>
<linearGradient id="paint5_linear_1145_56012" x1="2.44498" y1="83.91" x2="25.3097" y2="83.3548" gradientUnits="userSpaceOnUse">
<stop/>
</linearGradient>
<linearGradient id="paint6_linear_1145_56012" x1="24.2714" y1="79.7975" x2="10.1459" y2="77.6699" gradientUnits="userSpaceOnUse">
<stop/>
</linearGradient>
</defs>
</svg>
