<svg width="402" height="388" viewBox="0 0 402 388" fill="none" xmlns="http://www.w3.org/2000/svg">
<path fill-rule="evenodd" clip-rule="evenodd" d="M262.8 337.1C262.7 337.4 262.6 337.4 261.9 338L256.8 342.9C254.4 345.1 252.4 346.6 250.1 348.7L236 359.4C228.3 364.8 213.7 373.9 201 373.9C184.1 374 163.7 358.5 151.8 348.8C147.582 345.342 143.543 341.671 139.7 337.8C139.2 337.4 139.2 337.4 139.1 337H124.2C125.207 337.899 126.112 338.905 126.9 340L128.8 342.1C132 345.7 135.4 349.2 138.7 352.5C142 355.8 144.3 357.5 147.3 360.2L150.6 362.9C154 365.6 157.4 368.4 161 370.9C172.1 378.5 186.1 387.8 200.5 388C213.3 388.1 225.9 380.8 235.7 374.3C239 372.2 242 369.9 245.1 367.6L249.7 364C254.253 360.529 258.594 356.789 262.7 352.8C266 349.5 271.7 344 274.6 340.4C275.473 339.221 276.443 338.117 277.5 337.1H262.8ZM88.7004 275C87.2004 272.4 83.9004 267.9 82.0004 265.1C75.6004 255.5 68.4004 244.3 62.9004 234.4L56.9004 223.6C49.6004 210.2 41.7004 193.1 35.4004 178.6C27.1004 159.8 18.8004 136.4 15.0004 116.1C11.9004 99.0001 9.20039 73.8001 17.7004 58.5001C24.8004 45.6001 44.6004 37.4001 57.7004 32.0001C65.4004 28.9001 74.1004 25.9001 82.3004 23.4001C118.7 12.2001 159.7 8.50007 201 8.50007C242.3 8.50007 283.9 12.2001 319.6 23.4001C334.3 28.0001 342.5 31.4001 356 37.1001C363.6 40.4001 375.7 47.5001 380.9 53.8001C382.103 55.3618 383.205 56.9984 384.2 58.7001C388.4 65.8001 389.9 76.5001 389.8 86.3001C389.2 119.1 378.9 150.1 366.3 179C358.4 196.9 348.6 217.7 338.8 234.6C330.1 249.5 323.3 260 313.8 273.8L313 275L325.5 274.8C331.8 266.2 346.4 242.1 351.1 233.1C353.1 229.3 355 225.9 356.9 222.1C362.6 210.9 368.2 199.6 373.1 188.1C383.7 163.6 394 139.2 398.5 112.6C401.4 95.2001 404.5 69.4001 395.6 53.4001C391.4 46.0001 385.3 41.3001 377.9 36.9001C367.2 30.5001 354.5 25.3001 342.4 21.0001C319.3 12.8001 298.6 8.00007 273.3 4.40007C248 0.800068 225.2 6.83805e-05 199.9 6.83805e-05C175.456 -0.180436 151.029 1.35668 126.8 4.60007C108.131 6.96908 89.7202 11.053 71.8004 16.8001C56.3004 21.9001 38.1004 28.2001 24.4004 36.5001C19.1812 39.5724 14.4041 43.3403 10.2004 47.7001C3.00039 55.4001 0.400391 67.9001 0.400391 79.5001C0.500391 123.3 16.2004 161.2 33.6004 199.1C42.3405 218.096 52.1908 236.561 63.1004 254.4C65.2004 257.9 67.4004 261.3 69.6004 264.7C70.6004 266.3 76.0004 273.9 76.3004 275H88.7004Z" fill="white"/>
<path d="M69.4004 71.1C69.4004 69.3 70.4004 68.9 74.7004 68.9C84.0004 68.8 89.1004 78.8 89.1004 96.9C89.1004 121.5 82.4004 126.2 74.8004 126.2C70.3004 126.2 69.4004 125 69.4004 122.7V71.1ZM50.9004 65.5V68.3C55.8004 68.6 56.6004 69.1 56.6004 73.8V121.3C56.6004 125.9 56.1004 126.5 50.9004 126.7V129.6H72.6004C83.7004 129.6 103.2 128.2 103.2 96.3C103.2 85.7 101.3 78.2 96.9004 72.9C92.5004 67.6 86.3004 65.5 76.4004 65.5H50.9004Z" fill="white"/>
<path d="M135.8 106C138.6 106 139.9 105.4 139.9 102.3C139.9 94.9999 137.9 83.3999 123.2 83.3999C108.5 83.3999 104.7 94.1999 104.7 107C104.7 119.8 108.7 130.9 123 130.8C132 130.8 136.8 125.3 139.5 116.8L137.4 115.4C134.8 121.8 131.4 123.9 126.9 123.9C119.6 123.9 117.1 116.4 117.1 106H135.8ZM117.1 102.4C117.1 94.7999 118.4 86.7999 122.9 86.7999C127.4 86.7999 128 93.7999 128 99.5999C128 102 127.4 102.4 125.7 102.4H117.1Z" fill="white"/>
<path d="M179 97.5999C179 88.9999 175.6 83.3999 167.7 83.3999C163.6 83.3999 160 86.0999 155 89.5999L154.1 83.4999L139 86.1999V88.8999L141.5 89.3999C142.5 89.5999 143.2 90.3999 143.2 94.0999V122.6C143.2 126.2 142.7 126.5 138.5 126.8V129.6H158.8V126.8C156.5 126.5 155 126.7 155 123V99.4999C154.925 97.6404 155.162 95.7814 155.7 93.9999C156.6 91.6999 158.4 89.6999 161.5 89.6999C164.6 89.6999 167.2 92.5999 167.2 97.8999V123.1C167.2 126.9 165.6 126.5 163.4 126.8V129.6H183.6V126.8C179.5 126.5 179 126.4 179 122.7V97.5999Z" fill="white"/>
<path d="M203.1 88.5V84.5H195.7V73H191.2L184.3 84.5H179.7V88.5H183.9V118.7C183.9 127.2 188.5 130.8 192.8 130.8C197.1 130.8 199.7 129.5 204.2 125.7L203.6 123.4C202.51 123.945 201.317 124.251 200.1 124.3C197.4 124.3 195.7 121.8 195.7 116V88.5H203.1Z" fill="white"/>
<path d="M215.2 64C211.2 64 209 67.5 209 71.5C209 75.5 211.2 79.2 215.2 79.2C219.2 79.2 221.5 75.6 221.5 71.5C221.5 67.4 219.2 64 215.2 64ZM209.6 122.4C209.6 126.1 209 126.6 205 126.8V129.6H226V126.8C221.9 126.5 221.4 126.1 221.4 122.4V83.8L220.9 83.4L205.4 86.1V88.9L207.9 89.4C209 89.6 209.6 90.4 209.6 94.1V122.4Z" fill="white"/>
<path d="M252 98.8999V86.5999C248.9 84.1999 244.7 83.3999 240.8 83.3999C231.9 83.3999 226.3 88.8999 226.3 98.1999C226.3 105 229.5 109.3 236.8 112.9C241.2 115.1 244.4 117.6 244.4 121.7C244.4 125.8 242.4 127.4 239.4 127.4C234.7 127.4 230.2 120.1 228.3 112.6H225.9L226.8 126.5C229.4 129.6 235.1 130.8 239.2 130.8C248 130.8 254.5 125.7 254.5 115.4C254.5 107.7 250.8 104 244 100.7C239.3 98.3999 236.1 96.3999 236.1 92.4999C236.1 88.5999 237.6 86.7999 240.8 86.7999C244 86.7999 248.4 91.9999 249.8 98.8999H252Z" fill="white"/>
<path d="M277.501 88.5V84.5H270.101V73H265.601L258.701 84.5H254.101V88.5H258.301V118.7C258.301 127.2 262.901 130.8 267.201 130.8C271.501 130.8 274.101 129.5 278.601 125.7L278.001 123.4C276.911 123.945 275.718 124.251 274.501 124.3C271.801 124.3 270.101 121.8 270.101 116V88.5H277.501Z" fill="white"/>
<path d="M295.4 100.8C295.4 96.2999 295.9 93.9999 297.8 93.9999C299.7 93.9999 300 94.9999 301.6 96.4999C303.2 97.9999 303.4 98.2999 305 98.2999C308.6 98.2999 310.6 93.7999 310.6 90.0999C310.6 86.3999 308.4 83.3999 305.1 83.3999C301.8 83.3999 299.5 86.1999 295 92.1999L294.2 83.4999L279.4 86.1999V88.8999L281.8 89.3999C283 89.5999 283.5 90.4999 283.5 94.0999V122.4C283.5 126.2 283 126.5 278.9 126.8V129.6H301.6V126.8C295.9 126.4 295.4 126.2 295.4 122.4V100.8Z" fill="white"/>
<path d="M338.801 84.5V87.5L342.601 88C343.701 88.1 344.101 88.8 343.701 90.8C341.801 99.5 339.301 109.5 337.101 117.6H336.901C334.601 110.1 330.901 99.4 328.601 91.1C328.101 89.2 328.301 88.2 329.401 88L332.301 87.5V84.5H310.801V87.5C314.001 88 314.701 87.9 316.001 91.7C319.901 102.4 325.401 118.2 329.701 131.4C330.301 133.3 331.201 137 330.701 138.5C329.701 141.7 328.801 142.7 327.201 142.7C326.119 142.484 325.136 141.922 324.401 141.1C322.801 139.7 322.301 139.2 320.901 139.2C319.501 139.2 315.901 143.3 315.901 146.9C315.901 148.474 316.519 149.985 317.623 151.108C318.726 152.23 320.227 152.874 321.801 152.9C327.301 152.9 330.501 149.1 334.601 136C338.701 122.9 343.601 105.8 347.501 93.8C349.201 88.6 349.301 87.9 353.601 87.5V84.5H338.801Z" fill="white"/>
<path d="M62.2 143L65.4 151.7H58.6L62.2 143ZM75.3 160.3H74.2C73.4 160.3 73 160.1 72.6 158.9L65.7 140C65.5995 139.778 65.5322 139.542 65.5 139.3C65.5 138.5 66.3 138.4 66.3 138C66.3 137.6 66.1 137.6 65.8 137.6H65.3L62.9 138.1L53.8 159.5C53.5 160.1 53.3 160.3 52.7 160.3H51.5V161.6H59V160.3H57.1C56.1 160.3 55.7 160.2 55.7 159.5C55.7909 158.805 55.9935 158.13 56.3 157.5L58 153.1H66L68.2 159.5C68.2234 159.669 68.2568 159.836 68.3 160C68.3 160.3 68.1 160.3 67.6 160.3H66V161.6H75.3V160.3ZM74.7 138.4V139.6H75.6C76.8 139.6 77.1 140.2 77.7 141.6L85.8 161.1C86 161.6 86.1 161.8 86.3 161.8C86.5 161.8 86.7 161.6 86.9 161L93 146L99.3 161.2C99.4 161.6 99.6 161.8 99.7 161.8C99.8432 161.802 99.9824 161.753 100.092 161.661C100.203 161.569 100.276 161.441 100.3 161.3L108.8 140.8C109.1 140 109.1 139.6 110.1 139.6H111.1V138.4H104.1V139.6H105.6C106.6 139.6 107 139.8 107 140.5C106.92 141.186 106.752 141.858 106.5 142.5L101.5 155L101.3 155.3C101.2 155.3 101.2 155.2 101.2 155L95.2 140.5C95.0625 140.293 94.9926 140.049 95 139.8C95 139.7 95.2 139.6 95.5 139.6H97.6V138.4H88V139.6H89C89.3696 139.538 89.749 139.616 90.0636 139.82C90.3782 140.024 90.6053 140.338 90.7 140.7L92.2 144.1L88 154.6V154.9C87.9 154.9 87.9 154.8 87.8 154.6L81.7 140.4C81.628 140.244 81.5937 140.072 81.6 139.9C81.6 139.8 81.8 139.6 82.2 139.6H84V138.4H74.7ZM119.9 143L123.1 151.7H116.3L119.9 143ZM133 160.3H131.9C131.1 160.3 130.7 160.1 130.3 158.9L123.4 140C123.3 139.778 123.232 139.542 123.2 139.3C123.2 138.5 124 138.4 124 138C124 137.6 123.8 137.6 123.5 137.6H123L120.6 138.1L111.5 159.5C111.2 160.1 111 160.3 110.4 160.3H109.2V161.6H116.7V160.3H114.8C113.8 160.3 113.4 160.2 113.4 159.5C113.491 158.805 113.694 158.13 114 157.5L115.7 153.1H123.7L125.9 159.5C125.923 159.669 125.957 159.836 126 160C126 160.3 125.8 160.3 125.3 160.3H123.7V161.6H133V160.3ZM136.4 138.4V139.6H137.5C139.2 139.6 139.3 140.6 139.3 144.3V159.1C139.3 160.1 139.3 160.3 138.5 160.3H137.1V161.6H146.6V160.3H145.1C143.4 160.3 143.3 159.4 143.3 155.6V151.1H146C147.751 154.31 149.688 157.415 151.8 160.4C152.6 161.5 153.1 161.6 153.9 161.6H158.5V160.3H157.8C156.4 160.3 155.9 159.4 154.3 157.2C152.7 155 150.8 152.3 149.6 150.4C152.9 149.7 154.8 147.6 154.8 144.9C154.8 142.2 151.8 138.4 146.1 138.4H136.4ZM143.3 149.8V140.3C143.3 139.8 143.6 139.7 144.3 139.7C148.2 139.7 150.7 142 150.7 145.3C150.7 148.6 148.6 149.9 145 149.9L143.3 149.8ZM169 139.7H170.2C176 139.7 180.2 144.1 180.2 150.7C180.2 157.3 176.9 160.2 170.9 160.2H170C168.2 160.2 168.2 159.5 168.2 156V141.1C168.2 140 168.2 139.7 169 139.7ZM161.8 161.6H170.9C175.2 161.6 178.1 161 180.9 158.5C182.087 157.323 183.026 155.921 183.662 154.375C184.297 152.829 184.616 151.171 184.6 149.5C184.6 142.6 179.8 138.4 171.1 138.4H161.1V139.7H162.2C163.9 139.7 164 140.6 164 144.4V159.2C164 160.2 164 160.4 163.2 160.4H161.8V161.7V161.6ZM203.7 138.4C202.281 137.932 200.795 137.695 199.3 137.7C193.9 137.7 190.3 140.8 190.3 145C190.332 145.809 190.535 146.602 190.897 147.326C191.26 148.051 191.772 148.689 192.4 149.2C193.6 150.2 195.5 150.9 198.1 152C200.7 153.1 201.9 154.5 201.9 156.6C201.9 158.7 199.7 160.8 196.5 160.8C193.3 160.8 192.1 160 191 158.2C189.9 156.4 190.3 157.1 190 157.1C189.7 157.1 189.5 157.3 189.5 157.7C189.5 158.1 189.6 157.8 189.6 157.9L190 161.1C191.922 161.809 193.952 162.181 196 162.2C201.8 162.2 205.5 158.7 205.5 154.7C205.5 150.7 203.2 149.4 198.6 147.5C194 145.6 193.7 144.9 193.7 143C193.7 141.1 195.7 139.1 198.4 139.1C201.1 139.1 201.7 139.7 202.5 141C203.3 142.3 203 141.9 203.5 141.9C204 141.9 203.8 141.7 203.8 141.3V138.4H203.7ZM224.6 158.3C230.9 153.1 234.5 149.6 234.5 144.8C234.5 140 231.8 137.7 227.4 137.7C224.821 137.689 222.342 138.695 220.5 140.5L221.1 141.3C222.407 140.432 223.931 139.947 225.5 139.9C228.6 139.9 230.6 142 230.6 145.5C230.6 149 228.1 152.8 224.2 157.1C221.9 159.5 220.4 160.5 220.4 161.2C220.4 161.9 220.7 161.6 221.2 161.6H235.5L237 157.8L237.2 157.3C237.202 157.183 237.164 157.069 237.091 156.978C237.017 156.886 236.915 156.823 236.8 156.8C236.4 156.8 236 157.8 234.3 158C231.075 158.293 227.836 158.393 224.6 158.3ZM243.2 151.1C243.2 158.2 246.2 162.2 250.8 162.2C255.4 162.2 259.8 157.2 259.8 148.8C259.8 140.4 256.5 137.7 252.1 137.7C250.885 137.738 249.698 138.066 248.636 138.658C247.575 139.25 246.671 140.087 246 141.1C244.053 144.063 243.074 147.557 243.2 151.1ZM250.9 139.2C253.7 139.2 256.2 143.9 256.2 152C256.2 157.6 254.3 160.7 252 160.7C249.7 160.7 246.8 156.1 246.8 147.9C246.8 142.3 248.6 139.2 250.9 139.2ZM269.3 158.3C275.6 153.1 279.2 149.6 279.2 144.8C279.2 140 276.5 137.7 272.1 137.7C270.822 137.689 269.555 137.931 268.371 138.412C267.186 138.892 266.109 139.602 265.2 140.5L265.8 141.3C267.102 140.422 268.629 139.936 270.2 139.9C273.3 139.9 275.3 142 275.3 145.5C275.3 149 272.8 152.8 268.9 157.1C266.6 159.5 265.1 160.5 265.1 161.2C265.1 161.9 265.3 161.6 265.9 161.6H280.2L281.7 157.8L281.9 157.3C281.9 157.167 281.847 157.04 281.754 156.947C281.66 156.853 281.533 156.8 281.4 156.8C281 156.8 280.7 157.8 279 158C275.775 158.293 272.536 158.393 269.3 158.3ZM287.9 151.1C287.9 158.2 290.9 162.2 295.5 162.2C300.1 162.2 304.5 157.2 304.5 148.8C304.5 140.4 301.1 137.7 296.8 137.7C295.585 137.738 294.398 138.066 293.336 138.658C292.275 139.25 291.371 140.087 290.7 141.1C288.8 143.7 287.9 147 287.9 151.1ZM295.6 139.2C298.4 139.2 300.8 143.9 300.8 152C300.8 157.6 299 160.7 296.7 160.7C294.4 160.7 291.5 156.1 291.5 147.9C291.5 142.3 293.3 139.2 295.6 139.2Z" fill="white"/>
<path d="M104.301 53.8999L103.101 57.1999V57.6999C103.101 57.9999 103.201 58.1999 103.501 58.1999C103.801 58.1999 104.301 57.1999 105.301 56.5999C106.301 55.9999 109.101 55.2999 112.401 55.2999V76.3999C112.401 77.4999 112.401 77.6999 111.601 77.6999H108.601V78.9999H121.101V77.6999H118.901C117.001 77.6999 117.001 76.6999 117.001 72.5999V55.2999C120.301 55.2999 122.601 55.6999 124.101 56.5999C125.601 57.4999 125.301 58.1999 125.901 58.1999C126.033 58.1999 126.16 58.1472 126.254 58.0535C126.348 57.9597 126.401 57.8325 126.401 57.6999C126.361 57.5237 126.293 57.3549 126.201 57.1999L125.201 53.8999H104.301ZM127.101 53.8999V55.0999H128.301C130.101 55.0999 130.201 56.1999 130.201 60.2999V76.3999C130.201 77.4999 130.201 77.6999 129.301 77.6999H127.901V78.9999H138.201V77.6999H136.601C134.801 77.6999 134.701 76.6999 134.701 72.5999V66.0999H146.001V76.3999C146.001 77.4999 146.001 77.6999 145.101 77.6999H143.601V78.9999H153.801V77.6999H152.401C150.601 77.6999 150.501 76.6999 150.501 72.5999V56.2999C150.501 55.3999 150.601 55.0999 151.401 55.0999H152.901V53.8999H142.701V55.0999H144.101C145.901 55.0999 146.001 56.2999 146.001 60.2999V64.4999H134.701V56.0999C134.701 55.3999 134.801 55.0999 135.601 55.0999H137.101V53.8999H127.101ZM156.101 53.8999V55.0999H157.301C159.101 55.0999 159.301 56.1999 159.301 60.2999V76.6999C159.301 77.4999 159.201 77.7999 158.401 77.7999H156.901V78.9999H175.701L176.701 75.5999C176.773 75.4434 176.807 75.2721 176.801 75.0999C176.801 74.9938 176.758 74.8921 176.683 74.8171C176.608 74.742 176.507 74.6999 176.401 74.6999C175.601 74.6999 175.101 76.0999 173.701 76.6999C171.829 77.3135 169.87 77.6175 167.901 77.5999H165.701C163.901 77.5999 163.801 76.6999 163.801 72.4999V65.7999H168.201C171.101 65.7999 172.001 65.8999 172.001 67.0999V68.3999H173.201V61.4999H172.001V62.5999C172.001 64.1999 170.901 64.3999 167.201 64.3999H163.801V56.1999C163.801 55.4999 163.801 55.2999 164.701 55.2999H167.201C170.501 55.2999 172.601 55.6999 173.401 56.2999C174.201 56.8999 174.201 57.7999 174.701 57.7999C175.201 57.7999 175.101 57.5999 175.201 57.1999L175.701 53.8999H156.101Z" fill="white"/>
<path d="M83.6 243.4L73 198.9H82.4L89.1 229.5L97.3 198.9H108.1L115.9 230L122.8 198.9H131.9L121.1 243.4H111.4L102.5 210.1L93.6 243.4H83.6ZM136.4 243.4V198.9H145.5V243.4H136.4ZM154.1 243.4V198.9H162.9L181.4 228.7V198.9H189.8V243.4H180.7L162.5 214.2V243.4H154.1ZM199.4 243.4V198.9H208.3L226.7 228.7V198.9H235.2V243.4H226.1L207.9 214.2V243.4H199.4ZM244.8 243.4V198.9H278V206.4H253.9V216.3H276.3V223.8H253.9V235.9H278.9V243.4H244.8ZM286.6 243.4V198.9H305.7C310.5 198.9 314 199.3 316.2 200.1C318.383 200.88 320.224 202.402 321.4 204.4C322.746 206.483 323.443 208.92 323.4 211.4C323.501 214.449 322.427 217.42 320.4 219.7C318.5 221.8 315.5 223.2 311.6 223.8C313.393 224.761 315.014 226.011 316.4 227.5C318.316 229.763 320.054 232.17 321.6 234.7L327 243.4H316.2L309.7 233.7C308.257 231.421 306.653 229.249 304.9 227.2C304.126 226.404 303.211 225.759 302.2 225.3C300.697 224.921 299.149 224.752 297.6 224.8H295.7V243.4H286.6ZM295.7 217.7H302.4C306.8 217.7 309.5 217.6 310.6 217.2C311.623 216.865 312.503 216.196 313.1 215.3C313.799 214.346 314.152 213.182 314.1 212C314.146 210.647 313.682 209.327 312.8 208.3C311.916 207.332 310.705 206.727 309.4 206.6C308.7 206.5 306.5 206.4 302.8 206.4H295.7V217.7Z" fill="white"/>
<path fill-rule="evenodd" clip-rule="evenodd" d="M42.3008 274.6H359.601V338.2H42.3008V274.6Z" fill="white"/>
<path fill-rule="evenodd" clip-rule="evenodd" d="M42.4002 301.8C42.4002 301.8 23.1002 307 12.9002 312.4L28.7002 335L9.2002 378.8C9.2002 378.8 43.7002 352.3 110.5 355.3L42.3002 338.2L42.4002 301.8Z" fill="white"/>
<path fill-rule="evenodd" clip-rule="evenodd" d="M42.3008 338.2L110.501 355.3V338.2H42.3008Z" fill="white"/>
<path d="M82.8008 303C83.7962 302.529 84.6306 301.775 85.1998 300.832C85.769 299.89 86.0476 298.8 86.0008 297.7C86.0008 293.8 83.0008 291.5 77.8008 291.5H69.3008V315.6H78.3008C83.9008 315.6 87.0008 313 87.0008 308.7C87.0008 305.9 85.5008 304 82.8008 303ZM77.9008 295.3C80.2008 295.3 81.5008 296.4 81.5008 298.2C81.5008 300 80.1008 301.4 77.8008 301.4H73.8008V295.3H77.9008ZM78.3008 311.8H73.8008V305H78.3008C80.9008 305 82.5008 306.2 82.5008 308.4C82.5008 310.6 81.0008 311.8 78.3008 311.8ZM95.9008 299.8C90.9008 299.8 88.4008 303.2 88.4008 307.7C88.4008 312.2 91.9008 316.1 96.3008 316.1C98.5428 316.106 100.736 315.444 102.601 314.2L101.301 311.2C99.987 312.054 98.4668 312.538 96.9008 312.6C95.8873 312.658 94.8894 312.329 94.1095 311.679C93.3296 311.03 92.826 310.107 92.7008 309.1H102.801C103.101 303.8 101.501 299.8 95.9008 299.8ZM95.8008 303.4C97.8008 303.4 98.5008 304.8 98.7008 306.4H92.7008C93.0008 304.6 94.0008 303.4 95.8008 303.4ZM105.401 311.9L104.501 315C106.36 315.683 108.32 316.055 110.301 316.1C114.201 316.1 117.101 314.3 117.101 310.8C117.101 305.1 108.901 307.2 108.901 304.6C108.901 303.6 109.801 303.1 111.501 303.1C112.931 303.167 114.345 303.437 115.701 303.9L116.501 300.8C114.786 300.108 112.95 299.768 111.101 299.8C107.801 299.8 104.601 301.4 104.601 304.8C104.601 310.7 112.801 308.5 112.801 311.2C112.801 312.2 111.701 312.8 110.001 312.8C108.433 312.715 106.885 312.412 105.401 311.9ZM128.701 311.6C127.881 311.967 126.998 312.171 126.101 312.2C124.601 312.2 123.801 311.4 123.801 309.7V303.6H128.101V300.3H123.801V295.6H119.601V300.3H117.201V303.6H119.601V310.1C119.601 314.3 121.701 316 125.201 316C126.713 316.003 128.211 315.697 129.601 315.1L128.701 311.6ZM159.101 291.5H154.301L148.201 303L142.101 291.5H137.401L146.001 307.1V315.6H150.501V307.1L159.101 291.5ZM163.101 316C167.701 316 170.701 312.9 170.701 308C170.701 303.1 167.701 299.8 163.101 299.8C158.501 299.8 155.501 303 155.501 308C155.501 313 158.501 316 163.101 316ZM163.101 312.3C160.901 312.3 159.401 310.6 159.401 308C159.401 305.4 160.901 303.5 163.101 303.5C165.301 303.5 166.801 305.3 166.801 308C166.801 310.7 165.301 312.3 163.101 312.3ZM182.501 300.3V311C182.175 311.403 181.764 311.729 181.297 311.953C180.83 312.178 180.319 312.297 179.801 312.3C177.701 312.3 177.101 311 177.101 309.3V300.3H172.901V309.7C172.901 314.1 175.401 316.1 178.501 316.1C179.397 316.095 180.281 315.895 181.092 315.515C181.903 315.135 182.623 314.584 183.201 313.9V315.6H186.701V300.3H182.501ZM198.601 299.8C197.684 299.823 196.782 300.04 195.955 300.436C195.127 300.832 194.393 301.4 193.801 302.1V300.3H190.201V315.6H194.401V305.2C194.708 304.708 195.135 304.303 195.643 304.023C196.15 303.743 196.721 303.597 197.301 303.6C199.401 303.6 200.001 304.9 200.001 306.6V315.6H204.201V306.2C204.201 301.8 201.701 299.8 198.601 299.8ZM222.701 300.2L217.501 300.6C216.344 300.055 215.079 299.782 213.801 299.8C209.701 299.8 206.901 302.1 206.901 305.8C206.854 306.669 207.01 307.538 207.357 308.336C207.704 309.135 208.233 309.841 208.901 310.4C208.304 310.731 207.799 311.207 207.432 311.783C207.065 312.36 206.848 313.018 206.801 313.7C206.77 314.133 206.824 314.568 206.962 314.98C207.099 315.391 207.316 315.772 207.601 316.1C206.972 316.486 206.455 317.032 206.104 317.682C205.753 318.331 205.579 319.062 205.601 319.8C205.601 322.5 208.001 325.3 213.401 325.3C218.801 325.3 222.201 322.6 222.201 318.7C222.201 311.3 210.801 316.3 210.801 312.9C210.823 312.649 210.907 312.407 211.047 312.197C211.187 311.988 211.377 311.817 211.601 311.7C212.321 311.871 213.062 311.938 213.801 311.9C217.701 311.9 220.501 309.6 220.501 305.8C220.507 305.122 220.406 304.446 220.201 303.8H222.701V300.2ZM213.701 308.8C213.299 308.83 212.896 308.773 212.518 308.632C212.141 308.492 211.798 308.272 211.513 307.988C211.228 307.703 211.008 307.36 210.868 306.982C210.728 306.605 210.671 306.202 210.701 305.8C210.684 305.41 210.752 305.022 210.899 304.661C211.047 304.3 211.271 303.975 211.556 303.709C211.841 303.443 212.18 303.242 212.551 303.119C212.921 302.997 213.313 302.956 213.701 303C214.088 302.956 214.481 302.997 214.851 303.119C215.221 303.242 215.561 303.443 215.846 303.709C216.131 303.975 216.355 304.3 216.502 304.661C216.65 305.022 216.718 305.41 216.701 305.8C216.731 306.202 216.674 306.605 216.533 306.982C216.393 307.36 216.173 307.703 215.888 307.988C215.604 308.272 215.261 308.492 214.883 308.632C214.506 308.773 214.102 308.83 213.701 308.8ZM217.901 319.3C217.901 320.6 216.401 321.8 213.801 321.8C211.201 321.8 209.701 321 209.701 319.2C209.693 318.859 209.76 318.521 209.898 318.21C210.037 317.899 210.242 317.622 210.501 317.4C213.701 317.9 217.901 317 217.901 319.3ZM238.701 291.5H232.501V315.6H238.701C247.301 315.6 251.701 311.4 251.701 303.1C251.701 294.8 247.301 291.5 238.701 291.5ZM238.701 311.8H237.001V295.3H238.701C244.301 295.3 247.201 298 247.201 303.1C247.201 308.2 244.301 311.8 238.701 311.8ZM261.301 299.8C256.301 299.8 253.801 303.2 253.801 307.7C253.801 312.2 257.301 316.1 261.701 316.1C263.943 316.106 266.136 315.444 268.001 314.2L266.701 311.2C265.387 312.054 263.867 312.538 262.301 312.6C261.287 312.658 260.289 312.329 259.51 311.679C258.73 311.03 258.226 310.107 258.101 309.1H268.201C268.501 303.8 266.901 299.8 261.301 299.8ZM261.201 303.4C263.201 303.4 263.901 304.8 264.101 306.4H258.101C258.401 304.6 259.401 303.4 261.201 303.4ZM279.201 299.8C278.267 299.809 277.346 300.019 276.5 300.416C275.654 300.812 274.904 301.387 274.301 302.1V300.3H270.701V315.6H274.901V305.2C275.224 304.7 275.669 304.291 276.193 304.011C276.718 303.731 277.306 303.59 277.901 303.6C280.001 303.6 280.601 304.9 280.601 306.6V315.6H284.801V306.2C284.801 301.8 282.301 299.8 279.201 299.8ZM298.101 311.6C297.281 311.967 296.398 312.171 295.501 312.2C295.169 312.234 294.833 312.191 294.519 312.076C294.206 311.961 293.923 311.776 293.692 311.535C293.46 311.294 293.287 311.003 293.185 310.685C293.082 310.368 293.054 310.031 293.101 309.7V303.6H297.501V300.3H293.101V295.6H289.001V300.3H286.601V303.6H289.001V310.1C289.001 314.3 291.101 316 294.601 316C296.113 316.003 297.611 315.697 299.001 315.1L298.101 311.6ZM302.801 296.5C303.142 296.515 303.482 296.458 303.799 296.331C304.116 296.205 304.403 296.012 304.639 295.766C304.876 295.52 305.057 295.226 305.171 294.904C305.285 294.582 305.33 294.24 305.301 293.9C305.301 293.237 305.037 292.601 304.569 292.132C304.1 291.663 303.464 291.4 302.801 291.4C302.138 291.4 301.502 291.663 301.033 292.132C300.564 292.601 300.301 293.237 300.301 293.9C300.272 294.24 300.316 294.582 300.43 294.904C300.544 295.226 300.726 295.52 300.962 295.766C301.199 296.012 301.485 296.205 301.802 296.331C302.119 296.458 302.46 296.515 302.801 296.5ZM304.901 300.3H300.701V315.6H304.901V300.3ZM308.501 311.9L307.501 315C309.394 315.685 311.387 316.057 313.401 316.1C317.201 316.1 320.101 314.3 320.101 310.8C320.101 305.1 312.001 307.2 312.001 304.6C312.001 303.6 312.801 303.1 314.601 303.1C316.029 303.186 317.441 303.454 318.801 303.9L319.501 300.8C317.82 300.111 316.017 299.771 314.201 299.8C310.801 299.8 307.601 301.4 307.601 304.8C307.601 310.7 315.801 308.5 315.801 311.2C315.801 312.2 314.701 312.8 313.101 312.8C311.531 312.733 309.98 312.43 308.501 311.9ZM331.701 311.6C330.916 311.964 330.066 312.168 329.201 312.2C328.868 312.234 328.533 312.191 328.219 312.076C327.906 311.961 327.623 311.776 327.392 311.535C327.16 311.294 326.987 311.003 326.885 310.685C326.782 310.368 326.754 310.031 326.801 309.7V303.6H331.101V300.3H326.801V295.6H322.601V300.3H320.301V303.6H322.601V310.1C322.601 314.3 324.701 316 328.201 316C329.714 316.012 331.213 315.705 332.601 315.1L331.701 311.6Z" fill="white"/>
</svg>
