<svg width="104" height="72" viewBox="0 0 104 72" fill="none" xmlns="http://www.w3.org/2000/svg">
<path d="M20.9478 24.828C20.2723 25.8389 19.1345 26.4797 17.8917 26.4797C15.5274 26.4797 13.7337 24.3854 13.7337 20.1439C13.7337 17.5177 14.4977 14.6174 16.8587 14.6174C18.8492 14.6174 20.3215 17.2237 20.7675 19.6484H20.9085V14.4885H20.7675C20.7675 14.8552 20.6265 15.093 20.2527 15.093C19.6493 15.093 18.777 14.4489 16.8784 14.4489C13.2025 14.4489 10.1102 16.7447 10.1102 20.8574C10.1102 23.9626 11.8416 26.0965 14.1141 26.9521H11.6416V27.071C12.9106 27.1041 13.2058 27.4972 13.4681 28.3296L11.658 34.2195C11.2875 35.4946 10.3267 38.3057 8.84122 38.3388V38.4577H13.3468V38.3388C11.0382 38.3057 11.3498 35.7357 11.8613 34.051L12.0777 33.3705H15.0027L15.9012 36.3303C16.4292 38.0679 15.993 38.3057 14.7568 38.3388V38.4577H20.4232V38.3388C19.8657 38.3057 19.387 38.0481 18.9049 36.5186L16.0914 27.365C16.2127 27.3716 16.3341 27.3749 16.4554 27.3749C18.5868 27.3749 20.1674 26.4004 21.02 24.9701L20.9478 24.8247V24.828ZM13.1369 55.0306C13.1369 55.0306 13.9469 50.4059 23.1809 49.2663C32.415 48.1233 38.406 48.5032 38.406 48.5032L53.0376 49.2663C53.0376 49.2663 73.8045 50.7561 77.4705 50.2309C81.1366 49.7023 94.8861 50.7165 96.5716 39.1118C96.5716 39.1118 97.4143 45.1305 89.3181 49.1474C81.2219 53.1642 69.4989 52.5168 69.4989 52.5168C69.4989 52.5168 59.9271 52.1336 53.8377 51.6315C44.1544 50.8354 35.4941 50.1318 25.8174 50.2573C21.2692 50.3168 15.5012 50.9147 13.1402 55.034L13.1369 55.0306ZM27.8045 1.32134C27.8045 0.977794 27.9783 0.90512 28.7653 0.90512C30.4541 0.888603 31.3886 2.73188 31.3886 6.098C31.3886 10.6401 30.1655 11.5089 28.7817 11.5089C27.9652 11.5089 27.8045 11.2909 27.8045 10.8747V1.32134ZM24.4401 0.270875V0.796109C25.3288 0.848963 25.4731 0.941457 25.4731 1.81024V10.6038C25.4731 11.4527 25.3845 11.5618 24.4401 11.5981V12.1398H28.3882C30.3983 12.1398 33.9529 11.8855 33.9529 5.96917C33.9529 4.01688 33.6185 2.62287 32.8151 1.64507C32.0281 0.687099 30.8771 0.270875 29.0703 0.270875H24.4368H24.4401ZM39.8882 7.77941C40.3965 7.77941 40.6457 7.65388 40.6457 7.09231C40.6457 5.73463 40.2817 3.58414 37.6026 3.58414C35.0974 3.58414 34.2382 5.59259 34.2382 7.96109C34.2382 10.2767 34.9662 12.3744 37.56 12.3579C39.2061 12.3579 40.0817 11.3437 40.5604 9.77133L40.18 9.51698C39.7144 10.693 39.0881 11.0894 38.2716 11.0894C36.9468 11.0894 36.4812 9.69536 36.4812 7.77941H39.8915H39.8882ZM36.4779 7.10883C36.4779 5.69829 36.7271 4.21509 37.5403 4.21509C38.3142 4.21509 38.4716 5.51661 38.4716 6.58359C38.4716 7.03615 38.3536 7.10883 38.0486 7.10883H36.4746H36.4779ZM47.7582 6.22353C47.7582 4.63131 47.1319 3.58084 45.7054 3.58084C44.9479 3.58084 44.3052 4.08625 43.3903 4.73702L43.2165 3.59736L40.4785 4.10277V4.60818L40.931 4.69738C41.1212 4.73371 41.2359 4.87906 41.2359 5.56616V10.8317C41.2359 11.5023 41.1474 11.5551 40.3899 11.6113V12.1365H44.0757V11.6113C43.6658 11.5551 43.3903 11.5915 43.3903 10.9044V6.56377C43.3903 6.18389 43.433 5.76766 43.5215 5.54964C43.6822 5.1169 44.0167 4.75353 44.5708 4.75353C45.2562 4.75353 45.6038 5.29528 45.6038 6.27308V10.9407C45.6038 11.6278 45.3283 11.5551 44.9184 11.6113V12.1365H48.6042V11.6113C47.8467 11.5551 47.7582 11.5386 47.7582 10.8515V6.22022V6.22353ZM52.1424 4.54212V3.79886H50.7881V1.66489H49.9716L48.719 3.79886H47.8729V4.54212H48.6468V10.1314C48.6468 11.7071 49.4764 12.3579 50.2634 12.3579C50.8012 12.3579 51.5292 12.1233 52.3457 11.4164L52.2276 11.0002C52.0539 11.0894 51.7915 11.162 51.6013 11.162C51.1062 11.162 50.7848 10.693 50.7848 9.62599V4.54212H52.1391H52.1424ZM54.3361 0C53.6082 0 53.2147 0.650761 53.2147 1.39402C53.2147 2.15379 53.6082 2.82437 54.3361 2.82437C55.051 2.82437 55.4871 2.15379 55.4871 1.39402C55.4871 0.650761 55.0805 0 54.3493 0L54.3361 0ZM53.3163 10.802C53.3163 11.4891 53.2147 11.5783 52.4867 11.6146V12.1398H56.3167V11.6146C55.5593 11.5585 55.4707 11.4891 55.4707 10.802V3.67333L55.3822 3.60066L52.5556 4.08956V4.61479L53.0081 4.70398C53.2114 4.74032 53.313 4.88567 53.313 5.57277V10.802H53.3163ZM61.0551 6.46137V4.18205C60.4878 3.74931 59.7139 3.58414 59.0155 3.58414C57.3825 3.58414 56.3627 4.61479 56.3627 6.33254C56.3627 7.58121 56.9463 8.37732 58.2842 9.04459C59.0844 9.46082 59.668 9.91338 59.668 10.6732C59.668 11.3801 59.3041 11.7401 58.7499 11.7401C57.8907 11.7401 57.0742 10.3825 56.7266 8.99174H56.2905L56.4643 11.5618C56.93 12.1398 57.9662 12.3579 58.7072 12.3579C60.3239 12.3579 61.5044 11.4164 61.5044 9.51698C61.5044 8.08662 60.8354 7.39952 59.5828 6.7851C58.7368 6.36888 58.1564 5.98899 58.1564 5.26555C58.1564 4.66764 58.4318 4.21509 59.0155 4.21509C59.6713 4.21509 60.3862 5.17306 60.6485 6.45807H61.0551V6.46137ZM65.6886 4.54212V3.79886H64.3343V1.66489H63.5178L62.2651 3.79886H61.4191V4.54212H62.1897V10.1314C62.1897 11.7071 63.0193 12.3579 63.8063 12.3579C64.3441 12.3579 65.0754 12.1233 65.8886 11.4164L65.7705 11.0002C65.5967 11.0894 65.3344 11.162 65.1442 11.162C64.6491 11.162 64.3277 10.693 64.3277 9.62599V4.54212H65.682H65.6886ZM68.9415 6.80492C68.9415 5.97247 69.0431 5.55625 69.3776 5.55625C69.5809 5.55625 69.7875 5.73793 70.0761 6.00881C70.2499 6.19049 70.4105 6.35236 70.6893 6.35236C71.3451 6.35236 71.7091 5.51991 71.7091 4.83281C71.7091 4.0367 71.3156 3.58414 70.7188 3.58414C70.122 3.58414 69.699 4.10938 68.8824 5.22922L68.7218 3.60066L66.0263 4.10607V4.61149L66.4788 4.70068C66.6821 4.73702 66.7838 4.89888 66.7838 5.56946V10.7987C66.7838 11.5056 66.6953 11.5585 65.9378 11.6113V12.1365H70.0761V11.6113C69.0431 11.5386 68.9382 11.5023 68.9382 10.7987V6.80161L68.9415 6.80492ZM76.8475 3.80217V4.34392L77.546 4.45293C77.7493 4.46944 77.8214 4.59827 77.7493 4.95834C77.3984 6.56708 76.9492 8.41365 76.5393 9.91668H76.5098C76.0867 8.54248 75.4178 6.55056 74.9948 5.0145C74.9062 4.67095 74.9358 4.48926 75.1391 4.45293L75.6637 4.34392V3.80217H71.7451V4.34392C72.3288 4.45293 72.46 4.41659 72.7059 5.12021C73.4044 7.10883 74.4111 10.0224 75.1981 12.4834C75.2998 12.8269 75.4735 13.514 75.3719 13.7849C75.1981 14.3828 75.021 14.5612 74.7456 14.5612C74.5849 14.5612 74.3652 14.4159 74.2209 14.2705C73.9291 13.9996 73.8405 13.9071 73.5946 13.9071C73.1585 13.9071 72.6764 14.6669 72.6764 15.3375C72.6764 16.0246 73.2437 16.4408 73.7553 16.4408C74.762 16.4408 75.3424 15.7537 76.0867 13.3125C76.8869 10.726 77.7198 7.73977 78.4313 5.51661C78.7363 4.55863 78.7658 4.41329 79.5528 4.34061V3.79886H76.8442L76.8475 3.80217ZM76.4179 42.9536C76.4179 43.1088 76.4934 43.1848 76.6278 43.1848C76.7721 43.1848 76.9131 43.0956 77.1656 43.0956C77.464 43.0956 77.7427 43.198 77.7427 44.0437C77.7427 44.6416 77.6148 45.0743 77.218 45.0743C76.9524 45.0743 76.7295 44.9125 76.5229 44.2947C76.4835 44.1593 76.4081 44.0635 76.2507 44.0635C76.0408 44.0635 75.7621 44.2386 75.7621 44.5458C75.7621 44.7902 76.0277 45.3056 77.218 45.3056C78.2674 45.3056 78.8707 44.8167 78.8707 44.0106C78.8707 43.089 77.9788 42.9866 77.6443 42.9337V42.8644C78.0674 42.7752 78.6773 42.6199 78.6773 41.9626C78.6773 41.0607 77.8804 40.8989 77.2279 40.8989C76.4376 40.8989 75.8474 41.292 75.8474 41.7544C75.8474 42.0121 76.1195 42.1409 76.29 42.1409C76.4409 42.1409 76.4999 42.0584 76.5491 41.9163C76.7196 41.4142 76.8344 41.1367 77.1492 41.1367C77.5361 41.1367 77.5984 41.6653 77.5984 41.9361C77.5984 42.3424 77.5591 42.8049 77.1623 42.8049C76.9229 42.8049 76.7819 42.7223 76.618 42.7223C76.4901 42.7223 76.4147 42.7983 76.4147 42.947V42.9536H76.4179ZM62.1274 43.9776L61.9503 43.9314C61.6978 44.3872 61.5962 44.4335 61.406 44.4335H59.4582C59.5729 44.2221 60.0353 43.9049 60.7633 43.5647C61.5798 43.165 61.9011 42.8247 61.9011 42.1542C61.9011 41.2457 61.2748 40.8989 60.419 40.8989C59.3992 40.8989 58.9007 41.4208 58.9007 41.9493C58.9007 42.2136 59.1532 42.3821 59.3893 42.3821C59.5238 42.3821 59.6549 42.3193 59.6877 42.1376C59.8254 41.4538 59.9599 41.1334 60.3075 41.1334C60.6747 41.1334 60.7895 41.5001 60.7895 41.9394C60.7895 42.3259 60.7567 42.8479 60.0484 43.4722C59.1303 44.265 58.8581 44.7473 58.8581 45.1734L58.9007 45.2263H61.8487L62.1274 43.971V43.9776ZM43.5904 41.1367C44.1019 41.1367 44.1085 42.3458 44.1085 43.1055C44.1085 43.9115 44.0954 45.0809 43.6035 45.0809C43.0919 45.0809 43.0788 43.9016 43.0788 43.1055C43.0788 42.3458 43.0723 41.1367 43.5838 41.1367H43.5904ZM43.5969 40.8989C42.3574 40.8989 41.9836 41.9361 41.9836 43.1022C41.9836 44.2419 42.364 45.3056 43.5969 45.3056C44.8364 45.3056 45.2037 44.2617 45.2037 43.1022C45.2037 41.9493 44.8102 40.8989 43.6035 40.8989H43.5969ZM28.3882 43.9776L28.2112 43.9314C27.9587 44.3872 27.857 44.4335 27.6668 44.4335H25.7223C25.837 44.2221 26.2994 43.9049 27.0274 43.5647C27.8439 43.165 28.1652 42.8247 28.1652 42.1542C28.1652 41.2457 27.5389 40.8989 26.6831 40.8989C25.6633 40.8989 25.1648 41.4208 25.1648 41.9493C25.1648 42.2136 25.4173 42.3821 25.6534 42.3821C25.7911 42.3821 25.919 42.3193 25.9518 42.1376C26.0863 41.4538 26.224 41.1334 26.5716 41.1334C26.9388 41.1334 27.0536 41.5001 27.0536 41.9394C27.0536 42.3259 27.0208 42.8479 26.3125 43.4722C25.3944 44.265 25.1222 44.7473 25.1222 45.1734L25.1615 45.2263H28.1095L28.3882 43.971V43.9776ZM96.6208 38.5832H96.7552C96.7552 38.3289 96.8306 37.9886 97.2077 37.9886C97.8832 37.9886 98.6801 38.6691 100.093 38.6691C102.513 38.6691 104.002 37.0703 104.002 34.9925C104.002 33.0005 102.845 31.9798 100.516 30.7212C99.6737 30.2092 98.3981 29.4627 98.3981 28.2867C98.3981 27.2824 99.2703 26.9092 100.051 26.9092C101.658 26.9092 102.756 28.4584 103.117 30.3645H103.238V26.7737H103.117C103.117 27.0644 102.982 27.2659 102.668 27.2659C102.185 27.2659 101.405 26.7539 100.218 26.7539C98.0702 26.7539 96.6568 28.1314 96.6568 30.1068C96.6568 31.9963 97.7685 32.7099 99.7983 34.0213C100.789 34.7018 101.976 35.4516 101.976 36.7598C101.976 37.8135 101.33 38.4775 100.218 38.4775C98.0833 38.4775 96.7454 36.0793 96.5224 33.8991L96.4011 33.9156L96.6273 38.5799L96.6208 38.5832ZM85.7274 38.4643H90.174C92.6694 38.4643 95.6141 36.4724 95.6141 32.5249C95.6141 29.2116 93.5318 27.5401 91.3873 27.0875H93.8892V21.8352H93.7286C93.6925 23.9097 92.0037 26.9224 89.164 26.9224H88.6656V16.3087C88.6656 15.245 89.1443 14.8387 90.5675 14.8023V14.6735H83.5501V14.8023C84.97 14.8387 85.452 15.2417 85.452 16.3087V25.4524C85.452 26.5161 84.9732 26.9389 83.5501 26.9587V27.0875H84.9011C85.9406 27.1602 86.298 27.5467 86.298 28.4716V36.9481C86.298 37.731 86.0422 38.1274 85.3372 38.276C85.1569 38.2099 84.9831 38.0976 84.8257 37.9358C84.1043 37.2222 83.6222 35.6201 82.6614 34.4805C82.045 33.7306 81.0251 33.2054 79.943 33.1855C79.6282 33.169 79.7332 33.136 79.943 33.1162C82.3335 32.9642 83.9698 31.6858 83.9698 29.9152C83.9698 28.584 83.0418 27.4542 81.2448 27.0842H84.1698V26.9554C83.5304 26.9191 83.15 26.5755 82.4286 24.9899L77.7099 14.6438H77.5001C76.5557 17.27 75.4637 19.8301 74.4242 22.4265C73.8864 23.7644 72.5912 26.9158 70.886 26.9521V27.0809H74.4013C75.4408 27.1536 75.7982 27.5401 75.7982 28.465V36.9415C75.7982 37.8268 75.4703 38.2199 74.5357 38.3157C74.0701 38.2298 73.6569 37.8763 73.2437 36.5153L70.3876 26.9521H69.3382C70.3482 26.5359 71.132 25.8356 71.6501 24.9701L71.5779 24.8247C70.9024 25.8356 69.7645 26.4764 68.5217 26.4764C66.1608 26.4764 64.3638 24.3821 64.3638 20.1406C64.3638 17.5144 65.1278 14.6141 67.4888 14.6141C69.4793 14.6141 70.9516 17.2204 71.3976 19.6451H71.5386V14.4852H71.3976C71.3976 14.8519 71.2566 15.0897 70.8827 15.0897C70.2794 15.0897 69.4071 14.4456 67.5085 14.4456C63.8326 14.4456 60.7403 16.7414 60.7403 20.8541C60.7403 23.9593 62.4717 26.0932 64.7442 26.9488H62.4225V27.0677C64.1802 27.1008 63.8949 29.4494 63.2784 31.1705L61.852 35.3558L59.8681 28.7029C59.4155 27.289 59.7467 27.1041 60.4255 27.0677H60.5764V26.9488H60.2419C58.8384 26.9092 58.3629 26.5028 58.3629 25.4425V16.2988C58.3629 15.2351 58.8417 14.8288 60.2648 14.7924V14.6636H53.2475V14.7924C54.6673 14.8288 55.1494 15.2318 55.1494 16.2988V25.4425C55.1494 26.5028 54.6739 26.9059 53.2704 26.9488H51.0275V19.8235C51.0275 17.4351 51.5784 14.809 53.5491 14.7924V14.6636H48.0959V14.7924C50.4766 14.809 50.8504 17.7489 50.8504 20.4313V23.368C50.8504 23.5331 50.7619 23.5695 50.6733 23.4406L44.8824 14.6636H39.6062V14.7924C40.9933 14.8288 41.7016 15.691 42.3049 16.5928V21.3133C42.3049 23.7016 42.2885 26.9323 39.7636 26.9521V27.0809H42.8755C43.9314 27.1536 44.197 27.5467 44.4397 28.3296L42.682 34.2195C42.3213 35.4946 41.3901 38.3057 39.9472 38.3388V38.4577H44.3216V38.3388C42.082 38.3057 42.3836 35.7357 42.8788 34.051L43.0887 33.3705H45.9284L46.8007 36.3303C47.3122 38.0679 46.8892 38.3057 45.689 38.3388V38.4577H51.1882V38.3388C50.6471 38.3057 50.1815 38.0481 49.7158 36.5186L46.8597 26.9554H45.2037C42.8394 26.9158 42.4656 22.6511 42.4656 19.9952V16.8736C42.482 16.9099 42.5017 16.9297 42.5181 16.966L49.1256 27.0842H49.3846C50.2077 27.1602 50.5979 27.6029 50.8668 28.4518L54.0836 38.5766H54.8215L57.4972 31.0879C57.5268 31.0185 57.5563 30.9161 57.6022 30.8137L60.0812 38.5733H60.8026L63.5079 30.9987C63.8785 29.9582 64.8655 27.8704 65.8033 27.2461C66.2231 27.3287 66.6526 27.3683 67.0888 27.3683C67.197 27.3683 67.3019 27.365 67.4068 27.3617C67.6921 27.5665 67.8364 27.8836 67.9708 28.3263L66.2132 34.2162C65.8525 35.4913 64.9212 38.3024 63.4784 38.3355V38.4544H67.8528V38.3355C65.6131 38.3024 65.9148 35.7324 66.41 34.0477L66.6198 33.3672H69.4596L70.3318 36.327C70.8434 38.0646 70.4204 38.3024 69.2202 38.3355V38.4544H74.1947H74.7193H80.1299V38.3355C78.9265 38.3024 78.5232 37.9259 78.5232 36.9415V27.0875H78.9429C80.4742 27.0875 81.1366 28.5014 81.1366 29.9284C81.1366 31.4777 80.3693 33.0435 79.1527 33.06V33.2318C80.3988 33.2318 80.671 37.0273 81.6777 38.4577H84.6978H85.734L85.7274 38.4643ZM89.0197 38.3289V27.0974H90.1018C92.0693 27.0974 92.6858 29.6344 92.6858 32.5249C92.6858 35.2997 92.0693 38.3289 90.0854 38.3289H89.0197ZM77.6935 26.9587H76.0343C73.411 26.9059 73.9061 23.9989 74.657 22.2481L74.9718 21.5148H78.2641L78.9888 24.7917C79.4118 26.7043 79.1003 26.9191 77.6968 26.9587H77.6935ZM66.6592 33.2219L68.043 28.574L69.4104 33.2219H66.6592ZM55.3789 27.0875C56.202 27.1635 56.5791 27.6062 56.848 28.4551L57.5104 30.5131C57.4349 30.751 57.3595 30.9888 57.2841 31.1936L55.8577 35.3624L53.8902 28.7095C53.4704 27.3981 53.7262 27.1437 54.3066 27.0842H55.3822L55.3789 27.0875ZM43.128 33.2219L44.5118 28.574L45.8792 33.2219H43.128ZM28.3062 38.4643H37.5502V34.2261H37.396C37.3797 36.0297 35.8483 38.3124 33.402 38.3124H32.7659V32.8816H33.3693C34.5006 32.8816 35.5827 33.7504 35.5991 34.8405H35.7368V30.6717H35.5991C35.5827 31.8113 34.517 32.6966 33.3693 32.6966H32.7659V27.114H33.4152C35.8155 27.114 37.0681 29.3933 37.0845 31.1308H37.2387V27.0908H39.6718V26.962C38.2519 26.9257 37.7699 26.5227 37.7699 25.4557V16.312C37.7699 15.2483 38.2486 14.842 39.6718 14.8057V14.6768H32.6544V14.8057C34.0743 14.842 34.5563 15.245 34.5563 16.312V25.4557C34.5563 26.5161 34.0808 26.9191 32.6774 26.962H32.0871V21.8385H31.9264C31.8904 23.913 30.2016 26.9257 27.3619 26.9257H27.3291V26.7737H27.2045C27.2045 26.8266 27.2012 26.8794 27.1913 26.9257H26.8667V16.312C26.8667 15.2483 27.3455 14.842 28.7686 14.8057V14.6768H21.7512V14.8057C23.1711 14.842 23.6531 15.245 23.6531 16.312V25.4557C23.6531 26.5194 23.1744 26.9422 21.7512 26.962V27.0908H22.4923C21.2823 27.6128 20.5511 28.7128 20.5511 30.1101C20.5511 31.9996 21.6955 32.7132 23.7876 34.0246C24.8107 34.7051 26.0338 35.4549 26.0338 36.7631C26.0338 37.8168 25.3681 38.4808 24.2204 38.4808C22.0201 38.4808 20.6429 36.0826 20.4101 33.9024L20.2854 33.9189L20.5183 38.5832H20.656C20.656 38.3289 20.7347 37.9886 21.1216 37.9886C21.8168 37.9886 22.6399 38.6691 24.0958 38.6691C26.588 38.6691 28.1226 37.0703 28.1226 34.9925C28.1226 33.0005 26.929 31.9798 24.5319 30.7212C23.6663 30.2092 22.348 29.4627 22.348 28.2867C22.348 27.6689 22.6891 27.289 23.1383 27.0875H24.9877C26.1322 27.5467 26.9126 28.8416 27.2077 30.3612H27.3323V27.0875H28.5259C29.5982 27.1602 29.9655 27.5467 29.9655 28.4716V36.9481C29.9655 37.9358 29.5458 38.309 28.3095 38.3421V38.461L28.3062 38.4643ZM27.1258 27.0875C27.0536 27.1999 26.929 27.2659 26.7421 27.2659C26.5453 27.2659 26.2994 27.1866 26.001 27.0875H27.1258ZM12.1269 33.2219L13.5501 28.574L14.9601 33.2219H12.1269ZM9.44786 36.37C8.86089 37.3048 7.86731 37.9027 6.78519 37.9027C4.72588 37.9027 3.16173 35.9637 3.16173 32.0327C3.16173 29.5981 3.82739 26.9092 5.8867 26.9092C7.62137 26.9092 8.9068 29.3272 9.29374 31.5735H9.41835V26.7902H9.29374C9.29374 27.1305 9.16913 27.3518 8.84449 27.3518C8.31655 27.3518 7.55907 26.7572 5.9031 26.7572C2.69937 26.7572 0.00390625 28.8846 0.00390625 32.6966C0.00390625 36.5087 2.65018 38.7385 5.53255 38.7385C7.39183 38.7385 8.76907 37.8367 9.51016 36.5087L9.44786 36.3733V36.37ZM75.0243 21.3496L77.0082 16.4474L78.2084 21.3496H75.021H75.0243Z" fill="url(#paint0_linear_1127_56001)"/>
<path d="M10.9928 71.8316H3.68359V71.6632C4.15907 71.6632 4.56569 71.4683 4.90344 71.0818C5.24119 70.6953 5.40843 70.2229 5.40843 69.6613V58.8296C5.40843 58.2647 5.24119 57.7924 4.90344 57.4158C4.56569 57.0326 4.16235 56.8443 3.68359 56.8443V56.6626H15.7312V61.2179H15.5508C15.3541 60.4714 15.0098 59.7711 14.5146 59.1104C14.0228 58.4497 13.4391 57.908 12.7668 57.4818C12.0979 57.0557 11.3962 56.841 10.6715 56.841H8.85481V64.964H10.8256C11.7208 64.964 12.4914 64.7922 13.1374 64.4519C13.7834 64.1084 14.1015 63.7021 14.1015 63.2264H14.2687V66.8667H14.1015C14.1015 66.3877 13.7834 65.9781 13.1374 65.6378C12.4914 65.2976 11.7208 65.1324 10.8256 65.1324H8.85481V69.658C8.85481 70.2163 9.0614 70.692 9.48113 71.0785C9.90414 71.465 10.4059 71.6599 10.9928 71.6599V71.8283V71.8316ZM23.552 71.8316H16.6723V71.6632C17.1478 71.6632 17.5544 71.4683 17.8922 71.0818C18.2299 70.6953 18.3971 70.2229 18.3971 69.6613V58.8296C18.3971 58.2647 18.2299 57.7924 17.8922 57.4158C17.5544 57.0326 17.1511 56.8443 16.6723 56.8443V56.6626H23.552V56.8443C23.083 56.8443 22.6797 57.0326 22.3452 57.4158C22.0108 57.7957 21.8435 58.268 21.8435 58.8296V69.6613C21.8435 70.2196 22.0108 70.6953 22.3452 71.0818C22.683 71.4683 23.083 71.6632 23.552 71.6632V71.8316ZM36.5505 71.8316H34.9241L25.9654 59.0873V67.9304C25.9654 68.9445 26.1327 69.8232 26.4737 70.5598C26.8114 71.2965 27.2148 71.6665 27.6837 71.6665V71.8349H24.0701V71.6665C24.5455 71.6665 24.9522 71.2998 25.2899 70.5598C25.6277 69.8232 25.7949 68.9445 25.7949 67.9304V60.7885C25.7949 60.1146 25.7162 59.4738 25.5621 58.8726C25.408 58.268 25.2014 57.7791 24.939 57.4059C24.6767 57.0293 24.3881 56.8476 24.0701 56.8476V56.6659H28.6904L36.3669 67.5373V60.5672C36.3669 59.5531 36.1996 58.6744 35.8586 57.941C35.5176 57.2077 35.1175 56.8443 34.6552 56.8443V56.6626H38.2688V56.8443C37.7999 56.8443 37.3965 57.2077 37.0588 57.941C36.7178 58.6744 36.5505 59.5531 36.5505 60.5672V71.8316ZM53.4676 71.8316H46.3355V71.6632C46.6503 71.6632 46.8864 71.5178 47.0438 71.2271C47.2012 70.9298 47.2799 70.5598 47.2799 70.1073C47.2799 69.4829 47.1323 68.7628 46.8372 67.9634L46.6569 67.4976H40.997C40.7937 68.0163 40.6396 68.4787 40.5314 68.8784C40.4199 69.2748 40.3674 69.6944 40.3674 70.1304C40.3674 70.583 40.4461 70.9496 40.6035 71.2337C40.7609 71.5211 41.0003 71.6632 41.325 71.6632V71.8316H37.5211V71.6632C37.9146 71.6632 38.3016 71.4848 38.6885 71.128C39.0722 70.7746 39.4329 70.3154 39.7674 69.7538C40.1051 69.1956 40.397 68.5877 40.6494 67.9304L45.0304 56.6659H45.8895L50.2574 67.9304C50.5066 68.5877 50.8083 69.1956 51.1591 69.7538C51.51 70.3187 51.8838 70.7746 52.2806 71.128C52.6806 71.4848 53.0742 71.6632 53.4611 71.6632V71.8316H53.4676ZM46.6011 67.3259L43.8368 60.217L41.0757 67.3259H46.5978H46.6011ZM65.8792 71.8316H53.8316V71.6632C54.3071 71.6632 54.7137 71.4683 55.0515 71.0818C55.3892 70.6953 55.5565 70.2229 55.5565 69.6613V58.8296C55.5565 58.2647 55.3892 57.7924 55.0515 57.4158C54.7137 57.0326 54.3104 56.8443 53.8316 56.8443V56.6626H60.7113V56.8443C60.2424 56.8443 59.839 57.0326 59.5046 57.4158C59.1701 57.7957 59.0028 58.268 59.0028 58.8296V71.6632H60.8195C61.5475 71.6632 62.2459 71.4517 62.9149 71.0157C63.5904 70.5863 64.1741 70.0412 64.6627 69.3838C65.1578 68.7232 65.5021 68.0229 65.6989 67.2829H65.8792V71.8316ZM73.5426 71.8316H66.6629V71.6632C67.1384 71.6632 67.545 71.4683 67.8828 71.0818C68.2205 70.6953 68.3878 70.2229 68.3878 69.6613V58.8296C68.3878 58.2647 68.2205 57.7924 67.8828 57.4158C67.545 57.0326 67.1417 56.8443 66.6629 56.8443V56.6626H73.5426V56.8443C73.0737 56.8443 72.6703 57.0326 72.3359 57.4158C72.0014 57.7957 71.8342 58.268 71.8342 58.8296V69.6613C71.8342 70.2196 72.0014 70.6953 72.3359 71.0818C72.6736 71.4683 73.0737 71.6632 73.5426 71.6632V71.8316ZM80.3665 72.0001C79.8976 72.0001 79.4483 71.9539 79.0221 71.8614C78.3695 71.7127 77.635 71.4683 76.8185 71.1313C76.2151 70.8737 75.8216 70.7481 75.6314 70.7481C75.4543 70.7481 75.3199 70.7977 75.2183 70.8968C75.1199 70.9926 75.0543 71.1181 75.0117 71.2569C74.969 71.3989 74.9461 71.531 74.9461 71.6566H74.7264V67.2763H74.9461C75.1658 68.0163 75.5658 68.7331 76.1528 69.4169C76.7398 70.1073 77.4218 70.6788 78.1924 71.1379C78.9598 71.5971 79.6877 71.825 80.3632 71.825C81.2814 71.825 81.9766 71.6367 82.4521 71.2668C82.9275 70.8902 83.1636 70.3749 83.1636 69.7109C83.1636 69.1823 82.9997 68.71 82.6652 68.3003C82.3307 67.8874 81.9077 67.5075 81.3962 67.1607C80.8813 66.8105 80.3304 66.4736 79.75 66.1499L78.2908 65.291C77.13 64.6237 76.2774 64.0357 75.7396 63.527C74.9625 62.7705 74.5755 61.8852 74.5755 60.8612C74.5755 60.0353 74.7952 59.2954 75.2314 58.6347C75.6675 57.9773 76.2873 57.4554 77.0939 57.0722C77.9006 56.6857 78.8581 56.4941 79.973 56.4941C80.4551 56.4941 80.8912 56.5437 81.2847 56.6428C81.8716 56.7848 82.4848 57.026 83.1243 57.3728C83.5801 57.6173 83.8982 57.7461 84.0883 57.7461C84.272 57.7461 84.4064 57.6966 84.5048 57.5975C84.5999 57.4951 84.6655 57.3761 84.7081 57.2341C84.7507 57.0887 84.7737 56.9599 84.7737 56.8476H84.9934V61.2245H84.7737C84.5704 60.478 84.2293 59.7579 83.7506 59.0675C83.2784 58.3737 82.7078 57.8056 82.052 57.3497C81.3929 56.8938 80.701 56.6659 79.973 56.6659C79.3336 56.6659 78.8122 56.7782 78.4023 56.9996C77.9891 57.2242 77.6907 57.5182 77.4907 57.8882C77.2972 58.2614 77.1956 58.6644 77.1956 59.1005C77.1956 59.629 77.3399 60.0816 77.6219 60.4648C77.9039 60.8447 78.2777 61.1882 78.7401 61.4888C79.5795 62.0372 80.6518 62.6384 81.9503 63.2858C82.4553 63.5369 82.9472 63.8012 83.426 64.0786C83.908 64.3528 84.3343 64.6633 84.7114 65.0069C85.5443 65.7535 85.9607 66.7081 85.9607 67.8643C85.9607 68.6472 85.7673 69.3508 85.3803 69.9751C84.9967 70.5995 84.39 71.0917 83.567 71.455C82.7406 71.8184 81.6683 72.0001 80.3534 72.0001H80.3665ZM96.8738 71.8316H89.9941V71.6632C90.4696 71.6632 90.8795 71.4683 91.2139 71.0818C91.5517 70.6953 91.7189 70.2229 91.7189 69.6613V56.8443C90.9614 56.8443 90.2466 57.0491 89.5645 57.462C88.8857 57.8749 88.2988 58.4068 87.8003 59.0642C87.3019 59.7182 86.9445 60.4383 86.7182 61.2212H86.5543V56.6659H100.317V61.2212H100.14C99.9299 60.4417 99.5725 59.7182 99.0708 59.0575C98.5723 58.4002 97.9788 57.865 97.2968 57.4587C96.6147 57.0458 95.8998 56.8443 95.1489 56.8443V69.6613C95.1489 70.2196 95.3161 70.6953 95.6572 71.0818C95.9982 71.4683 96.4016 71.6632 96.8672 71.6632V71.8316H96.8738Z" fill="black"/>
<defs>
<linearGradient id="paint0_linear_1127_56001" x1="53.9623" y1="-2.1637" x2="73.2898" y2="50.6549" gradientUnits="userSpaceOnUse">
<stop/>
</linearGradient>
</defs>
</svg>
