<svg width="401" height="181" viewBox="0 0 401 181" fill="none" xmlns="http://www.w3.org/2000/svg">
<g clip-path="url(#clip0_1172_56511)">
<path d="M12.4008 0.499973H1.40083C0.700831 0.499973 0.400831 0.899973 0.400831 1.59997V29.7C0.384751 29.8352 0.399552 29.9722 0.444121 30.1009C0.48869 30.2295 0.561864 30.3464 0.658135 30.4427C0.754406 30.5389 0.871264 30.6121 0.99991 30.6567C1.12856 30.7013 1.26564 30.7161 1.40083 30.7H3.20083C3.33603 30.7161 3.47311 30.7013 3.60175 30.6567C3.7304 30.6121 3.84726 30.5389 3.94353 30.4427C4.0398 30.3464 4.11297 30.2295 4.15754 30.1009C4.20211 29.9722 4.21691 29.8352 4.20083 29.7V21H12.5008C19.9008 21 23.7008 16.6 23.7008 10.9C23.7008 5.19997 20.2008 0.499973 12.4008 0.499973ZM12.7008 17.8H4.20083V3.79997H12.4008C17.4008 3.79997 19.8008 7.39997 19.8008 10.9C19.8303 11.8312 19.6653 12.7584 19.3162 13.6222C18.9672 14.486 18.4418 15.2676 17.7736 15.9169C17.1055 16.5663 16.3093 17.0691 15.4358 17.3933C14.5623 17.7176 13.6308 17.8561 12.7008 17.8ZM31.7008 20.5H39.5008L46.4008 30.1C46.5346 30.2924 46.7146 30.4482 46.9243 30.5531C47.1339 30.6579 47.3666 30.7084 47.6008 30.7H49.9008C50.7008 30.7 51.0008 30.2 50.5008 29.5L43.7008 20.3C48.2008 19.2 51.1008 15.8 51.1008 10.6C51.1574 9.27165 50.9375 7.94606 50.455 6.70718C49.9725 5.4683 49.2379 4.34316 48.2978 3.40304C47.3576 2.46293 46.2325 1.72834 44.9936 1.24582C43.7547 0.763297 42.4291 0.543371 41.1008 0.599973H28.9008C28.2008 0.599973 27.9008 0.899973 27.9008 1.59997V29.7C27.8847 29.8352 27.8996 29.9722 27.9441 30.1009C27.9887 30.2295 28.0619 30.3464 28.1581 30.4427C28.2544 30.5389 28.3713 30.6121 28.4999 30.6567C28.6286 30.7013 28.7656 30.7161 28.9008 30.7H30.7008C30.836 30.7161 30.9731 30.7013 31.1018 30.6567C31.2304 30.6121 31.3473 30.5389 31.4435 30.4427C31.5398 30.3464 31.613 30.2295 31.6575 30.1009C31.7021 29.9722 31.7169 29.8352 31.7008 29.7V20.5ZM31.7008 17.2V3.79997H40.7008C46.0008 3.79997 47.3008 8.29997 47.3008 10.6C47.3008 15.2 44.4008 17.2 40.4008 17.2H31.7008ZM60.9008 0.499973H59.0008C58.8607 0.49927 58.7219 0.528046 58.5936 0.584435C58.4652 0.640823 58.3502 0.723564 58.2559 0.827288C58.1616 0.931012 58.0901 1.0534 58.0462 1.18652C58.0023 1.31963 57.9868 1.4605 58.0008 1.59997V29.7C57.9848 29.8352 57.9996 29.9722 58.0441 30.1009C58.0887 30.2295 58.1619 30.3464 58.2581 30.4427C58.3544 30.5389 58.4713 30.6121 58.5999 30.6567C58.7286 30.7013 58.8656 30.7161 59.0008 30.7H60.9008C61.036 30.7161 61.1731 30.7013 61.3018 30.6567C61.4304 30.6121 61.5473 30.5389 61.6435 30.4427C61.7398 30.3464 61.813 30.2295 61.8575 30.1009C61.9021 29.9722 61.9169 29.8352 61.9008 29.7V1.59997C61.9148 1.4605 61.8994 1.31963 61.8554 1.18652C61.8115 1.0534 61.7401 0.931012 61.6458 0.827288C61.5515 0.723564 61.4364 0.640823 61.3081 0.584435C61.1798 0.528046 61.041 0.49927 60.9008 0.499973ZM80.8008 30.7C81.1008 30.7 81.3008 30.6 81.6008 30L94.3008 1.69997C94.6008 0.999973 94.3008 0.499973 93.5008 0.499973H91.4008C91.1411 0.485244 90.8837 0.555299 90.6672 0.699587C90.4508 0.843875 90.2871 1.05458 90.2008 1.29997L80.8008 22.6L71.5008 1.29997C71.4145 1.05458 71.2509 0.843875 71.0344 0.699587C70.818 0.555299 70.5605 0.485244 70.3008 0.499973H68.1008C67.4008 0.499973 67.0008 0.999973 67.4008 1.69997L80.1008 30C80.3008 30.6 80.5008 30.7 80.8008 30.7ZM96.6008 29.9L98.9008 25H115.201L117.501 29.9C117.617 30.1448 117.801 30.3507 118.032 30.4927C118.263 30.6347 118.53 30.7067 118.801 30.7H121.001C121.701 30.7 122.001 30.1 121.701 29.4L107.901 1.19997C107.601 0.699973 107.401 0.499973 107.101 0.499973C106.801 0.499973 106.501 0.699973 106.301 1.19997L92.5008 29.4C92.1008 30.1 92.4008 30.7 93.2008 30.7H95.3008C95.5717 30.7067 95.8387 30.6347 96.0695 30.4927C96.3002 30.3507 96.4848 30.1448 96.6008 29.9ZM107.101 7.69997L113.601 21.7H100.601L107.101 7.69997ZM141.501 0.499973H121.401C121.261 0.49927 121.122 0.528046 120.994 0.584435C120.865 0.640823 120.75 0.723564 120.656 0.827288C120.562 0.931012 120.49 1.0534 120.446 1.18652C120.402 1.31963 120.387 1.4605 120.401 1.59997V2.69997C120.385 2.83517 120.4 2.97225 120.444 3.10089C120.489 3.22954 120.562 3.3464 120.658 3.44267C120.754 3.53894 120.871 3.61211 121 3.65668C121.129 3.70125 121.266 3.71605 121.401 3.69997H129.601V29.6C129.601 30.3 129.901 30.7 130.601 30.7H132.401C132.541 30.7007 132.68 30.6719 132.808 30.6155C132.936 30.5591 133.051 30.4764 133.146 30.3727C133.24 30.2689 133.312 30.1465 133.355 30.0134C133.399 29.8803 133.415 29.7395 133.401 29.6V3.69997H141.501C142.201 3.69997 142.501 3.39997 142.501 2.69997V1.59997C142.501 0.899973 142.201 0.499973 141.501 0.499973ZM166.801 0.499973H147.001C146.9 0.498936 146.8 0.519761 146.708 0.561017C146.615 0.602273 146.533 0.662984 146.467 0.738983C146.4 0.814982 146.351 0.904469 146.322 1.0013C146.294 1.09814 146.286 1.20002 146.301 1.29997V29.9C146.286 29.9999 146.294 30.1018 146.322 30.1986C146.351 30.2955 146.4 30.385 146.467 30.461C146.533 30.537 146.615 30.5977 146.708 30.6389C146.8 30.6802 146.9 30.701 147.001 30.7H166.801C166.91 30.7171 167.021 30.7082 167.126 30.674C167.231 30.6398 167.326 30.5814 167.404 30.5034C167.482 30.4254 167.541 30.3301 167.575 30.2252C167.609 30.1204 167.618 30.0089 167.601 29.9V28.1C167.602 27.999 167.581 27.899 167.54 27.8068C167.499 27.7146 167.438 27.6325 167.362 27.566C167.286 27.4995 167.196 27.4502 167.1 27.4216C167.003 27.3929 166.901 27.3855 166.801 27.4H150.201V17.4H164.801C164.986 17.4 165.165 17.3262 165.296 17.1949C165.427 17.0637 165.501 16.8856 165.501 16.7V14.9C165.515 14.8 165.508 14.6981 165.479 14.6013C165.451 14.5045 165.401 14.415 165.335 14.339C165.268 14.263 165.186 14.2023 165.094 14.161C165.002 14.1198 164.902 14.0989 164.801 14.1H150.201V3.79997H166.801C166.91 3.81706 167.021 3.80816 167.126 3.774C167.231 3.73984 167.326 3.68139 167.404 3.6034C167.482 3.52542 167.541 3.43011 167.575 3.32524C167.609 3.22038 167.618 3.10893 167.601 2.99997V1.29997C167.601 0.799973 167.301 0.599973 166.801 0.599973V0.499973Z" fill="white"/>
<path d="M12.4004 0.8002H1.40044L0.800444 1.0002C0.728079 1.08137 0.673021 1.17643 0.638634 1.2796C0.604247 1.38276 0.591252 1.49185 0.600444 1.6002V29.7002C0.607326 29.885 0.677999 30.0617 0.800444 30.2002C0.900444 30.4002 1.10044 30.4002 1.40044 30.4002H3.20044C3.50044 30.4002 3.70044 30.4002 3.80044 30.2002C3.87281 30.119 3.92787 30.024 3.96225 29.9208C3.99664 29.8176 4.00964 29.7086 4.00044 29.6002V20.7002H12.5004C16.0004 20.7002 18.7004 19.8002 20.5004 18.1002C21.4739 17.1798 22.237 16.0599 22.7375 14.8172C23.238 13.5745 23.4642 12.2384 23.4004 10.9002C23.467 9.5319 23.243 8.16501 22.7432 6.88954C22.2433 5.61407 21.479 4.45894 20.5004 3.5002C18.7004 1.8002 16.0004 0.8002 12.4004 0.8002ZM1.40044 0.3002H12.4004C16.1004 0.3002 18.9004 1.3002 20.8004 3.1002C21.8696 4.08892 22.7099 5.29921 23.2626 6.64648C23.8154 7.99375 24.0672 9.44549 24.0004 10.9002C24.0381 12.3217 23.7721 13.7349 23.2203 15.0454C22.6685 16.356 21.8435 17.5337 20.8004 18.5002C18.4758 20.4288 15.5183 21.4265 12.5004 21.3002H4.50044V29.6002C4.5251 29.7872 4.50125 29.9774 4.4312 30.1525C4.36116 30.3276 4.24726 30.4818 4.10044 30.6002C3.97869 30.7087 3.83609 30.7913 3.68135 30.8429C3.52661 30.8945 3.36297 30.914 3.20044 30.9002H1.40044C1.04389 30.9076 0.694059 30.8026 0.400444 30.6002C0.28404 30.4633 0.197282 30.3038 0.145646 30.1316C0.0940107 29.9595 0.0786194 29.7786 0.100444 29.6002V1.6002C0.0774715 1.2417 0.183924 0.886855 0.400444 0.6002C0.694059 0.397785 1.04389 0.292835 1.40044 0.3002ZM12.7004 18.0002H4.00044V3.5002H12.4004C14.4239 3.42775 16.3962 4.14496 17.9004 5.5002C18.6091 6.20782 19.1689 7.0502 19.5467 7.97765C19.9246 8.90509 20.1128 9.89882 20.1004 10.9002C20.1105 11.8626 19.9301 12.8175 19.5697 13.7099C19.2093 14.6023 18.676 15.4147 18.0004 16.1002C17.2868 16.752 16.4508 17.2556 15.541 17.5817C14.6312 17.9079 13.6657 18.0501 12.7004 18.0002ZM4.50044 17.5002H12.7004C13.5967 17.5491 14.4935 17.4147 15.336 17.1052C16.1785 16.7957 16.949 16.3176 17.6004 15.7002C18.2415 15.0772 18.7493 14.3306 19.0931 13.5055C19.4369 12.6804 19.6095 11.794 19.6004 10.9002C19.6063 9.96815 19.4232 9.04459 19.0623 8.18524C18.7013 7.32589 18.17 6.54858 17.5004 5.9002C16.8343 5.23911 16.0349 4.72768 15.1554 4.40004C14.276 4.0724 13.3367 3.93609 12.4004 4.0002H4.50044V17.5002ZM31.7004 20.2002H39.6004L46.6004 29.9002L47.1004 30.3002H50.4004C50.4004 30.2737 50.411 30.2482 50.4297 30.2295C50.4485 30.2107 50.4739 30.2002 50.5004 30.2002C50.4608 30.024 50.3933 29.8552 50.3004 29.7002L43.3004 20.2002H43.6004C45.7439 19.7989 47.6655 18.6246 49.0004 16.9002C50.2764 15.0927 50.9101 12.9099 50.8004 10.7002C50.8322 9.41326 50.6101 8.13267 50.1468 6.93159C49.6836 5.7305 48.9882 4.63247 48.1004 3.7002C47.1879 2.77185 46.0979 2.03667 44.8953 1.53845C43.6927 1.04023 42.4021 0.789157 41.1004 0.8002H28.9004L28.3004 1.0002C28.2004 1.1002 28.2004 1.3002 28.2004 1.6002V29.6002C28.2004 29.9002 28.2004 30.1002 28.3004 30.2002L28.9004 30.4002H30.7004L31.3004 30.2002C31.3728 30.119 31.4279 30.024 31.4623 29.9208C31.4966 29.8176 31.5096 29.7086 31.5004 29.6002V20.2002H31.7004ZM39.4004 20.8002H32.0004V29.6002C32.0223 29.7786 32.0069 29.9595 31.9552 30.1316C31.9036 30.3038 31.8168 30.4633 31.7004 30.6002C31.4068 30.8026 31.057 30.9076 30.7004 30.9002H28.9004C28.7379 30.914 28.5743 30.8945 28.4195 30.8429C28.2648 30.7913 28.1222 30.7087 28.0004 30.6002C27.8536 30.4818 27.7397 30.3276 27.6697 30.1525C27.5996 29.9774 27.5758 29.7872 27.6004 29.6002V1.6002C27.5846 1.41388 27.6125 1.22643 27.682 1.0528C27.7514 0.879181 27.8605 0.724191 28.0004 0.6002C28.1222 0.491652 28.2648 0.409066 28.4195 0.357485C28.5743 0.305904 28.7379 0.286412 28.9004 0.3002H41.1004C42.4673 0.246096 43.8306 0.475858 45.1042 0.974989C46.3779 1.47412 47.5343 2.23179 48.5004 3.2002C49.4469 4.16163 50.1911 5.30294 50.6892 6.55673C51.1873 7.81052 51.4291 9.1514 51.4004 10.5002C51.4584 12.8267 50.7562 15.1087 49.4004 17.0002C48.0663 18.6972 46.1991 19.895 44.1004 20.4002L50.7004 29.3002C50.8711 29.5347 50.9748 29.8113 51.0004 30.1002C51.0026 30.24 50.9682 30.3779 50.9004 30.5002C50.8004 30.6002 50.8004 30.7002 50.7004 30.7002C50.4698 30.8681 50.183 30.9398 49.9004 30.9002H46.8004C46.5762 30.726 46.3746 30.5245 46.2004 30.3002L39.3004 20.9002L39.4004 20.8002ZM31.5004 17.2002V3.5002H40.7004C41.6045 3.45834 42.5073 3.60572 43.351 3.93289C44.1948 4.26007 44.961 4.75984 45.6004 5.4002C46.8697 6.79756 47.5815 8.61251 47.6004 10.5002C47.6646 11.4365 47.5282 12.3757 47.2006 13.2552C46.873 14.1346 46.3615 14.9341 45.7004 15.6002C44.9851 16.2437 44.1464 16.7351 43.2353 17.0445C42.3242 17.3539 41.3597 17.475 40.4004 17.4002H31.5004V17.2002ZM32.0004 4.0002V16.9002H40.4004C42.2091 17.0151 43.9945 16.4438 45.4004 15.3002C46.5313 13.9656 47.1044 12.2464 47.0004 10.5002C47.0097 8.73355 46.369 7.02518 45.2004 5.7002C44.6082 5.12172 43.9027 4.67205 43.1283 4.37949C42.3538 4.08692 41.5272 3.95778 40.7004 4.0002H32.0004ZM60.9004 0.8002H59.0004L58.5004 1.0002C58.3004 1.1002 58.3004 1.3002 58.3004 1.6002V29.7002C58.3004 29.9002 58.3004 30.1002 58.5004 30.2002C58.7004 30.3002 58.8004 30.4002 59.0004 30.4002H60.9004C61.1004 30.4002 61.3004 30.4002 61.4004 30.2002C61.5004 30.0002 61.6004 29.9002 61.6004 29.6002V1.6002C61.6004 1.3002 61.6004 1.1002 61.4004 1.0002L60.9004 0.8002ZM59.0004 0.3002H60.9004C61.063 0.286412 61.2266 0.305904 61.3814 0.357485C61.5361 0.409066 61.6787 0.491652 61.8004 0.6002C62.017 0.886855 62.1234 1.2417 62.1004 1.6002V29.6002C62.1223 29.7786 62.1069 29.9595 62.0552 30.1316C62.0036 30.3038 61.9169 30.4633 61.8004 30.6002C61.6787 30.7087 61.5361 30.7913 61.3814 30.8429C61.2266 30.8945 61.063 30.914 60.9004 30.9002H59.0004C58.8379 30.914 58.6743 30.8945 58.5195 30.8429C58.3648 30.7913 58.2222 30.7087 58.1004 30.6002C57.984 30.4633 57.8973 30.3038 57.8456 30.1316C57.794 29.9595 57.7786 29.7786 57.8004 29.6002V1.6002C57.7775 1.2417 57.8839 0.886855 58.1004 0.6002C58.2222 0.491652 58.3648 0.409066 58.5195 0.357485C58.6743 0.305904 58.8379 0.286412 59.0004 0.3002ZM80.8004 30.4002H81.1004L81.3004 30.0002L94.1004 1.6002C94.1004 1.5002 94.2004 1.3002 94.2004 1.2002C94.2004 1.1002 94.1004 1.1002 94.1004 1.0002H90.8004L90.5004 1.5002L80.8004 23.2002L71.3004 1.4002C71.2255 1.1942 71.085 1.01852 70.9004 0.9002H67.6004V1.1002C67.5855 1.24116 67.6209 1.38287 67.7004 1.5002L80.3004 29.9002C80.4004 30.1002 80.5004 30.3002 80.6004 30.3002L80.8004 30.4002ZM81.4004 30.7002C81.3232 30.7783 81.2285 30.8371 81.1243 30.8718C81.0201 30.9066 80.9091 30.9163 80.8004 30.9002C80.6004 30.9002 80.4004 30.9002 80.3004 30.7002C80.196 30.6332 80.1066 30.5453 80.0377 30.442C79.9689 30.3388 79.9221 30.2224 79.9004 30.1002L67.1004 1.8002C67.0201 1.61092 66.9859 1.40529 67.0004 1.2002C66.9697 1.02689 67.0054 0.848367 67.1004 0.7002L67.5004 0.4002H70.3004C70.7004 0.4002 71.0004 0.4002 71.2004 0.6002L71.8004 1.3002L80.8004 22.0002L90.0004 1.2002C90.1082 0.901401 90.3216 0.652396 90.6004 0.5002C90.8311 0.33232 91.1179 0.260609 91.4004 0.3002H94.2004L94.6004 0.6002C94.6436 0.764741 94.677 0.931702 94.7004 1.1002C94.6804 1.31284 94.612 1.51807 94.5004 1.7002L81.8004 30.1002C81.7179 30.3298 81.5806 30.5357 81.4004 30.7002ZM96.4004 29.8002L98.8004 24.7002H115.4L117.8 29.8002L118.2 30.3002H121.5C121.6 30.2002 121.6 30.2002 121.6 30.1002C121.616 29.9274 121.581 29.7537 121.5 29.6002L107.7 1.3002C107.6 1.0002 107.5 0.9002 107.4 0.9002H106.8C106.7 0.9002 106.7 1.0002 106.6 1.3002L92.7004 29.5002C92.7004 29.7002 92.6004 29.8002 92.6004 30.0002C92.6068 30.0773 92.6426 30.1489 92.7004 30.2002H96.0004L96.4004 29.7002V29.8002ZM99.1004 25.2002L96.8004 30.0002C96.6927 30.299 96.4792 30.548 96.2004 30.7002L95.4004 30.9002H92.6004C92.5004 30.8002 92.3004 30.7002 92.3004 30.6002C92.1968 30.4145 92.129 30.2109 92.1004 30.0002C92.1214 29.7562 92.1893 29.5185 92.3004 29.3002L106.1 1.0002L106.5 0.4002H107.7C107.8 0.6002 108 0.7002 108.1 1.0002L122 29.3002C122.082 29.5239 122.117 29.7624 122.1 30.0002C122.107 30.1724 122.072 30.3437 122 30.5002L121.6 30.8002H118.8L117.9 30.6002L117.3 29.9002L115.1 25.2002H99.1004ZM107.4 7.6002L114.1 21.9002H100.2L107.2 7.1002L107.4 7.6002ZM113.2 21.4002L107.1 8.3002L101 21.4002H113.2ZM141.5 0.8002H121.4L120.9 1.0002C120.7 1.1002 120.7 1.3002 120.7 1.6002V2.7002C120.7 3.0002 120.7 3.2002 120.9 3.3002L121.4 3.5002H129.8V29.6002C129.791 29.7086 129.804 29.8176 129.839 29.9208C129.873 30.024 129.928 30.119 130 30.2002L130.6 30.4002H132.4L133 30.2002C133.1 30.1002 133.1 29.9002 133.1 29.6002V3.5002H141.5L142.1 3.3002C142.173 3.21903 142.228 3.12396 142.262 3.0208C142.297 2.91764 142.31 2.80855 142.3 2.7002V1.5002C142.294 1.31543 142.223 1.13875 142.1 1.0002C142 0.8002 141.8 0.8002 141.5 0.8002ZM121.4 0.3002H141.5C141.857 0.292835 142.207 0.397785 142.5 0.6002C142.617 0.737098 142.704 0.896642 142.755 1.06876C142.807 1.24088 142.822 1.42183 142.8 1.6002V2.7002C142.808 3.05675 142.703 3.40658 142.5 3.7002C142.214 3.91672 141.859 4.02317 141.5 4.0002H133.7V29.6002C133.716 29.7865 133.688 29.974 133.619 30.1476C133.549 30.3212 133.44 30.4762 133.3 30.6002C133.179 30.7087 133.036 30.7913 132.881 30.8429C132.727 30.8945 132.563 30.914 132.4 30.9002H130.6C130.438 30.914 130.274 30.8945 130.12 30.8429C129.965 30.7913 129.822 30.7087 129.7 30.6002C129.56 30.4762 129.451 30.3212 129.382 30.1476C129.313 29.974 129.285 29.7865 129.3 29.6002V4.0002H121.4C121.238 4.01399 121.074 3.99449 120.92 3.94291C120.765 3.89133 120.622 3.80875 120.5 3.7002C120.268 3.4155 120.129 3.06655 120.1 2.7002V1.6002C120.092 1.41461 120.123 1.22933 120.192 1.05683C120.261 0.884327 120.366 0.728621 120.5 0.6002C120.622 0.491652 120.765 0.409066 120.92 0.357485C121.074 0.305904 121.238 0.286412 121.4 0.3002ZM166.8 0.8002H146.7C146.6 0.9002 146.6 1.0002 146.6 1.2002V29.9002C146.6 30.1002 146.6 30.2002 146.7 30.3002H167.2C167.2 30.2002 167.3 30.1002 167.3 29.9002V28.1002C167.283 27.9955 167.249 27.8943 167.2 27.8002C167.154 27.7381 167.093 27.6877 167.024 27.653C166.955 27.6183 166.878 27.6002 166.8 27.6002H149.9V17.1002H164.8C164.9 17.1002 165.1 17.1002 165.1 17.0002C165.1 16.9002 165.3 16.8002 165.3 16.7002V14.9002C165.3 14.7002 165.2 14.6002 165.2 14.5002H149.9V3.5002H167.2C167.3 3.4002 167.3 3.3002 167.3 3.1002V1.3002C167.3 1.1002 167.3 1.0002 167.2 0.9002L166.8 0.8002ZM147 0.3002H166.8L167.5 0.5002C167.601 0.606797 167.68 0.732491 167.731 0.869882C167.783 1.00727 167.806 1.15358 167.8 1.3002V3.0002C167.805 3.13171 167.78 3.26255 167.728 3.3835C167.676 3.50444 167.599 3.61255 167.5 3.7002C167.418 3.80444 167.311 3.88646 167.188 3.93884C167.066 3.99122 166.933 4.01231 166.8 4.0002H150.4V13.9002H164.8L165.5 14.1002C165.601 14.2068 165.68 14.3325 165.731 14.4699C165.783 14.6073 165.806 14.7536 165.8 14.9002V16.7002C165.8 16.9654 165.695 17.2198 165.508 17.4073C165.32 17.5948 165.066 17.7002 164.8 17.7002H150.4V27.1002H166.8C166.933 27.0881 167.066 27.1092 167.188 27.1616C167.311 27.2139 167.418 27.296 167.5 27.4002C167.599 27.4879 167.676 27.596 167.728 27.7169C167.78 27.8378 167.805 27.9687 167.8 28.1002V29.9002C167.8 30.1654 167.695 30.4198 167.508 30.6073C167.32 30.7948 167.066 30.9002 166.8 30.9002H147C146.869 30.9044 146.738 30.8797 146.617 30.8279C146.496 30.7761 146.388 30.6983 146.3 30.6002C146.196 30.5176 146.114 30.4104 146.062 30.2882C146.009 30.166 145.988 30.0326 146 29.9002V1.3002C145.995 1.15358 146.018 1.00727 146.07 0.869882C146.121 0.732491 146.2 0.606797 146.3 0.5002L147 0.3002Z" fill="white"/>
<path d="M176.901 30.7002H187.301C196.201 30.7002 202.001 25.7002 202.001 15.6002C202.001 5.50017 196.101 0.500167 187.301 0.500167H176.901C176.301 0.500167 176.101 0.800167 176.101 1.40017V29.9002C176.101 30.4002 176.301 30.7002 176.901 30.7002ZM178.601 28.5002V2.80017H186.801C191.401 2.80017 199.501 4.50017 199.501 15.7002C199.501 26.9002 191.401 28.5002 186.801 28.5002H178.601ZM208.601 30.7002H227.601C227.71 30.7173 227.821 30.7084 227.926 30.6742C228.031 30.64 228.126 30.5816 228.204 30.5036C228.282 30.4256 228.34 30.3303 228.375 30.2254C228.409 30.1206 228.418 30.0091 228.401 29.9002V29.3002C228.401 28.7002 228.101 28.5002 227.601 28.5002H210.301V17.0002H225.401C226.001 17.0002 226.301 16.7002 226.301 16.2002V15.6002C226.301 15.1002 226.001 14.8002 225.401 14.8002H210.301V2.80017H227.601C228.101 2.80017 228.401 2.50017 228.401 1.90017V1.30017C228.418 1.19121 228.409 1.07976 228.375 0.974897C228.34 0.870033 228.282 0.774725 228.204 0.69674C228.126 0.618755 228.031 0.560301 227.926 0.52614C227.821 0.49198 227.71 0.48308 227.601 0.500167H208.601C208.492 0.48308 208.38 0.49198 208.275 0.52614C208.17 0.560301 208.075 0.618755 207.997 0.69674C207.919 0.774725 207.861 0.870033 207.827 0.974897C207.792 1.07976 207.783 1.19121 207.801 1.30017V29.8002C207.801 30.4002 208.101 30.7002 208.601 30.7002ZM234.801 30.7002H235.601C236.201 30.7002 236.501 30.4002 236.501 29.9002V6.20017L258.301 30.2002C258.601 30.5002 258.801 30.7002 259.101 30.7002C259.401 30.7002 259.501 30.4002 259.501 30.2002V1.40017C259.501 0.800167 259.301 0.500167 258.701 0.500167H257.801C257.301 0.500167 257.001 0.800167 257.001 1.40017V24.9002L235.201 1.00017C234.901 0.700167 234.701 0.500167 234.401 0.500167C234.101 0.500167 234.001 0.700167 234.001 1.00017V29.9002C234.001 30.4002 234.201 30.7002 234.801 30.7002ZM275.301 30.7002H276.201C276.31 30.7173 276.421 30.7084 276.526 30.6742C276.631 30.64 276.726 30.5816 276.804 30.5036C276.882 30.4256 276.94 30.3303 276.975 30.2254C277.009 30.1206 277.018 30.0091 277.001 29.9002V2.80017H285.701C285.823 2.81668 285.947 2.80477 286.064 2.76538C286.18 2.72599 286.286 2.66018 286.373 2.57307C286.461 2.48596 286.526 2.37992 286.566 2.2632C286.605 2.14648 286.617 2.02224 286.601 1.90017V1.40017C286.617 1.27809 286.605 1.15385 286.566 1.03713C286.526 0.920416 286.461 0.814371 286.373 0.727265C286.286 0.640159 286.18 0.574345 286.064 0.534954C285.947 0.495563 285.823 0.483658 285.701 0.500167H265.901C265.301 0.500167 265.101 0.800167 265.101 1.40017V1.90017C265.101 2.50017 265.301 2.80017 265.901 2.80017H274.501V29.9002C274.483 30.0091 274.492 30.1206 274.527 30.2254C274.561 30.3303 274.619 30.4256 274.697 30.5036C274.775 30.5816 274.87 30.64 274.975 30.6742C275.08 30.7084 275.192 30.7173 275.301 30.7002ZM292.401 30.7002H293.201C293.801 30.7002 294.001 30.4002 294.001 29.9002V1.40017C294.001 0.800167 293.801 0.500167 293.201 0.500167H292.401C292.278 0.483658 292.154 0.495563 292.038 0.534954C291.921 0.574345 291.815 0.640159 291.728 0.727265C291.641 0.814371 291.575 0.920416 291.535 1.03713C291.496 1.15385 291.484 1.27809 291.501 1.40017V29.9002C291.501 30.4002 291.801 30.7002 292.401 30.7002ZM312.201 31.3002C318.501 31.3002 322.901 28.5002 322.901 22.9002C322.901 17.3002 317.001 15.2002 313.501 14.5002C310.001 13.8002 302.701 13.1002 302.701 8.50017C302.701 3.90017 307.601 2.20017 310.601 2.20017C313.394 2.23615 316.125 3.03119 318.501 4.50017C318.701 4.61299 318.937 4.64478 319.16 4.58898C319.383 4.53319 319.577 4.39406 319.701 4.20017L320.001 3.60017C320.301 3.10017 320.201 2.70017 319.801 2.50017C317.104 0.817343 313.979 -0.050782 310.801 0.00016741C306.201 0.00016741 300.201 2.10017 300.201 8.60017C300.201 15.1002 307.801 15.9002 311.201 16.6002C314.601 17.3002 320.401 18.5002 320.401 22.9002C320.401 27.3002 317.401 29.1002 312.001 29.1002C308.646 29.1054 305.369 28.0944 302.601 26.2002C302.506 26.1296 302.396 26.0811 302.28 26.0579C302.164 26.0348 302.044 26.0377 301.93 26.0663C301.815 26.095 301.708 26.1488 301.616 26.2238C301.525 26.2989 301.451 26.3932 301.401 26.5002L301.001 27.1002C300.93 27.1952 300.881 27.3046 300.858 27.4206C300.835 27.5366 300.838 27.6563 300.867 27.7711C300.895 27.8859 300.949 27.9929 301.024 28.0844C301.099 28.1758 301.194 28.2495 301.301 28.3002C304.535 30.4069 308.344 31.4553 312.201 31.3002ZM334.201 30.7002H335.101C335.21 30.7173 335.321 30.7084 335.426 30.6742C335.531 30.64 335.626 30.5816 335.704 30.5036C335.782 30.4256 335.84 30.3303 335.875 30.2254C335.909 30.1206 335.918 30.0091 335.901 29.9002V2.80017H344.701C345.201 2.80017 345.501 2.50017 345.501 1.90017V1.40017C345.501 0.800167 345.201 0.500167 344.701 0.500167H324.801C324.301 0.500167 324.001 0.800167 324.001 1.40017V1.90017C324.001 2.50017 324.301 2.80017 324.801 2.80017H333.401V29.9002C333.383 30.0091 333.392 30.1206 333.427 30.2254C333.461 30.3303 333.519 30.4256 333.597 30.5036C333.675 30.5816 333.77 30.64 333.875 30.6742C333.98 30.7084 334.092 30.7173 334.201 30.7002ZM351.701 30.7002H352.601C352.71 30.7173 352.821 30.7084 352.926 30.6742C353.031 30.64 353.126 30.5816 353.204 30.5036C353.282 30.4256 353.34 30.3303 353.375 30.2254C353.409 30.1206 353.418 30.0091 353.401 29.9002V20.0002H362.401L369.701 30.2002C369.814 30.3584 369.965 30.4866 370.139 30.5737C370.313 30.6609 370.506 30.7042 370.701 30.7002H371.901C372.601 30.7002 372.801 30.2002 372.401 29.7002L365.401 19.9002C370.701 19.1002 373.601 15.3002 373.601 10.3002C373.601 5.30017 369.601 0.500167 364.001 0.500167H351.701C351.201 0.500167 350.901 0.800167 350.901 1.40017V29.9002C350.883 30.0091 350.892 30.1206 350.927 30.2254C350.961 30.3303 351.019 30.4256 351.097 30.5036C351.175 30.5816 351.27 30.64 351.375 30.6742C351.48 30.7084 351.592 30.7173 351.701 30.7002ZM353.401 17.7002V2.80017H363.701C369.701 2.80017 371.101 7.70017 371.101 10.3002C371.101 15.5002 367.201 17.7002 363.701 17.7002H353.401ZM387.601 30.7002H388.501C388.61 30.7173 388.721 30.7084 388.826 30.6742C388.931 30.64 389.026 30.5816 389.104 30.5036C389.182 30.4256 389.24 30.3303 389.275 30.2254C389.309 30.1206 389.318 30.0091 389.301 29.9002V19.3002L400.001 1.50017C400.096 1.40571 400.158 1.2818 400.175 1.14833C400.191 1.01487 400.163 0.879591 400.094 0.764231C400.025 0.64887 399.919 0.560118 399.793 0.512229C399.667 0.46434 399.529 0.460092 399.401 0.500167H398.301C398.097 0.506903 397.898 0.565535 397.723 0.670522C397.548 0.775509 397.403 0.923383 397.301 1.10017L388.101 16.5002L379.001 1.10017C378.899 0.923383 378.753 0.775509 378.578 0.670522C378.403 0.565535 378.205 0.506903 378.001 0.500167H376.901C376.301 0.500167 376.001 1.00017 376.401 1.50017L386.801 19.3002V29.9002C386.784 30.0091 386.792 30.1206 386.827 30.2254C386.861 30.3303 386.919 30.4256 386.997 30.5036C387.075 30.5816 387.17 30.64 387.275 30.6742C387.38 30.7084 387.492 30.7173 387.601 30.7002Z" fill="white"/>
<path d="M36.3005 70.9003L37.6005 68.3003H46.7005L48.0005 70.9003C48.0636 71.0577 48.1752 71.1909 48.3189 71.2808C48.4627 71.3706 48.6314 71.4125 48.8005 71.4003H51.3005C51.9005 71.4003 52.1005 71.0003 51.8005 70.5003L42.7005 52.4003C42.5005 52.0003 42.3005 52.0003 42.2005 52.0003C42.1005 52.0003 41.8005 52.0003 41.7005 52.4003L32.5005 70.5003C32.4486 70.5901 32.4208 70.6918 32.4199 70.7955C32.4191 70.8992 32.4451 71.0013 32.4954 71.092C32.5458 71.1826 32.6188 71.2587 32.7073 71.3127C32.7958 71.3668 32.8968 71.3969 33.0005 71.4003H35.5005C35.6799 71.3967 35.8557 71.3492 36.0126 71.2621C36.1695 71.1749 36.3026 71.0507 36.4005 70.9003H36.3005ZM42.1005 59.0003L44.9005 65.1003H39.4005L42.2005 59.0003H42.1005ZM86.4005 52.6003L82.7005 62.7003L78.1005 52.4003C77.9005 52.0003 77.8005 52.0003 77.7005 52.0003C77.6005 52.0003 77.4005 52.0003 77.3005 52.4003L72.6005 62.6003L69.0005 52.6003C68.9551 52.4243 68.8512 52.2689 68.7058 52.1599C68.5604 52.0508 68.3822 51.9945 68.2005 52.0003H65.8005C65.2005 52.0003 65.0005 52.3003 65.2005 52.8003L71.8005 71.0003C72.0005 71.4003 72.1005 71.4003 72.2005 71.4003C72.3005 71.4003 72.5005 71.4003 72.6005 71.0003L77.7005 59.7003L82.7005 71.0003L83.1005 71.4003C83.3005 71.4003 83.4005 71.4003 83.5005 71.0003L90.2005 52.8003C90.4005 52.3003 90.2005 52.0003 89.7005 52.0003H87.2005C87.0188 51.9945 86.8406 52.0508 86.6952 52.1599C86.5498 52.2689 86.4458 52.4243 86.4005 52.6003ZM107.3 70.9003L108.6 68.3003H117.7L118.9 70.9003C118.998 71.0507 119.132 71.1749 119.288 71.2621C119.445 71.3492 119.621 71.3967 119.8 71.4003H122.3C122.8 71.4003 123 71.0003 122.8 70.5003L113.6 52.4003C113.5 52.0003 113.3 52.0003 113.1 52.0003C112.9 52.0003 112.8 52.0003 112.6 52.4003L103.5 70.5003C103.2 71.0003 103.4 71.4003 104 71.4003H106.5C106.67 71.4125 106.838 71.3706 106.982 71.2808C107.126 71.1909 107.237 71.0577 107.3 70.9003ZM113.1 59.0003L115.9 65.1003H110.4L113.1 59.0003ZM143.7 65.2003H147.4L151.6 70.9003C151.698 71.0507 151.832 71.1749 151.988 71.2621C152.145 71.3492 152.321 71.3967 152.5 71.4003H155.3C155.9 71.4003 156.1 71.0003 155.7 70.5003L151.5 64.9003C154 64.2003 155.5 61.6003 155.5 58.7003C155.558 57.8141 155.427 56.9257 155.117 56.0935C154.807 55.2613 154.325 54.504 153.702 53.8713C153.079 53.2387 152.329 52.7449 151.501 52.4225C150.674 52.1 149.787 51.9561 148.9 52.0003H140.8C140.3 52.0003 140.1 52.2003 140.1 52.7003V70.7003C140.083 70.7961 140.088 70.8949 140.117 70.988C140.146 71.0811 140.197 71.1658 140.266 71.2348C140.335 71.3037 140.42 71.3548 140.513 71.3836C140.606 71.4125 140.705 71.4182 140.8 71.4003H143C143.1 71.4147 143.202 71.4074 143.299 71.3787C143.396 71.35 143.485 71.3008 143.561 71.2343C143.637 71.1678 143.698 71.0856 143.739 70.9935C143.781 70.9013 143.802 70.8013 143.8 70.7003V65.2003H143.7ZM143.7 62.0003V55.3003H148C150.7 55.3003 151.9 56.8003 151.9 58.6003C151.9 60.4003 151.1 62.0003 148 62.0003H143.7ZM174.701 71.4003H181.6C187.9 71.4003 191.3 67.6003 191.3 61.7003C191.3 55.8003 187.8 52.0003 181.6 52.0003H174.701C174.201 52.0003 173.9 52.2003 173.9 52.7003V70.7003C173.899 70.8013 173.92 70.9013 173.962 70.9935C174.003 71.0856 174.064 71.1678 174.14 71.2343C174.216 71.3008 174.305 71.35 174.402 71.3787C174.499 71.4074 174.601 71.4147 174.701 71.4003ZM177.701 68.1003V55.3003H181.6C184.3 55.3003 187.6 56.3003 187.6 61.7003C187.6 67.1003 184.3 68.1003 181.6 68.1003H177.701ZM210.201 66.8003L209.4 68.0003C209.322 68.1053 209.264 68.2249 209.232 68.3521C209.199 68.4793 209.192 68.6117 209.211 68.7417C209.229 68.8717 209.273 68.9968 209.34 69.1098C209.407 69.2228 209.495 69.3215 209.6 69.4003C211.763 71.0142 214.403 71.8589 217.1 71.8003C221.5 71.8003 224.5 69.8003 224.5 65.8003C224.5 61.8003 219.6 60.3003 217.201 59.8003C214.801 59.3003 212.701 58.9003 212.701 57.1003C212.701 55.3003 214.5 55.1003 216 55.1003C217.691 55.1697 219.338 55.6502 220.8 56.5003C220.897 56.5766 221.009 56.6321 221.128 56.6635C221.248 56.6948 221.372 56.7013 221.494 56.6826C221.616 56.6638 221.733 56.6202 221.837 56.5544C221.941 56.4887 222.031 56.4022 222.1 56.3003L223.1 54.9003C223.175 54.8118 223.229 54.7081 223.26 54.5966C223.29 54.4851 223.296 54.3683 223.277 54.2542C223.258 54.1401 223.215 54.0316 223.15 53.9359C223.085 53.8403 223 53.7599 222.9 53.7003C221.023 52.3169 218.731 51.6118 216.4 51.7003C213.1 51.7003 209 53.1003 209 57.5003C209 61.9003 214.1 62.9003 216.4 63.3003C218.701 63.7003 220.8 64.2003 220.8 66.0003C220.8 67.8003 219.9 68.3003 217.1 68.3003C215.116 68.1581 213.196 67.5408 211.5 66.5003C211.285 66.3815 211.033 66.3464 210.793 66.4018C210.553 66.4572 210.342 66.599 210.201 66.8003ZM262.4 68.1003H254.5L258.801 64.6003C261.401 62.4003 262.9 60.7003 262.9 57.7003C262.9 54.7003 260.801 51.7003 256.201 51.7003C254.775 51.7014 253.384 52.1443 252.22 52.968C251.056 53.7918 250.176 54.9559 249.701 56.3003C249.501 56.8003 249.6 57.2003 250.201 57.3003L252 57.8003C252.239 57.8668 252.494 57.8423 252.716 57.7314C252.938 57.6205 253.11 57.4313 253.201 57.2003C253.433 56.5424 253.868 55.975 254.443 55.5798C255.018 55.1845 255.703 54.9816 256.4 55.0003C256.767 54.9717 257.135 55.0211 257.481 55.1453C257.827 55.2695 258.143 55.4657 258.407 55.7208C258.672 55.976 258.88 56.2843 259.016 56.6255C259.153 56.9667 259.216 57.333 259.201 57.7003C259.201 58.9003 259 60.0003 256.6 61.9003L250.1 67.4003C249.869 67.6054 249.726 67.892 249.701 68.2003V70.7003C249.699 70.8013 249.72 70.9013 249.762 70.9935C249.803 71.0856 249.863 71.1678 249.939 71.2343C250.016 71.3008 250.105 71.35 250.202 71.3787C250.299 71.4074 250.401 71.4147 250.5 71.4003H262.4C262.5 71.4147 262.602 71.4074 262.699 71.3787C262.796 71.35 262.885 71.3008 262.961 71.2343C263.037 71.1678 263.098 71.0856 263.139 70.9935C263.181 70.9013 263.202 70.8013 263.201 70.7003V68.8003C263.202 68.6993 263.181 68.5993 263.139 68.5071C263.098 68.415 263.037 68.3328 262.961 68.2663C262.885 68.1998 262.796 68.1505 262.699 68.1219C262.602 68.0932 262.5 68.0859 262.4 68.1003ZM289.5 71.8003C294.9 71.8003 298.201 66.9003 298.201 61.7003C298.201 56.5003 294.5 51.7003 289.5 51.7003C284.5 51.7003 280.801 55.8003 280.801 61.7003C280.801 67.6003 284 71.8003 289.5 71.8003ZM289.5 55.1003C293 55.1003 294.4 58.5003 294.4 61.7003C294.4 64.9003 291.9 68.3003 289.5 68.3003C287.1 68.3003 284.6 64.8003 284.6 61.7003C284.6 57.1003 287.2 55.1003 289.5 55.1003ZM328.801 68.1003H321L325.201 64.6003C327.801 62.4003 329.301 60.7003 329.301 57.7003C329.301 54.7003 327.201 51.7003 322.6 51.7003C321.175 51.7014 319.784 52.1443 318.62 52.968C317.456 53.7918 316.576 54.9559 316.1 56.3003C316.052 56.3974 316.027 56.5043 316.027 56.6127C316.027 56.7211 316.053 56.828 316.101 56.9249C316.15 57.0219 316.22 57.1062 316.307 57.1714C316.393 57.2365 316.494 57.2806 316.6 57.3003L318.4 57.8003C318.639 57.8668 318.894 57.8423 319.116 57.7314C319.338 57.6205 319.51 57.4313 319.6 57.2003C319.857 56.5586 320.298 56.0073 320.867 55.6158C321.437 55.2243 322.109 55.0101 322.801 55.0003C323.171 54.9541 323.546 54.9913 323.9 55.1092C324.254 55.227 324.577 55.4225 324.845 55.6814C325.114 55.9403 325.321 56.256 325.452 56.6053C325.582 56.9546 325.633 57.3288 325.6 57.7003C325.6 58.9003 325.4 60.0003 323 61.9003L316.6 67.4003C316.47 67.4872 316.364 67.6068 316.294 67.7471C316.224 67.8874 316.192 68.0436 316.201 68.2003V70.7003C316.183 70.7961 316.188 70.8949 316.217 70.988C316.246 71.0811 316.297 71.1658 316.366 71.2348C316.435 71.3037 316.52 71.3548 316.613 71.3836C316.706 71.4125 316.805 71.4182 316.9 71.4003H328.9C329.086 71.4003 329.264 71.3265 329.395 71.1953C329.527 71.064 329.6 70.8859 329.6 70.7003V68.8003C329.6 68.6146 329.527 68.4366 329.395 68.3053C329.264 68.174 329.086 68.1003 328.9 68.1003H328.801ZM360.701 68.1003H352.801L357 64.6003C359.6 62.4003 361.1 60.7003 361.1 57.7003C361.1 54.7003 359 51.7003 354.4 51.7003C352.975 51.7014 351.584 52.1443 350.42 52.968C349.256 53.7918 348.376 54.9559 347.9 56.3003C347.851 56.4045 347.828 56.5194 347.833 56.6347C347.839 56.75 347.873 56.8622 347.932 56.9612C347.992 57.0602 348.075 57.1429 348.174 57.2021C348.273 57.2613 348.385 57.295 348.5 57.3003L350.201 57.8003C350.801 57.9003 351.3 57.7003 351.4 57.2003C351.663 56.5428 352.12 55.9805 352.709 55.5878C353.298 55.195 353.992 54.9901 354.701 55.0003C355.063 54.9699 355.427 55.0189 355.769 55.1439C356.11 55.2689 356.42 55.4668 356.677 55.7238C356.934 55.9808 357.132 56.2908 357.257 56.6322C357.382 56.9735 357.431 57.3381 357.4 57.7003C357.4 58.9003 357.2 60.0003 354.9 61.9003L348.4 67.4003C348.27 67.4872 348.164 67.6068 348.094 67.7471C348.024 67.8874 347.992 68.0436 348 68.2003V70.7003C347.983 70.7961 347.988 70.8949 348.017 70.988C348.046 71.0811 348.097 71.1658 348.166 71.2348C348.235 71.3037 348.32 71.3548 348.413 71.3836C348.506 71.4125 348.605 71.4182 348.701 71.4003H360.701C360.886 71.4003 361.064 71.3265 361.195 71.1953C361.327 71.064 361.4 70.8859 361.4 70.7003V68.8003C361.4 68.6146 361.327 68.4366 361.195 68.3053C361.064 68.174 360.886 68.1003 360.701 68.1003Z" fill="white"/>
<path d="M75.5 85.7002H317.1V87.5002H75.5V85.7002Z" fill="white"/>
<path d="M114.201 179.4V172.1L109.001 164.3C108.913 164.151 108.858 163.984 108.841 163.811C108.824 163.639 108.844 163.464 108.901 163.3L109.301 162.9L109.901 162.7H111.501L112.001 162.9C112.201 162.9 112.301 163 112.401 163.2L116.001 168.5L119.601 163.2C119.635 163.12 119.69 163.049 119.76 162.997C119.831 162.944 119.914 162.911 120.001 162.9L120.501 162.7H122.201C122.392 162.703 122.579 162.762 122.739 162.868C122.898 162.974 123.024 163.125 123.101 163.3C123.196 163.448 123.231 163.627 123.201 163.8C123.216 163.973 123.181 164.147 123.101 164.3L117.801 172V179.4C117.801 179.5 117.701 179.6 117.701 179.8L117.501 180.1C117.454 180.162 117.394 180.213 117.324 180.248C117.255 180.282 117.178 180.3 117.101 180.3H114.801L114.501 180.1C114.439 180.054 114.388 179.993 114.353 179.924C114.319 179.854 114.301 179.778 114.301 179.7C114.264 179.66 114.237 179.612 114.22 179.561C114.203 179.509 114.196 179.454 114.201 179.4ZM125.201 178C124.443 177.121 123.804 176.146 123.301 175.1C122.9 173.977 122.697 172.793 122.701 171.6C122.688 170.407 122.891 169.221 123.301 168.1C123.755 167.027 124.398 166.045 125.201 165.2C126.007 164.326 126.997 163.643 128.101 163.2C129.13 162.709 130.261 162.469 131.401 162.5C132.573 162.461 133.739 162.701 134.801 163.2C135.904 163.643 136.895 164.326 137.701 165.2C138.536 166.019 139.184 167.008 139.601 168.1C140.01 169.221 140.213 170.407 140.201 171.6C140.246 172.782 140.048 173.96 139.618 175.061C139.187 176.162 138.535 177.163 137.701 178C136.869 178.844 135.885 179.522 134.801 180C133.717 180.418 132.562 180.622 131.401 180.6C130.272 180.614 129.152 180.41 128.101 180C127.017 179.522 126.033 178.844 125.201 178ZM127.701 167.7C127.187 168.197 126.808 168.816 126.601 169.5C126.066 170.849 126.066 172.351 126.601 173.7C126.854 174.362 127.227 174.973 127.701 175.5C128.218 175.966 128.789 176.369 129.401 176.7C130.063 176.987 130.78 177.123 131.501 177.1C132.894 177.065 134.22 176.491 135.201 175.5C135.669 174.948 136.071 174.344 136.401 173.7C136.935 172.351 136.935 170.849 136.401 169.5C136.119 168.829 135.712 168.218 135.201 167.7C134.73 167.154 134.151 166.711 133.501 166.4C132.859 166.163 132.184 166.028 131.501 166C130.816 166.017 130.139 166.152 129.501 166.4C128.818 166.707 128.206 167.149 127.701 167.7ZM142.101 173.7V163.4L142.401 163L142.701 162.8H144.601C144.732 162.796 144.863 162.821 144.984 162.873C145.105 162.924 145.213 163.002 145.301 163.1L145.601 163.5V173.6C145.603 174.115 145.705 174.624 145.901 175.1C146 175.514 146.207 175.893 146.501 176.2C146.785 176.528 147.139 176.789 147.537 176.962C147.935 177.135 148.367 177.216 148.801 177.2C149.252 177.207 149.698 177.104 150.101 176.9C150.491 176.761 150.836 176.519 151.101 176.2C151.391 175.873 151.627 175.502 151.801 175.1C151.929 174.611 151.996 174.107 152.001 173.6V163.9C151.995 163.754 152.018 163.607 152.07 163.47C152.121 163.333 152.2 163.207 152.301 163.1L152.701 162.9H154.601C154.74 162.908 154.876 162.948 154.998 163.018C155.119 163.087 155.223 163.184 155.301 163.3C155.401 163.3 155.501 163.5 155.501 163.6C155.501 163.7 155.601 163.8 155.601 164V173.9C155.58 174.821 155.411 175.733 155.101 176.6C154.79 177.422 154.313 178.171 153.701 178.8C153.085 179.454 152.334 179.966 151.501 180.3C150.66 180.708 149.735 180.913 148.801 180.9C147.897 180.915 147 180.735 146.172 180.373C145.344 180.011 144.603 179.474 144.001 178.8C143.356 178.176 142.846 177.428 142.501 176.6C142.221 175.728 142.086 174.816 142.101 173.9V173.7ZM158.601 179.4V163.5C158.596 163.369 158.621 163.238 158.673 163.117C158.725 162.996 158.803 162.888 158.901 162.8L159.201 162.6H160.501L169.501 173.4V163.9C169.501 163.7 169.501 163.6 169.601 163.5C169.601 163.423 169.619 163.346 169.653 163.277C169.688 163.207 169.739 163.147 169.801 163.1L170.101 162.9H172.001C172.262 162.914 172.51 163.02 172.701 163.2C172.763 163.247 172.813 163.307 172.848 163.377C172.883 163.446 172.901 163.523 172.901 163.6C173.001 163.7 173.001 163.8 173.001 164V179.8C173.001 180 173.001 180.1 172.901 180.2L172.701 180.5L172.401 180.8H171.101L162.101 169.7V179.5C162.103 179.64 162.068 179.778 162.001 179.9L161.801 180.2L161.501 180.4H159.601C159.469 180.404 159.338 180.38 159.217 180.328C159.096 180.276 158.988 180.198 158.901 180.1L158.701 179.8C158.633 179.678 158.598 179.54 158.601 179.4ZM177.601 178C176.755 177.191 176.105 176.199 175.701 175.1C175.219 173.997 174.981 172.804 175.001 171.6C174.98 170.413 175.2 169.234 175.646 168.135C176.093 167.035 176.758 166.037 177.601 165.2C178.39 164.352 179.342 163.672 180.401 163.2C181.469 162.721 182.63 162.482 183.801 162.5C184.863 162.495 185.917 162.699 186.901 163.1C187.929 163.493 188.878 164.069 189.701 164.8H189.801C189.899 164.888 189.977 164.996 190.028 165.117C190.08 165.238 190.105 165.369 190.101 165.5C190.094 165.793 189.988 166.075 189.801 166.3L188.801 167.3C188.714 167.431 188.594 167.537 188.454 167.607C188.314 167.677 188.157 167.709 188.001 167.7C187.739 167.687 187.491 167.58 187.301 167.4C186.825 166.909 186.244 166.533 185.601 166.3C185.08 166.017 184.493 165.879 183.901 165.9C183.217 165.928 182.542 166.063 181.901 166.3C181.305 166.61 180.764 167.015 180.301 167.5C179.833 168.052 179.43 168.656 179.101 169.3C178.903 169.983 178.802 170.69 178.801 171.4C178.787 172.112 178.888 172.821 179.101 173.5C179.382 174.171 179.789 174.782 180.301 175.3C180.71 175.843 181.265 176.259 181.901 176.5C182.528 176.785 183.212 176.922 183.901 176.9H184.901L185.801 176.7L186.701 176.4V174.7H184.701L184.301 174.5C184.201 174.4 184.101 174.3 184.101 174.2C184.033 174.078 183.998 173.94 184.001 173.8V172.4C184.001 171.7 184.401 171.4 185.101 171.4H189.601L189.901 171.7L190.101 172C190.18 172.118 190.216 172.259 190.201 172.4V178.1C190.216 178.273 190.181 178.447 190.101 178.6L189.801 179L189.001 179.4L188.201 179.8L186.901 180.2L185.401 180.5H183.801C182.641 180.505 181.489 180.302 180.401 179.9C179.347 179.42 178.397 178.741 177.601 177.9V178ZM197.601 179.4V163.8C197.595 163.654 197.618 163.507 197.67 163.37C197.721 163.233 197.8 163.107 197.901 163L198.201 162.8H203.801C204.941 162.769 206.072 163.009 207.101 163.5C208.139 163.909 209.065 164.561 209.801 165.4C210.646 166.21 211.296 167.202 211.701 168.3C212.145 169.345 212.382 170.465 212.401 171.6C212.362 173.954 211.433 176.205 209.801 177.9C209.065 178.74 208.139 179.391 207.101 179.8C206.072 180.292 204.941 180.532 203.801 180.5H198.201L197.801 180.3C197.689 180.082 197.622 179.844 197.601 179.6V179.4ZM201.101 177H203.501C204.184 176.973 204.859 176.838 205.501 176.6C206.148 176.329 206.729 175.92 207.201 175.4C207.679 174.915 208.054 174.336 208.301 173.7C208.512 172.987 208.613 172.245 208.601 171.5C208.615 170.789 208.513 170.08 208.301 169.4C208.017 168.784 207.647 168.211 207.201 167.7C206.701 167.213 206.127 166.808 205.501 166.5C204.854 166.295 204.179 166.194 203.501 166.2H201.101V177ZM214.401 179.4V163.8C214.395 163.654 214.418 163.507 214.47 163.37C214.521 163.233 214.6 163.107 214.701 163L215.101 162.8H224.501C224.647 162.794 224.794 162.818 224.931 162.869C225.068 162.921 225.194 162.999 225.301 163.1C225.401 163.2 225.401 163.3 225.501 163.5C225.501 163.6 225.601 163.7 225.601 163.9V165.6L225.401 165.9L225.001 166.2H218.101V169.8H223.901L224.301 170.1L224.501 170.4C224.501 170.5 224.601 170.6 224.601 170.8V172.5L224.401 172.8L224.001 173.1H218.201V177H224.701C224.847 176.994 224.994 177.018 225.131 177.069C225.268 177.121 225.394 177.199 225.501 177.3C225.601 177.4 225.601 177.6 225.701 177.7C225.801 177.8 225.801 177.9 225.801 178.1V179.4C225.801 179.5 225.701 179.6 225.701 179.8L225.501 180.1C225.454 180.162 225.394 180.213 225.324 180.248C225.255 180.282 225.178 180.3 225.101 180.3H215.101L214.701 180.1C214.603 180.013 214.525 179.905 214.473 179.784C214.421 179.663 214.396 179.532 214.401 179.4ZM227.801 179.4V163.5C227.786 163.359 227.821 163.218 227.901 163.1L228.101 162.8L228.401 162.6H229.701L238.701 173.4V163.5C238.801 163.3 238.801 163.2 238.901 163.1L239.301 162.9H241.101C241.247 162.894 241.394 162.918 241.531 162.969C241.668 163.021 241.794 163.099 241.901 163.2L242.101 163.6C242.101 163.7 242.201 163.8 242.201 164V180L242.001 180.3L241.601 180.6H240.401L231.401 169.6V179.4C231.405 179.454 231.399 179.509 231.382 179.561C231.364 179.612 231.337 179.66 231.301 179.7C231.301 179.778 231.283 179.854 231.248 179.924C231.213 179.993 231.163 180.054 231.101 180.1L230.801 180.3H228.901C228.769 180.305 228.638 180.28 228.517 180.228C228.396 180.176 228.288 180.098 228.201 180L228.001 179.7C227.964 179.66 227.937 179.612 227.92 179.561C227.903 179.509 227.896 179.454 227.901 179.4H227.801ZM247.601 179.4V166.1H244.101L243.701 165.8L243.501 165.5V163.8C243.501 163.6 243.601 163.5 243.601 163.4L243.801 163L244.201 162.8H254.301C254.447 162.794 254.594 162.818 254.731 162.869C254.868 162.921 254.994 162.999 255.101 163.1C255.201 163.2 255.201 163.4 255.301 163.5C255.401 163.6 255.401 163.7 255.401 163.9V165.6L255.201 165.9L254.801 166.2H251.101V179.5C251.103 179.64 251.068 179.778 251.001 179.9V180.2L250.601 180.4H248.701C248.554 180.406 248.408 180.383 248.27 180.331C248.133 180.28 248.007 180.201 247.901 180.1L247.701 179.8V179.4H247.601ZM256.501 179.4V163.8C256.496 163.669 256.521 163.538 256.573 163.417C256.625 163.296 256.703 163.188 256.801 163.1L257.101 162.8H259.001C259.157 162.791 259.314 162.824 259.454 162.894C259.594 162.964 259.714 163.07 259.801 163.2L260.001 163.5C260.001 163.6 260.101 163.7 260.101 163.9V179.5C260.087 179.762 259.981 180.01 259.801 180.2C259.694 180.301 259.568 180.38 259.431 180.431C259.294 180.483 259.147 180.506 259.001 180.5H257.501C257.369 180.505 257.238 180.48 257.117 180.428C256.996 180.376 256.888 180.298 256.801 180.2C256.739 180.154 256.688 180.093 256.653 180.024C256.619 179.954 256.601 179.878 256.601 179.8C256.549 179.749 256.513 179.685 256.495 179.614C256.478 179.544 256.479 179.47 256.501 179.4ZM262.601 178.6C262.478 178.529 262.376 178.427 262.306 178.304C262.236 178.181 262.199 178.042 262.201 177.9C262.141 177.63 262.176 177.347 262.301 177.1L263.101 175.9C263.168 175.804 263.258 175.726 263.362 175.674C263.467 175.621 263.584 175.596 263.701 175.6C263.97 175.531 264.256 175.567 264.501 175.7H264.601C265.118 176.166 265.689 176.569 266.301 176.9L267.801 177.2C268.342 177.2 268.868 177.025 269.301 176.7C269.461 176.566 269.589 176.397 269.675 176.207C269.762 176.017 269.805 175.809 269.801 175.6C269.78 175.356 269.712 175.119 269.601 174.9L269.201 174.3C268.446 173.706 267.602 173.234 266.701 172.9C266.059 172.649 265.453 172.313 264.901 171.9C264.375 171.615 263.902 171.243 263.501 170.8C263.041 170.357 262.698 169.807 262.501 169.2C262.295 168.623 262.194 168.013 262.201 167.4C262.179 166.808 262.317 166.221 262.601 165.7L262.901 164.9L263.501 164.1C263.718 163.816 263.99 163.578 264.301 163.4L265.301 162.8L266.501 162.5H267.801C268.618 162.486 269.432 162.622 270.201 162.9C270.957 163.147 271.667 163.519 272.301 164C272.601 164.2 272.801 164.4 272.801 164.7C272.842 164.855 272.845 165.018 272.811 165.175C272.776 165.331 272.704 165.477 272.601 165.6L272.101 166.5C271.601 167.2 271.101 167.3 270.501 166.9L268.801 166.1L267.701 165.8L266.801 166C266.569 166.019 266.355 166.127 266.201 166.3L265.801 166.8C265.801 167 265.701 167.2 265.701 167.4C265.721 167.613 265.789 167.818 265.901 168L266.301 168.6C266.879 169.132 267.56 169.54 268.301 169.8L270.401 170.8C270.969 171.151 271.505 171.553 272.001 172C272.487 172.44 272.864 172.988 273.101 173.6C273.365 174.234 273.501 174.914 273.501 175.6C273.501 176.287 273.365 176.967 273.101 177.6C272.791 178.196 272.386 178.737 271.901 179.2C271.327 179.662 270.686 180.033 270.001 180.3C269.287 180.512 268.545 180.613 267.801 180.6C266.918 180.615 266.038 180.48 265.201 180.2L264.201 179.8L263.401 179.3L262.901 179L262.601 178.6ZM277.601 179.4V166.1H274.101L273.801 165.8C273.703 165.713 273.625 165.605 273.573 165.484C273.521 165.363 273.496 165.232 273.501 165.1V163.8C273.495 163.654 273.518 163.507 273.57 163.37C273.621 163.233 273.7 163.107 273.801 163L274.101 162.8H284.301C284.432 162.796 284.563 162.821 284.684 162.873C284.805 162.924 284.913 163.002 285.001 163.1C285.063 163.147 285.113 163.207 285.148 163.277C285.183 163.346 285.201 163.423 285.201 163.5C285.301 163.6 285.301 163.7 285.301 163.9V165.2C285.303 165.34 285.268 165.478 285.201 165.6L285.001 165.9L284.701 166.2H281.201V179.5C281.205 179.554 281.199 179.609 281.182 179.661C281.164 179.712 281.137 179.76 281.101 179.8L280.901 180.1L280.601 180.3H278.701C278.554 180.306 278.408 180.283 278.27 180.231C278.133 180.18 278.007 180.101 277.901 180C277.839 179.954 277.788 179.893 277.753 179.824C277.719 179.754 277.701 179.678 277.701 179.6C277.649 179.544 277.614 179.475 277.601 179.4Z" fill="white"/>
<path d="M123.1 118.6V98.5003C123.096 98.4461 123.102 98.3916 123.119 98.34C123.137 98.2884 123.164 98.2409 123.2 98.2003C123.24 98.1309 123.299 98.0748 123.37 98.0392C123.441 98.0036 123.521 97.99 123.6 98.0003H125.9C126.1 98.2003 126.1 98.3003 126.1 98.4003V107H136.8V98.5003C136.8 98.4003 136.8 98.3003 137 98.1003H139.3C139.379 98.09 139.46 98.1036 139.531 98.1392C139.602 98.1748 139.661 98.2309 139.7 98.3003C139.737 98.3409 139.764 98.3884 139.781 98.44C139.798 98.4916 139.805 98.5461 139.8 98.6003V118.7C139.8 118.9 139.8 119 139.7 119.1L139.3 119.3H137.4C137.323 119.3 137.246 119.282 137.177 119.248C137.107 119.213 137.047 119.162 137 119.1C136.8 119 136.8 118.9 136.8 118.7V110H126.1V118.7C126.1 118.9 126.1 119 125.9 119.1L125.6 119.3H123.6L123.2 119.1C123.1 118.9 123.1 118.8 123.1 118.6ZM66.1003 139.5C65.0846 138.476 64.2863 137.257 63.7536 135.917C63.2209 134.577 62.9647 133.142 63.0003 131.7C62.9666 130.274 63.2242 128.855 63.7572 127.531C64.2902 126.207 65.0875 125.006 66.1003 124C67.0403 122.978 68.1849 122.164 69.4598 121.613C70.7348 121.062 72.1114 120.785 73.5003 120.8C76.1382 120.79 78.6796 121.792 80.6003 123.6C80.6642 123.657 80.7153 123.726 80.7503 123.803C80.7854 123.881 80.8035 123.965 80.8035 124.05C80.8035 124.135 80.7854 124.22 80.7503 124.297C80.7153 124.375 80.6642 124.444 80.6003 124.5L79.3003 125.8C79.1003 126.1 78.9003 126.1 78.6003 125.8C77.2081 124.523 75.3899 123.81 73.5003 123.8C72.5209 123.799 71.552 124.002 70.6563 124.399C69.7606 124.795 68.958 125.374 68.3003 126.1C66.9116 127.631 66.1603 129.634 66.2003 131.7C66.1656 133.736 66.9179 135.706 68.3003 137.2C68.9607 137.949 69.7779 138.544 70.6939 138.941C71.6099 139.339 72.6022 139.53 73.6003 139.5C75.4516 139.448 77.224 138.739 78.6003 137.5C78.6938 137.409 78.8195 137.357 78.9503 137.357C79.0812 137.357 79.2069 137.409 79.3003 137.5L80.6003 138.9C80.6624 138.947 80.7128 139.007 80.7476 139.077C80.7823 139.146 80.8003 139.223 80.8003 139.3L80.6003 139.7C79.6872 140.656 78.5829 141.408 77.3596 141.907C76.1362 142.407 74.8212 142.643 73.5003 142.6C72.118 142.635 70.744 142.377 69.4686 141.842C68.1932 141.308 67.0453 140.51 66.1003 139.5ZM96.6003 139.5C94.6132 137.396 93.5353 134.594 93.6003 131.7C93.54 128.837 94.6191 126.068 96.6003 124C97.5621 122.993 98.7182 122.191 99.9987 121.643C101.279 121.095 102.658 120.813 104.05 120.813C105.443 120.813 106.821 121.095 108.102 121.643C109.382 122.191 110.539 122.993 111.5 124C113.509 126.058 114.623 128.825 114.6 131.7C114.628 134.606 113.515 137.406 111.5 139.5C110.524 140.483 109.364 141.263 108.085 141.795C106.807 142.327 105.435 142.601 104.05 142.601C102.665 142.601 101.294 142.327 100.016 141.795C98.737 141.263 97.5763 140.483 96.6003 139.5ZM98.7003 126.2C97.287 127.703 96.5001 129.688 96.5001 131.75C96.5001 133.813 97.287 135.798 98.7003 137.3C99.3913 138.023 100.222 138.599 101.141 138.992C102.061 139.385 103.05 139.588 104.05 139.588C105.05 139.588 106.04 139.385 106.96 138.992C107.879 138.599 108.709 138.023 109.4 137.3C110.814 135.798 111.601 133.813 111.601 131.75C111.601 129.688 110.814 127.703 109.4 126.2C108.725 125.451 107.9 124.851 106.978 124.441C106.057 124.031 105.059 123.819 104.05 123.819C103.042 123.819 102.044 124.031 101.122 124.441C100.201 124.851 99.3755 125.451 98.7003 126.2ZM127.7 141.6L131.3 121.3C131.4 121 131.6 120.8 131.8 120.8H132.3C132.405 120.792 132.509 120.816 132.599 120.87C132.688 120.924 132.759 121.004 132.8 121.1L138.9 136.6H139L145.1 121.1C145.142 121.004 145.212 120.924 145.302 120.87C145.392 120.816 145.496 120.792 145.6 120.8H146.1C146.3 120.8 146.5 121 146.6 121.3L150.2 141.6C150.3 142.1 150.1 142.3 149.7 142.3H147.8C147.735 142.315 147.667 142.316 147.6 142.304C147.534 142.291 147.471 142.265 147.415 142.228C147.359 142.191 147.311 142.142 147.274 142.086C147.237 142.03 147.212 141.967 147.2 141.9L145 128.4H144.9L139.7 142.3C139.659 142.396 139.588 142.477 139.499 142.531C139.409 142.585 139.305 142.609 139.2 142.6H138.7C138.596 142.609 138.492 142.585 138.402 142.531C138.312 142.477 138.242 142.396 138.2 142.3L132.9 128.4H132.8L130.7 141.9L130.5 142.2H128.2C127.8 142.2 127.6 142 127.7 141.5V141.6ZM163.4 141.6L167 121.3C167.024 121.159 167.098 121.031 167.208 120.939C167.318 120.848 167.457 120.798 167.6 120.8H168C168.3 120.8 168.5 120.9 168.5 121.1L174.6 136.6H174.8L180.8 121.1C180.842 121.004 180.912 120.924 181.002 120.87C181.092 120.816 181.196 120.792 181.3 120.8H181.8C182.1 120.8 182.2 121 182.3 121.3L185.9 141.6C186 142.1 185.8 142.3 185.4 142.3H183.5C183.435 142.315 183.367 142.316 183.3 142.304C183.234 142.291 183.171 142.265 183.115 142.228C183.059 142.191 183.011 142.142 182.974 142.086C182.937 142.03 182.912 141.967 182.9 141.9L180.8 128.4H180.7L175.4 142.3C175.359 142.396 175.288 142.477 175.199 142.531C175.109 142.585 175.005 142.609 174.9 142.6H174.4C174.296 142.609 174.192 142.585 174.102 142.531C174.012 142.477 173.942 142.396 173.9 142.3L168.6 128.4H168.5L166.4 141.9L166.2 142.2H164C163.6 142.2 163.4 142 163.4 141.5V141.6ZM200.6 141.7V121.7C200.6 121.5 200.6 121.4 200.7 121.3L201.1 121.1H212.8L213.2 121.3C213.262 121.347 213.313 121.407 213.348 121.477C213.382 121.546 213.4 121.623 213.4 121.7V123.4L213.2 123.8C213.154 123.862 213.093 123.913 213.024 123.948C212.955 123.982 212.878 124 212.8 124H203.6V130.1H211.4L211.7 130.3C211.77 130.339 211.826 130.398 211.861 130.47C211.897 130.541 211.911 130.621 211.9 130.7V132.4C211.9 132.6 211.9 132.7 211.8 132.8L211.4 133H203.6V139.5H212.8L213.2 139.7C213.262 139.747 213.313 139.807 213.348 139.877C213.382 139.946 213.4 140.023 213.4 140.1V141.8L213.2 142.2H200.7C200.621 142.083 200.585 141.941 200.6 141.8V141.7ZM228.1 141.7V121.3L228.3 121L228.7 120.8H229.4L242.1 136V121.7C242.1 121.623 242.118 121.546 242.153 121.477C242.188 121.407 242.238 121.347 242.3 121.3L242.7 121.1H244.5L244.9 121.3C244.962 121.347 245.013 121.407 245.048 121.477C245.082 121.546 245.1 121.623 245.1 121.7V142.1L244.9 142.5H243.8L231.1 127V141.7C231.1 141.9 231 142 230.9 142.2H228.7C228.5 142.2 228.4 142.2 228.3 142C228.199 141.929 228.127 141.822 228.1 141.7ZM261.1 141.7V121.7C261.1 121.623 261.118 121.546 261.153 121.477C261.188 121.407 261.238 121.347 261.3 121.3L261.6 121.1H268.3C269.668 121.067 271.026 121.327 272.285 121.861C273.544 122.396 274.675 123.193 275.6 124.2C277.521 126.225 278.591 128.91 278.591 131.7C278.591 134.491 277.521 137.175 275.6 139.2C274.675 140.207 273.544 141.005 272.285 141.539C271.026 142.074 269.668 142.333 268.3 142.3H261.3C261.2 142 261.1 141.9 261.1 141.7ZM264.1 139.4H267.9C268.906 139.443 269.908 139.269 270.84 138.889C271.772 138.51 272.611 137.934 273.3 137.2C274.643 135.683 275.384 133.727 275.384 131.7C275.384 129.674 274.643 127.718 273.3 126.2C272.603 125.477 271.763 124.908 270.833 124.529C269.903 124.15 268.904 123.97 267.9 124H264.1V139.4ZM293.2 141.7V121.7C293.2 121.5 293.2 121.4 293.3 121.3L293.7 121.1H305.4L305.8 121.3C305.862 121.347 305.913 121.407 305.948 121.477C305.982 121.546 306 121.623 306 121.7V123.4C305.973 123.55 305.904 123.689 305.8 123.8L305.4 124H296.2V130.1H304L304.3 130.3C304.37 130.339 304.426 130.398 304.461 130.47C304.497 130.541 304.511 130.621 304.5 130.7V132.4C304.5 132.6 304.5 132.7 304.4 132.8L304 133H296.2V139.5H305.4L305.8 139.7C305.862 139.747 305.913 139.807 305.948 139.877C305.982 139.946 306 140.023 306 140.1V141.8L305.8 142.2H293.3C293.221 142.083 293.185 141.941 293.2 141.8V141.7ZM320.7 141.7V121.7C320.7 121.623 320.718 121.546 320.753 121.477C320.788 121.407 320.838 121.347 320.9 121.3L321.2 121.1H328C329.352 121.075 330.693 121.338 331.935 121.873C333.177 122.408 334.29 123.201 335.2 124.2C337.121 126.225 338.191 128.91 338.191 131.7C338.191 134.491 337.121 137.175 335.2 139.2C334.29 140.2 333.177 140.993 331.935 141.528C330.693 142.062 329.352 142.326 328 142.3H320.9C320.8 142 320.7 141.9 320.7 141.7ZM323.7 139.4H327.5C328.506 139.443 329.508 139.269 330.44 138.889C331.372 138.51 332.211 137.934 332.9 137.2C334.243 135.683 334.984 133.727 334.984 131.7C334.984 129.674 334.243 127.718 332.9 126.2C332.211 125.467 331.372 124.891 330.44 124.511C329.508 124.132 328.506 123.957 327.5 124H323.7V139.4ZM156.1 118.6V98.6003C156.1 98.5227 156.118 98.4461 156.153 98.3767C156.188 98.3073 156.238 98.2469 156.3 98.2003C156.4 98.0003 156.5 98.0003 156.7 98.0003H158.6C158.8 98.0003 158.9 98.0003 159 98.2003C159.062 98.2469 159.113 98.3073 159.148 98.3767C159.182 98.4461 159.2 98.5227 159.2 98.6003V118.6C159.2 118.678 159.182 118.754 159.148 118.824C159.113 118.893 159.062 118.954 159 119L158.6 119.2H156.7L156.3 119C156.238 118.954 156.188 118.893 156.153 118.824C156.118 118.754 156.1 118.678 156.1 118.6ZM177.1 116.3C175.108 114.232 173.995 111.472 173.995 108.6C173.995 105.729 175.108 102.969 177.1 100.9C178.028 99.8623 179.17 99.0384 180.448 98.4858C181.726 97.9333 183.109 97.6652 184.5 97.7003C187.138 97.69 189.68 98.6922 191.6 100.5C191.9 100.8 191.9 101.1 191.6 101.3C191.384 101.554 191.184 101.822 191 102.1L190.3 102.8C190.1 103 189.9 103 189.6 102.7C188.224 101.461 186.452 100.752 184.6 100.7C183.621 100.699 182.652 100.902 181.756 101.299C180.861 101.695 180.058 102.274 179.4 103C178.05 104.534 177.306 106.507 177.306 108.55C177.306 110.593 178.05 112.567 179.4 114.1C180.058 114.826 180.861 115.406 181.756 115.802C182.652 116.198 183.621 116.402 184.6 116.4H185.6L186.5 116.2L187.2 116L187.9 115.8L188.4 115.6H189V112H186.1L185.7 111.8C185.6 111.7 185.6 111.6 185.6 111.4V109.7C185.6 109.3 185.7 109.1 186.1 109.1H191.4C191.6 109.1 191.7 109.1 191.8 109.3C191.9 109.5 191.9 109.5 191.9 109.7C191.9 109.9 192 111.7 192 113.3V117C192.009 117.105 191.985 117.209 191.931 117.299C191.877 117.388 191.796 117.459 191.7 117.5L190.8 118L188.3 118.9C187.07 119.286 185.79 119.488 184.5 119.5C183.111 119.516 181.735 119.239 180.46 118.688C179.185 118.136 178.04 117.323 177.1 116.3ZM207.2 118.6V98.6003C207.2 98.5227 207.218 98.4461 207.253 98.3767C207.288 98.3073 207.338 98.2469 207.4 98.2003C207.5 98.0003 207.6 98.0003 207.8 98.0003H210.1C210.2 98.2003 210.3 98.3003 210.3 98.5003V107H221V98.6003C220.985 98.4275 221.02 98.2539 221.1 98.1003H223.4C223.6 98.1003 223.7 98.1003 223.8 98.3003C223.862 98.3469 223.913 98.4073 223.948 98.4767C223.982 98.5461 224 98.6227 224 98.7003V118.7C223.98 118.852 223.91 118.993 223.802 119.102C223.693 119.21 223.552 119.28 223.4 119.3H221.5L221.1 119.1C221 119 221 118.9 221 118.7V110H210.3V118.7C210.28 118.852 210.21 118.993 210.102 119.102C209.993 119.21 209.852 119.28 209.7 119.3H207.8C207.648 119.28 207.507 119.21 207.399 119.102C207.291 118.993 207.221 118.852 207.2 118.7V118.6ZM240.3 118.6V98.6003C240.3 98.4003 240.4 98.3003 240.5 98.1003H242.8C242.879 98.09 242.96 98.1036 243.031 98.1392C243.102 98.1748 243.161 98.2309 243.2 98.3003C243.3 98.4003 243.3 98.5003 243.3 98.7003V116.5H251.6C251.8 116.6 251.8 116.8 251.8 117V118.6C251.8 118.8 251.8 118.9 251.6 119C251.554 119.062 251.493 119.113 251.424 119.148C251.355 119.182 251.278 119.2 251.2 119.2H240.9C240.748 119.18 240.607 119.11 240.499 119.002C240.391 118.893 240.321 118.752 240.3 118.6ZM268 118.6V109L261.2 98.9003C261.148 98.8091 261.12 98.7056 261.12 98.6003C261.12 98.495 261.148 98.3915 261.2 98.3003C261.242 98.2043 261.312 98.1237 261.402 98.0699C261.492 98.0161 261.596 97.9917 261.7 98.0003H263.8C263.905 97.9917 264.009 98.0161 264.099 98.0699C264.188 98.1237 264.259 98.2043 264.3 98.3003L269.6 106L274.9 98.3003C274.935 98.2196 274.99 98.1494 275.06 98.0967C275.13 98.0441 275.213 98.0108 275.3 98.0003H277.5C277.605 97.9917 277.709 98.0161 277.799 98.0699C277.888 98.1237 277.959 98.2043 278 98.3003C278.053 98.3915 278.081 98.495 278.081 98.6003C278.081 98.7056 278.053 98.8091 278 98.9003L271.1 109V118.6C271.08 118.752 271.01 118.893 270.902 119.002C270.793 119.11 270.652 119.18 270.5 119.2H268.6C268.448 119.18 268.307 119.11 268.199 119.002C268.091 118.893 268.021 118.752 268 118.6Z" fill="white"/>
</g>
<defs>
<clipPath id="clip0_1172_56511">
<rect width="400" height="180.7" fill="white" transform="translate(0.100586)"/>
</clipPath>
</defs>
</svg>
