<svg width="85" height="85" viewBox="0 0 85 85" fill="none" xmlns="http://www.w3.org/2000/svg">
<path fill-rule="evenodd" clip-rule="evenodd" d="M21.5469 48.563L22.1925 48.5663L42.7032 83.8244L63.1643 48.563L63.8372 48.5655L42.6991 84.9998L21.866 49.1194L21.5469 48.563Z" fill="black"/>
<path fill-rule="evenodd" clip-rule="evenodd" d="M28.1191 48.5683L29.7816 48.5625L42.6992 70.7501L55.5714 48.5641L57.2653 48.5625L42.6992 73.6738L28.8218 49.826L28.1191 48.5683Z" fill="url(#paint0_linear_1127_55972)"/>
<path d="M20.9169 9.42965C20.9169 9.10616 21.0831 9.03784 21.8329 9.03784C23.4424 9.02056 24.3303 10.7582 24.3303 13.9256C24.3303 18.201 23.1647 19.0183 21.847 19.0183C21.0699 19.0183 20.9169 18.8142 20.9169 18.4224V9.42965ZM17.7119 8.44189V8.93577C18.5584 8.98681 18.6973 9.07241 18.6973 9.88979V18.1672C18.6973 18.9681 18.6138 19.0702 17.7119 19.1039V19.6151H21.4716C23.3862 19.6151 26.7723 19.3764 26.7723 13.8071C26.7723 11.9674 26.4532 10.6561 25.6902 9.73668C24.9412 8.83371 23.845 8.44189 22.1239 8.44189H17.7119Z" fill="black"/>
<path d="M32.4253 15.5101C32.9106 15.5101 33.147 15.3908 33.147 14.8631C33.147 13.5856 32.7998 11.5591 30.247 11.5591C27.8604 11.5591 27.042 13.4498 27.042 15.6805C27.042 17.8602 27.7356 19.8365 30.2057 19.8192C31.7739 19.8192 32.6064 18.8652 33.0643 17.3836L32.7039 17.1449C32.26 18.252 31.6631 18.6265 30.886 18.6265C29.6237 18.6265 29.1798 17.3153 29.1798 15.5101H32.427H32.4253ZM29.1781 14.8796C29.1781 13.5511 29.4137 12.155 30.1908 12.155C30.9257 12.155 31.0787 13.3815 31.0787 14.3857C31.0787 14.8113 30.9679 14.8796 30.6761 14.8796H29.1773H29.1781Z" fill="black"/>
<path d="M39.9233 14.0453C39.9233 12.5464 39.3264 11.5586 37.9666 11.5586C37.2449 11.5586 36.6348 12.0352 35.7602 12.6484L35.594 11.5759L32.9858 12.0525V12.5291L33.4157 12.6139C33.5959 12.6476 33.7075 12.7842 33.7075 13.4312V18.3873C33.7075 19.0178 33.624 19.0689 32.9023 19.1199V19.6138H36.4124V19.1199C36.0239 19.0689 35.7602 19.1026 35.7602 18.4556V14.3679C35.7602 14.0107 35.8015 13.6189 35.885 13.4139C36.0379 13.0048 36.357 12.6649 36.8836 12.6649C37.5359 12.6649 37.869 13.1761 37.869 14.0955V18.4894C37.869 19.1364 37.6053 19.068 37.2168 19.1199V19.6138H40.7277V19.1199C40.006 19.0689 39.9225 19.0516 39.9225 18.4046V14.0445L39.9233 14.0453Z" fill="black"/>
<path d="M44.0999 12.4612V11.7632H42.8095V9.75391H42.0324L40.8395 11.7632H40.0352V12.4612H40.7709V17.7243C40.7709 19.2059 41.562 19.8192 42.311 19.8192C42.8244 19.8192 43.5179 19.5978 44.295 18.9335L44.1842 18.5417C44.0181 18.6265 43.7676 18.6948 43.5874 18.6948C43.1154 18.6948 42.8103 18.2519 42.8103 17.2469V12.4612H44.1008H44.0999Z" fill="black"/>
<path d="M46.1902 8.18701C45.4966 8.18701 45.1221 8.80025 45.1221 9.49826C45.1221 10.2136 45.4966 10.8441 46.1902 10.8441C46.8697 10.8441 47.2864 10.2136 47.2864 9.49826C47.2864 8.80025 46.8978 8.18701 46.2043 8.18701H46.1902ZM45.2189 18.3552C45.2189 19.0022 45.1213 19.0878 44.4277 19.1215V19.6154H48.0767V19.1215C47.355 19.0705 47.2723 19.0022 47.2723 18.3552V11.645L47.1888 11.5767L44.4972 12.0368V12.5307L44.927 12.6155C45.1213 12.6492 45.2189 12.7859 45.2189 13.4328V18.3552Z" fill="black"/>
<path d="M52.5904 14.2667V12.1208C52.0497 11.7117 51.314 11.5586 50.6477 11.5586C49.0935 11.5586 48.1222 12.5299 48.1222 14.1473C48.1222 15.3228 48.6769 16.0718 49.9533 16.7024C50.7163 17.0942 51.2718 17.5197 51.2718 18.235C51.2718 18.8993 50.9254 19.2401 50.398 19.2401C49.5796 19.2401 48.8025 17.9626 48.4694 16.6513H48.0527L48.2189 19.0697C48.6628 19.6146 49.6482 19.8187 50.3559 19.8187C51.896 19.8187 53.0202 18.933 53.0202 17.1452C53.0202 15.7994 52.382 15.1524 51.1883 14.5737C50.384 14.1819 49.8284 13.8247 49.8284 13.1431C49.8284 12.5809 50.0921 12.1554 50.6468 12.1554C51.271 12.1554 51.9513 13.0583 52.201 14.2675H52.5895L52.5904 14.2667Z" fill="black"/>
<path d="M57.0023 12.4612V11.7632H55.7118V9.75391H54.9348L53.7419 11.7632H52.9375V12.4612H53.6732V17.7243C53.6732 19.2059 54.4644 19.8192 55.2133 19.8192C55.7267 19.8192 56.4203 19.5978 57.1974 18.9335L57.0866 18.5417C56.9204 18.6265 56.6699 18.6948 56.4897 18.6948C56.0177 18.6948 55.7127 18.2519 55.7127 17.2469V12.4612H57.0031H57.0023Z" fill="black"/>
<path d="M60.0993 14.59C60.0993 13.8064 60.1961 13.4146 60.516 13.4146C60.7102 13.4146 60.9045 13.585 61.1823 13.8402C61.3484 14.0106 61.5014 14.1637 61.7651 14.1637C62.3892 14.1637 62.7364 13.38 62.7364 12.7331C62.7364 11.984 62.3619 11.5576 61.7932 11.5576C61.2244 11.5576 60.8219 12.0515 60.0448 13.1076L59.8927 11.5749L57.3258 12.0515V12.5281L57.7557 12.6129C57.95 12.6466 58.0475 12.8005 58.0475 13.4302V18.3526C58.0475 19.0168 57.964 19.0679 57.2432 19.1189V19.6128H61.1839V19.1189C60.1985 19.0506 60.1018 19.0168 60.1018 18.3526V14.5884L60.0993 14.59Z" fill="black"/>
<path d="M67.6293 11.7632V12.2743L68.2956 12.3764C68.4899 12.3937 68.5594 12.5131 68.4899 12.853C68.1568 14.3684 67.7269 16.106 67.3384 17.5194H67.3102C66.9076 16.2254 66.2695 14.3511 65.8677 12.904C65.7842 12.5806 65.8123 12.4102 66.0066 12.3764L66.5059 12.2743V11.7632H62.7734V12.2743C63.3281 12.3764 63.453 12.3427 63.6894 13.0069C64.3557 14.8804 65.313 17.6222 66.062 19.9385C66.1587 20.262 66.3257 20.909 66.2281 21.165C66.062 21.7272 65.895 21.8976 65.6313 21.8976C65.4783 21.8976 65.2708 21.761 65.1319 21.6251C64.8542 21.37 64.7715 21.2844 64.5351 21.2844C64.1184 21.2844 63.6613 21.9997 63.6613 22.6302C63.6613 23.2772 64.2028 23.669 64.688 23.669C65.6453 23.669 66.2 23.022 66.9077 20.7222C67.6707 18.2865 68.4618 15.4763 69.1413 13.3815C69.4332 12.4785 69.4604 12.3427 70.2094 12.2743V11.7632H67.6285H67.6293Z" fill="black"/>
<path d="M22.4278 25.3508V25.1442C22.088 25.1368 22.0004 25.0874 21.8921 24.8306C21.5664 23.954 20.843 21.7505 20.481 20.6458H19.6196C19.207 21.9151 18.411 24.2248 18.1431 24.8166C18.0274 25.066 17.9695 25.1163 17.6074 25.1377V25.3517H19.1054V25.1377L18.6854 25.1088C18.5407 25.0949 18.5333 25.0158 18.5697 24.8882C18.649 24.5244 18.7871 24.1186 18.9243 23.6618H20.2925C20.3933 23.9614 20.5744 24.503 20.6835 24.8594C20.7273 24.9944 20.705 25.0874 20.5752 25.0949L20.1627 25.1451V25.3517H22.4278V25.3508ZM20.1916 23.3836H19.0194C19.1566 22.9415 19.4898 21.8649 19.5914 21.5299H19.6129C19.7502 21.9793 20.0693 22.9843 20.1916 23.3836ZM27.1638 20.6746V20.8746L27.5623 20.9314C27.6995 20.9454 27.7069 21.0385 27.678 21.1957C27.4829 22.2081 27.2291 23.256 26.9472 24.3112H26.9183C26.6719 23.5054 26.1148 21.6591 25.8907 20.7685H25.1095C25.0227 21.2105 24.487 23.8124 24.3787 24.2692H24.3639C24.1688 23.5416 23.6761 21.6673 23.5678 21.1751C23.5463 21.0393 23.5173 20.9471 23.6835 20.9183L23.9943 20.8755V20.6755H21.888V20.8755C22.2211 20.9109 22.293 20.9611 22.3658 21.1817C22.7857 22.5366 23.1759 24.019 23.5231 25.3525H24.406C24.3911 25.4241 25.1368 22.0805 25.1153 22.1513H25.1368C25.2815 22.6222 25.875 24.7104 26.0337 25.3525H26.9315C27.2498 24.1762 27.7417 22.3728 28.0897 21.2533C28.1839 20.9537 28.2492 20.9257 28.6179 20.8755V20.6755H27.163L27.1638 20.6746ZM32.7538 25.3517V25.1451C32.414 25.1377 32.3272 25.0883 32.2181 24.8315C31.8924 23.9548 31.1691 21.7513 30.807 20.6466H29.9456C29.5331 21.9159 28.737 24.2256 28.4691 24.8175C28.3534 25.0669 28.2955 25.1171 27.9334 25.1385V25.3525H29.4314V25.1385L29.0114 25.1097C28.8668 25.0957 28.8593 25.0167 28.8957 24.8891C28.9751 24.5252 29.1123 24.1194 29.2503 23.6626H30.6185C30.7193 23.9622 30.9004 24.5038 31.0095 24.8603C31.0533 24.9953 31.031 25.0883 30.9012 25.0957L30.4887 25.1459V25.3525H32.7538V25.3517ZM30.5176 23.3844H29.3454C29.4826 22.9424 29.8158 21.8657 29.9175 21.5307H29.939C30.0762 21.9801 30.3953 22.9852 30.5176 23.3844ZM34.5303 23.149H34.7552C35.1528 23.149 35.3413 23.2346 35.4355 23.7408C35.486 23.9902 35.5372 24.3754 35.6381 24.6676C35.8191 25.1665 36.1159 25.3517 36.8756 25.3517H37.4179V25.1377C36.9839 25.1163 36.9112 24.8668 36.745 24.168C36.6152 23.5548 36.354 23.163 35.6306 22.9843V22.9341C36.3763 22.8485 36.8177 22.4567 36.8177 21.8221C36.8177 20.8022 36.0646 20.6738 35.2619 20.6738H32.8588V20.8804C33.3143 20.9018 33.3722 20.9372 33.3722 21.2796V24.7442C33.3722 25.0866 33.3292 25.122 32.8588 25.136V25.35H35.0445V25.136C34.5816 25.1146 34.5303 25.0866 34.5303 24.7442V23.1473V23.149ZM34.5303 21.1529C34.5303 20.9751 34.5452 20.9249 34.8924 20.9249C35.3413 20.9249 35.6232 21.2459 35.6232 21.9019C35.6232 22.4938 35.5 22.9004 34.7618 22.9004H34.5303V21.1537V21.1529ZM39.144 21.0887C39.144 20.9528 39.2308 20.9249 39.6218 20.9249C40.4617 20.9175 40.9247 21.6451 40.9247 22.9712C40.9247 24.7607 40.3171 25.1031 39.6293 25.1031C39.2242 25.1031 39.144 25.0175 39.144 24.8537V21.0895V21.0887ZM37.4725 20.6755V20.8821C37.9139 20.9035 37.9867 20.9389 37.9867 21.2813V24.7458C37.9867 25.0809 37.9437 25.1237 37.4725 25.1377V25.3517H39.4334C40.432 25.3517 42.1978 25.2521 42.1978 22.9201C42.1978 22.1505 42.0316 21.6015 41.6331 21.2162C41.2421 20.8384 40.6709 20.6746 39.7731 20.6746H37.4716L37.4725 20.6755ZM45.7624 21.9875V20.8607C45.3863 20.6392 44.8654 20.561 44.4959 20.561C43.3022 20.561 42.8021 21.1669 42.8021 21.9801C42.8021 22.8642 43.4171 23.1704 44.1264 23.4988C44.7489 23.791 44.9944 24.0478 44.9944 24.4824C44.9944 24.8957 44.7844 25.2167 44.2562 25.2167C43.7279 25.2167 43.2212 24.689 42.9459 23.8338H42.7434L42.8451 25.0743C43.2212 25.3953 43.8296 25.4661 44.2636 25.4661C45.631 25.4661 46.0294 24.6965 46.0294 23.9902C46.0294 23.0988 45.3929 22.8065 44.8068 22.5357C44.2711 22.2789 43.7792 22.0583 43.7792 21.5233C43.7792 21.0673 44.0545 20.8104 44.4736 20.8104C44.9225 20.8104 45.3639 21.1883 45.5665 21.9867H45.7616L45.7624 21.9875ZM51.2515 24.0338L51.063 23.9836C50.7952 24.461 50.6869 24.5113 50.4844 24.5113H48.4144C48.5375 24.2907 49.0294 23.9556 49.804 23.5984C50.672 23.1778 51.0126 22.8214 51.0126 22.1159C51.0126 21.1603 50.3471 20.7973 49.4353 20.7973C48.3499 20.7973 47.8216 21.3463 47.8216 21.9027C47.8216 22.181 48.0895 22.3588 48.3425 22.3588C48.4871 22.3588 48.6252 22.2946 48.6607 22.1019C48.8054 21.3817 48.9501 21.0467 49.3196 21.0467C49.7106 21.0467 49.8338 21.4319 49.8338 21.8953C49.8338 22.302 49.7974 22.851 49.0451 23.5062C48.068 24.34 47.7787 24.8463 47.7787 25.2957L47.8216 25.3525H50.9556L51.2524 24.0338H51.2515ZM53.1942 21.0467C53.7373 21.0467 53.744 22.316 53.744 23.1144C53.744 23.963 53.7291 25.1887 53.2083 25.1887C52.6651 25.1887 52.6511 23.9482 52.6511 23.1144C52.6511 22.316 52.6437 21.0467 53.1868 21.0467H53.1942ZM53.2017 20.7973C51.8848 20.7973 51.4863 21.8879 51.4863 23.1144C51.4863 24.3121 51.8914 25.4315 53.2017 25.4315C54.5186 25.4315 54.9096 24.3335 54.9096 23.1144C54.9096 21.9027 54.4896 20.7973 53.2091 20.7973H53.2017ZM58.6834 24.0338L58.4949 23.9836C58.227 24.461 58.1187 24.5113 57.9162 24.5113H55.8462C55.9694 24.2907 56.4612 23.9556 57.2358 23.5984C58.1039 23.1778 58.4444 22.8214 58.4444 22.1159C58.4444 21.1603 57.779 20.7973 56.8671 20.7973C55.7817 20.7973 55.2535 21.3463 55.2535 21.9027C55.2535 22.181 55.5213 22.3588 55.7743 22.3588C55.9189 22.3588 56.0562 22.2946 56.0926 22.1019C56.2372 21.3817 56.3819 21.0467 56.7514 21.0467C57.1424 21.0467 57.2656 21.4319 57.2656 21.8953C57.2656 22.302 57.2292 22.851 56.477 23.5062C55.4998 24.34 55.2105 24.8463 55.2105 25.2957L55.2535 25.3525H58.3874L58.6842 24.0338H58.6834ZM59.6564 22.9572C59.6564 23.121 59.7357 23.1992 59.8804 23.1992C60.0325 23.1992 60.1846 23.1062 60.4524 23.1062C60.7707 23.1062 61.0675 23.2132 61.0675 24.1046C61.0675 24.7319 60.9303 25.1879 60.5103 25.1879C60.2276 25.1879 59.9895 25.0167 59.7721 24.368C59.7291 24.2256 59.6489 24.126 59.4828 24.126C59.2587 24.126 58.9619 24.3112 58.9619 24.6323C58.9619 24.8891 59.2438 25.4307 60.5103 25.4307C61.6247 25.4307 62.2687 24.9171 62.2687 24.0692C62.2687 23.0996 61.3205 22.9926 60.9658 22.9358V22.8642C61.4147 22.7711 62.0661 22.6073 62.0661 21.9159C62.0661 20.9677 61.2196 20.7965 60.5244 20.7965C59.6845 20.7965 59.0554 21.2097 59.0554 21.6945C59.0554 21.9653 59.3447 22.1011 59.5257 22.1011C59.6845 22.1011 59.7498 22.0155 59.801 21.8657C59.9821 21.3381 60.1052 21.0459 60.4376 21.0459C60.8501 21.0459 60.9154 21.6023 60.9154 21.8871C60.9154 22.3151 60.8716 22.8 60.4524 22.8C60.1995 22.8 60.0474 22.7144 59.8738 22.7144C59.7365 22.7144 59.6564 22.7925 59.6564 22.9498V22.9572Z" fill="url(#paint1_linear_1127_55972)"/>
<path d="M26.959 6.42139L26.7631 7.00252C26.749 7.03709 26.749 7.06508 26.749 7.08565C26.749 7.1408 26.7771 7.17538 26.8259 7.17538C26.9309 7.17538 26.9731 7.00252 27.1334 6.8988C27.3781 6.73912 27.7906 6.67738 28.3784 6.66997V10.2959C28.3784 10.3165 28.3784 10.3304 28.3784 10.3444C28.3784 10.5313 28.3718 10.5799 28.2246 10.5799H27.7146V10.8087H29.8755V10.5799H29.4911C29.1761 10.5799 29.1621 10.4004 29.1621 9.68017V6.66997C29.7358 6.67656 30.1343 6.73253 30.393 6.8914C30.5608 6.99511 30.603 7.17538 30.708 7.17538C30.7568 7.17538 30.7915 7.1408 30.7915 7.08565C30.7915 7.06508 30.7849 7.03709 30.7708 7.00252L30.5823 6.42139H26.9598H26.959ZM30.9171 6.42139V6.64281H31.1271C31.4421 6.64281 31.4627 6.83625 31.4627 7.54908V10.2967C31.4627 10.3173 31.4627 10.3313 31.4627 10.3453C31.4627 10.5321 31.4553 10.5807 31.309 10.5807H31.0502V10.8095H32.84V10.5807H32.5746C32.2597 10.5807 32.2464 10.4012 32.2464 9.68099V8.55248H34.1974V10.2967C34.1974 10.3173 34.1974 10.3313 34.1974 10.3453C34.1974 10.5321 34.1908 10.5807 34.0436 10.5807H33.7849V10.8095H35.554V10.5807H35.3093C34.9943 10.5807 34.9811 10.4012 34.9811 9.68099V6.93338C34.9811 6.8988 34.9811 6.87082 34.9811 6.84365C34.9811 6.69137 34.9877 6.64281 35.1348 6.64281H35.3936V6.42139H33.6311V6.64281H33.8692C34.1842 6.64281 34.1982 6.84365 34.1982 7.54908V8.27591H32.2473V6.93338C32.2473 6.88481 32.2473 6.85024 32.2473 6.81567C32.2473 6.68397 32.2613 6.64281 32.3944 6.64281H32.6598V6.42139H30.9188H30.9171ZM35.9516 6.42139V6.64281H36.1616C36.4765 6.64281 36.4972 6.82966 36.4972 7.54908V10.2967C36.4972 10.3379 36.4972 10.3798 36.4972 10.4078C36.4972 10.5395 36.4831 10.5873 36.3434 10.5873H36.0847V10.8087H39.3434L39.5179 10.2136C39.5319 10.165 39.5319 10.1378 39.5319 10.1238C39.5319 10.0893 39.4972 10.0547 39.4617 10.0547C39.3286 10.0547 39.2451 10.2967 39.0004 10.3938C38.7623 10.4835 38.3994 10.5601 37.9935 10.5601H37.6091C37.2941 10.5601 37.2801 10.3938 37.2801 9.66041V8.50474H37.8604C37.9307 8.50474 37.986 8.50474 38.0497 8.50474C38.5457 8.50474 38.7003 8.51873 38.7003 8.73274V8.96158H38.9103V7.75733H38.7003V7.95159C38.7003 8.22816 38.5184 8.25615 37.8678 8.25615H37.2809V6.88563C37.2809 6.86506 37.2809 6.84448 37.2809 6.82308C37.2809 6.70537 37.2883 6.6708 37.4421 6.6708H37.8761C38.4424 6.6708 38.8061 6.74652 38.9458 6.85106C39.0649 6.94078 39.0855 7.11446 39.1831 7.11446C39.2393 7.11446 39.2533 7.07989 39.2674 6.99676L39.3509 6.42221H35.9524L35.9516 6.42139Z" fill="url(#paint2_linear_1127_55972)"/>
<path fill-rule="evenodd" clip-rule="evenodd" d="M0 0L2.53211 1.5763H82.3833L84.9998 0.0716126H1.21274L0 0Z" fill="url(#paint3_linear_1127_55972)"/>
<path fill-rule="evenodd" clip-rule="evenodd" d="M2.51475 4.56427L18.0844 31.0535L19.8642 31.0099L2.53211 1.5763L0 0L2.51475 4.56427Z" fill="url(#paint4_linear_1127_55972)"/>
<path fill-rule="evenodd" clip-rule="evenodd" d="M67.304 31.0002L84.9998 0.0717773L82.3834 1.57646L65.3018 31.0265L67.304 31.0002Z" fill="url(#paint5_linear_1127_55972)"/>
<path d="M29.8077 36.5663V38.8537C29.8077 39.2908 29.7573 39.3369 29.0894 39.3559V39.6349H32.1563V39.3559C31.5082 39.3369 31.4371 39.2719 31.4371 38.8537V34.3068C31.4371 33.8886 31.4983 33.8326 32.1563 33.8046V33.5347H29.0894V33.8046C29.7375 33.8326 29.8077 33.8886 29.8077 34.3068V36.2033H27.5096V34.3068C27.5096 33.8697 27.5906 33.8326 28.2585 33.8046V33.5347H25.1709V33.8046C25.819 33.8326 25.8893 33.8697 25.8893 34.3068V38.8537C25.8893 39.2908 25.8289 39.3369 25.1709 39.3559V39.6349H28.2585V39.3559C27.56 39.3369 27.5096 39.2628 27.5096 38.8537V36.5663H29.8077ZM34.9645 34.3158C34.9645 33.8697 35.0555 33.8318 35.6829 33.8046V33.5347H32.6259V33.8046C33.2839 33.8326 33.3443 33.8697 33.3443 34.3158V38.8447C33.3443 39.2999 33.2839 39.3377 32.6259 39.3559V39.6349H35.6829V39.3559C35.0447 39.3369 34.9645 39.2818 34.9645 38.8447V34.3158ZM42.1566 37.5614C42.1566 37.1523 42.2376 37.1054 42.6626 37.0684V36.7893H39.7064V37.0684C40.3842 37.1054 40.476 37.1523 40.476 37.5894V39.0768C40.476 39.2258 40.4661 39.3279 40.3446 39.3838C40.2536 39.4209 40.0817 39.4579 39.8287 39.4579C38.1282 39.4579 38.0373 37.1243 38.0373 36.5292C38.0373 35.6921 38.2192 33.7026 39.88 33.7026C41.0034 33.7026 41.4184 34.5578 41.7532 35.404H42.0566V33.7956C41.4184 33.4705 40.5785 33.3774 39.8295 33.3774C36.6816 33.3774 36.2558 35.4978 36.2558 36.6132C36.2558 38.1014 36.7923 38.8727 37.5215 39.3287C38.22 39.7567 39.1913 39.7847 39.799 39.7847C40.538 39.7847 41.4796 39.6176 42.1575 39.3476V37.5622L42.1566 37.5614ZM47.7086 36.5663V38.8537C47.7086 39.2908 47.6582 39.3369 46.9902 39.3559V39.6349H50.0572V39.3559C49.4091 39.3369 49.338 39.2719 49.338 38.8537V34.3068C49.338 33.8886 49.3992 33.8326 50.0572 33.8046V33.5347H46.9902V33.8046C47.6383 33.8326 47.7086 33.8886 47.7086 34.3068V36.2033H45.4104V34.3068C45.4104 33.8697 45.4915 33.8326 46.1594 33.8046V33.5347H43.0718V33.8046C43.7199 33.8326 43.7901 33.8697 43.7901 34.3068V38.8537C43.7901 39.2908 43.7298 39.3369 43.0718 39.3559V39.6349H46.1594V39.3559C45.4609 39.3369 45.4104 39.2628 45.4104 38.8537V36.5663H47.7086ZM52.8654 34.3158C52.8654 33.8787 52.9365 33.8228 53.7053 33.8046V33.5347H50.5061V33.8046C51.174 33.8326 51.2451 33.8787 51.2451 34.3158V38.8447C51.2451 39.2908 51.174 39.3279 50.5061 39.3559V39.6349H55.6588L55.7803 37.8495H55.4769C55.1123 38.6768 54.961 39.2818 53.8574 39.2818C53.0985 39.2818 52.8654 39.2077 52.8654 38.6496V34.3166V34.3158ZM60.0575 39.6349V39.3559C59.2374 39.3369 59.1564 39.2908 59.1564 38.8447V37.2914C59.1564 37.0404 59.2275 36.8634 59.3383 36.6494C59.7227 35.8773 60.1889 34.9941 60.6444 34.2689C60.8569 33.9248 61.0189 33.8689 61.5249 33.8129V33.5338H59.3995V33.8129L59.9054 33.8689C60.0873 33.8878 60.1385 33.9899 60.0575 34.2129C59.8756 34.678 59.3689 35.8123 58.944 36.6124H58.9233C58.5992 36.0543 57.9412 34.8739 57.5667 34.1578C57.4956 34.0277 57.4659 33.8878 57.6882 33.8697L58.2041 33.8137V33.5347H55.0759V33.8137C55.5819 33.8507 55.6323 33.9347 55.8861 34.3249C56.2101 34.808 56.9798 36.1292 57.3336 36.7704C57.4345 36.9474 57.5262 37.1614 57.5262 37.3935V38.8439C57.5262 39.29 57.4452 39.3369 56.6152 39.355V39.6341H60.0567L60.0575 39.6349Z" fill="black"/>
<path d="M16.2572 44.8946C15.8364 45.9828 15.4165 46.6891 14.3228 46.6891C12.6091 46.6891 12.3677 44.9127 12.3677 43.7225C12.3677 43.0813 12.4305 40.9329 14.2178 40.9329C15.5107 40.9329 15.8786 41.9462 16.1307 42.5973H16.4457V41.007C15.8257 40.6629 14.7427 40.6069 14.3013 40.6069C12.8083 40.6069 11.9362 40.9699 11.3476 41.5461C10.7383 42.1503 10.5068 42.9685 10.5068 43.8797C10.5068 45.7861 11.4848 47.0134 14.1128 47.0134C14.7956 47.0134 15.8364 46.9204 16.4573 46.5952L16.573 44.8938H16.258L16.2572 44.8946ZM20.6766 40.9337C22.0853 40.9337 22.201 42.71 22.201 43.8163C22.201 45.0066 22.0745 46.6899 20.6766 46.6899C19.2787 46.6899 19.1522 45.0066 19.1522 43.8163C19.1522 42.71 19.2787 40.9337 20.6659 40.9337H20.6766ZM20.6766 40.6086C18.3743 40.6086 17.3021 41.8079 17.3021 43.8172C17.3021 45.8256 18.3743 47.0158 20.6766 47.0158C22.9789 47.0158 24.0511 45.8256 24.0511 43.8172C24.0511 41.8087 22.9789 40.6086 20.6874 40.6086H20.6766ZM26.904 46.8669V46.5878C26.2939 46.5318 26.0103 46.6249 25.9368 45.9647C25.8946 45.6486 25.8839 45.2486 25.8839 44.6353V41.6787H25.9153C26.5353 43.1109 27.4711 45.4264 28.0597 46.8767H28.6169C28.9955 45.8355 30.0363 43.0739 30.5934 41.6597H30.6248V46.0767C30.6248 46.5228 30.5298 46.5508 29.8784 46.5878V46.8669H33.0007V46.5878C32.3171 46.5689 32.2542 46.5228 32.2542 46.0767V41.5577C32.2542 41.1115 32.3171 41.0646 33.0007 41.0366V40.7666H30.5513C30.0784 41.9198 29.5006 43.4542 28.9855 44.6724H28.9541C28.6491 43.9842 27.5876 41.7527 27.1669 40.7666H24.6339V41.0366C25.3068 41.0646 25.4226 41.1107 25.4226 41.5478V44.6353C25.4226 45.2305 25.4019 45.6585 25.3705 45.9647C25.3077 46.5878 25.1605 46.5137 24.5397 46.5878V46.8669H26.9048H26.904ZM35.7172 46.8669V46.5878C35.1079 46.5318 34.8235 46.6249 34.75 45.9647C34.7078 45.6486 34.6971 45.2486 34.6971 44.6353V41.6787H34.7285C35.3485 43.1109 36.2843 45.4264 36.8729 46.8767H37.4301C37.8087 45.8355 38.8495 43.0739 39.4066 41.6597H39.4381V46.0767C39.4381 46.5228 39.343 46.5508 38.6916 46.5878V46.8669H41.8139V46.5878C41.1311 46.5689 41.0674 46.5228 41.0674 46.0767V41.5577C41.0674 41.1115 41.1303 41.0646 41.8139 41.0366V40.7666H39.3645C38.8916 41.9198 38.3129 43.4542 37.7979 44.6724H37.7665C37.4615 43.9842 36.4 41.7527 35.9792 40.7666H33.4463V41.0366C34.1192 41.0646 34.2349 41.1107 34.2349 41.5478V44.6353C34.2349 45.2305 34.2143 45.6585 34.1829 45.9647C34.12 46.5878 33.9729 46.5137 33.3521 46.5878V46.8669H35.7172ZM43.0382 46.0767C43.0382 46.5228 42.9647 46.5598 42.2917 46.5878V46.8669H47.8421L48.0206 45.0074H47.7057C47.3378 45.9186 47.0749 46.5137 45.8977 46.5137C44.7941 46.5137 44.7205 46.4487 44.7205 45.8816V43.8912H45.5613C46.2441 43.8912 46.3598 44.0863 46.5384 44.7654H46.8542V42.6829H46.5384C46.3598 43.3899 46.2234 43.5101 45.5613 43.5101H44.7205V41.4367C44.7205 41.1856 44.7941 41.1206 45.0677 41.1206H45.7406C46.75 41.1206 47.0021 41.5486 47.3279 42.4129H47.6428V40.7666H42.2711V41.0366C42.944 41.0737 43.0382 41.1107 43.0382 41.5577V46.0767ZM54.4695 46.8669V42.9981C54.4695 42.403 54.4803 41.975 54.5117 41.6589C54.5853 41.0728 54.6902 41.1107 55.2788 41.0358V40.7658H52.9344V41.0358C53.5544 41.0918 53.8809 40.9798 53.9438 41.6589C53.9752 41.975 53.9967 42.3931 53.9967 42.9981V44.9325L53.9545 44.9234C52.9451 43.5842 51.8209 42.1429 50.8007 40.7666H48.5092V41.0366C49.2135 41.1016 49.2871 41.1486 49.2871 41.5206V44.6172C49.2871 45.2683 49.2664 45.6585 49.235 45.9655C49.1722 46.5697 49.0349 46.5146 48.4364 46.5886V46.8677H50.7908V46.5886C50.1708 46.5327 49.8765 46.6356 49.8029 45.9655C49.7715 45.6494 49.75 45.2774 49.75 44.6543V41.9766H49.7922C50.9909 43.604 52.2416 45.2963 53.3767 46.8677H54.4695V46.8669ZM58.0275 41.3058C58.0275 41.1288 58.154 41.0918 58.7211 41.0918C59.9405 41.0827 60.6134 42.031 60.6134 43.7604C60.6134 46.0939 59.7305 46.5409 58.7319 46.5409C58.1433 46.5409 58.0275 46.429 58.0275 46.2158V41.3058ZM55.5996 40.7666V41.0366C56.2411 41.0646 56.3461 41.1107 56.3461 41.5577V46.0767C56.3461 46.5137 56.2833 46.5697 55.5996 46.5878V46.8669H58.4483C59.8991 46.8669 62.4643 46.7368 62.4643 43.6961C62.4643 42.6919 62.2229 41.9758 61.6443 41.4737C61.0763 40.9806 60.2463 40.7666 58.9427 40.7666H55.5996ZM63.8242 46.0767C63.8242 46.5228 63.7506 46.5598 63.0777 46.5878V46.8669H68.628L68.8066 45.0074H68.4916C68.1238 45.9186 67.8609 46.5137 66.6837 46.5137C65.5801 46.5137 65.5065 46.4487 65.5065 45.8816V43.8912H66.3472C67.0301 43.8912 67.1458 44.0863 67.3244 44.7654H67.6401V42.6829H67.3244C67.1458 43.3899 67.0094 43.5101 66.3472 43.5101H65.5065V41.4367C65.5065 41.1856 65.5801 41.1206 65.8529 41.1206H66.5258C67.5352 41.1206 67.7873 41.5486 68.113 42.4129H68.428V40.7666H63.0562V41.0366C63.7291 41.0737 63.8234 41.1107 63.8234 41.5577V46.0767H63.8242ZM71.7545 41.3066C71.7545 41.1296 71.881 41.0926 72.4481 41.0926C73.6674 41.0835 74.3404 42.0318 74.3404 43.7612C74.3404 46.0948 73.4575 46.5417 72.4588 46.5417C71.8703 46.5417 71.7545 46.4298 71.7545 46.2166V41.3066ZM69.3266 40.7674V41.0374C69.9681 41.0654 70.0731 41.1115 70.0731 41.5585V46.0775C70.0731 46.5146 70.0102 46.5705 69.3266 46.5886V46.8677H72.1753C73.6261 46.8677 76.1913 46.7376 76.1913 43.697C76.1913 42.6928 75.9499 41.9766 75.3712 41.4745C74.8033 40.9815 73.9733 40.7674 72.6696 40.7674H69.3266Z" fill="black"/>
<path fill-rule="evenodd" clip-rule="evenodd" d="M78.0916 11.7134H84.7281L73.5771 30.9451H72.8926L83.6915 12.3209H77.7477L78.0916 11.7134Z" fill="url(#paint6_linear_1127_55972)"/>
<path fill-rule="evenodd" clip-rule="evenodd" d="M14.6953 51.6392H70.8102V64.9854H14.6953V51.6392Z" fill="url(#paint7_linear_1127_55972)"/>
<path fill-rule="evenodd" clip-rule="evenodd" d="M70.6762 57.3495C70.6762 57.3495 74.0921 58.4459 75.8892 59.5645L73.0959 64.3214L76.5506 73.515C76.5506 73.515 70.4381 67.9349 58.6299 68.5704L70.6911 64.9848L70.6762 57.3486V57.3495Z" fill="url(#paint8_linear_1127_55972)"/>
<path fill-rule="evenodd" clip-rule="evenodd" d="M70.6894 64.9854L58.6348 68.5693V64.9854H70.6894Z" fill="url(#paint9_linear_1127_55972)"/>
<path d="M30.903 56.676H30.283L29.5539 57.9247L28.8247 56.676H28.1543L29.2108 58.4828V59.4862H29.8424V58.4902L30.903 56.676ZM31.8901 59.5183C32.5572 59.5183 33.0408 59.0565 33.0408 58.4062C33.0408 57.756 32.5572 57.2942 31.8901 57.2942C31.2229 57.2942 30.736 57.756 30.736 58.4062C30.736 59.0565 31.2237 59.5183 31.8901 59.5183ZM31.8901 59.0046C31.5858 59.0046 31.3519 58.7799 31.3519 58.4062C31.3519 58.0325 31.5858 57.8078 31.8901 57.8078C32.1943 57.8078 32.4241 58.0325 32.4241 58.4062C32.4241 58.7799 32.1943 59.0046 31.8901 59.0046ZM34.9521 57.3263V58.3939C34.9521 58.7915 34.7495 58.9758 34.4685 58.9758C34.1998 58.9758 34.0435 58.8153 34.0435 58.454V57.3255H33.4351V58.5462C33.4351 59.2129 33.8055 59.5175 34.3321 59.5175C34.59 59.5175 34.8239 59.417 34.9835 59.2285V59.4854H35.5605V57.3255H34.9521V57.3263ZM37.4015 57.2942C37.1171 57.2942 36.8708 57.3946 36.7071 57.579V57.3263H36.1259V59.4862H36.7344V58.4186C36.7344 58.021 36.9452 57.8366 37.2378 57.8366C37.5065 57.8366 37.6627 57.9971 37.6627 58.3461V59.4862H38.2712V58.2498C38.2712 57.5913 37.8967 57.2942 37.4015 57.2942ZM40.4321 57.3263V57.6037C40.2726 57.3946 40.0303 57.2942 39.7377 57.2942C39.1565 57.2942 38.6886 57.7074 38.6886 58.3379C38.6886 58.9684 39.1565 59.3816 39.7377 59.3816C40.0105 59.3816 40.2411 59.2936 40.4007 59.1125V59.2047C40.4007 59.594 40.2139 59.7949 39.7848 59.7949C39.5153 59.7949 39.2235 59.6986 39.0433 59.5504L38.8019 59.9998C39.0474 60.1965 39.4335 60.297 39.8319 60.297C40.5883 60.297 41.01 59.9274 41.01 59.1248V57.3263H40.4329H40.4321ZM39.8592 58.868C39.5393 58.868 39.3053 58.6548 39.3053 58.3379C39.3053 58.021 39.5393 57.8078 39.8592 57.8078C40.1791 57.8078 40.409 58.0202 40.409 58.3379C40.409 58.6548 40.1791 58.868 39.8592 58.868ZM42.722 59.4862H43.962C44.8548 59.4862 45.4674 58.9322 45.4674 58.0811C45.4674 57.23 44.8548 56.676 43.962 56.676H42.722V59.4862ZM43.3536 58.952V57.2094H43.9306C44.4729 57.2094 44.8275 57.5428 44.8275 58.0811C44.8275 58.6194 44.4729 58.952 43.9306 58.952H43.3536ZM47.9557 58.4136C47.9557 57.7189 47.4804 57.2934 46.8637 57.2934C46.2238 57.2934 45.7443 57.7592 45.7443 58.4054C45.7443 59.0475 46.2164 59.5175 46.9414 59.5175C47.32 59.5175 47.6126 59.3973 47.8069 59.1685L47.4837 58.8071C47.3398 58.9479 47.1794 59.0162 46.9571 59.0162C46.6371 59.0162 46.4148 58.8515 46.3561 58.5824H47.9433C47.9474 58.5305 47.9549 58.4622 47.9549 58.4136H47.9557ZM46.8678 57.7675C47.1406 57.7675 47.3398 57.9445 47.3828 58.2169H46.3495C46.3924 57.9395 46.5917 57.7675 46.8686 57.7675H46.8678ZM49.6372 57.2942C49.3528 57.2942 49.1064 57.3946 48.9427 57.579V57.3263H48.3616V59.4862H48.97V58.4186C48.97 58.021 49.1808 57.8366 49.4735 57.8366C49.743 57.8366 49.8984 57.9971 49.8984 58.3461V59.4862H50.5068V58.2498C50.5068 57.5913 50.1323 57.2942 49.6372 57.2942ZM52.2461 58.9404C52.18 58.9923 52.0899 59.0203 52.0006 59.0203C51.8369 59.0203 51.7394 58.9199 51.7394 58.7355V57.8564H52.2619V57.3748H51.7394V56.8489H51.131V57.3748H50.8069V57.8564H51.131V58.7437C51.131 59.2573 51.4195 59.5183 51.9146 59.5183C52.1023 59.5183 52.285 59.4738 52.4098 59.3816L52.2461 58.9396V58.9404ZM53.0571 57.025C53.2836 57.025 53.4357 56.8727 53.4357 56.6637C53.4357 56.471 53.2836 56.3262 53.0571 56.3262C52.8306 56.3262 52.6785 56.4785 52.6785 56.6752C52.6785 56.8719 52.8306 57.0242 53.0571 57.0242V57.025ZM52.7529 59.4862H53.3613V57.3263H52.7529V59.4862ZM54.6328 59.5183C55.2602 59.5183 55.6231 59.2335 55.6231 58.8318C55.6231 57.9807 54.3558 58.3379 54.3558 57.9683C54.3558 57.8556 54.4732 57.7675 54.746 57.7675C54.937 57.7675 55.1436 57.8078 55.3503 57.928L55.5529 57.4827C55.3536 57.3625 55.0337 57.2942 54.7452 57.2942C54.1326 57.2942 53.7738 57.5831 53.7738 57.993C53.7738 58.8565 55.0411 58.4943 55.0411 58.8483C55.0411 58.9684 54.9362 59.045 54.6551 59.045C54.3972 59.045 54.1128 58.961 53.926 58.8359L53.7234 59.2853C53.9185 59.4179 54.2773 59.5183 54.6319 59.5183H54.6328ZM57.1872 58.9404C57.1211 58.9923 57.031 59.0203 56.9417 59.0203C56.778 59.0203 56.6804 58.9199 56.6804 58.7355V57.8564H57.2029V57.3748H56.6804V56.8489H56.072V57.3748H55.7479V57.8564H56.072V58.7437C56.072 59.2573 56.3605 59.5183 56.8557 59.5183C57.0425 59.5183 57.226 59.4738 57.3509 59.3816L57.1872 58.9396V58.9404Z" fill="white"/>
<defs>
<linearGradient id="paint0_linear_1127_55972" x1="42.2603" y1="70.1697" x2="42.2619" y2="44.7316" gradientUnits="userSpaceOnUse">
<stop/>
</linearGradient>
<linearGradient id="paint1_linear_1127_55972" x1="18.7706" y1="20.7981" x2="61.8801" y2="20.7682" gradientUnits="userSpaceOnUse">
<stop/>
</linearGradient>
<linearGradient id="paint2_linear_1127_55972" x1="27.4988" y1="6.85847" x2="39.5319" y2="6.6177" gradientUnits="userSpaceOnUse">
<stop/>
</linearGradient>
<linearGradient id="paint3_linear_1127_55972" x1="2.21219" y1="0.0716125" x2="84.9998" y2="0.0707822" gradientUnits="userSpaceOnUse">
<stop/>
</linearGradient>
<linearGradient id="paint4_linear_1127_55972" x1="2.40976" y1="1.32854" x2="19.7075" y2="31.9281" gradientUnits="userSpaceOnUse">
<stop/>
</linearGradient>
<linearGradient id="paint5_linear_1127_55972" x1="83.7796" y1="-0.583436" x2="66.9313" y2="30.7964" gradientUnits="userSpaceOnUse">
<stop/>
</linearGradient>
<linearGradient id="paint6_linear_1127_55972" x1="73.5299" y1="11.6541" x2="84.553" y2="31.0451" gradientUnits="userSpaceOnUse">
<stop/>
</linearGradient>
<linearGradient id="paint7_linear_1127_55972" x1="14.7069" y1="58.8086" x2="70.8102" y2="58.8086" gradientUnits="userSpaceOnUse">
<stop/>
</linearGradient>
<linearGradient id="paint8_linear_1127_55972" x1="58.9639" y1="70.7822" x2="76.5935" y2="70.279" gradientUnits="userSpaceOnUse">
<stop/>
</linearGradient>
<linearGradient id="paint9_linear_1127_55972" x1="69.9379" y1="67.0193" x2="59.0452" y2="65.0903" gradientUnits="userSpaceOnUse">
<stop/>
</linearGradient>
</defs>
</svg>
