<svg width="401" height="135" viewBox="0 0 401 135" fill="none" xmlns="http://www.w3.org/2000/svg">
<g clip-path="url(#clip0_1172_56432)">
<path d="M12.7006 0.500219H1.70064C1.00064 0.500219 0.700636 0.900219 0.700636 1.60022V29.8002C0.684555 29.9354 0.699357 30.0725 0.743926 30.2011C0.788494 30.3298 0.861669 30.4466 0.95794 30.5429C1.05421 30.6392 1.17107 30.7124 1.29971 30.7569C1.42836 30.8015 1.56544 30.8163 1.70064 30.8002H3.50064C3.63583 30.8163 3.77291 30.8015 3.90156 30.7569C4.0302 30.7124 4.14706 30.6392 4.24333 30.5429C4.3396 30.4466 4.41278 30.3298 4.45735 30.2011C4.50191 30.0725 4.51672 29.9354 4.50064 29.8002V21.1002H12.8006C20.2006 21.1002 24.0006 16.7002 24.0006 10.9002C24.0006 5.10022 20.5006 0.500219 12.7006 0.500219ZM13.0006 17.8002H4.50064V3.80022H12.7006C17.7006 3.80022 20.1006 7.40022 20.1006 10.9002C20.1006 14.4002 17.8006 17.8002 13.0006 17.8002ZM32.0006 20.6002H39.8006L46.7006 30.2002C46.8344 30.3927 47.0144 30.5485 47.2241 30.6533C47.4337 30.7582 47.6664 30.8087 47.9006 30.8002H50.2006C51.0006 30.8002 51.3006 30.3002 50.8006 29.6002L44.0006 20.3002C48.5006 19.3002 51.4006 15.9002 51.4006 10.6002C51.4563 9.2675 51.2365 7.93761 50.755 6.69367C50.2735 5.44973 49.5406 4.31847 48.6021 3.37059C47.6636 2.4227 46.5397 1.67857 45.3006 1.18469C44.0615 0.690814 42.7338 0.457802 41.4006 0.500219H29.2006C28.5006 0.500219 28.2006 0.900219 28.2006 1.60022V29.8002C28.1846 29.9354 28.1994 30.0725 28.2439 30.2011C28.2885 30.3298 28.3617 30.4466 28.4579 30.5429C28.5542 30.6392 28.6711 30.7124 28.7997 30.7569C28.9284 30.8015 29.0654 30.8163 29.2006 30.8002H31.0006C31.1358 30.8163 31.2729 30.8015 31.4016 30.7569C31.5302 30.7124 31.6471 30.6392 31.7433 30.5429C31.8396 30.4466 31.9128 30.3298 31.9573 30.2011C32.0019 30.0725 32.0167 29.9354 32.0006 29.8002V20.6002ZM32.0006 17.2002V3.80022H41.0006C46.3006 3.80022 47.6006 8.30022 47.6006 10.6002C47.6006 15.3002 44.7006 17.2002 40.7006 17.2002H32.0006ZM61.1006 0.500219H59.3006C59.1605 0.499516 59.0217 0.528293 58.8934 0.584681C58.765 0.641069 58.65 0.72381 58.5557 0.827534C58.4614 0.931258 58.39 1.05365 58.346 1.18676C58.3021 1.31988 58.2866 1.46074 58.3006 1.60022V29.8002C58.2846 29.9354 58.2994 30.0725 58.3439 30.2011C58.3885 30.3298 58.4617 30.4466 58.5579 30.5429C58.6542 30.6392 58.7711 30.7124 58.8997 30.7569C59.0284 30.8015 59.1654 30.8163 59.3006 30.8002H61.1006C61.2401 30.8142 61.381 30.7988 61.5141 30.7548C61.6472 30.7109 61.7696 30.6395 61.8733 30.5452C61.977 30.4509 62.0598 30.3358 62.1162 30.2075C62.1726 30.0792 62.2013 29.9404 62.2006 29.8002V1.60022C62.2164 1.4519 62.1988 1.30195 62.149 1.16133C62.0993 1.02071 62.0188 0.892986 61.9133 0.787522C61.8079 0.682058 61.6801 0.601521 61.5395 0.551809C61.3989 0.502098 61.249 0.484471 61.1006 0.500219ZM81.1006 30.8002C81.4006 30.8002 81.6006 30.7002 81.9006 30.1002L94.6006 1.70022C94.9006 1.00022 94.6006 0.500219 93.8006 0.500219H91.7006C91.444 0.500219 91.1931 0.576189 90.9795 0.718554C90.766 0.860919 90.5993 1.06331 90.5006 1.30022L81.1006 22.7002L71.8006 1.30022C71.7143 1.05483 71.5507 0.844122 71.3342 0.699834C71.1178 0.555545 70.8603 0.48549 70.6006 0.500219H68.4006C67.7006 0.500219 67.3006 1.00022 67.7006 1.70022L80.4006 30.1002C80.6006 30.7002 80.8006 30.8002 81.1006 30.8002ZM96.9006 30.0002L99.2006 25.0002H115.501L117.901 30.0002C117.987 30.2456 118.151 30.4563 118.367 30.6006C118.583 30.7449 118.841 30.8149 119.101 30.8002H121.301C122.001 30.8002 122.301 30.3002 122.001 29.6002L108.201 1.20022C107.901 0.700219 107.701 0.500219 107.401 0.500219C107.101 0.500219 106.901 0.700219 106.601 1.20022L92.8006 29.6002C92.5006 30.3002 92.8006 30.8002 93.5006 30.8002H95.7006C95.9573 30.8002 96.2082 30.7242 96.4217 30.5819C96.6353 30.4395 96.8019 30.2371 96.9006 30.0002ZM107.401 7.80022L113.901 21.8002H100.901L107.401 7.80022ZM141.801 0.500219H121.701C121.56 0.499516 121.422 0.528293 121.293 0.584681C121.165 0.641069 121.05 0.72381 120.956 0.827534C120.861 0.931258 120.79 1.05365 120.746 1.18676C120.702 1.31988 120.687 1.46074 120.701 1.60022V2.70022C120.687 2.8397 120.702 2.98056 120.746 3.11368C120.79 3.24679 120.861 3.36918 120.956 3.4729C121.05 3.57663 121.165 3.65937 121.293 3.71576C121.422 3.77215 121.56 3.80092 121.701 3.80022H129.901V29.8002C129.885 29.9354 129.899 30.0725 129.944 30.2011C129.988 30.3298 130.062 30.4466 130.158 30.5429C130.254 30.6392 130.371 30.7124 130.5 30.7569C130.628 30.8015 130.765 30.8163 130.901 30.8002H132.701C132.836 30.8163 132.973 30.8015 133.102 30.7569C133.23 30.7124 133.347 30.6392 133.443 30.5429C133.54 30.4466 133.613 30.3298 133.657 30.2011C133.702 30.0725 133.717 29.9354 133.701 29.8002V3.80022H141.801C142.501 3.80022 142.801 3.40022 142.801 2.70022V1.60022C142.801 0.900219 142.501 0.500219 141.801 0.500219ZM167.101 0.500219H147.301C147.2 0.499183 147.1 0.520007 147.007 0.561263C146.915 0.602519 146.833 0.66323 146.767 0.739229C146.7 0.815228 146.651 0.904715 146.622 1.00155C146.594 1.09838 146.586 1.20027 146.601 1.30022V30.1002C146.601 30.2859 146.674 30.4639 146.806 30.5952C146.937 30.7265 147.115 30.8002 147.301 30.8002H167.101C167.196 30.8181 167.295 30.8124 167.388 30.7836C167.481 30.7547 167.566 30.7036 167.635 30.6347C167.704 30.5658 167.755 30.4811 167.784 30.3879C167.813 30.2948 167.819 30.1961 167.801 30.1002V28.2002C167.819 28.1044 167.813 28.0056 167.784 27.9125C167.755 27.8194 167.704 27.7347 167.635 27.6657C167.566 27.5968 167.481 27.5457 167.388 27.5169C167.295 27.488 167.196 27.4823 167.101 27.5002H150.501V17.5002H165.101C165.202 17.5013 165.302 17.4804 165.394 17.4392C165.486 17.3979 165.568 17.3372 165.635 17.2612C165.701 17.1852 165.75 17.0957 165.779 16.9989C165.808 16.9021 165.815 16.8002 165.801 16.7002V14.9002C165.801 14.7146 165.727 14.5365 165.596 14.4052C165.464 14.274 165.286 14.2002 165.101 14.2002H150.501V3.80022H167.101C167.601 3.80022 167.801 3.50022 167.801 3.00022V1.30022C167.801 0.800219 167.601 0.500219 167.101 0.500219Z" fill="white"/>
<path d="M12.7008 0.800151H1.70078L1.10078 1.00015C1.02841 1.08132 0.973356 1.17639 0.938969 1.27955C0.904582 1.38271 0.891587 1.4918 0.900779 1.60015V29.8001C0.907661 29.9849 0.978334 30.1616 1.10078 30.3001C1.20078 30.5002 1.40078 30.5002 1.70078 30.5002H3.50078C3.80078 30.5002 3.90078 30.5002 4.10078 30.3001C4.22322 30.1616 4.2939 29.9849 4.30078 29.8001V20.8001H12.8008C15.6938 20.9271 18.5352 20.0037 20.8008 18.2002C21.7566 17.2456 22.507 16.1055 23.0058 14.8501C23.5045 13.5946 23.741 12.2504 23.7008 10.9002C23.7674 9.53185 23.5433 8.16497 23.0435 6.88949C22.5436 5.61402 21.7793 4.45889 20.8008 3.50015C19.0008 1.80015 16.3008 0.800151 12.7008 0.800151ZM1.70078 0.300151H12.7008C16.4008 0.300151 19.2008 1.30015 21.1008 3.10015C22.1833 4.09986 23.0314 5.32644 23.5846 6.69214C24.1378 8.05784 24.3824 9.52892 24.3008 11.0002C24.3384 12.4216 24.0724 13.8348 23.5206 15.1454C22.9688 16.4559 22.1439 17.6337 21.1008 18.6002C19.2008 20.3002 16.4008 21.3001 12.8008 21.3001H4.80078V29.8001C4.81744 29.9719 4.78935 30.1451 4.71926 30.3028C4.64917 30.4605 4.53945 30.5974 4.40078 30.7002C4.16485 30.9464 3.84163 31.09 3.50078 31.1002H1.70078C1.33443 31.072 0.985475 30.9324 0.700779 30.7002C0.592232 30.5784 0.509645 30.4358 0.458065 30.2811C0.406484 30.1263 0.386992 29.9627 0.400779 29.8001V1.60015C0.393414 1.2436 0.498365 0.893766 0.700779 0.600151C0.994394 0.397737 1.34423 0.292786 1.70078 0.300151ZM13.0008 18.1002H4.30078V3.50015H12.7008C14.7242 3.42771 16.6965 4.14491 18.2008 5.50015C18.9124 6.22627 19.4732 7.08613 19.8508 8.03013C20.2284 8.97412 20.4153 9.98354 20.4008 11.0002C20.4203 11.949 20.2438 12.8916 19.8825 13.7691C19.5212 14.6466 18.9827 15.4402 18.3008 16.1002C17.5952 16.7698 16.7628 17.2918 15.8527 17.6352C14.9425 17.9787 13.9729 18.1367 13.0008 18.1002ZM4.80078 17.6002H13.0008C13.8958 17.6377 14.7895 17.498 15.6304 17.1891C16.4713 16.8802 17.2429 16.4082 17.9008 15.8002C18.5447 15.1585 19.0535 14.3943 19.397 13.5527C19.7406 12.7111 19.9119 11.8091 19.9008 10.9002C19.9066 9.9681 19.7235 9.04454 19.3626 8.18519C19.0017 7.32584 18.4704 6.54853 17.8008 5.90015C16.4039 4.64197 14.5804 3.96265 12.7008 4.00015H4.80078V17.6002ZM32.0008 20.3001H39.9008L46.9008 30.0002L47.3008 30.4002H50.7008C50.7273 30.4002 50.7527 30.3896 50.7715 30.3709C50.7902 30.3521 50.8008 30.3267 50.8008 30.3001L50.6008 29.8001L43.5008 20.3001H43.9008C45.9981 19.8516 47.8728 18.6843 49.2008 17.0002C50.4917 15.1952 51.1587 13.0185 51.1008 10.8002C51.1559 9.46526 50.9457 8.13269 50.4822 6.87962C50.0187 5.62655 49.3113 4.47789 48.4008 3.50015C47.4717 2.60785 46.3742 1.90954 45.1724 1.44597C43.9705 0.982397 42.6884 0.762854 41.4008 0.800151H29.2008L28.6008 1.00015C28.5284 1.08132 28.4734 1.17639 28.439 1.27955C28.4046 1.38271 28.3916 1.4918 28.4008 1.60015V29.8001C28.4077 29.9849 28.4783 30.1616 28.6008 30.3001C28.7008 30.5002 28.9008 30.5002 29.2008 30.5002H31.0008C31.3008 30.5002 31.5008 30.5002 31.6008 30.3001C31.7232 30.1616 31.7939 29.9849 31.8008 29.8001V20.3001H32.0008ZM39.6008 20.8001H32.3008V29.8001C32.3174 29.9719 32.2894 30.1451 32.2193 30.3028C32.1492 30.4605 32.0394 30.5974 31.9008 30.7002C31.6649 30.9464 31.3416 31.09 31.0008 31.1002H29.2008C28.8344 31.072 28.4855 30.9324 28.2008 30.7002C28.0922 30.5784 28.0096 30.4358 27.9581 30.2811C27.9065 30.1263 27.887 29.9627 27.9008 29.8001V1.60015C27.8934 1.2436 27.9984 0.893766 28.2008 0.600151C28.4944 0.397737 28.8442 0.292786 29.2008 0.300151H41.4008C42.7677 0.246048 44.1309 0.475809 45.4046 0.97494C46.6782 1.47407 47.8346 2.23174 48.8008 3.20015C49.7322 4.18816 50.4591 5.35059 50.9397 6.62057C51.4202 7.89055 51.6449 9.24302 51.6008 10.6002C51.6737 12.9287 50.9701 15.2154 49.6008 17.1002C48.326 18.8148 46.4827 20.02 44.4008 20.5002L51.0008 29.4002C51.1714 29.6347 51.2751 29.9112 51.3008 30.2002C51.3008 30.3002 51.2008 30.5002 51.2008 30.6002C51.2008 30.7002 51.1008 30.8001 50.9008 30.8001C50.7008 30.8001 50.5008 31.1002 50.1008 31.1002H47.9008L47.1008 30.9002C46.8533 30.7541 46.6468 30.5477 46.5008 30.3001L39.6008 20.9002V20.8001ZM31.8008 17.2002V3.50015H41.0008C41.8897 3.45992 42.777 3.60844 43.6043 3.93593C44.4317 4.26341 45.1802 4.76244 45.8008 5.40015C47.1381 6.8024 47.8893 8.66249 47.9008 10.6002C47.9649 11.5365 47.8286 12.4757 47.5009 13.3551C47.1733 14.2346 46.6619 15.034 46.0008 15.7002C44.5274 16.9526 42.6321 17.5963 40.7008 17.5002H31.8008V17.2002ZM32.3008 4.00015V17.0002H40.7008C41.5905 17.0683 42.4847 16.9525 43.3277 16.66C44.1707 16.3676 44.9445 15.9047 45.6008 15.3002C46.2 14.6812 46.6612 13.9423 46.9542 13.1323C47.2473 12.3222 47.3654 11.4592 47.3008 10.6002C47.3195 8.83182 46.6776 7.12015 45.5008 5.80015C44.9135 5.20857 44.2112 4.74363 43.4372 4.43405C42.6633 4.12446 41.834 3.97679 41.0008 4.00015H32.3008ZM61.1008 0.800151H59.3008L58.8008 1.00015C58.6008 1.10015 58.6008 1.30015 58.6008 1.60015V29.8001C58.6008 30.0002 58.6008 30.2001 58.8008 30.3001C59.0008 30.4002 59.1008 30.5002 59.3008 30.5002H61.1008C61.4008 30.5002 61.6008 30.5002 61.7008 30.3001C61.8232 30.1616 61.8939 29.9849 61.9008 29.8001V1.60015C61.91 1.4918 61.897 1.38271 61.8626 1.27955C61.8282 1.17639 61.7731 1.08132 61.7008 1.00015L61.1008 0.800151ZM59.3008 0.300151H61.1008C61.2791 0.278326 61.4601 0.293718 61.6322 0.345353C61.8043 0.396989 61.9639 0.483747 62.1008 0.600151C62.3032 0.893766 62.4081 1.2436 62.4008 1.60015V29.8001C62.4146 29.9627 62.3951 30.1263 62.3435 30.2811C62.2919 30.4358 62.2093 30.5784 62.1008 30.7002C61.8285 30.9527 61.4721 31.0952 61.1008 31.1002H59.3008C58.9637 31.0768 58.6464 30.9324 58.4075 30.6934C58.1686 30.4545 58.0241 30.1372 58.0008 29.8001V1.60015C58.0289 1.23381 58.1685 0.884847 58.4008 0.600151C58.5225 0.491604 58.6651 0.409017 58.8199 0.357436C58.9746 0.305856 59.1383 0.286364 59.3008 0.300151ZM81.1008 30.5002H81.3008C81.4439 30.3635 81.5476 30.1908 81.6008 30.0002L94.3008 1.60015C94.3803 1.48282 94.4157 1.34111 94.4008 1.20015V1.00015H91.1008L90.7008 1.50015L81.1008 23.3001L71.6008 1.40015L71.2008 0.900151H67.8008V1.10015C67.7858 1.24111 67.8212 1.38282 67.9008 1.50015L80.6008 30.0002C80.654 30.1908 80.7576 30.3635 80.9008 30.5002H81.1008ZM81.7008 30.9002L81.1008 31.1002L80.6008 30.9002C80.4008 30.8001 80.3008 30.6002 80.1008 30.2002L67.4008 1.80015C67.3205 1.61087 67.2862 1.40524 67.3008 1.20015C67.2852 1.02733 67.3199 0.853693 67.4008 0.700151L67.8008 0.400151H70.6008L71.5008 0.600151L72.1008 1.30015L81.1008 22.1002L90.3008 1.20015C90.4084 0.929836 90.58 0.689644 90.8008 0.500151L91.7008 0.300151H94.4008L94.8008 0.600151C94.9008 0.800151 95.0008 0.900151 95.0008 1.10015C94.9808 1.31279 94.9123 1.51802 94.8008 1.70015L82.1008 30.2002C82.039 30.4677 81.8999 30.7111 81.7008 30.9002ZM96.7008 29.9002L99.0008 24.8001H115.701L118.101 29.9002C118.176 30.1062 118.316 30.2818 118.501 30.4002H121.601L121.801 30.2002C121.901 30.2002 121.901 30.1002 121.901 30.0002C121.901 29.9002 121.801 29.7002 121.801 29.6002L107.901 1.30015L107.701 0.900151H107.101C107.001 0.900151 106.901 1.10015 106.801 1.30015L93.0008 29.7002C93.0008 29.8002 92.9008 30.0002 92.9008 30.1002C92.9008 30.2002 92.9008 30.3001 93.0008 30.3001C93.1008 30.3001 93.1008 30.4002 93.1008 30.5002H96.2008C96.4139 30.3875 96.5881 30.2133 96.7008 30.0002V29.9002ZM99.4008 25.3001L97.1008 30.1002C97.0574 30.2533 96.9812 30.3952 96.8777 30.516C96.7741 30.6369 96.6455 30.7338 96.5008 30.8001C96.3942 30.901 96.2685 30.9795 96.1311 31.031C95.9937 31.0825 95.8474 31.106 95.7008 31.1002H93.5008L92.9008 30.9002C92.7008 30.9002 92.6008 30.7002 92.5008 30.6002C92.4199 30.4466 92.3852 30.273 92.4008 30.1002C92.3923 29.8627 92.4261 29.6257 92.5008 29.4002L106.401 1.00015C106.476 0.794148 106.616 0.618471 106.801 0.500151C106.974 0.370329 107.184 0.300151 107.401 0.300151C107.617 0.300151 107.828 0.370329 108.001 0.500151L108.401 1.00015L122.201 29.4002C122.301 29.6225 122.369 29.8583 122.401 30.1002C122.401 30.3002 122.301 30.4002 122.201 30.6002L121.901 30.9002L121.201 31.1002H119.101C118.938 31.1139 118.775 31.0944 118.62 31.0429C118.465 30.9913 118.323 30.9087 118.201 30.8001C117.901 30.7001 117.801 30.4002 117.601 30.1002L115.401 25.3001H99.4008ZM107.701 7.70015L114.301 22.1002H100.401L107.401 7.20015L107.701 7.70015ZM113.501 21.5002L107.401 8.40015L101.301 21.5002H113.501ZM141.801 0.800151H121.701L121.101 1.00015C121.028 1.08132 120.973 1.17639 120.939 1.27955C120.905 1.38271 120.892 1.4918 120.901 1.60015V2.70015C120.892 2.8085 120.905 2.91759 120.939 3.02075C120.973 3.12392 121.028 3.21898 121.101 3.30015L121.701 3.50015H130.101V29.8001C130.108 29.9849 130.178 30.1616 130.301 30.3001C130.401 30.5002 130.601 30.5002 130.901 30.5002H132.701C132.901 30.5002 133.101 30.5002 133.201 30.3001C133.301 30.1001 133.401 30.0002 133.401 29.8001V3.50015H141.801L142.401 3.30015C142.473 3.21898 142.528 3.12392 142.563 3.02075C142.597 2.91759 142.61 2.8085 142.601 2.70015V1.60015C142.61 1.4918 142.597 1.38271 142.563 1.27955C142.528 1.17639 142.473 1.08132 142.401 1.00015L141.801 0.800151ZM121.701 0.300151H141.801C142.157 0.292786 142.507 0.397737 142.801 0.600151C143.003 0.893766 143.108 1.2436 143.101 1.60015V2.70015C143.124 3.05865 143.017 3.4135 142.801 3.70015C142.507 3.90257 142.157 4.00752 141.801 4.00015H134.001V29.8001C133.991 30.141 133.847 30.4642 133.601 30.7002C133.479 30.8087 133.336 30.8913 133.182 30.9429C133.027 30.9944 132.863 31.0139 132.701 31.0002H130.901C130.738 31.0139 130.575 30.9944 130.42 30.9429C130.265 30.8913 130.123 30.8087 130.001 30.7002C129.862 30.5974 129.752 30.4605 129.682 30.3028C129.612 30.1451 129.584 29.9719 129.601 29.8001V4.00015H121.701C121.538 4.01394 121.375 3.99445 121.22 3.94287C121.065 3.89128 120.923 3.8087 120.801 3.70015C120.661 3.57616 120.552 3.42117 120.482 3.24755C120.413 3.07393 120.385 2.88647 120.401 2.70015V1.60015C120.392 1.41456 120.423 1.22928 120.492 1.05678C120.561 0.884278 120.667 0.728572 120.801 0.600151C120.923 0.491604 121.065 0.409017 121.22 0.357436C121.375 0.305856 121.538 0.286364 121.701 0.300151ZM167.101 0.800151H147.001C146.939 0.846724 146.888 0.907116 146.854 0.976544C146.819 1.04597 146.801 1.12253 146.801 1.20015V30.1002L147.001 30.4002H167.501V28.2002C167.501 28.1002 167.401 28.0002 167.401 27.9002H150.201V17.2002H165.401L165.601 16.9002V14.9002C165.601 14.8001 165.501 14.6002 165.401 14.6002L165.101 14.4002H150.201V3.50015H167.501C167.501 3.40015 167.601 3.30015 167.601 3.10015V1.30015C167.601 1.10015 167.501 1.00015 167.501 0.900151L167.101 0.800151ZM147.301 0.300151H167.101C167.232 0.295945 167.363 0.320628 167.484 0.37246C167.605 0.424293 167.713 0.502015 167.801 0.600151C167.905 0.682706 167.987 0.789942 168.039 0.912162C168.092 1.03438 168.113 1.16773 168.101 1.30015V3.00015C168.107 3.14677 168.083 3.29308 168.032 3.43047C167.98 3.56786 167.902 3.69355 167.801 3.80015L167.101 4.00015H150.701V13.9002H165.101C165.366 13.9002 165.62 14.0055 165.808 14.193C165.995 14.3806 166.101 14.6349 166.101 14.9002V16.8001C166.101 17.0654 165.995 17.3197 165.808 17.5073C165.62 17.6948 165.366 17.8001 165.101 17.8001H150.701V27.2002H167.101C167.232 27.1959 167.363 27.2206 167.484 27.2725C167.605 27.3243 167.713 27.402 167.801 27.5002C167.902 27.6067 167.98 27.7324 168.032 27.8698C168.083 28.0072 168.107 28.1535 168.101 28.3001V30.1002C168.101 30.3654 167.995 30.6197 167.808 30.8073C167.62 30.9948 167.366 31.1002 167.101 31.1002H147.301C147.036 31.1002 146.781 30.9948 146.594 30.8073C146.406 30.6197 146.301 30.3654 146.301 30.1002V1.30015C146.297 1.16864 146.321 1.0378 146.373 0.916855C146.425 0.795912 146.503 0.687805 146.601 0.600151C146.688 0.502015 146.797 0.424293 146.917 0.37246C147.038 0.320628 147.169 0.295945 147.301 0.300151Z" fill="white"/>
<path d="M177.2 30.8002H187.6C196.5 30.8002 202.3 25.8002 202.3 15.7002C202.3 5.60017 196.4 0.500167 187.6 0.500167H177.2C176.6 0.500167 176.4 0.800167 176.4 1.40017V30.0002C176.4 30.5002 176.6 30.8002 177.2 30.8002ZM178.9 28.6002V2.80017H187.1C191.7 2.80017 199.8 4.50017 199.8 15.7002C199.8 26.9002 191.7 28.6002 187.1 28.6002H178.9ZM208.9 30.8002H227.9C228.009 30.8173 228.121 30.8084 228.226 30.7742C228.331 30.74 228.426 30.6816 228.504 30.6036C228.582 30.5256 228.64 30.4303 228.674 30.3254C228.709 30.2206 228.717 30.1091 228.7 30.0002V29.4002C228.717 29.2912 228.709 29.1798 228.674 29.0749C228.64 28.97 228.582 28.8747 228.504 28.7967C228.426 28.7188 228.331 28.6603 228.226 28.6261C228.121 28.592 228.009 28.5831 227.9 28.6002H210.6V17.1002H225.7C226.3 17.1002 226.5 16.8002 226.5 16.2002V15.7002C226.5 15.1002 226.3 14.8002 225.7 14.8002H210.6V2.80017H227.9C228.009 2.81725 228.121 2.80836 228.226 2.77419C228.331 2.74003 228.426 2.68158 228.504 2.60359C228.582 2.52561 228.64 2.4303 228.674 2.32544C228.709 2.22057 228.717 2.10912 228.7 2.00017V1.40017C228.7 0.800167 228.4 0.500167 227.9 0.500167H208.9C208.4 0.500167 208.1 0.800167 208.1 1.40017V30.0002C208.083 30.1091 208.092 30.2206 208.126 30.3254C208.161 30.4303 208.219 30.5256 208.297 30.6036C208.375 30.6816 208.47 30.74 208.575 30.7742C208.68 30.8084 208.791 30.8173 208.9 30.8002ZM235.1 30.8002H235.9C236.5 30.8002 236.8 30.5002 236.8 30.0002V6.20017L258.6 30.3002C258.9 30.6002 259 30.8002 259.4 30.8002C259.8 30.8002 259.8 30.5002 259.8 30.3002V1.40017C259.8 0.800167 259.5 0.500167 259 0.500167H258.1C257.6 0.500167 257.3 0.800167 257.3 1.40017V25.0002L235.4 1.00017C235.2 0.700167 235 0.500167 234.7 0.500167C234.4 0.500167 234.3 0.700167 234.3 1.00017V30.0002C234.3 30.5002 234.5 30.8002 235.1 30.8002ZM275.6 30.8002H276.5C276.609 30.8173 276.721 30.8084 276.826 30.7742C276.931 30.74 277.026 30.6816 277.104 30.6036C277.182 30.5256 277.24 30.4303 277.274 30.3254C277.309 30.2206 277.317 30.1091 277.3 30.0002V2.80017H286C286.5 2.80017 286.8 2.50017 286.8 1.90017V1.40017C286.8 0.800167 286.5 0.500167 286 0.500167H266.2C266.078 0.483658 265.954 0.495563 265.837 0.534954C265.721 0.574345 265.615 0.640159 265.527 0.727265C265.44 0.814371 265.375 0.920416 265.335 1.03713C265.296 1.15385 265.284 1.27809 265.3 1.40017V1.90017C265.284 2.02224 265.296 2.14648 265.335 2.2632C265.375 2.37992 265.44 2.48596 265.527 2.57307C265.615 2.66018 265.721 2.72599 265.837 2.76538C265.954 2.80477 266.078 2.81668 266.2 2.80017H274.8V30.0002C274.783 30.1091 274.792 30.2206 274.826 30.3254C274.861 30.4303 274.919 30.5256 274.997 30.6036C275.075 30.6816 275.17 30.74 275.275 30.7742C275.38 30.8084 275.491 30.8173 275.6 30.8002ZM292.6 30.8002H293.5C293.609 30.8173 293.721 30.8084 293.826 30.7742C293.931 30.74 294.026 30.6816 294.104 30.6036C294.182 30.5256 294.24 30.4303 294.274 30.3254C294.309 30.2206 294.317 30.1091 294.3 30.0002V1.40017C294.3 0.800167 294 0.500167 293.5 0.500167H292.6C292.1 0.500167 291.8 0.800167 291.8 1.40017V30.0002C291.783 30.1091 291.792 30.2206 291.826 30.3254C291.861 30.4303 291.919 30.5256 291.997 30.6036C292.075 30.6816 292.17 30.74 292.275 30.7742C292.38 30.8084 292.491 30.8173 292.6 30.8002ZM312.5 31.5002C318.8 31.5002 323.2 28.6002 323.2 23.0002C323.2 17.4002 317.3 15.2002 313.8 14.6002C310.3 14.0002 303 13.2002 303 8.50017C303 3.80017 307.9 2.20017 310.9 2.20017C313.694 2.23615 316.424 3.03119 318.8 4.50017C319.001 4.61299 319.237 4.64478 319.46 4.58898C319.683 4.53319 319.877 4.39406 320 4.20017L320.3 3.60017C320.6 3.10017 320.5 2.70017 320.1 2.50017C317.404 0.817343 314.279 -0.050782 311.1 0.00016741C306.4 0.00016741 300.5 2.20017 300.5 8.60017C300.5 15.0002 308.1 16.0002 311.5 16.6002C314.9 17.2002 320.7 18.6002 320.7 22.9002C320.7 27.2002 317.7 29.2002 312.3 29.2002C308.946 29.2054 305.669 28.1944 302.9 26.3002C302.805 26.2296 302.696 26.1811 302.58 26.1579C302.464 26.1348 302.344 26.1377 302.229 26.1663C302.115 26.195 302.008 26.2488 301.916 26.3238C301.825 26.3989 301.751 26.4932 301.7 26.6002L301.3 27.2002C301.23 27.2952 301.181 27.4046 301.158 27.5206C301.135 27.6366 301.138 27.7563 301.167 27.8711C301.195 27.9859 301.249 28.0929 301.324 28.1844C301.399 28.2758 301.493 28.3495 301.6 28.4002C304.828 30.53 308.635 31.6125 312.5 31.5002ZM334.5 30.8002H335.4C335.509 30.8173 335.621 30.8084 335.726 30.7742C335.831 30.74 335.926 30.6816 336.004 30.6036C336.082 30.5256 336.14 30.4303 336.174 30.3254C336.209 30.2206 336.217 30.1091 336.2 30.0002V2.80017H344.9C345.022 2.81668 345.147 2.80477 345.263 2.76538C345.38 2.72599 345.486 2.66018 345.573 2.57307C345.66 2.48596 345.726 2.37992 345.766 2.2632C345.805 2.14648 345.817 2.02224 345.8 1.90017V1.40017C345.817 1.27809 345.805 1.15385 345.766 1.03713C345.726 0.920416 345.66 0.814371 345.573 0.727265C345.486 0.640159 345.38 0.574345 345.263 0.534954C345.147 0.495563 345.022 0.483658 344.9 0.500167H325.1C324.6 0.500167 324.3 0.800167 324.3 1.40017V1.90017C324.3 2.50017 324.6 2.80017 325.1 2.80017H333.7V30.0002C333.683 30.1091 333.692 30.2206 333.726 30.3254C333.761 30.4303 333.819 30.5256 333.897 30.6036C333.975 30.6816 334.07 30.74 334.175 30.7742C334.28 30.8084 334.391 30.8173 334.5 30.8002ZM352 30.8002H352.9C353.009 30.8173 353.121 30.8084 353.226 30.7742C353.331 30.74 353.426 30.6816 353.504 30.6036C353.582 30.5256 353.64 30.4303 353.674 30.3254C353.709 30.2206 353.717 30.1091 353.7 30.0002V20.0002H362.7L370 30.3002C370.114 30.4584 370.264 30.5866 370.439 30.6737C370.613 30.7609 370.806 30.8042 371 30.8002H372.2C372.9 30.8002 373.1 30.3002 372.7 29.8002L365.7 20.0002C371 19.1002 373.9 15.4002 373.9 10.3002C373.9 5.20017 369.9 0.500167 364.3 0.500167H352C351.5 0.500167 351.2 0.800167 351.2 1.40017V30.0002C351.183 30.1091 351.192 30.2206 351.226 30.3254C351.261 30.4303 351.319 30.5256 351.397 30.6036C351.475 30.6816 351.57 30.74 351.675 30.7742C351.78 30.8084 351.891 30.8173 352 30.8002ZM353.7 17.7002V2.80017H364C370 2.80017 371.4 7.70017 371.4 10.3002C371.4 15.6002 367.5 17.7002 364 17.7002H353.7ZM387.9 30.8002H388.8C388.909 30.8173 389.021 30.8084 389.126 30.7742C389.231 30.74 389.326 30.6816 389.404 30.6036C389.482 30.5256 389.54 30.4303 389.574 30.3254C389.609 30.2206 389.617 30.1091 389.6 30.0002V19.3002L400.3 1.50017C400.396 1.40571 400.457 1.2818 400.474 1.14833C400.491 1.01487 400.463 0.879591 400.394 0.764231C400.324 0.64887 400.218 0.560118 400.093 0.512229C399.967 0.46434 399.829 0.460092 399.7 0.500167H398.6C398.392 0.483008 398.183 0.531671 398.004 0.639305C397.824 0.746939 397.683 0.908124 397.6 1.10017L388.4 16.6002L379.3 1.10017C379.217 0.908124 379.076 0.746939 378.897 0.639305C378.718 0.531671 378.509 0.483008 378.3 0.500167H377.2C376.6 0.500167 376.3 1.00017 376.7 1.50017L387.1 19.3002V30.0002C387.083 30.1091 387.092 30.2206 387.126 30.3254C387.161 30.4303 387.219 30.5256 387.297 30.6036C387.375 30.6816 387.47 30.74 387.575 30.7742C387.68 30.8084 387.791 30.8173 387.9 30.8002Z" fill="white"/>
<path d="M36.6009 71.1001L37.9009 68.6001H47.0009L48.2009 71.1001C48.2776 71.2759 48.4032 71.4259 48.5628 71.5323C48.7224 71.6387 48.9092 71.6969 49.1009 71.7001H51.6009C52.1009 71.7001 52.3009 71.3001 52.1009 70.8001L42.9009 52.6001C42.8009 52.2001 42.6009 52.1001 42.4009 52.1001C42.2009 52.1001 42.1009 52.2001 41.9009 52.6001L32.8009 70.8001C32.5009 71.3001 32.7009 71.7001 33.3009 71.7001H35.8009C35.9826 71.7059 36.1608 71.6496 36.3062 71.5405C36.4516 71.4315 36.5556 71.2761 36.6009 71.1001ZM42.4009 59.3001L45.2009 65.4001H39.7009L42.4009 59.3001ZM86.7009 52.8001L83.0009 62.9001L78.4009 52.5001C78.2009 52.2001 78.1009 52.2001 78.0009 52.2001C77.8967 52.1915 77.7924 52.2159 77.7027 52.2697C77.613 52.3235 77.5424 52.4041 77.5009 52.5001L72.9009 62.9001L69.3009 52.8001C69.2556 52.6241 69.1516 52.4688 69.0062 52.3597C68.8608 52.2507 68.6826 52.1944 68.5009 52.2001H66.0009C65.5009 52.2001 65.3009 52.5001 65.5009 53.0001L72.1009 71.2001C72.2009 71.6001 72.4009 71.7001 72.5009 71.7001C72.6009 71.7001 72.8009 71.6001 72.9009 71.3001L78.0009 59.9001L83.0009 71.2001C83.1009 71.6001 83.3009 71.7001 83.4009 71.7001C83.5009 71.7001 83.7009 71.6001 83.8009 71.2001L90.5009 53.0001C90.7009 52.5001 90.5009 52.2001 90.0009 52.2001H87.5009C87.3192 52.1944 87.141 52.2507 86.9956 52.3597C86.8502 52.4688 86.7463 52.6241 86.7009 52.8001ZM107.601 71.1001L108.801 68.6001H118.001L119.201 71.1001C119.282 71.2655 119.411 71.4021 119.572 71.4915C119.733 71.5809 119.918 71.6188 120.101 71.6001H122.601C123.101 71.6001 123.301 71.3001 123.101 70.8001L113.901 52.6001C113.701 52.2001 113.601 52.1001 113.401 52.1001C113.201 52.1001 113.101 52.2001 112.901 52.6001L103.701 70.8001C103.501 71.3001 103.701 71.6001 104.301 71.6001H106.801C107.201 71.6001 107.501 71.5001 107.601 71.1001ZM113.401 59.2001L116.201 65.3001H110.601L113.401 59.2001ZM144.001 65.4001H147.701L151.901 71.2001C152.004 71.3388 152.141 71.4485 152.298 71.5186C152.456 71.5887 152.629 71.6168 152.801 71.6001H155.601C156.201 71.6001 156.401 71.2001 156.001 70.8001L151.801 65.1001C154.201 64.4001 155.801 61.8001 155.801 58.9001C155.844 58.0089 155.7 57.1186 155.378 56.2863C155.057 55.454 154.565 54.6982 153.934 54.0673C153.303 53.4363 152.547 52.9443 151.715 52.6228C150.882 52.3012 149.992 52.1573 149.101 52.2001H141.101C140.601 52.2001 140.401 52.4001 140.401 52.9001V70.9001C140.401 71.4001 140.601 71.6001 141.101 71.6001H143.301C143.801 71.6001 144.001 71.4001 144.001 70.9001V65.4001ZM144.001 62.2001V55.5001H148.301C151.001 55.5001 152.101 57.0001 152.101 58.8001C152.101 60.6001 151.401 62.2001 148.301 62.2001H144.001ZM175.001 71.6001H181.901C188.201 71.6001 191.601 67.8001 191.601 61.9001C191.601 56.0001 188.101 52.2001 181.901 52.2001H175.001C174.501 52.2001 174.201 52.4001 174.201 52.9001V70.9001C174.201 71.4001 174.501 71.6001 175.001 71.6001ZM178.001 68.3001V55.5001H181.901C184.601 55.5001 187.901 56.5001 187.901 61.9001C187.901 67.3001 184.601 68.3001 181.901 68.3001H178.001ZM210.501 67.0001L209.701 68.2001C209.622 68.3052 209.565 68.4247 209.532 68.5519C209.5 68.6792 209.492 68.8115 209.511 68.9415C209.53 69.0715 209.574 69.1966 209.64 69.3096C209.707 69.4226 209.796 69.5213 209.901 69.6001C212.063 71.214 214.703 72.0588 217.401 72.0001C221.801 72.0001 224.801 70.1001 224.801 66.1001C224.801 62.1001 219.801 60.5001 217.501 60.0001C215.201 59.5001 213.001 59.1001 213.001 57.3001C213.001 55.5001 214.801 55.3001 216.301 55.3001C217.991 55.3695 219.639 55.8501 221.101 56.7001C221.198 56.7764 221.309 56.8319 221.429 56.8633C221.548 56.8946 221.672 56.9011 221.794 56.8824C221.916 56.8636 222.033 56.82 222.137 56.7543C222.242 56.6885 222.331 56.602 222.401 56.5001L223.401 55.1001C223.53 54.8959 223.581 54.6516 223.545 54.4126C223.508 54.1736 223.386 53.956 223.201 53.8001C221.285 52.5052 219.013 51.8409 216.701 51.9001C213.401 51.9001 209.301 53.3001 209.301 57.7001C209.301 62.1001 214.401 63.1001 216.701 63.6001C219.001 64.1001 221.101 64.4001 221.101 66.3001C221.101 68.2001 220.201 68.6001 217.401 68.6001C215.417 68.458 213.496 67.8406 211.801 66.8001C211.585 66.6814 211.333 66.6463 211.094 66.7016C210.854 66.757 210.643 66.8989 210.501 67.1001V67.0001ZM262.701 68.3001H254.801L259.101 64.9001C261.701 62.7001 263.201 60.9001 263.201 57.9001C263.201 54.9001 261.101 51.9001 256.501 51.9001C255.075 51.9012 253.684 52.3441 252.52 53.1679C251.356 53.9916 250.476 55.1557 250.001 56.5001C249.801 57.0001 249.901 57.4001 250.501 57.5001L252.301 58.0001C252.54 58.0666 252.795 58.0421 253.016 57.9312C253.238 57.8204 253.411 57.6311 253.501 57.4001C253.733 56.7422 254.168 56.1749 254.743 55.7796C255.318 55.3843 256.003 55.1815 256.701 55.2001C257.067 55.1715 257.436 55.221 257.782 55.3452C258.128 55.4694 258.443 55.6655 258.708 55.9207C258.972 56.1758 259.18 56.4841 259.317 56.8253C259.453 57.1666 259.516 57.5329 259.501 57.9001C259.501 59.2001 259.301 60.2001 256.901 62.2001L250.401 67.6001C250.269 67.7087 250.164 67.8466 250.095 68.0029C250.025 68.1591 249.993 68.3293 250.001 68.5001V70.9001C249.986 71.0001 249.994 71.102 250.022 71.1988C250.051 71.2956 250.1 71.3851 250.167 71.4611C250.233 71.5371 250.316 71.5978 250.408 71.6391C250.5 71.6803 250.6 71.7012 250.701 71.7001H262.701C263.201 71.7001 263.401 71.4001 263.401 70.9001V69.1001C263.401 68.6001 263.201 68.4001 262.701 68.4001V68.3001ZM289.801 72.0001C295.201 72.1001 298.501 67.1001 298.501 61.9001C298.501 56.7001 294.801 51.9001 289.801 51.9001C284.801 51.9001 281.101 56.0001 281.101 61.9001C281.101 67.8001 284.301 72.0001 289.801 72.0001ZM289.801 55.3001C293.301 55.3001 294.701 58.7001 294.701 61.9001C294.701 65.1001 292.201 68.6001 289.801 68.6001C287.401 68.6001 284.901 65.0001 284.901 61.9001C284.901 58.8001 287.501 55.3001 289.801 55.3001ZM329.101 68.3001H321.301L325.501 64.9001C328.101 62.7001 329.601 60.9001 329.601 57.9001C329.601 54.9001 327.501 51.9001 322.901 51.9001C321.475 51.9012 320.084 52.3441 318.92 53.1679C317.756 53.9916 316.876 55.1557 316.401 56.5001C316.353 56.5972 316.328 56.7041 316.328 56.8125C316.328 56.9209 316.353 57.0278 316.402 57.1248C316.45 57.2217 316.52 57.3061 316.607 57.3712C316.694 57.4364 316.794 57.4805 316.901 57.5001L318.701 58.0001C318.94 58.0666 319.195 58.0421 319.416 57.9312C319.638 57.8204 319.811 57.6311 319.901 57.4001C320.133 56.7422 320.568 56.1749 321.143 55.7796C321.718 55.3843 322.403 55.1815 323.101 55.2001C323.467 55.1715 323.836 55.221 324.182 55.3452C324.528 55.4694 324.843 55.6655 325.108 55.9207C325.372 56.1758 325.58 56.4841 325.717 56.8253C325.853 57.1666 325.916 57.5329 325.901 57.9001C325.901 59.2001 325.701 60.2001 323.301 62.2001L316.801 67.6001C316.57 67.8465 316.429 68.1637 316.401 68.5001V70.9001C316.386 71.0001 316.394 71.102 316.422 71.1988C316.451 71.2956 316.5 71.3851 316.567 71.4611C316.633 71.5371 316.716 71.5978 316.808 71.6391C316.9 71.6803 317 71.7012 317.101 71.7001H329.101C329.601 71.7001 329.801 71.4001 329.801 70.9001V69.1001C329.801 68.6001 329.601 68.4001 329.101 68.4001V68.3001ZM361.001 68.3001H353.101L357.301 64.9001C359.901 62.7001 361.401 60.9001 361.401 57.9001C361.401 54.9001 359.301 51.9001 354.701 51.9001C353.275 51.9012 351.884 52.3441 350.72 53.1679C349.556 53.9916 348.676 55.1557 348.201 56.5001C348.151 56.6044 348.128 56.7193 348.134 56.8346C348.139 56.9499 348.173 57.062 348.233 57.161C348.292 57.26 348.375 57.3428 348.474 57.4019C348.573 57.4611 348.686 57.4948 348.801 57.5001L350.501 58.0001C350.74 58.0666 350.995 58.0421 351.216 57.9312C351.438 57.8204 351.611 57.6311 351.701 57.4001C351.958 56.7585 352.398 56.2071 352.968 55.8156C353.537 55.4241 354.21 55.2099 354.901 55.2001C355.271 55.1539 355.647 55.1911 356.001 55.309C356.354 55.4268 356.677 55.6224 356.946 55.8813C357.214 56.1401 357.422 56.4558 357.552 56.8051C357.683 57.1545 357.734 57.5286 357.701 57.9001C357.701 59.2001 357.501 60.2001 355.101 62.2001L348.601 67.6001C348.37 67.8465 348.229 68.1637 348.201 68.5001V70.9001C348.184 71.0091 348.193 71.1205 348.227 71.2254C348.261 71.3303 348.32 71.4256 348.397 71.5035C348.475 71.5815 348.571 71.64 348.676 71.6741C348.78 71.7083 348.892 71.7172 349.001 71.7001H360.901C361.01 71.7172 361.121 71.7083 361.226 71.6741C361.331 71.64 361.426 71.5815 361.504 71.5035C361.582 71.4256 361.641 71.3303 361.675 71.2254C361.709 71.1205 361.718 71.0091 361.701 70.9001V69.1001C361.701 68.6001 361.401 68.4001 360.901 68.4001L361.001 68.3001Z" fill="white"/>
<path d="M87.1009 110.7V108.1C87.115 107.974 87.1022 107.846 87.0634 107.725C87.0245 107.604 86.9604 107.492 86.8754 107.398C86.7904 107.303 86.6863 107.228 86.5701 107.177C86.4538 107.125 86.328 107.099 86.2009 107.1H71.1009C70.5009 107.1 70.2009 107.5 70.2009 108.1V133.3C70.1868 133.426 70.1995 133.554 70.2384 133.675C70.2773 133.796 70.3413 133.908 70.4263 134.002C70.5114 134.097 70.6154 134.172 70.7317 134.223C70.848 134.275 70.9738 134.301 71.1009 134.3H73.8009C74.3009 134.3 74.6009 133.9 74.6009 133.3V123.6H84.8009C84.928 123.601 85.0538 123.575 85.1701 123.523C85.2863 123.472 85.3904 123.397 85.4754 123.302C85.5604 123.208 85.6245 123.096 85.6634 122.975C85.7022 122.854 85.715 122.726 85.7009 122.6V120C85.715 119.874 85.7022 119.746 85.6634 119.625C85.6245 119.504 85.5604 119.392 85.4754 119.298C85.3904 119.203 85.2863 119.128 85.1701 119.077C85.0538 119.025 84.928 118.999 84.8009 119H74.6009V111.7H86.2009C86.328 111.701 86.4538 111.675 86.5701 111.623C86.6863 111.572 86.7904 111.497 86.8754 111.402C86.9604 111.308 87.0245 111.196 87.0634 111.075C87.1022 110.954 87.115 110.826 87.1009 110.7ZM111.001 107.1H108.301C107.801 107.1 107.501 107.5 107.501 108.1V133.3C107.501 133.9 107.801 134.3 108.301 134.3H111.001C111.501 134.3 111.801 133.9 111.801 133.3V108.1C111.801 107.5 111.501 107.1 111.001 107.1ZM133.701 133.3C133.701 133.9 134.001 134.3 134.501 134.3H137.201C137.701 134.3 138.001 133.9 138.001 133.3V118L152.701 133.8C153.001 134.2 153.101 134.3 153.301 134.3C153.501 134.3 153.601 134.2 153.601 133.9V108.1C153.601 107.5 153.301 107.1 152.701 107.1H150.001C149.501 107.1 149.201 107.5 149.201 108.1V123.7L134.601 107.6C134.301 107.2 134.101 107.1 134.001 107.1C133.901 107.1 133.701 107.2 133.701 107.5V133.3ZM177.901 133.5L179.301 130H190.101L191.501 133.5C191.801 134 192.101 134.3 192.501 134.3H195.501C196.101 134.3 196.401 133.7 196.101 133.1L185.301 107.7C185.101 107.1 184.901 107.1 184.701 107.1C184.501 107.1 184.301 107.1 184.101 107.7L173.301 133.1C173.001 133.7 173.201 134.3 173.901 134.3H176.801C177.035 134.305 177.263 134.227 177.446 134.081C177.628 133.935 177.754 133.729 177.801 133.5H177.901ZM184.701 117L187.901 125.5H181.401L184.701 117ZM219.501 129.7V108.1C219.515 107.974 219.502 107.846 219.463 107.725C219.424 107.604 219.36 107.492 219.275 107.398C219.19 107.303 219.086 107.228 218.97 107.177C218.854 107.125 218.728 107.099 218.601 107.1H215.901C215.401 107.1 215.101 107.5 215.101 108.1V133.3C215.101 133.9 215.401 134.3 215.901 134.3H230.701C231.301 134.3 231.601 133.9 231.601 133.3V130.7C231.615 130.574 231.602 130.446 231.563 130.325C231.524 130.204 231.46 130.092 231.375 129.998C231.29 129.903 231.186 129.828 231.07 129.777C230.954 129.725 230.828 129.699 230.701 129.7H219.501ZM254.701 107.1H252.001C251.501 107.1 251.201 107.5 251.201 108.1V133.3C251.201 133.9 251.501 134.3 252.001 134.3H254.701C255.201 134.3 255.501 133.9 255.501 133.3V108.1C255.501 107.5 255.201 107.1 254.701 107.1ZM278.101 127.8L277.201 129.5C276.992 129.811 276.908 130.188 276.963 130.558C277.019 130.928 277.21 131.264 277.501 131.5C279.91 133.676 283.055 134.856 286.301 134.8C291.501 134.8 295.001 132.1 295.001 126.5C295.001 119.3 289.101 118.7 286.401 118C283.701 117.3 281.101 116.8 281.101 114.3C281.101 111.8 283.201 111.5 284.901 111.5C286.964 111.55 288.959 112.25 290.601 113.5C290.841 113.654 291.132 113.709 291.412 113.653C291.691 113.597 291.939 113.435 292.101 113.2L293.301 111.2C293.468 110.929 293.529 110.606 293.474 110.293C293.419 109.98 293.25 109.698 293.001 109.5C290.916 107.634 288.198 106.633 285.401 106.7C281.501 106.7 276.701 108.6 276.701 114.8C276.701 121 282.701 122.4 285.401 123C288.101 123.6 290.601 124.2 290.601 126.8C290.601 129.4 289.501 130 286.201 130C282.901 130 281.301 128.6 279.701 127.5C279.579 127.392 279.433 127.316 279.276 127.277C279.118 127.239 278.953 127.239 278.796 127.279C278.638 127.318 278.492 127.395 278.371 127.503C278.25 127.612 278.158 127.748 278.101 127.9V127.8ZM329.001 107.1H313.201C312.701 107.1 312.401 107.5 312.401 108.1V110.7C312.401 111.3 312.701 111.7 313.201 111.7H318.901V133.3C318.887 133.426 318.9 133.554 318.938 133.675C318.977 133.796 319.041 133.908 319.126 134.002C319.211 134.097 319.315 134.172 319.432 134.223C319.548 134.275 319.674 134.301 319.801 134.3H322.501C323.001 134.3 323.301 133.9 323.301 133.3V111.7H329.001C329.128 111.701 329.254 111.675 329.37 111.623C329.486 111.572 329.59 111.497 329.675 111.402C329.76 111.308 329.824 111.196 329.863 111.075C329.902 110.954 329.915 110.826 329.901 110.7V108.1C329.915 107.974 329.902 107.846 329.863 107.725C329.824 107.604 329.76 107.492 329.675 107.398C329.59 107.303 329.486 107.228 329.37 107.177C329.254 107.125 329.128 107.099 329.001 107.1Z" fill="white"/>
<path d="M75.8008 86H317.401V87.8H75.8008V86Z" fill="white"/>
</g>
<defs>
<clipPath id="clip0_1172_56432">
<rect width="400" height="134.8" fill="white" transform="translate(0.400391)"/>
</clipPath>
</defs>
</svg>
