<svg width="82" height="83" viewBox="0 0 82 83" fill="none" xmlns="http://www.w3.org/2000/svg">
<path d="M16.2687 10.7408C16.2687 10.3764 16.4538 10.2996 17.2863 10.2996C19.075 10.2805 20.0618 12.2368 20.0618 15.8046C20.0618 20.6189 18.7666 21.5398 17.3018 21.5398C16.438 21.5398 16.2685 21.3095 16.2685 20.8683V10.7406L16.2687 10.7408ZM12.707 9.62842V10.1845C13.6475 10.2421 13.8016 10.3379 13.8016 11.2586V20.5808C13.8016 21.4824 13.7092 21.5974 12.707 21.6357V22.2113H16.8858C19.0137 22.2113 22.776 21.9427 22.776 15.6705C22.776 13.5989 22.4214 12.1218 21.5732 11.0861C20.7407 10.0697 19.5225 9.62842 17.6103 9.62842H12.707Z" fill="black"/>
<path d="M29.058 17.5886C29.5976 17.5886 29.8597 17.4545 29.8597 16.8598C29.8597 15.4211 29.4743 13.1387 26.6371 13.1387C23.9849 13.1387 23.0752 15.2679 23.0752 17.7807C23.0752 20.2359 23.8462 22.4609 26.5909 22.4418C28.3333 22.4418 29.2584 21.3674 29.7671 19.6987L29.3663 19.4303C28.873 20.677 28.21 21.099 27.3462 21.099C25.9431 21.099 25.4498 19.622 25.4498 17.5886H29.058ZM25.4498 16.8791C25.4498 15.3829 25.712 13.81 26.5754 13.81C27.3927 13.81 27.5624 15.1912 27.5624 16.3228C27.5624 16.8022 27.439 16.8791 27.1152 16.8791H25.4498Z" fill="black"/>
<path d="M37.3902 15.939C37.3902 14.2511 36.727 13.1387 35.216 13.1387C34.4142 13.1387 33.7357 13.6757 32.7643 14.3663L32.5792 13.1579L29.6802 13.6951V14.2322L30.1583 14.3281C30.3587 14.3665 30.4821 14.5198 30.4821 15.2488V20.8305C30.4821 21.5404 30.3896 21.5978 29.5879 21.6552V22.2115H33.4889V21.6552C33.0571 21.5978 32.7643 21.6362 32.7643 20.9072V16.3037C32.7643 15.9008 32.8104 15.4596 32.9028 15.2297C33.0725 14.7694 33.4271 14.3855 34.0132 14.3855C34.7379 14.3855 35.108 14.9611 35.108 15.9968V20.9456C35.108 21.6743 34.8149 21.5976 34.3831 21.6551V22.2114H38.2842V21.6551C37.4826 21.5976 37.39 21.5784 37.39 20.8494V15.939H37.3902Z" fill="black"/>
<path d="M42.0326 14.1548V13.3683H40.5988V11.105H39.7353L38.4092 13.3683H37.5146V14.1548H38.3319V20.0819C38.3319 21.7506 39.2109 22.4413 40.0434 22.4413C40.614 22.4413 41.3849 22.1918 42.2485 21.4438L42.1252 21.0025C41.9401 21.0985 41.6626 21.1752 41.4622 21.1752C40.9378 21.1752 40.5988 20.6765 40.5988 19.5447V14.1548H42.0326Z" fill="black"/>
<path d="M44.3559 9.34033C43.5845 9.34033 43.1684 10.0307 43.1684 10.8173C43.1684 11.6229 43.5847 12.3326 44.3559 12.3326C45.1113 12.3326 45.5738 11.6227 45.5738 10.8173C45.5738 10.0307 45.142 9.34033 44.3711 9.34033H44.3559ZM43.2763 20.7915C43.2763 21.5203 43.1683 21.6163 42.3975 21.6546V22.2109H46.4526V21.6546C45.6505 21.5972 45.5585 21.5203 45.5585 20.7915V13.2342L45.4658 13.1573L42.4743 13.675V14.2313L42.9525 14.3273C43.1683 14.3656 43.2763 14.519 43.2763 15.2479V20.7914V20.7915Z" fill="black"/>
<path d="M51.4679 16.188V13.7712C50.8665 13.3108 50.0492 13.1382 49.3091 13.1382C47.5821 13.1382 46.5028 14.2315 46.5028 16.0537C46.5028 17.3773 47.1195 18.2213 48.5383 18.9309C49.3863 19.3722 50.003 19.8516 50.003 20.6574C50.003 21.4054 49.6175 21.7891 49.0316 21.7891C48.1219 21.7891 47.2585 20.3506 46.8882 18.8735H46.4258L46.6107 21.5973C47.104 22.211 48.1988 22.4415 48.9853 22.4415C50.6968 22.4415 51.9457 21.4439 51.9457 19.43C51.9457 17.9147 51.2366 17.1857 49.9104 16.5335C49.0159 16.0923 48.3992 15.6897 48.3992 14.9224C48.3992 14.2895 48.6922 13.8099 49.3089 13.8099C50.0029 13.8099 50.7585 14.8265 51.0361 16.1884H51.4678L51.4679 16.188Z" fill="black"/>
<path d="M56.3705 14.1548V13.3683H54.9367V11.105H54.0732L52.7471 13.3683H51.8525V14.1548H52.6698V20.0819C52.6698 21.7506 53.5488 22.4413 54.3813 22.4413C54.9519 22.4413 55.7228 22.1918 56.5864 21.4438L56.4631 21.0025C56.278 21.0985 56.0005 21.1752 55.8001 21.1752C55.2757 21.1752 54.9367 20.6765 54.9367 19.5447V14.1548H56.3705Z" fill="black"/>
<path d="M59.8131 16.5526C59.8131 15.6703 59.9211 15.229 60.2756 15.229C60.4913 15.229 60.7073 15.4208 61.0157 15.7084C61.2006 15.9002 61.3704 16.0728 61.6631 16.0728C62.3571 16.0728 62.7427 15.1907 62.7427 14.4617C62.7427 13.6176 62.3261 13.1382 61.6941 13.1382C61.0618 13.1382 60.6145 13.6945 59.7511 14.8836L59.5817 13.1573L56.729 13.6945V14.2315L57.2071 14.3274C57.4229 14.3658 57.5309 14.5384 57.5309 15.2481V20.7915C57.5309 21.5395 57.4385 21.5972 56.6367 21.6546V22.2109H61.0159V21.6546C59.9211 21.5779 59.8131 21.5397 59.8131 20.7915V16.5524V16.5526Z" fill="black"/>
<path d="M68.1801 13.3682V13.9437L68.9201 14.0589C69.1361 14.078 69.2132 14.2123 69.1361 14.5961C68.7658 16.3032 68.2879 18.2597 67.8563 19.8517H67.8253C67.3782 18.394 66.6689 16.2841 66.2217 14.6536C66.1293 14.2892 66.16 14.0973 66.3758 14.0589L66.9308 13.9437V13.3682H62.7832V13.9437C63.3999 14.0589 63.5386 14.0206 63.8008 14.7686C64.5408 16.8785 65.6047 19.9667 66.4375 22.5753C66.5455 22.9399 66.7306 23.6688 66.6226 23.9565C66.4375 24.5895 66.2526 24.7812 65.9594 24.7812C65.7901 24.7812 65.5585 24.6278 65.4044 24.4743C65.096 24.1866 65.0037 24.0906 64.7412 24.0906C64.2789 24.0906 63.7698 24.8964 63.7698 25.6059C63.7698 26.3348 64.3713 26.7761 64.9111 26.7761C65.9751 26.7761 66.5918 26.0472 67.3782 23.4576C68.2262 20.7147 69.1052 17.5498 69.8608 15.1906C70.1846 14.174 70.2154 14.0204 71.048 13.9437V13.3682H68.1801Z" fill="black"/>
<path d="M15.6342 25.1449L16.3086 27.0285H14.8474L15.6342 25.1449ZM18.4438 28.9119H18.203C18.0342 28.9119 17.9462 28.8563 17.8578 28.6021L16.3728 24.4853C16.3567 24.4295 16.3406 24.3819 16.3406 24.3341C16.3406 24.1673 16.5092 24.1434 16.5092 24.048C16.5092 23.9924 16.4689 23.9606 16.405 23.9606C16.3647 23.9606 16.3325 23.9606 16.3003 23.9685L15.7865 24.0799L13.8119 28.7212C13.7557 28.8564 13.7074 28.9119 13.5711 28.9119H13.3223V29.1743H14.9277V28.9119H14.5344C14.3096 28.9119 14.2212 28.8882 14.2212 28.7291C14.2212 28.6497 14.2774 28.5067 14.3578 28.2921L14.7269 27.3304H16.4368L16.9103 28.7373C16.9264 28.7769 16.9345 28.8086 16.9345 28.8406C16.9345 28.8962 16.8942 28.9119 16.782 28.9119H16.4368V29.1743H18.4436V28.9119H18.4438ZM17.7212 24.1354V24.3978H17.922C18.1868 24.3978 18.2511 24.5408 18.3715 24.8347L20.1217 29.0708C20.162 29.1741 20.194 29.2297 20.2261 29.2297C20.2903 29.2297 20.3145 29.1741 20.3626 29.063L21.6711 25.7886L23.0197 29.0947C23.06 29.1901 23.0916 29.2378 23.116 29.2378C23.1641 29.2378 23.2121 29.1982 23.2443 29.1108L25.0747 24.6521C25.1387 24.4932 25.1467 24.3979 25.3476 24.3979H25.5721V24.1356H24.071V24.3979H24.3842C24.5927 24.3979 24.6811 24.4456 24.6811 24.5966C24.6811 24.6921 24.6408 24.8351 24.5687 25.0258L23.4932 27.7517C23.4773 27.7915 23.461 27.8074 23.461 27.8074C23.4451 27.8074 23.4451 27.7836 23.429 27.7439L22.1366 24.6045C22.1044 24.5249 22.0967 24.4693 22.0967 24.4536C22.0967 24.4297 22.1366 24.3979 22.2172 24.3979H22.6586V24.1356H20.6035V24.3979H20.8204C21.0051 24.3979 21.0851 24.4536 21.1654 24.6364L21.4947 25.3755L20.5955 27.6722C20.5794 27.7119 20.5713 27.7358 20.5634 27.7358C20.5556 27.7358 20.5475 27.7119 20.5314 27.6722L19.2229 24.5808C19.199 24.5249 19.1909 24.4853 19.1909 24.4693C19.1909 24.4374 19.239 24.3979 19.3192 24.3979H19.7047V24.1356H17.7219L17.7212 24.1354ZM26.8806 25.1447L27.5549 27.0283H26.0939L26.8806 25.1447ZM29.69 28.9117H29.4493C29.2807 28.9117 29.1927 28.8561 29.1043 28.6019L27.6191 24.4852C27.6031 24.4293 27.5869 24.3817 27.5869 24.3339C27.5869 24.1672 27.7555 24.1433 27.7555 24.0478C27.7555 23.9922 27.7156 23.9604 27.6512 23.9604C27.6109 23.9604 27.5788 23.9604 27.5466 23.9683L27.0328 24.0798L25.0581 28.7211C25.0019 28.8563 24.9538 28.9117 24.8174 28.9117H24.5685V29.1741H26.1739V28.9117H25.7807C25.556 28.9117 25.4675 28.888 25.4675 28.7289C25.4675 28.6496 25.5239 28.5065 25.6041 28.292L25.9735 27.3303H27.6832L28.1567 28.7371C28.173 28.7767 28.1809 28.8085 28.1809 28.8404C28.1809 28.896 28.141 28.9117 28.0284 28.9117H27.6832V29.1741H29.69V28.9117ZM29.8426 24.1352V24.3894H30.0833C30.4446 24.3894 30.4688 24.612 30.4688 25.4306V28.5857C30.4688 28.6096 30.4688 28.6255 30.4688 28.6413C30.4688 28.8561 30.461 28.9116 30.2922 28.9116H29.9953V29.1739H32.0261V28.9116H31.7129C31.3518 28.9116 31.3358 28.6972 31.3358 27.8785V26.8931C31.4802 26.901 31.6085 26.909 31.7048 26.909C31.7852 26.909 31.8414 26.9011 31.8975 26.9011C32.5557 28.0535 33.0053 28.7211 33.1577 28.9278C33.3343 29.1582 33.4306 29.1741 33.6153 29.1741C33.6395 29.1741 33.6634 29.1741 33.6876 29.1741H34.6026V28.9117H34.4421C34.1369 28.9117 34.0407 28.6973 33.6955 28.2285C33.2781 27.664 32.941 27.1633 32.676 26.7421C33.3986 26.599 33.8078 26.138 33.8078 25.558C33.8078 24.6676 33.1658 24.1352 31.9215 24.1352H29.8422H29.8426ZM31.3358 26.6069V24.5485C31.3358 24.4452 31.3999 24.4133 31.5445 24.4133C32.3793 24.4133 32.909 24.9141 32.909 25.6291C32.909 26.2015 32.4594 26.6306 31.697 26.6306C31.6007 26.6306 31.4802 26.6227 31.3358 26.6067V26.6069ZM36.2727 24.4292H36.5214C37.7898 24.4292 38.6889 25.3818 38.6889 26.8097C38.6889 28.1502 37.9743 28.888 36.6738 28.888H36.4813C36.1039 28.888 36.0958 28.7303 36.0958 27.9595C36.0958 27.9292 36.0958 27.8973 36.0958 27.8653V24.722C36.0958 24.4852 36.1039 24.4293 36.2726 24.4293L36.2727 24.4292ZM34.7233 29.1739C35.0763 29.158 35.3895 29.158 35.6626 29.158C36.088 29.158 36.4249 29.1659 36.6902 29.1659C37.5973 29.1659 38.2394 29.0387 38.8254 28.4837C39.3393 27.9989 39.6282 27.3089 39.6282 26.5393C39.6282 25.0318 38.6087 24.1194 36.7222 24.1194C36.2485 24.1194 35.8553 24.1431 35.5581 24.1431C34.9643 24.1431 34.6272 24.1352 34.5708 24.1272V24.3894H34.8115C35.1728 24.3894 35.197 24.6029 35.197 25.4279V28.5791C35.197 28.603 35.197 28.6189 35.197 28.6349C35.197 28.8481 35.1893 28.9037 35.0205 28.9037H34.7235V29.1739H34.7233ZM43.152 24.1351C42.831 24.0318 42.518 23.9842 42.2128 23.9842C41.0407 23.9842 40.2782 24.6517 40.2782 25.5656C40.2782 25.9313 40.4308 26.2252 40.7277 26.4875C40.9768 26.7023 41.3942 26.861 41.948 27.0916C42.494 27.3221 42.7589 27.6479 42.7589 28.1009C42.7589 28.6333 42.3013 29.015 41.6109 29.015C41.033 29.015 40.6558 28.8322 40.4151 28.4427C40.3187 28.2918 40.2784 28.1964 40.1982 28.1964C40.142 28.1964 40.1019 28.244 40.1019 28.3315C40.1019 28.3474 40.11 28.3631 40.11 28.3872L40.2144 29.0706C40.6719 29.2456 41.1215 29.3248 41.5068 29.3248C42.7432 29.3248 43.5538 28.562 43.5538 27.6877C43.5538 26.9088 43.04 26.5353 42.0606 26.1141C41.3621 25.8119 40.993 25.5578 40.993 25.1285C40.993 24.6756 41.4262 24.2861 42.0125 24.2861C42.438 24.2861 42.7268 24.4213 42.9035 24.6994C42.976 24.8187 43.008 24.89 43.1043 24.89C43.1685 24.89 43.1845 24.8503 43.1845 24.7709C43.1845 24.7548 43.1845 24.739 43.1845 24.7233L43.1524 24.1351H43.152ZM47.0695 28.4744C48.4181 27.3299 49.2048 26.5671 49.2048 25.5337C49.2048 24.5959 48.6108 23.992 47.6715 23.992C47.1176 23.992 46.6278 24.1907 46.1783 24.5961L46.3068 24.7789C46.6278 24.5722 46.941 24.4609 47.2622 24.4609C47.9283 24.4609 48.3619 24.9139 48.3619 25.6767C48.3619 26.5589 47.8242 27.2743 46.973 28.1962C46.4914 28.7207 46.1543 28.9433 46.1543 29.102C46.1543 29.1579 46.2185 29.1737 46.339 29.1737H49.4217L49.7427 28.3551C49.7665 28.2994 49.7747 28.2677 49.7747 28.244C49.7747 28.1883 49.7427 28.1486 49.6863 28.1486C49.5983 28.1486 49.5177 28.3472 49.1486 28.4027C48.9401 28.4346 48.2497 28.4585 47.0693 28.4744H47.0695ZM50.481 26.8929C50.481 28.4427 51.1394 29.3248 52.1186 29.3248C53.2185 29.3248 54.0533 28.2201 54.0533 26.4002C54.0533 24.9061 53.3385 23.9761 52.3996 23.9761C51.91 23.9761 51.4282 24.2383 51.083 24.7233C50.6899 25.2796 50.481 26.0108 50.481 26.8929ZM52.1428 24.3179C52.7529 24.3179 53.2747 25.3272 53.2747 27.0995C53.2747 28.3153 52.8731 28.9831 52.3757 28.9831C51.7656 28.9831 51.2518 27.9816 51.2518 26.2093C51.2518 24.9774 51.645 24.3177 52.1428 24.3177V24.3179ZM55.5141 28.4744C56.8627 27.3299 57.6494 26.5671 57.6494 25.5337C57.6494 24.5959 57.0554 23.992 56.1161 23.992C55.5624 23.992 55.0728 24.1907 54.6231 24.5961L54.7516 24.7789C55.0726 24.5722 55.3856 24.4609 55.7069 24.4609C56.3731 24.4609 56.8065 24.9139 56.8065 25.6767C56.8065 26.5589 56.2688 27.2743 55.4176 28.1962C54.936 28.7207 54.5991 28.9433 54.5991 29.102C54.5991 29.1579 54.6631 29.1737 54.7836 29.1737H57.8663L58.1873 28.3551C58.2115 28.2994 58.2193 28.2677 58.2193 28.244C58.2193 28.1883 58.1873 28.1486 58.1309 28.1486C58.0429 28.1486 57.9624 28.3472 57.5932 28.4027C57.3846 28.4346 56.6943 28.4585 55.5139 28.4744H55.5141ZM59.7365 28.4744C61.0851 27.3299 61.8718 26.5671 61.8718 25.5337C61.8718 24.5959 61.2777 23.992 60.3385 23.992C59.7846 23.992 59.2951 24.1907 58.8455 24.5961L58.9738 24.7789C59.2951 24.5722 59.608 24.4609 59.9293 24.4609C60.5953 24.4609 61.0289 24.9139 61.0289 25.6767C61.0289 26.5589 60.4912 27.2743 59.64 28.1962C59.1583 28.7207 58.8213 28.9433 58.8213 29.102C58.8213 29.1579 58.8854 29.1737 59.006 29.1737H62.0887L62.4097 28.3551C62.4335 28.2994 62.4416 28.2677 62.4416 28.244C62.4416 28.1883 62.4097 28.1486 62.3533 28.1486C62.2652 28.1486 62.1848 28.3472 61.8156 28.4027C61.607 28.4346 60.9166 28.4585 59.7363 28.4744H59.7365Z" fill="url(#paint0_linear_1127_55947)"/>
<path d="M18.8771 38.1899V36.5749H12.2393V45.2711H14.2721V42.1031H18.3378V40.4882H14.2721V38.1901H18.8773L18.8771 38.1899ZM20.2573 45.2709H22.2902V36.5747H20.2573V45.2709ZM30.421 36.5747V41.8545L26.0544 36.5747H24.373V45.2709H26.3807V39.9913L30.7598 45.2709H32.4289V36.5747H30.421ZM41.0741 45.2709H43.2071L39.2797 36.5747H37.2718L33.357 45.2709H35.44L36.2179 43.4074H40.2959L41.0739 45.2709H41.0741ZM36.8706 41.8795L38.2634 38.5502L39.6562 41.8795H36.8708H36.8706ZM44.123 45.2709H50.5603V43.6311H46.1558V36.5749H44.123V45.2711V45.2709ZM51.7019 45.2709H53.7347V36.5747H51.7019V45.2709ZM58.7039 45.42C61.2133 45.42 62.4304 44.1776 62.4304 42.7263C62.4304 39.5338 57.3234 40.6414 57.3234 39.0367C57.3234 38.4881 57.7878 38.0408 58.9923 38.0408C59.7702 38.0408 60.611 38.2644 61.4269 38.7239L62.0541 37.1959C61.2388 36.6867 60.109 36.4258 59.005 36.4258C56.5079 36.4258 55.3034 37.6557 55.3034 39.136C55.3034 42.3662 60.4104 41.2481 60.4104 42.8754C60.4104 43.4076 59.921 43.805 58.7164 43.805C57.6624 43.805 56.5583 43.4322 55.8179 42.9004L55.1278 44.4139C55.9057 45.0101 57.3112 45.4202 58.704 45.4202L58.7039 45.42ZM65.5172 45.2709H67.55V38.2147H70.3609V36.5749H62.7067V38.2147H65.5172V45.2709Z" fill="black"/>
<path d="M22.99 7.2793L22.7743 7.92833C22.7588 7.96685 22.7588 7.99788 22.7588 8.02089C22.7588 8.08278 22.7895 8.12131 22.8436 8.12131C22.959 8.12131 23.0054 7.92833 23.1825 7.8124C23.4522 7.63476 23.9064 7.5652 24.5535 7.55753V11.6053C24.5535 11.6286 24.5535 11.644 24.5535 11.6595C24.5535 11.8682 24.5457 11.9222 24.3838 11.9222H23.8218V12.1771H26.2015V11.9222H25.7782C25.4314 11.9222 25.416 11.7212 25.416 10.9179V7.55771C26.0474 7.56538 26.4864 7.62726 26.7717 7.80491C26.9564 7.92084 27.0027 8.12166 27.1183 8.12166C27.1722 8.12166 27.2108 8.08314 27.2108 8.02125C27.2108 7.99806 27.2032 7.96703 27.1874 7.92868L26.9796 7.27965H22.9898L22.99 7.2793ZM27.3493 7.2793V7.52667H27.5804C27.927 7.52667 27.9501 7.74284 27.9501 8.53847V11.6051C27.9501 11.6285 27.9501 11.6438 27.9501 11.6593C27.9501 11.868 27.9423 11.922 27.7808 11.922H27.4957V12.1769H29.4673V11.922H29.1748C28.8282 11.922 28.8128 11.721 28.8128 10.9177V9.65872H30.9616V11.6053C30.9616 11.6286 30.9616 11.644 30.9616 11.6595C30.9616 11.8682 30.954 11.9222 30.7923 11.9222H30.5073V12.1771H32.4562V11.9222H32.1865C31.8399 11.9222 31.8243 11.7212 31.8243 10.9179V7.85128C31.8243 7.81257 31.8243 7.78172 31.8243 7.75086C31.8243 7.58071 31.8321 7.52685 31.994 7.52685H32.2787V7.27947H30.338V7.52685H30.5998C30.9464 7.52685 30.9618 7.75086 30.9618 8.53865V9.34981H28.813V7.8511C28.813 7.79688 28.813 7.75853 28.813 7.71965C28.813 7.57287 28.8282 7.52667 28.9747 7.52667H29.2673V7.2793H27.3493ZM32.8947 7.2793V7.52667H33.1257C33.4725 7.52667 33.4955 7.73517 33.4955 8.53847V11.6051C33.4955 11.6515 33.4955 11.698 33.4955 11.7287C33.4955 11.8755 33.4803 11.9297 33.3261 11.9297H33.0412V12.1769H36.6307L36.823 11.5125C36.8385 11.4587 36.8385 11.4276 36.8385 11.4121C36.8385 11.3734 36.8002 11.3349 36.7616 11.3349C36.6151 11.3349 36.5227 11.6051 36.2535 11.7134C35.9914 11.8138 35.591 11.8987 35.1442 11.8987H34.7204C34.3739 11.8987 34.3587 11.7134 34.3587 10.8945V9.6045H34.9977C35.0749 9.6045 35.1366 9.6045 35.2059 9.6045C35.7527 9.6045 35.9221 9.61983 35.9221 9.85936V10.1144H36.1531V8.77016H35.9221V8.9865C35.9221 9.29541 35.722 9.32626 35.0056 9.32626H34.3587V7.79688C34.3587 7.77369 34.3587 7.75069 34.3587 7.72732C34.3587 7.59623 34.3663 7.55735 34.5358 7.55735H35.0132C35.637 7.55735 36.0377 7.64225 36.1918 7.75836C36.3228 7.85877 36.3457 8.05193 36.4534 8.05193C36.5151 8.05193 36.5306 8.01322 36.546 7.92048L36.6384 7.2793H32.8949H32.8947Z" fill="url(#paint1_linear_1127_55947)"/>
<path fill-rule="evenodd" clip-rule="evenodd" d="M20.1416 46.55L20.7791 46.5532L41.0259 81.8239L61.2227 46.5498L61.8871 46.5525L41.0209 82.9998L20.4567 47.1059L20.1416 46.55Z" fill="black"/>
<path fill-rule="evenodd" clip-rule="evenodd" d="M26.6289 46.5549L28.27 46.5488L41.021 68.745L53.7273 46.5506L55.399 46.5494L41.0213 71.6696L27.3223 47.8134L26.6289 46.5549Z" fill="url(#paint2_linear_1127_55947)"/>
<path fill-rule="evenodd" clip-rule="evenodd" d="M0.0283203 0L2.47012 1.54044H79.4755L81.9994 0.0700931H1.19805L0.0283203 0Z" fill="url(#paint3_linear_1127_55947)"/>
<path fill-rule="evenodd" clip-rule="evenodd" d="M2.45386 4.46099L11.7514 20.7108H12.8834V19.6771L2.47012 1.54044L0.0283203 0L2.45386 4.46099Z" fill="url(#paint4_linear_1127_55947)"/>
<path fill-rule="evenodd" clip-rule="evenodd" d="M68.3438 23.8322L81.9993 0.0703125L79.4755 1.54066L69.9688 18.0907L68.3438 23.8322Z" fill="url(#paint5_linear_1127_55947)"/>
<path fill-rule="evenodd" clip-rule="evenodd" d="M13.2119 23.1631H14.8472L15.2608 23.8863L14.5736 25.5821L13.2119 23.1631Z" fill="black"/>
<path fill-rule="evenodd" clip-rule="evenodd" d="M16.8926 29.5938H18.4833L21.7127 35.2381H20.0983L16.8926 29.5938Z" fill="black"/>
<path fill-rule="evenodd" clip-rule="evenodd" d="M66.4592 27.1719L61.8522 35.2238H60.2012L64.5423 27.5543C64.5423 27.5543 65.3969 27.7703 66.4592 27.1721V27.1719Z" fill="black"/>
<path fill-rule="evenodd" clip-rule="evenodd" d="M6.40065 11.3374H0L13.6499 35.1942H14.3095L0.999699 11.9313H6.73135L6.40065 11.3374Z" fill="url(#paint6_linear_1127_55947)"/>
<defs>
<linearGradient id="paint0_linear_1127_55947" x1="14.6009" y1="24.2037" x2="57.9451" y2="25.0743" gradientUnits="userSpaceOnUse">
<stop/>
</linearGradient>
<linearGradient id="paint1_linear_1127_55947" x1="23.5851" y1="7.76709" x2="36.8384" y2="7.50575" gradientUnits="userSpaceOnUse">
<stop/>
</linearGradient>
<linearGradient id="paint2_linear_1127_55947" x1="40.5881" y1="68.1644" x2="40.589" y2="42.7173" gradientUnits="userSpaceOnUse">
<stop/>
</linearGradient>
<linearGradient id="paint3_linear_1127_55947" x1="2.16187" y1="0.0700929" x2="81.9994" y2="0.0693923" gradientUnits="userSpaceOnUse">
<stop/>
</linearGradient>
<linearGradient id="paint4_linear_1127_55947" x1="1.4432" y1="0.970245" x2="13.1564" y2="21.0758" gradientUnits="userSpaceOnUse">
<stop/>
</linearGradient>
<linearGradient id="paint5_linear_1127_55947" x1="81.9993" y1="0.0703121" x2="68.3682" y2="22.9979" gradientUnits="userSpaceOnUse">
<stop/>
</linearGradient>
<linearGradient id="paint6_linear_1127_55947" x1="0.645491" y1="11.3374" x2="14.4954" y2="35.0858" gradientUnits="userSpaceOnUse">
<stop/>
</linearGradient>
</defs>
</svg>
