<svg width="394" height="272" viewBox="0 0 394 272" fill="none" xmlns="http://www.w3.org/2000/svg">
<g clip-path="url(#clip0_1172_56484)">
<path d="M79.8998 93.8C78.6442 95.703 76.9368 97.2652 74.93 98.3471C72.9232 99.429 70.6796 99.9969 68.3998 100C59.3998 100 52.6998 92.1 52.6998 76.1C52.6998 66.2 55.5998 55.2 64.4998 55.2C73.3998 55.2 77.5998 65.1 79.1998 74.2H79.7998V54.7H79.1998C79.1998 56.1 78.6998 57 77.2998 57C75.8998 57 71.6998 54.6 64.4998 54.6C50.6998 54.6 38.9998 63.3 38.9998 78.8C38.9998 90.5 45.4998 98.6 54.0998 101.8H44.7998V102.3C49.5998 102.4 50.6998 103.9 51.6998 107L44.7998 129.3C43.3998 134.1 39.7998 144.7 34.1998 144.8V145.3H51.1998V144.8C42.4998 144.7 43.6998 135 45.5998 128.6L46.3998 126.1H57.4998L60.8998 137.2C62.8998 143.8 61.1998 144.7 56.4998 144.8V145.3H77.8998V144.8C75.7998 144.7 73.9998 143.7 72.1998 138L61.5998 103.4H62.9998C70.9998 103.4 76.9998 99.7 80.1998 94.3L79.8998 93.8ZM50.3998 207.9C50.3998 207.9 53.4998 190.4 88.3998 186.1C123.3 181.8 145.9 183.2 145.9 183.2L201.2 186.1C201.2 186.1 279.6 191.7 293.5 189.8C307.4 187.9 359.2 191.6 365.6 147.8C365.6 147.8 368.8 170.5 338.2 185.7C307.6 200.9 263.3 198.4 263.3 198.4C263.3 198.4 227.2 197 204.2 195.1C167.6 192 134.9 189.4 98.2998 189.9C81.0998 190.1 59.2998 192.3 50.3998 207.9ZM105.8 5C105.8 3.7 106.5 3.4 109.5 3.4C115.8 3.4 119.4 10.3 119.4 23C119.4 40.2 114.7 43.5 109.5 43.5C106.4 43.5 105.8 42.7 105.8 41.1V5ZM93.0998 1V3C96.4998 3.2 96.9998 3.6 96.9998 6.8V40.1C96.9998 43.3 96.6998 43.7 93.0998 43.8V45.9H108C115.6 45.9 129.1 44.9 129.1 22.6C129.1 15.2 127.8 9.9 124.8 6.2C121.8 2.5 117.4 1 110.6 1H93.0998ZM151.5 29.4C153.4 29.4 154.3 28.9 154.3 26.8C154.3 21.7 153 13.5 142.8 13.5C132.6 13.5 130.1 21.1 130.1 30.1C130.1 39.1 132.9 46.7 142.7 46.7C148.9 46.7 152.2 42.9 154 36.9L152.6 36C150.8 40.4 148.5 41.9 145.4 41.9C140.4 41.9 138.6 36.6 138.6 29.4H151.5ZM138.6 26.9C138.6 21.5 139.5 15.9 142.6 15.9C145.7 15.9 146.1 20.8 146.1 24.9C146.1 26.6 145.7 26.9 144.5 26.9H138.6ZM181.2 23.5C181.2 17.5 178.8 13.5 173.5 13.5C170.6 13.5 168.2 15.4 164.7 17.9L164.1 13.6L153.7 15.5V17.4L155.4 17.7C156.1 17.9 156.6 18.4 156.6 21V40.9C156.6 43.5 156.2 43.7 153.4 43.9V45.8H167.3V43.9C165.7 43.7 164.7 43.8 164.7 41.2V24.8C164.678 23.5156 164.846 22.235 165.2 21C165.442 20.1288 165.966 19.3623 166.69 18.8197C167.413 18.2771 168.296 17.9889 169.2 18C171.8 18 173.1 20 173.1 23.7V41.3C173.1 43.9 172 43.7 170.5 43.9V45.8H184.4V43.9C181.5 43.7 181.2 43.6 181.2 41V23.5ZM197.8 17.2V14.4H192.7V6.3H189.6L184.8 14.4H181.6V17.2H184.6V38.3C184.6 44.2 187.7 46.7 190.7 46.7C193.7 46.7 195.5 45.8 198.5 43.1L198.1 41.6C197.341 41.9389 196.529 42.142 195.7 42.2C193.9 42.2 192.6 40.4 192.6 36.4V17.2H197.8ZM206.1 0C203.3 0 201.8 2.5 201.8 5.3C201.8 8.1 203.3 10.7 206.1 10.7C208.9 10.7 210.4 8.1 210.4 5.3C210.4 2.5 208.9 0 206.1 0ZM202.2 40.8C202.2 43.4 201.8 43.7 199.1 43.9V45.9H213.5V43.9C210.7 43.7 210.3 43.4 210.3 40.8V13.9L210 13.6L199.3 15.4V17.4L201 17.8C201.8 17.9 202.2 18.5 202.2 21.1V40.8ZM231.4 24.4V15.8C229.144 14.233 226.446 13.4273 223.7 13.5C217.6 13.5 213.7 17.4 213.7 23.9C213.7 28.6 215.9 31.6 221 34.2C224 35.7 226.2 37.5 226.2 40.3C226.2 43.1 224.8 44.4 222.7 44.4C220.6 44.4 216.4 39.2 215.1 34H213.4L214.1 43.7C215.9 45.9 219.8 46.7 222.6 46.7C228.7 46.7 233.1 43.1 233.1 36C233.1 30.5 230.6 28 225.9 25.6C222.7 24.1 220.5 22.6 220.5 19.9C220.5 17.2 221.5 15.9 223.7 15.9C225.9 15.9 228.9 19.5 229.9 24.4H231.4ZM248.9 17.2V14.4H243.8V6.3H240.7L236 14.4H232.8V17.2H235.7V38.3C235.7 44.2 238.9 46.7 241.8 46.7C244.7 46.7 246.6 45.8 249.7 43.1L249.3 41.6C248.541 41.9389 247.729 42.142 246.9 42.2C245 42.2 243.8 40.4 243.8 36.4V17.2H248.9ZM261.2 25.7C261.2 22.6 261.6 21 262.9 21C264.2 21 264.4 21.7 265.5 22.7C265.769 23.0679 266.113 23.3742 266.509 23.5984C266.906 23.8226 267.346 23.9595 267.8 24C270.3 24 271.7 20.9 271.7 18.3C271.7 15.7 270.2 13.5 267.9 13.5C265.6 13.5 264.1 15.5 261 19.8L260.4 13.6L250.2 15.5V17.4L251.9 17.8C252.7 17.9 253.1 18.5 253.1 21V40.8C253.1 43.5 252.7 43.7 249.9 43.9V45.8H265.5V43.9C261.6 43.6 261.2 43.5 261.2 40.8V25.7ZM291.1 14.4V16.4L293.7 16.8C294.5 16.9 294.8 17.4 294.5 18.7C293.2 24.8 291.5 31.8 289.9 37.5H289.8C288.2 32.3 285.7 24.7 284.1 18.9C283.8 17.6 283.9 17 284.6 16.8L286.6 16.4V14.4H271.8V16.4C274 16.8 274.5 16.7 275.5 19.3C278.1 26.9 281.9 37.9 284.9 47.2C285.3 48.5 285.9 51.1 285.5 52.1C285.1 53.1 284.2 55 283.2 55C282.417 54.901 281.702 54.5077 281.2 53.9C280.1 52.9 279.7 52.5 278.8 52.5C277.9 52.5 275.3 55.4 275.3 57.9C275.299 58.9968 275.728 60.0502 276.494 60.835C277.261 61.6199 278.303 62.0739 279.4 62.1C283.2 62.1 285.4 59.5 288.2 50.3C291 41.1 294.4 29.2 297.1 20.8C298.2 17.2 298.3 16.7 301.3 16.4V14.4H291.1ZM289.5 162.3C289.5 162.9 289.8 163.1 290.3 163.1C290.8 163.1 291.4 162.8 292.3 162.8C293.2 162.8 294.5 163.2 294.5 166.4C294.5 169.6 294 170.3 292.5 170.3C291 170.3 290.7 169.7 289.9 167.3C289.833 167.063 289.688 166.855 289.488 166.71C289.289 166.565 289.046 166.491 288.8 166.5C288.563 166.5 288.329 166.547 288.111 166.637C287.893 166.727 287.694 166.86 287.527 167.027C287.36 167.194 287.227 167.393 287.137 167.611C287.046 167.83 287 168.064 287 168.3C287 169.2 288 171.2 292.5 171.2C297 171.2 298.7 169.3 298.7 166.3C298.7 163.3 295.4 162.4 294.1 162.2V161.9C295.7 161.6 298 161 298 158.5C298 156 295 154.5 292.5 154.5C290 154.5 287.3 156 287.3 157.7C287.3 159.4 288.4 159.2 289 159.2C289.6 159.2 289.8 158.9 290 158.4C290.2 157.9 291.1 155.4 292.2 155.4C293.3 155.4 293.9 157.4 293.9 158.4C293.9 159.4 293.8 161.7 292.3 161.7C290.8 161.7 290.9 161.4 290.2 161.4C290.099 161.399 289.999 161.42 289.907 161.461C289.814 161.502 289.732 161.563 289.666 161.639C289.599 161.715 289.55 161.805 289.521 161.901C289.493 161.998 289.485 162.1 289.5 162.2V162.3ZM235.5 166.1H234.8C233.9 167.8 233.5 168 232.8 168H225.4C225.8 167.2 227.6 166 230.3 164.7C233 163.4 234.6 161.9 234.6 159.4C234.6 156.9 232.3 154.6 229 154.6C225.7 154.6 223.3 156.6 223.3 158.6C223.349 159.042 223.56 159.45 223.893 159.745C224.225 160.041 224.655 160.203 225.1 160.2C225.7 160.2 226.2 160 226.3 159.3C226.8 156.7 227.3 155.5 228.6 155.5C229.9 155.5 230.4 156.9 230.4 158.5C230.4 160.1 230.3 162 227.6 164.3C224.9 166.6 223.1 169.1 223.1 170.8L223.3 171H234.4L235.5 166.2V166.1ZM165.5 155.4C167.4 155.4 167.4 160 167.4 162.8C167.4 165.6 167.4 170.3 165.5 170.3C163.6 170.3 163.5 165.9 163.5 162.8C163.5 159.7 163.5 155.4 165.4 155.4H165.5ZM165.5 154.5C160.8 154.5 159.4 158.4 159.4 162.8C159.4 167.2 160.8 171.2 165.5 171.2C170.2 171.2 171.6 167.2 171.6 162.8C171.6 158.4 170.1 154.5 165.5 154.5ZM108 166.1H107.4C106.4 167.8 106 168 105.3 168H97.9998C98.3998 167.2 100.1 166 102.9 164.7C105.7 163.4 107.2 161.9 107.2 159.4C107.2 156.9 104.8 154.6 101.6 154.6C98.3998 154.6 95.8998 156.6 95.8998 158.6C95.9126 158.823 95.9693 159.042 96.0667 159.243C96.1642 159.445 96.3004 159.625 96.4676 159.774C96.6348 159.922 96.8298 160.037 97.0412 160.11C97.2527 160.183 97.4765 160.214 97.6998 160.2C97.8312 160.214 97.9641 160.201 98.0907 160.164C98.2174 160.126 98.3352 160.063 98.4375 159.979C98.5398 159.896 98.6245 159.793 98.6867 159.676C98.7489 159.559 98.7873 159.432 98.7998 159.3C99.2998 156.7 99.8998 155.5 101.2 155.5C102.5 155.5 103 156.9 103 158.5C103 160.1 102.9 162 100.2 164.3C97.4998 166.6 95.6998 169.1 95.6998 170.8V171H106.9L107.9 166.2L108 166.1ZM365.8 145.8H366.3C366.3 144.8 366.6 143.5 368 143.5C369.4 143.5 373.6 146.1 378.9 146.1C388.1 146.1 393.7 140 393.7 132.2C393.7 124.4 389.3 120.8 380.5 116.1C377.3 114.1 372.5 111.3 372.5 106.9C372.5 102.5 375.8 101.7 378.8 101.7C384.8 101.7 389 107.5 390.3 114.7H390.8V101.1H390.3C390.3 102.2 389.8 103 388.6 103C387.4 103 383.9 101.1 379.4 101.1C371.3 101.1 365.9 106.3 365.9 113.7C365.9 121.1 370.1 123.6 377.8 128.5C381.5 131.1 386 133.9 386 138.9C386 143.9 383.6 145.4 379.4 145.4C371.3 145.4 366.3 136.3 365.4 128.1H365L365.8 145.7V145.8ZM324.6 145.3H341.4C350.9 145.3 362 137.8 362 122.9C362 110.4 354.1 104 346 102.3H355.5V82.5H354.9C354.7 90.3 348.4 101.7 337.6 101.7H335.7V61.6C335.7 57.6 337.6 56.1 342.9 55.9V55.4H316.4V55.9C321.8 56.1 323.6 57.6 323.6 61.6V96.2C323.6 100.2 321.8 101.8 316.4 101.8V102.3H321.5C325.5 102.6 326.8 104.1 326.8 107.6V139.6C326.8 142.5 325.8 144 323.2 144.6C322.436 144.338 321.749 143.891 321.2 143.3C318.5 140.6 316.7 134.6 313.1 130.3C311.84 128.786 310.267 127.564 308.488 126.718C306.71 125.872 304.769 125.422 302.8 125.4C301.6 125.3 302 125.2 302.8 125.1C311.8 124.5 318 119.7 318 113C318 108 314.5 103.7 307.7 102.3H318.8V101.8C316.3 101.7 314.9 100.4 312.2 94.4L294.4 55.3H293.6C290 65.2 285.9 74.9 281.9 84.7C279.9 89.8 275 101.7 268.6 101.8V102.3H281.9C285.8 102.6 287.1 104 287.1 107.5V139.6C287.1 142.9 285.9 144.4 282.4 144.8C280.6 144.4 279 143.1 277.5 137.9L266.7 101.8H262.7C266.355 100.298 269.438 97.6714 271.5 94.3L271.2 93.8C269.916 95.6984 268.188 97.2551 266.167 98.3355C264.146 99.4158 261.892 99.9871 259.6 100C250.7 100 243.9 92.1 243.9 76.1C243.9 66.2 246.8 55.2 255.7 55.2C264.6 55.2 268.8 65.1 270.5 74.2H271V54.7H270.5C270.5 56.1 270 57 268.6 57C267.2 57 263 54.6 255.8 54.6C241.9 54.6 230.3 63.2 230.3 78.8C230.3 90.5 236.8 98.6 245.4 101.8H236.6V102.3C243.2 102.4 242.2 111.3 239.8 117.8L234.5 133.6L227 108.4C225.2 103.1 226.5 102.4 229.1 102.3H229.6V101.8H228.4C223.1 101.7 221.3 100.1 221.3 96.1V61.6C221.3 57.6 223.1 56 228.5 55.9V55.4H201.9V55.9C207.3 56 209.1 57.5 209.1 61.6V96.1C209.1 100.1 207.3 101.6 202 101.8H193.6V74.9C193.6 65.9 195.6 55.9 203.1 55.9V55.4H182.5V55.9C191.5 55.9 192.9 67.1 192.9 77.2V88.3C192.9 88.9 192.6 89 192.2 88.6L170.3 55.4H150.4V55.9C155.7 56 158.3 59.3 160.6 62.7V80.5C160.6 89.5 160.5 101.7 151 101.8V102.3H162.8C166.8 102.6 167.8 104.1 168.7 107L162 129.3C160.7 134.1 157.2 144.7 151.7 144.8V145.3H168.2V144.8C159.8 144.7 160.9 135 162.8 128.6L163.6 126.1H174.3L177.6 137.2C179.5 143.8 177.9 144.7 173.4 144.8V145.3H194.2V144.8C192.1 144.7 190.4 143.7 188.6 138L177.8 101.8H171.6C162.6 101.7 161.2 85.6 161.2 75.5V63.7C161.3 63.9 161.3 64 161.4 64.1L186.4 102.3H187.4C190.5 102.6 191.9 104.3 193 107.5L205.1 145.7H207.9L218 117.4L218.4 116.4L227.8 145.7H230.5L240.7 117.1C242.1 113.2 245.8 105.3 249.4 102.9C250.981 103.215 252.588 103.382 254.2 103.4H255.4C256.552 104.288 257.335 105.57 257.6 107L250.9 129.3C249.6 134.1 246 144.7 240.6 144.8V145.3H257.1V144.8C248.7 144.7 249.8 135 251.7 128.6L252.5 126.1H263.2L266.5 137.2C268.4 143.8 266.8 144.7 262.3 144.8V145.3H303.5V144.8C299 144.7 297.4 143.3 297.4 139.6V102.3H299C304.8 102.3 307.3 107.7 307.3 113.1C307.3 118.5 304.4 124.8 299.8 124.9V125.5C304.5 125.5 305.5 139.9 309.4 145.3H324.6ZM337.1 144.8V102.4H341.2C348.6 102.4 350.9 112 350.9 122.9C350.9 133.8 348.6 144.8 341.1 144.8H337.1ZM294.3 101.8H288C278.1 101.6 280 90.7 282.8 84L284 81.3H296.5L299.2 93.7C300.8 100.9 299.6 101.7 294.3 101.8ZM252.6 125.5L257.8 107.9L263 125.5H252.6ZM210 102.3C213.1 102.6 214.5 104.3 215.5 107.5L218.1 115.3C217.8 116.2 217.5 117.1 217.2 117.8L211.8 133.6L204.4 108.5C202.8 103.5 203.8 102.5 205.9 102.3H210ZM163.7 125.5L168.9 107.9L174.1 125.5H163.7ZM107.7 145.3H142.6V129.3H142.1C142 136.1 136.2 144.7 127 144.7H124.6V124.2H126.8C131.1 124.2 135.2 127.5 135.3 131.6H135.8V115.9H135.3C135.2 120.2 131.2 123.5 126.8 123.5H124.6V102.4H127C136.1 102.4 140.8 111 140.9 117.6H141.5V102.3H150.7V101.9C145.3 101.7 143.5 100.2 143.5 96.2V61.6C143.5 57.6 145.3 56.1 150.7 55.9V55.4H124.1V55.9C129.5 56.1 131.3 57.6 131.3 61.6V96.2C131.3 100.2 129.5 101.7 124.2 101.9H122V82.5H121.4C121.3 90.3 114.9 101.7 104.2 101.7H104V101.1H103.6C103.6 101.3 103.5 101.5 103.5 101.7H102.3V61.6C102.3 57.6 104.1 56.1 109.5 55.9V55.4H82.9998V55.9C88.2998 56.1 90.0998 57.6 90.0998 61.6V96.2C90.0998 100.2 88.2998 101.8 82.9998 101.9V102.3H85.7998C83.5505 103.247 81.6401 104.852 80.3194 106.904C78.9988 108.957 78.3296 111.36 78.3998 113.8C78.3998 120.9 82.6998 123.6 90.6998 128.5C94.4998 131.1 99.0998 133.9 99.0998 138.9C99.0998 143.9 96.5998 145.4 92.2998 145.4C83.9998 145.4 78.7998 136.3 77.8998 128.1H77.3998L78.2998 145.8H78.7998C78.7998 144.8 79.0998 143.5 80.5998 143.5C82.0998 143.5 86.2998 146.1 91.7998 146.1C101.2 146.1 107 140 107 132.2C107 124.4 102.5 120.8 93.4998 116.1C90.1998 114.1 85.1998 111.3 85.1998 106.9C85.1693 105.918 85.4405 104.951 85.977 104.129C86.5134 103.306 87.2892 102.668 88.1998 102.3H95.1998C99.4998 104.1 102.5 109 103.6 114.7H104V102.3H108.6C112.6 102.6 114 104.1 114 107.6V139.6C114 143.3 112.4 144.7 107.7 144.9V145.3ZM103.3 102.3C103.137 102.542 102.912 102.736 102.647 102.859C102.383 102.982 102.09 103.031 101.8 103C100.836 102.912 99.8915 102.676 98.9998 102.3H103.3ZM46.5998 125.5L51.9998 107.9L57.2998 125.5H46.5998ZM36.4998 137.4C35.4402 139.138 33.959 140.581 32.1936 141.595C30.4281 142.609 28.4353 143.161 26.3998 143.2C18.5998 143.2 12.6998 135.9 12.6998 121C12.6998 111.8 15.1998 101.7 22.9998 101.7C30.7998 101.7 34.3998 110.8 35.8998 119.3H36.3998V101.2H35.8998C35.8998 102.5 35.3998 103.3 34.1998 103.3C32.9998 103.3 29.2998 101.1 23.0998 101.1C10.9998 101.1 0.799805 109.1 0.799805 123.5C0.799805 137.9 10.7998 146.3 21.6998 146.3C28.6998 146.3 33.8998 142.9 36.6998 137.9L36.4998 137.4ZM284.2 80.7L291.7 62.1L296.2 80.7H284.2Z" fill="white"/>
<path d="M42.3002 271.4H14.7002V270.7C15.5839 270.708 16.4577 270.514 17.2549 270.133C18.0522 269.752 18.7517 269.193 19.3002 268.5C20.5978 267.047 21.2792 265.147 21.2002 263.2V222.2C21.2792 220.254 20.5978 218.353 19.3002 216.9C18.7376 216.223 18.0351 215.676 17.2411 215.297C16.4471 214.917 15.5803 214.713 14.7002 214.7V214.1H60.2002V231.3H59.5002C58.7588 228.396 57.4316 225.673 55.6002 223.3C53.8307 220.846 51.5864 218.771 49.0002 217.2C46.6823 215.583 43.9265 214.711 41.1002 214.7H34.2002V245.4H41.7002C44.7136 245.506 47.7051 244.852 50.4002 243.5C52.9002 242.2 54.1002 240.7 54.1002 238.9H54.7002V252.6H54.1002C54.1002 250.8 52.9002 249.3 50.4002 248C47.7051 246.648 44.7136 245.995 41.7002 246.1H34.2002V263.2C34.1832 264.206 34.3897 265.203 34.8047 266.12C35.2198 267.036 35.833 267.849 36.6002 268.5C38.1343 269.959 40.184 270.75 42.3002 270.7V271.4ZM89.8002 271.4H63.8002V270.7C64.6839 270.708 65.5577 270.514 66.3549 270.133C67.1521 269.752 67.8517 269.193 68.4002 268.5C69.6978 267.047 70.3792 265.147 70.3002 263.2V222.2C70.3792 220.254 69.6978 218.353 68.4002 216.9C67.8376 216.223 67.1351 215.676 66.3411 215.297C65.5471 214.917 64.6803 214.713 63.8002 214.7V214.1H89.8002V214.7C88.9201 214.713 88.0533 214.917 87.2593 215.297C86.4653 215.676 85.7628 216.223 85.2002 216.9C83.9026 218.353 83.2212 220.254 83.3002 222.2V263.2C83.2212 265.147 83.9026 267.047 85.2002 268.5C85.7487 269.193 86.4482 269.752 87.2455 270.133C88.0427 270.514 88.9165 270.708 89.8002 270.7V271.4ZM138.9 271.4H132.7L98.9002 223.2V256.6C98.7953 260.032 99.4439 263.446 100.8 266.6C102.1 269.3 103.6 270.7 105.4 270.7V271.4H91.7002V270.7C93.5002 270.7 95.1002 269.4 96.3002 266.6C97.6565 263.446 98.305 260.032 98.2002 256.6V229.6C98.1922 227.179 97.924 224.765 97.4002 222.4C96.9431 220.436 96.1296 218.571 95.0002 216.9C94.6838 216.291 94.212 215.775 93.6325 215.407C93.053 215.038 92.3865 214.829 91.7002 214.8V214.1H109.2L138.2 255.1V228.8C138.246 225.405 137.599 222.037 136.3 218.9C135 216.1 133.5 214.7 131.7 214.7V214.1H145.4V214.7C143.6 214.7 142.1 216.1 140.8 218.9C139.452 222.022 138.804 225.401 138.9 228.8V271.4ZM202.8 271.4H175.8V270.7C176.356 270.721 176.907 270.581 177.385 270.297C177.864 270.013 178.251 269.598 178.5 269.1C179.147 267.797 179.456 266.353 179.4 264.9C179.307 262.122 178.732 259.381 177.7 256.8L177 255H155.7C154.999 256.697 154.398 258.433 153.9 260.2C153.498 261.735 153.297 263.314 153.3 264.9C153.231 266.355 153.541 267.802 154.2 269.1C154.449 269.598 154.836 270.013 155.315 270.297C155.794 270.581 156.344 270.721 156.9 270.7V271.4H142.5V270.7C143.331 270.684 144.15 270.499 144.907 270.155C145.663 269.811 146.342 269.316 146.9 268.7C148.545 267.206 149.93 265.448 151 263.5C152.331 261.303 153.469 258.994 154.4 256.6L170.9 214.1H174.1L190.6 256.6C191.524 259.016 192.697 261.328 194.1 263.5C195.209 265.45 196.628 267.206 198.3 268.7C199.48 269.931 201.096 270.65 202.8 270.7V271.4ZM176.8 254.3L166.4 227.5L156 254.3H176.8ZM249.7 271.4H204.2V270.7C205.081 270.694 205.951 270.493 206.746 270.113C207.541 269.733 208.242 269.182 208.8 268.5C210.055 267.022 210.73 265.139 210.7 263.2V222.2C210.73 220.262 210.055 218.378 208.8 216.9C208.238 216.223 207.535 215.676 206.741 215.297C205.947 214.917 205.08 214.713 204.2 214.7V214.1H230.1V214.7C229.235 214.714 228.383 214.919 227.605 215.299C226.827 215.679 226.143 216.226 225.6 216.9C224.303 218.353 223.621 220.254 223.7 222.2V270.7H230.6C233.408 270.666 236.148 269.833 238.5 268.3C241.049 266.639 243.283 264.54 245.1 262.1C246.852 259.715 248.172 257.041 249 254.2H249.7V271.4ZM278.6 271.4H252.6V270.7C253.485 270.716 254.361 270.525 255.16 270.143C255.958 269.761 256.657 269.199 257.2 268.5C258.498 267.047 259.179 265.147 259.1 263.2V222.2C259.179 220.254 258.498 218.353 257.2 216.9C256.642 216.218 255.941 215.668 255.146 215.287C254.351 214.907 253.481 214.707 252.6 214.7V214.1H278.6V214.7C277.733 214.707 276.879 214.909 276.1 215.289C275.322 215.67 274.638 216.221 274.1 216.9C272.803 218.353 272.121 220.254 272.2 222.2V263.2C272.121 265.147 272.803 267.047 274.1 268.5C274.623 269.197 275.303 269.76 276.085 270.142C276.868 270.525 277.73 270.716 278.6 270.7V271.4ZM304.4 272C302.688 271.992 300.981 271.825 299.3 271.5C296.467 270.778 293.692 269.842 291 268.7C289.589 267.986 288.068 267.513 286.5 267.3C285.925 267.278 285.36 267.454 284.9 267.8C284.57 268.212 284.331 268.689 284.2 269.2C284.005 269.676 283.903 270.186 283.9 270.7H283.1V254.2H283.9C284.824 257.174 286.395 259.906 288.5 262.2C290.654 264.813 293.263 267.015 296.2 268.7C298.631 270.328 301.475 271.23 304.4 271.3C307.9 271.3 310.5 270.6 312.3 269.2C313.185 268.523 313.893 267.642 314.363 266.632C314.833 265.622 315.052 264.513 315 263.4C314.979 261.44 314.311 259.542 313.1 258C311.69 256.368 310.077 254.923 308.3 253.7C306.3 252.4 304.3 251.1 302.1 249.9L296.6 246.7C293.146 244.805 289.896 242.559 286.9 240C285.513 238.709 284.406 237.146 283.649 235.408C282.892 233.671 282.501 231.796 282.5 229.9C282.454 226.91 283.326 223.978 285 221.5C286.754 218.934 289.174 216.894 292 215.6C295.419 214.048 299.147 213.296 302.9 213.4C304.586 213.384 306.266 213.586 307.9 214C310.312 214.582 312.634 215.491 314.8 216.7C315.901 217.48 317.167 217.994 318.5 218.2C318.78 218.224 319.061 218.182 319.321 218.078C319.582 217.974 319.814 217.81 320 217.6C320.382 217.21 320.657 216.728 320.8 216.2C320.959 215.751 321.027 215.276 321 214.8H321.9V231.3H321C320.216 228.368 318.931 225.594 317.2 223.1C315.459 220.608 313.293 218.441 310.8 216.7C308.519 214.998 305.746 214.086 302.9 214.1C300.865 214.018 298.841 214.429 297 215.3C295.536 216.081 294.323 217.26 293.5 218.7C292.775 220.125 292.398 221.701 292.4 223.3C292.378 225.127 292.939 226.913 294 228.4C295.162 229.971 296.623 231.297 298.3 232.3C302.198 234.799 306.239 237.07 310.4 239.1C312.3 240 314.1 241 316 242.1C317.735 243.07 319.347 244.245 320.8 245.6C322.343 246.933 323.566 248.596 324.38 250.465C325.194 252.334 325.576 254.363 325.5 256.4C325.545 259.222 324.781 261.998 323.3 264.4C321.674 266.908 319.293 268.834 316.5 269.9C313.4 271.3 309.3 272 304.3 272H304.4ZM366.8 271.4H340.8V270.7C341.684 270.708 342.558 270.514 343.355 270.133C344.152 269.752 344.852 269.193 345.4 268.5C346.698 267.047 347.379 265.147 347.3 263.2V214.7C344.394 214.705 341.55 215.538 339.1 217.1C336.558 218.688 334.323 220.721 332.5 223.1C330.606 225.536 329.213 228.323 328.4 231.3H327.8V214.1H379.8V231.3H379.1C378.323 228.329 376.963 225.542 375.1 223.1C373.268 220.693 370.995 218.656 368.4 217.1C365.95 215.538 363.106 214.705 360.2 214.7V263.2C360.159 265.159 360.875 267.057 362.2 268.5C362.738 269.18 363.422 269.73 364.2 270.111C364.979 270.492 365.833 270.693 366.7 270.7V271.4H366.8Z" fill="white"/>
</g>
<defs>
<clipPath id="clip0_1172_56484">
<rect width="392.9" height="272" fill="white" transform="translate(0.799805)"/>
</clipPath>
</defs>
</svg>
