<svg width="379" height="382" viewBox="0 0 379 382" fill="none" xmlns="http://www.w3.org/2000/svg">
<g clip-path="url(#clip0_1172_56488)">
<path d="M75.6002 49.3998C75.6002 47.7998 76.4002 47.3998 80.3002 47.3998C88.5002 47.2998 93.0002 56.2998 93.0002 72.6998C93.0002 94.8998 87.1002 99.0998 80.3002 99.0998C76.4002 99.0998 75.6002 98.0998 75.6002 95.9998V49.3998ZM59.2002 44.2998V46.8998C63.5002 47.0998 64.2002 47.5998 64.2002 51.7998V94.6998C64.2002 98.8998 63.8002 99.3998 59.2002 99.5998V102.2H78.4002C88.2002 102.2 105.5 101 105.5 72.0998C105.5 62.5998 103.9 55.7998 100 50.9998C96.1002 46.1998 90.5002 44.2998 81.7002 44.2998H59.2002Z" fill="white"/>
<path d="M134.4 80.9C136.9 80.9 138.1 80.3 138.1 77.6C138.1 71 136.3 60.5 123.3 60.5C110.3 60.5 106.9 70.3 106.9 81.8C106.9 93.3 110.4 103.4 123.1 103.3C131.1 103.3 135.3 98.3 137.7 90.7L135.8 89.4C133.6 95.2 130.5 97.1 126.5 97.1C120.1 97.1 117.8 90.3 117.8 80.9H134.4ZM117.8 77.7C117.8 70.8 119 63.6 123 63.6C127 63.6 127.5 69.9 127.5 75.1C127.5 77.3 127 77.7 125.5 77.7H117.8Z" fill="white"/>
<path d="M172.8 73.4C172.8 65.6 169.7 60.5 162.8 60.5C159.1 60.5 156 62.9 151.5 66.1L150.6 60.6L137.3 63V65.5L139.5 65.9C140.4 66.1 141 66.8 141 70.2V95.9C141 99.1 140.6 99.4 136.9 99.7V102.2H154.8V99.7C152.8 99.4 151.5 99.6 151.5 96.2V75C151.45 73.3457 151.653 71.6934 152.1 70.1C152.9 68 154.5 66.2 157.2 66.2C159.9 66.2 162.3 68.9 162.3 73.6V96.4C162.3 99.7 160.9 99.4 158.9 99.7V102.2H176.9V99.7C173.2 99.4 172.8 99.3 172.8 96V73.4Z" fill="white"/>
<path d="M194.1 65.1001V61.5001H187.5V51.1001H183.6L177.5 61.5001H173.4V65.1001H177.1V92.4001C177.1 100.1 181.2 103.3 185 103.3C188.8 103.3 191.2 102.1 195.1 98.7001L194.6 96.7001C193.624 97.152 192.574 97.423 191.5 97.5001C189.1 97.5001 187.5 95.2001 187.5 89.9001V65.1001H194.1Z" fill="white"/>
<path d="M204.8 43C201.3 43 199.4 46.2 199.4 49.8C199.4 53.4 201.3 56.8 204.8 56.8C208.3 56.8 210.4 53.5 210.4 49.8C210.4 46.1 208.5 43 204.9 43H204.8ZM199.9 95.7C199.9 99 199.4 99.5 195.8 99.7V102.2H214.5V99.7C210.8 99.4 210.4 99 210.4 95.7V60.9L209.9 60.5L196.2 62.9V65.5L198.4 65.9C199.4 66.1 199.9 66.8 199.9 70.2V95.7Z" fill="white"/>
<path d="M237.6 74.4998V63.3998C234.652 61.411 231.155 60.3968 227.6 60.4998C219.7 60.4998 214.7 65.4998 214.7 73.8998C214.7 79.9998 217.6 83.8998 224.1 87.0998C228 89.1998 230.8 91.3998 230.8 95.0998C230.8 98.7998 229 100.3 226.4 100.3C222.2 100.3 218.2 93.6998 216.5 86.8998H214.4L215.2 99.3998C217.5 102.2 222.5 103.3 226.1 103.3C234 103.3 239.8 98.6998 239.8 89.3998C239.8 82.3998 236.5 79.0998 230.4 76.0998C226.3 74.0998 223.4 72.1998 223.4 68.6998C223.4 65.1998 224.8 63.5998 227.6 63.5998C230.4 63.5998 234.3 68.1998 235.6 74.4998H237.6Z" fill="white"/>
<path d="M260.1 65.1001V61.5001H253.5V51.1001H249.5L243.4 61.5001H239.3V65.1001H243.1V92.4001C243.1 100.1 247.1 103.3 251 103.3C254.9 103.3 257.1 102.1 261.1 98.7001L260.5 96.7001C259.563 97.1626 258.543 97.4345 257.5 97.5001C255.1 97.5001 253.5 95.2001 253.5 89.9001V65.1001H260.1Z" fill="white"/>
<path d="M276 76.2C276 72.1 276.5 70.1 278.1 70.1C279.7 70.1 280.1 71 281.5 72.3C282.9 73.6 283.1 74 284.5 74C287.7 74 289.5 69.9 289.5 66.6C289.5 63.3 287.5 60.5 284.6 60.5C281.7 60.5 279.7 63 275.7 68.5L274.9 60.6L261.8 63V65.5L264 65.9C265 66.1 265.5 66.9 265.5 70.2V95.7C265.5 99.1 265 99.4 261.4 99.7V102.2H281.5V99.7C276.5 99.3 276 99.1 276 95.7V76.2Z" fill="white"/>
<path d="M314.501 61.5V64.2L317.901 64.7C318.901 64.8 319.201 65.4 318.901 67.2C317.201 75 315.001 84 313.001 91.4H312.901C310.801 84.7 307.501 74.9 305.501 67.4C305.001 65.8 305.201 64.9 306.201 64.7L308.701 64.2V61.5H289.601V64.2C292.501 64.7 293.101 64.5 294.301 68C297.701 77.7 302.601 91.9 306.501 103.9C307.001 105.6 307.801 108.9 307.301 110.3C306.501 113.2 305.601 114.1 304.301 114.1C303.293 113.898 302.38 113.371 301.701 112.6C300.301 111.3 299.901 110.9 298.701 110.9C297.501 110.9 294.201 114.6 294.201 117.8C294.187 118.496 294.311 119.188 294.566 119.836C294.82 120.484 295.199 121.076 295.682 121.577C296.165 122.079 296.742 122.48 297.38 122.759C298.018 123.037 298.705 123.187 299.401 123.2C304.301 123.2 307.201 119.9 310.801 108C314.401 96.1 318.701 80.8 322.201 69.9C323.701 65.2 323.801 64.5 327.701 64.2V61.5H314.501Z" fill="white"/>
<path d="M72.6 115.7L75.7 124.4H69L72.6 115.7ZM85.6 133.1H84.5C83.7 133.1 83.3 132.8 82.9 131.6L76 112.7C76 112.4 75.9 112.2 75.9 112C75.9 111.8 76.7 111.1 76.7 110.7C76.7 110.3 76.5 110.3 76.2 110.3H75.7L73.3 110.8L64.3 132.2C64 132.8 63.8 133.1 63.1 133.1H62V134.3H69.4V133.1H67.6C66.5 133.1 66.1 132.9 66.1 132.2C66.258 131.509 66.4928 130.838 66.8 130.2L68.5 125.8H76.3L78.5 132.3C78.5795 132.417 78.615 132.559 78.6 132.7C78.6 133 78.4 133.1 77.9 133.1H76.3V134.3H85.6V133.1ZM82.2 111.1V112.3H83.2C84.4 112.3 84.7 112.9 85.2 114.3L93.3 133.8C93.5 134.3 93.6 134.5 93.8 134.5C94 134.5 94.2 134.3 94.4 133.8L100.4 118.7L106.6 133.9C106.8 134.3 107 134.6 107.1 134.6C107.2 134.6 107.5 134.4 107.7 134L116.1 113.5C116.4 112.7 116.4 112.3 117.3 112.3H118.4V111.1H111.5V112.3H112.9C113.9 112.3 114.3 112.5 114.3 113.2C114.22 113.885 114.052 114.557 113.8 115.2L108.8 127.7V128C108.7 128 108.7 127.9 108.6 127.7L102.7 113.2C102.562 112.993 102.493 112.748 102.5 112.5C102.5 112.4 102.7 112.3 103 112.3H105.1V111.1H95.5V112.3H96.5C97.4 112.3 97.7 112.5 98.1 113.4L99.6 116.8L95.5 127.4L95.3 127.6V127.4L89.3 113.1C89.23 113.038 89.1755 112.96 89.1408 112.873C89.106 112.787 89.0921 112.693 89.1 112.6C89.1 112.5 89.3 112.3 89.7 112.3H91.5V111.1H82.2ZM124.4 115.7L127.5 124.4H120.8L124.4 115.7ZM137.3 133.1H136.2C135.4 133.1 135 132.8 134.6 131.6L127.8 112.7C127.7 112.477 127.632 112.242 127.6 112C127.6 111.2 128.4 111.1 128.4 110.7C128.4 110.3 128.2 110.3 127.9 110.3H127.5L125.1 110.8L116 132.2C115.8 132.8 115.5 133.1 114.9 133.1H113.8V134.3H121.1V133.1H119.3C118.3 133.1 117.9 132.9 117.9 132.2C118.055 131.52 118.256 130.852 118.5 130.2L120.2 125.8H128.1L130.3 132.3V132.7C130.3 133 130.1 133.1 129.6 133.1H128V134.3H137.2L137.3 133.1ZM138 111.1V112.2H139.1C140.8 112.2 140.9 113.3 140.9 117V131.8C140.9 132.8 140.9 133.1 140.1 133.1H138.7V134.3H148.1V133.1H146.6C145 133.1 144.9 132.1 144.9 128.3V123.8H147.5C149.251 127.01 151.188 130.115 153.3 133.1C154.1 134.2 154.5 134.3 155.4 134.3H159.9V133.1H159.2C157.8 133.1 157.4 132.1 155.8 129.9C154.2 127.7 152.3 125 151.1 123.1C154.4 122.4 156.3 120.3 156.3 117.6C156.3 114.9 153.3 111.1 147.6 111.1H138ZM144.9 122.5V113C144.9 112.5 145.2 112.4 145.9 112.4C149.7 112.4 152.1 114.7 152.1 118C152.1 121.3 150.1 122.6 146.6 122.6L144.9 122.5ZM167.6 112.4H168.8C174.6 112.4 178.7 116.8 178.7 123.4C178.7 130 175.5 132.9 169.5 132.9H168.6C166.8 132.9 166.8 132.2 166.8 128.7V113.8C166.8 112.7 166.8 112.4 167.6 112.4ZM160.5 134.3H169.5C173.7 134.3 176.7 133.7 179.4 131.2C180.592 130.027 181.534 128.625 182.17 127.078C182.806 125.531 183.122 123.872 183.1 122.2C183.1 115.3 178.4 111.1 169.7 111.1H159.8V112.3H160.9C162.6 112.3 162.7 113.3 162.7 117.1V131.9C162.7 132.9 162.6 133.1 161.9 133.1H160.5V134.4V134.3ZM199.3 111.1C197.915 110.632 196.462 110.395 195 110.4C189.6 110.4 186.1 113.5 186.1 117.7C186.113 118.502 186.298 119.293 186.643 120.017C186.988 120.742 187.485 121.384 188.1 121.9C189.3 122.9 191.2 123.6 193.7 124.7C196.2 125.8 197.5 127.2 197.5 129.3C197.5 131.4 195.4 133.5 192.2 133.5C189 133.5 187.8 132.7 186.7 130.9C185.6 129.1 186.1 129.8 185.7 129.8C185.3 129.8 185.2 130 185.2 130.4V130.6L185.7 133.8C187.61 134.564 189.643 134.97 191.7 135C197.4 135 201.1 131.4 201.1 127.4C201.1 123.4 198.8 122.1 194.3 120.2C189.8 118.3 189.3 117.6 189.3 115.6C189.3 113.6 191.3 111.8 194 111.8C196.7 111.8 197.3 112.4 198.1 113.7C198.9 115 198.6 114.5 199.1 114.5C199.6 114.5 199.4 114.4 199.4 114V111.1H199.3ZM217.3 131C223.5 125.8 227.1 122.3 227.1 117.5C227.1 112.7 224.4 110.4 220.1 110.4C217.521 110.389 215.042 111.395 213.2 113.2L213.8 114C215.107 113.131 216.631 112.646 218.2 112.6C221.3 112.6 223.3 114.7 223.3 118.2C223.3 121.7 220.8 125.5 216.9 129.8C214.7 132.2 213.1 133.2 213.1 133.9C213.1 134.6 213.4 134.3 213.9 134.3H228.1L229.6 130.5L229.8 130C229.802 129.883 229.764 129.769 229.691 129.677C229.617 129.586 229.515 129.523 229.4 129.5C228.9 129.5 228.6 130.5 226.9 130.7C223.709 130.991 220.503 131.091 217.3 131ZM233 123.8C233 130.9 236 135 240.5 135C245 135 249.5 129.9 249.5 121.5C249.5 114.6 246.2 110.3 241.8 110.3C240.596 110.372 239.425 110.727 238.383 111.335C237.341 111.943 236.456 112.787 235.8 113.8C233.84 116.757 232.861 120.255 233 123.8ZM240.7 111.9C243.5 111.9 245.9 116.6 245.9 124.7C245.9 130.3 244 133.4 241.7 133.4C239.4 133.4 236.6 128.8 236.6 120.6C236.6 115 238.4 111.9 240.7 111.9ZM256.2 131C262.4 125.8 266 122.3 266 117.5C266 112.7 263.3 110.4 258.9 110.4C257.638 110.397 256.388 110.642 255.221 111.123C254.054 111.603 252.994 112.309 252.1 113.2L252.7 114C254.002 113.121 255.529 112.635 257.1 112.6C260.1 112.6 262.1 114.7 262.1 118.2C262.1 121.7 259.6 125.5 255.7 129.8C253.5 132.2 252 133.2 252 133.9C252 134.6 252.3 134.3 252.8 134.3H267L268.5 130.5C268.566 130.341 268.6 130.171 268.6 130C268.6 129.7 268.5 129.5 268.2 129.5C267.9 129.5 267.4 130.5 265.7 130.7C262.543 130.995 259.37 131.095 256.2 131ZM275.6 131C281.8 125.8 285.4 122.3 285.4 117.5C285.4 112.7 282.7 110.4 278.4 110.4C275.821 110.389 273.342 111.395 271.5 113.2L272.1 114C273.407 113.131 274.931 112.646 276.5 112.6C279.6 112.6 281.6 114.7 281.6 118.2C281.6 121.7 279.1 125.5 275.2 129.8C272.9 132.2 271.4 133.2 271.4 133.9C271.4 134.6 271.7 134.3 272.2 134.3H286.4L287.9 130.5L288.1 130C288.1 129.867 288.047 129.74 287.954 129.646C287.86 129.552 287.733 129.5 287.6 129.5C287.2 129.5 286.9 130.5 285.2 130.7C282.009 130.991 278.803 131.091 275.6 131Z" fill="white"/>
<path d="M87.6 175.8V168.3H57V208.3H66.4V193.8H85.1V186.3H66.4V175.8H87.6ZM93.9 208.3H103.3V168.3H93.9V208.3ZM140.7 168.3V192.6L120.6 168.3H112.9V208.3H122.1V184L142.3 208.3H149.9V168.3H140.7ZM189.7 208.3H199.5L181.5 168.3H172.2L154.2 208.3H163.8L167.4 199.8H186.1L189.7 208.3ZM170.4 192.7L176.8 177.4L183.2 192.7H170.4ZM203.8 208.3H233.4V200.8H213.1V168.3H203.8V208.3ZM238.6 208.3H248V168.3H238.6V208.3ZM270.9 209C282.4 209 288 203.3 288 196.6C288 181.9 264.5 187 264.5 179.7C264.5 177.1 266.6 175.1 272.2 175.1C276.136 175.167 279.99 176.233 283.4 178.2L286.3 171.2C282.5 168.8 277.3 167.6 272.2 167.6C260.8 167.6 255.2 173.3 255.2 180.1C255.2 195 278.7 189.8 278.7 197.3C278.7 199.8 276.5 201.6 270.9 201.6C266.145 201.572 261.509 200.108 257.6 197.4L254.4 204.4C258 207.1 264.5 209 270.9 209ZM302.2 208.3H311.6V175.9H324.5V168.3H289.3V175.9H302.2V208.3Z" fill="white"/>
<path d="M106.5 33.5L105.5 36.5C105.433 36.6223 105.398 36.7602 105.4 36.9C105.398 37.017 105.437 37.1311 105.51 37.2224C105.583 37.3138 105.686 37.3766 105.8 37.4C106.4 37.4 106.6 36.5 107.4 36C108.2 35.5 110.7 34.8 113.7 34.8V53.7C113.7 54.6 113.7 54.9 112.9 54.9H110.3V56H121.3V54.9H119.3C117.7 54.9 117.7 53.9 117.7 50.2V34.8C120.6 34.8 122.6 35.1 123.9 35.9C125.2 36.7 125 37.4 125.5 37.4C125.615 37.3766 125.718 37.3138 125.791 37.2224C125.864 37.1311 125.903 37.017 125.9 36.9C125.903 36.7602 125.868 36.6223 125.8 36.5L124.9 33.5H106.5ZM126.6 33.5V34.6H127.6C129.2 34.6 129.301 35.6 129.301 39.3V53.7C129.301 54.6 129.3 54.9 128.5 54.9H127.2V56H136.301V54.9H135C133.4 54.9 133.301 53.9 133.301 50.2V44.5H143.2V53.7C143.2 54.6 143.2 54.9 142.4 54.9H141.1V56H150.1V54.9H148.801C147.201 54.9 147.2 53.9 147.2 50.2V35.7C147.2 34.9 147.2 34.6 147.9 34.6H149.2V33.5H140.301V34.6H141.5C143.1 34.6 143.2 35.7 143.2 39.3V43H133.301V35.5C133.301 34.9 133.4 34.6 134 34.6H135.4V33.5H126.6ZM152.1 33.5V34.6H153.1C154.7 34.6 154.801 35.6 154.801 39.3V54C154.801 54.7 154.8 54.9 154.1 54.9H152.801V56H169.301L170.2 53V52.5C170.2 52.4204 170.169 52.3441 170.113 52.2879C170.056 52.2316 169.98 52.2 169.9 52.2C169.2 52.2 168.8 53.4 167.5 53.9C165.873 54.5215 164.142 54.827 162.4 54.8H160.5C158.901 54.8 158.801 53.9 158.801 50.1V44.2H162.7C165.2 44.2 166 44.3 166 45.4V46.5H167.1V40.4H166V41.4C166 42.8 165.101 42.9 161.801 42.9H158.801V35.6C158.801 35 158.9 34.8 159.6 34.8H161.801C164.701 34.8 166.501 35.2 167.301 35.7C168.101 36.2 168 37.1 168.5 37.1C169 37.1 168.8 36.9 168.9 36.5L169.301 33.5H152.1Z" fill="white"/>
<path fill-rule="evenodd" clip-rule="evenodd" d="M93.4004 214.2H96.3004L189.5 376.6L282.5 214.2H285.5L189.5 382L94.8004 216.8L93.4004 214.2Z" fill="white"/>
<path fill-rule="evenodd" clip-rule="evenodd" d="M123.2 214.3H130.8L189.5 316.5L248 214.3H255.7L189.5 329.8L126.4 220L123.2 214.3Z" fill="white"/>
<path fill-rule="evenodd" clip-rule="evenodd" d="M0.799805 0L12.0998 7.1H366.5L378.1 0.3H6.1998L0.799805 0Z" fill="white"/>
<path fill-rule="evenodd" clip-rule="evenodd" d="M11.9998 20.5L54.7998 95.3H59.9998V90.6L12.0998 7.1L0.799805 0L11.9998 20.5Z" fill="white"/>
<path fill-rule="evenodd" clip-rule="evenodd" d="M315.2 109.7L378.1 0.299805L366.5 7.0998L322.7 83.2998L315.2 109.7Z" fill="white"/>
<path fill-rule="evenodd" clip-rule="evenodd" d="M61.5 106.6H69L70.9 109.9L67.8 117.7L61.5 106.6Z" fill="white"/>
<path fill-rule="evenodd" clip-rule="evenodd" d="M78.5 136.2H85.8L100.6 162.2H93.2L78.5 136.2Z" fill="white"/>
<path fill-rule="evenodd" clip-rule="evenodd" d="M306.6 125L285.4 162.1H277.8L297.7 126.8C300.786 127.289 303.946 126.65 306.6 125Z" fill="white"/>
<path fill-rule="evenodd" clip-rule="evenodd" d="M30.2002 52.2002H0.700195L63.5002 162H66.6002L5.3002 54.9002H31.7002L30.2002 52.2002Z" fill="white"/>
</g>
<defs>
<clipPath id="clip0_1172_56488">
<rect width="377.4" height="382" fill="white" transform="translate(0.700195)"/>
</clipPath>
</defs>
</svg>
