<svg width="155" height="70" viewBox="0 0 155 70" fill="none" xmlns="http://www.w3.org/2000/svg">
<path d="M4.76188 0.208168H0.502582C0.247596 0.208168 0.104492 0.351253 0.104492 0.606205V11.4885C0.104492 11.7435 0.247596 11.8865 0.502582 11.8865H1.20509C1.46008 11.8865 1.60318 11.7435 1.60318 11.4885V8.1377H4.79571C7.68381 8.1377 9.15127 6.43108 9.15127 4.22757C9.15127 1.99283 7.78008 0.208168 4.76188 0.208168ZM4.87376 6.87855H1.60318V1.45431H4.77749C6.7081 1.45431 7.64998 2.85915 7.64998 4.23017C7.64998 5.58558 6.73932 6.87855 4.87376 6.87855ZM12.2605 7.94779H15.2605L17.9405 11.6498C18.068 11.8241 18.2111 11.8891 18.4192 11.8891H19.2804C19.6161 11.8891 19.7124 11.681 19.5198 11.4105L16.8867 7.85153C18.6248 7.45349 19.7592 6.1293 19.7592 4.08708C19.7592 1.80552 18.1486 0.21077 15.898 0.21077H11.1599C10.905 0.21077 10.7618 0.353855 10.7618 0.608807V11.4911C10.7618 11.7461 10.905 11.8891 11.1599 11.8891H11.8624C12.1174 11.8891 12.2605 11.7461 12.2605 11.4911V7.95039V7.94779ZM12.2605 6.65481V1.45431H15.7393C17.7818 1.45431 18.2917 3.21036 18.2917 4.08708C18.2917 5.88996 17.1755 6.65481 15.6274 6.65481H12.2605ZM23.5423 0.208168H22.8398C22.5848 0.208168 22.4417 0.351253 22.4417 0.606205V11.4885C22.4417 11.7435 22.5848 11.8865 22.8398 11.8865H23.5423C23.7973 11.8865 23.9404 11.7435 23.9404 11.4885V0.606205C23.9404 0.351253 23.7973 0.208168 23.5423 0.208168ZM31.2804 11.8865C31.3923 11.8865 31.4729 11.8397 31.5666 11.6316L36.4946 0.671244C36.6221 0.385073 36.4946 0.208168 36.1902 0.208168H35.3758C35.152 0.208168 35.0089 0.304425 34.9126 0.51255L31.2778 8.74386L27.6742 0.51255C27.5779 0.304425 27.4348 0.208168 27.211 0.208168H26.3654C26.061 0.208168 25.9335 0.385073 26.061 0.671244L30.989 11.6316C31.0852 11.8397 31.1633 11.8865 31.2752 11.8865H31.2804ZM37.3948 11.5822L38.2873 9.66741H44.6177L45.5101 11.5822C45.6064 11.7747 45.7651 11.8865 45.9889 11.8865H46.8319C47.1363 11.8865 47.2456 11.6784 47.1181 11.4079L41.7608 0.447511C41.6645 0.254996 41.5839 0.208168 41.4564 0.208168C41.3289 0.208168 41.2482 0.254996 41.152 0.447511L35.7947 11.4079C35.6672 11.6784 35.7791 11.8865 36.0809 11.8865H36.9083C37.132 11.8865 37.2908 11.7747 37.387 11.5822H37.3948ZM41.4772 2.99703L43.9958 8.40566H38.9273L41.4772 2.99703ZM54.8015 0.205566H47.014C46.759 0.205566 46.6159 0.348652 46.6159 0.603604V1.05107C46.6159 1.30602 46.759 1.44911 47.014 1.44911H50.1727V11.4833C50.1727 11.7382 50.3158 11.8813 50.5708 11.8813H51.2577C51.5127 11.8813 51.6558 11.7382 51.6558 11.4833V1.44911H54.7989C55.0539 1.44911 55.197 1.30602 55.197 1.05107V0.603604C55.197 0.348652 55.0539 0.205566 54.7989 0.205566H54.8015ZM64.6002 0.205566H56.9403C56.7633 0.205566 56.654 0.317433 56.654 0.491737V11.5978C56.654 11.7721 56.7659 11.8839 56.9403 11.8839H64.6002C64.7772 11.8839 64.8864 11.7721 64.8864 11.5978V10.8953C64.8864 10.721 64.7746 10.6092 64.6002 10.6092H58.1527V6.74847H63.8171C63.994 6.74847 64.1033 6.6366 64.1033 6.4623V5.75988C64.1033 5.58297 63.9914 5.47371 63.8171 5.47371H58.1527V1.45431H64.6002C64.7772 1.45431 64.8864 1.34244 64.8864 1.16814V0.49694C64.8864 0.322636 64.7746 0.21077 64.6002 0.21077V0.205566Z" fill="black"/>
<path d="M4.76147 0.306917H0.502165C0.403293 0.306917 0.325237 0.332933 0.278403 0.382362C0.228967 0.431792 0.20555 0.507237 0.20555 0.606096V11.4884C0.20555 11.5872 0.231569 11.6653 0.278403 11.7121C0.327839 11.7616 0.403293 11.785 0.502165 11.785H1.20468C1.30355 11.785 1.38161 11.7589 1.42844 11.7095C1.47788 11.6601 1.50129 11.5846 1.50129 11.4858V8.03353H4.79269C6.15088 8.03353 7.18903 7.6511 7.89675 7.01372C8.6617 6.32691 9.04678 5.34092 9.04678 4.22485C9.04678 3.07757 8.67731 2.04996 7.89935 1.33973C7.19944 0.69715 6.16128 0.306917 4.75886 0.306917H4.76147ZM0.502165 0.103996H4.76147C6.21592 0.103996 7.30091 0.515041 8.03725 1.19144C8.85945 1.94589 9.24973 3.02294 9.24973 4.22485C9.24973 5.39815 8.84123 6.43617 8.02944 7.16461C7.2853 7.83321 6.20291 8.23645 4.79269 8.23645H1.70164V11.4858C1.70164 11.6419 1.6548 11.7642 1.56894 11.8526C1.48308 11.9385 1.35819 11.9853 1.20207 11.9853H0.499564C0.34345 11.9853 0.218559 11.9385 0.132697 11.8526C0.0468341 11.7668 0 11.6419 0 11.4858V0.603494C0 0.447401 0.0468341 0.325128 0.132697 0.236675C0.218559 0.150824 0.34345 0.103996 0.499564 0.103996H0.502165ZM4.87335 6.97469H1.50129V1.34754H4.77708C5.69815 1.34754 6.40326 1.65972 6.89502 2.13581C7.46743 2.68994 7.75104 3.4626 7.75104 4.22485C7.75104 4.9741 7.48044 5.70514 6.93665 6.22805C6.4605 6.68332 5.7736 6.97469 4.87335 6.97469ZM1.70424 6.77177H4.87335C5.71636 6.77177 6.35643 6.50121 6.79615 6.07976C7.29831 5.59847 7.54809 4.91947 7.54809 4.22225C7.54809 3.50943 7.2853 2.7914 6.75712 2.27889C6.30179 1.83663 5.64351 1.54786 4.77708 1.54786H1.70164V6.77177H1.70424ZM12.2627 7.84101H15.3147L18.0259 11.5846C18.078 11.6575 18.1352 11.7095 18.1976 11.7381C18.2601 11.7694 18.3355 11.7824 18.424 11.7824H19.2852C19.3737 11.7824 19.4387 11.7668 19.4804 11.7381C19.4934 11.7277 19.5064 11.7147 19.5116 11.7017C19.5194 11.6887 19.522 11.6731 19.522 11.6549C19.522 11.6029 19.496 11.5378 19.444 11.4624L16.7224 7.78118L16.8733 7.74736C17.7371 7.54964 18.4474 7.11778 18.934 6.4778C19.4023 5.86383 19.6651 5.05735 19.6651 4.07917C19.6651 2.9683 19.2748 2.02654 18.6139 1.36055C17.9479 0.691947 17.006 0.301714 15.9054 0.301714H11.1673C11.0685 0.301714 10.9904 0.32773 10.9436 0.377159C10.8941 0.426589 10.8707 0.502034 10.8707 0.600892V11.4832C10.8707 11.582 10.8967 11.6601 10.9436 11.7069C10.993 11.7563 11.0685 11.7798 11.1673 11.7798H11.8698C11.9687 11.7798 12.0468 11.7537 12.0936 11.7043C12.143 11.6549 12.1665 11.5794 12.1665 11.4806V7.83841H12.2679L12.2627 7.84101ZM15.2107 8.04393H12.3642V11.4858C12.3642 11.6419 12.3174 11.7642 12.2315 11.8526C12.1456 11.9385 12.0207 11.9853 11.8646 11.9853H11.1621C11.006 11.9853 10.8811 11.9385 10.7953 11.8526C10.7094 11.7668 10.6626 11.6419 10.6626 11.4858V0.603494C10.6626 0.447401 10.7094 0.325128 10.7953 0.236675C10.8811 0.150824 11.006 0.103996 11.1621 0.103996H15.9002C17.0554 0.103996 18.0467 0.515041 18.7518 1.22266C19.4518 1.92508 19.8629 2.91627 19.8629 4.08177C19.8629 5.10418 19.5845 5.95489 19.0875 6.60267C18.6009 7.24265 17.9036 7.68752 17.0606 7.90865L19.6027 11.3453C19.6807 11.4572 19.7198 11.5638 19.7198 11.6575C19.7198 11.7069 19.7093 11.7537 19.6859 11.798C19.6651 11.8396 19.6313 11.876 19.5897 11.9046C19.5168 11.9567 19.4127 11.9853 19.28 11.9853H18.4188C18.2991 11.9853 18.1976 11.9671 18.1066 11.9202C18.0129 11.8734 17.9349 11.8032 17.8594 11.7043L15.2081 8.04393H15.2107ZM12.1613 6.6495V1.34754H15.7415C16.6053 1.34754 17.2063 1.65192 17.6174 2.07597C18.2107 2.68734 18.3954 3.54325 18.3954 4.08177C18.3954 4.9715 18.13 5.61929 17.6773 6.05375C17.1829 6.53243 16.4648 6.75096 15.6296 6.75096H12.1613V6.6495ZM12.3642 1.55046V6.55064H15.6296C16.4153 6.55064 17.0814 6.35032 17.5368 5.91066C17.9505 5.51262 18.1924 4.91166 18.1924 4.08177C18.1924 3.57967 18.0207 2.78099 17.4717 2.21646C17.097 1.82883 16.5428 1.55046 15.7415 1.55046H12.3642ZM23.5445 0.306917H22.842C22.7432 0.306917 22.6651 0.332933 22.6183 0.382362C22.5688 0.431792 22.5454 0.507237 22.5454 0.606096V11.4884C22.5454 11.5872 22.5714 11.6653 22.6183 11.7121C22.6677 11.7616 22.7432 11.785 22.842 11.785H23.5445C23.6434 11.785 23.7215 11.7589 23.7683 11.7095C23.8177 11.6601 23.8412 11.5846 23.8412 11.4858V0.603494C23.8412 0.504635 23.8151 0.426589 23.7683 0.379761C23.7189 0.330331 23.6434 0.304316 23.5445 0.304316V0.306917ZM22.842 0.103996H23.5445C23.7006 0.103996 23.8229 0.150824 23.9114 0.236675C23.9973 0.322526 24.0441 0.447401 24.0441 0.603494V11.4858C24.0441 11.6419 23.9973 11.7642 23.9114 11.8526C23.8255 11.9385 23.7006 11.9853 23.5445 11.9853H22.842C22.6859 11.9853 22.561 11.9385 22.4752 11.8526C22.3893 11.7668 22.3425 11.6419 22.3425 11.4858V0.603494C22.3425 0.447401 22.3893 0.325128 22.4752 0.236675C22.561 0.150824 22.6859 0.103996 22.842 0.103996ZM31.2826 11.7824C31.3164 11.7824 31.345 11.7746 31.3684 11.7563C31.4023 11.7277 31.4387 11.6757 31.4777 11.5872L36.4057 0.626908C36.4317 0.564471 36.4447 0.51244 36.4447 0.468213C36.4447 0.434393 36.4369 0.408378 36.4239 0.387565C36.4109 0.366753 36.3875 0.348542 36.3589 0.335534C36.3172 0.317323 36.2626 0.306917 36.1949 0.306917H35.3805C35.2895 0.306917 35.214 0.325128 35.1568 0.364151C35.0969 0.403175 35.0501 0.465612 35.0111 0.548861L31.2826 8.9909L27.5879 0.551463C27.5488 0.465612 27.4994 0.403175 27.4396 0.364151C27.3823 0.325128 27.3069 0.306917 27.2158 0.306917H26.3702C26.3025 0.306917 26.2479 0.317323 26.2063 0.335534C26.175 0.348542 26.1542 0.366753 26.1412 0.387565C26.1282 0.408378 26.1204 0.436995 26.1204 0.468213C26.1204 0.51244 26.1334 0.567072 26.1594 0.626908L31.0874 11.5872C31.1265 11.6757 31.1629 11.7277 31.1967 11.7563C31.2201 11.7772 31.2487 11.7824 31.2826 11.7824ZM31.4959 11.9098C31.4283 11.9645 31.3606 11.9827 31.2826 11.9827C31.2045 11.9827 31.1343 11.9645 31.0692 11.9098C31.012 11.863 30.9599 11.7876 30.9053 11.6679L25.9773 0.704955C25.9383 0.616502 25.9201 0.535854 25.9201 0.46301C25.9201 0.390167 25.9383 0.325128 25.9747 0.270495C26.0111 0.215863 26.0606 0.174238 26.1256 0.145621C26.1933 0.114402 26.2765 0.098793 26.3728 0.098793H27.2184C27.3485 0.098793 27.4604 0.130012 27.5541 0.189847C27.6451 0.249683 27.718 0.340737 27.7752 0.460409L31.2878 8.4862L34.8315 0.46301C34.8888 0.340737 34.959 0.249683 35.0527 0.189847C35.1464 0.130012 35.2557 0.098793 35.3884 0.098793H36.2027C36.299 0.098793 36.3823 0.114402 36.4499 0.145621C36.515 0.174238 36.567 0.218464 36.6008 0.270495C36.6373 0.325128 36.6555 0.390167 36.6555 0.46301C36.6555 0.535854 36.6373 0.616502 36.5982 0.704955L31.6702 11.6653C31.6156 11.785 31.561 11.8604 31.5037 11.9072L31.4959 11.9098ZM37.306 11.5352L38.227 9.56324H44.6849L45.606 11.5352C45.645 11.6159 45.6997 11.6783 45.7647 11.7199C45.8272 11.7589 45.9026 11.7798 45.9937 11.7798H46.8367C46.8991 11.7798 46.9486 11.7694 46.9876 11.7511C47.0162 11.7381 47.0396 11.7173 47.0552 11.6939C47.0683 11.6705 47.0761 11.6419 47.0761 11.6055C47.0761 11.5586 47.0631 11.504 47.0344 11.4442L41.6771 0.483823C41.6381 0.403175 41.6017 0.356347 41.5678 0.32773C41.5418 0.306917 41.508 0.299112 41.4638 0.299112C41.4221 0.299112 41.3883 0.306917 41.3597 0.32773C41.3259 0.353745 41.2894 0.403175 41.2504 0.483823L35.8957 11.4442C35.8671 11.504 35.8541 11.5586 35.8541 11.6055C35.8541 11.6393 35.8619 11.6705 35.8749 11.6939C35.8879 11.7173 35.9113 11.7355 35.9426 11.7511C35.9816 11.7694 36.031 11.7798 36.0935 11.7798H36.9209C37.0119 11.7798 37.0874 11.7589 37.1498 11.7199C37.2149 11.6783 37.2695 11.6159 37.3086 11.5352H37.306ZM38.3545 9.76356L37.4881 11.6211C37.4308 11.7355 37.3528 11.824 37.2565 11.8864C37.1602 11.9463 37.0484 11.9801 36.9209 11.9801H36.0935C36.0024 11.9801 35.9217 11.9619 35.8593 11.9333C35.7943 11.902 35.7422 11.8552 35.7084 11.8006C35.6746 11.7433 35.6563 11.6783 35.6563 11.6081C35.6563 11.5326 35.6772 11.4468 35.7188 11.3583L41.0761 0.39537C41.1333 0.283503 41.1854 0.213261 41.2452 0.166433C41.3129 0.114402 41.3857 0.098793 41.469 0.098793C41.5522 0.098793 41.6251 0.117004 41.6927 0.166433C41.7526 0.21066 41.8072 0.283503 41.8619 0.392768L47.2192 11.3557C47.2608 11.4442 47.2816 11.53 47.2816 11.6055C47.2816 11.6783 47.2634 11.7433 47.2296 11.798C47.1957 11.8552 47.1437 11.8994 47.0761 11.9307C47.011 11.9619 46.933 11.9775 46.8419 11.9775H45.9989C45.8688 11.9775 45.7569 11.9437 45.6632 11.8838C45.567 11.8214 45.4889 11.7303 45.4317 11.6185L44.5652 9.76096H38.3623L38.3545 9.76356ZM41.5705 2.95009L44.1567 8.50181H38.7708L41.482 2.75498L41.5731 2.95009H41.5705ZM43.8393 8.30149L41.4794 3.23106L39.0882 8.30149H43.8393ZM54.8037 0.301714H47.0162C46.9173 0.301714 46.8393 0.32773 46.7925 0.377159C46.743 0.426589 46.7196 0.502034 46.7196 0.600892V1.04836C46.7196 1.14722 46.7456 1.22527 46.7925 1.27209C46.8419 1.32152 46.9173 1.34494 47.0162 1.34494H50.2764V11.4806C50.2764 11.5794 50.3024 11.6575 50.3492 11.7043C50.3987 11.7537 50.4741 11.7772 50.573 11.7772H51.2599C51.3588 11.7772 51.4368 11.7511 51.4837 11.7017C51.5331 11.6523 51.5565 11.5768 51.5565 11.478V1.34233H54.8011C54.9 1.34233 54.978 1.31632 55.0248 1.26689C55.0743 1.21746 55.0977 1.14202 55.0977 1.04316V0.595689C55.0977 0.49683 55.0717 0.418784 55.0248 0.371956C54.9754 0.322526 54.9 0.296511 54.8011 0.296511L54.8037 0.301714ZM47.0162 0.098793H54.8037C54.9598 0.098793 55.0821 0.145621 55.1705 0.231472C55.2564 0.317323 55.3032 0.442198 55.3032 0.598291V1.04576C55.3032 1.20185 55.2564 1.32412 55.1705 1.41258C55.0847 1.49843 54.9598 1.54526 54.8037 1.54526H51.7621V11.4806C51.7621 11.6367 51.7152 11.7589 51.6294 11.8474C51.5435 11.9333 51.4186 11.9801 51.2625 11.9801H50.5756C50.4195 11.9801 50.2946 11.9333 50.2087 11.8474C50.1229 11.7616 50.076 11.6367 50.076 11.4806V1.54526H47.0188C46.8627 1.54526 46.7378 1.49843 46.652 1.41258C46.5661 1.32673 46.5193 1.20185 46.5193 1.04576V0.598291C46.5193 0.442198 46.5661 0.319925 46.652 0.231472C46.7378 0.145621 46.8627 0.098793 47.0188 0.098793H47.0162ZM64.5998 0.301714H56.9398C56.88 0.301714 56.8332 0.319925 56.8019 0.348542C56.7707 0.379761 56.7525 0.426589 56.7525 0.486424V11.5925C56.7525 11.6523 56.7707 11.6991 56.7993 11.7303C56.8306 11.7616 56.8774 11.7798 56.9372 11.7798H64.5972C64.6571 11.7798 64.7039 11.7616 64.7351 11.7329C64.7663 11.7017 64.7845 11.6549 64.7845 11.5951V10.8926C64.7845 10.8328 64.7663 10.786 64.7377 10.7548C64.7065 10.7235 64.6597 10.7053 64.5998 10.7053H58.0508V6.6417H63.8166C63.8765 6.6417 63.9233 6.62349 63.9545 6.59487C63.9858 6.56365 64.004 6.51682 64.004 6.45699V5.75457C64.004 5.69473 63.9858 5.6479 63.9571 5.61668C63.9259 5.58547 63.8791 5.56986 63.8192 5.56986H58.0534V1.34754H64.6024C64.6623 1.34754 64.7091 1.32933 64.7403 1.30071C64.7715 1.26949 64.7897 1.22266 64.7897 1.16283V0.491627C64.7897 0.431792 64.7715 0.384964 64.7429 0.353745C64.7117 0.322526 64.6649 0.304316 64.605 0.304316L64.5998 0.301714ZM56.9398 0.098793H64.5998C64.7143 0.098793 64.8106 0.137816 64.8808 0.205457C64.9485 0.273097 64.9875 0.371956 64.9875 0.486424V1.15762C64.9875 1.27209 64.9485 1.36835 64.8808 1.43859C64.8132 1.50623 64.7143 1.54526 64.5998 1.54526H58.2538V5.36433H63.8166C63.9311 5.36433 64.0274 5.40336 64.0976 5.471C64.1653 5.54124 64.2043 5.6375 64.2043 5.75197V6.45438C64.2043 6.56885 64.1653 6.66511 64.0976 6.73535C64.03 6.80299 63.9311 6.84202 63.8166 6.84202H58.2538V10.4998H64.5998C64.7143 10.4998 64.8106 10.5388 64.8808 10.6065C64.9485 10.6741 64.9875 10.773 64.9875 10.8874V11.5898C64.9875 11.7043 64.9485 11.8006 64.8808 11.8708C64.8132 11.9385 64.7143 11.9775 64.5998 11.9775H56.9398C56.8254 11.9775 56.7291 11.9385 56.6588 11.8708C56.5912 11.8032 56.5522 11.7043 56.5522 11.5898V0.483823C56.5522 0.369354 56.5912 0.273097 56.6588 0.202855C56.7265 0.135215 56.8254 0.0961914 56.9398 0.0961914V0.098793Z" fill="black"/>
<path d="M68.5027 11.8867H72.5408C75.9701 11.9023 78.2546 9.97191 78.2546 6.04617C78.2546 2.08921 75.9571 0.205683 72.5408 0.205683H68.5027C68.2945 0.205683 68.1826 0.31755 68.1826 0.525674V11.5667C68.1826 11.7748 68.2945 11.8867 68.5027 11.8867ZM69.1583 11.0255V1.0694H72.3326C74.1201 1.0694 77.2632 1.7406 77.2632 6.06438C77.2632 10.3725 74.1358 11.0255 72.3326 11.0255H69.1583ZM80.7914 11.8867H88.1469C88.3551 11.8867 88.467 11.7748 88.467 11.5667V11.3429C88.467 11.1348 88.3551 11.0229 88.1469 11.0229H81.4445V6.58729H87.3169C87.5251 6.58729 87.637 6.47542 87.637 6.2673V6.04357C87.637 5.83544 87.5251 5.72358 87.3169 5.72358H81.4445V1.0642H88.1469C88.3551 1.0642 88.467 0.952328 88.467 0.744204V0.520471C88.467 0.312346 88.3551 0.20048 88.1469 0.20048H80.7914C80.5832 0.20048 80.4714 0.312346 80.4714 0.520471V11.5615C80.4714 11.7696 80.5832 11.8814 80.7914 11.8814V11.8867ZM90.9388 11.8867H91.2744C91.4826 11.8867 91.5945 11.7748 91.5945 11.5667V2.4092L100.051 11.7123C100.162 11.8242 100.228 11.8867 100.355 11.8867C100.498 11.8867 100.532 11.7904 100.532 11.7123V0.528275C100.532 0.320151 100.42 0.208284 100.212 0.208284H99.8763C99.6681 0.208284 99.5563 0.320151 99.5563 0.528275V9.65452L91.0819 0.38519C90.97 0.273323 90.9076 0.208284 90.7775 0.208284C90.6812 0.208284 90.6187 0.255112 90.6187 0.38519V11.5693C90.6187 11.7774 90.7306 11.8893 90.9388 11.8893V11.8867ZM106.641 11.8867H106.977C107.185 11.8867 107.297 11.7748 107.297 11.5667V1.0668H110.679C110.888 1.0668 110.999 0.95493 110.999 0.746806V0.523072C110.999 0.314948 110.888 0.203081 110.679 0.203081H102.988C102.78 0.203081 102.668 0.314948 102.668 0.523072V0.746806C102.668 0.95493 102.78 1.0668 102.988 1.0668H106.324V11.5667C106.324 11.7748 106.436 11.8867 106.644 11.8867H106.641ZM113.247 11.8867H113.583C113.791 11.8867 113.903 11.7748 113.903 11.5667V0.525674C113.903 0.31755 113.791 0.205683 113.583 0.205683H113.247C113.039 0.205683 112.927 0.31755 112.927 0.525674V11.5667C112.927 11.7748 113.039 11.8867 113.247 11.8867ZM120.923 12.1416C123.379 12.1416 125.073 11.0568 125.073 8.87145C125.073 6.41559 122.791 5.88747 121.436 5.63252C119.841 5.32814 117.254 5.0888 117.254 3.28592C117.254 1.56369 119.169 0.861274 120.301 0.861274C121.417 0.861274 122.375 1.14744 123.397 1.72239C123.574 1.81865 123.717 1.78483 123.829 1.61052L123.972 1.38679C124.084 1.20988 124.053 1.05119 123.876 0.95493C122.95 0.395596 121.834 -0.00244141 120.413 -0.00244141C118.594 -0.00244141 116.297 0.827454 116.297 3.33275C116.297 5.83804 119.25 6.15543 120.556 6.41299C122.406 6.77981 124.116 7.16223 124.116 8.85324C124.116 10.3205 122.965 11.2779 120.876 11.2779C119.505 11.2779 118.243 10.8304 117.205 10.1618C117.031 10.05 116.869 10.0812 116.757 10.2581L116.599 10.4974C116.487 10.6717 116.518 10.833 116.695 10.9449C117.764 11.6473 119.057 12.1416 120.923 12.1416ZM129.475 11.8867H129.811C130.019 11.8867 130.131 11.7748 130.131 11.5667V1.0668H133.514C133.722 1.0668 133.834 0.95493 133.834 0.746806V0.523072C133.834 0.314948 133.722 0.203081 133.514 0.203081H125.822C125.614 0.203081 125.502 0.314948 125.502 0.523072V0.746806C125.502 0.95493 125.614 1.0668 125.822 1.0668H129.158V11.5667C129.158 11.7748 129.27 11.8867 129.478 11.8867H129.475ZM136.24 11.8867H136.576C136.784 11.8867 136.896 11.7748 136.896 11.5667V7.73718H140.406L143.213 11.6941C143.31 11.8216 143.437 11.8867 143.596 11.8867H144.075C144.33 11.8867 144.426 11.7123 144.267 11.5042L141.538 7.70596C143.612 7.38597 144.73 5.9343 144.73 3.98834C144.73 1.77182 143.198 0.205683 141.028 0.205683H136.24C136.032 0.205683 135.92 0.31755 135.92 0.525674V11.5667C135.92 11.7748 136.032 11.8867 136.24 11.8867ZM136.896 6.84484V1.0694H140.885C143.232 1.0694 143.757 2.96853 143.757 3.98834C143.757 6.01495 142.24 6.84484 140.885 6.84484H136.896ZM150.155 11.8867H150.491C150.699 11.8867 150.811 11.7748 150.811 11.5667V7.46662L154.943 0.590712C155.07 0.382588 154.974 0.208284 154.719 0.208284H154.287C154.11 0.208284 153.983 0.288932 153.905 0.432018L150.33 6.39998L146.82 0.432018C146.739 0.288932 146.611 0.208284 146.437 0.208284H146.023C145.768 0.208284 145.672 0.38519 145.8 0.590712L149.838 7.46662V11.5667C149.838 11.7748 149.95 11.8867 150.158 11.8867H150.155Z" fill="black"/>
<path d="M14.0449 27.4544L14.5184 26.4789H18.0622L18.5436 27.4544C18.6164 27.5871 18.7179 27.66 18.8714 27.66H19.8367C20.0527 27.66 20.1333 27.5169 20.0423 27.3322L16.4907 20.295C16.4178 20.1519 16.358 20.1311 16.2955 20.1311C16.2331 20.1311 16.1732 20.1519 16.1004 20.295L12.5488 27.3322C12.4551 27.5169 12.5384 27.66 12.7543 27.66H13.7196C13.8732 27.66 13.9876 27.5871 14.0475 27.4544H14.0449ZM16.2929 22.8731L17.3623 25.2249H15.2157L16.2955 22.8731H16.2929ZM33.4316 20.3678L32.0136 24.2805L30.2157 20.2846C30.1532 20.1415 30.0934 20.1415 30.0621 20.1415C30.0309 20.1415 29.9581 20.1415 29.8982 20.2846L28.1003 24.2701L26.7135 20.3678C26.6615 20.2247 26.5496 20.1415 26.3961 20.1415H25.4412C25.2356 20.1415 25.142 20.2742 25.2148 20.4589L27.7933 27.4961C27.8453 27.6496 27.887 27.6704 27.9468 27.6704C28.0092 27.6704 28.0405 27.6496 28.1003 27.5065L30.0621 23.1411L32.0032 27.4961C32.0656 27.6391 32.1046 27.66 32.1671 27.66C32.2295 27.66 32.2607 27.6496 32.3206 27.4961L34.9199 20.4589C34.9927 20.2742 34.9095 20.1415 34.7039 20.1415H33.749C33.5955 20.1415 33.481 20.2247 33.4316 20.3678ZM41.5521 27.4544L42.0256 26.4789H45.5694L46.0508 27.4544C46.1236 27.5871 46.2251 27.66 46.3786 27.66H47.3439C47.5599 27.66 47.6405 27.5169 47.5495 27.3322L43.9979 20.295C43.925 20.1519 43.8652 20.1311 43.8027 20.1311C43.7403 20.1311 43.6805 20.1519 43.6076 20.295L40.056 27.3322C39.9623 27.5169 40.0456 27.66 40.2616 27.66H41.2269C41.3804 27.66 41.4949 27.5871 41.5547 27.4544H41.5521ZM43.8001 22.8731L44.8695 25.2249H42.723L43.8027 22.8731H43.8001ZM55.6622 25.2665H57.0906L58.7142 27.4857C58.7975 27.5975 58.9093 27.66 59.0524 27.66H60.1322C60.3586 27.66 60.4392 27.5065 60.3065 27.3218L58.6726 25.1339C59.617 24.8763 60.2337 23.8591 60.2337 22.73C60.2337 21.2107 59.1747 20.1415 57.6448 20.1415H54.5121C54.3378 20.1415 54.2337 20.2429 54.2337 20.4198V27.3842C54.2337 27.5585 54.3352 27.6626 54.5121 27.6626H55.3864C55.5607 27.6626 55.6648 27.5585 55.6648 27.3842V25.2691L55.6622 25.2665ZM55.6622 24.0126V21.4136H57.3066C58.3655 21.4136 58.8079 21.9886 58.8079 22.717C58.8079 23.3544 58.519 24.01 57.3066 24.01H55.6622V24.0126ZM67.6413 27.66H70.3316C72.7878 27.66 74.1018 26.1901 74.1018 23.9007C74.1018 21.6009 72.7462 20.1415 70.3316 20.1415H67.6413C67.467 20.1415 67.3629 20.2429 67.3629 20.4198V27.3842C67.3629 27.5585 67.4644 27.6626 67.6413 27.6626V27.66ZM68.8017 26.367V21.437H70.3316C71.3802 21.437 72.6525 21.8169 72.6525 23.9137C72.6525 25.9976 71.388 26.3696 70.3316 26.3696H68.8017V26.367ZM81.4079 25.8831L81.1009 26.3462C80.9994 26.5101 80.989 26.7468 81.1945 26.8899C81.8424 27.3426 82.6854 27.803 84.1009 27.803C85.7973 27.803 86.9577 27.0538 86.9577 25.5033C86.9577 23.5313 85.0375 23.3466 84.1321 23.1619C83.3411 22.998 82.3862 22.8133 82.3862 22.1239C82.3862 21.5385 83.0835 21.3642 83.6507 21.3642C84.3689 21.3642 85.0271 21.6114 85.5215 21.8975C85.6958 22.0016 85.9118 21.96 86.0159 21.8143L86.4165 21.2705C86.5206 21.1379 86.4998 20.9115 86.3229 20.7867C85.6958 20.3444 84.9465 20.027 83.8068 20.027C82.5319 20.027 80.95 20.5603 80.95 22.2669C80.95 24.0854 82.9118 24.3716 83.8173 24.5381C84.7305 24.702 85.5215 24.8763 85.5215 25.5865C85.5215 26.0496 85.1624 26.4789 84.0826 26.4789C83.3229 26.4789 82.4487 26.0782 81.9257 25.7816C81.7097 25.6594 81.5146 25.7296 81.4131 25.8857L81.4079 25.8831ZM101.648 26.3852H98.596C99.1606 25.9325 99.8709 25.3472 100.24 25.0402C101.247 24.1869 101.833 23.5105 101.833 22.3606C101.833 21.2419 101.011 20.0192 99.2231 20.0192C97.7634 20.0192 96.9724 21.078 96.707 21.7961C96.6238 22.012 96.6966 22.1551 96.923 22.2175L97.6125 22.3918C97.818 22.4438 98.0028 22.3606 98.0756 22.1759C98.1875 21.8793 98.518 21.3018 99.3193 21.3018C99.8735 21.3018 100.399 21.6296 100.399 22.3606C100.399 22.8341 100.316 23.2529 99.4026 23.9944L96.8866 26.099C96.7825 26.1927 96.7331 26.2941 96.7331 26.4372V27.3816C96.7331 27.5559 96.8345 27.66 97.0115 27.66H101.656C101.83 27.66 101.934 27.5559 101.934 27.3816V26.6636C101.934 26.4893 101.83 26.3852 101.656 26.3852H101.648ZM112.139 27.8135C114.223 27.8239 115.498 25.9039 115.498 23.9111C115.498 21.6608 114.08 20.0166 112.139 20.0166C110.156 20.0166 108.78 21.6192 108.78 23.9111C108.78 25.9351 110.013 27.8135 112.139 27.8135ZM112.139 21.3616C113.494 21.3616 114.03 22.6572 114.03 23.9085C114.03 25.5735 113.055 26.4658 112.139 26.4658C110.825 26.4658 110.239 25.1104 110.239 23.9085C110.239 22.1317 111.267 21.3616 112.139 21.3616ZM127.386 26.3852H124.334C124.899 25.9325 125.609 25.3472 125.978 25.0402C126.985 24.1869 127.571 23.5105 127.571 22.3606C127.571 21.2419 126.748 20.0192 124.961 20.0192C123.501 20.0192 122.71 21.078 122.445 21.7961C122.362 22.012 122.435 22.1551 122.661 22.2175L123.35 22.3918C123.556 22.4438 123.741 22.3606 123.814 22.1759C123.925 21.8793 124.256 21.3018 125.057 21.3018C125.611 21.3018 126.137 21.6296 126.137 22.3606C126.137 22.8341 126.054 23.2529 125.141 23.9944L122.624 26.099C122.52 26.1927 122.471 26.2941 122.471 26.4372V27.3816C122.471 27.5559 122.572 27.66 122.749 27.66H127.394C127.568 27.66 127.672 27.5559 127.672 27.3816V26.6636C127.672 26.4893 127.568 26.3852 127.394 26.3852H127.386ZM139.716 26.3852H136.664C137.229 25.9325 137.939 25.3472 138.309 25.0402C139.316 24.1869 139.901 23.5105 139.901 22.3606C139.901 21.2419 139.079 20.0192 137.291 20.0192C135.832 20.0192 135.041 21.078 134.775 21.7961C134.692 22.012 134.765 22.1551 134.991 22.2175L135.681 22.3918C135.886 22.4438 136.071 22.3606 136.144 22.1759C136.256 21.8793 136.586 21.3018 137.388 21.3018C137.942 21.3018 138.467 21.6296 138.467 22.3606C138.467 22.8341 138.384 23.2529 137.471 23.9944L134.955 26.099C134.851 26.1927 134.801 26.2941 134.801 26.4372V27.3816C134.801 27.5559 134.903 27.66 135.08 27.66H139.724C139.898 27.66 140.003 27.5559 140.003 27.3816V26.6636C140.003 26.4893 139.898 26.3852 139.724 26.3852H139.716Z" fill="black"/>
<path d="M29.2324 33.2065H122.843V33.909H29.2324V33.2065Z" fill="black"/>
<path d="M44.2166 69.5006V66.6675L42.1897 63.6653C42.1116 63.53 42.1064 63.3973 42.1741 63.2647C42.2105 63.197 42.2599 63.1424 42.325 63.106C42.3874 63.0695 42.4577 63.0513 42.5331 63.0513H43.1836C43.2513 63.0513 43.3163 63.0695 43.3735 63.1034L43.3761 63.106C43.4256 63.1346 43.4698 63.1762 43.5114 63.2308L44.9165 65.2835L46.3215 63.2282C46.3605 63.1736 46.4073 63.1346 46.4568 63.1034C46.5166 63.0695 46.5817 63.0513 46.6493 63.0513H47.3076C47.4741 63.0513 47.5938 63.1242 47.6641 63.2673C47.6979 63.3323 47.7109 63.3999 47.7083 63.4702C47.7057 63.5378 47.6849 63.6055 47.6485 63.6653L45.5956 66.6597V69.5006C45.5956 69.5526 45.5851 69.6072 45.5617 69.6567C45.5409 69.7009 45.5123 69.7425 45.4759 69.7789C45.4368 69.818 45.3952 69.8492 45.3536 69.87C45.3015 69.8934 45.2495 69.9064 45.1949 69.9064H44.6146C44.5626 69.9064 44.5106 69.896 44.4611 69.8752L44.4585 69.8726C44.4117 69.8518 44.3675 69.8206 44.331 69.7841C44.2946 69.7451 44.2634 69.7009 44.2452 69.6489C44.227 69.5994 44.2166 69.55 44.2166 69.498V69.5006ZM48.4889 68.9725C48.161 68.6317 47.9138 68.2544 47.7499 67.8382C47.586 67.4245 47.5027 66.9719 47.5027 66.488C47.5027 66.0041 47.586 65.5514 47.7499 65.1352C47.9138 64.7189 48.161 64.3365 48.4889 63.9957C48.8167 63.6523 49.1836 63.3921 49.5843 63.2204C49.9876 63.0487 50.4247 62.9603 50.8956 62.9603C51.3666 62.9603 51.8063 63.0461 52.207 63.2204C52.6077 63.3921 52.9745 63.6523 53.305 63.9957C53.6354 64.3391 53.8826 64.7189 54.0465 65.1352C54.2104 65.5514 54.2937 66.0015 54.2937 66.488C54.2937 66.9719 54.2104 67.4219 54.0465 67.8382C53.88 68.2544 53.6328 68.6317 53.305 68.9725C52.9745 69.3133 52.6077 69.5708 52.207 69.7399C51.8037 69.9116 51.3666 69.9975 50.8956 69.9975C50.4247 69.9975 49.9876 69.9116 49.5843 69.7399C49.1836 69.5682 48.8167 69.3133 48.4889 68.9725ZM49.4594 64.9687C49.2564 65.182 49.1029 65.4135 49.004 65.6659C48.9026 65.9156 48.8531 66.1914 48.8531 66.488C48.8531 66.7846 48.9026 67.0577 49.004 67.3075C49.1029 67.5572 49.2538 67.7862 49.4568 67.9969C49.6571 68.205 49.8783 68.3611 50.1176 68.4652C50.357 68.5692 50.6172 68.6187 50.8982 68.6187C51.4602 68.6187 51.9416 68.4105 52.3449 67.9969C52.5478 67.7888 52.6987 67.5572 52.8002 67.3075C52.9017 67.0577 52.9511 66.7846 52.9511 66.488C52.9511 66.1914 52.9017 65.9182 52.8002 65.6659C52.6987 65.4135 52.5478 65.182 52.3449 64.9687C52.1419 64.758 51.9208 64.5967 51.6814 64.4926C51.4446 64.3885 51.1818 64.3365 50.9008 64.3365C50.6224 64.3365 50.3622 64.3885 50.1255 64.4926C49.8861 64.5967 49.6649 64.7554 49.462 64.9661L49.4594 64.9687ZM55.0066 67.2919V63.4572C55.0066 63.4025 55.017 63.3505 55.0404 63.3011C55.0612 63.2569 55.0899 63.2126 55.1263 63.1762C55.1653 63.1372 55.2043 63.106 55.2486 63.0878C55.3006 63.0643 55.3527 63.0513 55.4073 63.0513H55.9953C56.1072 63.0513 56.2035 63.093 56.2815 63.1736C56.318 63.2126 56.3466 63.2569 56.3674 63.3037V63.3063C56.3856 63.3557 56.396 63.4051 56.396 63.4572V67.2268C56.396 67.435 56.4246 67.6249 56.4845 67.794C56.5417 67.9605 56.6276 68.1087 56.7395 68.2388C56.958 68.4912 57.2546 68.6187 57.6241 68.6187C57.8167 68.6187 57.9858 68.5874 58.1341 68.5224C58.2824 68.46 58.4099 68.3663 58.5218 68.2414C58.6362 68.1114 58.7221 67.9657 58.7794 67.8044C58.8366 67.6379 58.8678 67.4532 58.8678 67.2476V63.4598C58.8678 63.3479 58.9068 63.2543 58.9823 63.1762C59.0213 63.1372 59.063 63.1086 59.1124 63.0878L59.115 63.0852C59.1644 63.0643 59.2139 63.0539 59.2685 63.0539H59.8565C59.9632 63.0539 60.0595 63.0956 60.1401 63.1814C60.1766 63.2178 60.2052 63.2595 60.2234 63.3037C60.2468 63.3557 60.2572 63.4077 60.2572 63.4598V67.2945C60.2572 67.6717 60.1948 68.0229 60.0699 68.3429C59.945 68.6655 59.7577 68.9569 59.5105 69.217C59.2607 69.4772 58.9771 69.6749 58.6597 69.805C58.3448 69.935 57.9988 70.0027 57.6215 70.0027C56.8696 70.0027 56.2451 69.7399 55.7481 69.217C55.501 68.9569 55.3162 68.6655 55.1913 68.3429C55.0664 68.0229 55.0066 67.6717 55.0066 67.2945V67.2919ZM61.4177 69.5006V63.3557C61.4177 63.2517 61.4567 63.1606 61.5322 63.08C61.5712 63.0409 61.6154 63.0097 61.6675 62.9863C61.7169 62.9655 61.7689 62.9551 61.821 62.9551H62.1488L65.6327 67.1384V63.4546C65.6327 63.4025 65.6431 63.3531 65.6614 63.3037C65.6796 63.2543 65.7108 63.2074 65.7472 63.1684C65.7837 63.1294 65.8279 63.1008 65.8747 63.08L65.8773 63.0774C65.9268 63.0565 65.9762 63.0461 66.0308 63.0461H66.5928C66.6969 63.0461 66.7932 63.0878 66.8738 63.1736C66.9103 63.21 66.9389 63.2543 66.9597 63.2985C66.9831 63.3479 66.9935 63.4025 66.9935 63.4546V69.5994C66.9935 69.6515 66.9831 69.7035 66.9623 69.7529C66.9441 69.7972 66.9155 69.8388 66.879 69.8778C66.8426 69.9168 66.7984 69.9454 66.7516 69.9663C66.7021 69.9897 66.6475 70.0001 66.5954 70.0001H66.2572L62.7759 65.7049V69.5032C62.7759 69.5552 62.7655 69.6072 62.7472 69.6567C62.7264 69.7061 62.6978 69.7503 62.664 69.7868L62.6614 69.7894C62.625 69.8258 62.5807 69.857 62.5339 69.8778L62.5313 69.8804C62.4818 69.9012 62.4324 69.9116 62.3778 69.9116H61.8236C61.7065 69.9116 61.6076 69.8674 61.5296 69.7763C61.4957 69.7373 61.4697 69.6957 61.4515 69.6541C61.4307 69.6046 61.4229 69.5552 61.4229 69.5058L61.4177 69.5006ZM68.7732 68.9751C68.4428 68.6343 68.1956 68.257 68.0317 67.8408C67.8652 67.4245 67.7845 66.9745 67.7845 66.4906C67.7845 65.515 68.1149 64.6851 68.7784 63.9957C69.1089 63.6523 69.4757 63.3921 69.8764 63.2204C70.2797 63.0487 70.7142 62.9603 71.1826 62.9603C71.6041 62.9603 72.0074 63.0357 72.3925 63.1892C72.7723 63.3401 73.134 63.5664 73.4749 63.8682L73.4879 63.8812C73.5711 63.9697 73.6154 64.0633 73.6206 64.1674C73.6258 64.2767 73.5815 64.3781 73.4931 64.464C73.3604 64.5967 73.2303 64.7423 73.108 64.8828C73.0273 64.9739 72.9311 65.0181 72.8192 65.0155C72.7229 65.0129 72.6318 64.9713 72.5486 64.8932C72.3404 64.7033 72.1245 64.5628 71.8981 64.4692C71.6795 64.3781 71.448 64.3313 71.2086 64.3313C70.9328 64.3313 70.6804 64.3833 70.4514 64.4848C70.2199 64.5889 70.0065 64.7475 69.814 64.9557C69.6188 65.169 69.4731 65.4005 69.3769 65.6503C69.2806 65.9026 69.2338 66.1758 69.2338 66.4698C69.2338 66.7637 69.2832 67.0369 69.3769 67.2867C69.4731 67.5364 69.6188 67.7679 69.814 67.9787C70.0065 68.1894 70.2199 68.3455 70.4488 68.447C70.6778 68.5484 70.9302 68.6004 71.206 68.6004L71.3439 68.5978L71.4792 68.5874L71.6067 68.5718C71.7212 68.551 71.833 68.525 71.9475 68.499C72.0672 68.4626 72.1765 68.4235 72.2936 68.3741V67.7341H71.6665C71.6145 67.7341 71.5651 67.7237 71.5156 67.7055C71.4688 67.6873 71.4246 67.6587 71.3855 67.6223C71.3439 67.5832 71.3127 67.539 71.2945 67.4896C71.2736 67.4402 71.2658 67.3881 71.2658 67.3361V66.808C71.2658 66.5374 71.3985 66.3995 71.6665 66.3995H73.2667C73.3187 66.3995 73.3708 66.4099 73.4202 66.4334H73.4228C73.467 66.4542 73.5087 66.4828 73.5451 66.5218C73.5815 66.5582 73.6101 66.6025 73.6284 66.6519C73.6492 66.7013 73.6596 66.7533 73.6596 66.8054L73.6674 69.0141C73.6674 69.0791 73.6544 69.139 73.6258 69.1988C73.5971 69.256 73.5581 69.3055 73.5061 69.3445L73.186 69.5292C73.1132 69.5682 73.0091 69.6124 72.8712 69.6619C72.7437 69.7061 72.5798 69.7581 72.3847 69.818C72.1817 69.8778 71.9814 69.922 71.7836 69.9533C71.5833 69.9845 71.3829 69.9975 71.1852 69.9975C70.7142 69.9975 70.2771 69.9116 69.8738 69.7399C69.4731 69.5682 69.1063 69.3133 68.7758 68.9725L68.7732 68.9751ZM76.5139 69.5006V63.4572C76.5139 63.3453 76.5529 63.2517 76.6283 63.1736C76.6648 63.1346 76.7064 63.106 76.7506 63.0852L76.7532 63.0826C76.8001 63.0617 76.8521 63.0487 76.9067 63.0487H78.9284C79.3864 63.0487 79.8105 63.132 80.2033 63.3011C80.5936 63.4702 80.9527 63.7199 81.2753 64.0555C81.598 64.3885 81.8425 64.758 82.0039 65.1612C82.1652 65.5644 82.2484 66.0015 82.2484 66.4672C82.2484 66.9381 82.1678 67.3751 82.0039 67.781C81.8425 68.1868 81.598 68.5588 81.2753 68.8918C80.9501 69.2274 80.5936 69.4824 80.2007 69.6489C79.8079 69.818 79.3837 69.9038 78.9258 69.9038H76.9041C76.8495 69.9038 76.7975 69.8934 76.748 69.87C76.7038 69.8492 76.6622 69.818 76.6257 69.7816C76.5503 69.7035 76.5113 69.6072 76.5113 69.498L76.5139 69.5006ZM77.8773 68.5744H78.8035C79.0949 68.5744 79.3603 68.525 79.5971 68.4261C79.8339 68.3299 80.0472 68.1816 80.2346 67.9839C80.4245 67.7862 80.565 67.5624 80.6587 67.3127C80.7523 67.0603 80.8018 66.7794 80.8018 66.4698C80.8018 66.1628 80.7549 65.8844 80.6587 65.6347C80.565 65.3875 80.4219 65.1638 80.2346 64.9687C80.0472 64.7736 79.8339 64.6253 79.5971 64.529C79.3603 64.4328 79.0949 64.3833 78.8009 64.3833H77.8746V68.5718L77.8773 68.5744ZM83.0472 69.5006V63.4572C83.0472 63.3453 83.0862 63.2517 83.1617 63.1736C83.2007 63.1346 83.2424 63.106 83.2918 63.0852L83.2944 63.0826C83.3438 63.0617 83.3933 63.0513 83.4479 63.0513H86.9657C87.0775 63.0513 87.1738 63.093 87.2519 63.1736C87.2883 63.2126 87.3169 63.2569 87.3377 63.3037V63.3063C87.356 63.3557 87.3664 63.4051 87.3664 63.4572V63.9697C87.3664 64.0217 87.356 64.0737 87.3377 64.1206C87.3169 64.1726 87.2883 64.2168 87.2519 64.2559C87.2128 64.2949 87.1712 64.3261 87.1218 64.3469C87.0723 64.3677 87.0177 64.3781 86.9657 64.3781H84.421V65.7726H86.5364C86.591 65.7726 86.6456 65.7856 86.6977 65.809C86.7419 65.8298 86.7809 65.8584 86.8174 65.8974C86.8538 65.9365 86.885 65.9781 86.9032 66.0223C86.924 66.0717 86.937 66.1238 86.937 66.1784V66.6909C86.937 66.7429 86.9266 66.795 86.9084 66.8418C86.8876 66.8912 86.859 66.9355 86.8226 66.9745C86.7835 67.0135 86.7393 67.0447 86.6925 67.0655C86.643 67.0889 86.5884 67.0994 86.5364 67.0994H84.421V68.5952H86.9657C87.0775 68.5952 87.1738 68.6369 87.2519 68.7175C87.2883 68.7565 87.3169 68.8008 87.3377 68.8502C87.356 68.8996 87.3664 68.9517 87.3664 69.0037V69.5058C87.3664 69.5578 87.356 69.6098 87.3377 69.6567C87.3169 69.7087 87.2883 69.7529 87.2519 69.792C87.2154 69.831 87.1712 69.8622 87.1218 69.883C87.0723 69.9038 87.0203 69.9142 86.9657 69.9142H83.4479C83.3933 69.9142 83.3438 69.9038 83.2944 69.883L83.2918 69.8804C83.245 69.8596 83.2007 69.8284 83.1643 69.792C83.0888 69.7139 83.0498 69.6177 83.0498 69.5058L83.0472 69.5006ZM88.2276 69.5006V63.3557C88.2276 63.3037 88.238 63.2517 88.2588 63.2022C88.2796 63.158 88.3056 63.1164 88.3395 63.0826C88.3759 63.0435 88.4201 63.0123 88.4696 62.9915L88.4722 62.9889C88.5216 62.9681 88.571 62.9577 88.6257 62.9577H88.9535L92.4374 67.141V63.4572C92.4374 63.4051 92.4479 63.3557 92.4661 63.3063C92.4843 63.2569 92.5129 63.2126 92.5519 63.171C92.591 63.132 92.6326 63.1008 92.682 63.08H92.6846C92.7341 63.0591 92.7835 63.0487 92.8381 63.0487H93.4002C93.5068 63.0487 93.6005 63.0904 93.6811 63.1762C93.7176 63.2152 93.7462 63.2569 93.767 63.2985C93.7878 63.3479 93.8008 63.3999 93.8008 63.4546V69.5994C93.8008 69.6489 93.7904 69.7009 93.7696 69.7503C93.7514 69.7946 93.7228 69.8388 93.6864 69.8778C93.6499 69.9168 93.6057 69.9454 93.5563 69.9663C93.5068 69.9871 93.4548 69.9975 93.4002 69.9975H93.0619L89.5806 65.6997V69.498C89.5806 69.55 89.5702 69.602 89.5519 69.6489C89.5311 69.7009 89.5025 69.7451 89.4661 69.7841C89.4297 69.8232 89.3854 69.8518 89.3386 69.8726L89.336 69.8752C89.2866 69.896 89.2345 69.9064 89.1825 69.9064H88.6283C88.5112 69.9064 88.4149 69.8622 88.3369 69.7737C88.303 69.7347 88.277 69.6931 88.2588 69.6515V69.6489C88.2406 69.5994 88.2302 69.55 88.2302 69.5006H88.2276ZM95.8876 69.5006V64.3755H94.6881C94.6334 64.3755 94.5814 64.3651 94.532 64.3443C94.4851 64.3235 94.4409 64.2949 94.4045 64.2559C94.3654 64.2168 94.3368 64.1726 94.3186 64.1232C94.2978 64.0737 94.29 64.0217 94.29 63.9697V63.4572C94.29 63.4051 94.3004 63.3557 94.3186 63.3063V63.3037C94.3368 63.2543 94.3654 63.21 94.4045 63.171C94.4435 63.132 94.4851 63.1034 94.532 63.0826C94.5814 63.0617 94.6334 63.0513 94.6881 63.0513H98.4686C98.5805 63.0513 98.6768 63.093 98.7548 63.1736C98.7939 63.2126 98.8225 63.2595 98.8407 63.3089C98.8589 63.3583 98.8693 63.4077 98.8693 63.4598V63.9723C98.8693 64.0243 98.8589 64.0763 98.8407 64.1258C98.8199 64.1752 98.7913 64.2194 98.7574 64.2559C98.7184 64.2949 98.6742 64.3261 98.6273 64.3469C98.5779 64.3703 98.5233 64.3807 98.4712 64.3807H97.2718V69.5058C97.2718 69.5552 97.2614 69.6046 97.2405 69.6541C97.2249 69.6957 97.1989 69.7373 97.1651 69.7763C97.1261 69.8206 97.0818 69.8544 97.0324 69.8752C96.9804 69.8986 96.9257 69.9116 96.8685 69.9116H96.2883C96.1712 69.9116 96.0749 69.8674 95.9968 69.7789C95.963 69.7399 95.937 69.6983 95.9188 69.6567V69.6541C95.9006 69.6046 95.8902 69.5552 95.8902 69.5058L95.8876 69.5006ZM99.3507 69.5006V63.4572C99.3507 63.3557 99.3871 63.2647 99.4574 63.184C99.4938 63.1424 99.538 63.1086 99.5875 63.0878C99.6395 63.0643 99.6941 63.0513 99.7514 63.0513H100.332C100.449 63.0513 100.548 63.0956 100.626 63.1866C100.659 63.223 100.685 63.2647 100.701 63.3063C100.722 63.3557 100.732 63.4051 100.732 63.4572V69.5006C100.732 69.5994 100.696 69.6905 100.626 69.7711C100.548 69.8622 100.449 69.9064 100.332 69.9064H99.7514C99.6343 69.9064 99.538 69.8622 99.4574 69.7711C99.4235 69.7321 99.3949 69.6905 99.3793 69.6489C99.3585 69.5994 99.3507 69.55 99.3507 69.5006ZM101.705 69.217C101.62 69.139 101.567 69.0505 101.549 68.9491C101.531 68.8476 101.549 68.7461 101.604 68.6421C101.679 68.4938 101.799 68.3065 101.898 68.1764C101.968 68.0931 102.051 68.0437 102.143 68.0255C102.247 68.0047 102.343 68.0255 102.437 68.0879L102.489 68.1296C102.715 68.3247 102.933 68.4704 103.147 68.5666C103.35 68.6577 103.548 68.7019 103.743 68.7019C103.982 68.7019 104.172 68.6395 104.307 68.5172C104.437 68.4001 104.502 68.257 104.502 68.0879C104.502 67.9917 104.484 67.9006 104.445 67.82C104.406 67.7341 104.344 67.6535 104.258 67.5754C104.063 67.3985 103.748 67.2164 103.316 67.0343C103.045 66.9146 102.806 66.7898 102.598 66.6545C102.384 66.5166 102.202 66.3683 102.051 66.2096C101.89 66.0405 101.77 65.8428 101.69 65.6191C101.612 65.4005 101.573 65.156 101.573 64.8854C101.573 64.6695 101.614 64.451 101.698 64.235C101.739 64.1284 101.791 64.0243 101.851 63.9229C101.914 63.8214 101.981 63.7225 102.059 63.6263C102.148 63.5222 102.249 63.4286 102.364 63.3479C102.478 63.2699 102.608 63.1996 102.751 63.1398C102.894 63.08 103.051 63.0357 103.214 63.0071C103.378 62.9785 103.55 62.9629 103.727 62.9629C104.047 62.9629 104.357 63.0123 104.651 63.1086C104.942 63.2048 105.218 63.3479 105.483 63.5404C105.598 63.6159 105.663 63.7147 105.684 63.8318C105.702 63.9437 105.676 64.0555 105.603 64.17L105.384 64.516C105.223 64.7866 105.015 64.8412 104.76 64.6825C104.51 64.5368 104.294 64.4276 104.112 64.3573C103.943 64.2923 103.803 64.2585 103.691 64.2585C103.55 64.2585 103.428 64.2767 103.329 64.3105C103.241 64.3417 103.168 64.3859 103.113 64.4432C103.051 64.5082 103.004 64.5758 102.975 64.6435C102.946 64.7059 102.933 64.7762 102.933 64.8464C102.933 64.9401 102.949 65.0259 102.983 65.1014C103.017 65.1794 103.066 65.2522 103.134 65.3173C103.293 65.4734 103.553 65.6269 103.907 65.7804C104.219 65.913 104.5 66.0509 104.742 66.194C104.989 66.3423 105.2 66.4958 105.377 66.6597C105.567 66.834 105.707 67.0395 105.801 67.271C105.894 67.5 105.939 67.7575 105.939 68.0385C105.939 68.3117 105.884 68.5666 105.777 68.8008C105.671 69.0349 105.512 69.2456 105.304 69.4355C105.096 69.6229 104.861 69.7633 104.596 69.857C104.336 69.9506 104.052 69.9975 103.745 69.9975C103.397 69.9975 103.058 69.9376 102.731 69.818C102.574 69.7607 102.439 69.7061 102.325 69.6515C102.202 69.5942 102.103 69.5396 102.031 69.485L101.848 69.3445L101.698 69.2118L101.705 69.217ZM107.539 69.5006V64.3755H106.339C106.285 64.3755 106.233 64.3651 106.183 64.3443C106.134 64.3235 106.09 64.2923 106.053 64.2533C105.978 64.1752 105.939 64.0789 105.939 63.9671V63.4546C105.939 63.3427 105.978 63.2491 106.053 63.171C106.092 63.132 106.134 63.1034 106.183 63.0826L106.186 63.08C106.235 63.0591 106.285 63.0487 106.339 63.0487H110.12C110.232 63.0487 110.328 63.0904 110.406 63.171C110.443 63.21 110.471 63.2543 110.492 63.3011V63.3037C110.51 63.3531 110.521 63.4025 110.521 63.4546V63.9671C110.521 64.0191 110.51 64.0711 110.492 64.118C110.471 64.17 110.443 64.2142 110.406 64.2533C110.367 64.2923 110.325 64.3235 110.276 64.3443C110.227 64.3651 110.172 64.3755 110.12 64.3755H108.92V69.5006C108.92 69.55 108.91 69.5994 108.892 69.6489V69.6515C108.874 69.6931 108.848 69.7347 108.814 69.7737C108.775 69.818 108.731 69.8518 108.681 69.8726C108.629 69.896 108.577 69.9064 108.52 69.9064H107.94C107.822 69.9064 107.726 69.8622 107.646 69.7711C107.612 69.7321 107.583 69.6905 107.567 69.6489C107.547 69.5994 107.539 69.55 107.539 69.5006Z" fill="black"/>
<path d="M47.6483 45.9593V38.1859C47.6483 38.1312 47.6691 38.0792 47.7107 38.0324C47.7523 37.9855 47.8018 37.9621 47.8642 37.9621H48.611C48.6708 37.9621 48.7229 37.9829 48.7645 38.0272C48.8061 38.0714 48.8269 38.1234 48.8269 38.1859V41.4612H52.9665V38.1859C52.9665 38.1234 52.9874 38.0714 53.029 38.0272C53.0706 37.9855 53.1227 37.9621 53.1825 37.9621H53.9292C53.9891 37.9621 54.0411 37.9855 54.0828 38.0324C54.1244 38.0792 54.1452 38.1312 54.1452 38.1859V45.9593C54.1452 46.0139 54.1244 46.066 54.0828 46.1128C54.0411 46.1596 53.9891 46.183 53.9292 46.183H53.1825C53.1227 46.183 53.0706 46.1622 53.029 46.118C52.9874 46.0764 52.9665 46.0217 52.9665 45.9593V42.5669H48.8269V45.9593C48.8269 46.0217 48.8061 46.0738 48.7645 46.118C48.7229 46.1622 48.6708 46.183 48.611 46.183H47.8642C47.8044 46.183 47.7523 46.1596 47.7107 46.1128C47.6691 46.066 47.6483 46.0139 47.6483 45.9593ZM25.5556 54.0371C24.7594 53.2202 24.3613 52.2238 24.3613 51.0479C24.3613 49.8746 24.7594 48.873 25.5556 48.0483C26.3518 47.2237 27.3145 46.81 28.4463 46.81C29.4636 46.81 30.3769 47.1742 31.1835 47.9027C31.2954 48.0119 31.3006 48.1212 31.1939 48.2305L30.6969 48.7586C30.6137 48.8678 30.52 48.8678 30.4133 48.7586C29.8331 48.2331 29.18 47.9729 28.4567 47.9729C27.6579 47.9729 26.984 48.2747 26.4376 48.8782C25.8912 49.4818 25.618 50.1972 25.618 51.0271C25.618 51.857 25.8938 52.5724 26.4428 53.1708C26.9944 53.7692 27.6683 54.0683 28.4671 54.0683C29.115 54.0683 29.7629 53.8108 30.4133 53.2931C30.5122 53.215 30.6007 53.2098 30.6839 53.2827L31.2043 53.8108C31.2485 53.8576 31.2694 53.9096 31.2668 53.9695C31.2642 54.0293 31.2381 54.0813 31.1939 54.1282C30.4394 54.8878 29.5235 55.2677 28.4463 55.2677C27.3145 55.2677 26.3518 54.8592 25.5556 54.0397V54.0371ZM37.3994 54.0371C36.611 53.2202 36.2182 52.2238 36.2182 51.0479C36.2182 49.8746 36.611 48.873 37.3994 48.0483C38.1878 47.2237 39.1479 46.81 40.2771 46.81C41.4089 46.81 42.369 47.2237 43.1626 48.0483C43.9536 48.8756 44.3491 49.8746 44.3491 51.0479C44.3491 52.2212 43.9536 53.2176 43.1626 54.0371C42.3716 54.854 41.4089 55.265 40.2771 55.265C39.1453 55.265 38.1878 54.8566 37.3994 54.0371ZM38.2138 48.8886C37.6362 49.4922 37.3474 50.2128 37.3474 51.0505C37.3474 51.8882 37.6336 52.6037 38.206 53.1994C38.7784 53.7952 39.4705 54.0917 40.2771 54.0917C41.0837 54.0917 41.7758 53.7952 42.3534 53.1994C42.931 52.6037 43.2199 51.8882 43.2199 51.0505C43.2199 50.2128 42.931 49.4922 42.3534 48.8886C41.7758 48.2851 41.0837 47.9859 40.2771 47.9859C39.4783 47.9859 38.7888 48.2877 38.2138 48.8886ZM49.441 54.8774L50.8434 46.9869C50.8746 46.8698 50.9423 46.81 51.0463 46.81H51.2285C51.3274 46.81 51.3898 46.8542 51.421 46.9401L53.7861 52.9393H53.8304L56.1825 46.9401C56.2137 46.8542 56.2762 46.81 56.375 46.81H56.5572C56.6638 46.81 56.7315 46.8698 56.7601 46.9869L58.1521 54.8774C58.1885 55.0569 58.1209 55.148 57.9492 55.148H57.2128C57.101 55.148 57.0281 55.0933 56.9969 54.9841L56.1591 49.7341H56.1252L54.088 55.135C54.0567 55.2208 53.9943 55.265 53.8954 55.265H53.6925C53.5936 55.265 53.5312 55.2234 53.4999 55.135L51.4522 49.7341H51.408L50.5936 54.9841C50.5858 55.0231 50.5624 55.0595 50.5208 55.0959C50.4791 55.1324 50.4349 55.148 50.3907 55.148H49.6543C49.4878 55.148 49.4176 55.0569 49.4384 54.8774H49.441ZM63.2883 54.8774L64.6907 46.9869C64.7219 46.8698 64.7895 46.81 64.8936 46.81H65.0758C65.1746 46.81 65.2371 46.8542 65.2683 46.9401L67.6334 52.9393H67.6776L70.0298 46.9401C70.061 46.8542 70.1234 46.81 70.2223 46.81H70.4044C70.5111 46.81 70.5788 46.8698 70.6074 46.9869L71.9994 54.8774C72.0358 55.0569 71.9682 55.148 71.7964 55.148H71.0601C70.9482 55.148 70.8754 55.0933 70.8442 54.9841L70.0063 49.7341H69.9725L67.9352 55.135C67.904 55.2208 67.8416 55.265 67.7427 55.265H67.5397C67.4409 55.265 67.3784 55.2234 67.3472 55.135L65.2995 49.7341H65.2553L64.4409 54.9841C64.4331 55.0231 64.4097 55.0595 64.368 55.0959C64.3264 55.1324 64.2822 55.148 64.2379 55.148H63.5016C63.3351 55.148 63.2648 55.0569 63.2857 54.8774H63.2883ZM77.6767 54.9242V47.1508C77.6767 47.0884 77.6975 47.0363 77.7392 46.9921C77.7808 46.9505 77.8328 46.9271 77.8927 46.9271H82.4174C82.4772 46.9271 82.5293 46.9479 82.5709 46.9921C82.6125 47.0363 82.6333 47.0884 82.6333 47.1508V47.809C82.6333 47.8714 82.6125 47.9235 82.5709 47.9677C82.5293 48.0119 82.4798 48.0327 82.4174 48.0327H78.8424V50.4288H81.8632C81.9152 50.4288 81.9646 50.4522 82.0115 50.499C82.0557 50.5458 82.0791 50.5979 82.0791 50.6525V51.3107C82.0791 51.3731 82.0583 51.4252 82.0167 51.4694C81.975 51.5136 81.923 51.5344 81.8632 51.5344H78.8424V54.0579H82.4174C82.4772 54.0579 82.5293 54.0787 82.5709 54.123C82.6125 54.1646 82.6333 54.2192 82.6333 54.2817V54.9268C82.6333 54.9893 82.6125 55.0413 82.5709 55.0855C82.5293 55.1298 82.4798 55.1506 82.4174 55.1506H77.8927C77.8328 55.1506 77.7808 55.1298 77.7392 55.0855C77.6975 55.0439 77.6767 54.9893 77.6767 54.9268V54.9242ZM88.3549 54.9242V47.0207C88.3549 46.9661 88.3757 46.9167 88.4173 46.875C88.459 46.8334 88.511 46.81 88.5708 46.81H88.8545L93.7642 52.7051H93.7746V47.1508C93.7746 47.0884 93.7954 47.0363 93.8371 46.9921C93.8787 46.9505 93.9307 46.9271 93.9906 46.9271H94.7139C94.766 46.9271 94.8154 46.9505 94.8622 46.9973C94.9065 47.0441 94.9299 47.0962 94.9299 47.1508V55.0543C94.9299 55.109 94.9091 55.1584 94.8674 55.2C94.8258 55.2442 94.7764 55.265 94.7139 55.265H94.4199L89.5101 49.206H89.4997V54.9242C89.4997 54.9867 89.4789 55.0387 89.4373 55.0829C89.3956 55.1272 89.3462 55.148 89.2838 55.148H88.5708C88.511 55.148 88.459 55.1246 88.4173 55.0777C88.3757 55.0309 88.3549 54.9789 88.3549 54.9242ZM101.138 54.9242V47.1508C101.138 47.0884 101.159 47.0363 101.2 46.9921C101.242 46.9505 101.289 46.9271 101.341 46.9271H103.943C105.036 46.9271 105.972 47.3277 106.748 48.1316C107.523 48.9329 107.913 49.898 107.913 51.0271C107.913 52.1614 107.526 53.1318 106.748 53.9383C105.972 54.7447 105.036 55.148 103.943 55.148H101.341C101.289 55.148 101.242 55.1272 101.2 55.0829C101.159 55.0413 101.138 54.9867 101.138 54.9242ZM102.293 54.0319H103.787C104.617 54.0319 105.304 53.7483 105.845 53.1812C106.389 52.6141 106.659 51.896 106.659 51.0271C106.659 50.166 106.389 49.4532 105.845 48.8886C105.301 48.3241 104.617 48.0431 103.787 48.0431H102.293V54.0319ZM113.559 54.9242V47.1508C113.559 47.0884 113.58 47.0363 113.622 46.9921C113.664 46.9505 113.716 46.9271 113.775 46.9271H118.3C118.36 46.9271 118.412 46.9479 118.454 46.9921C118.495 47.0363 118.516 47.0884 118.516 47.1508V47.809C118.516 47.8714 118.495 47.9235 118.454 47.9677C118.412 48.0119 118.363 48.0327 118.3 48.0327H114.725V50.4288H117.746C117.798 50.4288 117.847 50.4522 117.894 50.499C117.938 50.5458 117.962 50.5979 117.962 50.6525V51.3107C117.962 51.3731 117.941 51.4252 117.899 51.4694C117.858 51.5136 117.806 51.5344 117.746 51.5344H114.725V54.0579H118.3C118.36 54.0579 118.412 54.0787 118.454 54.123C118.495 54.1646 118.516 54.2192 118.516 54.2817V54.9268C118.516 54.9893 118.495 55.0413 118.454 55.0855C118.412 55.1298 118.363 55.1506 118.3 55.1506H113.775C113.716 55.1506 113.664 55.1298 113.622 55.0855C113.58 55.0439 113.559 54.9893 113.559 54.9268V54.9242ZM124.238 54.9242V47.1508C124.238 47.0884 124.258 47.0363 124.3 46.9921C124.342 46.9505 124.389 46.9271 124.441 46.9271H127.042C128.135 46.9271 129.072 47.3277 129.847 48.1316C130.623 48.9329 131.013 49.898 131.013 51.0271C131.013 52.1614 130.625 53.1318 129.847 53.9383C129.072 54.7447 128.135 55.148 127.042 55.148H124.441C124.389 55.148 124.342 55.1272 124.3 55.0829C124.258 55.0413 124.238 54.9867 124.238 54.9242ZM125.39 54.0319H126.884C127.714 54.0319 128.401 53.7483 128.942 53.1812C129.486 52.6141 129.756 51.896 129.756 51.0271C129.756 50.166 129.486 49.4532 128.942 48.8886C128.398 48.3241 127.714 48.0431 126.884 48.0431H125.39V54.0319ZM60.4652 45.9619V38.1885C60.4652 38.1338 60.486 38.0818 60.5276 38.035C60.5693 37.9881 60.6213 37.9647 60.6812 37.9647H61.4279C61.4877 37.9647 61.5398 37.9881 61.5814 38.035C61.623 38.0818 61.6439 38.1338 61.6439 38.1885V45.9619C61.6439 46.0165 61.623 46.0686 61.5814 46.1154C61.5398 46.1622 61.4877 46.1856 61.4279 46.1856H60.6812C60.6213 46.1856 60.5693 46.1622 60.5276 46.1154C60.486 46.0686 60.4652 46.0165 60.4652 45.9619ZM68.5753 45.0748C67.7843 44.2579 67.3862 43.2615 67.3862 42.0856C67.3862 40.9123 67.7843 39.9107 68.5805 39.086C69.3767 38.2613 70.3368 37.8477 71.4582 37.8477C72.4677 37.8477 73.3836 38.2119 74.2058 38.9403C74.3177 39.0574 74.3229 39.1666 74.2162 39.2681C74.1564 39.3305 74.0679 39.4216 73.956 39.5439C73.8441 39.6661 73.7609 39.7572 73.7062 39.8196C73.623 39.9133 73.5267 39.9107 73.4122 39.8092C72.8242 39.2759 72.1841 39.0106 71.4894 39.0106C70.6984 39.0106 70.0272 39.3123 69.4756 39.9159C68.924 40.5194 68.6508 41.2349 68.6508 42.0648C68.6508 42.8947 68.9266 43.6101 69.4756 44.2085C70.0272 44.8068 70.6984 45.106 71.4894 45.106C71.6169 45.106 71.7444 45.1008 71.8693 45.0878C71.9942 45.0774 72.1087 45.0592 72.2153 45.0357C72.322 45.0123 72.4209 44.9889 72.5146 44.9655C72.6082 44.9421 72.6967 44.9135 72.7748 44.8823C72.8528 44.851 72.9179 44.825 72.9673 44.8068C73.0167 44.786 73.0636 44.7652 73.1078 44.7418C73.152 44.7184 73.178 44.7053 73.1859 44.7053V43.389H72.0774C72.0176 43.389 71.9656 43.3682 71.9239 43.3291C71.8823 43.2901 71.8615 43.2381 71.8615 43.1756V42.494C71.8615 42.3457 71.9317 42.2703 72.0774 42.2703H74.1355C74.1876 42.2703 74.2344 42.2911 74.276 42.3353C74.3177 42.377 74.3385 42.4316 74.3385 42.494C74.3385 42.8062 74.3411 43.2797 74.3437 43.9145C74.3489 44.5493 74.3489 45.0227 74.3489 45.3349C74.3489 45.413 74.3177 45.4754 74.2578 45.5222C74.1668 45.5769 74.0419 45.6471 73.8858 45.733C73.727 45.8188 73.4044 45.9333 72.9127 46.079C72.4235 46.2247 71.9369 46.2975 71.453 46.2975C70.3212 46.2975 69.3611 45.8891 68.5701 45.0696L68.5753 45.0748ZM80.2604 45.9619V38.1885C80.2604 38.1338 80.2812 38.0818 80.3228 38.035C80.3645 37.9881 80.4165 37.9647 80.4764 37.9647H81.2231C81.2829 37.9647 81.335 37.9855 81.3766 38.0298C81.4182 38.074 81.4391 38.126 81.4391 38.1885V41.4638H85.5787V38.1885C85.5787 38.126 85.5995 38.074 85.6411 38.0298C85.6827 37.9881 85.7348 37.9647 85.7946 37.9647H86.5414C86.6012 37.9647 86.6533 37.9881 86.6949 38.035C86.7365 38.0818 86.7573 38.1338 86.7573 38.1885V45.9619C86.7573 46.0165 86.7365 46.0686 86.6949 46.1154C86.6533 46.1622 86.6038 46.1856 86.5414 46.1856H85.7946C85.7348 46.1856 85.6827 46.1648 85.6411 46.1206C85.5995 46.079 85.5787 46.0243 85.5787 45.9619V42.5695H81.4391V45.9619C81.4391 46.0243 81.4182 46.0764 81.3766 46.1206C81.335 46.1648 81.2829 46.1856 81.2231 46.1856H80.4764C80.4165 46.1856 80.3645 46.1622 80.3228 46.1154C80.2812 46.0686 80.2604 46.0165 80.2604 45.9619ZM93.0747 45.9619V38.1885C93.0747 38.126 93.0955 38.074 93.1372 38.0298C93.1788 37.9881 93.2308 37.9647 93.2907 37.9647H94.0374C94.0973 37.9647 94.1493 37.9881 94.1909 38.035C94.2326 38.0818 94.2534 38.1338 94.2534 38.1885V45.093H97.3184C97.3783 45.093 97.4303 45.1138 97.4719 45.158C97.5136 45.1996 97.5344 45.2543 97.5344 45.3167V45.9619C97.5344 46.0243 97.5136 46.0764 97.4719 46.1206C97.4303 46.1648 97.3783 46.1856 97.3184 46.1856H93.2907C93.2308 46.1856 93.1788 46.1648 93.1372 46.1206C93.0955 46.079 93.0747 46.0243 93.0747 45.9619ZM103.821 45.9619V42.2287L101.174 38.3081C101.13 38.2301 101.125 38.1546 101.164 38.0792C101.2 38.0037 101.265 37.9673 101.357 37.9673H102.194C102.262 37.9673 102.322 38.0038 102.376 38.074L104.424 41.0684L106.472 38.074C106.524 38.0038 106.584 37.9673 106.651 37.9673H107.5C107.591 37.9673 107.653 38.0037 107.692 38.0792C107.731 38.1546 107.726 38.2301 107.682 38.3081L105.002 42.2183V45.9645C105.002 46.0191 104.978 46.0712 104.934 46.118C104.89 46.1648 104.84 46.1882 104.786 46.1882H104.039C103.979 46.1882 103.927 46.1674 103.886 46.1232C103.844 46.0816 103.823 46.0269 103.823 45.9645L103.821 45.9619Z" fill="url(#paint0_linear_1127_55906)"/>
<defs>
<linearGradient id="paint0_linear_1127_55906" x1="78.8398" y1="54.0527" x2="78.8424" y2="38.1859" gradientUnits="userSpaceOnUse">
<stop/>
</linearGradient>
</defs>
</svg>
