<svg width="184" height="62" viewBox="0 0 184 62" fill="none" xmlns="http://www.w3.org/2000/svg">
<path d="M5.65042 0.24707H0.59163C0.289237 0.24707 0.119141 0.417796 0.119141 0.721308V13.687C0.119141 13.9905 0.289237 14.1612 0.59163 14.1612H1.42636C1.72875 14.1612 1.89885 13.9905 1.89885 13.687V9.69388H5.68822C9.11534 9.69388 10.8604 7.66099 10.8604 5.03687C10.8604 2.37482 9.23189 0.24707 5.65042 0.24707ZM5.78271 8.19529H1.89885V1.72985H5.66932C7.96247 1.72985 9.07754 3.40233 9.07754 5.03687C9.07754 6.65244 7.99712 8.19213 5.78271 8.19213V8.19529ZM14.5521 9.46941H18.1147L21.2961 13.8798C21.4473 14.0885 21.6174 14.1644 21.8631 14.1644H22.8868C23.2837 14.1644 23.3971 13.9178 23.1703 13.5953L20.0456 9.35559C22.1088 8.88136 23.4538 7.30373 23.4538 4.86931C23.4538 2.15034 21.5418 0.250232 18.8707 0.250232H13.2449C12.9425 0.250232 12.7724 0.420957 12.7724 0.72447V13.6901C12.7724 13.9936 12.9425 14.1644 13.2449 14.1644H14.0796C14.382 14.1644 14.5521 13.9936 14.5521 13.6901V9.46941ZM14.5521 7.92972V1.73301H18.6817C21.1071 1.73301 21.7119 3.82282 21.7119 4.86931C21.7119 7.01918 20.3858 7.92972 18.5494 7.92972H14.5521ZM27.9456 0.24707H27.1109C26.8085 0.24707 26.6384 0.417796 26.6384 0.721308V13.687C26.6384 13.9905 26.8085 14.1612 27.1109 14.1612H27.9456C28.248 14.1612 28.4181 13.9905 28.4181 13.687V0.721308C28.4181 0.417796 28.248 0.24707 27.9456 0.24707ZM37.134 14.1644C37.2663 14.1644 37.3608 14.1075 37.4742 13.8609L43.3236 0.800348C43.4748 0.458896 43.3236 0.250232 42.9645 0.250232H41.9975C41.7329 0.250232 41.5628 0.364049 41.4494 0.610652L37.134 10.421L32.8564 0.610652C32.743 0.364049 32.5729 0.250232 32.3083 0.250232H31.3034C30.9444 0.250232 30.7932 0.458896 30.9444 0.800348L36.7938 13.8609C36.9072 14.1075 37.0017 14.1644 37.134 14.1644ZM44.3914 13.8039L45.4529 11.5213H52.9687L54.0302 13.8039C54.1436 14.0316 54.3326 14.1644 54.5972 14.1644H55.5988C55.9579 14.1644 56.0902 13.9178 55.939 13.5953L49.5793 0.534774C49.4659 0.30714 49.3714 0.250232 49.2202 0.250232C49.069 0.250232 48.9745 0.30714 48.8611 0.534774L42.5014 13.5953C42.3502 13.9178 42.4825 14.1644 42.8416 14.1644H43.8244C44.089 14.1644 44.278 14.0316 44.3914 13.8039ZM49.2391 3.57622L52.2284 10.0227H46.2121L49.2391 3.57622ZM65.0549 0.250232H55.8099C55.5075 0.250232 55.3374 0.420957 55.3374 0.72447V1.25562C55.3374 1.55913 55.5075 1.72985 55.8099 1.72985H59.5615V13.6901C59.5615 13.9936 59.7316 14.1644 60.034 14.1644H60.8498C61.1522 14.1644 61.3223 13.9936 61.3223 13.6901V1.72985H65.0549C65.3573 1.72985 65.5274 1.55913 65.5274 1.25562V0.72447C65.5274 0.420957 65.3573 0.250232 65.0549 0.250232ZM76.6845 0.250232H67.5906C67.3827 0.250232 67.2504 0.383018 67.2504 0.591683V13.8261C67.2504 14.0347 67.3827 14.1675 67.5906 14.1675H76.6845C76.8924 14.1675 77.0247 14.0347 77.0247 13.8261V12.9883C77.0247 12.7796 76.8924 12.6468 76.6845 12.6468H69.0302V8.0467H75.7552C75.9631 8.0467 76.0954 7.91391 76.0954 7.70525V6.86743C76.0954 6.65876 75.9631 6.52598 75.7552 6.52598H69.0302V1.73618H76.6845C76.8924 1.73618 77.0247 1.60339 77.0247 1.39473V0.594845C77.0247 0.38618 76.8924 0.253393 76.6845 0.253393V0.250232Z" fill="black"/>
<path d="M5.65075 0.367234H0.591967C0.472269 0.367234 0.384071 0.398849 0.327372 0.455758C0.270674 0.512666 0.239174 0.604352 0.239174 0.721331V13.687C0.239174 13.8071 0.270674 13.8957 0.327372 13.9526C0.384071 14.0095 0.475419 14.0411 0.591967 14.0411H1.4267C1.5464 14.0411 1.63459 14.0095 1.69129 13.9526C1.74799 13.8957 1.77949 13.804 1.77949 13.687V9.57377H5.68855C7.30132 9.57377 8.53294 9.1185 9.37397 8.35972C10.2811 7.54087 10.741 6.36792 10.741 5.03689C10.741 3.66793 10.3032 2.44756 9.38027 1.59709C8.54869 0.831986 7.31707 0.364072 5.65075 0.364072V0.367234ZM0.591967 0.126953H5.65075C7.38006 0.126953 8.66524 0.616999 9.54092 1.4232C10.5174 2.32109 10.9804 3.6047 10.9804 5.04006C10.9804 6.43748 10.4953 7.67682 9.53462 8.54309C8.64949 9.33981 7.36747 9.82037 5.6917 9.82037H2.02203V13.6933C2.02203 13.8798 1.96849 14.0253 1.86454 14.1296C1.76059 14.2339 1.61254 14.2877 1.42985 14.2877H0.595116C0.409271 14.2877 0.264374 14.2339 0.160426 14.1296C0.0564785 14.0253 0.00292969 13.8767 0.00292969 13.6933V0.727654C0.00292969 0.541121 0.0564785 0.395688 0.160426 0.291356C0.264374 0.187023 0.412421 0.133276 0.595116 0.133276L0.591967 0.126953ZM5.78305 8.31546H1.77949V1.60974H5.66965C6.76268 1.60974 7.60056 1.9828 8.1833 2.54873C8.86368 3.2095 9.19757 4.12952 9.19757 5.04006C9.19757 5.93162 8.87628 6.80422 8.23055 7.42705C7.66356 7.96768 6.85088 8.31862 5.78305 8.31862V8.31546ZM2.01888 8.07518H5.78305C6.78473 8.07518 7.54386 7.7527 8.06675 7.25C8.66524 6.67776 8.95818 5.86839 8.95818 5.03689C8.95818 4.18959 8.64634 3.32964 8.01635 2.71945C7.47456 2.19463 6.69338 1.85002 5.6665 1.85002H2.01573V8.07518H2.01888ZM14.5525 9.34929H18.1749L21.3941 13.8103C21.4571 13.8988 21.5232 13.9589 21.5988 13.9937C21.6744 14.0284 21.7626 14.0442 21.8666 14.0442H22.8903C22.9974 14.0442 23.073 14.0253 23.1203 13.9905C23.136 13.9779 23.1518 13.9652 23.1581 13.9494C23.1644 13.9336 23.1707 13.9146 23.1707 13.8925C23.1707 13.8324 23.1392 13.7534 23.0762 13.6617L19.8443 9.27658L20.0207 9.23548C21.0476 8.99836 21.8886 8.48302 22.4682 7.72424C23.0226 6.99391 23.3376 6.02963 23.3376 4.86617C23.3376 3.54463 22.8746 2.4191 22.0871 1.62871C21.2965 0.831986 20.1782 0.367234 18.871 0.367234H13.2452C13.1255 0.367234 13.0373 0.398849 12.9806 0.455758C12.9239 0.512666 12.8924 0.604352 12.8924 0.721331V13.687C12.8924 13.8071 12.9239 13.8957 12.9806 13.9526C13.0373 14.0095 13.1287 14.0411 13.2452 14.0411H14.08C14.1997 14.0411 14.2879 14.0095 14.3446 13.9526C14.4013 13.8957 14.4328 13.804 14.4328 13.687V9.34613H14.5525V9.34929ZM18.052 9.58958H14.6722V13.6901C14.6722 13.8767 14.6186 14.0221 14.5147 14.1264C14.4107 14.2308 14.2627 14.2845 14.08 14.2845H13.2452C13.0594 14.2845 12.9145 14.2308 12.8105 14.1264C12.7066 14.0221 12.653 13.8735 12.653 13.6901V0.724493C12.653 0.537959 12.7066 0.392526 12.8105 0.288194C12.9145 0.183862 13.0625 0.130115 13.2452 0.130115H18.871C20.2412 0.130115 21.4193 0.62016 22.254 1.46114C23.0856 2.29896 23.5739 3.48139 23.5739 4.86933C23.5739 6.0897 23.2431 7.10141 22.6541 7.87284C22.0745 8.63478 21.2492 9.16276 20.2475 9.42833L23.2652 13.5226C23.3597 13.6554 23.4038 13.7818 23.4038 13.8925C23.4038 13.9526 23.3912 14.0095 23.366 14.0601C23.3408 14.1106 23.303 14.1549 23.2526 14.1897C23.1644 14.2529 23.0415 14.2877 22.884 14.2877H21.8603C21.7185 14.2877 21.5988 14.2656 21.4886 14.2118C21.3784 14.1581 21.2839 14.0727 21.1957 13.9526L18.0489 9.59274L18.052 9.58958ZM14.4328 7.92974V1.6129H18.682C19.7057 1.6129 20.4208 1.97648 20.909 2.47917C21.6114 3.20634 21.8319 4.23069 21.8319 4.86933C21.8319 5.92846 21.5169 6.69989 20.9783 7.22155C20.3893 7.79063 19.5388 8.05305 18.5466 8.05305H14.4296V7.93291L14.4328 7.92974ZM14.6722 1.85318V7.8096H18.5497C19.4821 7.8096 20.2759 7.56932 20.8145 7.04766C21.3059 6.57342 21.5925 5.85891 21.5925 4.86933C21.5925 4.27179 21.3878 3.32015 20.7358 2.64674C20.2916 2.18514 19.6301 1.85318 18.682 1.85318H14.6722ZM27.946 0.370395H27.1112C26.9915 0.370395 26.9033 0.402011 26.8466 0.45892C26.7899 0.515828 26.7584 0.607514 26.7584 0.724493V13.6901C26.7584 13.8103 26.7899 13.8988 26.8466 13.9557C26.9033 14.0126 26.9947 14.0442 27.1112 14.0442H27.946C28.0657 14.0442 28.1538 14.0126 28.2105 13.9557C28.2672 13.8988 28.2987 13.8071 28.2987 13.6901V0.724493C28.2987 0.604352 28.2672 0.515828 28.2105 0.45892C28.1538 0.402011 28.0625 0.370395 27.946 0.370395ZM27.1112 0.130115H27.946C28.1318 0.130115 28.2767 0.187023 28.3806 0.288194C28.4846 0.392526 28.5381 0.541121 28.5381 0.724493V13.6901C28.5381 13.8767 28.4846 14.0221 28.3806 14.1264C28.2767 14.2308 28.1287 14.2845 27.946 14.2845H27.1112C26.9254 14.2845 26.7805 14.2308 26.6765 14.1264C26.5726 14.0221 26.519 13.8735 26.519 13.6901V0.724493C26.519 0.537959 26.5726 0.392526 26.6765 0.288194C26.7805 0.183862 26.9285 0.130115 27.1112 0.130115ZM37.1311 14.0474C37.1689 14.0474 37.2036 14.0411 37.2319 14.0158C37.2729 13.981 37.3138 13.9209 37.3642 13.8135L43.2137 0.752947C43.2452 0.68023 43.2609 0.616999 43.2609 0.563252C43.2609 0.525313 43.2515 0.490535 43.2357 0.468404C43.22 0.443112 43.1916 0.42098 43.157 0.405173C43.1066 0.383041 43.0404 0.370395 42.9617 0.370395H41.9946C41.8844 0.370395 41.7962 0.392526 41.73 0.436788C41.6608 0.481051 41.604 0.556929 41.5568 0.658099L37.1311 10.7183L32.7464 0.661261C32.6992 0.56009 32.6425 0.484212 32.5701 0.436788C32.5008 0.392526 32.4126 0.370395 32.3055 0.370395H31.3006C31.2187 0.370395 31.1557 0.383041 31.1053 0.405173C31.0707 0.42098 31.0423 0.443112 31.0266 0.468404C31.0108 0.493697 31.0014 0.525313 31.0014 0.566413C31.0014 0.62016 31.0171 0.683392 31.0486 0.756108L36.8981 13.8166C36.9453 13.9209 36.9863 13.9842 37.0272 14.019C37.0556 14.0411 37.0902 14.0506 37.128 14.0506L37.1311 14.0474ZM37.3863 14.2023C37.3075 14.2687 37.2256 14.2909 37.1311 14.2909C37.0367 14.2909 36.9579 14.2687 36.876 14.2023C36.8099 14.1454 36.7469 14.0569 36.6807 13.9146L30.8313 0.850956C30.784 0.746624 30.762 0.648615 30.762 0.563252C30.762 0.477889 30.784 0.398849 30.8281 0.335618C30.8691 0.272386 30.9321 0.221801 31.0077 0.187023C31.0864 0.152246 31.1872 0.133276 31.3006 0.133276H32.3055C32.4598 0.133276 32.5921 0.168054 32.7023 0.24077C32.8126 0.313487 32.8976 0.42098 32.9638 0.563252L37.1343 10.127L41.3395 0.566413C41.4056 0.42098 41.4907 0.313487 41.6009 0.24077C41.7112 0.168054 41.8434 0.133276 41.9978 0.133276H42.9648C43.0782 0.133276 43.1759 0.152246 43.2578 0.187023C43.3365 0.221801 43.3964 0.272386 43.4373 0.335618C43.4783 0.398849 43.5035 0.477889 43.5035 0.563252C43.5035 0.648615 43.4814 0.746624 43.4342 0.850956L37.5847 13.9115C37.5186 14.0537 37.4556 14.1454 37.3894 14.1992L37.3863 14.2023ZM44.2815 13.7565L45.3745 11.4043H53.0414L54.1345 13.7565C54.1817 13.8514 54.2447 13.9273 54.3235 13.9747C54.3959 14.0221 54.4873 14.0474 54.5944 14.0474H55.596C55.6685 14.0474 55.7283 14.0348 55.7756 14.0158C55.8102 14 55.8386 13.9747 55.8543 13.9494C55.8701 13.9209 55.8795 13.8862 55.8795 13.8451C55.8795 13.7913 55.8638 13.7249 55.8291 13.6522L49.4694 0.591706C49.4222 0.496859 49.3812 0.436788 49.3403 0.405173C49.3088 0.37988 49.2678 0.373557 49.2174 0.373557C49.167 0.373557 49.1261 0.383041 49.0946 0.405173C49.0536 0.436788 49.0127 0.493697 48.9654 0.588544L42.6089 13.649C42.5774 13.7186 42.5585 13.785 42.5585 13.8419C42.5585 13.883 42.5679 13.9178 42.5837 13.9462C42.5994 13.9715 42.6278 13.9968 42.6624 14.0126C42.7065 14.0348 42.7664 14.0442 42.8388 14.0442H43.8216C43.9287 14.0442 44.02 14.019 44.0925 13.9715C44.1712 13.9209 44.2342 13.8482 44.2815 13.7534V13.7565ZM45.5257 11.6446L44.4957 13.8609C44.4295 13.9968 44.335 14.1043 44.2216 14.177C44.1082 14.2498 43.9759 14.2877 43.8216 14.2877H42.8388C42.7317 14.2877 42.6372 14.2687 42.5585 14.2308C42.4797 14.1928 42.4199 14.1391 42.3789 14.0727C42.338 14.0063 42.3159 13.9273 42.3159 13.8419C42.3159 13.7502 42.3411 13.6522 42.3884 13.5447L48.7481 0.481051C48.8142 0.348264 48.8772 0.262901 48.9497 0.209154C49.0316 0.149084 49.1166 0.126953 49.2174 0.126953C49.3182 0.126953 49.4033 0.145923 49.482 0.209154C49.5545 0.262901 49.6175 0.348264 49.6836 0.481051L56.0433 13.5447C56.0937 13.6522 56.1158 13.7534 56.1158 13.8419C56.1158 13.9273 56.0937 14.0063 56.0528 14.0727C56.0118 14.1391 55.9488 14.196 55.8732 14.2308C55.7976 14.2656 55.7031 14.2877 55.5929 14.2877H54.5912C54.4369 14.2877 54.3046 14.2498 54.1912 14.177C54.0746 14.1043 53.9833 13.9937 53.9171 13.8609L52.8871 11.6446H45.5257ZM49.3434 3.52566L52.4115 10.1429H46.0171L49.2332 3.29486L49.3403 3.52566H49.3434ZM52.0366 9.90257L49.2332 3.86078L46.3951 9.90257H52.0366ZM65.0521 0.370395H55.8071C55.6874 0.370395 55.5992 0.402011 55.5425 0.45892C55.4858 0.515828 55.4543 0.607514 55.4543 0.724493V1.25564C55.4543 1.37578 55.4858 1.4643 55.5425 1.52121C55.5992 1.57812 55.6905 1.60974 55.8071 1.60974H59.6784V13.6901C59.6784 13.8103 59.7099 13.8988 59.7665 13.9557C59.8232 14.0126 59.9146 14.0442 60.0311 14.0442H60.847C60.9667 14.0442 61.0549 14.0126 61.1116 13.9557C61.1683 13.8988 61.1998 13.8071 61.1998 13.6901V1.60974H65.0521C65.1718 1.60974 65.26 1.57812 65.3167 1.52121C65.3734 1.4643 65.4049 1.37262 65.4049 1.25564V0.724493C65.4049 0.604352 65.3734 0.515828 65.3167 0.45892C65.26 0.402011 65.1687 0.370395 65.0521 0.370395ZM55.8071 0.130115H65.0521C65.238 0.130115 65.3829 0.187023 65.4868 0.288194C65.5908 0.392526 65.6443 0.541121 65.6443 0.724493V1.25564C65.6443 1.44217 65.5908 1.58761 65.4868 1.69194C65.3829 1.79627 65.2348 1.85002 65.0521 1.85002H61.4392V13.687C61.4392 13.8735 61.3856 14.019 61.2817 14.1233C61.1777 14.2276 61.0297 14.2814 60.847 14.2814H60.0311C59.8453 14.2814 59.7004 14.2276 59.5965 14.1233C59.4925 14.019 59.439 13.8704 59.439 13.687V1.85002H55.8071C55.6212 1.85002 55.4763 1.79627 55.3724 1.69194C55.2684 1.58761 55.2149 1.43901 55.2149 1.25564V0.724493C55.2149 0.537959 55.2684 0.392526 55.3724 0.288194C55.4763 0.183862 55.6244 0.130115 55.8071 0.130115ZM76.6817 0.370395H67.5878C67.5154 0.370395 67.4587 0.389365 67.424 0.427304C67.3862 0.465243 67.3673 0.522151 67.3673 0.591706V13.8261C67.3673 13.8988 67.3862 13.9557 67.424 13.9905C67.4618 14.0284 67.5185 14.0474 67.5878 14.0474H76.6817C76.7541 14.0474 76.8108 14.0284 76.8455 13.9905C76.8833 13.9526 76.9022 13.8957 76.9022 13.8261V12.9883C76.9022 12.9156 76.8833 12.8587 76.8455 12.8239C76.8077 12.7859 76.751 12.767 76.6817 12.767H68.9076V7.92658H75.7524C75.8249 7.92658 75.8816 7.90761 75.9162 7.86967C75.954 7.83173 75.9729 7.77483 75.9729 7.70527V6.86745C75.9729 6.79473 75.9509 6.73783 75.9162 6.70305C75.8784 6.66827 75.8217 6.64614 75.7524 6.64614H68.9076V1.6129H76.6817C76.7541 1.6129 76.8108 1.59393 76.8455 1.55599C76.8833 1.51805 76.9022 1.46114 76.9022 1.39159V0.591706C76.9022 0.51899 76.8833 0.462081 76.8455 0.427304C76.8077 0.389365 76.751 0.370395 76.6817 0.370395ZM67.5878 0.130115H76.6817C76.8171 0.130115 76.9337 0.177538 77.0156 0.25974C77.0975 0.341941 77.1447 0.455758 77.1447 0.594868V1.39475C77.1447 1.5307 77.0975 1.64768 77.0156 1.72988C76.9337 1.81208 76.8203 1.8595 76.6817 1.8595H69.147V6.40902H75.7524C75.8879 6.40902 76.0044 6.45645 76.0863 6.53548C76.1682 6.61769 76.2155 6.73466 76.2155 6.87061V7.70843C76.2155 7.84438 76.1682 7.96136 76.0863 8.04356C76.0044 8.12576 75.891 8.17319 75.7524 8.17319H69.147V12.533H76.6817C76.8171 12.533 76.9337 12.5804 77.0156 12.6626C77.0975 12.7448 77.1447 12.8587 77.1447 12.9978V13.8356C77.1447 13.9715 77.0975 14.0885 77.0156 14.1707C76.9337 14.2529 76.8203 14.3003 76.6817 14.3003H67.5878C67.4524 14.3003 67.3358 14.2529 67.2539 14.1707C67.172 14.0885 67.1248 13.9747 67.1248 13.8356V0.601191C67.1248 0.465243 67.172 0.348264 67.2539 0.266063C67.3358 0.183862 67.4492 0.136438 67.5878 0.136438V0.130115Z" fill="black"/>
<path d="M81.3184 14.1644H86.1126C90.1855 14.1834 92.8944 11.8817 92.8944 7.20574C92.8944 2.49182 90.1666 0.247092 86.1126 0.247092H81.3184C81.0727 0.247092 80.9404 0.379878 80.9404 0.626482V13.7818C80.9404 14.0284 81.0727 14.1612 81.3184 14.1612V14.1644ZM82.0965 13.1369V1.27145H85.8669C87.99 1.27145 91.7195 2.07133 91.7195 7.22155C91.7195 12.356 88.0057 13.1337 85.8669 13.1337H82.0965V13.1369ZM95.9058 14.1644H104.637C104.883 14.1644 105.015 14.0316 105.015 13.785V13.5194C105.015 13.2728 104.883 13.14 104.637 13.14H96.6806V7.85386H103.651C103.897 7.85386 104.029 7.72108 104.029 7.47447V7.2089C104.029 6.9623 103.897 6.82951 103.651 6.82951H96.6806V1.27777H104.637C104.883 1.27777 105.015 1.14498 105.015 0.898378V0.632805C105.015 0.386202 104.883 0.253415 104.637 0.253415H95.9058C95.6601 0.253415 95.5278 0.386202 95.5278 0.632805V13.7882C95.5278 14.0348 95.6601 14.1675 95.9058 14.1675V14.1644ZM107.954 14.1644H108.351C108.597 14.1644 108.729 14.0316 108.729 13.785V2.87121L118.768 13.9557C118.9 14.0885 118.976 14.1644 119.127 14.1644C119.297 14.1644 119.335 14.0506 119.335 13.9557V0.626482C119.335 0.379878 119.203 0.247092 118.957 0.247092H118.56C118.314 0.247092 118.182 0.379878 118.182 0.626482V11.5023L108.124 0.455756C107.992 0.32297 107.916 0.247092 107.765 0.247092C107.652 0.247092 107.576 0.304 107.576 0.455756V13.785C107.576 14.0316 107.709 14.1644 107.954 14.1644ZM126.592 14.1644H126.989C127.235 14.1644 127.367 14.0316 127.367 13.785V1.27461H131.383C131.629 1.27461 131.761 1.14182 131.761 0.895217V0.629643C131.761 0.38304 131.629 0.250253 131.383 0.250253H122.252C122.006 0.250253 121.874 0.38304 121.874 0.629643V0.895217C121.874 1.14182 122.006 1.27461 122.252 1.27461H126.211V13.785C126.211 14.0316 126.344 14.1644 126.589 14.1644H126.592ZM134.436 14.1644H134.833C135.078 14.1644 135.211 14.0316 135.211 13.785V0.629643C135.211 0.38304 135.078 0.250253 134.833 0.250253H134.436C134.19 0.250253 134.058 0.38304 134.058 0.629643V13.785C134.058 14.0316 134.19 14.1644 134.436 14.1644ZM143.548 14.4679C146.465 14.4679 148.475 13.1748 148.475 10.5697C148.475 7.64204 145.766 7.01288 144.156 6.70937C142.263 6.34895 139.192 6.06124 139.192 3.91453C139.192 1.86266 141.466 1.02484 142.811 1.02484C144.137 1.02484 145.275 1.36629 146.487 2.05236C146.695 2.16617 146.865 2.12823 146.998 1.91957L147.168 1.654C147.3 1.44533 147.262 1.25564 147.054 1.14182C145.955 0.474726 144.629 0.000488281 142.944 0.000488281C140.783 0.000488281 138.058 0.990064 138.058 3.9746C138.058 6.95913 141.564 7.33853 143.117 7.6452C145.316 8.0815 147.341 8.53993 147.341 10.5539C147.341 12.3022 145.977 13.4435 143.495 13.4435C141.866 13.4435 140.37 12.9124 139.139 12.1125C138.931 11.9797 138.742 12.0177 138.609 12.2263L138.42 12.5109C138.288 12.7195 138.326 12.9092 138.534 13.042C139.803 13.8798 141.337 14.4679 143.555 14.4679H143.548ZM153.701 14.1644H154.098C154.343 14.1644 154.476 14.0316 154.476 13.785V1.27461H158.492C158.737 1.27461 158.87 1.14182 158.87 0.895217V0.629643C158.87 0.38304 158.737 0.250253 158.492 0.250253H149.36C149.114 0.250253 148.982 0.38304 148.982 0.629643V0.895217C148.982 1.14182 149.114 1.27461 149.36 1.27461H153.32V13.785C153.32 14.0316 153.452 14.1644 153.698 14.1644H153.701ZM161.733 14.1644H162.13C162.376 14.1644 162.508 14.0316 162.508 13.785V9.22283H166.675L170.008 13.9368C170.121 14.0885 170.272 14.1644 170.461 14.1644H171.028C171.331 14.1644 171.444 13.9557 171.255 13.7091L168.017 9.18489C170.48 8.8055 171.806 7.07295 171.806 4.75551C171.806 2.11243 169.989 0.250253 167.412 0.250253H161.73C161.484 0.250253 161.352 0.38304 161.352 0.629643V13.785C161.352 14.0316 161.484 14.1644 161.73 14.1644H161.733ZM162.511 8.15738V1.27461H167.245C170.03 1.27461 170.654 3.5383 170.654 4.75551C170.654 7.17096 168.855 8.15738 167.245 8.15738H162.511ZM178.251 14.1644H178.648C178.894 14.1644 179.026 14.0316 179.026 13.785V8.89719L183.934 0.70236C184.085 0.455756 183.971 0.247092 183.669 0.247092H183.159C182.951 0.247092 182.8 0.341939 182.705 0.512665L178.462 7.62307L174.295 0.512665C174.2 0.341939 174.049 0.247092 173.841 0.247092H173.35C173.048 0.247092 172.934 0.455756 173.085 0.70236L177.876 8.89719V13.785C177.876 14.0316 178.009 14.1644 178.254 14.1644H178.251Z" fill="black"/>
<path d="M16.6726 32.7166L17.2333 31.5532H21.4385L22.0086 32.7166C22.0937 32.8747 22.2165 32.9601 22.3992 32.9601H23.5458C23.8009 32.9601 23.8986 32.7894 23.7883 32.5681L19.5706 24.1835C19.4855 24.0128 19.4131 23.9875 19.3375 23.9875C19.265 23.9875 19.1926 24.0128 19.1044 24.1835L14.8866 32.5681C14.7764 32.7894 14.874 32.9601 15.1292 32.9601H16.2758C16.4584 32.9601 16.5939 32.8747 16.6663 32.7166H16.6726ZM19.3406 27.2566L20.6101 30.0609H18.0618L19.3438 27.2566H19.3406ZM39.686 24.2689L38.004 28.9322L35.8683 24.1709C35.7959 24.0002 35.7234 24.0002 35.6856 24.0002C35.6478 24.0002 35.5628 24.0002 35.4903 24.1709L33.3578 28.9196L31.7104 24.2689C31.6506 24.0982 31.5151 24.0002 31.3324 24.0002H30.1984C29.9559 24.0002 29.8456 24.1582 29.9307 24.3795L32.9924 32.7641C33.0523 32.9474 33.1027 32.9727 33.1751 32.9727C33.2476 32.9727 33.2854 32.9474 33.3578 32.7767L35.6856 27.5759L37.9914 32.7672C38.0638 32.938 38.1142 32.9632 38.1867 32.9632C38.2591 32.9632 38.2969 32.9506 38.3694 32.7672L41.4563 24.3827C41.5413 24.1614 41.4437 24.0033 41.2011 24.0033H40.0672C39.8845 24.0033 39.749 24.1013 39.6892 24.2721L39.686 24.2689ZM49.3248 32.7135L49.8855 31.55H54.0907L54.6608 32.7135C54.7458 32.8716 54.8687 32.9569 55.0514 32.9569H56.198C56.4531 32.9569 56.5508 32.7862 56.4405 32.5649L52.2227 24.1804C52.1377 24.0096 52.0653 23.9843 51.9897 23.9843C51.9172 23.9843 51.8448 24.0096 51.7566 24.1804L47.5388 32.5649C47.4286 32.7862 47.5262 32.9569 47.7813 32.9569H48.9279C49.1106 32.9569 49.2461 32.8716 49.3185 32.7135H49.3248ZM51.9928 27.2534L53.2622 30.0578H50.7139L51.996 27.2534H51.9928ZM66.073 30.1052H67.7677L69.6954 32.7483C69.7931 32.8842 69.9254 32.9569 70.0986 32.9569H71.3806C71.6484 32.9569 71.746 32.7736 71.5885 32.5522L69.6482 29.9439C70.7695 29.6373 71.5003 28.4264 71.5003 27.0795C71.5003 25.268 70.2435 23.9938 68.426 23.9938H64.7059C64.498 23.9938 64.3783 24.1171 64.3783 24.3226V32.6218C64.3783 32.8305 64.5012 32.9538 64.7059 32.9538H65.7422C65.9501 32.9538 66.073 32.8305 66.073 32.6218V30.0989V30.1052ZM66.073 28.6129V25.5146H68.0228C69.2796 25.5146 69.8025 26.2006 69.8025 27.0701C69.8025 27.8288 69.4623 28.6129 68.0228 28.6129H66.073ZM80.2949 32.9569H83.4889C86.4026 32.9569 87.965 31.2054 87.965 28.477C87.965 25.7359 86.3554 23.997 83.4889 23.997H80.2949C80.087 23.997 79.9673 24.1203 79.9673 24.3258V32.625C79.9673 32.8336 80.0902 32.9569 80.2949 32.9569ZM81.6746 31.4141V25.5398H83.4921C84.7363 25.5398 86.2483 25.992 86.2483 28.4896C86.2483 30.9746 84.7489 31.4141 83.4921 31.4141H81.6746ZM96.6399 30.8387L96.2745 31.3888C96.1517 31.5848 96.1391 31.8662 96.3848 32.0369C97.1534 32.5744 98.1519 33.1277 99.8371 33.1277C101.85 33.1277 103.226 32.2329 103.226 30.3866C103.226 28.0375 100.946 27.8162 99.8717 27.5949C98.9331 27.3989 97.7991 27.1775 97.7991 26.3587C97.7991 25.66 98.6275 25.4545 99.2984 25.4545C100.152 25.4545 100.933 25.7485 101.519 26.09C101.727 26.2133 101.982 26.1627 102.105 25.992L102.581 25.3438C102.704 25.1858 102.678 24.9139 102.47 24.7684C101.727 24.2436 100.836 23.8642 99.4811 23.8642C97.9692 23.8642 96.0918 24.4997 96.0918 26.5326C96.0918 28.6983 98.4196 29.0429 99.4937 29.2389C100.58 29.4349 101.519 29.6436 101.519 30.4877C101.519 31.0378 101.091 31.5532 99.8119 31.5532C98.911 31.5532 97.8715 31.0758 97.251 30.7217C96.9958 30.5763 96.7628 30.6616 96.6399 30.845V30.8387ZM120.668 31.4394H117.045C117.716 30.9019 118.557 30.2032 118.995 29.8364C120.189 28.8216 120.885 28.0122 120.885 26.6432C120.885 25.3091 119.908 23.8516 117.789 23.8516C116.056 23.8516 115.117 25.113 114.799 25.9698C114.702 26.2259 114.787 26.3998 115.054 26.4725L115.87 26.6812C116.113 26.7412 116.333 26.6432 116.418 26.4251C116.554 26.071 116.941 25.3849 117.892 25.3849C118.551 25.3849 119.175 25.777 119.175 26.6464C119.175 27.2092 119.077 27.7119 117.99 28.5939L115.001 31.1042C114.878 31.2149 114.818 31.335 114.818 31.5089V32.6344C114.818 32.8431 114.941 32.9664 115.146 32.9664H120.658C120.866 32.9664 120.989 32.8431 120.989 32.6344V31.7777C120.989 31.569 120.866 31.4457 120.658 31.4457L120.668 31.4394ZM133.122 33.1403C135.598 33.1529 137.11 30.864 137.11 28.4896C137.11 25.8086 135.428 23.8516 133.122 23.8516C130.769 23.8516 129.135 25.7612 129.135 28.4896C129.135 30.9019 130.599 33.1403 133.122 33.1403ZM133.122 25.4545C134.732 25.4545 135.365 26.9973 135.365 28.4896C135.365 30.4719 134.206 31.5374 133.122 31.5374C131.56 31.5374 130.867 29.9218 130.867 28.4896C130.867 26.3713 132.086 25.4545 133.122 25.4545ZM151.222 31.4394H147.599C148.27 30.9019 149.111 30.2032 149.549 29.8364C150.743 28.8216 151.439 28.0122 151.439 26.6432C151.439 25.3091 150.463 23.8516 148.343 23.8516C146.61 23.8516 145.672 25.113 145.354 25.9698C145.256 26.2259 145.341 26.3998 145.609 26.4725L146.425 26.6812C146.667 26.7412 146.888 26.6432 146.973 26.4251C147.108 26.071 147.496 25.3849 148.447 25.3849C149.105 25.3849 149.729 25.777 149.729 26.6464C149.729 27.2092 149.631 27.7119 148.544 28.5939L145.555 31.1042C145.432 31.2149 145.372 31.335 145.372 31.5089V32.6344C145.372 32.8431 145.495 32.9664 145.7 32.9664H151.212C151.42 32.9664 151.543 32.8431 151.543 32.6344V31.7777C151.543 31.569 151.42 31.4457 151.212 31.4457L151.222 31.4394ZM165.86 31.4394H162.237C162.908 30.9019 163.749 30.2032 164.187 29.8364C165.381 28.8216 166.077 28.0122 166.077 26.6432C166.077 25.3091 165.1 23.8516 162.981 23.8516C161.248 23.8516 160.309 25.113 159.991 25.9698C159.894 26.2259 159.979 26.3998 160.246 26.4725L161.062 26.6812C161.305 26.7412 161.525 26.6432 161.61 26.4251C161.746 26.071 162.133 25.3849 163.085 25.3849C163.743 25.3849 164.367 25.777 164.367 26.6464C164.367 27.2092 164.269 27.7119 163.182 28.5939L160.193 31.1042C160.07 31.2149 160.01 31.335 160.01 31.5089V32.6344C160.01 32.8431 160.133 32.9664 160.338 32.9664H165.85C166.058 32.9664 166.181 32.8431 166.181 32.6344V31.7777C166.181 31.569 166.058 31.4457 165.85 31.4457L165.86 31.4394Z" fill="black"/>
<path d="M39.8651 50.9243V49.7292C39.8651 49.4383 39.7202 49.2676 39.4777 49.2676H32.5163C32.2707 49.2676 32.1289 49.4383 32.1289 49.7292V61.3006C32.1289 61.5915 32.2738 61.7622 32.5163 61.7622H33.7543C34 61.7622 34.1417 61.5915 34.1417 61.3006V56.8459H38.832C39.0777 56.8459 39.2194 56.6752 39.2194 56.3843V55.1893C39.2194 54.8984 39.0745 54.7277 38.832 54.7277H34.1417V51.3827H39.4777C39.7234 51.3827 39.8651 51.212 39.8651 50.9211V50.9243ZM50.8773 49.2676H49.6394C49.3937 49.2676 49.2519 49.4383 49.2519 49.7292V61.3006C49.2519 61.5915 49.3968 61.7622 49.6394 61.7622H50.8773C51.123 61.7622 51.2647 61.5915 51.2647 61.3006V49.7292C51.2647 49.4383 51.1198 49.2676 50.8773 49.2676ZM61.3162 61.3006C61.3162 61.5915 61.4611 61.7622 61.7036 61.7622H62.9258C63.1715 61.7622 63.3132 61.5915 63.3132 61.3006V54.2692L70.0446 61.5567C70.1895 61.7116 70.262 61.778 70.3313 61.778C70.4163 61.778 70.4604 61.7274 70.4604 61.5915V49.7292C70.4604 49.4383 70.3155 49.2676 70.073 49.2676H68.835C68.5893 49.2676 68.4476 49.4383 68.4476 49.7292V56.8965L61.7445 49.4889C61.5996 49.3182 61.5146 49.2486 61.4422 49.2486C61.3571 49.2486 61.313 49.2992 61.313 49.4352V61.2974L61.3162 61.3006ZM81.63 61.4207L82.2915 59.7989H87.2527L87.9268 61.4207C88.0276 61.6421 88.1725 61.7622 88.3867 61.7622H89.738C90.0404 61.7622 90.1538 61.5219 90.0246 61.2152L85.0509 49.5237C84.9501 49.2834 84.865 49.2518 84.7768 49.2518C84.6918 49.2518 84.6036 49.2866 84.5028 49.5237L79.529 61.2152C79.3999 61.5219 79.5133 61.7622 79.8157 61.7622H81.167C81.3844 61.7622 81.5419 61.6421 81.6269 61.4207H81.63ZM84.7768 53.8077L86.2731 57.7154H83.268L84.78 53.8077H84.7768ZM100.772 59.6439V49.7292C100.772 49.4383 100.627 49.2676 100.385 49.2676H99.1468C98.9011 49.2676 98.7594 49.4383 98.7594 49.7292V61.3006C98.7594 61.5915 98.9043 61.7622 99.1468 61.7622H105.951C106.196 61.7622 106.338 61.5915 106.338 61.3006V60.1055C106.338 59.8147 106.193 59.6439 105.951 59.6439H100.772ZM116.979 49.2676H115.741C115.495 49.2676 115.353 49.4383 115.353 49.7292V61.3006C115.353 61.5915 115.498 61.7622 115.741 61.7622H116.979C117.224 61.7622 117.366 61.5915 117.366 61.3006V49.7292C117.366 49.4383 117.221 49.2676 116.979 49.2676ZM127.748 58.8093L127.317 59.5775C127.172 59.8494 127.159 60.2446 127.446 60.4818C128.353 61.2342 129.531 62.0025 131.515 62.0025C133.887 62.0025 135.513 60.7568 135.513 58.1801C135.513 54.9016 132.823 54.5949 131.556 54.2882C130.448 54.0163 129.112 53.7065 129.112 52.5651C129.112 51.5914 130.092 51.3037 130.882 51.3037C131.89 51.3037 132.81 51.7147 133.5 52.1921C133.746 52.3628 134.045 52.2932 134.19 52.0561L134.75 51.1519C134.895 50.9306 134.867 50.5544 134.621 50.3489C133.742 49.6154 132.694 49.0874 131.097 49.0874C129.314 49.0874 127.099 49.9758 127.099 52.8086C127.099 55.8311 129.846 56.3085 131.112 56.5804C132.391 56.8523 133.5 57.1431 133.5 58.3224C133.5 59.0907 132.996 59.8083 131.487 59.8083C130.422 59.8083 129.2 59.1412 128.466 58.648C128.164 58.4425 127.89 58.5627 127.748 58.8188V58.8093ZM151.162 49.2676H143.898C143.652 49.2676 143.51 49.4383 143.51 49.7292V50.9243C143.51 51.2152 143.655 51.3859 143.898 51.3859H146.531V61.3006C146.531 61.5915 146.676 61.7622 146.919 61.7622H148.157C148.402 61.7622 148.544 61.5915 148.544 61.3006V51.3859H151.162C151.407 51.3859 151.549 51.2152 151.549 50.9243V49.7292C151.549 49.4383 151.404 49.2676 151.162 49.2676Z" fill="url(#paint0_linear_1127_55916)"/>
<path d="M34.7021 39.5708H145.825V40.4086H34.7021V39.5708Z" fill="black"/>
<defs>
<linearGradient id="paint0_linear_1127_55916" x1="89.0103" y1="60.4375" x2="89.0135" y2="47.5161" gradientUnits="userSpaceOnUse">
<stop/>
</linearGradient>
</defs>
</svg>
