<svg width="76" height="76" viewBox="0 0 76 76" fill="none" xmlns="http://www.w3.org/2000/svg">
<g filter="url(#filter0_d_324_9987)">
<rect x="6" y="6" width="60" height="60" rx="30" fill="#353434"/>
<g clip-path="url(#clip0_324_9987)">
<path d="M50.3034 26.5111C49.8106 25.9147 49.2739 25.3559 48.6979 24.8393C46.811 23.1676 44.5103 21.7938 41.4979 20.5359C41.3949 20.4981 41.2996 20.4421 41.2166 20.3704C40.6843 19.7813 40.0344 19.3104 39.3088 18.9881C38.5832 18.6658 37.7981 18.4993 37.0041 18.4993C36.2102 18.4993 35.4251 18.6658 34.6995 18.9881C33.9739 19.3104 33.324 19.7813 32.7917 20.3704C32.7298 20.4329 32.6569 20.4834 32.5766 20.5193C31.1173 21.1097 29.7062 21.8125 28.3559 22.6214C26.3366 23.8462 24.88 25.0545 23.771 26.4283C22.6621 27.8021 22.0828 29.1593 22.0166 30.5497C21.8963 32.6969 22.3779 34.8351 23.4069 36.7235C24.2179 38.1966 25.211 39.2724 26.4193 40.0173C26.7517 40.2465 27.1415 40.3783 27.5448 40.398C27.7655 40.3997 27.9826 40.3425 28.1738 40.2324L28.4386 41.0931C28.7035 41.9704 28.9848 42.8642 29.2993 43.758C29.6138 44.6518 30.16 46.009 30.5903 47.118C30.8717 47.8131 31.1531 48.5414 31.4345 49.2697C31.7852 50.122 31.9814 51.03 32.0138 51.9511C32.0164 52.5677 32.2329 53.1644 32.6262 53.6393C32.8927 53.9525 33.2266 54.2015 33.6028 54.3676C33.7785 54.4522 33.9705 54.4973 34.1655 54.5C34.8276 54.5 35.3738 54.0035 35.4897 53.2918C35.5309 53.0402 35.5475 52.7852 35.5393 52.5304V52.4807C35.513 51.4384 35.5906 50.396 35.771 49.369C35.8869 48.7897 36.0359 48.3262 36.3503 47.929C36.4283 47.8259 36.528 47.7412 36.6425 47.6811C36.7569 47.621 36.8833 47.587 37.0124 47.5814C37.1392 47.5871 37.2631 47.6213 37.3749 47.6815C37.4866 47.7416 37.5834 47.8263 37.6579 47.929C37.8223 48.1231 37.9462 48.3483 38.0221 48.5911C38.1934 49.2271 38.3206 49.8741 38.4028 50.5276C38.4524 51.0573 38.4524 51.62 38.4524 52.1497C38.469 52.4311 38.469 52.6959 38.469 52.9607C38.5021 53.6228 38.7503 54.0697 39.2469 54.3345C39.4528 54.4375 39.6788 54.494 39.909 54.5C40.2578 54.4894 40.5942 54.3676 40.869 54.1525C41.1055 53.9705 41.3121 53.7527 41.4814 53.5069C41.8026 53.0567 41.9813 52.5205 41.9945 51.9676C42.011 50.958 42.309 50.0311 42.5903 49.2366C42.8717 48.4421 43.3848 47.1345 43.7986 46.1083C44.5434 44.2214 45.3214 42.2849 45.8676 40.249C46.057 40.3466 46.2669 40.3977 46.48 40.398C46.7937 40.3895 47.1006 40.3043 47.3738 40.1497C48.0932 39.7446 48.7371 39.2182 49.2772 38.5938C50.8166 36.8559 51.6938 34.7207 51.9752 32.089C52.0942 31.0943 52.0072 30.0857 51.7196 29.1261C51.432 28.1665 50.95 27.2763 50.3034 26.5111ZM37.0124 20.0062H37.029C37.5803 20.0084 38.1258 20.1194 38.6341 20.3329C39.1424 20.5464 39.6036 20.8581 39.9911 21.2503C40.3786 21.6424 40.6849 22.1073 40.8924 22.6181C41.0998 23.1289 41.2044 23.6756 41.2 24.2269C41.1956 25.3347 40.7525 26.3956 39.9677 27.1773C39.1828 27.9591 38.1202 28.398 37.0124 28.398H36.9959C36.4226 28.4328 35.8483 28.3499 35.3084 28.1542C34.7685 27.9586 34.2743 27.6544 33.8565 27.2604C33.4386 26.8665 33.1059 26.391 32.8789 25.8635C32.6519 25.336 32.5353 24.7676 32.5365 24.1933C32.5376 23.619 32.6564 23.051 32.8855 22.5244C33.1146 21.9978 33.4492 21.5237 33.8686 21.1314C34.288 20.7391 34.7833 20.4368 35.324 20.2433C35.8647 20.0498 36.4393 19.9691 37.0124 20.0062ZM40.8524 31.7745C40.6033 31.7746 40.3545 31.7912 40.1076 31.8242C39.7931 31.8573 39.4952 31.9235 39.1972 31.9731C38.74 32.0775 38.275 32.1439 37.8069 32.1718C37.4765 32.1772 37.1509 32.2522 36.8514 32.3919C36.552 32.5317 36.2854 32.733 36.069 32.9828L35.8703 33.1649L35.7048 33.3138C35.6161 33.3903 35.5439 33.484 35.4927 33.5893C35.4415 33.6946 35.4123 33.8093 35.4069 33.9262C35.4174 34.0455 35.4521 34.1614 35.5091 34.2667C35.566 34.372 35.6439 34.4646 35.7379 34.5387L36.4993 35.1842L35.4069 35.7966L34.0662 32.4366C33.851 31.9235 33.6359 31.7745 33.1062 31.7745H33.0566C31.9881 31.7945 30.9491 32.1285 30.0691 32.7348C29.1891 33.3411 28.5069 34.1929 28.1076 35.1842C28.0767 35.0442 28.038 34.906 27.9917 34.7704C27.7003 33.7391 27.5227 32.679 27.4621 31.609C27.4177 30.9271 27.6436 30.2552 28.091 29.7387C28.6348 29.0805 29.2973 28.5302 30.0441 28.1166C30.5572 27.8187 31.1034 27.5373 31.6331 27.2724L32.0634 27.0407C33.2552 28.9276 34.9103 29.8876 37.0124 29.9042C39.1145 29.9207 40.7531 28.9442 41.9448 27.0573L42.2924 27.2228C42.7559 27.4545 43.2359 27.6862 43.6828 27.9511C44.4931 28.3694 45.2174 28.9365 45.8179 29.6228C46.0779 29.9005 46.2769 30.2295 46.4023 30.5886C46.5278 30.9478 46.5768 31.3291 46.5462 31.7083C46.4582 32.887 46.2417 34.0525 45.9007 35.1842C45.4968 34.1761 44.7998 33.3124 43.8999 32.7045C42.9999 32.0967 41.9384 31.7728 40.8524 31.7745Z" fill="white"/>
<path d="M40.1407 24.2103C40.1363 25.0386 39.8054 25.8318 39.2196 26.4175C38.6339 27.0032 37.8407 27.3342 37.0124 27.3385H36.9959C36.3779 27.3353 35.7747 27.149 35.2624 26.8033C34.7502 26.4576 34.3518 25.9679 34.1175 25.396C33.8833 24.8241 33.8237 24.1956 33.9463 23.5899C34.0688 22.9842 34.3681 22.4283 34.8062 21.9925C35.2444 21.5566 35.8018 21.2603 36.4082 21.1409C37.0146 21.0216 37.6427 21.0845 38.2133 21.3217C38.784 21.559 39.2716 21.9599 39.6146 22.474C39.9576 22.9881 40.1407 23.5923 40.1407 24.2103Z" fill="white"/>
</g>
</g>
<defs>
<filter id="filter0_d_324_9987" x="0" y="0" width="76" height="76" filterUnits="userSpaceOnUse" color-interpolation-filters="sRGB">
<feFlood flood-opacity="0" result="BackgroundImageFix"/>
<feColorMatrix in="SourceAlpha" type="matrix" values="0 0 0 0 0 0 0 0 0 0 0 0 0 0 0 0 0 0 127 0" result="hardAlpha"/>
<feOffset dx="2" dy="2"/>
<feGaussianBlur stdDeviation="4"/>
<feComposite in2="hardAlpha" operator="out"/>
<feColorMatrix type="matrix" values="0 0 0 0 0 0 0 0 0 0 0 0 0 0 0 0 0 0 0.04 0"/>
<feBlend mode="normal" in2="BackgroundImageFix" result="effect1_dropShadow_324_9987"/>
<feBlend mode="normal" in="SourceGraphic" in2="effect1_dropShadow_324_9987" result="shape"/>
</filter>
<clipPath id="clip0_324_9987">
<rect width="30.0248" height="36" fill="white" transform="translate(22 18.5)"/>
</clipPath>
</defs>
</svg>
