<svg width="40" height="40" viewBox="0 0 40 40" fill="none" xmlns="http://www.w3.org/2000/svg">
<path d="M22.3154 31.9999C22.1306 32.0013 21.9484 31.9633 21.7862 31.8895C21.3893 31.7239 21.1909 31.4148 21.1644 30.9843V30.4434C21.1512 30.0791 21.1512 29.7148 21.1115 29.3616C21.0458 28.9258 20.9441 28.4942 20.8072 28.07C20.7465 27.9081 20.6475 27.758 20.5161 27.6285C20.4596 27.5574 20.3829 27.4991 20.2929 27.4587C20.2029 27.4183 20.1024 27.397 20.0002 27.3967C19.8964 27.3979 19.7944 27.4196 19.7024 27.4599C19.6105 27.5001 19.5312 27.5579 19.471 27.6285C19.2196 27.8824 19.1006 28.1915 19.0079 28.5889C18.836 29.2843 18.8227 30.0239 18.8227 30.6531V30.6973C18.8289 30.8672 18.8156 31.0373 18.783 31.2051C18.7512 31.4218 18.6265 31.6216 18.432 31.7677C18.2375 31.9137 17.9863 31.9962 17.7247 31.9999C17.5698 32.0019 17.4162 31.9755 17.2749 31.9226C16.977 31.8079 16.7111 31.6424 16.4943 31.4369C16.1818 31.1192 16.0091 30.7219 16.0048 30.3109C15.9791 29.693 15.8223 29.0838 15.5418 28.5116L14.8671 27.0765C14.5231 26.348 14.1659 25.5863 13.8351 24.8357C13.5044 24.085 13.3589 23.6435 13.1472 23.0584C13.081 22.8707 13.0017 22.6831 12.9355 22.4954C12.7827 22.5688 12.6091 22.6069 12.4328 22.6058C12.0756 22.6058 11.7713 22.4623 11.5332 22.3519C10.5674 21.8441 9.77361 21.1266 9.12536 20.1552C8.30418 18.8953 7.91939 17.4696 8.01406 16.0377C8.06698 15.0994 8.51679 14.2052 9.41641 13.289C10.316 12.3727 11.467 11.5669 13.081 10.739C14.1604 10.1995 15.2883 9.73076 16.4546 9.33705C16.5216 9.31736 16.581 9.28306 16.6266 9.2377C17.0553 8.84676 17.577 8.53475 18.1584 8.32163C18.7398 8.10851 19.3681 7.99897 20.0031 8.00001C20.6381 8.00105 21.2659 8.11264 21.8463 8.32766C22.4267 8.54269 22.9469 8.8564 23.3738 9.24874C23.4362 9.29544 23.5078 9.33278 23.5854 9.35913C25.9932 10.1981 27.8322 11.1033 29.3404 12.2182C29.8041 12.5598 30.2333 12.9327 30.6236 13.3331C31.139 13.8442 31.5235 14.4379 31.7533 15.0778C31.9831 15.7176 32.0534 16.3899 31.9598 17.0532C31.7482 18.8195 31.0338 20.2435 29.8034 21.4026C29.3715 21.8158 28.8567 22.1632 28.282 22.4292C28.067 22.5402 27.8203 22.6012 27.5676 22.6058C27.3962 22.6018 27.2285 22.564 27.0781 22.4954C26.6547 23.8532 26.0329 25.1558 25.4244 26.4142C25.0936 27.0876 24.7629 27.7941 24.4586 28.5006C24.2337 29.0194 23.9956 29.6486 23.9823 30.3109C23.9805 30.6843 23.8369 31.0476 23.5722 31.3486C23.4369 31.5125 23.2718 31.6578 23.0827 31.7791C22.8601 31.9167 22.5922 31.9937 22.3154 31.9999ZM20.0002 26.3921C20.3207 26.3955 20.6348 26.4673 20.9127 26.6006C21.1906 26.734 21.423 26.9244 21.5877 27.1538C21.8244 27.4918 22.0026 27.856 22.1169 28.2356C22.3815 29.0967 22.3815 29.9798 22.3683 30.7525V30.9622C22.4179 30.9391 22.4626 30.9092 22.5006 30.8739C22.6826 30.6989 22.7855 30.4763 22.7916 30.2447C22.803 30.1715 22.8074 30.0977 22.8049 30.0239C22.8053 29.8525 22.8319 29.6819 22.8843 29.5161C23.0827 28.898 23.3208 28.2025 23.5987 27.5402L24.5247 25.5201C24.8819 24.7584 25.2391 23.9525 25.5831 23.1688C26.0197 22.1532 26.2314 21.2922 26.2181 20.4753C26.2147 19.7794 25.8818 19.1128 25.2921 18.6208C24.7023 18.1287 23.9035 17.8509 23.0695 17.848L22.6197 17.8701L21.892 17.9695C21.4941 18.038 21.0923 18.0895 20.6881 18.124C20.5238 18.1311 20.3664 18.1813 20.2383 18.2675L20.278 18.3006L20.9263 18.7532C21.1512 18.9078 21.257 19.0734 21.2305 19.25C21.2041 19.4266 20.913 19.6474 20.8204 19.6915L18.836 20.6298C18.702 20.7035 18.5465 20.7455 18.3862 20.7513C18.0025 20.7513 17.857 20.4422 17.804 20.3207L17.5527 19.813C17.2352 19.1617 16.9309 18.5104 16.6266 17.8591C14.92 18.0247 13.7558 19.1396 13.769 20.5636C13.789 21.2932 13.9452 22.0157 14.232 22.7051C14.6951 23.787 15.1846 24.8798 15.6608 25.9395C15.8196 26.2707 15.9651 26.6129 16.1239 26.9551L16.3223 27.3967C16.7457 28.3239 17.1955 29.2843 17.2219 30.3441C17.2217 30.4436 17.2462 30.5422 17.294 30.6334C17.3419 30.7246 17.4119 30.8065 17.4998 30.8739C17.5288 30.8973 17.5658 30.9127 17.6056 30.9181C17.6056 30.896 17.6188 30.8739 17.6188 30.8518L17.6585 30.0791C17.6717 29.7038 17.685 29.3064 17.7379 28.909C17.7743 28.2828 18.002 27.6748 18.3994 27.1428C18.5706 26.9166 18.8066 26.7296 19.086 26.5986C19.3655 26.4675 19.6797 26.3966 20.0002 26.3921ZM24.6041 12.8585C24.9216 12.9799 25.2127 13.0903 25.5037 13.2227C26.3372 13.587 27.3956 14.1279 28.1629 14.989C28.6656 15.563 28.8905 16.148 28.8112 16.7441V16.9318C28.7493 17.5378 28.6343 18.1392 28.4672 18.7311C28.282 19.3493 28.0306 19.9675 27.7792 20.5526C27.6866 20.7844 27.5808 21.0162 27.4882 21.2591C27.4782 21.383 27.5255 21.5055 27.6205 21.6013H27.6337L27.7528 21.535L27.9909 21.3805C28.3186 21.1832 28.6242 20.9615 28.9038 20.7181C29.8828 19.824 30.5046 18.687 30.7162 17.3513C30.8221 16.6779 30.8618 16.1149 30.703 15.563C30.4649 14.8123 29.9754 14.1279 29.1287 13.4104C28.0306 12.4831 26.6812 11.7104 24.7629 10.8935L24.3792 10.739C24.6173 11.3999 24.6311 12.1031 24.4189 12.7701L24.6041 12.8585ZM15.555 10.7831L14.5363 11.2137C12.7768 12.0195 11.5729 12.7812 10.5939 13.6753C9.82653 14.3929 9.40318 15.0552 9.25765 15.7727C9.11213 16.4903 9.17828 17.0864 9.41641 17.9695C9.80007 19.3604 10.5674 20.4311 11.7581 21.2591C11.945 21.3855 12.1493 21.4929 12.3666 21.5792H12.4063C12.4587 21.5305 12.4938 21.4707 12.5078 21.4064C12.5218 21.3421 12.5142 21.2758 12.4857 21.2149C11.8941 20.0163 11.4723 18.7641 11.2289 17.4838C10.9643 16.1591 11.4538 15.0773 12.6577 14.2714C13.1116 13.9527 13.5987 13.6682 14.113 13.4214C14.4834 13.2227 14.8935 13.0682 15.2772 12.9026L15.5947 12.7812C15.3852 12.1219 15.3943 11.4274 15.6211 10.7721L15.555 10.7831ZM16.878 16.8545C17.3013 16.8545 17.4733 16.9539 17.6453 17.2961L18.7169 19.537L19.5901 19.1175L18.9815 18.687C18.9067 18.6397 18.8445 18.58 18.799 18.5116C18.7534 18.4431 18.7255 18.3675 18.7169 18.2896C18.7196 18.2113 18.7422 18.1344 18.7833 18.064C18.8243 17.9936 18.8829 17.9312 18.955 17.8812L19.0873 17.7818L19.2461 17.6604C19.4168 17.4916 19.6294 17.3558 19.8693 17.2624C20.1092 17.169 20.3705 17.1202 20.6352 17.1195C21.0087 17.0955 21.3799 17.0512 21.7465 16.987L22.4741 16.8766L23.0695 16.8435C23.939 16.8432 24.7886 17.0609 25.5081 17.4683C26.2276 17.8758 26.7838 18.4542 27.1045 19.1285C27.3771 18.3738 27.5501 17.5965 27.6205 16.8104C27.645 16.5584 27.6072 16.3049 27.5093 16.0656C27.4115 15.8263 27.2557 15.6064 27.0516 15.4195C26.5667 14.9632 25.9889 14.582 25.345 14.2935L24.2205 13.8188L23.9426 13.6974C22.9901 14.9558 21.6671 15.5961 20.0002 15.5961C18.3332 15.5961 16.997 14.9558 16.0445 13.6974L15.7005 13.8409C15.2772 14.0286 14.8406 14.2052 14.4305 14.4039C13.8328 14.6835 13.3032 15.0542 12.8694 15.4968C12.5179 15.8441 12.3381 16.2901 12.3666 16.7441C12.4151 17.4541 12.5571 18.1575 12.79 18.8415L12.8958 19.1285C13.2097 18.4667 13.7519 17.8973 14.4536 17.4925C15.1554 17.0878 15.9853 16.8657 16.8383 16.8545H16.878ZM20.0002 9.00589C19.5421 8.98112 19.0828 9.03493 18.6506 9.16399C18.2184 9.29305 17.8225 9.49462 17.4873 9.75628C17.1521 10.0179 16.8847 10.3341 16.7016 10.6853C16.5184 11.0366 16.4235 11.4154 16.4226 11.7984C16.4217 12.1814 16.5148 12.5605 16.6963 12.9123C16.8777 13.2641 17.1437 13.5812 17.4777 13.8439C17.8116 14.1067 18.2066 14.3096 18.6382 14.4401C19.0697 14.5705 19.5288 14.6259 19.9869 14.6026H20.0002C20.8534 14.5593 21.6547 14.2463 22.2411 13.7274C22.8275 13.2085 23.1548 12.5226 23.1565 11.8094C23.1582 11.0962 22.8341 10.4093 22.2502 9.88844C21.6662 9.36759 20.8664 9.052 20.0134 9.00589H20.0002Z" fill="white"/>
<path d="M26.9054 22.0981C26.2704 24.3059 25.093 26.326 24.1933 28.4234C23.9287 29.0306 23.7171 29.6487 23.7038 30.3111C23.6926 30.6319 23.5684 30.9429 23.3466 31.2052C23.2259 31.3521 23.0786 31.4824 22.9101 31.5916C22.6058 31.7682 22.2618 31.8344 21.9178 31.6799C21.5739 31.5254 21.468 31.2715 21.4548 30.9734C21.4283 30.4325 21.4548 29.8806 21.3886 29.3397C21.3224 28.8885 21.2163 28.442 21.0711 28.004C21.0064 27.8133 20.8937 27.6364 20.7404 27.4851C20.3303 27.0436 19.6555 27.0546 19.2454 27.4851C18.9771 27.796 18.8004 28.1553 18.7295 28.5338C18.5758 29.2326 18.5137 29.9433 18.5443 30.6533C18.5513 30.8232 18.538 30.9933 18.5046 31.1611C18.412 31.6357 17.9092 31.8896 17.38 31.702C17.1255 31.6042 16.8997 31.461 16.7186 31.2825C16.4384 31.0084 16.2837 30.6603 16.282 30.3C16.2578 29.6595 16.0965 29.0277 15.8057 28.4345C15.2368 27.2092 14.6415 25.9949 14.0991 24.7585C13.7419 23.9196 13.4508 23.0475 13.1201 22.1975C13.1006 22.1663 13.0872 22.1328 13.0804 22.0981C12.6173 22.5066 12.1543 22.3852 11.678 22.1423C10.6726 21.6345 9.94494 20.8949 9.37607 20.0449C8.57402 18.8236 8.1982 17.4393 8.29123 16.0488C8.34415 15.0443 8.88657 14.1943 9.62743 13.4326C10.6329 12.406 11.8897 11.6222 13.2391 10.9489C14.2976 10.4089 15.4084 9.9436 16.5598 9.55797C16.6645 9.52347 16.7592 9.47079 16.8376 9.40343C17.2381 9.03582 17.7263 8.74211 18.2708 8.54113C18.8153 8.34015 19.4041 8.23633 19.9995 8.23633C20.5949 8.23633 21.1837 8.34015 21.7282 8.54113C22.2728 8.74211 22.7609 9.03582 23.1614 9.40343C23.2481 9.48079 23.3576 9.53787 23.4789 9.56901C25.5295 10.2865 27.4743 11.1586 29.1545 12.395C29.6023 12.7318 30.0181 13.0972 30.3981 13.4878C30.8963 13.9711 31.2679 14.536 31.4889 15.1463C31.7099 15.7565 31.7755 16.3986 31.6814 17.0313C31.4829 18.6099 30.8743 20.0449 29.5911 21.2371C29.1892 21.6378 28.6999 21.9712 28.149 22.2196C27.7124 22.4183 27.3023 22.4404 26.9054 22.0981ZM19.8143 18.2787L20.7404 18.93C21.0447 19.1397 21.0182 19.3163 20.6742 19.4819L18.6898 20.4313C18.359 20.5858 18.2135 20.5527 18.0548 20.2326C17.6711 19.4157 17.2742 18.5988 16.8773 17.7709C16.8244 17.6605 16.7847 17.6053 16.6259 17.6274C14.7738 17.793 13.464 19.0073 13.4905 20.5637C13.5026 21.3201 13.6635 22.0697 13.9668 22.7826C14.5753 24.2066 15.2236 25.6196 15.8586 27.0325C16.3349 28.1143 16.9038 29.163 16.9302 30.3442C16.9318 30.4777 16.9667 30.6095 17.0328 30.7312C17.0988 30.8528 17.1946 30.9617 17.3139 31.0507C17.433 31.139 17.6049 31.1611 17.7637 31.2163C17.8334 31.1063 17.8782 30.9865 17.896 30.863C17.9489 30.2228 17.9489 29.5715 18.0151 28.9312C18.0812 28.291 18.24 27.7721 18.6369 27.2754C19.3248 26.4144 20.6875 26.4033 21.3357 27.2754C21.5682 27.5929 21.738 27.9395 21.8384 28.302C22.0898 29.0968 22.0898 29.9247 22.0898 30.7526C22.0832 30.8482 22.0832 30.9441 22.0898 31.0396C22.1295 31.2163 22.2486 31.2825 22.447 31.1942C22.5464 31.1527 22.636 31.0966 22.7116 31.0286C22.9271 30.8184 23.0528 30.5543 23.0688 30.278C23.075 30.0448 23.1015 29.8124 23.1482 29.5825C23.3731 28.9202 23.5848 28.2578 23.8758 27.6176C24.5109 26.1605 25.212 24.7144 25.8471 23.2462C26.2307 22.3631 26.5085 21.4358 26.5085 20.4754C26.5057 20.0649 26.3978 19.6596 26.1919 19.2867C25.9861 18.9138 25.6871 18.582 25.3151 18.3133C24.943 18.0447 24.5065 17.8455 24.0346 17.7291C23.5628 17.6127 23.0666 17.5818 22.5793 17.6384C21.9443 17.7157 21.3093 17.8482 20.661 17.8923C20.4948 17.9018 20.333 17.9412 20.1868 18.0079C20.0406 18.0746 19.9135 18.167 19.8143 18.2787ZM20.0789 19.1618L19.166 18.5105C18.9544 18.356 18.9544 18.2125 19.1528 18.0469C19.3513 17.8813 19.3645 17.9034 19.4571 17.8151C19.6038 17.6708 19.7862 17.5547 19.9917 17.4746C20.1972 17.3946 20.421 17.3526 20.6478 17.3514C21.2696 17.3293 21.8914 17.1858 22.5132 17.1086C23.5295 16.9971 24.559 17.2072 25.399 17.6976C26.2389 18.188 26.8282 18.923 27.051 19.7579C27.0614 19.811 27.0791 19.8628 27.1039 19.9124C27.5311 18.9154 27.8023 17.8765 27.9109 16.8216C27.9328 16.5391 27.8868 16.2559 27.7755 15.9886C27.6641 15.7213 27.4897 15.4753 27.2626 15.2651C26.7535 14.7912 26.1491 14.3952 25.4766 14.095C24.9342 13.8411 24.3786 13.6203 23.8361 13.3995C22.963 14.6579 21.7062 15.3644 19.9863 15.3644C18.2664 15.3644 17.0228 14.6469 16.1497 13.3885C15.5279 13.6534 14.8929 13.9183 14.2975 14.2053C13.6691 14.494 13.1124 14.8799 12.657 15.3423C12.2561 15.7345 12.0522 16.2407 12.0882 16.7553C12.1335 17.4845 12.28 18.2069 12.5247 18.9079C12.6306 19.228 12.7496 19.5482 12.8687 19.8683C12.8916 19.854 12.9106 19.8358 12.9243 19.8148C12.938 19.7939 12.9461 19.7707 12.9481 19.7469C13.1441 19.0033 13.6344 18.3365 14.34 17.8539C15.0456 17.3713 15.9254 17.101 16.8376 17.0865C17.1816 17.0865 17.2477 17.1196 17.38 17.3845C17.7505 18.1462 18.1077 18.9079 18.4781 19.6806L18.5839 19.8683L20.0789 19.1618ZM24.061 12.9028C24.5241 13.0904 24.9474 13.245 25.3708 13.4326C26.3498 13.8631 27.2626 14.3709 27.9373 15.1216C28.3607 15.5962 28.6121 16.1261 28.5327 16.7222C28.4533 17.3183 28.3872 18.0469 28.1887 18.6761C27.9241 19.5261 27.5405 20.343 27.2097 21.1819C27.1861 21.2882 27.193 21.3976 27.2297 21.5012C27.2665 21.6048 27.3322 21.6997 27.4214 21.778C27.6066 21.9105 27.7786 21.8111 27.9109 21.7339C28.321 21.4579 28.7576 21.204 29.1016 20.8949C30.1864 19.9014 30.7685 18.7092 30.9802 17.3845C31.086 16.7664 31.1522 16.1371 30.9537 15.519C30.6891 14.6248 30.0673 13.8963 29.3132 13.256C28.03 12.1742 26.4953 11.3794 24.8681 10.695L23.8626 10.2865C24.3271 11.1054 24.3981 12.0416 24.061 12.9028ZM16.11 10.3086L15.8719 10.3969C15.3824 10.5956 14.8796 10.7943 14.4034 11.0151C12.9216 11.6885 11.5193 12.4612 10.3815 13.5209C9.69358 14.1612 9.15116 14.8677 8.97917 15.7397C8.80719 16.6118 8.93949 17.2631 9.13793 18.0138C9.52159 19.3715 10.2757 20.5417 11.5722 21.4358C11.7851 21.5776 12.0157 21.6998 12.2601 21.8001C12.3134 21.8149 12.3701 21.8186 12.4255 21.8109C12.4808 21.8032 12.5331 21.7843 12.5777 21.7559C12.6797 21.6758 12.7507 21.5719 12.7813 21.4578C12.812 21.3437 12.801 21.2245 12.7496 21.1157C12.1651 19.9349 11.7477 18.7013 11.506 17.4397C11.2679 16.2144 11.678 15.2209 12.829 14.4372C13.2783 14.1352 13.7512 13.8586 14.2446 13.6092C14.787 13.3443 15.3559 13.1346 15.9248 12.8917C15.6018 12.0412 15.6678 11.121 16.11 10.3086ZM16.3614 11.7878C16.3587 12.3882 16.5696 12.9758 16.9671 13.4762C17.3647 13.9766 17.9312 14.3674 18.595 14.5992C19.2588 14.831 19.9901 14.8933 20.6963 14.7783C21.4025 14.6634 22.052 14.3762 22.5627 13.9532C23.0734 13.5302 23.4222 12.9903 23.5652 12.4019C23.7081 11.8135 23.6387 11.2029 23.3658 10.6473C23.0928 10.0918 22.6286 9.6163 22.0318 9.28092C21.4349 8.94553 20.7323 8.76536 20.0128 8.76317C19.5345 8.76026 19.0603 8.83634 18.6174 8.98704C18.1746 9.13774 17.7718 9.36007 17.4324 9.64123C17.093 9.92238 16.8236 10.2568 16.6398 10.6252C16.456 10.9936 16.3613 11.3888 16.3614 11.7878Z" fill="white"/>
<path d="M19.9872 13.8856C19.3276 13.8856 18.695 13.6669 18.2285 13.2777C17.7621 12.8886 17.5 12.3607 17.5 11.8103C17.4974 11.3972 17.6418 10.9927 17.915 10.6482C18.1881 10.3036 18.5777 10.0345 19.0344 9.87489C19.491 9.71529 19.9942 9.67239 20.4801 9.75164C20.966 9.83089 21.4128 10.0287 21.7638 10.3201C22.1148 10.6114 22.3543 10.9831 22.4518 11.3881C22.5494 11.7931 22.5006 12.2132 22.3118 12.5951C22.1229 12.977 21.8024 13.3035 21.391 13.5332C20.9795 13.7629 20.4955 13.8856 20.0004 13.8856H19.9872ZM19.9872 10.7174C19.6644 10.746 19.3658 10.8735 19.1492 11.0753C18.9327 11.2772 18.8138 11.5389 18.8154 11.8098C18.8171 12.0806 18.9392 12.3413 19.1582 12.5413C19.3771 12.7413 19.6773 12.8663 20.0004 12.8921C20.3421 12.8847 20.6679 12.7704 20.9133 12.572C21.0976 12.4213 21.2238 12.2282 21.2758 12.0173C21.3279 11.8064 21.3033 11.5874 21.2052 11.3882C21.1072 11.1891 20.9402 11.0189 20.7256 10.8994C20.5109 10.7799 20.2585 10.7165 20.0004 10.7174H19.9872Z" fill="white"/>
<path d="M19.9882 13.6524C19.548 13.6524 19.1178 13.5434 18.752 13.3391C18.3862 13.1348 18.1014 12.8445 17.9335 12.505C17.7657 12.1655 17.7225 11.7921 17.8093 11.432C17.8961 11.072 18.1091 10.7415 18.4213 10.4826C18.7335 10.2237 19.1307 10.048 19.5627 9.97766C19.9947 9.90735 20.442 9.94566 20.8479 10.0877C21.2538 10.2298 21.6 10.4692 21.8426 10.7756C22.0853 11.082 22.2134 11.4417 22.2108 11.8089C22.2108 12.052 22.1532 12.2926 22.0413 12.517C21.9295 12.7414 21.7656 12.9451 21.559 13.1164C21.3524 13.2877 21.1073 13.4233 20.8377 13.5153C20.5681 13.6073 20.2794 13.6539 19.9882 13.6524ZM20.0014 13.1226C20.316 13.1226 20.6234 13.0446 20.8848 12.8985C21.1461 12.7525 21.3496 12.5449 21.4693 12.3022C21.5891 12.0595 21.6198 11.7926 21.5574 11.5354C21.4951 11.2781 21.3426 11.0421 21.1192 10.8573C20.8959 10.6725 20.6118 10.5472 20.3029 10.4973C19.9941 10.4475 19.6745 10.4753 19.3846 10.5773C19.0948 10.6792 18.8478 10.8507 18.6749 11.07C18.5021 11.2893 18.4112 11.5465 18.4138 11.8089C18.4138 11.9824 18.455 12.1541 18.5349 12.3142C18.6149 12.4743 18.732 12.6196 18.8796 12.7417C19.0272 12.8639 19.2023 12.9604 19.3949 13.0258C19.5874 13.0911 19.7936 13.124 20.0014 13.1226Z" fill="white"/>
</svg>
