<svg width="76" height="77" viewBox="0 0 76 77" fill="none" xmlns="http://www.w3.org/2000/svg">
<g filter="url(#filter0_d_324_9874)">
<rect x="6" y="6.5" width="60" height="60" rx="30" fill="white"/>
<g clip-path="url(#clip0_324_9874)">
<path d="M50.3035 26.0111C49.8106 25.4147 49.274 24.8559 48.698 24.3393C46.8111 22.6676 44.5104 21.2938 41.498 20.0359C41.395 19.9981 41.2997 19.9421 41.2166 19.8704C40.6843 19.2813 40.0344 18.8104 39.3088 18.4881C38.5832 18.1658 37.7981 17.9993 37.0042 17.9993C36.2102 17.9993 35.4251 18.1658 34.6995 18.4881C33.974 18.8104 33.324 19.2813 32.7918 19.8704C32.7299 19.9329 32.6569 19.9834 32.5766 20.0193C31.1174 20.6097 29.7062 21.3125 28.3559 22.1214C26.3366 23.3462 24.88 24.5545 23.7711 25.9283C22.6621 27.3021 22.0828 28.6593 22.0166 30.0497C21.8964 32.1969 22.3779 34.3351 23.4069 36.2235C24.218 37.6966 25.2111 38.7724 26.4194 39.5173C26.7518 39.7465 27.1416 39.8783 27.5449 39.898C27.7655 39.8997 27.9826 39.8425 28.1738 39.7324L28.4387 40.5931C28.7035 41.4704 28.9849 42.3642 29.2994 43.258C29.6138 44.1518 30.16 45.509 30.5904 46.618C30.8718 47.3131 31.1532 48.0414 31.4345 48.7697C31.7853 49.622 31.9814 50.53 32.0138 51.4511C32.0165 52.0677 32.2329 52.6644 32.6263 53.1393C32.8928 53.4525 33.2266 53.7015 33.6028 53.8676C33.7785 53.9522 33.9706 53.9973 34.1656 54C34.8276 54 35.3738 53.5035 35.4897 52.7918C35.531 52.5402 35.5476 52.2852 35.5394 52.0304V51.9807C35.513 50.9384 35.5906 49.896 35.7711 48.869C35.8869 48.2897 36.0359 47.8262 36.3504 47.429C36.4283 47.3259 36.5281 47.2412 36.6425 47.1811C36.757 47.121 36.8833 47.087 37.0125 47.0814C37.1393 47.0871 37.2632 47.1213 37.3749 47.1815C37.4867 47.2416 37.5834 47.3263 37.658 47.429C37.8224 47.6231 37.9462 47.8483 38.0221 48.0911C38.1934 48.7271 38.3206 49.3741 38.4028 50.0276C38.4525 50.5573 38.4525 51.12 38.4525 51.6497C38.469 51.9311 38.469 52.1959 38.469 52.4607C38.5021 53.1228 38.7504 53.5697 39.2469 53.8345C39.4529 53.9375 39.6789 53.994 39.909 54C40.2579 53.9894 40.5942 53.8676 40.869 53.6525C41.1055 53.4705 41.3122 53.2527 41.4814 53.0069C41.8026 52.5567 41.9813 52.0205 41.9945 51.4676C42.0111 50.458 42.309 49.5311 42.5904 48.7366C42.8718 47.9421 43.3849 46.6345 43.7987 45.6083C44.5435 43.7214 45.3214 41.7849 45.8676 39.749C46.057 39.8466 46.267 39.8977 46.48 39.898C46.7938 39.8895 47.1007 39.8043 47.3738 39.6497C48.0932 39.2446 48.7372 38.7182 49.2773 38.0938C50.8166 36.3559 51.6938 34.2207 51.9752 31.589C52.0943 30.5943 52.0073 29.5857 51.7197 28.6261C51.4321 27.6665 50.95 26.7763 50.3035 26.0111ZM37.0125 19.5062H37.029C37.5803 19.5084 38.1258 19.6194 38.6341 19.8329C39.1424 20.0464 39.6036 20.3581 39.9911 20.7503C40.3787 21.1424 40.6849 21.6073 40.8924 22.1181C41.0999 22.6289 41.2044 23.1756 41.2 23.7269C41.1957 24.8347 40.7525 25.8956 39.9677 26.6773C39.1828 27.4591 38.1202 27.898 37.0125 27.898H36.9959C36.4227 27.9328 35.8484 27.8499 35.3084 27.6542C34.7685 27.4586 34.2744 27.1544 33.8565 26.7604C33.4387 26.3665 33.106 25.891 32.879 25.3635C32.6519 24.836 32.5354 24.2676 32.5365 23.6933C32.5377 23.119 32.6564 22.551 32.8855 22.0244C33.1146 21.4978 33.4492 21.0237 33.8686 20.6314C34.288 20.2391 34.7833 19.9368 35.324 19.7433C35.8647 19.5498 36.4394 19.4691 37.0125 19.5062ZM40.8525 31.2745C40.6034 31.2746 40.3545 31.2912 40.1076 31.3242C39.7932 31.3573 39.4952 31.4235 39.1973 31.4731C38.7401 31.5775 38.2751 31.6439 37.8069 31.6718C37.4765 31.6772 37.151 31.7522 36.8515 31.8919C36.552 32.0317 36.2854 32.233 36.069 32.4828L35.8704 32.6649L35.7049 32.8138C35.6162 32.8903 35.544 32.984 35.4928 33.0893C35.4415 33.1946 35.4123 33.3093 35.4069 33.4262C35.4174 33.5455 35.4522 33.6614 35.5091 33.7667C35.566 33.872 35.6439 33.9646 35.738 34.0387L36.4994 34.6842L35.4069 35.2966L34.0663 31.9366C33.8511 31.4235 33.6359 31.2745 33.1063 31.2745H33.0566C31.9881 31.2945 30.9492 31.6285 30.0692 32.2348C29.1891 32.8411 28.507 33.6929 28.1076 34.6842C28.0767 34.5442 28.0381 34.406 27.9918 34.2704C27.7004 33.2391 27.5228 32.179 27.4621 31.109C27.4177 30.4271 27.6437 29.7552 28.0911 29.2387C28.6348 28.5805 29.2974 28.0302 30.0442 27.6166C30.5573 27.3187 31.1035 27.0373 31.6332 26.7724L32.0635 26.5407C33.2552 28.4276 34.9104 29.3876 37.0125 29.4042C39.1145 29.4207 40.7532 28.4442 41.9449 26.5573L42.2925 26.7228C42.7559 26.9545 43.2359 27.1862 43.6828 27.4511C44.4931 27.8694 45.2175 28.4365 45.818 29.1228C46.0779 29.4005 46.277 29.7295 46.4024 30.0886C46.5278 30.4478 46.5768 30.8291 46.5463 31.2083C46.4582 32.387 46.2418 33.5525 45.9007 34.6842C45.4968 33.6761 44.7998 32.8124 43.8999 32.2045C43 31.5967 41.9384 31.2728 40.8525 31.2745Z" fill="#161616"/>
<path d="M40.1407 23.7103C40.1364 24.5386 39.8054 25.3318 39.2197 25.9175C38.6339 26.5032 37.8408 26.8342 37.0124 26.8385H36.9959C36.3779 26.8353 35.7747 26.649 35.2624 26.3033C34.7502 25.9576 34.3518 25.4679 34.1176 24.896C33.8833 24.3241 33.8237 23.6956 33.9463 23.0899C34.0689 22.4842 34.3681 21.9283 34.8063 21.4925C35.2444 21.0566 35.8018 20.7603 36.4082 20.6409C37.0146 20.5216 37.6427 20.5845 38.2134 20.8217C38.784 21.059 39.2716 21.4599 39.6146 21.974C39.9576 22.4881 40.1407 23.0923 40.1407 23.7103Z" fill="#161616"/>
</g>
</g>
<defs>
<filter id="filter0_d_324_9874" x="0" y="0.5" width="76" height="76" filterUnits="userSpaceOnUse" color-interpolation-filters="sRGB">
<feFlood flood-opacity="0" result="BackgroundImageFix"/>
<feColorMatrix in="SourceAlpha" type="matrix" values="0 0 0 0 0 0 0 0 0 0 0 0 0 0 0 0 0 0 127 0" result="hardAlpha"/>
<feOffset dx="2" dy="2"/>
<feGaussianBlur stdDeviation="4"/>
<feComposite in2="hardAlpha" operator="out"/>
<feColorMatrix type="matrix" values="0 0 0 0 0 0 0 0 0 0 0 0 0 0 0 0 0 0 0.04 0"/>
<feBlend mode="normal" in2="BackgroundImageFix" result="effect1_dropShadow_324_9874"/>
<feBlend mode="normal" in="SourceGraphic" in2="effect1_dropShadow_324_9874" result="shape"/>
</filter>
<clipPath id="clip0_324_9874">
<rect width="30.0248" height="36" fill="white" transform="translate(22 18)"/>
</clipPath>
</defs>
</svg>
