<svg width="24" height="24" viewBox="0 0 24 24" fill="none" xmlns="http://www.w3.org/2000/svg">
<path d="M18.9054 14.0981C18.2704 16.3059 17.093 18.326 16.1933 20.4234C15.9287 21.0306 15.7171 21.6487 15.7038 22.3111C15.6926 22.6319 15.5684 22.9429 15.3466 23.2052C15.2259 23.3521 15.0786 23.4824 14.9101 23.5916C14.6058 23.7682 14.2618 23.8344 13.9178 23.6799C13.5739 23.5254 13.468 23.2715 13.4548 22.9734C13.4283 22.4325 13.4548 21.8806 13.3886 21.3397C13.3224 20.8885 13.2163 20.442 13.0711 20.004C13.0064 19.8133 12.8937 19.6364 12.7404 19.4851C12.3303 19.0436 11.6555 19.0546 11.2454 19.4851C10.9771 19.796 10.8004 20.1553 10.7295 20.5338C10.5758 21.2326 10.5137 21.9433 10.5443 22.6533C10.5513 22.8232 10.538 22.9933 10.5046 23.1611C10.412 23.6357 9.90923 23.8896 9.38004 23.702C9.12546 23.6042 8.89967 23.461 8.71855 23.2825C8.43838 23.0084 8.28369 22.6603 8.28197 22.3C8.25776 21.6595 8.09646 21.0277 7.8057 20.4345C7.23683 19.2092 6.64149 17.9949 6.09907 16.7585C5.74187 15.9196 5.45082 15.0475 5.12007 14.1975C5.10061 14.1663 5.08721 14.1328 5.08038 14.0981C4.61734 14.5066 4.1543 14.3852 3.67804 14.1423C2.67258 13.6345 1.94494 12.8949 1.37607 12.0449C0.574022 10.8236 0.1982 9.43928 0.29123 8.04884C0.344149 7.0443 0.886566 6.1943 1.62743 5.43262C2.63289 4.406 3.88971 3.62224 5.23914 2.94887C6.29765 2.40885 7.4084 1.9436 8.5598 1.55797C8.66449 1.52347 8.75919 1.47079 8.83762 1.40343C9.23813 1.03582 9.72629 0.742113 10.2708 0.541131C10.8153 0.340148 11.4041 0.236328 11.9995 0.236328C12.5949 0.236328 13.1837 0.340148 13.7282 0.541131C14.2728 0.742113 14.7609 1.03582 15.1614 1.40343C15.2481 1.48079 15.3576 1.53787 15.4789 1.56901C17.5295 2.28654 19.4743 3.15861 21.1545 4.39497C21.6023 4.73183 22.0181 5.09721 22.3981 5.48781C22.8963 5.9711 23.2679 6.53603 23.4889 7.14629C23.7099 7.75655 23.7755 8.39864 23.6814 9.0313C23.4829 10.6099 22.8743 12.0449 21.5911 13.2371C21.1892 13.6378 20.6999 13.9712 20.149 14.2196C19.7124 14.4183 19.3023 14.4404 18.9054 14.0981ZM11.8143 10.2787L12.7404 10.93C13.0447 11.1397 13.0182 11.3163 12.6742 11.4819L10.6898 12.4313C10.359 12.5858 10.2135 12.5527 10.0548 12.2326C9.67109 11.4157 9.2742 10.5988 8.87731 9.7709C8.82439 9.66051 8.7847 9.60532 8.62595 9.6274C6.77379 9.79298 5.46405 11.0073 5.49051 12.5637C5.50265 13.3201 5.66354 14.0697 5.96677 14.7826C6.57534 16.2066 7.2236 17.6196 7.85862 19.0325C8.33489 20.1143 8.90377 21.163 8.93023 22.3442C8.93179 22.4777 8.96672 22.6095 9.03278 22.7312C9.09884 22.8528 9.19458 22.9617 9.31389 23.0507C9.43296 23.139 9.60494 23.1611 9.7637 23.2163C9.83336 23.1063 9.8782 22.9865 9.896 22.863C9.94892 22.2228 9.94892 21.5715 10.0151 20.9312C10.0812 20.291 10.24 19.7721 10.6369 19.2754C11.3248 18.4144 12.6875 18.4033 13.3357 19.2754C13.5682 19.5929 13.738 19.9395 13.8384 20.302C14.0898 21.0968 14.0898 21.9247 14.0898 22.7526C14.0832 22.8482 14.0832 22.9441 14.0898 23.0396C14.1295 23.2163 14.2486 23.2825 14.447 23.1942C14.5464 23.1527 14.636 23.0966 14.7116 23.0286C14.9271 22.8184 15.0528 22.5543 15.0688 22.278C15.075 22.0448 15.1015 21.8124 15.1482 21.5825C15.3731 20.9202 15.5848 20.2578 15.8758 19.6176C16.5109 18.1605 17.212 16.7144 17.8471 15.2462C18.2307 14.3631 18.5085 13.4358 18.5085 12.4754C18.5057 12.0649 18.3978 11.6596 18.1919 11.2867C17.9861 10.9138 17.6871 10.582 17.3151 10.3133C16.943 10.0447 16.5065 9.84552 16.0346 9.72912C15.5628 9.61272 15.0666 9.5818 14.5793 9.63844C13.9443 9.71571 13.3093 9.84818 12.661 9.89233C12.4948 9.90176 12.333 9.94118 12.1868 10.0079C12.0406 10.0746 11.9135 10.167 11.8143 10.2787ZM12.0789 11.1618L11.166 10.5105C10.9544 10.356 10.9544 10.2125 11.1528 10.0469C11.3513 9.88129 11.3645 9.90337 11.4571 9.81506C11.6038 9.67078 11.7862 9.55466 11.9917 9.47464C12.1972 9.39462 12.421 9.35259 12.6478 9.35143C13.2696 9.32935 13.8914 9.18584 14.5132 9.10857C15.5295 8.99708 16.559 9.20722 17.399 9.69759C18.2389 10.188 18.8282 10.923 19.051 11.7579C19.0614 11.811 19.0791 11.8628 19.1039 11.9124C19.5311 10.9154 19.8023 9.87653 19.9109 8.82156C19.9328 8.53915 19.8868 8.25592 19.7755 7.9886C19.6641 7.72127 19.4897 7.47526 19.2626 7.26508C18.7535 6.79123 18.1491 6.39524 17.4766 6.09495C16.9342 5.84106 16.3786 5.62028 15.8361 5.3995C14.963 6.65794 13.7062 7.36443 11.9863 7.36443C10.2664 7.36443 9.02284 6.6469 8.14967 5.38846C7.52788 5.6534 6.89285 5.91833 6.29752 6.20534C5.66913 6.494 5.11239 6.87988 4.65703 7.34235C4.25607 7.73448 4.05225 8.24074 4.08816 8.75533C4.13352 9.48452 4.28002 10.2069 4.52474 10.9079C4.63057 11.228 4.74964 11.5482 4.86871 11.8683C4.89165 11.854 4.91062 11.8358 4.92432 11.8148C4.93802 11.7939 4.94613 11.7707 4.94809 11.7469C5.14407 11.0033 5.63438 10.3365 6.33999 9.85391C7.04559 9.37129 7.9254 9.10096 8.83762 9.08649C9.18159 9.08649 9.24774 9.11961 9.38004 9.38454C9.75047 10.1462 10.1077 10.9079 10.4781 11.6806L10.5839 11.8683L12.0789 11.1618ZM16.061 4.90275C16.5241 5.09041 16.9474 5.24496 17.3708 5.43262C18.3498 5.86314 19.2626 6.37093 19.9373 7.12157C20.3607 7.59624 20.6121 8.12611 20.5327 8.72221C20.4533 9.31831 20.3872 10.0469 20.1887 10.6761C19.9241 11.5261 19.5405 12.343 19.2097 13.1819C19.1861 13.2882 19.193 13.3976 19.2297 13.5012C19.2665 13.6048 19.3322 13.6997 19.4214 13.778C19.6066 13.9105 19.7786 13.8111 19.9109 13.7339C20.321 13.4579 20.7576 13.204 21.1016 12.8949C22.1864 11.9014 22.7685 10.7092 22.9802 9.38454C23.086 8.76637 23.1522 8.13715 22.9537 7.51897C22.6891 6.62482 22.0673 5.89625 21.3132 5.256C20.03 4.17419 18.4953 3.37939 16.8681 2.69498L15.8626 2.28654C16.3271 3.10538 16.3981 4.04158 16.061 4.90275ZM8.10999 2.30861L7.87185 2.39693C7.38235 2.59563 6.87962 2.79433 6.40335 3.0151C4.92163 3.68848 3.51928 4.4612 2.38152 5.52093C1.69358 6.16119 1.15116 6.86767 0.979174 7.73975C0.807188 8.61182 0.939486 9.26311 1.13793 10.0138C1.52159 11.3715 2.27569 12.5417 3.5722 13.4358C3.78507 13.5776 4.01573 13.6998 4.26014 13.8001C4.31337 13.8149 4.37013 13.8186 4.42547 13.8109C4.48081 13.8032 4.53306 13.7843 4.57765 13.7559C4.67973 13.6758 4.75068 13.5719 4.78134 13.4578C4.812 13.3437 4.80095 13.2245 4.74964 13.1157C4.16509 11.9349 3.74773 10.7013 3.50605 9.43974C3.26791 8.21442 3.67804 7.22092 4.82902 6.43716C5.27828 6.13522 5.75119 5.85863 6.2446 5.60924C6.78702 5.34431 7.35589 5.13457 7.92477 4.89172C7.6018 4.04117 7.66778 3.12096 8.10999 2.30861ZM8.36135 3.78783C8.35874 4.38822 8.56956 4.97578 8.96715 5.47621C9.36474 5.97663 9.93124 6.36744 10.595 6.59922C11.2588 6.831 11.9901 6.89333 12.6963 6.77834C13.4025 6.66335 14.052 6.3762 14.5627 5.9532C15.0734 5.53019 15.4222 4.99034 15.5652 4.40191C15.7081 3.81347 15.6387 3.20288 15.3658 2.64735C15.0928 2.09182 14.6286 1.6163 14.0318 1.28092C13.4349 0.945534 12.7323 0.765357 12.0128 0.76317C11.5345 0.760257 11.0603 0.836343 10.6174 0.987041C10.1746 1.13774 9.77182 1.36007 9.43241 1.64123C9.09299 1.92238 8.82361 2.2568 8.63979 2.62522C8.45597 2.99363 8.36134 3.38876 8.36135 3.78783Z" fill="white"/>
</svg>
