<svg width="76" height="77" viewBox="0 0 76 77" fill="none" xmlns="http://www.w3.org/2000/svg">
<g filter="url(#filter0_d_32_10046)">
<rect x="6" y="6.5" width="60" height="60" rx="30" fill="white"/>
<path d="M39.4731 54.4996C39.1959 54.5017 38.9227 54.4447 38.6793 54.334C38.0839 54.0856 37.7863 53.622 37.7466 52.9762V52.1649C37.7267 51.6184 37.7267 51.072 37.6672 50.5421C37.5687 49.8884 37.4162 49.2411 37.2108 48.6048C37.1198 48.3619 36.9713 48.1367 36.7742 47.9425C36.6894 47.8359 36.5744 47.7484 36.4394 47.6878C36.3044 47.6271 36.1536 47.5952 36.0003 47.5948C35.8445 47.5967 35.6915 47.6292 35.5536 47.6896C35.4157 47.75 35.2968 47.8366 35.2065 47.9425C34.8294 48.3233 34.6508 48.787 34.5119 49.3831C34.2539 50.4262 34.2341 51.5357 34.2341 52.4795V52.5457C34.2433 52.8006 34.2234 53.0557 34.1746 53.3074C34.1268 53.6325 33.9397 53.9321 33.648 54.1512C33.3563 54.3703 32.9794 54.494 32.587 54.4996C32.3546 54.5026 32.1243 54.4631 31.9123 54.3837C31.4654 54.2115 31.0666 53.9634 30.7415 53.6551C30.2727 53.1786 30.0136 52.5826 30.0072 51.9662C29.9686 51.0393 29.7335 50.1255 29.3126 49.2672L28.3006 47.1146C27.7846 46.0217 27.2488 44.8792 26.7527 43.7532C26.2566 42.6273 26.0383 41.9649 25.7208 41.0873C25.6216 40.8059 25.5025 40.5244 25.4033 40.2429C25.174 40.353 24.9137 40.4102 24.6492 40.4085C24.1134 40.4085 23.6569 40.1932 23.2997 40.0276C21.8511 39.2659 20.6604 38.1896 19.688 36.7325C18.4563 34.8427 17.8791 32.7042 18.0211 30.5562C18.1005 29.1488 18.7752 27.8076 20.1246 26.4332C21.474 25.0589 23.2005 23.8501 25.6216 22.6082C27.2405 21.799 28.9324 21.0959 30.6819 20.5053C30.7823 20.4758 30.8714 20.4243 30.9399 20.3563C31.5829 19.7699 32.3654 19.3019 33.2375 18.9822C34.1096 18.6625 35.0521 18.4982 36.0046 18.4998C36.9572 18.5013 37.8989 18.6687 38.7695 18.9913C39.6401 19.3138 40.4204 19.7844 41.0606 20.3729C41.1542 20.4429 41.2617 20.4989 41.3781 20.5385C44.9899 21.7969 47.7482 23.1547 50.0105 24.8271C50.7061 25.3395 51.3499 25.8989 51.9354 26.4995C52.7085 27.2661 53.2852 28.1567 53.6299 29.1164C53.9746 30.0761 54.0801 31.0846 53.9397 32.0796C53.6222 34.7289 52.5506 36.865 50.7051 38.6036C50.0572 39.2235 49.285 39.7446 48.423 40.1435C48.1005 40.3101 47.7305 40.4016 47.3514 40.4085C47.0944 40.4024 46.8427 40.3457 46.6171 40.2429C45.9821 42.2795 45.0494 44.2334 44.1365 46.1211C43.6404 47.1311 43.1443 48.1909 42.6879 49.2506C42.3505 50.0288 41.9933 50.9727 41.9735 51.9662C41.9707 52.5262 41.7554 53.0711 41.3583 53.5226C41.1554 53.7685 40.9076 53.9864 40.6241 54.1684C40.2902 54.3748 39.8884 54.4904 39.4731 54.4996ZM36.0003 46.088C36.481 46.0931 36.9523 46.2007 37.3691 46.4007C37.7859 46.6007 38.1345 46.8863 38.3816 47.2305C38.7366 47.7374 39.0038 48.2838 39.1754 48.8532C39.5723 50.1448 39.5723 51.4694 39.5524 52.6285V52.9431C39.6269 52.9084 39.6939 52.8636 39.7509 52.8106C40.0239 52.5481 40.1783 52.2143 40.1875 51.8668C40.2045 51.757 40.2112 51.6463 40.2073 51.5356C40.2079 51.2786 40.2479 51.0226 40.3264 50.774C40.6241 49.8467 40.9813 48.8035 41.398 47.81L42.7871 44.7799C43.3229 43.6373 43.8587 42.4286 44.3747 41.2529C45.0295 39.7296 45.3471 38.438 45.3272 37.2127C45.322 36.1688 44.8227 35.169 43.9381 34.4309C43.0535 33.6928 41.8552 33.2762 40.6042 33.2718L39.9295 33.3049L38.838 33.454C38.2412 33.5567 37.6384 33.6341 37.0322 33.6858C36.7857 33.6964 36.5496 33.7717 36.3575 33.901L36.417 33.9507L37.3894 34.6296C37.7267 34.8614 37.8855 35.1098 37.8458 35.3747C37.8061 35.6397 37.3695 35.9708 37.2306 36.0371L34.2539 37.4445C34.0529 37.5551 33.8197 37.618 33.5792 37.6267C33.0037 37.6267 32.7854 37.163 32.7061 36.9809L32.329 36.2192C31.8528 35.2423 31.3963 34.2653 30.9399 33.2884C28.38 33.5367 26.6336 35.2091 26.6535 37.3452C26.6835 38.4395 26.9178 39.5233 27.348 40.5575C28.0426 42.1802 28.7768 43.8195 29.4912 45.4091C29.7294 45.9058 29.9477 46.4191 30.1858 46.9324L30.4835 47.5948C31.1185 48.9857 31.7932 50.4262 31.8329 52.0158C31.8325 52.1652 31.8693 52.313 31.9411 52.4498C32.0128 52.5867 32.1179 52.7095 32.2496 52.8106C32.2933 52.8457 32.3486 52.8688 32.4084 52.8769C32.4084 52.8438 32.4282 52.8106 32.4282 52.7775L32.4878 51.6184C32.5076 51.0555 32.5275 50.4594 32.6068 49.8633C32.6614 48.924 33.003 48.012 33.5991 47.2139C33.8559 46.8747 34.2099 46.5942 34.6291 46.3976C35.0482 46.2011 35.5195 46.0946 36.0003 46.088ZM42.9062 25.7874C43.3824 25.9696 43.819 26.1352 44.2556 26.3339C45.5058 26.8803 47.0934 27.6917 48.2444 28.9832C48.9985 29.8442 49.3358 30.7218 49.2167 31.616V31.8975C49.1239 32.8064 48.9515 33.7085 48.7008 34.5965C48.423 35.5237 48.0459 36.451 47.6689 37.3286C47.53 37.6763 47.3712 38.024 47.2323 38.3883C47.2173 38.5743 47.2883 38.758 47.4307 38.9016H47.4506L47.6292 38.8023L47.9864 38.5705C48.4779 38.2746 48.9362 37.9421 49.3557 37.577C50.8242 36.2358 51.7568 34.5302 52.0744 32.5267C52.2331 31.5166 52.2926 30.6722 52.0545 29.8442C51.6973 28.7183 50.9631 27.6917 49.693 26.6154C48.0459 25.2245 46.0218 24.0654 43.1443 22.8401L42.5688 22.6082C42.926 23.5997 42.9466 24.6544 42.6283 25.655L42.9062 25.7874ZM29.3325 22.6745L27.8045 23.3203C25.1651 24.529 23.3593 25.6715 21.8908 27.0128C20.7398 28.0891 20.1048 29.0826 19.8865 30.1588C19.6682 31.2351 19.7674 32.1293 20.1246 33.454C20.7001 35.5403 21.8511 37.1465 23.6371 38.3883C23.9176 38.578 24.224 38.7391 24.55 38.8685H24.6095C24.688 38.7956 24.7407 38.7058 24.7617 38.6094C24.7827 38.5129 24.7712 38.4135 24.7286 38.3221C23.8411 36.5241 23.2084 34.6458 22.8433 32.7254C22.4464 30.7384 23.1807 29.1157 24.9865 27.9069C25.6675 27.4288 26.398 27.0021 27.1694 26.6319C27.7251 26.3339 28.3403 26.1021 28.9158 25.8537L29.392 25.6715C29.0778 24.6825 29.0915 23.6409 29.4317 22.6579L29.3325 22.6745ZM31.3169 31.7816C31.952 31.7816 32.21 31.9306 32.4679 32.4439L34.0753 35.8052L35.3851 35.176L34.4722 34.5302C34.3601 34.4594 34.2668 34.3697 34.1985 34.2671C34.1301 34.1645 34.0882 34.0511 34.0753 33.9341C34.0794 33.8167 34.1133 33.7014 34.1749 33.5957C34.2365 33.4901 34.3243 33.3966 34.4325 33.3215L34.631 33.1725L34.8691 32.9903C35.1252 32.7371 35.4442 32.5334 35.804 32.3933C36.1638 32.2532 36.5558 32.1801 36.9528 32.179C37.513 32.143 38.0699 32.0766 38.6197 31.9803L39.7112 31.8147L40.6042 31.765C41.9085 31.7646 43.1829 32.0911 44.2621 32.7022C45.3414 33.3134 46.1756 34.181 46.6568 35.1926C47.0657 34.0605 47.3252 32.8945 47.4307 31.7153C47.4676 31.3373 47.4108 30.957 47.264 30.5981C47.1172 30.2392 46.8835 29.9093 46.5774 29.629C45.85 28.9446 44.9833 28.3728 44.0175 27.94L42.3307 27.228L41.9139 27.0459C40.4851 28.9335 38.5007 29.8939 36.0003 29.8939C33.4999 29.8939 31.4956 28.9335 30.0667 27.0459L29.5508 27.2611C28.9158 27.5426 28.2609 27.8076 27.6457 28.1056C26.7491 28.525 25.9548 29.081 25.304 29.7449C24.7768 30.2659 24.5071 30.935 24.55 31.616C24.6227 32.6809 24.8356 33.736 25.185 34.7621L25.3437 35.1926C25.8146 34.1997 26.6278 33.3457 27.6805 32.7386C28.7331 32.1314 29.9779 31.7984 31.2574 31.7816H31.3169ZM36.0003 20.0086C35.3132 19.9714 34.6242 20.0522 33.9759 20.2457C33.3277 20.4393 32.7338 20.7417 32.231 21.1342C31.7281 21.5267 31.327 22.0009 31.0523 22.5278C30.7776 23.0546 30.6352 23.6228 30.6339 24.1973C30.6325 24.7718 30.7722 25.3405 31.0444 25.8682C31.3166 26.3959 31.7155 26.8715 32.2165 27.2657C32.7174 27.6598 33.3099 27.9641 33.9572 28.1598C34.6046 28.3556 35.2931 28.4385 35.9804 28.4037H36.0003C37.28 28.3387 38.482 27.8693 39.3616 27.0909C40.2412 26.3125 40.7322 25.2837 40.7347 24.2139C40.7373 23.1441 40.2511 22.1137 39.3752 21.3324C38.4993 20.5511 37.2996 20.0778 36.0201 20.0086H36.0003Z" fill="#161616"/>
<path d="M46.3581 39.6467C45.4056 42.9584 43.6394 45.9886 42.29 49.1347C41.8931 50.0454 41.5756 50.9726 41.5558 51.9661C41.5389 52.4474 41.3526 52.9139 41.02 53.3074C40.8389 53.5276 40.618 53.7231 40.3651 53.8869C39.9087 54.1518 39.3927 54.2512 38.8767 54.0194C38.3608 53.7875 38.202 53.4067 38.1822 52.9596C38.1425 52.1483 38.1822 51.3204 38.083 50.509C37.9836 49.8323 37.8244 49.1626 37.6067 48.5054C37.5096 48.2195 37.3405 47.9542 37.1106 47.7272C36.4954 47.0649 35.4833 47.0814 34.8681 47.7272C34.4657 48.1936 34.2006 48.7325 34.0942 49.3002C33.8636 50.3484 33.7705 51.4144 33.8164 52.4794C33.8269 52.7344 33.8069 52.9895 33.7568 53.2411C33.6179 53.9531 32.8638 54.334 32.0701 54.0525C31.6882 53.9057 31.3495 53.691 31.0778 53.4233C30.6576 53.0121 30.4255 52.49 30.423 51.9496C30.3866 50.9887 30.1447 50.041 29.7086 49.1512C28.8552 47.3132 27.9622 45.4918 27.1486 43.6373C26.6128 42.3789 26.1762 41.0707 25.6801 39.7958C25.6509 39.749 25.6308 39.6987 25.6206 39.6467C24.926 40.2594 24.2315 40.0772 23.5171 39.713C22.0089 38.9513 20.9174 37.8419 20.0641 36.5669C18.861 34.735 18.2973 32.6584 18.4368 30.5728C18.5162 29.066 19.3298 27.791 20.4411 26.6484C21.9493 25.1085 23.8346 23.9329 25.8587 22.9228C27.4465 22.1128 29.1126 21.4149 30.8397 20.8365C30.9967 20.7847 31.1388 20.7057 31.2564 20.6047C31.8572 20.0532 32.5894 19.6127 33.4062 19.3112C34.2229 19.0097 35.1062 18.854 35.9993 18.854C36.8924 18.854 37.7756 19.0097 38.5924 19.3112C39.4091 19.6127 40.1414 20.0532 40.7421 20.6047C40.8722 20.7207 41.0364 20.8063 41.2184 20.853C44.2943 21.9293 47.2115 23.2374 49.7317 25.092C50.4035 25.5973 51.0271 26.1453 51.5971 26.7312C52.3445 27.4562 52.9019 28.3036 53.2334 29.2189C53.5649 30.1343 53.6632 31.0975 53.522 32.0465C53.2244 34.4143 52.3115 36.5669 50.3866 38.3552C49.7838 38.9562 49.0498 39.4563 48.2235 39.8289C47.5687 40.1269 46.9535 40.16 46.3581 39.6467ZM35.7215 33.9175L37.1106 34.8945C37.567 35.2091 37.5273 35.474 37.0114 35.7224L34.0347 37.1464C33.5386 37.3782 33.3203 37.3286 33.0821 36.8484C32.5066 35.6231 31.9113 34.3977 31.316 33.1559C31.2366 32.9903 31.1771 32.9075 30.9389 32.9406C28.1607 33.189 26.1961 35.0104 26.2358 37.3451C26.254 38.4797 26.4953 39.604 26.9502 40.6733C27.863 42.8094 28.8354 44.9288 29.7879 47.0483C30.5023 48.671 31.3557 50.2441 31.3953 52.0158C31.3977 52.2161 31.4501 52.4138 31.5492 52.5963C31.6483 52.7788 31.7919 52.942 31.9708 53.0755C32.1494 53.208 32.4074 53.2411 32.6456 53.3239C32.75 53.1589 32.8173 52.9793 32.844 52.794C32.9234 51.8337 32.9234 50.8567 33.0226 49.8963C33.1218 48.936 33.36 48.1577 33.9553 47.4126C34.9872 46.121 37.0312 46.1045 38.0036 47.4126C38.3524 47.8888 38.607 48.4088 38.7577 48.9525C39.1347 50.1447 39.1347 51.3866 39.1347 52.6285C39.1248 52.7719 39.1248 52.9156 39.1347 53.059C39.1943 53.3239 39.3729 53.4233 39.6705 53.2908C39.8196 53.2285 39.9541 53.1444 40.0674 53.0424C40.3907 52.7271 40.5792 52.331 40.6032 51.9165C40.6124 51.5668 40.6522 51.2181 40.7223 50.8733C41.0596 49.8798 41.3772 48.8863 41.8137 47.9259C42.7663 45.7402 43.818 43.5711 44.7706 41.3688C45.3461 40.0441 45.7628 38.6532 45.7628 37.2127C45.7585 36.5969 45.5966 35.9889 45.2879 35.4296C44.9791 34.8703 44.5307 34.3725 43.9726 33.9695C43.4145 33.5666 42.7597 33.2678 42.0519 33.0932C41.3442 32.9186 40.5999 32.8722 39.869 32.9572C38.9164 33.0731 37.9639 33.2718 36.9915 33.338C36.7422 33.3521 36.4995 33.4113 36.2802 33.5113C36.0609 33.6114 35.8703 33.75 35.7215 33.9175ZM36.1183 35.2422L34.7491 34.2653C34.4316 34.0335 34.4316 33.8182 34.7292 33.5698C35.0269 33.3215 35.0467 33.3546 35.1857 33.2221C35.4058 33.0057 35.6793 32.8315 35.9875 32.7115C36.2958 32.5914 36.6315 32.5284 36.9717 32.5267C37.9044 32.4935 38.8371 32.2783 39.7697 32.1624C41.2943 31.9951 42.8386 32.3103 44.0984 33.0459C45.3583 33.7815 46.2423 34.884 46.5764 36.1364C46.5921 36.2159 46.6187 36.2937 46.6558 36.3682C47.2966 34.8726 47.7035 33.3143 47.8663 31.7318C47.8993 31.3082 47.8302 30.8834 47.6632 30.4824C47.4962 30.0814 47.2346 29.7124 46.8939 29.3971C46.1302 28.6864 45.2236 28.0924 44.2149 27.6419C43.4013 27.2611 42.5678 26.9299 41.7542 26.5988C40.4445 28.4864 38.5592 29.5462 35.9794 29.5462C33.3996 29.5462 31.5343 28.4699 30.2245 26.5822C29.2918 26.9796 28.3393 27.377 27.4463 27.8075C26.5037 28.2405 25.6686 28.8193 24.9855 29.513C24.3841 30.1012 24.0784 30.8606 24.1322 31.6325C24.2003 32.7263 24.42 33.8098 24.7871 34.8614C24.9459 35.3416 25.1245 35.8218 25.3031 36.302C25.3375 36.2805 25.3659 36.2532 25.3865 36.2217C25.407 36.1903 25.4192 36.1555 25.4221 36.1198C25.7161 35.0045 26.4516 34.0043 27.51 33.2804C28.5684 32.5564 29.8881 32.151 31.2564 32.1293C31.7724 32.1293 31.8716 32.1789 32.0701 32.5763C32.6257 33.7189 33.1615 34.8614 33.7172 36.0205L33.8759 36.302L36.1183 35.2422ZM42.0916 25.8536C42.7861 26.1351 43.4211 26.367 44.0562 26.6484C45.5247 27.2942 46.8939 28.0559 47.906 29.1819C48.541 29.8939 48.9181 30.6887 48.799 31.5828C48.68 32.477 48.5807 33.5698 48.2831 34.5136C47.8862 35.7886 47.3107 37.014 46.8146 38.2724C46.7791 38.4318 46.7894 38.5959 46.8446 38.7513C46.8998 38.9067 46.9983 39.049 47.1321 39.1665C47.4099 39.3652 47.6679 39.2162 47.8663 39.1003C48.4815 38.6863 49.1364 38.3055 49.6523 37.8419C51.2796 36.3516 52.1528 34.5633 52.4703 32.5763C52.629 31.6491 52.7282 30.7052 52.4306 29.778C52.0337 28.4367 51.101 27.3439 49.9699 26.3835C48.0449 24.7608 45.743 23.5686 43.3021 22.542L41.7939 21.9293C42.4907 23.1576 42.5972 24.5619 42.0916 25.8536ZM30.165 21.9624L29.8078 22.0949C29.0735 22.393 28.3194 22.691 27.605 23.0222C25.3824 24.0322 23.2789 25.1913 21.5723 26.7809C20.5404 27.7413 19.7267 28.801 19.4688 30.1091C19.2108 31.4172 19.4092 32.3942 19.7069 33.5202C20.2824 35.5568 21.4135 37.312 23.3583 38.6532C23.6776 38.8659 24.0236 39.0492 24.3902 39.1997C24.4701 39.2219 24.5552 39.2274 24.6382 39.2159C24.7212 39.2043 24.7996 39.176 24.8665 39.1334C25.0196 39.0132 25.126 38.8574 25.172 38.6862C25.218 38.5151 25.2014 38.3363 25.1245 38.173C24.2476 36.4019 23.6216 34.5514 23.2591 32.6591C22.9019 30.8211 23.5171 29.3309 25.2435 28.1553C25.9174 27.7023 26.6268 27.2875 27.3669 26.9134C28.1805 26.516 29.0338 26.2014 29.8872 25.8371C29.4027 24.5613 29.5017 23.181 30.165 21.9624ZM30.542 24.1813C30.5381 25.0818 30.8543 25.9632 31.4507 26.7138C32.0471 27.4645 32.8969 28.0507 33.8925 28.3983C34.8882 28.746 35.9851 28.8395 37.0444 28.667C38.1038 28.4945 39.0781 28.0638 39.844 27.4293C40.61 26.7948 41.1333 25.985 41.3477 25.1024C41.5621 24.2197 41.4581 23.3038 41.0487 22.4705C40.6392 21.6372 39.9429 20.924 39.0476 20.4209C38.1524 19.9178 37.0985 19.6475 36.0191 19.6443C35.3017 19.6399 34.5904 19.754 33.9261 19.9801C33.2618 20.2061 32.6577 20.5396 32.1486 20.9614C31.6395 21.3831 31.2354 21.8847 30.9597 22.4373C30.684 22.99 30.542 23.5826 30.542 24.1813Z" fill="#161616"/>
<path d="M35.9808 27.3281C34.9914 27.3281 34.0424 27.0002 33.3428 26.4164C32.6431 25.8326 32.2501 25.0408 32.2501 24.2152C32.2461 23.5955 32.4627 22.9888 32.8725 22.472C33.2822 21.9552 33.8666 21.5515 34.5516 21.3121C35.2366 21.0727 35.9913 21.0083 36.7201 21.1272C37.449 21.2461 38.1191 21.5428 38.6457 21.9798C39.1722 22.4169 39.5314 22.9744 39.6777 23.582C39.824 24.1895 39.7509 24.8196 39.4677 25.3924C39.1844 25.9652 38.7037 26.4549 38.0865 26.7996C37.4692 27.1442 36.7433 27.3281 36.0007 27.3281H35.9808ZM35.9808 22.5759C35.4966 22.6187 35.0486 22.81 34.7239 23.1127C34.3991 23.4155 34.2206 23.8081 34.2231 24.2144C34.2256 24.6207 34.4088 25.0118 34.7372 25.3117C35.0657 25.6117 35.5159 25.7992 36.0007 25.8379C36.5131 25.8268 37.0018 25.6554 37.3699 25.3577C37.6464 25.1317 37.8358 24.842 37.9138 24.5257C37.9918 24.2094 37.9549 23.8808 37.8079 23.5821C37.6608 23.2834 37.4103 23.0281 37.0884 22.8488C36.7664 22.6696 36.3877 22.5745 36.0007 22.5759H35.9808Z" fill="#161616"/>
<path d="M35.9823 26.9784C35.322 26.9784 34.6767 26.8148 34.128 26.5084C33.5793 26.202 33.152 25.7666 32.9003 25.2573C32.6486 24.748 32.5837 24.1878 32.714 23.6478C32.8442 23.1077 33.1637 22.6121 33.632 22.2237C34.1002 21.8353 34.6961 21.5717 35.3441 21.4662C35.9921 21.3608 36.6631 21.4182 37.2719 21.6313C37.8807 21.8444 38.4 22.2035 38.764 22.6632C39.1279 23.1228 39.3201 23.6623 39.3162 24.2132C39.3162 24.5777 39.2298 24.9386 39.062 25.2752C38.8942 25.6118 38.6483 25.9174 38.3385 26.1744C38.0286 26.4313 37.661 26.6347 37.2566 26.7727C36.8522 26.9107 36.4191 26.9806 35.9823 26.9784ZM36.0021 26.1836C36.4739 26.1836 36.9351 26.0666 37.3272 25.8475C37.7192 25.6285 38.0244 25.3172 38.204 24.9531C38.3837 24.5891 38.4296 24.1887 38.3361 23.8028C38.2426 23.4169 38.0139 23.0629 37.6788 22.7857C37.3438 22.5085 36.9176 22.3206 36.4544 22.2458C35.9912 22.171 35.5117 22.2127 35.077 22.3656C34.6422 22.5186 34.2717 22.7758 34.0124 23.1048C33.7531 23.4337 33.6168 23.8195 33.6208 24.2132C33.6208 24.4733 33.6825 24.7309 33.8024 24.9711C33.9223 25.2112 34.098 25.4292 34.3194 25.6124C34.5408 25.7955 34.8035 25.9403 35.0923 26.0384C35.3811 26.1364 35.6903 26.1858 36.0021 26.1836Z" fill="#161616"/>
</g>
<defs>
<filter id="filter0_d_32_10046" x="0" y="0.5" width="76" height="76" filterUnits="userSpaceOnUse" color-interpolation-filters="sRGB">
<feFlood flood-opacity="0" result="BackgroundImageFix"/>
<feColorMatrix in="SourceAlpha" type="matrix" values="0 0 0 0 0 0 0 0 0 0 0 0 0 0 0 0 0 0 127 0" result="hardAlpha"/>
<feOffset dx="2" dy="2"/>
<feGaussianBlur stdDeviation="4"/>
<feComposite in2="hardAlpha" operator="out"/>
<feColorMatrix type="matrix" values="0 0 0 0 0 0 0 0 0 0 0 0 0 0 0 0 0 0 0.04 0"/>
<feBlend mode="normal" in2="BackgroundImageFix" result="effect1_dropShadow_32_10046"/>
<feBlend mode="normal" in="SourceGraphic" in2="effect1_dropShadow_32_10046" result="shape"/>
</filter>
</defs>
</svg>
