<svg width="14" height="14" viewBox="0 0 14 14" fill="none" xmlns="http://www.w3.org/2000/svg">
<g clip-path="url(#clip0_832_26643)">
<path d="M2.15084 5.59621C2.00455 4.85743 2.27519 4.25408 2.94081 3.80465C3.19034 3.6253 3.45978 3.46655 3.74541 3.3306C3.95022 3.21978 4.17697 3.13359 4.38909 3.04124L4.56464 2.97352C4.44881 2.60581 4.45387 2.21851 4.57927 1.85303H4.54269L3.97947 2.09313C3.00664 2.54872 2.34102 2.97352 1.79975 3.4722C1.3755 3.87238 1.14144 4.24177 1.06098 4.64195C0.980519 5.04212 1.01709 5.37458 1.14875 5.8671C1.36087 6.64283 1.78512 7.24001 2.44342 7.70175C2.54646 7.77265 2.65947 7.83261 2.77989 7.88029H2.80184C2.83006 7.85282 2.84901 7.81948 2.85673 7.78375C2.86445 7.74802 2.86065 7.7112 2.84572 7.67713C2.51583 7.00944 2.28252 6.31079 2.15084 5.59621Z" fill="white"/>
<path d="M8.69686 5.79932L8.44817 5.81163L8.04587 5.86704C7.82587 5.90524 7.60371 5.934 7.38025 5.95323C7.2897 5.95836 7.20307 5.98624 7.13155 6.03327L7.1535 6.05174L7.51191 6.30415C7.63625 6.39035 7.69477 6.48269 7.68014 6.5812C7.66551 6.6797 7.50459 6.80283 7.45339 6.82746L6.35621 7.35077C6.28341 7.39408 6.19666 7.4177 6.10752 7.41849C5.8954 7.41849 5.81494 7.24611 5.78568 7.17838L5.6467 6.89518C5.47115 6.53195 5.30292 6.16871 5.13469 5.80547C4.19111 5.89782 3.54743 6.51963 3.55475 7.31383C3.56617 7.7207 3.65253 8.12362 3.81076 8.5082C4.06677 9.11154 4.3374 9.72104 4.60073 10.3121C4.6885 10.4968 4.76896 10.6876 4.85673 10.8785L4.96645 11.1247C5.20052 11.6419 5.44921 12.1775 5.46384 12.7685C5.46454 12.824 5.47851 12.8787 5.5049 12.9295C5.53129 12.9802 5.56957 13.026 5.61745 13.064C5.63245 13.0783 5.65341 13.0871 5.67596 13.0887C5.67596 13.0764 5.68328 13.064 5.68328 13.0517L5.70522 12.6208C5.71253 12.4115 5.71985 12.1898 5.74911 11.9682C5.76987 11.6191 5.89571 11.2801 6.11483 10.9831C6.209 10.8566 6.33936 10.752 6.49398 10.6789C6.6486 10.6057 6.82254 10.5664 6.99989 10.5645C7.17696 10.567 7.35038 10.6072 7.5039 10.6815C7.65742 10.7558 7.78602 10.8617 7.87763 10.9893C8.0068 11.1785 8.1052 11.3814 8.17021 11.5926C8.3165 12.0728 8.31651 12.5654 8.30919 12.9963V13.1133C8.33663 13.1004 8.36134 13.0837 8.38234 13.064C8.48462 12.9673 8.54178 12.8426 8.54326 12.7131C8.54934 12.6723 8.55178 12.6311 8.55057 12.59C8.55079 12.4944 8.56554 12.3992 8.59446 12.3068C8.70417 11.962 8.83584 11.5742 8.98944 11.2048L9.50146 10.0781C9.69895 9.65332 9.89644 9.20389 10.0866 8.76677C10.328 8.20037 10.445 7.72016 10.4377 7.26458C10.4358 6.87646 10.2518 6.50471 9.9257 6.23027C9.59965 5.95583 9.15797 5.80094 8.69686 5.79932Z" fill="white"/>
<path d="M6.75895 3.98942C6.8368 3.99558 6.91517 3.99558 6.99302 3.98942H7.00033C7.47204 3.96527 7.91509 3.79073 8.2393 3.50132C8.5635 3.21191 8.74448 2.8294 8.74542 2.43163C8.74635 2.03386 8.56716 1.65075 8.24431 1.36026C7.92147 1.06978 7.47924 0.893768 7.00765 0.868051H7.00033C6.50856 0.84111 6.02421 0.979701 5.65384 1.25334C5.28347 1.52697 5.05742 1.91323 5.02541 2.32715C4.9934 2.74107 5.15806 3.14874 5.48316 3.46048C5.80827 3.77221 6.26718 3.96248 6.75895 3.98942ZM6.99302 1.26207C7.35967 1.26044 7.71207 1.38146 7.9727 1.59852C8.23333 1.81559 8.38084 2.1109 8.38278 2.4195C8.38472 2.72811 8.24093 3.02472 7.98304 3.24409C7.72516 3.46346 7.3743 3.58761 7.00765 3.58925H6.99302C6.62831 3.58925 6.27854 3.4673 6.02065 3.25024C5.76277 3.03318 5.61789 2.73879 5.61789 2.43182C5.61787 2.1237 5.76228 1.82802 6.01975 1.609C6.27723 1.38999 6.62697 1.26531 6.99302 1.26207Z" fill="white"/>
<path d="M7.00012 3.03511C7.189 3.03097 7.36914 2.96725 7.50483 2.85657C7.60672 2.77254 7.67652 2.66483 7.70527 2.54722C7.73403 2.42961 7.72043 2.30746 7.66624 2.19639C7.61204 2.08532 7.5197 1.99038 7.40103 1.92374C7.28237 1.85709 7.14278 1.82176 7.00012 1.82227H6.99281C6.80247 1.84087 6.6284 1.92159 6.50803 2.04708C6.38766 2.17257 6.33061 2.33281 6.34913 2.49334C6.36556 2.63336 6.43961 2.76416 6.55849 2.86309C6.67736 2.96202 6.83358 3.02287 7.00012 3.03511Z" fill="white"/>
<path d="M10.8985 4.44504C10.6299 4.19095 10.3106 3.97842 9.95488 3.81707L9.33314 3.55234L9.17954 3.48462C8.65289 4.18647 7.92144 4.54355 6.99981 4.54355C6.07818 4.54355 5.33941 4.18647 4.81277 3.48462L4.62259 3.56465C4.38852 3.66932 4.14714 3.76782 3.92039 3.87864C3.59002 4.03469 3.29728 4.24142 3.05728 4.48814C2.86609 4.68335 2.76713 4.93105 2.77933 5.18383C2.80613 5.57979 2.88462 5.97207 3.01339 6.35357L3.07191 6.51364C3.24547 6.1445 3.54521 5.82696 3.9332 5.60121C4.3212 5.37546 4.78002 5.25164 5.25164 5.24539H5.27358C5.50764 5.24539 5.60273 5.3008 5.69782 5.49166L6.2903 6.74144L6.77306 6.50749L6.43659 6.26738C6.39587 6.24052 6.36195 6.20708 6.33682 6.16901C6.3117 6.13095 6.29588 6.08904 6.2903 6.04574C6.29131 6.00201 6.30361 5.95899 6.32635 5.91965C6.34908 5.88032 6.38171 5.84562 6.42196 5.81795L6.49511 5.76254L6.58288 5.69482C6.67726 5.60068 6.79484 5.52494 6.92745 5.47285C7.06007 5.42076 7.20456 5.39357 7.35091 5.39315C7.55751 5.38062 7.76282 5.35593 7.96533 5.31927L8.36762 5.25771L8.69678 5.23924C9.17753 5.23907 9.64726 5.36048 10.0451 5.58771C10.4428 5.81495 10.7504 6.13754 10.9277 6.51364C11.081 6.09325 11.1767 5.65947 11.213 5.22077C11.2266 5.08022 11.2056 4.93883 11.1515 4.80538C11.0974 4.67193 11.0113 4.54928 10.8985 4.44504Z" fill="white"/>
<path d="M13.1588 3.08439C12.9304 2.84906 12.6783 2.63072 12.4054 2.43179C11.5496 1.79151 10.5109 1.2682 9.12118 0.781836H9.11386C9.06266 0.732584 9.00414 0.689488 8.94563 0.640236C8.38185 0.208921 7.63887 -0.018071 6.87766 0.00843307C6.11644 0.0349371 5.39828 0.312803 4.87875 0.781836C4.2233 1.00638 3.58985 1.27399 2.98429 1.58219C2.06266 2.05009 1.38972 2.51798 0.863077 3.05976C0.336432 3.60154 0.0438506 4.18025 0.00727801 4.77128C-0.0485187 5.62763 0.179388 6.4802 0.665585 7.2339C1.05326 7.81878 1.5287 8.25589 2.12118 8.56987L2.15043 8.58219C2.35095 8.6927 2.58381 8.75448 2.82337 8.76073H2.85263C2.85263 8.77304 2.91846 8.95158 2.91846 8.95158C3.00623 9.204 3.09401 9.44411 3.24761 9.80118C3.40122 10.1583 3.63528 10.6569 3.82546 11.0571L4.1985 11.8636C4.33594 12.1476 4.4127 12.4498 4.42525 12.7563C4.43095 13.0545 4.55448 13.3426 4.77635 13.5752H4.79098C4.9448 13.7238 5.13425 13.8434 5.34688 13.9261C5.46916 13.9709 5.60116 13.994 5.73455 13.9938H5.74918C5.98087 13.9897 6.20322 13.9162 6.37621 13.7864C6.54919 13.6566 6.66144 13.4791 6.69275 13.2858C6.711 13.1757 6.71834 13.0645 6.7147 12.9533V12.9349C6.7147 12.5963 6.72201 12.2022 6.80979 11.8452C6.86099 11.642 6.90488 11.525 6.99265 11.445V11.4327L7.00728 11.445C7.04359 11.4866 7.07311 11.5322 7.09505 11.5804C7.16799 11.8002 7.21937 12.0246 7.24866 12.2515C7.26329 12.3808 7.2706 12.5224 7.2706 12.6701C7.27654 12.7213 7.27898 12.7727 7.27792 12.8241V13.138C7.30717 13.5875 7.58513 13.7968 7.81919 13.8953C7.95763 13.9607 8.11393 13.9947 8.27269 13.9938H8.28732C8.51928 13.9891 8.74395 13.9247 8.931 13.8091C9.06378 13.722 9.17974 13.6182 9.27478 13.5013C9.46442 13.2833 9.56688 13.0203 9.56736 12.7502C9.57468 12.43 9.69171 12.1099 9.80874 11.839C9.92577 11.5681 10.1379 11.0941 10.3354 10.6877C10.6531 10.056 10.9315 9.41074 11.1692 8.75457H11.1912C11.3932 8.75217 11.5905 8.7032 11.7617 8.61297C12.1154 8.44929 12.4323 8.23466 12.698 7.97885C13.4294 7.277 13.8537 6.42739 13.978 5.38694C14.0341 4.97644 13.9903 4.56064 13.8495 4.16481C13.7087 3.76898 13.4737 3.40139 13.1588 3.08439ZM13.6123 5.35615C13.4953 6.3412 13.1003 7.1354 12.42 7.78184C12.1829 8.01374 11.8979 8.2077 11.5789 8.35439C11.4606 8.41748 11.3238 8.45159 11.1839 8.4529C11.089 8.45139 10.9961 8.43024 10.9132 8.39133C10.6792 9.14859 10.3354 9.87506 9.99892 10.5769C9.81606 10.9525 9.63319 11.3465 9.46496 11.7405C9.34061 12.0299 9.20895 12.3808 9.20164 12.7502C9.20164 12.9585 9.12216 13.1614 8.97489 13.3289C8.90028 13.4204 8.80894 13.5015 8.70425 13.569C8.5829 13.6484 8.43371 13.6917 8.28001 13.6921C8.17772 13.6938 8.07676 13.6725 7.98742 13.6306C7.76799 13.5382 7.65827 13.3658 7.64364 13.1257V12.8241C7.63633 12.6209 7.63633 12.4177 7.61438 12.2207C7.57596 11.9779 7.51978 11.7374 7.44615 11.5004C7.41173 11.4104 7.3571 11.3268 7.28523 11.2541C7.25397 11.2145 7.21158 11.182 7.16183 11.1594C7.11207 11.1369 7.05648 11.125 6.99996 11.1248C6.94245 11.1251 6.88584 11.1369 6.83491 11.1594C6.78399 11.1819 6.74025 11.2144 6.70738 11.2541C6.56841 11.3957 6.50258 11.5681 6.45137 11.7898C6.35629 12.1776 6.34897 12.5901 6.34897 12.941V12.9657C6.35627 13.0605 6.3489 13.1557 6.32703 13.2489C6.30941 13.3697 6.24048 13.4811 6.13294 13.5626C6.02541 13.6441 5.88652 13.6901 5.74187 13.6921C5.65622 13.6933 5.57132 13.6785 5.49317 13.649C5.32742 13.5865 5.18008 13.494 5.06161 13.3781C4.88726 13.2017 4.79154 12.9796 4.79098 12.7502C4.77569 12.4057 4.68905 12.0661 4.53497 11.7467L4.16193 10.9463C3.97175 10.54 3.77426 10.1152 3.5914 9.69652C3.40853 9.27788 3.32807 9.03162 3.21104 8.70532C3.17447 8.60066 3.13058 8.496 3.09401 8.39133C3.00993 8.43315 2.9137 8.45447 2.81606 8.4529C2.61856 8.4529 2.45033 8.37286 2.31867 8.3113C1.78471 8.0281 1.34584 7.62792 0.987424 7.08615C0.533768 6.38339 0.321049 5.58835 0.373004 4.78975C0.402262 4.26644 0.650956 3.76776 1.14834 3.25677C1.64573 2.74578 2.2821 2.29635 3.17447 1.83461C3.77199 1.53492 4.39549 1.27355 5.03967 1.05272C5.07668 1.04174 5.10952 1.02261 5.13476 0.997316C5.58711 0.583647 6.21542 0.337269 6.88269 0.311897C7.54997 0.286526 8.20211 0.484217 8.69693 0.861871L8.86517 1.00347C8.89958 1.02962 8.9392 1.05046 8.9822 1.06504C10.3134 1.53294 11.3302 2.03777 12.164 2.65958C12.4207 2.84987 12.658 3.05787 12.8735 3.2814C13.1581 3.56662 13.3704 3.89778 13.4975 4.25456C13.6245 4.61134 13.6636 4.98621 13.6123 5.35615Z" fill="white"/>
<path d="M9.63302 1.92091L9.4209 1.83472C9.55255 2.20334 9.56015 2.59548 9.44284 2.96752L9.54525 3.01677C9.72079 3.0845 9.88171 3.14606 10.0426 3.21994C10.5034 3.42311 11.0886 3.72478 11.5129 4.20499C11.7908 4.52513 11.9152 4.85143 11.8713 5.18388V5.28854C11.837 5.62651 11.7735 5.96191 11.6811 6.29206C11.5787 6.63683 11.4397 6.98159 11.3007 7.30789C11.2495 7.43718 11.191 7.56647 11.1398 7.70191C11.135 7.77099 11.1611 7.83907 11.213 7.89276H11.2203L11.2861 7.85583L11.4178 7.76963C11.5992 7.65987 11.7681 7.53621 11.9225 7.40024C12.4637 6.90156 12.8075 6.26743 12.9246 5.52249C12.9831 5.14694 13.005 4.83296 12.9172 4.52513C12.7856 4.10648 12.5149 3.72478 12.0468 3.3246C11.4397 2.80745 10.6936 2.37649 9.63302 1.92091Z" fill="white"/>
</g>
<defs>
<clipPath id="clip0_832_26643">
<rect width="14" height="14" fill="white"/>
</clipPath>
</defs>
</svg>
