<svg width="24" height="24" viewBox="0 0 24 24" fill="none" xmlns="http://www.w3.org/2000/svg">
<g clip-path="url(#clip0_1420_5550)">
<g clip-path="url(#clip1_1420_5550)">
<path d="M3.68618 9.59365C3.4354 8.32715 3.89935 7.29285 5.04042 6.5224C5.46819 6.21494 5.93008 5.9428 6.41973 5.70974C6.77082 5.51977 7.15954 5.37201 7.52317 5.2137L7.82411 5.0976C7.62555 4.46723 7.63422 3.8033 7.84919 3.17676H7.7865L6.82098 3.58837C5.15327 4.36937 4.0122 5.0976 3.0843 5.95248C2.35703 6.6385 1.95578 7.27175 1.81784 7.95776C1.67991 8.64378 1.74261 9.2137 1.96832 10.058C2.33195 11.3878 3.05922 12.4116 4.18775 13.2031C4.36439 13.3247 4.55811 13.4275 4.76455 13.5092H4.80217C4.85055 13.4621 4.88305 13.405 4.89628 13.3437C4.90951 13.2825 4.90299 13.2193 4.87741 13.1609C4.31187 12.0163 3.91192 10.8186 3.68618 9.59365Z" fill="white"/>
<path d="M14.9089 9.94189L14.4826 9.963L13.7929 10.058C13.4158 10.1235 13.0349 10.1728 12.6519 10.2057C12.4966 10.2145 12.3481 10.2623 12.2255 10.343L12.2631 10.3746L12.8776 10.8073C13.0907 10.9551 13.191 11.1134 13.166 11.2823C13.1409 11.4511 12.865 11.6622 12.7772 11.7044L10.8964 12.6015C10.7716 12.6758 10.6229 12.7163 10.47 12.7176C10.1064 12.7176 9.96846 12.4221 9.91831 12.306L9.68006 11.8205C9.37912 11.1978 9.09072 10.5751 8.80232 9.95245C7.18476 10.1108 6.08132 11.1767 6.09386 12.5382C6.11344 13.2357 6.26149 13.9264 6.53273 14.5857C6.9716 15.62 7.43555 16.6648 7.88696 17.678C8.03743 17.9947 8.17536 18.3218 8.32583 18.649L8.51392 19.0712C8.91517 19.9577 9.3415 20.8759 9.36658 21.8891C9.36779 21.9841 9.39173 22.0779 9.43697 22.165C9.48222 22.252 9.54783 22.3305 9.62991 22.3957C9.65563 22.4201 9.69157 22.4353 9.73022 22.4379C9.73022 22.4168 9.74276 22.3957 9.74276 22.3746L9.78038 21.6358C9.79292 21.277 9.80545 20.897 9.85561 20.5171C9.8912 19.9186 10.1069 19.3375 10.4826 18.8284C10.644 18.6116 10.8675 18.4323 11.1325 18.3069C11.3976 18.1815 11.6958 18.1141 11.9998 18.1108C12.3034 18.115 12.6006 18.1841 12.8638 18.3114C13.127 18.4388 13.3475 18.6203 13.5045 18.839C13.7259 19.1633 13.8946 19.5112 14.0061 19.8733C14.2569 20.6965 14.2569 21.5408 14.2443 22.2796V22.4802C14.2914 22.458 14.3337 22.4295 14.3697 22.3957C14.5451 22.2299 14.6431 22.0161 14.6456 21.7941C14.656 21.7241 14.6602 21.6536 14.6581 21.5831C14.6585 21.4192 14.6838 21.256 14.7334 21.0976C14.9214 20.5065 15.1471 19.8416 15.4105 19.2084L16.2882 17.277C16.6268 16.5488 16.9653 15.7783 17.2913 15.029C17.7051 14.058 17.9058 13.2348 17.8932 12.4538C17.8899 11.7884 17.5745 11.1511 17.0155 10.6807C16.4565 10.2102 15.6994 9.94467 14.9089 9.94189Z" fill="white"/>
<path d="M11.5859 6.83901C11.7194 6.84957 11.8537 6.84957 11.9872 6.83901H11.9997C12.8084 6.79761 13.5679 6.49839 14.1237 6.00227C14.6794 5.50614 14.9897 4.85039 14.9913 4.16851C14.9929 3.48662 14.6857 2.82985 14.1323 2.33188C13.5788 1.83391 12.8207 1.53217 12.0123 1.48809H11.9997C11.1567 1.4419 10.3264 1.67949 9.69147 2.14858C9.05655 2.61766 8.66903 3.27983 8.61415 3.98941C8.55928 4.69898 8.84155 5.39785 9.39887 5.93225C9.95619 6.46665 10.7429 6.79283 11.5859 6.83901ZM11.9872 2.16355C12.6157 2.16075 13.2198 2.36822 13.6666 2.74033C14.1134 3.11243 14.3663 3.61869 14.3696 4.14772C14.373 4.67675 14.1265 5.18523 13.6844 5.56129C13.2423 5.93735 12.6408 6.1502 12.0123 6.153H11.9872C11.362 6.153 10.7624 5.94395 10.3203 5.57185C9.87819 5.19974 9.62983 4.69506 9.62983 4.16883C9.62979 3.64063 9.87735 3.13375 10.3187 2.75829C10.7601 2.38283 11.3597 2.16911 11.9872 2.16355Z" fill="white"/>
<path d="M11.9998 5.20319C12.3236 5.19609 12.6324 5.08685 12.865 4.89712C13.0397 4.75306 13.1593 4.56842 13.2086 4.3668C13.2579 4.16519 13.2346 3.95578 13.1417 3.76537C13.0488 3.57497 12.8905 3.41223 12.6871 3.29798C12.4836 3.18373 12.2443 3.12316 11.9998 3.12403H11.9873C11.661 3.15592 11.3626 3.2943 11.1562 3.50942C10.9499 3.72455 10.8521 3.99924 10.8838 4.27443C10.912 4.51448 11.0389 4.73869 11.2427 4.90829C11.4465 5.07789 11.7143 5.1822 11.9998 5.20319Z" fill="white"/>
<path d="M18.6829 7.62007C18.2226 7.18449 17.6751 6.82014 17.0654 6.54355L15.9995 6.08973L15.7362 5.97363C14.8334 7.1768 13.5795 7.78894 11.9995 7.78894C10.4196 7.78894 9.15314 7.1768 8.25032 5.97363L7.9243 6.11084C7.52304 6.29026 7.10925 6.45912 6.72053 6.64909C6.15418 6.91662 5.65233 7.271 5.24091 7.69395C4.91316 8.0286 4.74351 8.45322 4.76442 8.88656C4.81037 9.56535 4.94493 10.2378 5.16568 10.8918L5.26599 11.1662C5.56353 10.5334 6.07736 9.98908 6.74249 9.60208C7.40763 9.21508 8.19418 9.0028 9.00267 8.9921H9.04028C9.44154 8.9921 9.60455 9.08709 9.76756 9.41427L10.7832 11.5567L11.6108 11.1557L11.034 10.7441C10.9642 10.698 10.9061 10.6407 10.863 10.5754C10.8199 10.5102 10.7928 10.4383 10.7832 10.3641C10.785 10.2892 10.8061 10.2154 10.845 10.148C10.884 10.0805 10.9399 10.0211 11.0089 9.97363L11.1343 9.87865L11.2848 9.76255C11.4466 9.60117 11.6482 9.47133 11.8755 9.38203C12.1028 9.29274 12.3505 9.24611 12.6014 9.2454C12.9556 9.22392 13.3075 9.1816 13.6547 9.11875L14.3444 9.01321L14.9086 8.98155C15.7328 8.98126 16.538 9.18939 17.22 9.57894C17.9019 9.96849 18.429 10.5215 18.7331 11.1662C18.9959 10.4456 19.16 9.70195 19.2221 8.94989C19.2454 8.70896 19.2095 8.46657 19.1168 8.2378C19.024 8.00903 18.8763 7.79876 18.6829 7.62007Z" fill="white"/>
<path d="M22.5577 5.28763C22.1661 4.88421 21.734 4.50992 21.2661 4.16889C19.799 3.07127 18.0185 2.17417 15.636 1.3404H15.6235C15.5357 1.25596 15.4354 1.18208 15.3351 1.09765C14.3686 0.358255 13.0949 -0.0308742 11.79 0.0145613C10.4851 0.0599969 9.25392 0.536338 8.3633 1.3404C7.23966 1.72532 6.15376 2.18408 5.11565 2.71243C3.53571 3.51454 2.3821 4.31665 1.47928 5.24541C0.576461 6.17417 0.0748935 7.16625 0.0121976 8.17945C-0.0834539 9.64747 0.307244 11.109 1.14072 12.4011C1.8053 13.4037 2.62035 14.1531 3.63602 14.6913L3.68618 14.7124C4.02991 14.9019 4.42911 15.0078 4.83978 15.0185H4.88994C4.88994 15.0396 5.00279 15.3457 5.00279 15.3457C5.15326 15.7784 5.30373 16.19 5.56706 16.8021C5.83038 17.4143 6.23163 18.2692 6.55765 18.9552L7.19715 20.3378C7.43276 20.8246 7.56436 21.3427 7.58587 21.8681C7.59563 22.3793 7.8074 22.8732 8.18775 23.2718H8.21283C8.47652 23.5267 8.80129 23.7317 9.1658 23.8734C9.37542 23.9503 9.60171 23.9898 9.83038 23.9895H9.85546C10.2526 23.9825 10.6338 23.8564 10.9304 23.6339C11.2269 23.4114 11.4193 23.1071 11.473 22.7758C11.5043 22.587 11.5169 22.3964 11.5106 22.2058V22.1742C11.5106 21.5937 11.5232 20.9182 11.6736 20.3061C11.7614 19.9578 11.8366 19.7573 11.9871 19.6201V19.599L12.0122 19.6201C12.0744 19.6915 12.125 19.7696 12.1627 19.8523C12.2877 20.229 12.3758 20.6138 12.426 21.0027C12.4511 21.2243 12.4636 21.467 12.4636 21.7203C12.4738 21.808 12.478 21.8961 12.4761 21.9842V22.5225C12.5263 23.2929 13.0028 23.6517 13.404 23.8206C13.6414 23.9328 13.9093 23.991 14.1815 23.9895H14.2066C14.6042 23.9815 14.9893 23.8709 15.31 23.6728C15.5376 23.5236 15.7364 23.3456 15.8993 23.1451C16.2244 22.7715 16.4001 22.3206 16.4009 21.8575C16.4135 21.3087 16.6141 20.7599 16.8147 20.2955C17.0153 19.8312 17.379 19.0185 17.7175 18.3219C18.2622 17.239 18.7394 16.1328 19.147 15.0079H19.1846C19.5309 15.0038 19.8692 14.9199 20.1627 14.7652C20.7691 14.4846 21.3123 14.1167 21.7677 13.6781C23.0216 12.475 23.7489 11.0185 23.962 9.23485C24.0581 8.53115 23.9831 7.81835 23.7417 7.13978C23.5003 6.46122 23.0974 5.83106 22.5577 5.28763ZM23.3351 9.18208C23.1345 10.8707 22.4573 12.2322 21.2912 13.3404C20.8846 13.7379 20.3961 14.0704 19.8492 14.3219C19.6465 14.4301 19.412 14.4885 19.1721 14.4908C19.0095 14.4882 18.8501 14.452 18.7081 14.3853C18.3069 15.6834 17.7175 16.9288 17.1407 18.132C16.8272 18.7758 16.5138 19.4512 16.2254 20.1267C16.0122 20.6227 15.7865 21.2243 15.774 21.8575C15.774 22.2147 15.6377 22.5625 15.3852 22.8496C15.2573 23.0066 15.1008 23.1455 14.9213 23.2612C14.7133 23.3974 14.4575 23.4716 14.194 23.4723C14.0187 23.4751 13.8456 23.4387 13.6924 23.3668C13.3163 23.2085 13.1282 22.913 13.1031 22.5013V21.9842C13.0906 21.6359 13.0906 21.2876 13.053 20.9499C12.9871 20.5337 12.8908 20.1213 12.7646 19.7151C12.7055 19.5608 12.6119 19.4175 12.4887 19.2929C12.4351 19.225 12.3624 19.1692 12.2771 19.1306C12.1918 19.0919 12.0965 19.0715 11.9997 19.0713C11.9011 19.0716 11.804 19.092 11.7167 19.1305C11.6294 19.1691 11.5544 19.2248 11.4981 19.2929C11.2598 19.5356 11.147 19.8312 11.0592 20.2111C10.8962 20.876 10.8837 21.5831 10.8837 22.1847V22.2269C10.8962 22.3895 10.8835 22.5527 10.8461 22.7124C10.8158 22.9196 10.6977 23.1106 10.5133 23.2503C10.329 23.3899 10.0909 23.4688 9.84292 23.4723C9.6961 23.4743 9.55056 23.449 9.41659 23.3984C9.13245 23.2913 8.87985 23.1327 8.67677 22.9341C8.37788 22.6317 8.21378 22.2509 8.21283 21.8575C8.18662 21.267 8.0381 20.6848 7.77395 20.1372L7.13446 18.7652C6.80844 18.0686 6.46988 17.3404 6.1564 16.6227C5.84292 15.905 5.70499 15.4829 5.50436 14.9235C5.44167 14.7441 5.36643 14.5647 5.30373 14.3853C5.1596 14.4569 4.99463 14.4935 4.82724 14.4908C4.48869 14.4908 4.20029 14.3536 3.97458 14.248C3.05922 13.7626 2.30687 13.0765 1.69245 12.1478C0.914753 10.9431 0.55009 9.58013 0.639157 8.21111C0.689314 7.31401 1.11565 6.45913 1.96831 5.58314C2.82098 4.70715 3.91188 3.9367 5.44167 3.14514C6.46598 2.63139 7.53484 2.18333 8.63916 1.80478C8.70261 1.78595 8.7589 1.75315 8.80217 1.70979C9.57763 1.00064 10.6547 0.578281 11.7986 0.534786C12.9425 0.491291 14.0605 0.83019 14.9088 1.4776L15.1972 1.72034C15.2562 1.76516 15.3241 1.80089 15.3978 1.82588C17.6799 2.62799 19.4229 3.49343 20.8523 4.55939C21.2923 4.8856 21.6991 5.24216 22.0686 5.62536C22.5565 6.11431 22.9205 6.68202 23.1382 7.29364C23.356 7.90526 23.423 8.54789 23.3351 9.18208Z" fill="white"/>
<path d="M16.514 3.29302L16.1504 3.14526C16.3761 3.77719 16.3891 4.44943 16.188 5.08722L16.3636 5.17165C16.6645 5.28774 16.9404 5.39328 17.2162 5.51993C18.0062 5.86822 19.0093 6.38537 19.7366 7.20859C20.2131 7.7574 20.4263 8.31677 20.351 8.88669V9.06611C20.2924 9.64547 20.1834 10.2204 20.025 10.7864C19.8494 11.3775 19.6112 11.9685 19.373 12.5278C19.2852 12.7495 19.1849 12.9711 19.0971 13.2033C19.0889 13.3217 19.1336 13.4384 19.2225 13.5305H19.235L19.3479 13.4672L19.5736 13.3194C19.8846 13.1312 20.1742 12.9193 20.4388 12.6862C21.3667 11.8313 21.956 10.7442 22.1567 9.46716C22.257 8.82336 22.2946 8.28511 22.1441 7.7574C21.9184 7.03972 21.4545 6.38537 20.652 5.69935C19.6112 4.81281 18.3322 4.07402 16.514 3.29302Z" fill="white"/>
</g>
</g>
<defs>
<clipPath id="clip0_1420_5550">
<rect width="24" height="24" fill="white" transform="matrix(-1 0 0 1 24 0)"/>
</clipPath>
<clipPath id="clip1_1420_5550">
<rect width="24" height="24" fill="white"/>
</clipPath>
</defs>
</svg>
