<svg width="24" height="24" viewBox="0 0 24 24" fill="none" xmlns="http://www.w3.org/2000/svg">
<path d="M20.3961 2.0678C19.2892 1.53447 17.9799 1.35669 16.4141 1.35669H16.3331C15.5189 1.35998 14.708 1.42906 13.9169 1.56254C13.8494 1.57189 13.8089 1.59996 13.8089 1.63739C13.8003 1.65601 13.8025 1.67622 13.8151 1.6937C13.8278 1.71119 13.8497 1.72456 13.8764 1.73096L15.0372 2.16137C15.165 2.21018 15.2652 2.28742 15.3217 2.38061C15.3782 2.4738 15.3877 2.57748 15.3487 2.67488C15.3097 2.77228 15.2244 2.85771 15.1066 2.91734C14.9889 2.97697 14.8455 3.00732 14.6998 3.00347C14.6059 3.00224 14.5135 2.98624 14.4298 2.95669L11.7302 1.96488L11.3522 1.84324C10.6233 1.61868 9.58392 1.45026 8.51756 1.38476L6.5468 1.40347H6.53331C5.38595 1.49704 4.38707 1.7216 3.64467 2.0678C2.53781 2.60113 2.03837 3.28417 1.98438 4.34149V4.58476C2.18685 6.36254 2.45682 6.9333 3.05074 7.91575C3.13173 8.03739 3.23972 8.17774 3.3612 8.32745L3.3882 8.36488L3.52318 8.52394C3.53639 8.53802 3.55437 8.54964 3.57554 8.55779C3.59672 8.56595 3.62045 8.57039 3.64467 8.57072H7.01925C7.16435 8.57527 7.30819 8.55022 7.43295 8.49866C7.55772 8.4471 7.65792 8.37131 7.72116 8.28067C7.72116 8.27131 7.73466 8.26195 7.73466 8.24324V7.43856C7.7071 7.11911 7.8568 6.80444 8.1531 6.55903C8.36908 6.38125 8.78752 6.1754 9.52993 6.1754H14.4973C15.2397 6.1754 15.6582 6.39061 15.8876 6.55903C16.3061 6.88651 16.3061 7.30757 16.3061 7.4292V8.24324C16.3061 8.26195 16.3196 8.27131 16.3196 8.28067C16.3828 8.37131 16.483 8.4471 16.6078 8.49866C16.7325 8.55022 16.8764 8.57527 17.0215 8.57072H20.5041C20.5206 8.57522 20.5388 8.57582 20.5559 8.57244C20.5729 8.56906 20.5879 8.56188 20.5985 8.55201C20.693 8.49587 20.909 8.33681 21.1385 7.94382C21.8944 6.62453 21.9349 6.19412 22.0699 4.58476C22.0836 4.54794 22.0836 4.5093 22.0699 4.47248V4.32277C22.0159 3.27482 21.5029 2.60113 20.3961 2.0678Z" fill="white"/>
<path d="M21.4623 0.954405C20.1665 0.336861 18.3577 1.91662e-05 16.3735 1.91662e-05H16.3195C14.8403 -0.00221856 13.3742 0.19151 12 0.570779C11.0821 0.290078 9.92126 0.1123 8.62542 0.0280893H8.50394L6.47919 0.0468028H6.33071C4.8324 0.16844 3.52306 0.486569 2.52418 0.954405C0.904387 1.73101 0.0809899 2.82575 0 4.30411V4.69709C0.24297 6.69008 0.566929 7.37312 1.22835 8.4585C1.32283 8.60821 1.43082 8.74856 1.53881 8.88891V8.90762L1.6333 9.0199C1.74128 9.1509 1.84927 9.28189 1.94376 9.42224C2.05279 9.57898 2.22331 9.71126 2.43578 9.80393C2.64825 9.8966 2.89408 9.94591 3.14511 9.94622H6.91114C5.70979 10.0959 4.75141 10.4608 4.04949 11.0222C1.98425 12.641 2.90214 15.2796 3.25309 16.1029V16.131L3.30709 16.1965V16.2526L3.33408 16.2714C3.64454 16.786 3.63105 17.1509 3.59055 18.3392V18.6105C3.52306 20.4819 4.27896 21.8386 4.91339 22.662C5.54781 23.4854 6.11474 23.9907 7.55905 23.9907C9.00337 23.9907 9.77278 23.1392 9.86727 22.3532C9.90776 22.0538 9.92126 21.7731 9.92126 21.4643C9.92084 20.694 10.0846 19.9278 10.4072 19.1907C10.5763 18.7153 10.8303 18.2564 11.1631 17.8246C11.3541 17.6679 11.6077 17.554 11.892 17.4971C12.0945 17.4971 12.297 17.7123 12.378 17.8059C12.7299 18.2249 12.985 18.6795 13.1339 19.1532C13.3228 19.7521 13.4443 20.4819 13.5253 20.9684L13.5523 21.1369C13.6063 21.3988 13.6333 21.6234 13.6873 21.8012C14.0922 23.317 15.1721 24 15.9955 24C17.3318 24 17.8853 23.5883 18.6412 22.662C19.3971 21.7357 19.856 20.2573 19.964 18.6854C20.0585 17.3661 20.288 16.917 20.6794 16.2433C20.7213 16.1979 20.7489 16.1469 20.7604 16.0936C21.5298 14.2129 21.3138 12.4819 20.18 11.462C19.0461 10.4421 17.3048 10.0117 14.9156 10.0117H14.4837C14.2465 10.0127 14.014 10.0574 13.81 10.1413C13.606 10.2251 13.4378 10.3451 13.3228 10.4889V8.53335H10.6772V10.0398H10.5827C9.83609 9.93551 9.07655 9.88223 8.31496 9.88072L7.73453 9.89943C8.19164 9.81984 8.61001 9.65746 8.94681 9.42893C9.28361 9.2004 9.52674 8.91393 9.65129 8.59885C9.68241 8.5258 9.70054 8.45039 9.70529 8.37429V7.85031H9.78628L9.73228 7.54154H14.3352V8.3275C14.3307 8.40284 14.3398 8.47828 14.3622 8.55207V8.58949C14.8076 9.65616 16.225 9.93686 16.9944 9.93686H20.5849C21.0304 9.93686 22.1237 9.79651 22.9066 8.4585C23.6895 7.12049 23.811 6.46552 23.9865 4.66902V4.29476C23.919 2.82575 23.0956 1.73101 21.4623 0.954405ZM8.31496 10.3298C9.03111 10.3328 9.74522 10.383 10.4477 10.4796L10.5287 10.4983L11.1766 10.6386H11.2171L11.2981 10.6199C11.3157 10.6118 11.33 10.6006 11.3394 10.5875C11.3489 10.5743 11.3533 10.5597 11.3521 10.545V9.00119H12.6479V13.0526C12.65 13.0715 12.6584 13.0898 12.6724 13.1061C12.6865 13.1223 12.7058 13.1361 12.7289 13.1462H12.7829C12.8007 13.1466 12.8183 13.1443 12.8346 13.1395C12.851 13.1346 12.8656 13.1273 12.8774 13.1181L13.7413 12.5287L14.6592 13.1649L12.4589 14.6807C12.3987 14.7226 12.3272 14.7558 12.2485 14.7785C12.1697 14.8011 12.0853 14.8128 12 14.8128C11.9147 14.8128 11.8303 14.8011 11.7515 14.7785C11.6728 14.7558 11.6013 14.7226 11.5411 14.6807L9.34083 13.1649L10.2587 12.5287L11.1226 13.1181C11.1344 13.1273 11.149 13.1346 11.1654 13.1395C11.1817 13.1443 11.1993 13.1466 11.2171 13.1462H11.2711C11.2959 13.1375 11.3166 13.124 11.3309 13.1075C11.3453 13.0909 11.3526 13.0719 11.3521 13.0526V11.6959C11.3514 11.6756 11.3421 11.6559 11.3253 11.6392C11.3085 11.6226 11.2849 11.6097 11.2576 11.6024L10.1777 11.3591H10.1642C9.55096 11.2734 8.92706 11.2295 8.30146 11.2281C7.03262 11.2281 6.10124 11.462 5.52081 11.9205C4.27896 12.9029 4.73791 14.8304 5.14286 15.71C5.54781 16.5895 5.6153 17.1509 5.5748 18.4889V18.648C5.52081 20.3135 6.22272 21.455 6.65467 21.9883C7.08661 22.5217 7.1946 22.6339 7.57255 22.6339C7.95051 22.6339 7.91001 22.3158 7.91001 22.2316C7.9482 21.9767 7.96623 21.7206 7.964 21.4643V21.4456C7.96615 20.5615 8.15255 19.6823 8.51744 18.8351C8.74691 18.2924 8.98988 17.6936 9.50281 17.1135C10.0157 16.5333 10.8391 16.131 11.865 16.131H11.9325C12.4319 16.1404 13.3768 16.2714 14.0922 17.1228C14.5518 17.6631 14.8844 18.2505 15.0776 18.8632C15.2642 19.5003 15.4039 20.1437 15.4961 20.7907V20.8094C15.5501 21.1369 15.5906 21.3895 15.631 21.5486C15.7795 22.0819 15.9955 22.3907 16.1575 22.5497C16.1657 22.562 16.1793 22.5721 16.1962 22.5788C16.2131 22.5855 16.2326 22.5884 16.252 22.5872H16.2655C16.2801 22.5887 16.2951 22.5877 16.3092 22.5845C16.3233 22.5812 16.336 22.5757 16.3465 22.5684C16.4949 22.5029 16.6434 22.3532 16.9404 21.9883C17.5073 21.2772 17.9258 19.9579 18.0067 18.6105C18.1147 17.0854 18.3982 16.4959 18.8841 15.71C19.5186 14.1567 19.4376 13.0059 18.6412 12.3041C17.8448 11.6024 16.144 11.3778 14.9156 11.3778H14.4837C14.3119 11.3778 14.147 11.3305 14.0255 11.2463C13.904 11.162 13.8358 11.0478 13.8358 10.9287C13.8392 10.8103 13.9086 10.6975 14.0294 10.6137C14.1501 10.53 14.3129 10.4819 14.4837 10.4796H14.9156C17.0754 10.4796 18.7222 10.9193 19.6535 11.7521C20.5849 12.5848 20.8819 14.1287 20.1125 15.9907C20.1125 16.0094 20.099 16.0187 20.0855 16.0374C19.667 16.7392 19.3971 17.2445 19.3026 18.6667C19.2081 20.0889 18.7492 21.586 18.0607 22.4374C17.3723 23.2889 17.0079 23.5322 16.009 23.5322C15.5231 23.5322 14.6997 22.9614 14.3622 21.717C14.3082 21.5205 14.2677 21.2398 14.2137 20.9123C14.1192 20.3509 13.9978 19.6491 13.8088 19.0503C13.6449 18.5298 13.3623 18.0308 12.9719 17.5719C12.6749 17.2164 12.3105 17.0293 11.9055 17.0293C11.5006 17.0293 10.8526 17.31 10.6097 17.5813C10.1912 18.0585 9.96175 18.5918 9.77278 19.0597C9.43361 19.8396 9.2608 20.6497 9.25984 21.4643C9.25984 21.7263 9.24634 21.9977 9.20585 22.3064C9.13836 22.8959 8.59842 23.5228 7.57255 23.5228C6.54668 23.5228 6.15523 23.2047 5.52081 22.4281C5.03487 21.8105 4.21147 20.5006 4.27896 18.6199V18.4608C4.31946 17.1415 4.34646 16.6924 3.94151 16.0468C3.94213 16.0417 3.94125 16.0366 3.93893 16.0318C3.93661 16.027 3.93289 16.0225 3.92801 16.0187C3.87402 15.8877 2.48369 12.9591 4.54893 11.331C5.38583 10.6667 6.65467 10.3298 8.31496 10.3298ZM23.3251 4.65031C23.1631 6.38131 23.0956 6.88657 22.2857 8.29008C21.6513 9.39417 20.8279 9.47838 20.5984 9.47838H17.0079C16.4274 9.47838 15.3611 9.26318 15.0236 8.46785C15.0124 8.4278 15.0079 8.38699 15.0101 8.34622V7.37312C15.0121 7.29628 14.979 7.22096 14.9156 7.15791C14.7966 7.09411 14.647 7.06401 14.4972 7.0737H9.52981C9.38133 7.0737 9.19235 7.09242 9.11136 7.15791C9.04583 7.22344 9.01703 7.30328 9.03037 7.38247H9.01687C9.01687 7.40119 9.03037 7.41055 9.03037 7.42926V8.34622C9.02794 8.38733 9.01888 8.42813 9.00337 8.46785C8.66592 9.26318 7.59955 9.47838 7.01912 9.47838H3.14511C3.02057 9.4779 2.89875 9.45306 2.79368 9.40671C2.68861 9.36036 2.60455 9.29439 2.55118 9.21639C2.45213 9.06504 2.33942 8.91816 2.21372 8.77663V8.75791C2.07894 8.60069 1.95726 8.43824 1.84927 8.27136C1.20135 7.22341 0.904387 6.56844 0.674916 4.65967V4.32283C0.742407 2.98481 1.45782 2.03043 2.90214 1.33803C3.82002 0.907622 5.03487 0.62692 6.4117 0.514639H6.47919L8.51744 0.495926H8.57143C9.82677 0.570779 10.9876 0.757914 11.865 1.03862L11.946 1.05733H12.054L12.135 1.03862C13.2688 0.68306 14.8346 0.467855 16.3195 0.467855H16.3735C18.2227 0.467855 19.8965 0.776627 21.0844 1.33803C22.5422 2.03043 23.2576 2.97546 23.3251 4.31347V4.65031Z" fill="white"/>
</svg>
