<svg width="14" height="14" viewBox="0 0 14 14" fill="none" xmlns="http://www.w3.org/2000/svg">
<g clip-path="url(#clip0_832_26792)">
<path d="M11.198 1.20632C10.6446 0.895208 9.98994 0.791504 9.20704 0.791504H9.16654C8.75944 0.793422 8.354 0.83372 7.95844 0.911582C7.9247 0.91704 7.90445 0.933414 7.90445 0.955247C7.90015 0.966106 7.90127 0.977896 7.90757 0.988096C7.91388 0.998295 7.92487 1.00609 7.93819 1.00983L8.51862 1.2609C8.58248 1.28937 8.63259 1.33443 8.66085 1.38879C8.68911 1.44315 8.69387 1.50363 8.67435 1.56045C8.65483 1.61727 8.61219 1.6671 8.55331 1.70188C8.49443 1.73667 8.42276 1.75437 8.34989 1.75213C8.30293 1.75141 8.25677 1.74208 8.21491 1.72484L6.86508 1.14628L6.6761 1.07532C6.31165 0.94433 5.79196 0.846085 5.25878 0.807878L4.2734 0.818794H4.26665C3.69297 0.873375 3.19354 1.00437 2.82233 1.20632C2.2689 1.51743 2.01918 1.91587 1.99219 2.53263V2.67454C2.09342 3.71158 2.22841 4.04453 2.52537 4.61762C2.56587 4.68858 2.61986 4.77045 2.6806 4.85778L2.6941 4.87961L2.76159 4.9724C2.7682 4.98061 2.77718 4.98739 2.78777 4.99215C2.79836 4.9969 2.81022 4.99949 2.82233 4.99969H4.50962C4.58217 5.00235 4.6541 4.98773 4.71648 4.95765C4.77886 4.92758 4.82896 4.88337 4.86058 4.83049C4.86058 4.82503 4.86733 4.81957 4.86733 4.80866V4.33926C4.85355 4.15292 4.9284 3.96936 5.07655 3.8262C5.18454 3.7225 5.39376 3.60242 5.76497 3.60242H8.24866C8.61986 3.60242 8.82908 3.72796 8.94382 3.8262C9.15304 4.01723 9.15304 4.26285 9.15304 4.3338V4.80866C9.15304 4.81957 9.15979 4.82503 9.15979 4.83049C9.19141 4.88337 9.24151 4.92758 9.30389 4.95765C9.36627 4.98773 9.4382 5.00235 9.51075 4.99969H11.252C11.2603 5.00231 11.2694 5.00266 11.2779 5.00069C11.2865 4.99872 11.294 4.99453 11.2993 4.98877C11.3465 4.95603 11.4545 4.86324 11.5692 4.634C11.9472 3.86441 11.9674 3.61334 12.0349 2.67454C12.0418 2.65306 12.0418 2.63053 12.0349 2.60905V2.52172C12.0079 1.91041 11.7515 1.51743 11.198 1.20632Z" fill="#878687"/>
<path d="M11.7312 0.556736C11.0832 0.196502 10.1789 1.11803e-05 9.18673 1.11803e-05H9.15973C8.42017 -0.00129416 7.68711 0.111714 7 0.332955C6.54106 0.169212 5.96063 0.0655083 5.31271 0.0163854H5.25197L4.2396 0.0273016H4.16535C3.4162 0.0982568 2.76153 0.283832 2.26209 0.556736C1.45219 1.00976 1.04049 1.64835 1 2.51073V2.73997C1.12148 3.90255 1.28346 4.30099 1.61417 4.93412C1.66142 5.02145 1.71541 5.10332 1.7694 5.1852V5.19611L1.81665 5.26161C1.87064 5.33802 1.92463 5.41444 1.97188 5.49631C2.0264 5.58774 2.11165 5.6649 2.21789 5.71896C2.32412 5.77302 2.44704 5.80178 2.57255 5.80196H4.45557C3.85489 5.88929 3.3757 6.10216 3.02475 6.42964C1.99213 7.37389 2.45107 8.91307 2.62655 9.39338V9.40976L2.65354 9.44796V9.48071L2.66704 9.49163C2.82227 9.79182 2.81552 10.0047 2.79528 10.6979V10.8562C2.76153 11.9478 3.13948 12.7392 3.45669 13.2195C3.7739 13.6998 4.05737 13.9946 4.77953 13.9946C5.50169 13.9946 5.88639 13.4979 5.93363 13.0394C5.95388 12.8647 5.96063 12.701 5.96063 12.5209C5.96042 12.0715 6.04229 11.6246 6.2036 11.1946C6.28817 10.9173 6.41514 10.6496 6.58155 10.3977C6.67705 10.3063 6.80386 10.2398 6.94601 10.2066C7.04724 10.2066 7.14848 10.3322 7.18898 10.3868C7.36495 10.6312 7.49249 10.8964 7.56693 11.1727C7.66142 11.522 7.72216 11.9478 7.76265 12.2316L7.77615 12.3298C7.80315 12.4827 7.81665 12.6137 7.84365 12.7174C8.04612 13.6016 8.58605 14 8.99775 14C9.66592 14 9.94263 13.7599 10.3206 13.2195C10.6985 12.6792 10.928 11.8168 10.982 10.8998C11.0292 10.1302 11.144 9.86824 11.3397 9.47526C11.3606 9.44877 11.3744 9.41901 11.3802 9.38793C11.7649 8.29085 11.6569 7.2811 11.09 6.68617C10.5231 6.09124 9.65242 5.84017 8.45782 5.84017H8.24185C8.12326 5.84073 8.00699 5.86682 7.90499 5.91574C7.80298 5.96466 7.71891 6.03465 7.66142 6.11853V4.97779H6.33858V5.85654H6.29134C5.91805 5.79571 5.53828 5.76463 5.15748 5.76375L4.86727 5.77467C5.09582 5.72824 5.305 5.63352 5.4734 5.50021C5.6418 5.3669 5.76337 5.19979 5.82565 5.016C5.84121 4.97338 5.85027 4.92939 5.85264 4.885V4.57935H5.89314L5.86614 4.39923H8.1676V4.85771C8.16536 4.90166 8.16989 4.94566 8.1811 4.98871V5.01054C8.40383 5.63276 9.11249 5.7965 9.49719 5.7965H11.2925C11.5152 5.7965 12.0619 5.71463 12.4533 4.93412C12.8448 4.15362 12.9055 3.77155 12.9933 2.7236V2.50527C12.9595 1.64835 12.5478 1.00976 11.7312 0.556736ZM5.15748 6.02574C5.51555 6.02749 5.87261 6.05673 6.22385 6.11307L6.26434 6.12399L6.5883 6.20586H6.60855L6.64904 6.19494C6.65786 6.1902 6.66499 6.18367 6.66972 6.17601C6.67446 6.16836 6.67664 6.15983 6.67604 6.15128V5.25069H7.32396V7.61405C7.32499 7.62507 7.32918 7.63574 7.33622 7.64522C7.34325 7.65469 7.35292 7.66271 7.36446 7.66863H7.39145C7.40033 7.66886 7.40916 7.66751 7.41732 7.66468C7.42548 7.66185 7.43278 7.65761 7.4387 7.65225L7.87064 7.30839L8.32958 7.67954L7.22947 8.56375C7.19938 8.58818 7.16361 8.60756 7.12423 8.62078C7.08486 8.634 7.04264 8.64081 7 8.64081C6.95736 8.64081 6.91514 8.634 6.87577 8.62078C6.83639 8.60756 6.80063 8.58818 6.77053 8.56375L5.67042 7.67954L6.12936 7.30839L6.56131 7.65225C6.56722 7.65761 6.57452 7.66185 6.58268 7.66468C6.59084 7.66751 6.59967 7.66886 6.60855 7.66863H6.63555C6.64794 7.66351 6.65831 7.65568 6.66547 7.64603C6.67263 7.63638 6.6763 7.6253 6.67604 7.61405V6.82262C6.67571 6.81077 6.67105 6.79926 6.66264 6.78955C6.65423 6.77983 6.64246 6.77235 6.6288 6.76804L6.08886 6.62613H6.08212C5.77548 6.57614 5.46353 6.55054 5.15073 6.54972C4.51631 6.54972 4.05062 6.68617 3.76041 6.95362C3.13948 7.52672 3.36895 8.65108 3.57143 9.16414C3.7739 9.6772 3.80765 10.0047 3.7874 10.7852V10.878C3.76041 11.8495 4.11136 12.5154 4.32733 12.8265C4.54331 13.1376 4.5973 13.2031 4.78628 13.2031C4.97525 13.2031 4.95501 13.0176 4.95501 12.9684C4.9741 12.8198 4.98311 12.6703 4.982 12.5209V12.51C4.98307 11.9942 5.07628 11.4813 5.25872 10.9871C5.37345 10.6706 5.49494 10.3213 5.75141 9.98286C6.00787 9.64445 6.41957 9.40976 6.93251 9.40976H6.96625C7.21597 9.41522 7.68841 9.49163 8.04612 9.98831C8.27588 10.3034 8.44218 10.6461 8.53881 11.0035C8.6321 11.3752 8.70193 11.7505 8.74803 12.1279V12.1388C8.77503 12.3298 8.79528 12.4772 8.81552 12.57C8.88976 12.8811 8.99775 13.0612 9.07874 13.154C9.08287 13.1611 9.08963 13.1671 9.09809 13.171C9.10654 13.1749 9.11629 13.1766 9.12599 13.1758H9.13273C9.14007 13.1767 9.14756 13.1762 9.15459 13.1743C9.16163 13.1724 9.16801 13.1692 9.17323 13.1649C9.24747 13.1267 9.32171 13.0394 9.47019 12.8265C9.75366 12.4117 9.96288 11.6421 10.0034 10.8562C10.0574 9.96648 10.1991 9.62262 10.4421 9.16414C10.7593 8.2581 10.7188 7.58676 10.3206 7.1774C9.92239 6.76804 9.07199 6.63705 8.45782 6.63705H8.24185C8.15593 6.63705 8.07353 6.60945 8.01277 6.56031C7.95202 6.51118 7.91789 6.44454 7.91789 6.37506C7.91961 6.30601 7.9543 6.24018 8.01468 6.19135C8.07506 6.14252 8.15647 6.11447 8.24185 6.11307H8.45782C9.53768 6.11307 10.3611 6.3696 10.8268 6.85537C11.2925 7.34114 11.4409 8.24173 11.0562 9.32789C11.0562 9.3388 11.0495 9.34426 11.0427 9.35518C10.8335 9.76453 10.6985 10.0593 10.6513 10.8889C10.6041 11.7185 10.3746 12.5918 10.0304 13.0885C9.68616 13.5852 9.50394 13.7271 9.0045 13.7271C8.76153 13.7271 8.34983 13.3942 8.1811 12.6682C8.15411 12.5536 8.13386 12.3899 8.10686 12.1988C8.05962 11.8714 7.99888 11.462 7.90439 11.1127C7.82243 10.8091 7.68117 10.518 7.48594 10.2503C7.33746 10.0429 7.15523 9.93373 6.95276 9.93373C6.75028 9.93373 6.42632 10.0975 6.30484 10.2558C6.09561 10.5341 5.98088 10.8452 5.88639 11.1181C5.7168 11.5731 5.6304 12.0457 5.62992 12.5209C5.62992 12.6737 5.62317 12.832 5.60292 13.0121C5.56918 13.356 5.29921 13.7216 4.78628 13.7216C4.27334 13.7216 4.07762 13.5361 3.76041 13.0831C3.51744 12.7228 3.10574 11.9587 3.13948 10.8616V10.7688C3.15973 9.99923 3.17323 9.73724 2.97075 9.36063C2.97106 9.35768 2.97063 9.3547 2.96947 9.35188C2.9683 9.34907 2.96645 9.34648 2.964 9.34426C2.93701 9.26785 2.24184 7.55947 3.27447 6.60976C3.69291 6.22223 4.32733 6.02574 5.15748 6.02574ZM12.6625 2.71268C12.5816 3.72243 12.5478 4.01717 12.1429 4.83588C11.8256 5.47993 11.4139 5.52906 11.2992 5.52906H9.50394C9.21372 5.52906 8.68054 5.40352 8.51181 4.93958C8.50621 4.91622 8.50395 4.89241 8.50506 4.86863V4.30099C8.50605 4.25616 8.48952 4.21223 8.45782 4.17545C8.39829 4.13823 8.32351 4.12067 8.24859 4.12633H5.7649C5.69066 4.12633 5.59618 4.13724 5.55568 4.17545C5.52291 4.21367 5.50852 4.26025 5.51519 4.30644H5.50844C5.50844 4.31736 5.51519 4.32282 5.51519 4.33373V4.86863C5.51397 4.89261 5.50944 4.91641 5.50169 4.93958C5.33296 5.40352 4.79978 5.52906 4.50956 5.52906H2.57255C2.51028 5.52878 2.44938 5.51428 2.39684 5.48725C2.34431 5.46021 2.30228 5.42173 2.27559 5.37623C2.22606 5.28794 2.16971 5.20226 2.10686 5.1197V5.10878C2.03947 5.01707 1.97863 4.92231 1.92463 4.82496C1.60067 4.21366 1.45219 3.83159 1.33746 2.71814V2.52165C1.3712 1.74114 1.72891 1.18442 2.45107 0.780518C2.91001 0.529446 3.51744 0.365703 4.20585 0.300206H4.2396L5.25872 0.28929H5.28571C5.91339 0.332955 6.49381 0.442116 6.93251 0.605859L6.973 0.616775H7.027L7.06749 0.605859C7.63442 0.398452 8.41732 0.272916 9.15973 0.272916H9.18673C10.1114 0.272916 10.9483 0.453033 11.5422 0.780518C12.2711 1.18442 12.6288 1.73568 12.6625 2.51619V2.71268Z" fill="#878687"/>
</g>
<defs>
<clipPath id="clip0_832_26792">
<rect width="12" height="14" fill="white" transform="translate(1)"/>
</clipPath>
</defs>
</svg>
