<svg width="60" height="60" viewBox="0 0 60 60" fill="none" xmlns="http://www.w3.org/2000/svg">
<rect width="60" height="60" rx="30" fill="#161616"/>
<path d="M29.6204 47.9998C27.4773 47.9852 25.2118 47.0509 23.0687 45.3137C21.3175 43.883 19.7867 42.0437 18.3906 39.6496C18.2547 39.427 18.1585 39.1735 18.1079 38.9048C18.0574 38.6362 18.0536 38.358 18.0967 38.0875C18.149 37.8009 18.2484 37.5294 18.3892 37.2889C18.5301 37.0483 18.7095 36.8435 18.9172 36.6861L20.2521 35.6642L22.0155 34.3212C22.223 34.1631 22.3958 33.9481 22.5194 33.6941C22.643 33.4402 22.7137 33.1546 22.7258 32.8614C22.733 32.5699 22.6824 32.2805 22.5781 32.0167C22.4739 31.7529 22.3189 31.5221 22.1257 31.3432C21.8648 31.0939 21.5416 30.9552 21.2073 30.949C21.0453 30.9495 20.8843 30.979 20.7297 31.0366L17.4966 32.2336L16.2108 32.7154C15.983 32.8132 15.7426 32.8626 15.5005 32.8614C14.631 32.8614 13.9452 32.2044 13.6513 31.1242C13.1492 29.1826 12.6349 27.2264 12.1205 25.2849C11.9368 24.5696 11.9613 23.898 12.2063 23.3579C12.4512 22.8178 12.892 22.3944 13.4799 22.1755L14.4841 21.8105L16.0638 21.212C16.0883 21.212 16.1006 21.212 16.1006 21.1974C16.1006 21.1816 16.1049 21.1662 16.1128 21.1536C16.174 18.8179 15.5985 16.6427 14.3249 14.5114C14.1501 14.2124 14.0406 13.8662 14.0065 13.5041C13.9963 13.3157 14.0181 13.1267 14.0708 12.9486C14.1234 12.7705 14.2056 12.6069 14.3126 12.4676C14.431 12.3193 14.5735 12.2014 14.7314 12.1211C14.8893 12.0408 15.0594 11.9997 15.2311 12.0005H15.2923C15.6809 12.0066 16.0638 12.1128 16.4147 12.3118C16.7655 12.5109 17.0762 12.7981 17.3252 13.1537L18.1824 14.3508C18.7458 15.1537 19.3336 15.9858 19.9336 16.7741C21.7828 19.1828 23.4851 20.92 25.3098 22.2192C26.5344 23.0951 27.6855 23.6499 28.8367 23.898C29.2172 23.9732 29.6021 24.0122 29.9878 24.0148C31.0165 24.0148 32.0697 23.7375 33.1964 23.1535C34.5924 22.4236 35.9518 21.358 37.4703 19.7959C39.4542 17.7522 41.1319 15.4019 42.3811 13.5625C42.7974 12.9494 43.275 12.3654 43.9853 12.1465C44.2362 12.0586 44.4955 12.0095 44.7568 12.0005H44.7936C45.015 11.9919 45.2338 12.0605 45.4231 12.198C45.6123 12.3354 45.7638 12.5356 45.859 12.7742C45.9722 13.032 46.0208 13.3232 45.9991 13.6131C45.9774 13.903 45.8862 14.1793 45.7365 14.4092C45.2076 15.2572 44.7753 16.1849 44.4507 17.1683C44.0611 18.3894 43.8659 19.6865 43.8751 20.993C43.8751 21.1974 43.8996 21.212 44.0343 21.2704L45.9325 21.9565L46.557 22.1901C47.7082 22.628 48.247 23.8397 47.8919 25.2119C47.3775 27.1972 46.8509 29.168 46.3366 31.1534C46.0549 32.219 45.3569 32.8614 44.4874 32.8614C44.2505 32.8595 44.0152 32.8152 43.7894 32.73L39.3195 31.0512C39.1523 30.9935 38.9792 30.964 38.8051 30.9636C38.5153 30.9593 38.2305 31.0548 37.9851 31.2387C37.7396 31.4225 37.5438 31.6869 37.4213 32.0001C37.2607 32.4111 37.2332 32.8784 37.3439 33.3122C37.4547 33.746 37.6959 34.1157 38.0214 34.3504L40.2012 36.0146L41.0095 36.6277C41.2306 36.7853 41.4227 36.9946 41.5742 37.2429C41.7257 37.4913 41.8336 37.7736 41.8912 38.0729C41.9321 38.3748 41.9206 38.6834 41.8574 38.9797C41.7942 39.276 41.6807 39.5537 41.5238 39.7955C39.9073 42.4962 38.1316 44.5108 36.1232 45.9268C34.1148 47.3428 32.0574 47.9998 29.6327 47.9998H29.6204ZM23.3626 35.1241C23.1126 35.1254 22.8675 35.2061 22.6523 35.3577L19.4805 37.781C19.3989 37.8397 19.3284 37.918 19.2736 38.011C19.2187 38.104 19.1808 38.2096 19.1621 38.3211C19.1319 38.5414 19.176 38.767 19.2846 38.9488C20.6317 41.2262 22.0767 42.9634 23.7177 44.2918C25.7016 45.883 27.7957 46.7005 29.9266 46.7151C31.803 46.7092 33.6464 46.1259 35.2782 45.0217C37.3233 43.6641 39.0991 41.6641 40.7156 38.9342C40.7699 38.8502 40.8089 38.7535 40.83 38.6505C40.8511 38.5474 40.8538 38.4401 40.838 38.3357C40.8141 38.2133 40.7691 38.0982 40.7059 37.9976C40.6426 37.8971 40.5625 37.8134 40.4706 37.7518L37.4091 35.4161C37.3408 35.3569 37.2668 35.3079 37.1886 35.2701C36.8615 35.1136 36.4992 35.0954 36.1622 35.2185C35.8251 35.3416 35.5336 35.5985 35.336 35.9466C35.1385 36.2946 35.0469 36.7128 35.0765 37.1316C35.1061 37.5503 35.2551 37.9443 35.4986 38.2481C35.6211 38.4087 35.7681 38.6277 35.7436 38.8904C35.7191 39.1532 35.5599 39.3284 35.4374 39.4452L35.1925 39.6642C34.7971 40.033 34.3841 40.3742 33.9556 40.686C32.4442 41.835 30.6296 42.277 28.8612 41.9269C27.3671 41.6495 25.9833 40.8612 24.6362 39.5182C24.428 39.3138 24.2688 39.1386 24.2566 38.8904C24.2443 38.6423 24.3668 38.4379 24.5505 38.1897C24.7943 37.8595 24.9298 37.4353 24.932 36.9954C24.9343 36.5555 24.8031 36.1294 24.5627 35.7956C24.4139 35.5889 24.2299 35.4222 24.0231 35.3064C23.8162 35.1907 23.5911 35.1285 23.3626 35.1241ZM30.5512 40.7152C31.9105 40.5692 33.1964 39.9269 34.4455 38.7445C34.2085 38.3357 34.058 37.8646 34.0068 37.3715C33.9556 36.8783 34.0053 36.3777 34.1516 35.9124C34.2748 35.487 34.4762 35.0998 34.741 34.779C35.0059 34.4583 35.3275 34.2121 35.6823 34.0584C34.1516 32.6862 31.9472 31.6205 30.5757 31.6205H30.5512V40.7152ZM25.5669 38.7591C26.816 39.9269 28.0897 40.5838 29.449 40.7152V31.6205L29.2531 31.6497L28.3101 31.8103C26.8283 32.1315 25.6159 33.0511 24.3545 34.073C24.7023 34.2395 25.0165 34.4922 25.2762 34.8143C25.5359 35.1365 25.7351 35.5207 25.8608 35.9416C25.9926 36.4074 26.0347 36.9025 25.9838 37.3903C25.9329 37.8781 25.7904 38.346 25.5669 38.7591ZM30.5879 30.3505C31.8003 30.4235 32.8167 30.7154 33.6862 31.241C34.3353 31.6205 34.9598 32.0731 35.5599 32.511L36.2089 32.9782C36.1788 32.4463 36.2644 31.9141 36.4575 31.4333C36.6506 30.9525 36.9447 30.5393 37.3111 30.2337C36.9928 30.0211 36.7494 29.6791 36.6253 29.2702C36.5547 29.0061 36.5334 28.7268 36.563 28.4519C36.5927 28.177 36.6724 27.9132 36.7968 27.679C37.6662 25.8104 38.6092 23.8397 39.8461 21.2412C39.9749 20.9467 40.1708 20.7014 40.4112 20.5336C40.6516 20.3657 40.9269 20.2821 41.2054 20.2923H41.3401C41.4899 20.3141 41.6376 20.3532 41.781 20.4091L41.8667 20.4383L42.7607 20.774H42.8097C42.7965 19.0561 43.1282 17.3593 43.7771 15.8252C44.0098 15.2705 44.2915 14.7449 44.5609 14.234L44.8548 13.6793C44.9405 13.5041 44.9283 13.4311 44.8915 13.3581C44.8548 13.2851 44.8548 13.2851 44.7446 13.2851H44.6833C44.4534 13.2932 44.2279 13.3614 44.0226 13.485C43.8173 13.6087 43.6373 13.7846 43.4955 14.0004L42.8097 14.9639L42.2953 15.6938C40.3359 18.4821 38.5725 20.5259 36.7478 22.1317C35.168 23.5331 33.7474 24.409 32.3024 24.8761C31.8674 25.0188 31.4258 25.131 30.9798 25.2119L30.5512 25.3141V30.3213L30.5879 30.3505ZM22.6891 30.2483C23.0523 30.5532 23.3434 30.9647 23.5343 31.4429C23.7252 31.921 23.8095 32.4498 23.779 32.9782L24.6117 32.3358C26.1303 31.1242 27.759 30.4527 29.4612 30.3505V25.2849C29.1428 25.2411 28.7999 25.1973 28.4693 25.1243C27.0732 24.8031 25.7384 24.117 24.2443 22.9638C22.4319 21.5623 20.7297 19.7667 18.8805 17.3288C18.2437 16.4675 17.6191 15.577 17.0068 14.7011L16.6149 14.1464C16.272 13.6647 15.9169 13.4019 15.4883 13.3143H15.4393L15.2433 13.2851C15.2142 13.2784 15.1839 13.2833 15.1574 13.2991C15.1308 13.315 15.1093 13.3408 15.0964 13.3727C15.0596 13.4603 15.0351 13.5479 15.2066 13.7961L15.2433 13.869H15.2556C16.468 15.9128 17.0925 17.9858 17.1782 20.2339V20.8032L17.3252 20.7448L18.2314 20.4091C18.4243 20.329 18.6273 20.2895 18.8315 20.2923C19.3948 20.2923 19.8724 20.6426 20.1908 21.3288C20.5092 22.0149 20.7419 22.482 21.0113 23.0659L21.4277 23.9272L21.9788 25.0951L23.2279 27.7082C23.3421 27.9449 23.4131 28.2077 23.4363 28.4794C23.4595 28.751 23.4344 29.0255 23.3626 29.2848C23.2397 29.6901 23.0013 30.0311 22.6891 30.2483ZM41.3524 30.4673C41.3524 30.4819 41.3769 30.4819 41.4014 30.4965L42.9566 31.0804L44.1323 31.5183C44.2476 31.5583 44.3673 31.5779 44.4874 31.5767C44.8793 31.5767 45.161 31.2994 45.3079 30.7738C45.8223 28.7885 46.3488 26.8031 46.8754 24.8177C47.0469 24.1608 46.8142 23.6353 46.2509 23.4309L45.5283 23.1535L43.5812 22.4236H43.52C43.52 22.4236 43.4955 22.4236 43.4587 22.4674C42.0259 24.336 41.3034 26.5403 41.2544 29.241C41.2666 29.314 41.2666 29.4016 41.2789 29.4892C41.2911 29.5768 41.3279 30.1023 41.3524 30.4527V30.4673ZM16.4802 22.409H16.4067L14.5575 23.1097L13.8105 23.3871C13.1492 23.6353 12.941 24.1024 13.1492 24.8907L14.6922 30.7738C14.827 31.2994 15.1209 31.5767 15.5127 31.5767C15.6288 31.5778 15.7444 31.5581 15.8556 31.5183L17.068 31.0658C17.5824 30.876 18.0845 30.6716 18.5988 30.4965L18.6478 30.4673V30.4381C18.6723 30.0877 18.6968 29.7373 18.7213 29.4892V29.2848C18.7213 26.6717 17.9375 24.2484 16.5169 22.4528C16.5292 22.4382 16.4924 22.409 16.4802 22.409ZM17.6191 21.9711C19.2479 24.336 19.9581 26.9783 19.7744 30.0439L20.2398 29.8833L22.1257 29.1534C22.1756 29.1299 22.2209 29.0945 22.2588 29.0493C22.2967 29.0041 22.3265 28.9501 22.3462 28.8906C22.3703 28.8096 22.3795 28.7234 22.3732 28.6377C22.3668 28.5521 22.3451 28.469 22.3094 28.3943L19.1989 21.8397C19.164 21.7586 19.1115 21.6901 19.0469 21.6413C18.9823 21.5926 18.9079 21.5653 18.8315 21.5623H18.7335C18.4029 21.6645 18.0722 21.7959 17.7171 21.9273L17.6191 21.9711ZM41.1809 21.5769C41.0585 21.5769 40.9115 21.6207 40.7523 21.9419L37.7397 28.2775C37.6923 28.3652 37.6603 28.4635 37.6455 28.5663C37.6308 28.6692 37.6337 28.7745 37.654 28.876C37.6956 28.9635 37.7518 29.0397 37.8193 29.1C37.8867 29.1603 37.9638 29.2033 38.0459 29.2264L40.0053 29.9709L40.2257 30.0439C40.042 27.0367 40.7645 24.3214 42.3811 21.9711H42.3076L41.4258 21.6353L41.1809 21.5769Z" fill="white"/>
<path d="M29.6199 47.7087C27.489 47.6941 25.248 46.7306 23.2029 45.081C21.3537 43.5774 19.8596 41.665 18.586 39.4898C18.0839 38.6285 18.2921 37.5045 19.0514 36.9351L22.1374 34.5702C22.3779 34.388 22.578 34.1395 22.7209 33.8457C22.8638 33.5518 22.9454 33.2213 22.9586 32.882C22.9718 32.5428 22.9163 32.2047 22.7968 31.8963C22.6774 31.588 22.4974 31.3184 22.2721 31.1104C22.0505 30.8917 21.7854 30.7446 21.5023 30.6832C21.2192 30.6219 20.9277 30.6483 20.6556 30.7601L16.1368 32.4535C15.1081 32.833 14.2141 32.2783 13.8834 31.0375C13.3691 29.0959 12.867 27.1397 12.3527 25.1982C12.0098 23.8989 12.4629 22.8624 13.5528 22.4537L16.1368 21.4902C16.296 21.4464 16.3449 21.3588 16.3449 21.1544C16.4184 18.6289 15.7449 16.3954 14.5202 14.3517C14.3721 14.0955 14.2796 13.7996 14.2508 13.4904C14.2434 13.3283 14.2652 13.1663 14.3146 13.0151C14.364 12.8639 14.44 12.727 14.5374 12.6137C14.6348 12.5003 14.7514 12.4131 14.8794 12.3578C15.0074 12.3026 15.1438 12.2806 15.2795 12.2933C15.6351 12.3053 15.9847 12.4064 16.3054 12.59C16.6261 12.7736 16.9108 13.0356 17.1409 13.359C18.0104 14.5706 18.8554 15.7969 19.7617 16.9793C21.3659 19.0815 23.1171 21.0085 25.1745 22.4829C26.3012 23.3004 27.489 23.9135 28.7871 24.1909C30.3669 24.5266 31.8487 24.1763 33.2938 23.4318C34.7388 22.6873 36.3064 21.388 37.6289 20.0304C39.4659 18.1472 41.0457 15.9867 42.5642 13.7677C42.9683 13.1692 43.4092 12.6437 44.046 12.4393C44.2772 12.36 44.5158 12.3158 44.7563 12.3079C44.9382 12.2906 45.1202 12.3401 45.2778 12.4497C45.4354 12.5593 45.5611 12.7238 45.638 12.921C45.7341 13.1291 45.776 13.3665 45.7586 13.603C45.7411 13.8396 45.6651 14.0646 45.54 14.2495C45.0022 15.1166 44.5617 16.0637 44.2297 17.0669C43.8213 18.3234 43.6176 19.6611 43.6296 21.0085C43.6419 21.315 43.7153 21.461 43.9725 21.5486L46.483 22.4683C47.5117 22.8624 47.977 23.9135 47.6586 25.1252C47.1443 27.1105 46.6177 29.0813 46.1034 31.0667C45.7727 32.2783 44.891 32.833 43.8623 32.4535L39.3924 30.7747C38.9767 30.603 38.5222 30.6214 38.1172 30.8264C37.7122 31.0314 37.3855 31.4083 37.2003 31.8842C37.0181 32.3587 36.9872 32.8963 37.1134 33.3961C37.2396 33.8959 37.5143 34.3237 37.8861 34.5994L40.8742 36.8768C41.7437 37.5337 41.9274 38.6431 41.3273 39.6358C39.8823 42.0445 38.1678 44.1467 36.0002 45.6795C34.1388 46.9787 32.1549 47.7087 29.6199 47.7087ZM29.926 47.0079C31.8456 46.9986 33.7308 46.4004 35.4001 45.2707C37.6657 43.7671 39.4291 41.6066 40.9109 39.0957C41.2416 38.5556 41.0946 37.884 40.6048 37.5045L37.531 35.1688L37.2861 35.0082C36.9069 34.8222 36.4857 34.7972 36.0929 34.9374C35.7002 35.0775 35.3597 35.3743 35.1287 35.7781C34.8977 36.1818 34.79 36.6679 34.8238 37.1549C34.8576 37.642 35.0308 38.1004 35.3144 38.4534C35.5716 38.7599 35.5716 38.9497 35.2899 39.2125C34.8251 39.6555 34.3385 40.065 33.8326 40.4387C32.3141 41.519 30.6731 41.9861 28.8974 41.6504C27.3421 41.3438 25.995 40.4971 24.7949 39.3001C24.403 38.9205 24.403 38.8329 24.7336 38.3804C25.013 37.9959 25.1678 37.5049 25.17 36.9962C25.1723 36.4876 25.0218 35.9947 24.7459 35.6067C24.1948 34.833 23.2151 34.5994 22.5171 35.125C21.4639 35.9133 20.3985 36.7308 19.3453 37.5483C19.2348 37.6246 19.1394 37.7282 19.0653 37.8521C18.9913 37.9761 18.9404 38.1175 18.916 38.2669C18.8916 38.4163 18.8944 38.5701 18.9241 38.7181C18.9538 38.8661 19.0097 39.0048 19.0881 39.1249C20.3372 41.227 21.7823 43.081 23.5825 44.5262C25.3827 45.9715 27.6482 46.9933 29.926 47.0079ZM16.9328 21.1982L18.3043 20.6873C19.0269 20.4099 19.6024 20.6727 19.9821 21.4756L21.219 24.0741C21.819 25.3295 22.4191 26.585 23.0069 27.855C23.4355 28.7601 23.1416 29.7382 22.3334 30.1324L22.1987 30.2054C23.2886 30.9499 23.7049 32.0593 23.4845 33.5338C23.9254 33.198 24.3418 32.906 24.7459 32.5703C26.1909 31.417 27.7707 30.7309 29.5097 30.6287C29.6444 30.6287 29.7056 30.5849 29.7056 30.3951V25.2419C29.7056 25.0522 29.6444 25.0084 29.4974 24.9938C29.1688 24.9676 28.8417 24.9189 28.5177 24.8478C26.9992 24.4974 25.6521 23.7091 24.3662 22.7165C22.3701 21.169 20.6556 19.2421 19.0636 17.1253C18.2921 16.1034 17.5451 15.0232 16.7981 13.9575C16.4552 13.4758 16.051 13.1254 15.5244 13.0378C15.304 12.994 15.0468 12.921 14.8999 13.213C14.7529 13.505 14.8631 13.7531 15.0101 13.9721L15.0591 14.0451C16.1612 15.9137 16.847 17.9574 16.9328 20.2639C16.945 20.5559 16.9328 20.8479 16.9328 21.1982ZM30.3057 25.096V30.5995L30.5629 30.6287C31.616 30.7017 32.6447 30.9499 33.5754 31.5046C34.5062 32.0593 35.3389 32.7163 36.2206 33.3294L36.5023 33.5338C36.2941 32.0447 36.7227 30.9499 37.7882 30.2054L37.6902 30.147C36.8329 29.7236 36.5513 28.7747 37.0044 27.8112C38.0167 25.6702 39.0373 23.5291 40.066 21.388C40.182 21.1164 40.3652 20.8937 40.5907 20.7501C40.8163 20.6065 41.0734 20.5489 41.3273 20.5851C41.4863 20.6064 41.6426 20.6505 41.7927 20.7165L43.0418 21.1836C43.0509 21.1063 43.055 21.0282 43.054 20.9501C43.0207 19.2253 43.3402 17.5167 43.9848 15.9721C44.3032 15.2275 44.695 14.556 45.0624 13.8553C45.1604 13.6509 45.2094 13.4466 45.1114 13.2276C45.0134 13.0086 44.842 12.994 44.6705 13.0086C44.4087 13.0248 44.1527 13.1058 43.9186 13.2466C43.6845 13.3873 43.4777 13.5847 43.3112 13.8261C42.9071 14.3808 42.5152 14.9502 42.1111 15.5195C40.4578 17.8698 38.6821 20.0742 36.6003 21.9135C35.2777 23.0814 33.8571 24.0887 32.2406 24.6142C31.616 24.8186 30.967 24.9354 30.3057 25.096ZM41.0089 29.2419C41.0334 29.5484 41.0824 30.001 41.1069 30.4535C41.1058 30.5295 41.1274 30.6034 41.1677 30.6622C41.2081 30.721 41.2646 30.7609 41.3273 30.7747L44.0705 31.7966C44.7563 32.0447 45.3196 31.6944 45.5278 30.8623L47.1076 24.9062C47.3157 24.0887 47.0096 23.4026 46.3238 23.1544L43.6541 22.1471C43.5908 22.1144 43.5201 22.1081 43.4534 22.1293C43.3867 22.1505 43.328 22.1979 43.2867 22.2639C41.7927 24.1909 41.0579 26.4682 41.0089 29.2419ZM18.9779 29.3003C18.9779 26.5704 18.1451 24.0741 16.7123 22.2639C16.6705 22.1946 16.6096 22.1449 16.5403 22.1236C16.4709 22.1022 16.3974 22.1106 16.3327 22.1471L13.7365 23.1252C12.9527 23.4172 12.6711 24.0595 12.916 24.9938L14.459 30.8623C14.6795 31.6798 15.2428 32.0447 15.9286 31.7966L18.6717 30.7747C18.7344 30.7609 18.7909 30.721 18.8313 30.6622C18.8717 30.6034 18.8932 30.5295 18.8922 30.4535C18.9289 30.001 18.9534 29.5338 18.9779 29.3003ZM29.6934 31.2856C29.1913 31.3732 28.7259 31.4316 28.2728 31.5338C26.5828 31.8988 25.2112 33.0374 23.8274 34.1469C25.7011 34.687 26.3012 37.1541 25.2357 38.8037C26.5216 40.0738 27.9666 40.9205 29.6934 41.0227V31.2856ZM30.3057 31.3586V41.0373C32.0324 40.9205 33.4775 40.0884 34.7756 38.8037C34.2245 37.9278 34.0775 37.0081 34.3837 36.0009C34.6898 34.9936 35.3144 34.4242 36.1961 34.1761C34.5184 32.4973 31.7752 31.1834 30.3057 31.3586ZM42.7969 21.8406L41.4988 21.3442C41.0579 21.1836 40.764 21.3296 40.5436 21.7968L37.531 28.1324C37.2371 28.7601 37.4085 29.3003 37.9718 29.5046L40.2986 30.3805L40.4946 30.4243C40.2129 27.1689 40.9722 24.3223 42.7969 21.8406ZM17.1899 21.826C19.0269 24.3223 19.7739 27.1689 19.5045 30.4535C20.4352 30.1032 21.3292 29.782 22.1987 29.417C22.5905 29.2565 22.7252 28.7017 22.5171 28.2638C21.4884 26.074 20.4515 23.8892 19.4065 21.7092C19.3412 21.5517 19.2328 21.4255 19.0993 21.3512C18.9657 21.2769 18.8149 21.259 18.6717 21.3004C18.1819 21.4464 17.7043 21.6362 17.1899 21.826Z" fill="white"/>
</svg>
