<svg width="40" height="40" viewBox="0 0 40 40" fill="none" xmlns="http://www.w3.org/2000/svg">
<path d="M19.747 32C18.3182 31.9903 16.8079 31.3674 15.3791 30.2093C14.2116 29.2555 13.1911 28.0293 12.2604 26.4332C12.1698 26.2848 12.1056 26.1158 12.0719 25.9367C12.0382 25.7576 12.0357 25.5722 12.0645 25.3919C12.0993 25.2008 12.1656 25.0198 12.2595 24.8594C12.3534 24.6991 12.473 24.5625 12.6115 24.4576L13.5014 23.7763L14.677 22.881C14.8154 22.7756 14.9305 22.6322 15.0129 22.4629C15.0953 22.2936 15.1425 22.1032 15.1505 21.9077C15.1553 21.7134 15.1216 21.5205 15.0521 21.3446C14.9826 21.1688 14.8792 21.0149 14.7505 20.8956C14.5765 20.7294 14.3611 20.637 14.1382 20.6328C14.0302 20.6332 13.9229 20.6529 13.8198 20.6912L11.6644 21.4893L10.8072 21.8104C10.6553 21.8756 10.4951 21.9086 10.3337 21.9077C9.75401 21.9077 9.29682 21.4698 9.10088 20.7496C8.76614 19.4552 8.42325 18.1511 8.08035 16.8567C7.95789 16.3799 7.97422 15.9322 8.1375 15.5721C8.30079 15.212 8.5947 14.9298 8.98658 14.7838L9.65604 14.5405L10.7092 14.1415C10.7255 14.1415 10.7337 14.1415 10.7337 14.1317C10.7337 14.1212 10.7366 14.111 10.7419 14.1025C10.7827 12.5454 10.399 11.0953 9.54991 9.67441C9.43338 9.47511 9.36042 9.2443 9.33764 9.00289C9.33085 8.87726 9.34543 8.7513 9.38051 8.63256C9.41558 8.51382 9.47042 8.40475 9.54174 8.31191C9.62065 8.21305 9.71566 8.13444 9.82094 8.08089C9.92623 8.02734 10.0396 7.99997 10.1541 8.00048H10.1949C10.4539 8.00454 10.7092 8.07535 10.9431 8.20806C11.177 8.34077 11.3841 8.53224 11.5501 8.76932L12.1216 9.56736C12.4972 10.1026 12.8891 10.6574 13.2891 11.1829C14.5219 12.7887 15.6567 13.9468 16.8732 14.813C17.6896 15.3969 18.457 15.7667 19.2245 15.9322C19.4781 15.9823 19.7348 16.0083 19.9919 16.0101C20.6777 16.0101 21.3798 15.8251 22.1309 15.4359C23.0616 14.9492 23.9678 14.2388 24.9802 13.1975C26.3028 11.835 27.4213 10.2681 28.254 9.04182C28.5316 8.63307 28.85 8.24378 29.3235 8.0978C29.4908 8.03921 29.6636 8.0065 29.8379 8.00048H29.8624C30.01 7.99476 30.1559 8.04052 30.282 8.13214C30.4082 8.22375 30.5092 8.35726 30.5727 8.51628C30.6481 8.68819 30.6805 8.88232 30.6661 9.07557C30.6516 9.26882 30.5908 9.45304 30.491 9.60628C30.1384 10.1716 29.8502 10.7901 29.6338 11.4457C29.374 12.2598 29.2439 13.1245 29.2501 13.9955C29.2501 14.1317 29.2664 14.1415 29.3562 14.1804L30.6216 14.6378L31.038 14.7935C31.8055 15.0855 32.1647 15.8933 31.9279 16.8081C31.585 18.1317 31.234 19.4455 30.8911 20.7691C30.7033 21.4795 30.2379 21.9077 29.6583 21.9077C29.5003 21.9065 29.3435 21.877 29.1929 21.8202L26.213 20.701C26.1015 20.6625 25.9861 20.6428 25.8701 20.6426C25.6768 20.6397 25.487 20.7034 25.3234 20.8259C25.1597 20.9485 25.0292 21.1248 24.9475 21.3335C24.8405 21.6076 24.8221 21.9191 24.8959 22.2083C24.9698 22.4975 25.1306 22.744 25.3476 22.9004L26.8008 24.0099L27.3396 24.4186C27.4871 24.5237 27.6151 24.6632 27.7161 24.8288C27.8172 24.9944 27.889 25.1826 27.9275 25.3821C27.9548 25.5833 27.9471 25.7891 27.905 25.9866C27.8628 26.1842 27.7871 26.3693 27.6825 26.5305C26.6049 28.331 25.4211 29.674 24.0821 30.618C22.7432 31.5621 21.3716 32 19.7551 32H19.747ZM15.5751 23.4162C15.4084 23.4171 15.245 23.4709 15.1015 23.5719L12.987 25.1875C12.9326 25.2266 12.8856 25.2789 12.849 25.3409C12.8125 25.4029 12.7872 25.4733 12.7748 25.5476C12.7546 25.6944 12.784 25.8448 12.8564 25.9661C13.7545 27.4843 14.7178 28.6424 15.8118 29.528C17.1344 30.5888 18.5305 31.1338 19.9511 31.1436C21.202 31.1396 22.4309 30.7508 23.5188 30.0146C24.8822 29.1095 26.066 27.7762 27.1437 25.9563C27.18 25.9003 27.2059 25.8359 27.22 25.7671C27.2341 25.6984 27.2359 25.6269 27.2253 25.5573C27.2094 25.4757 27.1794 25.399 27.1373 25.3319C27.0951 25.2649 27.0417 25.2091 26.9804 25.168L24.9394 23.6109C24.8939 23.5715 24.8445 23.5388 24.7924 23.5136C24.5743 23.4092 24.3328 23.3971 24.1081 23.4792C23.8834 23.5612 23.689 23.7325 23.5574 23.9646C23.4257 24.1966 23.3646 24.4754 23.3843 24.7545C23.4041 25.0337 23.5034 25.2964 23.6658 25.4989C23.7474 25.606 23.8454 25.7519 23.829 25.9271C23.8127 26.1023 23.7066 26.2191 23.6249 26.297L23.4617 26.4429C23.1981 26.6888 22.9227 26.9163 22.6371 27.1242C21.6294 27.8902 20.4197 28.1848 19.2408 27.9514C18.2448 27.7665 17.3222 27.241 16.4241 26.3456C16.2854 26.2094 16.1792 26.0926 16.1711 25.9271C16.1629 25.7617 16.2445 25.6254 16.367 25.46C16.5295 25.2398 16.6199 24.957 16.6214 24.6638C16.6229 24.3705 16.5354 24.0864 16.3752 23.8639C16.2759 23.7261 16.1533 23.615 16.0154 23.5378C15.8775 23.4606 15.7274 23.4192 15.5751 23.4162ZM20.3674 27.1437C21.2737 27.0463 22.1309 26.6181 22.9636 25.8298C22.8057 25.5573 22.7053 25.2432 22.6712 24.9145C22.6371 24.5857 22.6702 24.252 22.7677 23.9418C22.8499 23.6582 22.9841 23.4 23.1607 23.1862C23.3372 22.9723 23.5516 22.8082 23.7882 22.7058C22.7677 21.791 21.2982 21.0805 20.3838 21.0805H20.3674V27.1437ZM17.0446 25.8395C17.8774 26.6181 18.7264 27.0561 19.6327 27.1437V21.0805L19.502 21.1L18.8734 21.207C17.8855 21.4211 17.0773 22.0343 16.2364 22.7155C16.4682 22.8265 16.6777 22.995 16.8508 23.2097C17.0239 23.4245 17.1568 23.6806 17.2406 23.9612C17.3284 24.2717 17.3564 24.6019 17.3225 24.9271C17.2886 25.2523 17.1936 25.5641 17.0446 25.8395ZM20.3919 20.2338C21.2002 20.2825 21.8778 20.4771 22.4575 20.8275C22.8902 21.0805 23.3065 21.3822 23.7066 21.6742L24.1393 21.9856C24.1192 21.631 24.1763 21.2763 24.305 20.9557C24.4338 20.6351 24.6298 20.3597 24.8741 20.156C24.6619 20.0143 24.4996 19.7863 24.4169 19.5136C24.3698 19.3376 24.3556 19.1514 24.3754 18.9681C24.3951 18.7849 24.4483 18.609 24.5312 18.4528C25.1108 17.2071 25.7395 15.8933 26.564 14.1609C26.6499 13.9646 26.7805 13.8011 26.9408 13.6892C27.1011 13.5773 27.2846 13.5216 27.4703 13.5283H27.5601C27.6599 13.5429 27.7584 13.569 27.854 13.6062L27.9111 13.6257L28.5071 13.8495H28.5398C28.531 12.7042 28.7522 11.573 29.1847 10.5503C29.3399 10.1805 29.5276 9.83012 29.7073 9.4895L29.9032 9.11968C29.9603 9.00289 29.9522 8.95423 29.9277 8.90557C29.9032 8.85691 29.9032 8.85691 29.8297 8.85691H29.7889C29.6356 8.86227 29.4852 8.90777 29.3484 8.99019C29.2115 9.0726 29.0915 9.18991 28.997 9.33378L28.5398 9.97611L28.1969 10.4627C26.8906 12.3216 25.715 13.6841 24.4985 14.7546C23.4453 15.6889 22.4983 16.2728 21.5349 16.5842C21.2449 16.6794 20.9505 16.7541 20.6532 16.8081L20.3674 16.8762V20.2143L20.3919 20.2338ZM15.126 20.1657C15.3682 20.369 15.5623 20.6433 15.6895 20.9621C15.8168 21.2809 15.873 21.6334 15.8526 21.9856L16.4078 21.5574C17.4202 20.7496 18.506 20.3019 19.6408 20.2338V16.8567C19.4286 16.8276 19.2 16.7984 18.9795 16.7497C18.0488 16.5356 17.1589 16.0782 16.1629 15.3093C14.9546 14.375 13.8198 13.178 12.587 11.5527C12.1624 10.9785 11.7461 10.3849 11.3379 9.80093L11.0766 9.43111C10.848 9.10994 10.6112 8.93477 10.3255 8.87637H10.2928L10.1622 8.85691C10.1428 8.8524 10.1226 8.85568 10.1049 8.86624C10.0872 8.8768 10.0729 8.89405 10.0642 8.9153C10.0398 8.97369 10.0234 9.03209 10.1377 9.19753L10.1622 9.24619H10.1704C10.9786 10.6087 11.395 11.9907 11.4522 13.4894V13.869L11.5501 13.83L12.1543 13.6062C12.2828 13.5528 12.4182 13.5265 12.5543 13.5283C12.9299 13.5283 13.2483 13.7619 13.4605 14.2193C13.6728 14.6767 13.8279 14.9882 14.0075 15.3775L14.2851 15.9517L14.6525 16.7302L15.4853 18.4723C15.5614 18.6301 15.6087 18.8053 15.6242 18.9864C15.6397 19.1675 15.6229 19.3505 15.5751 19.5234C15.4931 19.7936 15.3342 20.0209 15.126 20.1657ZM27.5682 20.3117C27.5682 20.3214 27.5846 20.3214 27.6009 20.3311L28.6377 20.7204L29.4215 21.0124C29.4984 21.039 29.5782 21.0521 29.6583 21.0513C29.9195 21.0513 30.1073 20.8664 30.2053 20.516C30.5482 19.1925 30.8992 17.8689 31.2503 16.5453C31.3646 16.1074 31.2095 15.757 30.8339 15.6208L30.3522 15.4359L29.0541 14.9492H29.0133C29.0133 14.9492 28.997 14.9492 28.9725 14.9784C28.0173 16.2242 27.5356 17.6937 27.5029 19.4942C27.5111 19.5428 27.5111 19.6012 27.5193 19.6596C27.5274 19.718 27.5519 20.0684 27.5682 20.3019V20.3117ZM10.9868 14.9395H10.9378L9.70502 15.4067L9.20701 15.5916C8.76614 15.757 8.62735 16.0684 8.76614 16.594L9.79483 20.516C9.88464 20.8664 10.0806 21.0513 10.3418 21.0513C10.4192 21.052 10.4963 21.0389 10.5704 21.0124L11.3787 20.7107C11.7216 20.5842 12.0563 20.4479 12.3992 20.3311L12.4319 20.3117V20.2922C12.4482 20.0586 12.4645 19.8251 12.4808 19.6596V19.5234C12.4808 17.7813 11.9583 16.1658 11.0113 14.9687C11.0195 14.959 10.995 14.9395 10.9868 14.9395ZM11.7461 14.6475C12.8319 16.2242 13.3054 17.9857 13.183 20.0294L13.4932 19.9224L14.7505 19.4358C14.7837 19.4201 14.8139 19.3965 14.8392 19.3664C14.8645 19.3362 14.8843 19.3002 14.8974 19.2606C14.9135 19.2066 14.9197 19.1491 14.9155 19.092C14.9112 19.0349 14.8967 18.9795 14.8729 18.9297L12.7992 14.56C12.776 14.5059 12.741 14.4602 12.6979 14.4277C12.6549 14.3952 12.6053 14.377 12.5543 14.375H12.489C12.2686 14.4432 12.0481 14.5308 11.8114 14.6184L11.7461 14.6475ZM27.4539 14.3848C27.3723 14.3848 27.2743 14.414 27.1682 14.6281L25.1598 18.8518C25.1282 18.9103 25.1068 18.9758 25.097 19.0444C25.0872 19.113 25.0891 19.1832 25.1027 19.2509C25.1304 19.3091 25.1679 19.36 25.2128 19.4001C25.2578 19.4403 25.3092 19.469 25.3639 19.4844L26.6702 19.9808L26.8171 20.0294C26.6947 18.0246 27.1764 16.2144 28.254 14.6475H28.205L27.6172 14.4237L27.4539 14.3848Z" fill="#100E10"/>
<path d="M19.7466 31.8059C18.326 31.7962 16.832 31.1539 15.4686 30.0541C14.2358 29.0517 13.2397 27.7768 12.3907 26.3267C12.0559 25.7525 12.1947 25.0031 12.7009 24.6236L14.7583 23.047C14.9186 22.9255 15.052 22.7598 15.1473 22.5639C15.2426 22.3681 15.2969 22.1477 15.3057 21.9215C15.3145 21.6953 15.2775 21.4699 15.1979 21.2644C15.1182 21.0588 14.9983 20.8791 14.8481 20.7405C14.7003 20.5946 14.5236 20.4966 14.3349 20.4557C14.1462 20.4148 13.9518 20.4324 13.7704 20.5069L10.7578 21.6358C10.072 21.8889 9.47606 21.519 9.25563 20.6918C8.91273 19.3974 8.578 18.0933 8.23511 16.7989C8.00651 15.9328 8.30858 15.2418 9.0352 14.9693L10.7578 14.327C10.864 14.2978 10.8966 14.2394 10.8966 14.1031C10.9456 12.4195 10.4966 10.9304 9.68017 9.56793C9.58143 9.39716 9.51972 9.19988 9.50055 8.99373C9.49562 8.88571 9.51011 8.77768 9.54306 8.67688C9.57601 8.57608 9.62665 8.48484 9.69159 8.40927C9.75653 8.3337 9.83427 8.27555 9.91959 8.23872C10.0049 8.20188 10.0959 8.18721 10.1863 8.1957C10.4234 8.20368 10.6565 8.27106 10.8703 8.39347C11.0841 8.51587 11.2739 8.69055 11.4273 8.90614C12.007 9.71391 12.5703 10.5314 13.1744 11.3197C14.2439 12.7212 15.4114 14.0058 16.783 14.9887C17.5341 15.5338 18.326 15.9425 19.1914 16.1274C20.2446 16.3513 21.2325 16.1177 22.1958 15.6213C23.1592 15.125 24.2042 14.2588 25.086 13.3537C26.3106 12.0983 27.3638 10.6579 28.3761 9.17865C28.6455 8.77963 28.9395 8.42927 29.364 8.29302C29.5181 8.24014 29.6772 8.21072 29.8375 8.20543C29.9588 8.1939 30.0801 8.22689 30.1852 8.29996C30.2903 8.37303 30.3741 8.48268 30.4253 8.61418C30.4894 8.75287 30.5173 8.91114 30.5057 9.06884C30.4941 9.22654 30.4434 9.37656 30.36 9.49981C30.0014 10.0779 29.7078 10.7093 29.4865 11.3781C29.2142 12.2157 29.0784 13.1076 29.0864 14.0058C29.0946 14.2102 29.1436 14.3075 29.315 14.3659L30.9887 14.979C31.6745 15.2418 31.9847 15.9425 31.7724 16.7503C31.4295 18.0738 31.0785 19.3877 30.7356 20.7113C30.5151 21.519 29.9273 21.8889 29.2415 21.6358L26.2616 20.5166C25.9844 20.4022 25.6815 20.4145 25.4115 20.5511C25.1415 20.6878 24.9236 20.9391 24.8002 21.2563C24.6787 21.5727 24.6581 21.931 24.7423 22.2642C24.8264 22.5974 25.0096 22.8826 25.2574 23.0664L27.2495 24.5847C27.8291 25.0226 27.9516 25.7623 27.5515 26.424C26.5882 28.0299 25.4452 29.4313 24.0001 30.4532C22.7592 31.3193 21.4366 31.8059 19.7466 31.8059ZM19.9507 31.3388C21.2304 31.3326 22.4872 30.9337 23.6001 30.1807C25.1105 29.1782 26.2861 27.7379 27.274 26.064C27.4944 25.7039 27.3964 25.2562 27.0699 25.0031L25.0207 23.446L24.8574 23.3389C24.6046 23.215 24.3238 23.1983 24.0619 23.2917C23.8001 23.3852 23.5732 23.5831 23.4191 23.8522C23.2651 24.1213 23.1933 24.4454 23.2159 24.7701C23.2384 25.0948 23.3539 25.4004 23.5429 25.6357C23.7144 25.8401 23.7144 25.9666 23.5266 26.1418C23.2167 26.4372 22.8923 26.7102 22.5551 26.9593C21.5427 27.6795 20.4487 27.9909 19.2649 27.7671C18.2281 27.5627 17.33 26.9982 16.5299 26.2002C16.2687 25.9472 16.2687 25.8888 16.4891 25.5871C16.6753 25.3307 16.7785 25.0034 16.78 24.6643C16.7815 24.3252 16.6812 23.9966 16.4973 23.738C16.1299 23.2222 15.4767 23.0664 15.0114 23.4168C14.3093 23.9423 13.599 24.4873 12.8969 25.0323C12.8232 25.0832 12.7596 25.1523 12.7102 25.2349C12.6609 25.3176 12.6269 25.4118 12.6107 25.5114C12.5944 25.611 12.5963 25.7136 12.6161 25.8122C12.6358 25.9109 12.6731 26.0034 12.7254 26.0834C13.5581 27.4849 14.5215 28.7208 15.7217 29.6843C16.9218 30.6478 18.4322 31.3291 19.9507 31.3388ZM11.2885 14.1323L12.2029 13.7917C12.6846 13.6068 13.0683 13.782 13.3214 14.3172L14.146 16.0496C14.546 16.8865 14.9461 17.7235 15.3379 18.5702C15.6237 19.1736 15.4277 19.8256 14.8889 20.0884L14.7991 20.1371C15.5257 20.6334 15.8033 21.3731 15.6563 22.356C15.9503 22.1322 16.2278 21.9375 16.4973 21.7137C17.4606 20.9448 18.5138 20.4874 19.6731 20.4193C19.7629 20.4193 19.8037 20.3901 19.8037 20.2636V16.8281C19.8037 16.7016 19.7629 16.6724 19.665 16.6627C19.4459 16.6452 19.2278 16.6128 19.0118 16.5654C17.9995 16.3318 17.1014 15.8063 16.2442 15.1445C14.9134 14.1129 13.7704 12.8282 12.7091 11.417C12.1947 10.7358 11.6967 10.0156 11.1987 9.30516C10.9701 8.984 10.7007 8.75043 10.3496 8.69204C10.2027 8.66284 10.0312 8.61418 9.93326 8.80882C9.83529 9.00347 9.90876 9.16891 10.0067 9.3149L10.0394 9.36356C10.7742 10.6093 11.2314 11.9718 11.2885 13.5095C11.2967 13.7041 11.2885 13.8987 11.2885 14.1323ZM20.2038 16.7308V20.3998L20.3752 20.4193C21.0774 20.468 21.7631 20.6334 22.3836 21.0032C23.0041 21.3731 23.5593 21.811 24.1471 22.2197L24.3349 22.356C24.1961 21.3633 24.4818 20.6334 25.1921 20.1371L25.1268 20.0981C24.5553 19.8159 24.3675 19.1833 24.6696 18.541C25.3445 17.1136 26.0248 15.6862 26.7106 14.2588C26.788 14.0777 26.9101 13.9293 27.0605 13.8336C27.2109 13.7379 27.3823 13.6995 27.5515 13.7236C27.6575 13.7377 27.7617 13.7672 27.8618 13.8112L28.6945 14.1226C28.7006 14.071 28.7033 14.0189 28.7027 13.9669C28.6805 12.817 28.8934 11.678 29.3232 10.6482C29.5354 10.1519 29.7967 9.70418 30.0416 9.23704C30.1069 9.10079 30.1396 8.96454 30.0743 8.81855C30.009 8.67257 29.8947 8.66284 29.7804 8.67257C29.6058 8.68335 29.4351 8.73738 29.2791 8.83121C29.123 8.92505 28.9851 9.05664 28.8741 9.21757C28.6047 9.5874 28.3435 9.96695 28.0741 10.3465C26.9719 11.9134 25.7881 13.3829 24.4002 14.6092C23.5184 15.3878 22.5714 16.0593 21.4937 16.4096C21.0774 16.5459 20.6447 16.6238 20.2038 16.7308ZM27.3393 19.4947C27.3556 19.6991 27.3883 20.0008 27.4046 20.3025C27.4039 20.3532 27.4183 20.4025 27.4452 20.4417C27.4721 20.4809 27.5098 20.5074 27.5515 20.5166L29.3803 21.1979C29.8375 21.3633 30.2131 21.1297 30.3519 20.575L31.405 16.6043C31.5438 16.0593 31.3397 15.6019 30.8825 15.4364L29.1027 14.7649C29.0605 14.7431 29.0134 14.7389 28.9689 14.753C28.9244 14.7672 28.8853 14.7988 28.8578 14.8428C27.8618 16.1274 27.3719 17.6456 27.3393 19.4947ZM12.6519 19.5337C12.6519 17.7138 12.0968 16.0496 11.1416 14.8428C11.1137 14.7965 11.0731 14.7634 11.0268 14.7492C10.9806 14.735 10.9316 14.7405 10.8885 14.7649L9.15766 15.417C8.63515 15.6116 8.44738 16.0398 8.61066 16.6627L9.63935 20.575C9.7863 21.12 10.1619 21.3633 10.619 21.1979L12.4478 20.5166C12.4896 20.5074 12.5273 20.4809 12.5542 20.4417C12.5811 20.4025 12.5955 20.3532 12.5948 20.3025C12.6193 20.0008 12.6356 19.6894 12.6519 19.5337ZM19.7956 20.8572C19.4608 20.9156 19.1506 20.9546 18.8485 21.0227C17.7219 21.266 16.8075 22.0251 15.8849 22.7647C17.1341 23.1248 17.5341 24.7696 16.8238 25.8693C17.6811 26.716 18.6444 27.2805 19.7956 27.3486V20.8572ZM20.2038 20.9059V27.3583C21.3549 27.2805 22.3183 26.7257 23.1837 25.8693C22.8163 25.2854 22.7184 24.6723 22.9225 24.0007C23.1266 23.3292 23.5429 22.9497 24.1308 22.7842C23.0123 21.665 21.1835 20.7891 20.2038 20.9059ZM28.5312 14.5605L27.6658 14.2296C27.3719 14.1226 27.176 14.2199 27.029 14.5313L25.0207 18.7551C24.8247 19.1736 24.939 19.5337 25.3146 19.6699L26.8658 20.2539L26.9964 20.283C26.8086 18.1128 27.3148 16.215 28.5312 14.5605ZM11.46 14.5508C12.6846 16.215 13.1826 18.1128 13.003 20.3025C13.6235 20.0689 14.2194 19.8548 14.7991 19.6115C15.0604 19.5045 15.1502 19.1347 15.0114 18.8427C14.3256 17.3829 13.6343 15.9263 12.9377 14.4729C12.8941 14.368 12.8219 14.2838 12.7328 14.2343C12.6438 14.1848 12.5433 14.1728 12.4478 14.2004C12.1213 14.2978 11.8029 14.4243 11.46 14.5508Z" fill="#100E10"/>
</svg>
