<svg width="60" height="60" viewBox="0 0 60 60" fill="none" xmlns="http://www.w3.org/2000/svg">
<rect width="60" height="60" rx="30" fill="white"/>
<path d="M49.2236 22.1981L48.4784 21.9643C47.7333 21.7305 46.9736 21.4821 46.2138 21.263C46.0531 21.2192 46.0239 21.2046 46.0239 21C46.0044 19.6917 46.2375 18.392 46.7106 17.1721C47.099 16.193 47.6148 15.2695 48.2447 14.4253C48.4233 14.1953 48.532 13.9187 48.5579 13.6286C48.5838 13.3385 48.5258 13.047 48.3908 12.789C48.2772 12.5502 48.0965 12.3498 47.8707 12.2123C47.6449 12.0747 47.3839 12.006 47.1197 12.0146H47.0758C46.7646 12.0182 46.4552 12.0625 46.1554 12.1461C45.308 12.3799 44.7382 12.9643 44.2414 13.5779C42.7512 15.4042 40.7495 17.7711 38.3827 19.802C36.571 21.3799 34.9492 22.4464 33.2836 23.1623C31.9395 23.7468 30.683 24.039 29.4557 24.039C28.9948 24.0386 28.5349 23.9946 28.0823 23.9075C26.709 23.6737 25.321 23.1185 23.8745 22.2419C21.6976 20.9416 19.6668 19.2029 17.4606 16.7776C16.7447 16.0033 16.0434 15.1705 15.3713 14.3669L14.3486 13.1688C14.0503 12.8132 13.6798 12.525 13.2617 12.3235C12.8435 12.122 12.3873 12.0117 11.9233 12H11.8502C11.6453 11.9993 11.4425 12.0403 11.2541 12.1207C11.0657 12.2011 10.8956 12.3191 10.7544 12.4675C10.6257 12.6056 10.5278 12.7696 10.4673 12.9484C10.4069 13.1273 10.3852 13.317 10.4038 13.5049C10.4323 13.8677 10.5585 14.2161 10.769 14.513C12.2885 16.6461 12.9752 18.8231 12.8875 21.1461V21.2046H12.8437L10.959 21.789L9.76092 22.1688C9.04501 22.388 8.51903 22.7971 8.24144 23.3377C7.96384 23.8783 7.92001 24.5503 8.13916 25.2662C8.7528 27.224 9.36644 29.1672 9.96546 31.125C10.3161 32.2062 11.1343 32.849 12.1716 32.849C12.4591 32.8482 12.7448 32.8039 13.019 32.7175L14.5531 32.2354L18.4103 31.0373C18.5922 30.9681 18.7854 30.9334 18.9801 30.9351C19.379 30.9413 19.7645 31.0801 20.0758 31.3296C20.3056 31.5117 20.489 31.7456 20.6109 32.0123C20.7328 32.279 20.7898 32.5707 20.7771 32.8636C20.7693 33.1569 20.6892 33.4437 20.5439 33.6985C20.3986 33.9534 20.1927 34.1685 19.9444 34.3247L17.8405 35.6688L16.2479 36.6916C15.9984 36.8453 15.7837 37.0495 15.6176 37.291C15.4516 37.5325 15.3378 37.8061 15.2836 38.0942C15.2255 38.3637 15.2255 38.6424 15.2834 38.912C15.3413 39.1815 15.456 39.4356 15.6197 39.6575C17.2853 42.039 19.1116 43.8945 21.2008 45.3263C23.7723 47.0649 26.4606 48 29.0174 48H29.032C31.9249 48 34.3794 47.3425 36.7755 45.9253C39.1716 44.5081 41.2901 42.5065 43.2187 39.8036C43.4132 39.5648 43.553 39.2862 43.6281 38.9875C43.7032 38.6888 43.7117 38.3773 43.6532 38.0749C43.5947 37.7725 43.4705 37.4866 43.2894 37.2375C43.1083 36.9884 42.8747 36.7821 42.6051 36.6331L41.6408 36.0195L39.0401 34.3539C38.6518 34.119 38.364 33.749 38.2319 33.3148C38.0998 32.8807 38.1326 32.413 38.3242 32.0016C38.4698 31.6866 38.7027 31.42 38.9954 31.2335C39.2881 31.047 39.6282 30.9485 39.9752 30.9497C40.1835 30.9552 40.39 30.9896 40.5888 31.052L45.9216 32.7175C46.1905 32.8072 46.4711 32.8564 46.7544 32.8636C47.7917 32.8636 48.6099 32.2208 48.9606 31.1396C49.5742 29.1672 50.2025 27.1948 50.8161 25.2078C51.2398 23.849 50.5969 22.6364 49.2236 22.1981ZM16.0142 29.5033C15.9849 29.7516 15.9557 30.1023 15.9411 30.4383V30.4821H15.8827L14.0564 31.052L12.6099 31.5049C12.4779 31.5492 12.3401 31.5738 12.2009 31.5779C11.7333 31.5779 11.3827 31.2857 11.222 30.7744L9.36644 24.901C9.11806 24.1266 9.36644 23.6445 10.1554 23.4107L11.0466 23.1331L13.2528 22.4318L13.3405 22.4026C13.3664 22.4143 13.3872 22.4351 13.3989 22.461C15.0937 24.2581 16.0288 26.6834 16.0288 29.2987L16.0142 29.5033ZM20.3388 28.9042C20.2867 29.018 20.1924 29.1071 20.0758 29.1526C19.3307 29.4156 18.6002 29.6494 17.8258 29.8831L17.2707 30.0584C17.4898 26.9903 16.6424 24.3312 14.6992 21.9789L14.8161 21.9351L16.0288 21.5844H16.1457C16.2368 21.5874 16.3256 21.6147 16.4026 21.6635C16.4797 21.7123 16.5423 21.7809 16.584 21.862C17.7674 23.9367 19.0239 26.1721 20.295 28.4221C20.3355 28.495 20.3602 28.5755 20.3678 28.6585C20.3753 28.7416 20.3655 28.8252 20.3388 28.9042ZM28.8129 40.7386C27.1911 40.5925 25.6716 39.9497 24.1814 38.7808C24.448 38.3674 24.618 37.8992 24.6787 37.411C24.7394 36.9228 24.6893 36.4272 24.532 35.961C24.3805 35.5389 24.1424 35.1531 23.8329 34.8285C23.5234 34.5039 23.1494 34.2477 22.7349 34.0763C24.2398 33.0682 25.6862 32.1477 27.4541 31.8263C27.8194 31.7533 28.1846 31.7094 28.5791 31.6656L28.8129 31.6218V40.7386ZM34.4232 35.9172C34.2487 36.3854 34.1894 36.8887 34.2505 37.3846C34.3115 37.8805 34.491 38.3544 34.7739 38.7662C33.2836 39.9497 31.7495 40.5925 30.1278 40.7386V31.6364H30.157C31.7934 31.6364 34.4232 32.7029 36.2495 34.0763C35.8266 34.2267 35.443 34.4702 35.1268 34.7889C34.8107 35.1075 34.5703 35.4931 34.4232 35.9172ZM49.6034 24.8279C48.9752 26.8149 48.3469 28.802 47.7333 30.7744C47.558 31.3003 47.2219 31.5925 46.7544 31.5925C46.6152 31.5884 46.4774 31.5638 46.3453 31.5195L44.9427 31.0812L43.0726 30.4968H43.0142V30.4675C42.9849 30.1169 42.9557 29.7808 42.9265 29.5033C42.8973 29.2257 42.9119 29.3279 42.8973 29.2549C42.9557 26.552 43.8177 24.3312 45.5417 22.4757L45.6002 22.4172L45.6732 22.4464L47.9963 23.177L48.8583 23.4399C49.5304 23.6445 49.808 24.1559 49.6034 24.8279ZM41.4216 29.9708L39.0694 29.2403C38.8744 29.1875 38.707 29.062 38.6018 28.8896C38.5776 28.788 38.5742 28.6826 38.5917 28.5797C38.6093 28.4767 38.6475 28.3784 38.7041 28.2906L42.2982 21.9497C42.4882 21.6136 42.6635 21.5698 42.8096 21.5698C42.9089 21.5779 43.007 21.5975 43.1018 21.6283L44.1538 21.9497L44.2414 21.9789C42.3129 24.3312 41.4508 27.0341 41.67 30.0584L41.4216 29.9708Z" fill="#161616"/>
</svg>
