<svg width="24" height="24" viewBox="0 0 24 24" fill="none" xmlns="http://www.w3.org/2000/svg">
<g clip-path="url(#clip0_1420_5738)">
<g clip-path="url(#clip1_1420_5738)">
<path d="M15.3397 16.0312C15.2696 16.2416 15.2517 16.4713 15.2881 16.6933C15.3244 16.9153 15.4136 17.1204 15.5449 17.2845C15.6239 17.3874 15.7186 17.5277 15.7028 17.6961C15.6914 17.7678 15.6681 17.8362 15.6342 17.8972C15.6003 17.9582 15.5566 18.0106 15.5055 18.0515L15.3476 18.1918C15.0933 18.429 14.827 18.6477 14.5502 18.8465C13.5761 19.5835 12.406 19.8667 11.266 19.6415C10.3028 19.4638 9.41072 18.9587 8.54229 18.0982C8.40808 17.9673 8.30545 17.8551 8.29756 17.6961C8.28966 17.5371 8.36861 17.4061 8.48703 17.2471C8.64267 17.0346 8.72901 16.7632 8.73046 16.4819C8.73191 16.2006 8.64836 15.9279 8.49493 15.7132C8.39896 15.5808 8.28039 15.474 8.14703 15.3998C8.01366 15.3256 7.86855 15.2858 7.72124 15.283C7.56011 15.2838 7.40206 15.3355 7.26335 15.4326L5.21861 16.9852C5.16649 17.0221 5.12146 17.0714 5.08644 17.1301C5.05142 17.1889 5.02717 17.2556 5.01527 17.3261C5.00337 17.3966 5.00407 17.4693 5.01734 17.5395C5.03061 17.6096 5.05614 17.6757 5.09229 17.7335C5.96072 19.1925 6.89229 20.3056 7.95019 21.1567C9.22914 22.1762 10.5791 22.7 11.9528 22.7093C13.1629 22.7089 14.3519 22.335 15.4028 21.6243C16.7212 20.7545 17.866 19.4731 18.9081 17.7241C18.9419 17.6695 18.9663 17.6075 18.9798 17.5417C18.9934 17.4759 18.9958 17.4076 18.987 17.3406C18.9708 17.2626 18.9414 17.1893 18.9007 17.125C18.86 17.0608 18.8088 17.0069 18.7502 16.9665L16.7765 15.47L16.6344 15.3765C16.5131 15.3187 16.3834 15.2897 16.2526 15.2913C16.1219 15.2929 15.9927 15.325 15.8725 15.3859C15.7522 15.4467 15.6433 15.535 15.5518 15.6457C15.4604 15.7564 15.3883 15.8874 15.3397 16.0312Z" fill="#878687"/>
<path d="M11.6446 18.8651V13.0381L11.5182 13.0568L10.9104 13.1597C9.95509 13.3654 9.17351 13.9547 8.36035 14.6094C8.58378 14.7176 8.78561 14.88 8.95286 15.0862C9.1201 15.2924 9.24905 15.5378 9.3314 15.8066C9.41695 16.1049 9.44434 16.4223 9.41153 16.7349C9.37871 17.0476 9.28654 17.3473 9.14193 17.6117C9.94719 18.36 10.7682 18.7809 11.6446 18.8651Z" fill="#878687"/>
<path d="M3.28425 7.13647H3.23688L2.04477 7.58542L1.56319 7.76313C1.13688 7.92213 1.00267 8.22143 1.13688 8.7265L2.13162 12.4958C2.21846 12.8325 2.40793 13.0102 2.66056 13.0102C2.73545 13.0116 2.81006 12.999 2.88162 12.9728L3.66319 12.6829C3.99477 12.5613 4.31846 12.4303 4.65004 12.3181L4.68162 12.2994V12.2807C4.6974 12.0562 4.71319 11.8317 4.72898 11.6727V11.5418C4.72898 9.86757 4.22372 8.31496 3.30793 7.16453C3.31583 7.15518 3.29214 7.13647 3.28425 7.13647Z" fill="#878687"/>
<path d="M14.6765 15.7879C14.755 15.5147 14.8844 15.266 15.0553 15.0603C15.2262 14.8546 15.434 14.6973 15.6634 14.6001C14.6765 13.7209 13.2555 13.0381 12.3713 13.0381H12.3555V18.8651C13.2318 18.7715 14.0607 18.36 14.866 17.6024C14.7138 17.3401 14.6172 17.0384 14.5842 16.7226C14.5512 16.4067 14.5829 16.0862 14.6765 15.7879Z" fill="#878687"/>
<path d="M5.03698 6.7717C5.01447 6.71975 4.98064 6.67587 4.93899 6.64462C4.89735 6.61337 4.8494 6.59589 4.80013 6.59399H4.73698C4.52382 6.65947 4.31066 6.74364 4.08171 6.82782L4.01855 6.85588C5.06855 8.37108 5.52645 10.064 5.40803 12.0281L5.70803 11.9252L6.92382 11.4576C6.95597 11.4425 6.98517 11.4198 7.00961 11.3909C7.03405 11.3619 7.05322 11.3273 7.06592 11.2892C7.08149 11.2373 7.08743 11.1821 7.08334 11.1272C7.07925 11.0723 7.06523 11.0191 7.04224 10.9712L5.03698 6.7717Z" fill="#878687"/>
<path d="M7.98945 13.908L8.5263 13.4965C9.50524 12.7202 10.5552 12.2899 11.6526 12.2245V8.97894C11.4474 8.95088 11.2263 8.92283 11.0131 8.87606C10.1131 8.67029 9.25261 8.2307 8.28946 7.4918C7.12103 6.59391 6.02367 5.44348 4.83156 3.88152C4.42103 3.32968 4.0184 2.75915 3.62367 2.19796L3.37103 1.84254C3.14998 1.53389 2.92103 1.36554 2.64472 1.30942H2.61314L2.48682 1.29071C2.46802 1.28638 2.44853 1.28953 2.4314 1.29968C2.41426 1.30983 2.40044 1.32641 2.39209 1.34683C2.3684 1.40295 2.35261 1.45907 2.46314 1.61807L2.48682 1.66484H2.49472C3.2763 2.97427 3.67893 4.3024 3.73419 5.74278V6.10755L3.82893 6.07014L4.41314 5.85502C4.53808 5.80667 4.66855 5.78144 4.79998 5.78019C5.16314 5.78019 5.47103 6.00466 5.6763 6.44426L6.20524 7.55728L6.47367 8.10911L6.82893 8.85735L7.63419 10.5316C7.70829 10.683 7.75435 10.8514 7.76932 11.0256C7.78429 11.1997 7.76783 11.3756 7.72103 11.5417C7.64065 11.8006 7.48727 12.0186 7.28682 12.159C7.52097 12.3544 7.70865 12.618 7.83172 12.9244C7.9548 13.2307 8.00913 13.5695 7.98945 13.908Z" fill="#878687"/>
<path d="M18.3476 6.3882C18.4306 6.19951 18.5569 6.04237 18.7119 5.93484C18.8669 5.82731 19.0444 5.77373 19.2239 5.78025H19.3107C19.4076 5.7917 19.5031 5.81682 19.5949 5.85507L19.6502 5.87378L20.2265 6.0889H20.2581C20.2496 4.98821 20.4635 3.90107 20.8818 2.91821C21.0318 2.56279 21.2134 2.22608 21.387 1.89872L21.5765 1.5433C21.6318 1.43107 21.6239 1.3843 21.6002 1.33754C21.5765 1.29077 21.5765 1.29077 21.5055 1.29077H21.466C21.3177 1.29528 21.1721 1.33873 21.0396 1.41798C20.9072 1.49723 20.7913 1.61032 20.7002 1.74907L20.2581 2.36638L19.9265 2.83403C18.6634 4.62047 17.5265 5.9299 16.3502 6.95874C15.3318 7.85663 14.416 8.41782 13.4844 8.71711C13.2036 8.80666 12.919 8.87847 12.6318 8.93224L12.3555 8.99771V12.2058L12.3792 12.2245C13.1607 12.2713 13.816 12.4583 14.3765 12.7951C14.7949 13.0382 15.1976 13.3282 15.5844 13.6088L16.0028 13.9081C15.9834 13.5673 16.0386 13.2264 16.1631 12.9183C16.2876 12.6102 16.4771 12.3455 16.7134 12.1497C16.5086 12.0129 16.3519 11.794 16.2713 11.5324C16.2241 11.3635 16.2095 11.1842 16.2286 11.0078C16.2478 10.8313 16.3001 10.6622 16.3818 10.5129C16.9423 9.31571 17.5502 8.05305 18.3476 6.3882Z" fill="#878687"/>
<path d="M22.7918 6.54715L22.3813 6.39751L21.3392 6.02338C21.3527 5.31353 21.4675 4.61149 21.6787 3.947C21.8765 3.3568 22.1393 2.80016 22.4603 2.2915C22.5997 2.07484 22.6847 1.81602 22.7056 1.54473C22.7266 1.27343 22.6826 1.00063 22.5787 0.757599C22.485 0.531829 22.3401 0.3414 22.1602 0.207607C21.9804 0.0738142 21.7726 0.00193228 21.5603 0L21.4971 0C21.2992 0.00918369 21.1031 0.0468733 20.9129 0.112237C20.3366 0.289945 19.9655 0.748246 19.6734 1.17849C18.8839 2.32892 17.8182 3.81606 16.555 5.10678C15.6076 6.07015 14.7629 6.73422 13.9024 7.18316C13.2313 7.52923 12.6076 7.69758 11.9918 7.69758C11.7671 7.69513 11.5428 7.67325 11.3208 7.63211C10.6339 7.48246 9.93132 7.1551 9.18132 6.61263C8.05237 5.81761 6.97869 4.73266 5.80237 3.20811C5.42342 2.71239 5.03658 2.17927 4.68132 1.6742L4.12869 0.907249C3.93216 0.626253 3.68622 0.399483 3.40805 0.24278C3.12987 0.0860766 2.82617 0.00322046 2.51816 0L2.47079 0C2.30664 0.000360567 2.14427 0.0403566 1.9936 0.117546C1.84294 0.194735 1.70713 0.307498 1.59448 0.448948C1.48883 0.584071 1.4077 0.743429 1.3561 0.917173C1.3045 1.09092 1.28352 1.27535 1.29448 1.45908V1.47779C1.32684 1.78676 1.42163 2.08194 1.57079 2.33827C2.28132 3.51676 2.63658 4.7233 2.65237 6.00468L1.87869 6.29462L1.23132 6.52845C0.765528 6.71551 0.386581 7.06157 0.181317 7.51988C-0.0239458 7.97818 -0.0555247 8.53001 0.0944753 9.11925C0.481317 10.5596 0.789212 11.7475 1.08132 12.8605C1.32605 13.749 1.92605 14.3009 2.66026 14.3009C2.85701 14.3022 3.05231 14.261 3.23658 14.1793L4.05763 13.88L6.14184 13.113C6.20001 13.0879 6.2615 13.0752 6.32342 13.0756C6.45312 13.0737 6.57974 13.1224 6.68383 13.2141C6.78792 13.3057 6.86372 13.4354 6.89959 13.583C6.93546 13.7307 6.92941 13.8882 6.88237 14.0314C6.83533 14.1746 6.7499 14.2956 6.63921 14.3757L5.50237 15.2362L4.64184 15.8909C4.28417 16.1611 4.0315 16.5882 3.93921 17.0787V17.0974C3.90139 17.332 3.90429 17.5732 3.94772 17.8063C3.99115 18.0395 4.07422 18.2597 4.19184 18.4536C5.10763 20.0156 6.12605 21.2408 7.31026 22.1949C8.7629 23.364 10.2945 23.9906 11.755 24H11.7629C13.3971 24 14.7866 23.5604 16.1445 22.6064C17.5024 21.6524 18.6708 20.3336 19.7445 18.5565C19.877 18.351 19.9726 18.1155 20.0256 17.8646C20.0785 17.6137 20.0876 17.3527 20.0524 17.0974V17.0787C20.0016 16.8261 19.9092 16.5878 19.7805 16.3775C19.6518 16.1673 19.4893 15.9892 19.3024 15.8535L18.7892 15.47L17.3761 14.3944C17.2491 14.3044 17.1547 14.1619 17.111 13.9945C17.0673 13.827 17.0773 13.6464 17.1392 13.4871C17.1864 13.3705 17.2602 13.2719 17.3523 13.2025C17.4444 13.1331 17.5511 13.0956 17.6603 13.0943H17.6761C17.7484 13.0929 17.8204 13.1056 17.8892 13.1317L20.7708 14.2073C20.9549 14.2748 21.1465 14.3095 21.3392 14.3102C22.0734 14.3102 22.6734 13.7677 22.9103 12.8885L23.4076 10.9805C23.5734 10.3539 23.7471 9.71785 23.9129 9.08184C24.205 7.95012 23.7392 6.91192 22.7918 6.54715ZM23.5339 8.93219C23.2024 10.2042 22.8629 11.4669 22.5313 12.7389C22.3497 13.4217 21.8997 13.8332 21.3392 13.8332C21.1864 13.8334 21.0345 13.8049 20.8892 13.749L18.0076 12.6734C17.8999 12.6364 17.7882 12.6176 17.6761 12.6173C17.489 12.6134 17.305 12.6741 17.1466 12.792C16.9881 12.9099 16.8621 13.08 16.7839 13.2814C16.6804 13.5447 16.6627 13.8441 16.7341 14.122C16.8055 14.4 16.961 14.6368 17.1708 14.7872L18.5761 15.8535L19.0971 16.2463C19.3821 16.4542 19.5863 16.787 19.6655 17.1723C19.6929 17.3656 19.6859 17.5636 19.6452 17.7536C19.6044 17.9436 19.5307 18.1215 19.4287 18.2759C18.3866 20.0062 17.2418 21.297 15.9471 22.2042C14.6524 23.1115 13.3261 23.5323 11.7629 23.5323H11.755C10.3734 23.523 8.9129 22.9244 7.53132 21.8114C6.40237 20.8948 5.41553 19.7163 4.51553 18.1824C4.42747 18.04 4.36519 17.8776 4.33259 17.7054C4.29998 17.5332 4.29776 17.3549 4.32605 17.1816C4.39573 16.8115 4.58579 16.4888 4.855 16.2837L5.71553 15.629L6.85237 14.7685C6.98571 14.6667 7.09675 14.5288 7.17635 14.3662C7.25595 14.2036 7.30185 14.0209 7.31026 13.8332C7.31427 13.6466 7.28138 13.4614 7.21421 13.2925C7.14704 13.1236 7.04746 12.9757 6.92342 12.8605C6.75579 12.6995 6.5471 12.6105 6.33132 12.6079C6.22689 12.6083 6.1231 12.6272 6.02342 12.6641L3.93921 13.431L3.11026 13.7397C2.9636 13.8031 2.8085 13.8348 2.65237 13.8332C2.09184 13.8332 1.64974 13.4123 1.46026 12.7202C1.13658 11.4762 0.805002 10.2229 0.473423 8.97896C0.355002 8.52065 0.370791 8.09041 0.528686 7.74435C0.707909 7.37401 1.00278 7.10193 1.34974 6.98675L1.99711 6.75292L3.01553 6.36945H3.03921C3.03885 6.36438 3.03936 6.35928 3.04072 6.35445C3.04208 6.34963 3.04425 6.34518 3.04711 6.34139C3.08658 4.84489 2.71553 3.45129 1.89448 2.08574C1.78267 1.89366 1.7122 1.6721 1.68921 1.44037C1.68123 1.3195 1.69466 1.19799 1.72865 1.08363C1.76264 0.969266 1.81643 0.864586 1.88658 0.776305C1.9616 0.678703 2.05304 0.60081 2.15503 0.547648C2.25701 0.494486 2.36727 0.467235 2.47869 0.467654H2.51816C2.76847 0.47278 3.01496 0.541379 3.24102 0.668834C3.46707 0.796289 3.66746 0.979641 3.82869 1.20655L4.38132 1.9735C4.74448 2.48792 5.12342 3.02104 5.51026 3.52611C6.70237 5.06937 7.79974 6.18238 8.97605 7.01481C9.76553 7.57599 10.5076 7.93141 11.2497 8.09041C11.495 8.13894 11.7432 8.16397 11.9918 8.16524C12.655 8.16524 13.3339 7.98753 14.0603 7.61341C14.9603 7.14575 15.8366 6.46298 16.8155 5.4622C18.0945 4.15277 19.1761 2.64692 19.9813 1.46843C20.2497 1.0756 20.5576 0.701481 21.0155 0.561185C21.1776 0.506573 21.3445 0.475172 21.5129 0.467654H21.5366C21.6792 0.463343 21.8198 0.507807 21.9416 0.595722C22.0634 0.683637 22.1613 0.811278 22.2234 0.963367C22.2964 1.12857 22.3277 1.31515 22.3138 1.50087C22.2998 1.68659 22.241 1.86363 22.1445 2.01091C21.803 2.55387 21.5243 3.14835 21.3155 3.77864C21.0633 4.5607 20.9374 5.39198 20.9445 6.22915C20.9445 6.36009 20.9603 6.36945 21.0471 6.40686L22.2708 6.84645L22.6734 6.9961C23.4155 7.2767 23.7629 8.053 23.5339 8.93219Z" fill="#878687"/>
<path d="M22.4759 7.79111L22.0101 7.61341L20.7549 7.14575H20.7154C20.7154 7.14575 20.6996 7.14575 20.6759 7.17381C19.7523 8.371 19.2865 9.78332 19.2549 11.5136C19.2628 11.5604 19.2628 11.6165 19.2707 11.6726C19.2786 11.7288 19.3023 12.0655 19.318 12.2899L19.3496 12.3087L20.3523 12.6828L21.1101 12.9634C21.1843 12.9902 21.2616 13.0029 21.3391 13.0008C21.5917 13.0008 21.7733 12.8231 21.868 12.4864C22.1996 11.2143 22.5391 9.94232 22.8786 8.6703C22.9891 8.25877 22.8391 7.92206 22.4759 7.79111Z" fill="#878687"/>
<path d="M19.9811 6.85581H19.9337L19.3653 6.64068L19.2074 6.60327C19.1285 6.60327 19.0337 6.63133 18.9311 6.8371L16.989 10.8963C16.9588 10.9528 16.9384 11.0157 16.9289 11.0815C16.9194 11.1473 16.9211 11.2147 16.9337 11.2798C16.9601 11.3362 16.9963 11.3853 17.0398 11.424C17.0833 11.4627 17.1333 11.49 17.1863 11.5043L18.4495 11.9813L18.5916 12.0281C18.4732 10.1013 18.939 8.36165 19.9811 6.85581Z" fill="#878687"/>
</g>
</g>
<defs>
<clipPath id="clip0_1420_5738">
<rect width="24" height="24" fill="white" transform="matrix(-1 0 0 1 24 0)"/>
</clipPath>
<clipPath id="clip1_1420_5738">
<rect width="24" height="24" fill="white"/>
</clipPath>
</defs>
</svg>
