<svg width="24" height="24" viewBox="0 0 24 24" fill="none" xmlns="http://www.w3.org/2000/svg">
<path d="M21.1555 5.6471L21.1085 5.68425C21.0608 5.71731 21.0052 5.74258 20.945 5.75861C20.8848 5.77464 20.8213 5.78112 20.7579 5.77767C20.6946 5.77421 20.6327 5.7609 20.5759 5.73849C20.5191 5.71609 20.4684 5.68503 20.4268 5.6471L18.2995 3.80809C18.2354 3.75062 18.1935 3.67978 18.1789 3.60402C18.1643 3.52827 18.1776 3.45079 18.2172 3.38085C18.2568 3.31302 18.3196 3.2553 18.3985 3.21426C18.4775 3.17321 18.5694 3.15048 18.6639 3.14865H19.3103V2.85143C19.0279 2.78505 18.7351 2.75065 18.4405 2.74927C17.7471 2.74927 16.9479 2.91645 16.0664 3.2601C16.2534 4.17892 16.8479 5.01519 17.7437 5.61928C18.6395 6.22338 19.7781 6.55589 20.9557 6.55732C21.3 6.55854 21.6433 6.52736 21.9783 6.46444C21.9213 6.03501 21.8231 5.60963 21.6844 5.19199L21.1555 5.6471Z" fill="white"/>
<path d="M20.1213 9.11144C17.8999 9.11144 15.8784 8.08977 14.8558 6.58512C14.8675 6.66779 14.8437 6.75117 14.7883 6.8219C14.7329 6.89263 14.6491 6.94662 14.5502 6.97522C13.548 7.29008 12.4789 7.45085 11.4004 7.4489C10.3258 7.44989 9.26078 7.28914 8.26229 6.97522H8.23878C8.12276 6.93621 8.0307 6.86282 7.98236 6.77079C7.93402 6.67876 7.93325 6.57543 7.98021 6.48296C8.01383 6.40779 8.07579 6.34256 8.15774 6.29607C8.2397 6.24957 8.33771 6.22403 8.43859 6.22289L8.61489 6.25076C10.405 6.80766 12.3958 6.80766 14.1859 6.25076L14.3622 6.22289C14.4839 6.22453 14.6007 6.2608 14.6913 6.32506C14.5256 6.0362 14.3996 5.73418 14.3152 5.42413L13.9626 5.59132L13.8803 5.62847C12.2836 6.11169 10.5172 6.11169 8.92047 5.62847L8.8382 5.59132C7.41606 4.87615 6.19373 4.51392 5.18296 4.51392C3.77257 4.51392 2.75005 5.22909 2.0331 6.69658C1.21038 9.02785 1.51596 11.2941 2.92635 13.2539L2.98511 13.3467C3.3142 13.7926 3.46699 14.034 3.33771 14.6656C2.59726 18.2136 3.91361 20.8607 7.36905 22.7554H7.40431C7.40431 22.7554 7.45132 22.7554 7.45132 22.709V18.1207C7.43954 18.0064 7.43954 17.8914 7.45132 17.7771C7.50899 16.9506 7.97974 16.1761 8.76 15.624C9.54027 15.0718 10.5661 14.7872 11.6119 14.8328C12.6577 14.8784 13.6378 15.2504 14.3365 15.867C15.0352 16.4836 15.3954 17.2943 15.3377 18.1207V22.6997L15.3612 22.7275C15.3612 22.7368 15.3847 22.7461 15.4082 22.7461H15.4317C18.8872 20.8514 20.2035 18.2043 19.4631 14.6563C19.3338 14.0062 19.4983 13.7647 19.7922 13.356L19.8744 13.2446C20.8058 11.9639 21.2696 10.5043 21.2143 9.02785C20.8542 9.08327 20.4881 9.11127 20.1213 9.11144Z" fill="white"/>
<path d="M21.7891 3.92883H21.7773C21.6464 3.92883 21.5208 3.88773 21.4283 3.81457C21.3357 3.74142 21.2837 3.64219 21.2837 3.53874V1.25391H20.2964V3.53874C20.2964 3.64219 20.2444 3.74142 20.1518 3.81457C20.0592 3.88773 19.9337 3.92883 19.8028 3.92883H19.791L20.79 4.80189L21.7891 3.92883Z" fill="white"/>
<path d="M23.8936 3.18576C23.8082 3.03944 23.6726 2.91492 23.5023 2.82629C23.332 2.73766 23.1337 2.68844 22.9298 2.68421H22.8711V0.863777C22.8742 0.638731 22.7649 0.421787 22.5669 0.260058C22.3688 0.0983301 22.098 0.00487872 21.8133 0L19.8035 0C19.5167 0 19.2417 0.0900263 19.0389 0.250274C18.8361 0.410522 18.7222 0.627865 18.7222 0.854489V1.50464H18.4636C17.4411 1.50464 16.2775 1.76471 15.0317 2.27554C14.8415 2.3546 14.6846 2.47579 14.5802 2.62427C14.4758 2.77274 14.4285 2.94205 14.444 3.11146C14.4761 3.39386 14.539 3.67354 14.6321 3.94737C14.4798 3.95728 14.3317 3.99207 14.1972 4.04954C13.8603 4.1815 13.5345 4.33042 13.2217 4.49536C12.6475 4.65438 12.0436 4.73601 11.4352 4.73684H11.353C10.7522 4.73587 10.1561 4.65422 9.58998 4.49536C7.94454 3.66873 6.46364 3.26006 5.18254 3.26006C3.72515 3.26006 1.73886 3.78019 0.551787 6.26006L0.516527 6.34365V6.37152C-0.423727 9.01858 -0.0711317 11.6099 1.53905 13.8669L1.56256 13.8854L1.64483 13.9783C1.82113 14.2291 1.82113 14.2384 1.78587 14.452C0.939642 18.4644 2.52632 21.6037 6.48714 23.7771C6.75665 23.9238 7.07664 24.0016 7.40389 24C7.67097 24.0016 7.93435 23.9506 8.17029 23.8517C8.40624 23.7528 8.60735 23.6091 8.75551 23.4334C8.94116 23.2205 9.03962 22.9676 9.03759 22.709V18.1207C9.03759 17.6256 9.28648 17.1508 9.72951 16.8007C10.1725 16.4506 10.7734 16.2539 11.4 16.2539C12.0265 16.2539 12.6274 16.4506 13.0704 16.8007C13.5135 17.1508 13.7624 17.6256 13.7624 18.1207V22.709C13.7624 23.0514 13.9345 23.3798 14.2409 23.6219C14.5472 23.864 14.9628 24 15.3961 24H15.4078C15.7368 24.0014 16.0579 23.9201 16.3246 23.7678C20.2854 21.6037 21.8603 18.4737 21.0141 14.4427C20.9671 14.2477 20.9671 14.2477 21.1434 13.9969V13.9783L21.2256 13.8669C22.4216 12.2306 22.9548 10.3442 22.7535 8.4613C22.7392 8.33616 22.6908 8.21495 22.6116 8.10595C22.5325 7.99695 22.4246 7.90273 22.2952 7.82972C22.2152 7.78658 22.1282 7.75221 22.0366 7.72755C22.2952 7.6904 22.5537 7.64396 22.8006 7.58823C23.0402 7.53318 23.2484 7.41432 23.3898 7.2518C23.5311 7.08929 23.597 6.89313 23.5763 6.69659C23.5067 5.99935 23.3532 5.30892 23.1179 4.63468L23.7056 4.11455C23.8471 3.99065 23.9402 3.83699 23.9736 3.67216C24.007 3.50732 23.9792 3.33838 23.8936 3.18576ZM22.1776 8.49845C22.3642 10.2867 21.8602 12.0776 20.732 13.6347L20.6497 13.7461C20.4029 14.0991 20.3559 14.1548 20.4382 14.5263C21.2374 18.3529 19.7447 21.3344 15.9955 23.387C15.8226 23.4816 15.618 23.5333 15.4078 23.5356H15.3961C15.2587 23.5356 15.1227 23.5142 14.9958 23.4727C14.8688 23.4311 14.7535 23.3702 14.6564 23.2935C14.5593 23.2167 14.4822 23.1256 14.4296 23.0253C14.3771 22.925 14.35 22.8175 14.35 22.709V18.1207C14.35 17.5025 14.0392 16.9095 13.486 16.4723C12.9327 16.0351 12.1824 15.7895 11.4 15.7895C10.6176 15.7895 9.86722 16.0351 9.31398 16.4723C8.76073 16.9095 8.44993 17.5025 8.44993 18.1207V22.709C8.45072 22.8595 8.39951 23.0073 8.30179 23.1365C8.20408 23.2657 8.06359 23.3714 7.89546 23.4421C7.72734 23.5128 7.53797 23.546 7.34778 23.5379C7.15759 23.5298 6.9738 23.4808 6.81623 23.3963C3.06697 21.3344 1.56256 18.3529 2.36178 14.5263C2.4323 14.1455 2.39704 14.0898 2.13847 13.7276L2.05619 13.6347C0.516527 11.4892 0.175685 9.00929 1.09243 6.4644V6.42724C1.95042 4.63467 3.32554 3.72446 5.17079 3.72446C6.35786 3.72446 7.75649 4.12384 9.31966 4.90402C9.98554 5.09809 10.6903 5.19563 11.4 5.19195C12.1095 5.19364 12.8138 5.09616 13.4803 4.90402C13.7985 4.73801 14.1281 4.58607 14.4676 4.44892C14.5361 4.41936 14.6128 4.40343 14.6909 4.40248C14.7727 4.4037 14.853 4.41958 14.9259 4.44892C14.9992 4.48006 15.0614 4.52535 15.1066 4.58056C15.1518 4.63577 15.1786 4.69911 15.1845 4.76471C15.4078 6.75232 17.5821 8.32198 20.1208 8.32198C20.6028 8.32249 21.0821 8.26614 21.543 8.1548L21.684 8.13622C21.7856 8.13687 21.8843 8.16288 21.9661 8.21053C22.026 8.24321 22.0761 8.28598 22.1127 8.33576C22.1493 8.38554 22.1714 8.4411 22.1776 8.49845ZM23.2824 3.80805L22.4597 4.52322L22.5302 4.67183C22.775 5.34476 22.9325 6.03562 23.0004 6.73375C23.0104 6.82357 22.9808 6.91338 22.9165 6.98789C22.8522 7.06239 22.7573 7.117 22.6478 7.14242C22.2714 7.22886 21.8859 7.28793 21.496 7.31889C19.9255 7.42992 18.3634 7.04458 17.1518 6.24726C15.9402 5.44994 15.1778 4.30564 15.0317 3.06502C15.0266 2.98784 15.0493 2.91109 15.0971 2.84369C15.145 2.77629 15.216 2.72099 15.302 2.68421C16.4538 2.21053 17.5234 1.95975 18.4636 1.95975C18.7482 1.96152 19.0318 1.98642 19.3099 2.03406V0.863777C19.3083 0.811773 19.3199 0.760047 19.344 0.711641C19.3681 0.663236 19.4042 0.619129 19.4502 0.581916C19.4962 0.544703 19.5512 0.515135 19.6118 0.494953C19.6725 0.474771 19.7377 0.464382 19.8035 0.464396H21.8015C21.8664 0.465602 21.9303 0.47689 21.9896 0.497616C22.0489 0.518341 22.1024 0.548099 22.1472 0.585188C22.1919 0.622277 22.227 0.66597 22.2504 0.713772C22.2738 0.761573 22.285 0.812546 22.2834 0.863777V3.14861H22.9181C23.0126 3.15044 23.1045 3.17317 23.1834 3.21422C23.2624 3.25526 23.3252 3.31297 23.3647 3.38081C23.4043 3.45075 23.4176 3.52823 23.403 3.60398C23.3884 3.67974 23.3466 3.75058 23.2824 3.80805Z" fill="white"/>
</svg>
