<svg width="24" height="24" viewBox="0 0 24 24" fill="none" xmlns="http://www.w3.org/2000/svg">
<g clip-path="url(#clip0_1423_5817)">
<path d="M21.6296 5.6471L21.5904 5.68425C21.5506 5.71731 21.5043 5.74258 21.4542 5.75861C21.404 5.77464 21.351 5.78112 21.2983 5.77767C21.2455 5.77421 21.1939 5.7609 21.1466 5.73849C21.0992 5.71609 21.057 5.68503 21.0224 5.6471L19.2496 3.80809C19.1961 3.75062 19.1613 3.67978 19.1491 3.60402C19.137 3.52827 19.148 3.45079 19.181 3.38085C19.214 3.31302 19.2663 3.2553 19.3321 3.21426C19.3979 3.17321 19.4745 3.15048 19.5532 3.14865H20.0919V2.85143C19.8566 2.78505 19.6126 2.75065 19.3671 2.74927C18.7893 2.74927 18.1232 2.91645 17.3887 3.2601C17.5445 4.17892 18.04 5.01519 18.7865 5.61928C19.5329 6.22338 20.4818 6.55589 21.4631 6.55732C21.75 6.55854 22.0361 6.52736 22.3152 6.46444C22.2678 6.03501 22.1859 5.60963 22.0704 5.19199L21.6296 5.6471Z" fill="white"/>
<path d="M20.7677 9.11144C18.9166 9.11144 17.232 8.08977 16.3799 6.58512C16.3896 6.66779 16.3698 6.75117 16.3236 6.8219C16.2774 6.89263 16.2076 6.94662 16.1252 6.97522C15.29 7.29008 14.3991 7.45085 13.5003 7.4489C12.6048 7.44989 11.7173 7.28914 10.8852 6.97522H10.8657C10.769 6.93621 10.6922 6.86282 10.652 6.77079C10.6117 6.67876 10.611 6.57543 10.6502 6.48296C10.6782 6.40779 10.7298 6.34256 10.7981 6.29607C10.8664 6.24957 10.9481 6.22403 11.0322 6.22289L11.1791 6.25076C12.6709 6.80766 14.3298 6.80766 15.8216 6.25076L15.9685 6.22289C16.0699 6.22453 16.1673 6.2608 16.2427 6.32506C16.1047 6.0362 15.9996 5.73418 15.9293 5.42413L15.6355 5.59132L15.5669 5.62847C14.2363 6.11169 12.7643 6.11169 11.4337 5.62847L11.3652 5.59132C10.1801 4.87615 9.16144 4.51392 8.31913 4.51392C7.14381 4.51392 6.29171 5.22909 5.69425 6.69658C5.00865 9.02785 5.2633 11.2941 6.43862 13.2539L6.48759 13.3467C6.76183 13.7926 6.88916 14.034 6.78142 14.6656C6.16438 18.2136 7.26134 20.8607 10.1409 22.7554H10.1703C10.1703 22.7554 10.2094 22.7554 10.2094 22.709V18.1207C10.1996 18.0064 10.1996 17.8914 10.2094 17.7771C10.2575 16.9506 10.6498 16.1761 11.3 15.624C11.9502 15.0718 12.8051 14.7872 13.6766 14.8328C14.5481 14.8784 15.3648 15.2504 15.9471 15.867C16.5294 16.4836 16.8295 17.2943 16.7814 18.1207V22.6997L16.801 22.7275C16.801 22.7368 16.8206 22.7461 16.8402 22.7461H16.8598C19.7393 20.8514 20.8363 18.2043 20.2192 14.6563C20.1115 14.0062 20.2486 13.7647 20.4935 13.356L20.562 13.2446C21.3382 11.9639 21.7247 10.5043 21.6786 9.02785C21.3785 9.08327 21.0735 9.11127 20.7677 9.11144Z" fill="white"/>
<path d="M22.1592 3.92883H22.1494C22.0403 3.92883 21.9357 3.88773 21.8585 3.81457C21.7814 3.74142 21.738 3.64219 21.738 3.53874V1.25391H20.9153V3.53874C20.9153 3.64219 20.872 3.74142 20.7948 3.81457C20.7177 3.88773 20.613 3.92883 20.5039 3.92883H20.4941L21.3267 4.80189L22.1592 3.92883Z" fill="white"/>
<path d="M23.9126 3.18576C23.8414 3.03944 23.7285 2.91492 23.5866 2.82629C23.4446 2.73766 23.2794 2.68844 23.1095 2.68421H23.0605V0.863777C23.0632 0.638731 22.9721 0.421787 22.807 0.260058C22.642 0.0983301 22.4163 0.00487872 22.179 0L20.5042 0C20.2652 0 20.036 0.0900263 19.8671 0.250274C19.6981 0.410522 19.6031 0.627865 19.6031 0.854489V1.50464H19.3877C18.5356 1.50464 17.5659 1.76471 16.5277 2.27554C16.3692 2.3546 16.2384 2.47579 16.1515 2.62427C16.0645 2.77274 16.025 2.94205 16.038 3.11146C16.0647 3.39386 16.1171 3.67354 16.1947 3.94737C16.0678 3.95728 15.9444 3.99207 15.8323 4.04954C15.5516 4.1815 15.28 4.33042 15.0194 4.49536C14.5409 4.65438 14.0377 4.73601 13.5307 4.73684H13.4621C12.9615 4.73587 12.4647 4.65422 11.993 4.49536C10.6218 3.66873 9.38767 3.26006 8.32009 3.26006C7.10559 3.26006 5.45035 3.78019 4.46112 6.26006L4.43174 6.34365V6.37152C3.6482 9.01858 3.94203 11.6099 5.28385 13.8669L5.30344 13.8854L5.372 13.9783C5.51891 14.2291 5.51891 14.2384 5.48953 14.452C4.78434 18.4644 6.10657 21.6037 9.40726 23.7771C9.63184 23.9238 9.8985 24.0016 10.1712 24C10.3938 24.0016 10.6133 23.9506 10.8099 23.8517C11.0065 23.7528 11.1741 23.6091 11.2976 23.4334C11.4523 23.2205 11.5343 22.9676 11.5326 22.709V18.1207C11.5326 17.6256 11.74 17.1508 12.1092 16.8007C12.4784 16.4506 12.9792 16.2539 13.5013 16.2539C14.0234 16.2539 14.5241 16.4506 14.8933 16.8007C15.2625 17.1508 15.4699 17.6256 15.4699 18.1207V22.709C15.4699 23.0514 15.6134 23.3798 15.8687 23.6219C16.124 23.864 16.4703 24 16.8313 24H16.8411C17.1153 24.0014 17.3829 23.9201 17.6051 23.7678C20.9058 21.6037 22.2182 18.4737 21.513 14.4427C21.4739 14.2477 21.4739 14.2477 21.6208 13.9969V13.9783L21.6893 13.8669C22.686 12.2306 23.1303 10.3442 22.9626 8.4613C22.9506 8.33616 22.9103 8.21495 22.8443 8.10595C22.7784 7.99695 22.6885 7.90273 22.5806 7.82972C22.514 7.78658 22.4415 7.75221 22.3651 7.72755C22.5806 7.6904 22.7961 7.64396 23.0018 7.58823C23.2015 7.53318 23.3749 7.41432 23.4928 7.2518C23.6106 7.08929 23.6655 6.89313 23.6482 6.69659C23.5902 5.99935 23.4623 5.30892 23.2662 4.63468L23.7559 4.11455C23.8739 3.99065 23.9515 3.83699 23.9793 3.67216C24.0071 3.50732 23.984 3.33838 23.9126 3.18576ZM22.4827 8.49845C22.6382 10.2867 22.2181 12.0776 21.278 13.6347L21.2094 13.7461C21.0037 14.0991 20.9646 14.1548 21.0331 14.5263C21.6991 18.3529 20.4552 21.3344 17.3309 23.387C17.1868 23.4816 17.0163 23.5333 16.8411 23.5356H16.8313C16.7169 23.5356 16.6035 23.5142 16.4978 23.4727C16.392 23.4311 16.2959 23.3702 16.215 23.2935C16.134 23.2167 16.0698 23.1256 16.026 23.0253C15.9822 22.925 15.9597 22.8175 15.9597 22.709V18.1207C15.9597 17.5025 15.7006 16.9095 15.2396 16.4723C14.7786 16.0351 14.1533 15.7895 13.5013 15.7895C12.8493 15.7895 12.224 16.0351 11.7629 16.4723C11.3019 16.9095 11.0429 17.5025 11.0429 18.1207V22.709C11.0436 22.8595 11.0009 23.0073 10.9195 23.1365C10.838 23.2657 10.721 23.3714 10.5809 23.4421C10.4408 23.5128 10.2829 23.546 10.1245 23.5379C9.96596 23.5298 9.8128 23.4808 9.6815 23.3963C6.55711 21.3344 5.30344 18.3529 5.96945 14.5263C6.02822 14.1455 5.99883 14.0898 5.78336 13.7276L5.7148 13.6347C4.43174 11.4892 4.14771 9.00929 4.91166 6.4644V6.42724C5.62665 4.63467 6.77258 3.72446 8.31029 3.72446C9.29952 3.72446 10.465 4.12384 11.7677 4.90402C12.3226 5.09809 12.9099 5.19563 13.5013 5.19195C14.0925 5.19364 14.6794 5.09616 15.2349 4.90402C15.5 4.73801 15.7747 4.58607 16.0576 4.44892C16.1147 4.41936 16.1786 4.40343 16.2437 4.40248C16.3118 4.4037 16.3788 4.41958 16.4396 4.44892C16.5006 4.48006 16.5524 4.52535 16.5901 4.58056C16.6278 4.63577 16.6501 4.69911 16.6551 4.76471C16.8411 6.75232 18.6531 8.32198 20.7687 8.32198C21.1703 8.32249 21.5697 8.26614 21.9538 8.1548L22.0713 8.13622C22.156 8.13687 22.2382 8.16288 22.3064 8.21053C22.3563 8.24321 22.3981 8.28598 22.4285 8.33576C22.459 8.38554 22.4775 8.4411 22.4827 8.49845ZM23.4033 3.80805L22.7177 4.52322L22.7765 4.67183C22.9805 5.34476 23.1117 6.03562 23.1683 6.73375C23.1767 6.82357 23.152 6.91338 23.0984 6.98789C23.0448 7.06239 22.9657 7.117 22.8744 7.14242C22.5608 7.22886 22.2395 7.28793 21.9146 7.31889C20.6059 7.42992 19.3041 7.04458 18.2945 6.24726C17.2848 5.44994 16.6495 4.30564 16.5277 3.06502C16.5235 2.98784 16.5424 2.91109 16.5822 2.84369C16.6221 2.77629 16.6813 2.72099 16.753 2.68421C17.7128 2.21053 18.6041 1.95975 19.3877 1.95975C19.6248 1.96152 19.8611 1.98642 20.0929 2.03406V0.863777C20.0916 0.811773 20.1012 0.760047 20.1213 0.711641C20.1414 0.663236 20.1715 0.619129 20.2098 0.581916C20.2482 0.544703 20.2939 0.515135 20.3445 0.494953C20.3951 0.474771 20.4494 0.464382 20.5042 0.464396H22.1693C22.2233 0.465602 22.2765 0.47689 22.3259 0.497616C22.3754 0.518341 22.42 0.548099 22.4573 0.585188C22.4946 0.622277 22.5238 0.66597 22.5433 0.713772C22.5628 0.761573 22.5721 0.812546 22.5708 0.863777V3.14861H23.0997C23.1784 3.15044 23.255 3.17317 23.3208 3.21422C23.3866 3.25526 23.439 3.31297 23.4719 3.38081C23.5049 3.45075 23.516 3.52823 23.5038 3.60398C23.4917 3.67974 23.4568 3.75058 23.4033 3.80805Z" fill="white"/>
</g>
<defs>
<clipPath id="clip0_1423_5817">
<rect width="20" height="24" fill="white" transform="translate(4)"/>
</clipPath>
</defs>
</svg>
