<svg width="40" height="40" viewBox="0 0 40 40" fill="none" xmlns="http://www.w3.org/2000/svg">
<path d="M24.8641 17.3663C24.3004 17.3663 23.2646 17.1424 22.9368 16.3148C22.926 16.2731 22.9216 16.2307 22.9237 16.1882V15.1854C22.9286 15.1051 22.8962 15.0261 22.8319 14.9615C22.7152 14.8968 22.5708 14.8656 22.4255 14.8738H17.6007C17.4565 14.8738 17.2729 14.8933 17.1943 14.9615C17.1317 15.03 17.1038 15.1128 17.1156 15.1951H17.1025C17.1025 15.2146 17.1156 15.2243 17.1156 15.2438V16.198C17.1133 16.2408 17.1045 16.2832 17.0894 16.3245C16.7616 17.1521 15.7259 17.3761 15.1621 17.3761H11.3993C11.2783 17.3756 11.16 17.3497 11.0579 17.3015C10.9559 17.2533 10.8742 17.1846 10.8224 17.1034C10.7241 16.9467 10.6147 16.794 10.4946 16.6458V16.6264C10.3611 16.4639 10.2428 16.2947 10.1406 16.1201C9.51132 15.0296 9.22288 14.3481 9 12.3619V12.0114C9.06555 10.6191 9.76043 9.62596 11.1633 8.90548C12.0548 8.45761 13.2348 8.16552 14.5721 8.04868H14.6377L16.6174 8.02921H16.6698C17.8892 8.1071 19.0167 8.30183 19.8689 8.59391L19.9476 8.61339H20.0524L20.1311 8.59391C21.2324 8.22393 22.7533 8 24.1955 8H24.2479C26.0441 8 27.6698 8.3213 28.8236 8.90548C30.2396 9.62596 30.9344 10.6093 31 12.0016V12.3521C30.8427 14.1533 30.7771 14.6791 29.9905 16.1396C29.3743 17.2884 28.5745 17.3761 28.3516 17.3761L24.8641 17.3663ZM22.4255 13.9391C23.1466 13.9391 23.553 14.1631 23.7759 14.3383C24.1824 14.6791 24.1824 15.1172 24.1824 15.2438V16.0909C24.1824 16.1103 24.1955 16.1201 24.1955 16.1298C24.2569 16.2241 24.3542 16.303 24.4754 16.3567C24.5966 16.4103 24.7363 16.4364 24.8772 16.4316H28.2598C28.2761 16.434 28.2929 16.4335 28.3089 16.4301C28.3248 16.4267 28.3395 16.4206 28.3516 16.4122C28.4434 16.3538 28.6532 16.1882 28.876 15.7793C29.6103 14.4065 29.6496 13.9586 29.7807 12.284C29.7873 12.2452 29.7873 12.2059 29.7807 12.1671V12.0114C29.7283 10.9209 29.23 10.2199 28.1549 9.66491C27.0799 9.10994 25.8081 8.92495 24.2872 8.92495H24.2086C23.4177 8.9272 22.6299 8.9991 21.8617 9.13915C21.7962 9.14888 21.7569 9.17809 21.7569 9.21704C21.7485 9.23641 21.7507 9.25744 21.7629 9.27564C21.7752 9.29383 21.7965 9.30774 21.8224 9.3144L22.9499 9.76227C23.0524 9.8027 23.1381 9.86297 23.1982 9.93668C23.2582 10.0104 23.2902 10.0948 23.2908 10.1809C23.2869 10.2609 23.2561 10.3388 23.201 10.4075C23.146 10.4763 23.0686 10.5336 22.9759 10.5743C22.8832 10.6151 22.7782 10.6378 22.6706 10.6405C22.563 10.6432 22.4561 10.6258 22.36 10.5899L19.7378 9.55781L19.3707 9.43124C18.6627 9.19757 17.6532 9.02231 16.6174 8.95416L14.7032 8.97363H14.6901C13.5757 9.07099 12.6055 9.30467 11.8844 9.66491C10.8093 10.2199 10.3242 10.9306 10.2718 12.0308V12.284C10.4684 14.1339 10.7306 14.7278 11.3075 15.7501C11.3862 15.8767 11.4911 16.0227 11.6091 16.1785L11.6353 16.2174L11.7664 16.383C11.7792 16.3976 11.7967 16.4097 11.8172 16.4182C11.8378 16.4267 11.8609 16.4313 11.8844 16.4316H15.1621C15.303 16.4364 15.4427 16.4103 15.5639 16.3567C15.6851 16.303 15.7824 16.2241 15.8439 16.1298C15.8439 16.1201 15.857 16.1103 15.857 16.0909V15.2535C15.8246 14.9206 15.9707 14.5917 16.2634 14.3383C16.4732 14.1533 16.8796 13.9391 17.6007 13.9391H22.4255Z" fill="#100E10"/>
<path d="M23.8953 31.9994C23.4233 31.9994 22.6235 31.4055 22.2957 30.1105C22.2433 29.9061 22.204 29.614 22.1515 29.2732C22.0597 28.689 21.9417 27.9588 21.7582 27.3357C21.5956 26.7949 21.3214 26.276 20.9453 25.7974C20.6569 25.4274 20.3029 25.2327 19.9096 25.2327C19.5162 25.2327 18.8869 25.5247 18.6509 25.8071C18.2445 26.3037 18.0216 26.8586 17.838 27.3454C17.5126 28.1577 17.3448 29.0002 17.3398 29.8477C17.3398 30.1203 17.3267 30.4026 17.2874 30.7239C17.2218 31.3373 16.6974 31.9897 15.701 31.9897C14.7046 31.9897 14.3243 31.6586 13.7081 30.8505C13.2361 30.2079 12.4364 28.8448 12.5019 26.8878V26.7223C12.5413 25.3495 12.5675 24.8822 12.1742 24.2103C12.1748 24.2051 12.1739 24.1998 12.1717 24.1947C12.1694 24.1897 12.1658 24.1851 12.161 24.1811C12.1086 24.0448 10.7582 20.9974 12.7641 19.3032C13.577 18.612 14.8094 18.2615 16.4221 18.2615C17.1177 18.2646 17.8113 18.3167 18.4936 18.4172L18.5723 18.4367L19.2016 18.5828H19.2409L19.3196 18.5633C19.3367 18.5548 19.3505 18.5432 19.3597 18.5295C19.3689 18.5159 19.3732 18.5006 19.372 18.4854V16.8789H20.6307V21.0947C20.6327 21.1144 20.6408 21.1334 20.6545 21.1503C20.6681 21.1672 20.6869 21.1815 20.7093 21.1921H20.7618C20.779 21.1925 20.7962 21.1901 20.812 21.1851C20.8279 21.18 20.842 21.1724 20.8535 21.1629L21.6926 20.5495L22.5842 21.2116L20.4471 22.7888C20.3886 22.8324 20.3192 22.867 20.2427 22.8906C20.1662 22.9142 20.0842 22.9263 20.0013 22.9263C19.9185 22.9263 19.8365 22.9142 19.76 22.8906C19.6835 22.867 19.614 22.8324 19.5556 22.7888L17.4185 21.2116L18.31 20.5495L19.1491 21.1629C19.1606 21.1724 19.1748 21.18 19.1907 21.1851C19.2065 21.1901 19.2237 21.1925 19.2409 21.1921H19.2933C19.3174 21.183 19.3376 21.169 19.3515 21.1518C19.3654 21.1346 19.3725 21.1148 19.372 21.0947V19.683C19.3733 19.6615 19.3651 19.6403 19.3484 19.6227C19.3318 19.6051 19.3079 19.592 19.2802 19.5856L18.2314 19.3325H18.2183C17.6225 19.2437 17.0166 19.1981 16.409 19.1961C15.1765 19.1961 14.2719 19.4396 13.7081 19.9166C12.5019 20.9389 12.9477 22.9446 13.341 23.8598C13.7343 24.7751 13.7999 25.3592 13.7606 26.7515V26.917C13.7081 28.6501 14.3899 29.8379 14.8094 30.3929C15.229 30.9479 15.3339 31.0647 15.701 31.0647C16.0681 31.0647 16.0287 30.7337 16.0287 30.646C16.0649 30.3808 16.0824 30.1143 16.0812 29.8477V29.8282C16.0845 28.9083 16.2656 27.9935 16.6187 27.1118C16.8416 26.5471 17.0776 25.9239 17.5758 25.3203C18.074 24.7166 18.8738 24.298 19.8702 24.298H19.9358C20.4209 24.3077 21.3386 24.444 22.0335 25.33C22.4788 25.8925 22.8018 26.5037 22.9906 27.141C23.1725 27.8039 23.3081 28.4733 23.397 29.1467V29.1661C23.4495 29.5069 23.4888 29.7698 23.5282 29.9353C23.6724 30.4903 23.8821 30.8116 24.0395 30.9771C24.0488 30.989 24.0621 30.9989 24.0783 31.0058C24.0944 31.0126 24.1127 31.0162 24.1313 31.016H24.1444C24.1586 31.0176 24.1732 31.0166 24.1868 31.0133C24.2005 31.0099 24.2129 31.0042 24.223 30.9966C24.3672 30.9284 24.5115 30.7726 24.7999 30.3929C25.3506 29.6529 25.757 28.2801 25.8357 26.8781C25.9405 25.2911 26.2159 24.6777 26.6879 23.8598C27.3041 22.2436 27.2254 21.046 26.4519 20.3158C25.6783 19.5856 24.0264 19.3519 22.8333 19.3519H22.4137C22.2468 19.3519 22.0868 19.3027 21.9687 19.215C21.8507 19.1274 21.7844 19.0085 21.7844 18.8846C21.7844 18.7606 21.8507 18.6418 21.9687 18.5541C22.0868 18.4665 22.2468 18.4172 22.4137 18.4172H22.8333C24.931 18.4172 26.5305 18.8748 27.4352 19.7414C28.3398 20.6079 28.6283 22.2144 27.881 24.1519C27.881 24.1714 27.8678 24.1811 27.8547 24.2006C27.4483 24.9308 27.1861 25.4566 27.0943 26.9365C27.0025 28.4164 26.5568 29.9742 25.8881 30.8602C25.2195 31.7463 24.8655 31.9994 23.8953 31.9994Z" fill="#100E10"/>
</svg>
