<svg width="14" height="14" viewBox="0 0 14 14" fill="none" xmlns="http://www.w3.org/2000/svg">
<g clip-path="url(#clip0_832_26799)">
<path d="M11.5787 3.29416L11.5552 3.31583C11.5314 3.33512 11.5036 3.34986 11.4735 3.35921C11.4434 3.36856 11.4116 3.37234 11.3799 3.37033C11.3483 3.36831 11.3173 3.36055 11.2889 3.34748C11.2605 3.3344 11.2352 3.31629 11.2144 3.29416L10.1507 2.22141C10.1187 2.18788 10.0977 2.14656 10.0904 2.10237C10.0831 2.05818 10.0898 2.01298 10.1096 1.97218C10.1294 1.93261 10.1608 1.89895 10.2002 1.875C10.2397 1.85106 10.2857 1.8378 10.3329 1.83673H10.6561V1.66336C10.5149 1.62463 10.3685 1.60457 10.2213 1.60376C9.87453 1.60376 9.47492 1.70128 9.03418 1.90175C9.12766 2.43772 9.42495 2.92555 9.87285 3.27794C10.3207 3.63033 10.89 3.82429 11.4788 3.82512C11.651 3.82584 11.8226 3.80765 11.9901 3.77094C11.9616 3.52044 11.9125 3.27231 11.8432 3.02868L11.5787 3.29416Z" fill="#878687"/>
<path d="M11.0616 5.31494C9.95093 5.31494 8.94015 4.71897 8.42889 3.84126C8.43473 3.88949 8.42285 3.93812 8.39514 3.97938C8.36744 4.02064 8.32552 4.05213 8.2761 4.06882C7.77498 4.25248 7.24044 4.34627 6.70117 4.34513C6.16387 4.34571 5.63137 4.25193 5.13212 4.06882H5.12037C5.06235 4.04606 5.01632 4.00325 4.99215 3.94957C4.96798 3.89588 4.9676 3.83561 4.99108 3.78166C5.00789 3.73781 5.03887 3.69977 5.07985 3.67264C5.12083 3.64552 5.16983 3.63062 5.22027 3.62996L5.30842 3.64621C6.20349 3.97108 7.19885 3.97108 8.09392 3.64621L8.18207 3.62996C8.24292 3.63091 8.30134 3.65207 8.34662 3.68956C8.2638 3.52106 8.20075 3.34488 8.15857 3.16402L7.98227 3.26154L7.94113 3.28321C7.14276 3.56509 6.25958 3.56509 5.46121 3.28321L5.42007 3.26154C4.70901 2.84436 4.09784 2.63306 3.59245 2.63306C2.88726 2.63306 2.376 3.05024 2.01753 3.90628C1.60617 5.26618 1.75896 6.58816 2.46415 7.73135L2.49353 7.78553C2.65808 8.0456 2.73447 8.18646 2.66983 8.55488C2.2996 10.6245 2.95778 12.1687 4.6855 13.2739H4.70313C4.70313 13.2739 4.72664 13.2739 4.72664 13.2468V10.5704C4.72075 10.5037 4.72075 10.4366 4.72664 10.3699C4.75547 9.88781 4.99084 9.43602 5.38098 9.11393C5.77111 8.79184 6.28405 8.62582 6.80695 8.65241C7.32985 8.67899 7.81988 8.89599 8.16924 9.25568C8.5186 9.61537 8.69866 10.0883 8.66983 10.5704V13.2414L8.68158 13.2577C8.68158 13.2631 8.69334 13.2685 8.70509 13.2685H8.71684C10.4446 12.1632 11.1027 10.6191 10.7325 8.54947C10.6679 8.17021 10.7501 8.02934 10.8971 7.79095L10.9382 7.72594C11.4039 6.9789 11.6358 6.12744 11.6081 5.26618C11.4281 5.29852 11.245 5.31484 11.0616 5.31494Z" fill="#878687"/>
<path d="M11.8955 2.29182H11.8896C11.8242 2.29182 11.7614 2.26784 11.7151 2.22517C11.6688 2.18249 11.6428 2.12461 11.6428 2.06426V0.731445H11.1492V2.06426C11.1492 2.12461 11.1232 2.18249 11.0769 2.22517C11.0306 2.26784 10.9678 2.29182 10.9024 2.29182H10.8965L11.396 2.8011L11.8955 2.29182Z" fill="#878687"/>
<path d="M12.9478 1.85836C12.9051 1.773 12.8373 1.70037 12.7521 1.64867C12.667 1.59697 12.5678 1.56826 12.4659 1.56579H12.4365V0.50387C12.4381 0.372593 12.3834 0.246042 12.2844 0.151701C12.1854 0.0573592 12.05 0.00284592 11.9076 0L10.9027 0C10.7593 0 10.6218 0.0525153 10.5204 0.145993C10.419 0.239471 10.3621 0.366254 10.3621 0.498452V0.877709H10.2328C9.72153 0.877709 9.13975 1.02941 8.51683 1.3274C8.42172 1.37352 8.34326 1.44421 8.29107 1.53082C8.23888 1.61743 8.21522 1.7162 8.223 1.81502C8.23902 1.97975 8.27048 2.1429 8.31703 2.30263C8.24086 2.30842 8.16682 2.32871 8.09959 2.36223C7.93114 2.43921 7.76822 2.52608 7.61184 2.62229C7.32475 2.71505 7.0228 2.76267 6.71859 2.76316H6.67746C6.37709 2.76259 6.07902 2.71496 5.79597 2.62229C4.97325 2.14009 4.2328 1.9017 3.59225 1.9017C2.86355 1.9017 1.87041 2.20511 1.27687 3.6517L1.25924 3.70046V3.71672C0.789113 5.26084 0.965411 6.77245 1.7705 8.08901L1.78226 8.09984L1.82339 8.15403C1.91154 8.30031 1.91154 8.30573 1.89391 8.43034C1.4708 10.7709 2.26414 12.6022 4.24455 13.87C4.3793 13.9556 4.5393 14.0009 4.70292 14C4.83646 14.0009 4.96815 13.9712 5.08612 13.9135C5.2041 13.8558 5.30465 13.7719 5.37873 13.6695C5.47156 13.5453 5.52079 13.3978 5.51977 13.2469V10.5704C5.51977 10.2816 5.64422 10.0046 5.86573 9.80039C6.08725 9.59616 6.38769 9.48142 6.70096 9.48142C7.01424 9.48142 7.31468 9.59616 7.53619 9.80039C7.75771 10.0046 7.88216 10.2816 7.88216 10.5704V13.2469C7.88216 13.4466 7.96822 13.6382 8.12141 13.7794C8.2746 13.9207 8.48236 14 8.699 14H8.70488C8.86939 14.0008 9.02991 13.9534 9.16325 13.8646C11.1437 12.6022 11.9311 10.7763 11.508 8.42492C11.4845 8.31115 11.4845 8.31115 11.5727 8.16486V8.15403L11.6138 8.08901C12.2118 7.13453 12.4784 6.03411 12.3778 4.93576C12.3706 4.86276 12.3464 4.79205 12.3068 4.72847C12.2672 4.66489 12.2133 4.60992 12.1486 4.56734C12.1086 4.54217 12.0651 4.52212 12.0193 4.50774C12.1486 4.48607 12.2778 4.45898 12.4013 4.42647C12.5211 4.39436 12.6252 4.32502 12.6959 4.23022C12.7665 4.13542 12.7995 4.02099 12.7891 3.90635C12.7543 3.49962 12.6776 3.09687 12.5599 2.70356L12.8538 2.40015C12.9245 2.32788 12.9711 2.23824 12.9878 2.14209C13.0045 2.04594 12.9906 1.94739 12.9478 1.85836ZM12.0898 4.95743C12.1831 6.00056 11.9311 7.04524 11.367 7.95356L11.3258 8.01858C11.2024 8.22446 11.1789 8.25697 11.2201 8.47368C11.6197 10.7059 10.8733 12.445 8.99871 13.6424C8.91229 13.6976 8.80999 13.7278 8.70488 13.7291H8.699C8.63032 13.7291 8.56231 13.7166 8.49885 13.6924C8.4354 13.6682 8.37774 13.6326 8.32918 13.5879C8.28061 13.5431 8.24208 13.4899 8.2158 13.4314C8.18952 13.3729 8.17599 13.3102 8.17599 13.2469V10.5704C8.17599 10.2098 8.02058 9.86387 7.74396 9.60883C7.46734 9.3538 7.09216 9.21053 6.70096 9.21053C6.30976 9.21053 5.93458 9.3538 5.65796 9.60883C5.38134 9.86387 5.22594 10.2098 5.22594 10.5704V13.2469C5.22634 13.3347 5.20073 13.4209 5.15187 13.4963C5.10302 13.5717 5.03277 13.6333 4.94871 13.6746C4.86465 13.7158 4.76996 13.7351 4.67487 13.7304C4.57977 13.7257 4.48788 13.6972 4.40909 13.6478C2.53446 12.445 1.78226 10.7059 2.18187 8.47368C2.21712 8.25155 2.19949 8.21904 2.07021 8.00774L2.02907 7.95356C1.25924 6.70201 1.08882 5.25542 1.54719 3.7709V3.74923C1.97618 2.70356 2.66375 2.1726 3.58637 2.1726C4.17991 2.1726 4.87922 2.40557 5.66081 2.86068C5.99375 2.97389 6.34611 3.03079 6.70096 3.02864C7.05571 3.02962 7.40785 2.97276 7.74112 2.86068C7.90021 2.76384 8.06501 2.67521 8.23475 2.5952C8.26904 2.57796 8.30736 2.56867 8.34641 2.56811C8.3873 2.56883 8.42749 2.57809 8.46394 2.5952C8.50059 2.61337 8.53165 2.63979 8.55426 2.67199C8.57686 2.7042 8.59026 2.74115 8.59323 2.77941C8.70488 3.93885 9.79205 4.85449 11.0614 4.85449C11.3024 4.85479 11.542 4.82192 11.7725 4.75697L11.843 4.74613C11.8938 4.74651 11.9431 4.76168 11.984 4.78947C12.014 4.80854 12.039 4.83349 12.0573 4.86253C12.0756 4.89156 12.0867 4.92397 12.0898 4.95743ZM12.6422 2.22136L12.2308 2.63855L12.2661 2.72523C12.3885 3.11778 12.4672 3.52078 12.5012 3.92802C12.5062 3.98042 12.4914 4.0328 12.4592 4.07627C12.4271 4.11973 12.3796 4.15158 12.3249 4.16641C12.1367 4.21683 11.9439 4.25129 11.749 4.26935C10.9637 4.33412 10.1827 4.10934 9.57687 3.64423C8.97106 3.17913 8.58989 2.51162 8.51683 1.78793C8.51427 1.74291 8.52561 1.69814 8.54954 1.65882C8.57346 1.6195 8.60898 1.58724 8.65199 1.56579C9.2279 1.28947 9.76267 1.14319 10.2328 1.14319C10.3751 1.14422 10.5169 1.15875 10.6559 1.18653V0.50387C10.6551 0.473534 10.6609 0.443361 10.673 0.415124C10.685 0.386887 10.7031 0.361158 10.7261 0.339451C10.7491 0.317743 10.7766 0.300496 10.8069 0.288723C10.8372 0.27695 10.8698 0.270889 10.9027 0.270898H11.9017C11.9342 0.271601 11.9661 0.278186 11.9958 0.290276C12.0254 0.302366 12.0522 0.319724 12.0746 0.34136C12.0969 0.362995 12.1145 0.388483 12.1262 0.416367C12.1379 0.444251 12.1435 0.473985 12.1427 0.50387V1.83669H12.46C12.5073 1.83776 12.5532 1.85102 12.5927 1.87496C12.6322 1.8989 12.6636 1.93257 12.6833 1.97214C12.7031 2.01294 12.7098 2.05813 12.7025 2.10232C12.6952 2.14651 12.6743 2.18784 12.6422 2.22136Z" fill="#878687"/>
</g>
<defs>
<clipPath id="clip0_832_26799">
<rect width="12" height="14" fill="white" transform="translate(1)"/>
</clipPath>
</defs>
</svg>
