<svg width="24" height="24" viewBox="0 0 24 24" fill="none" xmlns="http://www.w3.org/2000/svg">
<path d="M15.3406 16.0312C15.2706 16.2416 15.2527 16.4713 15.2891 16.6933C15.3254 16.9153 15.4145 17.1204 15.5459 17.2845C15.6248 17.3874 15.7196 17.5277 15.7038 17.6961C15.6924 17.7678 15.6691 17.8362 15.6352 17.8972C15.6013 17.9582 15.5575 18.0106 15.5064 18.0515L15.3485 18.1918C15.0942 18.429 14.8279 18.6477 14.5512 18.8465C13.5771 19.5835 12.407 19.8667 11.267 19.6415C10.3038 19.4638 9.41169 18.9587 8.54327 18.0982C8.40906 17.9673 8.30643 17.8551 8.29853 17.6961C8.29064 17.5371 8.36959 17.4061 8.48801 17.2471C8.64365 17.0346 8.72999 16.7632 8.73144 16.4819C8.73289 16.2006 8.64934 15.9279 8.4959 15.7132C8.39994 15.5808 8.28136 15.474 8.148 15.3998C8.01464 15.3256 7.86952 15.2858 7.72222 15.283C7.56108 15.2838 7.40304 15.3355 7.26432 15.4326L5.21959 16.9852C5.16747 17.0221 5.12244 17.0714 5.08742 17.1301C5.05239 17.1889 5.02815 17.2556 5.01624 17.3261C5.00434 17.3966 5.00505 17.4693 5.01831 17.5395C5.03158 17.6096 5.05712 17.6757 5.09327 17.7335C5.96169 19.1925 6.89327 20.3056 7.95116 21.1567C9.23011 22.1762 10.5801 22.7 11.9538 22.7093C13.1638 22.7089 14.3529 22.335 15.4038 21.6243C16.7222 20.7545 17.867 19.4731 18.9091 17.7241C18.9429 17.6695 18.9673 17.6075 18.9808 17.5417C18.9944 17.4759 18.9968 17.4076 18.988 17.3406C18.9717 17.2626 18.9424 17.1893 18.9017 17.125C18.861 17.0608 18.8098 17.0069 18.7512 16.9665L16.7775 15.47L16.6354 15.3765C16.5141 15.3187 16.3844 15.2897 16.2536 15.2913C16.1229 15.2929 15.9937 15.325 15.8734 15.3859C15.7532 15.4467 15.6442 15.535 15.5528 15.6457C15.4614 15.7564 15.3893 15.8874 15.3406 16.0312Z" fill="white"/>
<path d="M11.6455 18.8651V13.0381L11.5192 13.0568L10.9113 13.1597C9.95606 13.3654 9.17449 13.9547 8.36133 14.6094C8.58476 14.7176 8.78659 14.88 8.95383 15.0862C9.12108 15.2924 9.25003 15.5378 9.33238 15.8066C9.41793 16.1049 9.44532 16.4223 9.4125 16.7349C9.37969 17.0476 9.28751 17.3473 9.14291 17.6117C9.94817 18.36 10.7692 18.7809 11.6455 18.8651Z" fill="white"/>
<path d="M3.28522 7.13647H3.23786L2.04575 7.58542L1.56417 7.76313C1.13786 7.92213 1.00364 8.22143 1.13786 8.7265L2.13259 12.4958C2.21943 12.8325 2.40891 13.0102 2.66154 13.0102C2.73643 13.0116 2.81103 12.999 2.88259 12.9728L3.66417 12.6829C3.99575 12.5613 4.31943 12.4303 4.65101 12.3181L4.68259 12.2994V12.2807C4.69838 12.0562 4.71417 11.8317 4.72996 11.6727V11.5418C4.72996 9.86757 4.2247 8.31496 3.30891 7.16453C3.3168 7.15518 3.29312 7.13647 3.28522 7.13647Z" fill="white"/>
<path d="M14.6765 15.7879C14.755 15.5147 14.8844 15.266 15.0553 15.0603C15.2262 14.8546 15.434 14.6973 15.6634 14.6001C14.6765 13.7209 13.2555 13.0381 12.3713 13.0381H12.3555V18.8651C13.2318 18.7715 14.0607 18.36 14.866 17.6024C14.7138 17.3401 14.6172 17.0384 14.5842 16.7226C14.5512 16.4067 14.5829 16.0862 14.6765 15.7879Z" fill="white"/>
<path d="M5.03795 6.7717C5.01544 6.71975 4.98161 6.67587 4.93997 6.64462C4.89832 6.61337 4.85038 6.59589 4.80111 6.59399H4.73795C4.52479 6.65947 4.31164 6.74364 4.08269 6.82782L4.01953 6.85588C5.06953 8.37108 5.52743 10.064 5.409 12.0281L5.70901 11.9252L6.92479 11.4576C6.95694 11.4425 6.98614 11.4198 7.01059 11.3909C7.03503 11.3619 7.0542 11.3273 7.0669 11.2892C7.08246 11.2373 7.0884 11.1821 7.08432 11.1272C7.08023 11.0723 7.06621 11.0191 7.04322 10.9712L5.03795 6.7717Z" fill="white"/>
<path d="M7.98945 13.908L8.5263 13.4965C9.50524 12.7202 10.5552 12.2899 11.6526 12.2245V8.97894C11.4474 8.95088 11.2263 8.92283 11.0131 8.87606C10.1131 8.67029 9.25261 8.2307 8.28946 7.4918C7.12103 6.59391 6.02367 5.44348 4.83156 3.88152C4.42103 3.32968 4.0184 2.75915 3.62367 2.19796L3.37103 1.84254C3.14998 1.53389 2.92103 1.36554 2.64472 1.30942H2.61314L2.48682 1.29071C2.46802 1.28638 2.44853 1.28953 2.4314 1.29968C2.41426 1.30983 2.40044 1.32641 2.39209 1.34683C2.3684 1.40295 2.35261 1.45907 2.46314 1.61807L2.48682 1.66484H2.49472C3.2763 2.97427 3.67893 4.3024 3.73419 5.74278V6.10755L3.82893 6.07014L4.41314 5.85502C4.53808 5.80667 4.66855 5.78144 4.79998 5.78019C5.16314 5.78019 5.47103 6.00466 5.6763 6.44426L6.20524 7.55728L6.47367 8.10911L6.82893 8.85735L7.63419 10.5316C7.70829 10.683 7.75435 10.8514 7.76932 11.0256C7.78429 11.1997 7.76783 11.3756 7.72103 11.5417C7.64065 11.8006 7.48727 12.0186 7.28682 12.159C7.52097 12.3544 7.70865 12.618 7.83172 12.9244C7.9548 13.2307 8.00913 13.5695 7.98945 13.908Z" fill="white"/>
<path d="M18.3476 6.3882C18.4306 6.19951 18.5569 6.04237 18.7119 5.93484C18.8669 5.82731 19.0444 5.77373 19.2239 5.78025H19.3107C19.4076 5.7917 19.5031 5.81682 19.5949 5.85507L19.6502 5.87378L20.2265 6.0889H20.2581C20.2496 4.98821 20.4635 3.90107 20.8818 2.91821C21.0318 2.56279 21.2134 2.22608 21.387 1.89872L21.5765 1.5433C21.6318 1.43107 21.6239 1.3843 21.6002 1.33754C21.5765 1.29077 21.5765 1.29077 21.5055 1.29077H21.466C21.3177 1.29528 21.1721 1.33873 21.0396 1.41798C20.9072 1.49723 20.7913 1.61032 20.7002 1.74907L20.2581 2.36638L19.9265 2.83403C18.6634 4.62047 17.5265 5.9299 16.3502 6.95874C15.3318 7.85663 14.416 8.41782 13.4844 8.71711C13.2036 8.80666 12.919 8.87847 12.6318 8.93224L12.3555 8.99771V12.2058L12.3792 12.2245C13.1607 12.2713 13.816 12.4583 14.3765 12.7951C14.7949 13.0382 15.1976 13.3282 15.5844 13.6088L16.0028 13.9081C15.9834 13.5673 16.0386 13.2264 16.1631 12.9183C16.2876 12.6102 16.4771 12.3455 16.7134 12.1497C16.5086 12.0129 16.3519 11.794 16.2713 11.5324C16.2241 11.3635 16.2095 11.1842 16.2286 11.0078C16.2478 10.8313 16.3001 10.6622 16.3818 10.5129C16.9423 9.31571 17.5502 8.05305 18.3476 6.3882Z" fill="white"/>
<path d="M22.7928 6.54715L22.3823 6.39751L21.3402 6.02338C21.3537 5.31353 21.4685 4.61149 21.6797 3.947C21.8775 3.3568 22.1403 2.80016 22.4612 2.2915C22.6006 2.07484 22.6857 1.81602 22.7066 1.54473C22.7276 1.27343 22.6836 1.00063 22.5797 0.757599C22.4859 0.531829 22.341 0.3414 22.1612 0.207607C21.9813 0.0738142 21.7736 0.00193228 21.5612 0L21.4981 0C21.3002 0.00918369 21.104 0.0468733 20.9139 0.112237C20.3376 0.289945 19.9665 0.748246 19.6744 1.17849C18.8849 2.32892 17.8191 3.81606 16.556 5.10678C15.6086 6.07015 14.7639 6.73422 13.9033 7.18316C13.2323 7.52923 12.6086 7.69758 11.9928 7.69758C11.7681 7.69513 11.5438 7.67325 11.3218 7.63211C10.6349 7.48246 9.93229 7.1551 9.18229 6.61263C8.05335 5.81761 6.97966 4.73266 5.80335 3.20811C5.4244 2.71239 5.03756 2.17927 4.68229 1.6742L4.12966 0.907249C3.93314 0.626253 3.6872 0.399483 3.40902 0.24278C3.13085 0.0860766 2.82715 0.00322046 2.51914 0L2.47177 0C2.30762 0.000360567 2.14525 0.0403566 1.99458 0.117546C1.84391 0.194735 1.70811 0.307498 1.59545 0.448948C1.4898 0.584071 1.40867 0.743429 1.35707 0.917173C1.30547 1.09092 1.2845 1.27535 1.29545 1.45908V1.47779C1.32782 1.78676 1.4226 2.08194 1.57177 2.33827C2.28229 3.51676 2.63756 4.7233 2.65335 6.00468L1.87966 6.29462L1.23229 6.52845C0.766504 6.71551 0.387557 7.06157 0.182294 7.51988C-0.0229692 7.97818 -0.0545481 8.53001 0.0954518 9.11925C0.482294 10.5596 0.790189 11.7475 1.08229 12.8605C1.32703 13.749 1.92703 14.3009 2.66124 14.3009C2.85799 14.3022 3.05329 14.261 3.23756 14.1793L4.05861 13.88L6.14282 13.113C6.20099 13.0879 6.26248 13.0752 6.3244 13.0756C6.45409 13.0737 6.58071 13.1224 6.6848 13.2141C6.7889 13.3057 6.8647 13.4354 6.90057 13.583C6.93644 13.7307 6.93039 13.8882 6.88335 14.0314C6.83631 14.1746 6.75088 14.2956 6.64019 14.3757L5.50335 15.2362L4.64282 15.8909C4.28515 16.1611 4.03248 16.5882 3.94019 17.0787V17.0974C3.90237 17.332 3.90526 17.5732 3.9487 17.8063C3.99213 18.0395 4.07519 18.2597 4.19282 18.4536C5.10861 20.0156 6.12703 21.2408 7.31124 22.1949C8.76387 23.364 10.2955 23.9906 11.756 24H11.7639C13.3981 24 14.7876 23.5604 16.1455 22.6064C17.5033 21.6524 18.6718 20.3336 19.7455 18.5565C19.8779 18.351 19.9736 18.1155 20.0265 17.8646C20.0795 17.6137 20.0886 17.3527 20.0533 17.0974V17.0787C20.0025 16.8261 19.9101 16.5878 19.7814 16.3775C19.6527 16.1673 19.4903 15.9892 19.3033 15.8535L18.7902 15.47L17.377 14.3944C17.2501 14.3044 17.1557 14.1619 17.112 13.9945C17.0683 13.827 17.0783 13.6464 17.1402 13.4871C17.1874 13.3705 17.2612 13.2719 17.3533 13.2025C17.4454 13.1331 17.5521 13.0956 17.6612 13.0943H17.677C17.7493 13.0929 17.8213 13.1056 17.8902 13.1317L20.7718 14.2073C20.9559 14.2748 21.1475 14.3095 21.3402 14.3102C22.0744 14.3102 22.6744 13.7677 22.9112 12.8885L23.4086 10.9805C23.5744 10.3539 23.7481 9.71785 23.9139 9.08184C24.206 7.95012 23.7402 6.91192 22.7928 6.54715ZM23.5349 8.93219C23.2033 10.2042 22.8639 11.4669 22.5323 12.7389C22.3507 13.4217 21.9007 13.8332 21.3402 13.8332C21.1874 13.8334 21.0355 13.8049 20.8902 13.749L18.0086 12.6734C17.9008 12.6364 17.7892 12.6176 17.677 12.6173C17.49 12.6134 17.306 12.6741 17.1475 12.792C16.9891 12.9099 16.8631 13.08 16.7849 13.2814C16.6814 13.5447 16.6636 13.8441 16.735 14.122C16.8064 14.4 16.962 14.6368 17.1718 14.7872L18.577 15.8535L19.0981 16.2463C19.3831 16.4542 19.5873 16.787 19.6665 17.1723C19.6938 17.3656 19.6869 17.5636 19.6461 17.7536C19.6054 17.9436 19.5316 18.1215 19.4297 18.2759C18.3876 20.0062 17.2428 21.297 15.9481 22.2042C14.6533 23.1115 13.327 23.5323 11.7639 23.5323H11.756C10.3744 23.523 8.91387 22.9244 7.53229 21.8114C6.40335 20.8948 5.4165 19.7163 4.5165 18.1824C4.42845 18.04 4.36617 17.8776 4.33356 17.7054C4.30096 17.5332 4.29873 17.3549 4.32703 17.1816C4.39671 16.8115 4.58677 16.4888 4.85598 16.2837L5.7165 15.629L6.85335 14.7685C6.98669 14.6667 7.09773 14.5288 7.17733 14.3662C7.25693 14.2036 7.30282 14.0209 7.31124 13.8332C7.31525 13.6466 7.28235 13.4614 7.21519 13.2925C7.14802 13.1236 7.04844 12.9757 6.9244 12.8605C6.75677 12.6995 6.54807 12.6105 6.33229 12.6079C6.22787 12.6083 6.12408 12.6272 6.0244 12.6641L3.94019 13.431L3.11124 13.7397C2.96457 13.8031 2.80948 13.8348 2.65335 13.8332C2.09282 13.8332 1.65071 13.4123 1.46124 12.7202C1.13756 11.4762 0.805978 10.2229 0.474399 8.97896C0.355978 8.52065 0.371768 8.09041 0.529662 7.74435C0.708885 7.37401 1.00375 7.10193 1.35072 6.98675L1.99808 6.75292L3.0165 6.36945H3.04019C3.03983 6.36438 3.04034 6.35928 3.0417 6.35445C3.04305 6.34963 3.04523 6.34518 3.04808 6.34139C3.08756 4.84489 2.7165 3.45129 1.89545 2.08574C1.78365 1.89366 1.71318 1.6721 1.69019 1.44037C1.68221 1.3195 1.69564 1.19799 1.72963 1.08363C1.76362 0.969266 1.81741 0.864586 1.88756 0.776305C1.96257 0.678703 2.05402 0.60081 2.156 0.547648C2.25799 0.494486 2.36824 0.467235 2.47966 0.467654H2.51914C2.76945 0.47278 3.01593 0.541379 3.24199 0.668834C3.46805 0.796289 3.66844 0.979641 3.82966 1.20655L4.38229 1.9735C4.74545 2.48792 5.1244 3.02104 5.51124 3.52611C6.70335 5.06937 7.80071 6.18238 8.97703 7.01481C9.7665 7.57599 10.5086 7.93141 11.2507 8.09041C11.496 8.13894 11.7442 8.16397 11.9928 8.16524C12.656 8.16524 13.3349 7.98753 14.0612 7.61341C14.9612 7.14575 15.8376 6.46298 16.8165 5.4622C18.0955 4.15277 19.177 2.64692 19.9823 1.46843C20.2507 1.0756 20.5586 0.701481 21.0165 0.561185C21.1785 0.506573 21.3455 0.475172 21.5139 0.467654H21.5376C21.6801 0.463343 21.8208 0.507807 21.9426 0.595722C22.0644 0.683637 22.1622 0.811278 22.2244 0.963367C22.2974 1.12857 22.3287 1.31515 22.3147 1.50087C22.3007 1.68659 22.242 1.86363 22.1455 2.01091C21.804 2.55387 21.5252 3.14835 21.3165 3.77864C21.0643 4.5607 20.9384 5.39198 20.9454 6.22915C20.9454 6.36009 20.9612 6.36945 21.0481 6.40686L22.2718 6.84645L22.6744 6.9961C23.4165 7.2767 23.7639 8.053 23.5349 8.93219Z" fill="white"/>
<path d="M22.4769 7.79111L22.0111 7.61341L20.7559 7.14575H20.7164C20.7164 7.14575 20.7006 7.14575 20.6769 7.17381C19.7532 8.371 19.2874 9.78332 19.2559 11.5136C19.2638 11.5604 19.2638 11.6165 19.2716 11.6726C19.2795 11.7288 19.3032 12.0655 19.319 12.2899L19.3506 12.3087L20.3532 12.6828L21.1111 12.9634C21.1853 12.9902 21.2626 13.0029 21.3401 13.0008C21.5927 13.0008 21.7743 12.8231 21.869 12.4864C22.2006 11.2143 22.5401 9.94232 22.8795 8.6703C22.9901 8.25877 22.8401 7.92206 22.4769 7.79111Z" fill="white"/>
<path d="M19.9821 6.85581H19.9347L19.3663 6.64068L19.2084 6.60327C19.1294 6.60327 19.0347 6.63133 18.9321 6.8371L16.99 10.8963C16.9598 10.9528 16.9394 11.0157 16.9299 11.0815C16.9204 11.1473 16.922 11.2147 16.9347 11.2798C16.9611 11.3362 16.9973 11.3853 17.0408 11.424C17.0843 11.4627 17.1343 11.49 17.1873 11.5043L18.4505 11.9813L18.5926 12.0281C18.4742 10.1013 18.94 8.36165 19.9821 6.85581Z" fill="white"/>
</svg>
