<svg width="14" height="14" viewBox="0 0 14 14" fill="none" xmlns="http://www.w3.org/2000/svg">
<g clip-path="url(#clip0_832_26830)">
<g clip-path="url(#clip1_832_26830)">
<path d="M8.94838 9.35152C8.90752 9.47424 8.89708 9.60823 8.91829 9.73774C8.93951 9.86725 8.99148 9.9869 9.06812 10.0826C9.11417 10.1426 9.16943 10.2245 9.16022 10.3227C9.15357 10.3645 9.13996 10.4044 9.1202 10.44C9.10044 10.4756 9.07491 10.5062 9.04509 10.53L8.95299 10.6118C8.80464 10.7502 8.64931 10.8778 8.48785 10.9938C7.91963 11.4237 7.2371 11.5889 6.57206 11.4575C6.01022 11.3539 5.48983 11.0592 4.98325 10.5573C4.90496 10.4809 4.84509 10.4154 4.84049 10.3227C4.83588 10.2299 4.88193 10.1535 4.95101 10.0608C5.0418 9.93685 5.09217 9.77852 5.09301 9.61441C5.09386 9.45031 5.04512 9.29126 4.95562 9.16601C4.89964 9.08876 4.83047 9.02645 4.75268 8.98319C4.67488 8.93993 4.59023 8.9167 4.5043 8.91504C4.41031 8.91554 4.31811 8.94567 4.2372 9.00233L3.04443 9.90802C3.01403 9.92951 2.98776 9.95831 2.96733 9.99256C2.9469 10.0268 2.93276 10.0658 2.92582 10.1069C2.91887 10.148 2.91929 10.1904 2.92702 10.2313C2.93476 10.2723 2.94966 10.3108 2.97075 10.3445C3.47733 11.1956 4.02075 11.8449 4.63785 12.3414C5.38391 12.9361 6.17141 13.2416 6.97272 13.2471C7.67858 13.2469 8.3722 13.0287 8.98522 12.6142C9.7543 12.1068 10.4221 11.3593 11.03 10.339C11.0497 10.3072 11.0639 10.271 11.0718 10.2326C11.0797 10.1943 11.0811 10.1544 11.076 10.1154C11.0665 10.0699 11.0494 10.0271 11.0257 9.98959C11.0019 9.95209 10.9721 9.92064 10.9379 9.89711L9.78654 9.02416L9.70364 8.9696C9.63289 8.93586 9.55722 8.91898 9.48095 8.91991C9.40469 8.92085 9.32933 8.93959 9.25918 8.97506C9.18904 9.01053 9.12548 9.06204 9.07215 9.12663C9.01882 9.19123 8.97676 9.26765 8.94838 9.35152Z" fill="#878687"/>
<path d="M6.79274 11.0048V7.60571L6.71906 7.61663L6.36445 7.67664C5.80722 7.79667 5.3513 8.1404 4.87695 8.52231C5.00729 8.58543 5.12502 8.68017 5.22258 8.80045C5.32014 8.92073 5.39536 9.06388 5.4434 9.22068C5.4933 9.39469 5.50928 9.57983 5.49014 9.76221C5.471 9.94458 5.41723 10.1194 5.33287 10.2737C5.80261 10.7102 6.28156 10.9557 6.79274 11.0048Z" fill="#878687"/>
<path d="M1.91557 4.16284H1.88794L1.19254 4.42473L0.911619 4.52839C0.662935 4.62114 0.584646 4.79573 0.662935 5.09036L1.2432 7.28911C1.29386 7.48552 1.40438 7.58919 1.55175 7.58919C1.59544 7.59001 1.63896 7.58264 1.6807 7.56736L2.13662 7.39823C2.33004 7.3273 2.51886 7.25092 2.71228 7.18544L2.7307 7.17453V7.16362C2.73991 7.03268 2.74912 6.90174 2.75833 6.80898V6.7326C2.75833 5.75598 2.46359 4.85029 1.92938 4.17921C1.93399 4.17375 1.92017 4.16284 1.91557 4.16284Z" fill="#878687"/>
<path d="M8.56098 9.20977C8.60673 9.05039 8.68226 8.90531 8.78193 8.78533C8.88161 8.66536 9.00286 8.57359 9.13664 8.51686C8.56098 8.004 7.73203 7.60571 7.21624 7.60571H7.20703V11.0048C7.71822 10.9502 8.20177 10.7102 8.67151 10.2682C8.58274 10.1153 8.52636 9.93921 8.50712 9.75499C8.48789 9.57076 8.50636 9.38375 8.56098 9.20977Z" fill="#878687"/>
<path d="M2.93881 3.9501C2.92568 3.91979 2.90594 3.8942 2.88165 3.87597C2.85735 3.85774 2.82939 3.84754 2.80065 3.84644H2.76381C2.63946 3.88463 2.51512 3.93373 2.38157 3.98283L2.34473 3.9992C2.95723 4.88307 3.22433 5.8706 3.15525 7.01635L3.33025 6.95633L4.03946 6.68354C4.05822 6.67476 4.07525 6.66151 4.08951 6.64462C4.10377 6.62773 4.11495 6.60755 4.12236 6.58533C4.13144 6.55505 4.1349 6.5228 4.13252 6.49079C4.13013 6.45878 4.12196 6.42776 4.10854 6.39983L2.93881 3.9501Z" fill="#878687"/>
<path d="M4.66084 8.11291L4.974 7.87285C5.54505 7.42 6.15755 7.16903 6.79768 7.13083V5.23762C6.67795 5.22125 6.549 5.20488 6.42466 5.1776C5.89966 5.05757 5.39768 4.80114 4.83584 4.37012C4.15426 3.84635 3.51413 3.17526 2.81874 2.26412C2.57926 1.94221 2.34439 1.6094 2.11413 1.28204L1.96676 1.07472C1.83781 0.894669 1.70426 0.796462 1.54308 0.763726H1.52466L1.45097 0.752814C1.44 0.750285 1.42864 0.752124 1.41864 0.758045C1.40865 0.763966 1.40058 0.773636 1.39571 0.78555C1.38189 0.818286 1.37268 0.851022 1.43716 0.943773L1.45097 0.971053H1.45558C1.9115 1.73489 2.14637 2.50963 2.1786 3.34985V3.56264L2.23387 3.54081L2.57466 3.41532C2.64754 3.38712 2.72365 3.3724 2.80031 3.37168C3.01216 3.37168 3.19176 3.50262 3.3115 3.75905L3.62005 4.40831L3.77663 4.73021L3.98387 5.16669L4.4536 6.14331C4.49683 6.23165 4.5237 6.32988 4.53243 6.43147C4.54116 6.53306 4.53156 6.63569 4.50426 6.73255C4.45737 6.88357 4.3679 7.01077 4.25097 7.09264C4.38756 7.20662 4.49704 7.36038 4.56883 7.5391C4.64063 7.71782 4.67232 7.91545 4.66084 8.11291Z" fill="#878687"/>
<path d="M10.7024 3.72643C10.7509 3.61636 10.8245 3.5247 10.9149 3.46197C11.0054 3.39924 11.1089 3.36799 11.2136 3.37179H11.2643C11.3208 3.37847 11.3765 3.39313 11.4301 3.41544L11.4623 3.42635L11.7985 3.55184H11.8169C11.812 2.90977 11.9367 2.2756 12.1807 1.70227C12.2682 1.49494 12.3741 1.29853 12.4755 1.10757L12.586 0.900241C12.6182 0.834769 12.6136 0.807489 12.5998 0.780209C12.586 0.75293 12.586 0.75293 12.5445 0.75293H12.5215C12.435 0.755559 12.35 0.780904 12.2728 0.827134C12.1955 0.873365 12.1279 0.93933 12.0748 1.02027L11.8169 1.38037L11.6235 1.65316C10.8866 2.69525 10.2235 3.45909 9.53729 4.05924C8.94322 4.58302 8.40901 4.91037 7.86558 5.08496C7.70179 5.1372 7.53576 5.17909 7.36822 5.21045L7.20703 5.24864V7.12004L7.22085 7.13095C7.67677 7.15823 8.05901 7.26735 8.38598 7.46376C8.63006 7.60562 8.86493 7.77475 9.09058 7.93843L9.33466 8.11302C9.32333 7.91424 9.35553 7.71536 9.42815 7.53565C9.50077 7.35594 9.61133 7.2015 9.74914 7.0873C9.62972 7.00749 9.53827 6.8798 9.49124 6.72721C9.46371 6.62869 9.45521 6.5241 9.46637 6.42117C9.47753 6.31824 9.50806 6.21959 9.55572 6.13251C9.88269 5.43414 10.2373 4.69759 10.7024 3.72643Z" fill="#878687"/>
<path d="M13.2956 3.81917L13.0562 3.73188L12.4483 3.51364C12.4562 3.09956 12.5231 2.69004 12.6463 2.30242C12.7617 1.95814 12.915 1.63343 13.1022 1.33671C13.1835 1.21032 13.2332 1.05935 13.2454 0.90109C13.2576 0.742833 13.2319 0.583701 13.1713 0.441933C13.1166 0.310234 13.0321 0.19915 12.9272 0.121104C12.8223 0.0430583 12.7011 0.00112716 12.5772 0L12.5404 0C12.425 0.00535715 12.3105 0.0273428 12.1996 0.0654716C11.8634 0.169135 11.647 0.436477 11.4766 0.687451C11.016 1.35853 10.3943 2.22603 9.65749 2.97896C9.10486 3.54092 8.6121 3.92829 8.11012 4.19018C7.71868 4.39205 7.35486 4.49026 6.99565 4.49026C6.86456 4.48883 6.73373 4.47606 6.6042 4.45207C6.20354 4.36477 5.79368 4.17381 5.35618 3.85737C4.69762 3.39361 4.07131 2.76072 3.38512 1.8714C3.16407 1.58223 2.93841 1.27124 2.73118 0.976617L2.40881 0.529228C2.29417 0.365315 2.1507 0.233032 1.98843 0.141621C1.82616 0.0502113 1.64901 0.0018786 1.46933 0L1.4417 0C1.34595 0.000210331 1.25123 0.0235414 1.16334 0.0685684C1.07545 0.113595 0.996232 0.179374 0.930518 0.261886C0.86889 0.340708 0.821563 0.433667 0.791463 0.535018C0.761363 0.636368 0.749129 0.743956 0.755517 0.85113V0.862042C0.774397 1.04228 0.829688 1.21446 0.916702 1.36399C1.33118 2.05144 1.53841 2.75526 1.54762 3.50273L1.09631 3.67186L0.718675 3.80826C0.446965 3.91738 0.225912 4.11925 0.106175 4.38659C-0.0135615 4.65394 -0.0319825 4.97584 0.0555175 5.31956C0.281175 6.15978 0.460781 6.85269 0.631175 7.50195C0.773938 8.02026 1.12394 8.34217 1.55223 8.34217C1.667 8.34293 1.78092 8.3189 1.88841 8.27124L2.36736 8.09665L3.58315 7.64926C3.61708 7.63459 3.65295 7.6272 3.68907 7.62744C3.76472 7.62635 3.83859 7.65473 3.89931 7.70821C3.96003 7.76168 4.00425 7.8373 4.02517 7.92344C4.04609 8.00958 4.04256 8.10148 4.01512 8.18501C3.98768 8.26854 3.93785 8.33909 3.87328 8.38581L3.21012 8.88776L2.70815 9.26968C2.49951 9.42729 2.35212 9.67646 2.29828 9.96259V9.9735C2.27622 10.1103 2.27791 10.251 2.30324 10.387C2.32858 10.523 2.37703 10.6515 2.44565 10.7646C2.97986 11.6758 3.57394 12.3905 4.26473 12.947C5.1121 13.629 6.00552 13.9945 6.85749 14H6.8621C7.81539 14 8.62591 13.7436 9.41802 13.1871C10.2101 12.6306 10.8917 11.8613 11.518 10.8246C11.5953 10.7047 11.6511 10.5674 11.682 10.421C11.7129 10.2747 11.7182 10.1224 11.6976 9.9735V9.96259C11.668 9.81521 11.6141 9.67621 11.539 9.55356C11.4639 9.43091 11.3692 9.32702 11.2601 9.24786L10.9608 9.02416L10.1364 8.39673C10.0624 8.34421 10.0073 8.26114 9.98182 8.16346C9.95632 8.06577 9.96218 7.96037 9.99828 7.8675C10.0258 7.79947 10.0689 7.74195 10.1226 7.70145C10.1763 7.66095 10.2386 7.63909 10.3022 7.63835H10.3114C10.3536 7.63754 10.3956 7.64491 10.4358 7.66017L12.1167 8.28761C12.2241 8.32699 12.3359 8.34722 12.4483 8.34762C12.8766 8.34762 13.2266 8.03118 13.3647 7.51832L13.6549 6.4053C13.7516 6.03975 13.8529 5.66875 13.9496 5.29774C14.12 4.63757 13.8483 4.03196 13.2956 3.81917ZM13.7285 5.21044C13.5351 5.95246 13.3371 6.68901 13.1437 7.43102C13.0378 7.82931 12.7753 8.06937 12.4483 8.06937C12.3591 8.06946 12.2706 8.05289 12.1858 8.02026L10.5049 7.39283C10.442 7.37126 10.3769 7.36024 10.3114 7.36009C10.2023 7.3578 10.095 7.39322 10.0026 7.46201C9.91015 7.5308 9.83665 7.62999 9.79104 7.74747C9.73066 7.90109 9.72029 8.07573 9.76194 8.23785C9.80359 8.39997 9.89431 8.53816 10.0167 8.62588L10.8364 9.24786L11.1404 9.47701C11.3066 9.59831 11.4258 9.7924 11.472 10.0171C11.4879 10.1299 11.4839 10.2454 11.4601 10.3563C11.4363 10.4671 11.3933 10.5709 11.3338 10.661C10.7259 11.6703 10.0581 12.4232 9.30289 12.9525C8.54762 13.4817 7.77394 13.7272 6.8621 13.7272H6.85749C6.05157 13.7217 5.1996 13.3726 4.39368 12.7233C3.73512 12.1886 3.15946 11.5012 2.63446 10.6064C2.5831 10.5233 2.54677 10.4286 2.52775 10.3282C2.50873 10.2277 2.50743 10.1237 2.52394 10.0226C2.56458 9.8067 2.67545 9.61849 2.83249 9.49883L3.33446 9.11691L3.99762 8.61496C4.07541 8.55555 4.14018 8.47511 4.18661 8.38026C4.23305 8.28541 4.25982 8.17886 4.26473 8.06937C4.26707 7.96049 4.24788 7.85248 4.2087 7.75396C4.16951 7.65543 4.11142 7.56913 4.03907 7.50195C3.94129 7.40804 3.81955 7.35611 3.69368 7.35464C3.63276 7.35483 3.57222 7.36586 3.51407 7.38737L2.29828 7.83476L1.81473 8.01481C1.72917 8.05181 1.6387 8.07029 1.54762 8.06937C1.22065 8.06937 0.962754 7.82385 0.852228 7.42011C0.663412 6.69447 0.469991 5.96337 0.27657 5.23772C0.207491 4.97038 0.216702 4.71941 0.308807 4.51754C0.413354 4.30151 0.585361 4.14279 0.787754 4.0756L1.16539 3.9392L1.75946 3.71551H1.77328C1.77307 3.71255 1.77337 3.70958 1.77416 3.70676C1.77495 3.70395 1.77622 3.70136 1.77789 3.69914C1.80091 2.82619 1.58446 2.01325 1.10552 1.21668C1.0403 1.10463 0.999191 0.975393 0.985781 0.840218C0.981124 0.769709 0.98896 0.698825 1.00879 0.632115C1.02861 0.565405 1.05999 0.504342 1.10091 0.452845C1.14467 0.39591 1.19802 0.350472 1.25751 0.319461C1.317 0.28845 1.38131 0.272554 1.44631 0.272798H1.46933C1.61535 0.275788 1.75913 0.315804 1.891 0.390153C2.02287 0.464502 2.13976 0.571457 2.23381 0.703819L2.55618 1.15121C2.76802 1.45129 2.98907 1.76228 3.21473 2.0569C3.91012 2.95713 4.55025 3.60639 5.23644 4.09197C5.69696 4.41933 6.12986 4.62666 6.56275 4.71941C6.70583 4.74772 6.85059 4.76231 6.99565 4.76306C7.38249 4.76306 7.77854 4.65939 8.20223 4.44115C8.72723 4.16836 9.23841 3.77007 9.80946 3.18628C10.5555 2.42245 11.1864 1.54404 11.6562 0.856586C11.8128 0.627436 11.9924 0.409197 12.2595 0.327358C12.354 0.295501 12.4514 0.277184 12.5496 0.272798H12.5634C12.6466 0.270284 12.7286 0.29622 12.7997 0.347504C12.8707 0.398788 12.9278 0.473246 12.9641 0.561964C13.0066 0.658335 13.0249 0.76717 13.0168 0.875507C13.0086 0.983845 12.9743 1.08712 12.918 1.17303C12.7188 1.48976 12.5562 1.83654 12.4345 2.20421C12.2873 2.66041 12.2139 3.14532 12.218 3.63367C12.218 3.71005 12.2272 3.71551 12.2779 3.73733L12.9917 3.99376L13.2266 4.08106C13.6595 4.24474 13.8621 4.69758 13.7285 5.21044Z" fill="#878687"/>
<path d="M13.1114 4.54492L12.8397 4.44126L12.1074 4.16846H12.0844C12.0844 4.16846 12.0752 4.16846 12.0614 4.18482C11.5226 4.88319 11.2508 5.70704 11.2324 6.71639C11.237 6.74367 11.237 6.77641 11.2416 6.80914C11.2462 6.84188 11.2601 7.03829 11.2693 7.16924L11.2877 7.18015L11.8726 7.39839L12.3147 7.56207C12.3579 7.57774 12.403 7.58511 12.4482 7.58389C12.5956 7.58389 12.7015 7.48023 12.7568 7.28381C12.9502 6.5418 13.1482 5.79979 13.3462 5.05778C13.4107 4.81772 13.3232 4.6213 13.1114 4.54492Z" fill="#878687"/>
<path d="M11.656 3.99912H11.6284L11.2968 3.87363L11.2047 3.85181C11.1587 3.85181 11.1034 3.86817 11.0435 3.98821L9.91064 6.35609C9.89306 6.389 9.88115 6.42572 9.87562 6.46412C9.87008 6.50251 9.87103 6.54183 9.87841 6.57979C9.89382 6.61267 9.91491 6.64132 9.9403 6.66389C9.96569 6.68645 9.99482 6.70241 10.0258 6.71073L10.7626 6.98899L10.8455 7.01627C10.7764 5.89234 11.0481 4.87753 11.656 3.99912Z" fill="#878687"/>
</g>
</g>
<defs>
<clipPath id="clip0_832_26830">
<rect width="14" height="14" fill="white" transform="matrix(-1 0 0 1 14 0)"/>
</clipPath>
<clipPath id="clip1_832_26830">
<rect width="14" height="14" fill="white"/>
</clipPath>
</defs>
</svg>
