<svg width="24" height="24" viewBox="0 0 24 24" fill="none" xmlns="http://www.w3.org/2000/svg">
<g clip-path="url(#clip0_1423_5810)">
<path d="M18.9964 2.0678C18.074 1.53447 16.9829 1.35669 15.6781 1.35669H15.6106C14.9321 1.35998 14.2563 1.42906 13.5971 1.56254C13.5408 1.57189 13.5071 1.59996 13.5071 1.63739C13.4999 1.65601 13.5018 1.67622 13.5123 1.6937C13.5228 1.71119 13.5411 1.72456 13.5633 1.73096L14.5307 2.16137C14.6371 2.21018 14.7207 2.28742 14.7678 2.38061C14.8149 2.4738 14.8228 2.57748 14.7903 2.67488C14.7577 2.77228 14.6867 2.85771 14.5885 2.91734C14.4904 2.97697 14.3709 3.00732 14.2495 3.00347C14.1712 3.00224 14.0943 2.98624 14.0245 2.95669L11.7748 1.96488L11.4598 1.84324C10.8524 1.61868 9.98628 1.45026 9.09764 1.38476L7.45534 1.40347H7.4441C6.48797 1.49704 5.65557 1.7216 5.0369 2.0678C4.11451 2.60113 3.69831 3.28418 3.65332 4.34149V4.58476C3.82205 6.36254 4.04702 6.9333 4.54196 7.91575C4.60945 8.03739 4.69944 8.17774 4.80068 8.32745L4.82317 8.36488L4.93566 8.52394C4.94667 8.53802 4.96165 8.54964 4.97929 8.55779C4.99694 8.56595 5.01672 8.57039 5.0369 8.57072H7.84905C7.96997 8.57527 8.08983 8.55022 8.1938 8.49866C8.29777 8.4471 8.38128 8.37131 8.43397 8.28067C8.43397 8.27131 8.44522 8.26195 8.44522 8.24324V7.43856C8.42226 7.11911 8.54701 6.80445 8.79393 6.55903C8.97391 6.38125 9.32261 6.1754 9.94128 6.1754H14.0808C14.6994 6.1754 15.0481 6.39061 15.2394 6.55903C15.5881 6.88651 15.5881 7.30757 15.5881 7.4292V8.24324C15.5881 8.26195 15.5993 8.27131 15.5993 8.28067C15.652 8.37131 15.7355 8.4471 15.8395 8.49866C15.9435 8.55022 16.0633 8.57527 16.1843 8.57072H19.0864C19.1002 8.57522 19.1153 8.57582 19.1296 8.57244C19.1438 8.56906 19.1563 8.56188 19.1651 8.55201C19.2439 8.49587 19.4239 8.33681 19.6151 7.94382C20.245 6.62453 20.2787 6.19412 20.3912 4.58476C20.4027 4.54794 20.4027 4.5093 20.3912 4.47248V4.32277C20.3462 3.27482 19.9188 2.60113 18.9964 2.0678Z" fill="white"/>
<path d="M19.8853 0.954405C18.8054 0.336861 17.2981 1.91662e-05 15.6445 1.91662e-05H15.5996C14.3669 -0.00221856 13.1452 0.19151 12 0.570779C11.2351 0.290078 10.2677 0.1123 9.18785 0.0280893H9.08662L7.39933 0.0468028H7.27559C6.027 0.16844 4.93588 0.486569 4.10349 0.954405C2.75366 1.73101 2.06749 2.82575 2 4.30411V4.69709C2.20247 6.69008 2.47244 7.37312 3.02362 8.4585C3.10236 8.60821 3.19235 8.74856 3.28234 8.88891V8.90762L3.36108 9.0199C3.45107 9.1509 3.54106 9.28189 3.6198 9.42224C3.71066 9.57898 3.85276 9.71126 4.02981 9.80393C4.20687 9.8966 4.41173 9.94591 4.62092 9.94622H7.75928C6.75816 10.0959 5.95951 10.4608 5.37458 11.0222C3.65354 12.641 4.41845 15.2796 4.71091 16.1029V16.131L4.75591 16.1965V16.2526L4.7784 16.2714C5.03712 16.786 5.02587 17.1509 4.99213 18.3392V18.6105C4.93588 20.4819 5.56581 21.8386 6.09449 22.662C6.62317 23.4854 7.09561 23.9907 8.29921 23.9907C9.50281 23.9907 10.144 23.1392 10.2227 22.3532C10.2565 22.0538 10.2677 21.7731 10.2677 21.4643C10.2674 20.694 10.4038 19.9278 10.6727 19.1907C10.8136 18.7153 11.0252 18.2564 11.3026 17.8246C11.4617 17.6679 11.6731 17.554 11.91 17.4971C12.0787 17.4971 12.2475 17.7123 12.315 17.8059C12.6083 18.2249 12.8208 18.6795 12.9449 19.1532C13.1024 19.7521 13.2036 20.4819 13.2711 20.9684L13.2936 21.1369C13.3386 21.3988 13.3611 21.6234 13.4061 21.8012C13.7435 23.317 14.6434 24 15.3296 24C16.4432 24 16.9044 23.5883 17.5343 22.662C18.1642 21.7357 18.5467 20.2573 18.6367 18.6854C18.7154 17.3661 18.9066 16.917 19.2328 16.2433C19.2677 16.1979 19.2907 16.1469 19.3003 16.0936C19.9415 14.2129 19.7615 12.4819 18.8167 11.462C17.8718 10.4421 16.4207 10.0117 14.4297 10.0117H14.0697C13.8721 10.0127 13.6783 10.0574 13.5083 10.1413C13.3383 10.2251 13.1982 10.3451 13.1024 10.4889V8.53335H10.8976V10.0398H10.8189C10.1967 9.93551 9.56379 9.88223 8.92913 9.88072L8.44545 9.89943C8.82636 9.81984 9.17501 9.65746 9.45567 9.42893C9.73634 9.2004 9.93895 8.91393 10.0427 8.59885C10.0687 8.5258 10.0838 8.45039 10.0877 8.37429V7.85031H10.1552L10.1102 7.54154H13.946V8.3275C13.9423 8.40284 13.9498 8.47828 13.9685 8.55207V8.58949C14.3397 9.65616 15.5208 9.93686 16.162 9.93686H19.1541C19.5253 9.93686 20.4364 9.79651 21.0889 8.4585C21.7413 7.12049 21.8425 6.46552 21.9888 4.66902V4.29476C21.9325 2.82575 21.2463 1.73101 19.8853 0.954405ZM8.92913 10.3298C9.52592 10.3328 10.121 10.383 10.7064 10.4796L10.7739 10.4983L11.3138 10.6386H11.3476L11.4151 10.6199C11.4298 10.6118 11.4416 10.6006 11.4495 10.5875C11.4574 10.5743 11.4611 10.5597 11.4601 10.545V9.00119H12.5399V13.0526C12.5416 13.0715 12.5486 13.0898 12.5604 13.1061C12.5721 13.1223 12.5882 13.1361 12.6074 13.1462H12.6524C12.6672 13.1466 12.6819 13.1443 12.6955 13.1395C12.7091 13.1346 12.7213 13.1273 12.7312 13.1181L13.4511 12.5287L14.216 13.1649L12.3825 14.6807C12.3323 14.7226 12.2727 14.7558 12.2071 14.7785C12.1414 14.8011 12.0711 14.8128 12 14.8128C11.9289 14.8128 11.8586 14.8011 11.7929 14.7785C11.7273 14.7558 11.6677 14.7226 11.6175 14.6807L9.78403 13.1649L10.5489 12.5287L11.2688 13.1181C11.2787 13.1273 11.2909 13.1346 11.3045 13.1395C11.3181 13.1443 11.3328 13.1466 11.3476 13.1462H11.3926C11.4132 13.1375 11.4305 13.124 11.4425 13.1075C11.4544 13.0909 11.4605 13.0719 11.4601 13.0526V11.6959C11.4595 11.6756 11.4517 11.6559 11.4377 11.6392C11.4237 11.6226 11.4041 11.6097 11.3813 11.6024L10.4814 11.3591H10.4702C9.95914 11.2734 9.43922 11.2295 8.91789 11.2281C7.86052 11.2281 7.08437 11.462 6.60068 11.9205C5.56581 12.9029 5.94826 14.8304 6.28572 15.71C6.62317 16.5895 6.67942 17.1509 6.64567 18.4889V18.648C6.60068 20.3135 7.1856 21.455 7.54556 21.9883C7.90551 22.5217 7.9955 22.6339 8.31046 22.6339C8.62542 22.6339 8.59168 22.3158 8.59168 22.2316C8.6235 21.9767 8.63853 21.7206 8.63667 21.4643V21.4456C8.63846 20.5615 8.79379 19.6823 9.09786 18.8351C9.28909 18.2924 9.49157 17.6936 9.91901 17.1135C10.3465 16.5333 11.0326 16.131 11.8875 16.131H11.9438C12.36 16.1404 13.1474 16.2714 13.7435 17.1228C14.1265 17.6631 14.4036 18.2505 14.5647 18.8632C14.7202 19.5003 14.8366 20.1437 14.9134 20.7907V20.8094C14.9584 21.1369 14.9921 21.3895 15.0259 21.5486C15.1496 22.0819 15.3296 22.3907 15.4646 22.5497C15.4715 22.562 15.4827 22.5721 15.4968 22.5788C15.5109 22.5855 15.5271 22.5884 15.5433 22.5872H15.5546C15.5668 22.5887 15.5793 22.5877 15.591 22.5845C15.6027 22.5812 15.6134 22.5757 15.622 22.5684C15.7458 22.5029 15.8695 22.3532 16.117 21.9883C16.5894 21.2772 16.9381 19.9579 17.0056 18.6105C17.0956 17.0854 17.3318 16.4959 17.7368 15.71C18.2655 14.1567 18.198 13.0059 17.5343 12.3041C16.8706 11.6024 15.4533 11.3778 14.4297 11.3778H14.0697C13.9265 11.3778 13.7892 11.3305 13.688 11.2463C13.5867 11.162 13.5298 11.0478 13.5298 10.9287C13.5327 10.8103 13.5905 10.6975 13.6911 10.6137C13.7918 10.53 13.9274 10.4819 14.0697 10.4796H14.4297C16.2295 10.4796 17.6018 10.9193 18.378 11.7521C19.1541 12.5848 19.4016 14.1287 18.7604 15.9907C18.7604 16.0094 18.7492 16.0187 18.7379 16.0374C18.3892 16.7392 18.1642 17.2445 18.0855 18.6667C18.0068 20.0889 17.6243 21.586 17.0506 22.4374C16.4769 23.2889 16.1732 23.5322 15.3408 23.5322C14.9359 23.5322 14.2497 22.9614 13.9685 21.717C13.9235 21.5205 13.8898 21.2398 13.8448 20.9123C13.766 20.3509 13.6648 19.6491 13.5073 19.0503C13.3707 18.5298 13.1353 18.0308 12.8099 17.5719C12.5624 17.2164 12.2587 17.0293 11.9213 17.0293C11.5838 17.0293 11.0439 17.31 10.8414 17.5813C10.4927 18.0585 10.3015 18.5918 10.144 19.0597C9.86134 19.8396 9.71734 20.6497 9.71654 21.4643C9.71654 21.7263 9.70529 21.9977 9.67154 22.3064C9.6153 22.8959 9.16536 23.5228 8.31046 23.5228C7.45557 23.5228 7.12936 23.2047 6.60068 22.4281C6.19573 21.8105 5.50956 20.5006 5.5658 18.6199V18.4608C5.59955 17.1415 5.62205 16.6924 5.28459 16.0468C5.28511 16.0417 5.28438 16.0366 5.28244 16.0318C5.28051 16.027 5.27741 16.0225 5.27334 16.0187C5.22835 15.8877 4.06974 12.9591 5.79078 11.331C6.48819 10.6667 7.54556 10.3298 8.92913 10.3298ZM21.4376 4.65031C21.3026 6.38131 21.2463 6.88657 20.5714 8.29008C20.0427 9.39417 19.3566 9.47838 19.1654 9.47838H16.1732C15.6895 9.47838 14.8009 9.26318 14.5197 8.46785C14.5104 8.4278 14.5066 8.38699 14.5084 8.34622V7.37312C14.5101 7.29628 14.4825 7.22096 14.4297 7.15791C14.3305 7.09411 14.2059 7.06401 14.081 7.0737H9.94151C9.81777 7.0737 9.66029 7.09242 9.5928 7.15791C9.53819 7.22344 9.51419 7.30328 9.52531 7.38247H9.51406C9.51406 7.40119 9.52531 7.41055 9.52531 7.42926V8.34622C9.52329 8.38733 9.51574 8.42813 9.50281 8.46785C9.2216 9.26318 8.33296 9.47838 7.84927 9.47838H4.62092C4.51714 9.4779 4.41563 9.45306 4.32807 9.40671C4.24051 9.36036 4.17046 9.29439 4.12598 9.21639C4.04344 9.06504 3.94952 8.91816 3.84477 8.77663V8.75791C3.73245 8.60069 3.63105 8.43824 3.54106 8.27136C3.00112 7.22341 2.75366 6.56844 2.56243 4.65967V4.32283C2.61867 2.98481 3.21485 2.03043 4.41845 1.33803C5.18335 0.907622 6.19573 0.62692 7.34308 0.514639H7.39933L9.09786 0.495926H9.14286C10.189 0.570779 11.1564 0.757914 11.8875 1.03862L11.955 1.05733H12.045L12.1125 1.03862C13.0574 0.68306 14.3622 0.467855 15.5996 0.467855H15.6445C17.1856 0.467855 18.5804 0.776627 19.5703 1.33803C20.7852 2.03043 21.3813 2.97546 21.4376 4.31347V4.65031Z" fill="white"/>
</g>
<defs>
<clipPath id="clip0_1423_5810">
<rect width="20" height="24" fill="white" transform="translate(2)"/>
</clipPath>
</defs>
</svg>
