<svg width="60" height="60" viewBox="0 0 60 60" fill="none" xmlns="http://www.w3.org/2000/svg">
<rect width="60" height="60" rx="30" fill="#454545"/>
<path d="M37.2962 26.0495C36.4505 26.0495 34.8969 25.7136 34.4052 24.4722C34.3889 24.4097 34.3823 24.346 34.3856 24.2824V22.7781C34.3929 22.6577 34.3443 22.5391 34.2479 22.4422C34.0728 22.3451 33.8562 22.2984 33.6383 22.3107H26.4011C26.1847 22.3107 25.9094 22.34 25.7914 22.4422C25.6976 22.545 25.6558 22.6692 25.6734 22.7927H25.6538C25.6538 22.8219 25.6734 22.8365 25.6734 22.8657V24.297C25.6699 24.3611 25.6567 24.4248 25.6341 24.4868C25.1424 25.7282 23.5888 26.0641 22.7431 26.0641H17.0989C16.9175 26.0633 16.74 26.0246 16.5869 25.9522C16.4338 25.8799 16.3114 25.7769 16.2336 25.6552C16.0862 25.4201 15.9221 25.1909 15.742 24.9688V24.9396C15.5416 24.6958 15.3642 24.442 15.211 24.1801C14.267 22.5444 13.8343 21.5221 13.5 18.5428V18.017C13.5983 15.9286 14.6406 14.4389 16.7449 13.3582C18.0822 12.6864 19.8522 12.2483 21.8582 12.073H21.9565L24.9261 12.0438H25.0048C26.8337 12.1606 28.525 12.4527 29.8033 12.8909L29.9213 12.9201H30.0787L30.1967 12.8909C31.8486 12.3359 34.1299 12 36.2932 12H36.3719C39.0662 12 41.5048 12.4819 43.2354 13.3582C45.3594 14.4389 46.4017 15.914 46.5 18.0024V18.5282C46.264 21.23 46.1657 22.0187 44.9857 24.2093C44.0614 25.9327 42.8617 26.0641 42.5274 26.0641L37.2962 26.0495ZM33.6383 20.9087C34.7199 20.9087 35.3296 21.2446 35.6639 21.5075C36.2735 22.0187 36.2735 22.6759 36.2735 22.8657V24.1363C36.2735 24.1655 36.2932 24.1801 36.2932 24.1947C36.3853 24.3362 36.5313 24.4545 36.7131 24.535C36.8949 24.6155 37.1044 24.6546 37.3159 24.6475H42.3898C42.4142 24.651 42.4394 24.6502 42.4633 24.6452C42.4873 24.6401 42.5092 24.6309 42.5274 24.6183C42.6651 24.5306 42.9797 24.2824 43.3141 23.669C44.4154 21.6097 44.4744 20.9379 44.671 18.426C44.6809 18.3678 44.6809 18.3089 44.671 18.2507V18.017C44.5924 16.3813 43.8451 15.3298 42.2324 14.4974C40.6198 13.6649 38.7122 13.3874 36.4309 13.3874H36.3129C35.1265 13.3908 33.9448 13.4987 32.7926 13.7087C32.6943 13.7233 32.6353 13.7671 32.6353 13.8256C32.6227 13.8546 32.626 13.8862 32.6444 13.9135C32.6628 13.9407 32.6948 13.9616 32.7336 13.9716L34.4249 14.6434C34.5785 14.7041 34.7072 14.7945 34.7972 14.905C34.8873 15.0156 34.9353 15.1422 34.9362 15.2714C34.9304 15.3913 34.8841 15.5082 34.8015 15.6113C34.719 15.7144 34.6029 15.8004 34.4638 15.8615C34.3248 15.9226 34.1673 15.9567 34.0059 15.9608C33.8444 15.9649 33.6842 15.9387 33.5399 15.8848L29.6067 14.3367L29.056 14.1469C27.994 13.7963 26.4797 13.5335 24.9261 13.4312L22.0548 13.4604H22.0352C20.3635 13.6065 18.9082 13.957 17.8266 14.4974C16.2139 15.3298 15.4863 16.3959 15.4076 18.0462V18.426C15.7026 21.2008 16.0959 22.0917 16.9613 23.6252C17.0793 23.815 17.2366 24.0341 17.4136 24.2677L17.4529 24.3262L17.6496 24.5744C17.6688 24.5964 17.695 24.6146 17.7259 24.6273C17.7567 24.64 17.7913 24.6469 17.8266 24.6475H22.7431C22.9546 24.6546 23.1641 24.6155 23.3459 24.535C23.5277 24.4545 23.6737 24.3362 23.7658 24.1947C23.7658 24.1801 23.7855 24.1655 23.7855 24.1363V22.8803C23.737 22.3809 23.9561 21.8875 24.3951 21.5075C24.7098 21.23 25.3194 20.9087 26.4011 20.9087H33.6383Z" fill="white"/>
<path d="M35.8429 47.9991C35.1349 47.9991 33.9353 47.1082 33.4436 45.1658C33.3649 44.8591 33.3059 44.421 33.2273 43.9098C33.0896 43.0336 32.9126 41.9382 32.6373 41.0036C32.3935 40.1923 31.9822 39.4139 31.418 38.696C30.9853 38.1411 30.4543 37.849 29.8643 37.849C29.2743 37.849 28.3304 38.2871 27.9764 38.7107C27.3667 39.4555 27.0324 40.2879 26.7571 41.0182C26.2688 42.2365 26.0172 43.5004 26.0097 44.7715C26.0097 45.1804 25.9901 45.604 25.9311 46.0859C25.8328 47.006 25.0461 47.9845 23.5515 47.9845C22.0568 47.9845 21.4865 47.4879 20.5622 46.2758C19.8542 45.3119 18.6546 43.2672 18.7529 40.3317V40.0835C18.8119 38.0242 18.8512 37.3232 18.2612 36.3155C18.2621 36.3076 18.2609 36.2996 18.2575 36.2921C18.2541 36.2846 18.2487 36.2776 18.2416 36.2717C18.1629 36.0672 16.1373 31.496 19.1462 28.9549C20.3655 27.918 22.2142 27.3922 24.6331 27.3922C25.6765 27.3969 26.7169 27.4751 27.7404 27.6259L27.8584 27.6551L28.8024 27.8741H28.8614L28.9794 27.8449C29.005 27.8322 29.0258 27.8148 29.0396 27.7943C29.0534 27.7738 29.0598 27.751 29.058 27.7281V25.3184H30.946V31.6421C30.949 31.6716 30.9612 31.7001 30.9817 31.7255C31.0022 31.7508 31.0304 31.7723 31.064 31.7881H31.1426C31.1685 31.7888 31.1942 31.7851 31.218 31.7776C31.2418 31.77 31.2631 31.7587 31.2803 31.7443L32.539 30.8242L33.8763 31.8173L30.6707 34.1833C30.583 34.2486 30.4787 34.3005 30.364 34.3359C30.2493 34.3712 30.1262 34.3895 30.002 34.3895C29.8778 34.3895 29.7547 34.3712 29.64 34.3359C29.5253 34.3005 29.421 34.2486 29.3333 34.1833L26.1277 31.8173L27.4651 30.8242L28.7237 31.7443C28.7409 31.7587 28.7622 31.77 28.786 31.7776C28.8098 31.7851 28.8355 31.7888 28.8614 31.7881H28.94C28.9761 31.7745 29.0064 31.7535 29.0272 31.7277C29.0481 31.7019 29.0588 31.6722 29.058 31.6421V29.5244C29.06 29.4922 29.0476 29.4604 29.0227 29.434C28.9978 29.4076 28.9618 29.388 28.9204 29.3784L27.3471 28.9987H27.3274C26.4338 28.8656 25.5249 28.7971 24.6134 28.7942C22.7648 28.7942 21.4078 29.1593 20.5622 29.875C18.7529 31.4084 19.4215 34.4169 20.0115 35.7898C20.6015 37.1626 20.6999 38.0388 20.6409 40.1273V40.3756C20.5622 42.9752 21.5848 44.7569 22.2142 45.5894C22.8435 46.4218 23.0008 46.5971 23.5515 46.5971C24.1021 46.5971 24.0431 46.1005 24.0431 45.9691C24.0973 45.5712 24.1236 45.1714 24.1218 44.7715V44.7423C24.1268 43.3624 24.3984 41.9902 24.9281 40.6677C25.2624 39.8206 25.6164 38.8859 26.3637 37.9804C27.1111 37.075 28.3107 36.447 29.8053 36.447H29.9037C30.6313 36.4616 32.008 36.666 33.0503 37.995C33.7183 38.8388 34.2028 39.7555 34.4859 40.7115C34.7587 41.7058 34.9622 42.71 35.0956 43.72V43.7492C35.1742 44.2603 35.2332 44.6547 35.2922 44.9029C35.5086 45.7354 35.8232 46.2173 36.0592 46.4656C36.0731 46.4835 36.0932 46.4984 36.1174 46.5087C36.1416 46.5189 36.169 46.5242 36.1969 46.524H36.2165C36.2379 46.5264 36.2597 46.525 36.2802 46.5199C36.3007 46.5148 36.3193 46.5062 36.3345 46.4948C36.5509 46.3926 36.7672 46.1589 37.1999 45.5894C38.0258 44.4794 38.6355 42.4202 38.7535 40.3171C38.9108 37.9366 39.3238 37.0165 40.0318 35.7898C40.9561 33.3654 40.8381 31.5691 39.6778 30.4737C38.5175 29.3784 36.0395 29.0279 34.2499 29.0279H33.6206C33.3702 29.0279 33.1301 28.954 32.9531 28.8226C32.7761 28.6911 32.6766 28.5128 32.6766 28.3269C32.6766 28.141 32.7761 27.9627 32.9531 27.8312C33.1301 27.6997 33.3702 27.6259 33.6206 27.6259H34.2499C37.3965 27.6259 39.7958 28.3123 41.1528 29.6121C42.5098 30.9119 42.9424 33.3216 41.8214 36.2279C41.8214 36.2571 41.8018 36.2717 41.7821 36.3009C41.1724 37.3962 40.7791 38.1849 40.6415 40.4048C40.5038 42.6246 39.8351 44.9614 38.8322 46.2904C37.8292 47.6194 37.2982 47.9991 35.8429 47.9991Z" fill="white"/>
</svg>
