<svg width="24" height="24" viewBox="0 0 24 24" fill="none" xmlns="http://www.w3.org/2000/svg">
<g clip-path="url(#clip0_1310_6732)">
<path d="M21.0287 15.9364C21.1706 16.074 21.2958 16.2327 21.496 16.1374C21.6963 16.0422 21.7464 15.8094 21.7464 15.566C21.7547 14.7512 21.7547 13.9364 21.7631 13.1322C21.7631 13.0687 21.7381 13.0052 21.713 12.8147C21.4627 13.4073 21.0705 13.3967 20.6782 13.3967C20.6782 13.9046 20.7033 14.3808 20.6699 14.8464C20.6365 15.3121 20.745 15.6507 21.0287 15.9364Z" fill="white"/>
<path d="M21.0291 12.3704C21.0374 11.799 21.0291 11.217 21.0374 10.6455C21.0458 10.0691 20.9274 9.50109 20.6953 9.00533C20.3031 8.1376 19.986 8.14818 19.5771 8.99474C19.0597 10.0847 19.2933 11.2699 19.2266 12.4445H21.004C21.0122 12.4352 21.0187 12.4238 21.023 12.411C21.0274 12.3982 21.0294 12.3843 21.0291 12.3704Z" fill="white"/>
<path d="M4.54755 5.31206C4.97314 4.93111 5.34031 4.52899 5.7826 4.25386C7.10109 3.41788 8.44463 3.5237 9.7965 4.1692C10.1782 4.37956 10.5791 4.52886 10.9898 4.61365C11.9745 4.80412 12.9175 4.53957 13.8438 4.12687C15.5879 3.34381 17.2569 3.5237 18.8174 4.85703C19.0594 5.05809 19.3097 5.25915 19.5684 5.43904C19.9606 5.69301 20.4363 5.59777 20.8201 5.16391C20.5781 4.83587 20.3612 4.48666 20.0941 4.19037C19.4432 3.47079 18.6672 3.00518 17.8577 2.65597C14.211 1.12158 10.5475 1.08984 6.85909 2.35968C5.91611 2.68772 5.02321 3.16391 4.22209 3.88349C3.82154 4.24328 3.46271 4.65597 3.2207 5.20624C3.64629 5.66127 4.12196 5.69301 4.54755 5.31206Z" fill="white"/>
<path d="M12.3918 14.3174C12.3918 15.0581 12.3584 15.7883 12.4084 16.4973C12.4585 17.2063 12.6588 17.5978 12.9676 18.0528C13.2763 18.5079 13.6101 18.5502 13.9356 18.0423C14.086 17.8021 14.2121 17.539 14.3111 17.2592C14.6783 16.3174 14.478 15.3121 14.5281 14.3174H12.3918Z" fill="white"/>
<path d="M2.2701 7.77789C2.48706 8.18001 2.52879 8.27525 2.67065 8.52922C3.01279 7.92604 3.34659 7.35461 3.98915 7.43927C4.63171 7.52393 4.88206 8.16943 5.17413 8.76202C5.32434 8.50805 5.44117 8.27525 5.59138 8.06361C6.12545 7.31228 6.80973 7.20647 7.45229 7.79906C7.6943 8.02128 7.88623 8.32816 8.08651 8.61387C8.20187 8.80424 8.30512 9.00593 8.39527 9.21705C8.82086 8.29641 9.28818 7.42869 10.2145 7.43927C11.1407 7.44985 11.583 8.32816 12.0086 9.21705C12.4426 8.28583 12.9015 7.42869 13.8195 7.43927C14.7374 7.44985 15.1964 8.31758 15.5886 9.14297C15.8807 8.71969 16.1394 8.2435 16.4732 7.88371C17.1574 7.15356 17.9168 7.28054 18.4843 8.15885C18.6095 8.34932 18.7096 8.55038 18.8264 8.75144C19.5357 7.13239 20.5204 6.92075 21.3466 8.51863L21.7388 7.78848C21.9558 7.38636 22.0559 7.33345 22.4231 7.49218C22.5007 7.52268 22.5761 7.56162 22.6484 7.60858C22.6991 7.49 22.733 7.36106 22.7485 7.22763C22.7903 6.59271 22.8236 5.95779 22.8487 5.31229C22.857 4.94192 22.7068 4.68795 22.4732 4.62445C22.2395 4.56096 22.0392 4.67736 21.8807 5.01599C21.1713 6.55038 20.0114 6.91017 18.8264 5.96837C18.4175 5.64033 18.017 5.3017 17.583 5.04774C16.373 4.3599 15.1463 4.48689 13.9363 5.04774C12.3841 5.76731 10.8737 5.76731 9.31321 4.9525C8.0114 4.28583 6.6929 4.40223 5.51627 5.54509C5.30765 5.74615 5.09068 5.95779 4.87371 6.14826C4.70409 6.30584 4.50988 6.41568 4.30409 6.47043C4.09829 6.52517 3.88565 6.52357 3.68039 6.46572C2.97107 6.29641 2.45368 5.78848 2.11154 4.98424C1.99471 4.69853 1.80278 4.5398 1.54409 4.62445C1.43732 4.64947 1.341 4.72167 1.27225 4.82823C1.2035 4.93479 1.16676 5.0688 1.16857 5.20647C1.15327 5.70384 1.15884 6.2019 1.18526 6.69853C1.20195 7.00541 1.28539 7.3017 1.34381 7.61916C1.42137 7.56788 1.50235 7.52539 1.58581 7.49218C1.95299 7.33345 2.05313 7.37578 2.2701 7.77789Z" fill="white"/>
<path d="M18.5092 10.8571C18.5178 10.2673 18.3995 9.68561 18.1671 9.17456C17.6998 8.12695 17.1824 8.0952 16.5899 9.037C15.8556 10.1904 15.964 11.5449 15.9891 12.8994H18.5092C18.5092 12.1904 18.5009 11.5238 18.5092 10.8571Z" fill="white"/>
<path d="M15.8379 13.926L15.2705 14.4127C15.2705 15.0159 15.2371 15.6826 15.2788 16.3387C15.3195 16.9864 15.5311 17.5978 15.8796 18.0741C16.1967 18.5291 16.4805 18.5397 16.7976 18.0847C17.1887 17.5357 17.4082 16.8245 17.4151 16.0847C17.4234 15.418 17.4234 14.7514 17.4234 14.0847C17.4234 14.0106 17.4068 13.9365 17.3984 13.8413H15.9965C15.9392 13.854 15.885 13.8829 15.8379 13.926Z" fill="white"/>
<path d="M19.6091 17.2382C19.7676 17.0477 19.9262 16.7302 19.9345 16.4657C19.9762 15.4604 19.9512 14.4445 19.9512 13.3863C19.559 13.4181 19.1751 13.2276 18.8914 13.6932C18.8246 13.7884 18.6661 13.8096 18.5409 13.8308C18.4108 13.8503 18.2794 13.8538 18.1487 13.8413V15.2911C18.1404 15.9577 18.324 16.5503 18.616 17.09C18.9081 17.6297 19.2502 17.6614 19.6091 17.2382Z" fill="white"/>
<path d="M22.3215 8.49724L22.238 8.47607C22.0795 8.80412 21.8208 9.111 21.7957 9.44962C21.729 10.2856 21.7707 11.1322 21.7707 11.9787H22.4967C22.4132 10.8041 22.6219 9.62951 22.3215 8.49724Z" fill="white"/>
<path d="M15.2545 11.164C15.2448 10.2976 14.9799 9.46722 14.5118 8.83596C14.0445 8.17988 13.5689 8.17988 13.1015 8.84655C12.6387 9.48539 12.3773 10.3178 12.3672 11.1852V13.0793L12.3922 13.3651H15.2545C15.2545 12.6137 15.2629 11.8836 15.2545 11.164Z" fill="white"/>
<path d="M2.25193 10.0423C2.302 9.40739 2.00993 8.95236 1.70951 8.4021C1.3924 9.64019 1.58434 10.8148 1.51758 12H2.24359C2.24359 11.3227 2.20186 10.6772 2.25193 10.0423Z" fill="white"/>
<path d="M22.4048 16.1904C22.2379 16.6348 21.9959 16.9311 21.6371 17.0581C21.2782 17.1851 20.9611 17.0369 20.6524 16.783C20.4688 17.6084 20.0766 18.1375 19.4507 18.3597C18.8248 18.5819 18.3074 18.1692 17.957 17.5131C17.7567 17.9046 17.5981 18.2962 17.3812 18.6242C16.7636 19.5766 15.9458 19.5766 15.3116 18.6454C15.1614 18.4126 15.0195 18.1692 14.886 17.9152C14.5355 18.6242 14.1767 19.3438 13.434 19.3332C12.6913 19.3226 12.3492 18.5925 11.9987 17.8941C11.6399 18.6242 11.2977 19.3332 10.555 19.3332C9.81232 19.3332 9.46183 18.6031 9.11969 17.9046C8.97783 18.1586 8.861 18.402 8.71913 18.6136C8.05988 19.5978 7.24208 19.5872 6.59118 18.5925C6.51607 18.4655 6.44097 18.3385 6.37421 18.2009C6.30745 18.0634 6.16559 17.7142 6.0571 17.439C5.68993 18.1163 5.26434 18.6031 4.58005 18.3703C3.89577 18.1375 3.47018 17.5131 3.32831 16.5819C2.63568 17.1216 2.07657 16.9205 1.6176 16.1375C1.22539 16.7935 1.12525 17.5131 1.16698 18.275C1.17837 18.4242 1.23169 18.5631 1.31719 18.6666C1.90968 19.3544 2.51886 20.0105 3.103 20.6983C4.12108 21.8623 5.27268 22.5607 6.67463 22.5501C7.61909 22.5508 8.55934 22.3907 9.47018 22.074C11.1055 21.4798 12.8387 21.4725 14.4771 22.0528C15.4073 22.3758 16.3667 22.543 17.3311 22.5501C18.975 22.5713 20.3186 21.7988 21.3951 20.2115C21.7032 19.7483 22.0533 19.3327 22.4382 18.9734C22.772 18.6666 22.8888 18.3385 22.8554 17.8412C22.8221 17.3438 22.7136 16.6877 22.4048 16.1904Z" fill="white"/>
<path d="M7.97629 10.6666C7.90991 9.88382 7.60801 9.16366 7.13345 8.65602C6.72455 8.20099 6.3991 8.24332 6.05696 8.77242C5.70454 9.33238 5.50797 10.0244 5.49785 10.7407C5.4895 11.365 5.49785 11.9894 5.49785 12.6031C5.49785 12.6983 5.51454 12.7936 5.51454 12.8994H7.99298C7.99298 12.1269 8.04305 11.3862 7.97629 10.6666Z" fill="white"/>
<path d="M23.9993 18.0212C23.9576 16.6243 23.6071 15.5344 22.9062 14.6984C22.8978 14.254 22.8978 13.8095 22.8978 13.3545C23.5404 13.037 23.6155 12.3704 23.6155 12.0741C23.6155 11.3122 23.5988 10.5291 23.5738 9.77778C23.5654 9.40741 23.5487 9.03704 23.5404 8.65609V8.59259C24.0327 7.55556 24.0077 6.4127 23.991 5.40741C23.991 5.32275 23.9827 5.13228 23.9827 5.13228C23.9654 4.59981 23.7864 4.09645 23.4831 3.72759C23.1797 3.35873 22.7756 3.15299 22.3554 3.15344C21.9666 3.15336 21.5907 3.32979 21.2956 3.65079C21.0905 3.38426 20.8732 3.13337 20.6447 2.89947C19.8436 2.09524 18.8923 1.50265 17.749 1.06878C15.9004 0.362226 13.9802 0.00215765 12.0494 0C10.4565 0.0048025 8.86908 0.23911 7.31784 0.698413C5.88251 1.12169 4.08836 1.84127 2.71144 3.65079C2.42427 3.32573 2.05326 3.14508 1.66833 3.14286C1.51309 3.14578 1.35881 3.17423 1.20936 3.22751C0.550108 3.4709 0.132862 4.05291 0.0744478 4.83598C-0.0090014 5.79894 -0.10914 6.99471 0.308106 8.10582C0.417421 8.41784 0.457804 8.76166 0.424935 9.10053V9.12169C0.391555 9.72487 0.391555 10.3175 0.391555 10.8995C0.391555 11.1534 0.3999 11.4074 0.391555 11.6614C0.38321 12.6032 0.541764 13.0053 1.11756 13.3333C1.10922 13.5378 1.10922 13.7426 1.11756 13.9471C1.15929 14.5714 1.10087 14.8466 0.867216 15.0582C0.809126 15.1072 0.760609 15.1723 0.725352 15.2487H0.708662L0.691972 15.2804C0.207967 16.0952 -0.00065648 17.0582 0.0160334 18.3915C0.0114729 18.6479 0.0543944 18.9021 0.141351 19.1337C0.228307 19.3653 0.356875 19.5677 0.516729 19.7249C1.17598 20.4339 1.81854 21.164 2.2942 21.7143C3.47083 23.0899 4.71423 23.8307 6.08279 23.9683C6.33314 23.9894 6.59183 24 6.85053 24C7.83574 24.0022 8.81625 23.8276 9.7629 23.4815C10.4929 23.2162 11.2483 23.0809 12.0077 23.0794C12.7612 23.0773 13.5111 23.2091 14.2358 23.4709C15.2333 23.8207 16.2634 23.9987 17.2984 24H17.4903C19.4096 23.9683 20.9952 23.037 22.1885 21.2487C22.4759 20.7814 22.8194 20.3743 23.2066 20.0423C23.774 19.5873 24.0244 18.9524 23.9993 18.0212ZM22.9813 19.5979C22.5223 19.9683 22.2052 20.4021 21.8714 20.8995C20.7281 22.6138 19.2511 23.4392 17.482 23.4709C16.4223 23.4926 15.3657 23.3215 14.3443 22.963C12.8086 22.4058 11.1802 22.4095 9.64608 22.9735C8.49841 23.3978 7.29973 23.5555 6.10783 23.4392C4.72257 23.3016 3.57932 22.4974 2.57792 21.3228C1.98544 20.6455 1.3846 19.9683 0.775421 19.3122C0.664159 19.205 0.574952 19.0653 0.515385 18.905C0.455818 18.7447 0.427651 18.5686 0.43328 18.3915C0.41659 17.3757 0.533419 16.4233 1.02577 15.5979C1.0508 15.5661 1.06749 15.5132 1.09253 15.4921C1.53481 15.1005 1.56819 14.5291 1.52646 13.9048C1.50977 13.5979 1.52646 13.2804 1.52646 12.9841C0.89225 12.6878 0.792111 12.5185 0.800456 11.672C0.808801 10.8254 0.783766 10 0.833836 9.16402C0.876256 8.72784 0.824334 8.28524 0.683627 7.8836C0.324796 6.93122 0.3999 5.89418 0.483349 4.88889C0.533419 4.2963 0.867216 3.90476 1.32619 3.73545C1.78516 3.56614 2.18571 3.73545 2.52786 4.15873C2.59461 4.24339 2.65303 4.33862 2.71979 4.43386C3.94649 2.56085 5.63217 1.73545 7.40964 1.21693C10.8311 0.21164 14.2441 0.285714 17.6238 1.57672C18.6169 1.94709 19.5598 2.48677 20.386 3.31217C20.7114 3.64021 20.9952 4.03175 21.3039 4.40212L21.4291 4.2328C21.6379 3.92348 21.934 3.73027 22.2538 3.69466C22.5736 3.65905 22.8917 3.78387 23.1398 4.04233C23.2688 4.17871 23.3734 4.34831 23.4468 4.53986C23.5202 4.73142 23.5606 4.94057 23.5654 5.15344C23.5821 6.26455 23.6489 7.39683 23.1398 8.40212C23.1064 8.46561 23.1231 8.57143 23.1231 8.66667C23.1482 9.79894 23.1982 10.9418 23.1982 12.0741C23.1982 12.6032 22.8895 12.8571 22.4806 12.9524C22.4806 13.5873 22.4806 14.2011 22.4889 14.8254C22.5034 14.9108 22.5384 14.9884 22.5891 15.0476C23.2733 15.8519 23.5487 16.8677 23.5821 18.0423C23.5988 18.7407 23.4402 19.2275 22.9813 19.5979Z" fill="white"/>
<path d="M9.9211 17.7883C10.3467 18.6243 10.7556 18.6137 11.2062 17.7883C11.7987 16.7195 11.6151 15.5131 11.6318 14.3174H9.47881C9.47881 14.8888 9.48716 15.4285 9.47881 15.9682C9.47047 16.5079 9.63737 17.238 9.9211 17.7883Z" fill="white"/>
<path d="M7.27516 18.18C7.55054 18.5081 7.80089 18.5292 8.04289 18.1694C8.26868 17.8415 8.45178 17.47 8.58531 17.0689C8.88573 16.18 8.69379 15.2488 8.74386 14.4657C8.1013 13.6086 7.35026 13.8837 6.61591 13.8414C6.61591 14.762 6.57418 15.6403 6.62425 16.5081C6.67549 17.1465 6.9066 17.7402 7.27516 18.18Z" fill="white"/>
<path d="M4.74836 10.254C4.67481 9.72471 4.52183 9.2182 4.29774 8.76197C4.0307 8.19055 3.72194 8.19055 3.44656 8.77256C3.17117 9.35457 3.05434 9.70377 3.00427 10.2011C2.92917 10.9313 2.97924 11.6826 2.97924 12.4445H4.76505C4.76505 11.6932 4.82347 10.963 4.74836 10.254Z" fill="white"/>
<path d="M11.6078 10.7089C11.5578 9.84122 11.2824 9.35445 10.8902 8.81477C10.498 8.27509 9.98057 8.19043 9.51326 8.81477C9.04594 9.43911 8.84567 9.93646 8.80394 10.6349C8.75387 11.5238 8.7956 12.4232 8.7956 13.3545H11.6162C11.6162 12.4656 11.6579 11.5767 11.6078 10.7089Z" fill="white"/>
<path d="M2.26966 12.9312C2.26966 13.8412 2.26132 14.7195 2.27801 15.5978C2.27801 15.8835 2.59512 16.0952 2.75367 15.9047C2.91222 15.7142 3.23768 15.3121 3.30443 14.9629C3.37119 14.6137 3.32947 13.9364 3.32947 13.4073C3.12085 13.3862 2.92891 13.4073 2.75367 13.3333C2.57843 13.2592 2.45325 13.0899 2.26966 12.9312Z" fill="white"/>
<path d="M4.34796 17.1745C4.67341 17.5767 5.08231 17.7036 5.38273 17.0476L5.60804 16.5502C5.97522 15.7036 5.83336 14.7936 5.85839 13.9365C5.56632 13.8306 5.24921 13.8306 5.08231 13.6296C4.74852 13.238 4.40637 13.4391 4.05589 13.3862C4.05589 14.4232 4.03085 15.4179 4.06423 16.4126C4.08895 16.6997 4.18885 16.968 4.34796 17.1745Z" fill="white"/>
</g>
<defs>
<clipPath id="clip0_1310_6732">
<rect width="24" height="24" fill="white"/>
</clipPath>
</defs>
</svg>
