<svg width="40" height="40" viewBox="0 0 40 40" fill="none" xmlns="http://www.w3.org/2000/svg">
<path d="M9.15221 20.8572C8.49525 20.599 8.39152 20.4514 8.40017 19.7135C8.40881 18.9756 8.38288 18.2561 8.43474 17.5275C8.47868 17.1473 8.4249 16.7615 8.27915 16.4114C7.90745 15.5813 7.98525 14.6774 8.07169 13.8011C8.12355 13.2846 8.46932 12.9433 8.94475 12.7957C9.42018 12.6481 9.8351 12.7957 10.1895 13.1647C10.2587 13.2385 10.3192 13.3215 10.3883 13.4045C11.659 11.7719 13.4051 11.0524 15.2464 10.6005C18.7905 9.72424 22.3259 9.7888 25.8268 10.9141C26.8555 11.2369 27.8323 11.7073 28.6881 12.4268C29.0252 12.7127 29.3191 13.054 29.6389 13.3768L29.7686 13.2292C29.9309 13.0225 30.1481 12.873 30.3915 12.8004C30.6349 12.7277 30.8932 12.7352 31.1325 12.822C31.3718 12.9088 31.581 13.0708 31.7325 13.2866C31.884 13.5025 31.9708 13.7622 31.9815 14.0317C31.9988 15.0002 32.0679 15.9871 31.5406 16.8634C31.5061 16.9187 31.5233 17.0109 31.5233 17.094C31.5493 18.0809 31.6011 19.077 31.6011 20.064C31.6011 20.5252 31.2813 20.7465 30.8577 20.8295C30.8577 21.383 30.8577 21.9179 30.8664 22.4621C30.8783 22.5378 30.9151 22.6065 30.9701 22.6558C31.6789 23.3568 31.9642 24.2423 31.9988 25.2661C32.0161 25.8749 31.8518 26.2992 31.3764 26.622C30.901 26.9448 30.5725 27.323 30.2267 27.7565C29.0425 29.2508 27.5125 29.9702 25.6799 29.9979C24.5822 30.0173 23.4876 29.8682 22.4297 29.5551C20.839 29.0695 19.1521 29.0727 17.563 29.5644C16.3732 29.9291 15.1324 30.0665 13.8979 29.9702C12.4629 29.8503 11.2787 29.1493 10.2414 28.1255C9.62764 27.5352 9.00526 26.9448 8.37423 26.373C8.25843 26.2801 8.16562 26.1584 8.10386 26.0186C8.0421 25.8788 8.01325 25.7249 8.01982 25.5705C8.00253 24.685 8.12355 23.8549 8.63356 23.1355C8.65949 23.1078 8.67678 23.0617 8.70271 23.0432C9.16085 22.702 9.19543 22.2039 9.15221 21.6597C9.13492 21.3922 9.15221 21.1155 9.15221 20.8572ZM11.0194 23.9933C10.3019 24.4637 9.72273 24.2884 9.2473 23.6059C8.84102 24.1777 8.73729 24.8049 8.78051 25.4691C8.79075 25.5995 8.84623 25.7212 8.93611 25.8103C9.54984 26.4099 10.1809 26.9817 10.786 27.5813C11.8406 28.5959 13.0334 29.2046 14.4857 29.1954C15.464 29.196 16.438 29.0564 17.3815 28.7804C19.0754 28.2625 20.8708 28.2561 22.568 28.7619C23.5313 29.0441 24.5253 29.1898 25.5243 29.1954C27.2272 29.2139 28.6189 28.5405 29.734 27.157C30.0532 26.7532 30.4159 26.391 30.8145 26.0778C31.1603 25.8103 31.2813 25.5244 31.2467 25.0909C31.2122 24.6574 31.0998 24.0855 30.78 23.652C30.6071 24.0394 30.3564 24.2976 29.9847 24.4083C29.613 24.519 29.2845 24.3899 28.9647 24.1685C28.7745 24.888 28.3682 25.3491 27.7199 25.5428C27.0716 25.7365 26.5357 25.3768 26.1726 24.8049C25.9651 25.1462 25.8009 25.4875 25.5762 25.7734C24.9365 26.6036 24.0894 26.6036 23.4324 25.7919C23.2738 25.5892 23.1266 25.3767 22.9915 25.1554C22.6285 25.7734 22.2568 26.4006 21.4875 26.3914C20.7181 26.3822 20.3637 25.7458 20.0007 25.137C19.629 25.7734 19.2745 26.3914 18.5052 26.3914C17.7359 26.3914 17.3728 25.755 17.0184 25.1462C16.8715 25.3676 16.7504 25.5797 16.6035 25.7642C15.9206 26.622 15.0735 26.6128 14.3992 25.7458C14.3214 25.6351 14.2436 25.5244 14.1745 25.4045C14.1053 25.2846 13.9584 24.9802 13.846 24.7404C13.4657 25.3307 13.0248 25.755 12.316 25.5521C11.6072 25.3491 11.1663 24.8049 11.0194 23.9933ZM31.0306 16.1716C31.0781 16.066 31.1129 15.9544 31.1344 15.8395C31.1776 15.2861 31.2122 14.7327 31.2381 14.17C31.2467 13.8472 31.0911 13.6259 30.8491 13.5705C30.6071 13.5152 30.3996 13.6166 30.2354 13.9118C29.5006 15.2492 28.2991 15.5628 27.0716 14.7419C26.648 14.456 26.2331 14.1608 25.7836 13.9395C24.5302 13.3399 23.2595 13.4506 22.0061 13.9395C20.3983 14.5667 18.8337 14.5667 17.2172 13.8564C15.8687 13.2754 14.503 13.3768 13.2841 14.373C13.068 14.5482 12.8433 14.7327 12.6185 14.8987C12.4421 15.0345 12.2409 15.1293 12.028 15.1769C11.815 15.2246 11.5951 15.2241 11.3824 15.1754C10.6477 15.0279 10.1117 14.5851 9.7573 13.8841C9.63628 13.6351 9.43747 13.4967 9.1695 13.5705C9.05811 13.5905 8.95731 13.653 8.88578 13.7463C8.81425 13.8395 8.77685 13.9573 8.78051 14.0778C8.76467 14.5113 8.77044 14.9455 8.7978 15.3783C8.81509 15.6458 8.90153 15.9041 8.96204 16.1808C9.04312 16.1378 9.12688 16.1008 9.21272 16.0701C9.59306 15.9318 9.69679 15.9687 9.92154 16.3192C10.1463 16.6697 10.1895 16.7527 10.3365 16.974C10.6909 16.4483 11.0366 15.9502 11.7022 16.024C12.3678 16.0978 12.6272 16.6604 12.9297 17.177C13.0853 16.9556 13.2063 16.7527 13.3619 16.5682C13.9152 15.9133 14.624 15.8211 15.2896 16.3376C15.5403 16.5313 15.7391 16.7988 15.9465 17.0478C16.062 17.2167 16.1688 17.3923 16.2664 17.5736C16.7072 16.7711 17.1913 16.0148 18.1508 16.024C19.1103 16.0332 19.5684 16.7988 20.0093 17.5736C20.4588 16.7619 20.9342 16.0148 21.8851 16.024C22.8359 16.0332 23.3114 16.7896 23.7177 17.509C24.0202 17.1401 24.2882 16.725 24.6339 16.4114C25.3428 15.775 26.1294 15.8857 26.7172 16.6512C26.8468 16.8172 26.9506 16.9925 27.0716 17.1677C27.8064 15.7565 28.8264 15.572 29.6821 16.9648L30.0884 16.3284C30.3132 15.9779 30.4169 15.9318 30.7972 16.0701C30.8771 16.0984 30.955 16.1323 31.0306 16.1716ZM10.907 14.0778C11.3478 14.4744 11.8406 14.5021 12.2814 14.17C12.7223 13.838 13.1026 13.4875 13.5607 13.2477C14.9265 12.519 16.3182 12.6112 17.7186 13.1739C18.1154 13.353 18.5301 13.483 18.9547 13.5613C19.9747 13.7273 20.9515 13.4967 21.911 13.137C23.7177 12.4544 25.4465 12.6112 27.063 13.7734C27.3136 13.9487 27.573 14.1239 27.8409 14.2807C28.2472 14.5021 28.7399 14.4191 29.1376 14.0409C28.8869 13.755 28.6621 13.4506 28.3855 13.1923C27.7113 12.5651 26.9074 12.1593 26.0689 11.8549C22.2914 10.5175 18.4966 10.4898 14.6758 11.5966C13.699 11.8826 12.7741 12.2976 11.9443 12.9249C11.5294 13.2385 11.1577 13.5982 10.907 14.0778ZM23.3719 21.1893C23.3719 20.5344 23.3805 19.898 23.3719 19.2707C23.3618 18.5156 23.0874 17.7918 22.6026 17.2415C22.1185 16.6697 21.6258 16.6697 21.1417 17.2508C20.6609 17.8067 20.3899 18.5328 20.381 19.2892V20.9402C20.3854 21.0237 20.394 21.1068 20.4069 21.1893H23.3719ZM16.6813 21.18H19.603C19.603 20.4053 19.6462 19.6305 19.5944 18.8741C19.5425 18.1178 19.2573 17.6935 18.851 17.2231C18.4447 16.7527 17.9088 16.6789 17.4247 17.2231C16.9406 17.7673 16.7332 18.2008 16.6899 18.8096C16.6381 19.5843 16.6813 20.3684 16.6813 21.18ZM26.7431 20.7834C26.7431 20.1654 26.7345 19.5843 26.7431 19.0033C26.749 18.4895 26.6267 17.9833 26.3887 17.5367C25.9046 16.6235 25.3687 16.5959 24.755 17.4168C23.9943 18.4222 24.1066 19.6028 24.1326 20.7834H26.7431ZM15.8515 20.7834C15.8515 20.1101 15.9033 19.4644 15.8342 18.8372C15.7637 18.1555 15.4513 17.5284 14.9611 17.0847C14.5375 16.6881 14.2004 16.725 13.846 17.1862C13.4768 17.6718 13.2727 18.2765 13.2668 18.9018C13.2582 19.446 13.2668 19.9902 13.2668 20.5252C13.2668 20.6082 13.2841 20.6912 13.2841 20.7834H15.8515ZM14.4252 21.6043C14.4252 22.4068 14.3819 23.1724 14.4338 23.9287C14.4861 24.4855 14.7256 25.0032 15.1081 25.386C15.3933 25.672 15.6526 25.6904 15.9033 25.3768C16.1324 25.0872 16.3216 24.7642 16.4652 24.4176C16.7764 23.6428 16.5776 22.8311 16.6294 22.1485C15.9638 21.4014 15.1858 21.6412 14.4252 21.6043ZM23.3892 22.1024C23.3892 22.6282 23.3546 23.2093 23.3978 23.7811C23.4359 24.3468 23.6557 24.8811 24.0202 25.2938C24.3487 25.6904 24.6426 25.6996 24.9711 25.303C25.3762 24.8245 25.6036 24.2046 25.6107 23.5598C25.6194 22.9787 25.6194 22.3976 25.6194 21.8165C25.6194 21.7519 25.6021 21.6873 25.5934 21.6043H24.1412C24.0809 21.6113 24.0238 21.637 23.977 21.6781L23.3892 22.1024ZM20.4069 22.0194C20.4069 22.6651 20.3724 23.3015 20.4242 23.9195C20.4761 24.5375 20.6835 24.8787 21.0034 25.2754C21.3232 25.672 21.669 25.7089 22.0061 25.2661C22.1619 25.0568 22.2926 24.8275 22.3951 24.5836C22.7754 23.7627 22.568 22.8864 22.6198 22.0194H20.4069ZM17.3901 22.0194C17.3901 22.5175 17.3988 22.9879 17.3901 23.4583C17.3815 23.9287 17.5544 24.5651 17.8483 25.0448C18.2891 25.7734 18.7127 25.7642 19.1795 25.0448C19.7932 24.1132 19.603 23.0617 19.6203 22.0194H17.3901ZM29.3277 20.3868C29.3422 20.3685 29.3513 20.346 29.3537 20.3222C29.3623 19.8242 29.3537 19.3169 29.3623 18.8188C29.3724 18.3162 29.2496 17.8207 29.0079 17.3891C28.6016 16.6328 28.2731 16.642 27.8496 17.3799C27.3136 18.3299 27.5557 19.363 27.4865 20.3868H29.3277ZM10.6563 20.3868H12.5062C12.5062 19.7319 12.5667 19.0955 12.4889 18.4775C12.4112 18.0165 12.2529 17.5753 12.0221 17.177C11.7455 16.6789 11.4256 16.6789 11.1404 17.1862C10.8551 17.6935 10.7341 17.9979 10.6822 18.4314C10.6044 19.0678 10.6563 19.7227 10.6563 20.3868ZM28.2386 21.2077C27.8323 21.2354 27.4347 21.0694 27.1408 21.4752C27.0716 21.5582 26.9074 21.5767 26.7777 21.5951C26.6429 21.6125 26.5068 21.6156 26.3714 21.6043V22.868C26.3628 23.4491 26.5529 23.9656 26.8555 24.436C27.158 24.9064 27.5125 24.9341 27.8842 24.5651C28.0484 24.3991 28.2126 24.1224 28.2213 23.8918C28.2645 23.0156 28.2386 22.1301 28.2386 21.2077ZM13.6385 21.6873C13.336 21.5951 13.0075 21.5951 12.8346 21.4199C12.4889 21.0786 12.1345 21.2538 11.7714 21.2077C11.7714 22.1116 11.7455 22.9787 11.78 23.8457C11.8015 24.0971 11.9056 24.3324 12.0739 24.5098C12.4111 24.8603 12.8346 24.971 13.1458 24.3991L13.3792 23.9656C13.7596 23.2277 13.6126 22.4345 13.6385 21.6873ZM30.0625 20.7096C29.8032 21.2262 29.3969 21.2169 28.9906 21.2169C28.9906 21.6597 29.0165 22.0747 28.982 22.4806C28.9474 22.8864 29.0598 23.1816 29.3537 23.4306C29.5006 23.5505 29.6303 23.6889 29.8377 23.6059C30.0452 23.5229 30.0971 23.3199 30.0971 23.1078C30.1057 22.3976 30.1057 21.6873 30.1143 20.9863C30.1143 20.931 30.0884 20.8757 30.0625 20.7096ZM9.92154 20.8111C9.92154 21.6043 9.9129 22.3699 9.93019 23.1355C9.93019 23.3845 10.2587 23.569 10.4229 23.4029C10.5871 23.2369 10.9243 22.8864 10.9934 22.582C11.0626 22.2777 11.0194 21.6873 11.0194 21.2262C10.8032 21.2077 10.6044 21.2262 10.4229 21.1616C10.2414 21.097 10.1117 20.9495 9.92154 20.8111ZM9.89561 19.9994C9.89561 19.4091 9.85239 18.8465 9.90425 18.293C9.95612 17.7396 9.65357 17.343 9.34238 16.8634C9.0139 17.9425 9.21272 18.9664 9.14357 19.9994H9.89561ZM30.6935 16.9464L30.6071 16.9279C30.4428 17.2139 30.1749 17.4813 30.1489 17.7765C30.0798 18.5052 30.123 19.2431 30.123 19.981H30.875C30.7886 18.9571 31.0047 17.9333 30.6935 16.9464Z" fill="white"/>
</svg>
