<svg width="24" height="24" viewBox="0 0 24 24" fill="none" xmlns="http://www.w3.org/2000/svg">
<path d="M14.4167 2.767C14.4958 2.60865 14.5965 2.47323 14.713 2.36836C14.5943 2.26241 14.4932 2.12249 14.4167 1.95801C14.341 2.11946 14.2432 2.25886 14.1289 2.36836C14.2411 2.4767 14.3385 2.61166 14.4167 2.767Z" fill="white"/>
<path d="M13.1731 3.43527L13.4864 3.68149L13.6557 4.10357C13.7293 4.29482 13.8391 4.45475 13.9733 4.56626C14.1075 4.67778 14.2611 4.73669 14.4176 4.73669H14.4345C14.5882 4.73216 14.7384 4.67253 14.8704 4.56362C15.0025 4.45471 15.1119 4.30024 15.1879 4.11529L15.3657 3.66976L15.6874 3.42355H15.7043C15.836 3.30329 15.9461 3.14286 16.026 2.95457C16.0808 2.81608 16.115 2.66384 16.1266 2.50679C16.1382 2.34974 16.1271 2.19105 16.0938 2.04006C16.0292 1.73853 15.8839 1.48263 15.6874 1.32487L15.3657 1.09038L15.1879 0.644846C15.1088 0.437955 14.9883 0.267003 14.8409 0.152418H14.8239C14.6988 0.0589265 14.5597 0.00676303 14.4176 0C14.2615 0.00391565 14.1088 0.0630748 13.974 0.171845C13.8391 0.280616 13.7266 0.435378 13.6472 0.621397L13.4779 1.0552L13.1731 1.28969C13.0283 1.39845 12.9081 1.56082 12.826 1.75867H12.8176C12.7074 2.04286 12.6831 2.37591 12.7498 2.6849C12.7786 2.84403 12.8311 2.99303 12.904 3.12228C12.9769 3.25153 13.0686 3.35816 13.1731 3.43527ZM13.1901 2.06351C13.2346 1.95921 13.299 1.874 13.3763 1.81729L13.698 1.57108C13.7588 1.51609 13.8107 1.44423 13.8504 1.36004L14.0197 0.914509C14.0609 0.815549 14.1201 0.733212 14.1914 0.675636C14.2627 0.618061 14.3435 0.587241 14.426 0.586224C14.4995 0.587044 14.5719 0.611105 14.6377 0.656571C14.7156 0.717454 14.78 0.806643 14.8239 0.914509L15.0017 1.36004C15.0281 1.45359 15.0797 1.52927 15.1456 1.57108L15.4758 1.81729C15.5772 1.90213 15.6525 2.03567 15.6874 2.19248C15.7193 2.34912 15.7072 2.51665 15.6536 2.66146C15.6104 2.76625 15.5494 2.85481 15.4758 2.91939L15.1456 3.16561C15.0857 3.2132 15.0361 3.28199 15.0017 3.36492L14.8239 3.82218C14.7834 3.91946 14.7256 4.00072 14.6559 4.05819C14.5862 4.11567 14.5071 4.14744 14.426 4.15046C14.3444 4.15103 14.2643 4.12076 14.1941 4.06292C14.124 4.00507 14.0666 3.92184 14.0282 3.82218L13.8504 3.36492C13.8105 3.28407 13.7586 3.21608 13.698 3.16561L13.3763 2.91939C13.3231 2.88094 13.2761 2.82783 13.2383 2.76331C13.2004 2.69879 13.1725 2.62423 13.1562 2.54421C13.1363 2.46548 13.129 2.3817 13.1349 2.29869C13.1407 2.21568 13.1596 2.13543 13.1901 2.06351Z" fill="white"/>
<path d="M18.5747 19.955L18.1091 19.6033H18.0921C18.0591 19.5805 18.0324 19.5435 18.016 19.4978H18.0075L17.7451 18.8295C17.6649 18.6322 17.5479 18.4684 17.4065 18.355C17.2651 18.2416 17.1043 18.1827 16.9408 18.1846H16.9324C16.7691 18.1835 16.6088 18.244 16.4686 18.3597C16.3284 18.4754 16.2136 18.6419 16.1366 18.8412L15.8826 19.486C15.8579 19.5441 15.8229 19.5925 15.781 19.6267L15.2985 19.9902C15.157 20.1102 15.038 20.2749 14.9514 20.4709V20.4943C14.8933 20.6405 14.8565 20.8011 14.8434 20.967C14.8302 21.1329 14.8408 21.3007 14.8747 21.4609C14.9085 21.6211 14.9648 21.7704 15.0405 21.9003C15.1161 22.0302 15.2096 22.1381 15.3154 22.2178L15.781 22.5696C15.8274 22.6049 15.8656 22.6578 15.8911 22.722L16.1366 23.3434C16.2127 23.548 16.328 23.7197 16.4698 23.8396C16.6117 23.9596 16.7746 24.0231 16.9408 24.0234H16.9493C17.1153 24.0214 17.278 23.9585 17.4207 23.8411C17.5635 23.7237 17.6812 23.556 17.762 23.3551L18.016 22.6985C18.039 22.6416 18.0746 22.5964 18.1175 22.5696L18.5916 22.2061C18.7378 22.0854 18.86 21.9162 18.9472 21.7137C19.0627 21.4161 19.0893 21.0675 19.0213 20.743C18.9532 20.4185 18.7959 20.144 18.5831 19.9785L18.5747 19.955ZM18.5662 21.4088C18.5195 21.5208 18.4523 21.6138 18.3715 21.6785L17.9059 22.0302C17.7885 22.111 17.6933 22.2428 17.635 22.4054L17.381 23.0503C17.3368 23.1587 17.273 23.2492 17.1958 23.313C17.1186 23.3767 17.0307 23.4114 16.9408 23.4137C16.8516 23.4143 16.7641 23.3807 16.6879 23.3165C16.6116 23.2524 16.5498 23.1602 16.5091 23.0503L16.2551 22.4054C16.1864 22.2496 16.0903 22.1205 15.9757 22.0302L15.5186 21.6785H15.5101C15.4533 21.6356 15.4031 21.5776 15.3625 21.5077C15.322 21.4378 15.2918 21.3576 15.2737 21.2715C15.2556 21.1854 15.2499 21.0952 15.2571 21.0061C15.2643 20.917 15.2841 20.8307 15.3154 20.7523C15.3652 20.6365 15.435 20.5398 15.5186 20.4709L15.9757 20.1192C16.094 20.0358 16.1913 19.9051 16.2551 19.744L16.5091 19.0991C16.5501 18.9905 16.6124 18.9 16.6887 18.8378C16.765 18.7757 16.8523 18.7443 16.9408 18.7474C17.03 18.7473 17.1177 18.7798 17.195 18.8415C17.2723 18.9033 17.3364 18.9921 17.381 19.0991L17.635 19.744C17.6933 19.9066 17.7885 20.0384 17.9059 20.1192L18.3715 20.4709C18.4287 20.5141 18.4791 20.5726 18.5198 20.6431C18.5605 20.7135 18.5907 20.7945 18.6085 20.8812C18.6413 21.0584 18.6263 21.246 18.5662 21.4088Z" fill="white"/>
<path d="M17.0002 20.213L16.9409 20.0723L16.8817 20.213C16.7548 20.5447 16.5606 20.8178 16.3229 20.9985L16.2129 21.0806L16.3229 21.1626C16.5603 21.3385 16.7547 21.6078 16.8817 21.9365L16.9409 22.0772L17.0002 21.9365C17.1272 21.6078 17.3216 21.3385 17.5589 21.1626L17.669 21.0806L17.5589 20.9985C17.3213 20.8178 17.1271 20.5447 17.0002 20.213Z" fill="white"/>
<path d="M4.0978 12.6508C4.03998 12.2008 3.88802 11.7843 3.66076 11.4529C3.43351 11.1215 3.14098 10.8898 2.81949 10.7866L2.62478 10.7632C2.37081 10.7632 2.19304 10.8922 2.08298 11.1501C1.76976 11.8887 1.90521 14.7026 2.04912 15.1833C2.06605 15.2185 2.26923 15.4412 2.81949 15.6171C3.11882 15.7193 3.42553 15.7744 3.73378 15.7813C3.85875 15.7826 3.98351 15.7669 4.10626 15.7344C4.01457 14.7107 4.01173 13.6755 4.0978 12.6508Z" fill="white"/>
<path d="M7.50881 13.7175H7.42415C7.11492 13.7169 6.81616 13.8726 6.58393 14.1554C6.35169 14.4382 6.20194 14.8286 6.16278 15.2534C5.92574 17.1528 6.04426 19.5798 6.06965 20.0487C6.06541 20.2338 6.1092 20.4148 6.19308 20.5589C6.27695 20.703 6.39535 20.8007 6.5268 20.8343C7.19473 20.9981 7.87175 21.0805 8.55008 21.0805C8.84637 21.0805 9.15114 21.0571 9.4559 21.0336H9.47283C9.61406 21.0294 9.7494 20.9544 9.85378 20.8226C9.9977 20.3301 10.0316 18.0439 9.69293 16.0624C9.43897 14.5382 8.3723 13.7175 7.50881 13.7175Z" fill="white"/>
<path d="M3.75137 19.0991C3.67454 19.2601 3.57346 19.3961 3.45508 19.4978C3.57191 19.607 3.6725 19.7463 3.75137 19.9081C3.82727 19.7501 3.92512 19.6146 4.03921 19.5095C3.92487 19.4 3.82709 19.2606 3.75137 19.0991Z" fill="white"/>
<path d="M18.2771 10.7749C18.1546 10.7763 18.0326 10.796 17.9131 10.8335C17.2189 11.0328 16.4909 11.7832 16.4232 13.0026C16.4754 14.1232 16.4726 15.2474 16.4147 16.3675C16.416 16.4031 16.4132 16.4387 16.4062 16.473C16.6269 16.555 16.8552 16.5906 17.0835 16.5785C17.3786 16.5783 17.6732 16.543 17.9639 16.473C18.7766 16.2971 19.1237 15.9806 19.1491 15.8985C19.3184 15.3474 19.31 12.1467 18.9375 11.1618C18.8443 10.9156 18.5988 10.7749 18.2771 10.7749Z" fill="white"/>
<path d="M22.9168 4.65472C22.3073 3.75193 21.2914 3.29468 19.8946 3.29468C17.6173 3.29468 14.8152 4.5023 13.1052 5.52233C12.7579 5.73146 12.3833 5.83938 12.0046 5.83938C11.626 5.83938 11.2514 5.73146 10.9041 5.52233C9.19404 4.5023 6.39193 3.29468 4.11468 3.29468C2.72632 3.29468 1.71045 3.75193 1.08399 4.65472C-0.228179 6.57753 -0.363629 9.88383 0.745366 12.7446C0.728435 13.9053 0.838487 15.2654 0.999334 15.7812C1.3041 16.8247 2.50621 17.2116 3.28505 17.3172C3.15696 17.426 3.05184 17.5797 2.98029 17.7627L2.81097 18.1848L2.48082 18.4427C2.34238 18.5603 2.22856 18.726 2.15066 18.9234C2.09428 19.0631 2.05851 19.2169 2.04543 19.3759C2.03235 19.5349 2.04222 19.696 2.07447 19.8496C2.14228 20.1558 2.29432 20.4127 2.49775 20.5648L2.81097 20.7993L2.98029 21.2331C3.05393 21.4244 3.16373 21.5843 3.29793 21.6958C3.43213 21.8073 3.58569 21.8662 3.74219 21.8662H3.75066C3.90822 21.8658 4.06282 21.8069 4.19833 21.6955C4.33383 21.5842 4.44527 21.4245 4.52103 21.2331L4.69034 20.7993L4.96124 20.5883C5.03248 21.0424 5.19907 21.4572 5.44008 21.7806C5.68108 22.1039 5.98574 22.3214 6.31574 22.4056C7.0339 22.5831 7.76189 22.6733 8.4914 22.6752H8.56759C8.94854 22.6752 9.26177 22.6635 9.5496 22.6283C9.83743 22.5932 10.557 22.5111 10.8872 21.5262C11.0734 20.9752 11.1411 20.0607 11.0903 18.7241H11.3358C11.564 18.6989 11.7874 18.6196 11.9962 18.4896H12.0131C12.2108 18.6186 12.4224 18.7017 12.6395 18.7358H12.6819C12.9443 18.7593 13.2321 18.771 13.5369 18.771H13.6046C14.2545 18.7686 14.903 18.6902 15.5433 18.5365C15.8072 18.468 16.0529 18.3019 16.2544 18.0558C16.4075 18.1042 16.5632 18.1356 16.72 18.1496H17.0671C17.7443 18.1496 18.9972 17.962 19.7083 17.282C19.8057 17.313 19.9049 17.3326 20.0046 17.3406H20.2586C20.8935 17.3406 22.6205 17.0592 23.0184 15.7812V15.7578C23.1623 15.2536 23.2724 13.8702 23.2639 12.7329C24.3559 9.91901 24.2205 6.54236 22.9168 4.65472ZM4.97817 19.8027C4.93706 19.9066 4.87538 19.992 4.80039 20.049L4.4787 20.2952C4.41229 20.3399 4.35864 20.4142 4.32632 20.5062L4.14854 20.9517C4.10803 21.049 4.05018 21.1303 3.98051 21.1877C3.91085 21.2452 3.83171 21.277 3.75066 21.28C3.66905 21.2806 3.58888 21.2503 3.51877 21.1925C3.44866 21.1346 3.39127 21.0514 3.35277 20.9517L3.175 20.5062C3.14267 20.4142 3.08902 20.3399 3.02261 20.2952L2.70092 20.049C2.6477 20.0105 2.60072 19.9574 2.56287 19.8929C2.52502 19.8283 2.4971 19.7538 2.48082 19.6738C2.46449 19.5957 2.45983 19.5139 2.4671 19.4332C2.47438 19.3526 2.49345 19.2749 2.52314 19.2048C2.56409 19.0977 2.62562 19.0085 2.70092 18.9469L3.02261 18.7006C3.08489 18.6534 3.13736 18.5847 3.175 18.5013L3.35277 18.0441C3.39166 17.9457 3.44938 17.8642 3.51958 17.8083C3.58977 17.7525 3.66973 17.7245 3.75066 17.7275C3.82698 17.7269 3.90234 17.751 3.97076 17.7979C4.04575 17.8548 4.10743 17.9402 4.14854 18.0441L4.32632 18.5013C4.3615 18.5875 4.4146 18.6569 4.4787 18.7006L4.80039 18.9469C4.90544 19.0283 4.98302 19.1639 5.01631 19.3242C5.0496 19.4844 5.03589 19.6564 4.97817 19.8027ZM22.8406 12.5922C22.866 13.8233 22.739 15.1598 22.629 15.5468C22.375 16.3675 21.0628 16.7544 20.2586 16.7544H20.03C19.8891 16.743 19.7498 16.7076 19.6152 16.6489C19.0903 17.3172 17.8205 17.5634 17.0671 17.5634H16.7454C16.5365 17.5525 16.3305 17.4931 16.1358 17.3875C15.9678 17.6762 15.7305 17.8718 15.4671 17.9385C14.8436 18.0883 14.212 18.1629 13.5792 18.1613H13.5369C13.2491 18.1613 12.9697 18.1496 12.7073 18.1261C12.5803 18.1027 12.2247 18.0441 11.9792 17.7392C11.9416 17.8226 11.8891 17.8913 11.8268 17.9385C11.6605 18.0405 11.4832 18.1039 11.302 18.1261L10.9718 18.1496H10.9464C10.8779 18.1502 10.8108 18.1226 10.7535 18.0705C10.6963 18.0183 10.6515 17.9439 10.6247 17.8565C10.7263 19.3689 10.7179 20.6586 10.5062 21.28C10.2946 21.9014 9.8205 22.0069 9.51574 22.0421C9.21097 22.0773 8.89775 22.089 8.56759 22.089H8.51679C7.80437 22.091 7.09325 22.0046 6.39193 21.8311C6.10185 21.7576 5.83928 21.5466 5.64929 21.2342C5.45929 20.9219 5.35371 20.5277 5.35066 20.1193C5.29986 19.1813 5.2914 18.2317 5.30833 17.282C4.97544 17.1695 4.66558 16.9529 4.40251 16.6489C4.26644 16.717 4.12376 16.7565 3.97923 16.7661H3.75912C2.94642 16.7661 1.63425 16.3792 1.38875 15.5585C1.27023 15.1716 1.14325 13.835 1.17711 12.6039C0.110445 9.9659 0.195101 6.81202 1.39722 5.05335C1.93055 4.27953 2.84484 3.8809 4.11468 3.8809C6.3242 3.8809 9.05859 5.05335 10.7348 6.06165C11.1361 6.29968 11.5681 6.42242 12.0046 6.42242C12.4412 6.42242 12.8732 6.29968 13.2745 6.06165C14.9507 5.05335 17.6935 3.8809 19.8946 3.8809C21.1729 3.8809 22.0872 4.27953 22.612 5.05335C23.8226 6.81202 23.9073 9.9659 22.8406 12.5922Z" fill="white"/>
<path d="M14.553 10.7864H14.4684C14.0379 10.7925 13.6208 10.9943 13.2812 11.3608C12.9417 11.7273 12.6985 12.2381 12.589 12.8147C12.3012 14.5382 12.3266 16.5314 12.4451 16.9535C12.5294 17.0551 12.6381 17.1094 12.7498 17.1059H12.7668C13.0292 17.1411 13.3001 17.1528 13.5625 17.1528C14.156 17.1548 14.7484 17.0802 15.3319 16.93C15.4395 16.907 15.5372 16.8296 15.606 16.7126C15.6748 16.5957 15.7098 16.4476 15.7043 16.2969C15.7382 15.7224 15.8229 13.6941 15.6197 12.0878C15.5885 11.7273 15.4625 11.3952 15.2657 11.1552C15.0689 10.9151 14.8152 10.7838 14.553 10.7864Z" fill="white"/>
<path d="M22.0876 5.73333C21.7066 5.17055 20.9447 4.87744 19.895 4.87744C18.1426 4.87744 15.713 5.68643 13.5627 6.97612C13.0707 7.26956 12.5407 7.42115 12.0051 7.42165C11.4693 7.42214 10.9392 7.27051 10.4474 6.97612C8.29712 5.68643 5.87596 4.87744 4.11511 4.87744C3.06538 4.87744 2.30347 5.17055 1.92252 5.73333C1.12675 6.89405 0.948975 8.92239 1.39765 10.8335C1.41154 10.7656 1.43451 10.702 1.46538 10.6459C1.58178 10.3686 1.75037 10.1404 1.95315 9.9855C2.15593 9.83062 2.38528 9.75495 2.6167 9.76655C2.73026 9.77055 2.84344 9.78622 2.95532 9.81345C3.50516 9.98105 3.9959 10.4079 4.34368 11.0211C4.36876 10.9068 4.40283 10.7967 4.44527 10.6928C4.66538 10.1183 5.12252 9.79 5.72358 9.77827H5.73204C6.1393 9.78863 6.53978 9.92447 6.9044 10.1759C7.26902 10.4274 7.58861 10.7882 7.83998 11.2321C7.89089 11.0775 7.95032 10.9285 8.01776 10.7866C8.05193 10.7257 8.09552 10.6761 8.14533 10.6416C8.19514 10.6072 8.24991 10.5886 8.30559 10.5873C8.37112 10.5887 8.43515 10.6146 8.49093 10.6622C8.54671 10.7099 8.59218 10.7775 8.62252 10.8579C8.65286 10.9384 8.66696 11.0287 8.66333 11.1193C8.6597 11.2099 8.63847 11.2975 8.60189 11.3728C8.49036 11.5838 8.41771 11.8293 8.39025 12.088V12.1349C8.37308 12.2488 8.32862 12.3513 8.26407 12.4258C8.19952 12.5003 8.11869 12.5424 8.03469 12.5452H7.97543C7.89171 12.5245 7.8164 12.4619 7.76379 12.3694H7.72146C7.65588 12.3717 7.59112 12.3488 7.53434 12.3033C7.47756 12.2577 7.43099 12.1914 7.39977 12.1114C7.22511 11.7127 6.98079 11.3813 6.68934 11.1477C6.39789 10.9142 6.06868 10.7859 5.73204 10.7749H5.72358C5.40189 10.7749 5.17331 10.9155 5.08019 11.1618C4.69924 12.1466 4.69077 15.3474 4.86009 15.8984C4.87702 15.9453 5.02093 16.0978 5.35109 16.2385C5.37649 15.8164 5.41035 15.4412 5.45268 15.0895C5.5215 14.4347 5.75747 13.8357 6.11779 13.4012C6.47812 12.9667 6.93894 12.7254 7.4167 12.7211H7.67913C7.72478 12.6369 7.79097 12.5786 7.86538 12.557H7.95003C8.02169 12.5575 8.09155 12.588 8.15047 12.6445C8.20939 12.701 8.2546 12.7808 8.28019 12.8735C8.79257 13.0598 9.25937 13.4334 9.63171 13.9553C10.0041 14.4771 10.2682 15.128 10.3966 15.8398C10.4897 16.4001 10.5575 16.9679 10.5998 17.5399C10.6181 17.4331 10.6611 17.3376 10.7222 17.2678C10.7833 17.1979 10.8592 17.1576 10.9384 17.153L11.2432 17.1178C11.3375 17.116 11.4302 17.0839 11.5141 17.024H11.531C11.575 16.9907 11.6248 16.9746 11.6749 16.9771H11.7172C11.5987 16.1329 11.6241 14.5384 11.8188 13.0846H11.7511C11.6727 13.0838 11.5966 13.0481 11.534 12.9826C11.4715 12.9171 11.4259 12.8254 11.404 12.7211C11.352 12.4543 11.2691 12.2008 11.1585 11.9707H11.15C11.1229 11.9171 11.1037 11.8565 11.0937 11.7924C11.0836 11.7284 11.0829 11.6622 11.0916 11.5978C11.1003 11.5333 11.1182 11.472 11.1442 11.4172C11.1702 11.3625 11.2039 11.3155 11.2432 11.279C11.302 11.2189 11.3732 11.186 11.4463 11.1852C11.5052 11.1855 11.563 11.206 11.6148 11.2449C11.6665 11.2837 11.7104 11.3398 11.7426 11.408C11.8466 11.6217 11.9345 11.8495 12.0051 12.088C12.4368 10.5755 13.5289 9.79 14.4855 9.79H14.5532C14.8952 9.79092 15.2299 9.92715 15.5178 10.1826C15.8058 10.4381 16.035 10.8022 16.1786 11.2321C16.5686 10.5239 17.1313 10.0364 17.7617 9.86034C17.9314 9.80923 18.1044 9.78174 18.2781 9.77827C18.8791 9.77827 19.3532 10.1183 19.5733 10.6928L19.6749 11.0211C20.0176 10.4057 20.5064 9.97799 21.0548 9.81345C21.1666 9.78564 21.2798 9.76996 21.3934 9.76655C21.6255 9.75902 21.8549 9.83635 22.0585 9.99072C22.2621 10.1451 22.4327 10.3711 22.5532 10.6459C22.578 10.7051 22.5979 10.768 22.6125 10.8335C23.0611 8.92239 22.8834 6.89405 22.0876 5.73333ZM9.59236 10.7866H9.52464C9.35115 10.7876 9.17916 10.8312 9.0167 10.9155C8.97529 10.9473 8.92858 10.9635 8.88125 10.9624C8.81032 10.9645 8.74065 10.9363 8.68162 10.8818C8.62259 10.8273 8.57703 10.7491 8.55109 10.6576C8.53088 10.5973 8.51971 10.5319 8.51826 10.4654C8.5168 10.3989 8.52509 10.3326 8.54263 10.2707C8.58454 10.1538 8.65292 10.0591 8.73734 10.001C8.9873 9.86014 9.25477 9.78844 9.52464 9.79H9.60083C9.69441 9.79603 9.78271 9.8518 9.84735 9.9457C9.912 10.0396 9.94802 10.1644 9.94792 10.2941C9.94792 10.4247 9.91046 10.55 9.84378 10.6423C9.7771 10.7347 9.68666 10.7866 9.59236 10.7866ZM11.2262 11.2556C11.1988 11.3092 11.1636 11.3542 11.1229 11.3878C11.0821 11.4214 11.0368 11.4427 10.9897 11.4504C10.9426 11.4582 10.8949 11.4521 10.8496 11.4327C10.8043 11.4133 10.7624 11.3809 10.7268 11.3376C10.5604 11.1706 10.378 11.0365 10.185 10.939H10.168C10.1229 10.9176 10.0819 10.8821 10.0481 10.8354C10.0144 10.7887 9.98879 10.7319 9.97332 10.6693C9.95332 10.611 9.94225 10.5475 9.9408 10.483C9.93934 10.4184 9.94753 10.3541 9.96485 10.2941C9.99195 10.2005 10.0387 10.1203 10.0991 10.0639C10.1594 10.0074 10.2306 9.97738 10.3035 9.97759C10.347 9.97789 10.3902 9.98983 10.4305 10.0128C10.6925 10.1424 10.9382 10.3283 11.1585 10.5638C11.2339 10.6451 11.2852 10.7619 11.3024 10.8921C11.3112 11.0222 11.284 11.1521 11.2262 11.2556Z" fill="white"/>
<path d="M21.3851 10.7632L21.1904 10.7866C20.8694 10.8912 20.5774 11.1233 20.3504 11.4545C20.1233 11.7856 19.971 12.2014 19.9121 12.6508C20.0052 13.6746 20.0052 14.7106 19.9121 15.7344C20.0348 15.7679 20.1596 15.7836 20.2846 15.7813C20.5928 15.7728 20.8993 15.7178 21.1989 15.6171C21.7322 15.453 21.9354 15.2302 21.9608 15.1833C22.1047 14.6909 22.2402 11.8887 21.9269 11.1501C21.8253 10.8922 21.6391 10.7632 21.3851 10.7632Z" fill="white"/>
</svg>
