<svg width="14" height="14" viewBox="0 0 14 14" fill="none" xmlns="http://www.w3.org/2000/svg">
<g clip-path="url(#clip0_832_26774)">
<g clip-path="url(#clip1_832_26774)">
<path d="M8.41009 1.614C8.45621 1.52163 8.51493 1.44264 8.58293 1.38146C8.51365 1.31966 8.45472 1.23804 8.41009 1.14209C8.36592 1.23627 8.30888 1.31759 8.24219 1.38146C8.30762 1.44466 8.36446 1.52339 8.41009 1.614Z" fill="#878687"/>
<path d="M7.68449 2.00391L7.8672 2.14753L7.96597 2.39375C8.00893 2.50531 8.07298 2.5986 8.15126 2.66365C8.22954 2.72871 8.31912 2.76307 8.41041 2.76307H8.42029C8.50993 2.76043 8.59753 2.72564 8.67457 2.66211C8.7516 2.59858 8.81542 2.50847 8.8598 2.40059L8.9635 2.14069L9.15115 1.99707H9.16103C9.23785 1.92692 9.30204 1.83334 9.34869 1.7235C9.38061 1.64272 9.40056 1.55391 9.40734 1.46229C9.41413 1.37068 9.40762 1.27811 9.38819 1.19003C9.35056 1.01414 9.26574 0.864867 9.15115 0.772838L8.9635 0.636053L8.8598 0.37616C8.81362 0.255474 8.74333 0.155752 8.65733 0.0889106H8.64745C8.57444 0.0343738 8.49332 0.0039451 8.41041 0C8.3194 0.00228413 8.23032 0.0367936 8.15166 0.100243C8.073 0.163693 8.00737 0.25397 7.96103 0.362482L7.86227 0.615535L7.68449 0.752321C7.6 0.815761 7.5299 0.910476 7.48202 1.02589H7.47708C7.41283 1.19167 7.39863 1.38595 7.43757 1.56619C7.45433 1.65902 7.48497 1.74593 7.5275 1.82133C7.57003 1.89673 7.62351 1.95893 7.68449 2.00391ZM7.69436 1.20371C7.72032 1.14287 7.75792 1.09317 7.80301 1.06009L7.99066 0.916463C8.02612 0.884384 8.05639 0.842465 8.07955 0.793356L8.17832 0.533464C8.20238 0.475737 8.2369 0.427707 8.27847 0.394121C8.32004 0.360536 8.36723 0.342557 8.41535 0.341964C8.45822 0.342443 8.50045 0.356478 8.53881 0.383C8.58424 0.418515 8.62181 0.470542 8.64745 0.533464L8.75115 0.793356C8.76654 0.847926 8.79665 0.892072 8.8351 0.916463L9.0277 1.06009C9.08685 1.10958 9.1308 1.18748 9.15115 1.27894C9.16973 1.37032 9.16267 1.46804 9.1314 1.55252C9.10622 1.61365 9.07062 1.66531 9.0277 1.70298L8.8351 1.8466C8.80017 1.87437 8.7712 1.9145 8.75115 1.96287L8.64745 2.2296C8.62382 2.28635 8.59007 2.33375 8.54944 2.36728C8.5088 2.40081 8.46263 2.41934 8.41535 2.4211C8.36775 2.42144 8.32098 2.40378 8.28008 2.37004C8.23919 2.33629 8.20571 2.28774 8.18325 2.2296L8.07955 1.96287C8.05631 1.91571 8.02599 1.87605 7.99066 1.8466L7.80301 1.70298C7.77196 1.68055 7.74456 1.64957 7.72248 1.61193C7.7004 1.57429 7.68411 1.5308 7.67461 1.48412C7.66301 1.4382 7.65877 1.38933 7.66218 1.3409C7.66559 1.29248 7.67657 1.24566 7.69436 1.20371Z" fill="#878687"/>
<path d="M10.8351 11.6404L10.5635 11.4352H10.5536C10.5343 11.422 10.5187 11.4004 10.5091 11.3737H10.5042L10.3511 10.9839C10.3043 10.8688 10.2361 10.7732 10.1536 10.7071C10.0711 10.6409 9.97732 10.6066 9.88198 10.6077H9.87704C9.78184 10.607 9.6883 10.6423 9.6065 10.7098C9.52471 10.7773 9.45776 10.8744 9.41285 10.9907L9.2647 11.3669C9.25027 11.4007 9.22988 11.4289 9.20544 11.4489L8.92396 11.6609C8.84141 11.7309 8.77203 11.827 8.72149 11.9414V11.955C8.68757 12.0403 8.66615 12.134 8.65847 12.2308C8.65079 12.3275 8.65699 12.4254 8.67672 12.5189C8.69646 12.6123 8.72933 12.6994 8.77346 12.7752C8.81758 12.851 8.87208 12.9139 8.93383 12.9604L9.20544 13.1656C9.23249 13.1862 9.25475 13.217 9.26964 13.2545L9.41285 13.617C9.45724 13.7363 9.52449 13.8365 9.60724 13.9064C9.68998 13.9764 9.78503 14.0135 9.88198 14.0137H9.88692C9.98376 14.0125 10.0786 13.9758 10.1619 13.9073C10.2452 13.8388 10.3139 13.741 10.361 13.6238L10.5091 13.2408C10.5226 13.2076 10.5433 13.1812 10.5684 13.1656L10.8449 12.9536C10.9302 12.8832 11.0015 12.7844 11.0524 12.6663C11.1198 12.4927 11.1353 12.2894 11.0956 12.1001C11.0559 11.9108 10.9641 11.7507 10.84 11.6541L10.8351 11.6404ZM10.8301 12.4885C10.8029 12.5538 10.7637 12.608 10.7165 12.6458L10.4449 12.851C10.3764 12.8981 10.3209 12.975 10.2869 13.0698L10.1388 13.446C10.113 13.5092 10.0757 13.562 10.0307 13.5992C9.98567 13.6364 9.93441 13.6567 9.88198 13.658C9.82996 13.6584 9.77888 13.6387 9.73442 13.6013C9.68996 13.5639 9.65386 13.5101 9.63013 13.446L9.48198 13.0698C9.44191 12.979 9.38584 12.9037 9.31902 12.851L9.05235 12.6458H9.04741C9.01425 12.6208 8.985 12.5869 8.96132 12.5462C8.93765 12.5054 8.92003 12.4586 8.90947 12.4084C8.89891 12.3582 8.89563 12.3055 8.89981 12.2536C8.90399 12.2016 8.91556 12.1513 8.93383 12.1055C8.96286 12.038 9.00359 11.9815 9.05235 11.9414L9.31902 11.7362C9.38798 11.6875 9.44477 11.6113 9.48198 11.5173L9.63013 11.1412C9.65409 11.0778 9.69038 11.025 9.73489 10.9887C9.7794 10.9525 9.83036 10.9342 9.88198 10.936C9.93403 10.9359 9.98516 10.9549 10.0302 10.9909C10.0753 11.0269 10.1128 11.0787 10.1388 11.1412L10.2869 11.5173C10.3209 11.6122 10.3764 11.689 10.4449 11.7362L10.7165 11.9414C10.7499 11.9666 10.7793 12.0007 10.8031 12.0418C10.8268 12.0829 10.8444 12.1301 10.8548 12.1807C10.8739 12.2841 10.8652 12.3935 10.8301 12.4885Z" fill="#878687"/>
<path d="M9.91629 11.7908L9.88172 11.7087L9.84715 11.7908C9.77314 11.9843 9.65984 12.1436 9.52123 12.249L9.45703 12.2969L9.52123 12.3448C9.65967 12.4474 9.77308 12.6045 9.84715 12.7962L9.88172 12.8783L9.91629 12.7962C9.99037 12.6045 10.1038 12.4474 10.2422 12.3448L10.3064 12.2969L10.2422 12.249C10.1036 12.1436 9.9903 11.9843 9.91629 11.7908Z" fill="#878687"/>
<path d="M2.39087 7.37969C2.35715 7.1172 2.2685 6.87421 2.13593 6.68089C2.00337 6.48757 1.83273 6.35243 1.64519 6.29224L1.53161 6.27856C1.38346 6.27856 1.27976 6.3538 1.21556 6.50426C1.03285 6.93513 1.11186 8.57656 1.19581 8.85697C1.20569 8.87749 1.3242 9.00744 1.64519 9.11002C1.8198 9.16963 1.99871 9.20175 2.17853 9.20578C2.25143 9.20655 2.3242 9.19739 2.39581 9.17842C2.34232 8.58126 2.34067 7.97739 2.39087 7.37969Z" fill="#878687"/>
<path d="M4.38063 8.00195H4.33124C4.15086 8.00161 3.97658 8.09243 3.84111 8.25739C3.70564 8.42234 3.61829 8.65009 3.59544 8.8979C3.45717 10.0059 3.52631 11.4216 3.54112 11.6952C3.53865 11.8031 3.56419 11.9087 3.61312 11.9927C3.66204 12.0768 3.73111 12.1338 3.80779 12.1534C4.19741 12.249 4.59234 12.297 4.98803 12.297C5.16087 12.297 5.33865 12.2833 5.51643 12.2697H5.5263C5.60869 12.2672 5.68764 12.2235 5.74853 12.1466C5.83248 11.8593 5.85223 10.5256 5.6547 9.36981C5.50655 8.4807 4.88433 8.00195 4.38063 8.00195Z" fill="#878687"/>
<path d="M2.18846 11.1411C2.14364 11.235 2.08468 11.3143 2.01562 11.3736C2.08378 11.4374 2.14245 11.5186 2.18846 11.613C2.23274 11.5209 2.28981 11.4418 2.35637 11.3805C2.28967 11.3166 2.23263 11.2353 2.18846 11.1411Z" fill="#878687"/>
<path d="M10.6617 6.2854C10.5902 6.28623 10.519 6.2977 10.4493 6.3196C10.0444 6.43586 9.6197 6.87358 9.58019 7.58486C9.61065 8.23855 9.609 8.89436 9.57525 9.54774C9.57603 9.56849 9.57436 9.58928 9.57031 9.60929C9.69902 9.65714 9.8322 9.67789 9.96537 9.67084C10.1375 9.67072 10.3093 9.65013 10.479 9.60929C10.953 9.5067 11.1555 9.32204 11.1703 9.27416C11.2691 8.95272 11.2641 7.0856 11.0469 6.5111C10.9925 6.36747 10.8493 6.2854 10.6617 6.2854Z" fill="#878687"/>
<path d="M13.3683 2.71523C13.0127 2.18861 12.4201 1.92188 11.6053 1.92188C10.2769 1.92188 8.64237 2.62632 7.64484 3.22134C7.44227 3.34333 7.22375 3.40628 7.00286 3.40628C6.78197 3.40628 6.56345 3.34333 6.36089 3.22134C5.36336 2.62632 3.72879 1.92188 2.40039 1.92188C1.59051 1.92188 0.997922 2.18861 0.63249 2.71523C-0.132942 3.83687 -0.211954 5.76555 0.434959 7.43433C0.425083 8.11142 0.48928 8.90478 0.583108 9.20571C0.760885 9.8144 1.46212 10.0401 1.91644 10.1017C1.84172 10.1651 1.7804 10.2548 1.73866 10.3615L1.6399 10.6078L1.44731 10.7582C1.36655 10.8268 1.30016 10.9235 1.25471 11.0386C1.22182 11.1201 1.20096 11.2099 1.19333 11.3026C1.1857 11.3954 1.19146 11.4893 1.21027 11.5789C1.24983 11.7575 1.33852 11.9074 1.45718 11.9961L1.6399 12.1329L1.73866 12.386C1.78162 12.4975 1.84567 12.5908 1.92395 12.6559C2.00224 12.7209 2.09181 12.7553 2.18311 12.7553H2.18805C2.27996 12.7551 2.37014 12.7207 2.44919 12.6557C2.52823 12.5907 2.59324 12.4976 2.63743 12.386L2.73619 12.1329L2.89422 12.0098C2.93577 12.2747 3.03296 12.5167 3.17354 12.7053C3.31413 12.8939 3.49184 13.0208 3.68434 13.0699C4.10327 13.1734 4.52793 13.2261 4.95348 13.2272H4.99792C5.22014 13.2272 5.40286 13.2204 5.57076 13.1998C5.73866 13.1793 6.15842 13.1315 6.35101 12.557C6.45965 12.2355 6.49916 11.702 6.46953 10.9224H6.61274C6.74584 10.9077 6.87613 10.8614 6.99792 10.7856H7.0078C7.12312 10.8608 7.24657 10.9093 7.37323 10.9292H7.39792C7.55101 10.9429 7.71891 10.9497 7.89669 10.9497H7.93619C8.31526 10.9483 8.69356 10.9026 9.06706 10.8129C9.22105 10.773 9.36438 10.6761 9.48187 10.5325C9.57121 10.5608 9.66203 10.5791 9.75348 10.5872H9.95595C10.351 10.5872 11.0819 10.4778 11.4967 10.0811C11.5535 10.0992 11.6113 10.1106 11.6695 10.1153H11.8177C12.188 10.1153 13.1955 9.95119 13.4276 9.20571V9.19203C13.5115 8.89794 13.5757 8.0909 13.5708 7.42749C14.2078 5.78607 14.1288 3.81636 13.3683 2.71523ZM2.9041 11.5516C2.88012 11.6122 2.84414 11.662 2.80039 11.6952L2.61274 11.8388C2.574 11.8649 2.5427 11.9083 2.52385 11.9619L2.42014 12.2218C2.39651 12.2786 2.36276 12.326 2.32213 12.3595C2.28149 12.393 2.23533 12.4116 2.18805 12.4133C2.14044 12.4137 2.09367 12.396 2.05278 12.3623C2.01188 12.3285 1.9784 12.28 1.95595 12.2218L1.85224 11.9619C1.83339 11.9083 1.80209 11.8649 1.76335 11.8388L1.5757 11.6952C1.54466 11.6728 1.51725 11.6418 1.49517 11.6042C1.47309 11.5665 1.4568 11.523 1.44731 11.4763C1.43778 11.4308 1.43506 11.3831 1.43931 11.336C1.44355 11.289 1.45467 11.2437 1.472 11.2028C1.49588 11.1403 1.53177 11.0883 1.5757 11.0523L1.76335 10.9087C1.79968 10.8811 1.83029 10.8411 1.85224 10.7924L1.95595 10.5257C1.97863 10.4683 2.0123 10.4207 2.05325 10.3882C2.0942 10.3556 2.14084 10.3393 2.18805 10.341C2.23257 10.3407 2.27653 10.3547 2.31644 10.3821C2.36019 10.4153 2.39617 10.4651 2.42014 10.5257L2.52385 10.7924C2.54437 10.8427 2.57535 10.8832 2.61274 10.9087L2.80039 11.0523C2.86167 11.0998 2.90693 11.1789 2.92634 11.2724C2.94576 11.3659 2.93777 11.4662 2.9041 11.5516ZM13.3238 7.34542C13.3387 8.06355 13.2646 8.84323 13.2004 9.06892C13.0522 9.54767 12.2868 9.77337 11.8177 9.77337H11.6843C11.6022 9.76676 11.5209 9.74608 11.4424 9.71181C11.1362 10.1017 10.3955 10.2453 9.95595 10.2453H9.76829C9.64646 10.239 9.52626 10.2043 9.41274 10.1427C9.31471 10.3111 9.17626 10.4252 9.02261 10.4641C8.65894 10.5515 8.29048 10.595 7.92138 10.5941H7.89669C7.72879 10.5941 7.56582 10.5872 7.41274 10.5736C7.33866 10.5599 7.13126 10.5257 6.98805 10.3479C6.96609 10.3965 6.93548 10.4366 6.89916 10.4641C6.80212 10.5236 6.69868 10.5606 6.59298 10.5736L6.40039 10.5872H6.38558C6.3456 10.5876 6.30645 10.5715 6.27306 10.5411C6.23967 10.5107 6.21352 10.4672 6.19792 10.4163C6.25718 11.2985 6.25224 12.0508 6.12879 12.4133C6.00533 12.7758 5.72879 12.8374 5.55101 12.8579C5.37323 12.8784 5.19052 12.8852 4.99792 12.8852H4.96829C4.55271 12.8864 4.13789 12.836 3.72879 12.7348C3.55957 12.6919 3.40641 12.5688 3.29558 12.3866C3.18475 12.2044 3.12316 11.9745 3.12138 11.7362C3.09175 11.1891 3.08681 10.6351 3.09669 10.0811C2.9025 10.0155 2.72175 9.88919 2.56829 9.71181C2.48892 9.75157 2.40569 9.77463 2.32138 9.78021H2.19298C1.71891 9.78021 0.953478 9.55451 0.810268 9.07576C0.741132 8.85006 0.667058 8.07039 0.686811 7.35226C0.064589 5.81342 0.113972 3.97366 0.815206 2.94777C1.12632 2.49637 1.65965 2.26384 2.40039 2.26384C3.68928 2.26384 5.28434 2.94777 6.26212 3.53594C6.49621 3.6748 6.74821 3.74639 7.00286 3.74639C7.25751 3.74639 7.50952 3.6748 7.7436 3.53594C8.72138 2.94777 10.3214 2.26384 11.6053 2.26384C12.351 2.26384 12.8843 2.49637 13.1905 2.94777C13.8967 3.97366 13.9461 5.81342 13.3238 7.34542Z" fill="#878687"/>
<path d="M8.48942 6.29201H8.44004C8.18893 6.29558 7.94563 6.4133 7.74755 6.62708C7.54947 6.84086 7.40759 7.13885 7.34375 7.47521C7.17584 8.48058 7.19066 9.64326 7.25979 9.88947C7.30899 9.94875 7.37239 9.98045 7.43757 9.97838H7.44745C7.60054 9.9989 7.75856 10.0057 7.91165 10.0057C8.25785 10.0069 8.60337 9.9634 8.94375 9.87579C9.00654 9.86237 9.0635 9.81718 9.10364 9.74897C9.14377 9.68075 9.16422 9.59436 9.16103 9.50647C9.18078 9.17135 9.23017 7.98815 9.11165 7.05117C9.09344 6.84084 9.01993 6.64716 8.90516 6.50712C8.79038 6.36708 8.64238 6.29051 8.48942 6.29201Z" fill="#878687"/>
<path d="M12.8848 3.34448C12.6625 3.0162 12.2181 2.84521 11.6057 2.84521C10.5835 2.84521 9.16624 3.31713 7.91192 4.06945C7.62492 4.24062 7.31576 4.32905 7.00328 4.32934C6.69075 4.32962 6.38151 4.24117 6.09464 4.06945C4.84031 3.31713 3.42797 2.84521 2.40081 2.84521C1.78846 2.84521 1.34402 3.0162 1.1218 3.34448C0.657598 4.02157 0.553894 5.20477 0.815623 6.31957C0.823724 6.27999 0.837126 6.24286 0.855129 6.21014C0.923029 6.04841 1.02138 5.91526 1.13966 5.82491C1.25795 5.73457 1.39174 5.69043 1.52673 5.69719C1.59298 5.69953 1.659 5.70867 1.72426 5.72455C2.045 5.82232 2.33127 6.07132 2.53414 6.429C2.54877 6.36235 2.56864 6.29813 2.5934 6.2375C2.7218 5.90237 2.98846 5.71087 3.33908 5.70403H3.34402C3.58158 5.71007 3.8152 5.78932 4.02789 5.93601C4.24058 6.0827 4.42702 6.29316 4.57365 6.5521C4.60334 6.46191 4.63801 6.37502 4.67735 6.29221C4.69728 6.25668 4.72271 6.22779 4.75177 6.20767C4.78083 6.18755 4.81277 6.17671 4.84525 6.17594C4.88348 6.17677 4.92083 6.19188 4.95337 6.21967C4.98591 6.24746 5.01243 6.2869 5.03013 6.33383C5.04783 6.38075 5.05605 6.43343 5.05394 6.48629C5.05182 6.53916 5.03943 6.59025 5.01809 6.63417C4.95303 6.75725 4.91066 6.90046 4.89464 7.05137V7.07873C4.88462 7.14518 4.85869 7.20499 4.82103 7.24844C4.78338 7.2919 4.73623 7.31645 4.68723 7.3181H4.65266C4.60382 7.30601 4.55989 7.2695 4.5292 7.21551H4.50451C4.46625 7.21685 4.42848 7.2035 4.39536 7.17695C4.36224 7.15039 4.33507 7.11166 4.31686 7.06505C4.21497 6.83247 4.07245 6.63914 3.90244 6.50288C3.73243 6.36663 3.54039 6.29183 3.34402 6.28537H3.33908C3.15143 6.28537 3.01809 6.36744 2.96377 6.51107C2.74155 7.08557 2.73661 8.95269 2.83538 9.27414C2.84525 9.30149 2.9292 9.3904 3.1218 9.47247C3.13661 9.22626 3.15636 9.0074 3.18106 8.80223C3.2212 8.42027 3.35885 8.07088 3.56904 7.81742C3.77923 7.56396 4.04804 7.42321 4.32673 7.42069H4.47982C4.50644 7.37157 4.54506 7.33754 4.58846 7.32494H4.63785C4.67964 7.32526 4.7204 7.34306 4.75477 7.37601C4.78913 7.40896 4.81551 7.45553 4.83044 7.5096C5.12933 7.61825 5.40163 7.83619 5.61882 8.14061C5.83602 8.44503 5.99013 8.82473 6.06501 9.23994C6.11929 9.56679 6.15887 9.89799 6.18352 10.2316C6.19423 10.1694 6.21931 10.1136 6.25496 10.0729C6.29061 10.0322 6.33488 10.0087 6.38105 10.0059L6.55883 9.98542C6.61386 9.98436 6.66795 9.96563 6.71686 9.93071H6.72673C6.75244 9.91131 6.78144 9.90186 6.81068 9.90335H6.83538C6.76624 9.41092 6.78106 8.48078 6.89464 7.63271H6.85513C6.8094 7.63228 6.76498 7.61141 6.7285 7.57321C6.69202 7.53501 6.66542 7.48152 6.65266 7.42069C6.62233 7.26502 6.57396 7.1172 6.50945 6.98298H6.50451C6.48866 6.95168 6.47749 6.91631 6.47163 6.87895C6.46578 6.84159 6.46537 6.80299 6.47043 6.76541C6.47549 6.72782 6.48592 6.69202 6.5011 6.66009C6.51628 6.62816 6.53591 6.60075 6.55883 6.57946C6.59319 6.54438 6.63467 6.52523 6.67735 6.52475C6.71168 6.52491 6.74543 6.53686 6.7756 6.55954C6.80576 6.58222 6.83139 6.61492 6.85019 6.65469C6.91083 6.77936 6.96213 6.91227 7.00328 7.05137C7.25513 6.1691 7.89217 5.71087 8.45019 5.71087H8.4897C8.68919 5.71141 8.88441 5.79088 9.05239 5.93991C9.22036 6.08895 9.3541 6.30135 9.43785 6.5521C9.66535 6.13901 9.99357 5.8546 10.3613 5.75191C10.4603 5.72209 10.5612 5.70606 10.6625 5.70403C11.0132 5.70403 11.2897 5.90237 11.4181 6.2375L11.4774 6.429C11.6773 6.07005 11.9624 5.82053 12.2823 5.72455C12.3475 5.70833 12.4136 5.69918 12.4798 5.69719C12.6152 5.6928 12.749 5.73791 12.8678 5.82796C12.9866 5.91802 13.0861 6.04984 13.1564 6.21014C13.1708 6.24468 13.1824 6.28139 13.1909 6.31957C13.4527 5.20477 13.349 4.02157 12.8848 3.34448ZM5.59587 6.29221H5.55636C5.45516 6.29278 5.35484 6.31826 5.26007 6.36744C5.23591 6.38597 5.20867 6.3954 5.18106 6.3948C5.13968 6.39597 5.09904 6.37956 5.0646 6.34776C5.03017 6.31597 5.00359 6.27033 4.98846 6.21698C4.97667 6.18177 4.97016 6.14362 4.96931 6.10483C4.96846 6.06604 4.9733 6.02741 4.98352 5.99128C5.00797 5.92308 5.04786 5.86784 5.0971 5.83398C5.24291 5.75179 5.39894 5.70996 5.55636 5.71087H5.60081C5.6554 5.71439 5.7069 5.74692 5.74461 5.8017C5.78233 5.85647 5.80334 5.92928 5.80328 6.00496C5.80328 6.08114 5.78143 6.15421 5.74253 6.20808C5.70363 6.26195 5.65088 6.29221 5.59587 6.29221ZM6.54896 6.56578C6.53298 6.59705 6.51245 6.62333 6.48868 6.64292C6.46491 6.6625 6.43843 6.67495 6.41096 6.67946C6.3835 6.68398 6.35566 6.68045 6.32924 6.66911C6.30282 6.65778 6.27841 6.63888 6.2576 6.61366C6.16053 6.51624 6.05417 6.43798 5.94155 6.38112H5.93167C5.90534 6.36862 5.88142 6.34794 5.86173 6.32068C5.84205 6.29342 5.82712 6.26029 5.81809 6.22382C5.80643 6.18978 5.79997 6.15276 5.79912 6.1151C5.79827 6.07744 5.80305 6.03995 5.81315 6.00496C5.82896 5.95035 5.85624 5.90355 5.89145 5.87063C5.92666 5.83771 5.9682 5.82018 6.01068 5.8203C6.0361 5.82048 6.06125 5.82744 6.08476 5.84082C6.23763 5.91642 6.38095 6.0249 6.50945 6.16226C6.55345 6.20967 6.58333 6.27783 6.5934 6.35376C6.59852 6.42968 6.58263 6.50546 6.54896 6.56578Z" fill="#878687"/>
<path d="M12.4745 6.27856L12.3609 6.29224C12.1737 6.35324 12.0033 6.48864 11.8709 6.68182C11.7384 6.875 11.6496 7.11755 11.6152 7.37969C11.6696 7.9769 11.6696 8.5812 11.6152 9.17842C11.6868 9.19799 11.7596 9.20716 11.8325 9.20578C12.0123 9.20085 12.1911 9.16874 12.3659 9.11002C12.677 9.01428 12.7955 8.88433 12.8103 8.85697C12.8942 8.56972 12.9733 6.93513 12.7905 6.50426C12.7313 6.3538 12.6226 6.27856 12.4745 6.27856Z" fill="#878687"/>
</g>
</g>
<defs>
<clipPath id="clip0_832_26774">
<rect width="14" height="14" fill="white" transform="matrix(-1 0 0 1 14 0)"/>
</clipPath>
<clipPath id="clip1_832_26774">
<rect width="14" height="14" fill="white"/>
</clipPath>
</defs>
</svg>
