<svg width="60" height="60" viewBox="0 0 60 60" fill="none" xmlns="http://www.w3.org/2000/svg">
<rect width="60" height="60" rx="30" fill="white"/>
<path d="M25.6948 27.1019H25.5561C25.0648 27.1015 24.578 27.1957 24.1224 27.3794C23.9658 27.4516 23.8401 27.5774 23.7678 27.734C23.7307 27.8339 23.7181 27.9413 23.7313 28.047C23.7444 28.1528 23.7829 28.2538 23.8434 28.3416C23.9039 28.4293 23.9847 28.5012 24.0789 28.5511C24.1731 28.6009 24.2779 28.6274 24.3845 28.6281C24.4688 28.6278 24.5524 28.6122 24.6311 28.5819C24.9243 28.4601 25.2386 28.3973 25.5561 28.3969H25.6794C25.8512 28.3989 26.0167 28.3327 26.1395 28.2127C26.2624 28.0927 26.3326 27.9288 26.3346 27.7571C26.3367 27.5854 26.2704 27.4199 26.1504 27.297C26.0304 27.1742 25.8666 27.104 25.6948 27.1019Z" fill="#161616"/>
<path d="M28.146 29.291C28.2457 29.2917 28.344 29.2682 28.4326 29.2226C28.5212 29.1769 28.5974 29.1105 28.6547 29.029C28.7599 28.893 28.8095 28.7222 28.7935 28.5511C28.7621 28.3799 28.6688 28.2263 28.5314 28.1194C28.1303 27.8098 27.6829 27.5653 27.2056 27.3949L26.9744 27.3486C26.8413 27.3462 26.7107 27.3848 26.6003 27.4593C26.49 27.5338 26.4053 27.6405 26.3578 27.7649C26.3262 27.8437 26.3113 27.9282 26.314 28.0131C26.3166 28.098 26.3368 28.1814 26.3732 28.2582C26.4454 28.4148 26.5711 28.5405 26.7277 28.6127H26.7586C27.1123 28.743 27.4447 28.9248 27.7452 29.1523C27.8575 29.2457 28 29.295 28.146 29.291Z" fill="#161616"/>
<path d="M49.3893 20.8739C48.4335 19.841 46.7686 19.3323 44.4407 19.3323C40.4171 19.3323 35.4378 20.8739 32.3854 22.1997C31.6553 22.5153 30.8684 22.6781 30.073 22.6781C29.2776 22.6781 28.4907 22.5153 27.7606 22.1997C24.7082 20.8739 19.7288 19.3323 15.7053 19.3323C13.3928 19.3323 11.7279 19.841 10.7567 20.8739C8.56763 23.1863 8.41347 27.3332 10.3559 30.7864C10.2942 32.4051 10.5255 34.1625 10.7413 34.6866C11.1884 35.7658 13.5778 36.2745 15.0578 36.2745H15.4586C15.7218 36.2619 15.9816 36.2099 16.2294 36.1203C16.7102 36.5175 17.2738 36.8019 17.8789 36.9528C17.8481 38.1861 17.8635 39.4502 17.956 40.6835C17.9652 41.2218 18.1607 41.7404 18.5092 42.1508C18.8578 42.5611 19.3378 42.838 19.8676 42.9342C21.1404 43.1555 22.4297 43.269 23.7216 43.2734H23.8141C24.4153 43.2734 24.9857 43.2425 25.5407 43.2117C26.0957 43.1809 26.959 43.0267 27.3444 42.2097C27.7298 41.3926 27.7452 39.6968 27.5602 37.7082C27.6089 37.8231 27.6905 37.921 27.7947 37.9896C27.899 38.0582 28.0212 38.0943 28.146 38.0936H28.1922C28.3926 38.0782 28.5931 38.0782 28.7935 38.0473C29.125 38.0275 29.4495 37.9438 29.7493 37.8007C29.868 37.7539 29.9663 37.6665 30.0267 37.554C30.4738 37.9394 31.1213 38.0319 31.3525 38.0473C31.8304 38.0936 32.3391 38.109 32.8633 38.109H32.9404C34.0935 38.1149 35.2445 38.0116 36.3781 37.8007C36.8586 37.7251 37.2931 37.472 37.596 37.0915C37.9562 37.2288 38.3362 37.3068 38.7214 37.3228H39.2918C40.6638 37.3228 42.9762 36.999 43.932 36.1049C44.1798 36.1945 44.4396 36.2465 44.7028 36.2591H45.1036C46.5681 36.2591 48.9576 35.7503 49.4201 34.6712C49.6359 34.1471 49.8517 32.4051 49.7901 30.7864C51.7479 27.3332 51.5938 23.1863 49.3893 20.8739ZM49.3893 28.4586C49.3597 28.3787 49.3236 28.3013 49.2814 28.2273C49.0656 27.8627 48.7556 27.5629 48.384 27.3594C48.0124 27.156 47.5928 27.0564 47.1694 27.0711C46.9622 27.0695 46.7555 27.0901 46.5527 27.1328C45.5515 27.3428 44.6594 27.9065 44.0399 28.7206L43.8549 28.289C43.4541 27.5336 42.5908 27.0865 41.4963 27.0865C41.1796 27.0852 40.864 27.1215 40.5559 27.1944C39.4079 27.4259 38.3833 28.067 37.6731 28.9981C37.4148 28.4306 36.998 27.9497 36.4729 27.6133C35.9478 27.2769 35.3368 27.0994 34.7132 27.102H34.5899C32.8479 27.102 30.8592 28.1348 30.073 30.1235C29.9539 29.8056 29.7932 29.505 29.5951 29.2294C29.5364 29.1397 29.4564 29.066 29.3622 29.0149C29.2681 28.9638 29.1627 28.9368 29.0555 28.9365C28.9226 28.9395 28.7937 28.9825 28.6855 29.0598C28.5466 29.1612 28.4482 29.3087 28.4081 29.476C28.3823 29.6481 28.4207 29.8237 28.516 29.9693H28.5314C28.7301 30.2734 28.8808 30.6061 28.9785 30.956C29.0155 31.0959 29.0973 31.2199 29.2114 31.309C29.3256 31.3981 29.4657 31.4474 29.6105 31.4493H29.7338C29.3793 33.3609 29.333 35.4574 29.5488 36.5674H29.4718C29.3823 36.5665 29.2934 36.5822 29.2097 36.6136H29.1789C29.0218 36.68 28.8554 36.7216 28.6855 36.737L28.1306 36.7678C27.9614 36.7751 27.8015 36.8468 27.6835 36.9682C27.5978 37.0581 27.539 37.1703 27.5139 37.2919C27.4382 36.5397 27.3146 35.7931 27.1439 35.0566C26.9142 34.1172 26.4347 33.2573 25.7562 32.568C25.0778 31.8787 24.2256 31.3856 23.2899 31.141C23.2427 31.0207 23.1597 30.9178 23.0522 30.8462C22.9448 30.7745 22.8179 30.7375 22.6887 30.7401H22.5346C22.403 30.7691 22.2842 30.8393 22.1954 30.9405H21.7175C20.8475 30.9462 20.0083 31.2635 19.3522 31.8348C18.696 32.4061 18.2663 33.1936 18.141 34.0546C18.0639 34.5016 18.0022 35.0104 17.956 35.5654C17.3548 35.3649 17.0927 35.1645 17.0619 35.1029C16.7535 34.3937 16.769 30.1852 17.4627 28.8748C17.6323 28.5665 18.0485 28.3815 18.6343 28.3815H18.6497C19.2658 28.3904 19.869 28.5583 20.4011 28.8689C20.9332 29.1795 21.376 29.6223 21.6867 30.1543C21.7448 30.2583 21.8299 30.3446 21.933 30.4043C22.0361 30.464 22.1534 30.4948 22.2725 30.4935H22.3496C22.446 30.6117 22.5838 30.6889 22.735 30.7093H22.8429C22.9966 30.7084 23.1453 30.6541 23.2634 30.5557C23.3815 30.4572 23.4617 30.3208 23.4903 30.1697V30.1081C23.5496 29.7658 23.681 29.44 23.8757 29.1523C23.9708 29.0109 24.0063 28.8378 23.9745 28.6704C23.9428 28.503 23.8464 28.3549 23.7062 28.2582C23.5989 28.1791 23.4694 28.1359 23.3362 28.1348C23.2348 28.1365 23.1351 28.161 23.0443 28.2063C22.9536 28.2517 22.8743 28.3168 22.812 28.3969C22.6892 28.5836 22.581 28.7794 22.4883 28.9827C22.0306 28.399 21.4486 27.9247 20.7846 27.594C20.1206 27.2634 19.3913 27.0847 18.6497 27.0711H18.6343C17.5552 27.0865 16.6919 27.5182 16.3065 28.2736C16.2292 28.4102 16.1671 28.555 16.1215 28.7052C15.4954 27.891 14.5986 27.3278 13.5933 27.1174C13.3906 27.074 13.1838 27.0533 12.9766 27.0557C12.0671 27.0557 11.2963 27.4719 10.88 28.2119C10.8298 28.2893 10.7885 28.372 10.7567 28.4586C9.93966 25.9458 10.2634 23.2788 11.7125 21.7526C12.4062 21.0126 13.7937 20.6272 15.7207 20.6272C18.9118 20.6272 23.3208 21.6755 27.2364 23.3713C28.1321 23.7582 29.0974 23.9577 30.073 23.9577C31.0486 23.9577 32.0139 23.7582 32.9095 23.3713C36.8252 21.6755 41.2496 20.6272 44.4407 20.6272C46.3523 20.6272 47.7398 21.0126 48.4335 21.7526C49.8826 23.2942 50.2063 25.9458 49.3893 28.4586Z" fill="#161616"/>
<path d="M42.0204 42.3638C41.9401 42.5186 41.8171 42.647 41.6659 42.7338L40.818 43.1963C40.6041 43.3025 40.4309 43.4758 40.3247 43.6896L39.8622 44.5375C39.7822 44.6792 39.6656 44.7969 39.5246 44.8783C39.3836 44.9596 39.2233 45.0017 39.0605 45C38.8997 45.0022 38.7414 44.9603 38.6027 44.8787C38.4641 44.7972 38.3505 44.6791 38.2743 44.5375L37.8118 43.6896C37.6957 43.4778 37.5184 43.3059 37.3031 43.1963L36.4707 42.7338C36.3653 42.6772 36.2721 42.6004 36.1965 42.5077C36.1209 42.4151 36.0642 42.3085 36.0299 42.1939C35.9955 42.0793 35.9841 41.9591 35.9962 41.8402C36.0084 41.7212 36.0439 41.6058 36.1007 41.5005C36.1963 41.3565 36.3227 41.2354 36.4707 41.146L37.3031 40.6835C37.5148 40.5689 37.6908 40.3982 37.8118 40.1902L38.2743 39.3423C38.3498 39.1988 38.4628 39.0786 38.6013 38.9944C38.7397 38.9103 38.8985 38.8653 39.0605 38.8644C39.2245 38.8658 39.3852 38.9108 39.5261 38.9948C39.6669 39.0788 39.7829 39.1987 39.8622 39.3423L40.3247 40.1902C40.4352 40.4009 40.6073 40.5729 40.818 40.6835L41.6659 41.146C41.7705 41.202 41.8627 41.2788 41.9369 41.3715C42.0111 41.4643 42.0657 41.5711 42.0975 41.6855C42.1314 41.7979 42.1421 41.916 42.1289 42.0326C42.1156 42.1492 42.0787 42.2619 42.0204 42.3638Z" fill="#161616"/>
<path d="M36.7173 17.729C36.6406 17.8695 36.5221 17.9826 36.3782 18.0527L35.7923 18.3764C35.6791 18.4405 35.5878 18.5372 35.5303 18.6539L35.2065 19.2397C35.1364 19.3708 35.0319 19.4802 34.9043 19.5563C34.7766 19.6323 34.6306 19.6721 34.482 19.6714C34.3327 19.6757 34.1852 19.6374 34.0569 19.5609C33.9286 19.4845 33.8247 19.3731 33.7574 19.2397L33.4337 18.6539C33.3614 18.5432 33.2669 18.4487 33.1562 18.3764L32.5704 18.0527C32.474 18.0054 32.3885 17.9384 32.3195 17.8561C32.2505 17.7738 32.1994 17.678 32.1696 17.5748C32.1372 17.4707 32.1259 17.3611 32.1365 17.2525C32.1471 17.144 32.1793 17.0387 32.2312 16.9427C32.3113 16.8009 32.4286 16.6836 32.5704 16.6036L33.1562 16.2953C33.2669 16.223 33.3614 16.1285 33.4337 16.0178L33.7574 15.432C33.8247 15.2986 33.9286 15.1872 34.0569 15.1108C34.1852 15.0343 34.3327 14.996 34.482 15.0003C34.6158 15.0014 34.7476 15.033 34.8674 15.0928C35.0081 15.1674 35.1255 15.2794 35.2065 15.4166L35.5303 16.0178C35.5929 16.1268 35.6833 16.2173 35.7923 16.2799L36.3782 16.6036C36.5707 16.7098 36.7144 16.8867 36.779 17.0969C36.8114 17.201 36.8227 17.3106 36.8121 17.4192C36.8015 17.5277 36.7693 17.6331 36.7173 17.729Z" fill="#161616"/>
<path d="M17.2777 40.2673C17.2028 40.4038 17.0905 40.5161 16.9539 40.591L16.3681 40.9147C16.2472 40.9736 16.1495 41.0713 16.0906 41.1922L15.7669 41.778C15.6968 41.9091 15.5923 42.0185 15.4646 42.0946C15.3369 42.1706 15.1909 42.2104 15.0423 42.2097C14.8937 42.2104 14.7477 42.1706 14.6201 42.0946C14.4924 42.0185 14.3879 41.9091 14.3178 41.778L13.994 41.1922C13.9352 41.0713 13.8375 40.9736 13.7166 40.9147L13.1307 40.591C12.9382 40.4848 12.7945 40.3079 12.7299 40.0977C12.6708 39.8851 12.6986 39.6578 12.807 39.4656C12.8819 39.3291 12.9942 39.2167 13.1307 39.1419L13.7166 38.8182C13.8375 38.7593 13.9352 38.6616 13.994 38.5407L14.3178 37.9549C14.3879 37.8238 14.4924 37.7144 14.6201 37.6383C14.7477 37.5623 14.8937 37.5225 15.0423 37.5232C15.1825 37.5278 15.3196 37.5647 15.4431 37.6311C15.5797 37.706 15.692 37.8183 15.7669 37.9549L16.0906 38.5561C16.1547 38.6693 16.2514 38.7607 16.3681 38.8182L16.9539 39.1419C17.1452 39.249 17.2865 39.4273 17.3471 39.638C17.4077 39.8487 17.3828 40.0748 17.2777 40.2673Z" fill="#161616"/>
</svg>
