<svg width="60" height="60" viewBox="0 0 60 60" fill="none" xmlns="http://www.w3.org/2000/svg">
<rect width="60" height="60" rx="30" fill="#353434"/>
<path d="M25.6947 27.1019H25.556C25.0647 27.1015 24.5779 27.1957 24.1223 27.3794C23.9657 27.4516 23.8399 27.5774 23.7677 27.734C23.7305 27.8339 23.718 27.9413 23.7311 28.047C23.7443 28.1528 23.7828 28.2538 23.8433 28.3416C23.9038 28.4293 23.9846 28.5012 24.0788 28.5511C24.1729 28.6009 24.2778 28.6274 24.3844 28.6281C24.4687 28.6278 24.5523 28.6122 24.631 28.5819C24.9242 28.4601 25.2385 28.3973 25.556 28.3969H25.6793C25.851 28.3989 26.0165 28.3327 26.1394 28.2127C26.2623 28.0927 26.3324 27.9288 26.3345 27.7571C26.3365 27.5854 26.2703 27.4199 26.1503 27.297C26.0303 27.1742 25.8664 27.104 25.6947 27.1019Z" fill="white"/>
<path d="M28.1461 29.291C28.2457 29.2917 28.3441 29.2682 28.4327 29.2225C28.5213 29.1769 28.5975 29.1104 28.6548 29.0289C28.7599 28.8929 28.8095 28.7221 28.7936 28.551C28.7621 28.3798 28.6688 28.2262 28.5315 28.1194C28.1303 27.8097 27.6829 27.5652 27.2057 27.3948L26.9745 27.3486C26.8414 27.3461 26.7107 27.3848 26.6004 27.4593C26.49 27.5337 26.4053 27.6404 26.3578 27.7648C26.3263 27.8436 26.3114 27.9282 26.314 28.0131C26.3167 28.0979 26.3368 28.1814 26.3732 28.2581C26.4455 28.4147 26.5712 28.5404 26.7278 28.6127H26.7586C27.1123 28.7429 27.4448 28.9247 27.7453 29.1522C27.8576 29.2456 28.0001 29.295 28.1461 29.291Z" fill="white"/>
<path d="M49.3893 20.8738C48.4335 19.8409 46.7686 19.3322 44.4407 19.3322C40.4171 19.3322 35.4378 20.8738 32.3854 22.1996C31.6553 22.5152 30.8684 22.678 30.073 22.678C29.2776 22.678 28.4907 22.5152 27.7606 22.1996C24.7082 20.8738 19.7288 19.3322 15.7053 19.3322C13.3928 19.3322 11.7279 19.8409 10.7567 20.8738C8.56763 23.1862 8.41347 27.3331 10.3559 30.7863C10.2942 32.405 10.5255 34.1624 10.7413 34.6866C11.1884 35.7657 13.5778 36.2744 15.0578 36.2744H15.4586C15.7218 36.2619 15.9816 36.2099 16.2294 36.1203C16.7102 36.5174 17.2738 36.8018 17.8789 36.9527C17.8481 38.186 17.8635 39.4501 17.956 40.6834C17.9652 41.2218 18.1607 41.7403 18.5092 42.1507C18.8578 42.5611 19.3378 42.838 19.8676 42.9342C21.1404 43.1555 22.4297 43.2689 23.7216 43.2733H23.8141C24.4153 43.2733 24.9857 43.2425 25.5407 43.2116C26.0957 43.1808 26.959 43.0266 27.3444 42.2096C27.7298 41.3926 27.7452 39.6968 27.5602 37.7081C27.6089 37.823 27.6905 37.9209 27.7947 37.9895C27.899 38.0581 28.0212 38.0943 28.146 38.0935H28.1922C28.3926 38.0781 28.5931 38.0781 28.7935 38.0473C29.125 38.0275 29.4495 37.9437 29.7493 37.8006C29.868 37.7538 29.9663 37.6664 30.0267 37.554C30.4738 37.9394 31.1213 38.0319 31.3525 38.0473C31.8304 38.0935 32.3391 38.1089 32.8633 38.1089H32.9404C34.0935 38.1148 35.2445 38.0116 36.3781 37.8006C36.8586 37.725 37.2931 37.472 37.596 37.0915C37.9562 37.2287 38.3362 37.3068 38.7214 37.3227H39.2918C40.6638 37.3227 42.9762 36.999 43.932 36.1049C44.1798 36.1945 44.4396 36.2464 44.7028 36.259H45.1036C46.5681 36.259 48.9576 35.7503 49.4201 34.6712C49.6359 34.147 49.8517 32.405 49.7901 30.7863C51.7479 27.3331 51.5938 23.1862 49.3893 20.8738ZM49.3893 28.4585C49.3597 28.3786 49.3236 28.3013 49.2814 28.2273C49.0656 27.8626 48.7556 27.5628 48.384 27.3594C48.0124 27.1559 47.5928 27.0563 47.1694 27.0711C46.9622 27.0694 46.7555 27.0901 46.5527 27.1327C45.5515 27.3427 44.6594 27.9064 44.0399 28.7206L43.8549 28.2889C43.4541 27.5335 42.5908 27.0865 41.4963 27.0865C41.1796 27.0852 40.864 27.1214 40.5559 27.1944C39.4079 27.4259 38.3833 28.0669 37.6731 28.9981C37.4148 28.4305 36.998 27.9496 36.4729 27.6133C35.9478 27.2769 35.3368 27.0993 34.7132 27.1019H34.5899C32.8479 27.1019 30.8592 28.1348 30.073 30.1234C29.9539 29.8056 29.7932 29.5049 29.5951 29.2293C29.5364 29.1396 29.4564 29.066 29.3622 29.0148C29.2681 28.9637 29.1627 28.9368 29.0555 28.9364C28.9226 28.9395 28.7937 28.9824 28.6855 29.0597C28.5466 29.1611 28.4482 29.3087 28.4081 29.476C28.3823 29.6481 28.4207 29.8236 28.516 29.9693H28.5314C28.7301 30.2733 28.8808 30.6061 28.9785 30.9559C29.0155 31.0959 29.0973 31.2199 29.2114 31.3089C29.3256 31.398 29.4657 31.4473 29.6105 31.4492H29.7338C29.3793 33.3608 29.333 35.4574 29.5488 36.5673H29.4718C29.3823 36.5664 29.2934 36.5821 29.2097 36.6136H29.1789C29.0218 36.6799 28.8554 36.7215 28.6855 36.7369L28.1306 36.7677C27.9614 36.775 27.8015 36.8467 27.6835 36.9681C27.5978 37.058 27.539 37.1702 27.5139 37.2919C27.4382 36.5397 27.3146 35.7931 27.1439 35.0566C26.9142 34.1171 26.4347 33.2572 25.7562 32.5679C25.0778 31.8786 24.2256 31.3856 23.2899 31.1409C23.2427 31.0206 23.1597 30.9178 23.0522 30.8461C22.9448 30.7744 22.8179 30.7374 22.6887 30.7401H22.5346C22.403 30.769 22.2842 30.8393 22.1954 30.9405H21.7175C20.8475 30.9462 20.0083 31.2634 19.3522 31.8347C18.696 32.406 18.2663 33.1936 18.141 34.0545C18.0639 34.5016 18.0022 35.0103 17.956 35.5653C17.3548 35.3649 17.0927 35.1645 17.0619 35.1028C16.7535 34.3937 16.769 30.1851 17.4627 28.8747C17.6323 28.5664 18.0485 28.3814 18.6343 28.3814H18.6497C19.2658 28.3903 19.869 28.5582 20.4011 28.8688C20.9332 29.1794 21.376 29.6222 21.6867 30.1543C21.7448 30.2582 21.8299 30.3446 21.933 30.4043C22.0361 30.4639 22.1534 30.4947 22.2725 30.4934H22.3496C22.446 30.6117 22.5838 30.6888 22.735 30.7092H22.8429C22.9966 30.7084 23.1453 30.654 23.2634 30.5556C23.3815 30.4572 23.4617 30.3208 23.4903 30.1697V30.108C23.5496 29.7657 23.681 29.4399 23.8757 29.1522C23.9708 29.0108 24.0063 28.8377 23.9745 28.6703C23.9428 28.503 23.8464 28.3549 23.7062 28.2581C23.5989 28.179 23.4694 28.1358 23.3362 28.1348C23.2348 28.1365 23.1351 28.1609 23.0443 28.2063C22.9536 28.2516 22.8743 28.3168 22.812 28.3968C22.6892 28.5835 22.581 28.7793 22.4883 28.9826C22.0306 28.399 21.4486 27.9246 20.7846 27.5939C20.1206 27.2633 19.3913 27.0847 18.6497 27.0711H18.6343C17.5552 27.0865 16.6919 27.5181 16.3065 28.2735C16.2292 28.4102 16.1671 28.5549 16.1215 28.7052C15.4954 27.891 14.5986 27.3277 13.5933 27.1173C13.3906 27.0739 13.1838 27.0532 12.9766 27.0556C12.0671 27.0556 11.2963 27.4719 10.88 28.2118C10.8298 28.2892 10.7885 28.3719 10.7567 28.4585C9.93966 25.9457 10.2634 23.2787 11.7125 21.7525C12.4062 21.0126 13.7937 20.6272 15.7207 20.6272C18.9118 20.6272 23.3208 21.6755 27.2364 23.3712C28.1321 23.7581 29.0974 23.9577 30.073 23.9577C31.0486 23.9577 32.0139 23.7581 32.9095 23.3712C36.8252 21.6755 41.2496 20.6272 44.4407 20.6272C46.3523 20.6272 47.7398 21.0126 48.4335 21.7525C49.8826 23.2941 50.2063 25.9457 49.3893 28.4585Z" fill="white"/>
<path d="M42.0204 42.3638C41.9401 42.5185 41.817 42.6469 41.6658 42.7337L40.8179 43.1962C40.6041 43.3025 40.4308 43.4757 40.3246 43.6895L39.8621 44.5374C39.7821 44.6792 39.6655 44.7969 39.5245 44.8782C39.3835 44.9596 39.2233 45.0016 39.0605 44.9999C38.8997 45.0021 38.7413 44.9602 38.6027 44.8787C38.464 44.7971 38.3504 44.6791 38.2743 44.5374L37.8118 43.6895C37.6956 43.4777 37.5183 43.3058 37.3031 43.1962L36.4706 42.7337C36.3652 42.6771 36.2721 42.6003 36.1964 42.5077C36.1208 42.415 36.0642 42.3084 36.0298 42.1938C35.9954 42.0793 35.984 41.9591 35.9962 41.8401C36.0083 41.7211 36.0438 41.6057 36.1006 41.5005C36.1963 41.3564 36.3226 41.2353 36.4706 41.1459L37.3031 40.6834C37.5147 40.5688 37.6907 40.3981 37.8118 40.1901L38.2743 39.3422C38.3497 39.1988 38.4627 39.0786 38.6012 38.9944C38.7397 38.9102 38.8984 38.8652 39.0605 38.8643C39.2245 38.8658 39.3851 38.9108 39.526 38.9948C39.6669 39.0787 39.7829 39.1986 39.8621 39.3422L40.3246 40.1901C40.4351 40.4008 40.6072 40.5729 40.8179 40.6834L41.6658 41.1459C41.7705 41.202 41.8627 41.2787 41.9369 41.3715C42.0111 41.4642 42.0657 41.571 42.0974 41.6855C42.1314 41.7978 42.1421 41.9159 42.1288 42.0325C42.1155 42.1492 42.0786 42.2619 42.0204 42.3638Z" fill="white"/>
<path d="M36.7172 17.729C36.6406 17.8695 36.522 17.9826 36.3781 18.0527L35.7923 18.3764C35.679 18.4405 35.5877 18.5372 35.5302 18.6539L35.2065 19.2397C35.1364 19.3708 35.0319 19.4802 34.9042 19.5563C34.7765 19.6323 34.6305 19.6721 34.4819 19.6714C34.3326 19.6757 34.1852 19.6374 34.0569 19.5609C33.9286 19.4845 33.8247 19.3731 33.7574 19.2397L33.4336 18.6539C33.3613 18.5432 33.2668 18.4487 33.1561 18.3764L32.5703 18.0527C32.4739 18.0054 32.3885 17.9384 32.3194 17.8561C32.2504 17.7738 32.1993 17.678 32.1695 17.5748C32.1371 17.4707 32.1258 17.3611 32.1364 17.2525C32.147 17.144 32.1792 17.0387 32.2312 16.9427C32.3112 16.8009 32.4285 16.6836 32.5703 16.6036L33.1561 16.2953C33.2668 16.223 33.3613 16.1285 33.4336 16.0178L33.7574 15.432C33.8247 15.2986 33.9286 15.1872 34.0569 15.1108C34.1852 15.0343 34.3326 14.996 34.4819 15.0003C34.6158 15.0014 34.7476 15.033 34.8673 15.0928C35.0081 15.1674 35.1255 15.2794 35.2065 15.4166L35.5302 16.0178C35.5928 16.1268 35.6832 16.2173 35.7923 16.2799L36.3781 16.6036C36.5706 16.7098 36.7143 16.8867 36.7789 17.0969C36.8113 17.201 36.8226 17.3106 36.812 17.4192C36.8014 17.5277 36.7692 17.6331 36.7172 17.729Z" fill="white"/>
<path d="M17.2776 40.2672C17.2027 40.4038 17.0904 40.5161 16.9539 40.5909L16.368 40.9147C16.2471 40.9735 16.1494 41.0712 16.0906 41.1922L15.7668 41.778C15.6967 41.909 15.5922 42.0184 15.4645 42.0945C15.3369 42.1706 15.1909 42.2104 15.0423 42.2096C14.8937 42.2104 14.7477 42.1706 14.62 42.0945C14.4923 42.0184 14.3878 41.909 14.3177 41.778L13.994 41.1922C13.9351 41.0712 13.8374 40.9735 13.7165 40.9147L13.1307 40.5909C12.9382 40.4847 12.7944 40.3078 12.7299 40.0976C12.6708 39.885 12.6985 39.6577 12.8069 39.4656C12.8818 39.329 12.9941 39.2167 13.1307 39.1418L13.7165 38.8181C13.8374 38.7592 13.9351 38.6615 13.994 38.5406L14.3177 37.9548C14.3878 37.8238 14.4923 37.7143 14.62 37.6383C14.7477 37.5622 14.8937 37.5224 15.0423 37.5231C15.1824 37.5277 15.3196 37.5647 15.4431 37.6311C15.5796 37.7059 15.692 37.8182 15.7668 37.9548L16.0906 38.556C16.1546 38.6693 16.2513 38.7606 16.368 38.8181L16.9539 39.1418C17.1451 39.249 17.2864 39.4273 17.347 39.638C17.4077 39.8487 17.3827 40.0748 17.2776 40.2672Z" fill="white"/>
</svg>
