<svg width="14" height="12" viewBox="0 0 14 12" fill="none" xmlns="http://www.w3.org/2000/svg">
<g clip-path="url(#clip0_832_26655)">
<path d="M12.2664 7.96832C12.3492 8.0371 12.4222 8.11647 12.539 8.06885C12.6559 8.02123 12.6851 7.90483 12.6851 7.78313C12.6899 7.37573 12.6899 6.96832 12.6948 6.5662C12.6948 6.53445 12.6802 6.50271 12.6656 6.40747C12.5196 6.70377 12.2908 6.69848 12.062 6.69848C12.062 6.95244 12.0766 7.19054 12.0571 7.42334C12.0376 7.65615 12.1009 7.82546 12.2664 7.96832Z" fill="#878687"/>
<path d="M12.2663 6.18508C12.2712 5.89937 12.2663 5.60836 12.2712 5.32265C12.2761 5.03443 12.207 4.75042 12.0716 4.50254C11.8428 4.06868 11.6578 4.07397 11.4193 4.49725C11.1175 5.04222 11.2538 5.63482 11.2148 6.22212H12.2517C12.2565 6.21748 12.2603 6.21176 12.2628 6.20536C12.2653 6.19896 12.2665 6.19204 12.2663 6.18508Z" fill="#878687"/>
<path d="M2.6529 2.65603C2.90116 2.46555 3.11535 2.2645 3.37334 2.12693C4.14247 1.70894 4.92619 1.76185 5.71479 2.0846C5.93744 2.18978 6.17128 2.26443 6.4109 2.30682C6.9853 2.40206 7.53537 2.26979 8.07571 2.06344C9.09309 1.6719 10.0667 1.76185 10.977 2.42852C11.1181 2.52905 11.2642 2.62958 11.4151 2.71952C11.6439 2.84651 11.9213 2.79889 12.1452 2.58196C12.0041 2.41793 11.8775 2.24333 11.7217 2.09518C11.3421 1.73539 10.8893 1.50259 10.4172 1.32799C8.28989 0.560792 6.1529 0.544919 4.0013 1.17984C3.45123 1.34386 2.93037 1.58196 2.46305 1.94174C2.22939 2.12164 2.02007 2.32799 1.87891 2.60312C2.12717 2.83063 2.40464 2.84651 2.6529 2.65603Z" fill="#878687"/>
<path d="M7.22804 7.15869C7.22804 7.52906 7.20857 7.89414 7.23777 8.24864C7.26698 8.60314 7.38381 8.7989 7.56392 9.02642C7.74403 9.25393 7.93875 9.27509 8.12859 9.02113C8.21633 8.90104 8.28992 8.76951 8.34765 8.62959C8.56183 8.15869 8.44501 7.65605 8.47421 7.15869H7.22804Z" fill="#878687"/>
<path d="M1.32325 3.88895C1.44981 4.09001 1.47415 4.13762 1.5569 4.26461C1.75649 3.96302 1.9512 3.67731 2.32603 3.71963C2.70085 3.76196 2.84689 4.08471 3.01727 4.38101C3.10489 4.25403 3.17304 4.13762 3.26066 4.0318C3.5722 3.65614 3.97137 3.60323 4.34619 3.89953C4.48736 4.01064 4.59932 4.16408 4.71615 4.30694C4.78345 4.40212 4.84368 4.50296 4.89626 4.60852C5.14453 4.14821 5.41713 3.71434 5.95746 3.71963C6.49779 3.72493 6.75579 4.16408 7.00405 4.60852C7.25718 4.14292 7.52492 3.71434 8.06038 3.71963C8.59585 3.72493 8.86358 4.15879 9.09237 4.57149C9.26275 4.35985 9.41365 4.12175 9.60836 3.94186C10.0075 3.57678 10.4505 3.64027 10.7815 4.07942C10.8545 4.17466 10.913 4.27519 10.9811 4.37572C11.3949 3.5662 11.9693 3.46038 12.4512 4.25932L12.68 3.89424C12.8066 3.69318 12.865 3.66672 13.0792 3.74609C13.1244 3.76134 13.1684 3.78081 13.2106 3.80429C13.2402 3.745 13.2599 3.68053 13.269 3.61381C13.2933 3.29635 13.3128 2.97889 13.3274 2.65614C13.3323 2.47096 13.2447 2.34397 13.1084 2.31223C12.9721 2.28048 12.8552 2.33868 12.7627 2.50799C12.349 3.27519 11.6723 3.45508 10.9811 2.98419C10.7426 2.82016 10.5089 2.65085 10.2558 2.52387C9.54995 2.17995 8.83437 2.24344 8.12853 2.52387C7.22311 2.88366 6.34202 2.88366 5.43173 2.47625C4.67234 2.14292 3.90322 2.20112 3.21685 2.77254C3.09515 2.87307 2.96859 2.97889 2.84202 3.07413C2.74307 3.15292 2.62979 3.20784 2.50974 3.23521C2.38969 3.26259 2.26565 3.26178 2.14592 3.23286C1.73215 3.14821 1.43034 2.89424 1.23076 2.49212C1.16261 2.34926 1.05064 2.2699 0.899741 2.31223C0.83746 2.32473 0.781275 2.36083 0.741169 2.41411C0.701063 2.46739 0.679633 2.5344 0.680687 2.60323C0.671765 2.85192 0.675015 3.10095 0.690422 3.34926C0.700158 3.5027 0.748837 3.65085 0.782912 3.80958C0.828156 3.78394 0.875396 3.76269 0.92408 3.74609C1.13827 3.66672 1.19668 3.68789 1.32325 3.88895Z" fill="#878687"/>
<path d="M10.7964 5.42855C10.8014 5.13363 10.7324 4.84281 10.5968 4.58728C10.3242 4.06347 10.0224 4.0476 9.6768 4.5185C9.24842 5.09522 9.31171 5.77247 9.32631 6.44972H10.7964C10.7964 6.09522 10.7915 5.76189 10.7964 5.42855Z" fill="#878687"/>
<path d="M9.23878 6.96298L8.90776 7.20637C8.90776 7.50796 8.88829 7.84129 8.91263 8.16933C8.93636 8.49318 9.05984 8.79889 9.26312 9.03706C9.4481 9.26457 9.61361 9.26986 9.79859 9.04235C10.0267 8.76783 10.1548 8.41224 10.1588 8.04235C10.1637 7.70901 10.1637 7.37568 10.1637 7.04235C10.1637 7.00531 10.1539 6.96827 10.1491 6.92065H9.33127C9.29789 6.92698 9.26627 6.94145 9.23878 6.96298Z" fill="#878687"/>
<path d="M11.439 8.61896C11.5314 8.52372 11.6239 8.36499 11.6288 8.23271C11.6531 7.73007 11.6385 7.22213 11.6385 6.69303C11.4097 6.7089 11.1858 6.61367 11.0203 6.84647C10.9814 6.89409 10.8889 6.90467 10.8159 6.91525C10.7399 6.92502 10.6633 6.92679 10.5871 6.92055V7.64541C10.5822 7.97875 10.6893 8.27504 10.8597 8.54488C11.03 8.81472 11.2296 8.8306 11.439 8.61896Z" fill="#878687"/>
<path d="M13.0212 4.24862L12.9725 4.23804C12.88 4.40206 12.7291 4.5555 12.7145 4.72481C12.6756 5.1428 12.6999 5.56608 12.6999 5.98936H13.1234C13.0747 5.40206 13.1964 4.81476 13.0212 4.24862Z" fill="#878687"/>
<path d="M8.89815 5.582C8.89247 5.14882 8.73793 4.73361 8.46491 4.41798C8.19231 4.08994 7.91484 4.08994 7.64224 4.42327C7.37226 4.74269 7.21979 5.15888 7.21387 5.59258V6.53968L7.22847 6.68253H8.89815C8.89815 6.30687 8.90302 5.94179 8.89815 5.582Z" fill="#878687"/>
<path d="M1.31411 5.02128C1.34332 4.70382 1.17295 4.4763 0.997703 4.20117C0.812724 4.82022 0.924685 5.40752 0.885742 6.00011H1.30925C1.30925 5.66149 1.28491 5.33874 1.31411 5.02128Z" fill="#878687"/>
<path d="M13.0696 8.0953C12.9723 8.31752 12.8311 8.46567 12.6218 8.52916C12.4125 8.59266 12.2275 8.51858 12.0474 8.3916C11.9403 8.8043 11.7115 9.06885 11.3464 9.17996C10.9813 9.29107 10.6795 9.08472 10.4751 8.75668C10.3582 8.95245 10.2657 9.14821 10.1392 9.31223C9.77895 9.78842 9.3019 9.78842 8.93194 9.32282C8.84432 9.20641 8.76157 9.08472 8.68368 8.95774C8.47923 9.31223 8.26991 9.67202 7.83667 9.66673C7.40343 9.66144 7.20385 9.29636 6.9994 8.94715C6.79008 9.31223 6.5905 9.66673 6.15726 9.66673C5.72401 9.66673 5.51956 9.30165 5.31998 8.95245C5.23723 9.07943 5.16908 9.20112 5.08632 9.30694C4.70176 9.79901 4.22471 9.79372 3.84502 9.29636C3.80121 9.23287 3.75739 9.16938 3.71845 9.10059C3.67951 9.03181 3.59675 8.85721 3.53347 8.71964C3.31929 9.05827 3.07102 9.30165 2.67186 9.18525C2.27269 9.06885 2.02443 8.75668 1.94168 8.29107C1.53765 8.56091 1.2115 8.46038 0.943765 8.06885C0.714975 8.39689 0.65656 8.75668 0.6809 9.13763C0.687548 9.2122 0.718648 9.28168 0.768522 9.3334C1.11414 9.67731 1.4695 10.0054 1.81025 10.3493C2.40413 10.9313 3.07589 11.2805 3.8937 11.2752C4.44463 11.2755 4.99311 11.1955 5.52443 11.0371C6.47837 10.74 7.48942 10.7364 8.44516 11.0265C8.98773 11.188 9.54742 11.2716 10.11 11.2752C11.0689 11.2858 11.8527 10.8995 12.4806 10.1059C12.6604 9.87427 12.8646 9.66649 13.0891 9.48684C13.2838 9.3334 13.352 9.16938 13.3325 8.9207C13.313 8.67202 13.2497 8.34398 13.0696 8.0953Z" fill="#878687"/>
<path d="M4.653 5.3333C4.61428 4.94191 4.43817 4.58183 4.16134 4.32801C3.92282 4.1005 3.73297 4.12166 3.53339 4.38621C3.32781 4.66619 3.21315 5.01218 3.20724 5.37034C3.20237 5.68251 3.20724 5.99468 3.20724 6.30155C3.20724 6.34917 3.21698 6.39679 3.21698 6.4497H4.66274C4.66274 6.06346 4.69194 5.69309 4.653 5.3333Z" fill="#878687"/>
<path d="M13.9996 9.01058C13.9753 8.31217 13.7708 7.7672 13.3619 7.34921C13.3571 7.12698 13.3571 6.90476 13.3571 6.67725C13.7319 6.51852 13.7757 6.18518 13.7757 6.03704C13.7757 5.65608 13.766 5.26455 13.7514 4.88889C13.7465 4.7037 13.7368 4.51852 13.7319 4.32804V4.2963C14.0191 3.77778 14.0045 3.20635 13.9947 2.7037C13.9947 2.66138 13.9899 2.56614 13.9899 2.56614C13.9798 2.2999 13.8754 2.04822 13.6985 1.8638C13.5215 1.67937 13.2858 1.5765 13.0406 1.57672C12.8139 1.57668 12.5946 1.6649 12.4224 1.8254C12.3028 1.69213 12.176 1.56669 12.0427 1.44974C11.5754 1.04762 11.0205 0.751323 10.3536 0.534392C9.27521 0.181113 8.15511 0.00107883 7.02882 0C6.0996 0.00240125 5.17363 0.119555 4.26874 0.349206C3.43147 0.560847 2.38487 0.920635 1.58168 1.8254C1.41416 1.66287 1.19774 1.57254 0.973192 1.57143C0.882638 1.57289 0.792642 1.58712 0.705459 1.61376C0.320897 1.73545 0.077503 2.02645 0.0434279 2.41799C-0.00525082 2.89947 -0.0636653 3.49735 0.179728 4.05291C0.243496 4.20892 0.267052 4.38083 0.247879 4.55026V4.56085C0.228407 4.86243 0.228407 5.15873 0.228407 5.44974C0.228407 5.57672 0.233275 5.7037 0.228407 5.83069C0.223539 6.30159 0.316029 6.50265 0.651912 6.66667C0.647044 6.76889 0.647044 6.87132 0.651912 6.97355C0.676251 7.28571 0.642176 7.42328 0.505876 7.5291C0.47199 7.5536 0.443689 7.58617 0.423122 7.62434H0.413386L0.40365 7.64021C0.121314 8.04762 -0.000382946 8.5291 0.0093528 9.19577C0.00669252 9.32397 0.0317301 9.45107 0.0824547 9.56685C0.133179 9.68263 0.208177 9.78387 0.301425 9.86243C0.685987 10.2169 1.06081 10.582 1.33828 10.8571C2.02465 11.545 2.74996 11.9153 3.5483 11.9841C3.69433 11.9947 3.84524 12 3.99614 12C4.57085 12.0011 5.14281 11.9138 5.69503 11.7407C6.12083 11.6081 6.56154 11.5404 7.00448 11.5397C7.44401 11.5387 7.8815 11.6046 8.30421 11.7354C8.88609 11.9104 9.48699 11.9993 10.0907 12H10.2027C11.3223 11.9841 12.2472 11.5185 12.9433 10.6243C13.1109 10.3907 13.3113 10.1871 13.5372 10.0212C13.8682 9.79365 14.0142 9.47619 13.9996 9.01058ZM13.4057 9.79894C13.138 9.98413 12.953 10.2011 12.7583 10.4497C12.0914 11.3069 11.2298 11.7196 10.1978 11.7354C9.57967 11.7463 8.9633 11.6608 8.36749 11.4815C7.4717 11.2029 6.52175 11.2047 5.62688 11.4868C4.95741 11.6989 4.25818 11.7778 3.5629 11.7196C2.75483 11.6508 2.08793 11.2487 1.50379 10.6614C1.15817 10.3228 0.807684 9.98413 0.452329 9.65608C0.387426 9.60249 0.335389 9.53265 0.300641 9.45251C0.265894 9.37237 0.249463 9.28429 0.252746 9.19577C0.243011 8.68783 0.311161 8.21164 0.598365 7.79894C0.612969 7.78307 0.622705 7.75661 0.637308 7.74603C0.895306 7.55026 0.914777 7.26455 0.890438 6.95238C0.880702 6.79894 0.890438 6.64021 0.890438 6.49206C0.520479 6.34391 0.462065 6.25926 0.466933 5.83598C0.471801 5.4127 0.457197 5 0.486404 4.58201C0.511149 4.36392 0.480861 4.14262 0.398783 3.9418C0.189464 3.46561 0.233275 2.94709 0.281954 2.44444C0.311161 2.14815 0.505876 1.95238 0.773609 1.86772C1.04134 1.78307 1.275 1.86772 1.47458 2.07937C1.51353 2.12169 1.5476 2.16931 1.58654 2.21693C2.30212 1.28042 3.28543 0.867725 4.32229 0.608466C6.31812 0.10582 8.30907 0.142857 10.2806 0.78836C10.8598 0.973545 11.4099 1.24339 11.8918 1.65608C12.0817 1.82011 12.2472 2.01587 12.4273 2.20106L12.5003 2.1164C12.6221 1.96174 12.7948 1.86514 12.9814 1.84733C13.168 1.82952 13.3535 1.89193 13.4982 2.02116C13.5735 2.08936 13.6345 2.17415 13.6773 2.26993C13.7201 2.36571 13.7437 2.47028 13.7465 2.57672C13.7562 3.13228 13.7952 3.69841 13.4982 4.20106C13.4788 4.2328 13.4885 4.28571 13.4885 4.33333C13.5031 4.89947 13.5323 5.4709 13.5323 6.03704C13.5323 6.30159 13.3522 6.42857 13.1137 6.47619C13.1137 6.79365 13.1137 7.10053 13.1185 7.4127C13.127 7.4554 13.1474 7.49421 13.1769 7.52381C13.5761 7.92593 13.7368 8.43386 13.7562 9.02116C13.766 9.37037 13.6735 9.61376 13.4057 9.79894Z" fill="#878687"/>
<path d="M5.78747 8.89414C6.03573 9.31213 6.27426 9.30684 6.53712 8.89414C6.88274 8.35975 6.77565 7.75657 6.78538 7.15869H5.52947C5.52947 7.44441 5.53434 7.71425 5.52947 7.98409C5.5246 8.25393 5.62196 8.61901 5.78747 8.89414Z" fill="#878687"/>
<path d="M4.24466 9.08988C4.40529 9.2539 4.55133 9.26449 4.6925 9.08459C4.82421 8.92062 4.93102 8.73486 5.00891 8.53433C5.18415 8.08988 5.07219 7.62427 5.1014 7.23274C4.72657 6.80417 4.28847 6.94173 3.86009 6.92057C3.86009 7.38089 3.83575 7.82004 3.86496 8.2539C3.89485 8.57315 4.02966 8.86996 4.24466 9.08988Z" fill="#878687"/>
<path d="M2.76907 5.1269C2.72616 4.86223 2.63692 4.60898 2.5062 4.38087C2.35043 4.09515 2.17032 4.09515 2.00968 4.38616C1.84904 4.67716 1.78089 4.85176 1.75168 5.10044C1.70787 5.46552 1.73708 5.84118 1.73708 6.22213H2.7788C2.7788 5.84647 2.81288 5.48139 2.76907 5.1269Z" fill="#878687"/>
<path d="M6.77107 5.3546C6.74187 4.92073 6.58123 4.67735 6.35244 4.40751C6.12365 4.13767 5.82184 4.09534 5.54924 4.40751C5.27664 4.71968 5.15981 4.96835 5.13547 5.31756C5.10626 5.762 5.1306 6.21174 5.1306 6.67735H6.77594C6.77594 6.2329 6.80028 5.78846 6.77107 5.3546Z" fill="#878687"/>
<path d="M1.32348 6.46558C1.32348 6.9206 1.31861 7.35976 1.32835 7.79891C1.32835 7.94177 1.51333 8.04759 1.60582 7.95235C1.69831 7.85711 1.88816 7.65605 1.9271 7.48145C1.96604 7.30685 1.9417 6.96822 1.9417 6.70367C1.82001 6.69309 1.70804 6.70367 1.60582 6.66663C1.50359 6.6296 1.43058 6.54494 1.32348 6.46558Z" fill="#878687"/>
<path d="M2.53598 8.58727C2.72583 8.78833 2.96436 8.85182 3.1396 8.52378L3.27103 8.2751C3.48522 7.85182 3.40247 7.3968 3.41707 6.96823C3.24669 6.91532 3.06171 6.91532 2.96436 6.81479C2.76964 6.61902 2.57006 6.71955 2.36561 6.69309C2.36561 7.21161 2.35101 7.70897 2.37048 8.20632C2.3849 8.34985 2.44317 8.48398 2.53598 8.58727Z" fill="#878687"/>
</g>
<defs>
<clipPath id="clip0_832_26655">
<rect width="14" height="12" fill="white"/>
</clipPath>
</defs>
</svg>
