<svg width="76" height="77" viewBox="0 0 76 77" fill="none" xmlns="http://www.w3.org/2000/svg">
<g filter="url(#filter0_d_324_9886)">
<rect x="6" y="6.5" width="60" height="60" rx="30" fill="white"/>
<g clip-path="url(#clip0_324_9886)">
<path d="M56.4272 43.901C56.3718 42.365 55.9013 41.0504 54.7667 39.985C54.6811 39.9088 54.6228 39.8067 54.6006 39.6944C54.5868 38.8779 54.6006 38.0754 54.6006 37.2451C55.2648 37.1206 55.7768 36.7885 55.7768 36.0966C55.7768 34.6159 55.7076 33.1215 55.6523 31.6409C55.6523 31.5302 55.6246 31.3779 55.6799 31.2949C56.524 29.9803 56.4272 28.4997 56.3857 27.0468C56.3685 26.6425 56.2296 26.2529 55.987 25.929C55.7445 25.6051 55.4097 25.3622 55.0266 25.232C54.6435 25.1018 54.23 25.0905 53.8404 25.1995C53.4507 25.3085 53.1031 25.5328 52.8432 25.8429L52.6495 26.0643C52.1237 25.58 51.6532 25.068 51.1135 24.639C49.7574 23.5597 48.1938 22.8678 46.5471 22.3696C40.9429 20.6814 35.2833 20.5846 29.596 21.8992C26.6486 22.5772 23.8672 23.6565 21.8192 26.1058C21.7206 25.9795 21.6143 25.8594 21.501 25.746C20.9475 25.1925 20.2833 24.9711 19.5222 25.1925C18.7611 25.4139 18.1938 25.9259 18.1108 26.7008C17.9724 28.0154 17.8617 29.3715 18.4429 30.6169C18.6876 31.1436 18.7788 31.7288 18.7058 32.3051C18.6089 33.3844 18.6504 34.4776 18.6366 35.5707C18.6227 36.6639 18.7888 36.8992 19.8405 37.2866C19.8245 37.6925 19.8291 38.0989 19.8543 38.5043C19.9235 39.3069 19.8543 40.0541 19.1209 40.5661L19.0102 40.7045C18.1938 41.7977 18.0139 43.0292 18.0277 44.3576C18.0207 44.5888 18.0684 44.8184 18.167 45.0276C18.2656 45.2369 18.4123 45.4198 18.5951 45.5615C19.6052 46.4333 20.6015 47.3051 21.584 48.1907C23.2584 49.7267 25.1403 50.7783 27.4373 50.9582C29.4182 51.1028 31.4091 50.8967 33.3183 50.3493C35.8574 49.6114 38.5534 49.6066 41.0951 50.3355C42.7933 50.8051 44.5501 51.0288 46.3119 50.9997C49.2316 50.972 51.6809 49.8927 53.5766 47.6372C54.1034 46.9828 54.7235 46.4093 55.417 45.9351C56.1919 45.4508 56.4548 44.8281 56.4272 43.901ZM19.5499 30.2709C19.4392 29.8558 19.3008 29.4683 19.2731 29.0671C19.2293 28.4176 19.2201 27.7663 19.2454 27.1159C19.2396 26.9352 19.2994 26.7585 19.414 26.6185C19.5285 26.4786 19.6898 26.3849 19.8681 26.3549C20.3109 26.258 20.6154 26.4517 20.8229 26.8254C21.3903 27.877 22.2344 28.5412 23.4244 28.7626C23.7624 28.8408 24.1134 28.8442 24.4528 28.7725C24.7922 28.7008 25.1119 28.5557 25.3894 28.3475C25.763 28.0984 26.1089 27.8355 26.4687 27.5588C28.406 26.0643 30.5923 25.9121 32.751 26.7977C35.3386 27.8493 37.8432 27.8493 40.4309 26.9084C42.4373 26.1888 44.4576 26.0089 46.4641 26.9084C47.1786 27.261 47.8676 27.6633 48.5259 28.1123C50.5047 29.3438 52.4143 28.8872 53.6043 26.8669C53.8672 26.4241 54.1716 26.258 54.5729 26.3549C54.9742 26.4517 55.2095 26.77 55.1956 27.2543C55.1679 28.0984 55.0988 28.9287 55.0296 29.7728C54.9929 29.94 54.9372 30.1025 54.8635 30.2571C54.7435 30.1958 54.6185 30.1449 54.4899 30.1049C53.8949 29.8973 53.715 29.9665 53.3552 30.4923L52.7187 31.4471C51.3488 29.3576 49.7021 29.6344 48.5397 31.7516C48.346 31.4886 48.1661 31.2257 47.9724 30.9766C47.0176 29.8281 45.7722 29.6759 44.6237 30.6307C44.0702 31.0873 43.6412 31.71 43.1569 32.2635C42.5065 31.1842 41.7454 30.0357 40.2233 30.0357C38.7012 30.0357 37.9401 31.1427 37.2205 32.3604C36.5148 31.1981 35.7537 30.0357 34.2454 30.0357C32.7371 30.0357 31.9346 31.1565 31.2288 32.3604C31.0826 32.0824 30.9112 31.8184 30.7168 31.5717C30.4093 31.1765 30.0563 30.8188 29.6652 30.5062C28.5997 29.7313 27.465 29.8696 26.5794 30.8521C26.3441 31.1289 26.1366 31.4471 25.9013 31.7654C25.4032 30.9905 24.9465 30.1602 23.9226 30.0357C22.8986 29.9112 22.3036 30.6722 21.7501 31.4748L21.072 30.4923C20.7261 29.9527 20.5462 29.8973 19.9512 30.1049L19.5499 30.2709ZM54.5314 45.1187C53.8919 45.592 53.3071 46.135 52.7879 46.7377C51.0167 48.8134 48.775 49.8235 46.0489 49.7958C44.4538 49.7942 42.8664 49.5754 41.3303 49.1455C38.6088 48.3869 35.7303 48.3965 33.0139 49.1731C31.5037 49.5883 29.9445 49.7978 28.3783 49.7958C26.0674 49.8235 24.144 48.8964 22.4696 47.3743C21.4871 46.4748 20.477 45.6169 19.4945 44.7174C19.3556 44.5801 19.2678 44.3995 19.2454 44.2054C19.1901 43.2091 19.3561 42.2682 20.0065 41.4102C20.7676 42.4481 21.6809 42.6971 22.8294 41.9914C23.0646 43.2091 23.7288 44.0117 24.905 44.33C26.0812 44.6482 26.7454 43.9979 27.3543 43.1261C27.548 43.472 27.7141 43.8041 27.894 44.1086C27.9965 44.2908 28.117 44.4624 28.2537 44.6206C29.3192 45.9213 30.6892 45.9351 31.7823 44.6482C32.0176 44.3715 32.1975 44.0532 32.4327 43.7211C33.0139 44.6344 33.5812 45.5892 34.8266 45.5892C36.072 45.5892 36.6255 44.6621 37.2067 43.7073C37.8017 44.6206 38.3691 45.5754 39.5868 45.5892C40.8045 45.603 41.4133 44.6621 41.9945 43.735C42.2436 44.0671 42.4512 44.3992 42.7002 44.6897C43.7519 45.9213 45.108 45.9213 46.132 44.6621C46.4917 44.2331 46.7547 43.7211 47.0868 43.2091C47.6818 44.0671 48.429 44.6344 49.5637 44.3161C50.6984 43.9979 51.2519 43.3337 51.5563 42.2543C52.0683 42.5864 52.5941 42.7663 53.1892 42.6141C53.7842 42.4619 54.1855 42.0606 54.4622 41.4794C54.9742 42.1436 55.1403 42.8632 55.2095 43.6381C55.2786 44.413 55.0711 44.7174 54.5314 45.1187Z" fill="#161616"/>
</g>
</g>
<defs>
<filter id="filter0_d_324_9886" x="0" y="0.5" width="76" height="76" filterUnits="userSpaceOnUse" color-interpolation-filters="sRGB">
<feFlood flood-opacity="0" result="BackgroundImageFix"/>
<feColorMatrix in="SourceAlpha" type="matrix" values="0 0 0 0 0 0 0 0 0 0 0 0 0 0 0 0 0 0 127 0" result="hardAlpha"/>
<feOffset dx="2" dy="2"/>
<feGaussianBlur stdDeviation="4"/>
<feComposite in2="hardAlpha" operator="out"/>
<feColorMatrix type="matrix" values="0 0 0 0 0 0 0 0 0 0 0 0 0 0 0 0 0 0 0.04 0"/>
<feBlend mode="normal" in2="BackgroundImageFix" result="effect1_dropShadow_324_9886"/>
<feBlend mode="normal" in="SourceGraphic" in2="effect1_dropShadow_324_9886" result="shape"/>
</filter>
<clipPath id="clip0_324_9886">
<rect width="38.4271" height="30" fill="white" transform="translate(18 21)"/>
</clipPath>
</defs>
</svg>
