<svg width="20" height="24" viewBox="0 0 20 24" fill="none" xmlns="http://www.w3.org/2000/svg">
<g clip-path="url(#clip0_1420_5562)">
<path d="M17.5246 13.9683C17.6428 14.0371 17.7471 14.1165 17.914 14.0688C18.0809 14.0212 18.1226 13.9048 18.1226 13.7831C18.1296 13.3757 18.1296 12.9683 18.1366 12.5662C18.1366 12.5345 18.1157 12.5027 18.0948 12.4075C17.8862 12.7038 17.5594 12.6985 17.2325 12.6985C17.2325 12.9524 17.2534 13.1905 17.2256 13.4233C17.1978 13.6561 17.2882 13.8255 17.5246 13.9683Z" fill="white"/>
<path d="M17.5245 12.1851C17.5315 11.8994 17.5245 11.6084 17.5315 11.3226C17.5385 11.0344 17.4398 10.7504 17.2464 10.5025C16.9195 10.0687 16.6553 10.074 16.3145 10.4972C15.8834 11.0422 16.0781 11.6348 16.0225 12.2221H17.5037C17.5105 12.2175 17.5159 12.2118 17.5195 12.2054C17.5231 12.199 17.5248 12.192 17.5245 12.1851Z" fill="white"/>
<path d="M3.79027 8.65603C4.14493 8.46555 4.45091 8.2645 4.81948 8.12693C5.91823 7.70894 7.03784 7.76185 8.1644 8.0846C8.48248 8.18978 8.81653 8.26443 9.15884 8.30682C9.97942 8.40206 10.7652 8.26979 11.5371 8.06344C12.9906 7.6719 14.3814 7.76185 15.6818 8.42852C15.8835 8.52905 16.0921 8.62958 16.3077 8.71952C16.6345 8.84651 17.0309 8.79889 17.3508 8.58196C17.1491 8.41793 16.9683 8.24333 16.7458 8.09518C16.2033 7.73539 15.5566 7.50259 14.8821 7.32799C11.8431 6.56079 8.79027 6.54492 5.71656 7.17984C4.93075 7.34386 4.18666 7.58196 3.51906 7.94174C3.18527 8.12164 2.88624 8.32799 2.68457 8.60312C3.03923 8.83063 3.43561 8.84651 3.79027 8.65603Z" fill="white"/>
<path d="M10.3274 13.1587C10.3274 13.5291 10.2996 13.8941 10.3414 14.2486C10.3831 14.6031 10.55 14.7989 10.8073 15.0264C11.0646 15.2539 11.3427 15.2751 11.614 15.0211C11.7393 14.901 11.8444 14.7695 11.9269 14.6296C12.2329 14.1587 12.066 13.656 12.1077 13.1587H10.3274Z" fill="white"/>
<path d="M1.89175 9.88895C2.07255 10.09 2.10732 10.1376 2.22554 10.2646C2.51066 9.96302 2.78883 9.67731 3.32429 9.71963C3.85976 9.76196 4.06838 10.0847 4.31177 10.381C4.43695 10.254 4.53431 10.1376 4.65948 10.0318C5.10454 9.65614 5.67478 9.60323 6.21024 9.89953C6.41191 10.0106 6.57186 10.1641 6.73876 10.3069C6.83489 10.4021 6.92093 10.503 6.99606 10.6085C7.35072 10.1482 7.74015 9.71434 8.51205 9.71963C9.28396 9.72493 9.65253 10.1641 10.0072 10.6085C10.3688 10.1429 10.7513 9.71434 11.5162 9.71963C12.2812 9.72493 12.6637 10.1588 12.9905 10.5715C13.2339 10.3598 13.4495 10.1218 13.7276 9.94186C14.2979 9.57678 14.9307 9.64027 15.4036 10.0794C15.5079 10.1747 15.5913 10.2752 15.6887 10.3757C16.2798 9.5662 17.1004 9.46038 17.7888 10.2593L18.1157 9.89424C18.2965 9.69318 18.3799 9.66672 18.6859 9.74609C18.7506 9.76134 18.8134 9.78081 18.8737 9.80429C18.9159 9.745 18.9442 9.68053 18.9571 9.61381C18.9919 9.29635 19.0197 8.97889 19.0406 8.65614C19.0475 8.47096 18.9223 8.34397 18.7276 8.31223C18.5329 8.28048 18.366 8.33868 18.2339 8.50799C17.6428 9.27519 16.6762 9.45508 15.6887 8.98419C15.3479 8.82016 15.0141 8.65085 14.6525 8.52387C13.6442 8.17995 12.6219 8.24344 11.6136 8.52387C10.3201 8.88366 9.06143 8.88366 7.76101 8.47625C6.67617 8.14292 5.57742 8.20112 4.59689 8.77254C4.42304 8.87307 4.24223 8.97889 4.06143 9.07413C3.92007 9.15292 3.75823 9.20784 3.58674 9.23521C3.41525 9.26259 3.23804 9.26178 3.06699 9.23286C2.47589 9.14821 2.04474 8.89424 1.75962 8.49212C1.66226 8.34926 1.50232 8.2699 1.28674 8.31223C1.19777 8.32473 1.1175 8.36083 1.06021 8.41411C1.00291 8.46739 0.972299 8.5344 0.973805 8.60323C0.961059 8.85192 0.965702 9.10095 0.987713 9.34926C1.00162 9.5027 1.07116 9.65085 1.11984 9.80958C1.18448 9.78394 1.25196 9.76269 1.32151 9.74609C1.62749 9.66672 1.71094 9.68789 1.89175 9.88895Z" fill="white"/>
<path d="M15.4247 11.4286C15.4318 11.1336 15.3332 10.8428 15.1396 10.5873C14.7501 10.0635 14.319 10.0476 13.8253 10.5185C13.2133 11.0952 13.3037 11.7725 13.3246 12.4497H15.4247C15.4247 12.0952 15.4177 11.7619 15.4247 11.4286Z" fill="white"/>
<path d="M13.1992 12.963L12.7264 13.2064C12.7264 13.508 12.6985 13.8413 12.7333 14.1693C12.7672 14.4932 12.9436 14.7989 13.234 15.0371C13.4983 15.2646 13.7347 15.2699 13.999 15.0423C14.3249 14.7678 14.5078 14.4122 14.5136 14.0423C14.5205 13.709 14.5205 13.3757 14.5205 13.0423C14.5205 13.0053 14.5066 12.9683 14.4997 12.9207H13.3314C13.2837 12.927 13.2385 12.9414 13.1992 12.963Z" fill="white"/>
<path d="M16.3422 14.619C16.4743 14.5237 16.6065 14.365 16.6134 14.2327C16.6482 13.7301 16.6273 13.2221 16.6273 12.693C16.3005 12.7089 15.9806 12.6137 15.7441 12.8465C15.6885 12.8941 15.5564 12.9047 15.4521 12.9153C15.3436 12.925 15.2341 12.9268 15.1252 12.9205V13.6454C15.1183 13.9787 15.2713 14.275 15.5147 14.5449C15.7581 14.8147 16.0432 14.8306 16.3422 14.619Z" fill="white"/>
<path d="M18.6025 10.2486L18.533 10.238C18.4008 10.4021 18.1853 10.5555 18.1644 10.7248C18.1088 11.1428 18.1435 11.5661 18.1435 11.9894H18.7486C18.679 11.4021 18.8529 10.8148 18.6025 10.2486Z" fill="white"/>
<path d="M12.7128 11.582C12.7046 11.1488 12.4839 10.7336 12.0938 10.418C11.7044 10.0899 11.308 10.0899 10.9186 10.4233C10.5329 10.7427 10.3151 11.1589 10.3066 11.5926V12.5397L10.3275 12.6825H12.7128C12.7128 12.3069 12.7197 11.9418 12.7128 11.582Z" fill="white"/>
<path d="M1.87759 11.0213C1.91931 10.7038 1.67592 10.4763 1.42557 10.2012C1.16131 10.8202 1.32126 11.4075 1.26562 12.0001H1.87063C1.87063 11.6615 1.83586 11.3387 1.87759 11.0213Z" fill="white"/>
<path d="M18.6723 14.0953C18.5332 14.3175 18.3315 14.4657 18.0325 14.5292C17.7335 14.5927 17.4692 14.5186 17.2119 14.3916C17.0589 14.8043 16.7321 15.0688 16.2105 15.18C15.689 15.2911 15.2578 15.0847 14.9658 14.7567C14.7989 14.9524 14.6667 15.1482 14.4859 15.3122C13.9713 15.7884 13.2898 15.7884 12.7613 15.3228C12.6361 15.2064 12.5179 15.0847 12.4067 14.9577C12.1146 15.3122 11.8156 15.672 11.1966 15.6667C10.5777 15.6614 10.2926 15.2964 10.0005 14.9472C9.70151 15.3122 9.41639 15.6667 8.79747 15.6667C8.17856 15.6667 7.88649 15.3017 7.60137 14.9524C7.48315 15.0794 7.38579 15.2011 7.26757 15.3069C6.7182 15.799 6.0367 15.7937 5.49428 15.2964C5.43169 15.2329 5.3691 15.1694 5.31347 15.1006C5.25784 15.0318 5.13962 14.8572 5.04921 14.7196C4.74323 15.0583 4.38857 15.3017 3.81834 15.1853C3.2481 15.0688 2.89344 14.7567 2.77522 14.2911C2.19803 14.5609 1.73211 14.4604 1.34963 14.0688C1.02279 14.3969 0.939339 14.7567 0.974109 15.1376C0.983606 15.2122 1.02803 15.2817 1.09928 15.3334C1.59302 15.6773 2.10067 16.0054 2.58746 16.3493C3.43586 16.9313 4.39553 17.2805 5.56382 17.2752C6.35087 17.2755 7.13441 17.1955 7.89344 17.0371C9.2562 16.74 10.7006 16.7364 12.0659 17.0265C12.841 17.188 13.6406 17.2716 14.4442 17.2752C15.8142 17.2858 16.9338 16.8995 17.8309 16.1059C18.0876 15.8743 18.3794 15.6665 18.7001 15.4868C18.9783 15.3334 19.0756 15.1694 19.0478 14.9207C19.02 14.672 18.9296 14.344 18.6723 14.0953Z" fill="white"/>
<path d="M6.64854 11.3333C6.59322 10.9419 6.34164 10.5818 5.94617 10.328C5.60542 10.1005 5.33421 10.1217 5.04909 10.3862C4.75541 10.6662 4.59161 11.0122 4.58317 11.3703C4.57621 11.6825 4.58317 11.9947 4.58317 12.3016C4.58317 12.3492 4.59708 12.3968 4.59708 12.4497H6.66245C6.66245 12.0635 6.70417 11.6931 6.64854 11.3333Z" fill="white"/>
<path d="M20.0004 15.0106C19.9657 14.3122 19.6736 13.7672 19.0894 13.3492C19.0825 13.127 19.0825 12.9048 19.0825 12.6772C19.618 12.5185 19.6805 12.1852 19.6805 12.037C19.6805 11.6561 19.6666 11.2646 19.6458 10.8889C19.6388 10.7037 19.6249 10.5185 19.618 10.328V10.2963C20.0282 9.77778 20.0074 9.20635 19.9935 8.7037C19.9935 8.66138 19.9865 8.56614 19.9865 8.56614C19.9722 8.2999 19.823 8.04822 19.5702 7.8638C19.3174 7.67937 18.9807 7.5765 18.6305 7.57672C18.3065 7.57668 17.9932 7.6649 17.7473 7.8254C17.5764 7.69213 17.3953 7.56669 17.2049 7.44974C16.5373 7.04762 15.7445 6.75132 14.7918 6.53439C13.2513 6.18111 11.6511 6.00108 10.0422 6C8.71469 6.0024 7.39188 6.11955 6.09918 6.34921C4.90307 6.56085 3.40794 6.92063 2.26051 7.8254C2.0212 7.66287 1.71203 7.57254 1.39125 7.57143C1.26189 7.57289 1.13332 7.58712 1.00877 7.61376C0.4594 7.73545 0.111695 8.02645 0.0630164 8.41799C-0.00652461 8.89947 -0.0899738 9.49735 0.257731 10.0529C0.348828 10.2089 0.38248 10.3808 0.355089 10.5503V10.5608C0.327272 10.8624 0.327272 11.1587 0.327272 11.4497C0.327272 11.5767 0.334226 11.7037 0.327272 11.8307C0.320318 12.3016 0.452446 12.5026 0.932279 12.6667C0.925325 12.7689 0.925325 12.8713 0.932279 12.9735C0.96705 13.2857 0.918371 13.4233 0.723656 13.5291C0.675248 13.5536 0.634817 13.5862 0.605436 13.6243H0.591528L0.57762 13.6402C0.174282 14.0476 0.000429496 14.5291 0.0143377 15.1958C0.0105373 15.324 0.0463052 15.4511 0.118769 15.5668C0.191233 15.6826 0.298372 15.7839 0.431584 15.8624C0.980958 16.2169 1.51642 16.582 1.91281 16.8571C2.89334 17.545 3.9295 17.9153 5.06997 17.9841C5.27859 17.9947 5.49417 18 5.70975 18C6.53076 18.0011 7.34785 17.9138 8.13673 17.7407C8.74503 17.6081 9.3746 17.5404 10.0074 17.5397C10.6353 17.5387 11.2603 17.6046 11.8641 17.7354C12.6954 17.9104 13.5538 17.9993 14.4163 18H14.5762C16.1757 17.9841 17.497 17.5185 18.4914 16.6243C18.7309 16.3907 19.0172 16.1871 19.3398 16.0212C19.8127 15.7937 20.0213 15.4762 20.0004 15.0106ZM19.152 15.7989C18.7696 15.9841 18.5053 16.2011 18.2271 16.4497C17.2744 17.3069 16.0435 17.7196 14.5693 17.7354C13.6862 17.7463 12.8057 17.6608 11.9545 17.4815C10.6748 17.2029 9.31777 17.2047 8.03937 17.4868C7.08298 17.6989 6.08409 17.7778 5.09083 17.7196C3.93645 17.6508 2.98374 17.2487 2.14925 16.6614C1.65551 16.3228 1.15481 15.9841 0.647161 15.6561C0.554442 15.6025 0.480103 15.5327 0.430464 15.4525C0.380825 15.3724 0.357352 15.2843 0.362043 15.1958C0.348135 14.6878 0.445492 14.2116 0.855784 13.7989C0.876646 13.7831 0.890555 13.7566 0.911417 13.746C1.27998 13.5503 1.3078 13.2645 1.27303 12.9524C1.25912 12.7989 1.27303 12.6402 1.27303 12.4921C0.744518 12.3439 0.661069 12.2593 0.668023 11.836C0.674977 11.4127 0.654115 11 0.69584 10.582C0.73119 10.3639 0.687921 10.1426 0.570666 9.9418C0.271639 9.46561 0.334226 8.94709 0.403767 8.44444C0.445492 8.14815 0.723656 7.95238 1.10613 7.86772C1.48861 7.78307 1.8224 7.86772 2.10752 8.07937C2.16316 8.12169 2.21183 8.16931 2.26747 8.21693C3.28972 7.28042 4.69445 6.86772 6.17567 6.60847C9.02685 6.10582 11.8711 6.14286 14.6875 6.78836C15.515 6.97354 16.3008 7.24339 16.9893 7.65608C17.2605 7.82011 17.497 8.01587 17.7543 8.20106L17.8586 8.1164C18.0325 7.96174 18.2793 7.86514 18.5458 7.84733C18.8123 7.82952 19.0774 7.89193 19.2842 8.02116C19.3916 8.08936 19.4788 8.17415 19.54 8.26993C19.6011 8.36571 19.6348 8.47028 19.6388 8.57672C19.6527 9.13228 19.7084 9.69841 19.2842 10.2011C19.2563 10.2328 19.2702 10.2857 19.2702 10.3333C19.2911 10.8995 19.3328 11.4709 19.3328 12.037C19.3328 12.3016 19.0755 12.4286 18.7348 12.4762C18.7348 12.7937 18.7348 13.1005 18.7417 13.4127C18.7538 13.4554 18.783 13.4942 18.8252 13.5238C19.3954 13.9259 19.6249 14.4339 19.6527 15.0212C19.6666 15.3704 19.5345 15.6138 19.152 15.7989Z" fill="white"/>
<path d="M8.26921 14.8941C8.62387 15.3121 8.96462 15.3068 9.34014 14.8941C9.83388 14.3597 9.68089 13.7566 9.6948 13.1587H7.90064C7.90064 13.4444 7.90759 13.7142 7.90064 13.9841C7.89369 14.2539 8.03277 14.619 8.26921 14.8941Z" fill="white"/>
<path d="M6.06393 15.0899C6.29342 15.2539 6.50204 15.2645 6.70371 15.0846C6.89187 14.9206 7.04445 14.7349 7.15573 14.5343C7.40608 14.0899 7.24613 13.6243 7.28786 13.2327C6.75239 12.8042 6.12652 12.9417 5.51456 12.9206C5.51456 13.3809 5.47979 13.82 5.52151 14.2539C5.56421 14.5731 5.7568 14.87 6.06393 15.0899Z" fill="white"/>
<path d="M3.95762 11.1269C3.89632 10.8622 3.76885 10.609 3.5821 10.3809C3.35957 10.0952 3.10227 10.0952 2.87278 10.3862C2.6433 10.6772 2.54594 10.8518 2.50421 11.1004C2.44163 11.4655 2.48335 11.8412 2.48335 12.2221H3.97153C3.97153 11.8465 4.02021 11.4814 3.95762 11.1269Z" fill="white"/>
<path d="M9.67352 11.3546C9.6318 10.9207 9.40231 10.6773 9.07547 10.4075C8.74863 10.1377 8.31747 10.0953 7.92804 10.4075C7.53861 10.7197 7.37171 10.9684 7.33694 11.3176C7.29522 11.762 7.32999 12.2117 7.32999 12.6773H9.68047C9.68047 12.2329 9.71525 11.7885 9.67352 11.3546Z" fill="white"/>
<path d="M1.89139 12.4656C1.89139 12.9206 1.88443 13.3598 1.89834 13.7989C1.89834 13.9418 2.1626 14.0476 2.29472 13.9523C2.42685 13.8571 2.69806 13.6561 2.7537 13.4814C2.80933 13.3068 2.77456 12.9682 2.77456 12.7037C2.60071 12.6931 2.44076 12.7037 2.29472 12.6666C2.14869 12.6296 2.04438 12.5449 1.89139 12.4656Z" fill="white"/>
<path d="M3.62297 14.5873C3.89418 14.7883 4.23494 14.8518 4.48528 14.5238L4.67304 14.2751C4.97902 13.8518 4.8608 13.3968 4.88167 12.9682C4.63827 12.9153 4.37402 12.9153 4.23494 12.8148C3.95677 12.619 3.67165 12.7195 3.37958 12.6931C3.37958 13.2116 3.35872 13.709 3.38653 14.2063C3.40713 14.3499 3.49038 14.484 3.62297 14.5873Z" fill="white"/>
</g>
<defs>
<clipPath id="clip0_1420_5562">
<rect width="20" height="12" fill="white" transform="translate(0 6)"/>
</clipPath>
</defs>
</svg>
