<svg width="38" height="38" viewBox="0 0 38 38" fill="none" xmlns="http://www.w3.org/2000/svg">
<rect x="-0.40625" y="0.40625" width="37.1875" height="37.1875" rx="18.5938" transform="matrix(-1 0 0 1 37.1875 0)" stroke="#5C5C5C" stroke-width="0.8125"/>
<g clip-path="url(#clip0_26_22586)">
<path d="M25.7719 21.5307C25.8783 21.6192 25.9722 21.7212 26.1224 21.66C26.2726 21.5988 26.3102 21.4491 26.3102 21.2926C26.3164 20.7688 26.3164 20.245 26.3227 19.728C26.3227 19.6872 26.3039 19.6464 26.2851 19.5239C26.0974 19.9049 25.8032 19.8981 25.5091 19.8981C25.5091 20.2246 25.5278 20.5307 25.5028 20.83C25.4778 21.1294 25.5591 21.3471 25.7719 21.5307Z" fill="#A2A2A2"/>
<path d="M25.7719 19.2381C25.7781 18.8708 25.7719 18.4966 25.7781 18.1293C25.7844 17.7587 25.6956 17.3936 25.5215 17.0749C25.2274 16.517 24.9895 16.5238 24.6828 17.0681C24.2948 17.7687 24.4701 18.5307 24.42 19.2858H25.7531C25.7592 19.2798 25.7641 19.2724 25.7673 19.2642C25.7706 19.256 25.7721 19.2471 25.7719 19.2381Z" fill="#A2A2A2"/>
<path d="M13.411 14.7008C13.7302 14.4559 14.0055 14.1974 14.3373 14.0205C15.3261 13.4831 16.3338 13.5511 17.3477 13.9661C17.634 14.1013 17.9346 14.1973 18.2427 14.2518C18.9812 14.3743 19.6884 14.2042 20.3831 13.9389C21.6912 13.4355 22.943 13.5511 24.1133 14.4083C24.2948 14.5375 24.4826 14.6668 24.6766 14.7824C24.9708 14.9457 25.3275 14.8845 25.6154 14.6055C25.4339 14.3947 25.2712 14.1702 25.0709 13.9797C24.5827 13.5171 24.0007 13.2178 23.3936 12.9933C20.6585 12.0069 17.911 11.9865 15.1446 12.8028C14.4374 13.0137 13.7677 13.3198 13.1669 13.7824C12.8665 14.0137 12.5973 14.279 12.4158 14.6328C12.735 14.9253 13.0918 14.9457 13.411 14.7008Z" fill="#A2A2A2"/>
<path d="M19.2941 20.4897C19.2941 20.9659 19.2691 21.4353 19.3066 21.8911C19.3442 22.3469 19.4944 22.5986 19.726 22.8911C19.9575 23.1836 20.2079 23.2108 20.452 22.8843C20.5648 22.7299 20.6594 22.5608 20.7336 22.3809C21.009 21.7755 20.8588 21.1292 20.8964 20.4897H19.2941Z" fill="#A2A2A2"/>
<path d="M11.7023 16.2855C11.8651 16.544 11.8963 16.6052 12.0027 16.7685C12.2594 16.3807 12.5097 16.0134 12.9916 16.0678C13.4735 16.1222 13.6613 16.5372 13.8804 16.9182C13.993 16.7549 14.0806 16.6052 14.1933 16.4692C14.5938 15.9862 15.1071 15.9182 15.589 16.2991C15.7705 16.442 15.9144 16.6393 16.0646 16.8229C16.1512 16.9453 16.2286 17.075 16.2962 17.2107C16.6154 16.6188 16.9659 16.061 17.6606 16.0678C18.3553 16.0746 18.687 16.6393 19.0062 17.2107C19.3317 16.612 19.6759 16.061 20.3644 16.0678C21.0528 16.0746 21.397 16.6324 21.6912 17.1631C21.9103 16.891 22.1043 16.5848 22.3546 16.3535C22.8678 15.8841 23.4374 15.9658 23.863 16.5304C23.9568 16.6529 24.032 16.7821 24.1196 16.9114C24.6516 15.8705 25.3901 15.7345 26.0097 16.7617L26.3039 16.2923C26.4666 16.0338 26.5417 15.9998 26.8171 16.1018C26.8753 16.1214 26.9318 16.1465 26.9861 16.1767C27.0241 16.1004 27.0495 16.0175 27.0612 15.9318C27.0925 15.5236 27.1175 15.1154 27.1363 14.7005C27.1425 14.4624 27.0299 14.2991 26.8546 14.2583C26.6794 14.2175 26.5292 14.2923 26.4103 14.51C25.8783 15.4964 25.0083 15.7277 24.1196 15.1222C23.8129 14.9114 23.5125 14.6937 23.187 14.5304C22.2795 14.0882 21.3595 14.1699 20.452 14.5304C19.2879 14.993 18.155 14.993 16.9847 14.4692C16.0083 14.0406 15.0194 14.1154 14.137 14.8501C13.9805 14.9794 13.8178 15.1154 13.655 15.2379C13.5278 15.3392 13.3822 15.4098 13.2278 15.445C13.0735 15.4802 12.914 15.4792 12.76 15.442C12.2281 15.3331 11.84 15.0066 11.5834 14.4896C11.4958 14.3059 11.3518 14.2039 11.1578 14.2583C11.0777 14.2744 11.0055 14.3208 10.9539 14.3893C10.9024 14.4578 10.8748 14.544 10.8762 14.6324C10.8647 14.9522 10.8689 15.2724 10.8887 15.5916C10.9012 15.7889 10.9638 15.9794 11.0076 16.1835C11.0658 16.1505 11.1265 16.1232 11.1891 16.1018C11.4645 15.9998 11.5396 16.027 11.7023 16.2855Z" fill="#A2A2A2"/>
<path d="M23.8817 18.265C23.8882 17.8858 23.7994 17.5119 23.6251 17.1834C23.2747 16.5099 22.8866 16.4895 22.4422 17.0949C21.8915 17.8364 21.9728 18.7072 21.9916 19.5779H23.8817C23.8817 19.1221 23.8755 18.6936 23.8817 18.265Z" fill="#A2A2A2"/>
<path d="M21.879 20.238L21.4534 20.5509C21.4534 20.9387 21.4284 21.3673 21.4596 21.789C21.4902 22.2054 21.6489 22.5985 21.9103 22.9047C22.1481 23.1972 22.3609 23.204 22.5987 22.9115C22.892 22.5585 23.0567 22.1014 23.0619 21.6258C23.0681 21.1972 23.0681 20.7686 23.0681 20.3401C23.0681 20.2924 23.0556 20.2448 23.0494 20.1836H21.9979C21.955 20.1917 21.9143 20.2103 21.879 20.238Z" fill="#A2A2A2"/>
<path d="M24.7079 22.3671C24.8268 22.2446 24.9457 22.0405 24.952 21.8705C24.9833 21.2242 24.9645 20.5711 24.9645 19.8909C24.6704 19.9113 24.3825 19.7888 24.1697 20.0881C24.1196 20.1494 24.0007 20.163 23.9068 20.1766C23.8092 20.1891 23.7107 20.1914 23.6126 20.1834V21.1154C23.6064 21.5439 23.7441 21.9249 23.9631 22.2718C24.1822 22.6188 24.4388 22.6392 24.7079 22.3671Z" fill="#A2A2A2"/>
<path d="M26.742 16.7485L26.6794 16.7349C26.5605 16.9457 26.3665 17.143 26.3477 17.3607C26.2976 17.8981 26.3289 18.4423 26.3289 18.9866H26.8734C26.8109 18.2315 26.9673 17.4764 26.742 16.7485Z" fill="#A2A2A2"/>
<path d="M21.4409 18.4625C21.4336 17.9055 21.2349 17.3717 20.8839 16.9659C20.5334 16.5441 20.1766 16.5441 19.8262 16.9727C19.479 17.3834 19.283 17.9185 19.2754 18.4761V19.6938L19.2942 19.8774H21.4409C21.4409 19.3944 21.4472 18.9251 21.4409 18.4625Z" fill="#A2A2A2"/>
<path d="M11.6898 17.7414C11.7274 17.3333 11.5083 17.0408 11.283 16.687C11.0452 17.4829 11.1891 18.238 11.139 18.9999H11.6835C11.6835 18.5646 11.6523 18.1496 11.6898 17.7414Z" fill="#A2A2A2"/>
<path d="M26.8046 21.6937C26.6794 21.9794 26.4979 22.1699 26.2288 22.2515C25.9597 22.3331 25.7218 22.2379 25.4903 22.0746C25.3526 22.6052 25.0584 22.9454 24.589 23.0882C24.1196 23.2311 23.7316 22.9658 23.4687 22.544C23.3185 22.7957 23.1996 23.0474 23.0368 23.2583C22.5737 23.8706 21.9604 23.8706 21.4847 23.2719C21.372 23.1223 21.2656 22.9658 21.1655 22.8025C20.9026 23.2583 20.6335 23.7209 20.0765 23.7141C19.5195 23.7073 19.2629 23.2379 19 22.7889C18.7309 23.2583 18.4743 23.7141 17.9172 23.7141C17.3602 23.7141 17.0973 23.2447 16.8407 22.7957C16.7343 22.959 16.6467 23.1154 16.5403 23.2515C16.0459 23.8842 15.4325 23.8774 14.9444 23.2379C14.888 23.1563 14.8317 23.0746 14.7816 22.9862C14.7316 22.8978 14.6252 22.6733 14.5438 22.4964C14.2684 22.9318 13.9492 23.2447 13.436 23.095C12.9228 22.9454 12.6036 22.544 12.4972 21.9454C11.9777 22.2923 11.5584 22.1631 11.2142 21.6597C10.92 22.0814 10.8449 22.544 10.8762 23.0338C10.8848 23.1297 10.9247 23.219 10.9889 23.2855C11.4332 23.7277 11.8901 24.1495 12.3282 24.5916C13.0918 25.3399 13.9555 25.7889 15.0069 25.7821C15.7153 25.7826 16.4205 25.6796 17.1036 25.476C18.3301 25.094 19.63 25.0893 20.8588 25.4624C21.5564 25.67 22.276 25.7775 22.9993 25.7821C24.2323 25.7957 25.2399 25.2991 26.0473 24.2787C26.2784 23.9809 26.541 23.7138 26.8296 23.4828C27.08 23.2855 27.1676 23.0746 27.1426 22.7549C27.1175 22.4352 27.0362 22.0134 26.8046 21.6937Z" fill="#A2A2A2"/>
<path d="M15.9833 18.1428C15.9335 17.6396 15.7071 17.1766 15.3512 16.8503C15.0445 16.5578 14.8004 16.585 14.5438 16.9251C14.2795 17.2851 14.1321 17.7299 14.1245 18.1904C14.1182 18.5918 14.1245 18.9932 14.1245 19.3877C14.1245 19.4489 14.137 19.5102 14.137 19.5782H15.9958C15.9958 19.0816 16.0334 18.6054 15.9833 18.1428Z" fill="#A2A2A2"/>
<path d="M27.9999 22.8707C27.9686 21.9727 27.7057 21.272 27.18 20.7346C27.1737 20.4489 27.1737 20.1632 27.1737 19.8707C27.6556 19.6666 27.712 19.238 27.712 19.0475C27.712 18.5578 27.6995 18.0544 27.6807 17.5714C27.6744 17.3333 27.6619 17.0952 27.6556 16.8503V16.8095C28.0249 16.1428 28.0061 15.4081 27.9936 14.7618C27.9936 14.7074 27.9874 14.585 27.9874 14.585C27.9744 14.2427 27.8402 13.9191 27.6127 13.682C27.3852 13.4448 27.0821 13.3126 26.7669 13.3129C26.4753 13.3128 26.1934 13.4262 25.9721 13.6326C25.8183 13.4612 25.6552 13.3 25.4839 13.1496C24.883 12.6326 24.1696 12.2516 23.3121 11.9727C21.9256 11.5185 20.4855 11.287 19.0374 11.2856C17.8427 11.2887 16.6522 11.4394 15.4887 11.7346C14.4123 12.0067 13.0666 12.4693 12.0339 13.6326C11.8186 13.4236 11.5403 13.3075 11.2516 13.3061C11.1352 13.3079 11.0195 13.3262 10.9074 13.3605C10.4129 13.5169 10.1 13.8911 10.0562 14.3945C9.99362 15.0135 9.91851 15.7822 10.2314 16.4965C10.3134 16.6971 10.3437 16.9181 10.3191 17.136V17.1496C10.294 17.5373 10.294 17.9183 10.294 18.2924C10.294 18.4557 10.3003 18.619 10.294 18.7822C10.2878 19.3877 10.4067 19.6462 10.8385 19.8571C10.8323 19.9885 10.8323 20.1202 10.8385 20.2516C10.8698 20.653 10.826 20.8299 10.6508 20.9659C10.6072 20.9974 10.5708 21.0393 10.5444 21.0884H10.5319L10.5193 21.1088C10.1563 21.6326 9.99987 22.2516 10.0124 23.1088C10.009 23.2736 10.0412 23.437 10.1064 23.5859C10.1716 23.7347 10.268 23.8649 10.3879 23.9659C10.8823 24.4217 11.3643 24.8911 11.721 25.2448C12.6035 26.1292 13.536 26.6054 14.5625 26.6938C14.7502 26.7074 14.9442 26.7142 15.1383 26.7142C15.8772 26.7156 16.6126 26.6034 17.3225 26.3809C17.87 26.2103 18.4366 26.1233 19.0061 26.1224C19.5712 26.1211 20.1337 26.2058 20.6772 26.3741C21.4253 26.599 22.1979 26.7134 22.9741 26.7142H23.1181C24.5576 26.6938 25.7467 26.0952 26.6417 24.9455C26.8573 24.6451 27.1149 24.3834 27.4053 24.17C27.8309 23.8775 28.0187 23.4693 27.9999 22.8707ZM27.2363 23.8843C26.8921 24.1224 26.6543 24.4013 26.4039 24.721C25.5465 25.8231 24.4387 26.3537 23.1118 26.3741C22.3171 26.388 21.5246 26.278 20.7586 26.0476C19.6068 25.6894 18.3855 25.6917 17.2349 26.0544C16.3742 26.3271 15.4752 26.4285 14.5812 26.3537C13.5423 26.2652 12.6849 25.7482 11.9338 24.9931C11.4894 24.5578 11.0388 24.1224 10.5819 23.7006C10.4985 23.6317 10.4316 23.5419 10.3869 23.4389C10.3422 23.3358 10.3211 23.2226 10.3253 23.1088C10.3128 22.4557 10.4004 21.8435 10.7697 21.3129C10.7885 21.2924 10.801 21.2584 10.8198 21.2448C11.1515 20.9931 11.1765 20.6258 11.1452 20.2244C11.1327 20.0271 11.1452 19.8231 11.1452 19.6326C10.6696 19.4421 10.5944 19.3333 10.6007 18.789C10.607 18.2448 10.5882 17.7142 10.6257 17.1768C10.6576 16.8964 10.6186 16.6119 10.5131 16.3537C10.244 15.7414 10.3003 15.0748 10.3629 14.4285C10.4004 14.0475 10.6508 13.7958 10.995 13.687C11.3392 13.5782 11.6397 13.687 11.8963 13.9591C11.9463 14.0135 11.9901 14.0748 12.0402 14.136C12.9602 12.9319 14.2245 12.4013 15.5576 12.068C18.1237 11.4217 20.6835 11.4693 23.2182 12.2993C23.963 12.5373 24.6702 12.8843 25.2899 13.4149C25.5339 13.6258 25.7467 13.8775 25.9783 14.1156L26.0722 14.0067C26.2288 13.8079 26.4508 13.6837 26.6907 13.6608C26.9306 13.6379 27.1692 13.7181 27.3552 13.8843C27.452 13.972 27.5304 14.081 27.5855 14.2041C27.6405 14.3273 27.6708 14.4617 27.6744 14.5986C27.6869 15.3129 27.737 16.0407 27.3552 16.687C27.3302 16.7278 27.3427 16.7958 27.3427 16.8571C27.3615 17.585 27.399 18.3197 27.399 19.0475C27.399 19.3877 27.1675 19.551 26.8608 19.6122C26.8608 20.0203 26.8608 20.4149 26.8671 20.8163C26.8779 20.8712 26.9042 20.9211 26.9422 20.9591C27.4554 21.4761 27.6619 22.1292 27.6869 22.8843C27.6995 23.3333 27.5805 23.6462 27.2363 23.8843Z" fill="#A2A2A2"/>
<path d="M17.4416 22.721C17.7607 23.2585 18.0674 23.2517 18.4054 22.721C18.8498 22.034 18.7121 21.2585 18.7246 20.4897H17.1098C17.1098 20.8571 17.1161 21.204 17.1098 21.551C17.1036 21.8979 17.2288 22.3673 17.4416 22.721Z" fill="#A2A2A2"/>
<path d="M15.4576 22.9728C15.6641 23.1837 15.8519 23.1973 16.0334 22.966C16.2027 22.7552 16.3401 22.5164 16.4402 22.2586C16.6655 21.6871 16.5216 21.0885 16.5591 20.5851C16.0772 20.0341 15.5139 20.2109 14.9632 20.1837C14.9632 20.7756 14.9319 21.3402 14.9694 21.898C15.0078 22.3085 15.1812 22.6901 15.4576 22.9728Z" fill="#A2A2A2"/>
<path d="M13.5612 17.8774C13.506 17.5371 13.3913 17.2115 13.2232 16.9182C13.0229 16.5509 12.7913 16.5509 12.5848 16.925C12.3783 17.2992 12.2906 17.5237 12.2531 17.8434C12.1968 18.3128 12.2343 18.7958 12.2343 19.2856H13.5737C13.5737 18.8026 13.6175 18.3332 13.5612 17.8774Z" fill="#A2A2A2"/>
<path d="M18.7058 18.1701C18.6683 17.6122 18.4617 17.2993 18.1676 16.9524C17.8734 16.6054 17.4854 16.551 17.1349 16.9524C16.7844 17.3537 16.6342 17.6735 16.6029 18.1224C16.5653 18.6939 16.5966 19.2721 16.5966 19.8707H18.7121C18.7121 19.2993 18.7434 18.7279 18.7058 18.1701Z" fill="#A2A2A2"/>
<path d="M11.7024 19.5986C11.7024 20.1837 11.6961 20.7483 11.7086 21.3129C11.7086 21.4966 11.9465 21.6326 12.0654 21.5102C12.1843 21.3877 12.4284 21.1292 12.4784 20.9048C12.5285 20.6803 12.4972 20.2449 12.4972 19.9048C12.3408 19.8911 12.1968 19.9048 12.0654 19.8571C11.9339 19.8095 11.8401 19.7007 11.7024 19.5986Z" fill="#A2A2A2"/>
<path d="M13.2608 22.3263C13.5049 22.5848 13.8116 22.6665 14.0369 22.2447L14.2058 21.925C14.4812 21.3807 14.3748 20.7957 14.3936 20.2447C14.1746 20.1767 13.9367 20.1767 13.8116 20.0474C13.5612 19.7957 13.3046 19.925 13.0417 19.8909C13.0417 20.5576 13.023 21.1971 13.048 21.8365C13.0665 22.0211 13.1415 22.1935 13.2608 22.3263Z" fill="#A2A2A2"/>
</g>
<defs>
<clipPath id="clip0_26_22586">
<rect width="18" height="15.4286" fill="white" transform="translate(10 11.2856)"/>
</clipPath>
</defs>
</svg>
