<svg width="76" height="77" viewBox="0 0 76 77" fill="none" xmlns="http://www.w3.org/2000/svg">
<g filter="url(#filter0_d_32_10060)">
<rect x="6" y="6.5" width="60" height="60" rx="30" fill="white"/>
<mask id="path-2-outside-1_32_10060" maskUnits="userSpaceOnUse" x="17" y="25.5" width="38" height="22" fill="black">
<rect fill="white" x="17" y="25.5" width="38" height="22"/>
<path d="M19.7283 37.3572C18.7429 37.099 18.5873 36.9514 18.6003 36.2135C18.6132 35.4756 18.5743 34.7561 18.6521 34.0275C18.718 33.6473 18.6374 33.2615 18.4187 32.9114C17.8612 32.0813 17.9779 31.1774 18.1075 30.3011C18.1853 29.7846 18.704 29.4433 19.4171 29.2957C20.1303 29.1481 20.7527 29.2957 21.2843 29.6647C21.388 29.7385 21.4788 29.8215 21.5825 29.9045C23.4885 28.2719 26.1077 27.5524 28.8695 27.1005C34.1857 26.2242 39.4889 26.2888 44.7402 27.4141C46.2832 27.7369 47.7484 28.2073 49.0321 28.9268C49.5378 29.2127 49.9786 29.554 50.4584 29.8768L50.6529 29.7292C50.8964 29.5225 51.2221 29.373 51.5872 29.3004C51.9523 29.2277 52.3398 29.2352 52.6988 29.322C53.0578 29.4088 53.3715 29.5708 53.5987 29.7866C53.826 30.0025 53.9562 30.2622 53.9722 30.5317C53.9982 31.5002 54.1019 32.4871 53.311 33.3634C53.2591 33.4187 53.285 33.5109 53.285 33.594C53.3239 34.5809 53.4017 35.577 53.4017 36.564C53.4017 37.0252 52.922 37.2465 52.2866 37.3295C52.2866 37.883 52.2866 38.4179 52.2996 38.9621C52.3174 39.0378 52.3726 39.1065 52.4552 39.1558C53.5184 39.8568 53.9463 40.7423 53.9982 41.7661C54.0241 42.3749 53.7777 42.7992 53.0646 43.122C52.3515 43.4448 51.8587 43.823 51.3401 44.2565C49.5637 45.7508 47.2687 46.4702 44.5198 46.4979C42.8733 46.5173 41.2314 46.3682 39.6445 46.0551C37.2584 45.5695 34.7281 45.5727 32.3445 46.0644C30.5599 46.4291 28.6987 46.5665 26.8468 46.4702C24.6944 46.3503 22.918 45.6493 21.3621 44.6255C20.4415 44.0352 19.5079 43.4448 18.5614 42.873C18.3876 42.7801 18.2484 42.6584 18.1558 42.5186C18.0632 42.3788 18.0199 42.2249 18.0297 42.0705C18.0038 41.185 18.1853 40.3549 18.9503 39.6355C18.9892 39.6078 19.0152 39.5617 19.0541 39.5432C19.7413 39.202 19.7931 38.7039 19.7283 38.1597C19.7024 37.8922 19.7283 37.6155 19.7283 37.3572ZM22.529 40.4933C21.4528 40.9637 20.5841 40.7884 19.8709 40.1059C19.2615 40.6777 19.1059 41.3049 19.1708 41.9691C19.1861 42.0995 19.2693 42.2212 19.4042 42.3103C20.3248 42.9099 21.2713 43.4817 22.1789 44.0813C23.7608 45.0959 25.5502 45.7046 27.7285 45.6954C29.196 45.696 30.657 45.5564 32.0722 45.2804C34.6131 44.7625 37.3062 44.7561 39.852 45.2619C41.297 45.5441 42.788 45.6898 44.2864 45.6954C46.8408 45.7139 48.9284 45.0405 50.601 43.657C51.0798 43.2532 51.6238 42.891 52.2218 42.5778C52.7404 42.3103 52.922 42.0244 52.8701 41.5909C52.8182 41.1574 52.6497 40.5855 52.1699 40.152C51.9106 40.5394 51.5346 40.7976 50.977 40.9083C50.4195 41.019 49.9268 40.8899 49.447 40.6685C49.1618 41.388 48.5523 41.8491 47.5799 42.0428C46.6074 42.2365 45.8035 41.8768 45.2589 41.3049C44.9477 41.6462 44.7014 41.9875 44.3642 42.2734C43.4047 43.1036 42.134 43.1036 41.1486 42.2919C40.9107 42.0892 40.6899 41.8767 40.4873 41.6554C39.9427 42.2734 39.3852 42.9006 38.2312 42.8914C37.0772 42.8822 36.5456 42.2458 36.001 41.637C35.4434 42.2734 34.9118 42.8914 33.7578 42.8914C32.6038 42.8914 32.0592 42.255 31.5276 41.6462C31.3072 41.8676 31.1257 42.0797 30.9052 42.2642C29.8809 43.122 28.6102 43.1128 27.5988 42.2458C27.4821 42.1351 27.3654 42.0244 27.2617 41.9045C27.158 41.7846 26.9376 41.4802 26.769 41.2404C26.1985 41.8307 25.5372 42.255 24.474 42.0521C23.4107 41.8491 22.7495 41.3049 22.529 40.4933ZM52.5459 32.6716C52.6171 32.566 52.6694 32.4544 52.7015 32.3395C52.7664 31.7861 52.8182 31.2327 52.8571 30.67C52.8701 30.3472 52.6367 30.1259 52.2737 30.0705C51.9106 30.0152 51.5994 30.1166 51.3531 30.4118C50.2509 31.7492 48.4486 32.0628 46.6074 31.2419C45.972 30.956 45.3497 30.6608 44.6754 30.4395C42.7953 29.8399 40.8893 29.9506 39.0092 30.4395C36.5974 31.0667 34.2505 31.0667 31.8258 30.3564C29.8031 29.7754 27.7544 29.8768 25.9262 30.873C25.602 31.0482 25.2649 31.2327 24.9278 31.3987C24.6631 31.5345 24.3613 31.6293 24.0419 31.6769C23.7226 31.7246 23.3927 31.7241 23.0736 31.6754C21.9715 31.5279 21.1676 31.0851 20.636 30.3841C20.4544 30.1351 20.1562 29.9967 19.7542 30.0705C19.5872 30.0905 19.436 30.153 19.3287 30.2463C19.2214 30.3395 19.1653 30.4573 19.1708 30.5778C19.147 31.0113 19.1557 31.4455 19.1967 31.8783C19.2226 32.1458 19.3523 32.4041 19.4431 32.6808C19.5647 32.6378 19.6903 32.6008 19.8191 32.5701C20.3896 32.4318 20.5452 32.4687 20.8823 32.8192C21.2194 33.1697 21.2843 33.2527 21.5047 33.474C22.0363 32.9483 22.555 32.4502 23.5534 32.524C24.5518 32.5978 24.9408 33.1604 25.3946 33.677C25.628 33.4556 25.8095 33.2527 26.0429 33.0682C26.8727 32.4133 27.936 32.3211 28.9344 32.8376C29.3104 33.0313 29.6086 33.2988 29.9198 33.5478C30.0931 33.7167 30.2532 33.8923 30.3996 34.0736C31.0608 33.2711 31.7869 32.5148 33.2262 32.524C34.6655 32.5332 35.3527 33.2988 36.014 34.0736C36.6882 33.2619 37.4013 32.5148 38.8276 32.524C40.2539 32.5332 40.9671 33.2896 41.5765 34.009C42.0303 33.6401 42.4323 33.225 42.9509 32.9114C44.0141 32.275 45.1941 32.3857 46.0758 33.1512C46.2703 33.3172 46.4259 33.4925 46.6074 33.6677C47.7095 32.2565 49.2395 32.072 50.5232 33.4648L51.1326 32.8284C51.4697 32.4779 51.6253 32.4318 52.1959 32.5701C52.3156 32.5984 52.4325 32.6323 52.5459 32.6716ZM22.3605 30.5778C23.0217 30.9744 23.7608 31.0021 24.4221 30.67C25.0834 30.338 25.6539 29.9875 26.3411 29.7477C28.3898 29.019 30.4774 29.1112 32.5779 29.6739C33.1731 29.853 33.7952 29.983 34.4321 30.0613C35.9621 30.2273 37.4273 29.9967 38.8665 29.637C41.5765 28.9544 44.1697 29.1112 46.5944 30.2734C46.9705 30.4487 47.3594 30.6239 47.7614 30.7807C48.3708 31.0021 49.1099 30.9191 49.7063 30.5409C49.3303 30.255 48.9932 29.9506 48.5783 29.6923C47.5669 29.0651 46.361 28.6593 45.1033 28.3549C39.437 27.0175 33.7449 26.9898 28.0138 28.0966C26.5486 28.3826 25.1612 28.7976 23.9164 29.4249C23.294 29.7385 22.7365 30.0982 22.3605 30.5778ZM41.0578 37.6893C41.0578 37.0344 41.0708 36.398 41.0578 35.7707C41.0427 35.0156 40.6311 34.2918 39.9038 33.7415C39.1777 33.1697 38.4386 33.1697 37.7125 33.7508C36.9913 34.3067 36.5849 35.0328 36.5715 35.7892V37.4402C36.5781 37.5237 36.591 37.6068 36.6104 37.6893H41.0578ZM31.0219 37.68H35.4045C35.4045 36.9053 35.4694 36.1305 35.3916 35.3741C35.3138 34.6178 34.8859 34.1935 34.2765 33.7231C33.6671 33.2527 32.8631 33.1789 32.137 33.7231C31.4109 34.2673 31.0997 34.7008 31.0349 35.3096C30.9571 36.0843 31.0219 36.8684 31.0219 37.68ZM46.1147 37.2834C46.1147 36.6654 46.1017 36.0843 46.1147 35.5033C46.1235 34.9895 45.94 34.4833 45.5831 34.0367C44.8569 33.1235 44.053 33.0959 43.1324 33.9168C41.9914 34.9222 42.16 36.1028 42.1989 37.2834H46.1147ZM29.7772 37.2834C29.7772 36.6101 29.855 35.9644 29.7512 35.3372C29.6455 34.6555 29.1769 34.0284 28.4416 33.5847C27.8063 33.1881 27.3006 33.225 26.769 33.6862C26.2152 34.1718 25.909 34.7765 25.9003 35.4018C25.8873 35.946 25.9003 36.4902 25.9003 37.0252C25.9003 37.1082 25.9262 37.1912 25.9262 37.2834H29.7772ZM27.6377 38.1043C27.6377 38.9068 27.5729 39.6724 27.6507 40.4287C27.7292 40.9855 28.0885 41.5032 28.6621 41.886C29.09 42.172 29.479 42.1904 29.855 41.8768C30.1986 41.5872 30.4824 41.2642 30.6978 40.9176C31.1646 40.1428 30.8663 39.3311 30.9441 38.6485C29.9457 37.9014 28.7788 38.1412 27.6377 38.1043ZM41.0838 38.6024C41.0838 39.1282 41.0319 39.7093 41.0967 40.2811C41.1538 40.8468 41.4836 41.3811 42.0303 41.7938C42.523 42.1904 42.9639 42.1996 43.4566 41.803C44.0642 41.3245 44.4054 40.7046 44.4161 40.0598C44.4291 39.4787 44.4291 38.8976 44.4291 38.3165C44.4291 38.2519 44.4031 38.1873 44.3902 38.1043H42.2118C42.1214 38.1113 42.0357 38.137 41.9655 38.1781L41.0838 38.6024ZM36.6104 38.5194C36.6104 39.1651 36.5585 39.8015 36.6363 40.4195C36.7141 41.0375 37.0253 41.3787 37.5051 41.7754C37.9848 42.172 38.5035 42.2089 39.0092 41.7661C39.2428 41.5568 39.4389 41.3275 39.5926 41.0836C40.1632 40.2627 39.852 39.3864 39.9298 38.5194H36.6104ZM32.0852 38.5194C32.0852 39.0175 32.0981 39.4879 32.0852 39.9583C32.0722 40.4287 32.3315 41.0651 32.7724 41.5448C33.4337 42.2734 34.069 42.2642 34.7692 41.5448C35.6898 40.6132 35.4045 39.5617 35.4305 38.5194H32.0852ZM49.9916 36.8868C50.0133 36.8685 50.0269 36.846 50.0305 36.8222C50.0435 36.3242 50.0305 35.8169 50.0435 35.3188C50.0586 34.8162 49.8744 34.3207 49.5118 33.8891C48.9024 33.1328 48.4097 33.142 47.7744 33.8799C46.9704 34.8299 47.3335 35.863 47.2298 36.8868H49.9916ZM21.9844 36.8868H24.7592C24.7592 36.2319 24.85 35.5955 24.7333 34.9775C24.6169 34.5165 24.3793 34.0753 24.0331 33.677C23.6182 33.1789 23.1384 33.1789 22.7106 33.6862C22.2827 34.1935 22.1011 34.4979 22.0233 34.9314C21.9066 35.5678 21.9844 36.2227 21.9844 36.8868ZM48.3578 37.7077C47.7484 37.7354 47.152 37.5694 46.7111 37.9752C46.6074 38.0582 46.361 38.0767 46.1665 38.0951C45.9643 38.1125 45.7602 38.1156 45.5571 38.1043V39.368C45.5442 39.9491 45.8294 40.4656 46.2832 40.936C46.7371 41.4064 47.2687 41.4341 47.8262 41.0651C48.0726 40.8991 48.3189 40.6224 48.3319 40.3918C48.3967 39.5156 48.3578 38.6301 48.3578 37.7077ZM26.4578 38.1873C26.004 38.0951 25.5113 38.0951 25.2519 37.9199C24.7333 37.5786 24.2017 37.7538 23.6571 37.7077C23.6571 38.6116 23.6182 39.4787 23.6701 40.3457C23.7023 40.5971 23.8584 40.8324 24.1109 41.0098C24.6166 41.3603 25.2519 41.471 25.7187 40.8991L26.0688 40.4656C26.6393 39.7277 26.4189 38.9345 26.4578 38.1873ZM51.0937 37.2096C50.7047 37.7262 50.0953 37.7169 49.4859 37.7169C49.4859 38.1597 49.5248 38.5747 49.4729 38.9806C49.4211 39.3864 49.5896 39.6816 50.0305 39.9306C50.2509 40.0505 50.4454 40.1889 50.7566 40.1059C51.0678 40.0229 51.1456 39.8199 51.1456 39.6078C51.1586 38.8976 51.1586 38.1873 51.1715 37.4863C51.1715 37.431 51.1326 37.3757 51.0937 37.2096ZM20.8823 37.3111C20.8823 38.1043 20.8693 38.8699 20.8953 39.6355C20.8953 39.8845 21.388 40.069 21.6344 39.9029C21.8807 39.7369 22.3864 39.3864 22.4901 39.082C22.5939 38.7777 22.529 38.1873 22.529 37.7262C22.2049 37.7077 21.9066 37.7262 21.6344 37.6616C21.3621 37.597 21.1676 37.4495 20.8823 37.3111ZM20.8434 36.4994C20.8434 35.9091 20.7786 35.3465 20.8564 34.793C20.9342 34.2396 20.4804 33.843 20.0136 33.3634C19.5209 34.4425 19.8191 35.4664 19.7153 36.4994H20.8434ZM52.0403 33.4464L51.9106 33.4279C51.6642 33.7139 51.2623 33.9813 51.2234 34.2765C51.1197 35.0052 51.1845 35.7431 51.1845 36.481H52.3126C52.1829 35.4571 52.507 34.4333 52.0403 33.4464Z"/>
</mask>
<path d="M19.7283 37.3572C18.7429 37.099 18.5873 36.9514 18.6003 36.2135C18.6132 35.4756 18.5743 34.7561 18.6521 34.0275C18.718 33.6473 18.6374 33.2615 18.4187 32.9114C17.8612 32.0813 17.9779 31.1774 18.1075 30.3011C18.1853 29.7846 18.704 29.4433 19.4171 29.2957C20.1303 29.1481 20.7527 29.2957 21.2843 29.6647C21.388 29.7385 21.4788 29.8215 21.5825 29.9045C23.4885 28.2719 26.1077 27.5524 28.8695 27.1005C34.1857 26.2242 39.4889 26.2888 44.7402 27.4141C46.2832 27.7369 47.7484 28.2073 49.0321 28.9268C49.5378 29.2127 49.9786 29.554 50.4584 29.8768L50.6529 29.7292C50.8964 29.5225 51.2221 29.373 51.5872 29.3004C51.9523 29.2277 52.3398 29.2352 52.6988 29.322C53.0578 29.4088 53.3715 29.5708 53.5987 29.7866C53.826 30.0025 53.9562 30.2622 53.9722 30.5317C53.9982 31.5002 54.1019 32.4871 53.311 33.3634C53.2591 33.4187 53.285 33.5109 53.285 33.594C53.3239 34.5809 53.4017 35.577 53.4017 36.564C53.4017 37.0252 52.922 37.2465 52.2866 37.3295C52.2866 37.883 52.2866 38.4179 52.2996 38.9621C52.3174 39.0378 52.3726 39.1065 52.4552 39.1558C53.5184 39.8568 53.9463 40.7423 53.9982 41.7661C54.0241 42.3749 53.7777 42.7992 53.0646 43.122C52.3515 43.4448 51.8587 43.823 51.3401 44.2565C49.5637 45.7508 47.2687 46.4702 44.5198 46.4979C42.8733 46.5173 41.2314 46.3682 39.6445 46.0551C37.2584 45.5695 34.7281 45.5727 32.3445 46.0644C30.5599 46.4291 28.6987 46.5665 26.8468 46.4702C24.6944 46.3503 22.918 45.6493 21.3621 44.6255C20.4415 44.0352 19.5079 43.4448 18.5614 42.873C18.3876 42.7801 18.2484 42.6584 18.1558 42.5186C18.0632 42.3788 18.0199 42.2249 18.0297 42.0705C18.0038 41.185 18.1853 40.3549 18.9503 39.6355C18.9892 39.6078 19.0152 39.5617 19.0541 39.5432C19.7413 39.202 19.7931 38.7039 19.7283 38.1597C19.7024 37.8922 19.7283 37.6155 19.7283 37.3572ZM22.529 40.4933C21.4528 40.9637 20.5841 40.7884 19.8709 40.1059C19.2615 40.6777 19.1059 41.3049 19.1708 41.9691C19.1861 42.0995 19.2693 42.2212 19.4042 42.3103C20.3248 42.9099 21.2713 43.4817 22.1789 44.0813C23.7608 45.0959 25.5502 45.7046 27.7285 45.6954C29.196 45.696 30.657 45.5564 32.0722 45.2804C34.6131 44.7625 37.3062 44.7561 39.852 45.2619C41.297 45.5441 42.788 45.6898 44.2864 45.6954C46.8408 45.7139 48.9284 45.0405 50.601 43.657C51.0798 43.2532 51.6238 42.891 52.2218 42.5778C52.7404 42.3103 52.922 42.0244 52.8701 41.5909C52.8182 41.1574 52.6497 40.5855 52.1699 40.152C51.9106 40.5394 51.5346 40.7976 50.977 40.9083C50.4195 41.019 49.9268 40.8899 49.447 40.6685C49.1618 41.388 48.5523 41.8491 47.5799 42.0428C46.6074 42.2365 45.8035 41.8768 45.2589 41.3049C44.9477 41.6462 44.7014 41.9875 44.3642 42.2734C43.4047 43.1036 42.134 43.1036 41.1486 42.2919C40.9107 42.0892 40.6899 41.8767 40.4873 41.6554C39.9427 42.2734 39.3852 42.9006 38.2312 42.8914C37.0772 42.8822 36.5456 42.2458 36.001 41.637C35.4434 42.2734 34.9118 42.8914 33.7578 42.8914C32.6038 42.8914 32.0592 42.255 31.5276 41.6462C31.3072 41.8676 31.1257 42.0797 30.9052 42.2642C29.8809 43.122 28.6102 43.1128 27.5988 42.2458C27.4821 42.1351 27.3654 42.0244 27.2617 41.9045C27.158 41.7846 26.9376 41.4802 26.769 41.2404C26.1985 41.8307 25.5372 42.255 24.474 42.0521C23.4107 41.8491 22.7495 41.3049 22.529 40.4933ZM52.5459 32.6716C52.6171 32.566 52.6694 32.4544 52.7015 32.3395C52.7664 31.7861 52.8182 31.2327 52.8571 30.67C52.8701 30.3472 52.6367 30.1259 52.2737 30.0705C51.9106 30.0152 51.5994 30.1166 51.3531 30.4118C50.2509 31.7492 48.4486 32.0628 46.6074 31.2419C45.972 30.956 45.3497 30.6608 44.6754 30.4395C42.7953 29.8399 40.8893 29.9506 39.0092 30.4395C36.5974 31.0667 34.2505 31.0667 31.8258 30.3564C29.8031 29.7754 27.7544 29.8768 25.9262 30.873C25.602 31.0482 25.2649 31.2327 24.9278 31.3987C24.6631 31.5345 24.3613 31.6293 24.0419 31.6769C23.7226 31.7246 23.3927 31.7241 23.0736 31.6754C21.9715 31.5279 21.1676 31.0851 20.636 30.3841C20.4544 30.1351 20.1562 29.9967 19.7542 30.0705C19.5872 30.0905 19.436 30.153 19.3287 30.2463C19.2214 30.3395 19.1653 30.4573 19.1708 30.5778C19.147 31.0113 19.1557 31.4455 19.1967 31.8783C19.2226 32.1458 19.3523 32.4041 19.4431 32.6808C19.5647 32.6378 19.6903 32.6008 19.8191 32.5701C20.3896 32.4318 20.5452 32.4687 20.8823 32.8192C21.2194 33.1697 21.2843 33.2527 21.5047 33.474C22.0363 32.9483 22.555 32.4502 23.5534 32.524C24.5518 32.5978 24.9408 33.1604 25.3946 33.677C25.628 33.4556 25.8095 33.2527 26.0429 33.0682C26.8727 32.4133 27.936 32.3211 28.9344 32.8376C29.3104 33.0313 29.6086 33.2988 29.9198 33.5478C30.0931 33.7167 30.2532 33.8923 30.3996 34.0736C31.0608 33.2711 31.7869 32.5148 33.2262 32.524C34.6655 32.5332 35.3527 33.2988 36.014 34.0736C36.6882 33.2619 37.4013 32.5148 38.8276 32.524C40.2539 32.5332 40.9671 33.2896 41.5765 34.009C42.0303 33.6401 42.4323 33.225 42.9509 32.9114C44.0141 32.275 45.1941 32.3857 46.0758 33.1512C46.2703 33.3172 46.4259 33.4925 46.6074 33.6677C47.7095 32.2565 49.2395 32.072 50.5232 33.4648L51.1326 32.8284C51.4697 32.4779 51.6253 32.4318 52.1959 32.5701C52.3156 32.5984 52.4325 32.6323 52.5459 32.6716ZM22.3605 30.5778C23.0217 30.9744 23.7608 31.0021 24.4221 30.67C25.0834 30.338 25.6539 29.9875 26.3411 29.7477C28.3898 29.019 30.4774 29.1112 32.5779 29.6739C33.1731 29.853 33.7952 29.983 34.4321 30.0613C35.9621 30.2273 37.4273 29.9967 38.8665 29.637C41.5765 28.9544 44.1697 29.1112 46.5944 30.2734C46.9705 30.4487 47.3594 30.6239 47.7614 30.7807C48.3708 31.0021 49.1099 30.9191 49.7063 30.5409C49.3303 30.255 48.9932 29.9506 48.5783 29.6923C47.5669 29.0651 46.361 28.6593 45.1033 28.3549C39.437 27.0175 33.7449 26.9898 28.0138 28.0966C26.5486 28.3826 25.1612 28.7976 23.9164 29.4249C23.294 29.7385 22.7365 30.0982 22.3605 30.5778ZM41.0578 37.6893C41.0578 37.0344 41.0708 36.398 41.0578 35.7707C41.0427 35.0156 40.6311 34.2918 39.9038 33.7415C39.1777 33.1697 38.4386 33.1697 37.7125 33.7508C36.9913 34.3067 36.5849 35.0328 36.5715 35.7892V37.4402C36.5781 37.5237 36.591 37.6068 36.6104 37.6893H41.0578ZM31.0219 37.68H35.4045C35.4045 36.9053 35.4694 36.1305 35.3916 35.3741C35.3138 34.6178 34.8859 34.1935 34.2765 33.7231C33.6671 33.2527 32.8631 33.1789 32.137 33.7231C31.4109 34.2673 31.0997 34.7008 31.0349 35.3096C30.9571 36.0843 31.0219 36.8684 31.0219 37.68ZM46.1147 37.2834C46.1147 36.6654 46.1017 36.0843 46.1147 35.5033C46.1235 34.9895 45.94 34.4833 45.5831 34.0367C44.8569 33.1235 44.053 33.0959 43.1324 33.9168C41.9914 34.9222 42.16 36.1028 42.1989 37.2834H46.1147ZM29.7772 37.2834C29.7772 36.6101 29.855 35.9644 29.7512 35.3372C29.6455 34.6555 29.1769 34.0284 28.4416 33.5847C27.8063 33.1881 27.3006 33.225 26.769 33.6862C26.2152 34.1718 25.909 34.7765 25.9003 35.4018C25.8873 35.946 25.9003 36.4902 25.9003 37.0252C25.9003 37.1082 25.9262 37.1912 25.9262 37.2834H29.7772ZM27.6377 38.1043C27.6377 38.9068 27.5729 39.6724 27.6507 40.4287C27.7292 40.9855 28.0885 41.5032 28.6621 41.886C29.09 42.172 29.479 42.1904 29.855 41.8768C30.1986 41.5872 30.4824 41.2642 30.6978 40.9176C31.1646 40.1428 30.8663 39.3311 30.9441 38.6485C29.9457 37.9014 28.7788 38.1412 27.6377 38.1043ZM41.0838 38.6024C41.0838 39.1282 41.0319 39.7093 41.0967 40.2811C41.1538 40.8468 41.4836 41.3811 42.0303 41.7938C42.523 42.1904 42.9639 42.1996 43.4566 41.803C44.0642 41.3245 44.4054 40.7046 44.4161 40.0598C44.4291 39.4787 44.4291 38.8976 44.4291 38.3165C44.4291 38.2519 44.4031 38.1873 44.3902 38.1043H42.2118C42.1214 38.1113 42.0357 38.137 41.9655 38.1781L41.0838 38.6024ZM36.6104 38.5194C36.6104 39.1651 36.5585 39.8015 36.6363 40.4195C36.7141 41.0375 37.0253 41.3787 37.5051 41.7754C37.9848 42.172 38.5035 42.2089 39.0092 41.7661C39.2428 41.5568 39.4389 41.3275 39.5926 41.0836C40.1632 40.2627 39.852 39.3864 39.9298 38.5194H36.6104ZM32.0852 38.5194C32.0852 39.0175 32.0981 39.4879 32.0852 39.9583C32.0722 40.4287 32.3315 41.0651 32.7724 41.5448C33.4337 42.2734 34.069 42.2642 34.7692 41.5448C35.6898 40.6132 35.4045 39.5617 35.4305 38.5194H32.0852ZM49.9916 36.8868C50.0133 36.8685 50.0269 36.846 50.0305 36.8222C50.0435 36.3242 50.0305 35.8169 50.0435 35.3188C50.0586 34.8162 49.8744 34.3207 49.5118 33.8891C48.9024 33.1328 48.4097 33.142 47.7744 33.8799C46.9704 34.8299 47.3335 35.863 47.2298 36.8868H49.9916ZM21.9844 36.8868H24.7592C24.7592 36.2319 24.85 35.5955 24.7333 34.9775C24.6169 34.5165 24.3793 34.0753 24.0331 33.677C23.6182 33.1789 23.1384 33.1789 22.7106 33.6862C22.2827 34.1935 22.1011 34.4979 22.0233 34.9314C21.9066 35.5678 21.9844 36.2227 21.9844 36.8868ZM48.3578 37.7077C47.7484 37.7354 47.152 37.5694 46.7111 37.9752C46.6074 38.0582 46.361 38.0767 46.1665 38.0951C45.9643 38.1125 45.7602 38.1156 45.5571 38.1043V39.368C45.5442 39.9491 45.8294 40.4656 46.2832 40.936C46.7371 41.4064 47.2687 41.4341 47.8262 41.0651C48.0726 40.8991 48.3189 40.6224 48.3319 40.3918C48.3967 39.5156 48.3578 38.6301 48.3578 37.7077ZM26.4578 38.1873C26.004 38.0951 25.5113 38.0951 25.2519 37.9199C24.7333 37.5786 24.2017 37.7538 23.6571 37.7077C23.6571 38.6116 23.6182 39.4787 23.6701 40.3457C23.7023 40.5971 23.8584 40.8324 24.1109 41.0098C24.6166 41.3603 25.2519 41.471 25.7187 40.8991L26.0688 40.4656C26.6393 39.7277 26.4189 38.9345 26.4578 38.1873ZM51.0937 37.2096C50.7047 37.7262 50.0953 37.7169 49.4859 37.7169C49.4859 38.1597 49.5248 38.5747 49.4729 38.9806C49.4211 39.3864 49.5896 39.6816 50.0305 39.9306C50.2509 40.0505 50.4454 40.1889 50.7566 40.1059C51.0678 40.0229 51.1456 39.8199 51.1456 39.6078C51.1586 38.8976 51.1586 38.1873 51.1715 37.4863C51.1715 37.431 51.1326 37.3757 51.0937 37.2096ZM20.8823 37.3111C20.8823 38.1043 20.8693 38.8699 20.8953 39.6355C20.8953 39.8845 21.388 40.069 21.6344 39.9029C21.8807 39.7369 22.3864 39.3864 22.4901 39.082C22.5939 38.7777 22.529 38.1873 22.529 37.7262C22.2049 37.7077 21.9066 37.7262 21.6344 37.6616C21.3621 37.597 21.1676 37.4495 20.8823 37.3111ZM20.8434 36.4994C20.8434 35.9091 20.7786 35.3465 20.8564 34.793C20.9342 34.2396 20.4804 33.843 20.0136 33.3634C19.5209 34.4425 19.8191 35.4664 19.7153 36.4994H20.8434ZM52.0403 33.4464L51.9106 33.4279C51.6642 33.7139 51.2623 33.9813 51.2234 34.2765C51.1197 35.0052 51.1845 35.7431 51.1845 36.481H52.3126C52.1829 35.4571 52.507 34.4333 52.0403 33.4464Z" fill="#161616"/>
<path d="M19.7283 37.3572C18.7429 37.099 18.5873 36.9514 18.6003 36.2135C18.6132 35.4756 18.5743 34.7561 18.6521 34.0275C18.718 33.6473 18.6374 33.2615 18.4187 32.9114C17.8612 32.0813 17.9779 31.1774 18.1075 30.3011C18.1853 29.7846 18.704 29.4433 19.4171 29.2957C20.1303 29.1481 20.7527 29.2957 21.2843 29.6647C21.388 29.7385 21.4788 29.8215 21.5825 29.9045C23.4885 28.2719 26.1077 27.5524 28.8695 27.1005C34.1857 26.2242 39.4889 26.2888 44.7402 27.4141C46.2832 27.7369 47.7484 28.2073 49.0321 28.9268C49.5378 29.2127 49.9786 29.554 50.4584 29.8768L50.6529 29.7292C50.8964 29.5225 51.2221 29.373 51.5872 29.3004C51.9523 29.2277 52.3398 29.2352 52.6988 29.322C53.0578 29.4088 53.3715 29.5708 53.5987 29.7866C53.826 30.0025 53.9562 30.2622 53.9722 30.5317C53.9982 31.5002 54.1019 32.4871 53.311 33.3634C53.2591 33.4187 53.285 33.5109 53.285 33.594C53.3239 34.5809 53.4017 35.577 53.4017 36.564C53.4017 37.0252 52.922 37.2465 52.2866 37.3295C52.2866 37.883 52.2866 38.4179 52.2996 38.9621C52.3174 39.0378 52.3726 39.1065 52.4552 39.1558C53.5184 39.8568 53.9463 40.7423 53.9982 41.7661C54.0241 42.3749 53.7777 42.7992 53.0646 43.122C52.3515 43.4448 51.8587 43.823 51.3401 44.2565C49.5637 45.7508 47.2687 46.4702 44.5198 46.4979C42.8733 46.5173 41.2314 46.3682 39.6445 46.0551C37.2584 45.5695 34.7281 45.5727 32.3445 46.0644C30.5599 46.4291 28.6987 46.5665 26.8468 46.4702C24.6944 46.3503 22.918 45.6493 21.3621 44.6255C20.4415 44.0352 19.5079 43.4448 18.5614 42.873C18.3876 42.7801 18.2484 42.6584 18.1558 42.5186C18.0632 42.3788 18.0199 42.2249 18.0297 42.0705C18.0038 41.185 18.1853 40.3549 18.9503 39.6355C18.9892 39.6078 19.0152 39.5617 19.0541 39.5432C19.7413 39.202 19.7931 38.7039 19.7283 38.1597C19.7024 37.8922 19.7283 37.6155 19.7283 37.3572ZM22.529 40.4933C21.4528 40.9637 20.5841 40.7884 19.8709 40.1059C19.2615 40.6777 19.1059 41.3049 19.1708 41.9691C19.1861 42.0995 19.2693 42.2212 19.4042 42.3103C20.3248 42.9099 21.2713 43.4817 22.1789 44.0813C23.7608 45.0959 25.5502 45.7046 27.7285 45.6954C29.196 45.696 30.657 45.5564 32.0722 45.2804C34.6131 44.7625 37.3062 44.7561 39.852 45.2619C41.297 45.5441 42.788 45.6898 44.2864 45.6954C46.8408 45.7139 48.9284 45.0405 50.601 43.657C51.0798 43.2532 51.6238 42.891 52.2218 42.5778C52.7404 42.3103 52.922 42.0244 52.8701 41.5909C52.8182 41.1574 52.6497 40.5855 52.1699 40.152C51.9106 40.5394 51.5346 40.7976 50.977 40.9083C50.4195 41.019 49.9268 40.8899 49.447 40.6685C49.1618 41.388 48.5523 41.8491 47.5799 42.0428C46.6074 42.2365 45.8035 41.8768 45.2589 41.3049C44.9477 41.6462 44.7014 41.9875 44.3642 42.2734C43.4047 43.1036 42.134 43.1036 41.1486 42.2919C40.9107 42.0892 40.6899 41.8767 40.4873 41.6554C39.9427 42.2734 39.3852 42.9006 38.2312 42.8914C37.0772 42.8822 36.5456 42.2458 36.001 41.637C35.4434 42.2734 34.9118 42.8914 33.7578 42.8914C32.6038 42.8914 32.0592 42.255 31.5276 41.6462C31.3072 41.8676 31.1257 42.0797 30.9052 42.2642C29.8809 43.122 28.6102 43.1128 27.5988 42.2458C27.4821 42.1351 27.3654 42.0244 27.2617 41.9045C27.158 41.7846 26.9376 41.4802 26.769 41.2404C26.1985 41.8307 25.5372 42.255 24.474 42.0521C23.4107 41.8491 22.7495 41.3049 22.529 40.4933ZM52.5459 32.6716C52.6171 32.566 52.6694 32.4544 52.7015 32.3395C52.7664 31.7861 52.8182 31.2327 52.8571 30.67C52.8701 30.3472 52.6367 30.1259 52.2737 30.0705C51.9106 30.0152 51.5994 30.1166 51.3531 30.4118C50.2509 31.7492 48.4486 32.0628 46.6074 31.2419C45.972 30.956 45.3497 30.6608 44.6754 30.4395C42.7953 29.8399 40.8893 29.9506 39.0092 30.4395C36.5974 31.0667 34.2505 31.0667 31.8258 30.3564C29.8031 29.7754 27.7544 29.8768 25.9262 30.873C25.602 31.0482 25.2649 31.2327 24.9278 31.3987C24.6631 31.5345 24.3613 31.6293 24.0419 31.6769C23.7226 31.7246 23.3927 31.7241 23.0736 31.6754C21.9715 31.5279 21.1676 31.0851 20.636 30.3841C20.4544 30.1351 20.1562 29.9967 19.7542 30.0705C19.5872 30.0905 19.436 30.153 19.3287 30.2463C19.2214 30.3395 19.1653 30.4573 19.1708 30.5778C19.147 31.0113 19.1557 31.4455 19.1967 31.8783C19.2226 32.1458 19.3523 32.4041 19.4431 32.6808C19.5647 32.6378 19.6903 32.6008 19.8191 32.5701C20.3896 32.4318 20.5452 32.4687 20.8823 32.8192C21.2194 33.1697 21.2843 33.2527 21.5047 33.474C22.0363 32.9483 22.555 32.4502 23.5534 32.524C24.5518 32.5978 24.9408 33.1604 25.3946 33.677C25.628 33.4556 25.8095 33.2527 26.0429 33.0682C26.8727 32.4133 27.936 32.3211 28.9344 32.8376C29.3104 33.0313 29.6086 33.2988 29.9198 33.5478C30.0931 33.7167 30.2532 33.8923 30.3996 34.0736C31.0608 33.2711 31.7869 32.5148 33.2262 32.524C34.6655 32.5332 35.3527 33.2988 36.014 34.0736C36.6882 33.2619 37.4013 32.5148 38.8276 32.524C40.2539 32.5332 40.9671 33.2896 41.5765 34.009C42.0303 33.6401 42.4323 33.225 42.9509 32.9114C44.0141 32.275 45.1941 32.3857 46.0758 33.1512C46.2703 33.3172 46.4259 33.4925 46.6074 33.6677C47.7095 32.2565 49.2395 32.072 50.5232 33.4648L51.1326 32.8284C51.4697 32.4779 51.6253 32.4318 52.1959 32.5701C52.3156 32.5984 52.4325 32.6323 52.5459 32.6716ZM22.3605 30.5778C23.0217 30.9744 23.7608 31.0021 24.4221 30.67C25.0834 30.338 25.6539 29.9875 26.3411 29.7477C28.3898 29.019 30.4774 29.1112 32.5779 29.6739C33.1731 29.853 33.7952 29.983 34.4321 30.0613C35.9621 30.2273 37.4273 29.9967 38.8665 29.637C41.5765 28.9544 44.1697 29.1112 46.5944 30.2734C46.9705 30.4487 47.3594 30.6239 47.7614 30.7807C48.3708 31.0021 49.1099 30.9191 49.7063 30.5409C49.3303 30.255 48.9932 29.9506 48.5783 29.6923C47.5669 29.0651 46.361 28.6593 45.1033 28.3549C39.437 27.0175 33.7449 26.9898 28.0138 28.0966C26.5486 28.3826 25.1612 28.7976 23.9164 29.4249C23.294 29.7385 22.7365 30.0982 22.3605 30.5778ZM41.0578 37.6893C41.0578 37.0344 41.0708 36.398 41.0578 35.7707C41.0427 35.0156 40.6311 34.2918 39.9038 33.7415C39.1777 33.1697 38.4386 33.1697 37.7125 33.7508C36.9913 34.3067 36.5849 35.0328 36.5715 35.7892V37.4402C36.5781 37.5237 36.591 37.6068 36.6104 37.6893H41.0578ZM31.0219 37.68H35.4045C35.4045 36.9053 35.4694 36.1305 35.3916 35.3741C35.3138 34.6178 34.8859 34.1935 34.2765 33.7231C33.6671 33.2527 32.8631 33.1789 32.137 33.7231C31.4109 34.2673 31.0997 34.7008 31.0349 35.3096C30.9571 36.0843 31.0219 36.8684 31.0219 37.68ZM46.1147 37.2834C46.1147 36.6654 46.1017 36.0843 46.1147 35.5033C46.1235 34.9895 45.94 34.4833 45.5831 34.0367C44.8569 33.1235 44.053 33.0959 43.1324 33.9168C41.9914 34.9222 42.16 36.1028 42.1989 37.2834H46.1147ZM29.7772 37.2834C29.7772 36.6101 29.855 35.9644 29.7512 35.3372C29.6455 34.6555 29.1769 34.0284 28.4416 33.5847C27.8063 33.1881 27.3006 33.225 26.769 33.6862C26.2152 34.1718 25.909 34.7765 25.9003 35.4018C25.8873 35.946 25.9003 36.4902 25.9003 37.0252C25.9003 37.1082 25.9262 37.1912 25.9262 37.2834H29.7772ZM27.6377 38.1043C27.6377 38.9068 27.5729 39.6724 27.6507 40.4287C27.7292 40.9855 28.0885 41.5032 28.6621 41.886C29.09 42.172 29.479 42.1904 29.855 41.8768C30.1986 41.5872 30.4824 41.2642 30.6978 40.9176C31.1646 40.1428 30.8663 39.3311 30.9441 38.6485C29.9457 37.9014 28.7788 38.1412 27.6377 38.1043ZM41.0838 38.6024C41.0838 39.1282 41.0319 39.7093 41.0967 40.2811C41.1538 40.8468 41.4836 41.3811 42.0303 41.7938C42.523 42.1904 42.9639 42.1996 43.4566 41.803C44.0642 41.3245 44.4054 40.7046 44.4161 40.0598C44.4291 39.4787 44.4291 38.8976 44.4291 38.3165C44.4291 38.2519 44.4031 38.1873 44.3902 38.1043H42.2118C42.1214 38.1113 42.0357 38.137 41.9655 38.1781L41.0838 38.6024ZM36.6104 38.5194C36.6104 39.1651 36.5585 39.8015 36.6363 40.4195C36.7141 41.0375 37.0253 41.3787 37.5051 41.7754C37.9848 42.172 38.5035 42.2089 39.0092 41.7661C39.2428 41.5568 39.4389 41.3275 39.5926 41.0836C40.1632 40.2627 39.852 39.3864 39.9298 38.5194H36.6104ZM32.0852 38.5194C32.0852 39.0175 32.0981 39.4879 32.0852 39.9583C32.0722 40.4287 32.3315 41.0651 32.7724 41.5448C33.4337 42.2734 34.069 42.2642 34.7692 41.5448C35.6898 40.6132 35.4045 39.5617 35.4305 38.5194H32.0852ZM49.9916 36.8868C50.0133 36.8685 50.0269 36.846 50.0305 36.8222C50.0435 36.3242 50.0305 35.8169 50.0435 35.3188C50.0586 34.8162 49.8744 34.3207 49.5118 33.8891C48.9024 33.1328 48.4097 33.142 47.7744 33.8799C46.9704 34.8299 47.3335 35.863 47.2298 36.8868H49.9916ZM21.9844 36.8868H24.7592C24.7592 36.2319 24.85 35.5955 24.7333 34.9775C24.6169 34.5165 24.3793 34.0753 24.0331 33.677C23.6182 33.1789 23.1384 33.1789 22.7106 33.6862C22.2827 34.1935 22.1011 34.4979 22.0233 34.9314C21.9066 35.5678 21.9844 36.2227 21.9844 36.8868ZM48.3578 37.7077C47.7484 37.7354 47.152 37.5694 46.7111 37.9752C46.6074 38.0582 46.361 38.0767 46.1665 38.0951C45.9643 38.1125 45.7602 38.1156 45.5571 38.1043V39.368C45.5442 39.9491 45.8294 40.4656 46.2832 40.936C46.7371 41.4064 47.2687 41.4341 47.8262 41.0651C48.0726 40.8991 48.3189 40.6224 48.3319 40.3918C48.3967 39.5156 48.3578 38.6301 48.3578 37.7077ZM26.4578 38.1873C26.004 38.0951 25.5113 38.0951 25.2519 37.9199C24.7333 37.5786 24.2017 37.7538 23.6571 37.7077C23.6571 38.6116 23.6182 39.4787 23.6701 40.3457C23.7023 40.5971 23.8584 40.8324 24.1109 41.0098C24.6166 41.3603 25.2519 41.471 25.7187 40.8991L26.0688 40.4656C26.6393 39.7277 26.4189 38.9345 26.4578 38.1873ZM51.0937 37.2096C50.7047 37.7262 50.0953 37.7169 49.4859 37.7169C49.4859 38.1597 49.5248 38.5747 49.4729 38.9806C49.4211 39.3864 49.5896 39.6816 50.0305 39.9306C50.2509 40.0505 50.4454 40.1889 50.7566 40.1059C51.0678 40.0229 51.1456 39.8199 51.1456 39.6078C51.1586 38.8976 51.1586 38.1873 51.1715 37.4863C51.1715 37.431 51.1326 37.3757 51.0937 37.2096ZM20.8823 37.3111C20.8823 38.1043 20.8693 38.8699 20.8953 39.6355C20.8953 39.8845 21.388 40.069 21.6344 39.9029C21.8807 39.7369 22.3864 39.3864 22.4901 39.082C22.5939 38.7777 22.529 38.1873 22.529 37.7262C22.2049 37.7077 21.9066 37.7262 21.6344 37.6616C21.3621 37.597 21.1676 37.4495 20.8823 37.3111ZM20.8434 36.4994C20.8434 35.9091 20.7786 35.3465 20.8564 34.793C20.9342 34.2396 20.4804 33.843 20.0136 33.3634C19.5209 34.4425 19.8191 35.4664 19.7153 36.4994H20.8434ZM52.0403 33.4464L51.9106 33.4279C51.6642 33.7139 51.2623 33.9813 51.2234 34.2765C51.1197 35.0052 51.1845 35.7431 51.1845 36.481H52.3126C52.1829 35.4571 52.507 34.4333 52.0403 33.4464Z" stroke="#161616" stroke-width="0.6" mask="url(#path-2-outside-1_32_10060)"/>
</g>
<defs>
<filter id="filter0_d_32_10060" x="0" y="0.5" width="76" height="76" filterUnits="userSpaceOnUse" color-interpolation-filters="sRGB">
<feFlood flood-opacity="0" result="BackgroundImageFix"/>
<feColorMatrix in="SourceAlpha" type="matrix" values="0 0 0 0 0 0 0 0 0 0 0 0 0 0 0 0 0 0 127 0" result="hardAlpha"/>
<feOffset dx="2" dy="2"/>
<feGaussianBlur stdDeviation="4"/>
<feComposite in2="hardAlpha" operator="out"/>
<feColorMatrix type="matrix" values="0 0 0 0 0 0 0 0 0 0 0 0 0 0 0 0 0 0 0.04 0"/>
<feBlend mode="normal" in2="BackgroundImageFix" result="effect1_dropShadow_32_10060"/>
<feBlend mode="normal" in="SourceGraphic" in2="effect1_dropShadow_32_10060" result="shape"/>
</filter>
</defs>
</svg>
