<svg width="60" height="60" viewBox="0 0 60 60" fill="none" xmlns="http://www.w3.org/2000/svg">
<rect width="60" height="60" rx="30" fill="#454545"/>
<path d="M26.2578 27.0964H26.1393C25.7198 27.096 25.3042 27.1901 24.9151 27.3738C24.7839 27.4501 24.6775 27.5745 24.6124 27.7282C24.5851 27.8096 24.5722 27.8966 24.5745 27.984C24.5767 28.0714 24.5941 28.1573 24.6255 28.2367C24.6659 28.3568 24.7367 28.4597 24.8285 28.5313C24.9203 28.6029 25.0286 28.6399 25.1389 28.6373C25.2125 28.6386 25.2851 28.6174 25.3495 28.5756C25.6024 28.4661 25.8697 28.4087 26.1393 28.4061H26.2447C26.3913 28.4061 26.5319 28.338 26.6356 28.2166C26.7393 28.0952 26.7975 27.9306 26.7975 27.759C26.7993 27.674 26.7867 27.5894 26.7605 27.5101C26.7343 27.4308 26.6951 27.3584 26.645 27.2968C26.5948 27.2353 26.5348 27.1859 26.4684 27.1515C26.402 27.1172 26.3304 27.0984 26.2578 27.0964Z" fill="white"/>
<path d="M28.3478 29.284C28.4329 29.2847 28.5169 29.2612 28.5926 29.2156C28.6682 29.1699 28.7333 29.1035 28.7822 29.022C28.872 28.8861 28.9143 28.7154 28.9007 28.5444C28.8739 28.3733 28.7942 28.2197 28.6769 28.1129C28.3344 27.8035 27.9524 27.5591 27.5449 27.3888C27.4822 27.3586 27.4152 27.3429 27.3474 27.3425C27.2346 27.3443 27.1246 27.3846 27.0311 27.4585C26.9375 27.5324 26.8645 27.6367 26.8209 27.7586C26.7939 27.8374 26.7812 27.9218 26.7835 28.0067C26.7857 28.0915 26.8029 28.1749 26.834 28.2516C26.8605 28.3322 26.9011 28.4054 26.9532 28.4665C27.0054 28.5275 27.0679 28.5751 27.1368 28.606H27.1631C27.4646 28.7308 27.7485 28.9073 28.0056 29.1299C28.0996 29.2288 28.2214 29.2837 28.3478 29.284Z" fill="white"/>
<path d="M46.4881 20.8705C45.672 19.8536 44.2503 19.3297 42.2626 19.3297C38.8401 19.3297 34.575 20.8705 31.9686 22.1957C31.3452 22.5111 30.6733 22.6739 29.9941 22.6739C29.3149 22.6739 28.6429 22.5111 28.0195 22.1957C25.4131 20.8705 21.1613 19.3297 17.7256 19.3297C15.751 19.3297 14.3293 19.8536 13.5 20.8705C11.6308 23.1818 11.4992 27.3266 13.1578 30.7935C13.1051 32.4114 13.3026 34.1679 13.4869 34.6764C13.8686 35.755 15.909 36.2635 17.1727 36.2635H17.515C17.7397 36.2509 17.9616 36.1989 18.1731 36.1094C18.5837 36.5063 19.065 36.7906 19.5816 36.9414C19.5553 38.1895 19.5685 39.4376 19.6475 40.6702C19.6547 41.2061 19.8198 41.7227 20.1148 42.1325C20.4098 42.5424 20.8166 42.8205 21.2666 42.9199C22.3571 43.148 23.4629 43.2614 24.5707 43.2588H24.6496C25.163 43.2588 25.6501 43.2434 26.124 43.1972C26.5979 43.151 27.335 43.0123 27.6641 42.1957C27.9932 41.379 28.0064 39.6841 27.8484 37.6964C27.89 37.8113 27.9597 37.9091 28.0487 37.9777C28.1377 38.0462 28.2421 38.0824 28.3486 38.0816H28.3881L28.9015 38.0508C29.1835 38.0236 29.4596 37.9402 29.7176 37.8043C29.8173 37.7468 29.8999 37.6555 29.9546 37.5423C30.3363 37.943 30.8892 38.02 31.0867 38.0508C31.4947 38.0816 31.9291 38.097 32.3767 38.097H32.4425C33.4264 38.0997 34.4087 38.0018 35.378 37.8043C35.7876 37.7165 36.1566 37.4595 36.4179 37.0801C36.7214 37.2156 37.0413 37.2937 37.3657 37.3112H37.8659C39.0375 37.3112 41.0121 36.9876 41.8282 36.1094C42.0378 36.1853 42.2543 36.2318 42.4732 36.248H42.8286C44.0792 36.248 46.1195 35.7396 46.5145 34.661C46.6856 34.1525 46.883 32.396 46.8435 30.7781C48.5022 27.3266 48.3705 23.1818 46.4881 20.8705ZM30.9024 31.0709C31.0745 30.3143 31.4533 29.6444 31.9808 29.1632C32.5084 28.682 33.1559 28.4158 33.8247 28.4052H33.9563C34.3641 28.4018 34.7586 28.5743 35.0645 28.8898C35.3705 29.2053 35.5664 29.6417 35.615 30.1155C35.9309 32.2265 35.7992 34.8921 35.7466 35.6471C35.7551 35.8451 35.7006 36.0398 35.5936 36.1934C35.4866 36.3471 35.3348 36.4489 35.1674 36.4792C34.2601 36.6765 33.339 36.7745 32.4162 36.7719C32.0081 36.7719 31.5869 36.7565 31.1788 36.7103H31.1525C30.9787 36.715 30.8097 36.6435 30.6786 36.51C30.4943 35.9553 30.4548 33.3359 30.9024 31.0709ZM36.8523 35.7396C36.9489 34.2679 36.9533 32.7899 36.8655 31.3174C36.9708 29.7149 38.1029 28.7288 39.1823 28.4668C39.3683 28.4192 39.5579 28.3934 39.7483 28.3898C40.2486 28.3898 40.6303 28.5747 40.7751 28.8983C41.3543 30.1926 41.3675 34.399 41.1042 35.1232C41.0647 35.2311 40.525 35.6471 39.2613 35.8782C38.8089 35.9677 38.3511 36.0141 37.8923 36.0169C37.5373 36.0312 37.1825 35.9845 36.8392 35.8782C36.85 35.8332 36.8544 35.7863 36.8523 35.7396ZM20.7664 40.5778C20.7269 39.9615 20.5426 36.7719 20.9112 34.2758C20.9747 33.7188 21.2084 33.2076 21.5689 32.8366C21.9294 32.4656 22.3925 32.2598 22.8726 32.2573H23.0042C24.3469 32.2573 26.0055 33.3359 26.4004 35.3544C26.927 37.9584 26.8743 40.963 26.6505 41.6101C26.4896 41.7859 26.2783 41.8848 26.0582 41.8875H26.0318C25.5579 41.9183 25.084 41.9491 24.6233 41.9491C23.5685 41.9492 22.5158 41.8409 21.4772 41.6256C21.2728 41.5814 21.0887 41.453 20.9583 41.2636C20.8279 41.0742 20.7598 40.8363 20.7664 40.5932V40.5778ZM14.5136 34.1833C14.2899 33.5516 14.0792 29.8536 14.5663 28.8829C14.7374 28.5439 15.0139 28.3744 15.4088 28.3744L15.7115 28.4052C16.2122 28.5389 16.6679 28.8428 17.0216 29.2787C17.3752 29.7146 17.611 30.263 17.6992 30.8551C17.5654 32.2017 17.5698 33.5622 17.7124 34.9075C17.5216 34.9509 17.3276 34.9715 17.1332 34.9692C16.6539 34.96 16.177 34.8876 15.7115 34.7534C14.8559 34.5223 14.54 34.2296 14.5136 34.1833ZM42.2889 30.8551C42.382 30.2653 42.6194 29.7199 42.9722 29.285C43.3251 28.8501 43.7782 28.5444 44.2766 28.4052L44.5794 28.3744C44.9743 28.3744 45.2639 28.5439 45.4219 28.8829C45.9089 29.8536 45.6983 33.5362 45.4745 34.1833C45.435 34.245 45.1191 34.5377 44.2898 34.7534C43.8242 34.8867 43.3474 34.9591 42.8681 34.9692C42.6737 34.9724 42.4796 34.9517 42.2889 34.9075C42.4337 33.562 42.4337 32.2006 42.2889 30.8551ZM27.493 35.0462C27.296 34.1093 26.8861 33.2523 26.3067 32.566C25.7273 31.8797 25.0001 31.3896 24.2021 31.1479C24.1623 31.0261 24.092 30.9212 24.0004 30.8469C23.9088 30.7727 23.8001 30.7326 23.6887 30.7319H23.5571C23.4414 30.7603 23.3384 30.8369 23.2675 30.9476H22.8594C22.1165 30.9533 21.3999 31.2704 20.8396 31.8414C20.2794 32.4124 19.9124 33.1995 19.8054 34.0601C19.7396 34.5223 19.687 35.0154 19.6475 35.5701C19.1341 35.3852 18.9103 35.1849 18.884 35.1232C18.6207 34.399 18.6339 30.1926 19.2262 28.8983C19.371 28.5747 19.7264 28.3898 20.2267 28.3898H20.2398C20.7638 28.4015 21.2766 28.5688 21.7302 28.8761C22.1838 29.1833 22.5633 29.6204 22.8331 30.1464C22.8827 30.2502 22.9554 30.3366 23.0434 30.3962C23.1314 30.4559 23.2316 30.4867 23.3333 30.4853H23.3991C23.4809 30.607 23.598 30.6892 23.7282 30.7165H23.8203C23.9516 30.7156 24.0786 30.6613 24.1794 30.5629C24.2803 30.4645 24.3488 30.3282 24.3732 30.1772V30.1155C24.4216 29.7774 24.534 29.4562 24.7023 29.1756C24.7842 29.0319 24.8149 28.8564 24.7878 28.6866C24.7608 28.5168 24.6781 28.3661 24.5575 28.2665C24.4659 28.1875 24.3553 28.1444 24.2416 28.1433C24.155 28.145 24.0698 28.1694 23.9924 28.2147C23.9149 28.2601 23.8471 28.3252 23.794 28.4052C23.6891 28.5918 23.5967 28.7875 23.5176 28.9907C23.1267 28.4074 22.6297 27.9332 22.0628 27.6027C21.4958 27.2722 20.8731 27.0937 20.2398 27.0801H20.2267C19.292 27.0955 18.5812 27.5269 18.239 28.2819C18.1753 28.4199 18.1224 28.5643 18.081 28.7134C17.5432 27.9036 16.7788 27.3417 15.9221 27.1263C15.7482 27.0905 15.5722 27.0699 15.3956 27.0647C15.0362 27.0528 14.6807 27.1536 14.3659 27.3568C14.0511 27.5601 13.7885 27.8582 13.6053 28.2203C13.5625 28.2976 13.5272 28.3803 13.5 28.4668C12.8024 25.9553 13.0788 23.2897 14.3162 21.7642C14.9085 21.0246 16.0933 20.6394 17.7256 20.6394C20.4636 20.6394 24.2284 21.7026 27.572 23.3975C28.3374 23.7815 29.1613 23.9807 29.9941 23.983C30.8272 23.9837 31.6515 23.7844 32.4162 23.3975C35.7598 21.7026 39.5377 20.6394 42.2626 20.6394C43.8949 20.6394 45.0796 21.0246 45.672 21.7642C46.9094 23.2897 47.1858 25.9553 46.4881 28.4668C46.4655 28.3808 46.4346 28.2981 46.396 28.2203C46.2097 27.8581 45.9446 27.5602 45.6277 27.3572C45.3109 27.1542 44.9536 27.0532 44.5926 27.0647C44.416 27.0707 44.2401 27.0913 44.066 27.1263C43.2133 27.3426 42.4533 27.9047 41.9203 28.7134L41.7624 28.2819C41.4201 27.5269 40.683 27.0801 39.7483 27.0801C39.4784 27.0864 39.2095 27.1225 38.9454 27.188C37.9673 27.4258 37.0943 28.0653 36.4838 28.9907C36.2605 28.4258 35.904 27.9473 35.4563 27.6115C35.0085 27.2757 34.4881 27.0967 33.9563 27.0955H33.851C32.3635 27.0955 30.6654 28.1279 29.9941 30.1155C29.8897 29.7993 29.7526 29.4992 29.586 29.2219C29.5359 29.1322 29.4676 29.0586 29.3872 29.0075C29.3068 28.9564 29.2168 28.9295 29.1253 28.9291C29.0118 28.9322 28.9017 28.9751 28.8094 29.0524C28.6907 29.1537 28.6067 29.3012 28.5724 29.4684C28.5504 29.6404 28.5832 29.8159 28.6646 29.9615H28.6777C28.852 30.2623 28.9812 30.5958 29.0595 30.9476C29.0935 31.0846 29.1644 31.2051 29.2616 31.2912C29.3589 31.3773 29.4773 31.4243 29.5992 31.4252H29.7045C29.4017 33.3359 29.3622 35.4314 29.5465 36.5408H29.4807C29.4027 36.5375 29.3254 36.5587 29.2569 36.6024H29.2306C29.0985 36.6757 28.9553 36.7176 28.8094 36.7257L28.3355 36.7719C28.2124 36.7781 28.0944 36.831 27.9993 36.9228C27.9043 37.0146 27.8375 37.1401 27.8089 37.2804C27.7443 36.5286 27.6388 35.7823 27.493 35.0462Z" fill="white"/>
<path d="M39.8953 41.133L39.1713 40.6708C38.9887 40.5646 38.8407 40.3915 38.75 40.1777L38.3551 39.3303C38.2868 39.1886 38.1872 39.0709 38.0668 38.9896C37.9464 38.9083 37.8096 38.8663 37.6706 38.868C37.5333 38.8658 37.398 38.9077 37.2797 38.9892C37.1613 39.0707 37.0643 39.1887 36.9993 39.3303L36.6043 40.1777C36.5051 40.3894 36.3538 40.5612 36.1699 40.6708L35.4591 41.133C35.3291 41.2236 35.2205 41.3507 35.1432 41.5028C35.095 41.6069 35.0649 41.7211 35.0547 41.8388C35.0445 41.9566 35.0544 42.0755 35.0837 42.1888C35.1131 42.302 35.1615 42.4073 35.2259 42.4985C35.2903 42.5897 35.3696 42.665 35.4591 42.7201L36.1699 43.1823C36.3507 43.2969 36.501 43.4675 36.6043 43.6754L36.9993 44.5229C37.0637 44.6662 37.1602 44.7864 37.2784 44.8705C37.3967 44.9547 37.5322 44.9996 37.6706 45.0005C37.8106 44.9991 37.9478 44.9541 38.0681 44.8701C38.1884 44.7862 38.2874 44.6664 38.3551 44.5229L38.75 43.6754C38.8444 43.4648 38.9913 43.2928 39.1713 43.1823L39.8953 42.7201C40.0209 42.635 40.1253 42.5128 40.198 42.3657C40.2475 42.2609 40.2787 42.1457 40.29 42.0267C40.3013 41.9077 40.2924 41.7873 40.2638 41.6723C40.2367 41.5579 40.1901 41.4512 40.1267 41.3585C40.0634 41.2658 39.9846 41.1891 39.8953 41.133ZM37.6706 43.244L37.5785 43.0591C37.381 42.6271 37.0787 42.2733 36.7097 42.0421L36.5385 41.9343L36.7097 41.8264C37.0791 41.5889 37.3812 41.2301 37.5785 40.794L37.6706 40.6091L37.7627 40.794C37.96 41.2301 38.2621 41.5889 38.6315 41.8264L38.8027 41.9343L38.6315 42.0421C38.2625 42.2733 37.9602 42.6271 37.7627 43.0591L37.6706 43.244Z" fill="white"/>
<path d="M32.1316 18.066L32.6318 18.3896C32.7287 18.4517 32.8103 18.5419 32.8688 18.6515L33.1452 19.2525C33.2051 19.3834 33.2943 19.4928 33.4033 19.5688C33.5123 19.6449 33.637 19.6846 33.7639 19.6839C33.8899 19.6799 34.013 19.6382 34.1213 19.5626C34.2296 19.4871 34.3196 19.3803 34.3826 19.2525L34.659 18.6515C34.7125 18.5425 34.7897 18.4521 34.8828 18.3896L35.3962 18.066C35.5106 17.9811 35.6055 17.8648 35.6726 17.727C35.7166 17.6338 35.744 17.5311 35.753 17.4252C35.7621 17.3192 35.7526 17.2122 35.7253 17.1107C35.6746 16.9025 35.5565 16.7256 35.3962 16.6176L34.8828 16.2941C34.7861 16.23 34.7081 16.1334 34.659 16.0167L34.3826 15.4312C34.3142 15.2894 34.2141 15.1722 34.093 15.0922C33.9908 15.0325 33.8782 15.0008 33.7639 14.9998C33.6356 15.0011 33.5099 15.0416 33.399 15.1173C33.2882 15.1929 33.1962 15.3011 33.1321 15.4312L32.8688 16.0167C32.8107 16.1307 32.7292 16.226 32.6318 16.2941L32.1316 16.6176C32.0114 16.6922 31.9112 16.8041 31.842 16.9412C31.7977 17.0371 31.7702 17.1423 31.7611 17.2508C31.7521 17.3593 31.7617 17.4689 31.7894 17.5729C31.8147 17.6781 31.8581 17.7761 31.917 17.8609C31.9758 17.9457 32.0489 18.0155 32.1316 18.066ZM33.7507 16.8025C33.8734 17.0152 34.0298 17.1983 34.2115 17.3418C34.0331 17.4838 33.8771 17.6611 33.7507 17.8657C33.6327 17.6581 33.4806 17.48 33.3032 17.3418C33.4839 17.202 33.6366 17.018 33.7507 16.8025Z" fill="white"/>
<path d="M18.7915 39.1289L18.2913 38.8053C18.1917 38.7478 18.1091 38.6566 18.0544 38.5434L17.7779 37.9424C17.714 37.8059 17.6181 37.6937 17.5015 37.6189C17.3951 37.5573 17.2779 37.5257 17.1593 37.5264C17.0334 37.5225 16.9091 37.5592 16.7999 37.6326C16.6908 37.706 16.601 37.8132 16.5406 37.9424L16.2641 38.5434C16.2094 38.6566 16.1269 38.7478 16.0272 38.8053L15.527 39.1289C15.4099 39.2099 15.3142 39.3272 15.2505 39.4679C15.2044 39.56 15.1747 39.6621 15.1634 39.7681C15.1521 39.8741 15.1593 39.9816 15.1847 40.0842C15.2399 40.2943 15.3626 40.4711 15.527 40.5773L16.0272 40.9008C16.1304 40.9597 16.2139 41.0573 16.2641 41.1782L16.5406 41.7637C16.6004 41.8947 16.6897 42.0041 16.7987 42.0801C16.9077 42.1561 17.0324 42.1959 17.1593 42.1951C17.2862 42.1959 17.4108 42.1561 17.5198 42.0801C17.6289 42.0041 17.7181 41.8947 17.7779 41.7637L18.0544 41.1782C18.1046 41.0573 18.1881 40.9597 18.2913 40.9008L18.7915 40.5773C18.9082 40.5024 19.0041 40.3902 19.068 40.2537C19.1577 40.0614 19.179 39.8354 19.1273 39.6248C19.0755 39.4142 18.9549 39.236 18.7915 39.1289ZM16.6985 39.8531C16.8826 39.7194 17.0398 39.5407 17.1593 39.3292C17.2805 39.538 17.432 39.7205 17.6068 39.8685C17.4294 40.0066 17.2773 40.1847 17.1593 40.3924C17.0366 40.1797 16.8802 39.9966 16.6985 39.8531Z" fill="white"/>
</svg>
