<svg width="76" height="76" viewBox="0 0 76 76" fill="none" xmlns="http://www.w3.org/2000/svg">
<g filter="url(#filter0_d_324_9999)">
<rect x="6" y="6" width="60" height="60" rx="30" fill="#353434"/>
<g clip-path="url(#clip0_324_9999)">
<path d="M56.4272 44.401C56.3718 42.865 55.9013 41.5504 54.7667 40.485C54.6811 40.4088 54.6228 40.3067 54.6006 40.1944C54.5868 39.3779 54.6006 38.5754 54.6006 37.7451C55.2648 37.6206 55.7768 37.2885 55.7768 36.5966C55.7768 35.1159 55.7076 33.6215 55.6523 32.1409C55.6523 32.0302 55.6246 31.8779 55.6799 31.7949C56.524 30.4803 56.4272 28.9997 56.3857 27.5468C56.3685 27.1425 56.2296 26.7529 55.987 26.429C55.7445 26.1051 55.4097 25.8622 55.0266 25.732C54.6435 25.6018 54.23 25.5905 53.8404 25.6995C53.4507 25.8085 53.1031 26.0328 52.8432 26.3429L52.6495 26.5643C52.1237 26.08 51.6532 25.568 51.1135 25.139C49.7574 24.0597 48.1938 23.3678 46.5471 22.8696C40.9429 21.1814 35.2833 21.0846 29.596 22.3992C26.6486 23.0772 23.8672 24.1565 21.8192 26.6058C21.7206 26.4795 21.6143 26.3594 21.501 26.246C20.9475 25.6925 20.2833 25.4711 19.5222 25.6925C18.7611 25.9139 18.1938 26.4259 18.1108 27.2008C17.9724 28.5154 17.8617 29.8715 18.4429 31.1169C18.6876 31.6436 18.7788 32.2288 18.7058 32.8051C18.6089 33.8844 18.6504 34.9776 18.6366 36.0707C18.6227 37.1639 18.7888 37.3992 19.8405 37.7866C19.8245 38.1925 19.8291 38.5989 19.8543 39.0043C19.9235 39.8069 19.8543 40.5541 19.1209 41.0661L19.0102 41.2045C18.1938 42.2977 18.0139 43.5292 18.0277 44.8576C18.0207 45.0888 18.0684 45.3184 18.167 45.5276C18.2656 45.7369 18.4123 45.9198 18.5951 46.0615C19.6052 46.9333 20.6015 47.8051 21.584 48.6907C23.2584 50.2267 25.1403 51.2783 27.4373 51.4582C29.4182 51.6028 31.4091 51.3967 33.3183 50.8493C35.8574 50.1114 38.5534 50.1066 41.0951 50.8355C42.7933 51.3051 44.5501 51.5288 46.3119 51.4997C49.2316 51.472 51.6809 50.3927 53.5766 48.1372C54.1034 47.4828 54.7235 46.9093 55.417 46.4351C56.1919 45.9508 56.4548 45.3281 56.4272 44.401ZM19.5499 30.7709C19.4392 30.3558 19.3008 29.9683 19.2731 29.5671C19.2293 28.9176 19.2201 28.2663 19.2454 27.6159C19.2396 27.4352 19.2994 27.2585 19.414 27.1185C19.5285 26.9786 19.6898 26.8849 19.8681 26.8549C20.3109 26.758 20.6154 26.9517 20.8229 27.3254C21.3903 28.377 22.2344 29.0412 23.4244 29.2626C23.7624 29.3408 24.1134 29.3442 24.4528 29.2725C24.7922 29.2008 25.1119 29.0557 25.3894 28.8475C25.763 28.5984 26.1089 28.3355 26.4687 28.0588C28.406 26.5643 30.5923 26.4121 32.751 27.2977C35.3386 28.3493 37.8432 28.3493 40.4309 27.4084C42.4373 26.6888 44.4576 26.5089 46.4641 27.4084C47.1786 27.761 47.8676 28.1633 48.5259 28.6123C50.5047 29.8438 52.4143 29.3872 53.6043 27.3669C53.8672 26.9241 54.1716 26.758 54.5729 26.8549C54.9742 26.9517 55.2095 27.27 55.1956 27.7543C55.1679 28.5984 55.0988 29.4287 55.0296 30.2728C54.9929 30.44 54.9372 30.6025 54.8635 30.7571C54.7435 30.6958 54.6185 30.6449 54.4899 30.6049C53.8949 30.3973 53.715 30.4665 53.3552 30.9923L52.7187 31.9471C51.3488 29.8576 49.7021 30.1344 48.5397 32.2516C48.346 31.9886 48.1661 31.7257 47.9724 31.4766C47.0176 30.3281 45.7722 30.1759 44.6237 31.1307C44.0702 31.5873 43.6412 32.21 43.1569 32.7635C42.5065 31.6842 41.7454 30.5357 40.2233 30.5357C38.7012 30.5357 37.9401 31.6427 37.2205 32.8604C36.5148 31.6981 35.7537 30.5357 34.2454 30.5357C32.7371 30.5357 31.9346 31.6565 31.2288 32.8604C31.0826 32.5824 30.9112 32.3184 30.7168 32.0717C30.4093 31.6765 30.0563 31.3188 29.6652 31.0062C28.5997 30.2313 27.465 30.3696 26.5794 31.3521C26.3441 31.6289 26.1366 31.9471 25.9013 32.2654C25.4032 31.4905 24.9465 30.6602 23.9226 30.5357C22.8986 30.4112 22.3036 31.1722 21.7501 31.9748L21.072 30.9923C20.7261 30.4527 20.5462 30.3973 19.9512 30.6049L19.5499 30.7709ZM54.5314 45.6187C53.8919 46.092 53.3071 46.635 52.7879 47.2377C51.0167 49.3134 48.775 50.3235 46.0489 50.2958C44.4538 50.2942 42.8664 50.0754 41.3303 49.6455C38.6088 48.8869 35.7303 48.8965 33.0139 49.6731C31.5037 50.0883 29.9445 50.2978 28.3783 50.2958C26.0674 50.3235 24.144 49.3964 22.4696 47.8743C21.4871 46.9748 20.477 46.1169 19.4945 45.2174C19.3556 45.0801 19.2678 44.8995 19.2454 44.7054C19.1901 43.7091 19.3561 42.7682 20.0065 41.9102C20.7676 42.9481 21.6809 43.1971 22.8294 42.4914C23.0646 43.7091 23.7288 44.5117 24.905 44.83C26.0812 45.1482 26.7454 44.4979 27.3543 43.6261C27.548 43.972 27.7141 44.3041 27.894 44.6086C27.9965 44.7908 28.117 44.9624 28.2537 45.1206C29.3192 46.4213 30.6892 46.4351 31.7823 45.1482C32.0176 44.8715 32.1975 44.5532 32.4327 44.2211C33.0139 45.1344 33.5812 46.0892 34.8266 46.0892C36.072 46.0892 36.6255 45.1621 37.2067 44.2073C37.8017 45.1206 38.3691 46.0754 39.5868 46.0892C40.8045 46.103 41.4133 45.1621 41.9945 44.235C42.2436 44.5671 42.4512 44.8992 42.7002 45.1897C43.7519 46.4213 45.108 46.4213 46.132 45.1621C46.4917 44.7331 46.7547 44.2211 47.0868 43.7091C47.6818 44.5671 48.429 45.1344 49.5637 44.8161C50.6984 44.4979 51.2519 43.8337 51.5563 42.7543C52.0683 43.0864 52.5941 43.2663 53.1892 43.1141C53.7842 42.9619 54.1855 42.5606 54.4622 41.9794C54.9742 42.6436 55.1403 43.3632 55.2095 44.1381C55.2786 44.913 55.0711 45.2174 54.5314 45.6187Z" fill="white"/>
</g>
</g>
<defs>
<filter id="filter0_d_324_9999" x="0" y="0" width="76" height="76" filterUnits="userSpaceOnUse" color-interpolation-filters="sRGB">
<feFlood flood-opacity="0" result="BackgroundImageFix"/>
<feColorMatrix in="SourceAlpha" type="matrix" values="0 0 0 0 0 0 0 0 0 0 0 0 0 0 0 0 0 0 127 0" result="hardAlpha"/>
<feOffset dx="2" dy="2"/>
<feGaussianBlur stdDeviation="4"/>
<feComposite in2="hardAlpha" operator="out"/>
<feColorMatrix type="matrix" values="0 0 0 0 0 0 0 0 0 0 0 0 0 0 0 0 0 0 0.04 0"/>
<feBlend mode="normal" in2="BackgroundImageFix" result="effect1_dropShadow_324_9999"/>
<feBlend mode="normal" in="SourceGraphic" in2="effect1_dropShadow_324_9999" result="shape"/>
</filter>
<clipPath id="clip0_324_9999">
<rect width="38.4271" height="30" fill="white" transform="translate(18 21.5)"/>
</clipPath>
</defs>
</svg>
