<svg width="24" height="20" viewBox="0 0 24 20" fill="none" xmlns="http://www.w3.org/2000/svg">
<path d="M1.15221 10.8572C0.495253 10.599 0.391523 10.4514 0.400167 9.71348C0.408811 8.97558 0.382878 8.25614 0.434743 7.52747C0.478685 7.14727 0.424901 6.76149 0.279148 6.4114C-0.0925514 5.58127 -0.0147539 4.67735 0.0716879 3.8011C0.123553 3.28458 0.46932 2.9433 0.94475 2.79572C1.42018 2.64814 1.8351 2.79572 2.18951 3.16467C2.25867 3.23846 2.31918 3.32147 2.38833 3.40448C3.65902 1.77189 5.40515 1.05245 7.24636 0.600485C10.7905 -0.275764 14.3259 -0.211198 17.8268 0.914091C18.8555 1.23692 19.8323 1.70733 20.6881 2.42677C21.0252 2.71271 21.3191 3.05398 21.6389 3.37681L21.7686 3.22923C21.9309 3.02253 22.1481 2.87303 22.3915 2.80036C22.6349 2.72769 22.8932 2.73524 23.1325 2.82202C23.3718 2.90881 23.581 3.07076 23.7325 3.28664C23.884 3.50252 23.9708 3.76223 23.9815 4.03169C23.9988 5.00018 24.0679 5.98711 23.5406 6.86336C23.5061 6.9187 23.5233 7.01094 23.5233 7.09395C23.5493 8.08089 23.6011 9.07704 23.6011 10.064C23.6011 10.5252 23.2813 10.7465 22.8577 10.8295C22.8577 11.383 22.8577 11.9179 22.8664 12.4621C22.8783 12.5378 22.9151 12.6065 22.9701 12.6558C23.6789 13.3568 23.9642 14.2423 23.9988 15.2661C24.0161 15.8749 23.8518 16.2992 23.3764 16.622C22.901 16.9448 22.5725 17.323 22.2267 17.7565C21.0425 19.2508 19.5125 19.9702 17.6799 19.9979C16.5822 20.0173 15.4876 19.8682 14.4297 19.5551C12.839 19.0695 11.1521 19.0727 9.563 19.5644C8.37325 19.9291 7.13244 20.0665 5.89787 19.9702C4.46293 19.8503 3.27868 19.1493 2.24138 18.1255C1.62764 17.5352 1.00526 16.9448 0.374234 16.373C0.258431 16.2801 0.165623 16.1584 0.103862 16.0186C0.0421005 15.8788 0.0132534 15.7249 0.019823 15.5705C0.0025346 14.685 0.123553 13.8549 0.63356 13.1355C0.659492 13.1078 0.676781 13.0617 0.702713 13.0432C1.16085 12.702 1.19543 12.2039 1.15221 11.6597C1.13492 11.3922 1.15221 11.1155 1.15221 10.8572ZM3.01935 13.9933C2.30189 14.4637 1.72273 14.2884 1.2473 13.6059C0.84102 14.1777 0.73729 14.8049 0.78051 15.4691C0.790745 15.5995 0.846228 15.7212 0.936106 15.8103C1.54984 16.4099 2.18087 16.9817 2.78596 17.5813C3.84055 18.5959 5.03345 19.2046 6.48567 19.1954C7.464 19.196 8.43797 19.0564 9.38147 18.7804C11.0754 18.2625 12.8708 18.2561 14.568 18.7619C15.5313 19.0441 16.5253 19.1898 17.5243 19.1954C19.2272 19.2139 20.6189 18.5405 21.734 17.157C22.0532 16.7532 22.4159 16.391 22.8145 16.0778C23.1603 15.8103 23.2813 15.5244 23.2467 15.0909C23.2122 14.6574 23.0998 14.0855 22.78 13.652C22.6071 14.0394 22.3564 14.2976 21.9847 14.4083C21.613 14.519 21.2845 14.3899 20.9647 14.1685C20.7745 14.888 20.3682 15.3491 19.7199 15.5428C19.0716 15.7365 18.5357 15.3768 18.1726 14.8049C17.9651 15.1462 17.8009 15.4875 17.5762 15.7734C16.9365 16.6036 16.0894 16.6036 15.4324 15.7919C15.2738 15.5892 15.1266 15.3767 14.9915 15.1554C14.6285 15.7734 14.2568 16.4006 13.4875 16.3914C12.7181 16.3822 12.3637 15.7458 12.0007 15.137C11.629 15.7734 11.2745 16.3914 10.5052 16.3914C9.73588 16.3914 9.37283 15.755 9.01842 15.1462C8.87146 15.3676 8.75045 15.5797 8.60349 15.7642C7.9206 16.622 7.07347 16.6128 6.39923 15.7458C6.32143 15.6351 6.24363 15.5244 6.17448 15.4045C6.10533 15.2846 5.95838 14.9802 5.846 14.7404C5.46566 15.3307 5.0248 15.755 4.31598 15.5521C3.60716 15.3491 3.1663 14.8049 3.01935 13.9933ZM23.0306 6.17159C23.0781 6.06596 23.1129 5.95441 23.1344 5.83953C23.1776 5.28611 23.2122 4.73269 23.2381 4.17005C23.2467 3.84722 23.0911 3.62585 22.8491 3.57051C22.6071 3.51517 22.3996 3.61663 22.2354 3.91179C21.5006 5.24922 20.2991 5.56282 19.0716 4.74192C18.648 4.45598 18.2331 4.16083 17.7836 3.93946C16.5302 3.33992 15.2595 3.4506 14.0061 3.93946C12.3983 4.56667 10.8337 4.56667 9.21723 3.85644C7.86874 3.27535 6.50296 3.37681 5.28413 4.37297C5.06802 4.54822 4.84328 4.73269 4.61853 4.89872C4.44206 5.03449 4.24088 5.12926 4.02796 5.17693C3.81505 5.22459 3.59513 5.22408 3.38241 5.17543C2.64765 5.02785 2.11171 4.58511 1.7573 3.88411C1.63628 3.63508 1.43747 3.49672 1.1695 3.57051C1.05811 3.59053 0.957308 3.65298 0.885779 3.74626C0.81425 3.83955 0.776849 3.95735 0.78051 4.07781C0.764667 4.51135 0.770439 4.94547 0.797799 5.37835C0.815088 5.64584 0.90153 5.9041 0.962039 6.18081C1.04312 6.13782 1.12688 6.10083 1.21272 6.07013C1.59306 5.93177 1.69679 5.96867 1.92154 6.31917C2.14629 6.66967 2.18951 6.75268 2.33646 6.97405C2.69087 6.4483 3.03664 5.95022 3.70224 6.02401C4.36785 6.0978 4.62717 6.66044 4.92972 7.17697C5.08531 6.9556 5.20633 6.75268 5.36193 6.5682C5.91515 5.91332 6.62398 5.82109 7.28958 6.33761C7.54026 6.53131 7.73908 6.7988 7.94654 7.04784C8.06203 7.21675 8.1688 7.39226 8.26637 7.57359C8.70722 6.77113 9.1913 6.01478 10.1508 6.02401C11.1103 6.03323 11.5684 6.7988 12.0093 7.57359C12.4588 6.7619 12.9342 6.01478 13.8851 6.02401C14.8359 6.03323 15.3114 6.78957 15.7177 7.50902C16.0202 7.14007 16.2882 6.72501 16.6339 6.4114C17.3428 5.77497 18.1294 5.88565 18.7172 6.65122C18.8468 6.81724 18.9506 6.99249 19.0716 7.16774C19.8064 5.75652 20.8264 5.57205 21.6821 6.96482L22.0884 6.32839C22.3132 5.97789 22.4169 5.93177 22.7972 6.07013C22.8771 6.0984 22.955 6.1323 23.0306 6.17159ZM2.90698 4.07781C3.34783 4.47443 3.84055 4.5021 4.2814 4.17005C4.72226 3.838 5.1026 3.4875 5.56074 3.24768C6.92652 2.51901 8.31824 2.61125 9.71859 3.17389C10.1154 3.35301 10.5301 3.483 10.9547 3.56129C11.9747 3.72731 12.9515 3.49672 13.911 3.137C15.7177 2.45444 17.4465 2.61125 19.063 3.77343C19.3136 3.94868 19.573 4.12393 19.8409 4.28073C20.2472 4.5021 20.7399 4.41909 21.1376 4.04092C20.8869 3.75498 20.6621 3.4506 20.3855 3.19234C19.7113 2.56513 18.9074 2.15929 18.0689 1.85491C14.2914 0.517472 10.4966 0.489802 6.67584 1.59664C5.69905 1.88258 4.77412 2.29764 3.94428 2.92485C3.52936 3.23846 3.15766 3.59818 2.90698 4.07781ZM15.3719 11.1893C15.3719 10.5344 15.3805 9.89795 15.3719 9.27074C15.3618 8.51559 15.0874 7.79176 14.6026 7.24153C14.1185 6.66967 13.6258 6.66966 13.1417 7.25076C12.6609 7.80666 12.3899 8.53278 12.381 9.28919V10.9402C12.3854 11.0237 12.394 11.1068 12.4069 11.1893H15.3719ZM8.68129 11.18H11.603C11.603 10.4053 11.6462 9.63047 11.5944 8.87412C11.5425 8.11778 11.2573 7.69349 10.851 7.22309C10.4447 6.75268 9.90877 6.67889 9.42469 7.22309C8.94062 7.76728 8.73316 8.2008 8.68994 8.80956C8.63807 9.58435 8.68129 10.3684 8.68129 11.18ZM18.7431 10.7834C18.7431 10.1654 18.7345 9.58435 18.7431 9.00325C18.749 8.48951 18.6267 7.98335 18.3887 7.53669C17.9046 6.62355 17.3687 6.59588 16.755 7.41678C15.9943 8.42216 16.1066 9.60279 16.1326 10.7834H18.7431ZM7.85145 10.7834C7.85145 10.1101 7.90332 9.46444 7.83416 8.83723C7.76367 8.15549 7.45127 7.52841 6.9611 7.08473C6.53754 6.68811 6.20041 6.72501 5.846 7.18619C5.47683 7.67181 5.27268 8.27653 5.26684 8.9018C5.2582 9.44599 5.26684 9.99019 5.26684 10.5252C5.26684 10.6082 5.28413 10.6912 5.28413 10.7834H7.85145ZM6.42516 11.6043C6.42516 12.4068 6.38194 13.1724 6.43381 13.9287C6.48612 14.4855 6.72564 15.0032 7.10805 15.386C7.39331 15.672 7.65264 15.6904 7.90332 15.3768C8.13241 15.0872 8.3216 14.7642 8.46519 14.4176C8.77638 13.6428 8.57756 12.8311 8.62943 12.1485C7.96383 11.4014 7.18585 11.6412 6.42516 11.6043ZM15.3892 12.1024C15.3892 12.6282 15.3546 13.2093 15.3978 13.7811C15.4359 14.3468 15.6557 14.8811 16.0202 15.2938C16.3487 15.6904 16.6426 15.6996 16.9711 15.303C17.3762 14.8245 17.6036 14.2046 17.6107 13.5598C17.6194 12.9787 17.6194 12.3976 17.6194 11.8165C17.6194 11.7519 17.6021 11.6873 17.5934 11.6043H16.1412C16.0809 11.6113 16.0238 11.637 15.977 11.6781L15.3892 12.1024ZM12.4069 12.0194C12.4069 12.6651 12.3724 13.3015 12.4242 13.9195C12.4761 14.5375 12.6835 14.8787 13.0034 15.2754C13.3232 15.672 13.669 15.7089 14.0061 15.2661C14.1619 15.0568 14.2926 14.8275 14.3951 14.5836C14.7754 13.7627 14.568 12.8864 14.6198 12.0194H12.4069ZM9.39012 12.0194C9.39012 12.5175 9.39876 12.9879 9.39012 13.4583C9.38147 13.9287 9.55435 14.5651 9.84826 15.0448C10.2891 15.7734 10.7127 15.7642 11.1795 15.0448C11.7932 14.1132 11.603 13.0617 11.6203 12.0194H9.39012ZM21.3277 10.3868C21.3422 10.3685 21.3513 10.346 21.3537 10.3222C21.3623 9.82416 21.3537 9.31686 21.3623 8.81878C21.3724 8.31616 21.2496 7.82066 21.0079 7.38911C20.6016 6.63277 20.2731 6.64199 19.8496 7.37989C19.3136 8.32993 19.5557 9.36298 19.4865 10.3868H21.3277ZM2.6563 10.3868H4.50615C4.50615 9.73193 4.56666 9.09549 4.48886 8.47751C4.41124 8.01655 4.25288 7.57533 4.02208 7.17697C3.74546 6.67889 3.42563 6.67889 3.14037 7.18619C2.85511 7.69349 2.7341 7.99787 2.68223 8.43139C2.60443 9.06782 2.6563 9.7227 2.6563 10.3868ZM20.2386 11.2077C19.8323 11.2354 19.4347 11.0694 19.1408 11.4752C19.0716 11.5582 18.9074 11.5767 18.7777 11.5951C18.6429 11.6125 18.5068 11.6156 18.3714 11.6043V12.868C18.3628 13.4491 18.5529 13.9656 18.8555 14.436C19.158 14.9064 19.5125 14.9341 19.8842 14.5651C20.0484 14.3991 20.2126 14.1224 20.2213 13.8918C20.2645 13.0156 20.2386 12.1301 20.2386 11.2077ZM5.63854 11.6873C5.33599 11.5951 5.00751 11.5951 4.83463 11.4199C4.48886 11.0786 4.13445 11.2538 3.7714 11.2077C3.7714 12.1116 3.74546 12.9787 3.78004 13.8457C3.80151 14.0971 3.90561 14.3324 4.07394 14.5098C4.41107 14.8603 4.83463 14.971 5.14582 14.3991L5.37921 13.9656C5.75956 13.2277 5.61261 12.4345 5.63854 11.6873ZM22.0625 10.7096C21.8032 11.2262 21.3969 11.2169 20.9906 11.2169C20.9906 11.6597 21.0165 12.0747 20.982 12.4806C20.9474 12.8864 21.0598 13.1816 21.3537 13.4306C21.5006 13.5505 21.6303 13.6889 21.8377 13.6059C22.0452 13.5229 22.0971 13.3199 22.0971 13.1078C22.1057 12.3976 22.1057 11.6873 22.1143 10.9863C22.1143 10.931 22.0884 10.8757 22.0625 10.7096ZM1.92154 10.8111C1.92154 11.6043 1.9129 12.3699 1.93019 13.1355C1.93019 13.3845 2.25867 13.569 2.4229 13.4029C2.58714 13.2369 2.92427 12.8864 2.99342 12.582C3.06257 12.2777 3.01935 11.6873 3.01935 11.2262C2.80325 11.2077 2.60443 11.2262 2.4229 11.1616C2.24138 11.097 2.11171 10.9495 1.92154 10.8111ZM1.89561 9.99941C1.89561 9.4091 1.85239 8.84645 1.90425 8.29303C1.95612 7.73961 1.65357 7.34299 1.34238 6.86336C1.0139 7.94253 1.21272 8.96636 1.14357 9.99941H1.89561ZM22.6935 6.94637L22.6071 6.92793C22.4428 7.21386 22.1749 7.48135 22.1489 7.77651C22.0798 8.50518 22.123 9.24307 22.123 9.98097H22.875C22.7886 8.95714 23.0047 7.93331 22.6935 6.94637Z" fill="#100E10"/>
</svg>
