<svg width="40" height="40" viewBox="0 0 40 40" fill="none" xmlns="http://www.w3.org/2000/svg">
<path d="M17.5052 18.0645H17.4262C17.1466 18.0641 16.8695 18.1269 16.6101 18.2494C16.5226 18.3002 16.4517 18.3832 16.4082 18.4856C16.3901 18.5399 16.3815 18.5979 16.383 18.6562C16.3845 18.7144 16.3961 18.7717 16.417 18.8246C16.4439 18.9047 16.4911 18.9733 16.5523 19.021C16.6135 19.0688 16.6857 19.0934 16.7593 19.0917C16.8083 19.0926 16.8568 19.0784 16.8997 19.0506C17.0683 18.9775 17.2465 18.9393 17.4262 18.9376H17.4964C17.5942 18.9376 17.6879 18.8921 17.7571 18.8112C17.8262 18.7303 17.865 18.6206 17.865 18.5062C17.8662 18.4495 17.8578 18.3931 17.8403 18.3403C17.8229 18.2874 17.7967 18.2391 17.7633 18.198C17.7299 18.157 17.6899 18.1241 17.6456 18.1012C17.6013 18.0783 17.5536 18.0658 17.5052 18.0645Z" fill="#100E10"/>
<path d="M18.8986 19.5228C18.9553 19.5233 19.0113 19.5076 19.0617 19.4772C19.1122 19.4468 19.1555 19.4025 19.1882 19.3482C19.248 19.2576 19.2762 19.1438 19.2671 19.0297C19.2493 18.9157 19.1962 18.8133 19.118 18.7421C18.8896 18.5358 18.6349 18.3729 18.3632 18.2593C18.3215 18.2392 18.2768 18.2288 18.2316 18.2285C18.1564 18.2297 18.0831 18.2566 18.0207 18.3058C17.9583 18.3551 17.9096 18.4246 17.8806 18.5059C17.8626 18.5584 17.8541 18.6147 17.8556 18.6713C17.8572 18.7279 17.8686 18.7834 17.8893 18.8346C17.907 18.8883 17.9341 18.9371 17.9688 18.9778C18.0036 19.0185 18.0453 19.0502 18.0912 19.0708H18.1087C18.3097 19.154 18.499 19.2717 18.6704 19.4201C18.7331 19.486 18.8143 19.5226 18.8986 19.5228Z" fill="#100E10"/>
<path d="M30.9921 13.9139C30.448 13.236 29.5002 12.8867 28.1751 12.8867C25.8934 12.8867 23.05 13.9139 21.3124 14.7974C20.8968 15.0077 20.4488 15.1162 19.9961 15.1162C19.5433 15.1162 19.0953 15.0077 18.6797 14.7974C16.9421 13.9139 14.1075 12.8867 11.817 12.8867C10.5007 12.8867 9.5529 13.236 9.00003 13.9139C7.75387 15.4548 7.66611 18.218 8.77186 20.5292C8.73675 21.6078 8.86839 22.7789 8.99125 23.1178C9.24575 23.8369 10.606 24.1759 11.4485 24.1759H11.6766C11.8265 24.1675 11.9744 24.1329 12.1154 24.0732C12.3891 24.3378 12.71 24.5273 13.0544 24.6279C13.0369 25.4599 13.0457 26.292 13.0983 27.1137C13.1031 27.471 13.2132 27.8154 13.4098 28.0886C13.6065 28.3619 13.8778 28.5473 14.1777 28.6135C14.9047 28.7655 15.6419 28.8412 16.3804 28.8395H16.4331C16.7754 28.8395 17.1001 28.8292 17.416 28.7984C17.7319 28.7676 18.2234 28.6751 18.4427 28.1307C18.6621 27.5863 18.6709 26.4563 18.5656 25.1312C18.5933 25.2078 18.6398 25.273 18.6991 25.3187C18.7585 25.3644 18.8281 25.3885 18.8991 25.388H18.9254L19.2677 25.3675C19.4557 25.3493 19.6397 25.2937 19.8118 25.2031C19.8782 25.1648 19.9333 25.1039 19.9697 25.0285C20.2242 25.2956 20.5928 25.3469 20.7244 25.3675C20.9965 25.388 21.2861 25.3983 21.5845 25.3983H21.6283C22.2843 25.4001 22.9391 25.3348 23.5853 25.2031C23.8584 25.1446 24.1044 24.9733 24.2786 24.7203C24.4809 24.8107 24.6942 24.8627 24.9105 24.8744H25.244C26.025 24.8744 27.3414 24.6587 27.8855 24.0732C28.0252 24.1237 28.1695 24.1548 28.3155 24.1656H28.5524C29.3861 24.1656 30.7464 23.8266 31.0096 23.1076C31.1237 22.7686 31.2554 21.5976 31.229 20.519C32.3348 18.218 32.247 15.4548 30.9921 13.9139ZM20.6016 20.7141C20.7164 20.2098 20.9688 19.7632 21.3206 19.4424C21.6723 19.1216 22.1039 18.9441 22.5498 18.9371H22.6376C22.9094 18.9348 23.1724 19.0498 23.3764 19.2601C23.5803 19.4705 23.711 19.7614 23.7433 20.0773C23.9539 21.4846 23.8662 23.2617 23.8311 23.765C23.8367 23.897 23.8004 24.0267 23.7291 24.1292C23.6577 24.2317 23.5565 24.2995 23.4449 24.3197C22.8401 24.4513 22.226 24.5166 21.6108 24.5149C21.3387 24.5149 21.0579 24.5046 20.7859 24.4738H20.7683C20.6525 24.4769 20.5398 24.4293 20.4524 24.3402C20.3295 23.9704 20.3032 22.2242 20.6016 20.7141ZM24.5682 23.8266C24.6326 22.8455 24.6355 21.8601 24.577 20.8785C24.6472 19.8102 25.4019 19.1528 26.1215 18.9781C26.2456 18.9464 26.372 18.9292 26.4989 18.9268C26.8324 18.9268 27.0869 19.05 27.1834 19.2658C27.5695 20.1286 27.5783 22.9329 27.4028 23.4157C27.3765 23.4876 27.0167 23.765 26.1742 23.9191C25.8726 23.9787 25.5674 24.0096 25.2615 24.0115C25.0249 24.021 24.7884 23.9899 24.5595 23.9191C24.5666 23.889 24.5696 23.8578 24.5682 23.8266ZM13.8442 27.0521C13.8179 26.6412 13.6951 24.5149 13.9408 22.8508C13.9832 22.4795 14.1389 22.1386 14.3793 21.8913C14.6196 21.6439 14.9283 21.5068 15.2484 21.5051H15.3361C16.2313 21.5051 17.337 22.2242 17.6003 23.5698C17.9513 25.3058 17.9162 27.3089 17.767 27.7403C17.6597 27.8575 17.5188 27.9234 17.3721 27.9252H17.3546C17.0386 27.9458 16.7227 27.9663 16.4155 27.9663C15.7124 27.9664 15.0105 27.8942 14.3181 27.7506C14.1819 27.7212 14.0591 27.6356 13.9722 27.5093C13.8852 27.3831 13.8399 27.2245 13.8442 27.0624V27.0521ZM9.67576 22.7891C9.52657 22.368 9.38616 19.9026 9.71086 19.2555C9.82495 19.0295 10.0092 18.9165 10.2725 18.9165L10.4744 18.9371C10.8081 19.0262 11.112 19.2288 11.3477 19.5194C11.5835 19.8099 11.7406 20.1756 11.7995 20.5703C11.7103 21.468 11.7132 22.375 11.8083 23.2719C11.6811 23.3008 11.5517 23.3146 11.4221 23.313C11.1026 23.3069 10.7847 23.2586 10.4744 23.1692C9.90393 23.0151 9.69331 22.8199 9.67576 22.7891ZM28.1926 20.5703C28.2547 20.1771 28.4129 19.8135 28.6482 19.5236C28.8834 19.2336 29.1855 19.0299 29.5178 18.9371L29.7196 18.9165C29.9829 18.9165 30.1759 19.0295 30.2812 19.2555C30.606 19.9026 30.4655 22.3577 30.3164 22.7891C30.29 22.8302 30.0794 23.0254 29.5265 23.1692C29.2161 23.258 28.8983 23.3063 28.5788 23.313C28.4492 23.3152 28.3197 23.3014 28.1926 23.2719C28.2892 22.3749 28.2892 21.4673 28.1926 20.5703ZM18.3287 23.3644C18.1973 22.7398 17.924 22.1684 17.5378 21.7109C17.1515 21.2533 16.6667 20.9267 16.1347 20.7655C16.1082 20.6843 16.0613 20.6144 16.0002 20.5649C15.9392 20.5154 15.8667 20.4886 15.7925 20.4882H15.7047C15.6276 20.5071 15.559 20.5582 15.5116 20.632H15.2396C14.7443 20.6357 14.2666 20.8471 13.8931 21.2278C13.5196 21.6085 13.275 22.1333 13.2036 22.707C13.1597 23.0151 13.1246 23.3438 13.0983 23.7136C12.7561 23.5904 12.6069 23.4568 12.5893 23.4157C12.4138 22.9329 12.4226 20.1286 12.8175 19.2658C12.914 19.05 13.151 18.9268 13.4844 18.9268H13.4932C13.8425 18.9346 14.1844 19.0461 14.4868 19.251C14.7892 19.4558 15.0422 19.7472 15.222 20.0978C15.2552 20.1671 15.3036 20.2246 15.3623 20.2644C15.421 20.3042 15.4877 20.3247 15.5555 20.3238H15.5994C15.6539 20.4049 15.732 20.4597 15.8188 20.4779H15.8802C15.9677 20.4773 16.0524 20.4411 16.1196 20.3755C16.1869 20.3099 16.2325 20.219 16.2488 20.1184V20.0773C16.281 19.8518 16.356 19.6377 16.4682 19.4507C16.5228 19.3548 16.5432 19.2379 16.5252 19.1247C16.5072 19.0114 16.4521 18.911 16.3717 18.8446C16.3106 18.7919 16.2369 18.7631 16.161 18.7624C16.1033 18.7636 16.0466 18.7799 15.9949 18.8101C15.9433 18.8403 15.8981 18.8837 15.8627 18.9371C15.7928 19.0614 15.7312 19.1919 15.6784 19.3274C15.4178 18.9385 15.0865 18.6224 14.7085 18.4021C14.3305 18.1817 13.9154 18.0627 13.4932 18.0536H13.4844C12.8614 18.0639 12.3875 18.3515 12.1593 18.8549C12.1169 18.9468 12.0816 19.0431 12.054 19.1425C11.6955 18.6027 11.1859 18.228 10.6148 18.0845C10.4988 18.0606 10.3815 18.0469 10.2637 18.0434C10.0242 18.0354 9.78713 18.1027 9.57726 18.2381C9.36739 18.3736 9.19232 18.5724 9.07023 18.8138C9.04165 18.8653 9.01811 18.9205 9.00003 18.9781C8.53491 17.3038 8.7192 15.5267 9.54412 14.5097C9.93903 14.0167 10.7289 13.7599 11.817 13.7599C13.6424 13.7599 16.1523 14.4686 18.3813 15.5986C18.8916 15.8546 19.4409 15.9873 19.9961 15.9889C20.5514 15.9894 21.101 15.8565 21.6108 15.5986C23.8398 14.4686 26.3585 13.7599 28.1751 13.7599C29.2633 13.7599 30.0531 14.0167 30.448 14.5097C31.2729 15.5267 31.4572 17.3038 30.9921 18.9781C30.977 18.9208 30.9564 18.8657 30.9307 18.8138C30.8065 18.5723 30.6297 18.3737 30.4185 18.2384C30.2072 18.103 29.9691 18.0357 29.7284 18.0434C29.6107 18.0474 29.4934 18.0611 29.3773 18.0845C28.8088 18.2286 28.3022 18.6034 27.9469 19.1425L27.8416 18.8549C27.6134 18.3515 27.122 18.0536 26.4989 18.0536C26.3189 18.0578 26.1397 18.0819 25.9636 18.1255C25.3116 18.2841 24.7295 18.7104 24.3225 19.3274C24.1737 18.9508 23.936 18.6318 23.6375 18.4079C23.339 18.1841 22.9921 18.0647 22.6376 18.0639H22.5674C21.5757 18.0639 20.4436 18.7522 19.9961 20.0773C19.9265 19.8664 19.8351 19.6664 19.724 19.4815C19.6906 19.4217 19.6451 19.3726 19.5915 19.3386C19.5378 19.3045 19.4779 19.2866 19.4169 19.2863C19.3412 19.2884 19.2678 19.317 19.2062 19.3685C19.1271 19.4361 19.0711 19.5344 19.0483 19.6458C19.0336 19.7605 19.0555 19.8775 19.1097 19.9745H19.1185C19.2347 20.1751 19.3208 20.3975 19.373 20.632C19.3957 20.7233 19.4429 20.8037 19.5078 20.861C19.5726 20.9184 19.6515 20.9498 19.7328 20.9504H19.803C19.6011 22.2242 19.5748 23.6212 19.6977 24.3608H19.6538C19.6018 24.3585 19.5503 24.3727 19.5046 24.4019H19.4871C19.399 24.4507 19.3036 24.4786 19.2062 24.484L18.8903 24.5149C18.8083 24.519 18.7296 24.5543 18.6662 24.6154C18.6029 24.6766 18.5583 24.7603 18.5393 24.8538C18.4962 24.3526 18.4258 23.8551 18.3287 23.3644Z" fill="#100E10"/>
<path d="M26.5968 27.4222L26.1142 27.114C25.9924 27.0432 25.8938 26.9278 25.8333 26.7853L25.5701 26.2203C25.5245 26.1259 25.4582 26.0474 25.3779 25.9932C25.2976 25.939 25.2064 25.911 25.1137 25.9122C25.0222 25.9107 24.932 25.9386 24.8531 25.993C24.7742 26.0473 24.7095 26.1259 24.6662 26.2203L24.4029 26.7853C24.3368 26.9264 24.2358 27.041 24.1133 27.114L23.6394 27.4222C23.5528 27.4826 23.4804 27.5673 23.4288 27.6687C23.3966 27.7381 23.3766 27.8142 23.3698 27.8927C23.363 27.9712 23.3696 28.0505 23.3892 28.126C23.4088 28.2015 23.441 28.2717 23.4839 28.3325C23.5269 28.3933 23.5797 28.4435 23.6394 28.4802L24.1133 28.7884C24.2338 28.8647 24.334 28.9785 24.4029 29.1171L24.6662 29.6821C24.7091 29.7776 24.7734 29.8578 24.8523 29.9138C24.9311 29.9699 25.0215 29.9999 25.1137 30.0005C25.2071 29.9995 25.2985 29.9696 25.3787 29.9136C25.4589 29.8576 25.525 29.7777 25.5701 29.6821L25.8333 29.1171C25.8963 28.9767 25.9942 28.862 26.1142 28.7884L26.5968 28.4802C26.6806 28.4235 26.7502 28.342 26.7987 28.244C26.8316 28.1741 26.8525 28.0973 26.86 28.018C26.8675 27.9386 26.8616 27.8583 26.8426 27.7817C26.8245 27.7055 26.7934 27.6343 26.7512 27.5725C26.7089 27.5107 26.6564 27.4596 26.5968 27.4222ZM25.1137 28.8295L25.0523 28.7062C24.9207 28.4182 24.7191 28.1823 24.4731 28.0282L24.359 27.9563L24.4731 27.8844C24.7194 27.7261 24.9208 27.4869 25.0523 27.1962L25.1137 27.0729L25.1752 27.1962C25.3067 27.4869 25.508 27.7261 25.7544 27.8844L25.8684 27.9563L25.7544 28.0282C25.5083 28.1823 25.3068 28.4182 25.1752 28.7062L25.1137 28.8295Z" fill="#100E10"/>
<path d="M21.4211 12.0442L21.7546 12.2599C21.8191 12.3013 21.8735 12.3614 21.9125 12.4345L22.0968 12.8351C22.1367 12.9224 22.1962 12.9954 22.2689 13.0461C22.3416 13.0967 22.4247 13.1233 22.5093 13.1228C22.5933 13.1201 22.6753 13.0923 22.7476 13.0419C22.8198 12.9916 22.8797 12.9204 22.9217 12.8351L23.106 12.4345C23.1416 12.3619 23.1931 12.3016 23.2552 12.2599L23.5975 12.0442C23.6737 11.9876 23.737 11.91 23.7818 11.8182C23.8111 11.756 23.8293 11.6876 23.8354 11.617C23.8414 11.5463 23.8351 11.475 23.8169 11.4073C23.7831 11.2685 23.7044 11.1506 23.5975 11.0786L23.2552 10.8629C23.1907 10.8202 23.1388 10.7557 23.106 10.678L22.9217 10.2876C22.8762 10.1931 22.8094 10.115 22.7287 10.0616C22.6605 10.0218 22.5855 10.0007 22.5093 10C22.4237 10.0009 22.3399 10.0279 22.266 10.0783C22.1921 10.1288 22.1308 10.2009 22.088 10.2876L21.9125 10.678C21.8738 10.754 21.8195 10.8175 21.7546 10.8629L21.4211 11.0786C21.341 11.1283 21.2741 11.2029 21.228 11.2943C21.1984 11.3582 21.1801 11.4284 21.1741 11.5007C21.168 11.5731 21.1744 11.6461 21.1929 11.7155C21.2098 11.7856 21.2387 11.8509 21.278 11.9074C21.3172 11.9639 21.3659 12.0105 21.4211 12.0442ZM22.5005 11.2018C22.5823 11.3436 22.6865 11.4657 22.8076 11.5614C22.6887 11.656 22.5848 11.7742 22.5005 11.9106C22.4218 11.7722 22.3204 11.6535 22.2021 11.5614C22.3226 11.4681 22.4244 11.3455 22.5005 11.2018Z" fill="#100E10"/>
<path d="M12.5277 26.0861L12.1942 25.8704C12.1278 25.8321 12.0727 25.7712 12.0363 25.6957L11.852 25.2951C11.8094 25.2041 11.7454 25.1293 11.6677 25.0794C11.5967 25.0384 11.5186 25.0173 11.4395 25.0178C11.3556 25.0151 11.2727 25.0396 11.2 25.0886C11.1272 25.1375 11.0674 25.209 11.027 25.2951L10.8428 25.6957C10.8063 25.7712 10.7512 25.8321 10.6848 25.8704L10.3513 26.0861C10.2732 26.1401 10.2095 26.2183 10.167 26.3121C10.1362 26.3735 10.1165 26.4416 10.1089 26.5122C10.1014 26.5829 10.1062 26.6546 10.1231 26.723C10.1599 26.863 10.2417 26.9809 10.3513 27.0517L10.6848 27.2674C10.7536 27.3066 10.8092 27.3717 10.8428 27.4523L11.027 27.8426C11.0669 27.9299 11.1264 28.0029 11.1991 28.0535C11.2718 28.1042 11.3549 28.1307 11.4395 28.1302C11.5241 28.1307 11.6072 28.1042 11.6799 28.0535C11.7526 28.0029 11.8121 27.9299 11.852 27.8426L12.0363 27.4523C12.0698 27.3717 12.1254 27.3066 12.1942 27.2674L12.5277 27.0517C12.6054 27.0018 12.6694 26.9269 12.712 26.8359C12.7718 26.7077 12.786 26.5571 12.7515 26.4167C12.717 26.2763 12.6366 26.1575 12.5277 26.0861ZM11.1324 26.5689C11.2551 26.4798 11.3599 26.3606 11.4395 26.2196C11.5204 26.3588 11.6213 26.4805 11.7379 26.5791C11.6196 26.6712 11.5182 26.79 11.4395 26.9284C11.3577 26.7866 11.2535 26.6646 11.1324 26.5689Z" fill="#100E10"/>
</svg>
