<svg width="24" height="20" viewBox="0 0 24 20" fill="none" xmlns="http://www.w3.org/2000/svg">
<path d="M17.6609 20C17.579 19.9968 17.4985 19.9714 17.4246 19.9254C17.3506 19.8795 17.2847 19.814 17.2311 19.7331C17.0401 19.4903 16.8974 19.1901 16.8155 18.8587C16.6394 18.0028 16.4774 17.0824 16.3013 15.9779C16.2097 15.3612 16.1181 14.7354 16.0336 14.1279C15.949 13.5205 15.8927 13.1155 15.8152 12.6185C15.7924 12.5805 15.7599 12.5543 15.7236 12.5449L15.2657 12.5725C14.8148 12.5862 14.3652 12.6415 13.9202 12.7381C13.2235 12.9103 12.5159 12.9966 11.8068 12.9959C10.9378 12.986 10.0709 12.8845 9.21444 12.6921C8.86194 12.6253 8.50676 12.5853 8.15071 12.5725L7.61532 12.5265H7.5801C7.52374 12.5265 7.49556 12.5265 7.47443 12.7013C7.26309 14.404 7.01653 16.4197 6.73475 18.4445C6.67839 18.8219 6.54455 19.1716 6.4107 19.503L6.39661 19.5582C6.35254 19.6835 6.28212 19.7898 6.19356 19.8647C6.105 19.9397 6.00196 19.9802 5.89645 19.9816H5.80487C5.64284 19.9448 5.43151 19.8067 5.36106 19.3465C5.31666 19.0682 5.30008 18.7836 5.31175 18.4998C5.33993 17.607 5.33993 16.4381 5.10041 15.2876L5.08632 15.2324L5.04405 15.0391C4.9243 14.6894 4.76227 14.5237 4.51571 14.5145H4.50162C4.38454 14.5161 4.27119 14.5686 4.17938 14.6635C4.08757 14.7585 4.02251 14.8906 3.99441 15.0391C3.89579 15.5085 3.79012 16.0147 3.76194 16.5209C3.73377 17.0271 3.73377 17.3953 3.72672 17.8279C3.72672 18.0948 3.72672 18.3801 3.71968 18.647C3.72188 18.9337 3.69101 19.2191 3.6281 19.4938C3.54356 19.8067 3.3604 20 3.14907 20C2.93773 20 2.83911 19.8895 2.7123 19.6963C2.56386 19.4622 2.45574 19.1891 2.3953 18.8955C2.21919 17.7911 2.05716 16.6682 1.91627 15.619C1.85287 15.168 1.79651 14.717 1.74015 14.2752C1.6838 13.8334 1.6204 13.3088 1.54995 12.8302C1.54133 12.8055 1.52865 12.7837 1.51282 12.7662C1.49699 12.7487 1.4784 12.736 1.45837 12.7289C1.13432 12.6553 0.796183 12.5909 0.338287 12.5265C0.239663 12.508 -0.00689671 12.4804 0.000147856 12.1307C0.00719242 11.7809 0.119905 11.7625 0.310108 11.7625H0.37351L1.28226 11.9098L1.38088 11.9282L1.59222 11.965H1.61335C1.77538 11.3668 2.13465 11.0814 2.50801 10.8698C2.60834 10.7936 2.68735 10.6775 2.73344 10.5384C2.79698 10.3708 2.85342 10.1987 2.90251 10.023C2.97295 9.79291 3.05044 9.5536 3.14202 9.32351C3.45198 8.61481 3.96624 8.19143 4.50867 8.19143C5.0511 8.19143 5.49491 8.55959 5.81896 9.19465C5.94634 9.45709 6.05483 9.73439 6.14301 10.023C6.20641 10.1979 6.26276 10.382 6.33321 10.5568C6.3878 10.6914 6.46783 10.8054 6.56568 10.8882C6.89677 11.0999 7.1856 11.3115 7.35467 11.7533L7.38989 11.7809C7.55818 11.7544 7.7276 11.7421 7.8971 11.7441C8.50294 11.7441 9.09468 11.873 9.67233 12.0018L10.0457 12.0755C10.5863 12.1869 11.1328 12.2423 11.68 12.2411C12.4771 12.2336 13.2719 12.1289 14.054 11.9282C14.4782 11.8127 14.91 11.7511 15.3432 11.7441C15.5246 11.7454 15.7057 11.7608 15.8856 11.7901C15.9212 11.7877 15.9555 11.7717 15.9843 11.7441C16.1658 11.3533 16.4561 11.0696 16.7944 10.9526C17.0621 10.8513 17.2171 10.6489 17.3157 10.2899C17.4158 9.93422 17.5507 9.597 17.7172 9.28669C17.8859 8.95283 18.1149 8.6783 18.3839 8.4873C18.6529 8.2963 18.9538 8.19469 19.26 8.19143C19.5231 8.18981 19.7833 8.26403 20.0219 8.4088C20.2606 8.55357 20.4719 8.76533 20.6407 9.02898C20.8873 9.39714 21.0563 9.83892 21.2254 10.2623C21.2606 10.3451 21.2888 10.428 21.324 10.5016C21.4086 10.7225 21.4931 10.8329 21.634 10.8882C21.9228 11.017 22.2469 11.2103 22.4793 11.6061L22.6202 11.6245L23.0147 11.6613L23.6487 11.7165C23.7967 11.7349 23.8953 11.7993 23.9517 11.9098C23.9754 11.955 23.991 12.0067 23.9971 12.0609C24.0032 12.1152 23.9997 12.1705 23.9869 12.2227C23.9446 12.4068 23.8601 12.4988 23.7262 12.4988L23.5924 12.4804L23.529 12.462C23.3177 12.4252 23.0922 12.4068 22.8809 12.3884L22.7118 12.37L22.585 13.3272C22.4723 14.1555 22.3666 14.9287 22.2539 15.711C22.106 16.751 21.951 17.6806 21.789 18.5826C21.7231 18.8882 21.6234 19.1797 21.4931 19.4478C21.324 19.8067 21.1338 19.9816 20.8943 19.9816L20.7464 19.9632C20.3448 19.8435 20.2814 19.3097 20.2674 19.1348C20.2395 18.8665 20.2324 18.5951 20.2462 18.3249C20.2744 17.4137 20.2603 16.3553 20.0067 15.3152C19.9151 14.9471 19.7179 14.5053 19.267 14.5053C18.8162 14.5053 18.6048 14.9379 18.5203 15.306C18.2526 16.3737 18.2526 17.5057 18.2737 18.5642C18.2845 18.8629 18.2559 19.1617 18.1892 19.4478C18.0976 19.7883 17.9004 20 17.6609 20ZM16.414 12.6737C16.4703 13.0511 16.5196 13.4192 16.569 13.7966C16.7028 14.7538 16.8367 15.7386 16.9916 16.705C17.1043 17.4321 17.2805 18.15 17.4425 18.8403C17.4817 18.9537 17.5367 19.0567 17.6045 19.144L17.6397 19.2085C17.6479 19.1725 17.6526 19.1354 17.6538 19.098C17.6775 18.9402 17.6917 18.7802 17.6961 18.6194C17.6609 17.5242 17.6679 16.2356 17.9779 14.9839C18.1751 14.2108 18.6542 13.7506 19.267 13.7506C19.8799 13.7506 20.366 14.22 20.535 14.9839C20.6407 15.4349 20.7464 15.9043 20.7746 16.3829C20.8027 16.8615 20.8098 17.3585 20.8168 17.8371C20.8168 18.1224 20.8168 18.4261 20.8239 18.7207C20.8336 18.8606 20.8524 18.9991 20.8802 19.1348C20.8817 19.1573 20.8865 19.1792 20.8943 19.1993L20.9366 19.1348C21.004 19.0331 21.0586 18.9182 21.0986 18.7943C21.2578 18.2172 21.3873 17.6268 21.4861 17.0271C21.6622 15.8951 21.8242 14.7446 21.9792 13.6217L22.106 12.7105C22.1122 12.6464 22.1146 12.5818 22.113 12.5172L21.3099 12.6829C20.6055 12.8302 19.9363 12.9682 19.2529 12.9866H19.098C18.4639 12.9866 17.8158 12.8854 17.1959 12.7842L16.414 12.6737ZM2.22623 13.2444C2.28259 13.6677 2.33894 14.0635 2.38825 14.4593C2.43757 14.855 2.44461 15.0023 2.46574 15.26C2.48688 15.5177 2.5221 15.9135 2.56437 16.2356C2.67004 17.0087 2.79684 17.8003 2.93773 18.601C2.97138 18.7637 3.02362 18.9189 3.09271 19.0612C3.09271 19.0796 3.09976 19.0888 3.1068 19.1072C3.11384 19.1256 3.11384 19.0888 3.11384 19.0704C3.13122 18.9088 3.13829 18.7457 3.13498 18.5826C3.08567 17.1284 3.16316 16.0147 3.38154 14.9839C3.55061 14.2108 3.97328 13.7506 4.51571 13.7506H4.5298C5.07223 13.7598 5.48786 14.22 5.64284 14.9931C5.65693 15.0391 5.66398 15.0943 5.67807 15.1403C5.72846 15.3499 5.76153 15.5659 5.77669 15.7846C5.80487 16.3645 5.826 16.9535 5.84714 17.5242C5.86122 17.8923 5.86827 18.2697 5.8894 18.6378C5.89415 18.792 5.90592 18.9457 5.92463 19.098C5.96321 19.0306 5.99407 18.9562 6.0162 18.8771L6.05847 18.7022C6.15642 18.342 6.23412 17.9728 6.29094 17.5978C6.45297 16.3461 6.60795 15.0759 6.75588 13.8518C6.8052 13.456 6.85451 13.0603 6.89677 12.6553C6.90347 12.6417 6.90598 12.6252 6.90382 12.6093L6.36843 12.7105C5.49491 12.8762 4.5932 13.0511 3.69854 13.0511C3.18527 13.0551 2.67303 12.9904 2.16987 12.8578C2.19101 12.9866 2.2051 13.1155 2.22623 13.2444ZM2.21919 12.0847C2.7144 12.225 3.22002 12.2929 3.72672 12.2872C4.57911 12.2872 5.43855 12.1215 6.27685 11.9558L6.68544 11.873C6.58218 11.78 6.47388 11.6969 6.36139 11.6245C6.22375 11.551 6.09974 11.4398 5.99768 11.2986C5.89562 11.1573 5.81787 10.9891 5.76964 10.8053C5.62171 10.3359 5.45968 9.84813 5.22721 9.45236C5.14751 9.30144 5.04136 9.17758 4.91759 9.09113C4.79383 9.00468 4.65604 8.95812 4.51571 8.95535C4.36181 8.96144 4.21138 9.01662 4.07754 9.11608C3.9437 9.21554 3.83052 9.35627 3.74786 9.52599C3.58966 9.82254 3.46619 10.1483 3.38154 10.4924C3.24065 11.1275 2.97295 11.514 2.55028 11.6981C2.47714 11.7278 2.40973 11.7777 2.35261 11.8444C2.29549 11.9111 2.24999 11.993 2.21919 12.0847ZM16.6605 11.9006C17.3944 12.1065 18.1431 12.2083 18.8937 12.2043C19.8301 12.2068 20.7629 12.0521 21.6692 11.7441L21.3945 11.5877C21.2604 11.5274 21.1377 11.4305 21.0345 11.3036C20.9313 11.1767 20.8499 11.0225 20.7957 10.8514C20.6337 10.3912 20.4787 9.97698 20.2674 9.62724C20.1503 9.42154 19.9985 9.25391 19.8238 9.13737C19.6491 9.02084 19.4561 8.95855 19.26 8.95535C18.8303 8.95535 18.4358 9.24988 18.1751 9.7745C18.053 9.99115 17.9557 10.2299 17.8863 10.4832C17.8263 10.7799 17.7064 11.05 17.5391 11.2654C17.3717 11.4807 17.1632 11.6334 16.9353 11.7073C16.8362 11.7517 16.7434 11.817 16.6605 11.9006Z" fill="#100E10"/>
<path d="M22.6272 12.2236C22.4652 13.4293 22.3173 14.5614 22.1482 15.6935C22.0073 16.6507 21.8594 17.5987 21.6833 18.5467C21.6247 18.8411 21.5295 19.1209 21.4015 19.375C21.2676 19.6696 21.0704 19.9181 20.7745 19.826C20.4786 19.734 20.4082 19.4303 20.373 19.1173C20.3482 18.8548 20.3411 18.5899 20.3518 18.3258C20.38 17.295 20.3518 16.2733 20.1123 15.2793C19.9644 14.6995 19.6756 14.3681 19.267 14.3681C18.8584 14.3681 18.5625 14.6903 18.4146 15.2609C18.1539 16.347 18.1469 17.4514 18.168 18.5651C18.1784 18.848 18.1522 19.1311 18.0905 19.4026C17.9567 19.8904 17.5833 20.0101 17.3086 19.6419C17.1305 19.414 16.9975 19.1329 16.9211 18.8228C16.7239 17.8748 16.5548 16.9176 16.4069 15.9512C16.2308 14.8283 16.0899 13.7054 15.9208 12.5826C15.9014 12.5345 15.8733 12.4935 15.8389 12.463C15.8045 12.4325 15.7649 12.4135 15.7236 12.4077C15.1107 12.4537 14.4978 12.4537 13.899 12.601C12.3351 12.9967 10.7853 12.8863 9.22847 12.555C8.70013 12.4445 8.1577 12.4445 7.62231 12.3893C7.45324 12.3709 7.39689 12.4537 7.36871 12.6838C7.13624 14.5982 6.89672 16.5126 6.62903 18.427C6.57972 18.7952 6.43178 19.1541 6.29794 19.4947C6.25978 19.6123 6.19253 19.7097 6.10696 19.7715C6.02139 19.8332 5.92244 19.8557 5.82595 19.8352C5.60052 19.7892 5.5019 19.5591 5.46668 19.3106C5.42229 19.0448 5.40571 18.7723 5.41736 18.5007C5.45259 17.3962 5.42441 16.3101 5.19898 15.2425C5.18433 15.1511 5.1631 15.0617 5.13558 14.9756C5.02287 14.6258 4.83267 14.3865 4.52271 14.3681C4.37945 14.3645 4.23948 14.4245 4.12563 14.5381C4.01177 14.6518 3.93074 14.8125 3.89574 14.994C3.77757 15.4823 3.69732 15.9849 3.65622 16.4942C3.60691 17.2121 3.63509 17.9208 3.61396 18.6387C3.61454 18.9095 3.58608 19.179 3.52942 19.4395C3.40262 19.9181 3.04335 20.0009 2.79679 19.6051C2.65614 19.3892 2.55496 19.1342 2.50092 18.8596C2.3248 17.7736 2.16982 16.6783 2.02189 15.583C1.89508 14.6534 1.78237 13.7239 1.65557 12.7943C1.6401 12.7425 1.61542 12.6963 1.58357 12.6595C1.55172 12.6227 1.51361 12.5963 1.47241 12.5826C1.09905 12.4997 0.725686 12.4353 0.352324 12.3801C0.218478 12.3617 0.0987202 12.3249 0.105765 12.1224C0.112809 11.9199 0.225522 11.8739 0.359369 11.8923L1.36674 12.0488L1.69079 12.1132C1.81055 11.5149 2.15573 11.2296 2.55023 10.9995C2.67087 10.9078 2.76684 10.7695 2.82497 10.6037C2.97995 10.208 3.07153 9.7754 3.23355 9.39804C3.83234 8.03587 5.06514 7.97144 5.73437 9.26918C5.94571 9.68336 6.05842 10.1804 6.24158 10.6222C6.30198 10.7836 6.39757 10.9181 6.51632 11.0087C6.81923 11.202 7.10102 11.4045 7.26304 11.8187C7.27646 11.8475 7.29497 11.8718 7.31703 11.8894C7.33909 11.907 7.36406 11.9175 7.38984 11.9199C8.2845 11.791 9.15803 12.0303 10.0245 12.2144C11.3841 12.4905 12.7296 12.4077 14.0751 12.058C14.6739 11.9107 15.2727 11.8371 15.8785 11.9291C15.9146 11.9306 15.9504 11.9214 15.9833 11.9023C16.0162 11.8832 16.0454 11.8546 16.0687 11.8187C16.2447 11.4597 16.5155 11.1977 16.8296 11.0823C16.9682 11.0352 17.095 10.9416 17.1976 10.8109C17.3001 10.6802 17.3748 10.5168 17.4143 10.3368C17.515 9.99369 17.645 9.66644 17.8017 9.36122C18.4639 8.10029 19.8024 7.97144 20.5632 9.12192C20.845 9.5361 21.0281 10.0699 21.2254 10.5669C21.3169 10.7878 21.4156 10.9443 21.5987 11.0271C21.9016 11.156 22.1905 11.3401 22.3948 11.6898C22.437 11.7542 22.5357 11.7634 22.6131 11.7634C22.9513 11.8002 23.2965 11.8095 23.6416 11.8555C23.7755 11.8739 23.9305 11.9475 23.8812 12.1868C23.8319 12.4261 23.6839 12.3525 23.543 12.3249C23.2401 12.2788 22.9301 12.2512 22.6272 12.2236ZM22.2116 12.3617C21.2042 12.5366 20.2321 12.8219 19.2529 12.8495C18.2737 12.8771 17.2945 12.6378 16.3083 12.5274C16.3047 12.5825 16.3047 12.6379 16.3083 12.693C16.4985 14.0368 16.6746 15.3898 16.8859 16.7335C17.0057 17.4606 17.1747 18.1785 17.3438 18.878C17.3861 19.0713 17.527 19.2186 17.6185 19.3934L17.7313 19.3566C17.7594 19.1081 17.8088 18.8596 17.8017 18.6111C17.7594 17.3962 17.7876 16.1997 18.0835 15.0308C18.2596 14.3129 18.7034 13.8803 19.267 13.8895C19.8305 13.8987 20.2743 14.3037 20.4364 15.0216C20.535 15.4726 20.6407 15.9328 20.6688 16.4022C20.7182 17.1753 20.697 17.9484 20.7182 18.7216C20.7252 18.9424 20.7816 19.1541 20.8097 19.3658L20.9154 19.3842C21.014 19.2094 21.1479 19.0437 21.2042 18.8412C21.3612 18.2569 21.4906 17.6606 21.5917 17.0557C21.8171 15.6199 22.0073 14.1748 22.2116 12.7298C22.2186 12.6073 22.2186 12.4842 22.2116 12.3617ZM3.08561 19.3474L3.19833 19.329C3.21242 19.0805 3.25468 18.8228 3.24059 18.5835C3.19833 17.3778 3.23355 16.1905 3.48715 15.0216C3.63509 14.3037 4.02959 13.8803 4.52975 13.8895C5.02991 13.8987 5.39623 14.3221 5.54417 15.0308C5.59348 15.2793 5.66392 15.537 5.67097 15.7947C5.72028 16.7427 5.74142 17.6999 5.78368 18.6479C5.79439 18.8764 5.81556 19.1038 5.84708 19.329H5.93162C5.99502 19.191 6.07955 19.0621 6.11478 18.9148C6.22911 18.4871 6.32322 18.0507 6.39656 17.6079C6.6079 15.9696 6.80514 14.3221 7.00239 12.6746C7.00599 12.598 7.00599 12.5211 7.00239 12.4445C5.34692 12.739 3.70554 13.1716 2.03597 12.6654C2.12755 13.3189 2.21913 13.8987 2.28253 14.4786C2.34594 15.0584 2.38116 15.6659 2.46569 16.2549C2.57136 17.0465 2.69112 17.838 2.83201 18.6295C2.88132 18.8872 3.00108 19.1173 3.08561 19.3474ZM21.9721 11.7726C21.7889 11.6714 21.6128 11.5517 21.4297 11.4597C21.3093 11.4058 21.1992 11.3188 21.1068 11.2045C21.0144 11.0901 20.9419 10.9512 20.8943 10.797C20.7393 10.3552 20.5773 9.91345 20.3518 9.5361C19.7249 8.51447 18.64 8.5973 18.0835 9.69256C17.9587 9.92513 17.8592 10.1791 17.7876 10.4473C17.6467 11.0455 17.3579 11.4045 16.9 11.5794C16.738 11.6346 16.5971 11.8002 16.3998 11.9567C18.1187 12.5274 20.1757 12.4721 21.9721 11.7726ZM6.8615 11.9843L6.89672 11.8923C6.73906 11.7494 6.57433 11.6202 6.4036 11.5057C6.27861 11.4348 6.16603 11.3313 6.07275 11.2015C5.97948 11.0718 5.90748 10.9184 5.86117 10.751C5.71324 10.2724 5.55121 9.7754 5.3117 9.37043C4.86789 8.5973 4.0789 8.65252 3.66327 9.44406C3.49495 9.75208 3.36644 10.0941 3.28286 10.4565C3.15606 10.9995 2.93768 11.3861 2.51501 11.5702C2.40829 11.6136 2.31199 11.6924 2.23546 11.7988C2.15893 11.9052 2.10477 12.0357 2.07824 12.1776C3.69849 12.7022 5.27647 12.2788 6.8615 11.9843Z" fill="#100E10"/>
<path d="M19.3658 7.8601C19.1565 7.86183 18.9472 7.84954 18.7388 7.82329C18.1541 7.76806 17.5694 7.63 16.9988 7.50115L16.6114 7.41832C16.1957 7.32628 15.9492 7.00414 15.8365 6.4335C15.7509 6.02607 15.645 5.62638 15.5195 5.237C15.4913 5.13576 15.4631 5.03451 15.4279 4.93327C15.3997 5.04372 15.3645 5.15416 15.3363 5.25541C15.2105 5.65502 15.1023 6.06373 15.0123 6.47952C14.9136 6.98573 14.6812 7.28946 14.3078 7.3907L14.2021 7.41832C13.6949 7.55637 13.1666 7.70364 12.6453 7.77727C12.2899 7.83264 11.9324 7.8603 11.5745 7.8601C10.7048 7.85389 9.83891 7.70862 8.9962 7.42752C8.54535 7.28026 8.30583 6.97653 8.20721 6.4335C8.12716 6.031 8.02354 5.63714 7.89725 5.25541L7.81271 4.97009C7.78454 5.08053 7.7634 5.18178 7.73522 5.28302C7.61719 5.71472 7.51609 6.15401 7.43231 6.59917C7.34777 7.06857 7.15052 7.34468 6.81239 7.45513C6.05143 7.71772 5.26769 7.85074 4.48064 7.8509C3.7057 7.84931 2.93404 7.71943 2.18411 7.46434C1.83892 7.34469 1.63463 7.06857 1.57123 6.60838C1.50923 6.22499 1.42203 5.8493 1.31058 5.4855C0.951309 4.25219 0.909042 3.13852 1.17674 2.09848C1.4867 0.892775 2.18411 0.165669 3.0365 0.165669C3.44947 0.174167 3.85319 0.32669 4.2059 0.607455C4.27314 0.6646 4.35114 0.696444 4.43132 0.699494C4.50879 0.695613 4.58512 0.673799 4.65675 0.635067C5.12169 0.423378 5.5655 0.220892 6.02339 0.165669H6.22064C6.91805 0.165669 7.47457 0.671882 7.78453 1.60147C7.80391 1.64879 7.82039 1.69803 7.83385 1.74873C8.29174 0.644271 9.01733 0.0368156 9.8979 0.0368156C10.1951 0.0397189 10.4901 0.104977 10.7714 0.230097L10.8489 0.257708C10.9368 0.283905 11.0203 0.330679 11.0955 0.395766C11.2139 0.51846 11.36 0.586432 11.5111 0.589048C11.6852 0.575549 11.8553 0.516058 12.0113 0.414174C12.4667 0.152964 12.958 0.0151949 13.4554 0.00920373C13.5802 0.00896869 13.7048 0.0181883 13.8288 0.0368156C14.5966 0.147262 15.1531 0.671882 15.4772 1.59227L15.4983 1.6659C15.9774 0.598251 16.6748 0.0368156 17.5201 0.0368156C17.8242 0.0410886 18.1259 0.106274 18.4148 0.230097L18.4641 0.248504C18.5222 0.264922 18.5773 0.296202 18.6261 0.340543C18.7732 0.489739 18.9541 0.570695 19.1404 0.570639C19.3094 0.570639 19.5067 0.506213 19.7673 0.358951C20.1807 0.123228 20.6266 0.00104783 21.0776 0C21.2499 7.89733e-05 21.4219 0.018548 21.5919 0.0552231C22.6063 0.266912 23.2685 1.33456 23.3319 2.84399C23.3546 3.71945 23.2195 4.58962 22.9374 5.38426C22.8137 5.73696 22.7147 6.10354 22.6415 6.47952C22.564 6.97653 22.3456 7.26185 21.9441 7.39991C21.1032 7.69629 20.2367 7.85095 19.3658 7.8601ZM17.5413 0.791532C16.5832 0.791532 15.8717 1.73033 15.7801 3.12931C15.7449 3.71836 15.8365 4.30741 16.083 5.04372C16.2203 5.43117 16.3288 5.83492 16.4071 6.24943C16.4564 6.51634 16.548 6.63599 16.7382 6.6728L17.2736 6.79245C17.7103 6.8937 18.1612 7.00414 18.605 7.05016C18.8375 7.07777 19.077 7.09618 19.3165 7.09618C20.1517 7.08681 20.9826 6.93835 21.7891 6.65439C21.8613 6.63851 21.9279 6.59363 21.9797 6.526C22.0314 6.45837 22.0658 6.37135 22.078 6.27704C22.161 5.8644 22.2694 5.46119 22.402 5.07133C22.6697 4.27059 22.7824 3.53428 22.7401 2.81638C22.6767 1.55545 22.092 0.773125 21.2115 0.773125H21.0917C20.7593 0.815362 20.4297 0.889188 20.1055 0.994017L19.8166 1.07685C19.9178 1.14062 20.0284 1.17515 20.1407 1.17809C20.2006 1.17932 20.2602 1.16686 20.3168 1.14128H20.3732C20.4577 1.14128 20.6338 1.21491 20.662 1.36217C20.6719 1.44581 20.6662 1.53135 20.6454 1.61148C20.6245 1.69162 20.5891 1.76397 20.5422 1.82237C20.4505 1.90322 20.3429 1.94795 20.2323 1.95122H20.1689C19.923 1.91391 19.6816 1.83661 19.4503 1.72112C19.2672 1.61988 19.084 1.49103 18.9079 1.37138C18.7318 1.25173 18.6402 1.1873 18.4993 1.10446C18.2009 0.91144 17.8741 0.804707 17.5413 0.791532ZM9.8979 0.800736C9.02438 0.800736 8.33401 1.61068 8.17903 2.82559C8.0945 3.51588 8.17903 4.22457 8.45377 5.04372C8.58722 5.43317 8.69561 5.83647 8.77782 6.24943C8.82713 6.51634 8.91871 6.63599 9.10187 6.6728L9.65134 6.79245C10.0881 6.8937 10.5319 7.00414 10.9757 7.05016C11.2082 7.07777 11.4548 7.09618 11.6943 7.09618C12.5271 7.08563 13.3556 6.93719 14.1599 6.65439C14.2316 6.63726 14.2977 6.59197 14.3493 6.52456C14.4009 6.45715 14.4356 6.37081 14.4487 6.27704C14.5363 5.85609 14.6469 5.44392 14.7798 5.04372C15.0897 4.10492 15.1813 3.29498 15.0827 2.48504C14.9489 1.48182 14.4557 0.874367 13.6879 0.773125H13.4695C13.1032 0.773125 12.7298 0.883571 12.279 1.11367C12.3538 1.16068 12.4355 1.18581 12.5185 1.1873L12.6664 1.15969H12.7228C12.7935 1.16786 12.8614 1.19955 12.92 1.25173L12.9975 1.30695L13.1032 1.37138L13.0468 1.50023C13.0309 1.53123 13.019 1.56543 13.0116 1.60147C12.9693 1.72112 12.9341 1.84998 12.8355 1.87759C12.7106 1.91557 12.5832 1.93716 12.4551 1.94202C12.3836 1.94397 12.3123 1.93155 12.2437 1.9052C12.0282 1.82108 11.8184 1.71332 11.6168 1.58306L11.4336 1.48182L11.1025 1.27013C10.9001 1.13713 10.6905 1.02332 10.4756 0.92959C10.2887 0.850717 10.0942 0.807322 9.8979 0.800736ZM3.0365 0.92959C2.50111 0.92959 2.06435 1.34376 1.8037 2.09848C1.50079 3.00966 1.50783 3.97607 1.83892 5.15416C1.95633 5.57055 2.05744 5.99448 2.14184 6.4243C2.17706 6.60838 2.22638 6.69121 2.35318 6.72803C3.04783 6.96493 3.76271 7.08554 4.48064 7.08698C5.21582 7.08783 5.94783 6.96093 6.6574 6.70962C6.72244 6.69078 6.78002 6.64172 6.81943 6.57156L6.88988 6.27704C7.06599 5.54993 7.24915 4.80442 7.383 4.0589C7.51291 3.36414 7.47351 2.63371 7.27028 1.96963C7.08712 1.37138 6.80534 1.04004 6.41085 0.947998C6.30421 0.919058 6.19569 0.903646 6.0868 0.901978C5.71343 0.901978 5.35416 1.05844 5.05829 1.22411C5.12136 1.26699 5.19149 1.28911 5.26258 1.28854C5.30301 1.29144 5.34353 1.28522 5.38234 1.27013H5.43165C5.50477 1.27674 5.57525 1.3085 5.63594 1.36217L5.70639 1.4174L5.81206 1.47262L5.7557 1.61068C5.74866 1.63829 5.73457 1.6751 5.72752 1.71192C5.72048 1.74873 5.65003 1.94202 5.55845 1.98803C5.45306 2.02794 5.34411 2.0496 5.2344 2.05246C5.17272 2.0529 5.11123 2.04363 5.05125 2.02485C4.82882 1.93384 4.61403 1.81358 4.41019 1.6659L4.3961 1.64749L4.10023 1.4266C3.98047 1.33456 3.8748 1.24252 3.75505 1.16889C3.53273 1.01825 3.28689 0.936375 3.0365 0.92959Z" fill="#100E10"/>
<path d="M15.3957 4.67468C15.2336 5.26373 15.0293 5.84357 14.9166 6.44182C14.8039 7.04007 14.6207 7.15972 14.2897 7.25176C13.7402 7.39902 13.1907 7.55549 12.6342 7.63832C11.4233 7.81246 10.1983 7.6939 9.02032 7.28858C8.654 7.16893 8.41449 6.93883 8.31586 6.3958C8.21724 5.85277 8.0059 5.25452 7.84388 4.69309L7.78048 4.67468C7.6255 5.30975 7.44938 5.92641 7.32963 6.57068C7.25214 6.98485 7.08307 7.22415 6.79424 7.31619C5.29507 7.84203 3.71689 7.84837 2.21527 7.3346C2.07688 7.29761 1.95083 7.20493 1.85481 7.06957C1.75879 6.93422 1.69762 6.76297 1.67989 6.57988C1.61207 6.19144 1.5226 5.80999 1.41219 5.4386C1.09519 4.35254 0.98952 3.26649 1.27835 2.14362C1.7292 0.422494 2.94791 -0.184961 4.15253 0.726222C4.34978 0.873484 4.49067 0.864279 4.69496 0.763037C5.13172 0.560552 5.58257 0.358067 6.03343 0.302843C6.80833 0.201601 7.37894 0.717018 7.69594 1.64661C7.73821 1.76626 7.77343 1.89511 7.8157 2.05158C7.84284 2.01225 7.86647 1.96902 7.88615 1.92272C8.45676 0.422494 9.52048 -0.166554 10.7462 0.348863C10.8449 0.394882 10.9576 0.41329 11.0351 0.496125C11.3732 0.827464 11.6902 0.735425 12.0565 0.53294C12.6107 0.20832 13.2208 0.081293 13.8247 0.164785C14.5503 0.275232 15.0716 0.763037 15.3816 1.6374C15.4191 1.72944 15.4544 1.83069 15.4872 1.94113C15.5154 1.88591 15.5365 1.8583 15.5506 1.82148C16.1635 0.36727 17.1779 -0.148145 18.3825 0.358067C18.4471 0.370261 18.5092 0.398372 18.5657 0.440901C18.9743 0.836668 19.3688 0.726221 19.8126 0.477717C20.3681 0.159599 20.982 0.0573458 21.5808 0.183194C22.5388 0.385679 23.1728 1.41651 23.2292 2.84311C23.2644 3.70827 23.1094 4.52742 22.8488 5.31895C22.7136 5.67593 22.6119 6.05295 22.5459 6.44182C22.4684 6.91122 22.25 7.14131 21.926 7.25176C20.8834 7.61071 19.8196 7.79479 18.7489 7.68434C18.0374 7.61992 17.3329 7.43584 16.6355 7.27937C16.2621 7.19654 16.0438 6.92042 15.9451 6.40501C15.8465 5.88959 15.6281 5.24532 15.4661 4.66548L15.3957 4.67468ZM19.6365 0.98393L19.6506 1.12199C19.8689 1.26005 20.0873 1.3889 20.355 1.26925C20.4114 1.24164 20.5523 1.32447 20.5593 1.3889C20.5677 1.44537 20.565 1.50368 20.5514 1.5584C20.5379 1.61312 20.5139 1.66246 20.4818 1.70183C20.4407 1.74126 20.394 1.76969 20.3444 1.78548C20.2949 1.80128 20.2434 1.80413 20.193 1.79387C19.9544 1.7585 19.7201 1.68429 19.4956 1.57298C19.1715 1.3981 18.8686 1.1496 18.5516 0.956318C17.1357 0.109563 15.8113 1.09438 15.6774 3.11923C15.6352 3.80952 15.7761 4.46299 15.9874 5.09806C16.1193 5.48197 16.2277 5.87899 16.3114 6.28536C16.3678 6.59829 16.4946 6.75475 16.72 6.80998C17.347 6.93883 17.9669 7.1137 18.6009 7.18733C19.6858 7.31619 20.7636 7.14131 21.8203 6.79157C21.9107 6.77022 21.9939 6.71271 22.0582 6.62698C22.1226 6.54125 22.165 6.43153 22.1796 6.31297C22.2665 5.9079 22.3747 5.51119 22.5036 5.12567C22.7502 4.38936 22.8911 3.62544 22.8488 2.80629C22.7784 1.43492 22.1021 0.560552 21.0877 0.634183C20.6016 0.670999 20.1155 0.864279 19.6365 0.98393ZM12.0213 1.10358C12.2397 1.24164 12.444 1.3889 12.7046 1.27845C12.768 1.25084 12.8737 1.36129 12.9582 1.41651C12.9089 1.51775 12.8737 1.70183 12.8173 1.72024C12.6412 1.78729 12.4555 1.79989 12.2749 1.75705C12.0002 1.65581 11.7395 1.48094 11.4789 1.33368C11.2182 1.18641 10.8449 0.901095 10.5067 0.772241C9.32324 0.321252 8.28064 1.21403 8.07635 2.80629C7.97773 3.61624 8.11157 4.36175 8.35813 5.09806C8.49008 5.48197 8.59844 5.87899 8.68218 6.28536C8.73854 6.59829 8.86534 6.75475 9.09077 6.80998C9.71773 6.93883 10.3377 7.1137 10.9717 7.18733C12.0565 7.31619 13.1343 7.14131 14.191 6.79157C14.2806 6.76779 14.3628 6.70949 14.4268 6.62419C14.4908 6.53889 14.5338 6.43049 14.5503 6.31297C14.6396 5.8987 14.7502 5.4928 14.8814 5.09806C15.1561 4.2513 15.3041 3.38614 15.1914 2.46575C15.0505 1.40731 14.5221 0.744629 13.705 0.643387C13.1132 0.569756 12.5567 0.790649 12.0213 1.10358ZM4.82881 1.21403C5.02605 1.3797 5.19512 1.48094 5.41351 1.3981C5.48395 1.3797 5.58257 1.48094 5.66711 1.53616C5.62484 1.6374 5.59666 1.81228 5.52622 1.83989C5.38705 1.90981 5.2354 1.92579 5.08946 1.88591C4.86682 1.79172 4.65205 1.66838 4.4484 1.51775C4.23002 1.37049 4.02573 1.17721 3.8003 1.02995C2.92677 0.486921 2.10961 0.882687 1.71511 2.04237C1.32061 3.20206 1.44742 4.15006 1.74329 5.1993C1.86212 5.61106 1.96094 6.0322 2.03916 6.46023C2.08143 6.69033 2.16596 6.80998 2.32799 6.8652C3.75786 7.35611 5.26115 7.34977 6.68857 6.84679C6.78015 6.80998 6.89991 6.71794 6.92104 6.61669C7.12533 5.77914 7.33667 4.94159 7.49165 4.08563C7.62486 3.36286 7.58301 2.60388 7.37189 1.91352C7.20282 1.35208 6.914 0.919502 6.43497 0.809056C5.95594 0.69861 5.35715 0.882687 4.82881 1.21403Z" fill="#100E10"/>
<path d="M11.6569 11.4866C11.5718 11.4887 11.4881 11.4565 11.4174 11.3945C11.1964 11.1534 10.9936 10.8852 10.8116 10.5938C10.7482 10.5017 10.7552 10.3637 10.7623 10.2532V9.97712L10.8891 9.99553H10.9666C11.0495 9.9857 11.1328 10.0081 11.2061 10.06C11.2578 10.1079 11.3051 10.1634 11.347 10.2256V10.0231C11.347 9.65499 11.347 9.27763 11.354 8.90027C11.3549 8.86322 11.3525 8.82617 11.347 8.78982C11.3399 8.65176 11.3258 8.47689 11.4104 8.35724C11.4386 8.31945 11.4727 8.29003 11.5104 8.27098C11.548 8.25192 11.5884 8.24367 11.6287 8.24679H11.6428C11.6842 8.24353 11.7257 8.25168 11.7645 8.27071C11.8034 8.28973 11.8387 8.31922 11.8683 8.35724C11.9528 8.47689 11.9387 8.65176 11.9317 8.78982C11.9263 8.8293 11.9239 8.86938 11.9246 8.90947C11.9317 9.28683 11.9317 9.66419 11.9317 10.0323V10.244C11.9742 10.1655 12.0266 10.0971 12.0866 10.0415C12.1347 10.01 12.1879 9.9942 12.2416 9.99553H12.5234V10.2348C12.5305 10.3361 12.5375 10.4649 12.4811 10.5478C12.2877 10.852 12.0757 11.1352 11.8471 11.3945C11.8217 11.4257 11.7918 11.4499 11.7592 11.4657C11.7265 11.4815 11.6917 11.4886 11.6569 11.4866Z" fill="#100E10"/>
<path d="M11.8904 10.5295C11.9679 10.4006 12.0383 10.2441 12.137 10.1613C12.2356 10.0785 12.3201 10.1521 12.4117 10.1521C12.5033 10.1521 12.4399 10.4098 12.3976 10.4834C12.203 10.7775 11.9936 11.0543 11.7707 11.3118C11.7213 11.3762 11.5452 11.3578 11.4818 11.2842C11.269 11.0476 11.0712 10.7891 10.8901 10.511C10.8408 10.4282 10.876 10.2625 10.869 10.1337C10.9605 10.1429 11.0732 10.1153 11.1437 10.1797C11.2141 10.2441 11.3057 10.4006 11.3832 10.511L11.4466 10.465C11.4466 9.94961 11.4466 9.42499 11.4536 8.90957C11.4536 8.70709 11.3691 8.39416 11.6227 8.38495C11.8763 8.37575 11.8059 8.70709 11.8129 8.91878C11.82 9.43419 11.8129 9.95881 11.8129 10.4742L11.8904 10.5295Z" fill="#100E10"/>
</svg>
