<svg width="40" height="40" viewBox="0 0 40 40" fill="none" xmlns="http://www.w3.org/2000/svg">
<path d="M25.6609 30C25.579 29.9968 25.4985 29.9714 25.4246 29.9254C25.3506 29.8795 25.2847 29.814 25.2311 29.7331C25.0401 29.4903 24.8974 29.1901 24.8155 28.8587C24.6394 28.0028 24.4774 27.0824 24.3013 25.9779C24.2097 25.3612 24.1181 24.7354 24.0336 24.1279C23.949 23.5205 23.8927 23.1155 23.8152 22.6185C23.7924 22.5805 23.7599 22.5543 23.7236 22.5449L23.2657 22.5725C22.8148 22.5862 22.3652 22.6415 21.9202 22.7381C21.2235 22.9103 20.5159 22.9966 19.8068 22.9959C18.9378 22.986 18.0709 22.8845 17.2144 22.6921C16.8619 22.6253 16.5068 22.5853 16.1507 22.5725L15.6153 22.5265H15.5801C15.5237 22.5265 15.4956 22.5265 15.4744 22.7013C15.2631 24.404 15.0165 26.4197 14.7348 28.4445C14.6784 28.8219 14.5445 29.1716 14.4107 29.503L14.3966 29.5582C14.3525 29.6835 14.2821 29.7898 14.1936 29.8647C14.105 29.9397 14.002 29.9802 13.8964 29.9816H13.8049C13.6428 29.9448 13.4315 29.8067 13.3611 29.3465C13.3167 29.0682 13.3001 28.7836 13.3117 28.4998C13.3399 27.607 13.3399 26.4381 13.1004 25.2876L13.0863 25.2324L13.0441 25.0391C12.9243 24.6894 12.7623 24.5237 12.5157 24.5145H12.5016C12.3845 24.5161 12.2712 24.5686 12.1794 24.6635C12.0876 24.7585 12.0225 24.8906 11.9944 25.0391C11.8958 25.5085 11.7901 26.0147 11.7619 26.5209C11.7338 27.0271 11.7338 27.3953 11.7267 27.8279C11.7267 28.0948 11.7267 28.3801 11.7197 28.647C11.7219 28.9337 11.691 29.2191 11.6281 29.4938C11.5436 29.8067 11.3604 30 11.1491 30C10.9377 30 10.8391 29.8895 10.7123 29.6963C10.5639 29.4622 10.4557 29.1891 10.3953 28.8955C10.2192 27.7911 10.0572 26.6682 9.91627 25.619C9.85287 25.168 9.79651 24.717 9.74015 24.2752C9.6838 23.8334 9.6204 23.3088 9.54995 22.8302C9.54133 22.8055 9.52865 22.7837 9.51282 22.7662C9.49699 22.7487 9.4784 22.736 9.45837 22.7289C9.13432 22.6553 8.79618 22.5909 8.33829 22.5265C8.23966 22.508 7.9931 22.4804 8.00015 22.1307C8.00719 21.7809 8.11991 21.7625 8.31011 21.7625H8.37351L9.28226 21.9098L9.38088 21.9282L9.59222 21.965H9.61335C9.77538 21.3668 10.1347 21.0814 10.508 20.8698C10.6083 20.7936 10.6873 20.6775 10.7334 20.5384C10.797 20.3708 10.8534 20.1987 10.9025 20.023C10.973 19.7929 11.0504 19.5536 11.142 19.3235C11.452 18.6148 11.9662 18.1914 12.5087 18.1914C13.0511 18.1914 13.4949 18.5596 13.819 19.1947C13.9463 19.4571 14.0548 19.7344 14.143 20.023C14.2064 20.1979 14.2628 20.382 14.3332 20.5568C14.3878 20.6914 14.4678 20.8054 14.5657 20.8882C14.8968 21.0999 15.1856 21.3115 15.3547 21.7533L15.3899 21.7809C15.5582 21.7544 15.7276 21.7421 15.8971 21.7441C16.5029 21.7441 17.0947 21.873 17.6723 22.0018L18.0457 22.0755C18.5863 22.1869 19.1328 22.2423 19.68 22.2411C20.4771 22.2336 21.2719 22.1289 22.054 21.9282C22.4782 21.8127 22.91 21.7511 23.3432 21.7441C23.5246 21.7454 23.7057 21.7608 23.8856 21.7901C23.9212 21.7877 23.9555 21.7717 23.9843 21.7441C24.1658 21.3533 24.4561 21.0696 24.7944 20.9526C25.0621 20.8513 25.2171 20.6489 25.3157 20.2899C25.4158 19.9342 25.5507 19.597 25.7172 19.2867C25.8859 18.9528 26.1149 18.6783 26.3839 18.4873C26.6529 18.2963 26.9538 18.1947 27.26 18.1914C27.5231 18.1898 27.7833 18.264 28.0219 18.4088C28.2606 18.5536 28.4719 18.7653 28.6407 19.029C28.8873 19.3971 29.0563 19.8389 29.2254 20.2623C29.2606 20.3451 29.2888 20.428 29.324 20.5016C29.4086 20.7225 29.4931 20.8329 29.634 20.8882C29.9228 21.017 30.2469 21.2103 30.4793 21.6061L30.6202 21.6245L31.0147 21.6613L31.6487 21.7165C31.7967 21.7349 31.8953 21.7993 31.9517 21.9098C31.9754 21.955 31.991 22.0067 31.9971 22.0609C32.0032 22.1152 31.9997 22.1705 31.9869 22.2227C31.9446 22.4068 31.8601 22.4988 31.7262 22.4988L31.5924 22.4804L31.529 22.462C31.3177 22.4252 31.0922 22.4068 30.8809 22.3884L30.7118 22.37L30.585 23.3272C30.4723 24.1555 30.3666 24.9287 30.2539 25.711C30.106 26.751 29.951 27.6806 29.789 28.5826C29.7231 28.8882 29.6234 29.1797 29.4931 29.4478C29.324 29.8067 29.1338 29.9816 28.8943 29.9816L28.7464 29.9632C28.3448 29.8435 28.2814 29.3097 28.2674 29.1348C28.2395 28.8665 28.2324 28.5951 28.2462 28.3249C28.2744 27.4137 28.2603 26.3553 28.0067 25.3152C27.9151 24.9471 27.7179 24.5053 27.267 24.5053C26.8162 24.5053 26.6048 24.9379 26.5203 25.306C26.2526 26.3737 26.2526 27.5057 26.2737 28.5642C26.2845 28.8629 26.2559 29.1617 26.1892 29.4478C26.0976 29.7883 25.9004 30 25.6609 30ZM24.414 22.6737C24.4703 23.0511 24.5196 23.4192 24.569 23.7966C24.7028 24.7538 24.8367 25.7386 24.9916 26.705C25.1043 27.4321 25.2805 28.15 25.4425 28.8403C25.4817 28.9537 25.5367 29.0567 25.6045 29.144L25.6397 29.2085C25.6479 29.1725 25.6526 29.1354 25.6538 29.098C25.6775 28.9402 25.6917 28.7802 25.6961 28.6194C25.6609 27.5242 25.6679 26.2356 25.9779 24.9839C26.1751 24.2108 26.6542 23.7506 27.267 23.7506C27.8799 23.7506 28.366 24.22 28.535 24.9839C28.6407 25.4349 28.7464 25.9043 28.7746 26.3829C28.8027 26.8615 28.8098 27.3585 28.8168 27.8371C28.8168 28.1224 28.8168 28.4261 28.8239 28.7207C28.8336 28.8606 28.8524 28.9991 28.8802 29.1348C28.8817 29.1573 28.8865 29.1792 28.8943 29.1993L28.9366 29.1348C29.004 29.0331 29.0586 28.9182 29.0986 28.7943C29.2578 28.2172 29.3873 27.6268 29.4861 27.0271C29.6622 25.8951 29.8242 24.7446 29.9792 23.6217L30.106 22.7105C30.1122 22.6464 30.1146 22.5818 30.113 22.5172L29.3099 22.6829C28.6055 22.8302 27.9363 22.9682 27.2529 22.9866H27.098C26.4639 22.9866 25.8158 22.8854 25.1959 22.7842L24.414 22.6737ZM10.2262 23.2444C10.2826 23.6677 10.3389 24.0635 10.3883 24.4593C10.4376 24.855 10.4446 25.0023 10.4657 25.26C10.4869 25.5177 10.5221 25.9135 10.5644 26.2356C10.67 27.0087 10.7968 27.8003 10.9377 28.601C10.9714 28.7637 11.0236 28.9189 11.0927 29.0612C11.0927 29.0796 11.0998 29.0888 11.1068 29.1072C11.1138 29.1256 11.1138 29.0888 11.1138 29.0704C11.1312 28.9088 11.1383 28.7457 11.135 28.5826C11.0857 27.1284 11.1632 26.0147 11.3815 24.9839C11.5506 24.2108 11.9733 23.7506 12.5157 23.7506H12.5298C13.0722 23.7598 13.4879 24.22 13.6428 24.9931C13.6569 25.0391 13.664 25.0943 13.6781 25.1403C13.7285 25.3499 13.7615 25.5659 13.7767 25.7846C13.8049 26.3645 13.826 26.9535 13.8471 27.5242C13.8612 27.8923 13.8683 28.2697 13.8894 28.6378C13.8942 28.792 13.9059 28.9457 13.9246 29.098C13.9632 29.0306 13.9941 28.9562 14.0162 28.8771L14.0585 28.7022C14.1564 28.342 14.2341 27.9728 14.2909 27.5978C14.453 26.3461 14.6079 25.0759 14.7559 23.8518C14.8052 23.456 14.8545 23.0603 14.8968 22.6553C14.9035 22.6417 14.906 22.6252 14.9038 22.6093L14.3684 22.7105C13.4949 22.8762 12.5932 23.0511 11.6985 23.0511C11.1853 23.0551 10.673 22.9904 10.1699 22.8578C10.191 22.9866 10.2051 23.1155 10.2262 23.2444ZM10.2192 22.0847C10.7144 22.225 11.22 22.2929 11.7267 22.2872C12.5791 22.2872 13.4386 22.1215 14.2769 21.9558L14.6854 21.873C14.5822 21.78 14.4739 21.6969 14.3614 21.6245C14.2237 21.551 14.0997 21.4398 13.9977 21.2986C13.8956 21.1573 13.8179 20.9891 13.7696 20.8053C13.6217 20.3359 13.4597 19.8481 13.2272 19.4524C13.1475 19.3014 13.0414 19.1776 12.9176 19.0911C12.7938 19.0047 12.656 18.9581 12.5157 18.9554C12.3618 18.9614 12.2114 19.0166 12.0775 19.1161C11.9437 19.2155 11.8305 19.3563 11.7479 19.526C11.5897 19.8225 11.4662 20.1483 11.3815 20.4924C11.2406 21.1275 10.973 21.514 10.5503 21.6981C10.4771 21.7278 10.4097 21.7777 10.3526 21.8444C10.2955 21.9111 10.25 21.993 10.2192 22.0847ZM24.6605 21.9006C25.3944 22.1065 26.1431 22.2083 26.8937 22.2043C27.8301 22.2068 28.7629 22.0521 29.6692 21.7441L29.3945 21.5877C29.2604 21.5274 29.1377 21.4305 29.0345 21.3036C28.9313 21.1767 28.8499 21.0225 28.7957 20.8514C28.6337 20.3912 28.4787 19.977 28.2674 19.6272C28.1503 19.4215 27.9985 19.2539 27.8238 19.1374C27.6491 19.0208 27.4561 18.9586 27.26 18.9554C26.8303 18.9554 26.4358 19.2499 26.1751 19.7745C26.053 19.9912 25.9557 20.2299 25.8863 20.4832C25.8263 20.7799 25.7064 21.05 25.5391 21.2654C25.3717 21.4807 25.1632 21.6334 24.9353 21.7073C24.8362 21.7517 24.7434 21.817 24.6605 21.9006Z" fill="white"/>
<path d="M30.6272 22.2236C30.4652 23.4293 30.3173 24.5614 30.1482 25.6935C30.0073 26.6507 29.8594 27.5987 29.6833 28.5467C29.6247 28.8411 29.5295 29.1209 29.4015 29.375C29.2676 29.6696 29.0704 29.9181 28.7745 29.826C28.4786 29.734 28.4082 29.4303 28.373 29.1173C28.3482 28.8548 28.3411 28.5899 28.3518 28.3258C28.38 27.295 28.3518 26.2733 28.1123 25.2793C27.9644 24.6995 27.6756 24.3681 27.267 24.3681C26.8584 24.3681 26.5625 24.6903 26.4146 25.2609C26.1539 26.347 26.1469 27.4514 26.168 28.5651C26.1784 28.848 26.1522 29.1311 26.0905 29.4026C25.9567 29.8904 25.5833 30.0101 25.3086 29.6419C25.1305 29.414 24.9975 29.1329 24.9211 28.8228C24.7239 27.8748 24.5548 26.9176 24.4069 25.9512C24.2308 24.8283 24.0899 23.7054 23.9208 22.5826C23.9014 22.5345 23.8733 22.4935 23.8389 22.463C23.8045 22.4325 23.7649 22.4135 23.7236 22.4077C23.1107 22.4537 22.4978 22.4537 21.899 22.601C20.3351 22.9967 18.7853 22.8863 17.2285 22.555C16.7001 22.4445 16.1577 22.4445 15.6223 22.3893C15.4532 22.3709 15.3969 22.4537 15.3687 22.6838C15.1362 24.5982 14.8967 26.5126 14.629 28.427C14.5797 28.7952 14.4318 29.1541 14.2979 29.4947C14.2598 29.6123 14.1925 29.7097 14.107 29.7715C14.0214 29.8332 13.9224 29.8557 13.8259 29.8352C13.6005 29.7892 13.5019 29.5591 13.4667 29.3106C13.4223 29.0448 13.4057 28.7723 13.4174 28.5007C13.4526 27.3962 13.4244 26.3101 13.199 25.2425C13.1843 25.1511 13.1631 25.0617 13.1356 24.9756C13.0229 24.6258 12.8327 24.3865 12.5227 24.3681C12.3794 24.3645 12.2395 24.4245 12.1256 24.5381C12.0118 24.6518 11.9307 24.8125 11.8957 24.994C11.7776 25.4823 11.6973 25.9849 11.6562 26.4942C11.6069 27.2121 11.6351 27.9208 11.614 28.6387C11.6145 28.9095 11.5861 29.179 11.5294 29.4395C11.4026 29.9181 11.0433 30.0009 10.7968 29.6051C10.6561 29.3892 10.555 29.1342 10.5009 28.8596C10.3248 27.7736 10.1698 26.6783 10.0219 25.583C9.89508 24.6534 9.78237 23.7239 9.65557 22.7943C9.6401 22.7425 9.61542 22.6963 9.58357 22.6595C9.55172 22.6227 9.51361 22.5963 9.47241 22.5826C9.09905 22.4997 8.72569 22.4353 8.35232 22.3801C8.21848 22.3617 8.09872 22.3249 8.10576 22.1224C8.11281 21.9199 8.22552 21.8739 8.35937 21.8923L9.36674 22.0488L9.69079 22.1132C9.81055 21.5149 10.1557 21.2296 10.5502 20.9995C10.6709 20.9078 10.7668 20.7695 10.825 20.6037C10.9799 20.208 11.0715 19.7754 11.2336 19.398C11.8323 18.0359 13.0651 17.9714 13.7344 19.2692C13.9457 19.6834 14.0584 20.1804 14.2416 20.6222C14.302 20.7836 14.3976 20.9181 14.5163 21.0087C14.8192 21.202 15.101 21.4045 15.263 21.8187C15.2765 21.8475 15.295 21.8718 15.317 21.8894C15.3391 21.907 15.3641 21.9175 15.3898 21.9199C16.2845 21.791 17.158 22.0303 18.0245 22.2144C19.3841 22.4905 20.7296 22.4077 22.0751 22.058C22.6739 21.9107 23.2727 21.8371 23.8785 21.9291C23.9146 21.9306 23.9504 21.9214 23.9833 21.9023C24.0162 21.8832 24.0454 21.8546 24.0687 21.8187C24.2447 21.4597 24.5155 21.1977 24.8296 21.0823C24.9682 21.0352 25.095 20.9416 25.1976 20.8109C25.3001 20.6802 25.3748 20.5168 25.4143 20.3368C25.515 19.9937 25.645 19.6664 25.8017 19.3612C26.4639 18.1003 27.8024 17.9714 28.5632 19.1219C28.845 19.5361 29.0281 20.0699 29.2254 20.5669C29.3169 20.7878 29.4156 20.9443 29.5987 21.0271C29.9016 21.156 30.1905 21.3401 30.3948 21.6898C30.437 21.7542 30.5357 21.7634 30.6131 21.7634C30.9513 21.8002 31.2965 21.8095 31.6416 21.8555C31.7755 21.8739 31.9305 21.9475 31.8812 22.1868C31.8319 22.4261 31.6839 22.3525 31.543 22.3249C31.2401 22.2788 30.9301 22.2512 30.6272 22.2236ZM30.2116 22.3617C29.2042 22.5366 28.2321 22.8219 27.2529 22.8495C26.2737 22.8771 25.2945 22.6378 24.3083 22.5274C24.3047 22.5825 24.3047 22.6379 24.3083 22.693C24.4985 24.0368 24.6746 25.3898 24.8859 26.7335C25.0057 27.4606 25.1747 28.1785 25.3438 28.878C25.3861 29.0713 25.527 29.2186 25.6185 29.3934L25.7313 29.3566C25.7594 29.1081 25.8088 28.8596 25.8017 28.6111C25.7594 27.3962 25.7876 26.1997 26.0835 25.0308C26.2596 24.3129 26.7034 23.8803 27.267 23.8895C27.8305 23.8987 28.2743 24.3037 28.4364 25.0216C28.535 25.4726 28.6407 25.9328 28.6688 26.4022C28.7182 27.1753 28.697 27.9484 28.7182 28.7216C28.7252 28.9424 28.7816 29.1541 28.8097 29.3658L28.9154 29.3842C29.014 29.2094 29.1479 29.0437 29.2042 28.8412C29.3612 28.2569 29.4906 27.6606 29.5917 27.0557C29.8171 25.6199 30.0073 24.1748 30.2116 22.7298C30.2186 22.6073 30.2186 22.4842 30.2116 22.3617ZM11.0856 29.3474L11.1983 29.329C11.2124 29.0805 11.2547 28.8228 11.2406 28.5835C11.1983 27.3778 11.2336 26.1905 11.4872 25.0216C11.6351 24.3037 12.0296 23.8803 12.5297 23.8895C13.0299 23.8987 13.3962 24.3221 13.5442 25.0308C13.5935 25.2793 13.6639 25.537 13.671 25.7947C13.7203 26.7427 13.7414 27.6999 13.7837 28.6479C13.7944 28.8764 13.8156 29.1038 13.8471 29.329H13.9316C13.995 29.191 14.0796 29.0621 14.1148 28.9148C14.2291 28.4871 14.3232 28.0507 14.3966 27.6079C14.6079 25.9696 14.8051 24.3221 15.0024 22.6746C15.006 22.598 15.006 22.5211 15.0024 22.4445C13.3469 22.739 11.7055 23.1716 10.036 22.6654C10.1276 23.3189 10.2191 23.8987 10.2825 24.4786C10.3459 25.0584 10.3812 25.6659 10.4657 26.2549C10.5714 27.0465 10.6911 27.838 10.832 28.6295C10.8813 28.8872 11.0011 29.1173 11.0856 29.3474ZM29.9721 21.7726C29.7889 21.6714 29.6128 21.5517 29.4297 21.4597C29.3093 21.4058 29.1992 21.3188 29.1068 21.2045C29.0144 21.0901 28.9419 20.9512 28.8943 20.797C28.7393 20.3552 28.5773 19.9135 28.3518 19.5361C27.7249 18.5145 26.64 18.5973 26.0835 19.6926C25.9587 19.9251 25.8592 20.1791 25.7876 20.4473C25.6467 21.0455 25.3579 21.4045 24.9 21.5794C24.738 21.6346 24.5971 21.8002 24.3998 21.9567C26.1187 22.5274 28.1757 22.4721 29.9721 21.7726ZM14.8615 21.9843L14.8967 21.8923C14.7391 21.7494 14.5743 21.6202 14.4036 21.5057C14.2786 21.4348 14.166 21.3313 14.0728 21.2015C13.9795 21.0718 13.9075 20.9184 13.8612 20.751C13.7132 20.2724 13.5512 19.7754 13.3117 19.3704C12.8679 18.5973 12.0789 18.6525 11.6633 19.4441C11.4949 19.7521 11.3664 20.0941 11.2829 20.4565C11.1561 20.9995 10.9377 21.3861 10.515 21.5702C10.4083 21.6136 10.312 21.6924 10.2355 21.7988C10.1589 21.9052 10.1048 22.0357 10.0782 22.1776C11.6985 22.7022 13.2765 22.2788 14.8615 21.9843Z" fill="white"/>
<path d="M27.3658 17.8601C27.1565 17.8618 26.9472 17.8495 26.7388 17.8233C26.1541 17.7681 25.5694 17.63 24.9988 17.5012L24.6114 17.4183C24.1957 17.3263 23.9492 17.0041 23.8365 16.4335C23.7509 16.0261 23.645 15.6264 23.5195 15.237C23.4913 15.1358 23.4631 15.0345 23.4279 14.9333C23.3997 15.0437 23.3645 15.1542 23.3363 15.2554C23.2105 15.655 23.1023 16.0637 23.0123 16.4795C22.9136 16.9857 22.6812 17.2895 22.3078 17.3907L22.2021 17.4183C21.6949 17.5564 21.1666 17.7036 20.6453 17.7773C20.2899 17.8326 19.9324 17.8603 19.5745 17.8601C18.7048 17.8539 17.8389 17.7086 16.9962 17.4275C16.5453 17.2803 16.3058 16.9765 16.2072 16.4335C16.1272 16.031 16.0235 15.6371 15.8972 15.2554L15.8127 14.9701C15.7845 15.0805 15.7634 15.1818 15.7352 15.283C15.6172 15.7147 15.5161 16.154 15.4323 16.5992C15.3478 17.0686 15.1505 17.3447 14.8124 17.4551C14.0514 17.7177 13.2677 17.8507 12.4806 17.8509C11.7057 17.8493 10.934 17.7194 10.1841 17.4643C9.83892 17.3447 9.63463 17.0686 9.57123 16.6084C9.50923 16.225 9.42203 15.8493 9.31058 15.4855C8.95131 14.2522 8.90904 13.1385 9.17674 12.0985C9.4867 10.8928 10.1841 10.1657 11.0365 10.1657C11.4495 10.1742 11.8532 10.3267 12.2059 10.6075C12.2731 10.6646 12.3511 10.6964 12.4313 10.6995C12.5088 10.6956 12.5851 10.6738 12.6567 10.6351C13.1217 10.4234 13.5655 10.2209 14.0234 10.1657H14.2206C14.9181 10.1657 15.4746 10.6719 15.7845 11.6015C15.8039 11.6488 15.8204 11.698 15.8338 11.7487C16.2917 10.6443 17.0173 10.0368 17.8979 10.0368C18.1951 10.0397 18.4901 10.105 18.7714 10.2301L18.8489 10.2577C18.9368 10.2839 19.0203 10.3307 19.0955 10.3958C19.2139 10.5185 19.36 10.5864 19.5111 10.589C19.6852 10.5755 19.8553 10.5161 20.0113 10.4142C20.4667 10.153 20.958 10.0152 21.4554 10.0092C21.5802 10.009 21.7048 10.0182 21.8288 10.0368C22.5966 10.1473 23.1531 10.6719 23.4772 11.5923L23.4983 11.6659C23.9774 10.5983 24.6748 10.0368 25.5201 10.0368C25.8242 10.0411 26.1259 10.1063 26.4148 10.2301L26.4641 10.2485C26.5222 10.2649 26.5773 10.2962 26.6261 10.3405C26.7732 10.4897 26.9541 10.5707 27.1404 10.5706C27.3094 10.5706 27.5067 10.5062 27.7673 10.359C28.1807 10.1232 28.6266 10.001 29.0776 10C29.2499 10.0001 29.4219 10.0185 29.5919 10.0552C30.6063 10.2669 31.2685 11.3346 31.3319 12.844C31.3546 13.7194 31.2195 14.5896 30.9374 15.3843C30.8137 15.737 30.7147 16.1035 30.6415 16.4795C30.564 16.9765 30.3456 17.2619 29.9441 17.3999C29.1032 17.6963 28.2367 17.8509 27.3658 17.8601ZM25.5413 10.7915C24.5832 10.7915 23.8717 11.7303 23.7801 13.1293C23.7449 13.7184 23.8365 14.3074 24.083 15.0437C24.2203 15.4312 24.3288 15.8349 24.4071 16.2494C24.4564 16.5163 24.548 16.636 24.7382 16.6728L25.2736 16.7925C25.7103 16.8937 26.1612 17.0041 26.605 17.0502C26.8375 17.0778 27.077 17.0962 27.3165 17.0962C28.1517 17.0868 28.9826 16.9383 29.7891 16.6544C29.8613 16.6385 29.9279 16.5936 29.9797 16.526C30.0314 16.4584 30.0658 16.3714 30.078 16.277C30.161 15.8644 30.2694 15.4612 30.402 15.0713C30.6697 14.2706 30.7824 13.5343 30.7401 12.8164C30.6767 11.5555 30.092 10.7731 29.2115 10.7731H29.0917C28.7593 10.8154 28.4297 10.8892 28.1055 10.994L27.8166 11.0769C27.9178 11.1406 28.0284 11.1752 28.1407 11.1781C28.2006 11.1793 28.2602 11.1669 28.3168 11.1413H28.3732C28.4577 11.1413 28.6338 11.2149 28.662 11.3622C28.6719 11.4458 28.6662 11.5313 28.6454 11.6115C28.6245 11.6916 28.5891 11.764 28.5422 11.8224C28.4505 11.9032 28.3429 11.9479 28.2323 11.9512H28.1689C27.923 11.9139 27.6816 11.8366 27.4503 11.7211C27.2672 11.6199 27.084 11.491 26.9079 11.3714C26.7318 11.2517 26.6402 11.1873 26.4993 11.1045C26.2009 10.9114 25.8741 10.8047 25.5413 10.7915ZM17.8979 10.8007C17.0244 10.8007 16.334 11.6107 16.179 12.8256C16.0945 13.5159 16.179 14.2246 16.4538 15.0437C16.5872 15.4332 16.6956 15.8365 16.7778 16.2494C16.8271 16.5163 16.9187 16.636 17.1019 16.6728L17.6513 16.7925C18.0881 16.8937 18.5319 17.0041 18.9757 17.0502C19.2082 17.0778 19.4548 17.0962 19.6943 17.0962C20.5271 17.0856 21.3556 16.9372 22.1599 16.6544C22.2316 16.6373 22.2977 16.592 22.3493 16.5246C22.4009 16.4572 22.4356 16.3708 22.4487 16.277C22.5363 15.8561 22.6469 15.4439 22.7798 15.0437C23.0897 14.1049 23.1813 13.295 23.0827 12.485C22.9489 11.4818 22.4557 10.8744 21.6879 10.7731H21.4695C21.1032 10.7731 20.7298 10.8836 20.279 11.1137C20.3538 11.1607 20.4355 11.1858 20.5185 11.1873L20.6664 11.1597H20.7228C20.7935 11.1679 20.8614 11.1995 20.92 11.2517L20.9975 11.3069L21.1032 11.3714L21.0468 11.5002C21.0309 11.5312 21.019 11.5654 21.0116 11.6015C20.9693 11.7211 20.9341 11.85 20.8355 11.8776C20.7106 11.9156 20.5832 11.9372 20.4551 11.942C20.3836 11.944 20.3123 11.9316 20.2437 11.9052C20.0282 11.8211 19.8184 11.7133 19.6168 11.5831L19.4336 11.4818L19.1025 11.2701C18.9001 11.1371 18.6905 11.0233 18.4756 10.9296C18.2887 10.8507 18.0942 10.8073 17.8979 10.8007ZM11.0365 10.9296C10.5011 10.9296 10.0644 11.3438 9.8037 12.0985C9.50079 13.0097 9.50783 13.9761 9.83892 15.1542C9.95633 15.5705 10.0574 15.9945 10.1418 16.4243C10.1771 16.6084 10.2264 16.6912 10.3532 16.728C11.0478 16.9649 11.7627 17.0855 12.4806 17.087C13.2158 17.0878 13.9478 16.9609 14.6574 16.7096C14.7224 16.6908 14.78 16.6417 14.8194 16.5716L14.8899 16.277C15.066 15.5499 15.2491 14.8044 15.383 14.0589C15.5129 13.3641 15.4735 12.6337 15.2703 11.9696C15.0871 11.3714 14.8053 11.04 14.4108 10.948C14.3042 10.9191 14.1957 10.9036 14.0868 10.902C13.7134 10.902 13.3542 11.0584 13.0583 11.2241C13.1214 11.267 13.1915 11.2891 13.2626 11.2885C13.303 11.2914 13.3435 11.2852 13.3823 11.2701H13.4317C13.5048 11.2767 13.5752 11.3085 13.6359 11.3622L13.7064 11.4174L13.8121 11.4726L13.7557 11.6107C13.7487 11.6383 13.7346 11.6751 13.7275 11.7119C13.7205 11.7487 13.65 11.942 13.5585 11.988C13.4531 12.0279 13.3441 12.0496 13.2344 12.0525C13.1727 12.0529 13.1112 12.0436 13.0512 12.0249C12.8288 11.9338 12.614 11.8136 12.4102 11.6659L12.3961 11.6475L12.1002 11.4266C11.9805 11.3346 11.8748 11.2425 11.755 11.1689C11.5327 11.0182 11.2869 10.9364 11.0365 10.9296Z" fill="white"/>
<path d="M23.3957 14.6747C23.2336 15.2637 23.0293 15.8436 22.9166 16.4418C22.8039 17.0401 22.6207 17.1597 22.2897 17.2518C21.7402 17.399 21.1907 17.5555 20.6342 17.6383C19.4233 17.8125 18.1983 17.6939 17.0203 17.2886C16.654 17.1689 16.4145 16.9388 16.3159 16.3958C16.2172 15.8528 16.0059 15.2545 15.8439 14.6931L15.7805 14.6747C15.6255 15.3097 15.4494 15.9264 15.3296 16.5707C15.2521 16.9848 15.0831 17.2241 14.7942 17.3162C13.2951 17.842 11.7169 17.8484 10.2153 17.3346C10.0769 17.2976 9.95083 17.2049 9.85481 17.0696C9.75879 16.9342 9.69762 16.763 9.67989 16.5799C9.61207 16.1914 9.5226 15.81 9.41219 15.4386C9.09519 14.3525 8.98952 13.2665 9.27835 12.1436C9.7292 10.4225 10.9479 9.81504 12.1525 10.7262C12.3498 10.8735 12.4907 10.8643 12.695 10.763C13.1317 10.5606 13.5826 10.3581 14.0334 10.3028C14.8083 10.2016 15.3789 10.717 15.6959 11.6466C15.7382 11.7663 15.7734 11.8951 15.8157 12.0516C15.8428 12.0122 15.8665 11.969 15.8861 11.9227C16.4568 10.4225 17.5205 9.83345 18.7462 10.3489C18.8449 10.3949 18.9576 10.4133 19.0351 10.4961C19.3732 10.8275 19.6902 10.7354 20.0565 10.5329C20.6107 10.2083 21.2208 10.0813 21.8247 10.1648C22.5503 10.2752 23.0716 10.763 23.3816 11.6374C23.4191 11.7294 23.4544 11.8307 23.4872 11.9411C23.5154 11.8859 23.5365 11.8583 23.5506 11.8215C24.1635 10.3673 25.1779 9.85185 26.3825 10.3581C26.4471 10.3703 26.5092 10.3984 26.5657 10.4409C26.9743 10.8367 27.3688 10.7262 27.8126 10.4777C28.3681 10.1596 28.982 10.0573 29.5808 10.1832C30.5388 10.3857 31.1728 11.4165 31.2292 12.8431C31.2644 13.7083 31.1094 14.5274 30.8488 15.3189C30.7136 15.6759 30.6119 16.053 30.5459 16.4418C30.4684 16.9112 30.25 17.1413 29.926 17.2518C28.8834 17.6107 27.8196 17.7948 26.7489 17.6843C26.0374 17.6199 25.3329 17.4358 24.6355 17.2794C24.2621 17.1965 24.0438 16.9204 23.9451 16.405C23.8465 15.8896 23.6281 15.2453 23.4661 14.6655L23.3957 14.6747ZM27.6365 10.9839L27.6506 11.122C27.8689 11.26 28.0873 11.3889 28.355 11.2692C28.4114 11.2416 28.5523 11.3245 28.5593 11.3889C28.5677 11.4454 28.565 11.5037 28.5514 11.5584C28.5379 11.6131 28.5139 11.6625 28.4818 11.7018C28.4407 11.7413 28.394 11.7697 28.3444 11.7855C28.2949 11.8013 28.2434 11.8041 28.193 11.7939C27.9544 11.7585 27.7201 11.6843 27.4956 11.573C27.1715 11.3981 26.8686 11.1496 26.5516 10.9563C25.1357 10.1096 23.8113 11.0944 23.6774 13.1192C23.6352 13.8095 23.7761 14.463 23.9874 15.0981C24.1193 15.482 24.2277 15.879 24.3114 16.2854C24.3678 16.5983 24.4946 16.7548 24.72 16.81C25.347 16.9388 25.9669 17.1137 26.6009 17.1873C27.6858 17.3162 28.7636 17.1413 29.8203 16.7916C29.9107 16.7702 29.9939 16.7127 30.0582 16.627C30.1226 16.5412 30.165 16.4315 30.1796 16.313C30.2665 15.9079 30.3747 15.5112 30.5036 15.1257C30.7502 14.3894 30.8911 13.6254 30.8488 12.8063C30.7784 11.4349 30.1021 10.5606 29.0877 10.6342C28.6016 10.671 28.1155 10.8643 27.6365 10.9839ZM20.0213 11.1036C20.2397 11.2416 20.444 11.3889 20.7046 11.2785C20.768 11.2508 20.8737 11.3613 20.9582 11.4165C20.9089 11.5178 20.8737 11.7018 20.8173 11.7202C20.6412 11.7873 20.4555 11.7999 20.2749 11.7571C20.0002 11.6558 19.7395 11.4809 19.4789 11.3337C19.2182 11.1864 18.8449 10.9011 18.5067 10.7722C17.3232 10.3213 16.2806 11.214 16.0763 12.8063C15.9777 13.6162 16.1116 14.3617 16.3581 15.0981C16.4901 15.482 16.5984 15.879 16.6822 16.2854C16.7385 16.5983 16.8653 16.7548 17.0908 16.81C17.7177 16.9388 18.3377 17.1137 18.9717 17.1873C20.0565 17.3162 21.1343 17.1413 22.191 16.7916C22.2806 16.7678 22.3628 16.7095 22.4268 16.6242C22.4908 16.5389 22.5338 16.4305 22.5503 16.313C22.6396 15.8987 22.7502 15.4928 22.8814 15.0981C23.1561 14.2513 23.3041 13.3861 23.1914 12.4658C23.0505 11.4073 22.5221 10.7446 21.705 10.6434C21.1132 10.5698 20.5567 10.7906 20.0213 11.1036ZM12.8288 11.214C13.0261 11.3797 13.1951 11.4809 13.4135 11.3981C13.484 11.3797 13.5826 11.4809 13.6671 11.5362C13.6248 11.6374 13.5967 11.8123 13.5262 11.8399C13.3871 11.9098 13.2354 11.9258 13.0895 11.8859C12.8668 11.7917 12.652 11.6684 12.4484 11.5178C12.23 11.3705 12.0257 11.1772 11.8003 11.0299C10.9268 10.4869 10.1096 10.8827 9.71511 12.0424C9.32061 13.2021 9.44742 14.1501 9.74329 15.1993C9.86212 15.6111 9.96094 16.0322 10.0392 16.4602C10.0814 16.6903 10.166 16.81 10.328 16.8652C11.7579 17.3561 13.2612 17.3498 14.6886 16.8468C14.7801 16.81 14.8999 16.7179 14.921 16.6167C15.1253 15.7791 15.3367 14.9416 15.4917 14.0856C15.6249 13.3629 15.583 12.6039 15.3719 11.9135C15.2028 11.3521 14.914 10.9195 14.435 10.8091C13.9559 10.6986 13.3571 10.8827 12.8288 11.214Z" fill="white"/>
<path d="M19.6569 21.4866C19.5718 21.4887 19.4881 21.4565 19.4174 21.3945C19.1964 21.1534 18.9936 20.8852 18.8116 20.5938C18.7482 20.5017 18.7552 20.3637 18.7623 20.2532V19.9771L18.8891 19.9955H18.9666C19.0495 19.9857 19.1328 20.0081 19.2061 20.06C19.2578 20.1079 19.3051 20.1634 19.347 20.2256V20.0231C19.347 19.655 19.347 19.2776 19.354 18.9003C19.3549 18.8632 19.3525 18.8262 19.347 18.7898C19.3399 18.6518 19.3258 18.4769 19.4104 18.3572C19.4386 18.3195 19.4727 18.29 19.5104 18.271C19.548 18.2519 19.5884 18.2437 19.6287 18.2468H19.6428C19.6842 18.2435 19.7257 18.2517 19.7645 18.2707C19.8034 18.2897 19.8387 18.3192 19.8683 18.3572C19.9528 18.4769 19.9387 18.6518 19.9317 18.7898C19.9263 18.8293 19.9239 18.8694 19.9246 18.9095C19.9317 19.2868 19.9317 19.6642 19.9317 20.0323V20.244C19.9742 20.1655 20.0266 20.0971 20.0866 20.0415C20.1347 20.01 20.1879 19.9942 20.2416 19.9955H20.5234V20.2348C20.5305 20.3361 20.5375 20.4649 20.4811 20.5478C20.2877 20.852 20.0757 21.1352 19.8471 21.3945C19.8217 21.4257 19.7918 21.4499 19.7592 21.4657C19.7265 21.4815 19.6917 21.4886 19.6569 21.4866Z" fill="white"/>
<path d="M19.8904 20.5295C19.9679 20.4006 20.0383 20.2441 20.137 20.1613C20.2356 20.0785 20.3201 20.1521 20.4117 20.1521C20.5033 20.1521 20.4399 20.4098 20.3976 20.4834C20.203 20.7775 19.9936 21.0543 19.7707 21.3118C19.7213 21.3762 19.5452 21.3578 19.4818 21.2842C19.269 21.0476 19.0712 20.7891 18.8901 20.511C18.8408 20.4282 18.876 20.2625 18.869 20.1337C18.9605 20.1429 19.0732 20.1153 19.1437 20.1797C19.2141 20.2441 19.3057 20.4006 19.3832 20.511L19.4466 20.465C19.4466 19.9496 19.4466 19.425 19.4536 18.9096C19.4536 18.7071 19.3691 18.3942 19.6227 18.385C19.8763 18.3757 19.8059 18.7071 19.8129 18.9188C19.82 19.4342 19.8129 19.9588 19.8129 20.4742L19.8904 20.5295Z" fill="white"/>
</svg>
