<svg width="76" height="77" viewBox="0 0 76 77" fill="none" xmlns="http://www.w3.org/2000/svg">
<g filter="url(#filter0_d_32_10009)">
<rect x="6" y="6.5" width="60" height="60" rx="30" fill="white"/>
<path d="M44.4913 51.5C44.3685 51.4952 44.2478 51.4571 44.1369 51.3882C44.0259 51.3193 43.9271 51.221 43.8467 51.0996C43.5602 50.7354 43.3461 50.2851 43.2233 49.7881C42.9591 48.5041 42.7161 47.1235 42.4519 45.4669C42.3145 44.5419 42.1772 43.6031 42.0504 42.6919C41.9236 41.7807 41.839 41.1733 41.7228 40.4277C41.6886 40.3707 41.6398 40.3315 41.5854 40.3173L40.8986 40.3587C40.2222 40.3792 39.5477 40.4623 38.8803 40.6072C37.8352 40.8654 36.7739 40.9948 35.7103 40.9938C34.4068 40.9791 33.1063 40.8267 31.8217 40.5382C31.2929 40.4379 30.7601 40.378 30.2261 40.3587L29.423 40.2897H29.3701C29.2856 40.2897 29.2433 40.2897 29.2116 40.552C28.8946 43.1061 28.5248 46.1295 28.1021 49.1668C28.0176 49.7328 27.8168 50.2575 27.616 50.7545L27.5949 50.8373C27.5288 51.0252 27.4232 51.1847 27.2903 51.2971C27.1575 51.4095 27.0029 51.4703 26.8447 51.4724H26.7073C26.4643 51.4172 26.1473 51.2101 26.0416 50.5198C25.975 50.1024 25.9501 49.6754 25.9676 49.2496C26.0099 47.9105 26.0099 46.1571 25.6506 44.4314L25.6295 44.3486L25.5661 44.0587C25.3864 43.534 25.1434 43.2855 24.7736 43.2717H24.7524C24.5768 43.2742 24.4068 43.3528 24.2691 43.4953C24.1314 43.6377 24.0338 43.8359 23.9916 44.0587C23.8437 44.7628 23.6852 45.5221 23.6429 46.2814C23.6006 47.0407 23.6006 47.5929 23.5901 48.2418C23.5901 48.6422 23.5901 49.0702 23.5795 49.4705C23.5828 49.9005 23.5365 50.3287 23.4421 50.7407C23.3153 51.2101 23.0406 51.5 22.7236 51.5C22.4066 51.5 22.2587 51.3343 22.0685 51.0444C21.8458 50.6933 21.6836 50.2836 21.5929 49.8433C21.3288 48.1866 21.0857 46.5023 20.8744 44.9284C20.7793 44.2519 20.6948 43.5755 20.6102 42.9128C20.5257 42.2501 20.4306 41.4632 20.3249 40.7453C20.312 40.7083 20.293 40.6755 20.2692 40.6493C20.2455 40.623 20.2176 40.604 20.1876 40.5934C19.7015 40.483 19.1943 40.3863 18.5074 40.2897C18.3595 40.2621 17.9897 40.2207 18.0002 39.696C18.0108 39.1714 18.1799 39.1438 18.4652 39.1438H18.5603L19.9234 39.3647L20.0713 39.3923L20.3883 39.4475H20.42C20.6631 38.5501 21.202 38.1222 21.762 37.8046C21.9125 37.6905 22.031 37.5163 22.1002 37.3076C22.1955 37.0562 22.2801 36.7981 22.3538 36.5345C22.4594 36.1894 22.5757 35.8304 22.713 35.4853C23.178 34.4222 23.9494 33.7871 24.763 33.7871C25.5766 33.7871 26.2424 34.3394 26.7284 35.292C26.9195 35.6856 27.0822 36.1016 27.2145 36.5345C27.3096 36.7968 27.3941 37.0729 27.4998 37.3352C27.5817 37.5371 27.7017 37.7081 27.8485 37.8322C28.3452 38.1498 28.7784 38.4673 29.032 39.13L29.0848 39.1714C29.3373 39.1316 29.5914 39.1131 29.8457 39.1162C30.7544 39.1162 31.642 39.3095 32.5085 39.5027L33.0685 39.6132C33.8794 39.7804 34.6991 39.8635 35.52 39.8617C36.7157 39.8504 37.9078 39.6933 39.0811 39.3923C39.7173 39.2191 40.3649 39.1267 41.0148 39.1162C41.2868 39.1181 41.5585 39.1411 41.8285 39.1852C41.8819 39.1815 41.9333 39.1575 41.9764 39.1162C42.2487 38.53 42.6842 38.1044 43.1916 37.9289C43.5931 37.777 43.8256 37.4733 43.9735 36.9349C44.1236 36.4013 44.3261 35.8955 44.5758 35.43C44.8289 34.9292 45.1723 34.5174 45.5758 34.2309C45.9794 33.9444 46.4307 33.792 46.89 33.7871C47.2847 33.7847 47.6749 33.896 48.0329 34.1132C48.3909 34.3304 48.7078 34.648 48.9611 35.0435C49.3309 35.5957 49.5845 36.2584 49.8381 36.8935C49.891 37.0177 49.9332 37.142 49.9861 37.2524C50.1129 37.5837 50.2397 37.7494 50.451 37.8322C50.8842 38.0255 51.3703 38.3155 51.719 38.9091L51.9304 38.9367L52.5221 38.9919L53.4731 39.0748C53.695 39.1024 53.843 39.199 53.9275 39.3647C53.9632 39.4325 53.9865 39.51 53.9956 39.5914C54.0048 39.6727 53.9995 39.7558 53.9803 39.8341C53.9169 40.1102 53.7901 40.2483 53.5894 40.2483L53.3886 40.2207L53.2935 40.193C52.9765 40.1378 52.6383 40.1102 52.3213 40.0826L52.0677 40.055L51.8775 41.4908C51.7085 42.7333 51.55 43.893 51.3809 45.0665C51.159 46.6265 50.9265 48.0209 50.6835 49.3739C50.5846 49.8324 50.4351 50.2695 50.2397 50.6716C49.9861 51.2101 49.7008 51.4724 49.3415 51.4724L49.1196 51.4448C48.5173 51.2653 48.4222 50.4646 48.401 50.2022C48.3592 49.7997 48.3486 49.3927 48.3693 48.9873C48.4116 47.6206 48.3905 46.0329 48.0101 44.4728C47.8727 43.9206 47.5768 43.2579 46.9005 43.2579C46.2243 43.2579 45.9073 43.9068 45.7805 44.459C45.3789 46.0605 45.3789 47.7586 45.4106 49.3463C45.4267 49.7943 45.3838 50.2426 45.2838 50.6716C45.1464 51.1825 44.8506 51.5 44.4913 51.5ZM42.621 40.5106C42.7055 41.0766 42.7795 41.6288 42.8534 42.1949C43.0542 43.6307 43.255 45.1079 43.4874 46.5575C43.6565 47.6482 43.9207 48.725 44.1637 49.7605C44.2226 49.9305 44.305 50.085 44.4068 50.216L44.4596 50.3127C44.4718 50.2588 44.4789 50.2032 44.4807 50.147C44.5163 49.9103 44.5375 49.6702 44.5441 49.4291C44.4913 47.7862 44.5019 45.8534 44.9668 43.9758C45.2627 42.8161 45.9812 42.1259 46.9005 42.1259C47.8199 42.1259 48.549 42.8299 48.8026 43.9758C48.9611 44.6523 49.1196 45.3564 49.1618 46.0743C49.2041 46.7922 49.2147 47.5377 49.2252 48.2556C49.2252 48.6836 49.2252 49.1392 49.2358 49.581C49.2503 49.7908 49.2786 49.9987 49.3203 50.2022C49.3226 50.2359 49.3297 50.2688 49.3415 50.2989L49.4049 50.2022C49.5059 50.0497 49.588 49.8773 49.6479 49.6914C49.8868 48.8258 50.0809 47.9403 50.2291 47.0407C50.4933 45.3426 50.7363 43.6169 50.9688 41.9326L51.159 40.5658C51.1683 40.4697 51.1718 40.3727 51.1695 40.2759L49.9649 40.5244C48.9082 40.7453 47.9044 40.9524 46.8794 40.98H46.6469C45.6959 40.98 44.7238 40.8281 43.7939 40.6762L42.621 40.5106ZM21.3393 41.3665C21.4239 42.0016 21.5084 42.5952 21.5824 43.1889C21.6563 43.7825 21.6669 44.0034 21.6986 44.39C21.7303 44.7766 21.7832 45.3702 21.8466 45.8534C22.0051 47.0131 22.1953 48.2004 22.4066 49.4015C22.4571 49.6456 22.5354 49.8783 22.6391 50.0918C22.6391 50.1194 22.6496 50.1332 22.6602 50.1608C22.6708 50.1884 22.6708 50.1332 22.6708 50.1056C22.6968 49.8633 22.7074 49.6185 22.7025 49.3739C22.6285 47.1926 22.7447 45.5221 23.0723 43.9758C23.3259 42.8161 23.9599 42.1259 24.7736 42.1259H24.7947C25.6083 42.1397 26.2318 42.8299 26.4643 43.9896C26.4854 44.0587 26.496 44.1415 26.5171 44.2105C26.5927 44.5248 26.6423 44.8488 26.665 45.1769C26.7073 46.0467 26.739 46.9303 26.7707 47.7862C26.7918 48.3385 26.8024 48.9045 26.8341 49.4567C26.8412 49.688 26.8589 49.9185 26.8869 50.147C26.9448 50.0459 26.9911 49.9343 27.0243 49.8157L27.0877 49.5534C27.2346 49.013 27.3512 48.4593 27.4364 47.8967C27.6795 46.0191 27.9119 44.1139 28.1338 42.2777C28.2078 41.6841 28.2818 41.0904 28.3452 40.483C28.3552 40.4625 28.359 40.4379 28.3557 40.4139L27.5526 40.5658C26.2424 40.8143 24.8898 41.0766 23.5478 41.0766C22.7779 41.0827 22.0095 40.9856 21.2548 40.7867C21.2865 40.98 21.3076 41.1733 21.3393 41.3665ZM21.3288 39.627C22.0716 39.8375 22.83 39.9393 23.5901 39.9307C24.8687 39.9307 26.1578 39.6822 27.4153 39.4337L28.0282 39.3095C27.8733 39.17 27.7108 39.0454 27.5421 38.9367C27.3356 38.8264 27.1496 38.6598 26.9965 38.4478C26.8434 38.2359 26.7268 37.9837 26.6545 37.708C26.4326 37.0039 26.1895 36.2722 25.8408 35.6785C25.7213 35.4522 25.562 35.2664 25.3764 35.1367C25.1907 35.007 24.9841 34.9372 24.7736 34.933C24.5427 34.9422 24.3171 35.0249 24.1163 35.1741C23.9156 35.3233 23.7458 35.5344 23.6218 35.789C23.3845 36.2338 23.1993 36.7224 23.0723 37.2386C22.861 38.1912 22.4594 38.771 21.8254 39.0472C21.7157 39.0918 21.6146 39.1666 21.5289 39.2666C21.4432 39.3667 21.375 39.4896 21.3288 39.627ZM42.9908 39.3509C44.0916 39.6597 45.2146 39.8125 46.3405 39.8065C47.7452 39.8101 49.1444 39.5781 50.5038 39.1162L50.0917 38.8815C49.8907 38.7911 49.7066 38.6458 49.5518 38.4554C49.3969 38.265 49.2748 38.0338 49.1935 37.777C48.9505 37.0867 48.718 36.4655 48.401 35.9409C48.2255 35.6323 47.9978 35.3809 47.7357 35.2061C47.4736 35.0313 47.1842 34.9378 46.89 34.933C46.2454 34.933 45.6537 35.3748 45.2627 36.1617C45.0795 36.4867 44.9336 36.8448 44.8294 37.2248C44.7394 37.6698 44.5595 38.075 44.3086 38.398C44.0576 38.7211 43.7448 38.95 43.4029 39.061C43.2543 39.1275 43.1151 39.2255 42.9908 39.3509Z" fill="#161616"/>
<path d="M51.9408 39.8352C51.6978 41.6438 51.4759 43.3419 51.2223 45.04C51.011 46.4758 50.7891 47.8978 50.5249 49.3198C50.437 49.7614 50.2942 50.1811 50.1022 50.5623C49.9014 51.0041 49.6056 51.3768 49.1618 51.2388C48.718 51.1007 48.6123 50.6451 48.5595 50.1757C48.5223 49.7819 48.5117 49.3847 48.5278 48.9884C48.57 47.4422 48.5278 45.9097 48.1685 44.4187C47.9466 43.549 47.5133 43.0519 46.9005 43.0519C46.2876 43.0519 45.8438 43.5351 45.6219 44.3911C45.2309 46.0202 45.2203 47.6769 45.252 49.3474C45.2676 49.7717 45.2283 50.1964 45.1358 50.6037C44.935 51.3354 44.375 51.5149 43.9629 50.9627C43.6957 50.6208 43.4962 50.1991 43.3817 49.7339C43.0858 48.312 42.8322 46.8762 42.6103 45.4265C42.3462 43.7422 42.1348 42.0579 41.8812 40.3736C41.8521 40.3016 41.8099 40.24 41.7583 40.1942C41.7067 40.1485 41.6473 40.12 41.5853 40.1113C40.666 40.1803 39.7467 40.1803 38.8485 40.4012C36.5027 40.9949 34.178 40.8292 31.8427 40.3322C31.0502 40.1665 30.2365 40.1665 29.4335 40.0837C29.1799 40.0561 29.0953 40.1803 29.0531 40.5255C28.7044 43.3971 28.3451 46.2687 27.9435 49.1403C27.8696 49.6925 27.6477 50.231 27.4469 50.7418C27.3897 50.9181 27.2888 51.0643 27.1604 51.1569C27.0321 51.2496 26.8837 51.2832 26.7389 51.2526C26.4008 51.1836 26.2528 50.8384 26.2 50.4657C26.1334 50.0669 26.1086 49.6582 26.126 49.2507C26.1789 47.594 26.1366 45.965 25.7985 44.3635C25.7765 44.2264 25.7447 44.0924 25.7034 43.9631C25.5343 43.4385 25.249 43.0796 24.7841 43.0519C24.5692 43.0466 24.3592 43.1364 24.1884 43.3069C24.0177 43.4774 23.8961 43.7184 23.8436 43.9907C23.6664 44.7232 23.546 45.4771 23.4843 46.2411C23.4104 47.3179 23.4526 48.381 23.4209 49.4578C23.4218 49.864 23.3791 50.2683 23.2941 50.6589C23.1039 51.3768 22.565 51.5011 22.1952 50.9074C21.9842 50.5835 21.8324 50.2011 21.7514 49.7892C21.4872 48.1601 21.2547 46.5172 21.0328 44.8743C20.8426 43.4799 20.6736 42.0855 20.4834 40.6912C20.4602 40.6135 20.4231 40.5442 20.3754 40.489C20.3276 40.4338 20.2704 40.3942 20.2086 40.3736C19.6486 40.2494 19.0885 40.1527 18.5285 40.0699C18.3277 40.0423 18.1481 39.9871 18.1586 39.6833C18.1692 39.3796 18.3383 39.3106 18.5391 39.3382L20.0501 39.5729L20.5362 39.6695C20.7158 38.7721 21.2336 38.3442 21.8253 37.999C22.0063 37.8614 22.1503 37.6541 22.2374 37.4054C22.4699 36.8117 22.6073 36.1629 22.8503 35.5968C23.7485 33.5536 25.5977 33.4569 26.6016 35.4035C26.9186 36.0248 27.0876 36.7703 27.3624 37.433C27.453 37.6751 27.5964 37.8769 27.7745 38.0128C28.2288 38.3027 28.6515 38.6065 28.8946 39.2277C28.9147 39.271 28.9425 39.3074 28.9756 39.3338C29.0086 39.3603 29.0461 39.3759 29.0848 39.3796C30.4268 39.1863 31.737 39.5453 33.0368 39.8214C35.0762 40.2356 37.0944 40.1113 39.1127 39.5867C40.0109 39.3658 40.9091 39.2553 41.8178 39.3934C41.8718 39.3956 41.9256 39.3819 41.975 39.3532C42.0244 39.3245 42.0682 39.2816 42.1031 39.2277C42.3671 38.6893 42.7732 38.2963 43.2443 38.1233C43.4523 38.0525 43.6426 37.9122 43.7964 37.7161C43.9502 37.52 44.0622 37.2749 44.1214 37.005C44.2725 36.4903 44.4675 35.9994 44.7026 35.5416C45.6958 33.6502 47.7035 33.4569 48.8448 35.1826C49.2674 35.8039 49.5422 36.6046 49.838 37.3501C49.9754 37.6815 50.1233 37.9162 50.3981 38.0404C50.8525 38.2337 51.2857 38.5098 51.5921 39.0345C51.6555 39.1311 51.8035 39.1449 51.9197 39.1449C52.4269 39.2001 52.9447 39.2139 53.4625 39.283C53.6632 39.3106 53.8957 39.421 53.8217 39.78C53.7478 40.1389 53.5259 40.0285 53.3145 39.9871C52.8602 39.918 52.3952 39.8766 51.9408 39.8352ZM51.3174 40.0423C49.8063 40.3046 48.3481 40.7326 46.8793 40.774C45.4105 40.8154 43.9417 40.4565 42.4624 40.2908C42.4571 40.3735 42.4571 40.4566 42.4624 40.5393C42.7477 42.5549 43.0119 44.5844 43.3289 46.6C43.5085 47.6907 43.7621 48.7675 44.0157 49.8168C44.0791 50.1067 44.2905 50.3276 44.4278 50.5899L44.5969 50.5347C44.6392 50.1619 44.7131 49.7892 44.7026 49.4164C44.6392 47.5941 44.6814 45.7993 45.1252 44.046C45.3894 42.9691 46.0551 42.3202 46.9005 42.334C47.7458 42.3478 48.4115 42.9553 48.6546 44.0322C48.8025 44.7086 48.961 45.3989 49.0033 46.103C49.0772 47.2627 49.0455 48.4224 49.0772 49.5821C49.0878 49.9134 49.1723 50.231 49.2146 50.5485L49.3731 50.5761C49.521 50.3138 49.7218 50.0653 49.8063 49.7616C50.0418 48.8851 50.2359 47.9907 50.3875 47.0832C50.7257 44.9295 51.011 42.762 51.3174 40.5945C51.328 40.4107 51.328 40.2261 51.3174 40.0423ZM22.6284 50.5209L22.7975 50.4933C22.8186 50.1205 22.882 49.7339 22.8609 49.375C22.7975 47.5664 22.8503 45.7855 23.2307 44.0322C23.4526 42.9553 24.0444 42.3202 24.7946 42.334C25.5449 42.3478 26.0943 42.9829 26.3163 44.046C26.3902 44.4187 26.4959 44.8053 26.5065 45.1918C26.5804 46.6138 26.6121 48.0496 26.6755 49.4716C26.6916 49.8144 26.7233 50.1555 26.7706 50.4933H26.8974C26.9925 50.2862 27.1193 50.0929 27.1722 49.872C27.3437 49.2305 27.4848 48.5758 27.5948 47.9116C27.9118 45.4542 28.2077 42.9829 28.5036 40.5117C28.509 40.3967 28.509 40.2815 28.5036 40.1665C26.0204 40.6083 23.5583 41.2572 21.054 40.4979C21.1913 41.4781 21.3287 42.3478 21.4238 43.2176C21.5189 44.0874 21.5717 44.9986 21.6985 45.8821C21.857 47.0694 22.0367 48.2567 22.248 49.444C22.322 49.8306 22.5016 50.1757 22.6284 50.5209ZM50.9581 39.1587C50.6834 39.0068 50.4192 38.8274 50.1445 38.6893C49.9639 38.6085 49.7987 38.4779 49.6602 38.3064C49.5216 38.1349 49.4129 37.9265 49.3414 37.6953C49.1089 37.0326 48.8659 36.3699 48.5278 35.8039C47.5873 34.2715 45.96 34.3957 45.1252 36.0386C44.9381 36.3875 44.7888 36.7684 44.6814 37.1707C44.4701 38.068 44.0368 38.6065 43.35 38.8688C43.107 38.9516 42.8956 39.2001 42.5998 39.4348C45.1781 40.2908 48.2636 40.2079 50.9581 39.1587ZM28.2922 39.4762L28.3451 39.3382C28.1086 39.1238 27.8615 38.9301 27.6054 38.7583C27.4179 38.652 27.249 38.4967 27.1091 38.3021C26.9692 38.1074 26.8612 37.8774 26.7918 37.6263C26.5699 36.9084 26.3268 36.1628 25.9675 35.5554C25.3018 34.3957 24.1183 34.4785 23.4949 35.6658C23.2424 36.1279 23.0497 36.6409 22.9243 37.1845C22.7341 37.999 22.4065 38.5789 21.7725 38.855C21.6124 38.9202 21.468 39.0383 21.3532 39.198C21.2384 39.3576 21.1572 39.5534 21.1174 39.7662C23.5477 40.5531 25.9147 39.918 28.2922 39.4762Z" fill="#161616"/>
<path d="M47.0485 33.2899C46.7345 33.2925 46.4206 33.2741 46.108 33.2347C45.231 33.1518 44.3539 32.9448 43.498 32.7515L42.9168 32.6272C42.2934 32.4892 41.9235 32.006 41.7545 31.15C41.6261 30.5389 41.4672 29.9393 41.279 29.3553C41.2367 29.2034 41.1944 29.0515 41.1416 28.8997C41.0993 29.0653 41.0465 29.231 41.0042 29.3829C40.8155 29.9823 40.6532 30.5953 40.5181 31.219C40.3702 31.9784 40.0215 32.4339 39.4615 32.5858L39.303 32.6272C38.5421 32.8343 37.7496 33.0552 36.9677 33.1657C36.4347 33.2487 35.8983 33.2902 35.3615 33.2899C34.0569 33.2806 32.7581 33.0627 31.4941 32.641C30.8178 32.4201 30.4585 31.9646 30.3106 31.15C30.1905 30.5463 30.0351 29.9555 29.8456 29.3829L29.7188 28.9549C29.6766 29.1206 29.6449 29.2724 29.6026 29.4243C29.4255 30.0718 29.2739 30.7308 29.1482 31.3985C29.0214 32.1026 28.7255 32.5168 28.2183 32.6825C27.0769 33.0763 25.9013 33.2759 24.7207 33.2761C23.5583 33.2737 22.4008 33.0789 21.2759 32.6963C20.7581 32.5168 20.4517 32.1026 20.3566 31.4123C20.2636 30.8372 20.1328 30.2737 19.9656 29.728C19.4267 27.878 19.3633 26.2075 19.7649 24.6475C20.2298 22.8389 21.2759 21.7483 22.5545 21.7483C23.174 21.761 23.7795 21.9898 24.3086 22.4109C24.4095 22.4967 24.5265 22.5444 24.6467 22.549C24.7629 22.5432 24.8774 22.5105 24.9849 22.4524C25.6823 22.1348 26.348 21.8311 27.0348 21.7483H27.3307C28.3768 21.7483 29.2116 22.5076 29.6766 23.902C29.7056 23.9729 29.7303 24.0468 29.7505 24.1229C30.4374 22.4662 31.5258 21.555 32.8466 21.555C33.2924 21.5593 33.7348 21.6572 34.1569 21.8449L34.2731 21.8863C34.405 21.9256 34.5303 21.9958 34.643 22.0934C34.8205 22.2774 35.0398 22.3794 35.2664 22.3833C35.5275 22.3631 35.7827 22.2738 36.0167 22.121C36.6999 21.7292 37.4368 21.5225 38.1829 21.5136C38.37 21.5132 38.557 21.527 38.7429 21.555C39.8947 21.7206 40.7295 22.5076 41.2156 23.8882L41.2473 23.9986C41.9658 22.3971 43.0119 21.555 44.2799 21.555C44.736 21.5614 45.1886 21.6592 45.6219 21.8449L45.6959 21.8725C45.7831 21.8971 45.8657 21.9441 45.9389 22.0106C46.1596 22.2344 46.431 22.3558 46.7103 22.3557C46.9639 22.3557 47.2598 22.2591 47.6508 22.0382C48.2707 21.6846 48.9397 21.5013 49.6162 21.4998C49.8746 21.4999 50.1326 21.5276 50.3876 21.5826C51.9092 21.9001 52.9025 23.5016 52.9976 25.7657C53.0317 27.0789 52.829 28.3842 52.4058 29.5761C52.2203 30.1052 52.0718 30.6551 51.962 31.219C51.8458 31.9646 51.5182 32.3925 50.9159 32.5996C49.6546 33.0442 48.3549 33.2762 47.0485 33.2899ZM44.3116 22.6871C42.8745 22.6871 41.8073 24.0952 41.6699 26.1937C41.6171 27.0773 41.7545 27.9609 42.1243 29.0653C42.3302 29.6465 42.4929 30.2521 42.6104 30.8739C42.6843 31.2743 42.8217 31.4537 43.107 31.509L43.9101 31.6884C44.5652 31.8403 45.2415 32.006 45.9072 32.075C46.2559 32.1164 46.6152 32.144 46.9745 32.144C48.2273 32.13 49.4737 31.9073 50.6834 31.4813C50.7917 31.4575 50.8916 31.3902 50.9693 31.2888C51.0469 31.1873 51.0984 31.0568 51.1167 30.9153C51.2412 30.2964 51.4038 29.6915 51.6028 29.1068C52.0043 27.9056 52.1734 26.8012 52.11 25.7243C52.0149 23.8329 51.1378 22.6594 49.817 22.6594H49.6373C49.1387 22.7228 48.6443 22.8335 48.158 22.9908L47.7247 23.115C47.8765 23.2107 48.0423 23.2625 48.2108 23.2669C48.3006 23.2687 48.3901 23.25 48.475 23.2117H48.5595C48.6863 23.2117 48.9505 23.3221 48.9927 23.543C49.0076 23.6685 48.9991 23.7968 48.9678 23.917C48.9365 24.0372 48.8835 24.1457 48.8131 24.2333C48.6755 24.3546 48.5141 24.4217 48.3482 24.4266H48.2531C47.8842 24.3706 47.5221 24.2547 47.1752 24.0814C46.9005 23.9296 46.6258 23.7363 46.3616 23.5568C46.0974 23.3773 45.9601 23.2807 45.7487 23.1565C45.3011 22.8669 44.8109 22.7068 44.3116 22.6871ZM32.8466 22.7009C31.5363 22.7009 30.5008 23.9158 30.2683 25.7381C30.1415 26.7736 30.2683 27.8366 30.6804 29.0653C30.8806 29.6495 31.0432 30.2545 31.1665 30.8739C31.2405 31.2743 31.3778 31.4537 31.6526 31.509L32.4768 31.6884C33.1319 31.8403 33.7976 32.006 34.4633 32.075C34.812 32.1164 35.1819 32.144 35.5412 32.144C36.7904 32.1282 38.0331 31.9055 39.2396 31.4813C39.3472 31.4556 39.4463 31.3877 39.5237 31.2866C39.6011 31.1855 39.6531 31.056 39.6728 30.9153C39.8042 30.2839 39.9701 29.6656 40.1694 29.0653C40.6344 27.6571 40.7717 26.4422 40.6238 25.2273C40.423 23.7225 39.6834 22.8113 38.5316 22.6594H38.204C37.6545 22.6594 37.0945 22.8251 36.4182 23.1703C36.5304 23.2408 36.653 23.2785 36.7775 23.2807L36.9994 23.2393H37.0839C37.1899 23.2516 37.2918 23.2991 37.3798 23.3773L37.496 23.4602L37.6545 23.5568L37.57 23.7501C37.5461 23.7966 37.5283 23.8479 37.5172 23.902C37.4538 24.0814 37.4009 24.2747 37.253 24.3161C37.0657 24.3731 36.8746 24.4055 36.6824 24.4128C36.5752 24.4157 36.4682 24.3971 36.3654 24.3576C36.042 24.2314 35.7274 24.0697 35.4249 23.8744L35.1502 23.7225L34.6535 23.405C34.3498 23.2054 34.0355 23.0347 33.7131 22.8941C33.4328 22.7758 33.141 22.7107 32.8466 22.7009ZM22.5545 22.8941C21.7514 22.8941 21.0963 23.5154 20.7053 24.6475C20.2509 26.0143 20.2615 27.4639 20.7581 29.231C20.9343 29.8556 21.0859 30.4915 21.2125 31.1362C21.2654 31.4123 21.3393 31.5366 21.5295 31.5918C22.5715 31.9471 23.6438 32.1281 24.7207 32.1302C25.8235 32.1315 26.9215 31.9412 27.9859 31.5642C28.0834 31.5359 28.1698 31.4623 28.2289 31.3571L28.3346 30.9153C28.5987 29.8247 28.8735 28.7064 29.0742 27.5881C29.2691 26.546 29.21 25.4503 28.9052 24.4542C28.6304 23.5568 28.2078 23.0598 27.616 22.9218C27.4561 22.8783 27.2933 22.8552 27.1299 22.8527C26.5699 22.8527 26.031 23.0874 25.5872 23.3359C25.6818 23.4002 25.787 23.4334 25.8936 23.4326C25.9543 23.4369 26.015 23.4276 26.0733 23.405H26.1472C26.2569 23.4149 26.3626 23.4625 26.4537 23.543L26.5593 23.6258L26.7178 23.7087L26.6333 23.9158C26.6227 23.9572 26.6016 24.0124 26.591 24.0676C26.5805 24.1229 26.4748 24.4128 26.3374 24.4818C26.1793 24.5417 26.0159 24.5742 25.8514 24.5784C25.7588 24.5791 25.6666 24.5652 25.5766 24.537C25.243 24.4005 24.9208 24.2201 24.615 23.9986L24.5939 23.971L24.1501 23.6397C23.9705 23.5016 23.812 23.3635 23.6323 23.2531C23.2988 23.0271 22.9301 22.9043 22.5545 22.8941Z" fill="#161616"/>
<path d="M41.0935 28.5118C40.8504 29.3953 40.544 30.2651 40.3749 31.1625C40.2059 32.0599 39.9311 32.2393 39.4345 32.3774C38.6103 32.5983 37.7861 32.833 36.9513 32.9572C35.135 33.2184 33.2975 33.0406 31.5305 32.4326C30.981 32.2531 30.6217 31.908 30.4738 31.0935C30.3259 30.2789 30.0089 29.3815 29.7658 28.5394L29.6707 28.5118C29.4382 29.4644 29.1741 30.3894 28.9944 31.3558C28.8782 31.977 28.6246 32.336 28.1914 32.474C25.9426 33.2628 23.5753 33.2723 21.3229 32.5017C21.1153 32.4462 20.9262 32.3072 20.7822 32.1041C20.6382 31.9011 20.5464 31.6442 20.5198 31.3696C20.4181 30.7869 20.2839 30.2147 20.1183 29.6577C19.6428 28.0286 19.4843 26.3995 19.9175 24.7152C20.5938 22.1335 22.4219 21.2223 24.2288 22.5891C24.5247 22.81 24.736 22.7962 25.0424 22.6443C25.6976 22.3406 26.3739 22.0369 27.0501 21.954C28.2125 21.8022 29.0684 22.5753 29.5439 23.9697C29.6073 24.1491 29.6602 24.3424 29.7236 24.5771C29.7643 24.5181 29.7997 24.4533 29.8292 24.3838C30.6851 22.1335 32.2807 21.2499 34.1194 22.0231C34.2673 22.0921 34.4364 22.1197 34.5526 22.2439C35.0598 22.741 35.5353 22.6029 36.0848 22.2992C36.916 21.8122 37.8312 21.6217 38.7371 21.7469C39.8255 21.9126 40.6074 22.6443 41.0723 23.9559C41.1287 24.0939 41.1815 24.2458 41.2308 24.4115C41.2731 24.3286 41.3048 24.2872 41.3259 24.232C42.2453 22.0507 43.7669 21.2775 45.5738 22.0369C45.6706 22.0551 45.7638 22.0973 45.8486 22.1611C46.4614 22.7548 47.0532 22.5891 47.7189 22.2163C48.5521 21.7392 49.4729 21.5858 50.3712 21.7745C51.8083 22.0783 52.7593 23.6245 52.8438 25.7644C52.8966 27.0622 52.6642 28.2909 52.2732 29.4782C52.0703 30.0136 51.9178 30.5792 51.8188 31.1625C51.7026 31.8666 51.375 32.2117 50.8889 32.3774C49.325 32.9158 47.7295 33.1919 46.1233 33.0263C45.056 32.9296 43.9994 32.6535 42.9532 32.4188C42.3932 32.2946 42.0656 31.8804 41.9177 31.1073C41.7698 30.3341 41.4422 29.3677 41.1991 28.498L41.0935 28.5118ZM47.4547 22.9757L47.4759 23.1827C47.8034 23.3898 48.131 23.5831 48.5325 23.4036C48.6171 23.3622 48.8284 23.4865 48.839 23.5831C48.8515 23.6678 48.8474 23.7553 48.8271 23.8374C48.8068 23.9194 48.7709 23.9935 48.7227 24.0525C48.661 24.1116 48.591 24.1543 48.5167 24.178C48.4423 24.2017 48.3651 24.2059 48.2895 24.1906C47.9316 24.1375 47.5802 24.0262 47.2434 23.8592C46.7573 23.5969 46.3029 23.2242 45.8274 22.9342C43.7035 21.6641 41.7169 23.1413 41.5162 26.1786C41.4527 27.214 41.6641 28.1942 41.9811 29.1468C42.179 29.7227 42.3416 30.3182 42.4672 30.9278C42.5517 31.3972 42.7419 31.6319 43.08 31.7147C44.0205 31.908 44.9504 32.1703 45.9014 32.2808C47.5287 32.474 49.1454 32.2117 50.7304 31.6871C50.8661 31.6551 50.9908 31.5688 51.0873 31.4402C51.1839 31.3116 51.2475 31.147 51.2693 30.9692C51.3997 30.3616 51.5621 29.7665 51.7554 29.1883C52.1253 28.0838 52.3366 26.9379 52.2732 25.7092C52.1675 23.6521 51.1531 22.3406 49.6315 22.451C48.9024 22.5063 48.1733 22.7962 47.4547 22.9757ZM36.032 23.1551C36.3595 23.3622 36.666 23.5831 37.0569 23.4174C37.152 23.376 37.3105 23.5417 37.4373 23.6245C37.3634 23.7764 37.3105 24.0525 37.226 24.0801C36.9617 24.1807 36.6832 24.1996 36.4124 24.1353C36.0003 23.9835 35.6093 23.7212 35.2183 23.5003C34.8273 23.2794 34.2673 22.8514 33.7601 22.6581C31.9849 21.9816 30.421 23.3208 30.1145 25.7092C29.9666 26.9241 30.1674 28.0424 30.5372 29.1468C30.7351 29.7227 30.8977 30.3182 31.0233 30.9278C31.1078 31.3972 31.298 31.6319 31.6362 31.7147C32.5766 31.908 33.5065 32.1703 34.4575 32.2808C36.0848 32.474 37.7015 32.2117 39.2865 31.6871C39.421 31.6514 39.5441 31.564 39.6402 31.436C39.7362 31.3081 39.8008 31.1455 39.8255 30.9692C39.9593 30.3478 40.1253 29.739 40.3221 29.1468C40.7342 27.8767 40.9561 26.579 40.787 25.1984C40.5757 23.6107 39.7832 22.6167 38.5574 22.4648C37.6698 22.3544 36.835 22.6857 36.032 23.1551ZM25.2432 23.3208C25.5391 23.5693 25.7927 23.7212 26.1203 23.5969C26.2259 23.5693 26.3739 23.7212 26.5007 23.804C26.4373 23.9559 26.395 24.2182 26.2893 24.2596C26.0806 24.3645 25.8531 24.3884 25.6342 24.3286C25.3002 24.1873 24.9781 24.0023 24.6726 23.7764C24.345 23.5555 24.0386 23.2656 23.7005 23.0447C22.3902 22.2301 21.1644 22.8238 20.5727 24.5633C19.9809 26.3028 20.1711 27.7248 20.6149 29.2987C20.7932 29.9163 20.9414 30.5481 21.0587 31.1901C21.1221 31.5352 21.2489 31.7147 21.492 31.7976C23.6368 32.5339 25.8917 32.5244 28.0329 31.7699C28.1702 31.7147 28.3499 31.5767 28.3816 31.4248C28.688 30.1685 29.005 28.9121 29.2375 27.6282C29.4373 26.544 29.3745 25.4056 29.0578 24.37C28.8042 23.5279 28.371 22.879 27.6525 22.7133C26.9339 22.5477 26.0357 22.8238 25.2432 23.3208Z" fill="#161616"/>
<path d="M35.4854 38.7293C35.3576 38.7325 35.2322 38.6843 35.1261 38.5913C34.7947 38.2296 34.4904 37.8274 34.2174 37.3902C34.1223 37.2521 34.1328 37.045 34.1434 36.8794V36.4652L34.3336 36.4928H34.4498C34.5743 36.4781 34.6993 36.5117 34.8091 36.5894C34.8867 36.6613 34.9576 36.7447 35.0205 36.838V36.5342C35.0205 35.982 35.0204 35.416 35.031 34.8499C35.0323 34.7943 35.0288 34.7388 35.0205 34.6842C35.0099 34.4772 34.9887 34.2148 35.1156 34.0354C35.1579 33.9787 35.209 33.9346 35.2655 33.906C35.3221 33.8774 35.3826 33.865 35.4431 33.8697H35.4643C35.5264 33.8648 35.5886 33.877 35.6468 33.9056C35.7051 33.9341 35.7581 33.9783 35.8024 34.0354C35.9292 34.2148 35.9081 34.4772 35.8975 34.6842C35.8895 34.7435 35.8859 34.8036 35.8869 34.8637C35.8975 35.4298 35.8975 35.9958 35.8975 36.548V36.8656C35.9612 36.7478 36.0398 36.6451 36.13 36.5618C36.202 36.5145 36.2818 36.4908 36.3624 36.4928H36.7851V36.8518C36.7957 37.0036 36.8062 37.1969 36.7217 37.3212C36.4316 37.7775 36.1135 38.2023 35.7707 38.5913C35.7326 38.638 35.6877 38.6743 35.6387 38.6981C35.5897 38.7218 35.5376 38.7324 35.4854 38.7293Z" fill="#161616"/>
<path d="M35.8356 37.2937C35.9519 37.1004 36.0575 36.8657 36.2055 36.7415C36.3534 36.6172 36.4802 36.7277 36.6176 36.7277C36.7549 36.7277 36.6598 37.1142 36.5964 37.2247C36.3046 37.6658 35.9904 38.0809 35.656 38.4672C35.582 38.5638 35.3178 38.5362 35.2227 38.4258C34.9036 38.0709 34.6067 37.6831 34.3351 37.2661C34.2612 37.1418 34.314 36.8933 34.3034 36.7C34.4408 36.7138 34.6099 36.6724 34.7155 36.7691C34.8212 36.8657 34.9586 37.1004 35.0748 37.2661L35.1699 37.1971C35.1699 36.4239 35.1699 35.637 35.1805 34.8639C35.1805 34.5601 35.0537 34.0907 35.4341 34.0769C35.8145 34.0631 35.7088 34.5601 35.7194 34.8777C35.7299 35.6508 35.7194 36.4377 35.7194 37.2109L35.8356 37.2937Z" fill="#161616"/>
</g>
<defs>
<filter id="filter0_d_32_10009" x="0" y="0.5" width="76" height="76" filterUnits="userSpaceOnUse" color-interpolation-filters="sRGB">
<feFlood flood-opacity="0" result="BackgroundImageFix"/>
<feColorMatrix in="SourceAlpha" type="matrix" values="0 0 0 0 0 0 0 0 0 0 0 0 0 0 0 0 0 0 127 0" result="hardAlpha"/>
<feOffset dx="2" dy="2"/>
<feGaussianBlur stdDeviation="4"/>
<feComposite in2="hardAlpha" operator="out"/>
<feColorMatrix type="matrix" values="0 0 0 0 0 0 0 0 0 0 0 0 0 0 0 0 0 0 0.04 0"/>
<feBlend mode="normal" in2="BackgroundImageFix" result="effect1_dropShadow_32_10009"/>
<feBlend mode="normal" in="SourceGraphic" in2="effect1_dropShadow_32_10009" result="shape"/>
</filter>
</defs>
</svg>
