<svg width="76" height="76" viewBox="0 0 76 76" fill="none" xmlns="http://www.w3.org/2000/svg">
<g filter="url(#filter0_d_324_9953)">
<rect x="6" y="6" width="60" height="60" rx="30" fill="white"/>
<g clip-path="url(#clip0_324_9953)">
<path d="M53.9788 39.043C53.9635 39.1315 53.9164 39.2115 53.8464 39.2679C53.7764 39.3243 53.6883 39.3533 53.5984 39.3494L53.3977 39.3283H53.3026L52.3305 39.2332H52.0769C52.0135 39.603 51.9395 39.9728 51.8761 40.3321C51.7176 41.2725 51.5591 42.1706 51.3901 43.0688C51.1576 44.2522 50.9251 45.33 50.6821 46.355C50.591 46.7102 50.4449 47.0489 50.2489 47.3588C49.9953 47.7709 49.6994 47.9716 49.3402 47.9716L49.1288 47.9399C48.516 47.8026 48.4314 47.1897 48.3997 46.989C48.3663 46.6802 48.3593 46.3691 48.3786 46.0591C48.4103 45.0236 48.3997 43.7979 48.0194 42.6144C47.882 42.1918 47.5756 41.6846 46.9099 41.6846C46.2442 41.6846 45.9166 42.1812 45.7793 42.5933C45.3883 43.8296 45.3883 45.1187 45.42 46.3444C45.4384 46.6847 45.3917 47.0254 45.2826 47.3482C45.1558 47.7392 44.8494 47.9822 44.5007 47.9822C44.2518 47.9742 44.0162 47.8678 43.8456 47.6863C43.6765 47.5067 43.349 47.1263 43.2327 46.6825C42.9686 45.6893 42.715 44.6432 42.4614 43.3647C42.3134 42.6673 42.1867 41.9382 42.0599 41.2408C41.9331 40.5434 41.8485 40.089 41.7323 39.5079C41.6933 39.4699 41.6464 39.4411 41.5949 39.4234L40.8975 39.4656C40.2246 39.4725 39.5533 39.5326 38.8899 39.6453C37.8455 39.8476 36.7838 39.9467 35.72 39.9411C34.4133 39.9338 33.1094 39.8207 31.8209 39.603C31.2919 39.527 30.7594 39.4777 30.2254 39.4551L29.4223 39.4128H29.3801C29.285 39.4128 29.2533 39.4128 29.2216 39.6241C28.9046 41.5789 28.5242 43.893 28.1015 46.2176C28.0276 46.6403 27.8268 47.0418 27.626 47.4327L27.5943 47.4856C27.5327 47.6313 27.4299 47.7559 27.2985 47.8441C27.1672 47.9323 27.0129 47.9803 26.8547 47.9822H26.7173C26.4743 47.9399 26.1573 47.7814 26.0411 47.2426C25.9793 46.926 25.9545 46.6033 25.9671 46.281C26.0094 45.2561 26.0199 43.9035 25.6607 42.5933L25.6395 42.5299C25.6229 42.4535 25.5981 42.3791 25.5656 42.308C25.3965 41.9065 25.1429 41.7163 24.7837 41.7057H24.7625C24.5878 41.7052 24.418 41.7632 24.2801 41.8704C24.1422 41.9777 24.0442 42.128 24.0017 42.2974C23.8284 42.8519 23.7082 43.4215 23.6425 43.9986C23.6002 44.4953 23.6002 45.013 23.6002 45.5097C23.6002 45.8161 23.6002 46.1331 23.5896 46.4501C23.5791 46.7671 23.5579 47.1158 23.4523 47.4222C23.3466 47.7286 23.0508 48.0033 22.7338 48.0033C22.6054 47.9981 22.4798 47.9641 22.3664 47.9037C22.253 47.8433 22.1547 47.7582 22.0786 47.6546C21.856 47.3819 21.6939 47.0649 21.6031 46.7248C21.3284 45.4674 21.096 44.1783 20.8741 42.9737C20.7895 42.4559 20.6944 41.9276 20.6205 41.4204C20.5465 40.9132 20.4303 40.3109 20.3352 39.7615C20.2983 39.7091 20.2469 39.6687 20.1872 39.6453C19.7117 39.5713 19.194 39.4973 18.5177 39.4234C18.3592 39.4022 17.9894 39.36 18 38.969C18.0105 38.578 18.1796 38.5358 18.4649 38.5358H18.56L19.9336 38.6943L20.071 38.7154L20.3986 38.7682H20.4303C20.6627 38.092 21.2122 37.7644 21.7722 37.5214C21.9177 37.4281 22.0347 37.2965 22.1103 37.141L22.3639 36.5493C22.4619 36.2724 22.5821 36.0038 22.7232 35.7462C23.1881 34.9326 23.9489 34.4465 24.7731 34.4465C25.5973 34.4465 26.2524 34.8586 26.7385 35.5877C26.9214 35.8972 27.0838 36.2184 27.2245 36.5493C27.3089 36.7549 27.4041 36.956 27.5098 37.1516C27.5789 37.3146 27.702 37.449 27.8585 37.532C28.3551 37.7856 28.7884 38.0286 29.0419 38.5358L29.0842 38.5569C29.3272 38.5358 29.5914 38.5252 29.8556 38.5252C30.7537 38.5252 31.6519 38.6731 32.5183 38.8105L33.0678 38.9056C33.879 39.0292 34.6986 39.0893 35.5192 39.0852C36.7185 39.0819 37.9147 38.9616 39.0907 38.726C39.7236 38.5966 40.3677 38.5294 41.0138 38.5252C41.2891 38.5232 41.5643 38.5373 41.838 38.5675C41.8865 38.5649 41.9337 38.5504 41.9753 38.5252C42.256 38.0776 42.6928 37.7501 43.201 37.6059C43.592 37.4897 43.8245 37.2678 43.983 36.8557C44.1333 36.4461 44.3319 36.0559 44.5747 35.6934C44.8319 35.3125 45.1779 35 45.5829 34.7828C45.9879 34.5655 46.4397 34.4501 46.8993 34.4465C47.2939 34.4454 47.6838 34.5309 48.0417 34.6971C48.3996 34.8632 48.7166 35.106 48.9703 35.4081C49.3296 35.8202 49.5938 36.3274 49.8473 36.824C49.8896 36.9191 49.9424 37.0036 49.9847 37.0987C50.027 37.1938 50.2489 37.4686 50.4496 37.5425C50.8829 37.6905 51.3795 37.9018 51.7282 38.3561C51.7927 38.3786 51.8607 38.3894 51.9289 38.3878L52.5312 38.4195L53.4822 38.4935C53.5685 38.4954 53.6534 38.5151 53.7316 38.5515C53.8098 38.5879 53.8796 38.6401 53.9366 38.7048C53.9656 38.7556 53.9842 38.8117 53.9915 38.8697C53.9987 38.9277 53.9944 38.9866 53.9788 39.043Z" fill="#161616"/>
<path d="M34.1456 36.7711C34.1539 36.7294 34.1575 36.6869 34.1561 36.6443V36.4541L34.3358 36.4753H34.452C34.5798 36.4638 34.7083 36.4895 34.8218 36.5492C34.9018 36.6012 34.9731 36.6653 35.0332 36.7394V36.5175C35.0332 36.0949 35.0226 35.6617 35.0332 35.2284C35.0385 35.1828 35.0385 35.1367 35.0332 35.0911C35.0226 34.9326 35.0015 34.7424 35.1283 34.605C35.1692 34.5621 35.2184 34.5278 35.2728 34.5042C35.3273 34.4806 35.3859 34.4682 35.4453 34.4676H35.4664C35.5286 34.4632 35.5909 34.4723 35.6493 34.4941C35.7076 34.516 35.7606 34.5502 35.8045 34.5944C35.9313 34.7424 35.9207 34.9326 35.8996 35.1016C35.8785 35.2707 35.889 35.1967 35.889 35.239C35.9102 35.6617 35.8996 36.1055 35.8996 36.5175V36.7606C35.9636 36.6737 36.0423 36.5986 36.1321 36.5387C36.2027 36.4985 36.2835 36.4802 36.3645 36.4858H36.7872V36.6549C36.786 36.6904 36.7896 36.726 36.7978 36.7606C36.8258 36.8874 36.803 37.0202 36.7344 37.1304C36.436 37.4722 36.1185 37.7967 35.7834 38.1025C35.7024 38.1577 35.6067 38.1872 35.5087 38.187C35.3758 38.1909 35.2456 38.15 35.1388 38.0708C34.8152 37.7894 34.5115 37.4858 34.2301 37.1621C34.1574 37.0455 34.1275 36.9073 34.1456 36.7711Z" fill="#161616"/>
<path d="M19.9759 31.3082C19.4264 29.8817 19.363 28.6137 19.7646 27.4197C20.2401 26.025 21.2861 25.2008 22.5647 25.2008C23.1807 25.2109 23.7828 25.386 24.3082 25.708C24.409 25.7736 24.526 25.8101 24.6463 25.8136C24.7659 25.8095 24.884 25.7845 24.995 25.7397C25.6818 25.4861 26.3581 25.2642 27.0449 25.1902H27.3302C28.3762 25.1902 29.211 25.7819 29.6865 26.8386C29.7076 26.902 29.7393 26.9548 29.7605 27.0182C30.4367 25.7397 31.5251 25.0423 32.8459 25.0423C33.2941 25.0478 33.7391 25.119 34.1667 25.2536L34.2723 25.2853C34.4067 25.3179 34.535 25.3714 34.6527 25.4438C34.8277 25.5892 35.0486 25.6678 35.2762 25.6657C35.5367 25.6547 35.7921 25.5899 36.0264 25.4755C36.7092 25.1745 37.4463 25.0163 38.1925 25.0106L38.7525 25.0423C39.9043 25.1691 40.7285 25.7714 41.2145 26.828L41.2568 26.902C41.9753 25.6868 43.0108 25.0423 44.2788 25.0423C44.735 25.0455 45.1878 25.1203 45.6207 25.2642L45.6947 25.2853C45.7811 25.3012 45.8636 25.3335 45.9377 25.3804C46.1606 25.5563 46.4357 25.6529 46.7197 25.6551C46.9733 25.6551 47.2585 25.5812 47.6495 25.4121C48.2695 25.1415 48.9384 25.0012 49.6149 25C49.8768 24.9997 50.1383 25.0209 50.3968 25.0634C51.9078 25.3064 52.9116 26.5321 52.9961 28.265C53.049 29.216 52.8588 30.167 52.415 31.1814C52.2203 31.5789 52.0714 31.9972 51.9712 32.4282C51.855 32.9988 51.5168 33.337 50.9251 33.4849C49.6657 33.837 48.3654 34.0217 47.0578 34.0343C46.7408 34.0343 46.4238 34.0132 46.1174 33.9921C45.2418 33.9125 44.3707 33.7891 43.5074 33.6223L42.9263 33.5166C42.3029 33.4109 41.9225 33.0517 41.764 32.3965C41.6372 31.9283 41.4784 31.4693 41.2885 31.0229L41.1511 30.6742C41.0983 30.7904 41.056 30.9172 41.0032 31.044C40.8179 31.503 40.6592 31.9722 40.5277 32.4494C40.3692 33.0305 40.0311 33.3687 39.4711 33.4849L39.3126 33.5166C38.5518 33.6857 37.7593 33.8441 36.9668 33.9392C36.4385 33.9921 35.8996 34.0238 35.3713 34.0238C34.0633 34.016 32.7611 33.8493 31.4934 33.5272C30.8277 33.3687 30.4684 33.0094 30.3205 32.386C30.202 31.9268 30.0466 31.478 29.8556 31.044L29.7288 30.7165L29.602 31.0757C29.4435 31.5724 29.2744 32.0795 29.1476 32.5867C29.0208 33.0939 28.7249 33.4321 28.2283 33.5694C27.0859 33.8657 25.911 34.0184 24.7308 34.0238C23.5685 34.022 22.411 33.8728 21.2861 33.58C21.0485 33.5288 20.8321 33.4063 20.6659 33.2288C20.4997 33.0513 20.3917 32.8273 20.3563 32.5867C20.2651 32.1508 20.1379 31.7231 19.9759 31.3082Z" fill="#161616"/>
</g>
</g>
<defs>
<filter id="filter0_d_324_9953" x="0" y="0" width="76" height="76" filterUnits="userSpaceOnUse" color-interpolation-filters="sRGB">
<feFlood flood-opacity="0" result="BackgroundImageFix"/>
<feColorMatrix in="SourceAlpha" type="matrix" values="0 0 0 0 0 0 0 0 0 0 0 0 0 0 0 0 0 0 127 0" result="hardAlpha"/>
<feOffset dx="2" dy="2"/>
<feGaussianBlur stdDeviation="4"/>
<feComposite in2="hardAlpha" operator="out"/>
<feColorMatrix type="matrix" values="0 0 0 0 0 0 0 0 0 0 0 0 0 0 0 0 0 0 0.04 0"/>
<feBlend mode="normal" in2="BackgroundImageFix" result="effect1_dropShadow_324_9953"/>
<feBlend mode="normal" in="SourceGraphic" in2="effect1_dropShadow_324_9953" result="shape"/>
</filter>
<clipPath id="clip0_324_9953">
<rect width="36" height="22.961" fill="white" transform="translate(18 25)"/>
</clipPath>
</defs>
</svg>
