<svg width="24" height="24" viewBox="0 0 24 24" fill="none" xmlns="http://www.w3.org/2000/svg">
<path d="M3.9362 15.5002C3.4377 15.5007 2.94036 15.4265 2.45117 15.2785C2.4717 15.4263 2.48539 15.5741 2.50592 15.722C2.56067 16.2077 2.61541 16.6617 2.66332 17.1157C2.71122 17.5697 2.71807 17.7387 2.7386 18.0343C2.75913 18.33 2.79334 18.784 2.83441 19.1535C2.93706 20.0405 3.06024 20.9485 3.19711 21.8671C3.22886 22.0543 3.27968 22.2325 3.34766 22.3951C3.34766 22.4162 3.35451 22.4268 3.36135 22.4479C3.36819 22.469 3.3682 22.4268 3.3682 22.4056C3.38185 22.2198 3.38871 22.033 3.38873 21.846C3.34082 20.1777 3.4161 18.9001 3.62825 17.7176C3.79249 16.8306 4.2031 16.3027 4.73004 16.3027H4.74373C5.27068 16.3132 5.67444 16.8412 5.825 17.7281C5.83868 17.7809 5.84553 17.8443 5.85921 17.8971C5.90817 18.1374 5.94029 18.3852 5.95502 18.6362C5.9824 19.3014 6.00293 19.9771 6.02346 20.6318C6.03714 21.0541 6.04399 21.487 6.06452 21.9094C6.06913 22.0862 6.08056 22.2625 6.09873 22.4373C6.13888 22.3627 6.16911 22.2766 6.1877 22.1839L6.22876 21.9833C6.32476 21.5704 6.40025 21.1468 6.45459 20.7162C6.61199 19.2803 6.76255 17.8231 6.90626 16.4188C6.95417 15.9648 7.00207 15.5108 7.04313 15.0462C7.04866 15.03 7.05104 15.0117 7.04997 14.9934L6.52987 15.1096C5.68128 15.2996 4.80532 15.5002 3.9362 15.5002Z" fill="white"/>
<path d="M6.43988 14.2437L6.8368 14.1486C6.73584 14.0435 6.6307 13.9483 6.522 13.8635C6.38829 13.7792 6.26782 13.6517 6.16867 13.4897C6.06952 13.3276 5.99399 13.1346 5.94715 12.9238C5.80344 12.3853 5.64604 11.8257 5.4202 11.3717C5.34199 11.1998 5.23869 11.0586 5.11863 10.9596C4.99857 10.8605 4.86512 10.8064 4.72901 10.8015C4.57963 10.8094 4.43371 10.8731 4.30379 10.9871C4.17387 11.1011 4.06381 11.2621 3.98308 11.4562C3.83075 11.7976 3.71091 12.1709 3.62722 12.5648C3.49035 13.2934 3.2303 13.7368 2.81969 13.948C2.74903 13.9833 2.68393 14.041 2.62854 14.1174C2.57316 14.1937 2.52871 14.2871 2.49805 14.3915C2.97903 14.5533 3.47028 14.6312 3.96255 14.6238C4.7906 14.6238 5.62551 14.4337 6.43988 14.2437Z" fill="white"/>
<path d="M16.2802 7.69724C16.3281 8.00344 16.4171 8.14071 16.6018 8.18294L17.1219 8.32021C17.5462 8.43635 17.9842 8.56306 18.4153 8.61585C18.6412 8.64753 18.8739 8.66864 19.1065 8.66864C19.918 8.6594 20.7253 8.48906 21.5086 8.16183C21.5783 8.14216 21.6425 8.09021 21.6926 8.01288C21.7428 7.93554 21.7764 7.8365 21.7892 7.72892C21.8694 7.25534 21.9747 6.79272 22.104 6.34572C22.364 5.42711 22.4735 4.58241 22.4325 3.75883C22.3709 2.31229 21.8029 1.41479 20.9474 1.41479H20.8311C20.5085 1.46753 20.1885 1.55218 19.873 1.6682L19.5924 1.76323C19.6902 1.83874 19.7979 1.87848 19.9072 1.87938C19.9654 1.8817 20.0235 1.86738 20.0783 1.83714H20.1331C20.2152 1.83714 20.3863 1.92161 20.4136 2.09055C20.4239 2.18653 20.4186 2.28492 20.3983 2.37701C20.378 2.4691 20.3433 2.55204 20.2973 2.61849C20.2091 2.71413 20.104 2.76572 19.9962 2.76631H19.9346C19.6954 2.72592 19.4607 2.63717 19.2366 2.50234C19.0586 2.3862 18.8807 2.23838 18.7096 2.10111C18.5385 1.96385 18.4496 1.88994 18.3127 1.79491C18.0233 1.57124 17.7055 1.44867 17.382 1.43591C16.4513 1.43591 15.7601 2.5129 15.6711 4.11783C15.6369 4.79359 15.7259 5.46935 15.9654 6.31405C16.1007 6.7573 16.2062 7.22079 16.2802 7.69724Z" fill="white"/>
<path d="M8.86999 7.69724C8.91789 8.00344 9.00686 8.14071 9.18479 8.18294L9.71858 8.32021C10.1429 8.43635 10.574 8.56306 11.0051 8.61585C11.231 8.64753 11.4705 8.66864 11.7032 8.66864C12.5124 8.65873 13.3174 8.48839 14.0984 8.16183C14.1681 8.14216 14.2323 8.09021 14.2824 8.01288C14.3326 7.93554 14.3662 7.8365 14.379 7.72892C14.4615 7.24478 14.569 6.77163 14.7006 6.31405C15.0017 5.23706 15.0907 4.30789 14.9949 3.37872C14.8649 2.22782 14.3858 1.53094 13.6399 1.41479H13.4277C13.0719 1.41479 12.7092 1.5415 12.2712 1.80547C12.3438 1.8594 12.4232 1.88822 12.5039 1.88994L12.6476 1.85826H12.7023C12.7712 1.86618 12.8374 1.90266 12.8939 1.96385L12.9692 2.0272L13.0719 2.10111L13.0171 2.24893C13.0017 2.2845 12.9901 2.32373 12.9829 2.36508C12.9418 2.50234 12.9076 2.65017 12.8118 2.68184C12.6902 2.722 12.5666 2.74672 12.4423 2.75575C12.3729 2.75735 12.3037 2.74312 12.237 2.71352C12.0276 2.61702 11.8238 2.49339 11.6279 2.34396L11.45 2.22782L11.1283 1.98497C10.9314 1.83315 10.7279 1.70261 10.5193 1.59429C10.338 1.50249 10.1489 1.45267 9.9581 1.44647C9.10951 1.44647 8.43885 2.37564 8.28829 3.76939C8.20617 4.5613 8.28829 5.37432 8.55519 6.31405C8.68448 6.76104 8.78977 7.22366 8.86999 7.69724Z" fill="white"/>
<path d="M6.81011 8.2253C6.87329 8.2037 6.92923 8.14741 6.96751 8.06692L7.03595 7.72904C7.20704 6.8949 7.38496 6.03965 7.51499 5.18439C7.64028 4.38723 7.60202 3.54972 7.40549 2.78756C7.22756 2.10124 6.95383 1.72113 6.57059 1.61554C6.46701 1.58234 6.36159 1.56466 6.2558 1.56274C5.89309 1.56274 5.54408 1.74224 5.25665 1.9323C5.31761 1.98276 5.38595 2.00821 5.45511 2.00621C5.4944 2.01022 5.53383 2.00306 5.57145 1.98509H5.61935C5.69013 1.99452 5.75831 2.03079 5.81781 2.09068L5.88625 2.15403L5.9889 2.21739L5.93415 2.37577C5.92731 2.40744 5.91362 2.44968 5.90678 2.49191C5.89994 2.53415 5.8315 2.75588 5.74254 2.80867C5.64017 2.85458 5.53432 2.87943 5.42774 2.88259C5.36784 2.88251 5.30814 2.87188 5.24981 2.85091C5.03373 2.74651 4.82507 2.60854 4.62705 2.43912L4.61337 2.418L4.32594 2.16459C4.2096 2.059 4.10695 1.95342 3.99061 1.86895C3.77389 1.6992 3.53552 1.60545 3.29258 1.59442C2.77248 1.59442 2.34818 2.06956 2.09497 2.93538C1.80071 3.98069 1.80755 5.08936 2.12919 6.44088C2.24475 6.91777 2.34299 7.40423 2.42346 7.89798C2.45768 8.10916 2.50558 8.20419 2.62876 8.24642C3.30334 8.52013 3.99797 8.65854 4.69549 8.65821C5.40957 8.65661 6.12047 8.51108 6.81011 8.2253Z" fill="white"/>
<path d="M19.045 15.4262H18.8945C18.2786 15.4262 17.649 15.31 17.0467 15.1939L16.2871 15.0672C16.3419 15.5001 16.3898 15.9225 16.4377 16.3554C16.5677 17.4535 16.6977 18.5833 16.8483 19.6919C16.9578 20.5261 17.1289 21.3496 17.2863 22.1415C17.326 22.2702 17.3791 22.3879 17.4437 22.49L17.4779 22.5639C17.4858 22.5227 17.4904 22.4801 17.4916 22.4372C17.512 22.2555 17.5257 22.0722 17.5326 21.8881C17.4984 20.6316 17.5052 19.1534 17.8064 17.7174C17.998 16.8305 18.4633 16.3026 19.0587 16.3026C19.6541 16.3026 20.1263 16.8411 20.2905 17.7174C20.3932 18.2348 20.4958 18.7733 20.5232 19.3224C20.5506 19.8714 20.5574 20.4416 20.5643 20.9906C20.5643 21.318 20.5643 21.6664 20.5711 22.0043C20.5794 22.165 20.5977 22.3241 20.6259 22.4794C20.6273 22.5052 20.6319 22.5303 20.6395 22.5533L20.6806 22.4794C20.7457 22.3624 20.7988 22.2306 20.838 22.0888C20.9936 21.4272 21.1193 20.7498 21.2144 20.0615C21.3855 18.7628 21.5429 17.4429 21.6934 16.1547L21.8166 15.1094C21.8223 15.0359 21.8246 14.9618 21.8235 14.8877L21.0433 15.0778C20.359 15.2467 19.7088 15.4051 19.045 15.4262Z" fill="white"/>
<path d="M21.393 14.0008L21.1261 13.8213C20.9961 13.7515 20.8771 13.6403 20.7769 13.4947C20.6767 13.3492 20.5975 13.1726 20.5445 12.9766C20.3871 12.4487 20.2365 11.9735 20.0312 11.5723C19.9164 11.3381 19.7687 11.147 19.5992 11.0135C19.4298 10.88 19.2428 10.8075 19.0526 10.8015C18.6351 10.8015 18.2519 11.1394 17.9987 11.7412C17.8812 11.9909 17.7868 12.2645 17.7181 12.5543C17.6612 12.8956 17.5451 13.2067 17.3824 13.454C17.2196 13.7014 17.0163 13.8758 16.7942 13.9586C16.6985 14.0113 16.6085 14.086 16.5273 14.1803C17.2406 14.4127 17.9677 14.5294 18.6967 14.5287C19.6063 14.5276 20.5121 14.3502 21.393 14.0008Z" fill="white"/>
<path d="M23.8979 13.8952C23.8157 13.7157 23.6583 13.494 23.3504 13.4412L22.7276 13.3779L22.3512 13.3356C22.1068 12.9527 21.8029 12.6728 21.4684 12.5226H21.4547C21.4342 12.512 21.4137 12.5015 21.3658 12.3537V12.322L21.3521 12.3009C21.3452 12.2692 21.3247 12.227 21.311 12.1847L21.27 12.058L21.2426 11.9735C21.0784 11.4878 20.9141 10.9916 20.6609 10.5481C20.5391 10.3336 20.4013 10.1422 20.2503 9.97794C20.7591 9.89344 21.2626 9.74513 21.7559 9.53448C22.2623 9.33386 22.5771 8.84816 22.6797 8.08793C22.7427 7.69251 22.8298 7.30716 22.9398 6.93703C23.2381 5.95006 23.3811 4.86835 23.3572 3.77997C23.2888 1.78437 22.5292 0.369495 21.3795 0.0949679C21.1966 0.0441673 21.011 0.0194261 20.8251 0.0210568C20.3401 0.0228728 19.8604 0.177366 19.4154 0.475082C19.2683 0.590046 19.1077 0.658266 18.9432 0.675698C18.8396 0.674949 18.7389 0.623156 18.6558 0.527876L18.6421 0.506759C18.5583 0.420295 18.4658 0.356056 18.3683 0.316701H18.341C18.0264 0.1447 17.696 0.052003 17.3624 0.0421742C16.9929 0.0365564 16.6273 0.159962 16.2931 0.403154C15.9589 0.646345 15.6647 1.00302 15.4325 1.44649C15.0493 0.644022 14.5018 0.15832 13.8174 0.0421742C13.6856 0.0210865 13.5531 0.0105137 13.4205 0.010498H13.4137C12.8836 0.0188232 12.36 0.191164 11.8739 0.517317H11.8602C11.7538 0.601864 11.6374 0.652157 11.518 0.665139C11.4512 0.657478 11.3872 0.620879 11.3333 0.559552L11.3196 0.538435H11.3127C11.2043 0.435313 11.0867 0.357064 10.9637 0.306143L10.909 0.285025C10.6025 0.125043 10.2813 0.0430225 9.95774 0.0421742C9.57831 0.0375919 9.20327 0.167547 8.86155 0.422013C8.51983 0.67648 8.22056 1.04866 7.98682 1.50984C7.81233 1.10138 7.57443 0.766684 7.29476 0.536181C7.01509 0.305679 6.70252 0.186678 6.38546 0.189996H6.15962C5.68058 0.263908 5.22891 0.506758 4.75671 0.760168H4.73618C4.70758 0.776811 4.67766 0.787465 4.64722 0.791844L4.613 0.770727H4.60616C4.2093 0.400795 3.75582 0.200368 3.29221 0.189996C2.32729 0.189996 1.50607 1.17196 1.1639 2.76633C0.876473 4.08617 0.917534 5.46936 1.30077 7.01094C1.39894 7.40199 1.47675 7.8045 1.53344 8.21463C1.61557 8.93263 1.90983 9.40777 2.37519 9.59783C2.79554 9.76771 3.2232 9.8912 3.65492 9.96738C3.42691 10.2343 3.23802 10.5725 3.1006 10.9599V10.981C3.00909 11.2558 2.92686 11.5378 2.85423 11.8257V11.8468C2.81317 12.0263 2.75842 12.2058 2.70368 12.3853V12.4065C2.69131 12.4568 2.66996 12.5007 2.64208 12.5332C2.32044 12.7443 1.95774 13.0717 1.72506 13.6841L1.64978 13.6629L0.746447 13.494H0.643795C0.226345 13.494 0.0141975 13.8108 0.000510626 14.4337C-0.00633283 14.6871 0.0484148 15.2995 0.609578 15.4157H0.636952C0.972281 15.4685 1.25971 15.5213 1.54713 15.5952C1.58819 15.9542 1.62241 16.3237 1.66347 16.6511L1.71822 17.2001C1.76612 17.633 1.81403 18.087 1.86877 18.5305C2.01933 19.8504 2.17673 21.1174 2.33413 22.3V22.3211H2.34097C2.4105 22.733 2.53913 23.1155 2.71736 23.4403C2.86108 23.7043 3.04585 23.9788 3.40171 23.9788C3.75757 23.9788 4.05868 23.6093 4.18871 23.0497V23.018C4.25679 22.6578 4.29136 22.2845 4.29136 21.9093C4.2982 21.5925 4.2982 21.2758 4.2982 20.959V20.6951C4.2982 20.3149 4.30504 19.9559 4.32557 19.5019C4.3639 18.958 4.43492 18.4207 4.53772 17.897H4.54457C4.55228 17.8411 4.57203 17.7908 4.60061 17.7544C4.62918 17.7179 4.66491 17.6975 4.70196 17.6964H4.7225C4.78409 17.6964 4.84568 17.7069 4.92096 17.9498L4.95517 18.1504L4.96886 18.2032C5.18785 19.4597 5.18785 20.7373 5.16048 21.7087C5.14776 22.0803 5.16616 22.453 5.21522 22.8174C5.29735 23.4403 5.5574 23.8627 5.9201 23.9577H6.0775C6.24407 23.9559 6.40681 23.8804 6.54633 23.74C6.68586 23.5996 6.7963 23.4003 6.8645 23.1658L6.87818 23.1341V23.0919C7.03128 22.6759 7.14425 22.2277 7.21351 21.7615C7.46672 19.6497 7.68571 17.5697 7.87733 15.7219L7.9047 15.4262L8.23319 15.4579H8.24687C8.57674 15.4687 8.90586 15.511 9.23233 15.5846C10.082 15.815 10.9428 15.9351 11.8055 15.9436H11.8123C12.5195 15.9422 13.2251 15.8397 13.9201 15.6374C14.3341 15.5301 14.7527 15.4701 15.1725 15.4579L15.412 15.4368C15.4667 15.8592 15.5078 16.2604 15.5762 16.8094C15.6652 17.5697 15.761 18.351 15.8363 18.9423C16.021 20.2938 16.1784 21.3286 16.3427 22.2789C16.4395 22.7346 16.6061 23.1476 16.8286 23.4826C16.9106 23.628 17.0114 23.7454 17.1245 23.8273C17.2376 23.9091 17.3606 23.9535 17.4855 23.9577H17.4924C17.8688 23.9577 18.1904 23.5776 18.3273 22.9652H18.3341C18.4101 22.5789 18.4425 22.1753 18.4299 21.772C18.4094 20.6 18.4094 19.3541 18.6558 18.2138C18.7584 17.6753 18.9774 17.6753 19.0527 17.6753C19.128 17.6753 19.3264 17.6753 19.4428 18.2349C19.6823 19.3858 19.6891 20.5789 19.6618 21.4975C19.648 21.8392 19.6548 22.182 19.6823 22.5217C19.737 23.2714 20.0039 23.7782 20.4145 23.926H20.4351L20.6198 23.9577H20.6335C20.9825 23.9577 21.2768 23.6621 21.5026 23.1024C21.6465 22.7482 21.7571 22.3643 21.8311 21.9621C22.0091 20.7795 22.1528 19.7237 22.2828 18.6467C22.3923 17.7492 22.4949 16.8728 22.6044 15.9014L22.6797 15.2784L23.1245 15.3418L23.193 15.3629L23.3572 15.3946H23.3778C23.5104 15.3965 23.6397 15.33 23.7451 15.2057C23.8505 15.0814 23.9259 14.9063 23.9594 14.7083C23.9886 14.5741 23.9982 14.4317 23.9876 14.2911C23.9769 14.1506 23.9463 14.0154 23.8979 13.8952ZM2.46415 9.09101C2.12883 8.95374 1.93037 8.63698 1.86877 8.10905C1.80933 7.66891 1.72459 7.23782 1.61557 6.82088C1.26655 5.40601 1.22549 4.1284 1.48554 2.93527C1.78665 1.55207 2.46415 0.717933 3.29221 0.717933C3.69364 0.725084 4.08628 0.900254 4.42823 1.22475C4.4937 1.28982 4.56938 1.32631 4.64722 1.33034C4.72257 1.32707 4.79685 1.30199 4.86621 1.25643C5.31788 1.01358 5.74901 0.781286 6.19384 0.717933H6.38546C7.06296 0.717933 7.60359 1.29866 7.9047 2.3651C7.92477 2.41842 7.94084 2.4751 7.95261 2.53404C8.39743 1.26699 9.10231 0.570111 9.95774 0.570111C10.2467 0.569991 10.5335 0.644951 10.8063 0.791844L10.8816 0.82352C10.9669 0.854221 11.0479 0.907833 11.1211 0.981901C11.2366 1.12128 11.3783 1.19908 11.5249 1.20363C11.6937 1.18566 11.8587 1.11754 12.0108 1.00302C12.454 0.706907 12.9308 0.549014 13.4137 0.538435C13.5349 0.538465 13.656 0.54904 13.7764 0.570111C14.5223 0.696816 15.063 1.29866 15.3778 2.35454L15.3983 2.43901C15.8636 1.21419 16.5411 0.570111 17.3624 0.570111C17.6577 0.575013 17.9508 0.649794 18.2315 0.791844L18.2794 0.812962C18.3357 0.832558 18.3891 0.868381 18.4368 0.918549C18.5804 1.08761 18.7557 1.18024 18.9364 1.18252C19.1006 1.18252 19.2922 1.10861 19.5454 0.939666C19.9465 0.667196 20.3801 0.526939 20.8183 0.527876C20.9857 0.527967 21.1527 0.549155 21.3179 0.591228C22.3033 0.834079 22.9466 2.05889 23.0082 3.79052C23.0295 4.79475 22.8983 5.79275 22.625 6.70473C22.5019 7.10747 22.4055 7.52846 22.3375 7.96122C22.2623 8.5314 22.0501 8.85872 21.66 9.0171C20.8431 9.35655 20.0014 9.53396 19.1553 9.54503C18.952 9.54678 18.7487 9.53268 18.5463 9.5028C17.9783 9.43945 17.4103 9.28106 16.8559 9.13324L16.4796 9.03821C16.0758 8.93263 15.8363 8.56307 15.7268 7.90843C15.6447 7.44051 15.5418 6.98188 15.4188 6.5358C15.3914 6.41965 15.3641 6.3035 15.3299 6.18736C15.3025 6.31406 15.2683 6.44077 15.2409 6.55691C15.1186 7.01535 15.0135 7.48422 14.9261 7.96122C14.8303 8.54195 14.6044 8.89039 14.2417 9.00654L14.1391 9.03821C13.6464 9.1966 13.1331 9.36554 12.6267 9.45001C12.2815 9.51353 11.9341 9.54526 11.5865 9.54503C10.7416 9.53801 9.90041 9.37135 9.08178 9.04877C8.6438 8.87983 8.41112 8.5314 8.31531 7.90843C8.23971 7.44568 8.13898 6.99358 8.0142 6.55691L7.93208 6.22959C7.9047 6.3563 7.88417 6.47244 7.8568 6.58859C7.74214 7.08384 7.64392 7.5878 7.56253 8.09849C7.48041 8.63698 7.28879 8.95374 6.96031 9.08045C6.22077 9.37929 5.4596 9.53186 4.69512 9.53448C3.9422 9.53532 3.19235 9.38626 2.46415 9.09101ZM11.3675 10.6115C11.3606 10.4531 11.347 10.2525 11.4291 10.1152C11.4562 10.0713 11.4893 10.0371 11.526 10.0152C11.5626 9.99333 11.602 9.9842 11.6412 9.9885H11.6549C11.6952 9.98407 11.7356 9.9931 11.7734 10.015C11.8112 10.0368 11.8455 10.071 11.8739 10.1152C11.956 10.2525 11.9423 10.4531 11.9355 10.6115C11.9298 10.6567 11.9275 10.7027 11.9287 10.7487C11.9355 11.1816 11.9355 11.6145 11.9355 12.0369V12.2797C11.9749 12.1873 12.0261 12.1083 12.0861 12.0475C12.1333 12.0137 12.1846 11.9957 12.2366 11.9947H12.5103V12.2692C12.5172 12.3853 12.524 12.5332 12.4693 12.6282C12.2816 12.9775 12.0756 13.3024 11.8534 13.5996C11.8031 13.6708 11.7368 13.7087 11.6686 13.7052C11.5859 13.7076 11.5046 13.6707 11.4359 13.5996C11.2213 13.3229 11.0242 13.0153 10.8474 12.681C10.7858 12.5754 10.7926 12.417 10.7995 12.2903V11.9735L10.9227 11.9947H10.9979C11.0786 11.9814 11.1599 12.0072 11.2306 12.0686C11.281 12.1232 11.327 12.187 11.3675 12.2586V12.0263C11.3675 11.604 11.3675 11.1711 11.3743 10.7382C11.3754 10.6957 11.3731 10.6531 11.3675 10.6115ZM23.6446 14.5499C23.6036 14.761 23.5215 14.8666 23.3914 14.8666L23.2614 14.8455L23.1998 14.8244C22.9945 14.7822 22.7755 14.761 22.5702 14.7399L22.406 14.7188L22.2828 15.8169C22.1733 16.7672 22.0707 17.6541 21.9612 18.5516C21.8174 19.7448 21.6669 20.8112 21.5095 21.846C21.4479 22.198 21.3509 22.5329 21.2221 22.8385C21.0578 23.2503 20.8731 23.4509 20.6404 23.4509L20.4967 23.4298C20.1066 23.2925 20.045 22.6801 20.0313 22.4795C20.004 22.1716 19.9971 21.8603 20.0108 21.5503C20.0381 20.505 20.0245 19.2907 19.7781 18.0976C19.6891 17.6753 19.4975 17.1684 19.0595 17.1684C18.6216 17.1684 18.4162 17.6647 18.3341 18.087C18.0741 19.3119 18.0741 20.6106 18.0946 21.8248C18.1049 22.1675 18.0771 22.5103 18.0125 22.8385C17.9235 23.2292 17.7319 23.472 17.4992 23.472C17.4197 23.4683 17.3415 23.4392 17.2697 23.3865C17.1978 23.3338 17.1338 23.2586 17.0818 23.1658C16.8968 22.8864 16.7583 22.5423 16.678 22.1627C16.5069 21.1808 16.3495 20.1249 16.1784 18.8578C16.0895 18.1504 16.0005 17.4324 15.9184 16.7355C15.8363 16.0387 15.7815 15.5741 15.7062 15.0039C15.6841 14.9603 15.6525 14.9303 15.6173 14.9194L15.1725 14.9511C14.7342 14.9616 14.2972 15.0251 13.8654 15.1412C13.1886 15.3399 12.5012 15.4389 11.8123 15.4368C10.9681 15.4261 10.1259 15.3095 9.29392 15.0884C8.95156 15.0108 8.60649 14.9649 8.26056 14.9511L7.74046 14.8983H7.70624C7.65149 14.8983 7.62412 14.8983 7.60359 15.0989C7.39829 17.0523 7.15877 19.3647 6.88503 21.6876C6.83028 22.1205 6.70025 22.5217 6.57023 22.9018L6.55654 22.9652C6.51441 23.1097 6.44617 23.2323 6.35998 23.3185C6.2738 23.4046 6.17334 23.4506 6.07066 23.4509H5.98169C5.82429 23.4086 5.61899 23.2503 5.55055 22.7223C5.50719 22.4031 5.49108 22.0766 5.50265 21.7509C5.53002 20.7267 5.53002 19.3858 5.29735 18.0659L5.28366 18.0026L5.2426 17.7808C5.12626 17.3796 4.96886 17.1896 4.72934 17.179H4.71565C4.60191 17.1809 4.49179 17.241 4.40261 17.35C4.31342 17.4589 4.25022 17.6105 4.22292 17.7808C4.12711 18.3193 4.02446 18.9001 3.99709 19.4808C3.96972 20.0615 3.96972 20.4839 3.96287 20.9801C3.96287 21.2863 3.96287 21.6137 3.95603 21.9199C3.95716 22.2486 3.92719 22.5759 3.86706 22.8913C3.78494 23.2503 3.60701 23.472 3.40171 23.472C3.1964 23.472 3.1006 23.3453 2.97741 23.1236C2.83374 22.8545 2.72877 22.5414 2.66946 22.205C2.49837 20.9379 2.34097 19.6497 2.2041 18.446C2.14251 17.9287 2.08776 17.4113 2.03302 16.9045C1.97827 16.3977 1.91668 15.7958 1.84824 15.2467C1.83949 15.2189 1.82706 15.1941 1.81173 15.1741C1.79641 15.1541 1.77854 15.1393 1.75928 15.1306C1.44448 15.0461 1.11599 14.9722 0.671169 14.8983C0.575361 14.8772 0.33584 14.8455 0.342683 14.4443C0.349527 14.0431 0.459022 14.0219 0.643795 14.0219H0.705387L1.58819 14.1909L1.684 14.212L1.8893 14.2542H1.90983C2.06723 13.5679 2.41625 13.2406 2.77895 12.9977C2.87553 12.9088 2.95199 12.776 2.99794 12.6176C3.05967 12.4253 3.1145 12.2279 3.16219 12.0263C3.23062 11.7624 3.3059 11.4878 3.39486 11.2239C3.69598 10.4109 4.19555 9.92515 4.7225 9.92515C5.24944 9.92515 5.68058 10.3475 5.99538 11.076C6.12049 11.3759 6.22594 11.6942 6.31018 12.0263C6.37177 12.227 6.42652 12.4381 6.49495 12.6387C6.54747 12.7936 6.62532 12.9247 6.72078 13.0189C7.04243 13.2617 7.32301 13.5046 7.48725 14.0114L7.52147 14.0431C7.68498 14.0132 7.84955 13.9991 8.0142 14.0008C8.60273 14.0008 9.17759 14.1486 9.73875 14.2965L10.1015 14.3809C10.6267 14.5076 11.1575 14.5711 11.6891 14.571C12.4634 14.5624 13.2356 14.4422 13.9954 14.212C14.4074 14.0786 14.8268 14.0079 15.2477 14.0008C15.4239 14.0026 15.5998 14.0203 15.7747 14.0536C15.8094 14.0521 15.843 14.0336 15.8705 14.0008C16.0489 13.5554 16.3301 13.2309 16.6575 13.0928C16.9175 12.9766 17.0681 12.7443 17.1639 12.3325C17.2594 11.9233 17.3906 11.5361 17.554 11.1816C17.7183 10.7993 17.9408 10.4848 18.202 10.2658C18.4633 10.0468 18.7554 9.92981 19.0527 9.92515C19.3082 9.92402 19.5608 10.0095 19.7926 10.1755C20.0244 10.3415 20.2297 10.5841 20.394 10.886C20.6335 11.3083 20.7978 11.8152 20.962 12.3009C20.9962 12.3959 21.0236 12.4909 21.0578 12.5754C21.1399 12.8288 21.2221 12.9555 21.3589 13.0189C21.6395 13.1667 21.9543 13.3884 22.1802 13.8424L22.317 13.8636L22.7003 13.9058L23.3162 13.9691C23.4599 13.9903 23.5557 14.0642 23.6104 14.1909C23.6345 14.242 23.6502 14.3013 23.6562 14.3639C23.6622 14.4264 23.6582 14.4902 23.6446 14.5499Z" fill="white"/>
</svg>
