<svg width="14" height="12" viewBox="0 0 14 12" fill="none" xmlns="http://www.w3.org/2000/svg">
<g clip-path="url(#clip0_832_26680)">
<path d="M2.29498 7.75024C2.00419 7.75049 1.71407 7.71336 1.42871 7.63937C1.44069 7.71328 1.44867 7.78719 1.46065 7.8611C1.49258 8.10395 1.52452 8.33097 1.55246 8.55798C1.58041 8.78499 1.5844 8.86946 1.59638 9.01728C1.60835 9.16511 1.62831 9.39212 1.65226 9.5769C1.71214 10.0204 1.784 10.4744 1.86384 10.9337C1.88236 11.0273 1.912 11.1164 1.95167 11.1977C1.95167 11.2082 1.95566 11.2135 1.95965 11.2241C1.96364 11.2346 1.96364 11.2135 1.96364 11.2029C1.97161 11.11 1.97561 11.0166 1.97562 10.9231C1.94767 10.089 1.99159 9.45019 2.11534 8.8589C2.21115 8.41544 2.45067 8.15147 2.75805 8.15147H2.76604C3.07342 8.15675 3.30895 8.42072 3.39677 8.86418C3.40476 8.89058 3.40875 8.92226 3.41673 8.94865C3.44529 9.06884 3.46403 9.19274 3.47262 9.31821C3.48859 9.65081 3.50057 9.98869 3.51254 10.316C3.52053 10.5272 3.52452 10.7436 3.5365 10.9548C3.53919 11.0432 3.54585 11.1314 3.55646 11.2188C3.57987 11.1815 3.59751 11.1384 3.60835 11.0921L3.6323 10.9918C3.6883 10.7853 3.73234 10.5735 3.76404 10.3582C3.85586 9.64025 3.94368 8.9117 4.02751 8.20954C4.05546 7.98253 4.0834 7.75552 4.10735 7.52322C4.11058 7.51512 4.11197 7.50595 4.11135 7.49683L3.80795 7.5549C3.31294 7.64993 2.80196 7.75024 2.29498 7.75024Z" fill="#878687"/>
<path d="M3.75643 7.12195L3.98797 7.07444C3.92908 7.02189 3.86774 6.97428 3.80434 6.9319C3.72634 6.88973 3.65606 6.82599 3.59823 6.74495C3.54039 6.66391 3.49633 6.56744 3.46901 6.46203C3.38517 6.19278 3.29336 5.91298 3.16162 5.68596C3.116 5.6 3.05574 5.52942 2.9857 5.4799C2.91567 5.43038 2.83782 5.40332 2.75843 5.40088C2.67129 5.40482 2.58617 5.43666 2.51038 5.49367C2.43459 5.55068 2.3704 5.63116 2.3233 5.7282C2.23444 5.89892 2.16454 6.08559 2.11571 6.28253C2.03587 6.64681 1.88418 6.86854 1.64466 6.97413C1.60344 6.99179 1.56546 7.02064 1.53315 7.05882C1.50085 7.097 1.47492 7.14367 1.45703 7.19586C1.73761 7.27679 2.02417 7.31575 2.31132 7.31201C2.79436 7.31201 3.28138 7.21698 3.75643 7.12195Z" fill="#878687"/>
<path d="M9.49612 3.84874C9.52407 4.00184 9.57597 4.07048 9.68375 4.09159L9.98714 4.16023C10.2346 4.2183 10.4901 4.28165 10.7416 4.30805C10.8734 4.32389 11.0091 4.33444 11.1448 4.33444C11.6182 4.32982 12.0891 4.24465 12.546 4.08103C12.5867 4.0712 12.6241 4.04523 12.6534 4.00656C12.6826 3.96789 12.7023 3.91837 12.7097 3.86458C12.7565 3.62779 12.8179 3.39648 12.8933 3.17298C13.045 2.71368 13.1089 2.29133 13.0849 1.87954C13.049 1.15627 12.7177 0.70752 12.2187 0.70752H12.1508C11.9627 0.733888 11.776 0.77621 11.5919 0.834224L11.4283 0.881739C11.4853 0.919491 11.5481 0.939362 11.6119 0.939812C11.6459 0.940973 11.6797 0.933814 11.7117 0.918694H11.7436C11.7915 0.918694 11.8913 0.960929 11.9073 1.0454C11.9133 1.09339 11.9102 1.14258 11.8984 1.18863C11.8865 1.23467 11.8663 1.27614 11.8394 1.30937C11.788 1.35719 11.7267 1.38298 11.6638 1.38328H11.6279C11.4883 1.36308 11.3514 1.31871 11.2207 1.25129C11.1169 1.19322 11.0131 1.11931 10.9133 1.05068C10.8135 0.982047 10.7616 0.945091 10.6818 0.897577C10.5129 0.78574 10.3276 0.724455 10.1388 0.718078C9.59593 0.718078 9.19273 1.25657 9.14084 2.05904C9.12088 2.39692 9.17277 2.7348 9.31249 3.15715C9.39141 3.37877 9.45294 3.61052 9.49612 3.84874Z" fill="#878687"/>
<path d="M5.17351 3.84874C5.20145 4.00184 5.25335 4.07048 5.35714 4.09159L5.66852 4.16023C5.91602 4.2183 6.16752 4.28165 6.41902 4.30805C6.55075 4.32389 6.69047 4.33444 6.8262 4.33444C7.29822 4.32949 7.76781 4.24432 8.22341 4.08103C8.26408 4.0712 8.30153 4.04523 8.33077 4.00656C8.36001 3.96789 8.37965 3.91837 8.38708 3.86458C8.43521 3.62251 8.49795 3.38594 8.57471 3.15715C8.75035 2.61865 8.80225 2.15407 8.74636 1.68948C8.67051 1.11403 8.39107 0.765593 7.95594 0.70752H7.83219C7.62461 0.70752 7.41303 0.770872 7.15754 0.902856C7.19992 0.929821 7.24624 0.944234 7.29327 0.945091L7.3771 0.929253H7.40904C7.44921 0.93321 7.48783 0.951451 7.52081 0.982047L7.56473 1.01372L7.62461 1.05068L7.59267 1.12459C7.58366 1.14237 7.57691 1.16199 7.57271 1.18266C7.54876 1.25129 7.5288 1.32521 7.47291 1.34104C7.40194 1.36112 7.32984 1.37348 7.25734 1.378C7.21685 1.3788 7.1765 1.37168 7.13758 1.35688C7.01543 1.30863 6.89657 1.24682 6.78229 1.1721L6.6785 1.11403L6.49087 0.992605C6.37601 0.916698 6.25729 0.851429 6.13558 0.797269C6.02983 0.751366 5.91952 0.726458 5.80824 0.723358C5.31323 0.723358 4.92201 1.18794 4.83419 1.88482C4.78628 2.28077 4.83419 2.68728 4.98988 3.15715C5.0653 3.38064 5.12671 3.61195 5.17351 3.84874Z" fill="#878687"/>
<path d="M3.9711 4.11277C4.00795 4.10197 4.04058 4.07383 4.06292 4.03358L4.10284 3.86464C4.20264 3.44757 4.30643 3.01995 4.38228 2.59232C4.45537 2.19374 4.43305 1.77498 4.31841 1.3939C4.21461 1.05074 4.05493 0.860685 3.83138 0.807891C3.77096 0.791291 3.70946 0.782451 3.64775 0.781494C3.43617 0.781494 3.23258 0.871243 3.06491 0.966272C3.10047 0.991503 3.14034 1.00423 3.18068 1.00323C3.2036 1.00523 3.22661 1.00165 3.24855 0.992669H3.27649C3.31778 0.997383 3.35755 1.01552 3.39226 1.04546L3.43218 1.07714L3.49206 1.10881L3.46012 1.18801C3.45613 1.20384 3.44815 1.22496 3.44416 1.24608C3.44016 1.2672 3.40024 1.37806 3.34835 1.40446C3.28863 1.42741 3.22689 1.43984 3.16472 1.44141C3.12977 1.44138 3.09495 1.43606 3.06092 1.42558C2.93488 1.37337 2.81316 1.30439 2.69765 1.21968L2.68967 1.20912L2.522 1.08242C2.45414 1.02962 2.39426 0.976831 2.32639 0.934596C2.19997 0.849722 2.06092 0.802849 1.91921 0.797332C1.61581 0.797332 1.36831 1.0349 1.2206 1.46781C1.04895 1.99047 1.05294 2.5448 1.24056 3.22056C1.30797 3.45901 1.36528 3.70224 1.41222 3.94911C1.43218 4.0547 1.46012 4.10222 1.53198 4.12333C1.92548 4.26019 2.33069 4.32939 2.73757 4.32923C3.15412 4.32843 3.56881 4.25566 3.9711 4.11277Z" fill="#878687"/>
<path d="M11.1098 7.71334H11.0219C10.6627 7.71334 10.2954 7.65527 9.94409 7.59719L9.50098 7.53384C9.53291 7.75029 9.56086 7.96147 9.5888 8.17792C9.66465 8.72698 9.7405 9.29187 9.82832 9.8462C9.89219 10.2633 9.99199 10.6751 10.0838 11.071C10.107 11.1354 10.138 11.1942 10.1756 11.2452L10.1956 11.2822C10.2002 11.2616 10.2029 11.2403 10.2036 11.2188C10.2155 11.128 10.2235 11.0363 10.2275 10.9443C10.2076 10.3161 10.2116 9.57696 10.3872 8.85896C10.499 8.4155 10.7704 8.15153 11.1177 8.15153C11.465 8.15153 11.7405 8.42077 11.8363 8.85896C11.8962 9.11765 11.9561 9.3869 11.972 9.66143C11.988 9.93595 11.992 10.221 11.996 10.4956C11.996 10.6592 11.996 10.8334 12 11.0024C12.0048 11.0828 12.0155 11.1623 12.0319 11.24C12.0327 11.2528 12.0355 11.2654 12.0399 11.2769L12.0639 11.24C12.1018 11.1814 12.1328 11.1156 12.1557 11.0446C12.2464 10.7138 12.3198 10.3751 12.3752 10.031C12.475 9.38162 12.5668 8.7217 12.6547 8.07762L12.7265 7.55496C12.7298 7.51818 12.7312 7.48113 12.7305 7.44409L12.2754 7.53912C11.8762 7.62359 11.497 7.70278 11.1098 7.71334Z" fill="#878687"/>
<path d="M12.4789 7.00053L12.3233 6.91078C12.2474 6.8759 12.178 6.82025 12.1195 6.74747C12.0611 6.6747 12.0149 6.58643 11.9839 6.48843C11.8921 6.22446 11.8043 5.98689 11.6845 5.78627C11.6176 5.66916 11.5314 5.57364 11.4326 5.50689C11.3337 5.44014 11.2247 5.40389 11.1137 5.40088C10.8702 5.40088 10.6466 5.56982 10.4989 5.87074C10.4304 5.99559 10.3753 6.13239 10.3352 6.27725C10.302 6.44794 10.2343 6.60345 10.1394 6.72714C10.0444 6.85083 9.92586 6.93804 9.79631 6.97941C9.74048 7.00575 9.68799 7.04313 9.64062 7.09028C10.0567 7.20645 10.4808 7.26484 10.9061 7.2645C11.4367 7.2639 11.9651 7.17522 12.4789 7.00053Z" fill="#878687"/>
<path d="M13.9394 6.94774C13.8915 6.85799 13.7997 6.74712 13.6201 6.72073L13.2568 6.68905L13.0372 6.66793C12.8947 6.47649 12.7174 6.33654 12.5223 6.26142H12.5143C12.5023 6.25614 12.4903 6.25086 12.4624 6.17695V6.16111L12.4544 6.15055C12.4504 6.13472 12.4384 6.1136 12.4305 6.09248L12.4065 6.02913L12.3905 5.98689C12.2947 5.74404 12.1989 5.49591 12.0512 5.27418C11.9802 5.16694 11.8998 5.07124 11.8117 4.98909C12.1085 4.94684 12.4022 4.87269 12.6899 4.76736C12.9853 4.66705 13.169 4.4242 13.2289 4.04409C13.2656 3.84638 13.3164 3.6537 13.3806 3.46864C13.5546 2.97515 13.638 2.4343 13.6241 1.8901C13.5842 0.892305 13.141 0.18487 12.4704 0.047606C12.3637 0.0222057 12.2554 0.00983514 12.147 0.0106505C11.8641 0.0115584 11.5843 0.0888049 11.3247 0.237663C11.2389 0.295145 11.1452 0.329255 11.0492 0.337971C10.9888 0.337596 10.9301 0.3117 10.8816 0.26406L10.8736 0.253501C10.8247 0.210269 10.7708 0.17815 10.7139 0.158473H10.6979C10.5144 0.0724719 10.3217 0.0261236 10.1271 0.0212092C9.91153 0.0184003 9.69831 0.0801031 9.50336 0.201699C9.3084 0.323295 9.13678 0.501633 9.00132 0.723365C8.77776 0.322133 8.4584 0.0792822 8.0592 0.0212092C7.98228 0.0106653 7.905 0.00537892 7.82766 0.00537109H7.82367C7.51447 0.00953365 7.20904 0.0957043 6.92547 0.258781H6.91748C6.85543 0.301054 6.78752 0.326201 6.71788 0.332692C6.67891 0.328861 6.64155 0.310562 6.6101 0.279898L6.60212 0.269339H6.59812C6.53487 0.217779 6.46629 0.178654 6.39453 0.153193L6.36259 0.142635C6.18383 0.0626438 5.99642 0.0216333 5.8077 0.0212092C5.58637 0.018918 5.3676 0.0838953 5.16826 0.211129C4.96892 0.338362 4.79435 0.524451 4.658 0.755041C4.55621 0.550811 4.41744 0.383464 4.2543 0.268213C4.09116 0.152961 3.90883 0.093461 3.72387 0.0951203H3.59214C3.31269 0.132076 3.04922 0.253501 2.77377 0.380206H2.7618C2.74511 0.388528 2.72766 0.393854 2.7099 0.396044L2.68994 0.385485H2.68595C2.45445 0.20052 2.18992 0.100306 1.91948 0.0951203C1.35661 0.0951203 0.877565 0.586101 0.677964 1.38329C0.510299 2.04321 0.534251 2.7348 0.757804 3.50559C0.815073 3.70112 0.86046 3.90237 0.893533 4.10744C0.941437 4.46644 1.11309 4.70401 1.38455 4.79904C1.62976 4.88398 1.87922 4.94572 2.13106 4.98381C1.99805 5.11728 1.88787 5.28639 1.8077 5.48007V5.49063C1.75433 5.62805 1.70636 5.76902 1.66399 5.91298V5.92354C1.64004 6.01329 1.6081 6.10304 1.57617 6.19279V6.20335C1.56896 6.22853 1.5565 6.25049 1.54024 6.2667C1.35261 6.37229 1.14104 6.53595 1.00531 6.84215L0.961397 6.83159L0.434451 6.74712H0.374571C0.131058 6.74712 0.00730533 6.9055 -0.000678697 7.21698C-0.00467071 7.34369 0.0272654 7.64989 0.354611 7.70797H0.370579C0.566188 7.73436 0.733852 7.76076 0.901517 7.79772C0.925469 7.97721 0.945429 8.16199 0.969381 8.32565L1.00132 8.60018C1.02926 8.81663 1.05721 9.04365 1.08914 9.26538C1.17697 9.9253 1.26878 10.5588 1.3606 11.1501V11.1607H1.36459C1.40515 11.3666 1.48018 11.5579 1.58415 11.7203C1.66798 11.8523 1.77577 11.9895 1.98335 11.9895C2.19094 11.9895 2.36659 11.8048 2.44244 11.5249V11.5091C2.48215 11.329 2.50232 11.1424 2.50232 10.9548C2.50631 10.7964 2.50631 10.638 2.50631 10.4796V10.3476C2.50631 10.1576 2.5103 9.97809 2.52228 9.75108C2.54463 9.4791 2.58606 9.21045 2.64603 8.94862H2.65002C2.65452 8.92065 2.66604 8.89552 2.68271 8.8773C2.69938 8.85909 2.72022 8.84888 2.74184 8.84831H2.75381C2.78974 8.84831 2.82567 8.85359 2.86958 8.97501L2.88954 9.07532L2.89752 9.10172C3.02527 9.72996 3.02527 10.3688 3.0093 10.8545C3.00188 11.0403 3.01262 11.2266 3.04124 11.4088C3.08914 11.7203 3.24084 11.9315 3.45241 11.979H3.54423C3.6414 11.9781 3.73633 11.9403 3.81772 11.8701C3.89911 11.7999 3.96353 11.7003 4.00331 11.583L4.0113 11.5672V11.5461C4.1006 11.3381 4.1665 11.114 4.20691 10.8809C4.35461 9.82499 4.48236 8.78496 4.59413 7.86107L4.6101 7.71325L4.80172 7.72908H4.8097C5.00212 7.73445 5.19411 7.75561 5.38455 7.79244C5.88021 7.90763 6.3823 7.96767 6.88555 7.97193H6.88954C7.30208 7.97123 7.71369 7.91998 8.11908 7.81883C8.36059 7.76516 8.60477 7.73516 8.84962 7.72908L8.98934 7.71852C9.02128 7.9297 9.04523 8.13032 9.08515 8.40484C9.13705 8.78496 9.19293 9.17563 9.23685 9.47127C9.34463 10.147 9.43645 10.6644 9.53226 11.1396C9.58871 11.3674 9.68594 11.5739 9.81569 11.7414C9.86352 11.8141 9.92232 11.8728 9.98832 11.9138C10.0543 11.9547 10.1261 11.9769 10.1989 11.979H10.2029C10.4225 11.979 10.6101 11.7889 10.6899 11.4827H10.6939C10.7382 11.2896 10.7571 11.0878 10.7498 10.8861C10.7378 10.3001 10.7378 9.67717 10.8816 9.107C10.9414 8.83775 11.0692 8.83775 11.1131 8.83775C11.157 8.83775 11.2728 8.83775 11.3406 9.11756C11.4804 9.69301 11.4844 10.2896 11.4684 10.7489C11.4603 10.9197 11.4644 11.0911 11.4804 11.261C11.5123 11.6358 11.668 11.8892 11.9075 11.9631H11.9195L12.0273 11.979H12.0352C12.2388 11.979 12.4105 11.8312 12.5422 11.5513C12.6262 11.3742 12.6907 11.1822 12.7339 10.9812C12.8376 10.3899 12.9215 9.86195 12.9973 9.32345C13.0612 8.87471 13.1211 8.43652 13.1849 7.95082L13.2289 7.63933L13.4883 7.67101L13.5283 7.68157L13.6241 7.69741H13.636C13.7134 7.69838 13.7888 7.66514 13.8503 7.60298C13.9118 7.54081 13.9558 7.45327 13.9754 7.35425C13.9924 7.28717 13.998 7.21595 13.9918 7.14568C13.9856 7.07541 13.9677 7.00782 13.9394 6.94774ZM1.43645 4.54563C1.24084 4.47699 1.12507 4.31861 1.08914 4.05465C1.05447 3.83458 1.00504 3.61903 0.941437 3.41056C0.737844 2.70313 0.713892 2.06432 0.865589 1.46776C1.04124 0.776159 1.43645 0.359089 1.91948 0.359089C2.15365 0.362664 2.38268 0.450249 2.58216 0.612498C2.62035 0.645032 2.66449 0.663276 2.7099 0.665292C2.75386 0.663655 2.79719 0.651119 2.83764 0.628336C3.10112 0.506911 3.35261 0.390765 3.6121 0.359089H3.72387C4.11908 0.359089 4.43445 0.649454 4.6101 1.18267C4.62181 1.20933 4.63118 1.23767 4.63804 1.26714C4.89752 0.633616 5.3087 0.285178 5.8077 0.285178C5.97624 0.285118 6.14359 0.322598 6.30271 0.396044L6.34663 0.411882C6.39635 0.427233 6.44365 0.454038 6.48635 0.491073C6.55372 0.56076 6.63636 0.599663 6.72188 0.601939C6.82036 0.592953 6.9166 0.558893 7.00531 0.501631C7.26384 0.353576 7.54197 0.274629 7.82367 0.269339C7.89437 0.269354 7.965 0.274642 8.03525 0.285178C8.47038 0.34853 8.78575 0.649454 8.96938 1.17739L8.98136 1.21963C9.25281 0.607219 9.64802 0.285178 10.1271 0.285178C10.2994 0.287629 10.4703 0.325019 10.6341 0.396044L10.662 0.406603C10.6948 0.416401 10.726 0.434313 10.7538 0.459397C10.8376 0.543928 10.9399 0.59024 11.0452 0.591381C11.141 0.591381 11.2528 0.554425 11.4005 0.469955C11.6345 0.33372 11.8874 0.263592 12.143 0.26406C12.2407 0.264105 12.3381 0.274699 12.4345 0.295736C13.0093 0.417162 13.3846 1.02957 13.4205 1.89538C13.4329 2.3975 13.3564 2.8965 13.1969 3.35249C13.1251 3.55386 13.0689 3.76435 13.0293 3.98073C12.9853 4.26582 12.8616 4.42948 12.6341 4.50867C12.1575 4.6784 11.6665 4.7671 11.173 4.77264C11.0543 4.77351 10.9358 4.76646 10.8177 4.75152C10.4863 4.71985 10.155 4.64065 9.83166 4.56674L9.6121 4.51923C9.37657 4.46644 9.23685 4.28166 9.17297 3.95434C9.12509 3.72038 9.06507 3.49106 8.99333 3.26802C8.97737 3.20995 8.9614 3.15187 8.94144 3.0938C8.92547 3.15715 8.90551 3.22051 8.88954 3.27858C8.81823 3.5078 8.75692 3.74223 8.70591 3.98073C8.65002 4.2711 8.51828 4.44532 8.30671 4.50339L8.24683 4.51923C7.9594 4.59842 7.66 4.68289 7.36459 4.72512C7.16322 4.75689 6.9606 4.77275 6.7578 4.77264C6.26494 4.76913 5.77427 4.6858 5.29673 4.52451C5.04124 4.44004 4.90551 4.26582 4.84962 3.95434C4.80552 3.72296 4.74676 3.49691 4.67397 3.27858L4.62607 3.11492C4.6101 3.17827 4.59812 3.23634 4.58216 3.29442C4.51527 3.54204 4.45798 3.79402 4.4105 4.04937C4.36259 4.31861 4.25082 4.47699 4.0592 4.54035C3.6278 4.68977 3.18379 4.76605 2.73784 4.76736C2.29864 4.76778 1.86123 4.69325 1.43645 4.54563ZM6.63006 5.30585C6.62607 5.22666 6.61808 5.12636 6.66599 5.05772C6.68181 5.03576 6.70111 5.01869 6.7225 5.00774C6.7439 4.99679 6.76686 4.99222 6.78974 4.99437H6.79772C6.82121 4.99216 6.84478 4.99667 6.86683 5.00761C6.88887 5.01854 6.90887 5.03563 6.92547 5.05772C6.97337 5.12636 6.96539 5.22666 6.9614 5.30585C6.95809 5.32845 6.95675 5.35148 6.95741 5.37449C6.9614 5.59094 6.9614 5.80739 6.9614 6.01857V6.14C6.98439 6.09378 7.01428 6.05426 7.04922 6.02385C7.07676 6.00697 7.10669 5.99797 7.13705 5.99745H7.29673V6.13472C7.30072 6.19279 7.30471 6.2667 7.27277 6.31421C7.16331 6.48889 7.04314 6.65135 6.91349 6.79992C6.88419 6.83553 6.84548 6.85449 6.80571 6.85271C6.75744 6.85392 6.71006 6.83549 6.66998 6.79992C6.54476 6.66159 6.42981 6.50779 6.32667 6.34061C6.29074 6.28782 6.29473 6.20863 6.29872 6.14527V5.98689L6.37058 5.99745H6.41449C6.46154 5.99081 6.50898 6.00373 6.55022 6.03441C6.57962 6.06173 6.60643 6.09363 6.63006 6.12944V6.01329C6.63006 5.80212 6.63006 5.58566 6.63405 5.36921C6.6347 5.34795 6.63336 5.32667 6.63006 5.30585ZM13.7917 7.27506C13.7678 7.38065 13.7199 7.43344 13.644 7.43344L13.5682 7.42288L13.5323 7.41232C13.4125 7.3912 13.2847 7.38065 13.165 7.37009L13.0692 7.35953L12.9973 7.90858C12.9335 8.38373 12.8736 8.82719 12.8097 9.27594C12.7259 9.87251 12.638 10.4057 12.5462 10.9231C12.5103 11.0991 12.4537 11.2666 12.3786 11.4194C12.2828 11.6253 12.175 11.7256 12.0392 11.7256L11.9554 11.715C11.7279 11.6464 11.6919 11.3402 11.684 11.2399C11.668 11.0859 11.664 10.9303 11.672 10.7753C11.6879 10.2526 11.68 9.64549 11.5362 9.04892C11.4844 8.83775 11.3726 8.58434 11.1171 8.58434C10.8616 8.58434 10.7418 8.83247 10.6939 9.04365C10.5422 9.65605 10.5422 10.3054 10.5542 10.9125C10.5602 11.0839 10.544 11.2553 10.5063 11.4194C10.4544 11.6147 10.3426 11.7361 10.2069 11.7361C10.1605 11.7343 10.1149 11.7197 10.073 11.6934C10.0311 11.667 9.99376 11.6294 9.96339 11.583C9.85551 11.4433 9.77471 11.2713 9.72786 11.0815C9.62806 10.5905 9.53625 10.0626 9.43645 9.42904C9.38455 9.07532 9.33265 8.71632 9.28475 8.36789C9.23685 8.01945 9.20491 7.78716 9.161 7.50207C9.14806 7.48025 9.12966 7.46527 9.1091 7.45984L8.84962 7.47567C8.59397 7.4809 8.33903 7.51267 8.08715 7.5707C7.69239 7.67006 7.29138 7.71956 6.88954 7.71852C6.39709 7.71315 5.90579 7.65489 5.42048 7.54431C5.22077 7.5055 5.01947 7.48259 4.81768 7.47567L4.51429 7.44928H4.49433C4.4624 7.44928 4.44643 7.44928 4.43445 7.54959C4.31469 8.52627 4.17497 9.68245 4.01529 10.8439C3.98335 11.0604 3.9075 11.261 3.83166 11.451L3.82367 11.4827C3.7991 11.555 3.75929 11.6163 3.70901 11.6594C3.65874 11.7024 3.60014 11.7254 3.54024 11.7256H3.48834C3.39653 11.7044 3.27677 11.6253 3.23685 11.3613C3.21155 11.2017 3.20215 11.0384 3.2089 10.8756C3.22487 10.3635 3.22487 9.69301 3.08914 9.03309L3.08116 9.00141L3.05721 8.89054C2.98934 8.68993 2.89752 8.5949 2.7578 8.58962H2.74982C2.68347 8.59057 2.61924 8.62064 2.56721 8.6751C2.51519 8.72957 2.47832 8.80535 2.4624 8.89054C2.40651 9.15979 2.34663 9.45016 2.33066 9.74052C2.31469 10.0309 2.31469 10.2421 2.3107 10.4902C2.3107 10.6433 2.3107 10.807 2.30671 10.9601C2.30737 11.1244 2.28988 11.2881 2.25481 11.4458C2.20691 11.6253 2.10311 11.7361 1.98335 11.7361C1.86359 11.7361 1.8077 11.6728 1.73585 11.5619C1.65204 11.4274 1.5908 11.2708 1.55621 11.1026C1.45641 10.4691 1.36459 9.82499 1.28475 9.22314C1.24882 8.96446 1.21689 8.70577 1.18495 8.45236C1.15301 8.19895 1.11709 7.89802 1.07717 7.6235C1.07206 7.60956 1.06481 7.59719 1.05587 7.58719C1.04693 7.57719 1.03651 7.56977 1.02527 7.56542C0.841637 7.52319 0.65002 7.48623 0.390539 7.44928C0.334651 7.43872 0.19493 7.42288 0.198922 7.22226C0.202914 7.02165 0.266786 7.01109 0.374571 7.01109H0.410499L0.925469 7.09556L0.981357 7.10612L1.10112 7.12724H1.11309C1.20491 6.78408 1.4085 6.62042 1.62008 6.49899C1.67641 6.4545 1.72102 6.38814 1.74782 6.30893C1.78383 6.21278 1.81581 6.11408 1.84363 6.01329C1.88355 5.88131 1.92746 5.74404 1.97936 5.61206C2.15501 5.20555 2.44643 4.9627 2.75381 4.9627C3.0612 4.9627 3.31269 5.17387 3.49633 5.53815C3.56931 5.68808 3.63082 5.84724 3.67996 6.01329C3.71589 6.1136 3.74782 6.21919 3.78774 6.31949C3.81838 6.39694 3.8638 6.46246 3.91948 6.50955C4.10711 6.63098 4.27078 6.7524 4.36659 7.00581L4.38655 7.02165C4.48193 7.00672 4.57792 6.99967 4.67397 7.00053C5.01729 7.00053 5.35261 7.07444 5.67996 7.14835L5.89154 7.19059C6.19793 7.25391 6.50757 7.28568 6.81768 7.28562C7.26937 7.28131 7.71976 7.22122 8.16299 7.10612C8.40331 7.03943 8.648 7.00407 8.89353 7.00053C8.99629 7.00144 9.09893 7.01026 9.20092 7.02693C9.22119 7.02617 9.24076 7.01693 9.25681 7.00053C9.36089 6.77783 9.52494 6.61559 9.71589 6.54651C9.86758 6.48843 9.95541 6.37229 10.0113 6.16639C10.067 5.96179 10.1436 5.76818 10.2388 5.59094C10.3347 5.39976 10.4645 5.24254 10.6169 5.13302C10.7693 5.0235 10.9397 4.96502 11.1131 4.9627C11.2622 4.96213 11.4095 5.00486 11.5447 5.08788C11.6799 5.17089 11.7997 5.29216 11.8955 5.44312C12.0352 5.65429 12.1311 5.9077 12.2269 6.15055C12.2468 6.19807 12.2628 6.24558 12.2828 6.28782C12.3307 6.41452 12.3786 6.47787 12.4584 6.50955C12.6221 6.58346 12.8057 6.69433 12.9374 6.92134L13.0173 6.9319L13.2408 6.95302L13.6001 6.98469C13.684 6.99525 13.7398 7.03221 13.7718 7.09556C13.7858 7.12111 13.795 7.15079 13.7985 7.18206C13.8019 7.21332 13.7996 7.24523 13.7917 7.27506Z" fill="#878687"/>
</g>
<defs>
<clipPath id="clip0_832_26680">
<rect width="14" height="12" fill="white"/>
</clipPath>
</defs>
</svg>
