<svg width="1932" height="1142" viewBox="0 0 1932 1142" fill="none" xmlns="http://www.w3.org/2000/svg">
<g clip-path="url(#clip0_1_2)">
<g clip-path="url(#clip1_1_2)">
<mask id="mask0_1_2" style="mask-type:luminance" maskUnits="userSpaceOnUse" x="-49" y="-209" width="2030" height="1560">
<path d="M1981 -209H-49V1351H1981V-209Z" fill="white"/>
</mask>
<g mask="url(#mask0_1_2)">
<path d="M929.554 604.607C929.554 342.483 1142.05 129.993 1404.17 129.993C1666.29 129.993 1878.78 342.483 1878.78 604.607C1878.78 866.731 1666.29 1079.22 1404.17 1079.22C1142.04 1079.22 929.554 866.727 929.554 604.607ZM45.792 1079.22V129.993H398.56C430.705 129.986 462.769 133.216 494.267 139.634C555.004 152.069 612.7 176.336 664.067 211.05C740.41 262.546 800.177 335.081 836.124 419.863C848.264 448.574 857.532 478.417 863.792 508.954C876.653 572.072 876.653 637.136 863.792 700.254C851.351 760.967 827.071 818.635 792.34 869.963C740.788 946.279 668.213 1006.01 583.406 1041.92C554.678 1054.06 524.82 1063.32 494.268 1069.58C462.77 1075.99 430.706 1079.22 398.561 1079.22H45.792Z" fill="white"/>
<path d="M1823.27 172.761V155.727H1834.3C1835.71 155.729 1837.13 155.831 1838.53 156.033C1839.85 156.204 1841.13 156.598 1842.33 157.197C1843.43 157.764 1844.36 158.609 1845.03 159.648C1845.78 160.946 1846.14 162.437 1846.07 163.937C1846.17 165.669 1845.76 167.392 1844.9 168.9C1844.15 170.069 1843.06 170.986 1841.78 171.535C1840.36 172.134 1838.85 172.486 1837.31 172.577C1835.63 172.7 1833.85 172.761 1831.98 172.761H1823.27ZM1814.94 148.987V202.54H1823.27V179.501H1832.09L1846.68 202.54H1855.62L1840.3 178.888C1843.98 178.61 1847.48 177.221 1850.35 174.906C1853.04 172.659 1854.39 169.126 1854.39 164.306C1854.39 159.159 1852.86 155.32 1849.79 152.787C1846.73 150.254 1842.01 148.988 1835.65 148.987H1814.94ZM1794.96 175.58C1794.92 170.335 1795.9 165.133 1797.84 160.262C1800.61 153.265 1805.44 147.271 1811.68 143.071C1817.93 138.871 1825.3 136.661 1832.83 136.733C1837.92 136.689 1842.98 137.711 1847.66 139.733C1852.16 141.671 1856.25 144.483 1859.66 148.007C1863.08 151.53 1865.77 155.695 1867.57 160.262C1869.51 165.133 1870.49 170.336 1870.45 175.58C1870.5 180.925 1869.52 186.23 1867.57 191.204C1865.75 195.829 1863.04 200.054 1859.6 203.642C1856.2 207.16 1852.14 209.971 1847.66 211.913C1842.98 213.935 1837.92 214.957 1832.83 214.913C1827.67 214.961 1822.56 213.94 1817.82 211.913C1813.3 209.982 1809.22 207.17 1805.81 203.641C1802.37 200.053 1799.66 195.828 1797.84 191.203C1795.88 186.229 1794.91 180.924 1794.96 175.58ZM1786.63 175.58C1786.56 181.876 1787.82 188.116 1790.3 193.9C1792.66 199.36 1796.05 204.312 1800.29 208.483C1804.52 212.621 1809.51 215.889 1815 218.103C1820.66 220.403 1826.72 221.569 1832.83 221.534C1838.92 221.573 1844.96 220.407 1850.6 218.103C1856.04 215.887 1861 212.618 1865.18 208.483C1869.39 204.298 1872.75 199.349 1875.11 193.9C1877.59 188.116 1878.85 181.876 1878.78 175.58C1878.83 169.384 1877.58 163.246 1875.11 157.566C1870.39 146.652 1861.59 138.012 1850.6 133.486C1844.97 131.143 1838.92 129.955 1832.83 129.993C1826.71 129.959 1820.65 131.147 1815 133.486C1809.53 135.73 1804.54 138.995 1800.29 143.106C1796.06 147.232 1792.66 152.144 1790.31 157.566C1787.83 163.246 1786.58 169.384 1786.63 175.58Z" fill="white"/>
</g>
</g>
</g>
<defs>
<clipPath id="clip0_1_2">
<rect width="1932" height="1142" fill="white"/>
</clipPath>
<clipPath id="clip1_1_2">
<rect width="2030" height="1560" fill="white" transform="translate(-49 -209)"/>
</clipPath>
</defs>
</svg>
