<svg width="76" height="77" viewBox="0 0 76 77" fill="none" xmlns="http://www.w3.org/2000/svg">
<g filter="url(#filter0_d_324_9840)">
<rect x="6" y="6.5" width="60" height="60" rx="30" fill="#353434"/>
<g clip-path="url(#clip0_324_9840)">
<path d="M53.9788 39.543C53.9635 39.6315 53.9164 39.7115 53.8464 39.7679C53.7764 39.8243 53.6883 39.8533 53.5984 39.8494L53.3977 39.8283H53.3026L52.3305 39.7332H52.0769C52.0135 40.103 51.9395 40.4728 51.8761 40.8321C51.7176 41.7725 51.5591 42.6706 51.3901 43.5688C51.1576 44.7522 50.9251 45.83 50.6821 46.855C50.591 47.2102 50.4449 47.5489 50.2489 47.8588C49.9953 48.2709 49.6994 48.4716 49.3402 48.4716L49.1288 48.4399C48.516 48.3026 48.4314 47.6897 48.3997 47.489C48.3663 47.1802 48.3593 46.8691 48.3786 46.5591C48.4103 45.5236 48.3997 44.2979 48.0194 43.1144C47.882 42.6918 47.5756 42.1846 46.9099 42.1846C46.2442 42.1846 45.9166 42.6812 45.7793 43.0933C45.3883 44.3296 45.3883 45.6187 45.42 46.8444C45.4384 47.1847 45.3917 47.5254 45.2826 47.8482C45.1558 48.2392 44.8494 48.4822 44.5007 48.4822C44.2518 48.4742 44.0162 48.3678 43.8456 48.1863C43.6765 48.0067 43.349 47.6263 43.2327 47.1825C42.9686 46.1893 42.715 45.1432 42.4614 43.8647C42.3134 43.1673 42.1867 42.4382 42.0599 41.7408C41.9331 41.0434 41.8485 40.589 41.7323 40.0079C41.6933 39.9699 41.6464 39.9411 41.5949 39.9234L40.8975 39.9656C40.2246 39.9725 39.5533 40.0326 38.8899 40.1453C37.8455 40.3476 36.7838 40.4467 35.72 40.4411C34.4133 40.4338 33.1094 40.3207 31.8209 40.103C31.2919 40.027 30.7594 39.9777 30.2254 39.9551L29.4223 39.9128H29.3801C29.285 39.9128 29.2533 39.9128 29.2216 40.1241C28.9046 42.0789 28.5242 44.393 28.1015 46.7176C28.0276 47.1403 27.8268 47.5418 27.626 47.9327L27.5943 47.9856C27.5327 48.1313 27.4299 48.2559 27.2985 48.3441C27.1672 48.4323 27.0129 48.4803 26.8547 48.4822H26.7173C26.4743 48.4399 26.1573 48.2814 26.0411 47.7426C25.9793 47.426 25.9545 47.1033 25.9671 46.781C26.0094 45.7561 26.0199 44.4035 25.6607 43.0933L25.6395 43.0299C25.6229 42.9535 25.5981 42.8791 25.5656 42.808C25.3965 42.4065 25.1429 42.2163 24.7837 42.2057H24.7625C24.5878 42.2052 24.418 42.2632 24.2801 42.3704C24.1422 42.4777 24.0442 42.628 24.0017 42.7974C23.8284 43.3519 23.7082 43.9215 23.6425 44.4986C23.6002 44.9953 23.6002 45.513 23.6002 46.0097C23.6002 46.3161 23.6002 46.6331 23.5896 46.9501C23.5791 47.2671 23.5579 47.6158 23.4523 47.9222C23.3466 48.2286 23.0508 48.5033 22.7338 48.5033C22.6054 48.4981 22.4798 48.4641 22.3664 48.4037C22.253 48.3433 22.1547 48.2582 22.0786 48.1546C21.856 47.8819 21.6939 47.5649 21.6031 47.2248C21.3284 45.9674 21.096 44.6783 20.8741 43.4737C20.7895 42.9559 20.6944 42.4276 20.6205 41.9204C20.5465 41.4132 20.4303 40.8109 20.3352 40.2615C20.2983 40.2091 20.2469 40.1687 20.1872 40.1453C19.7117 40.0713 19.194 39.9973 18.5177 39.9234C18.3592 39.9022 17.9894 39.86 18 39.469C18.0105 39.078 18.1796 39.0358 18.4649 39.0358H18.56L19.9336 39.1943L20.071 39.2154L20.3986 39.2682H20.4303C20.6627 38.592 21.2122 38.2644 21.7722 38.0214C21.9177 37.9281 22.0347 37.7965 22.1103 37.641L22.3639 37.0493C22.4619 36.7724 22.5821 36.5038 22.7232 36.2462C23.1881 35.4326 23.9489 34.9465 24.7731 34.9465C25.5973 34.9465 26.2524 35.3586 26.7385 36.0877C26.9214 36.3972 27.0838 36.7184 27.2245 37.0493C27.3089 37.2549 27.4041 37.456 27.5098 37.6516C27.5789 37.8146 27.702 37.949 27.8585 38.032C28.3551 38.2856 28.7884 38.5286 29.0419 39.0358L29.0842 39.0569C29.3272 39.0358 29.5914 39.0252 29.8556 39.0252C30.7537 39.0252 31.6519 39.1731 32.5183 39.3105L33.0678 39.4056C33.879 39.5292 34.6986 39.5893 35.5192 39.5852C36.7185 39.5819 37.9147 39.4616 39.0907 39.226C39.7236 39.0966 40.3677 39.0294 41.0138 39.0252C41.2891 39.0232 41.5643 39.0373 41.838 39.0675C41.8865 39.0649 41.9337 39.0504 41.9753 39.0252C42.256 38.5776 42.6928 38.2501 43.201 38.1059C43.592 37.9897 43.8245 37.7678 43.983 37.3557C44.1333 36.9461 44.3319 36.5559 44.5747 36.1934C44.8319 35.8125 45.1779 35.5 45.5829 35.2828C45.9879 35.0655 46.4397 34.9501 46.8993 34.9465C47.2939 34.9454 47.6838 35.0309 48.0417 35.1971C48.3996 35.3632 48.7166 35.606 48.9703 35.9081C49.3296 36.3202 49.5938 36.8274 49.8473 37.324C49.8896 37.4191 49.9424 37.5036 49.9847 37.5987C50.027 37.6938 50.2489 37.9686 50.4496 38.0425C50.8829 38.1905 51.3795 38.4018 51.7282 38.8561C51.7927 38.8786 51.8607 38.8894 51.9289 38.8878L52.5312 38.9195L53.4822 38.9935C53.5685 38.9954 53.6534 39.0151 53.7316 39.0515C53.8098 39.0879 53.8796 39.1401 53.9366 39.2048C53.9656 39.2556 53.9842 39.3117 53.9915 39.3697C53.9987 39.4277 53.9944 39.4866 53.9788 39.543Z" fill="white"/>
<path d="M34.1455 37.2711C34.1538 37.2294 34.1574 37.1869 34.1561 37.1443V36.9541L34.3357 36.9753H34.4519C34.5798 36.9638 34.7082 36.9895 34.8218 37.0492C34.9018 37.1012 34.9731 37.1653 35.0331 37.2394V37.0175C35.0331 36.5949 35.0225 36.1617 35.0331 35.7284C35.0384 35.6828 35.0384 35.6367 35.0331 35.5911C35.0225 35.4326 35.0014 35.2424 35.1282 35.105C35.1692 35.0621 35.2183 35.0278 35.2728 35.0042C35.3272 34.9806 35.3859 34.9682 35.4452 34.9676H35.4663C35.5285 34.9632 35.5909 34.9723 35.6492 34.9941C35.7076 35.016 35.7605 35.0502 35.8045 35.0944C35.9313 35.2424 35.9207 35.4326 35.8996 35.6016C35.8784 35.7707 35.889 35.6967 35.889 35.739C35.9101 36.1617 35.8996 36.6055 35.8996 37.0175V37.2606C35.9636 37.1737 36.0422 37.0986 36.132 37.0387C36.2026 36.9985 36.2835 36.9802 36.3645 36.9858H36.7871V37.1549C36.786 37.1904 36.7895 37.226 36.7977 37.2606C36.8257 37.3874 36.803 37.5202 36.7343 37.6304C36.4359 37.9722 36.1184 38.2967 35.7833 38.6025C35.7024 38.6577 35.6066 38.6872 35.5086 38.687C35.3758 38.6909 35.2455 38.65 35.1388 38.5708C34.8151 38.2894 34.5115 37.9858 34.23 37.6621C34.1573 37.5455 34.1275 37.4073 34.1455 37.2711Z" fill="white"/>
<path d="M19.9758 31.8082C19.4264 30.3817 19.363 29.1137 19.7645 27.9197C20.24 26.525 21.2861 25.7008 22.5646 25.7008C23.1807 25.7109 23.7828 25.886 24.3081 26.208C24.409 26.2736 24.5259 26.3101 24.6462 26.3136C24.7659 26.3095 24.8839 26.2845 24.9949 26.2397C25.6817 25.9861 26.358 25.7642 27.0448 25.6902H27.3301C28.3762 25.6902 29.2109 26.2819 29.6864 27.3386C29.7076 27.402 29.7393 27.4548 29.7604 27.5182C30.4367 26.2397 31.525 25.5423 32.8458 25.5423C33.294 25.5478 33.739 25.619 34.1666 25.7536L34.2723 25.7853C34.4066 25.8179 34.535 25.8714 34.6527 25.9438C34.8277 26.0892 35.0486 26.1678 35.2761 26.1657C35.5366 26.1547 35.792 26.0899 36.0263 25.9755C36.7091 25.6745 37.4463 25.5163 38.1924 25.5106L38.7525 25.5423C39.9042 25.6691 40.7284 26.2714 41.2145 27.328L41.2567 27.402C41.9752 26.1868 43.0108 25.5423 44.2787 25.5423C44.7349 25.5455 45.1878 25.6203 45.6207 25.7642L45.6947 25.7853C45.781 25.8012 45.8635 25.8335 45.9377 25.8804C46.1606 26.0563 46.4357 26.1529 46.7196 26.1551C46.9732 26.1551 47.2585 26.0812 47.6494 25.9121C48.2694 25.6415 48.9384 25.5012 49.6148 25.5C49.8768 25.4997 50.1383 25.5209 50.3967 25.5634C51.9077 25.8064 52.9116 27.0321 52.9961 28.765C53.0489 29.716 52.8587 30.667 52.4149 31.6814C52.2203 32.0789 52.0714 32.4972 51.9711 32.9282C51.8549 33.4988 51.5168 33.837 50.9251 33.9849C49.6656 34.337 48.3654 34.5217 47.0577 34.5343C46.7407 34.5343 46.4237 34.5132 46.1173 34.4921C45.2417 34.4125 44.3706 34.2891 43.5074 34.1223L42.9262 34.0166C42.3028 33.9109 41.9224 33.5517 41.7639 32.8965C41.6372 32.4283 41.4783 31.9693 41.2884 31.5229L41.1511 31.1742C41.0982 31.2904 41.056 31.4172 41.0031 31.544C40.8179 32.003 40.6591 32.4722 40.5276 32.9494C40.3691 33.5305 40.031 33.8687 39.471 33.9849L39.3125 34.0166C38.5517 34.1857 37.7592 34.3441 36.9667 34.4392C36.4384 34.4921 35.8995 34.5238 35.3712 34.5238C34.0632 34.516 32.761 34.3493 31.4933 34.0272C30.8276 33.8687 30.4684 33.5094 30.3204 32.886C30.202 32.4268 30.0465 31.978 29.8555 31.544L29.7287 31.2165L29.6019 31.5757C29.4434 32.0724 29.2743 32.5795 29.1475 33.0867C29.0207 33.5939 28.7249 33.9321 28.2283 34.0694C27.0859 34.3657 25.9109 34.5184 24.7308 34.5238C23.5684 34.522 22.4109 34.3728 21.2861 34.08C21.0484 34.0288 20.832 33.9063 20.6658 33.7288C20.4997 33.5513 20.3917 33.3273 20.3562 33.0867C20.2651 32.6508 20.1378 32.2231 19.9758 31.8082Z" fill="white"/>
</g>
</g>
<defs>
<filter id="filter0_d_324_9840" x="0" y="0.5" width="76" height="76" filterUnits="userSpaceOnUse" color-interpolation-filters="sRGB">
<feFlood flood-opacity="0" result="BackgroundImageFix"/>
<feColorMatrix in="SourceAlpha" type="matrix" values="0 0 0 0 0 0 0 0 0 0 0 0 0 0 0 0 0 0 127 0" result="hardAlpha"/>
<feOffset dx="2" dy="2"/>
<feGaussianBlur stdDeviation="4"/>
<feComposite in2="hardAlpha" operator="out"/>
<feColorMatrix type="matrix" values="0 0 0 0 0 0 0 0 0 0 0 0 0 0 0 0 0 0 0.04 0"/>
<feBlend mode="normal" in2="BackgroundImageFix" result="effect1_dropShadow_324_9840"/>
<feBlend mode="normal" in="SourceGraphic" in2="effect1_dropShadow_324_9840" result="shape"/>
</filter>
<clipPath id="clip0_324_9840">
<rect width="36" height="22.961" fill="white" transform="translate(18 25.5)"/>
</clipPath>
</defs>
</svg>
