<svg width="24" height="24" viewBox="0 0 24 24" fill="none" xmlns="http://www.w3.org/2000/svg">
<g clip-path="url(#clip0_1420_5587)">
<path d="M3.93523 14.9167C3.43673 14.9172 2.93938 14.8553 2.4502 14.732C2.47073 14.8551 2.48441 14.9783 2.50494 15.1015C2.55969 15.5063 2.61444 15.8846 2.66234 16.263C2.71025 16.6413 2.71709 16.7821 2.73762 17.0285C2.75815 17.2749 2.79237 17.6532 2.83343 17.9612C2.93608 18.7003 3.05926 19.457 3.19613 20.2225C3.22788 20.3785 3.2787 20.527 3.34669 20.6624C3.34669 20.68 3.35353 20.6888 3.36037 20.7064C3.36722 20.724 3.36722 20.6888 3.36722 20.6712C3.38088 20.5164 3.38773 20.3607 3.38775 20.2049C3.33984 18.8147 3.41512 17.75 3.62727 16.7645C3.79151 16.0254 4.20212 15.5855 4.72907 15.5855H4.74275C5.2697 15.5943 5.67346 16.0342 5.82402 16.7733C5.83771 16.8173 5.84455 16.8701 5.85824 16.9141C5.90719 17.1144 5.93931 17.3209 5.95404 17.53C5.98142 18.0844 6.00195 18.6475 6.02248 19.193C6.03617 19.545 6.04301 19.9057 6.06354 20.2577C6.06816 20.4051 6.07958 20.552 6.09776 20.6976C6.1379 20.6354 6.16813 20.5637 6.18672 20.4865L6.22778 20.3193C6.32378 19.9752 6.39928 19.6222 6.45362 19.2634C6.61102 18.0668 6.76157 16.8525 6.90529 15.6822C6.95319 15.3039 7.00109 14.9255 7.04215 14.5384C7.04769 14.5249 7.05006 14.5096 7.049 14.4944L6.5289 14.5912C5.68031 14.7496 4.80434 14.9167 3.93523 14.9167Z" fill="white"/>
<path d="M6.43988 13.8697L6.8368 13.7905C6.73584 13.7029 6.6307 13.6236 6.522 13.5529C6.38829 13.4826 6.26782 13.3764 6.16867 13.2413C6.06952 13.1063 5.99399 12.9455 5.94715 12.7698C5.80344 12.3211 5.64604 11.8547 5.4202 11.4764C5.34199 11.3331 5.23869 11.2155 5.11863 11.1329C4.99857 11.0504 4.86512 11.0053 4.72901 11.0012C4.57963 11.0078 4.43371 11.0609 4.30379 11.1559C4.17387 11.2509 4.06381 11.385 3.98308 11.5468C3.83075 11.8313 3.71091 12.1424 3.62722 12.4706C3.49035 13.0778 3.2303 13.4473 2.81969 13.6233C2.74903 13.6527 2.68393 13.7008 2.62854 13.7645C2.57316 13.8281 2.52871 13.9059 2.49805 13.9929C2.97903 14.1277 3.47028 14.1927 3.96255 14.1864C4.7906 14.1864 5.62551 14.0281 6.43988 13.8697Z" fill="white"/>
<path d="M16.2802 8.41433C16.3281 8.6695 16.4171 8.78388 16.6018 8.81908L17.1219 8.93346C17.5462 9.03025 17.9842 9.13584 18.4153 9.17983C18.6412 9.20623 18.8739 9.22383 19.1065 9.22383C19.918 9.21613 20.7253 9.07418 21.5086 8.80148C21.5783 8.7851 21.6425 8.7418 21.6926 8.67736C21.7428 8.61291 21.7764 8.53038 21.7892 8.44072C21.8694 8.04607 21.9747 7.66056 22.104 7.28806C22.364 6.52255 22.4735 5.81864 22.4325 5.13232C22.3709 3.92687 21.8029 3.17896 20.9474 3.17896H20.8311C20.5085 3.2229 20.1885 3.29344 19.873 3.39013L19.5924 3.46932C19.6902 3.53224 19.7979 3.56536 19.9072 3.56611C19.9654 3.56804 20.0235 3.55611 20.0783 3.53091H20.1331C20.2152 3.53091 20.3863 3.6013 20.4136 3.74209C20.4239 3.82207 20.4186 3.90406 20.3983 3.9808C20.378 4.05754 20.3433 4.12666 20.2973 4.18203C20.2091 4.26173 20.104 4.30473 19.9962 4.30522H19.9346C19.6954 4.27156 19.4607 4.1976 19.2366 4.08525C19.0586 3.98846 18.8807 3.86527 18.7096 3.75089C18.5385 3.6365 18.4496 3.57491 18.3127 3.49572C18.0233 3.30932 17.7055 3.20718 17.382 3.19655C16.4513 3.19655 15.7601 4.09405 15.6711 5.43148C15.6369 5.99462 15.7259 6.55775 15.9654 7.26167C16.1007 7.63105 16.2062 8.01729 16.2802 8.41433Z" fill="white"/>
<path d="M8.86901 8.41433C8.91692 8.6695 9.00588 8.78388 9.18381 8.81908L9.7176 8.93346C10.1419 9.03025 10.573 9.13584 11.0042 9.17983C11.23 9.20623 11.4695 9.22383 11.7022 9.22383C12.5114 9.21557 13.3164 9.07362 14.0974 8.80148C14.1671 8.7851 14.2313 8.7418 14.2815 8.67736C14.3316 8.61291 14.3653 8.53038 14.378 8.44072C14.4605 8.03727 14.5681 7.64299 14.6996 7.26167C15.0007 6.36417 15.0897 5.58987 14.9939 4.81556C14.8639 3.85647 14.3848 3.27574 13.6389 3.17896H13.4268C13.0709 3.17896 12.7082 3.28454 12.2702 3.50452C12.3429 3.54946 12.4223 3.57348 12.5029 3.57491L12.6466 3.54851H12.7013C12.7702 3.55511 12.8364 3.58551 12.893 3.6365L12.9682 3.68929L13.0709 3.75089L13.0161 3.87407C13.0007 3.90371 12.9891 3.9364 12.9819 3.97086C12.9409 4.08525 12.9067 4.20843 12.8108 4.23483C12.6892 4.2683 12.5656 4.2889 12.4413 4.29642C12.3719 4.29775 12.3027 4.28589 12.236 4.26123C12.0266 4.18081 11.8228 4.07779 11.6269 3.95326L11.449 3.85647L11.1274 3.6541C10.9304 3.52759 10.7269 3.4188 10.5183 3.32854C10.337 3.25203 10.1479 3.21052 9.95712 3.20535C9.10853 3.20535 8.43787 3.97966 8.28732 5.14112C8.2052 5.80104 8.28732 6.47856 8.55421 7.26167C8.6835 7.63416 8.78879 8.01968 8.86901 8.41433Z" fill="white"/>
<path d="M6.80914 8.85438C6.87231 8.83637 6.92825 8.78947 6.96654 8.7224L7.03497 8.44083C7.20606 7.74571 7.38399 7.033 7.51401 6.32028C7.63931 5.65599 7.60104 4.95806 7.40452 4.32292C7.22659 3.75099 6.95285 3.43423 6.56962 3.34624C6.46603 3.31857 6.36061 3.30384 6.25482 3.30225C5.89212 3.30225 5.5431 3.45183 5.25567 3.61021C5.31663 3.65226 5.38497 3.67347 5.45413 3.6718C5.49342 3.67514 5.53286 3.66918 5.57047 3.6542H5.61838C5.68916 3.66206 5.75733 3.69229 5.81684 3.74219L5.88527 3.79499L5.98792 3.84778L5.93318 3.97976C5.92633 4.00616 5.91265 4.04136 5.9058 4.07655C5.89896 4.11175 5.83052 4.29653 5.74156 4.34052C5.63919 4.37877 5.53334 4.39948 5.42676 4.40211C5.36686 4.40205 5.30717 4.39319 5.24883 4.37572C5.03275 4.28871 4.8241 4.17374 4.62608 4.03256L4.61239 4.01496L4.32496 3.80379C4.20863 3.7158 4.10597 3.62781 3.98963 3.55742C3.77291 3.41596 3.53455 3.33784 3.2916 3.32864C2.7715 3.32864 2.34721 3.7246 2.094 4.44611C1.79973 5.3172 1.80657 6.24109 2.12821 7.36736C2.24377 7.76477 2.34201 8.17015 2.42248 8.58161C2.4567 8.75759 2.5046 8.83678 2.62779 8.87198C3.30236 9.10007 3.997 9.21541 4.69451 9.21514C5.4086 9.2138 6.11949 9.09253 6.80914 8.85438Z" fill="white"/>
<path d="M19.045 14.8552H18.8945C18.2786 14.8552 17.649 14.7585 17.0467 14.6617L16.2871 14.5561C16.3419 14.9168 16.3898 15.2688 16.4377 15.6295C16.5677 16.5446 16.6977 17.4861 16.8483 18.41C16.9578 19.1051 17.1289 19.7914 17.2863 20.4514C17.326 20.5586 17.3791 20.6567 17.4437 20.7417L17.4779 20.8033C17.4858 20.769 17.4904 20.7335 17.4916 20.6977C17.512 20.5464 17.5257 20.3936 17.5326 20.2402C17.4984 19.1931 17.5052 17.9613 17.8064 16.7646C17.998 16.0255 18.4633 15.5856 19.0587 15.5856C19.6541 15.5856 20.1263 16.0343 20.2905 16.7646C20.3932 17.1958 20.4958 17.6445 20.5232 18.1021C20.5506 18.5596 20.5574 19.0347 20.5643 19.4923C20.5643 19.7651 20.5643 20.0554 20.5711 20.337C20.5794 20.4709 20.5977 20.6035 20.6259 20.7329C20.6273 20.7544 20.6319 20.7753 20.6395 20.7945L20.6806 20.7329C20.7457 20.6354 20.7988 20.5256 20.838 20.4074C20.9936 19.8561 21.1193 19.2916 21.2144 18.718C21.3855 17.6357 21.5429 16.5358 21.6934 15.4624L21.8166 14.5913C21.8223 14.53 21.8246 14.4682 21.8235 14.4065L21.0433 14.5649C20.359 14.7057 19.7088 14.8376 19.045 14.8552Z" fill="white"/>
<path d="M21.3921 13.6673L21.1252 13.5177C20.9952 13.4596 20.8762 13.3668 20.7759 13.2455C20.6757 13.1243 20.5965 12.9771 20.5435 12.8138C20.3861 12.3739 20.2355 11.9779 20.0302 11.6435C19.9155 11.4484 19.7678 11.2892 19.5983 11.1779C19.4288 11.0667 19.2419 11.0062 19.0516 11.0012C18.6342 11.0012 18.2509 11.2828 17.9977 11.7843C17.8803 11.9924 17.7858 12.2204 17.7171 12.4618C17.6602 12.7463 17.5441 13.0055 17.3814 13.2117C17.2186 13.4178 17.0153 13.5631 16.7933 13.6321C16.6975 13.676 16.6076 13.7383 16.5264 13.8169C17.2397 14.0105 17.9667 14.1078 18.6957 14.1072C19.6053 14.1063 20.5112 13.9584 21.3921 13.6673Z" fill="white"/>
<path d="M23.8969 13.5794C23.8148 13.4298 23.6574 13.245 23.3494 13.201L22.7267 13.1483L22.3503 13.1131C22.1058 12.794 21.8019 12.5607 21.4675 12.4355H21.4538C21.4332 12.4267 21.4127 12.4179 21.3648 12.2948V12.2684L21.3511 12.2508C21.3443 12.2244 21.3237 12.1892 21.3101 12.154L21.269 12.0484L21.2416 11.978C21.0774 11.5732 20.9131 11.1597 20.6599 10.7901C20.5382 10.6114 20.4003 10.4519 20.2493 10.315C20.7581 10.2446 21.2617 10.121 21.7549 9.94544C22.2613 9.77826 22.5761 9.3735 22.6787 8.73998C22.7417 8.41047 22.8288 8.08934 22.9388 7.7809C23.2371 6.95842 23.3801 6.057 23.3562 5.15001C23.2878 3.48701 22.5282 2.30795 21.3785 2.07918C21.1956 2.03685 21.01 2.01623 20.8242 2.01759C20.3391 2.0191 19.8594 2.14785 19.4144 2.39594C19.2673 2.49175 19.1067 2.5486 18.9422 2.56312C18.8386 2.5625 18.7379 2.51934 18.6548 2.43994L18.6411 2.42234C18.5574 2.35029 18.4648 2.29675 18.3674 2.26396H18.34C18.0255 2.12062 17.695 2.04338 17.3614 2.03519C16.9919 2.0305 16.6264 2.13334 16.2922 2.336C15.958 2.53866 15.6637 2.83589 15.4315 3.20545C15.0483 2.53673 14.5008 2.13197 13.8165 2.03519C13.6846 2.01761 13.5521 2.0088 13.4196 2.00879H13.4127C12.8826 2.01573 12.359 2.15934 11.8729 2.43114H11.8592C11.7529 2.50159 11.6364 2.5435 11.5171 2.55432C11.4503 2.54794 11.3862 2.51744 11.3323 2.46633L11.3186 2.44874H11.3118C11.2033 2.3628 11.0858 2.29759 10.9628 2.25516L10.908 2.23756C10.6016 2.10424 10.2803 2.03589 9.95676 2.03519C9.57733 2.03137 9.20229 2.13966 8.86057 2.35172C8.51885 2.56377 8.21958 2.87392 7.98585 3.25824C7.81135 2.91786 7.57346 2.63894 7.29379 2.44686C7.01412 2.25477 6.70154 2.15561 6.38448 2.15837H6.15864C5.6796 2.21996 5.22793 2.42234 4.75574 2.63351H4.73521C4.7066 2.64738 4.67668 2.65626 4.64624 2.65991L4.61202 2.64231H4.60518C4.20833 2.33404 3.75485 2.16701 3.29124 2.15837C2.32631 2.15837 1.50509 2.97667 1.16292 4.30531C0.875496 5.40518 0.916557 6.55784 1.29979 7.84249C1.39797 8.16836 1.47577 8.50379 1.53247 8.84557C1.61459 9.4439 1.90886 9.83985 2.37421 9.99823C2.79456 10.1398 3.22222 10.2427 3.65394 10.3062C3.42593 10.5286 3.23704 10.8105 3.09962 11.1333V11.1509C3.00812 11.3799 2.92589 11.6149 2.85326 11.8548V11.8724C2.81219 12.022 2.75745 12.1716 2.7027 12.3212V12.3387C2.69034 12.3807 2.66898 12.4173 2.64111 12.4443C2.31947 12.6203 1.95676 12.8931 1.72408 13.4034L1.64881 13.3858L0.745471 13.245H0.642819C0.225368 13.245 0.013221 13.509 -0.000465936 14.0281C-0.00730939 14.2393 0.0474382 14.7497 0.608602 14.8464H0.635975C0.971305 14.8904 1.25873 14.9344 1.54616 14.996C1.58722 15.2952 1.62143 15.6032 1.66249 15.8759L1.71724 16.3335C1.76515 16.6942 1.81305 17.0726 1.8678 17.4421C2.01835 18.542 2.17575 19.5979 2.33315 20.5834V20.601H2.34C2.40952 20.9442 2.53816 21.2629 2.71639 21.5336C2.8601 21.7536 3.04487 21.9824 3.40073 21.9824C3.75659 21.9824 4.0577 21.6744 4.18773 21.2081V21.1817C4.25582 20.8815 4.29038 20.5705 4.29038 20.2578C4.29722 19.9938 4.29722 19.7299 4.29722 19.4659V19.2459C4.29722 18.9292 4.30407 18.63 4.3246 18.2516C4.36292 17.7983 4.43394 17.3506 4.53675 16.9142H4.54359C4.5513 16.8676 4.57105 16.8257 4.59963 16.7953C4.62821 16.765 4.66393 16.748 4.70099 16.747H4.72152C4.78311 16.747 4.8447 16.7558 4.91998 16.9582L4.9542 17.1254L4.96788 17.1694C5.18687 18.2164 5.18687 19.2811 5.1595 20.0906C5.14679 20.4003 5.16519 20.7108 5.21425 21.0145C5.29637 21.5336 5.55642 21.8856 5.91912 21.9648H6.07652C6.24309 21.9633 6.40583 21.9004 6.54536 21.7834C6.68488 21.6664 6.79532 21.5003 6.86352 21.3049L6.87721 21.2785V21.2433C7.0303 20.8966 7.14327 20.5232 7.21254 20.1346C7.46574 18.3748 7.68473 16.6414 7.87635 15.1016L7.90373 14.8552L8.23221 14.8816H8.2459C8.57577 14.8906 8.90489 14.9259 9.23136 14.9872C10.0811 15.1792 10.9418 15.2793 11.8045 15.2864H11.8113C12.5186 15.2852 13.2242 15.1998 13.9191 15.0312C14.3331 14.9418 14.7517 14.8918 15.1715 14.8816L15.411 14.864C15.4657 15.216 15.5068 15.5504 15.5752 16.0079C15.6642 16.6414 15.76 17.2926 15.8353 17.7853C16.0201 18.9116 16.1775 19.7739 16.3417 20.5658C16.4385 20.9456 16.6052 21.2897 16.8276 21.5688C16.9096 21.6901 17.0104 21.7879 17.1235 21.8561C17.2367 21.9243 17.3596 21.9613 17.4846 21.9648H17.4914C17.8678 21.9648 18.1894 21.648 18.3263 21.1377H18.3332C18.4091 20.8158 18.4415 20.4794 18.429 20.1434C18.4084 19.1667 18.4084 18.1285 18.6548 17.1782C18.7574 16.7294 18.9764 16.7294 19.0517 16.7294C19.127 16.7294 19.3255 16.7294 19.4418 17.1958C19.6813 18.1549 19.6882 19.1491 19.6608 19.9146C19.647 20.1993 19.6539 20.4851 19.6813 20.7681C19.7361 21.3929 20.003 21.8152 20.4136 21.9384H20.4341L20.6189 21.9648H20.6326C20.9816 21.9648 21.2758 21.7184 21.5017 21.2521C21.6455 20.9569 21.7561 20.6369 21.8302 20.3018C22.0081 19.3163 22.1518 18.4364 22.2818 17.5389C22.3913 16.791 22.494 16.0607 22.6035 15.2512L22.6787 14.7321L23.1236 14.7849L23.192 14.8025L23.3562 14.8288H23.3768C23.5094 14.8305 23.6387 14.7751 23.7441 14.6715C23.8495 14.5678 23.9249 14.4219 23.9585 14.2569C23.9876 14.1451 23.9972 14.0264 23.9866 13.9093C23.976 13.7922 23.9453 13.6795 23.8969 13.5794ZM2.46318 9.57588C2.12785 9.46149 1.92939 9.19753 1.8678 8.75758C1.80835 8.3908 1.72362 8.03155 1.61459 7.68411C1.26557 6.50505 1.22451 5.44038 1.48456 4.4461C1.78568 3.29343 2.46318 2.59832 3.29124 2.59832C3.69266 2.60428 4.0853 2.75025 4.42725 3.02067C4.49273 3.07489 4.5684 3.1053 4.64624 3.10866C4.72159 3.10593 4.79588 3.08504 4.86523 3.04706C5.3169 2.84469 5.74804 2.65111 6.19286 2.59832H6.38448C7.06198 2.59832 7.60261 3.08226 7.90373 3.97095C7.92379 4.01539 7.93987 4.06262 7.95163 4.11174C8.39645 3.05586 9.10133 2.47513 9.95676 2.47513C10.2457 2.47503 10.5326 2.5375 10.8054 2.65991L10.8806 2.68631C10.9659 2.71189 11.047 2.75657 11.1201 2.81829C11.2356 2.93444 11.3773 2.99927 11.5239 3.00307C11.6927 2.98809 11.8577 2.93133 12.0098 2.83589C12.453 2.58913 12.9298 2.45755 13.4127 2.44874C13.5339 2.44876 13.655 2.45757 13.7754 2.47513C14.5213 2.58072 15.062 3.08226 15.3768 3.96215L15.3973 4.03255C15.8627 3.01187 16.5402 2.47513 17.3614 2.47513C17.6567 2.47922 17.9498 2.54154 18.2305 2.65991L18.2784 2.67751C18.3347 2.69384 18.3881 2.72369 18.4358 2.7655C18.5794 2.90638 18.7547 2.98357 18.9354 2.98547C19.0996 2.98547 19.2912 2.92388 19.5444 2.7831C19.9455 2.55604 20.3791 2.43916 20.8173 2.43994C20.9847 2.44001 21.1518 2.45767 21.3169 2.49273C22.3024 2.69511 22.9456 3.71578 23.0072 5.15881C23.0286 5.99567 22.8973 6.82733 22.624 7.58732C22.5009 7.92294 22.4046 8.27376 22.3366 8.63439C22.2613 9.10954 22.0491 9.3823 21.6591 9.51429C20.8421 9.79716 20.0004 9.945 19.1544 9.95424C18.951 9.95569 18.7477 9.94394 18.5453 9.91904C17.9773 9.86625 17.4093 9.73426 16.855 9.61108L16.4786 9.53189C16.0748 9.4439 15.8353 9.13593 15.7258 8.5904C15.6437 8.20047 15.5408 7.81827 15.4178 7.44654C15.3905 7.34975 15.3631 7.25296 15.3289 7.15617C15.3015 7.26176 15.2673 7.36735 15.2399 7.46413C15.1177 7.84616 15.0126 8.23689 14.9251 8.63439C14.8293 9.11834 14.6035 9.4087 14.2408 9.50549L14.1381 9.53189C13.6454 9.66387 13.1321 9.80465 12.6257 9.87504C12.2805 9.92798 11.9332 9.95442 11.5855 9.95424C10.7406 9.94838 9.89944 9.8095 9.0808 9.54068C8.64282 9.3999 8.41014 9.10954 8.31433 8.5904C8.23873 8.20477 8.138 7.82802 8.01322 7.46413L7.9311 7.19137C7.90373 7.29695 7.8832 7.39374 7.85582 7.49053C7.74116 7.90324 7.64294 8.3232 7.56155 8.74878C7.47943 9.19753 7.28781 9.46149 6.95933 9.56708C6.21979 9.81612 5.45863 9.94325 4.69414 9.94544C3.94122 9.94614 3.19138 9.82193 2.46318 9.57588ZM11.3665 10.8429C11.3597 10.7109 11.346 10.5438 11.4281 10.4294C11.4552 10.3928 11.4883 10.3643 11.525 10.3461C11.5617 10.3278 11.601 10.3202 11.6403 10.3238H11.6539C11.6942 10.3201 11.7346 10.3276 11.7724 10.3458C11.8102 10.3641 11.8445 10.3926 11.8729 10.4294C11.9551 10.5438 11.9414 10.7109 11.9345 10.8429C11.9288 10.8806 11.9265 10.919 11.9277 10.9573C11.9345 11.3181 11.9345 11.6788 11.9345 12.0308V12.2332C11.9739 12.1561 12.0252 12.0903 12.0851 12.0396C12.1323 12.0115 12.1836 11.9965 12.2356 11.9956H12.5094V12.2244C12.5162 12.3212 12.5231 12.4443 12.4683 12.5235C12.2807 12.8147 12.0747 13.0854 11.8524 13.333C11.8022 13.3924 11.7358 13.424 11.6676 13.421C11.5849 13.423 11.5037 13.3923 11.4349 13.333C11.2203 13.1025 11.0232 12.8462 10.8464 12.5675C10.7848 12.4795 10.7917 12.3475 10.7985 12.242V11.978L10.9217 11.9956H10.997C11.0776 11.9845 11.159 12.006 11.2296 12.0572C11.2801 12.1027 11.326 12.1559 11.3665 12.2156V12.022C11.3665 11.67 11.3665 11.3093 11.3734 10.9485C11.3745 10.9131 11.3722 10.8776 11.3665 10.8429ZM23.6437 14.1249C23.6026 14.3009 23.5205 14.3889 23.3905 14.3889L23.2604 14.3713L23.1988 14.3537C22.9935 14.3185 22.7746 14.3009 22.5693 14.2833L22.405 14.2657L22.2818 15.1808C22.1723 15.9727 22.0697 16.7118 21.9602 17.4597C21.8165 18.454 21.6659 19.3427 21.5085 20.205C21.447 20.4983 21.35 20.7774 21.2211 21.0321C21.0568 21.3753 20.8721 21.5424 20.6394 21.5424L20.4957 21.5248C20.1056 21.4105 20.044 20.9001 20.0303 20.7329C20.003 20.4764 19.9961 20.217 20.0098 19.9586C20.0372 19.0875 20.0235 18.0757 19.7771 17.0814C19.6882 16.7294 19.4965 16.3071 19.0586 16.3071C18.6206 16.3071 18.4153 16.7206 18.3332 17.0726C18.0731 18.0933 18.0731 19.1755 18.0936 20.1874C18.1039 20.4729 18.0761 20.7586 18.0115 21.0321C17.9225 21.3577 17.7309 21.56 17.4983 21.56C17.4187 21.557 17.3406 21.5327 17.2687 21.4888C17.1968 21.4449 17.1329 21.3822 17.0808 21.3049C16.8959 21.0721 16.7573 20.7853 16.677 20.469C16.5059 19.6507 16.3485 18.7708 16.1775 17.7149C16.0885 17.1254 15.9995 16.527 15.9174 15.9463C15.8353 15.3656 15.7805 14.9784 15.7053 14.5033C15.6831 14.4669 15.6515 14.442 15.6163 14.4329L15.1715 14.4593C14.7332 14.468 14.2962 14.521 13.8644 14.6177C13.1877 14.7833 12.5002 14.8658 11.8113 14.864C10.9671 14.8551 10.1249 14.758 9.29295 14.5737C8.95058 14.509 8.60551 14.4708 8.25959 14.4593L7.73948 14.4153H7.70527C7.65052 14.4153 7.62314 14.4153 7.60261 14.5825C7.39731 16.2103 7.15779 18.1373 6.88405 20.073C6.8293 20.4338 6.69928 20.7681 6.56925 21.0849L6.55556 21.1377C6.51344 21.2581 6.44519 21.3603 6.35901 21.4321C6.27283 21.5039 6.17237 21.5422 6.06968 21.5424H5.98071C5.82332 21.5072 5.61801 21.3753 5.54958 20.9353C5.50621 20.6693 5.49011 20.3972 5.50167 20.1258C5.52905 19.2723 5.52905 18.1549 5.29637 17.055L5.28268 17.0022L5.24162 16.8174C5.12528 16.4831 4.96788 16.3247 4.72836 16.3159H4.71468C4.60093 16.3174 4.49082 16.3676 4.40163 16.4583C4.31244 16.5491 4.24924 16.6754 4.22195 16.8174C4.12614 17.2662 4.02349 17.7501 3.99611 18.234C3.96874 18.718 3.96874 19.0699 3.9619 19.4835C3.9619 19.7387 3.96189 20.0114 3.95505 20.2666C3.95618 20.5406 3.92621 20.8133 3.86609 21.0761C3.78397 21.3753 3.60604 21.56 3.40073 21.56C3.19543 21.56 3.09962 21.4545 2.97644 21.2697C2.83276 21.0454 2.72779 20.7845 2.66848 20.5042C2.4974 19.4483 2.34 18.3748 2.20313 17.3717C2.14154 16.9406 2.08679 16.5094 2.03204 16.0871C1.97729 15.6647 1.9157 15.1632 1.84727 14.7057C1.83852 14.6824 1.82608 14.6618 1.81076 14.6452C1.79543 14.6285 1.77757 14.6161 1.7583 14.6089C1.4435 14.5385 1.11502 14.4769 0.670193 14.4153C0.574384 14.3977 0.334863 14.3713 0.341707 14.0369C0.34855 13.7026 0.458046 13.685 0.642819 13.685H0.70441L1.58722 13.8258L1.68302 13.8434L1.88833 13.8786H1.90886C2.06626 13.3066 2.41527 13.0339 2.77798 12.8315C2.87455 12.7573 2.95101 12.6467 2.99697 12.5147C3.05869 12.3545 3.11352 12.19 3.16121 12.022C3.22965 11.802 3.30492 11.5732 3.39389 11.3533C3.695 10.6757 4.19457 10.271 4.72152 10.271C5.24846 10.271 5.6796 10.623 5.9944 11.2301C6.11951 11.48 6.22496 11.7452 6.3092 12.022C6.37079 12.1892 6.42554 12.3651 6.49397 12.5323C6.5465 12.6614 6.62435 12.7706 6.71981 12.8491C7.04145 13.0515 7.32203 13.2538 7.48627 13.6762L7.52049 13.7026C7.68401 13.6777 7.84857 13.6659 8.01322 13.6674C8.60176 13.6674 9.17661 13.7906 9.73777 13.9138L10.1005 13.9841C10.6257 14.0897 11.1565 14.1426 11.6882 14.1425C12.4625 14.1354 13.2346 14.0352 13.9944 13.8434C14.4064 13.7322 14.8258 13.6733 15.2468 13.6674C15.4229 13.6689 15.5989 13.6836 15.7737 13.7114C15.8085 13.7101 15.842 13.6947 15.8695 13.6674C16.0479 13.2962 16.3292 13.0258 16.6565 12.9107C16.9166 12.8139 17.0671 12.6203 17.1629 12.2772C17.2584 11.9361 17.3897 11.6135 17.553 11.3181C17.7173 10.9994 17.9398 10.7374 18.2011 10.5549C18.4623 10.3723 18.7544 10.2749 19.0517 10.271C19.3072 10.2701 19.5598 10.3413 19.7916 10.4796C20.0234 10.618 20.2287 10.8201 20.393 11.0717C20.6326 11.4237 20.7968 11.846 20.961 12.2508C20.9953 12.33 21.0226 12.4091 21.0568 12.4795C21.139 12.6907 21.2211 12.7963 21.358 12.8491C21.6385 12.9723 21.9533 13.1571 22.1792 13.5354L22.316 13.553L22.6993 13.5882L23.3152 13.641C23.4589 13.6586 23.5547 13.7202 23.6095 13.8258C23.6336 13.8684 23.6493 13.9178 23.6552 13.9699C23.6612 14.022 23.6572 14.0752 23.6437 14.1249Z" fill="white"/>
</g>
<defs>
<clipPath id="clip0_1420_5587">
<rect width="24" height="20" fill="white" transform="translate(0 2)"/>
</clipPath>
</defs>
</svg>
