<svg xmlns="http://www.w3.org/2000/svg" xmlns:xlink="http://www.w3.org/1999/xlink" width="2030" height="1560" viewBox="0 0 2030 1560">
  <defs>
    <clipPath id="clip-Custom_Size_1">
      <rect width="2030" height="1560"/>
    </clipPath>
  </defs>
  <g id="Custom_Size_1" data-name="Custom Size – 1" clip-path="url(#clip-Custom_Size_1)">
    <path id="Path_1" data-name="Path 1" d="M883.762,474.614C883.762,212.49,1096.256,0,1358.376,0S1832.99,212.49,1832.99,474.614,1620.5,949.228,1358.376,949.228,883.762,736.734,883.762,474.614ZM0,949.224V0H352.768a478.784,478.784,0,0,1,95.707,9.641,472.517,472.517,0,0,1,169.8,71.416A476.011,476.011,0,0,1,790.332,289.87,472.288,472.288,0,0,1,818,378.961a479.079,479.079,0,0,1,0,191.3A471.864,471.864,0,0,1,746.548,739.97,476.213,476.213,0,0,1,537.614,911.925a472.689,472.689,0,0,1-89.138,27.658,478.786,478.786,0,0,1-95.707,9.641Z" transform="translate(94.792 338.993)"/>
    <path id="Path_3" data-name="Path 3" d="M37.121,28.148V11.114H48.15a29.868,29.868,0,0,1,4.228.306,11.832,11.832,0,0,1,3.8,1.164,7.061,7.061,0,0,1,2.7,2.451,7.749,7.749,0,0,1,1.042,4.289,9.01,9.01,0,0,1-1.164,4.963,7.021,7.021,0,0,1-3.125,2.635,13.569,13.569,0,0,1-4.473,1.042q-2.512.184-5.331.184ZM28.788,4.374V57.927h8.333V34.888h8.823L60.527,57.927h8.946L54.155,34.275A18.167,18.167,0,0,0,64.2,30.293q4.044-3.37,4.044-10.6,0-7.72-4.6-11.519T49.5,4.374ZM8.813,30.967a40.4,40.4,0,0,1,2.88-15.318A37.247,37.247,0,0,1,46.679-7.88a36.584,36.584,0,0,1,14.828,3A37.193,37.193,0,0,1,81.421,15.649,40.4,40.4,0,0,1,84.3,30.967a41.534,41.534,0,0,1-2.88,15.624,38.2,38.2,0,0,1-7.965,12.438A37.08,37.08,0,0,1,61.507,67.3a36.584,36.584,0,0,1-14.828,3,37.324,37.324,0,0,1-15.012-3,36.9,36.9,0,0,1-12.009-8.272,38.2,38.2,0,0,1-7.965-12.438A41.534,41.534,0,0,1,8.813,30.967Zm-8.333,0a45.165,45.165,0,0,0,3.676,18.32A46.1,46.1,0,0,0,14.144,63.87a45.209,45.209,0,0,0,14.705,9.62,46.665,46.665,0,0,0,17.83,3.431A46.207,46.207,0,0,0,64.448,73.49a44.677,44.677,0,0,0,14.583-9.62,46.606,46.606,0,0,0,9.926-14.583,45.165,45.165,0,0,0,3.676-18.32,44.127,44.127,0,0,0-3.676-18.014,45.621,45.621,0,0,0-24.509-24.08A45.5,45.5,0,0,0,46.679-14.62a45.95,45.95,0,0,0-17.83,3.493,46.567,46.567,0,0,0-14.705,9.62,45.558,45.558,0,0,0-9.987,14.46A44.127,44.127,0,0,0,.48,30.967Z" transform="translate(1835.148 353.613)"/>
  </g>
</svg>
