<svg width="40" height="40" viewBox="0 0 40 40" fill="none" xmlns="http://www.w3.org/2000/svg">
<path d="M20 40C31.0457 40 40 31.0457 40 20C40 8.95431 31.0457 0 20 0C8.95431 0 0 8.95431 0 20C0 31.0457 8.95431 40 20 40Z" fill="#100E10"/>
<path d="M23.3952 24.6997C23.2852 23.9497 23.1752 23.2297 23.0752 22.4997L23.0452 22.3197C23.0274 22.2674 23.0255 22.211 23.0398 22.1576C23.054 22.1043 23.0837 22.0563 23.1252 22.0197C23.202 21.9382 23.244 21.8298 23.2421 21.7177C23.2403 21.6056 23.1947 21.4987 23.1152 21.4197C22.8352 21.1197 22.5352 20.8297 22.2452 20.5397C22.2152 20.5097 22.1652 20.5097 22.1352 20.4997C22.1187 20.5375 22.1118 20.5787 22.1152 20.6197L22.3852 22.6697L23.3452 29.5797L23.8552 33.4197C23.8664 33.4627 23.8672 33.5077 23.8576 33.5511C23.848 33.5944 23.8282 33.6348 23.7998 33.669C23.7715 33.7032 23.7354 33.7302 23.6946 33.7477C23.6538 33.7652 23.6095 33.7728 23.5652 33.7697H21.9552C21.7652 33.7697 21.6752 33.6797 21.6452 33.4797C21.5552 32.8397 21.4752 32.1897 21.3852 31.5497L20.9352 28.3497L20.7552 27.0297C20.7052 26.5997 20.4152 26.3097 20.0052 26.3097C19.5952 26.3097 19.2952 26.5797 19.2352 27.0197C18.9452 29.1497 18.6452 31.2897 18.3552 33.4197C18.3152 33.6997 18.2352 33.7697 17.9552 33.7697H16.4852C16.2152 33.7697 16.1052 33.6497 16.1452 33.3797C16.4652 30.9397 16.7852 28.4897 17.1152 26.0497C17.2652 24.9897 17.4352 23.9297 17.5852 22.8597C17.6852 22.1297 17.7752 21.3997 17.8752 20.6597C17.8834 20.6305 17.8867 20.6001 17.8852 20.5697C17.8844 20.5558 17.8804 20.5422 17.8734 20.53C17.8665 20.5179 17.8568 20.5075 17.8452 20.4997C17.8089 20.5042 17.7745 20.5179 17.7452 20.5397L17.3452 20.9397L16.9152 21.3697C16.8663 21.4123 16.8268 21.4646 16.7991 21.5232C16.7714 21.5818 16.7561 21.6456 16.7543 21.7104C16.7524 21.7752 16.7639 21.8397 16.7882 21.8998C16.8124 21.9599 16.8489 22.0144 16.8952 22.0597C16.9164 22.0803 16.9327 22.1053 16.9431 22.133C16.9535 22.1607 16.9576 22.1903 16.9552 22.2197C16.8452 23.0297 16.7252 23.8297 16.6052 24.6297C16.6006 24.6536 16.5939 24.677 16.5852 24.6997L16.4652 24.5997L15.0852 23.3397C14.2052 22.5397 14.1252 21.1397 14.9452 20.2697C15.3985 19.7831 15.8685 19.3131 16.3552 18.8597C17.1463 18.1246 18.1852 17.714 19.2652 17.7097C19.8786 17.6847 20.4929 17.6947 21.1052 17.7397C22.0614 17.8137 22.9624 18.2165 23.6552 18.8797C24.1252 19.3197 24.5852 19.7697 25.0252 20.2297C25.225 20.4414 25.3804 20.6908 25.4822 20.9635C25.5841 21.2361 25.6303 21.5264 25.6182 21.8172C25.6061 22.1079 25.5359 22.3934 25.4117 22.6566C25.2875 22.9198 25.1119 23.1555 24.8952 23.3497L23.5152 24.6097L23.3952 24.6997ZM20.6152 18.7497H19.3852C19.5252 18.9397 19.6352 19.0997 19.7652 19.2497C19.7968 19.2842 19.819 19.3262 19.8295 19.3718C19.84 19.4174 19.8385 19.4649 19.8252 19.5097C19.6352 20.2697 19.4652 21.0397 19.2852 21.7997C19.2704 21.8359 19.2694 21.8762 19.2823 21.913C19.2952 21.9498 19.3211 21.9807 19.3552 21.9997L19.9552 22.3897C19.9764 22.402 20.0006 22.4085 20.0252 22.4085C20.0497 22.4085 20.0739 22.402 20.0952 22.3897C20.2752 22.2797 20.4452 22.1397 20.6252 22.0297C20.6685 22.0064 20.7022 21.9686 20.7205 21.9229C20.7388 21.8772 20.7404 21.8265 20.7252 21.7797C20.5352 21.0297 20.3652 20.2797 20.1852 19.5197C20.1686 19.4744 20.1645 19.4254 20.1733 19.3779C20.1821 19.3304 20.2034 19.2862 20.2352 19.2497L20.6152 18.7497Z" fill="white"/>
<path d="M17.8984 14.8002C17.8984 14.3853 18.0214 13.9796 18.2517 13.6345C18.482 13.2894 18.8094 13.0202 19.1925 12.861C19.5757 12.7018 19.9974 12.6596 20.4045 12.7398C20.8115 12.82 21.1857 13.0191 21.4798 13.3117C21.7739 13.6044 21.9747 13.9777 22.0569 14.3844C22.139 14.7911 22.0989 15.213 21.9414 15.5969C21.784 15.9808 21.5164 16.3095 21.1724 16.5414C20.8284 16.7734 20.4233 16.8982 20.0084 16.9002C19.4506 16.9002 18.9154 16.6792 18.52 16.2857C18.1246 15.8922 17.9011 15.358 17.8984 14.8002ZM19.9984 15.7902C20.2098 15.786 20.4136 15.7107 20.5769 15.5764C20.7402 15.4422 20.8535 15.2568 20.8984 15.0502C20.9284 14.9002 20.8484 14.8002 20.6784 14.8002H19.3384C19.1384 14.8002 19.0684 14.9002 19.1084 15.1002C19.1609 15.2967 19.2764 15.4706 19.4371 15.5952C19.5979 15.7198 19.795 15.7883 19.9984 15.7902Z" fill="white"/>
<path d="M18.5378 7.74998H19.1678C19.2247 7.75868 19.2828 7.7447 19.3295 7.71104C19.3763 7.67738 19.4079 7.62674 19.4178 7.56998C19.5378 7.18998 19.6678 6.80998 19.7978 6.41998C19.8278 6.30998 19.8778 6.22998 20.0078 6.22998C20.1378 6.22998 20.1678 6.31998 20.1978 6.41998C20.3278 6.79998 20.4578 7.17998 20.5778 7.56998C20.5876 7.62938 20.6203 7.68255 20.669 7.71807C20.7176 7.7536 20.7782 7.76864 20.8378 7.75998H22.0778C22.1978 7.75998 22.2978 7.77998 22.3378 7.90998C22.3493 7.96166 22.3427 8.01575 22.319 8.06312C22.2954 8.11049 22.2561 8.14823 22.2078 8.16998L21.2078 8.91998C21.1808 8.93374 21.1568 8.95268 21.1372 8.97571C21.1176 8.99875 21.1027 9.02543 21.0934 9.05423C21.0841 9.08303 21.0806 9.11337 21.0831 9.14353C21.0855 9.17369 21.0939 9.20307 21.1078 9.22998C21.2378 9.60998 21.3578 9.98998 21.4878 10.38C21.5178 10.49 21.5578 10.6 21.4378 10.68C21.3178 10.76 21.2278 10.69 21.1278 10.62L20.1978 9.92998C20.0078 9.79998 19.9878 9.79998 19.7978 9.93998L18.8478 10.63C18.7578 10.69 18.6678 10.75 18.5578 10.67C18.4478 10.59 18.4778 10.48 18.5078 10.37C18.6378 9.98998 18.7578 9.60998 18.8878 9.21998C18.9016 9.19307 18.91 9.16369 18.9124 9.13353C18.9149 9.10337 18.9114 9.07303 18.9021 9.04423C18.8928 9.01543 18.8779 8.98875 18.8583 8.96571C18.8387 8.94268 18.8147 8.92374 18.7878 8.90998L17.7878 8.16998C17.6978 8.09998 17.6178 8.01998 17.6678 7.88998C17.7178 7.75998 17.8078 7.74998 17.9278 7.74998H18.5378Z" fill="white"/>
<path d="M24.0175 30.8002C23.9875 30.5702 23.9575 30.3602 23.9375 30.1502C23.9375 30.1202 23.9975 30.0702 24.0375 30.0402C24.4875 29.8202 24.9575 29.6302 25.3875 29.3802C28.1875 27.7302 29.9475 25.3102 30.6275 22.1202C30.6775 21.8802 30.8475 21.7502 31.0575 21.8002C31.2675 21.8502 31.3675 22.0302 31.3175 22.2602C30.3975 26.3202 28.0075 29.1402 24.1775 30.7402L24.0175 30.8002Z" fill="white"/>
<path d="M15.9588 30.8097C15.5388 30.6197 15.1088 30.4497 14.7088 30.2397C11.4888 28.5097 9.46879 25.8597 8.68879 22.2797C8.66168 22.2094 8.65673 22.1324 8.6746 22.0591C8.69247 21.9858 8.73231 21.9197 8.78879 21.8697C8.83688 21.8266 8.89629 21.798 8.96005 21.7873C9.02381 21.7767 9.08928 21.7845 9.14879 21.8097C9.29879 21.8697 9.34879 21.9997 9.37879 22.1497C9.51598 22.861 9.73059 23.5551 10.0188 24.2197C11.2055 26.9397 13.1721 28.8731 15.9188 30.0197C16.0388 30.0697 16.0788 30.1197 16.0588 30.2497C16.0257 30.4149 16.0023 30.5818 15.9888 30.7497L15.9588 30.8097Z" fill="white"/>
<path d="M31.5367 19.6302C31.5367 19.7502 31.5467 19.8602 31.5367 19.9702C31.541 20.0168 31.5353 20.0639 31.52 20.1081C31.5047 20.1524 31.4802 20.1929 31.448 20.227C31.4159 20.261 31.3768 20.2878 31.3335 20.3056C31.2901 20.3234 31.2435 20.3318 31.1967 20.3302C30.9867 20.3402 30.8567 20.1902 30.8367 19.9702C30.7867 19.3602 30.7767 18.7502 30.6767 18.1502C30.3083 15.8669 29.1977 13.7687 27.5167 12.1802C27.2567 11.9302 26.9667 11.7002 26.6967 11.4602C26.6316 11.4121 26.5858 11.3424 26.5674 11.2636C26.5491 11.1848 26.5595 11.102 26.5967 11.0302C26.6304 10.9612 26.6859 10.9053 26.7546 10.8709C26.8233 10.8366 26.9013 10.8258 26.9767 10.8402C27.0465 10.8594 27.1114 10.8935 27.1667 10.9402C29.2178 12.5473 30.6546 14.8103 31.2367 17.3502C31.4213 18.0967 31.5219 18.8614 31.5367 19.6302Z" fill="white"/>
<path d="M8.45757 19.5901C8.64757 16.0701 10.0776 13.1801 12.8176 10.9501C12.8965 10.8907 12.9896 10.8527 13.0876 10.8401C13.1557 10.8318 13.2247 10.8471 13.283 10.8835C13.3412 10.9199 13.3852 10.9752 13.4076 11.0401C13.4377 11.1003 13.4482 11.1684 13.4374 11.2348C13.4266 11.3012 13.3952 11.3626 13.3476 11.4101C13.3195 11.4483 13.2858 11.482 13.2476 11.5101C11.0976 13.2501 9.77757 15.4701 9.30757 18.2001C9.21757 18.7801 9.20757 19.3801 9.15757 19.9701C9.1584 20.0514 9.1324 20.1308 9.08359 20.1959C9.03478 20.2609 8.96589 20.3081 8.88757 20.3301C8.80811 20.3468 8.72536 20.3361 8.65275 20.2997C8.58013 20.2634 8.52193 20.2037 8.48757 20.1301C8.46797 20.0721 8.45784 20.0113 8.45757 19.9501C8.44757 19.8301 8.45757 19.7101 8.45757 19.5901Z" fill="white"/>
<path d="M24.2273 8.81982C24.2973 8.88982 24.3673 8.92982 24.3873 8.98982C24.4388 9.13783 24.5232 9.27227 24.634 9.3831C24.7448 9.49392 24.8793 9.57827 25.0273 9.62982C25.0562 9.64686 25.081 9.67001 25.1 9.69765C25.119 9.72529 25.1317 9.75675 25.1373 9.78982C25.134 9.82364 25.1222 9.85608 25.103 9.88407C25.0837 9.91206 25.0577 9.93469 25.0273 9.94982C24.8785 10.0001 24.7434 10.0839 24.6324 10.1949C24.5214 10.306 24.4375 10.4411 24.3873 10.5898C24.3724 10.6184 24.3511 10.6433 24.3251 10.6623C24.2991 10.6814 24.269 10.6942 24.2373 10.6998C24.2009 10.6963 24.1662 10.6834 24.1364 10.6624C24.1065 10.6413 24.0827 10.6129 24.0673 10.5798C24.0148 10.4367 23.9323 10.3065 23.8254 10.1978C23.7184 10.0892 23.5895 10.0046 23.4473 9.94982C23.3873 9.92982 23.3073 9.84982 23.3173 9.79982C23.3228 9.76157 23.3376 9.72523 23.3602 9.69389C23.3828 9.66255 23.4127 9.63714 23.4473 9.61982C23.588 9.57012 23.7159 9.48954 23.8214 9.38399C23.927 9.27843 24.0076 9.15058 24.0573 9.00982C24.0873 8.93982 24.1573 8.89982 24.2273 8.81982Z" fill="white"/>
<path d="M15.8084 8.83008C15.8784 8.89008 15.9484 8.93008 15.9684 8.98008C16.0198 9.13211 16.1049 9.27051 16.2175 9.38484C16.3301 9.49917 16.4672 9.58644 16.6184 9.64008C16.6473 9.65187 16.6727 9.67098 16.692 9.69552C16.7112 9.72007 16.7238 9.74921 16.7284 9.78008C16.7223 9.81294 16.7093 9.84415 16.6903 9.8717C16.6714 9.89925 16.6469 9.92254 16.6184 9.94008C16.4686 9.99332 16.3325 10.0793 16.2201 10.1917C16.1076 10.3042 16.0217 10.4402 15.9684 10.5901C15.9533 10.6205 15.9307 10.6466 15.9027 10.6658C15.8747 10.685 15.8423 10.6968 15.8084 10.7001C15.7774 10.6963 15.7476 10.6853 15.7215 10.6679C15.6955 10.6506 15.6739 10.6273 15.6584 10.6001C15.6065 10.4495 15.521 10.3128 15.4083 10.2002C15.2957 10.0876 15.159 10.002 15.0084 9.95008C14.9795 9.93304 14.9547 9.90989 14.9357 9.88225C14.9167 9.85462 14.904 9.82316 14.8984 9.79008C14.9025 9.75652 14.9147 9.72446 14.9338 9.6966C14.953 9.66875 14.9786 9.64593 15.0084 9.63008C15.1576 9.57852 15.2933 9.4943 15.4058 9.38357C15.5183 9.27285 15.6046 9.13841 15.6584 8.99008C15.6784 8.93008 15.7384 8.89008 15.8084 8.83008Z" fill="white"/>
<path d="M19.2267 30.8101H20.7667C20.7967 31.0201 20.8267 31.2501 20.8667 31.5001H19.1367L19.2267 30.8101Z" fill="white"/>
</svg>
