<svg width="76" height="76" viewBox="0 0 76 76" fill="none" xmlns="http://www.w3.org/2000/svg">
<g filter="url(#filter0_d_324_10038)">
<rect x="6" y="6" width="60" height="60" rx="30" fill="#353434"/>
<g clip-path="url(#clip0_324_10038)">
<path d="M52.731 47.8069L51.931 46.469L50.6897 44.3724L47.1448 38.4276C46.8185 37.8759 46.2966 37.4672 45.6828 37.2828C45.6406 37.2632 45.603 37.235 45.5724 37.2L45.2138 36.5931L44.8552 36C44.8414 35.9862 44.8414 35.9862 44.8414 35.9724L44.869 35.9448C46.7724 33.8345 47.4759 31.4069 46.9655 28.7034C46.6066 26.8212 45.6036 25.1226 44.1287 23.8993C42.6537 22.6761 40.7989 22.0045 38.8828 22C38.4997 22.0001 38.1171 22.0277 37.7379 22.0828C35.1448 22.4414 33.1034 23.7793 31.6828 26.069L31.6552 26.0966H31.6276C30.9148 25.8027 30.2849 25.3385 29.7931 24.7448C29.5677 24.4774 29.308 24.2408 29.0207 24.0414C28.2839 23.5169 27.401 23.2371 26.4966 23.2414C26.2426 23.2397 25.9889 23.2581 25.7379 23.2966C23.9862 23.5586 22.8138 24.5241 22.2483 26.1517C21.931 27.1172 21.9862 28.1103 22.0552 28.9655C22.2145 30.5561 22.4678 32.1359 22.8138 33.6966C23.3655 36.3172 23.931 38.869 24.469 41.2828C24.8383 42.8309 24.9777 44.425 24.8828 46.0138C24.799 46.7847 25.0219 47.5577 25.5034 48.1655C25.714 48.4561 25.9895 48.6934 26.308 48.8587C26.6265 49.0239 26.9792 49.1124 27.3379 49.1172C27.9561 49.1069 28.5455 48.8543 28.9793 48.4138C29.2494 48.1346 29.4856 47.8244 29.6828 47.4897C30.1726 46.6612 30.5353 45.7638 30.7586 44.8276C30.9379 44.1103 31.0759 43.3793 31.2138 42.6759C31.269 42.4276 31.3103 42.1793 31.3655 41.931C31.5448 41.0483 31.8069 40.3586 32.2207 39.7655C32.2462 39.7204 32.282 39.6819 32.3251 39.6532C32.3682 39.6244 32.4175 39.6062 32.469 39.6C32.5281 39.6051 32.5844 39.6274 32.631 39.6642C32.6776 39.7009 32.7124 39.7506 32.731 39.8069C32.8276 40 32.9103 40.1931 32.9793 40.3724C33.2552 41.131 33.3103 41.9448 33.3793 42.7448V42.8966C33.4681 44.1735 33.6995 45.4365 34.069 46.6621C34.2897 47.3517 34.5517 48.0828 35.0483 48.7172C35.2639 49.0058 35.5424 49.2414 35.8626 49.4063C36.1829 49.5712 36.5364 49.661 36.8966 49.669C37.2613 49.6619 37.6199 49.5742 37.9466 49.412C38.2733 49.2498 38.5601 49.0173 38.7862 48.731C39.1956 48.2273 39.4239 47.6007 39.4345 46.9517C39.4621 45.9034 39.5448 44.5379 39.9448 43.2414C40.3448 41.9448 40.6621 40.9379 41.0069 39.7931L41.3103 38.8138C41.3655 38.6621 41.4069 38.5103 41.4621 38.3586L41.5172 38.4552C41.6828 38.7172 41.8483 38.9931 42 39.269C42.0001 39.3062 41.9954 39.3433 41.9862 39.3793C41.901 39.7206 41.884 40.0754 41.936 40.4233C41.9881 40.7712 42.1083 41.1055 42.2897 41.4069C43.3379 43.1448 44.377 44.8874 45.4069 46.6345L46.6207 48.6621L46.9931 49.2966C47.269 49.7793 47.5586 50.2759 47.8621 50.7448C48.3862 51.5724 49.131 52 50.0828 52H50.3862C51.0621 51.9448 51.6 51.5862 52.0552 51.2552C52.5801 50.8702 52.941 50.3018 53.0662 49.663C53.1914 49.0241 53.0718 48.3616 52.731 47.8069ZM43.8207 36.9793L44 37.2966L42.8552 37.9724L42.6759 37.669L43.8207 36.9793ZM45.7241 30.331C45.7103 34.1241 42.5931 37.2 38.7724 37.2H38.731C36.9153 37.1963 35.1752 36.4725 33.8926 35.1873C32.61 33.9021 31.8897 32.1605 31.8897 30.3448C31.9034 26.5103 35.0069 23.3793 38.8276 23.3793H38.8552C40.6856 23.3975 42.4347 24.1384 43.7214 25.4405C45.008 26.7426 45.7279 28.5005 45.7241 30.331Z" fill="white"/>
<path d="M38.8276 23.9036C35.2138 23.9174 32.3862 26.7863 32.4 30.4139C32.4138 34.0415 35.2828 36.6898 38.7724 36.6898H38.8138C39.6579 36.6862 40.493 36.5163 41.2714 36.19C42.0499 35.8636 42.7564 35.3871 43.3507 34.7877C43.945 34.1883 44.4154 33.4777 44.7351 32.6964C45.0548 31.9152 45.2174 31.0787 45.2138 30.2346C45.1862 26.7174 42.3862 23.9449 38.8276 23.9036Z" fill="white"/>
</g>
</g>
<defs>
<filter id="filter0_d_324_10038" x="0" y="0" width="76" height="76" filterUnits="userSpaceOnUse" color-interpolation-filters="sRGB">
<feFlood flood-opacity="0" result="BackgroundImageFix"/>
<feColorMatrix in="SourceAlpha" type="matrix" values="0 0 0 0 0 0 0 0 0 0 0 0 0 0 0 0 0 0 127 0" result="hardAlpha"/>
<feOffset dx="2" dy="2"/>
<feGaussianBlur stdDeviation="4"/>
<feComposite in2="hardAlpha" operator="out"/>
<feColorMatrix type="matrix" values="0 0 0 0 0 0 0 0 0 0 0 0 0 0 0 0 0 0 0.04 0"/>
<feBlend mode="normal" in2="BackgroundImageFix" result="effect1_dropShadow_324_10038"/>
<feBlend mode="normal" in="SourceGraphic" in2="effect1_dropShadow_324_10038" result="shape"/>
</filter>
<clipPath id="clip0_324_10038">
<rect width="31.1034" height="30" fill="white" transform="translate(22 22)"/>
</clipPath>
</defs>
</svg>
