<svg width="76" height="77" viewBox="0 0 76 77" fill="none" xmlns="http://www.w3.org/2000/svg">
<g filter="url(#filter0_d_32_10098)">
<rect x="6" y="6.5" width="60" height="60" rx="30" fill="white"/>
<path d="M50.4922 52.9987C49.9721 53.0121 49.4576 52.8925 49.0028 52.6523C48.5479 52.4121 48.1692 52.0602 47.9064 51.6333C47.5712 51.1023 47.236 50.5561 46.9007 50.0403L46.4698 49.3272L45.0651 47.097L41.4736 41.3469C41.2595 41.017 41.118 40.6493 41.0577 40.266C40.9973 39.8827 41.0194 39.4917 41.1224 39.1167C41.1319 39.0818 41.1319 39.0453 41.1224 39.0105C40.9469 38.707 40.7553 38.4036 40.5638 38.1153L40.4999 38.0091C40.452 38.176 40.3882 38.3429 40.3403 38.5098L39.9891 39.587C39.5741 40.8462 39.1591 42.1055 38.76 43.3647C38.361 44.624 38.1854 46.308 38.1535 47.4459C38.1486 48.1656 37.8837 48.8619 37.4033 49.4182C37.1408 49.7311 36.8084 49.9846 36.4302 50.1604C36.052 50.3362 35.6374 50.4299 35.2164 50.4347C34.8013 50.4295 34.3931 50.3321 34.0245 50.1503C33.6559 49.9686 33.3371 49.7075 33.0935 49.3879C32.5188 48.7052 32.1996 47.9011 31.9442 47.1273C31.5134 45.7806 31.2509 44.3905 31.1621 42.9854V42.8186C31.0982 41.9538 31.0184 41.0586 30.6992 40.2242C30.6193 40.0118 30.5395 39.8146 30.4278 39.587C30.4022 39.5288 30.3604 39.4784 30.307 39.441C30.2536 39.4036 30.1905 39.3806 30.1245 39.3746C30.0618 39.3777 30.001 39.3961 29.9479 39.428C29.8948 39.4599 29.8512 39.5042 29.8212 39.5566C29.3263 40.2794 28.9898 41.0895 28.8316 41.9386C28.7837 42.2117 28.7199 42.4696 28.672 42.7427C28.5123 43.5316 28.3368 44.3357 28.1452 45.1246C27.8885 46.1573 27.463 47.1454 26.8842 48.0528C26.6611 48.4196 26.3873 48.7563 26.0701 49.0541C25.8256 49.3002 25.5313 49.4969 25.2049 49.6325C24.8786 49.768 24.5268 49.8396 24.1706 49.843C23.7557 49.8366 23.348 49.7387 22.9796 49.557C22.6112 49.3754 22.2922 49.1149 22.0477 48.7962C21.5042 48.1151 21.248 47.2656 21.3294 46.4142C21.4454 44.6724 21.2895 42.9239 20.8665 41.2255C20.228 38.5553 19.5735 35.7486 18.9351 32.8659C18.5406 31.154 18.2528 29.4214 18.0731 27.6772C17.9773 26.7366 17.9135 25.6291 18.2966 24.567C18.9351 22.7768 20.2918 21.7299 22.335 21.4417C22.6254 21.3988 22.919 21.3785 23.2129 21.381C24.2572 21.3759 25.2775 21.6779 26.134 22.2458C26.4616 22.4654 26.7568 22.7256 27.0119 23.0195C27.5842 23.6695 28.3122 24.1794 29.1349 24.5064H29.1668L29.1987 24.4608C30.8428 21.9423 33.2052 20.4707 36.2221 20.0762C36.6558 20.0207 37.0933 19.9954 37.531 20.0004C39.7462 20.0047 41.8909 20.7412 43.5975 22.0837C45.304 23.4262 46.4662 25.291 46.8848 27.3586C47.4754 30.3323 46.6613 33.0177 44.4585 35.3389L44.4266 35.3693H44.4426L44.8576 36.0217L45.2886 36.7044C45.3206 36.7462 45.3651 36.7779 45.4163 36.7954C46.116 37.0017 46.7121 37.4442 47.0923 38.0395C48.465 40.2242 49.8218 42.4089 51.1946 44.5785L52.6312 46.8846L53.5729 48.3714C53.9573 48.9828 54.0885 49.7083 53.9409 50.4067C53.7934 51.105 53.3777 51.7261 52.7748 52.1491C52.2481 52.4981 51.6255 52.8925 50.8434 52.9532L50.4922 52.9987ZM44.5383 38.2215C44.2751 38.2281 44.0175 38.2958 43.7881 38.4188L43.5168 38.5857L43.3891 38.6463C42.6229 39.0863 42.4154 39.8601 42.8623 40.5732L45.113 44.1537L46.8688 46.9756C47.6669 48.25 48.465 49.5244 49.2791 50.7989C49.3948 51.0051 49.5673 51.1775 49.7782 51.2978C49.9891 51.4181 50.2304 51.4816 50.4763 51.4816C50.742 51.4766 51.0012 51.4032 51.2265 51.2692L51.6894 51.0113C51.8941 50.8906 52.064 50.7234 52.1838 50.5247C52.3036 50.3261 52.3696 50.1023 52.3758 49.8734C52.3651 49.5914 52.271 49.318 52.1044 49.0845L49.2312 44.5026L47.6031 41.9234C46.9806 40.9069 46.3421 39.9056 45.7036 38.8891C45.591 38.6881 45.4232 38.5198 45.218 38.4023C45.0128 38.2847 44.7779 38.2223 44.5383 38.2215ZM30.0926 37.8423C30.4475 37.8402 30.7962 37.9311 31.1003 38.1051C31.4044 38.2791 31.6522 38.5293 31.8165 38.8284C31.9427 39.0701 32.0546 39.3183 32.1517 39.5718C32.5987 40.6794 32.6944 41.8627 32.7742 42.9096C32.863 44.3632 33.1638 45.798 33.6681 47.1728C33.8237 47.668 34.0844 48.1276 34.4343 48.5231C34.5352 48.6362 34.6596 48.7282 34.7997 48.7935C34.9398 48.8588 35.0925 48.8958 35.2484 48.9024C35.4036 48.9006 35.5565 48.8671 35.697 48.8043C35.8374 48.7415 35.962 48.6508 36.0624 48.5383C36.2257 48.3781 36.3525 48.1876 36.4349 47.9788C36.5173 47.77 36.5535 47.5473 36.5413 47.3245C36.5732 46.2625 36.6371 45.0184 36.9723 43.8351C37.3075 42.6517 37.5788 41.7869 37.8981 40.7856C37.9939 40.4973 38.0737 40.209 38.1694 39.9056L38.6164 38.5553C38.6643 38.4339 38.6962 38.3126 38.7441 38.1912C38.3095 38.2382 37.8726 38.2636 37.4352 38.2671C34.3705 38.2671 31.8484 37.114 29.9489 34.8686C27.7302 32.2591 27.2194 29.2399 28.4325 25.9022C27.3529 25.4605 26.4044 24.7726 25.6711 23.8995C25.5365 23.7441 25.3809 23.6063 25.2082 23.4899C24.6074 23.1111 23.9019 22.9104 23.181 22.9133C22.9348 22.9115 22.6889 22.9319 22.4467 22.974C21.0421 23.2016 20.1322 23.9602 19.7491 25.2498C19.5257 26.0084 19.5735 26.7821 19.6693 27.6469C19.8567 29.34 20.1445 31.0216 20.5313 32.6839C20.9622 34.641 21.4251 36.6133 21.8721 38.5401L22.4467 41.0283C22.75 42.3179 22.9416 43.4103 22.9575 44.5481C22.9575 44.9729 22.9416 45.4129 22.9416 45.8377C22.9416 46.2625 22.9256 46.3991 22.9256 46.6722C22.9073 46.9189 22.9465 47.1665 23.0403 47.3972C23.1341 47.628 23.2802 47.8363 23.4683 48.0073C23.558 48.1 23.6664 48.1746 23.7871 48.2267C23.9077 48.2788 24.0382 48.3074 24.1706 48.3107C24.4013 48.3001 24.6211 48.2144 24.7932 48.068C25.0502 47.8437 25.2755 47.5887 25.4636 47.3094C25.9663 46.5078 26.3377 45.6381 26.565 44.7302C26.7565 43.9716 26.9161 43.1827 27.0758 42.4089C27.1396 42.1207 27.1875 41.8476 27.2513 41.5593C27.4477 40.5091 27.8776 39.5108 28.5123 38.6312C28.6866 38.3857 28.9221 38.1852 29.1979 38.0475C29.4737 37.9098 29.7811 37.8393 30.0926 37.8423ZM42.1121 37.5843L43.437 36.8258L43.2295 36.492L41.9046 37.2354L42.1121 37.5843ZM37.4512 21.5327C35.3229 21.5447 33.2856 22.3546 31.7821 23.7865C30.2787 25.2183 29.4306 27.1563 29.4222 29.1792C29.4222 31.1804 30.2575 33.0999 31.7448 34.5164C33.2321 35.9329 35.2499 36.7307 37.3554 36.7347H37.3873C39.5083 36.7468 41.5474 35.9575 43.0561 34.5406C44.5648 33.1237 45.4195 31.1951 45.4322 29.1792C45.4449 27.1633 44.6146 25.2252 43.1238 23.7912C41.6331 22.3572 39.604 21.5448 37.4831 21.5327H37.4512Z" fill="#161616"/>
<path d="M40.4359 37.6439C40.3401 37.917 40.2443 38.1901 40.1645 38.4632C39.6378 40.0714 39.095 41.6948 38.5843 43.3181C38.1373 44.6684 38.0096 46.049 37.9777 47.4448C37.9631 48.1209 37.7101 48.7726 37.2594 49.2958C36.3017 50.4336 34.4501 50.7371 33.2369 49.2806C32.6942 48.6282 32.375 47.8696 32.1196 47.0807C31.6919 45.7437 31.4294 44.3639 31.3374 42.9692C31.2576 42.0285 31.1938 41.0727 30.8586 40.1624C30.7794 39.9387 30.6833 39.7207 30.5713 39.51C30.3797 39.1156 29.9168 39.0852 29.6455 39.4494C29.1369 40.1946 28.7946 41.0311 28.6398 41.9072C28.4164 42.9692 28.2089 44.0312 27.9375 45.078C27.6882 46.0915 27.2792 47.0634 26.7244 47.9607C26.4995 48.3131 26.2316 48.639 25.9263 48.9316C24.793 50.0088 23.1489 49.8875 22.1752 48.6889C21.6513 48.0462 21.4058 47.2375 21.4888 46.4283C21.6142 44.6663 21.4581 42.8965 21.0259 41.1789C20.3555 38.3975 19.7117 35.616 19.0945 32.8345C18.7114 31.1256 18.4237 29.3987 18.2325 27.661C18.1367 26.6445 18.0889 25.6128 18.456 24.6266C19.0945 22.8516 20.4193 21.8806 22.3348 21.6075C23.6596 21.4254 24.9047 21.653 26.0061 22.3812C26.3212 22.5926 26.6057 22.8426 26.8521 23.1246C27.4399 23.8026 28.1973 24.3294 29.0549 24.657C29.1826 24.7177 29.2624 24.7025 29.3422 24.566C30.9384 22.1385 33.2369 20.6517 36.2219 20.2724C38.5973 19.9517 41.0113 20.514 42.9617 21.8422C44.912 23.1703 46.2485 25.1621 46.693 27.4031C47.2836 30.3767 46.4376 32.9862 44.3147 35.2316C44.2349 35.3227 44.2029 35.3834 44.2668 35.4896L45.1128 36.8247C45.1723 36.8963 45.2489 36.9535 45.3363 36.9915C46.0004 37.1753 46.5657 37.5932 46.9165 38.1598C48.6883 40.9665 50.4441 43.7885 52.2 46.5952L53.3971 48.4917C53.7596 49.0634 53.8836 49.7434 53.7447 50.3977C53.6058 51.052 53.2142 51.6332 52.6469 52.0267C52.1042 52.406 51.5296 52.7549 50.8113 52.8156C49.6301 52.9066 48.7043 52.497 48.0658 51.5412C47.4273 50.5854 47.1081 50.0088 46.6292 49.2503L41.633 41.2548C41.4299 40.946 41.2954 40.6009 41.2377 40.2409C41.1801 39.8808 41.2005 39.5134 41.2978 39.1611C41.3166 39.0804 41.3111 38.9962 41.2819 38.9183C41.0424 38.5087 40.7711 38.0991 40.5157 37.6894C40.4997 37.6743 40.4997 37.6439 40.4838 37.6136L40.4359 37.6439ZM38.9993 37.9929C35.4078 38.4025 32.359 37.4467 30.0924 34.7613C27.8258 32.0759 27.4427 29.0416 28.6558 25.81L28.576 25.7797C27.4947 25.3478 26.5451 24.6644 25.8145 23.7922C25.668 23.6224 25.4959 23.4742 25.3037 23.3522C24.8871 23.0838 24.4189 22.8961 23.9259 22.7998C23.4329 22.7035 22.9248 22.7005 22.4306 22.7909C20.962 23.0336 19.9724 23.8225 19.5733 25.2032C19.3339 26.0224 19.3978 26.8417 19.4935 27.661C19.6757 29.3647 19.9635 31.0568 20.3555 32.7283C20.978 35.5047 21.6325 38.2811 22.2709 41.0576C22.5263 42.2106 22.7658 43.3636 22.7658 44.547C22.7817 45.2449 22.7498 45.958 22.7338 46.6711C22.722 46.9407 22.7699 47.2096 22.8744 47.4605C22.9789 47.7114 23.1376 47.9387 23.3404 48.1276C23.8033 48.5675 24.4099 48.5979 24.9047 48.1882C25.1766 47.9579 25.413 47.6923 25.607 47.3993C26.1252 46.5853 26.5075 45.6999 26.7403 44.7746C27.0117 43.7278 27.2032 42.6506 27.4267 41.5886C27.629 40.5638 28.047 39.5885 28.6558 38.7211C28.8309 38.4886 29.0654 38.3023 29.3372 38.1798C29.609 38.0572 29.9092 38.0025 30.2094 38.0207C30.5096 38.0389 30.8 38.1295 31.0532 38.2839C31.3064 38.4383 31.5141 38.6514 31.6567 38.9032C31.7684 39.1459 31.8802 39.3887 31.9759 39.6314C32.4069 40.6934 32.5027 41.801 32.5985 42.9237C32.6877 44.392 32.9885 45.8418 33.4923 47.2324C33.6839 47.7331 33.9073 48.2338 34.2904 48.6282C34.6735 49.0227 35.6313 49.2199 36.2059 48.6586C36.5495 48.297 36.7375 47.8258 36.7326 47.3386C36.7646 46.1704 36.8284 45.0022 37.1477 43.8795C37.4669 42.7568 37.9458 41.27 38.3448 39.9652C38.5523 39.3128 38.7758 38.6604 38.9993 37.9929ZM52.5511 49.8875C52.5538 49.5682 52.4536 49.2558 52.2638 48.9923C51.0347 47.0352 49.8057 45.0932 48.5925 43.1361L45.863 38.797C45.4001 38.0536 44.4903 37.8412 43.6921 38.266L43.2931 38.4935C42.4471 38.979 42.2077 39.859 42.7025 40.6631L45.847 45.6697L49.1193 50.8888C49.2213 51.0669 49.3609 51.2231 49.5295 51.3475C49.698 51.4719 49.8918 51.5619 50.0986 51.6118C50.3054 51.6616 50.5209 51.6703 50.7314 51.6373C50.942 51.6042 51.1431 51.5302 51.3221 51.4198C51.482 51.3377 51.6366 51.2465 51.785 51.1467C52.0187 51.0203 52.2128 50.837 52.3475 50.6157C52.4821 50.3944 52.5524 50.1431 52.5511 49.8875ZM29.2464 29.1781C29.2464 31.221 30.098 33.1806 31.6148 34.628C33.1316 36.0753 35.1899 36.8925 37.3392 36.9005C41.8725 36.9309 45.6076 33.4414 45.6236 29.163C45.632 28.1418 45.4277 27.1291 45.0223 26.1833C44.617 25.2375 44.0187 24.3774 43.2619 23.6524C42.5051 22.9275 41.6049 22.3521 40.613 21.9595C39.6211 21.5668 38.5573 21.3647 37.4829 21.3647C32.9656 21.3344 29.2624 24.8542 29.2464 29.1781ZM43.2931 36.2481L41.649 37.1888C41.7927 37.4012 41.9204 37.6136 42.064 37.8108L43.6921 36.8853C43.5485 36.6729 43.4208 36.4757 43.2931 36.2481Z" fill="#161616"/>
<path d="M37.4023 36.174C33.3479 36.174 30.0277 33.079 30.0118 29.2709C29.9958 25.4628 33.2681 22.125 37.4501 22.0947C41.6322 22.0644 44.8087 25.2049 44.8406 29.0585C44.8469 29.9882 44.6602 30.91 44.2912 31.771C43.9222 32.6321 43.3782 33.4155 42.6902 34.0765C42.0023 34.7374 41.1839 35.2629 40.282 35.6228C39.3801 35.9827 38.4123 36.17 37.4342 36.174H37.4023ZM37.4501 23.6422C35.909 23.6462 34.4319 24.2288 33.3407 25.2632C32.2494 26.2976 31.6324 27.6999 31.624 29.1647C31.624 30.6173 32.2311 32.0104 33.3117 33.0375C34.3924 34.0646 35.858 34.6417 37.3863 34.6417C38.9302 34.6417 40.4114 34.0608 41.5061 33.026C42.6008 31.9912 43.22 30.5866 43.2284 29.1192C43.2242 27.6652 42.6136 26.2722 41.5304 25.2455C40.4472 24.2188 38.9799 23.6422 37.4501 23.6422Z" fill="#161616"/>
<path d="M37.4525 22.2761C41.6027 22.3216 44.6355 25.4318 44.6674 29.0579C44.6717 30.8889 43.9138 32.6472 42.5591 33.949C41.2044 35.2508 39.3629 35.9905 37.4366 36.0065C33.478 36.0217 30.2217 32.9873 30.2057 29.2551C30.193 28.3429 30.3711 27.4374 30.7296 26.5912C31.0881 25.745 31.6199 24.9749 32.2941 24.3256C32.9683 23.6764 33.7715 23.1608 34.657 22.809C35.5425 22.4572 36.4927 22.276 37.4525 22.2761ZM37.4525 23.4595C35.8621 23.4635 34.3379 24.0658 33.2133 25.1348C32.0887 26.2037 31.455 27.6524 31.4508 29.1641C31.4539 30.288 31.8073 31.3859 32.4662 32.3192C33.1251 33.2525 34.0602 33.9793 35.1533 34.4081C36.2464 34.8368 37.4486 34.9482 38.6082 34.7282C39.7679 34.5082 40.833 33.9666 41.6691 33.1719C42.5053 32.3771 43.0751 31.3647 43.3066 30.2625C43.538 29.1603 43.4208 28.0176 42.9698 26.9787C42.5187 25.9397 41.754 25.051 40.772 24.4247C39.7901 23.7984 38.635 23.4625 37.4525 23.4595Z" fill="#161616"/>
</g>
<defs>
<filter id="filter0_d_32_10098" x="0" y="0.5" width="76" height="76" filterUnits="userSpaceOnUse" color-interpolation-filters="sRGB">
<feFlood flood-opacity="0" result="BackgroundImageFix"/>
<feColorMatrix in="SourceAlpha" type="matrix" values="0 0 0 0 0 0 0 0 0 0 0 0 0 0 0 0 0 0 127 0" result="hardAlpha"/>
<feOffset dx="2" dy="2"/>
<feGaussianBlur stdDeviation="4"/>
<feComposite in2="hardAlpha" operator="out"/>
<feColorMatrix type="matrix" values="0 0 0 0 0 0 0 0 0 0 0 0 0 0 0 0 0 0 0.04 0"/>
<feBlend mode="normal" in2="BackgroundImageFix" result="effect1_dropShadow_32_10098"/>
<feBlend mode="normal" in="SourceGraphic" in2="effect1_dropShadow_32_10098" result="shape"/>
</filter>
</defs>
</svg>
