<svg width="24" height="24" viewBox="0 0 24 24" fill="none" xmlns="http://www.w3.org/2000/svg">
<path d="M12.9272 3.05933C11.9436 3.06209 11.001 3.46722 10.3046 4.18646C9.60814 4.9057 9.21436 5.88078 9.20898 6.89933C9.20898 7.90936 9.59643 8.87803 10.2861 9.59224C10.9757 10.3064 11.9111 10.7077 12.8864 10.7077C13.8709 10.7049 14.8146 10.3001 15.5126 9.5812C16.2107 8.86226 16.6067 7.88718 16.6148 6.86768C16.6121 5.85667 16.2224 4.88803 15.5311 4.17412C14.8398 3.46022 13.9034 3.05932 12.9272 3.05933Z" fill="white"/>
<path d="M18.022 6.90994C18.0274 5.50903 17.4966 4.16297 16.5458 3.16645C15.5951 2.16994 14.3017 1.60417 12.949 1.59302H12.9286C11.5704 1.60135 10.2702 2.16453 9.31075 3.16014C8.35127 4.15576 7.81003 5.50333 7.80469 6.90994C7.80468 8.30146 8.33776 9.63615 9.28693 10.6211C10.2361 11.606 11.5238 12.1608 12.8675 12.1636H12.8879C13.5581 12.1677 14.2225 12.0352 14.8433 11.7734C15.464 11.5116 16.0289 11.1258 16.5056 10.638C16.9824 10.1501 17.3617 9.56979 17.6218 8.93013C17.882 8.29048 18.018 7.60402 18.022 6.90994ZM12.9286 11.7732H12.8981C10.3106 11.7732 8.19178 9.62115 8.1816 6.97324C8.17141 4.32533 10.2597 2.00445 12.9286 1.98335C15.5976 1.96225 17.6247 4.14598 17.6451 6.82554C17.6505 8.12853 17.1573 9.38068 16.2734 10.308C15.3894 11.2352 14.1868 11.7621 12.9286 11.7732Z" fill="white"/>
<path d="M8.1407 10.8659C6.72474 9.05143 6.39876 6.95209 7.17295 4.63121C6.48063 4.32996 5.87404 3.85065 5.41064 3.23869C5.31979 3.1356 5.22099 3.04035 5.11523 2.95385C4.5934 2.60607 3.96303 2.47777 3.35292 2.59517C2.45649 2.75341 1.87584 3.28088 1.63136 4.17759C1.48874 4.70506 1.5193 5.24308 1.58042 5.8444C1.69252 7.02269 1.87625 8.19248 2.13051 9.34682C2.40555 10.7077 2.70097 12.0791 2.9862 13.4189L3.35292 15.149C3.54647 16.0457 3.66871 16.8053 3.6789 17.5965C3.6789 17.8919 3.66871 18.1978 3.66871 18.4932C3.66871 18.7886 3.65852 18.8835 3.65852 19.0734C3.64467 19.2452 3.66865 19.418 3.72864 19.5788C3.78864 19.7396 3.88308 19.8842 4.00487 20.0018C4.06176 20.0667 4.13087 20.1189 4.20794 20.1552C4.28502 20.1915 4.36844 20.2111 4.45309 20.2128C4.60012 20.2046 4.74015 20.1451 4.85037 20.044C5.01197 19.8856 5.15552 19.7087 5.27822 19.5165C5.59371 18.9564 5.83039 18.3525 5.9811 17.7231C6.10334 17.1956 6.20521 16.647 6.30708 16.109C6.34783 15.9086 6.37839 15.7187 6.41913 15.5182C6.54259 14.7874 6.81711 14.0929 7.22389 13.4822C7.33507 13.3115 7.4854 13.1721 7.6614 13.0763C7.8374 12.9806 8.03358 12.9316 8.23238 12.9336C8.45866 12.9334 8.68072 12.9971 8.8746 13.1179C9.06848 13.2388 9.22682 13.4122 9.33255 13.6193L9.54647 14.1363C9.8317 14.9064 9.89282 15.7292 9.94375 16.4571C9.9958 17.4685 10.1879 18.4668 10.5142 19.4215C10.6092 19.7677 10.7761 20.0881 11.0032 20.3604C11.0672 20.4396 11.1465 20.5039 11.2359 20.5493C11.3254 20.5948 11.4231 20.6203 11.5227 20.6242C11.6216 20.6222 11.719 20.5987 11.8086 20.555C11.8981 20.5114 11.9777 20.4487 12.0422 20.371C12.1445 20.2582 12.2241 20.1255 12.2766 19.9807C12.329 19.8358 12.3532 19.6816 12.3478 19.527C12.3682 18.7886 12.4089 17.9235 12.6229 17.1007C12.8368 16.2778 13.01 15.6765 13.2137 14.9802C13.2748 14.7798 13.3258 14.5793 13.3869 14.3684L13.6721 13.4295C13.7027 13.3451 13.723 13.2607 13.7536 13.1763C13.4763 13.2093 13.1974 13.2269 12.9183 13.229C10.9624 13.229 9.35292 12.4273 8.1407 10.8659Z" fill="white"/>
<path d="M20.4456 17.5647L19.4065 15.7713C19.0092 15.0645 18.6018 14.3683 18.1943 13.6614C18.1216 13.5224 18.0143 13.406 17.8835 13.3244C17.7528 13.2428 17.6033 13.1989 17.4507 13.1973C17.2823 13.1991 17.1172 13.2463 16.9719 13.3344L16.7987 13.4505L16.7172 13.4927C16.2282 13.7986 16.0958 14.3366 16.381 14.8324L17.8174 17.3221L18.9379 19.2843C19.4473 20.1705 19.9566 21.0566 20.4761 21.9428C20.5482 22.0877 20.6579 22.2089 20.7928 22.2928C20.9278 22.3767 21.0827 22.4199 21.2401 22.4175C21.4097 22.414 21.5752 22.363 21.7189 22.2698L22.0143 22.0905C22.145 22.0065 22.2534 21.8903 22.3299 21.7522C22.4063 21.614 22.4484 21.4584 22.4524 21.2992C22.4429 21.1037 22.3831 20.9142 22.2792 20.7507L20.4456 17.5647Z" fill="white"/>
<path d="M23.6442 19.9807L23.0534 18.9468L22.1264 17.3433L20.5169 14.5477L19.5084 12.7965C19.2323 12.3143 18.8042 11.9455 18.2962 11.7521L18.0822 11.3934L18.0109 11.2668C19.3454 9.58945 19.8344 7.66945 19.4473 5.54901C19.1533 3.99295 18.3485 2.59016 17.1695 1.57871C15.9904 0.567265 14.5097 0.00947144 12.9787 0L12.9074 0C12.6278 9.98022e-05 12.3486 0.0212545 12.0721 0.0632967C10.1264 0.337582 8.56781 1.31868 7.45746 2.98549C7.152 2.80387 6.87963 2.56821 6.6527 2.28923C6.46245 2.04645 6.23945 1.83327 5.99057 1.65626C5.36338 1.20234 4.61652 0.959258 3.85135 0.96H3.8106C3.60568 0.956594 3.40094 0.974263 3.19939 1.01275C1.71213 1.23429 0.683265 2.10989 0.214675 3.53407C-0.0501811 4.33582 -0.0196209 5.15868 0.0516864 5.91824C0.16713 7.14903 0.354227 8.37147 0.611958 9.5789C0.968494 11.3723 1.37596 13.2818 1.84456 15.4127C2.10183 16.5385 2.19794 17.6972 2.12978 18.8519C2.06651 19.5708 2.26246 20.2886 2.67987 20.8668C2.88551 21.1516 3.15107 21.3842 3.45642 21.5468C3.76177 21.7095 4.09888 21.798 4.44218 21.8057H4.45237C4.74599 21.8012 5.03583 21.7364 5.30511 21.615C5.57439 21.4937 5.81775 21.3183 6.02113 21.0989C6.25746 20.8628 6.45986 20.5928 6.62214 20.2971C7.01519 19.6197 7.30389 18.8829 7.47783 18.1134C7.60007 17.5965 7.71213 17.0374 7.82418 16.436C7.83437 16.3516 7.85474 16.2673 7.87512 16.1723C7.88716 16.0765 7.90416 15.9814 7.92605 15.8875C7.9771 15.5713 8.06607 15.263 8.1909 14.9697C8.32333 15.4127 8.36408 15.898 8.40483 16.4255V16.5521C8.46118 17.5722 8.6356 18.5816 8.92435 19.5587C9.08734 20.1073 9.31145 20.7402 9.73929 21.2888C9.94119 21.5751 10.2045 21.809 10.5086 21.9719C10.8127 22.1348 11.1491 22.2224 11.4914 22.2277H11.5016C11.8445 22.2251 12.1825 22.1433 12.4909 21.9882C12.7993 21.833 13.0704 21.6085 13.2843 21.331C13.6622 20.8503 13.8738 20.2523 13.8853 19.6325C13.9057 18.8624 14.0075 17.7547 14.2418 16.9319C14.4252 16.3095 14.6187 15.687 14.8021 15.0752C14.8617 15.2761 14.9474 15.4678 15.0568 15.6448L17.3488 19.6536L18.235 21.1938L18.5203 21.7002L18.9481 22.4387L19.1519 22.7974C19.3629 23.1655 19.6625 23.4707 20.0213 23.6833C20.3801 23.8959 20.786 24.0086 21.1994 24.0105H21.2911L21.5254 23.9789C22.1773 23.9156 22.6663 23.5569 22.9923 23.3248H23.0024C23.4982 22.955 23.8401 22.4042 23.9592 21.7836C24.0783 21.163 23.9657 20.5187 23.6442 19.9807ZM22.707 22.8818C22.3709 23.1244 21.9736 23.3987 21.4744 23.4409L21.2503 23.4725C20.9182 23.483 20.5895 23.4002 20.299 23.2331C20.0085 23.066 19.767 22.8207 19.6001 22.5231L18.9583 21.4154L18.6833 20.9196L17.7868 19.3688L15.4948 15.3705C15.3559 15.1422 15.2643 14.8864 15.2258 14.6195C15.1872 14.3526 15.2025 14.0803 15.2707 13.8198V13.7459C15.1586 13.5349 15.0364 13.324 14.9142 13.1235L14.8734 13.0497C14.8429 13.1657 14.8021 13.2818 14.7716 13.3978L14.5474 14.1468C14.2826 15.0224 14.0177 15.898 13.7631 16.7736C13.5084 17.6492 13.3963 18.8202 13.376 19.6114C13.368 20.111 13.1996 20.5935 12.8972 20.9829C12.7287 21.1993 12.5164 21.3748 12.2752 21.4969C12.0341 21.619 11.77 21.6848 11.5016 21.6897C11.2366 21.686 10.9762 21.6183 10.7409 21.4919C10.5057 21.3655 10.3022 21.184 10.1468 20.9618C9.78004 20.487 9.5763 19.9279 9.41332 19.3899C9.13544 18.4542 8.96784 17.4872 8.91416 16.5099V16.3938C8.87342 15.7925 8.82248 15.1701 8.61875 14.5899C8.56781 14.4422 8.51688 14.3051 8.44557 14.1468C8.42755 14.1076 8.40045 14.0736 8.36669 14.0478C8.33292 14.0221 8.29354 14.0053 8.25202 13.9991C8.2115 13.9991 8.17179 14.0109 8.13752 14.0334C8.10326 14.0558 8.07585 14.0878 8.05848 14.1257C7.7393 14.6265 7.52422 15.1905 7.4269 15.782C7.39634 15.9719 7.35559 16.1512 7.32503 16.3411C7.22316 16.8897 7.11111 17.4488 6.98887 17.9974C6.81928 18.7135 6.54808 19.3997 6.18411 20.0334C6.03735 20.2854 5.86302 20.519 5.66459 20.7297C5.50924 20.9018 5.32159 21.0392 5.11314 21.1335C4.9047 21.2278 4.67984 21.2771 4.45237 21.2782C4.1874 21.2746 3.92692 21.2069 3.69169 21.0805C3.45647 20.9541 3.25301 20.7726 3.09753 20.5503C2.74705 20.0786 2.58315 19.4864 2.63912 18.8941C2.70938 17.683 2.60987 16.4677 2.34371 15.2862C1.93624 13.4295 1.51858 11.4778 1.11111 9.47341C0.856789 8.28353 0.673083 7.07863 0.561024 5.86549C0.499904 5.21143 0.459157 4.44132 0.703639 3.70286C1.11111 2.45802 1.97698 1.73011 3.28089 1.52967C3.46619 1.49949 3.65359 1.48538 3.84116 1.48747C4.50679 1.48928 5.15644 1.69883 5.70534 2.08879C5.91344 2.24271 6.10172 2.42352 6.26561 2.62681C6.62885 3.08091 7.09404 3.43588 7.62045 3.66066H7.64082L7.66119 3.62901C8.71043 1.8778 10.2181 0.854505 12.1434 0.58022C12.4202 0.541329 12.6994 0.523699 12.9787 0.527473C14.3919 0.532488 15.7596 1.04534 16.8483 1.97848C17.937 2.91162 18.6792 4.20718 18.9481 5.64396C19.325 7.71165 18.8055 9.5789 17.3997 11.193L17.3794 11.2141H17.3895L17.6544 11.6677L17.9294 12.1424C17.9378 12.1584 17.9495 12.1724 17.9635 12.1833C17.9776 12.1942 17.9938 12.2019 18.0109 12.2057C18.4549 12.3543 18.8338 12.6607 19.0805 13.0708C19.9566 14.5899 20.8225 16.109 21.6985 17.6176L22.6154 19.2211L23.2164 20.2549C23.4594 20.6807 23.5418 21.1845 23.4478 21.6694C23.3537 22.1543 23.0899 22.5861 22.707 22.8818Z" fill="white"/>
<path d="M16.615 11.9946L15.7695 12.5116L15.902 12.7542L16.7475 12.2267L16.615 11.9946Z" fill="white"/>
</svg>
