<svg width="38" height="38" viewBox="0 0 38 38" fill="none" xmlns="http://www.w3.org/2000/svg">
<rect x="-0.40625" y="0.40625" width="37.1875" height="37.1875" rx="18.5938" transform="matrix(-1 0 0 1 37.1875 0)" stroke="#5C5C5C" stroke-width="0.8125"/>
<g clip-path="url(#clip0_26_22626)">
<g clip-path="url(#clip1_26_22626)">
<path d="M19.6952 12.2944C18.9576 12.2965 18.2506 12.6004 17.7283 13.1398C17.206 13.6792 16.9106 14.4105 16.9066 15.1744C16.9066 15.932 17.1972 16.6585 17.7144 17.1941C18.2317 17.7298 18.9332 18.0307 19.6647 18.0307C20.403 18.0286 21.1108 17.7251 21.6344 17.1858C22.1579 16.6466 22.4549 15.9153 22.4609 15.1507C22.4589 14.3924 22.1666 13.666 21.6482 13.1305C21.1297 12.5951 20.4274 12.2944 19.6952 12.2944Z" fill="#A2A2A2"/>
<path d="M23.5152 15.1825C23.5193 14.1318 23.1212 13.1223 22.4081 12.3749C21.695 11.6275 20.725 11.2032 19.7105 11.1948H19.6952C18.6765 11.2011 17.7014 11.6235 16.9818 12.3702C16.2622 13.1169 15.8562 14.1276 15.8522 15.1825C15.8522 16.2262 16.252 17.2272 16.9639 17.9659C17.6758 18.7046 18.6416 19.1206 19.6493 19.1227H19.6646C20.1673 19.1259 20.6656 19.0264 21.1312 18.8301C21.5967 18.6338 22.0204 18.3444 22.3779 17.9785C22.7355 17.6126 23.02 17.1774 23.2151 16.6977C23.4102 16.2179 23.5122 15.7031 23.5152 15.1825ZM19.6952 18.83H19.6723C17.7317 18.83 16.1426 17.2159 16.1349 15.23C16.1273 13.2441 17.6935 11.5034 19.6952 11.4876C21.6969 11.4717 23.2173 13.1095 23.2325 15.1192C23.2366 16.0965 22.8667 17.0356 22.2037 17.731C21.5408 18.4265 20.6388 18.8216 19.6952 18.83Z" fill="#A2A2A2"/>
<path d="M16.1044 18.1495C15.0424 16.7886 14.7979 15.2141 15.3786 13.4734C14.8593 13.2475 14.4044 12.888 14.0568 12.429C13.9887 12.3517 13.9146 12.2803 13.8353 12.2154C13.4439 11.9546 12.9711 11.8583 12.5135 11.9464C11.8412 12.0651 11.4057 12.4607 11.2224 13.1332C11.1154 13.5288 11.1383 13.9323 11.1842 14.3833C11.2682 15.267 11.406 16.1444 11.5967 17.0101C11.803 18.0308 12.0246 19.0593 12.2385 20.0642L12.5135 21.3618C12.6587 22.0343 12.7504 22.604 12.758 23.1974C12.758 23.4189 12.7504 23.6484 12.7504 23.8699C12.7504 24.0914 12.7427 24.1626 12.7427 24.3051C12.7323 24.4339 12.7503 24.5635 12.7953 24.6841C12.8403 24.8047 12.9112 24.9132 13.0025 25.0013C13.0452 25.05 13.097 25.0892 13.1548 25.1164C13.2126 25.1436 13.2752 25.1583 13.3387 25.1596C13.4489 25.1534 13.554 25.1088 13.6366 25.033C13.7578 24.9142 13.8655 24.7815 13.9575 24.6374C14.1941 24.2173 14.3716 23.7644 14.4847 23.2923C14.5763 22.8967 14.6527 22.4853 14.7292 22.0818C14.7597 21.9314 14.7826 21.789 14.8132 21.6387C14.9058 21.0906 15.1117 20.5697 15.4168 20.1117C15.5001 19.9836 15.6129 19.8791 15.7449 19.8073C15.8769 19.7355 16.024 19.6987 16.1731 19.7002C16.3428 19.7 16.5094 19.7478 16.6548 19.8385C16.8002 19.9291 16.919 20.0591 16.9983 20.2145L17.1587 20.6022C17.3726 21.1798 17.4185 21.7969 17.4567 22.3429C17.4957 23.1014 17.6398 23.8501 17.8845 24.5662C17.9557 24.8258 18.0809 25.0661 18.2512 25.2703C18.2992 25.3297 18.3587 25.3779 18.4258 25.412C18.4929 25.4461 18.5662 25.4652 18.6409 25.4681C18.7151 25.4667 18.7881 25.449 18.8553 25.4163C18.9224 25.3835 18.9821 25.3365 19.0305 25.2782C19.1072 25.1937 19.1669 25.0942 19.2063 24.9855C19.2456 24.8769 19.2638 24.7612 19.2597 24.6453C19.275 24.0914 19.3056 23.4426 19.466 22.8255C19.6264 22.2084 19.7563 21.7574 19.9091 21.2352C19.955 21.0848 19.9932 20.9345 20.039 20.7763L20.2529 20.0721C20.2758 20.0088 20.2911 19.9455 20.314 19.8822C20.106 19.907 19.8969 19.9202 19.6876 19.9218C18.2207 19.9218 17.0135 19.3204 16.1044 18.1495Z" fill="#A2A2A2"/>
<path d="M25.3336 23.1736L24.5543 21.8285C24.2563 21.2984 23.9507 20.7762 23.6451 20.2461C23.5906 20.1418 23.5101 20.0545 23.412 19.9933C23.314 19.9321 23.2019 19.8992 23.0874 19.8979C22.9611 19.8993 22.8373 19.9347 22.7283 20.0008L22.5984 20.0878L22.5373 20.1195C22.1706 20.3489 22.0713 20.7525 22.2852 21.1243L23.3624 22.9916L24.2028 24.4632C24.5848 25.1278 24.9668 25.7925 25.3565 26.4571C25.4105 26.5658 25.4928 26.6567 25.594 26.7196C25.6953 26.7825 25.8114 26.8149 25.9295 26.8131C26.0567 26.8105 26.1808 26.7722 26.2886 26.7023L26.5101 26.5678C26.6081 26.5049 26.6894 26.4177 26.7468 26.3141C26.8041 26.2105 26.8357 26.0938 26.8387 25.9744C26.8316 25.8277 26.7867 25.6857 26.7088 25.563L25.3336 23.1736Z" fill="#A2A2A2"/>
<path d="M27.7324 24.9855L27.2892 24.2101L26.594 23.0075L25.3869 20.9108L24.6305 19.5974C24.4235 19.2357 24.1024 18.9591 23.7213 18.8141L23.5609 18.5451L23.5074 18.4501C24.5083 17.1921 24.875 15.7521 24.5847 14.1618C24.3642 12.9947 23.7606 11.9426 22.8763 11.184C21.992 10.4254 20.8815 10.0071 19.7332 10H19.6797C19.4701 10.0001 19.2607 10.0159 19.0533 10.0475C17.594 10.2532 16.4251 10.989 15.5923 12.2391C15.3632 12.1029 15.1589 11.9262 14.9887 11.7169C14.846 11.5348 14.6788 11.375 14.4921 11.2422C14.0217 10.9018 13.4616 10.7194 12.8877 10.72H12.8572C12.7035 10.7174 12.5499 10.7307 12.3988 10.7596C11.2833 10.9257 10.5117 11.5824 10.1602 12.6505C9.96157 13.2519 9.98449 13.869 10.038 14.4387C10.1246 15.3618 10.2649 16.2786 10.4582 17.1842C10.7256 18.5292 11.0312 19.9613 11.3826 21.5596C11.5756 22.4038 11.6477 23.2729 11.5965 24.1389C11.5491 24.6781 11.6961 25.2164 12.0091 25.6501C12.1633 25.8637 12.3625 26.0381 12.5915 26.1601C12.8205 26.2821 13.0734 26.3485 13.3308 26.3543H13.3385C13.5587 26.3509 13.7761 26.3023 13.978 26.2113C14.18 26.1203 14.3625 25.9887 14.5151 25.8242C14.6923 25.6471 14.8441 25.4446 14.9658 25.2229C15.2606 24.7148 15.4771 24.1622 15.6076 23.5851C15.6993 23.1974 15.7833 22.778 15.8673 22.327C15.875 22.2637 15.8903 22.2004 15.9055 22.1292C15.9146 22.0574 15.9273 21.9861 15.9437 21.9156C15.982 21.6785 16.0488 21.4472 16.1424 21.2273C16.2417 21.5596 16.2723 21.9235 16.3028 22.3191V22.4141C16.3451 23.1792 16.4759 23.9362 16.6925 24.669C16.8147 25.0804 16.9828 25.5552 17.3037 25.9666C17.4551 26.1813 17.6526 26.3567 17.8807 26.4789C18.1087 26.6011 18.361 26.6668 18.6178 26.6708H18.6254C18.8826 26.6689 19.1361 26.6075 19.3674 26.4911C19.5987 26.3748 19.802 26.2064 19.9624 25.9982C20.2459 25.6377 20.4046 25.1892 20.4132 24.7244C20.4285 24.1468 20.5049 23.316 20.6806 22.6989C20.8181 22.2321 20.9633 21.7653 21.1008 21.3064C21.1455 21.4571 21.2097 21.6008 21.2918 21.7336L23.0108 24.7402L23.6755 25.8954L23.8894 26.2752L24.2103 26.829L24.3631 27.098C24.5214 27.3741 24.7461 27.603 25.0152 27.7625C25.2843 27.9219 25.5887 28.0065 25.8988 28.0079H25.9675L26.1432 27.9842C26.6322 27.9367 26.9989 27.6677 27.2434 27.4936H27.251C27.6228 27.2162 27.8793 26.8032 27.9686 26.3377C28.0579 25.8723 27.9735 25.389 27.7324 24.9855ZM27.0295 27.1613C26.7774 27.3433 26.4794 27.549 26.105 27.5807L25.937 27.6044C25.6878 27.6122 25.4413 27.5502 25.2234 27.4248C25.0056 27.2995 24.8245 27.1155 24.6993 26.8923L24.2179 26.0615L24.0117 25.6897L23.3393 24.5266L21.6203 21.5279C21.5162 21.3566 21.4475 21.1648 21.4185 20.9646C21.3896 20.7644 21.4011 20.5602 21.4522 20.3648V20.3095C21.3682 20.1512 21.2765 19.993 21.1848 19.8426L21.1543 19.7873C21.1313 19.8743 21.1008 19.9613 21.0779 20.0484L20.9098 20.6101C20.7111 21.2668 20.5125 21.9235 20.3215 22.5802C20.1305 23.2369 20.0465 24.1152 20.0312 24.7086C20.0252 25.0832 19.8989 25.4452 19.6721 25.7371C19.5457 25.8995 19.3865 26.0311 19.2056 26.1227C19.0248 26.2143 18.8267 26.2636 18.6254 26.2673C18.4267 26.2645 18.2313 26.2137 18.0549 26.1189C17.8785 26.0241 17.7259 25.888 17.6093 25.7213C17.3342 25.3653 17.1814 24.9459 17.0592 24.5424C16.8508 23.8407 16.7251 23.1154 16.6848 22.3824V22.2954C16.6543 21.8444 16.6161 21.3776 16.4633 20.9424C16.4251 20.8316 16.3869 20.7288 16.3334 20.6101C16.3199 20.5807 16.2995 20.5552 16.2742 20.5359C16.2489 20.5165 16.2194 20.504 16.1882 20.4993C16.1578 20.4993 16.128 20.5082 16.1023 20.525C16.0767 20.5418 16.0561 20.5658 16.0431 20.5943C15.8037 20.9698 15.6424 21.3929 15.5694 21.8365C15.5465 21.9789 15.5159 22.1134 15.493 22.2558C15.4166 22.6673 15.3325 23.0866 15.2409 23.498C15.1137 24.0351 14.9103 24.5497 14.6373 25.0251C14.5272 25.214 14.3965 25.3893 14.2476 25.5473C14.1311 25.6763 13.9904 25.7794 13.8341 25.8501C13.6777 25.9209 13.5091 25.9578 13.3385 25.9587C13.1398 25.9559 12.9444 25.9051 12.768 25.8104C12.5916 25.7156 12.439 25.5794 12.3224 25.4127C12.0595 25.059 11.9366 24.6148 11.9785 24.1705C12.0312 23.2622 11.9566 22.3508 11.757 21.4646C11.4514 20.0721 11.1381 18.6084 10.8325 17.1051C10.6418 16.2126 10.504 15.309 10.42 14.3991C10.3741 13.9086 10.3436 13.331 10.5269 12.7771C10.8325 11.8435 11.4819 11.2976 12.4599 11.1473C12.5988 11.1246 12.7394 11.114 12.8801 11.1156C13.3793 11.117 13.8665 11.2741 14.2782 11.5666C14.4343 11.682 14.5755 11.8176 14.6984 11.9701C14.9708 12.3107 15.3197 12.5769 15.7145 12.7455H15.7298L15.7451 12.7218C16.532 11.4084 17.6628 10.6409 19.1067 10.4352C19.3143 10.406 19.5237 10.3928 19.7332 10.3956C20.7931 10.3994 21.8189 10.784 22.6354 11.4839C23.4519 12.1837 24.0086 13.1554 24.2103 14.233C24.493 15.7837 24.1033 17.1842 23.049 18.3947L23.0337 18.4105H23.0414L23.24 18.7508L23.4463 19.1068C23.4526 19.1188 23.4613 19.1293 23.4718 19.1375C23.4824 19.1456 23.4945 19.1514 23.5074 19.1543C23.8404 19.2657 24.1246 19.4955 24.3096 19.8031C24.9667 20.9424 25.6161 22.0818 26.2731 23.2132L26.9607 24.4158L27.4115 25.1912C27.5937 25.5105 27.6556 25.8884 27.585 26.2521C27.5145 26.6158 27.3166 26.9396 27.0295 27.1613Z" fill="#A2A2A2"/>
<path d="M22.4609 18.9961L21.8268 19.3838L21.9261 19.5658L22.5602 19.1702L22.4609 18.9961Z" fill="#A2A2A2"/>
</g>
</g>
<defs>
<clipPath id="clip0_26_22626">
<rect width="18" height="18" fill="white" transform="matrix(-1 0 0 1 28 10)"/>
</clipPath>
<clipPath id="clip1_26_22626">
<rect width="18" height="18" fill="white" transform="translate(10 10)"/>
</clipPath>
</defs>
</svg>
