<svg width="14" height="14" viewBox="0 0 14 14" fill="none" xmlns="http://www.w3.org/2000/svg">
<path d="M7.541 1.78467C6.96727 1.78628 6.4174 2.02261 6.01115 2.44216C5.60491 2.86172 5.3752 3.43052 5.37207 4.02467C5.37207 4.61386 5.59808 5.17891 6.00037 5.59553C6.40267 6.01215 6.9483 6.24621 7.51723 6.24621C8.09151 6.24461 8.64201 6.00848 9.0492 5.5891C9.45639 5.16971 9.68741 4.60092 9.6921 4.00621C9.69053 3.41645 9.4632 2.85141 9.05996 2.43497C8.65672 2.01852 8.11048 1.78467 7.541 1.78467Z" fill="#878687"/>
<path d="M10.5119 4.03074C10.515 3.21354 10.2054 2.42834 9.65077 1.84704C9.09614 1.26574 8.34169 0.935704 7.55261 0.929199H7.54072C6.74842 0.934058 5.98999 1.26258 5.43029 1.84336C4.8706 2.42413 4.55488 3.21022 4.55176 4.03074C4.55176 4.84246 4.86272 5.62103 5.4164 6.19558C5.97008 6.77013 6.72126 7.09372 7.50507 7.09535H7.51695C7.90791 7.09778 8.2955 7.02044 8.6576 6.86775C9.01969 6.71505 9.3492 6.48999 9.6273 6.20541C9.90541 5.92083 10.1267 5.58231 10.2784 5.20918C10.4302 4.83605 10.5095 4.43562 10.5119 4.03074ZM7.54072 6.86766H7.5229C6.01356 6.86766 4.77756 5.61228 4.77162 4.06766C4.76568 2.52305 5.98385 1.1692 7.54072 1.15689C9.0976 1.14458 10.2801 2.41843 10.292 3.98151C10.2952 4.74158 10.0075 5.472 9.49182 6.01291C8.97619 6.55382 8.27465 6.86116 7.54072 6.86766Z" fill="#878687"/>
<path d="M4.74825 6.33838C3.92228 5.27992 3.73212 4.05531 4.18373 2.70146C3.77988 2.52573 3.42603 2.24613 3.15572 1.88915C3.10272 1.82902 3.04509 1.77345 2.9834 1.723C2.67899 1.52013 2.31128 1.44529 1.95538 1.51377C1.43246 1.60608 1.09375 1.91377 0.951137 2.43684C0.867945 2.74454 0.885772 3.05838 0.921426 3.40915C0.986817 4.09649 1.09399 4.77886 1.24231 5.45223C1.40275 6.24608 1.57508 7.04608 1.74146 7.82761L1.95538 8.83684C2.06828 9.35992 2.13959 9.803 2.14553 10.2645C2.14553 10.4368 2.13959 10.6153 2.13959 10.7876C2.13959 10.9599 2.13365 11.0153 2.13365 11.1261C2.12557 11.2263 2.13956 11.3271 2.17455 11.4209C2.20955 11.5147 2.26464 11.5991 2.33569 11.6676C2.36887 11.7055 2.40918 11.7359 2.45414 11.7571C2.49911 11.7783 2.54777 11.7897 2.59715 11.7907C2.68292 11.7859 2.7646 11.7512 2.8289 11.6922C2.92316 11.5999 3.0069 11.4966 3.07847 11.3845C3.26251 11.0578 3.40057 10.7055 3.48849 10.3384C3.5598 10.0307 3.61922 9.71069 3.67864 9.39684C3.70241 9.27992 3.72024 9.16915 3.74401 9.05223C3.81602 8.62593 3.97616 8.22078 4.21345 7.86454C4.2783 7.76498 4.36599 7.68363 4.46866 7.62779C4.57133 7.57194 4.68577 7.54334 4.80173 7.54454C4.93373 7.54439 5.06327 7.58156 5.17636 7.65205C5.28946 7.72254 5.38183 7.82367 5.4435 7.94454L5.56828 8.24608C5.73467 8.69531 5.77032 9.17531 5.80003 9.59992C5.83039 10.1899 5.94246 10.7722 6.1328 11.3292C6.1882 11.5311 6.28555 11.718 6.41803 11.8768C6.45536 11.923 6.50162 11.9605 6.55381 11.987C6.60601 12.0135 6.663 12.0284 6.72109 12.0307C6.77879 12.0295 6.83562 12.0158 6.88784 11.9904C6.94006 11.9649 6.98651 11.9283 7.02414 11.883C7.08379 11.8172 7.13025 11.7398 7.16085 11.6553C7.19145 11.5708 7.20557 11.4809 7.20241 11.3907C7.2143 10.9599 7.23806 10.4553 7.36285 9.97531C7.48764 9.49531 7.58866 9.14454 7.7075 8.73838C7.74316 8.62146 7.77287 8.50454 7.80852 8.38146L7.97491 7.83377C7.99273 7.78454 8.00462 7.73531 8.02244 7.68608C7.86067 7.70534 7.69801 7.71561 7.53518 7.71684C6.39426 7.71684 5.45538 7.24915 4.74825 6.33838Z" fill="#878687"/>
<path d="M11.9264 10.2462L11.3203 9.20002C11.0886 8.78772 10.8509 8.38156 10.6132 7.96926C10.5708 7.88815 10.5082 7.82027 10.4319 7.77266C10.3556 7.72505 10.2684 7.69944 10.1794 7.69849C10.0812 7.69953 9.98489 7.72711 9.9001 7.77849L9.79908 7.84618L9.75154 7.87079C9.46631 8.04926 9.38906 8.3631 9.55545 8.65233L10.3933 10.1046L11.047 11.2493C11.3441 11.7662 11.6412 12.2831 11.9442 12.8C11.9863 12.8846 12.0503 12.9553 12.129 13.0042C12.2077 13.0531 12.2981 13.0783 12.3899 13.0769C12.4888 13.0749 12.5853 13.0452 12.6692 12.9908L12.8415 12.8862C12.9177 12.8372 12.981 12.7694 13.0256 12.6888C13.0702 12.6083 13.0947 12.5175 13.097 12.4246C13.0915 12.3105 13.0567 12.2001 12.996 12.1046L11.9264 10.2462Z" fill="#878687"/>
<path d="M13.7923 11.6554L13.4476 11.0523L12.9069 10.1169L11.968 8.48615L11.3797 7.46462C11.2187 7.18336 10.969 6.9682 10.6726 6.85538L10.5478 6.64615L10.5062 6.57231C11.2847 5.59385 11.5699 4.47385 11.3441 3.23692C11.1726 2.32922 10.7031 1.51093 10.0154 0.920917C9.32756 0.330905 8.46383 0.00552501 7.57073 0L7.52914 0C7.36607 5.82179e-05 7.20321 0.0123985 7.04187 0.0369231C5.9069 0.196923 4.99773 0.769231 4.35002 1.74154C4.17184 1.63559 4.01295 1.49813 3.88058 1.33538C3.7696 1.19376 3.63952 1.06941 3.49433 0.966154C3.12847 0.701367 2.69281 0.559567 2.24646 0.56H2.22269C2.10315 0.558013 1.98372 0.56832 1.86615 0.590769C0.998578 0.72 0.398409 1.23077 0.125064 2.06154C-0.0294351 2.52923 -0.0116083 3.00923 0.0299877 3.45231C0.0973296 4.17027 0.20647 4.88336 0.356813 5.58769C0.564792 6.63385 0.802483 7.74769 1.07583 8.99077C1.22591 9.64743 1.28197 10.3234 1.24221 10.9969C1.2053 11.4163 1.31961 11.835 1.56309 12.1723C1.68305 12.3384 1.83796 12.4741 2.01608 12.569C2.1942 12.6639 2.39085 12.7155 2.59111 12.72H2.59705C2.76833 12.7173 2.9374 12.6795 3.09448 12.6088C3.25156 12.538 3.39353 12.4357 3.51216 12.3077C3.65002 12.17 3.76809 12.0125 3.86275 11.84C4.09203 11.4448 4.26044 11.015 4.36191 10.5662C4.43321 10.2646 4.49858 9.93846 4.56394 9.58769C4.56989 9.53846 4.58177 9.48923 4.59365 9.43385C4.60068 9.37795 4.6106 9.32249 4.62337 9.26769C4.65315 9.08327 4.70505 8.90341 4.77786 8.73231C4.85511 8.99077 4.87888 9.27385 4.90265 9.58154V9.65538C4.93553 10.2505 5.03727 10.8393 5.20571 11.4092C5.30079 11.7292 5.43152 12.0985 5.68109 12.4185C5.79887 12.5855 5.95249 12.7219 6.12986 12.8169C6.30722 12.912 6.50348 12.9631 6.70316 12.9662H6.7091C6.90911 12.9647 7.10627 12.9169 7.28619 12.8264C7.4661 12.7359 7.62422 12.605 7.749 12.4431C7.96946 12.1627 8.09289 11.8139 8.0996 11.4523C8.11148 11.0031 8.1709 10.3569 8.30758 9.87692C8.41454 9.51385 8.52744 9.15077 8.6344 8.79385C8.66916 8.91107 8.71914 9.02286 8.78296 9.12615L10.12 11.4646L10.6369 12.3631L10.8033 12.6585L11.0529 13.0892L11.1718 13.2985C11.2949 13.5132 11.4696 13.6912 11.6789 13.8152C11.8882 13.9393 12.125 14.005 12.3662 14.0062H12.4196L12.5563 13.9877C12.9366 13.9508 13.2218 13.7415 13.412 13.6062H13.4179C13.7071 13.3904 13.9065 13.0691 13.976 12.7071C14.0455 12.3451 13.9798 11.9693 13.7923 11.6554ZM13.2456 13.3477C13.0495 13.4892 12.8178 13.6492 12.5266 13.6738L12.3959 13.6923C12.2021 13.6984 12.0104 13.6501 11.8409 13.5527C11.6714 13.4552 11.5306 13.312 11.4332 13.1385L11.0589 12.4923L10.8984 12.2031L10.3755 11.2985L9.03848 8.96615C8.95747 8.83293 8.90403 8.68375 8.88153 8.52804C8.85903 8.37234 8.86795 8.21349 8.90775 8.06154V8.01846C8.84238 7.89538 8.77107 7.77231 8.69977 7.65538L8.676 7.61231C8.65817 7.68 8.6344 7.74769 8.61658 7.81538L8.48584 8.25231C8.33135 8.76308 8.17685 9.27385 8.02829 9.78462C7.87973 10.2954 7.81437 10.9785 7.80248 11.44C7.79786 11.7314 7.69958 12.0129 7.5232 12.24C7.42492 12.3662 7.30107 12.4686 7.1604 12.5399C7.01973 12.6111 6.86567 12.6495 6.7091 12.6523C6.55454 12.6502 6.40259 12.6107 6.26538 12.5369C6.12817 12.4632 6.00948 12.3573 5.91878 12.2277C5.70486 11.9508 5.58601 11.6246 5.49094 11.3108C5.32884 10.765 5.23108 10.2009 5.19977 9.63077V9.56308C5.176 9.21231 5.14629 8.84923 5.02744 8.51077C4.99773 8.42462 4.96802 8.34462 4.92642 8.25231C4.91591 8.22943 4.9001 8.20959 4.8804 8.19456C4.86071 8.17953 4.83773 8.16978 4.81352 8.16615C4.78988 8.16612 4.76671 8.17305 4.74673 8.18612C4.72674 8.19919 4.71075 8.21788 4.70062 8.24C4.51443 8.5321 4.38896 8.86112 4.33219 9.20615C4.31437 9.31692 4.2906 9.42154 4.27277 9.53231C4.21335 9.85231 4.14798 10.1785 4.07668 10.4985C3.97775 10.9162 3.81955 11.3165 3.60724 11.6862C3.52162 11.8331 3.41993 11.9694 3.30418 12.0923C3.21356 12.1927 3.1041 12.2729 2.9825 12.3279C2.86091 12.3829 2.72975 12.4116 2.59705 12.4123C2.44248 12.4102 2.29054 12.3707 2.15332 12.2969C2.01611 12.2232 1.89743 12.1173 1.80673 11.9877C1.60228 11.7125 1.50667 11.3671 1.53933 11.0215C1.58031 10.3151 1.52226 9.60616 1.367 8.91692C1.12931 7.83385 0.885675 6.69538 0.647984 5.52615C0.499631 4.83206 0.392469 4.1292 0.327101 3.42154C0.291448 3.04 0.267679 2.59077 0.410293 2.16C0.647984 1.43385 1.15308 1.00923 1.91369 0.892308C2.02178 0.874702 2.1311 0.866469 2.24051 0.867692C2.6288 0.868747 3.00776 0.990987 3.32795 1.21846C3.44934 1.30825 3.55917 1.41372 3.65478 1.53231C3.86667 1.7972 4.13803 2.00426 4.4451 2.13538H4.45698L4.46887 2.11692C5.08092 1.09538 5.96038 0.498462 7.08347 0.338462C7.24493 0.315776 7.4078 0.305491 7.57073 0.307692C8.3951 0.310618 9.19293 0.609784 9.82801 1.15411C10.4631 1.69844 10.896 2.45419 11.0529 3.29231C11.2728 4.49846 10.9697 5.58769 10.1497 6.52923L10.1378 6.54154H10.1437L10.2982 6.80615L10.4587 7.08308C10.4636 7.09241 10.4704 7.10054 10.4786 7.10691C10.4868 7.11328 10.4962 7.11775 10.5062 7.12C10.7652 7.20666 10.9862 7.38541 11.1302 7.62462C11.6412 8.51077 12.1463 9.39692 12.6573 10.2769L13.1921 11.2123L13.5427 11.8154C13.6845 12.0638 13.7325 12.3576 13.6777 12.6405C13.6229 12.9234 13.469 13.1752 13.2456 13.3477Z" fill="#878687"/>
<path d="M9.69243 6.99683L9.19922 7.29836L9.27647 7.4399L9.76968 7.13221L9.69243 6.99683Z" fill="#878687"/>
</svg>
