<svg width="76" height="77" viewBox="0 0 76 77" fill="none" xmlns="http://www.w3.org/2000/svg">
<g filter="url(#filter0_d_324_9924)">
<rect x="6" y="6.5" width="60" height="60" rx="30" fill="white"/>
<g clip-path="url(#clip0_324_9924)">
<path d="M52.731 46.3069L51.931 44.969L50.6896 42.8724L47.1448 36.9276C46.8185 36.3759 46.2966 35.9672 45.6827 35.7828C45.6405 35.7632 45.6029 35.735 45.5724 35.7L45.2138 35.0931L44.8551 34.5C44.8413 34.4862 44.8413 34.4862 44.8413 34.4724L44.8689 34.4448C46.7724 32.3345 47.4758 29.9069 46.9655 27.2034C46.6066 25.3212 45.6036 23.6226 44.1286 22.3993C42.6537 21.1761 40.7989 20.5045 38.8827 20.5C38.4996 20.5001 38.117 20.5277 37.7379 20.5828C35.1448 20.9414 33.1034 22.2793 31.6827 24.569L31.6551 24.5966H31.6276C30.9148 24.3027 30.2849 23.8385 29.7931 23.2448C29.5677 22.9774 29.308 22.7408 29.0207 22.5414C28.2838 22.0169 27.4009 21.7371 26.4965 21.7414C26.2426 21.7397 25.9889 21.7581 25.7379 21.7966C23.9862 22.0586 22.8138 23.0241 22.2482 24.6517C21.931 25.6172 21.9862 26.6103 22.0551 27.4655C22.2144 29.0561 22.4678 30.6359 22.8138 32.1966C23.3655 34.8172 23.931 37.369 24.4689 39.7828C24.8382 41.3309 24.9777 42.925 24.8827 44.5138C24.7989 45.2847 25.0219 46.0577 25.5034 46.6655C25.7139 46.9561 25.9894 47.1934 26.3079 47.3587C26.6264 47.5239 26.9791 47.6124 27.3379 47.6172C27.9561 47.6069 28.5455 47.3543 28.9793 46.9138C29.2494 46.6346 29.4855 46.3244 29.6827 45.9897C30.1726 45.1612 30.5352 44.2638 30.7586 43.3276C30.9379 42.6103 31.0758 41.8793 31.2138 41.1759C31.2689 40.9276 31.3103 40.6793 31.3655 40.431C31.5448 39.5483 31.8069 38.8586 32.2207 38.2655C32.2462 38.2204 32.282 38.1819 32.3251 38.1532C32.3682 38.1244 32.4175 38.1062 32.4689 38.1C32.5281 38.1051 32.5844 38.1274 32.631 38.1642C32.6776 38.2009 32.7123 38.2506 32.731 38.3069C32.8276 38.5 32.9103 38.6931 32.9793 38.8724C33.2551 39.631 33.3103 40.4448 33.3793 41.2448V41.3966C33.4681 42.6735 33.6994 43.9365 34.0689 45.1621C34.2896 45.8517 34.5517 46.5828 35.0482 47.2172C35.2639 47.5058 35.5423 47.7414 35.8626 47.9063C36.1828 48.0712 36.5364 48.161 36.8965 48.169C37.2612 48.1619 37.6198 48.0742 37.9466 47.912C38.2733 47.7498 38.56 47.5173 38.7862 47.231C39.1955 46.7273 39.4238 46.1007 39.4345 45.4517C39.462 44.4034 39.5448 43.0379 39.9448 41.7414C40.3448 40.4448 40.662 39.4379 41.0069 38.2931L41.3103 37.3138C41.3655 37.1621 41.4069 37.0103 41.462 36.8586L41.5172 36.9552C41.6827 37.2172 41.8482 37.4931 42 37.769C42 37.8062 41.9954 37.8433 41.9862 37.8793C41.901 38.2206 41.8839 38.5754 41.936 38.9233C41.9881 39.2712 42.1082 39.6055 42.2896 39.9069C43.3379 41.6448 44.377 43.3874 45.4069 45.1345L46.6207 47.1621L46.9931 47.7966C47.2689 48.2793 47.5586 48.7759 47.862 49.2448C48.3862 50.0724 49.131 50.5 50.0827 50.5H50.3862C51.062 50.4448 51.6 50.0862 52.0551 49.7552C52.5801 49.3702 52.941 48.8018 53.0662 48.163C53.1914 47.5241 53.0717 46.8616 52.731 46.3069ZM43.8207 35.4793L44 35.7966L42.8551 36.4724L42.6758 36.169L43.8207 35.4793ZM45.7241 28.831C45.7103 32.6241 42.5931 35.7 38.7724 35.7H38.731C36.9153 35.6963 35.1752 34.9725 33.8926 33.6873C32.61 32.4021 31.8896 30.6605 31.8896 28.8448C31.9034 25.0103 35.0069 21.8793 38.8276 21.8793H38.8551C40.6856 21.8975 42.4347 22.6384 43.7213 23.9405C45.008 25.2426 45.7278 27.0005 45.7241 28.831Z" fill="#161616"/>
<path d="M38.8275 22.4036C35.2137 22.4174 32.3862 25.2863 32.4 28.9139C32.4137 32.5415 35.2827 35.1898 38.7724 35.1898H38.8137C39.6578 35.1862 40.4929 35.0163 41.2714 34.69C42.0498 34.3636 42.7564 33.8871 43.3507 33.2877C43.945 32.6883 44.4154 31.9777 44.735 31.1964C45.0547 30.4152 45.2174 29.5787 45.2137 28.7346C45.1862 25.2174 42.3862 22.4449 38.8275 22.4036Z" fill="#161616"/>
</g>
</g>
<defs>
<filter id="filter0_d_324_9924" x="0" y="0.5" width="76" height="76" filterUnits="userSpaceOnUse" color-interpolation-filters="sRGB">
<feFlood flood-opacity="0" result="BackgroundImageFix"/>
<feColorMatrix in="SourceAlpha" type="matrix" values="0 0 0 0 0 0 0 0 0 0 0 0 0 0 0 0 0 0 127 0" result="hardAlpha"/>
<feOffset dx="2" dy="2"/>
<feGaussianBlur stdDeviation="4"/>
<feComposite in2="hardAlpha" operator="out"/>
<feColorMatrix type="matrix" values="0 0 0 0 0 0 0 0 0 0 0 0 0 0 0 0 0 0 0.04 0"/>
<feBlend mode="normal" in2="BackgroundImageFix" result="effect1_dropShadow_324_9924"/>
<feBlend mode="normal" in="SourceGraphic" in2="effect1_dropShadow_324_9924" result="shape"/>
</filter>
<clipPath id="clip0_324_9924">
<rect width="31.1034" height="30" fill="white" transform="translate(22 20.5)"/>
</clipPath>
</defs>
</svg>
