<svg width="24" height="22" viewBox="0 0 24 22" fill="none" xmlns="http://www.w3.org/2000/svg">
<path d="M21.6615 21.9993C21.3147 22.0083 20.9718 21.9285 20.6685 21.7683C20.3652 21.6082 20.1128 21.3736 19.9376 21.089C19.7141 20.735 19.4906 20.3709 19.2672 20.027L18.9798 19.5516L18.0434 18.0648L15.6491 14.2314C15.5064 14.0115 15.412 13.7664 15.3718 13.5108C15.3316 13.2553 15.3462 12.9946 15.415 12.7446C15.4213 12.7214 15.4213 12.697 15.415 12.6738C15.2979 12.4715 15.1702 12.2692 15.0425 12.0771L14.9999 12.0063C14.968 12.1175 14.9255 12.2288 14.8935 12.34L14.6594 13.0582C14.3827 13.8977 14.1061 14.7372 13.84 15.5767C13.574 16.4162 13.4569 17.5389 13.4357 18.2974C13.4324 18.7773 13.2558 19.2414 12.9355 19.6123C12.7605 19.8209 12.5389 19.9899 12.2868 20.1071C12.0347 20.2243 11.7583 20.2867 11.4776 20.29C11.2008 20.2865 10.9287 20.2215 10.683 20.1004C10.4373 19.9792 10.2247 19.8051 10.0623 19.5921C9.67923 19.1369 9.4664 18.6009 9.29614 18.085C9.00892 17.1873 8.83391 16.2605 8.77471 15.3238V15.2125C8.73214 14.636 8.67894 14.0393 8.46611 13.483C8.4129 13.3414 8.35969 13.2099 8.2852 13.0582C8.2681 13.0194 8.24027 12.9858 8.20467 12.9608C8.16907 12.9359 8.12703 12.9206 8.08302 12.9166C8.04121 12.9187 8.00066 12.9309 7.96526 12.9522C7.92987 12.9734 7.90079 13.0029 7.88083 13.0379C7.55089 13.5197 7.3265 14.0598 7.22106 14.6259C7.18913 14.808 7.14657 14.9799 7.11464 15.162C7.00823 15.6879 6.89117 16.224 6.76348 16.7499C6.59233 17.4384 6.30866 18.0971 5.9228 18.702C5.77404 18.9466 5.59152 19.1711 5.38009 19.3696C5.21704 19.5336 5.02086 19.6648 4.80328 19.7551C4.58571 19.8455 4.35119 19.8932 4.11376 19.8955C3.83712 19.8912 3.56531 19.8259 3.31971 19.7048C3.07412 19.5837 2.86145 19.4101 2.69845 19.1976C2.33615 18.7435 2.16536 18.1772 2.21958 17.6097C2.29696 16.4485 2.19297 15.2828 1.91098 14.1505C1.48533 12.3704 1.04903 10.4992 0.623369 8.57746C0.360397 7.43616 0.168518 6.28111 0.0487323 5.11832C-0.0151163 4.49122 -0.0576827 3.75287 0.197712 3.04486C0.623369 1.85135 1.52789 1.15346 2.89 0.961282C3.08361 0.932712 3.27935 0.919182 3.47527 0.920825C4.17144 0.917401 4.85167 1.11878 5.42266 1.49735C5.64105 1.64376 5.83788 1.81724 6.00794 2.01318C6.38945 2.44649 6.87481 2.78642 7.42325 3.0044H7.44453L7.46581 2.97406C8.56188 1.29506 10.1368 0.313958 12.148 0.0509826C12.4372 0.0139861 12.7289 -0.00291614 13.0206 0.000410338C14.4975 0.00328996 15.9273 0.494301 17.065 1.38929C18.2027 2.28428 18.9775 3.52751 19.2565 4.90592C19.6503 6.88835 19.1075 8.6786 17.639 10.2261L17.6177 10.2463H17.6284L17.9051 10.6813L18.1924 11.1364C18.2137 11.1643 18.2434 11.1854 18.2775 11.1971C18.744 11.3347 19.1414 11.6297 19.3949 12.0265C20.31 13.483 21.2145 14.9394 22.1297 16.3858L23.0874 17.9232L23.7153 18.9144C23.9715 19.322 24.059 19.8057 23.9606 20.2713C23.8623 20.7368 23.5852 21.1509 23.1832 21.4329C22.832 21.6655 22.417 21.9285 21.8956 21.969L21.6615 21.9993ZM17.6922 12.1479C17.5167 12.1522 17.345 12.1973 17.1921 12.2793L17.0112 12.3906L16.926 12.4311C16.4153 12.7244 16.2769 13.2402 16.5749 13.7156L18.0753 16.1026L19.2459 17.9839C19.778 18.8335 20.31 19.6831 20.8527 20.5327C20.9299 20.6702 21.0449 20.7852 21.1855 20.8654C21.326 20.9455 21.4869 20.9879 21.6508 20.9879C21.828 20.9846 22.0008 20.9356 22.151 20.8463L22.4596 20.6743C22.5961 20.5939 22.7093 20.4824 22.7892 20.35C22.8691 20.2176 22.9131 20.0683 22.9172 19.9158C22.91 19.7278 22.8474 19.5455 22.7363 19.3898L20.8208 16.3352L19.7354 14.6158C19.3204 13.9381 18.8947 13.2706 18.4691 12.5929C18.394 12.4589 18.2821 12.3467 18.1453 12.2684C18.0085 12.19 17.852 12.1483 17.6922 12.1479ZM8.06173 11.895C8.29836 11.8936 8.53081 11.9543 8.73355 12.0702C8.9363 12.1862 9.1015 12.3531 9.21101 12.5524C9.29512 12.7136 9.36973 12.879 9.43448 13.048C9.73244 13.7864 9.79629 14.5753 9.84949 15.2732C9.90867 16.2423 10.1092 17.1988 10.4454 18.1154C10.5491 18.4455 10.723 18.7519 10.9562 19.0156C11.0235 19.0909 11.1064 19.1523 11.1998 19.1958C11.2932 19.2393 11.395 19.2641 11.4989 19.2684C11.6024 19.2672 11.7044 19.2449 11.798 19.203C11.8916 19.1611 11.9747 19.1007 12.0416 19.0257C12.1505 18.9189 12.235 18.7919 12.2899 18.6527C12.3448 18.5135 12.369 18.365 12.3609 18.2165C12.3822 17.5085 12.4247 16.6791 12.6482 15.8902C12.8717 15.1013 13.0526 14.5248 13.2654 13.8572C13.3292 13.665 13.3825 13.4728 13.4463 13.2706L13.7443 12.3704C13.7762 12.2895 13.7975 12.2085 13.8294 12.1276C13.5397 12.159 13.2484 12.1759 12.9568 12.1782C10.9136 12.1782 9.23229 11.4095 7.96596 9.91257C6.4868 8.17288 6.14627 6.16011 6.95502 3.93493C6.23525 3.64047 5.60294 3.1819 5.11405 2.59982C5.02434 2.49622 4.92057 2.40439 4.80545 2.32673C4.40496 2.07422 3.93459 1.94045 3.45399 1.94238C3.28985 1.94119 3.12595 1.95474 2.96448 1.98284C2.02804 2.13456 1.42148 2.64028 1.16608 3.50001C1.0171 4.00573 1.04903 4.52157 1.11288 5.09809C1.2378 6.22681 1.42965 7.34792 1.68751 8.45609C1.97483 9.76085 2.28343 11.0757 2.58139 12.3603L2.96448 14.019C3.16667 14.8788 3.29437 15.607 3.30501 16.3656C3.30501 16.6488 3.29437 16.9421 3.29437 17.2253C3.29437 17.5085 3.28373 17.5995 3.28373 17.7816C3.27155 17.9461 3.29766 18.1112 3.3602 18.265C3.42273 18.4188 3.52015 18.5577 3.64554 18.6717C3.70536 18.7335 3.77763 18.7832 3.85806 18.818C3.93849 18.8527 4.02544 18.8718 4.11376 18.874C4.26755 18.8669 4.41409 18.8098 4.52878 18.7121C4.70011 18.5626 4.85035 18.3926 4.97572 18.2064C5.31086 17.672 5.55845 17.0922 5.70998 16.487C5.83767 15.9812 5.94409 15.4553 6.0505 14.9394C6.09307 14.7473 6.12499 14.5652 6.16756 14.373C6.29844 13.6729 6.58505 13.0074 7.00823 12.4209C7.12438 12.2573 7.28141 12.1236 7.46527 12.0318C7.64913 11.94 7.85407 11.893 8.06173 11.895ZM16.0747 11.7231L16.958 11.2173L16.8196 10.9948L15.9364 11.4904L16.0747 11.7231ZM12.9674 1.02197C11.5486 1.02996 10.1904 1.56991 9.18808 2.52448C8.18577 3.47904 7.62038 4.77104 7.61479 6.11965C7.61479 7.45379 8.17166 8.73344 9.1632 9.67777C10.1547 10.6221 11.4999 11.154 12.9036 11.1566H12.9249C14.3388 11.1647 15.6982 10.6385 16.7041 9.69391C17.7099 8.74929 18.2797 7.46359 18.2882 6.11965C18.2966 4.77571 17.743 3.48361 16.7492 2.52761C15.7554 1.57161 14.4027 1.03002 12.9887 1.02197H12.9674Z" fill="#100E10"/>
<path d="M14.9572 11.7628C14.8934 11.9448 14.8295 12.1269 14.7763 12.309C14.4252 13.3811 14.0634 14.4633 13.7228 15.5456C13.4249 16.4458 13.3397 17.3662 13.3185 18.2967C13.3087 18.7474 13.1401 19.1819 12.8396 19.5307C12.2011 20.2893 10.9667 20.4915 10.158 19.5206C9.79615 19.0856 9.58332 18.5799 9.41306 18.054C9.12795 17.1626 8.95296 16.2428 8.89163 15.313C8.83842 14.6859 8.79585 14.0486 8.57238 13.4418C8.51957 13.2926 8.45556 13.1473 8.38084 13.0069C8.25314 12.7439 7.94454 12.7237 7.76364 12.9664C7.4246 13.4632 7.19643 14.0209 7.09323 14.6049C6.94424 15.313 6.80591 16.021 6.625 16.7189C6.4588 17.3945 6.18613 18.0424 5.81625 18.6406C5.66633 18.8755 5.48773 19.0928 5.28418 19.2879C4.52864 20.0061 3.43257 19.9251 2.78344 19.1261C2.4342 18.6976 2.2705 18.1585 2.32586 17.619C2.40944 16.4444 2.30539 15.2645 2.01726 14.1194C1.57032 12.2651 1.14112 10.4108 0.729647 8.5565C0.474297 7.41725 0.282484 6.26597 0.15501 5.10748C0.0911613 4.42981 0.0592363 3.74203 0.303989 3.08459C0.729647 1.9012 1.61289 1.25387 2.88986 1.07181C3.7731 0.950441 4.60313 1.10216 5.33739 1.58765C5.54748 1.72858 5.73711 1.89522 5.90138 2.08326C6.29325 2.5352 6.79818 2.88645 7.3699 3.10482C7.45503 3.14528 7.50824 3.13516 7.56145 3.04413C8.62559 1.42582 10.158 0.434604 12.1479 0.181743C13.7315 -0.0320115 15.3409 0.342826 16.6411 1.22826C17.9414 2.1137 18.8323 3.44155 19.1287 4.93553C19.5224 6.91796 18.9584 8.65765 17.5431 10.1546C17.4899 10.2153 17.4686 10.2557 17.5112 10.3265L18.0752 11.2166C18.1149 11.2644 18.1659 11.3025 18.2242 11.3279C18.6669 11.4504 19.0438 11.7289 19.2777 12.1067C20.4589 13.9778 21.6294 15.8591 22.8 17.7303L23.5981 18.9946C23.8397 19.3758 23.9224 19.8291 23.8298 20.2653C23.7372 20.7015 23.4761 21.089 23.0979 21.3513C22.7361 21.6041 22.353 21.8368 21.8742 21.8772C21.0867 21.9379 20.4695 21.6648 20.0439 21.0276C19.6182 20.3904 19.4054 20.0061 19.0861 19.5003L15.7554 14.17C15.6199 13.9641 15.5302 13.7341 15.4918 13.4941C15.4534 13.254 15.467 13.0091 15.5319 12.7742C15.5444 12.7204 15.5407 12.6643 15.5212 12.6124C15.3616 12.3393 15.1807 12.0662 15.0105 11.7931C14.9998 11.783 14.9998 11.7628 14.9892 11.7426L14.9572 11.7628ZM13.9995 11.9954C11.6052 12.2685 9.57268 11.6313 8.0616 9.84104C6.55051 8.05078 6.29512 6.02789 7.10387 3.87352L7.05066 3.85329C6.32979 3.56539 5.6967 3.10974 5.20969 2.52829C5.11199 2.41512 4.99725 2.31628 4.86917 2.23498C4.59141 2.05606 4.27928 1.93092 3.95061 1.86671C3.62195 1.8025 3.28319 1.80047 2.95371 1.86074C1.97469 2.02257 1.31493 2.54852 1.04889 3.46894C0.889268 4.01512 0.931834 4.5613 0.995683 5.10748C1.11714 6.24332 1.30902 7.37135 1.57032 8.4857C1.98534 10.3366 2.42163 12.1876 2.84729 14.0385C3.01756 14.8072 3.17718 15.5759 3.17718 16.3649C3.18782 16.8301 3.16654 17.3055 3.15589 17.7809C3.14801 17.9606 3.17992 18.1399 3.24958 18.3072C3.31924 18.4745 3.42509 18.6259 3.56027 18.7519C3.86887 19.0452 4.27325 19.0654 4.60313 18.7923C4.78441 18.6388 4.94203 18.4617 5.07135 18.2664C5.41678 17.7237 5.67165 17.1334 5.82689 16.5166C6.0078 15.8187 6.1355 15.1005 6.28448 14.3925C6.41931 13.7094 6.69802 13.0591 7.10387 12.4809C7.2206 12.3259 7.37694 12.2017 7.55814 12.12C7.73934 12.0383 7.93945 12.0018 8.1396 12.014C8.33974 12.0261 8.53334 12.0865 8.70214 12.1894C8.87095 12.2923 9.0094 12.4344 9.10446 12.6023C9.17895 12.7641 9.25344 12.9259 9.31728 13.0878C9.6046 13.7958 9.66845 14.5341 9.7323 15.2826C9.79181 16.2615 9.99232 17.228 10.3282 18.1551C10.4559 18.4889 10.6049 18.8227 10.8603 19.0856C11.1157 19.3486 11.7542 19.4801 12.1373 19.1059C12.3663 18.8648 12.4917 18.5507 12.4884 18.2259C12.5097 17.4471 12.5523 16.6683 12.7651 15.9198C12.9779 15.1713 13.2972 14.1801 13.5632 13.3103C13.7016 12.8754 13.8505 12.4404 13.9995 11.9954ZM23.0341 19.9251C23.0359 19.7123 22.969 19.504 22.8425 19.3284C22.0232 18.0236 21.2038 16.729 20.395 15.4242L18.5753 12.5315C18.2667 12.0359 17.6602 11.8943 17.1281 12.1775L16.8621 12.3292C16.2981 12.6529 16.1384 13.2395 16.4683 13.7756L18.5647 17.1133L20.7462 20.5927C20.8142 20.7115 20.9073 20.8156 21.0196 20.8985C21.132 20.9815 21.2612 21.0414 21.3991 21.0747C21.537 21.1079 21.6806 21.1137 21.821 21.0917C21.9613 21.0697 22.0954 21.0203 22.2147 20.9467C22.3213 20.892 22.4244 20.8312 22.5233 20.7646C22.6791 20.6803 22.8085 20.5581 22.8983 20.4106C22.9881 20.2631 23.0349 20.0956 23.0341 19.9251ZM7.4976 6.11892C7.49759 7.48082 8.06533 8.78725 9.07652 9.75215C10.0877 10.7171 11.46 11.2618 12.8928 11.2672C15.915 11.2874 18.4051 8.96108 18.4157 6.10881C18.4213 5.428 18.2851 4.75288 18.0149 4.12236C17.7447 3.49184 17.3458 2.9184 16.8413 2.43511C16.3368 1.95182 15.7366 1.56823 15.0753 1.30647C14.4141 1.04472 13.7049 0.909962 12.9886 0.909983C9.97705 0.889754 7.50824 3.2363 7.4976 6.11892ZM16.8621 10.8323L15.766 11.4593C15.8618 11.6009 15.9469 11.7426 16.0427 11.874L17.1281 11.2571C17.0323 11.1155 16.9472 10.984 16.8621 10.8323Z" fill="#100E10"/>
<path d="M12.9348 10.7828C10.2319 10.7828 8.01849 8.71949 8.00785 6.18076C7.99721 3.64204 10.1787 1.41686 12.9668 1.39663C15.7548 1.3764 17.8725 3.47009 17.8937 6.03916C17.8979 6.65897 17.7735 7.27349 17.5275 7.84752C17.2815 8.42156 16.9188 8.94384 16.4602 9.38447C16.0015 9.82509 15.4559 10.1754 14.8547 10.4154C14.2534 10.6553 13.6082 10.7802 12.9561 10.7828H12.9348ZM12.9668 2.4283C11.9393 2.43096 10.9546 2.81938 10.2271 3.50896C9.4996 4.19854 9.08825 5.13342 9.08264 6.10996C9.08264 7.07835 9.48737 8.00707 10.2078 8.69183C10.9282 9.37658 11.9053 9.76127 12.9242 9.76127C13.9535 9.76129 14.9409 9.37405 15.6707 8.68418C16.4005 7.99431 16.8133 7.05791 16.819 6.07962C16.8161 5.1103 16.409 4.1816 15.6869 3.49713C14.9648 2.81267 13.9866 2.4283 12.9668 2.4283Z" fill="#100E10"/>
<path d="M12.9684 1.51758C15.7351 1.54792 17.757 3.62138 17.7783 6.03873C17.7811 7.25942 17.2759 8.43162 16.3727 9.2995C15.4696 10.1674 14.2419 10.6605 12.9577 10.6711C10.3186 10.6813 8.14778 8.65837 8.13714 6.17022C8.12868 5.56211 8.2474 4.95846 8.48641 4.39431C8.72541 3.83017 9.07993 3.31677 9.5294 2.88392C9.97886 2.45106 10.5143 2.10739 11.1047 1.87283C11.695 1.63828 12.3285 1.51753 12.9684 1.51758ZM12.9684 2.3065C11.908 2.30917 10.892 2.71071 10.1422 3.42334C9.39243 4.13596 8.96998 5.10173 8.96717 6.10954C8.96928 6.85884 9.20484 7.59076 9.64413 8.21295C10.0834 8.83514 10.7068 9.31972 11.4355 9.60554C12.1642 9.89136 12.9657 9.96562 13.7388 9.81895C14.5119 9.67228 15.222 9.31124 15.7794 8.7814C16.3369 8.25157 16.7167 7.57666 16.871 6.84185C17.0254 6.10704 16.9472 5.34525 16.6465 4.6526C16.3458 3.95995 15.836 3.36748 15.1814 2.94994C14.5268 2.5324 13.7567 2.30851 12.9684 2.3065Z" fill="#100E10"/>
</svg>
