<svg width="40" height="40" viewBox="0 0 40 40" fill="none" xmlns="http://www.w3.org/2000/svg">
<path d="M29.6615 30.9993C29.3147 31.0083 28.9718 30.9285 28.6685 30.7683C28.3652 30.6082 28.1128 30.3736 27.9376 30.089C27.7141 29.735 27.4906 29.3709 27.2672 29.027L26.9798 28.5516L26.0434 27.0648L23.6491 23.2314C23.5064 23.0115 23.412 22.7664 23.3718 22.5108C23.3316 22.2553 23.3462 21.9946 23.415 21.7446C23.4213 21.7214 23.4213 21.697 23.415 21.6738C23.2979 21.4715 23.1702 21.2692 23.0425 21.0771L22.9999 21.0063C22.968 21.1175 22.9255 21.2288 22.8935 21.34L22.6594 22.0582C22.3827 22.8977 22.1061 23.7372 21.84 24.5767C21.574 25.4162 21.4569 26.5389 21.4357 27.2974C21.4324 27.7773 21.2558 28.2414 20.9355 28.6123C20.7605 28.8209 20.5389 28.9899 20.2868 29.1071C20.0347 29.2243 19.7583 29.2867 19.4776 29.29C19.2008 29.2865 18.9287 29.2215 18.683 29.1004C18.4373 28.9792 18.2247 28.8051 18.0623 28.5921C17.6792 28.1369 17.4664 27.6009 17.2961 27.085C17.0089 26.1873 16.8339 25.2605 16.7747 24.3238V24.2125C16.7321 23.636 16.6789 23.0393 16.4661 22.483C16.4129 22.3414 16.3597 22.2099 16.2852 22.0582C16.2681 22.0194 16.2403 21.9858 16.2047 21.9608C16.1691 21.9359 16.127 21.9206 16.083 21.9166C16.0412 21.9187 16.0007 21.9309 15.9653 21.9522C15.9299 21.9734 15.9008 22.0029 15.8808 22.0379C15.5509 22.5197 15.3265 23.0598 15.2211 23.6259C15.1891 23.808 15.1466 23.9799 15.1146 24.162C15.0082 24.6879 14.8912 25.224 14.7635 25.7499C14.5923 26.4384 14.3087 27.0971 13.9228 27.702C13.774 27.9466 13.5915 28.1711 13.3801 28.3696C13.217 28.5336 13.0209 28.6648 12.8033 28.7551C12.5857 28.8455 12.3512 28.8932 12.1138 28.8955C11.8371 28.8912 11.5653 28.8259 11.3197 28.7048C11.0741 28.5837 10.8615 28.4101 10.6984 28.1976C10.3361 27.7435 10.1654 27.1772 10.2196 26.6097C10.297 25.4485 10.193 24.2828 9.91098 23.1505C9.48533 21.3704 9.04903 19.4992 8.62337 17.5775C8.3604 16.4362 8.16852 15.2811 8.04873 14.1183C7.98488 13.4912 7.94232 12.7529 8.19771 12.0449C8.62337 10.8514 9.52789 10.1535 10.89 9.96128C11.0836 9.93271 11.2793 9.91918 11.4753 9.92083C12.1714 9.9174 12.8517 10.1188 13.4227 10.4973C13.641 10.6438 13.8379 10.8172 14.0079 11.0132C14.3894 11.4465 14.8748 11.7864 15.4232 12.0044H15.4445L15.4658 11.9741C16.5619 10.2951 18.1368 9.31396 20.148 9.05098C20.4372 9.01399 20.7289 8.99708 21.0206 9.00041C22.4975 9.00329 23.9273 9.4943 25.065 10.3893C26.2027 11.2843 26.9775 12.5275 27.2565 13.9059C27.6503 15.8883 27.1075 17.6786 25.639 19.2261L25.6177 19.2463H25.6284L25.9051 19.6813L26.1924 20.1364C26.2137 20.1643 26.2434 20.1854 26.2775 20.1971C26.744 20.3347 27.1414 20.6297 27.3949 21.0265C28.31 22.483 29.2145 23.9394 30.1297 25.3858L31.0874 26.9232L31.7153 27.9144C31.9715 28.322 32.059 28.8057 31.9606 29.2713C31.8623 29.7368 31.5852 30.1509 31.1832 30.4329C30.832 30.6655 30.417 30.9285 29.8956 30.969L29.6615 30.9993ZM25.6922 21.1479C25.5167 21.1522 25.345 21.1973 25.1921 21.2793L25.0112 21.3906L24.926 21.4311C24.4153 21.7244 24.2769 22.2402 24.5749 22.7156L26.0753 25.1026L27.2459 26.9839C27.778 27.8335 28.31 28.6831 28.8527 29.5327C28.9299 29.6702 29.0449 29.7852 29.1855 29.8654C29.326 29.9455 29.4869 29.9879 29.6508 29.9879C29.828 29.9846 30.0008 29.9356 30.151 29.8463L30.4596 29.6743C30.5961 29.5939 30.7093 29.4824 30.7892 29.35C30.8691 29.2176 30.9131 29.0683 30.9172 28.9158C30.91 28.7278 30.8474 28.5455 30.7363 28.3898L28.8208 25.3352L27.7354 23.6158C27.3204 22.9381 26.8947 22.2706 26.4691 21.5929C26.394 21.4589 26.2821 21.3467 26.1453 21.2684C26.0085 21.19 25.852 21.1483 25.6922 21.1479ZM16.0617 20.895C16.2984 20.8936 16.5308 20.9543 16.7336 21.0702C16.9363 21.1862 17.1015 21.3531 17.211 21.5524C17.2951 21.7136 17.3697 21.879 17.4345 22.048C17.7324 22.7864 17.7963 23.5753 17.8495 24.2732C17.9087 25.2423 18.1092 26.1988 18.4454 27.1154C18.5491 27.4455 18.723 27.7519 18.9562 28.0156C19.0235 28.0909 19.1064 28.1523 19.1998 28.1958C19.2932 28.2393 19.395 28.2641 19.4989 28.2684C19.6024 28.2672 19.7044 28.2449 19.798 28.203C19.8916 28.1611 19.9747 28.1007 20.0416 28.0257C20.1505 27.9189 20.235 27.7919 20.2899 27.6527C20.3448 27.5135 20.369 27.365 20.3609 27.2165C20.3822 26.5085 20.4247 25.6791 20.6482 24.8902C20.8717 24.1013 21.0526 23.5248 21.2654 22.8572C21.3292 22.665 21.3825 22.4728 21.4463 22.2706L21.7443 21.3704C21.7762 21.2895 21.7975 21.2085 21.8294 21.1276C21.5397 21.159 21.2484 21.1759 20.9568 21.1782C18.9136 21.1782 17.2323 20.4095 15.966 18.9126C14.4868 17.1729 14.1463 15.1601 14.955 12.9349C14.2352 12.6405 13.6029 12.1819 13.1141 11.5998C13.0243 11.4962 12.9206 11.4044 12.8055 11.3267C12.405 11.0742 11.9346 10.9405 11.454 10.9424C11.2898 10.9412 11.1259 10.9547 10.9645 10.9828C10.028 11.1346 9.42148 11.6403 9.16608 12.5C9.0171 13.0057 9.04903 13.5216 9.11288 14.0981C9.2378 15.2268 9.42965 16.3479 9.68751 17.4561C9.97483 18.7608 10.2834 20.0757 10.5814 21.3603L10.9645 23.019C11.1667 23.8788 11.2944 24.607 11.305 25.3656C11.305 25.6488 11.2944 25.9421 11.2944 26.2253C11.2944 26.5085 11.2837 26.5995 11.2837 26.7816C11.2716 26.9461 11.2977 27.1112 11.3602 27.265C11.4227 27.4188 11.5202 27.5577 11.6455 27.6717C11.7054 27.7335 11.7776 27.7832 11.8581 27.818C11.9385 27.8527 12.0254 27.8718 12.1138 27.874C12.2675 27.8669 12.4141 27.8098 12.5288 27.7121C12.7001 27.5626 12.8503 27.3926 12.9757 27.2064C13.3109 26.672 13.5585 26.0922 13.71 25.487C13.8377 24.9812 13.9441 24.4553 14.0505 23.9394C14.0931 23.7473 14.125 23.5652 14.1676 23.373C14.2984 22.6729 14.5851 22.0074 15.0082 21.4209C15.1244 21.2573 15.2814 21.1236 15.4653 21.0318C15.6491 20.94 15.8541 20.893 16.0617 20.895ZM24.0747 20.7231L24.958 20.2173L24.8196 19.9948L23.9364 20.4904L24.0747 20.7231ZM20.9674 10.022C19.5486 10.03 18.1904 10.5699 17.1881 11.5245C16.1858 12.479 15.6204 13.771 15.6148 15.1196C15.6148 16.4538 16.1717 17.7334 17.1632 18.6778C18.1547 19.6221 19.4999 20.154 20.9036 20.1566H20.9249C22.3388 20.1647 23.6982 19.6385 24.7041 18.6939C25.7099 17.7493 26.2797 16.4636 26.2882 15.1196C26.2966 13.7757 25.743 12.4836 24.7492 11.5276C23.7554 10.5716 22.4027 10.03 20.9887 10.022H20.9674Z" fill="#100E10"/>
<path d="M22.9572 20.7628C22.8934 20.9448 22.8295 21.1269 22.7763 21.309C22.4252 22.3811 22.0634 23.4633 21.7228 24.5456C21.4249 25.4458 21.3397 26.3662 21.3185 27.2967C21.3087 27.7474 21.1401 28.1819 20.8396 28.5307C20.2011 29.2893 18.9667 29.4915 18.158 28.5206C17.7961 28.0856 17.5833 27.5799 17.4131 27.054C17.1279 26.1626 16.953 25.2428 16.8916 24.313C16.8384 23.6859 16.7959 23.0486 16.5724 22.4418C16.5196 22.2926 16.4556 22.1473 16.3808 22.0069C16.2531 21.7439 15.9445 21.7237 15.7636 21.9664C15.4246 22.4632 15.1964 23.0209 15.0932 23.6049C14.9442 24.313 14.8059 25.021 14.625 25.7189C14.4588 26.3945 14.1861 27.0424 13.8163 27.6406C13.6663 27.8755 13.4877 28.0928 13.2842 28.2879C12.5286 29.0061 11.4326 28.9251 10.7834 28.1261C10.4342 27.6976 10.2705 27.1585 10.3259 26.619C10.4094 25.4444 10.3054 24.2645 10.0173 23.1194C9.57032 21.2651 9.14112 19.4108 8.72965 17.5565C8.4743 16.4173 8.28248 15.266 8.15501 14.1075C8.09116 13.4298 8.05924 12.742 8.30399 12.0846C8.72965 10.9012 9.61289 10.2539 10.8899 10.0718C11.7731 9.95044 12.6031 10.1022 13.3374 10.5877C13.5475 10.7286 13.7371 10.8952 13.9014 11.0833C14.2932 11.5352 14.7982 11.8865 15.3699 12.1048C15.455 12.1453 15.5082 12.1352 15.5614 12.0441C16.6256 10.4258 18.158 9.4346 20.1479 9.18174C21.7315 8.96799 23.3409 9.34283 24.6411 10.2283C25.9414 11.1137 26.8323 12.4416 27.1287 13.9355C27.5224 15.918 26.9584 17.6576 25.5431 19.1546C25.4899 19.2153 25.4686 19.2557 25.5112 19.3265L26.0752 20.2166C26.1149 20.2644 26.1659 20.3025 26.2242 20.3279C26.6669 20.4504 27.0438 20.7289 27.2777 21.1067C28.4589 22.9778 29.6294 24.8591 30.8 26.7303L31.5981 27.9946C31.8397 28.3758 31.9224 28.8291 31.8298 29.2653C31.7372 29.7015 31.4761 30.089 31.0979 30.3513C30.7361 30.6041 30.353 30.8368 29.8742 30.8772C29.0867 30.9379 28.4695 30.6648 28.0439 30.0276C27.6182 29.3904 27.4054 29.0061 27.0861 28.5003L23.7554 23.17C23.6199 22.9641 23.5302 22.7341 23.4918 22.4941C23.4534 22.254 23.467 22.0091 23.5319 21.7742C23.5444 21.7204 23.5407 21.6643 23.5212 21.6124C23.3616 21.3393 23.1807 21.0662 23.0105 20.7931C22.9998 20.783 22.9998 20.7628 22.9892 20.7426L22.9572 20.7628ZM21.9995 20.9954C19.6052 21.2685 17.5727 20.6313 16.0616 18.841C14.5505 17.0508 14.2951 15.0279 15.1039 12.8735L15.0507 12.8533C14.3298 12.5654 13.6967 12.1097 13.2097 11.5283C13.112 11.4151 12.9972 11.3163 12.8692 11.235C12.5914 11.0561 12.2793 10.9309 11.9506 10.8667C11.6219 10.8025 11.2832 10.8005 10.9537 10.8607C9.97469 11.0226 9.31493 11.5485 9.04889 12.4689C8.88927 13.0151 8.93183 13.5613 8.99568 14.1075C9.11714 15.2433 9.30902 16.3714 9.57032 17.4857C9.98534 19.3366 10.4216 21.1876 10.8473 23.0385C11.0176 23.8072 11.1772 24.5759 11.1772 25.3649C11.1878 25.8301 11.1665 26.3055 11.1559 26.7809C11.148 26.9606 11.1799 27.1399 11.2496 27.3072C11.3192 27.4745 11.4251 27.6259 11.5603 27.7519C11.8689 28.0452 12.2732 28.0654 12.6031 27.7923C12.7844 27.6388 12.942 27.4617 13.0714 27.2664C13.4168 26.7237 13.6717 26.1334 13.8269 25.5166C14.0078 24.8187 14.1355 24.1005 14.2845 23.3925C14.4193 22.7094 14.698 22.0591 15.1039 21.4809C15.2206 21.3259 15.3769 21.2017 15.5581 21.12C15.7393 21.0383 15.9394 21.0018 16.1396 21.014C16.3397 21.0261 16.5333 21.0865 16.7021 21.1894C16.8709 21.2923 17.0094 21.4344 17.1045 21.6023C17.1789 21.7641 17.2534 21.9259 17.3173 22.0878C17.6046 22.7958 17.6685 23.5341 17.7323 24.2826C17.7918 25.2615 17.9923 26.228 18.3282 27.1551C18.4559 27.4889 18.6049 27.8227 18.8603 28.0856C19.1157 28.3486 19.7542 28.4801 20.1373 28.1059C20.3663 27.8648 20.4917 27.5507 20.4884 27.2259C20.5097 26.4471 20.5523 25.6683 20.7651 24.9198C20.9779 24.1713 21.2972 23.1801 21.5632 22.3103C21.7016 21.8754 21.8505 21.4404 21.9995 20.9954ZM31.0341 28.9251C31.0359 28.7123 30.969 28.504 30.8425 28.3284C30.0232 27.0236 29.2038 25.729 28.395 24.4242L26.5753 21.5315C26.2667 21.0359 25.6602 20.8943 25.1281 21.1775L24.8621 21.3292C24.2981 21.6529 24.1384 22.2395 24.4683 22.7756L26.5647 26.1133L28.7462 29.5927C28.8142 29.7115 28.9073 29.8156 29.0196 29.8985C29.132 29.9815 29.2612 30.0414 29.3991 30.0747C29.537 30.1079 29.6806 30.1137 29.821 30.0917C29.9613 30.0697 30.0954 30.0203 30.2147 29.9467C30.3213 29.892 30.4244 29.8312 30.5233 29.7646C30.6791 29.6803 30.8085 29.5581 30.8983 29.4106C30.9881 29.2631 31.0349 29.0956 31.0341 28.9251ZM15.4976 15.1189C15.4976 16.4808 16.0653 17.7872 17.0765 18.7522C18.0877 19.7171 19.46 20.2618 20.8928 20.2672C23.915 20.2874 26.4051 17.9611 26.4157 15.1088C26.4213 14.428 26.2851 13.7529 26.0149 13.1224C25.7447 12.4918 25.3458 11.9184 24.8413 11.4351C24.3368 10.9518 23.7366 10.5682 23.0753 10.3065C22.4141 10.0447 21.7049 9.90996 20.9886 9.90998C17.9771 9.88975 15.5082 12.2363 15.4976 15.1189ZM24.8621 19.8323L23.766 20.4593C23.8618 20.6009 23.9469 20.7426 24.0427 20.874L25.1281 20.2571C25.0323 20.1155 24.9472 19.984 24.8621 19.8323Z" fill="#100E10"/>
<path d="M20.9348 19.7828C18.2319 19.7828 16.0185 17.7195 16.0079 15.1808C15.9972 12.642 18.1787 10.4169 20.9668 10.3966C23.7548 10.3764 25.8725 12.4701 25.8937 15.0392C25.8979 15.659 25.7735 16.2735 25.5275 16.8475C25.2815 17.4216 24.9188 17.9438 24.4602 18.3845C24.0015 18.8251 23.4559 19.1754 22.8547 19.4154C22.2534 19.6553 21.6082 19.7802 20.9561 19.7828H20.9348ZM20.9668 11.4283C19.9393 11.431 18.9546 11.8194 18.2271 12.509C17.4996 13.1985 17.0882 14.1334 17.0826 15.11C17.0826 16.0783 17.4874 17.0071 18.2078 17.6918C18.9282 18.3766 19.9053 18.7613 20.9242 18.7613C21.9535 18.7613 22.9409 18.374 23.6707 17.6842C24.4005 16.9943 24.8133 16.0579 24.819 15.0796C24.8161 14.1103 24.409 13.1816 23.6869 12.4971C22.9648 11.8127 21.9866 11.4283 20.9668 11.4283Z" fill="#100E10"/>
<path d="M20.9684 10.5176C23.7351 10.5479 25.757 12.6214 25.7783 15.0387C25.7811 16.2594 25.2759 17.4316 24.3727 18.2995C23.4696 19.1674 22.2419 19.6605 20.9577 19.6711C18.3186 19.6813 16.1478 17.6584 16.1371 15.1702C16.1287 14.5621 16.2474 13.9585 16.4864 13.3943C16.7254 12.8302 17.0799 12.3168 17.5294 11.8839C17.9789 11.4511 18.5143 11.1074 19.1047 10.8728C19.695 10.6383 20.3285 10.5175 20.9684 10.5176ZM20.9684 11.3065C19.908 11.3092 18.892 11.7107 18.1422 12.4233C17.3924 13.136 16.97 14.1017 16.9672 15.1095C16.9693 15.8588 17.2048 16.5908 17.6441 17.2129C18.0834 17.8351 18.7068 18.3197 19.4355 18.6055C20.1642 18.8914 20.9657 18.9656 21.7388 18.8189C22.5119 18.6723 23.222 18.3112 23.7794 17.7814C24.3369 17.2516 24.7167 16.5767 24.871 15.8419C25.0254 15.107 24.9472 14.3453 24.6465 13.6526C24.3458 12.96 23.836 12.3675 23.1814 11.9499C22.5268 11.5324 21.7567 11.3085 20.9684 11.3065Z" fill="#100E10"/>
</svg>
