<svg width="24" height="24" viewBox="0 0 24 24" fill="none" xmlns="http://www.w3.org/2000/svg">
<g clip-path="url(#clip0_1420_5600)">
<g clip-path="url(#clip1_1420_5600)">
<path d="M12.9272 3.05933C11.9436 3.06209 11.001 3.46722 10.3046 4.18646C9.60814 4.9057 9.21436 5.88078 9.20898 6.89933C9.20898 7.90936 9.59643 8.87803 10.2861 9.59224C10.9757 10.3064 11.9111 10.7077 12.8864 10.7077C13.8709 10.7049 14.8146 10.3001 15.5126 9.5812C16.2107 8.86226 16.6067 7.88718 16.6148 6.86768C16.6121 5.85667 16.2224 4.88803 15.5311 4.17412C14.8398 3.46022 13.9034 3.05932 12.9272 3.05933Z" fill="white"/>
<path d="M18.0201 6.90994C18.0255 5.50903 17.4947 4.16297 16.5439 3.16645C15.5931 2.16994 14.2998 1.60417 12.947 1.59302H12.9267C11.5684 1.60135 10.2683 2.16453 9.30879 3.16014C8.34932 4.15576 7.80808 5.50333 7.80273 6.90994C7.80273 8.30146 8.33581 9.63615 9.28498 10.6211C10.2342 11.606 11.5219 12.1608 12.8656 12.1636H12.8859C13.5561 12.1677 14.2206 12.0352 14.8413 11.7734C15.4621 11.5116 16.0269 11.1258 16.5037 10.638C16.9804 10.1501 17.3597 9.56979 17.6199 8.93013C17.8801 8.29048 18.016 7.60402 18.0201 6.90994ZM12.9267 11.7732H12.8961C10.3087 11.7732 8.18983 9.62115 8.17964 6.97324C8.16946 4.32533 10.2577 2.00445 12.9267 1.98335C15.5956 1.96225 17.6228 4.14598 17.6431 6.82554C17.6486 8.12853 17.1554 9.38068 16.2714 10.308C15.3875 11.2352 14.1848 11.7621 12.9267 11.7732Z" fill="white"/>
<path d="M8.13874 10.8659C6.72278 9.05143 6.39681 6.95209 7.171 4.63121C6.47868 4.32996 5.87209 3.85065 5.40869 3.23869C5.31784 3.1356 5.21904 3.04035 5.11328 2.95385C4.59145 2.60607 3.96108 2.47777 3.35097 2.59517C2.45453 2.75341 1.87389 3.28088 1.6294 4.17759C1.48679 4.70506 1.51735 5.24308 1.57847 5.8444C1.69057 7.02269 1.8743 8.19248 2.12856 9.34682C2.4036 10.7077 2.69901 12.0791 2.98424 13.4189L3.35097 15.149C3.54452 16.0457 3.66676 16.8053 3.67694 17.5965C3.67694 17.8919 3.66676 18.1978 3.66676 18.4932C3.66676 18.7886 3.65657 18.8835 3.65657 19.0734C3.64272 19.2452 3.66669 19.418 3.72669 19.5788C3.78668 19.7396 3.88113 19.8842 4.00292 20.0018C4.05981 20.0667 4.12891 20.1189 4.20599 20.1552C4.28306 20.1915 4.36649 20.2111 4.45114 20.2128C4.59817 20.2046 4.7382 20.1451 4.84842 20.044C5.01001 19.8856 5.15356 19.7087 5.27626 19.5165C5.59175 18.9564 5.82844 18.3525 5.97915 17.7231C6.10139 17.1956 6.20326 16.647 6.30513 16.109C6.34587 15.9086 6.37643 15.7187 6.41718 15.5182C6.54063 14.7874 6.81515 14.0929 7.22193 13.4822C7.33312 13.3115 7.48344 13.1721 7.65945 13.0763C7.83545 12.9806 8.03163 12.9316 8.23042 12.9336C8.45671 12.9334 8.67877 12.9971 8.87265 13.1179C9.06653 13.2388 9.22487 13.4122 9.33059 13.6193L9.54451 14.1363C9.82974 14.9064 9.89086 15.7292 9.9418 16.4571C9.99384 17.4685 10.186 18.4668 10.5123 19.4215C10.6072 19.7677 10.7741 20.0881 11.0012 20.3604C11.0652 20.4396 11.1445 20.5039 11.234 20.5493C11.3235 20.5948 11.4212 20.6203 11.5207 20.6242C11.6197 20.6222 11.7171 20.5987 11.8066 20.555C11.8961 20.5114 11.9758 20.4487 12.0403 20.371C12.1425 20.2582 12.2222 20.1255 12.2746 19.9807C12.3271 19.8358 12.3513 19.6816 12.3459 19.527C12.3662 18.7886 12.407 17.9235 12.6209 17.1007C12.8348 16.2778 13.008 15.6765 13.2117 14.9802C13.2729 14.7798 13.3238 14.5793 13.3849 14.3684L13.6702 13.4295C13.7007 13.3451 13.7211 13.2607 13.7516 13.1763C13.4743 13.2093 13.1955 13.2269 12.9163 13.229C10.9605 13.229 9.35097 12.4273 8.13874 10.8659Z" fill="white"/>
<path d="M20.4446 17.5647L19.4055 15.7713C19.0083 15.0645 18.6008 14.3683 18.1933 13.6614C18.1206 13.5224 18.0133 13.406 17.8826 13.3244C17.7518 13.2428 17.6023 13.1989 17.4497 13.1973C17.2813 13.1991 17.1163 13.2463 16.9709 13.3344L16.7977 13.4505L16.7162 13.4927C16.2273 13.7986 16.0948 14.3366 16.3801 14.8324L17.8164 17.3221L18.9369 19.2843C19.4463 20.1705 19.9556 21.0566 20.4751 21.9428C20.5472 22.0877 20.6569 22.2089 20.7919 22.2928C20.9268 22.3767 21.0818 22.4199 21.2392 22.4175C21.4087 22.414 21.5742 22.363 21.7179 22.2698L22.0133 22.0905C22.144 22.0065 22.2524 21.8903 22.3289 21.7522C22.4053 21.614 22.4474 21.4584 22.4514 21.2992C22.442 21.1037 22.3822 20.9142 22.2782 20.7507L20.4446 17.5647Z" fill="white"/>
<path d="M23.6432 19.9807L23.0524 18.9468L22.1254 17.3433L20.5159 14.5477L19.5074 12.7965C19.2314 12.3143 18.8032 11.9455 18.2952 11.7521L18.0813 11.3934L18.01 11.2668C19.3444 9.58945 19.8334 7.66945 19.4463 5.54901C19.1523 3.99295 18.3475 2.59016 17.1685 1.57871C15.9894 0.567265 14.5087 0.00947144 12.9777 0L12.9064 0C12.6268 9.98022e-05 12.3477 0.0212545 12.0711 0.0632967C10.1254 0.337582 8.56684 1.31868 7.45648 2.98549C7.15102 2.80387 6.87865 2.56821 6.65173 2.28923C6.46147 2.04645 6.23847 1.83327 5.98959 1.65626C5.3624 1.20234 4.61554 0.959258 3.85037 0.96H3.80962C3.6047 0.956594 3.39997 0.974263 3.19842 1.01275C1.71115 1.23429 0.682289 2.10989 0.213698 3.53407C-0.0511577 4.33582 -0.0205974 5.15868 0.0507099 5.91824C0.166153 7.14903 0.353251 8.37147 0.610981 9.5789C0.967518 11.3723 1.37499 13.2818 1.84358 15.4127C2.10086 16.5385 2.19696 17.6972 2.12881 18.8519C2.06553 19.5708 2.26148 20.2886 2.67889 20.8668C2.88453 21.1516 3.1501 21.3842 3.45544 21.5468C3.76079 21.7095 4.0979 21.798 4.4412 21.8057H4.45139C4.74501 21.8012 5.03485 21.7364 5.30413 21.615C5.57341 21.4937 5.81678 21.3183 6.02015 21.0989C6.25649 20.8628 6.45889 20.5928 6.62117 20.2971C7.01422 19.6197 7.30291 18.8829 7.47686 18.1134C7.5991 17.5965 7.71115 17.0374 7.8232 16.436C7.83339 16.3516 7.85377 16.2673 7.87414 16.1723C7.88618 16.0765 7.90319 15.9814 7.92507 15.8875C7.97612 15.5713 8.0651 15.263 8.18993 14.9697C8.32236 15.4127 8.3631 15.898 8.40385 16.4255V16.5521C8.4602 17.5722 8.63463 18.5816 8.92337 19.5587C9.08636 20.1073 9.31047 20.7402 9.73831 21.2888C9.94022 21.5751 10.2036 21.809 10.5076 21.9719C10.8117 22.1348 11.1481 22.2224 11.4904 22.2277H11.5006C11.8435 22.2251 12.1815 22.1433 12.4899 21.9882C12.7983 21.833 13.0694 21.6085 13.2833 21.331C13.6612 20.8503 13.8728 20.2523 13.8843 19.6325C13.9047 18.8624 14.0066 17.7547 14.2409 16.9319C14.4242 16.3095 14.6178 15.687 14.8011 15.0752C14.8607 15.2761 14.9464 15.4678 15.0558 15.6448L17.3478 19.6536L18.2341 21.1938L18.5193 21.7002L18.9471 22.4387L19.1509 22.7974C19.362 23.1655 19.6615 23.4707 20.0203 23.6833C20.3792 23.8959 20.785 24.0086 21.1984 24.0105H21.2901L21.5244 23.9789C22.1763 23.9156 22.6653 23.5569 22.9913 23.3248H23.0015C23.4972 22.955 23.8391 22.4042 23.9582 21.7836C24.0773 21.163 23.9647 20.5187 23.6432 19.9807ZM22.7061 22.8818C22.3699 23.1244 21.9726 23.3987 21.4735 23.4409L21.2494 23.4725C20.9172 23.483 20.5885 23.4002 20.298 23.2331C20.0075 23.066 19.766 22.8207 19.5991 22.5231L18.9573 21.4154L18.6823 20.9196L17.7859 19.3688L15.4938 15.3705C15.355 15.1422 15.2634 14.8864 15.2248 14.6195C15.1862 14.3526 15.2015 14.0803 15.2697 13.8198V13.7459C15.1577 13.5349 15.0354 13.324 14.9132 13.1235L14.8724 13.0497C14.8419 13.1657 14.8011 13.2818 14.7706 13.3978L14.5465 14.1468C14.2816 15.0224 14.0168 15.898 13.7621 16.7736C13.5074 17.6492 13.3954 18.8202 13.375 19.6114C13.3671 20.111 13.1986 20.5935 12.8962 20.9829C12.7277 21.1993 12.5154 21.3748 12.2743 21.4969C12.0331 21.619 11.769 21.6848 11.5006 21.6897C11.2357 21.686 10.9752 21.6183 10.74 21.4919C10.5047 21.3655 10.3013 21.184 10.1458 20.9618C9.77906 20.487 9.57533 19.9279 9.41234 19.3899C9.13446 18.4542 8.96686 17.4872 8.91319 16.5099V16.3938C8.87244 15.7925 8.82151 15.1701 8.61777 14.5899C8.56684 14.4422 8.5159 14.3051 8.4446 14.1468C8.42657 14.1076 8.39948 14.0736 8.36571 14.0478C8.33195 14.0221 8.29256 14.0053 8.25105 13.9991C8.21052 13.9991 8.17081 14.0109 8.13655 14.0334C8.10228 14.0558 8.07487 14.0878 8.0575 14.1257C7.73832 14.6265 7.52324 15.1905 7.42592 15.782C7.39536 15.9719 7.35461 16.1512 7.32405 16.3411C7.22219 16.8897 7.11013 17.4488 6.98789 17.9974C6.8183 18.7135 6.5471 19.3997 6.18314 20.0334C6.03637 20.2854 5.86205 20.519 5.66361 20.7297C5.50826 20.9018 5.32061 21.0392 5.11217 21.1335C4.90372 21.2278 4.67887 21.2771 4.45139 21.2782C4.18642 21.2746 3.92594 21.2069 3.69072 21.0805C3.45549 20.9541 3.25203 20.7726 3.09655 20.5503C2.74608 20.0786 2.58217 19.4864 2.63815 18.8941C2.7084 17.683 2.6089 16.4677 2.34273 15.2862C1.93526 13.4295 1.5176 11.4778 1.11013 9.47341C0.855812 8.28353 0.672106 7.07863 0.560048 5.86549C0.498927 5.21143 0.45818 4.44132 0.702662 3.70286C1.11013 2.45802 1.97601 1.73011 3.27991 1.52967C3.46521 1.49949 3.65262 1.48538 3.84018 1.48747C4.50582 1.48928 5.15547 1.69883 5.70436 2.08879C5.91246 2.24271 6.10074 2.42352 6.26463 2.62681C6.62788 3.08091 7.09306 3.43588 7.61947 3.66066H7.63984L7.66022 3.62901C8.70945 1.8778 10.2171 0.854505 12.1424 0.58022C12.4192 0.541329 12.6984 0.523699 12.9777 0.527473C14.3909 0.532488 15.7586 1.04534 16.8473 1.97848C17.936 2.91162 18.6782 4.20718 18.9471 5.64396C19.3241 7.71165 18.8045 9.5789 17.3988 11.193L17.3784 11.2141H17.3886L17.6534 11.6677L17.9285 12.1424C17.9369 12.1584 17.9485 12.1724 17.9625 12.1833C17.9766 12.1942 17.9928 12.2019 18.01 12.2057C18.4539 12.3543 18.8328 12.6607 19.0796 13.0708C19.9556 14.5899 20.8215 16.109 21.6976 17.6176L22.6144 19.2211L23.2154 20.2549C23.4584 20.6807 23.5408 21.1845 23.4468 21.6694C23.3528 22.1543 23.0889 22.5861 22.7061 22.8818Z" fill="white"/>
<path d="M16.6141 11.9946L15.7686 12.5116L15.901 12.7542L16.7465 12.2267L16.6141 11.9946Z" fill="white"/>
</g>
</g>
<defs>
<clipPath id="clip0_1420_5600">
<rect width="24" height="24" fill="white" transform="matrix(-1 0 0 1 24 0)"/>
</clipPath>
<clipPath id="clip1_1420_5600">
<rect width="24" height="24" fill="white"/>
</clipPath>
</defs>
</svg>
