<svg width="24" height="24" viewBox="0 0 24 24" fill="none" xmlns="http://www.w3.org/2000/svg">
<g clip-path="url(#clip0_1420_5612)">
<path d="M15.6699 12.9891C15.1247 12.1429 15.0981 11.9948 15.0848 11.0111C15.0848 10.514 14.7922 10.2812 14.1539 10.2812H9.89862C9.53958 10.2812 9.28692 10.3447 9.12735 10.4716C8.96777 10.5986 8.90128 10.789 8.91458 11.064C8.94118 11.8361 8.76831 12.4496 8.34277 12.9891H15.6699Z" fill="white"/>
<path d="M18.7687 9.44552C18.1716 9.19339 17.5372 9.00151 16.8804 8.87434C15.3055 8.58812 13.6953 8.44266 12.0798 8.44067C10.6439 8.44207 9.21102 8.54472 7.79791 8.74742C7.05323 8.85319 6.08249 9.02243 5.21813 9.44552C4.92557 9.58303 4.7793 9.70995 4.7793 9.80515C4.7793 9.90035 4.92557 10.0379 5.21813 10.1754C5.97611 10.5456 6.84047 10.7148 7.73142 10.8629C7.73375 10.8024 7.74265 10.7423 7.75802 10.6831C7.81878 10.3146 8.04451 9.97601 8.39379 9.72926C8.74308 9.48252 9.1925 9.34423 9.65962 9.33975H14.3538C14.7803 9.34376 15.1931 9.46014 15.5275 9.67068C15.862 9.88121 16.0992 10.174 16.2022 10.5033C16.2415 10.6067 16.2682 10.713 16.282 10.8206V10.8629C17.2128 10.7042 18.0373 10.5456 18.7687 10.1859C19.0878 10.0379 19.2474 9.90035 19.2341 9.79457C19.2208 9.6888 19.0745 9.56187 18.7687 9.44552Z" fill="white"/>
<path d="M5.84273 14.4591L6.6539 15.9188C6.9204 16.3918 7.06509 16.9025 7.07943 17.4208C7.06432 18.4428 7.25283 19.4602 7.63795 20.4353C7.85071 20.9642 8.12997 21.4931 8.39592 22.0008L8.5156 22.2335C8.54927 22.3163 8.61498 22.3885 8.70335 22.4398C8.79173 22.4911 8.89823 22.5188 9.00763 22.5191H9.12731C9.47305 22.4556 9.55284 22.2335 9.56614 22.0537V21.7787C9.6023 20.2913 9.84762 18.8118 10.2975 17.3679C10.3795 17.0656 10.5892 16.7948 10.8916 16.6004C11.194 16.406 11.571 16.2999 11.9598 16.2996H11.9996C12.8241 16.2996 13.5156 16.7227 13.6752 17.3256C13.9411 18.3304 14.1406 19.2401 14.3002 20.0969C14.3667 20.5517 14.3933 21.0171 14.4066 21.4719C14.4199 21.6517 14.4199 21.821 14.4332 22.0008C14.4465 22.1806 14.5262 22.371 14.7124 22.4556C14.7954 22.4986 14.8927 22.5207 14.9917 22.5191C15.2044 22.5191 15.3906 22.4133 15.5103 22.2123C16.4135 20.7611 16.8952 19.1669 16.9199 17.5477C16.9167 16.9587 17.0803 16.3766 17.3986 15.8448C17.5981 15.5063 17.7842 15.1572 17.9704 14.8293C18.0369 14.6918 18.1167 14.5543 18.1965 14.4274C18.2762 14.3005 18.3427 14.1524 18.4225 14.0149L18.4491 13.9514H5.56348L5.84273 14.4591Z" fill="white"/>
<path d="M19.7254 1.04716C18.6349 0.338475 17.3583 0 15.8291 0C15.1996 0.0104018 14.5723 0.0634808 13.9541 0.15866C13.2496 0.276303 12.581 0.5027 11.986 0.825033C11.6935 0.687528 11.4275 0.560599 11.1482 0.454826C10.1908 0.0740415 9.18015 0.0211547 8.2493 0.0211547H7.86367C7.01204 0.0361466 6.17419 0.195271 5.40592 0.487934C4.63764 0.780596 3.95656 1.20008 3.40801 1.71846C2.85947 2.23685 2.45605 2.84223 2.22461 3.49431C1.99318 4.14638 1.93904 4.8302 2.06579 5.50022L2.27856 6.52622C2.49133 7.5628 2.69079 8.57823 2.83707 9.5725C2.98335 10.5668 3.60835 11.2331 4.77856 11.6562H4.79186L4.85835 11.6774C5.06544 11.7553 5.27865 11.8224 5.49664 11.8784H5.50994L6.78654 12.1639C6.70391 12.2682 6.60567 12.3641 6.49398 12.4495H4.81845C4.08707 12.4495 3.74133 12.7351 3.59505 12.8938C3.44877 13.0524 3.2626 13.4544 3.55516 13.9833L3.9275 14.6708C4.03388 14.8506 4.14026 15.0304 4.23335 15.2102C4.45941 15.591 4.67218 15.9929 4.89824 16.3737C5.11602 16.7372 5.22957 17.1346 5.23069 17.5372C5.27454 19.3793 5.82369 21.1914 6.83973 22.8471C7.27856 23.5558 8.08973 23.9788 9.00728 23.9788H9.5259C10.6296 23.7779 11.3477 23.0692 11.4142 22.1278V22.1067C11.4275 21.9692 11.4408 21.8211 11.4408 21.673C11.4383 21.5917 11.4427 21.5105 11.4541 21.4297C11.4603 20.991 11.5003 20.553 11.5738 20.1181C11.6935 19.4623 11.853 18.7854 12.0259 18.1402C12.3705 19.3629 12.5576 20.6104 12.5844 21.8634C12.5717 22.1242 12.6122 22.385 12.7041 22.6355C12.832 23.0067 13.1015 23.3373 13.4754 23.5816C13.8493 23.826 14.3092 23.9721 14.7919 24H15.0046C15.4574 23.9964 15.8998 23.8913 16.2809 23.6967C16.6619 23.5021 16.9663 23.2259 17.1589 22.9C18.1853 21.2393 18.7393 19.4192 18.7812 17.569V17.5478C18.7728 17.1682 18.8728 16.7921 19.0738 16.4478C19.4461 15.8237 19.7919 15.1891 20.1376 14.565L20.47 13.9621C20.5743 13.8049 20.6265 13.6293 20.6219 13.4516C20.6172 13.274 20.5558 13.1002 20.4435 12.9467C20.3105 12.7669 19.978 12.4707 19.2599 12.4707H17.5179C17.4029 12.3918 17.3042 12.299 17.2254 12.1957L17.6376 12.1111C18.6482 11.8889 19.4727 11.6457 20.2041 11.1697C20.6793 10.8777 20.99 10.448 21.0685 9.97444C21.2147 9.17056 21.3876 8.30322 21.6137 7.17144C21.6669 6.91759 21.72 6.67431 21.7599 6.42045C21.7998 6.16659 21.8663 5.91274 21.9062 5.66946C22.2786 3.76554 21.5472 2.21067 19.7254 1.04716ZM21.2546 5.58484C21.1615 6.09255 21.0552 6.58969 20.9621 7.0974C20.7759 8.01763 20.5897 8.95901 20.4169 9.9004C20.3496 10.2378 20.1268 10.5433 19.7919 10.7572C19.1536 11.1803 18.3956 11.4024 17.4647 11.6033L16.6137 11.7726L16.3477 11.8255C16.4391 12.278 16.7493 12.6842 17.2121 12.9573C17.2836 12.9924 17.3679 13.0074 17.4514 12.9996H19.2599C19.619 12.9996 19.7919 13.1159 19.8716 13.2217C19.9514 13.3275 20.0179 13.4861 19.8716 13.74L19.6722 14.0996C19.2865 14.7977 18.8876 15.5275 18.4754 16.2257C18.2298 16.6424 18.107 17.0982 18.1163 17.5584C18.0772 19.3317 17.5459 21.0763 16.5605 22.6673C16.4179 22.9035 16.1958 23.1038 15.9188 23.2457C15.6418 23.3876 15.3207 23.4656 14.9913 23.4711H14.845C14.4981 23.4543 14.1666 23.3513 13.897 23.1768C13.6275 23.0022 13.4335 22.7648 13.3424 22.498C13.2721 22.2913 13.2408 22.0774 13.2493 21.8634C13.2191 20.4439 12.9871 19.0316 12.5578 17.6536C12.4913 17.4209 12.345 17.294 12.0924 17.2622H11.986C11.8572 17.2617 11.7327 17.2993 11.6369 17.3677C11.541 17.4362 11.4806 17.5305 11.4674 17.6324L11.3876 17.9709C11.2147 18.6479 11.0419 19.3565 10.9222 20.0441C10.834 20.5808 10.7852 21.1212 10.7759 21.6624C10.7759 21.8105 10.7626 21.948 10.7493 22.0961C10.7094 22.8048 10.2041 23.3125 9.37962 23.4606H9.00728C8.34239 23.4606 7.75728 23.1432 7.43813 22.6249C6.45816 21.0404 5.93137 19.3029 5.89558 17.5372C5.88815 17.0626 5.75682 16.5943 5.50994 16.1622C5.1775 15.6016 4.85835 15.0198 4.5392 14.4592L4.16686 13.7823C4.03388 13.539 4.02058 13.3486 4.14026 13.2111C4.25994 13.0736 4.48601 12.989 4.81845 12.989H6.54718C6.67801 12.9771 6.80221 12.9369 6.90622 12.8726C7.29118 12.6001 7.55673 12.237 7.6642 11.8361L7.18547 11.7303L5.70941 11.3918C5.509 11.3393 5.31348 11.2757 5.1243 11.2014L5.05781 11.1803C4.10037 10.8312 3.60835 10.3023 3.50196 9.51961C3.35569 8.49361 3.14292 7.45703 2.93016 6.4416L2.73069 5.4156C2.61116 4.82022 2.65505 4.21132 2.85934 3.63071C3.06364 3.0501 3.42349 2.51154 3.9142 2.05201C4.40175 1.59125 5.00764 1.21882 5.69115 0.959759C6.37465 0.700694 7.11995 0.560986 7.87696 0.550022H8.2493C9.10037 0.550022 10.0046 0.592331 10.8557 0.930807C11.1482 1.04716 11.4275 1.17409 11.7068 1.31159L12.0259 1.47025C12.6227 1.0778 13.3298 0.805668 14.0871 0.67695C14.6653 0.58529 15.2528 0.535725 15.8424 0.528867C17.2121 0.528867 18.3424 0.83561 19.3131 1.45967C20.9355 2.49625 21.5871 3.88189 21.2546 5.58484Z" fill="white"/>
<path d="M17.9971 1.88287C17.1992 1.53382 16.3348 1.49151 15.6035 1.49151H15.3907C14.3246 1.48004 13.2946 1.79864 12.5184 2.38001C12.3455 2.51751 12.1859 2.60213 11.9997 2.60213C11.8136 2.60213 11.6407 2.49636 11.4811 2.38001C10.9296 1.94867 10.2233 1.66409 9.45984 1.56555C9.03192 1.52333 8.60114 1.50214 8.16995 1.50209H7.8508C7.31464 1.5117 6.78612 1.60525 6.29543 1.77738C5.80474 1.94952 5.36149 2.19686 4.99102 2.5053C4.62054 2.81373 4.3301 3.1772 4.13628 3.57494C3.94247 3.97269 3.84907 4.39691 3.86144 4.82337C3.85923 4.90109 3.86367 4.97884 3.87473 5.05608C3.94122 5.55321 4.04761 6.05035 4.14069 6.5369C4.19388 6.74845 4.23378 6.94942 4.27367 7.15039C4.34016 7.54175 4.41995 7.92254 4.48644 8.29274L4.55293 8.62064L5.00505 8.47256C5.43059 8.33505 5.88271 8.17639 6.33484 8.07062C7.90399 7.67926 9.52633 7.58406 10.763 7.53118L12.0928 7.51002C13.6145 7.50678 15.133 7.62012 16.6274 7.8485C17.4918 7.99658 18.4891 8.19755 19.4598 8.66295L19.6327 7.71099C19.7923 6.88596 19.9519 6.08208 20.1114 5.2782C20.2362 4.60829 20.1006 3.92404 19.7227 3.31718C19.3448 2.71032 18.7427 2.20986 17.9971 1.88287ZM7.97048 2.93003H7.8508C7.28018 2.94078 6.73667 3.12587 6.33306 3.44691C5.92946 3.76794 5.69676 4.20026 5.68325 4.65414V4.75991L4.52633 4.78106V4.67529C4.5159 4.33428 4.59308 3.99517 4.75313 3.6787C4.91319 3.36224 5.15276 3.07509 5.45718 2.83483C5.74671 2.58685 6.09613 2.38785 6.48456 2.24973C6.87298 2.11161 7.29242 2.0372 7.71782 2.03095H7.97048V2.93003Z" fill="white"/>
</g>
<defs>
<clipPath id="clip0_1420_5612">
<rect width="20" height="24" fill="white" transform="translate(2)"/>
</clipPath>
</defs>
</svg>
