<svg width="18" height="24" viewBox="0 0 18 24" fill="none" xmlns="http://www.w3.org/2000/svg">
<path d="M6.11241 24C5.47146 24 4.90742 23.668 4.59976 23.1259C3.65508 21.4683 3.14726 19.6507 3.11276 17.8036C3.10826 17.3068 2.98154 16.8165 2.741 16.3651C2.42053 15.7787 2.11287 15.1701 1.80521 14.5837L1.44628 13.8755C1.31809 13.621 1.30527 13.4219 1.42064 13.278C1.53601 13.1342 1.75394 13.0456 2.07441 13.0456H3.74089C3.86701 13.0332 3.98674 12.9911 4.087 12.9239C4.46024 12.6404 4.71667 12.2598 4.81769 11.8396L4.3562 11.7178L2.93329 11.3638C2.74009 11.3089 2.55162 11.2423 2.36925 11.1646L2.30516 11.1425C1.38219 10.7773 0.907882 10.2241 0.80533 9.40526C0.664321 8.33195 0.459216 7.24758 0.254111 6.18534L0.0618259 5.11203C-0.0516827 4.48921 -0.00853996 3.8526 0.188322 3.24545C0.385184 2.6383 0.731152 2.07484 1.20272 1.59336C1.67381 1.11246 2.25811 0.723622 2.91676 0.452711C3.57541 0.181801 4.29333 0.0350209 5.02279 0.0221297H5.38172C6.20214 0.0221297 7.07383 0.0663895 7.89425 0.42047C8.17627 0.542185 8.44547 0.674965 8.71467 0.81881L9.02233 0.984785C9.59656 0.572745 10.2786 0.28788 11.0093 0.154909C11.5667 0.059205 12.1331 0.00735648 12.7014 0C14.0217 0 15.1114 0.320885 16.0472 0.97372C17.6111 2.05809 18.2392 3.50761 17.9187 5.28907C17.829 5.82019 17.7264 6.34025 17.6367 6.87137C17.4573 7.83402 17.2778 8.81881 17.1111 9.80359C17.0512 10.1581 16.8354 10.479 16.5086 10.6999C15.8933 11.1425 15.1626 11.3748 14.2653 11.5851L13.4449 11.7621L13.1885 11.8174C13.2841 12.2884 13.5816 12.7111 14.0218 13.0014C14.0907 13.0382 14.172 13.0538 14.2525 13.0456H15.9959C16.342 13.0456 16.5086 13.1674 16.5856 13.278C16.6625 13.3887 16.7266 13.5546 16.5856 13.8202L16.3933 14.1964C16.0215 14.9267 15.6369 15.6902 15.2396 16.4205C15.0062 16.8574 14.888 17.3336 14.8934 17.8147C14.8609 19.6703 14.3485 21.4962 13.3936 23.1591C13.2574 23.407 13.0436 23.6172 12.7763 23.7658C12.509 23.9144 12.1989 23.9955 11.881 24H11.74C11.4061 23.9807 11.0874 23.8724 10.8279 23.6901C10.5684 23.5077 10.381 23.2603 10.2914 22.982C10.2266 22.7653 10.1964 22.5419 10.2017 22.3181C10.1753 20.833 9.95167 19.3554 9.53509 17.9142C9.47099 17.6708 9.32998 17.538 9.08642 17.5048H8.98387C8.8605 17.5067 8.74203 17.5468 8.6502 17.618C8.55837 17.6891 8.49933 17.7864 8.48393 17.8921L8.40701 18.2462C8.24037 18.9544 8.07372 19.6957 7.95835 20.4149C7.84298 21.1342 7.84298 21.5546 7.81734 22.1079C7.81734 22.2628 7.80452 22.4066 7.7917 22.5615C7.75324 23.3029 7.26612 23.834 6.47134 23.9889L6.11241 24ZM8.99669 16.4979C9.79147 16.4979 10.4581 16.9405 10.6119 17.5712C10.8683 18.6224 11.0606 19.574 11.2144 20.4703C11.2785 20.9461 11.3041 21.4329 11.3169 21.9087C11.3298 22.0968 11.3298 22.2739 11.3426 22.462C11.3554 22.6501 11.4323 22.8492 11.6118 22.9378C11.6932 22.98 11.786 23.0029 11.881 23.0041C12.0861 23.0041 12.2655 22.8935 12.3809 22.6833C13.2562 21.1665 13.7208 19.498 13.7397 17.8036C13.7422 17.1879 13.8997 16.5801 14.2012 16.0221C14.3935 15.668 14.573 15.3029 14.7524 14.9599C14.8165 14.816 14.8934 14.6722 14.9704 14.5394C15.0473 14.4066 15.1114 14.2517 15.1883 14.1079L15.2139 14.0415H2.79228L3.06148 14.5726L3.84344 16.0996C4.10733 16.5924 4.24715 17.1279 4.25365 17.6708C4.23951 18.7399 4.42122 19.8042 4.79205 20.8243C4.99715 21.3776 5.26635 21.9308 5.52273 22.462L5.6381 22.7054C5.67221 22.7911 5.73599 22.8657 5.82081 22.9192C5.90564 22.9726 6.00742 23.0023 6.11241 23.0041H6.22778C6.56107 22.9378 6.63799 22.7054 6.65081 22.5173V22.2296C6.6862 20.6737 6.92268 19.1261 7.35585 17.6155C7.43491 17.2993 7.63701 17.0159 7.92853 16.8126C8.22006 16.6093 8.58344 16.4982 8.95823 16.4979H8.99669ZM12.5347 13.0346C12.0092 12.1494 11.9835 11.9945 11.9707 10.9654C11.9707 10.4454 11.6887 10.2019 11.0734 10.2019H6.97128C6.62517 10.2019 6.38161 10.2683 6.22778 10.4011C6.07395 10.5339 6.00986 10.7331 6.02268 11.0207C6.04831 11.8285 5.88167 12.4703 5.47146 13.0346H12.5347ZM8.95823 9.21715H11.2657C11.6768 9.22135 12.0747 9.3431 12.3971 9.56334C12.7196 9.78358 12.9483 10.0899 13.0475 10.4343C13.0818 10.5433 13.1075 10.6542 13.1244 10.7663V10.8105C14.0218 10.6445 14.8165 10.4786 15.5216 10.1024C15.8292 9.94744 15.9831 9.80359 15.9702 9.69294C15.9574 9.58229 15.8164 9.44952 15.5216 9.3278C14.9465 9.06297 14.3349 8.8622 13.7013 8.73029C12.1836 8.42837 10.6311 8.27617 9.07361 8.27662C7.6896 8.28157 6.30863 8.38892 4.94588 8.59751C4.22801 8.70816 3.29222 8.8852 2.45898 9.3278C2.17697 9.47165 2.03596 9.60443 2.03596 9.70401C2.03596 9.8036 2.17697 9.94744 2.45898 10.0913C3.18967 10.4786 4.0229 10.6556 4.88178 10.8105C4.88402 10.7473 4.8926 10.6844 4.90742 10.6224C4.96852 10.2379 5.18686 9.88497 5.52302 9.62727C5.85918 9.36957 6.29101 9.22411 6.74054 9.21715H8.95823ZM9.08642 7.3029C10.5533 7.29924 12.0172 7.41781 13.4577 7.65698C14.291 7.81189 15.2524 8.02213 16.1882 8.50899L16.3548 7.51314C16.5086 6.65007 16.6625 5.80913 16.8163 4.96819C16.9385 4.26726 16.8085 3.55085 16.4441 2.91569C16.0796 2.28052 15.4981 1.75718 14.7781 1.41632C14.0089 1.05118 13.1757 1.00692 12.4706 1.00692H12.2655C11.239 1.00064 10.2485 1.33313 9.49663 1.93638C9.32998 2.08022 9.17616 2.16874 8.99669 2.16874C8.81722 2.16874 8.65058 2.05809 8.49675 1.93638C7.96506 1.48515 7.28426 1.18746 6.54825 1.08437C6.13622 1.03593 5.72062 1.01374 5.30481 1.01798H4.99715C4.4562 1.02805 3.92346 1.1343 3.43221 1.3301C2.94097 1.52589 2.50178 1.80702 2.14208 2.15593C1.78238 2.50483 1.5099 2.91401 1.34166 3.35791C1.17341 3.8018 1.11302 4.27087 1.16426 4.73582C1.22836 5.25588 1.33091 5.77593 1.42064 6.28492C1.47192 6.50622 1.51038 6.71646 1.54883 6.92669C1.61293 7.3361 1.68984 7.73444 1.75394 8.12171L1.81803 8.46473L2.25388 8.30982C2.66409 8.16597 3.09994 8 3.53578 7.88935C5.04843 7.47994 6.61235 7.38036 7.80452 7.32503L9.08642 7.3029Z" fill="#100E10"/>
<path d="M4.94982 11.7623L2.96287 11.2533C2.75272 11.1948 2.54719 11.1246 2.34756 11.0431C1.52714 10.7111 1.0272 10.2243 0.924646 9.3944C0.732361 7.95595 0.437522 6.52856 0.168323 5.09011C-0.293162 2.5341 2.01426 0.177249 5.01392 0.132989C5.98816 0.121924 6.94959 0.144054 7.8341 0.520264C8.23149 0.697304 8.61606 0.90754 9.02627 1.11777C9.60313 0.719435 10.2697 0.387484 11.026 0.265769C12.7822 -0.0219214 14.4872 0.0334043 15.9485 1.05138C17.4099 2.06937 18.0893 3.57421 17.7817 5.26715C17.5125 6.77199 17.2304 8.27683 16.9741 9.78167C16.9138 10.1071 16.7178 10.4023 16.4229 10.6116C15.7819 11.0652 15.0128 11.2976 14.218 11.4857L13.0258 11.7291C13.1165 12.2665 13.4422 12.7535 13.936 13.0901C14.0274 13.1405 14.1354 13.1638 14.2436 13.1565H15.987C16.4485 13.1565 16.6408 13.411 16.4613 13.7761C16.0126 14.6503 15.5768 15.5133 15.1153 16.3764C14.8741 16.8272 14.7516 17.3184 14.7564 17.8149C14.7291 19.6521 14.2208 21.4603 13.2694 23.1039C13.1392 23.3558 12.9208 23.5661 12.6448 23.7051C12.3688 23.8441 12.0492 23.9047 11.7311 23.8785C11.4244 23.8573 11.1325 23.756 10.8943 23.5879C10.6561 23.4199 10.483 23.1932 10.3979 22.938C10.3401 22.7316 10.3142 22.5195 10.321 22.3073C10.2927 20.815 10.0691 19.3302 9.6544 17.8813C9.57749 17.6046 9.41084 17.4276 9.10319 17.3833C9.01795 17.3691 8.93026 17.3699 8.84542 17.3858C8.76058 17.4017 8.68036 17.4323 8.60964 17.4758C8.53891 17.5192 8.47915 17.5746 8.43398 17.6386C8.38881 17.7026 8.35917 17.7739 8.34686 17.8481C8.15458 18.689 7.94947 19.5299 7.82128 20.382C7.69309 21.234 7.70591 21.8093 7.65464 22.5286C7.60336 23.2478 7.16751 23.7125 6.42401 23.8564C5.68051 24.0002 5.05237 23.6904 4.70626 23.0818C3.76733 21.4387 3.26377 19.6358 3.23207 17.8038C3.22204 17.2921 3.09119 16.7876 2.8475 16.3211C2.39883 15.5023 1.98863 14.6613 1.55278 13.8315C1.33485 13.3999 1.51432 13.1565 2.06554 13.1565C2.61676 13.1565 3.18079 13.1676 3.73201 13.1565C3.8923 13.1448 4.04449 13.0907 4.16786 13.0016C4.59594 12.6854 4.87428 12.2443 4.94982 11.7623ZM16.269 8.6973C16.4998 7.42483 16.7049 6.20768 16.9356 4.97946C17.0659 4.25788 16.9336 3.51918 16.5571 2.8652C16.1805 2.21122 15.5783 1.67415 14.8333 1.32801C14.0257 0.940735 13.154 0.88541 12.2567 0.896475C11.1993 0.886621 10.1789 1.2318 9.41084 1.85913C9.06473 2.12469 8.9109 2.12469 8.57761 1.85913C8.02491 1.39019 7.31722 1.0809 6.5522 0.973929C6.02979 0.912918 5.50227 0.890707 4.97546 0.907539C2.6424 0.929669 0.783636 2.74433 1.0272 4.7471C1.12975 5.48845 1.28358 6.21874 1.41177 6.94903C1.53996 7.67932 1.61687 8.08873 1.70661 8.61985C2.33474 8.40961 2.93723 8.16618 3.56537 7.98914C4.937 7.624 6.35991 7.50228 7.79564 7.43589C9.68017 7.3468 11.5702 7.45829 13.4232 7.76784C14.4103 7.94488 15.3717 8.18831 16.269 8.6973ZM2.5783 13.9311C2.97569 14.6945 3.33462 15.4248 3.71919 16.1441C3.9717 16.6241 4.10698 17.1439 4.11658 17.671C4.10744 18.7515 4.29341 19.8267 4.6678 20.8577C4.89854 21.4995 5.2062 22.1192 5.51386 22.7499C5.56131 22.8776 5.66303 22.9852 5.79858 23.0509C5.93413 23.1165 6.09346 23.1355 6.24454 23.1039C6.56502 23.0486 6.7573 22.8384 6.77012 22.5175C6.76824 22.4215 6.77252 22.3254 6.78294 22.2298C6.81949 20.6813 7.05597 19.1411 7.48799 17.6378C7.56318 17.3479 7.74975 17.0884 8.01739 16.9016C8.28502 16.7148 8.61799 16.6116 8.96218 16.6088C9.68004 16.5977 10.321 16.9739 10.4748 17.5936C10.7056 18.5452 10.9235 19.5078 11.0773 20.4815C11.1799 21.1344 11.1671 21.7983 11.2055 22.4622C11.2183 22.6945 11.2824 22.9048 11.5388 23.0376C11.7952 23.1703 12.2823 23.0929 12.4874 22.7388C13.3727 21.205 13.8418 19.5174 13.859 17.8038C13.8596 17.2034 14.0128 16.6104 14.3077 16.0666C14.5769 15.5797 14.8205 15.0818 15.0769 14.5839L15.3973 13.9311H2.5783ZM4.97546 10.9435C5.0011 10.8218 5.01392 10.7333 5.02674 10.6447C5.07924 10.2847 5.2807 9.95319 5.59399 9.71123C5.90728 9.46927 6.31132 9.33317 6.73167 9.32801H11.2568C11.6385 9.33573 12.007 9.44982 12.3074 9.65324C12.6077 9.85666 12.8238 10.1385 12.9233 10.4566C12.9617 10.6116 12.9874 10.7665 13.013 10.9435C13.9231 10.7775 14.7948 10.6116 15.5896 10.2021C16.3844 9.79274 16.269 9.53824 15.5768 9.22842C14.9882 8.96098 14.364 8.75661 13.718 8.61985C10.7953 8.0334 7.85974 8.04447 4.91136 8.48707C4.02685 8.61985 3.16798 8.83008 2.38602 9.22842C1.60405 9.62676 1.73224 9.84806 2.3732 10.1911C3.01415 10.5341 4.05249 10.7775 4.97546 10.9435ZM5.21902 13.1454H12.731C12.1285 12.1275 12.1028 12.0389 12.09 10.9656C12.09 10.3792 11.7567 10.0915 11.0645 10.0915H6.96241C6.2189 10.0915 5.85997 10.3792 5.88561 11.032C5.91125 11.6849 5.77024 12.4926 5.21902 13.1454Z" fill="#100E10"/>
<path d="M1.79374 4.44721V4.33656C1.78444 3.97992 1.85918 3.62536 2.01343 3.2944C2.16768 2.96344 2.39823 2.66298 2.69107 2.41125C2.97154 2.15332 3.30866 1.94614 3.68279 1.80176C4.05693 1.65739 4.4606 1.57871 4.87031 1.57031H5.11387V2.51084H4.9985C4.44843 2.52208 3.92449 2.71571 3.53542 3.05154C3.14635 3.38738 2.92202 3.83963 2.909 4.31443V4.42508L1.79374 4.44721Z" fill="#100E10"/>
<path d="M2.78588 4.33851H1.92701C1.87573 2.8558 3.43965 1.62759 4.99076 1.69398V2.42427C4.40792 2.43563 3.8528 2.6413 3.44176 2.99816C3.03072 3.35502 2.79567 3.83537 2.78588 4.33851Z" fill="#100E10"/>
</svg>
