<svg width="76" height="77" viewBox="0 0 76 77" fill="none" xmlns="http://www.w3.org/2000/svg">
<g filter="url(#filter0_d_324_9865)">
<rect x="6" y="6.5" width="60" height="60" rx="30" fill="white"/>
<g clip-path="url(#clip0_324_9865)">
<path d="M45.7897 19.4446C44.5775 18.4649 43.1661 18 41.4724 18C40.7366 18.0033 40.0028 18.0756 39.2805 18.2159C38.3342 18.4161 37.4509 18.8435 36.7067 19.4613C36.5683 19.3937 36.4351 19.316 36.3082 19.2288C35.9428 19.0129 35.5941 18.797 35.2454 18.631C34.1661 18.0996 33.0369 18.0166 31.9742 18.0166H31.5093C30.5638 18.0339 29.633 18.2534 28.7795 18.6603C27.9259 19.0672 27.1693 19.6521 26.5606 20.3756C25.9518 21.0992 25.505 21.9447 25.2502 22.8553C24.9953 23.7659 24.9383 24.7205 25.0831 25.655C25.1661 26.203 25.2491 26.7343 25.3487 27.2823C25.5978 28.8598 25.8635 30.5037 26.0462 32.1144C26.179 33.3266 26.81 34.1568 27.989 34.7048L28.072 34.7546C28.3045 34.8542 28.5535 34.9705 28.8026 35.0535L30.6458 35.5849L31.2436 35.7509C31.1195 36.3803 30.7929 36.9518 30.3137 37.3782C30.1817 37.4864 30.019 37.5503 29.8487 37.5609H27.6901C27.2749 37.5609 26.9927 37.6771 26.8432 37.893C26.6938 38.1089 26.7104 38.4244 26.8764 38.8063C27.0425 39.1882 27.1919 39.5037 27.358 39.869C27.7399 40.7491 28.1384 41.6458 28.5535 42.5424C28.8633 43.2145 29.0274 43.9445 29.0351 44.6845C29.0793 47.4671 29.737 50.2056 30.9613 52.7048C31.3598 53.5184 32.0904 54 32.9207 54C33.077 53.9999 33.2329 53.9832 33.3856 53.9502C34.4152 53.7343 35.0628 52.9207 35.1126 51.8081C35.1126 51.5923 35.1292 51.3598 35.1292 51.1439C35.1624 50.297 35.2122 49.4336 35.3118 48.6033C35.4613 47.5074 35.6772 46.4114 35.893 45.3321L35.9927 44.8007C36.0126 44.6422 36.0891 44.4961 36.208 44.3893C36.327 44.2826 36.4804 44.2223 36.6403 44.2196H36.7731C37.0886 44.286 37.2713 44.4686 37.3709 44.8506C37.8962 47.0099 38.1802 49.2208 38.2177 51.4428C38.2098 51.7842 38.2489 52.125 38.334 52.4557C38.4563 52.8698 38.701 53.2372 39.0358 53.5099C39.3707 53.7825 39.7801 53.9475 40.2104 53.9834H40.393C40.8057 53.9806 41.2091 53.8604 41.556 53.637C41.903 53.4135 42.1792 53.096 42.3524 52.7214C43.593 50.2274 44.257 47.4864 44.2952 44.7011C44.2871 43.9825 44.4463 43.2719 44.7602 42.6255L46.238 39.2878L46.4871 38.7232C46.6698 38.3081 46.5868 38.0424 46.4871 37.893C46.3875 37.7435 46.1716 37.5609 45.7233 37.5609H43.465C43.3627 37.5702 43.2598 37.5531 43.1661 37.5111C42.6042 37.0609 42.2214 36.425 42.0868 35.7177L42.4355 35.6347C42.7881 35.5693 43.1373 35.4862 43.4816 35.3856C44.6439 35.0701 45.5904 34.7214 46.3875 34.0406C46.8134 33.7115 47.0936 33.2287 47.1679 32.6956C47.3838 31.2343 47.6163 29.7399 47.8487 28.2952C47.965 27.5148 48.0978 26.7177 48.2141 25.9207C48.6292 23.2472 47.8155 21.072 45.7897 19.4446ZM31.6421 21.786H31.4761C30.7607 21.803 30.0796 22.0959 29.5752 22.6034C29.0708 23.1109 28.7821 23.7938 28.7694 24.5092V24.6587H27.3414V24.5092C27.3293 23.974 27.4261 23.4419 27.6259 22.9453C27.8257 22.4486 28.1244 21.9977 28.5037 21.6199C28.8676 21.2336 29.3044 20.9231 29.7889 20.7065C30.2734 20.4899 30.7961 20.3715 31.3266 20.3579H31.6587L31.6421 21.786Z" fill="#161616"/>
</g>
</g>
<defs>
<filter id="filter0_d_324_9865" x="0" y="0.5" width="76" height="76" filterUnits="userSpaceOnUse" color-interpolation-filters="sRGB">
<feFlood flood-opacity="0" result="BackgroundImageFix"/>
<feColorMatrix in="SourceAlpha" type="matrix" values="0 0 0 0 0 0 0 0 0 0 0 0 0 0 0 0 0 0 127 0" result="hardAlpha"/>
<feOffset dx="2" dy="2"/>
<feGaussianBlur stdDeviation="4"/>
<feComposite in2="hardAlpha" operator="out"/>
<feColorMatrix type="matrix" values="0 0 0 0 0 0 0 0 0 0 0 0 0 0 0 0 0 0 0.04 0"/>
<feBlend mode="normal" in2="BackgroundImageFix" result="effect1_dropShadow_324_9865"/>
<feBlend mode="normal" in="SourceGraphic" in2="effect1_dropShadow_324_9865" result="shape"/>
</filter>
<clipPath id="clip0_324_9865">
<rect width="23.3137" height="36" fill="white" transform="translate(25 18)"/>
</clipPath>
</defs>
</svg>
