<svg width="76" height="77" viewBox="0 0 76 77" fill="none" xmlns="http://www.w3.org/2000/svg">
<g filter="url(#filter0_d_32_10034)">
<rect x="6" y="6.5" width="60" height="60" rx="30" fill="white"/>
<path d="M31.6686 54.4998C30.7072 54.4998 29.8611 54.0018 29.3996 53.1885C27.9826 50.7021 27.2209 47.9758 27.1691 45.2051C27.1624 44.46 26.9723 43.7245 26.6115 43.0475C26.1308 42.1678 25.6693 41.2549 25.2078 40.3753L24.6694 39.313C24.4771 38.9313 24.4579 38.6325 24.631 38.4168C24.804 38.201 25.1309 38.0682 25.6116 38.0682H28.1113C28.3005 38.0496 28.4801 37.9864 28.6305 37.8856C29.1904 37.4603 29.575 36.8895 29.7265 36.2591L29.0343 36.0765L26.8999 35.5454C26.6101 35.4631 26.3274 35.3632 26.0539 35.2466L25.9577 35.2134C24.5733 34.6657 23.8618 33.8359 23.708 32.6076C23.4965 30.9977 23.1888 29.3711 22.8812 27.7778L22.5927 26.1678C22.4225 25.2336 22.4872 24.2787 22.7825 23.3679C23.0778 22.4572 23.5967 21.612 24.3041 20.8898C25.0107 20.1684 25.8872 19.5852 26.8751 19.1788C27.8631 18.7725 28.94 18.5523 30.0342 18.533H30.5726C31.8032 18.533 33.1108 18.5993 34.3414 19.1305C34.7644 19.313 35.1682 19.5122 35.572 19.728L36.0335 19.9769C36.8948 19.3589 37.9179 18.9316 39.0139 18.7321C39.8501 18.5886 40.6996 18.5108 41.5521 18.4998C43.5326 18.4998 45.1671 18.9811 46.5707 19.9603C48.9166 21.5869 49.8588 23.7612 49.3781 26.4334C49.2435 27.23 49.0897 28.0101 48.9551 28.8068C48.6859 30.2508 48.4167 31.728 48.1667 33.2051C48.0767 33.7369 47.7531 34.2183 47.263 34.5495C46.34 35.2134 45.244 35.562 43.898 35.8773L42.6673 36.1429L42.2828 36.2259C42.4261 36.9324 42.8723 37.5664 43.5326 38.0018C43.636 38.0571 43.758 38.0805 43.8787 38.0682H46.4938C47.013 38.0682 47.263 38.2508 47.3783 38.4168C47.4937 38.5827 47.5899 38.8317 47.3783 39.23L47.0899 39.7944C46.5323 40.8898 45.9554 42.035 45.3593 43.1305C45.0092 43.7858 44.8319 44.5001 44.8402 45.2217C44.7913 48.0052 44.0227 50.7441 42.5904 53.2383C42.3861 53.6103 42.0654 53.9255 41.6644 54.1484C41.2635 54.3713 40.7983 54.493 40.3215 54.4998H40.1099C39.6091 54.4709 39.1311 54.3084 38.7419 54.0349C38.3526 53.7614 38.0714 53.3902 37.9371 52.9728C37.8399 52.6477 37.7946 52.3126 37.8025 51.9769C37.763 49.7492 37.4275 47.5328 36.8026 45.3711C36.7065 45.006 36.495 44.8068 36.1296 44.757H35.9758C35.7907 44.7598 35.613 44.82 35.4753 44.9267C35.3376 45.0334 35.249 45.1794 35.2259 45.3379L35.1105 45.8691C34.8605 46.9313 34.6106 48.0433 34.4375 49.1222C34.2645 50.201 34.2645 50.8317 34.226 51.6616C34.226 51.8939 34.2068 52.1097 34.1876 52.3421C34.1299 53.4541 33.3992 54.2508 32.207 54.4832L31.6686 54.4998ZM35.995 43.2466C37.1872 43.2466 38.1871 43.9105 38.4178 44.8566C38.8024 46.4334 39.0908 47.8607 39.3216 49.2051C39.4177 49.9188 39.4562 50.6491 39.4754 51.3628C39.4946 51.645 39.4946 51.9105 39.5139 52.1927C39.5331 52.4749 39.6485 52.7736 39.9177 52.9064C40.0397 52.9697 40.179 53.0041 40.3215 53.006C40.6291 53.006 40.8983 52.84 41.0714 52.5246C42.3842 50.2495 43.0812 47.7467 43.1096 45.2051C43.1133 44.2816 43.3495 43.3699 43.8018 42.5329C44.0903 42.0018 44.3595 41.4541 44.6287 40.9396C44.7248 40.7238 44.8402 40.5081 44.9555 40.3089C45.0709 40.1097 45.1671 39.8773 45.2824 39.6616L45.3209 39.562H26.6884L27.0922 40.3587L28.2652 42.6491C28.661 43.3884 28.8707 44.1916 28.8805 45.006C28.8593 46.6096 29.1318 48.2061 29.6881 49.7363C29.9957 50.5661 30.3995 51.396 30.7841 52.1927L30.9572 52.5578C31.0083 52.6864 31.104 52.7984 31.2312 52.8785C31.3585 52.9587 31.5111 53.0032 31.6686 53.006H31.8417C32.3416 52.9064 32.457 52.5578 32.4762 52.2757V51.8442C32.5293 49.5103 32.884 47.1889 33.5338 44.923C33.6524 44.4486 33.9555 44.0236 34.3928 43.7187C34.8301 43.4137 35.3752 43.2471 35.9373 43.2466H35.995ZM41.3021 38.0516C40.5137 36.7238 40.4753 36.4915 40.4561 34.9479C40.4561 34.1678 40.033 33.8027 39.1101 33.8027H32.9569C32.4378 33.8027 32.0724 33.9022 31.8417 34.1014C31.6109 34.3006 31.5148 34.5993 31.534 35.0309C31.5725 36.2425 31.3225 37.2051 30.7072 38.0516H41.3021ZM35.9373 32.3255H39.3985C40.0152 32.3318 40.6121 32.5144 41.0957 32.8448C41.5793 33.1751 41.9224 33.6346 42.0713 34.1512C42.1226 34.3148 42.1612 34.4811 42.1866 34.6491V34.7155C43.5326 34.4666 44.7248 34.2176 45.7824 33.6533C46.2438 33.4209 46.4746 33.2051 46.4554 33.0392C46.4361 32.8732 46.2246 32.674 45.7824 32.4915C44.9198 32.0942 44.0023 31.793 43.0519 31.5952C40.7754 31.1423 38.4466 30.914 36.1104 30.9147C34.0344 30.9221 31.9629 31.0831 29.9188 31.396C28.842 31.562 27.4383 31.8276 26.1885 32.4915C25.7654 32.7072 25.5539 32.9064 25.5539 33.0558C25.5539 33.2051 25.7654 33.4209 26.1885 33.6367C27.2845 34.2176 28.5344 34.4832 29.8227 34.7155C29.826 34.6207 29.8389 34.5263 29.8611 34.4334C29.9528 33.8566 30.2803 33.3272 30.7845 32.9407C31.2888 32.5541 31.9365 32.3359 32.6108 32.3255H35.9373ZM36.1296 29.4541C38.33 29.4486 40.5258 29.6265 42.6866 29.9852C43.9364 30.2176 45.3786 30.5329 46.7823 31.2632L47.0322 29.7695C47.263 28.4749 47.4937 27.2134 47.7244 25.952C47.9077 24.9006 47.7128 23.826 47.1661 22.8733C46.6193 21.9205 45.7471 21.1355 44.6671 20.6242C43.5134 20.0765 42.2635 20.0101 41.206 20.0101H40.8983C39.3585 20.0007 37.8728 20.4994 36.7449 21.4043C36.495 21.6201 36.2642 21.7529 35.995 21.7529C35.7258 21.7529 35.4759 21.5869 35.2451 21.4043C34.4476 20.7275 33.4264 20.2809 32.3224 20.1263C31.7043 20.0537 31.0809 20.0204 30.4572 20.0267H29.9957C29.1843 20.0418 28.3852 20.2012 27.6483 20.4949C26.9115 20.7886 26.2527 21.2103 25.7131 21.7336C25.1736 22.257 24.7648 22.8708 24.5125 23.5366C24.2601 24.2025 24.1695 24.9061 24.2464 25.6035C24.3425 26.3836 24.4964 27.1637 24.631 27.9271C24.7079 28.2591 24.7656 28.5744 24.8232 28.8898C24.9194 29.5039 25.0348 30.1014 25.1309 30.6823L25.227 31.1969L25.8808 30.9645C26.4961 30.7487 27.1499 30.4998 27.8037 30.3338C30.0726 29.7197 32.4185 29.5703 34.2068 29.4873L36.1296 29.4541Z" fill="#161616"/>
<path d="M29.9247 36.1432L26.9443 35.3797C26.6291 35.2919 26.3208 35.1866 26.0213 35.0644C24.7907 34.5665 24.0408 33.8362 23.887 32.5914C23.5985 30.4337 23.1563 28.2926 22.7525 26.1349C22.0603 22.3009 25.5214 18.7656 30.0209 18.6992C31.4822 18.6826 32.9244 18.7158 34.2512 19.2802C34.8472 19.5457 35.4241 19.8611 36.0394 20.1764C36.9047 19.5789 37.9046 19.081 39.0391 18.8984C41.6734 18.4669 44.2308 18.5499 46.4228 20.0768C48.6149 21.6038 49.634 23.8611 49.1725 26.4005C48.7687 28.6577 48.3457 30.915 47.9611 33.1723C47.8708 33.6604 47.5767 34.1032 47.1343 34.4171C46.1729 35.0976 45.0191 35.4461 43.827 35.7283L42.0387 36.0934C42.1748 36.8995 42.6633 37.6301 43.4039 38.1349C43.5412 38.2105 43.7032 38.2454 43.8654 38.2345H46.4805C47.1727 38.2345 47.4612 38.6163 47.192 39.164C46.519 40.4752 45.8652 41.7698 45.173 43.0644C44.8112 43.7405 44.6274 44.4774 44.6346 45.2221C44.5937 47.9779 43.8312 50.6902 42.4041 53.1557C42.2089 53.5335 41.8812 53.8489 41.4671 54.0574C41.0531 54.2659 40.5738 54.3568 40.0966 54.3175C39.6366 54.2858 39.1988 54.1337 38.8415 53.8817C38.4842 53.6296 38.2244 53.2895 38.0969 52.9067C38.0101 52.5971 37.9713 52.279 37.9815 51.9606C37.9391 49.7222 37.6036 47.4951 36.9816 45.3216C36.8662 44.9067 36.6163 44.6411 36.1548 44.5748C36.0269 44.5534 35.8954 44.5547 35.7681 44.5785C35.6409 44.6023 35.5205 44.6482 35.4145 44.7134C35.3084 44.7786 35.2187 44.8617 35.151 44.9577C35.0832 45.0537 35.0388 45.1606 35.0203 45.2719C34.7319 46.5333 34.4242 47.7947 34.2319 49.0727C34.0396 50.3507 34.0589 51.2138 33.982 52.2926C33.905 53.3714 33.2513 54.0685 32.136 54.2843C31.0208 54.5001 30.0786 54.0353 29.5594 53.1225C28.151 50.6577 27.3956 47.9534 27.3481 45.2055C27.3331 44.438 27.1368 43.6812 26.7713 42.9814C26.0983 41.7532 25.4829 40.4918 24.8292 39.247C24.5023 38.5997 24.7715 38.2345 25.5983 38.2345C26.4251 38.2345 27.2712 38.2511 28.098 38.2345C28.3384 38.2169 28.5667 38.1358 28.7518 38.0021C29.3939 37.5278 29.8114 36.8662 29.9247 36.1432ZM46.9035 31.5457C47.2496 29.637 47.5573 27.8113 47.9034 25.9689C48.0988 24.8866 47.9004 23.7785 47.3356 22.7976C46.7708 21.8166 45.8674 21.011 44.7499 20.4918C43.5385 19.9109 42.231 19.8279 40.885 19.8445C39.299 19.8297 37.7684 20.3475 36.6163 21.2885C36.0971 21.6868 35.8664 21.6868 35.3664 21.2885C34.5374 20.585 33.4758 20.1211 32.3283 19.9606C31.5447 19.8691 30.7534 19.8358 29.9632 19.8611C26.4636 19.8943 23.6755 22.6163 24.0408 25.6204C24.1946 26.7324 24.4254 27.8279 24.6177 28.9233C24.8099 30.0187 24.9253 30.6328 25.0599 31.4295C26.0021 31.1142 26.9058 30.749 27.848 30.4835C29.9055 29.9358 32.0399 29.7532 34.1935 29.6536C37.0203 29.52 39.8554 29.6872 42.6348 30.1515C44.1154 30.4171 45.5575 30.7822 46.9035 31.5457ZM26.3675 39.3963C26.9635 40.5416 27.5019 41.637 28.0788 42.7158C28.4576 43.4359 28.6605 44.2156 28.6749 45.0063C28.6612 46.6271 28.9401 48.2398 29.5017 49.7864C29.8478 50.749 30.3093 51.6785 30.7708 52.6245C30.842 52.8162 30.9946 52.9775 31.1979 53.076C31.4012 53.1746 31.6402 53.203 31.8668 53.1557C32.3475 53.0727 32.636 52.7573 32.6552 52.276C32.6524 52.132 32.6588 51.9879 32.6744 51.8445C32.7292 49.5217 33.084 47.2114 33.732 44.9565C33.8448 44.5216 34.1246 44.1324 34.5261 43.8522C34.9275 43.572 35.427 43.4171 35.9433 43.4129C37.0201 43.3963 37.9815 43.9606 38.2122 44.8901C38.5583 46.3175 38.8852 47.7615 39.116 49.2221C39.2698 50.2013 39.2506 51.1972 39.3083 52.193C39.3275 52.5416 39.4236 52.8569 39.8082 53.0561C40.1928 53.2553 40.9235 53.1391 41.2311 52.6079C42.5591 50.3073 43.2627 47.7758 43.2886 45.2055C43.2894 44.3048 43.5192 43.4153 43.9616 42.5997C44.3654 41.8694 44.7307 41.1225 45.1153 40.3756L45.596 39.3963H26.3675ZM29.9632 34.915C30.0016 34.7324 30.0209 34.5997 30.0401 34.4669C30.1189 33.9268 30.421 33.4295 30.891 33.0666C31.3609 32.7037 31.967 32.4995 32.5975 32.4918H39.3852C39.9577 32.5033 40.5105 32.6745 40.961 32.9796C41.4116 33.2847 41.7357 33.7075 41.8849 34.1847C41.9426 34.4171 41.981 34.6494 42.0195 34.915C43.3847 34.666 44.6923 34.4171 45.8844 33.803C47.0766 33.1889 46.9035 32.8071 45.8652 32.3424C44.9824 31.9412 44.046 31.6347 43.0771 31.4295C38.6929 30.5499 34.2896 30.5665 29.867 31.2304C28.5403 31.4295 27.252 31.7449 26.079 32.3424C24.9061 32.9399 25.0984 33.2719 26.0598 33.7864C27.0212 34.3009 28.5787 34.666 29.9632 34.915ZM30.3285 38.2179H41.5965C40.6927 36.6909 40.6543 36.5582 40.635 34.9482C40.635 34.0685 40.1351 33.637 39.0967 33.637H32.9436C31.8284 33.637 31.29 34.0685 31.3284 35.0478C31.3669 36.027 31.1554 37.2387 30.3285 38.2179Z" fill="#161616"/>
<path d="M25.1906 25.1706V25.0046C25.1767 24.4696 25.2888 23.9378 25.5201 23.4413C25.7515 22.9449 26.0973 22.4942 26.5366 22.1166C26.9573 21.7297 27.463 21.419 28.0242 21.2024C28.5854 20.9858 29.1909 20.8678 29.8055 20.8552H30.1708V22.266H29.9977C29.1726 22.2829 28.3867 22.5733 27.8031 23.0771C27.2195 23.5808 26.883 24.2592 26.8635 24.9714V25.1374L25.1906 25.1706Z" fill="#161616"/>
<path d="M26.6788 25.0075H25.3905C25.3136 22.7835 27.6595 20.9411 29.9861 21.0407V22.1362C29.1119 22.1532 28.2792 22.4617 27.6626 22.997C27.0461 23.5323 26.6935 24.2528 26.6788 25.0075Z" fill="#161616"/>
</g>
<defs>
<filter id="filter0_d_32_10034" x="0" y="0.5" width="76" height="76" filterUnits="userSpaceOnUse" color-interpolation-filters="sRGB">
<feFlood flood-opacity="0" result="BackgroundImageFix"/>
<feColorMatrix in="SourceAlpha" type="matrix" values="0 0 0 0 0 0 0 0 0 0 0 0 0 0 0 0 0 0 127 0" result="hardAlpha"/>
<feOffset dx="2" dy="2"/>
<feGaussianBlur stdDeviation="4"/>
<feComposite in2="hardAlpha" operator="out"/>
<feColorMatrix type="matrix" values="0 0 0 0 0 0 0 0 0 0 0 0 0 0 0 0 0 0 0.04 0"/>
<feBlend mode="normal" in2="BackgroundImageFix" result="effect1_dropShadow_32_10034"/>
<feBlend mode="normal" in="SourceGraphic" in2="effect1_dropShadow_32_10034" result="shape"/>
</filter>
</defs>
</svg>
