<svg width="24" height="24" viewBox="0 0 24 24" fill="none" xmlns="http://www.w3.org/2000/svg">
<g clip-path="url(#clip0_1310_6721)">
<path d="M16.4039 12.9891C15.7496 12.1429 15.7177 11.9948 15.7018 11.0111C15.7018 10.514 15.3507 10.2812 14.5847 10.2812H9.47835C9.0475 10.2812 8.74431 10.3447 8.55282 10.4716C8.36133 10.5986 8.28154 10.789 8.2975 11.064C8.32941 11.8361 8.12197 12.4496 7.61133 12.9891H16.4039Z" fill="white"/>
<path d="M20.1232 9.44552C19.4066 9.19339 18.6454 9.00151 17.8572 8.87434C15.9673 8.58812 14.0352 8.44266 12.0966 8.44067C10.3735 8.44207 8.654 8.54472 6.95828 8.74742C6.06466 8.85319 4.89977 9.02243 3.86253 9.44552C3.51147 9.58303 3.33594 9.70995 3.33594 9.80515C3.33594 9.90035 3.51147 10.0379 3.86253 10.1754C4.77211 10.5456 5.80934 10.7148 6.87849 10.8629C6.88128 10.8024 6.89196 10.7423 6.91041 10.6831C6.98332 10.3146 7.25419 9.97601 7.67333 9.72926C8.09248 9.48252 8.63178 9.34423 9.19232 9.33975H14.8253C15.3371 9.34376 15.8324 9.46014 16.2338 9.67068C16.6352 9.88121 16.9199 10.174 17.0434 10.5033C17.0906 10.6067 17.1227 10.713 17.1391 10.8206V10.8629C18.2562 10.7042 19.2455 10.5456 20.1232 10.1859C20.5062 10.0379 20.6976 9.90035 20.6817 9.79457C20.6657 9.6888 20.4902 9.56187 20.1232 9.44552Z" fill="white"/>
<path d="M4.61245 14.4591L5.58585 15.9188C5.90565 16.3918 6.07928 16.9025 6.09649 17.4208C6.07836 18.4428 6.30456 19.4602 6.76671 20.4353C7.02203 20.9642 7.35713 21.4931 7.67628 22.0008L7.8199 22.2335C7.86029 22.3163 7.93915 22.3885 8.0452 22.4398C8.15124 22.4911 8.27904 22.5188 8.41032 22.5191H8.55394C8.96883 22.4556 9.06458 22.2335 9.08054 22.0537V21.7787C9.12393 20.2913 9.41832 18.8118 9.9582 17.3679C10.0566 17.0656 10.3082 16.7948 10.6711 16.6004C11.034 16.406 11.4863 16.2999 11.9529 16.2996H12.0007C12.9901 16.2996 13.8199 16.7227 14.0114 17.3256C14.3305 18.3304 14.5699 19.2401 14.7614 20.0969C14.8412 20.5517 14.8731 21.0171 14.889 21.4719C14.905 21.6517 14.905 21.821 14.921 22.0008C14.9369 22.1806 15.0327 22.371 15.2561 22.4556C15.3556 22.4986 15.4724 22.5207 15.5912 22.5191C15.8465 22.5191 16.0699 22.4133 16.2135 22.2123C17.2973 20.7611 17.8754 19.1669 17.905 17.5477C17.9012 16.9587 18.0976 16.3766 18.4795 15.8448C18.7188 15.5063 18.9422 15.1572 19.1656 14.8293C19.2454 14.6918 19.3412 14.5543 19.4369 14.4274C19.5327 14.3005 19.6125 14.1524 19.7082 14.0149L19.7401 13.9514H4.27734L4.61245 14.4591Z" fill="white"/>
<path d="M21.2716 1.04716C19.9631 0.338475 18.4312 0 16.5961 0C15.8406 0.0104018 15.0879 0.0634808 14.3461 0.15866C13.5007 0.276303 12.6983 0.5027 11.9844 0.825033C11.6333 0.687528 11.3142 0.560599 10.9791 0.454826C9.83013 0.0740415 8.61736 0.0211547 7.50034 0.0211547H7.03757C6.01562 0.0361466 5.0102 0.195271 4.08827 0.487934C3.16634 0.780596 2.34904 1.20008 1.69079 1.71846C1.03253 2.23685 0.548432 2.84223 0.270709 3.49431C-0.0070135 4.14638 -0.0719837 4.8302 0.0801241 5.50022L0.335443 6.52622C0.590762 7.5628 0.830124 8.57823 1.00566 9.5725C1.18119 10.5668 1.93119 11.2331 3.33544 11.6562H3.3514L3.43119 11.6774C3.67969 11.7553 3.93555 11.8224 4.19715 11.8784H4.2131L5.74502 12.1639C5.64586 12.2682 5.52798 12.3641 5.39395 12.4495H3.38332C2.50566 12.4495 2.09076 12.7351 1.91523 12.8938C1.7397 13.0524 1.51629 13.4544 1.86736 13.9833L2.31417 14.6708C2.44183 14.8506 2.56949 15.0304 2.68119 15.2102C2.95246 15.591 3.20778 15.9929 3.47906 16.3737C3.74039 16.7372 3.87665 17.1346 3.878 17.5372C3.93062 19.3793 4.5896 21.1914 5.80885 22.8471C6.33544 23.5558 7.30885 23.9788 8.40991 23.9788H9.03225C10.3567 23.7779 11.2184 23.0692 11.2982 22.1278V22.1067C11.3142 21.9692 11.3301 21.8211 11.3301 21.673C11.3271 21.5917 11.3324 21.5105 11.3461 21.4297C11.3535 20.991 11.4015 20.553 11.4897 20.1181C11.6333 19.4623 11.8248 18.7854 12.0323 18.1402C12.4458 19.3629 12.6703 20.6104 12.7025 21.8634C12.6873 22.1242 12.7358 22.385 12.8461 22.6355C12.9996 23.0067 13.323 23.3373 13.7717 23.5816C14.2203 23.826 14.7722 23.9721 15.3514 24H15.6067C16.1501 23.9964 16.6809 23.8913 17.1382 23.6967C17.5955 23.5021 17.9607 23.2259 18.1918 22.9C19.4236 21.2393 20.0883 19.4192 20.1386 17.569V17.5478C20.1285 17.1682 20.2485 16.7921 20.4897 16.4478C20.9365 15.8237 21.3514 15.1891 21.7663 14.565L22.1652 13.9621C22.2903 13.8049 22.353 13.6293 22.3474 13.4516C22.3418 13.274 22.2682 13.1002 22.1333 12.9467C21.9737 12.7669 21.5748 12.4707 20.7131 12.4707H18.6227C18.4846 12.3918 18.3662 12.299 18.2716 12.1957L18.7663 12.1111C19.9791 11.8889 20.9684 11.6457 21.8461 11.1697C22.4164 10.8777 22.7892 10.448 22.8833 9.97444C23.0588 9.17056 23.2663 8.30322 23.5376 7.17144C23.6014 6.91759 23.6652 6.67431 23.7131 6.42045C23.761 6.16659 23.8408 5.91274 23.8886 5.66946C24.3354 3.76554 23.4578 2.21067 21.2716 1.04716ZM23.1067 5.58484C22.995 6.09255 22.8674 6.58969 22.7557 7.0974C22.5323 8.01763 22.3088 8.95901 22.1014 9.9004C22.0207 10.2378 21.7533 10.5433 21.3514 10.7572C20.5854 11.1803 19.6759 11.4024 18.5588 11.6033L17.5376 11.7726L17.2184 11.8255C17.3281 12.278 17.7003 12.6842 18.2557 12.9573C18.3414 12.9924 18.4427 13.0074 18.5429 12.9996H20.7131C21.144 12.9996 21.3514 13.1159 21.4471 13.2217C21.5429 13.3275 21.6227 13.4861 21.4471 13.74L21.2078 14.0996C20.745 14.7977 20.2663 15.5275 19.7716 16.2257C19.4769 16.6424 19.3296 17.0982 19.3408 17.5584C19.2939 19.3317 18.6563 21.0763 17.4737 22.6673C17.3027 22.9035 17.0361 23.1038 16.7037 23.2457C16.3713 23.3876 15.9861 23.4656 15.5908 23.4711H15.4152C14.9989 23.4543 14.601 23.3513 14.2776 23.1768C13.9541 23.0022 13.7214 22.7648 13.612 22.498C13.5277 22.2913 13.4901 22.0774 13.5003 21.8634C13.4641 20.4439 13.1857 19.0316 12.6706 17.6536C12.5908 17.4209 12.4152 17.294 12.112 17.2622H11.9844C11.8298 17.2617 11.6805 17.2993 11.5654 17.3677C11.4504 17.4362 11.3779 17.5305 11.362 17.6324L11.2663 17.9709C11.0588 18.6479 10.8514 19.3565 10.7078 20.0441C10.602 20.5808 10.5434 21.1212 10.5323 21.6624C10.5323 21.8105 10.5163 21.948 10.5003 22.0961C10.4525 22.8048 9.84608 23.3125 8.85672 23.4606H8.40991C7.61204 23.4606 6.90991 23.1432 6.52693 22.6249C5.35097 21.0404 4.71882 19.3029 4.67587 17.5372C4.66695 17.0626 4.50936 16.5943 4.2131 16.1622C3.81417 15.6016 3.43119 15.0198 3.04821 14.4592L2.6014 13.7823C2.44183 13.539 2.42587 13.3486 2.56949 13.2111C2.7131 13.0736 2.98438 12.989 3.38332 12.989H5.45778C5.61478 12.9771 5.76383 12.9369 5.88864 12.8726C6.35059 12.6001 6.66925 12.237 6.79821 11.8361L6.22374 11.7303L4.45247 11.3918C4.21197 11.3393 3.97735 11.2757 3.75034 11.2014L3.67055 11.1803C2.52161 10.8312 1.93119 10.3023 1.80353 9.51961C1.628 8.49361 1.37268 7.45703 1.11736 6.4416L0.877997 5.4156C0.734563 4.82022 0.787231 4.21132 1.03238 3.63071C1.27753 3.0501 1.70936 2.51154 2.29821 2.05201C2.88328 1.59125 3.61034 1.21882 4.43055 0.959759C5.25075 0.700694 6.14511 0.560986 7.05353 0.550022H7.50034C8.52161 0.550022 9.60672 0.592331 10.628 0.930807C10.9791 1.04716 11.3142 1.17409 11.6493 1.31159L12.0323 1.47025C12.7485 1.0778 13.5969 0.805668 14.5057 0.67695C15.1995 0.58529 15.9046 0.535725 16.612 0.528867C18.2557 0.528867 19.612 0.83561 20.7769 1.45967C22.7237 2.49625 23.5057 3.88189 23.1067 5.58484Z" fill="white"/>
<path d="M19.1965 1.88287C18.239 1.53382 17.2018 1.49151 16.3242 1.49151H16.0688C14.7895 1.48004 13.5535 1.79864 12.622 2.38001C12.4146 2.51751 12.2231 2.60213 11.9997 2.60213C11.7763 2.60213 11.5688 2.49636 11.3773 2.38001C10.7155 1.94867 9.868 1.66409 8.95181 1.56555C8.43831 1.52333 7.92137 1.50214 7.40394 1.50209H7.02096C6.37757 1.5117 5.74334 1.60525 5.15451 1.77738C4.56568 1.94952 4.03379 2.19686 3.58922 2.5053C3.14465 2.81373 2.79612 3.1772 2.56354 3.57494C2.33096 3.97269 2.21889 4.39691 2.23372 4.82337C2.23107 4.90109 2.23641 4.97884 2.24968 5.05608C2.32947 5.55321 2.45713 6.05035 2.56883 6.5369C2.63266 6.74845 2.68053 6.94942 2.72841 7.15039C2.80819 7.54175 2.90394 7.92254 2.98372 8.29274L3.06351 8.62064L3.60606 8.47256C4.1167 8.33505 4.65926 8.17639 5.20181 8.07062C7.08479 7.67926 9.0316 7.58406 10.5156 7.53118L12.1114 7.51002C13.9374 7.50678 15.7596 7.62012 17.5529 7.8485C18.5901 7.99658 19.7869 8.19755 20.9518 8.66295L21.1593 7.71099C21.3507 6.88596 21.5422 6.08208 21.7337 5.2782C21.8835 4.60829 21.7207 3.92404 21.2672 3.31718C20.8137 2.71032 20.0912 2.20986 19.1965 1.88287ZM7.16458 2.93003H7.02096C6.33621 2.94078 5.684 3.12587 5.19968 3.44691C4.71535 3.76794 4.43611 4.20026 4.41989 4.65414V4.75991L3.0316 4.78106V4.67529C3.01908 4.33428 3.11169 3.99517 3.30376 3.6787C3.49583 3.36224 3.78332 3.07509 4.14862 2.83483C4.49606 2.58685 4.91536 2.38785 5.38147 2.24973C5.84757 2.11161 6.35091 2.0372 6.86138 2.03095H7.16458V2.93003Z" fill="white"/>
</g>
<defs>
<clipPath id="clip0_1310_6721">
<rect width="24" height="24" fill="white"/>
</clipPath>
</defs>
</svg>
