<svg width="10" height="14" viewBox="0 0 10 14" fill="none" xmlns="http://www.w3.org/2000/svg">
<g clip-path="url(#clip0_832_26705)">
<path d="M6.83544 7.57687C6.56283 7.08326 6.54954 6.99687 6.54289 6.42305C6.54289 6.13306 6.39661 5.99731 6.07746 5.99731H3.9498C3.77028 5.99731 3.64395 6.03434 3.56416 6.10838C3.48437 6.18242 3.45113 6.29348 3.45778 6.4539C3.47108 6.90432 3.38464 7.26219 3.17188 7.57687H6.83544Z" fill="#878687"/>
<path d="M8.38433 5.50999C8.08578 5.36291 7.76861 5.25098 7.44018 5.1768C6.65273 5.00984 5.84766 4.92499 5.03991 4.92383C4.32197 4.92464 3.60551 4.98452 2.89896 5.10276C2.52662 5.16446 2.04124 5.26318 1.60906 5.50999C1.46279 5.5902 1.38965 5.66424 1.38965 5.71977C1.38965 5.7753 1.46279 5.85552 1.60906 5.93573C1.98805 6.15168 2.42023 6.2504 2.86571 6.33679C2.86687 6.30153 2.87132 6.26644 2.87901 6.23189C2.90939 6.01698 3.02225 5.81944 3.1969 5.67551C3.37154 5.53157 3.59625 5.4509 3.82981 5.44829H6.17688C6.39013 5.45063 6.59653 5.51852 6.76376 5.64133C6.93099 5.76414 7.04962 5.93494 7.10109 6.127C7.12076 6.18737 7.13412 6.24936 7.14098 6.3121V6.33679C7.6064 6.24423 8.01864 6.15168 8.38433 5.9419C8.5439 5.85552 8.62369 5.7753 8.61704 5.7136C8.61039 5.6519 8.53726 5.57786 8.38433 5.50999Z" fill="#878687"/>
<path d="M1.92185 8.43459L2.32744 9.28607C2.46069 9.56201 2.53303 9.85992 2.54021 10.1622C2.53265 10.7584 2.6269 11.3519 2.81946 11.9207C2.92584 12.2292 3.06547 12.5377 3.19845 12.8339L3.25829 12.9696C3.27512 13.0179 3.30798 13.0601 3.35216 13.09C3.39635 13.1199 3.4496 13.1361 3.5043 13.1362H3.56414C3.73701 13.0992 3.77691 12.9696 3.78356 12.8647V12.7043C3.80164 11.8367 3.9243 10.9737 4.14925 10.1314C4.19025 9.95504 4.29508 9.79704 4.44628 9.68366C4.59749 9.57029 4.78597 9.50836 4.98037 9.50819H5.00031C5.41255 9.50819 5.75829 9.755 5.83808 10.1067C5.97106 10.6929 6.07079 11.2235 6.15058 11.7233C6.18382 11.9886 6.19712 12.2601 6.20377 12.5254C6.21042 12.6303 6.21042 12.729 6.21707 12.8339C6.22372 12.9388 6.26361 13.0498 6.3567 13.0992C6.39816 13.1243 6.44683 13.1372 6.49632 13.1362C6.60271 13.1362 6.69579 13.0745 6.75563 12.9573C7.20721 12.1107 7.44807 11.1808 7.46042 10.2363C7.45885 9.89266 7.54066 9.55314 7.69978 9.24288C7.79951 9.04544 7.8926 8.84182 7.98568 8.65055C8.01893 8.57034 8.05882 8.49012 8.09872 8.41608C8.13861 8.34204 8.17185 8.25566 8.21175 8.17545L8.22505 8.13843H1.78223L1.92185 8.43459Z" fill="#878687"/>
<path d="M8.86317 0.610842C8.31796 0.197444 7.67966 0 6.91503 0C6.60027 0.00606772 6.28663 0.0370305 5.97753 0.0925518C5.62529 0.161177 5.29097 0.293242 4.99349 0.481269C4.84721 0.401058 4.71424 0.327016 4.57461 0.265315C4.09589 0.0431909 3.59057 0.0123402 3.12514 0.0123402H2.93232C2.50651 0.0210855 2.08758 0.113908 1.70345 0.284628C1.31931 0.455348 0.978767 0.700048 0.704495 1.00244C0.430223 1.30483 0.228513 1.65797 0.112795 2.03835C-0.00292229 2.41872 -0.0299932 2.81762 0.033385 3.20846L0.139768 3.80696C0.246151 4.41164 0.345885 5.00397 0.419023 5.58396C0.492162 6.16395 0.804662 6.55267 1.38977 6.79947H1.39642L1.42966 6.81181C1.53321 6.85724 1.63981 6.8964 1.74881 6.92904H1.75546L2.39376 7.09564C2.35244 7.15646 2.30332 7.2124 2.24748 7.26223H1.40971C1.04402 7.26223 0.871151 7.42882 0.798013 7.52138C0.724874 7.61393 0.631789 7.84839 0.778066 8.1569L0.964236 8.55796C1.01743 8.66285 1.07062 8.76774 1.11716 8.87263C1.23019 9.09476 1.33658 9.32922 1.44961 9.55134C1.5585 9.76337 1.61527 9.99519 1.61583 10.2301C1.63776 11.3046 1.91233 12.3617 2.42035 13.3275C2.63977 13.7409 3.04535 13.9877 3.50413 13.9877H3.76344C4.3153 13.8704 4.67434 13.457 4.70759 12.9079V12.8955C4.71424 12.8153 4.72089 12.729 4.72089 12.6426C4.71962 12.5952 4.72184 12.5478 4.72753 12.5007C4.73063 12.2447 4.75062 11.9892 4.78737 11.7356C4.84722 11.353 4.927 10.9581 5.01344 10.5818C5.18573 11.295 5.2793 12.0228 5.29269 12.7536C5.28636 12.9058 5.30656 13.0579 5.35253 13.2041C5.41651 13.4206 5.55125 13.6134 5.73819 13.7559C5.92514 13.8985 6.1551 13.9838 6.39642 14H6.5028C6.72921 13.9979 6.95038 13.9366 7.14092 13.8231C7.33145 13.7096 7.48362 13.5485 7.57993 13.3583C8.09316 12.3896 8.37011 11.3279 8.3911 10.2486V10.2362C8.38687 10.0148 8.43688 9.7954 8.53737 9.59454C8.72354 9.2305 8.89642 8.86029 9.06929 8.49625L9.23551 8.14456C9.28763 8.05289 9.31376 7.95042 9.31143 7.8468C9.3091 7.74317 9.2784 7.6418 9.22221 7.55223C9.15572 7.44733 8.9895 7.27457 8.63046 7.27457H7.75945C7.70193 7.22854 7.65257 7.1744 7.61317 7.11415L7.81929 7.06479C8.32461 6.93521 8.73684 6.7933 9.10253 6.51565C9.34015 6.34531 9.49551 6.09467 9.53471 5.81842C9.60785 5.34949 9.69429 4.84354 9.80732 4.18334C9.83392 4.03526 9.86051 3.89335 9.88046 3.74526C9.90041 3.59718 9.93365 3.4491 9.9536 3.30718C10.1398 2.19656 9.77408 1.28955 8.86317 0.610842ZM9.6278 3.25782C9.58126 3.55399 9.52807 3.84398 9.48152 4.14015C9.38844 4.67695 9.29535 5.22609 9.20892 5.77523C9.17527 5.97207 9.06387 6.15023 8.89642 6.27501C8.57727 6.52182 8.19828 6.65139 7.73285 6.76862L7.30732 6.86734L7.17434 6.89819C7.22003 7.16217 7.37513 7.39911 7.60652 7.5584C7.64227 7.57893 7.68445 7.58763 7.7262 7.58308H8.63046C8.80998 7.58308 8.89642 7.65095 8.93631 7.71265C8.9762 7.77435 9.00945 7.8669 8.93631 8.01499L8.83658 8.22477C8.64376 8.632 8.44429 9.05773 8.23817 9.46496C8.11538 9.70806 8.05398 9.97395 8.05865 10.2424C8.0391 11.2768 7.77346 12.2945 7.28073 13.2226C7.20945 13.3604 7.0984 13.4772 6.95989 13.56C6.82139 13.6428 6.66086 13.6883 6.49615 13.6915H6.42301C6.24955 13.6817 6.08377 13.6216 5.949 13.5198C5.81422 13.4179 5.71724 13.2795 5.67168 13.1238C5.63655 13.0033 5.62087 12.8785 5.62514 12.7536C5.61003 11.9256 5.49405 11.1018 5.2794 10.2979C5.24615 10.1622 5.17301 10.0881 5.04668 10.0696H4.99349C4.92909 10.0693 4.86686 10.0913 4.81893 10.1312C4.771 10.1711 4.74079 10.2261 4.73418 10.2856L4.69429 10.483C4.60785 10.8779 4.52142 11.2913 4.46158 11.6924C4.41751 12.0055 4.39309 12.3207 4.38844 12.6364C4.38844 12.7228 4.38179 12.803 4.37514 12.8894C4.35519 13.3028 4.10253 13.5989 3.6903 13.6853H3.50413C3.17168 13.6853 2.87913 13.5002 2.71956 13.1979C2.22957 12.2736 1.96617 11.26 1.94828 10.2301C1.94456 9.95318 1.8789 9.68004 1.75546 9.42794C1.58924 9.10093 1.42966 8.76157 1.27009 8.43455L1.08392 8.03967C1.01743 7.89775 1.01078 7.78669 1.07062 7.70648C1.13046 7.62627 1.24349 7.57691 1.40971 7.57691H2.27408C2.33949 7.56998 2.40159 7.5465 2.4536 7.50904C2.64608 7.35006 2.77885 7.13822 2.83259 6.90436L2.59323 6.84266L1.85519 6.64522C1.75499 6.61462 1.65723 6.5775 1.56264 6.53416L1.5294 6.52182C1.05067 6.3182 0.804662 6.0097 0.75147 5.55311C0.678332 4.95461 0.571949 4.34993 0.465566 3.7576L0.365832 3.1591C0.306068 2.8118 0.328013 2.4566 0.430159 2.11791C0.532306 1.77922 0.712234 1.46506 0.957587 1.197C1.20137 0.928228 1.50431 0.710981 1.84606 0.55986C2.18781 0.408738 2.56046 0.327242 2.93897 0.320846H3.12514C3.55067 0.320846 4.0028 0.345527 4.42833 0.542971C4.57461 0.610842 4.71424 0.684883 4.85386 0.765095L5.01344 0.857647C5.31186 0.628716 5.66539 0.469973 6.04402 0.394888C6.33314 0.341419 6.62691 0.312506 6.92168 0.308506C7.60652 0.308506 8.17168 0.487439 8.65705 0.851476C9.46822 1.45615 9.79402 2.26443 9.6278 3.25782Z" fill="#878687"/>
<path d="M7.99903 1.09834C7.60009 0.894728 7.16791 0.870048 6.80222 0.870048H6.69583C6.16278 0.863359 5.6478 1.04921 5.25966 1.38834C5.17323 1.46855 5.09344 1.51791 5.00035 1.51791C4.90727 1.51791 4.82083 1.45621 4.74105 1.38834C4.46527 1.13672 4.11216 0.970722 3.73041 0.913238C3.51645 0.888611 3.30106 0.876248 3.08546 0.876218H2.92589C2.65781 0.881825 2.39355 0.936394 2.1482 1.03681C1.90286 1.13722 1.68123 1.2815 1.496 1.46142C1.31076 1.64134 1.16554 1.85337 1.06863 2.08538C0.971722 2.3174 0.925024 2.56486 0.931207 2.81363C0.930102 2.85897 0.932324 2.90432 0.937856 2.94938C0.9711 3.23937 1.02429 3.52937 1.07083 3.81319C1.09743 3.9366 1.11738 4.05383 1.13732 4.17106C1.17057 4.39936 1.21046 4.62148 1.24371 4.83743L1.27695 5.02871L1.50302 4.94233C1.71578 4.86211 1.94184 4.76956 2.16791 4.70786C2.95248 4.47957 3.76365 4.42404 4.382 4.39319L5.0469 4.38085C5.80774 4.37895 6.56701 4.44507 7.31418 4.57829C7.74637 4.66467 8.24504 4.7819 8.73041 5.05339L8.81684 4.49808C8.89663 4.01681 8.97642 3.54788 9.05621 3.07895C9.1186 2.68817 9.05078 2.28902 8.86183 1.93502C8.67287 1.58102 8.37182 1.28908 7.99903 1.09834ZM2.98573 1.70918H2.92589C2.64058 1.71545 2.36882 1.82343 2.16702 2.01069C1.96522 2.19796 1.84887 2.45015 1.84211 2.71491V2.77661L1.26365 2.78895V2.72725C1.25844 2.52833 1.29703 2.33051 1.37706 2.14591C1.45708 1.96131 1.57687 1.7938 1.72908 1.65365C1.87385 1.509 2.04856 1.39292 2.24277 1.31234C2.43698 1.23177 2.6467 1.18837 2.8594 1.18472H2.98573V1.70918Z" fill="#878687"/>
</g>
<defs>
<clipPath id="clip0_832_26705">
<rect width="10" height="14" fill="white"/>
</clipPath>
</defs>
</svg>
