<svg width="40" height="40" viewBox="0 0 40 40" fill="none" xmlns="http://www.w3.org/2000/svg">
<path d="M17.1124 32C16.4715 32 15.9074 31.668 15.5998 31.1259C14.6551 29.4683 14.1473 27.6507 14.1128 25.8036C14.1083 25.3068 13.9815 24.8165 13.741 24.3651C13.4205 23.7787 13.1129 23.1701 12.8052 22.5837L12.4463 21.8755C12.3181 21.621 12.3053 21.4219 12.4206 21.278C12.536 21.1342 12.7539 21.0456 13.0744 21.0456H14.7409C14.867 21.0332 14.9867 20.9911 15.087 20.9239C15.4602 20.6404 15.7167 20.2598 15.8177 19.8396L15.3562 19.7178L13.9333 19.3638C13.7401 19.3089 13.5516 19.2423 13.3693 19.1646L13.3052 19.1425C12.3822 18.7773 11.9079 18.2241 11.8053 17.4053C11.6643 16.332 11.4592 15.2476 11.2541 14.1853L11.0618 13.112C10.9483 12.4892 10.9915 11.8526 11.1883 11.2454C11.3852 10.6383 11.7312 10.0748 12.2027 9.59336C12.6738 9.11246 13.2581 8.72362 13.9168 8.45271C14.5754 8.1818 15.2933 8.03502 16.0228 8.02213H16.3817C17.2021 8.02213 18.0738 8.06639 18.8943 8.42047C19.1763 8.54218 19.4455 8.67496 19.7147 8.81881L20.0223 8.98478C20.5966 8.57274 21.2786 8.28788 22.0093 8.15491C22.5667 8.05921 23.1331 8.00736 23.7014 8C25.0217 8 26.1114 8.32088 27.0472 8.97372C28.6111 10.0581 29.2392 11.5076 28.9187 13.2891C28.829 13.8202 28.7264 14.3402 28.6367 14.8714C28.4573 15.834 28.2778 16.8188 28.1111 17.8036C28.0512 18.1581 27.8354 18.479 27.5086 18.6999C26.8933 19.1425 26.1626 19.3748 25.2653 19.5851L24.4449 19.7621L24.1885 19.8174C24.2841 20.2884 24.5816 20.7111 25.0218 21.0014C25.0907 21.0382 25.172 21.0538 25.2525 21.0456H26.9959C27.342 21.0456 27.5086 21.1674 27.5856 21.278C27.6625 21.3887 27.7266 21.5546 27.5856 21.8202L27.3933 22.1964C27.0215 22.9267 26.6369 23.6902 26.2396 24.4205C26.0062 24.8574 25.888 25.3336 25.8934 25.8147C25.8609 27.6703 25.3485 29.4962 24.3936 31.1591C24.2574 31.407 24.0436 31.6172 23.7763 31.7658C23.509 31.9144 23.1989 31.9955 22.881 32H22.74C22.4061 31.9807 22.0874 31.8724 21.8279 31.6901C21.5684 31.5077 21.381 31.2603 21.2914 30.982C21.2266 30.7653 21.1964 30.5419 21.2017 30.3181C21.1753 28.833 20.9517 27.3554 20.5351 25.9142C20.471 25.6708 20.33 25.538 20.0864 25.5048H19.9839C19.8605 25.5067 19.742 25.5468 19.6502 25.618C19.5584 25.6891 19.4993 25.7864 19.4839 25.8921L19.407 26.2462C19.2404 26.9544 19.0737 27.6957 18.9583 28.4149C18.843 29.1342 18.843 29.5546 18.8173 30.1079C18.8173 30.2628 18.8045 30.4066 18.7917 30.5615C18.7532 31.3029 18.2661 31.834 17.4713 31.9889L17.1124 32ZM19.9967 24.4979C20.7915 24.4979 21.4581 24.9405 21.6119 25.5712C21.8683 26.6224 22.0606 27.574 22.2144 28.4703C22.2785 28.9461 22.3041 29.4329 22.3169 29.9087C22.3298 30.0968 22.3298 30.2739 22.3426 30.462C22.3554 30.6501 22.4323 30.8492 22.6118 30.9378C22.6932 30.98 22.786 31.0029 22.881 31.0041C23.0861 31.0041 23.2655 30.8935 23.3809 30.6833C24.2562 29.1665 24.7208 27.498 24.7397 25.8036C24.7422 25.1879 24.8997 24.5801 25.2012 24.0221C25.3935 23.668 25.573 23.3029 25.7524 22.9599C25.8165 22.816 25.8934 22.6722 25.9704 22.5394C26.0473 22.4066 26.1114 22.2517 26.1883 22.1079L26.2139 22.0415H13.7923L14.0615 22.5726L14.8434 24.0996C15.1073 24.5924 15.2471 25.1279 15.2536 25.6708C15.2395 26.7399 15.4212 27.8042 15.792 28.8243C15.9972 29.3776 16.2664 29.9308 16.5227 30.462L16.6381 30.7054C16.6722 30.7911 16.736 30.8657 16.8208 30.9192C16.9056 30.9726 17.0074 31.0023 17.1124 31.0041H17.2278C17.5611 30.9378 17.638 30.7054 17.6508 30.5173V30.2296C17.6862 28.6737 17.9227 27.1261 18.3559 25.6155C18.4349 25.2993 18.637 25.0159 18.9285 24.8126C19.2201 24.6093 19.5834 24.4982 19.9582 24.4979H19.9967ZM23.5347 21.0346C23.0092 20.1494 22.9835 19.9945 22.9707 18.9654C22.9707 18.4454 22.6887 18.2019 22.0734 18.2019H17.9713C17.6252 18.2019 17.3816 18.2683 17.2278 18.4011C17.0739 18.5339 17.0099 18.7331 17.0227 19.0207C17.0483 19.8285 16.8817 20.4703 16.4715 21.0346H23.5347ZM19.9582 17.2172H22.2657C22.6768 17.2213 23.0747 17.3431 23.3971 17.5633C23.7196 17.7836 23.9483 18.0899 24.0475 18.4343C24.0818 18.5433 24.1075 18.6542 24.1244 18.7663V18.8105C25.0218 18.6445 25.8165 18.4786 26.5216 18.1024C26.8292 17.9474 26.9831 17.8036 26.9702 17.6929C26.9574 17.5823 26.8164 17.4495 26.5216 17.3278C25.9465 17.063 25.3349 16.8622 24.7013 16.7303C23.1836 16.4284 21.6311 16.2762 20.0736 16.2766C18.6896 16.2816 17.3086 16.3889 15.9459 16.5975C15.228 16.7082 14.2922 16.8852 13.459 17.3278C13.177 17.4716 13.036 17.6044 13.036 17.704C13.036 17.8036 13.177 17.9474 13.459 18.0913C14.1897 18.4786 15.0229 18.6556 15.8818 18.8105C15.884 18.7473 15.8926 18.6844 15.9074 18.6224C15.9685 18.2379 16.1869 17.885 16.523 17.6273C16.8592 17.3696 17.291 17.2241 17.7405 17.2172H19.9582ZM20.0864 15.3029C21.5533 15.2992 23.0172 15.4178 24.4577 15.657C25.291 15.8119 26.2524 16.0221 27.1882 16.509L27.3548 15.5131C27.5086 14.6501 27.6625 13.8091 27.8163 12.9682C27.9385 12.2673 27.8085 11.5509 27.4441 10.9157C27.0796 10.2805 26.4981 9.75718 25.7781 9.41632C25.0089 9.05118 24.1757 9.00692 23.4706 9.00692H23.2655C22.239 9.00064 21.2485 9.33313 20.4966 9.93638C20.33 10.0802 20.1762 10.1687 19.9967 10.1687C19.8172 10.1687 19.6506 10.0581 19.4967 9.93638C18.9651 9.48515 18.2843 9.18746 17.5483 9.08437C17.1362 9.03593 16.7206 9.01374 16.3048 9.01798H15.9972C15.4562 9.02805 14.9235 9.1343 14.4322 9.3301C13.941 9.52589 13.5018 9.80702 13.1421 10.1559C12.7824 10.5048 12.5099 10.914 12.3417 11.3579C12.1734 11.8018 12.113 12.2709 12.1643 12.7358C12.2284 13.2559 12.3309 13.7759 12.4206 14.2849C12.4719 14.5062 12.5104 14.7165 12.5488 14.9267C12.6129 15.3361 12.6898 15.7344 12.7539 16.1217L12.818 16.4647L13.2539 16.3098C13.6641 16.166 14.0999 16 14.5358 15.8893C16.0484 15.4799 17.6123 15.3804 18.8045 15.325L20.0864 15.3029Z" fill="#100E10"/>
<path d="M15.9498 19.7623L13.9629 19.2533C13.7527 19.1948 13.5472 19.1246 13.3476 19.0431C12.5271 18.7111 12.0272 18.2243 11.9246 17.3944C11.7324 15.9559 11.4375 14.5286 11.1683 13.0901C10.7068 10.5341 13.0143 8.17725 16.0139 8.13299C16.9882 8.12192 17.9496 8.14405 18.8341 8.52026C19.2315 8.6973 19.6161 8.90754 20.0263 9.11777C20.6031 8.71943 21.2697 8.38748 22.026 8.26577C23.7822 7.97808 25.4872 8.0334 26.9485 9.05138C28.4099 10.0694 29.0893 11.5742 28.7817 13.2672C28.5125 14.772 28.2304 16.2768 27.9741 17.7817C27.9138 18.1071 27.7178 18.4023 27.4229 18.6116C26.7819 19.0652 26.0128 19.2976 25.218 19.4857L24.0258 19.7291C24.1165 20.2665 24.4422 20.7535 24.936 21.0901C25.0274 21.1405 25.1354 21.1638 25.2436 21.1565H26.987C27.4485 21.1565 27.6408 21.411 27.4613 21.7761C27.0126 22.6503 26.5768 23.5133 26.1153 24.3764C25.8741 24.8272 25.7516 25.3184 25.7564 25.8149C25.7291 27.6521 25.2208 29.4603 24.2694 31.1039C24.1392 31.3558 23.9208 31.5661 23.6448 31.7051C23.3688 31.8441 23.0492 31.9047 22.7311 31.8785C22.4244 31.8573 22.1325 31.756 21.8943 31.5879C21.6561 31.4199 21.483 31.1932 21.3979 30.938C21.3401 30.7316 21.3142 30.5195 21.321 30.3073C21.2927 28.815 21.0691 27.3302 20.6544 25.8813C20.5775 25.6046 20.4108 25.4276 20.1032 25.3833C20.018 25.3691 19.9303 25.3699 19.8454 25.3858C19.7606 25.4017 19.6804 25.4323 19.6096 25.4758C19.5389 25.5192 19.4791 25.5746 19.434 25.6386C19.3888 25.7026 19.3592 25.7739 19.3469 25.8481C19.1546 26.689 18.9495 27.5299 18.8213 28.382C18.6931 29.234 18.7059 29.8093 18.6546 30.5286C18.6034 31.2478 18.1675 31.7125 17.424 31.8564C16.6805 32.0002 16.0524 31.6904 15.7063 31.0818C14.7673 29.4387 14.2638 27.6358 14.2321 25.8038C14.222 25.2921 14.0912 24.7876 13.8475 24.3211C13.3988 23.5023 12.9886 22.6613 12.5528 21.8315C12.3349 21.3999 12.5143 21.1565 13.0655 21.1565C13.6168 21.1565 14.1808 21.1676 14.732 21.1565C14.8923 21.1448 15.0445 21.0907 15.1679 21.0016C15.5959 20.6854 15.8743 20.2443 15.9498 19.7623ZM27.269 16.6973C27.4998 15.4248 27.7049 14.2077 27.9356 12.9795C28.0659 12.2579 27.9336 11.5192 27.5571 10.8652C27.1805 10.2112 26.5783 9.67415 25.8333 9.32801C25.0257 8.94073 24.154 8.88541 23.2567 8.89647C22.1993 8.88662 21.1789 9.2318 20.4108 9.85913C20.0647 10.1247 19.9109 10.1247 19.5776 9.85913C19.0249 9.39019 18.3172 9.0809 17.5522 8.97393C17.0298 8.91292 16.5023 8.89071 15.9755 8.90754C13.6424 8.92967 11.7836 10.7443 12.0272 12.7471C12.1297 13.4885 12.2836 14.2187 12.4118 14.949C12.54 15.6793 12.6169 16.0887 12.7066 16.6198C13.3347 16.4096 13.9372 16.1662 14.5654 15.9891C15.937 15.624 17.3599 15.5023 18.7956 15.4359C20.6802 15.3468 22.5702 15.4583 24.4232 15.7678C25.4103 15.9449 26.3717 16.1883 27.269 16.6973ZM13.5783 21.9311C13.9757 22.6945 14.3346 23.4248 14.7192 24.1441C14.9717 24.6241 15.107 25.1439 15.1166 25.671C15.1074 26.7515 15.2934 27.8267 15.6678 28.8577C15.8985 29.4995 16.2062 30.1192 16.5139 30.7499C16.5613 30.8776 16.663 30.9852 16.7986 31.0509C16.9341 31.1165 17.0935 31.1355 17.2445 31.1039C17.565 31.0486 17.7573 30.8384 17.7701 30.5175C17.7682 30.4215 17.7725 30.3254 17.7829 30.2298C17.8195 28.6813 18.056 27.1411 18.488 25.6378C18.5632 25.3479 18.7497 25.0884 19.0174 24.9016C19.285 24.7148 19.618 24.6116 19.9622 24.6088C20.68 24.5977 21.321 24.9739 21.4748 25.5936C21.7056 26.5452 21.9235 27.5078 22.0773 28.4815C22.1799 29.1344 22.1671 29.7983 22.2055 30.4622C22.2183 30.6945 22.2824 30.9048 22.5388 31.0376C22.7952 31.1703 23.2823 31.0929 23.4874 30.7388C24.3727 29.205 24.8418 27.5174 24.859 25.8038C24.8596 25.2034 25.0128 24.6104 25.3077 24.0666C25.5769 23.5797 25.8205 23.0818 26.0769 22.5839L26.3973 21.9311H13.5783ZM15.9755 18.9435C16.0011 18.8218 16.0139 18.7333 16.0267 18.6447C16.0792 18.2847 16.2807 17.9532 16.594 17.7112C16.9073 17.4693 17.3113 17.3332 17.7317 17.328H22.2568C22.6385 17.3357 23.007 17.4498 23.3074 17.6532C23.6077 17.8567 23.8238 18.1385 23.9233 18.4566C23.9617 18.6116 23.9874 18.7665 24.013 18.9435C24.9231 18.7775 25.7948 18.6116 26.5896 18.2021C27.3844 17.7927 27.269 17.5382 26.5768 17.2284C25.9882 16.961 25.364 16.7566 24.718 16.6198C21.7953 16.0334 18.8597 16.0445 15.9114 16.4871C15.0269 16.6198 14.168 16.8301 13.386 17.2284C12.6041 17.6268 12.7322 17.8481 13.3732 18.1911C14.0141 18.5341 15.0525 18.7775 15.9755 18.9435ZM16.219 21.1454H23.731C23.1285 20.1275 23.1028 20.0389 23.09 18.9656C23.09 18.3792 22.7567 18.0915 22.0645 18.0915H17.9624C17.2189 18.0915 16.86 18.3792 16.8856 19.032C16.9112 19.6849 16.7702 20.4926 16.219 21.1454Z" fill="#100E10"/>
<path d="M12.7937 12.4472V12.3366C12.7844 11.9799 12.8592 11.6254 13.0134 11.2944C13.1677 10.9634 13.3982 10.663 13.6911 10.4113C13.9715 10.1533 14.3087 9.94614 14.6828 9.80176C15.0569 9.65739 15.4606 9.57871 15.8703 9.57031H16.1139V10.5108H15.9985C15.4484 10.5221 14.9245 10.7157 14.5354 11.0515C14.1463 11.3874 13.922 11.8396 13.909 12.3144V12.4251L12.7937 12.4472Z" fill="#100E10"/>
<path d="M13.7859 12.3385H12.927C12.8757 10.8558 14.4397 9.62759 15.9908 9.69398V10.4243C15.4079 10.4356 14.8528 10.6413 14.4418 10.9982C14.0307 11.355 13.7957 11.8354 13.7859 12.3385Z" fill="#100E10"/>
</svg>
