<svg width="76" height="76" viewBox="0 0 76 76" fill="none" xmlns="http://www.w3.org/2000/svg">
<g filter="url(#filter0_d_324_9978)">
<rect x="6" y="6" width="60" height="60" rx="30" fill="#353434"/>
<g clip-path="url(#clip0_324_9978)">
<path d="M45.7897 19.9446C44.5775 18.9649 43.1661 18.5 41.4723 18.5C40.7366 18.5033 40.0027 18.5756 39.2804 18.7159C38.3342 18.9161 37.4508 19.3435 36.7066 19.9613C36.5683 19.8937 36.4351 19.816 36.3081 19.7288C35.9428 19.5129 35.5941 19.297 35.2454 19.131C34.1661 18.5996 33.0369 18.5166 31.9742 18.5166H31.5092C30.5638 18.5339 29.633 18.7534 28.7794 19.1603C27.9259 19.5672 27.1693 20.1521 26.5605 20.8756C25.9518 21.5992 25.505 22.4447 25.2501 23.3553C24.9953 24.2659 24.9383 25.2205 25.083 26.155C25.1661 26.703 25.2491 27.2343 25.3487 27.7823C25.5978 29.3598 25.8635 31.0037 26.0461 32.6144C26.179 33.8266 26.81 34.6568 27.9889 35.2048L28.072 35.2546C28.3044 35.3542 28.5535 35.4705 28.8026 35.5535L30.6458 36.0849L31.2435 36.2509C31.1195 36.8803 30.7929 37.4518 30.3137 37.8782C30.1817 37.9864 30.019 38.0503 29.8487 38.0609H27.69C27.2749 38.0609 26.9926 38.1771 26.8432 38.393C26.6937 38.6089 26.7103 38.9244 26.8764 39.3063C27.0424 39.6882 27.1919 40.0037 27.3579 40.369C27.7399 41.2491 28.1384 42.1458 28.5535 43.0424C28.8633 43.7145 29.0274 44.4445 29.0351 45.1845C29.0792 47.9671 29.737 50.7056 30.9613 53.2048C31.3598 54.0184 32.0904 54.5 32.9207 54.5C33.077 54.4999 33.2328 54.4832 33.3856 54.4502C34.4151 54.2343 35.0627 53.4207 35.1126 52.3081C35.1126 52.0923 35.1292 51.8598 35.1292 51.6439C35.1624 50.797 35.2122 49.9336 35.3118 49.1033C35.4613 48.0074 35.6771 46.9114 35.893 45.8321L35.9926 45.3007C36.0126 45.1422 36.0891 44.9961 36.208 44.8893C36.327 44.7826 36.4804 44.7223 36.6402 44.7196H36.7731C37.0886 44.786 37.2712 44.9686 37.3709 45.3506C37.8961 47.5099 38.1802 49.7208 38.2177 51.9428C38.2098 52.2842 38.2489 52.625 38.334 52.9557C38.4563 53.3698 38.7009 53.7372 39.0358 54.0099C39.3706 54.2825 39.78 54.4475 40.2103 54.4834H40.393C40.8057 54.4806 41.209 54.3604 41.556 54.137C41.9029 53.9135 42.1791 53.596 42.3524 53.2214C43.593 50.7274 44.257 47.9864 44.2952 45.2011C44.2871 44.4825 44.4463 43.7719 44.7602 43.1255L46.238 39.7878L46.4871 39.2232C46.6697 38.8081 46.5867 38.5424 46.4871 38.393C46.3875 38.2435 46.1716 38.0609 45.7233 38.0609H43.465C43.3627 38.0702 43.2598 38.0531 43.1661 38.0111C42.6041 37.5609 42.2214 36.925 42.0867 36.2177L42.4354 36.1347C42.7881 36.0693 43.1373 35.9862 43.4816 35.8856C44.6439 35.5701 45.5904 35.2214 46.3875 34.5406C46.8134 34.2115 47.0936 33.7287 47.1679 33.1956C47.3838 31.7343 47.6162 30.2399 47.8487 28.7952C47.965 28.0148 48.0978 27.2177 48.214 26.4207C48.6292 23.7472 47.8155 21.572 45.7897 19.9446ZM31.6421 22.286H31.476C30.7607 22.303 30.0796 22.5959 29.5752 23.1034C29.0707 23.6109 28.782 24.2938 28.7694 25.0092V25.1587H27.3413V25.0092C27.3293 24.474 27.4261 23.9419 27.6259 23.4453C27.8257 22.9486 28.1244 22.4977 28.5037 22.1199C28.8676 21.7336 29.3044 21.4231 29.7889 21.2065C30.2734 20.9899 30.796 20.8715 31.3266 20.8579H31.6587L31.6421 22.286Z" fill="white"/>
</g>
</g>
<defs>
<filter id="filter0_d_324_9978" x="0" y="0" width="76" height="76" filterUnits="userSpaceOnUse" color-interpolation-filters="sRGB">
<feFlood flood-opacity="0" result="BackgroundImageFix"/>
<feColorMatrix in="SourceAlpha" type="matrix" values="0 0 0 0 0 0 0 0 0 0 0 0 0 0 0 0 0 0 127 0" result="hardAlpha"/>
<feOffset dx="2" dy="2"/>
<feGaussianBlur stdDeviation="4"/>
<feComposite in2="hardAlpha" operator="out"/>
<feColorMatrix type="matrix" values="0 0 0 0 0 0 0 0 0 0 0 0 0 0 0 0 0 0 0.04 0"/>
<feBlend mode="normal" in2="BackgroundImageFix" result="effect1_dropShadow_324_9978"/>
<feBlend mode="normal" in="SourceGraphic" in2="effect1_dropShadow_324_9978" result="shape"/>
</filter>
<clipPath id="clip0_324_9978">
<rect width="23.3137" height="36" fill="white" transform="translate(25 18.5)"/>
</clipPath>
</defs>
</svg>
