<svg width="40" height="40" viewBox="0 0 40 40" fill="none" xmlns="http://www.w3.org/2000/svg">
<path d="M17.2127 13.5251L17.6993 13.8185C17.8394 13.8991 17.9542 14.0215 18.0299 14.1706L18.2962 14.6987C18.3312 14.7736 18.3848 14.8368 18.4512 14.8816C18.5175 14.9264 18.5941 14.9511 18.6726 14.953C18.7502 14.952 18.8261 14.9288 18.8924 14.8858C18.9586 14.8428 19.0128 14.7815 19.0491 14.7085L19.3337 14.1902C19.4099 14.0439 19.5249 13.9249 19.6643 13.8479L20.1601 13.5642C20.235 13.5232 20.296 13.4582 20.3346 13.3784C20.3633 13.3257 20.3813 13.2671 20.3877 13.2065C20.394 13.1459 20.3884 13.0845 20.3713 13.0264C20.3574 12.9682 20.3323 12.9139 20.2975 12.8667C20.2627 12.8195 20.219 12.7806 20.1693 12.7525L19.6827 12.4591C19.5426 12.3786 19.4277 12.2562 19.3521 12.1071L19.0858 11.5692C19.0499 11.495 18.9957 11.4327 18.9291 11.3889C18.8624 11.345 18.7858 11.3214 18.7075 11.3203C18.6292 11.3193 18.5521 11.3411 18.4845 11.3832C18.4169 11.4253 18.3613 11.4862 18.3237 11.5594L18.0483 12.0875C17.972 12.2337 17.8571 12.3528 17.7177 12.4298L17.2219 12.7134C17.1469 12.7544 17.086 12.8194 17.0474 12.8992C17.0197 12.9519 17.0019 13.0098 16.9952 13.0698C16.9885 13.1297 16.993 13.1905 17.0083 13.2486C17.0237 13.3068 17.0496 13.3611 17.0847 13.4085C17.1197 13.456 17.1632 13.4956 17.2127 13.5251ZM17.8738 13.0459L17.9932 12.9775C18.2285 12.8426 18.4228 12.639 18.5533 12.3907L18.6175 12.2635C18.6265 12.2488 18.6388 12.2367 18.6532 12.2281C18.6676 12.2196 18.6837 12.215 18.7002 12.2146C18.7178 12.2149 18.7349 12.2206 18.7496 12.231C18.7642 12.2414 18.7758 12.2561 18.7828 12.2733L18.8379 12.3907C18.9677 12.6446 19.1617 12.8547 19.398 12.997L19.5082 13.0655C19.522 13.075 19.5334 13.0881 19.5414 13.1034C19.5494 13.1187 19.5538 13.1359 19.5541 13.1535C19.554 13.1698 19.5497 13.1857 19.5415 13.1995C19.5334 13.2133 19.5219 13.2245 19.5082 13.2317L19.3888 13.3002C19.1516 13.4323 18.9567 13.6366 18.8287 13.887L18.7645 14.0043C18.7566 14.0209 18.7449 14.035 18.7304 14.0452C18.7159 14.0555 18.6992 14.0616 18.6818 14.063C18.6645 14.0616 18.6477 14.0555 18.6333 14.0452C18.6188 14.035 18.607 14.0209 18.5992 14.0043L18.5349 13.887C18.4138 13.6296 18.2215 13.418 17.984 13.2806L17.8738 13.2122C17.86 13.2026 17.8486 13.1896 17.8406 13.1742C17.8326 13.1589 17.8282 13.1417 17.8279 13.1242C17.828 13.1079 17.8323 13.0919 17.8404 13.0781C17.8485 13.0643 17.8601 13.0532 17.8738 13.0459Z" fill="#100E10"/>
<path d="M31.6174 12.9194L27.4672 10.2103C26.8428 9.7996 26.5214 9.56488 26.2184 9.34972C25.9154 9.13457 25.5848 8.89985 24.9513 8.47932C24.4664 8.16725 23.9109 8.0016 23.3444 8.00011C22.8933 7.99615 22.4473 8.10151 22.0401 8.30822C21.6328 8.51492 21.2751 8.81756 20.9938 9.19325C20.6119 9.72018 20.271 10.2795 19.9746 10.8656L19.8369 11.1199C19.8183 11.1436 19.8029 11.1699 19.791 11.1981C19.6808 11.4035 19.7634 11.5893 19.8553 11.7164C19.9732 11.8766 20.1283 12.0013 20.3052 12.0783C20.3972 12.1251 20.4971 12.1517 20.599 12.1565C20.7735 12.1565 20.9112 12.0587 21.0306 11.8436C21.0489 11.8088 21.0704 11.776 21.0948 11.7458L21.1132 11.7067C21.205 11.56 21.2877 11.4035 21.3795 11.247C21.4713 11.0905 21.7468 10.6211 21.9304 10.3081C22.1618 9.90882 22.5327 9.62372 22.9614 9.51552C23.3901 9.40732 23.8417 9.48487 24.2167 9.73114C25.1625 10.3473 25.7409 10.7482 26.3653 11.1786C26.9897 11.6089 27.3662 11.8729 28.0824 12.3424C28.0916 12.3465 28.1 12.3527 28.1069 12.3605C28.1139 12.3683 28.1192 12.3775 28.1227 12.3876C28.1261 12.3977 28.1276 12.4085 28.127 12.4192C28.1264 12.4299 28.1237 12.4404 28.1191 12.4499C28.1135 12.4689 28.1026 12.4857 28.0878 12.4979C28.0731 12.5102 28.0551 12.5173 28.0364 12.5184H25.7777C25.453 12.5205 25.1376 12.6336 24.8778 12.8411L24.8227 12.8607C24.8015 12.8588 24.7818 12.8483 24.7676 12.8313C24.5153 12.606 24.1971 12.4815 23.8678 12.4793H21.2417C21.217 12.4803 21.1927 12.4869 21.1705 12.4987C21.1484 12.5105 21.1288 12.5272 21.1132 12.5477C21.099 12.5687 21.0899 12.593 21.0867 12.6186C21.0835 12.6442 21.0863 12.6703 21.0948 12.6944C21.1529 12.908 21.1561 13.1343 21.104 13.3497C21.0946 13.4005 21.1045 13.4533 21.1316 13.4964C21.1458 13.5154 21.164 13.5305 21.1847 13.5407C21.2055 13.5509 21.2281 13.5558 21.2509 13.5551H23.7852C24.0974 13.5551 24.2902 13.7702 24.2902 14.1027V14.7873C24.2994 15.3056 24.3085 15.8435 24.281 16.3814C24.2274 17.6198 23.7695 18.7993 22.9863 19.7163C22.9213 19.7849 22.8506 19.8471 22.7751 19.9022C22.6162 20.0488 22.4159 20.1348 22.2059 20.1467C22.0039 20.1467 21.811 20.0586 21.5998 19.8728C21.1224 19.4523 20.8377 18.8948 20.6449 18.445C20.2684 17.5941 20.1032 16.7922 20.1307 15.9707C20.1399 15.5697 20.1399 15.1687 20.1399 14.8655C20.1368 14.8283 20.1227 14.7931 20.0996 14.7649C20.0765 14.7368 20.0456 14.7172 20.0114 14.7091H19.9838C19.9566 14.709 19.9298 14.7161 19.9057 14.7298C19.8817 14.7434 19.8612 14.7632 19.8461 14.7873L19.7726 14.9242C19.6539 15.1539 19.471 15.3385 19.2492 15.4523C19.2218 15.4668 19.1988 15.4891 19.1825 15.5167C19.1663 15.5444 19.1576 15.5762 19.1574 15.6088C19.2325 16.8986 18.903 18.1783 18.2209 19.2469C18.0508 19.5256 17.8364 19.7705 17.5873 19.9706C17.4297 20.1027 17.2368 20.1781 17.0364 20.1858C16.8357 20.1795 16.6424 20.104 16.4855 19.9706C15.9804 19.5696 15.6774 19.0024 15.4571 18.5036C15.0531 17.6137 14.8786 16.7922 14.9245 15.9707V14.0734C14.9208 14.0029 14.9306 13.9323 14.9533 13.866C14.9761 13.7997 15.0114 13.739 15.0569 13.6877C15.1025 13.6365 15.1574 13.5956 15.2183 13.5678C15.2792 13.5399 15.3449 13.5256 15.4112 13.5257H16.21C16.2328 13.5265 16.2555 13.5216 16.2762 13.5114C16.2969 13.5012 16.3151 13.486 16.3294 13.467C16.3555 13.4236 16.3654 13.3712 16.3569 13.3203C16.3127 13.1246 16.3096 12.9209 16.3477 12.7238C16.3551 12.7004 16.3565 12.6754 16.3516 12.6513C16.3468 12.6272 16.3359 12.6049 16.3202 12.5868C16.3064 12.5666 16.2885 12.5499 16.2678 12.5381C16.2472 12.5262 16.2243 12.5195 16.2008 12.5184H15.4571C15.1123 12.5107 14.7765 12.6357 14.5113 12.8705L14.447 12.89L14.3919 12.8705C14.1426 12.6398 13.8224 12.5145 13.4921 12.5184H10.2692C10.0761 12.513 9.88401 12.5496 9.7046 12.6258C9.52519 12.702 9.36223 12.8164 9.22564 12.9619C9.08905 13.1073 8.9817 13.2809 8.91012 13.472C8.83853 13.6631 8.80422 13.8677 8.80927 14.0734V16.401C8.81089 16.6835 8.83857 16.9653 8.89191 17.242C8.93804 17.48 8.99628 17.715 9.06637 17.9462C9.07084 17.9571 9.07319 17.9688 9.07329 17.9807C9.07339 17.9926 9.07123 18.0043 9.06694 18.0153C9.06265 18.0263 9.05632 18.0362 9.04833 18.0445C9.04034 18.0528 9.03086 18.0593 9.02046 18.0636C8.85163 18.1665 8.67682 18.258 8.49709 18.3374C8.35754 18.394 8.23641 18.4924 8.14839 18.6209C8.06038 18.7494 8.00927 18.9023 8.00126 19.0611C7.99463 19.1854 8.01429 19.3097 8.05879 19.4248C8.10328 19.5399 8.17149 19.6428 8.25835 19.7261C8.2686 19.7342 8.27716 19.7444 8.28348 19.7562C8.28981 19.768 8.29376 19.7811 8.29508 19.7946C8.29744 20.3306 8.32809 20.8661 8.3869 21.3985C8.49497 22.4391 8.73593 23.4591 9.1031 24.4302C9.61391 25.7859 10.3512 27.0318 11.2792 28.1074C13.2539 30.3994 15.9854 31.7874 18.9003 31.9802C19.1391 31.9998 19.387 31.9998 19.6349 31.9998C20.4596 32.0049 21.2821 31.9097 22.0865 31.7162C24.4178 31.1742 26.5234 29.8471 28.0915 27.9314C28.3778 27.5936 28.6446 27.2376 28.8904 26.8654C29.2275 26.3434 29.5312 25.7977 29.7994 25.2322C30.0165 24.7524 30.2066 24.2593 30.3687 23.7554C30.5064 23.2762 30.6166 22.8361 30.6992 22.4058C30.8134 21.8223 30.8871 21.2307 30.9196 20.6356C30.9288 20.3716 30.9196 20.1173 30.9196 19.8728V19.8141C30.9195 19.8003 30.9228 19.7866 30.9293 19.7746C30.9357 19.7626 30.9451 19.7526 30.9563 19.7457C31.0415 19.6646 31.1093 19.5651 31.1552 19.4537C31.2011 19.3424 31.2241 19.2218 31.2226 19.1002C31.2229 18.9408 31.1797 18.7847 31.0982 18.651C31.0167 18.5173 30.9004 18.4117 30.7635 18.3472L30.332 18.132L30.2585 18.0929L30.2126 18.0636C30.1942 18.0517 30.1799 18.034 30.1716 18.0129C30.1634 17.9918 30.1616 17.9684 30.1667 17.9462C30.3294 17.4454 30.4192 16.921 30.433 16.3912V14.0538C30.4333 14.0363 30.4376 14.0191 30.4456 14.0037C30.4537 13.9884 30.4651 13.9754 30.4789 13.9658H30.5707L30.5982 13.9854L30.9655 14.2201C31.0716 14.2851 31.192 14.3189 31.3144 14.3179C31.4662 14.3184 31.6138 14.2647 31.7336 14.1654C31.8535 14.0662 31.9386 13.927 31.9755 13.7702C32.0582 13.4377 31.9296 13.115 31.6174 12.9194ZM24.988 8.96831C24.9694 9.00872 24.9407 9.04289 24.9051 9.06704C24.8695 9.0912 24.8282 9.10441 24.786 9.10523C24.7142 9.10197 24.6444 9.07833 24.584 9.03677C24.2005 8.80391 23.7675 8.67935 23.3261 8.67492C22.5364 8.67492 21.8018 9.10523 21.3152 9.84849C21.2927 9.89613 21.2587 9.93658 21.2168 9.96577C21.1749 9.99496 21.1265 10.0119 21.0765 10.0148H20.9938C20.9396 10.0008 20.892 9.96636 20.8599 9.91776C20.8277 9.86916 20.8134 9.80977 20.8194 9.7507C20.8169 9.66863 20.8431 9.58851 20.8928 9.52576L20.9112 9.5062C21.3295 8.8418 21.9709 8.37326 22.7035 8.19683C23.4361 8.0204 24.2043 8.14948 24.8503 8.55756C25.0339 8.67492 25.0798 8.81183 24.988 8.96831ZM25.2543 14.7873V14.1125C25.2543 13.7506 25.4655 13.5257 25.796 13.5257H28.9179C28.9946 13.5195 29.0717 13.5302 29.1444 13.5571C29.2171 13.584 29.2838 13.6266 29.3403 13.6822C29.4397 13.8072 29.4892 13.9687 29.478 14.1321C29.478 14.3766 29.4872 14.6308 29.4872 14.8753C29.5056 15.4459 29.4964 16.0172 29.4597 16.5868C29.3865 17.7682 28.9286 18.8853 28.165 19.7457C27.8987 20.0489 27.6324 20.1956 27.3662 20.1956C27.0999 20.1956 26.8152 20.0391 26.5306 19.7163C26.0256 19.1296 25.6675 18.4058 25.4104 17.4279C25.2988 17.0282 25.2461 16.6125 25.2543 16.1956V14.7873ZM9.74584 14.7482V14.1321C9.74584 13.7409 9.94785 13.5257 10.3059 13.5257H13.4278C13.5013 13.5255 13.5741 13.541 13.642 13.5712C13.7098 13.6015 13.7712 13.6458 13.8227 13.7017C13.8761 13.759 13.917 13.8282 13.9424 13.9043C13.9678 13.9804 13.9771 14.0615 13.9696 14.1418C13.9604 14.5037 13.9696 14.8655 13.9696 15.2176C13.9696 15.5697 13.9788 16.0391 13.9604 16.4303C13.9172 17.6701 13.4541 18.8513 12.6565 19.7555C12.3903 20.0586 12.1148 20.2053 11.8577 20.2053C11.6006 20.2053 11.3068 20.0391 11.0313 19.7163C10.2273 18.7605 9.77416 17.5277 9.75502 16.2445C9.73666 15.736 9.74584 15.2176 9.74584 14.7482ZM30.1299 19.198C30.0612 19.3187 30.0262 19.4578 30.0289 19.599V19.9511C30.0289 20.1662 30.0289 20.3814 30.0198 20.5965C29.9934 21.1426 29.9259 21.6855 29.8178 22.22C29.7393 22.6399 29.6381 23.0546 29.5148 23.462C29.3719 23.9251 29.197 24.3762 28.9914 24.8116C28.7526 25.3375 28.4731 25.8413 28.1558 26.3177C27.9339 26.6656 27.6884 26.9957 27.4212 27.3055C26.8051 28.0551 26.0944 28.71 25.3094 29.2517C24.2671 29.9787 23.1099 30.4989 21.8937 30.7871C21.1523 30.9644 20.3947 31.053 19.6349 31.0512L18.9554 31.0316C16.2738 30.8441 13.7623 29.5661 11.9403 27.462C11.4922 26.9473 11.0924 26.3872 10.7467 25.7896C10.4274 25.2459 10.1539 24.6732 9.92948 24.0781C9.59779 23.1831 9.37559 22.2463 9.26838 21.2909C9.20722 20.7294 9.17962 20.1642 9.18574 19.599C9.19512 19.4646 9.16287 19.3306 9.09392 19.2176C9.0869 19.1922 9.0838 19.1658 9.08474 19.1393C9.09463 19.1101 9.11423 19.0858 9.13983 19.0709L9.35101 18.9731H9.38774C9.4051 18.9744 9.42182 18.9806 9.4363 18.9908C9.45078 19.0011 9.46252 19.0152 9.47038 19.0318C9.79175 19.7261 10.1407 20.2347 10.563 20.6259C10.9854 21.0171 11.3986 21.2127 11.8485 21.2127C11.9814 21.2109 12.1137 21.1945 12.2434 21.1638C12.6382 21.066 13.0055 20.8312 13.3544 20.44C13.7828 19.9593 14.1251 19.3992 14.3644 18.7873C14.3714 18.7701 14.383 18.7554 14.3976 18.745C14.4123 18.7346 14.4294 18.7289 14.447 18.7286C14.4646 18.7289 14.4818 18.7346 14.4965 18.745C14.5111 18.7554 14.5226 18.7701 14.5297 18.7873C14.594 18.9437 14.6582 19.0709 14.7133 19.198C15.0071 19.7555 15.3836 20.3911 15.9988 20.8508C16.306 21.091 16.6783 21.218 17.0594 21.2127C17.4404 21.2074 17.8094 21.0701 18.1107 20.8215C18.6983 20.3716 19.0748 19.7457 19.3319 19.2371C19.4053 19.1002 19.4604 18.9633 19.5155 18.8459C19.5226 18.8287 19.5341 18.8141 19.5488 18.8037C19.5634 18.7933 19.5806 18.7876 19.5982 18.7873C19.6155 18.7886 19.6322 18.7948 19.6467 18.805C19.6612 18.8153 19.6729 18.8294 19.6808 18.8459V18.8655C19.6826 18.8863 19.6889 18.9064 19.6992 18.9242C20.0848 19.7946 20.498 20.3814 21.0306 20.8117C21.3646 21.0883 21.7736 21.2426 22.1967 21.2518C22.593 21.2451 22.9777 21.1085 23.2985 20.8606C23.8954 20.4205 24.2626 19.8141 24.5105 19.3251C24.5918 19.1779 24.6624 19.0242 24.7217 18.8655C24.7296 18.849 24.7413 18.8349 24.7558 18.8246C24.7703 18.8143 24.787 18.8082 24.8044 18.8068C24.822 18.8071 24.8391 18.8128 24.8538 18.8232C24.8684 18.8336 24.88 18.8483 24.887 18.8655L25.0431 19.1882C25.3002 19.7163 25.6767 20.3716 26.301 20.8312C26.6043 21.0711 26.9701 21.2044 27.3478 21.2127C27.6111 21.2071 27.8705 21.1438 28.1099 21.0268C28.4143 20.8669 28.6858 20.6442 28.9087 20.3716C29.2117 20.0195 29.5607 19.3545 29.7443 18.9829C29.7511 18.9683 29.7616 18.956 29.7745 18.9473C29.7875 18.9387 29.8025 18.9341 29.8178 18.934H29.8637L30.084 19.0611C30.097 19.0653 30.1089 19.0728 30.1185 19.0831C30.1281 19.0933 30.1352 19.1059 30.1391 19.1198C30.1455 19.1461 30.1422 19.1741 30.1299 19.198Z" fill="#100E10"/>
</svg>
