<svg width="24" height="24" viewBox="0 0 24 24" fill="none" xmlns="http://www.w3.org/2000/svg">
<g clip-path="url(#clip0_1310_6624)">
<path d="M2.13215 8.39151C2.11446 7.90286 2.1233 7.40482 2.1233 6.95376V6.36175C2.1233 5.98587 2.31785 5.77913 2.66273 5.77913H5.66936C5.74031 5.77784 5.81073 5.79221 5.87618 5.82132C5.94163 5.85044 6.00069 5.89367 6.04961 5.94828C6.10213 6.00252 6.14221 6.06886 6.16674 6.14219C6.19128 6.21551 6.19961 6.29385 6.1911 6.37115C6.18226 6.71884 6.1911 7.06653 6.1911 7.40482C6.1911 7.74311 6.19994 8.19417 6.18226 8.57005C6.13988 9.76109 5.69393 10.8958 4.92655 11.765C4.6701 12.0563 4.40481 12.1973 4.1572 12.1973C3.9096 12.1973 3.62662 12.0376 3.36133 11.7274C2.58908 10.8076 2.15294 9.62398 2.13215 8.39151Z" fill="white"/>
<path d="M16.8012 1.40005C16.7825 1.43824 16.7547 1.47052 16.7206 1.49362C16.6864 1.51672 16.6471 1.52982 16.6066 1.53161C16.5374 1.52847 16.4703 1.50576 16.4121 1.46583C16.0437 1.2397 15.626 1.11985 15.2006 1.11814C14.4401 1.11814 13.7326 1.53161 13.264 2.24578C13.2416 2.29096 13.2087 2.32934 13.1685 2.35729C13.1282 2.38524 13.082 2.40184 13.034 2.40553H12.9545C12.9022 2.39216 12.8564 2.35903 12.8254 2.31233C12.7945 2.26564 12.7807 2.20858 12.7864 2.15181C12.7871 2.07347 12.8119 1.99753 12.8572 1.93568L12.8749 1.91688C13.2778 1.27849 13.8954 0.828287 14.601 0.658765C15.3065 0.489242 16.0464 0.613272 16.6685 1.00537C16.8454 1.11814 16.8896 1.2497 16.8012 1.40005Z" fill="white"/>
<path d="M17.2078 9.52855C17.1003 9.14452 17.0496 8.74509 17.0574 8.34452V6.34296C17.0574 5.99527 17.2608 5.77914 17.5792 5.77914H20.5858C20.6598 5.77199 20.7343 5.7817 20.8045 5.80763C20.8746 5.83356 20.9388 5.8751 20.9926 5.92949C21.0883 6.04958 21.1359 6.20477 21.1252 6.36175C21.1252 6.59668 21.1341 6.841 21.1341 7.07593C21.1518 7.62421 21.1429 8.17309 21.1075 8.7204C21.0363 9.85535 20.5955 10.9285 19.8607 11.7556C19.6042 12.047 19.3478 12.1879 19.0913 12.1879C18.8349 12.1879 18.5607 12.0376 18.2866 11.7275C17.8002 11.1636 17.4554 10.4683 17.2078 9.52855Z" fill="white"/>
<path d="M21.7618 11.1543C21.7679 11.1797 21.7648 11.2065 21.753 11.2295C21.69 11.347 21.6565 11.4796 21.6557 11.6148V11.9531C21.6557 12.1598 21.6557 12.3666 21.6468 12.5733C21.6218 13.098 21.5567 13.6197 21.4523 14.1332C21.3811 14.5377 21.2836 14.9364 21.1605 15.3266C21.0261 15.7728 20.8575 16.2065 20.6564 16.6234C20.4279 17.1295 20.1586 17.6137 19.8517 18.0705C19.6384 18.4052 19.402 18.7224 19.1443 19.0196C18.5539 19.7431 17.869 20.3728 17.1104 20.8897C16.1076 21.5904 14.9928 22.0905 13.8208 22.365C13.1065 22.5339 12.3771 22.6189 11.6454 22.6187L10.991 22.5999C9.09772 22.4665 7.27812 21.769 5.74069 20.5873C4.20327 19.4056 3.01023 17.7876 2.29828 15.9186C1.98085 15.0579 1.76693 14.1581 1.66158 13.2405C1.5996 12.7012 1.573 12.158 1.582 11.6148C1.59312 11.4855 1.56189 11.356 1.49357 11.2483C1.48629 11.224 1.48329 11.1986 1.48472 11.1731C1.49425 11.1451 1.51313 11.1217 1.53778 11.1074L1.74117 11.0134H1.77654C1.7935 11.0137 1.81002 11.0192 1.82413 11.0292C1.83824 11.0391 1.84935 11.0532 1.85613 11.0698C2.16564 11.737 2.50167 12.2256 2.90845 12.6015C3.31523 12.9774 3.71317 13.1653 4.14648 13.1653C4.27445 13.1642 4.40193 13.1484 4.52673 13.1183C4.90698 13.0243 5.2607 12.7988 5.59674 12.4229C6.01161 11.9629 6.34156 11.4242 6.56947 10.8348C6.57625 10.8183 6.58736 10.8042 6.60147 10.7942C6.61558 10.7842 6.6321 10.7788 6.64906 10.7785C6.66628 10.7774 6.68336 10.7824 6.69771 10.7925C6.71207 10.8027 6.72292 10.8175 6.72864 10.8348C6.79055 10.9852 6.85245 11.1074 6.90551 11.2295C7.18848 11.7651 7.55105 12.3759 8.14353 12.8176C8.43996 13.0469 8.79827 13.1681 9.16489 13.163C9.53151 13.1579 9.88673 13.0269 10.1774 12.7894C10.7434 12.3572 11.1059 11.7557 11.3536 11.2671C11.4243 11.1355 11.4774 11.004 11.5304 10.8912C11.5372 10.8747 11.5483 10.8606 11.5624 10.8506C11.5765 10.8406 11.593 10.8351 11.61 10.8348C11.6267 10.8362 11.6428 10.842 11.6568 10.8519C11.6707 10.8618 11.682 10.8753 11.6896 10.8912V10.91C11.6914 10.93 11.6974 10.9493 11.7073 10.9664C12.0787 11.8027 12.4766 12.3666 12.9895 12.78C13.2967 13.0451 13.6784 13.1937 14.074 13.2022C14.4697 13.2107 14.8567 13.0787 15.1737 12.827C15.7485 12.4041 16.1023 11.8215 16.341 11.3517C16.4211 11.2112 16.4892 11.0634 16.5444 10.91C16.552 10.8941 16.5633 10.8806 16.5772 10.8707C16.5912 10.8608 16.6073 10.8549 16.624 10.8536C16.6412 10.8526 16.6583 10.8575 16.6727 10.8677C16.687 10.8779 16.6979 10.8927 16.7036 10.91L16.8539 11.2201C17.1015 11.7276 17.4641 12.3572 18.0654 12.7988C18.3569 13.0304 18.7096 13.1586 19.0735 13.1653C19.327 13.1586 19.5766 13.0979 19.8075 12.9868C20.1017 12.8349 20.3635 12.6206 20.5768 12.3572C20.8687 12.0189 21.2047 11.3799 21.3816 11.0228C21.3888 11.0094 21.399 10.9981 21.4114 10.9899C21.4237 10.9817 21.4378 10.9768 21.4523 10.9758H21.4965L21.7087 11.098C21.7213 11.102 21.7327 11.1092 21.7419 11.1191C21.7512 11.1289 21.758 11.141 21.7618 11.1543Z" fill="white"/>
<path d="M23.4158 4.79226L19.4188 2.18929C18.9147 1.86039 18.6141 1.64426 18.3576 1.46572L18.225 1.37175C17.942 1.16501 17.6148 0.939483 16.9958 0.526013C16.461 0.186095 15.8503 0.0044026 15.2272 -0.000219965H15.1918C14.695 -0.00218861 14.2043 0.1161 13.7569 0.345673C13.3095 0.575245 12.9171 0.910074 12.6096 1.32476C12.2281 1.85375 11.8852 2.41294 11.5839 2.99743L11.4689 3.20417C11.4431 3.24168 11.4223 3.28279 11.407 3.32633C11.3819 3.36638 11.3639 3.41096 11.3539 3.45788C11.2273 3.31813 11.0613 3.22603 10.881 3.19551C10.7007 3.16499 10.5159 3.19772 10.3547 3.28874C10.2034 3.3759 10.0778 3.50604 9.99211 3.66462L9.72682 4.17206C9.6956 4.23436 9.64585 4.28393 9.58533 4.31301L9.11665 4.58553C9.03206 4.62804 8.95676 4.68885 8.89557 4.76407C8.87199 4.69669 8.83922 4.63337 8.7983 4.57613C8.74447 4.50591 8.67722 4.44866 8.60099 4.40815C8.52476 4.36765 8.4413 4.34483 8.35614 4.34121H7.59564C7.26573 4.34017 6.94175 4.43436 6.65828 4.61372C6.38396 4.43577 6.06884 4.34149 5.74745 4.34121H2.59048C2.11658 4.33864 1.66075 4.53435 1.32153 4.88602C0.982315 5.2377 0.786949 5.7171 0.777662 6.22061V8.54168C0.780394 8.84467 0.810002 9.14671 0.866093 9.44379C0.892622 9.58475 0.927994 9.7257 0.963366 9.86666L0.759976 9.97002C0.546578 10.0552 0.361087 10.2045 0.226069 10.3997C0.0910517 10.5949 0.0123278 10.8276 -0.000524811 11.0695C-0.0153443 11.3972 0.08558 11.7189 0.282452 11.9716C0.291295 12.4414 0.326668 12.9207 0.370883 13.3999C0.484755 14.4414 0.728607 15.4621 1.09601 16.4352C1.60857 17.7883 2.34536 19.0327 3.2714 20.1094C5.24733 22.4016 7.98322 23.7896 10.9029 23.981C11.1505 23.9998 11.3982 23.9998 11.6281 23.9998H11.7077C12.5138 23.9999 13.3175 23.9054 14.1041 23.7179C16.435 23.1687 18.541 21.8457 20.1174 19.9403C20.4075 19.5991 20.6763 19.2381 20.9221 18.8596C21.2612 18.3411 21.5655 17.7978 21.8329 17.2339C22.051 16.7555 22.2401 16.2627 22.3989 15.7586H22.4077C22.5492 15.2512 22.6553 14.8283 22.7349 14.4148C22.8482 13.8323 22.9221 13.2419 22.956 12.6482C22.9648 12.4729 22.9648 12.2972 22.956 12.1219V11.9998C23.1511 11.7677 23.2555 11.4652 23.2478 11.154C23.2481 10.9104 23.1824 10.6719 23.0585 10.467C22.9346 10.262 22.7578 10.0993 22.5492 9.99821L22.3016 9.87605C22.4171 9.44797 22.4795 9.00571 22.4873 8.56047V6.92539C22.6165 6.98125 22.7546 7.00997 22.8941 7.00996C23.1375 7.01146 23.3743 6.92617 23.5667 6.76774C23.7591 6.6093 23.8959 6.38687 23.9553 6.13604C24.0197 5.88021 24.0016 5.6088 23.9038 5.3652C23.806 5.1216 23.6342 4.91987 23.4158 4.79226ZM9.15202 5.17754C9.18913 5.10086 9.24788 5.03844 9.32004 4.999L9.79756 4.72648C9.93179 4.65248 10.0425 4.53808 10.1159 4.39759L10.3812 3.89015C10.4216 3.81281 10.4833 3.75049 10.5581 3.7116C10.6555 3.65869 10.7687 3.64874 10.873 3.68393C10.9773 3.71911 11.0643 3.79659 11.1152 3.89955L11.3716 4.41638C11.4445 4.55968 11.5551 4.67726 11.69 4.75467L12.1587 5.03658C12.2065 5.06361 12.2486 5.10098 12.2821 5.1463C12.3156 5.19161 12.3398 5.24386 12.3532 5.2997C12.3697 5.35562 12.375 5.41456 12.369 5.4728C12.3629 5.53103 12.3455 5.58729 12.3178 5.63799C12.2807 5.71467 12.222 5.7771 12.1498 5.81654L11.6723 6.08905C11.5381 6.16306 11.4273 6.27745 11.3539 6.41795L11.0798 6.91599C11.0468 6.98714 10.9944 7.04609 10.9295 7.08514C10.8654 7.1266 10.7922 7.1493 10.7172 7.15092C10.6414 7.15017 10.5672 7.12689 10.5032 7.08372C10.4391 7.04055 10.3877 6.97919 10.3547 6.90659L10.0982 6.39915C10.0254 6.25585 9.91473 6.13828 9.77987 6.06086L9.31119 5.77895C9.26269 5.75152 9.21992 5.71394 9.18546 5.66847C9.151 5.623 9.12557 5.57058 9.11069 5.51438C9.09582 5.45818 9.09181 5.39936 9.09891 5.34147C9.10602 5.28357 9.12408 5.22781 9.15202 5.17754ZM23.5308 6.01388C23.505 6.11875 23.4567 6.21588 23.3898 6.29771C23.3229 6.37954 23.2392 6.44386 23.145 6.48569C23.0509 6.52751 22.949 6.5457 22.8472 6.53884C22.7454 6.53198 22.6465 6.50026 22.5581 6.44614L22.2043 6.22061L22.1778 6.20182H22.0894C22.0761 6.21101 22.0651 6.22353 22.0574 6.23827C22.0497 6.25301 22.0455 6.26953 22.0452 6.28639V8.53228C22.0353 9.04167 21.9487 9.5461 21.7887 10.0264C21.7839 10.0478 21.7855 10.0702 21.7935 10.0905C21.8014 10.1107 21.8152 10.1278 21.8329 10.1392L21.8771 10.1674L21.9479 10.2049L22.3635 10.4117C22.496 10.4727 22.6087 10.5739 22.6873 10.7026C22.766 10.8313 22.8071 10.9818 22.8057 11.1353C22.8065 11.252 22.7842 11.3676 22.74 11.4745C22.6957 11.5814 22.6307 11.6772 22.5492 11.7555C22.5384 11.7621 22.5294 11.7717 22.5232 11.7833C22.517 11.7948 22.5137 11.8079 22.5138 11.8212V11.8776C22.5138 12.1125 22.5227 12.3569 22.5138 12.6106C22.4873 13.1828 22.4163 13.7517 22.3016 14.3114C22.222 14.7249 22.1159 15.1478 21.9833 15.6082C21.8265 16.0921 21.6434 16.5659 21.435 17.0272C21.1794 17.5722 20.8868 18.0967 20.5595 18.5965C20.3205 18.9523 20.0637 19.2942 19.7902 19.6208C18.2787 21.4599 16.2514 22.7347 14.0068 23.2574C13.232 23.4423 12.4399 23.5337 11.6458 23.5299C11.407 23.5299 11.1682 23.5299 10.9383 23.5111C8.88109 23.3734 6.90276 22.6187 5.23273 21.3347C3.5627 20.0507 2.2694 18.29 1.50279 16.2566C1.15022 15.3231 0.91819 14.3432 0.813035 13.3436C0.756888 12.832 0.727367 12.3175 0.724604 11.8024C0.723327 11.7895 0.719523 11.7769 0.713433 11.7656C0.707343 11.7543 0.699101 11.7444 0.689232 11.7367C0.60607 11.6562 0.540729 11.5572 0.497914 11.4467C0.455098 11.3362 0.435875 11.217 0.441627 11.0977C0.450423 10.9454 0.500067 10.799 0.58469 10.6758C0.669314 10.5525 0.785375 10.4576 0.919151 10.4023C1.09222 10.326 1.26057 10.2381 1.4232 10.1392C1.43322 10.1351 1.44235 10.1288 1.45004 10.1209C1.45774 10.1129 1.46383 10.1034 1.46796 10.0928C1.4721 10.0823 1.47418 10.071 1.47408 10.0596C1.47399 10.0481 1.47172 10.0369 1.46742 10.0264C1.39907 9.80455 1.34296 9.57863 1.2994 9.34982C1.24627 9.08415 1.21959 8.81328 1.21981 8.54168V6.23001C1.2244 6.03871 1.26441 5.85025 1.33757 5.6754C1.41072 5.50054 1.51558 5.34272 1.64616 5.21094C1.77673 5.07917 1.93046 4.97603 2.09856 4.90741C2.26667 4.8388 2.44584 4.80606 2.62586 4.81106H5.72976C6.04786 4.80734 6.35619 4.9277 6.59638 5.14935L6.64944 5.16814L6.71134 5.14935C6.96673 4.92376 7.29014 4.80364 7.62217 4.81106H8.33846C8.36104 4.81213 8.38311 4.8186 8.40301 4.82999C8.42291 4.84138 8.44014 4.85739 8.45342 4.87684C8.47056 4.89282 8.48239 4.91425 8.48717 4.93795C8.49195 4.96165 8.48942 4.98635 8.47995 5.00839C8.4432 5.19783 8.44622 5.39355 8.48879 5.58161C8.49694 5.63047 8.48747 5.6808 8.46226 5.72257C8.44854 5.74081 8.431 5.7554 8.41105 5.76519C8.39109 5.77497 8.36927 5.77969 8.3473 5.77895H7.55143C7.48985 5.78255 7.42954 5.79903 7.37396 5.82744C7.31839 5.85586 7.26863 5.89565 7.22756 5.94454C7.18648 5.99342 7.15489 6.05045 7.13459 6.11233C7.1143 6.17422 7.10569 6.23976 7.10928 6.30518V8.12821C7.06506 8.91756 7.23308 9.70691 7.62217 10.562C7.83441 11.0413 8.12623 11.5863 8.61259 11.9716C8.76099 12.1047 8.94895 12.1778 9.14318 12.1778C9.3374 12.1778 9.52536 12.1047 9.67376 11.9716C9.91642 11.7826 10.1234 11.5467 10.2839 11.2762C10.9397 10.2488 11.2569 9.01963 11.1859 7.78052C11.1861 7.74921 11.1945 7.71859 11.2101 7.69204C11.2257 7.6655 11.248 7.64408 11.2743 7.63016C11.486 7.51782 11.6614 7.3412 11.7784 7.12273L11.8491 6.99117C11.8637 6.96799 11.8834 6.949 11.9066 6.93589C11.9297 6.92277 11.9556 6.91594 11.9818 6.91599H12.0083C12.0413 6.92384 12.0711 6.94264 12.0933 6.96967C12.1156 6.9967 12.1292 7.03056 12.1321 7.06634C12.1321 7.35765 12.1321 7.74293 12.1233 8.12821C12.0968 8.91756 12.2559 9.68811 12.6185 10.5057C12.8042 10.9379 13.0783 11.4735 13.5382 11.8776C13.7416 12.0562 13.9273 12.1407 14.1218 12.1407C14.3244 12.1308 14.5177 12.048 14.6701 11.9058C14.7417 11.8515 14.8097 11.7918 14.8735 11.7273C15.6264 10.8453 16.0673 9.71241 16.1203 8.52288C16.1469 8.00605 16.138 7.48921 16.1292 6.99117V6.33337C16.1292 6.01388 15.9435 5.80714 15.6428 5.80714H13.2021C13.1802 5.80788 13.1583 5.80316 13.1384 5.79338C13.1184 5.78359 13.1009 5.769 13.0872 5.75076C13.0611 5.70937 13.0516 5.65867 13.0606 5.6098C13.086 5.51191 13.0979 5.41062 13.096 5.3091C13.0943 5.19793 13.0795 5.08743 13.0518 4.9802C13.0436 4.95698 13.0409 4.93196 13.044 4.90736C13.0471 4.88277 13.0558 4.85937 13.0695 4.83925C13.1012 4.80119 13.1456 4.77762 13.1933 4.77347H15.7224C16.0398 4.77397 16.3468 4.8938 16.589 5.11176L16.6421 5.13995L16.6951 5.12116C16.9453 4.92179 17.2491 4.81308 17.5617 4.81106H19.7371C19.7551 4.81001 19.7724 4.80316 19.7866 4.7914C19.8008 4.77964 19.8113 4.76355 19.8167 4.74528C19.8211 4.73679 19.8236 4.72738 19.8241 4.71774C19.8246 4.70809 19.8232 4.69844 19.8198 4.68947C19.8164 4.6805 19.8112 4.67243 19.8046 4.66583C19.7979 4.65924 19.79 4.65428 19.7813 4.65131C19.0916 4.20025 18.729 3.94653 18.1277 3.53306C17.5264 3.11959 16.9693 2.72492 16.0584 2.1329C15.6972 1.89628 15.2624 1.82176 14.8495 1.92573C14.4366 2.02969 14.0794 2.30363 13.8565 2.68733L13.3259 3.58944C13.2375 3.7398 13.1579 3.89015 13.0695 4.0311L13.0518 4.06869C13.0263 4.09604 13.0053 4.12782 12.9899 4.16266C12.8749 4.3694 12.7423 4.46337 12.5743 4.46337C12.4764 4.45726 12.3804 4.43177 12.2913 4.38819C12.1225 4.31137 11.9737 4.19204 11.858 4.0405C11.7696 3.91834 11.69 3.7398 11.7961 3.54246C11.8055 3.5143 11.8206 3.48865 11.8403 3.46728L11.9729 3.22296C12.2595 2.66051 12.5877 2.12318 12.9545 1.61607C13.2254 1.25509 13.5699 0.964296 13.9621 0.765679C14.3543 0.567063 14.7839 0.465828 15.2183 0.469631C15.7641 0.469631 16.2994 0.628908 16.7659 0.930085C17.376 1.33416 17.6944 1.55969 17.9862 1.76642C18.278 1.97316 18.5875 2.19868 19.1889 2.59336L23.1859 5.19633C23.4866 5.38427 23.6104 5.69438 23.5308 6.01388ZM9.94789 5.47825L10.054 5.54402C10.2827 5.67604 10.4679 5.87937 10.5846 6.12664L10.6465 6.2394C10.6537 6.25529 10.665 6.26869 10.6791 6.27807C10.6932 6.28744 10.7095 6.29241 10.7261 6.29241C10.7427 6.29241 10.759 6.28744 10.773 6.27807C10.7871 6.26869 10.7984 6.25529 10.8057 6.2394L10.8676 6.12664C10.9908 5.88602 11.1786 5.68976 11.407 5.56282L11.522 5.49704C11.5351 5.49008 11.5463 5.47937 11.5541 5.4661C11.5619 5.45283 11.5661 5.43751 11.5662 5.42186C11.5658 5.405 11.5617 5.38848 11.5539 5.37374C11.5462 5.359 11.5353 5.34648 11.522 5.33729L11.4158 5.27151C11.1883 5.13476 11.0014 4.9329 10.8764 4.6889L10.8234 4.57613C10.8176 4.55884 10.8068 4.54399 10.7924 4.53382C10.7781 4.52365 10.761 4.51871 10.7438 4.51975C10.7279 4.52009 10.7124 4.52455 10.6985 4.53274C10.6846 4.54093 10.6728 4.5526 10.6642 4.56673L10.6023 4.6889C10.4766 4.92753 10.2895 5.12312 10.0629 5.25272L9.94789 5.3185C9.93527 5.32619 9.92463 5.33708 9.91692 5.35019C9.9092 5.36331 9.90466 5.37824 9.90368 5.39367C9.904 5.41053 9.90819 5.42705 9.9159 5.44179C9.9236 5.45654 9.93459 5.46905 9.94789 5.47825Z" fill="white"/>
</g>
<defs>
<clipPath id="clip0_1310_6624">
<rect width="24" height="24" fill="white"/>
</clipPath>
</defs>
</svg>
