<svg width="14" height="14" viewBox="0 0 14 14" fill="none" xmlns="http://www.w3.org/2000/svg">
<path d="M13.6594 2.79538L11.3278 1.27698C11.0338 1.08513 10.8584 0.95905 10.7088 0.854899L10.6314 0.800083C10.4663 0.679488 10.2755 0.54793 9.91438 0.306739C9.6024 0.108454 9.24619 0.00246646 8.88269 -0.000230038H8.86205C8.57224 -0.00137842 8.28598 0.0676231 8.025 0.201541C7.76402 0.335458 7.53516 0.530775 7.35579 0.772675C7.13325 1.08126 6.9332 1.40745 6.75741 1.7484L6.69035 1.86899C6.6753 1.89088 6.66315 1.91486 6.65424 1.94026C6.63961 1.96362 6.62912 1.98963 6.62329 2.017C6.54942 1.93548 6.45256 1.88175 6.34739 1.86395C6.24221 1.84614 6.13444 1.86523 6.04039 1.91833C5.95213 1.96918 5.8789 2.04509 5.82889 2.13759L5.67414 2.4336C5.65593 2.46994 5.62691 2.49886 5.5916 2.51582L5.31821 2.67479C5.26887 2.69959 5.22494 2.73506 5.18925 2.77894C5.17549 2.73964 5.15637 2.7027 5.1325 2.66931C5.10111 2.62835 5.06187 2.59495 5.01741 2.57132C4.97294 2.5477 4.92426 2.53438 4.87458 2.53227H4.43095C4.23851 2.53166 4.04952 2.58661 3.88416 2.69123C3.72414 2.58743 3.54032 2.53243 3.35284 2.53227H1.51128C1.23483 2.53077 0.968935 2.64493 0.771057 2.85008C0.57318 3.05522 0.459216 3.33488 0.453799 3.62859V4.98254C0.455393 5.15929 0.472664 5.33548 0.505384 5.50878C0.520859 5.591 0.541493 5.67322 0.562126 5.75545L0.443482 5.81575C0.319 5.86546 0.210797 5.95254 0.132037 6.06641C0.0532763 6.18027 0.00735401 6.316 -0.000143379 6.45709C-0.00878806 6.64824 0.0500844 6.83592 0.164927 6.98333C0.170085 7.25741 0.190719 7.53697 0.216511 7.81653C0.282937 8.42405 0.425184 9.01946 0.639503 9.58708C0.938493 10.3764 1.36829 11.1023 1.90848 11.7304C3.06111 13.0675 4.65704 13.8771 6.36021 13.9888C6.50465 13.9998 6.64908 13.9998 6.7832 13.9998H6.82963C7.29989 13.9999 7.76871 13.9447 8.22757 13.8353C9.58726 13.515 10.8158 12.7432 11.7353 11.6317C11.9046 11.4327 12.0614 11.2221 12.2047 11.0013C12.4025 10.6988 12.5801 10.382 12.736 10.053C12.8633 9.77393 12.9735 9.48647 13.0662 9.19241H13.0713C13.1539 8.8964 13.2158 8.64973 13.2622 8.40854C13.3283 8.06874 13.3714 7.72435 13.3912 7.378C13.3963 7.27575 13.3963 7.17328 13.3912 7.07103V6.99977C13.505 6.86437 13.5659 6.68791 13.5614 6.50643C13.5616 6.36433 13.5232 6.22518 13.4509 6.10562C13.3787 5.98606 13.2755 5.89113 13.1539 5.83219L13.0094 5.76093C13.0768 5.51121 13.1132 5.25323 13.1178 4.99351V4.03971C13.1931 4.0723 13.2737 4.08905 13.3551 4.08904C13.497 4.08992 13.6352 4.04017 13.7474 3.94774C13.8596 3.85532 13.9394 3.72557 13.9741 3.57925C14.0117 3.43002 14.0011 3.2717 13.9441 3.1296C13.887 2.9875 13.7868 2.86982 13.6594 2.79538ZM5.33884 3.02013C5.36049 2.9754 5.39476 2.93899 5.43685 2.91598L5.71541 2.75701C5.79371 2.71385 5.8583 2.64711 5.90111 2.56516L6.05586 2.26915C6.07942 2.22404 6.11543 2.18768 6.15903 2.165C6.21587 2.13413 6.28188 2.12833 6.34272 2.14885C6.40356 2.16938 6.45433 2.21458 6.48401 2.27463L6.63361 2.57612C6.67611 2.65971 6.74065 2.7283 6.81931 2.77346L7.09271 2.93791C7.12065 2.95367 7.14517 2.97547 7.16472 3.0019C7.18426 3.02834 7.19839 3.05882 7.20619 3.09139C7.21581 3.12401 7.21894 3.15839 7.21539 3.19236C7.21184 3.22633 7.20168 3.25915 7.18556 3.28873C7.16391 3.33346 7.12964 3.36987 7.08755 3.39288L6.809 3.55185C6.7307 3.59501 6.6661 3.66175 6.62329 3.7437L6.46338 4.03423C6.44414 4.07573 6.41358 4.11012 6.37569 4.13289C6.33833 4.15708 6.29562 4.17032 6.25188 4.17127C6.20763 4.17083 6.16437 4.15725 6.127 4.13207C6.08963 4.10688 6.05963 4.07109 6.04039 4.02874L5.89079 3.73274C5.84829 3.64915 5.78375 3.58056 5.70509 3.5354L5.43169 3.37095C5.4034 3.35495 5.37845 3.33303 5.35835 3.30651C5.33825 3.27998 5.32341 3.24941 5.31473 3.21662C5.30606 3.18384 5.30372 3.14952 5.30786 3.11575C5.31201 3.08198 5.32254 3.04945 5.33884 3.02013ZM13.7265 3.50799C13.7114 3.56917 13.6833 3.62583 13.6442 3.67356C13.6052 3.72129 13.5563 3.75882 13.5014 3.78322C13.4465 3.80761 13.3871 3.81822 13.3277 3.81422C13.2683 3.81022 13.2106 3.79171 13.159 3.76015L12.9527 3.62859L12.9372 3.61762H12.8856C12.8779 3.62299 12.8715 3.63029 12.867 3.63889C12.8625 3.64749 12.86 3.65712 12.8598 3.66696V4.97706C12.8541 5.27421 12.8036 5.56846 12.7102 5.84863C12.7074 5.86109 12.7084 5.87418 12.713 5.88601C12.7177 5.89783 12.7257 5.90778 12.736 5.91441L12.7618 5.93086L12.8031 5.95279L13.0455 6.07338C13.1228 6.10897 13.1885 6.168 13.2344 6.24308C13.2803 6.31816 13.3043 6.40595 13.3035 6.49546C13.304 6.56357 13.2909 6.63102 13.2651 6.69338C13.2394 6.75574 13.2014 6.81159 13.1539 6.85725C13.1475 6.86113 13.1423 6.86673 13.1387 6.87347C13.1351 6.88021 13.1332 6.88786 13.1332 6.89562V6.92851C13.1332 7.06555 13.1384 7.20807 13.1332 7.35607C13.1177 7.68985 13.0763 8.0217 13.0094 8.34824C12.963 8.58943 12.9011 8.83611 12.8237 9.1047C12.7323 9.38695 12.6255 9.66332 12.5039 9.93243C12.3548 10.2503 12.1842 10.5563 11.9932 10.8479C11.8538 11.0554 11.704 11.2549 11.5444 11.4453C10.6628 12.5182 9.48016 13.2618 8.17082 13.5667C7.71881 13.6746 7.25679 13.7279 6.79352 13.7257C6.65424 13.7257 6.51496 13.7257 6.38084 13.7147C5.1808 13.6344 4.02677 13.1941 3.05259 12.4451C2.07841 11.6961 1.32398 10.669 0.876791 9.48293C0.671122 8.93839 0.535774 8.36677 0.474433 7.78364C0.441681 7.48522 0.42446 7.1851 0.422849 6.88466C0.422104 6.87709 0.419884 6.86977 0.416332 6.86316C0.412779 6.85656 0.407972 6.85081 0.402215 6.84629C0.353704 6.79937 0.315588 6.7416 0.290612 6.67714C0.265637 6.61269 0.254423 6.54315 0.257779 6.47354C0.262909 6.38472 0.291869 6.29931 0.341232 6.22743C0.390596 6.15555 0.458298 6.10019 0.536334 6.0679C0.637289 6.02337 0.735495 5.97211 0.830365 5.91441C0.836209 5.91201 0.841535 5.90838 0.846022 5.90373C0.85051 5.89909 0.854065 5.89352 0.856475 5.88737C0.858885 5.88123 0.860099 5.87463 0.860045 5.86797C0.85999 5.86131 0.858668 5.85474 0.856157 5.84863C0.816284 5.71922 0.783558 5.58743 0.758147 5.45396C0.727154 5.29899 0.711593 5.14098 0.711721 4.98254V3.63407C0.714396 3.52248 0.737737 3.41255 0.78041 3.31055C0.823083 3.20855 0.884251 3.11648 0.96042 3.03961C1.03659 2.96275 1.12627 2.90258 1.22432 2.86256C1.32238 2.82253 1.4269 2.80343 1.53191 2.80635H3.34252C3.52808 2.80418 3.70794 2.87439 3.84805 3.00369L3.879 3.01465L3.91511 3.00369C4.06409 2.87209 4.25274 2.80202 4.44643 2.80635H4.86426C4.87744 2.80697 4.89031 2.81075 4.90192 2.81739C4.91353 2.82404 4.92358 2.83338 4.93132 2.84472C4.94132 2.85405 4.94822 2.86655 4.95101 2.88037C4.9538 2.89419 4.95232 2.9086 4.9468 2.92146C4.92537 3.03197 4.92713 3.14614 4.95196 3.25584C4.95671 3.28434 4.95118 3.3137 4.93648 3.33806C4.92848 3.3487 4.91825 3.35721 4.90661 3.36292C4.89497 3.36863 4.88224 3.37138 4.86942 3.37095H4.40516C4.36924 3.37305 4.33406 3.38266 4.30164 3.39924C4.26922 3.41582 4.2402 3.43903 4.21624 3.46754C4.19228 3.49606 4.17385 3.52933 4.16201 3.56543C4.15017 3.60153 4.14515 3.63976 4.14724 3.67792V4.74135C4.12145 5.20181 4.21946 5.66226 4.44643 6.16109C4.57023 6.44065 4.74046 6.75858 5.02418 6.98333C5.11074 7.061 5.22038 7.10361 5.33368 7.10361C5.44698 7.10361 5.55662 7.061 5.64319 6.98333C5.78474 6.87306 5.90549 6.73545 5.99912 6.57769C6.38165 5.97839 6.56667 5.26135 6.52528 4.53853C6.5254 4.52027 6.53028 4.50241 6.53939 4.48692C6.5485 4.47144 6.56147 4.45894 6.57687 4.45083C6.70031 4.38529 6.80265 4.28227 6.8709 4.15482L6.91216 4.07808C6.92066 4.06456 6.93217 4.05348 6.94567 4.04583C6.95917 4.03818 6.97424 4.0342 6.98954 4.03423H7.00502C7.02426 4.0388 7.04163 4.04977 7.05461 4.06554C7.0676 4.08131 7.07552 4.10106 7.07723 4.12193C7.07723 4.29186 7.07723 4.51661 7.07208 4.74135C7.0566 5.20181 7.14945 5.6513 7.36095 6.1282C7.46928 6.38035 7.62919 6.6928 7.89743 6.92851C8.01607 7.03266 8.1244 7.08199 8.23788 7.08199C8.35604 7.07622 8.46883 7.02789 8.55771 6.94495C8.59952 6.91326 8.63916 6.87845 8.67635 6.8408C9.11559 6.32631 9.37273 5.66547 9.40369 4.97158C9.41917 4.67009 9.41401 4.3686 9.40885 4.07808V3.69437C9.40885 3.50799 9.30052 3.3874 9.12513 3.3874H7.70141C7.68859 3.38783 7.67586 3.38508 7.66422 3.37937C7.65258 3.37366 7.64235 3.36515 7.63435 3.35451C7.61914 3.33036 7.61357 3.30079 7.61887 3.27228C7.63368 3.21518 7.64063 3.15609 7.6395 3.09687C7.63852 3.03202 7.62985 2.96757 7.61371 2.90502C7.60891 2.89147 7.60734 2.87687 7.60914 2.86253C7.61094 2.84818 7.61606 2.83453 7.62403 2.82279C7.64255 2.80059 7.66842 2.78684 7.69625 2.78442H9.17156C9.35671 2.78471 9.53579 2.85462 9.67709 2.98176L9.70804 2.9982L9.73899 2.98724C9.8849 2.87094 10.0621 2.80753 10.2445 2.80635H11.5135C11.524 2.80574 11.5341 2.80174 11.5424 2.79488C11.5507 2.78802 11.5568 2.77864 11.5599 2.76798C11.5624 2.76302 11.5639 2.75754 11.5642 2.75191C11.5645 2.74629 11.5637 2.74066 11.5617 2.73542C11.5597 2.73019 11.5567 2.72548 11.5528 2.72163C11.549 2.71779 11.5443 2.71489 11.5393 2.71316C11.1369 2.45004 10.9254 2.30204 10.5747 2.06085C10.2239 1.81966 9.8989 1.58943 9.36758 1.24409C9.15687 1.10606 8.90321 1.06259 8.66235 1.12324C8.42149 1.18388 8.21315 1.34368 8.08313 1.56751L7.77362 2.09374C7.72204 2.18145 7.67561 2.26915 7.62403 2.35138L7.61371 2.3733C7.59883 2.38926 7.58661 2.40779 7.5776 2.42812C7.51054 2.54871 7.43317 2.60353 7.33516 2.60353C7.27804 2.59997 7.22206 2.5851 7.17009 2.55968C7.07159 2.51486 6.98484 2.44525 6.91732 2.35686C6.86574 2.2856 6.81931 2.18145 6.88121 2.06633C6.88673 2.0499 6.89552 2.03494 6.90701 2.02248L6.98438 1.87996C7.15154 1.55186 7.34301 1.23842 7.55697 0.942605C7.71497 0.732035 7.91596 0.562404 8.14474 0.446545C8.37352 0.330685 8.6241 0.271631 8.87753 0.27385C9.19591 0.27385 9.50817 0.366761 9.78026 0.542448C10.1362 0.778157 10.3219 0.909715 10.4921 1.03031C10.6623 1.15091 10.8429 1.28246 11.1937 1.51269L13.5253 3.03109C13.7007 3.14073 13.7729 3.32162 13.7265 3.50799ZM5.8031 3.19554L5.865 3.23391C5.99843 3.31092 6.10645 3.42953 6.17451 3.57377L6.21062 3.63955C6.21484 3.64882 6.22144 3.65663 6.22965 3.6621C6.23786 3.66757 6.24735 3.67047 6.25704 3.67047C6.26673 3.67047 6.27623 3.66757 6.28444 3.6621C6.29265 3.65663 6.29924 3.64882 6.30347 3.63955L6.33958 3.57377C6.41146 3.43341 6.52098 3.31893 6.65424 3.24488L6.7213 3.2065C6.729 3.20245 6.73549 3.1962 6.74004 3.18846C6.74459 3.18071 6.74703 3.17178 6.74709 3.16265C6.74691 3.15282 6.74446 3.14318 6.73996 3.13458C6.73547 3.12598 6.72906 3.11868 6.7213 3.11332L6.6594 3.07495C6.52666 2.99517 6.41764 2.87743 6.34474 2.73509L6.31379 2.66931C6.31045 2.65922 6.30411 2.65056 6.29574 2.64462C6.28737 2.63869 6.27741 2.63581 6.26736 2.63642C6.2581 2.63662 6.24903 2.63922 6.24094 2.64399C6.23285 2.64877 6.22598 2.65558 6.22093 2.66383L6.18482 2.73509C6.11151 2.87429 6.00235 2.98838 5.87016 3.06398L5.8031 3.10235C5.79574 3.10684 5.78953 3.1132 5.78503 3.12085C5.78053 3.1285 5.77788 3.13721 5.77731 3.14621C5.77749 3.15604 5.77994 3.16568 5.78444 3.17428C5.78893 3.18288 5.79534 3.19018 5.8031 3.19554Z" fill="#878687"/>
</svg>
