<svg width="60" height="60" viewBox="0 0 60 60" fill="none" xmlns="http://www.w3.org/2000/svg">
<rect width="60" height="60" rx="30" fill="white"/>
<path d="M29.6961 20.08C29.6304 20.1965 29.534 20.2929 29.4175 20.3586L28.6256 20.7692C28.402 20.89 28.2185 21.0735 28.0977 21.2971L27.6578 22.0743C27.5943 22.1812 27.5043 22.2698 27.3963 22.3315C27.2883 22.3932 27.1662 22.4258 27.0419 22.4262C26.9161 22.4243 26.7931 22.3895 26.685 22.3252C26.5769 22.2608 26.4876 22.1693 26.426 22.0596L26.0154 21.2677C25.8946 21.0441 25.7111 20.8607 25.4875 20.7398L24.7103 20.2999C24.5498 20.2077 24.4321 20.0559 24.3827 19.8775C24.3333 19.6991 24.3562 19.5084 24.4464 19.3468C24.5079 19.2307 24.6058 19.138 24.725 19.0828L25.5169 18.6576C25.7394 18.5421 25.923 18.3636 26.0448 18.1443L26.4847 17.3525C26.5447 17.2427 26.6335 17.1514 26.7414 17.0883C26.8494 17.0251 26.9726 16.9926 27.0976 16.9941C27.2227 16.9956 27.345 17.0311 27.4514 17.0968C27.5579 17.1625 27.6444 17.256 27.7018 17.3671L28.127 18.159C28.2476 18.3865 28.4308 18.5748 28.6549 18.7016L29.4321 19.1415C29.5115 19.1837 29.5813 19.242 29.6368 19.3127C29.6924 19.3834 29.7325 19.4649 29.7547 19.5521C29.7821 19.6393 29.791 19.7313 29.7809 19.8222C29.7708 19.9131 29.7419 20.0008 29.6961 20.08Z" fill="#161616"/>
<path d="M47.718 19.376L41.0899 15.3141C40.0928 14.7129 39.5795 14.3609 39.0956 14.0383C38.6117 13.7157 38.0838 13.3491 37.072 12.7332C36.3016 12.2546 35.4128 12.0006 34.5058 12C33.7844 11.9969 33.0716 12.1577 32.4214 12.4701C31.7711 12.7825 31.2002 13.2385 30.7518 13.8037C30.1353 14.5892 29.5906 15.4284 29.1241 16.3112L28.9042 16.6778C28.8743 16.7186 28.8497 16.7629 28.8309 16.8098C28.6549 17.1031 28.7869 17.3964 28.9335 17.587C29.1219 17.8271 29.3695 18.0141 29.652 18.1296C29.7998 18.1954 29.9595 18.2303 30.1213 18.2322C30.3999 18.2322 30.6199 18.0856 30.8105 17.7776L30.9131 17.6163L30.9425 17.5723C31.0744 17.3377 31.2211 17.1178 31.3677 16.8831L32.2476 15.4754C32.4872 15.092 32.8199 14.7753 33.2147 14.5548C33.6095 14.3343 34.0536 14.2172 34.5058 14.2143C34.9933 14.2142 35.4711 14.3514 35.8842 14.6102C37.4093 15.5341 38.3331 16.1353 39.3302 16.7805L42.0724 18.5255C42.0872 18.5318 42.1006 18.5411 42.1117 18.5527C42.1227 18.5644 42.1313 18.5783 42.1368 18.5934C42.1423 18.6085 42.1446 18.6246 42.1436 18.6407C42.1427 18.6568 42.1384 18.6725 42.1311 18.6868C42.1221 18.7153 42.1047 18.7404 42.0811 18.7588C42.0575 18.7771 42.0289 18.7878 41.9991 18.7894H38.3917C37.8732 18.7926 37.3695 18.9622 36.9547 19.2734L36.8667 19.3027C36.8328 19.2999 36.8013 19.2841 36.7787 19.2587C36.3758 18.9208 35.8675 18.7341 35.3417 18.7308H31.1478C31.1073 18.735 31.0681 18.7476 31.0328 18.7678C30.9974 18.788 30.9667 18.8154 30.9425 18.8481C30.924 18.8786 30.9118 18.9125 30.9068 18.9477C30.9018 18.983 30.9039 19.019 30.9131 19.0534C30.9987 19.3797 31.0038 19.7219 30.9278 20.0505C30.916 20.0856 30.9138 20.1231 30.9216 20.1592C30.9293 20.1954 30.9467 20.2287 30.9718 20.2558C30.992 20.2879 31.0202 20.3143 31.0536 20.3322C31.087 20.3502 31.1245 20.3593 31.1624 20.3585H35.2097C35.3178 20.3496 35.4266 20.3644 35.5285 20.4018C35.6304 20.4392 35.7229 20.4983 35.7997 20.575C35.8764 20.6518 35.9355 20.7443 35.9729 20.8462C36.0103 20.948 36.0251 21.0568 36.0162 21.165C36.0162 21.5169 36.0162 21.8542 36.0309 22.1915C36.0309 22.9833 36.0455 23.7898 36.0015 24.5964C35.9162 26.4489 35.1847 28.2129 33.9339 29.5821C33.8308 29.6901 33.7179 29.7882 33.5966 29.8754C33.3392 30.0872 33.0204 30.2105 32.6875 30.2273C32.3649 30.2273 32.0569 30.0953 31.7197 29.8314C30.9571 29.2008 30.5026 28.3503 30.1946 27.6905C29.5934 26.4147 29.3294 25.1976 29.3734 23.9805C29.3881 23.3793 29.3881 22.778 29.3881 22.3235C29.3832 22.2676 29.3607 22.2148 29.3238 22.1726C29.2869 22.1304 29.2375 22.1011 29.1828 22.0888H29.1388C29.0943 22.0916 29.051 22.105 29.0127 22.128C28.9745 22.151 28.9423 22.1828 28.9188 22.2208L28.8015 22.4261C28.6075 22.767 28.3166 23.0426 27.9657 23.218C27.9219 23.2397 27.8851 23.2731 27.8592 23.3145C27.8333 23.3559 27.8194 23.4037 27.8191 23.4526C27.9367 25.3862 27.4108 27.3044 26.3233 28.9076C26.0518 29.3254 25.7094 29.6926 25.3115 29.9927C25.0599 30.1908 24.7517 30.3038 24.4317 30.3153C24.1104 30.2976 23.8027 30.1796 23.5518 29.978C22.7453 29.3915 22.2614 28.541 21.9095 27.7931C21.2643 26.4587 20.9857 25.2269 21.059 23.9951V21.121C21.053 21.0153 21.0687 20.9095 21.105 20.8101C21.1414 20.7106 21.1977 20.6197 21.2705 20.5428C21.3432 20.4659 21.4309 20.4047 21.5282 20.3629C21.6255 20.3211 21.7303 20.2997 21.8362 20.2998H23.1119C23.1494 20.2982 23.186 20.2881 23.219 20.2703C23.252 20.2525 23.2805 20.2275 23.3026 20.1972C23.3244 20.1682 23.3396 20.1348 23.3472 20.0994C23.3548 20.0639 23.3546 20.0272 23.3466 19.9919C23.276 19.6984 23.271 19.393 23.3319 19.0974C23.3423 19.0598 23.3437 19.0204 23.336 18.9822C23.3284 18.944 23.3119 18.9081 23.2879 18.8774C23.2651 18.849 23.2361 18.8262 23.203 18.8109C23.1699 18.7957 23.1337 18.7883 23.0973 18.7894H21.9095C21.3615 18.7789 20.8272 18.9604 20.3991 19.3027C20.3862 19.3171 20.3704 19.3285 20.3527 19.3361C20.3349 19.3437 20.3157 19.3473 20.2965 19.3467C20.2626 19.3439 20.231 19.3281 20.2085 19.3027C19.8054 18.9667 19.2961 18.7848 18.7714 18.7894H13.6244C13.3172 18.7815 13.0117 18.8358 12.7262 18.9492C12.4406 19.0627 12.1811 19.2328 11.9632 19.4493C11.7452 19.6659 11.5735 19.9244 11.4583 20.2092C11.343 20.494 11.2867 20.7992 11.2928 21.1063V24.5964C11.3027 25.0245 11.3468 25.4511 11.4248 25.8721C11.4984 26.2289 11.5914 26.5813 11.7034 26.9279C11.7187 26.9591 11.7212 26.995 11.7102 27.028C11.6992 27.0609 11.6757 27.0882 11.6447 27.1039L10.7942 27.5145C10.5703 27.5977 10.3758 27.745 10.235 27.9379C10.0942 28.1309 10.0133 28.361 10.0024 28.5996C9.99078 28.7839 10.0218 28.9684 10.093 29.1388C10.1642 29.3092 10.2737 29.4609 10.413 29.5821C10.4469 29.6122 10.4679 29.6542 10.4716 29.6994C10.475 30.4983 10.524 31.2963 10.6183 32.0896C10.7874 33.6505 11.1723 35.1804 11.762 36.6355C12.5878 38.6675 13.7641 40.5388 15.2374 42.1638C16.5151 43.5409 17.9932 44.7175 19.6219 45.6538C22.0077 47.0077 24.6706 47.8 27.4085 47.9707L28.5816 48C29.8982 48.0003 31.211 47.8577 32.4968 47.5747C36.214 46.7466 39.5721 44.7594 42.0871 41.8998C42.548 41.3913 42.9742 40.8524 43.3628 40.2868C43.9044 39.5111 44.3895 38.6977 44.8146 37.8526C45.1675 37.1359 45.4712 36.3962 45.7237 35.6383C45.9437 34.9198 46.1196 34.2599 46.2516 33.6147C46.4341 32.7349 46.5517 31.8429 46.6035 30.9458C46.6182 30.5646 46.6182 30.1833 46.6035 29.8167V29.7287C46.6073 29.6835 46.6283 29.6415 46.6622 29.6114C46.8005 29.4918 46.9104 29.3429 46.9839 29.1755C47.0575 29.0081 47.0929 28.8264 47.0875 28.6436C47.0844 28.4054 47.0139 28.1729 46.8841 27.973C46.7544 27.7732 46.5707 27.6142 46.3543 27.5145L45.6651 27.1919L45.5624 27.1332L45.4744 27.1039C45.4432 27.0881 45.4187 27.0617 45.4053 27.0295C45.3918 26.9972 45.3904 26.9612 45.4011 26.9279C45.6597 26.1766 45.8031 25.3906 45.8264 24.5964V21.0917C45.8269 21.0654 45.8339 21.0396 45.8466 21.0166C45.8594 20.9936 45.8776 20.9741 45.8997 20.9597H46.0463L46.0903 20.989L46.6769 21.341C46.8234 21.4254 46.9875 21.4749 47.1563 21.4856C47.3252 21.4963 47.4942 21.4679 47.6502 21.4027C47.8063 21.3374 47.9452 21.237 48.0561 21.1093C48.1671 20.9816 48.2471 20.8301 48.2899 20.6664C48.4219 20.1679 48.2166 19.6839 47.718 19.376ZM37.1306 13.4664C37.0986 13.5251 37.0522 13.5747 36.9958 13.6106C36.9394 13.6465 36.8748 13.6675 36.808 13.6717C36.6942 13.6621 36.5839 13.627 36.4854 13.5691C35.8759 13.213 35.1824 13.0257 34.4765 13.0265C33.2154 13.0265 32.0423 13.6571 31.2651 14.7862C31.2291 14.8576 31.1749 14.9183 31.1079 14.962C31.041 15.0058 30.9637 15.0311 30.8838 15.0355L30.7518 15.0062C30.6647 14.9917 30.5868 14.9437 30.5347 14.8724C30.4826 14.8011 30.4605 14.7123 30.4732 14.6249C30.4693 14.5018 30.5111 14.3817 30.5905 14.2876L30.6199 14.2583C31.0528 13.619 31.6364 13.096 32.3192 12.7354C33.002 12.3748 33.763 12.1878 34.5351 12.1907C35.3728 12.1868 36.1951 12.4152 36.9107 12.8506C37.204 13.0167 37.2773 13.222 37.1306 13.4664ZM37.5559 22.1915V21.1797C37.5559 20.6371 37.8932 20.2998 38.4211 20.2998H43.4068C43.6516 20.2836 43.8932 20.3624 44.0814 20.5198C44.2384 20.7139 44.3169 20.9598 44.3013 21.209C44.3013 21.5756 44.316 21.9422 44.316 22.3235C44.3452 23.1742 44.3305 24.0258 44.272 24.875C44.1585 26.6515 43.427 28.3323 42.2044 29.6261C41.7791 30.0807 41.3539 30.3006 40.9286 30.3006C40.5034 30.3006 40.0488 30.0513 39.5942 29.5821C38.7877 28.7023 38.2158 27.6171 37.8052 26.1507C37.627 25.5515 37.5429 24.9282 37.5559 24.3031V22.1915ZM12.7885 22.1328V21.1943C12.7885 20.6224 13.1111 20.2998 13.683 20.2998H18.6541C18.7743 20.2948 18.8942 20.3158 19.0055 20.3613C19.1169 20.4069 19.2171 20.4759 19.2993 20.5638C19.383 20.6508 19.4472 20.7547 19.4877 20.8685C19.5281 20.9822 19.5439 21.1033 19.5339 21.2237C19.5193 21.7516 19.5339 22.3088 19.5339 22.8367C19.5339 23.3646 19.5486 24.0685 19.5193 24.655C19.457 26.5154 18.7164 28.2887 17.437 29.6408C17.0117 30.0953 16.5718 30.33 16.1466 30.33C15.7213 30.33 15.2667 30.0807 14.8415 29.5968C13.5575 28.1635 12.8337 26.3151 12.8032 24.3911C12.7739 23.6139 12.7885 22.822 12.7885 22.1328ZM45.3424 28.8049C45.2261 28.9776 45.1694 29.1836 45.1812 29.3915V29.934C45.1812 30.2566 45.1811 30.5792 45.1665 30.8872C45.1236 31.7107 45.0157 32.5295 44.8439 33.3361C44.7168 33.9652 44.5553 34.5869 44.36 35.1984C44.1319 35.8927 43.8525 36.5691 43.5241 37.222C43.1428 38.0105 42.6965 38.7659 42.1897 39.4803C41.8279 39.9964 41.4362 40.491 41.0166 40.9613C38.6982 43.5888 35.6084 45.416 32.1889 46.1817C31.005 46.4476 29.795 46.5804 28.5816 46.5776L27.4964 46.5483C23.2138 46.2671 19.2029 44.3509 16.2932 41.1959C15.5809 40.4214 14.9427 39.5819 14.3869 38.6884C13.8768 37.8682 13.4401 37.0045 13.0818 36.1075C12.5522 34.7706 12.1973 33.3708 12.026 31.943C11.9287 31.101 11.8846 30.2537 11.894 29.4061C11.907 29.2001 11.8558 28.9952 11.7474 28.8196C11.7342 28.782 11.7292 28.742 11.7327 28.7023C11.7504 28.6632 11.7816 28.6319 11.8207 28.6143L12.158 28.4676H12.2166C12.2427 28.4693 12.2681 28.4767 12.2909 28.4894C12.3137 28.5021 12.3334 28.5197 12.3486 28.541C12.8618 29.5821 13.4044 30.3446 14.0936 30.9458C14.7828 31.5471 15.428 31.811 16.1466 31.811C16.3582 31.8133 16.5695 31.7936 16.7771 31.7524C17.4077 31.6057 17.9942 31.2538 18.5514 30.6672C19.2326 29.944 19.7789 29.1047 20.1645 28.189C20.1757 28.1632 20.1941 28.1413 20.2175 28.1257C20.2409 28.1101 20.2683 28.1015 20.2965 28.101C20.325 28.0994 20.3533 28.1071 20.3771 28.123C20.4009 28.1389 20.4189 28.162 20.4284 28.189L20.7217 28.7902C21.191 29.6408 21.7922 30.5939 22.7747 31.2685C23.2656 31.6261 23.8585 31.8164 24.4659 31.8111C25.0732 31.8058 25.6628 31.6053 26.1474 31.2391C27.0859 30.5646 27.6871 29.6114 28.0977 28.8636C28.215 28.6583 28.303 28.453 28.3909 28.277C28.4004 28.25 28.4184 28.2268 28.4422 28.211C28.466 28.1951 28.4944 28.1874 28.5229 28.189C28.551 28.1895 28.5784 28.198 28.6018 28.2136C28.6252 28.2292 28.6437 28.2512 28.6549 28.277V28.3063C28.6549 28.3357 28.6696 28.3503 28.6842 28.3797C29.3001 29.6994 29.96 30.5646 30.8105 31.2098C31.316 31.6304 31.9488 31.868 32.6062 31.884C33.2636 31.8999 33.9072 31.6934 34.4325 31.2978C35.3856 30.6379 35.9722 29.7141 36.3681 28.9955C36.495 28.7732 36.6077 28.543 36.7054 28.3063C36.7166 28.2806 36.7351 28.2586 36.7585 28.243C36.7819 28.2274 36.8093 28.2188 36.8374 28.2184C36.8659 28.2167 36.8942 28.2244 36.9181 28.2403C36.9419 28.2562 36.9599 28.2793 36.9693 28.3063L37.2186 28.7902C37.6292 29.5674 38.2304 30.5646 39.2276 31.2538C39.7119 31.6135 40.2962 31.8133 40.8993 31.8257C41.3219 31.821 41.738 31.7207 42.1164 31.5324C42.6043 31.2951 43.0424 30.9666 43.4068 30.5646C43.8761 30.0367 44.4333 29.0395 44.7266 28.4823C44.7374 28.4604 44.7541 28.442 44.7748 28.429C44.7956 28.4161 44.8195 28.4092 44.8439 28.409H44.9172L45.2691 28.585C45.31 28.6073 45.3413 28.6438 45.3571 28.6876C45.3659 28.7272 45.3607 28.7687 45.3424 28.8049Z" fill="#161616"/>
<path d="M45.3426 28.8049C45.2262 28.9776 45.1695 29.1836 45.1813 29.3915V29.934C45.1813 30.2566 45.1813 30.5792 45.1666 30.8872C45.1237 31.7107 45.0158 32.5295 44.844 33.3361C44.7169 33.9652 44.5554 34.5869 44.3601 35.1984C44.132 35.8927 43.8526 36.5691 43.5242 37.222C43.1429 38.0105 42.6966 38.7659 42.1898 39.4803C41.8281 39.9964 41.4363 40.491 41.0167 40.9613C38.6983 43.5888 35.6085 45.416 32.189 46.1817C31.0051 46.4476 29.7951 46.5804 28.5817 46.5776L27.4966 46.5483C23.2139 46.2671 19.203 44.3509 16.2933 41.1959C15.581 40.4214 14.9428 39.5819 14.387 38.6884C13.8769 37.8682 13.4402 37.0045 13.0819 36.1075C12.5523 34.7706 12.1975 33.3708 12.0261 31.943C11.9288 31.101 11.8847 30.2537 11.8941 29.4061C11.9071 29.2001 11.8559 28.9952 11.7475 28.8196C11.7343 28.782 11.7293 28.742 11.7328 28.7023C11.7505 28.6632 11.7818 28.6319 11.8208 28.6143L12.1581 28.4676H12.2167C12.2428 28.4693 12.2682 28.4767 12.291 28.4894C12.3138 28.5021 12.3335 28.5197 12.3487 28.541C12.862 29.5821 13.4045 30.3446 14.0937 30.9458C14.7829 31.5471 15.4281 31.811 16.1467 31.811C16.3583 31.8133 16.5696 31.7936 16.7772 31.7524C17.4078 31.6057 17.9943 31.2538 18.5516 30.6672C19.2327 29.944 19.779 29.1047 20.1646 28.189C20.1758 28.1632 20.1943 28.1413 20.2177 28.1257C20.2411 28.1101 20.2685 28.1015 20.2966 28.101C20.3251 28.0994 20.3534 28.1071 20.3772 28.123C20.4011 28.1389 20.4191 28.162 20.4285 28.189L20.7218 28.7902C21.1911 29.6408 21.7923 30.5939 22.7748 31.2685C23.2657 31.6261 23.8586 31.8164 24.466 31.8111C25.0733 31.8058 25.6629 31.6053 26.1475 31.2391C27.086 30.5646 27.6872 29.6114 28.0978 28.8636C28.2151 28.6583 28.3031 28.453 28.3911 28.277C28.4005 28.25 28.4186 28.2268 28.4424 28.211C28.4662 28.1951 28.4945 28.1874 28.523 28.189C28.5512 28.1895 28.5785 28.198 28.6019 28.2136C28.6253 28.2292 28.6438 28.2512 28.655 28.277V28.3063C28.655 28.3357 28.6697 28.3503 28.6843 28.3797C29.3002 29.6994 29.9601 30.5646 30.8106 31.2098C31.3161 31.6304 31.9489 31.868 32.6063 31.884C33.2637 31.8999 33.9073 31.6934 34.4326 31.2978C35.3858 30.6379 35.9723 29.7141 36.3682 28.9955C36.4952 28.7732 36.6078 28.543 36.7055 28.3063C36.7168 28.2806 36.7352 28.2586 36.7586 28.243C36.782 28.2274 36.8094 28.2188 36.8375 28.2184C36.866 28.2167 36.8944 28.2244 36.9182 28.2403C36.942 28.2562 36.96 28.2793 36.9695 28.3063L37.2187 28.7902C37.6293 29.5674 38.2306 30.5646 39.2277 31.2538C39.712 31.6134 40.2963 31.8133 40.8994 31.8257C41.322 31.821 41.7381 31.7207 42.1165 31.5324C42.6044 31.2951 43.0425 30.9666 43.4069 30.5646C43.8762 30.0367 44.4334 29.0395 44.7267 28.4823C44.7375 28.4604 44.7542 28.442 44.775 28.429C44.7957 28.4161 44.8196 28.4092 44.844 28.409H44.9173L45.2692 28.585C45.3101 28.6073 45.3414 28.6438 45.3572 28.6876C45.366 28.7272 45.3608 28.7687 45.3426 28.8049Z" fill="#161616"/>
</svg>
