<svg width="24" height="24" viewBox="0 0 24 24" fill="none" xmlns="http://www.w3.org/2000/svg">
<g clip-path="url(#clip0_1420_5653)">
<g clip-path="url(#clip1_1420_5653)">
<path d="M2.13117 8.39151C2.11348 7.90286 2.12233 7.40482 2.12233 6.95376V6.36175C2.12233 5.98587 2.31687 5.77913 2.66175 5.77913H5.66839C5.73933 5.77784 5.80975 5.79221 5.87521 5.82132C5.94066 5.85044 5.99971 5.89367 6.04864 5.94828C6.10116 6.00252 6.14123 6.06886 6.16577 6.14219C6.1903 6.21551 6.19863 6.29385 6.19012 6.37115C6.18128 6.71884 6.19012 7.06653 6.19012 7.40482C6.19012 7.74311 6.19897 8.19417 6.18128 8.57005C6.13891 9.76109 5.69295 10.8958 4.92557 11.765C4.66912 12.0563 4.40383 12.1973 4.15623 12.1973C3.90862 12.1973 3.62564 12.0376 3.36035 11.7274C2.5881 10.8076 2.15196 9.62398 2.13117 8.39151Z" fill="#878687"/>
<path d="M16.8022 1.40005C16.7835 1.43824 16.7557 1.47052 16.7215 1.49362C16.6874 1.51672 16.6481 1.52982 16.6076 1.53161C16.5384 1.52847 16.4713 1.50576 16.4131 1.46583C16.0447 1.2397 15.627 1.11985 15.2016 1.11814C14.4411 1.11814 13.7336 1.53161 13.2649 2.24578C13.2425 2.29096 13.2097 2.32934 13.1695 2.35729C13.1292 2.38524 13.083 2.40184 13.035 2.40553H12.9554C12.9032 2.39216 12.8573 2.35903 12.8264 2.31233C12.7955 2.26564 12.7816 2.20858 12.7874 2.15181C12.7881 2.07347 12.8129 1.99753 12.8582 1.93568L12.8759 1.91688C13.2788 1.27849 13.8964 0.828287 14.602 0.658765C15.3075 0.489242 16.0473 0.613272 16.6695 1.00537C16.8464 1.11814 16.8906 1.2497 16.8022 1.40005Z" fill="#878687"/>
<path d="M17.2087 9.52855C17.1013 9.14452 17.0506 8.74509 17.0584 8.34452V6.34296C17.0584 5.99527 17.2618 5.77914 17.5801 5.77914H20.5868C20.6607 5.77199 20.7353 5.7817 20.8054 5.80763C20.8756 5.83356 20.9397 5.8751 20.9936 5.92949C21.0893 6.04958 21.1369 6.20477 21.1262 6.36175C21.1262 6.59668 21.135 6.841 21.135 7.07593C21.1527 7.62421 21.1439 8.17309 21.1085 8.7204C21.0373 9.85535 20.5965 10.9285 19.8616 11.7556C19.6052 12.047 19.3488 12.1879 19.0923 12.1879C18.8359 12.1879 18.5617 12.0376 18.2876 11.7275C17.8012 11.1636 17.4563 10.4683 17.2087 9.52855Z" fill="#878687"/>
<path d="M21.7628 11.1543C21.7689 11.1797 21.7657 11.2065 21.7539 11.2295C21.691 11.347 21.6575 11.4796 21.6567 11.6148V11.9531C21.6567 12.1598 21.6567 12.3666 21.6478 12.5733C21.6228 13.098 21.5577 13.6197 21.4533 14.1332C21.3821 14.5377 21.2846 14.9364 21.1615 15.3266C21.0271 15.7728 20.8585 16.2065 20.6574 16.6234C20.4289 17.1295 20.1596 17.6137 19.8527 18.0705C19.6394 18.4052 19.4029 18.7224 19.1452 19.0196C18.5549 19.7431 17.8699 20.3728 17.1113 20.8897C16.1086 21.5904 14.9937 22.0905 13.8217 22.365C13.1075 22.5339 12.378 22.6189 11.6463 22.6187L10.992 22.5999C9.09869 22.4665 7.27909 21.769 5.74167 20.5873C4.20425 19.4056 3.01121 17.7876 2.29926 15.9186C1.98183 15.0579 1.7679 14.1581 1.66256 13.2405C1.60057 12.7012 1.57398 12.158 1.58297 11.6148C1.5941 11.4855 1.56286 11.356 1.49454 11.2483C1.48726 11.224 1.48427 11.1986 1.4857 11.1731C1.49523 11.1451 1.5141 11.1217 1.53876 11.1074L1.74215 11.0134H1.77752C1.79448 11.0137 1.811 11.0192 1.82511 11.0292C1.83922 11.0391 1.85033 11.0532 1.85711 11.0698C2.16661 11.737 2.50265 12.2256 2.90943 12.6015C3.31621 12.9774 3.71415 13.1653 4.14745 13.1653C4.27542 13.1642 4.4029 13.1484 4.52771 13.1183C4.90796 13.0243 5.26168 12.7988 5.59771 12.4229C6.01259 11.9629 6.34254 11.4242 6.57045 10.8348C6.57723 10.8183 6.58834 10.8042 6.60245 10.7942C6.61656 10.7842 6.63308 10.7788 6.65003 10.7785C6.66726 10.7774 6.68433 10.7824 6.69869 10.7925C6.71304 10.8027 6.7239 10.8175 6.72962 10.8348C6.79152 10.9852 6.85342 11.1074 6.90648 11.2295C7.18946 11.7651 7.55202 12.3759 8.14451 12.8176C8.44094 13.0469 8.79925 13.1681 9.16587 13.163C9.53249 13.1579 9.8877 13.0269 10.1784 12.7894C10.7444 12.3572 11.1069 11.7557 11.3545 11.2671C11.4253 11.1355 11.4783 11.004 11.5314 10.8912C11.5382 10.8747 11.5493 10.8606 11.5634 10.8506C11.5775 10.8406 11.594 10.8351 11.611 10.8348C11.6277 10.8362 11.6438 10.842 11.6577 10.8519C11.6717 10.8618 11.683 10.8753 11.6906 10.8912V10.91C11.6923 10.93 11.6984 10.9493 11.7083 10.9664C12.0797 11.8027 12.4776 12.3666 12.9905 12.78C13.2977 13.0451 13.6794 13.1937 14.075 13.2022C14.4707 13.2107 14.8577 13.0787 15.1747 12.827C15.7495 12.4041 16.1032 11.8215 16.342 11.3517C16.4221 11.2112 16.4902 11.0634 16.5454 10.91C16.553 10.8941 16.5643 10.8806 16.5782 10.8707C16.5922 10.8608 16.6083 10.8549 16.625 10.8536C16.6422 10.8526 16.6593 10.8575 16.6736 10.8677C16.688 10.8779 16.6988 10.8927 16.7046 10.91L16.8549 11.2201C17.1025 11.7276 17.4651 12.3572 18.0664 12.7988C18.3579 13.0304 18.7106 13.1586 19.0745 13.1653C19.3279 13.1586 19.5775 13.0979 19.8085 12.9868C20.1027 12.8349 20.3645 12.6206 20.5778 12.3572C20.8696 12.0189 21.2057 11.3799 21.3825 11.0228C21.3898 11.0094 21.4 10.9981 21.4124 10.9899C21.4247 10.9817 21.4388 10.9768 21.4533 10.9758H21.4975L21.7097 11.098C21.7222 11.102 21.7336 11.1092 21.7429 11.1191C21.7522 11.1289 21.759 11.141 21.7628 11.1543Z" fill="#878687"/>
<path d="M23.4168 4.79226L19.4198 2.18929C18.9157 1.86039 18.615 1.64426 18.3586 1.46572L18.226 1.37175C17.943 1.16501 17.6158 0.939483 16.9968 0.526013C16.462 0.186095 15.8513 0.0044026 15.2282 -0.000219965H15.1928C14.696 -0.00218861 14.2052 0.1161 13.7578 0.345673C13.3104 0.575245 12.9181 0.910074 12.6106 1.32476C12.2291 1.85375 11.8862 2.41294 11.5848 2.99743L11.4699 3.20417C11.4441 3.24168 11.4232 3.28279 11.408 3.32633C11.3829 3.36638 11.3649 3.41096 11.3549 3.45788C11.2283 3.31813 11.0622 3.22603 10.8819 3.19551C10.7016 3.16499 10.5169 3.19772 10.3556 3.28874C10.2043 3.3759 10.0788 3.50604 9.99308 3.66462L9.72779 4.17206C9.69658 4.23436 9.64682 4.28393 9.5863 4.31301L9.11762 4.58553C9.03304 4.62804 8.95774 4.68885 8.89655 4.76407C8.87297 4.69669 8.84019 4.63337 8.79927 4.57613C8.74545 4.50591 8.67819 4.44866 8.60196 4.40815C8.52574 4.36765 8.44228 4.34483 8.35712 4.34121H7.59662C7.26671 4.34017 6.94273 4.43436 6.65926 4.61372C6.38494 4.43577 6.06982 4.34149 5.74843 4.34121H2.59146C2.11755 4.33864 1.66173 4.53435 1.32251 4.88602C0.983291 5.2377 0.787925 5.7171 0.778639 6.22061V8.54168C0.78137 8.84467 0.810978 9.14671 0.867069 9.44379C0.893598 9.58475 0.928971 9.7257 0.964343 9.86666L0.760953 9.97002C0.547555 10.0552 0.362063 10.2045 0.227046 10.3997C0.0920283 10.5949 0.0133044 10.8276 0.000451751 11.0695C-0.0143677 11.3972 0.0865565 11.7189 0.283429 11.9716C0.292272 12.4414 0.327644 12.9207 0.371859 13.3999C0.485732 14.4414 0.729584 15.4621 1.09699 16.4352C1.60954 17.7883 2.34634 19.0327 3.27238 20.1094C5.24831 22.4016 7.9842 23.7896 10.9039 23.981C11.1515 23.9998 11.3991 23.9998 11.629 23.9998H11.7086C12.5148 23.9999 13.3185 23.9054 14.1051 23.7179C16.436 23.1687 18.542 21.8457 20.1184 19.9403C20.4085 19.5991 20.6773 19.2381 20.9231 18.8596C21.2622 18.3411 21.5665 17.7978 21.8339 17.2339C22.052 16.7555 22.241 16.2627 22.3999 15.7586H22.4087C22.5502 15.2512 22.6563 14.8283 22.7359 14.4148C22.8492 13.8323 22.9231 13.2419 22.957 12.6482C22.9658 12.4729 22.9658 12.2972 22.957 12.1219V11.9998C23.1521 11.7677 23.2565 11.4652 23.2488 11.154C23.2491 10.9104 23.1833 10.6719 23.0595 10.467C22.9356 10.262 22.7588 10.0993 22.5502 9.99821L22.3026 9.87605C22.4181 9.44797 22.4805 9.00571 22.4883 8.56047V6.92539C22.6175 6.98125 22.7556 7.00997 22.8951 7.00996C23.1385 7.01146 23.3753 6.92617 23.5677 6.76774C23.7601 6.6093 23.8969 6.38687 23.9562 6.13604C24.0207 5.88021 24.0026 5.6088 23.9048 5.3652C23.807 5.1216 23.6352 4.91987 23.4168 4.79226ZM9.153 5.17754C9.19011 5.10086 9.24886 5.03844 9.32101 4.999L9.79854 4.72648C9.93276 4.65248 10.0435 4.53808 10.1169 4.39759L10.3822 3.89015C10.4226 3.81281 10.4843 3.75049 10.559 3.7116C10.6565 3.65869 10.7696 3.64874 10.8739 3.68393C10.9782 3.71911 11.0653 3.79659 11.1161 3.89955L11.3726 4.41638C11.4455 4.55968 11.5561 4.67726 11.6909 4.75467L12.1596 5.03658C12.2075 5.06361 12.2496 5.10098 12.2831 5.1463C12.3166 5.19161 12.3408 5.24386 12.3542 5.2997C12.3707 5.35562 12.376 5.41456 12.3699 5.4728C12.3638 5.53103 12.3464 5.58729 12.3188 5.63799C12.2817 5.71467 12.2229 5.7771 12.1508 5.81654L11.6733 6.08905C11.539 6.16306 11.4283 6.27745 11.3549 6.41795L11.0808 6.91599C11.0478 6.98714 10.9954 7.04609 10.9304 7.08514C10.8664 7.1266 10.7932 7.1493 10.7182 7.15092C10.6424 7.15017 10.5682 7.12689 10.5041 7.08372C10.4401 7.04055 10.3886 6.97919 10.3556 6.90659L10.0992 6.39915C10.0263 6.25585 9.9157 6.13828 9.78085 6.06086L9.31217 5.77895C9.26367 5.75152 9.2209 5.71394 9.18644 5.66847C9.15198 5.623 9.12654 5.57058 9.11167 5.51438C9.09679 5.45818 9.09279 5.39936 9.09989 5.34147C9.10699 5.28357 9.12506 5.22781 9.153 5.17754ZM23.5318 6.01388C23.506 6.11875 23.4577 6.21588 23.3908 6.29771C23.3239 6.37954 23.2401 6.44386 23.146 6.48569C23.0519 6.52751 22.95 6.5457 22.8482 6.53884C22.7464 6.53198 22.6474 6.50026 22.559 6.44614L22.2053 6.22061L22.1788 6.20182H22.0904C22.0771 6.21101 22.0661 6.22353 22.0584 6.23827C22.0507 6.25301 22.0465 6.26953 22.0461 6.28639V8.53228C22.0362 9.04167 21.9497 9.5461 21.7897 10.0264C21.7848 10.0478 21.7865 10.0702 21.7944 10.0905C21.8024 10.1107 21.8162 10.1278 21.8339 10.1392L21.8781 10.1674L21.9489 10.2049L22.3645 10.4117C22.497 10.4727 22.6096 10.5739 22.6883 10.7026C22.7669 10.8313 22.8081 10.9818 22.8066 11.1353C22.8075 11.252 22.7851 11.3676 22.7409 11.4745C22.6967 11.5814 22.6317 11.6772 22.5502 11.7555C22.5393 11.7621 22.5304 11.7717 22.5241 11.7833C22.5179 11.7948 22.5147 11.8079 22.5148 11.8212V11.8776C22.5148 12.1125 22.5237 12.3569 22.5148 12.6106C22.4882 13.1828 22.4172 13.7517 22.3026 14.3114C22.223 14.7249 22.1169 15.1478 21.9842 15.6082C21.8274 16.0921 21.6444 16.5659 21.436 17.0272C21.1804 17.5722 20.8878 18.0967 20.5605 18.5965C20.3215 18.9523 20.0647 19.2942 19.7912 19.6208C18.2797 21.4599 16.2524 22.7347 14.0078 23.2574C13.2329 23.4423 12.4409 23.5337 11.6467 23.5299C11.408 23.5299 11.1692 23.5299 10.9393 23.5111C8.88206 23.3734 6.90373 22.6187 5.23371 21.3347C3.56368 20.0507 2.27038 18.29 1.50377 16.2566C1.15119 15.3231 0.919167 14.3432 0.814011 13.3436C0.757865 12.832 0.728343 12.3175 0.725581 11.8024C0.724304 11.7895 0.720499 11.7769 0.714409 11.7656C0.70832 11.7543 0.700078 11.7444 0.690209 11.7367C0.607047 11.6562 0.541706 11.5572 0.49889 11.4467C0.456075 11.3362 0.436851 11.217 0.442604 11.0977C0.451399 10.9454 0.501044 10.799 0.585667 10.6758C0.67029 10.5525 0.786352 10.4576 0.920128 10.4023C1.09319 10.326 1.26155 10.2381 1.42418 10.1392C1.4342 10.1351 1.44333 10.1288 1.45102 10.1209C1.45871 10.1129 1.46481 10.1034 1.46894 10.0928C1.47307 10.0823 1.47515 10.071 1.47506 10.0596C1.47497 10.0481 1.4727 10.0369 1.4684 10.0264C1.40004 9.80455 1.34394 9.57863 1.30038 9.34982C1.24725 9.08415 1.22057 8.81328 1.22079 8.54168V6.23001C1.22538 6.03871 1.26539 5.85025 1.33854 5.6754C1.4117 5.50054 1.51656 5.34272 1.64713 5.21094C1.77771 5.07917 1.93144 4.97603 2.09954 4.90741C2.26764 4.8388 2.44682 4.80606 2.62683 4.81106H5.73074C6.04883 4.80734 6.35717 4.9277 6.59736 5.14935L6.65041 5.16814L6.71232 5.14935C6.96771 4.92376 7.29112 4.80364 7.62315 4.81106H8.33944C8.36202 4.81213 8.38408 4.8186 8.40399 4.82999C8.42389 4.84138 8.44112 4.85739 8.45439 4.87684C8.47153 4.89282 8.48337 4.91425 8.48815 4.93795C8.49292 4.96165 8.49039 4.98635 8.48092 5.00839C8.44418 5.19783 8.4472 5.39355 8.48977 5.58161C8.49792 5.63047 8.48844 5.6808 8.46324 5.72257C8.44951 5.74081 8.43198 5.7554 8.41202 5.76519C8.39207 5.77497 8.37024 5.77969 8.34828 5.77895H7.55241C7.49082 5.78255 7.43052 5.79903 7.37494 5.82744C7.31936 5.85586 7.26961 5.89565 7.22854 5.94454C7.18746 5.99342 7.15587 6.05045 7.13557 6.11233C7.11527 6.17422 7.10667 6.23976 7.11025 6.30518V8.12821C7.06604 8.91756 7.23406 9.70691 7.62315 10.562C7.83538 11.0413 8.1272 11.5863 8.61357 11.9716C8.76197 12.1047 8.94993 12.1778 9.14415 12.1778C9.33838 12.1778 9.52634 12.1047 9.67473 11.9716C9.9174 11.7826 10.1244 11.5467 10.2849 11.2762C10.9407 10.2488 11.2578 9.01963 11.1869 7.78052C11.1871 7.74921 11.1955 7.71859 11.2111 7.69204C11.2267 7.6655 11.2489 7.64408 11.2753 7.63016C11.4869 7.51782 11.6624 7.3412 11.7794 7.12273L11.8501 6.99117C11.8647 6.96799 11.8844 6.949 11.9076 6.93589C11.9307 6.92277 11.9565 6.91594 11.9828 6.91599H12.0093C12.0423 6.92384 12.0721 6.94264 12.0943 6.96967C12.1166 6.9967 12.1302 7.03056 12.1331 7.06634C12.1331 7.35765 12.1331 7.74293 12.1243 8.12821C12.0977 8.91756 12.2569 9.68811 12.6195 10.5057C12.8052 10.9379 13.0793 11.4735 13.5391 11.8776C13.7425 12.0562 13.9282 12.1407 14.1228 12.1407C14.3253 12.1308 14.5187 12.048 14.6711 11.9058C14.7427 11.8515 14.8107 11.7918 14.8744 11.7273C15.6274 10.8453 16.0682 9.71241 16.1213 8.52288C16.1478 8.00605 16.139 7.48921 16.1302 6.99117V6.33337C16.1302 6.01388 15.9444 5.80714 15.6438 5.80714H13.2031C13.1811 5.80788 13.1593 5.80316 13.1394 5.79338C13.1194 5.78359 13.1019 5.769 13.0881 5.75076C13.0621 5.70937 13.0525 5.65867 13.0616 5.6098C13.087 5.51191 13.0989 5.41062 13.097 5.3091C13.0953 5.19793 13.0804 5.08743 13.0528 4.9802C13.0445 4.95698 13.0419 4.93196 13.0449 4.90736C13.048 4.88277 13.0568 4.85937 13.0705 4.83925C13.1022 4.80119 13.1466 4.77762 13.1943 4.77347H15.7234C16.0408 4.77397 16.3478 4.8938 16.59 5.11176L16.643 5.13995L16.6961 5.12116C16.9462 4.92179 17.25 4.81308 17.5627 4.81106H19.7381C19.7561 4.81001 19.7734 4.80316 19.7876 4.7914C19.8018 4.77964 19.8123 4.76355 19.8177 4.74528C19.822 4.73679 19.8246 4.72738 19.8251 4.71774C19.8256 4.70809 19.8241 4.69844 19.8208 4.68947C19.8174 4.6805 19.8122 4.67243 19.8056 4.66583C19.7989 4.65924 19.791 4.65428 19.7823 4.65131C19.0926 4.20025 18.73 3.94653 18.1287 3.53306C17.5274 3.11959 16.9702 2.72492 16.0594 2.1329C15.6982 1.89628 15.2633 1.82176 14.8504 1.92573C14.4375 2.02969 14.0804 2.30363 13.8575 2.68733L13.3269 3.58944C13.2385 3.7398 13.1589 3.89015 13.0705 4.0311L13.0528 4.06869C13.0273 4.09604 13.0063 4.12782 12.9909 4.16266C12.8759 4.3694 12.7433 4.46337 12.5753 4.46337C12.4773 4.45726 12.3814 4.43177 12.2923 4.38819C12.1234 4.31137 11.9747 4.19204 11.859 4.0405C11.7705 3.91834 11.6909 3.7398 11.7971 3.54246C11.8065 3.5143 11.8216 3.48865 11.8413 3.46728L11.9739 3.22296C12.2605 2.66051 12.5887 2.12318 12.9555 1.61607C13.2264 1.25509 13.5709 0.964296 13.9631 0.765679C14.3553 0.567063 14.7849 0.465828 15.2193 0.469631C15.7651 0.469631 16.3004 0.628908 16.7669 0.930085C17.377 1.33416 17.6954 1.55969 17.9872 1.76642C18.279 1.97316 18.5885 2.19868 19.1898 2.59336L23.1869 5.19633C23.4876 5.38427 23.6114 5.69438 23.5318 6.01388ZM9.94887 5.47825L10.055 5.54402C10.2837 5.67604 10.4689 5.87937 10.5856 6.12664L10.6475 6.2394C10.6547 6.25529 10.666 6.26869 10.6801 6.27807C10.6942 6.28744 10.7104 6.29241 10.7271 6.29241C10.7437 6.29241 10.7599 6.28744 10.774 6.27807C10.7881 6.26869 10.7994 6.25529 10.8066 6.2394L10.8685 6.12664C10.9918 5.88602 11.1795 5.68976 11.408 5.56282L11.5229 5.49704C11.5361 5.49008 11.5472 5.47937 11.555 5.4661C11.5629 5.45283 11.567 5.43751 11.5671 5.42186C11.5668 5.405 11.5626 5.38848 11.5549 5.37374C11.5472 5.359 11.5362 5.34648 11.5229 5.33729L11.4168 5.27151C11.1893 5.13476 11.0024 4.9329 10.8774 4.6889L10.8243 4.57613C10.8186 4.55884 10.8077 4.54399 10.7934 4.53382C10.779 4.52365 10.762 4.51871 10.7447 4.51975C10.7289 4.52009 10.7133 4.52455 10.6995 4.53274C10.6856 4.54093 10.6738 4.5526 10.6652 4.56673L10.6033 4.6889C10.4776 4.92753 10.2904 5.12312 10.0638 5.25272L9.94887 5.3185C9.93625 5.32619 9.92561 5.33708 9.91789 5.35019C9.91018 5.36331 9.90563 5.37824 9.90465 5.39367C9.90497 5.41053 9.90917 5.42705 9.91687 5.44179C9.92458 5.45654 9.93556 5.46905 9.94887 5.47825Z" fill="#878687"/>
</g>
</g>
<defs>
<clipPath id="clip0_1420_5653">
<rect width="24" height="24" fill="white" transform="matrix(-1 0 0 1 24 0)"/>
</clipPath>
<clipPath id="clip1_1420_5653">
<rect width="24" height="24" fill="white"/>
</clipPath>
</defs>
</svg>
