<svg width="60" height="60" viewBox="0 0 60 60" fill="none" xmlns="http://www.w3.org/2000/svg">
<rect width="60" height="60" rx="30" fill="#454545"/>
<path d="M25.819 20.2874L26.549 20.7275C26.759 20.8484 26.9314 21.0319 27.0448 21.2556L27.4443 22.0478C27.4969 22.1601 27.5773 22.255 27.6768 22.3222C27.7763 22.3894 27.8911 22.4264 28.0089 22.4292C28.1253 22.4278 28.2392 22.393 28.3386 22.3285C28.438 22.2639 28.5192 22.172 28.5736 22.0625L29.0006 21.285C29.1149 21.0657 29.2874 20.8871 29.4964 20.7715L30.2402 20.3461C30.3526 20.2845 30.4441 20.1871 30.5019 20.0674C30.5449 19.9882 30.572 19.9004 30.5815 19.8095C30.591 19.7186 30.5826 19.6266 30.557 19.5393C30.5361 19.4521 30.4984 19.3705 30.4462 19.2998C30.394 19.2291 30.3285 19.1707 30.254 19.1285L29.524 18.6884C29.314 18.5676 29.1416 18.384 29.0282 18.1603L28.6287 17.3535C28.5749 17.2423 28.4936 17.1488 28.3936 17.0831C28.2936 17.0173 28.1788 16.9818 28.0613 16.9803C27.9438 16.9788 27.8282 17.0113 27.7267 17.0745C27.6253 17.1377 27.542 17.229 27.4856 17.3388L27.0724 18.131C26.9581 18.3503 26.7856 18.5289 26.5766 18.6444L25.8328 19.0699C25.7204 19.1314 25.6289 19.2289 25.5711 19.3486C25.5295 19.4276 25.5029 19.5145 25.4928 19.6044C25.4828 19.6944 25.4894 19.7855 25.5125 19.8727C25.5355 19.9599 25.5744 20.0414 25.627 20.1126C25.6796 20.1837 25.7449 20.2432 25.819 20.2874ZM26.8107 19.5686L26.9897 19.4659C27.3427 19.2636 27.6341 18.9583 27.8299 18.5858L27.9263 18.395C27.9398 18.373 27.9581 18.3548 27.9797 18.342C28.0013 18.3292 28.0256 18.3222 28.0503 18.3217C28.0767 18.3222 28.1024 18.3307 28.1244 18.3463C28.1464 18.3619 28.1637 18.3839 28.1742 18.4097L28.2569 18.5858C28.4515 18.9667 28.7426 19.2818 29.097 19.4953L29.2623 19.598C29.283 19.6123 29.3001 19.6319 29.3121 19.6549C29.3241 19.6779 29.3307 19.7037 29.3312 19.73C29.331 19.7544 29.3245 19.7783 29.3123 19.7991C29.3002 19.8198 29.2828 19.8365 29.2623 19.8474L29.0832 19.95C28.7274 20.1482 28.435 20.4546 28.2431 20.8302L28.1467 21.0063C28.1349 21.0311 28.1173 21.0522 28.0956 21.0676C28.0738 21.083 28.0488 21.0922 28.0227 21.0943C27.9967 21.0922 27.9716 21.083 27.9499 21.0676C27.9282 21.0522 27.9106 21.0311 27.8988 21.0063L27.8024 20.8302C27.6206 20.4442 27.3322 20.1268 26.976 19.9207L26.8107 19.818C26.79 19.8037 26.7729 19.7841 26.7609 19.7611C26.7489 19.7381 26.7423 19.7123 26.7418 19.686C26.742 19.6616 26.7485 19.6376 26.7607 19.6169C26.7728 19.5962 26.7901 19.5795 26.8107 19.5686Z" fill="white"/>
<path d="M47.4262 19.3788L41.2007 15.3153C40.2642 14.6991 39.7821 14.3471 39.3276 14.0243C38.8731 13.7016 38.3773 13.3495 37.4269 12.7187C36.6996 12.2506 35.8664 12.0022 35.0166 11.9999C34.34 11.994 33.6709 12.152 33.0601 12.4621C32.4492 12.7721 31.9126 13.2261 31.4907 13.7896C30.9178 14.58 30.4065 15.419 29.9619 16.2982L29.7553 16.6796C29.7275 16.7152 29.7044 16.7547 29.6865 16.7969C29.5212 17.105 29.6452 17.3837 29.7829 17.5744C29.9598 17.8146 30.1924 18.0017 30.4578 18.1172C30.5958 18.1873 30.7457 18.2272 30.8985 18.2346C31.1602 18.2346 31.3668 18.0879 31.5458 17.7651C31.5733 17.7129 31.6056 17.6638 31.6422 17.6184L31.6698 17.5597C31.8075 17.3397 31.9315 17.105 32.0692 16.8703C32.2069 16.6356 32.6201 15.9314 32.8956 15.462C33.2428 14.863 33.799 14.4353 34.4421 14.273C35.0852 14.1107 35.7625 14.2271 36.3251 14.5965C37.7437 15.5207 38.6114 16.1221 39.548 16.7676C40.4845 17.4131 41.0492 17.8091 42.1235 18.5133C42.1375 18.5196 42.15 18.5289 42.1604 18.5405C42.1708 18.5522 42.1789 18.5661 42.184 18.5812C42.1892 18.5963 42.1914 18.6125 42.1905 18.6285C42.1895 18.6446 42.1855 18.6603 42.1786 18.6747C42.1702 18.7032 42.1539 18.7283 42.1317 18.7467C42.1096 18.765 42.0827 18.7757 42.0547 18.7773H38.6665C38.1795 18.7805 37.7063 18.9502 37.3167 19.2614L37.2341 19.2908C37.2023 19.288 37.1727 19.2722 37.1515 19.2468C36.773 18.9087 36.2956 18.7219 35.8017 18.7187H31.8626C31.8255 18.7202 31.7891 18.7302 31.7558 18.7479C31.7226 18.7656 31.6932 18.7906 31.6698 18.8213C31.6485 18.8528 31.6349 18.8893 31.6301 18.9277C31.6252 18.9661 31.6294 19.0051 31.6422 19.0414C31.7294 19.3618 31.7341 19.7012 31.656 20.0243C31.6419 20.1005 31.6567 20.1797 31.6973 20.2443C31.7187 20.2728 31.746 20.2956 31.7771 20.3108C31.8082 20.3261 31.8422 20.3335 31.8764 20.3323H35.6777C36.146 20.3323 36.4353 20.6551 36.4353 21.1538V22.1807C36.449 22.9582 36.4628 23.7651 36.4215 24.5719C36.3411 26.4294 35.6542 28.1987 34.4795 29.5743C34.382 29.6771 34.2759 29.7704 34.1627 29.853C33.9243 30.073 33.6238 30.202 33.3088 30.2197C33.0058 30.2197 32.7165 30.0877 32.3998 29.809C31.6836 29.1782 31.2566 28.342 30.9674 27.6672C30.4027 26.3909 30.1548 25.188 30.1961 23.9558C30.2098 23.3543 30.2099 22.7528 30.2099 22.2981C30.2053 22.2422 30.1841 22.1894 30.1495 22.1472C30.1148 22.105 30.0684 22.0756 30.017 22.0634H29.9757C29.9349 22.0633 29.8946 22.0739 29.8586 22.0944C29.8225 22.1149 29.7918 22.1445 29.7691 22.1807L29.6589 22.3861C29.4809 22.7306 29.2065 23.0075 28.8739 23.1783C28.8328 23.2 28.7981 23.2334 28.7738 23.2749C28.7495 23.3163 28.7365 23.3641 28.7361 23.413C28.8487 25.3476 28.3546 27.2672 27.3313 28.8701C27.0762 29.2881 26.7546 29.6555 26.3809 29.9557C26.1446 30.1539 25.8552 30.2669 25.5546 30.2784C25.2536 30.2689 24.9636 30.1557 24.7282 29.9557C23.9707 29.3542 23.5162 28.5034 23.1856 27.7552C22.5796 26.4203 22.3179 25.188 22.3868 23.9558V21.1098C22.3811 21.0041 22.3958 20.8982 22.43 20.7988C22.4642 20.6993 22.517 20.6083 22.5854 20.5314C22.6537 20.4545 22.7361 20.3932 22.8275 20.3514C22.9189 20.3096 23.0173 20.2882 23.1167 20.2883H24.315C24.3492 20.2895 24.3832 20.2821 24.4143 20.2668C24.4453 20.2516 24.4727 20.2288 24.494 20.2003C24.5333 20.1351 24.548 20.0565 24.5354 19.9803C24.4691 19.6867 24.4644 19.3811 24.5216 19.0854C24.5327 19.0504 24.5347 19.0128 24.5274 18.9767C24.5202 18.9405 24.5039 18.9071 24.4803 18.88C24.4596 18.8497 24.4328 18.8247 24.4018 18.8069C24.3708 18.7891 24.3364 18.779 24.3012 18.7773H23.1856C22.6685 18.7658 22.1647 18.9533 21.767 19.3054L21.6706 19.3348L21.5879 19.3054C21.2138 18.9594 20.7336 18.7715 20.2382 18.7773H15.4038C15.1142 18.7693 14.826 18.8241 14.5569 18.9384C14.2878 19.0528 14.0433 19.2243 13.8385 19.4425C13.6336 19.6608 13.4725 19.9211 13.3652 20.2078C13.2578 20.4944 13.2063 20.8013 13.2139 21.1098V24.6012C13.2163 25.0251 13.2578 25.4476 13.3379 25.8628C13.4071 26.2197 13.4944 26.5723 13.5996 26.919C13.6063 26.9354 13.6098 26.953 13.6099 26.9708C13.6101 26.9886 13.6068 27.0063 13.6004 27.0227C13.594 27.0392 13.5845 27.0541 13.5725 27.0665C13.5605 27.0789 13.5463 27.0887 13.5307 27.0951C13.2774 27.2496 13.0152 27.3868 12.7456 27.5058C12.5363 27.5907 12.3546 27.7384 12.2226 27.9311C12.0906 28.1238 12.0139 28.3532 12.0019 28.5914C11.9919 28.7778 12.0214 28.9642 12.0882 29.1369C12.1549 29.3095 12.2572 29.464 12.3875 29.5889C12.4029 29.601 12.4157 29.6164 12.4252 29.6341C12.4347 29.6518 12.4406 29.6714 12.4426 29.6916C12.4462 30.4957 12.4921 31.2989 12.5804 32.0975C12.7425 33.6584 13.1039 35.1884 13.6547 36.6451C14.4209 38.6787 15.5268 40.5475 16.9189 42.1609C19.8809 45.5988 23.9781 47.6809 28.3505 47.9701C28.7086 47.9995 29.0805 47.9995 29.4523 47.9995C30.6893 48.0071 31.9231 47.8643 33.1297 47.574C36.6268 46.761 39.7851 44.7704 42.1373 41.8969C42.5667 41.3901 42.9668 40.8561 43.3356 40.2979C43.8413 39.5148 44.2968 38.6964 44.6991 37.848C45.0247 37.1283 45.3099 36.3886 45.553 35.6329C45.7596 34.9141 45.9249 34.2539 46.0489 33.6084C46.2201 32.7332 46.3306 31.8457 46.3794 30.9532C46.3932 30.5571 46.3794 30.1757 46.3794 29.809V29.721C46.3792 29.7002 46.3842 29.6797 46.3939 29.6617C46.4036 29.6436 46.4176 29.6287 46.4345 29.6183C46.5622 29.4967 46.6639 29.3473 46.7328 29.1803C46.8017 29.0133 46.8362 28.8325 46.8339 28.6501C46.8344 28.4109 46.7696 28.1768 46.6473 27.9762C46.525 27.7756 46.3506 27.6173 46.1453 27.5205L45.4979 27.1978L45.3877 27.1391L45.3189 27.0951C45.2913 27.0773 45.2698 27.0507 45.2574 27.0191C45.245 26.9874 45.2424 26.9524 45.25 26.919C45.4941 26.1678 45.6288 25.3812 45.6494 24.5866V21.0805C45.6499 21.0542 45.6565 21.0284 45.6685 21.0054C45.6805 20.9824 45.6976 20.9628 45.7183 20.9485H45.856L45.8973 20.9778L46.4483 21.3299C46.6074 21.4274 46.788 21.4781 46.9716 21.4766C47.1993 21.4773 47.4207 21.3968 47.6004 21.2479C47.7802 21.099 47.9079 20.8903 47.9633 20.6551C48.0873 20.1563 47.8944 19.6722 47.4262 19.3788ZM37.482 13.4522C37.4541 13.5128 37.4111 13.5641 37.3576 13.6003C37.3042 13.6366 37.2424 13.6564 37.179 13.6576C37.0712 13.6527 36.9666 13.6173 36.876 13.5549C36.3008 13.2056 35.6512 13.0188 34.9891 13.0121C33.8046 13.0121 32.7028 13.6576 31.9728 14.7725C31.939 14.8439 31.8881 14.9046 31.8252 14.9484C31.7623 14.9922 31.6897 15.0175 31.6147 15.0219H31.4907C31.4094 15.001 31.3379 14.9493 31.2898 14.8764C31.2416 14.8035 31.22 14.7144 31.2291 14.6258C31.2254 14.5027 31.2647 14.3825 31.3392 14.2884L31.3668 14.2591C31.9943 13.2625 32.9563 12.5596 34.0552 12.295C35.1541 12.0304 36.3064 12.224 37.2754 12.8361C37.5509 13.0121 37.6197 13.2175 37.482 13.4522ZM37.8814 22.1807V21.1685C37.8814 20.6257 38.1982 20.2883 38.694 20.2883H43.3769C43.492 20.279 43.6076 20.295 43.7166 20.3354C43.8256 20.3758 43.9256 20.4397 44.0104 20.523C44.1596 20.7105 44.2337 20.9528 44.217 21.1978C44.217 21.5646 44.2308 21.946 44.2308 22.3127C44.2584 23.1687 44.2446 24.0255 44.1895 24.88C44.0797 26.652 43.3929 28.3278 42.2475 29.6183C41.8481 30.073 41.4487 30.2931 41.0492 30.2931C40.6498 30.2931 40.2229 30.0584 39.7959 29.5743C39.0384 28.6941 38.5012 27.6085 38.1156 26.1415C37.9482 25.542 37.8692 24.9185 37.8814 24.2932V22.1807ZM14.6188 22.122V21.1978C14.6188 20.6111 14.9218 20.2883 15.4589 20.2883H20.1418C20.252 20.288 20.3612 20.3112 20.4629 20.3566C20.5646 20.4019 20.6568 20.4685 20.734 20.5524C20.8141 20.6383 20.8755 20.742 20.9136 20.8562C20.9517 20.9703 20.9656 21.092 20.9544 21.2125C20.9406 21.7553 20.9544 22.2981 20.9544 22.8262C20.9544 23.3543 20.9681 24.0584 20.9406 24.6452C20.8758 26.5049 20.1811 28.2766 18.9848 29.6329C18.5854 30.0877 18.1722 30.3078 17.7866 30.3078C17.4009 30.3078 16.9602 30.0584 16.547 29.5743C15.341 28.1404 14.6612 26.2913 14.6325 24.3665C14.605 23.6037 14.6188 22.8262 14.6188 22.122ZM45.1949 28.7968C45.0918 28.9779 45.0393 29.1865 45.0434 29.3982V29.9263C45.0434 30.2491 45.0434 30.5718 45.0296 30.8945C44.9901 31.7136 44.8888 32.528 44.7266 33.3297C44.609 33.9596 44.4572 34.5816 44.2721 35.1928C44.0579 35.8874 43.7955 36.564 43.4871 37.2172C43.1289 38.006 42.7097 38.7617 42.2337 39.4763C41.9008 39.9981 41.5325 40.4933 41.1319 40.958C40.2077 42.0824 39.1416 43.0648 37.9641 43.8773C36.4006 44.9678 34.6648 45.7481 32.8405 46.1804C31.7285 46.4464 30.592 46.5793 29.4523 46.5765L28.4331 46.5472C24.4106 46.2659 20.6435 44.3489 17.9105 41.1927C17.2383 40.4207 16.6386 39.5806 16.12 38.6842C15.6411 37.8687 15.2309 37.0096 14.8942 36.117C14.3967 34.7744 14.0634 33.3693 13.9026 31.9361C13.8108 31.0938 13.7694 30.2461 13.7786 29.3982C13.7927 29.1966 13.7443 28.9956 13.6409 28.8261C13.6304 28.788 13.6257 28.7484 13.6271 28.7088C13.6419 28.6649 13.6713 28.6284 13.7097 28.6061L14.0265 28.4594H14.0816C14.1076 28.4614 14.1327 28.4706 14.1545 28.486C14.1762 28.5014 14.1938 28.5226 14.2056 28.5474C14.6876 29.5889 15.211 30.3518 15.8446 30.9386C16.4781 31.5253 17.0979 31.8187 17.7728 31.8187C17.972 31.8161 18.1705 31.7915 18.365 31.7454C18.9573 31.5987 19.5082 31.2466 20.0316 30.6598C20.6742 29.9387 21.1877 29.0985 21.5466 28.1806C21.5572 28.1549 21.5745 28.1328 21.5964 28.1172C21.6184 28.1016 21.6442 28.0931 21.6706 28.0926C21.697 28.0931 21.7227 28.1016 21.7447 28.1172C21.7667 28.1328 21.784 28.1549 21.7945 28.1806C21.8909 28.4154 21.9873 28.6061 22.07 28.7968C22.5107 29.6329 23.0754 30.5865 23.9982 31.276C24.459 31.6362 25.0175 31.8268 25.589 31.8188C26.1606 31.8109 26.7142 31.6049 27.166 31.2319C28.0475 30.5571 28.6122 29.6183 28.9978 28.8555C29.108 28.6501 29.1906 28.4447 29.2733 28.2687C29.2838 28.2429 29.3011 28.2209 29.3231 28.2053C29.3451 28.1897 29.3708 28.1811 29.3972 28.1806C29.4233 28.1827 29.4484 28.1919 29.4701 28.2073C29.4918 28.2227 29.5094 28.2439 29.5212 28.2687V28.298C29.524 28.3292 29.5334 28.3593 29.5487 28.386C30.1272 29.6916 30.747 30.5718 31.5458 31.2173C32.047 31.6322 32.6604 31.8637 33.295 31.8774C33.8895 31.8674 34.4666 31.6625 34.9478 31.2906C35.843 30.6305 36.3939 29.721 36.7658 28.9875C36.8877 28.7666 36.9936 28.5361 37.0826 28.298C37.0944 28.2732 37.112 28.2521 37.1337 28.2366C37.1554 28.2212 37.1805 28.212 37.2066 28.21C37.233 28.2104 37.2587 28.219 37.2807 28.2346C37.3027 28.2502 37.32 28.2722 37.3305 28.298L37.5647 28.7821C37.9503 29.5743 38.515 30.5571 39.4516 31.2466C39.9064 31.6064 40.4552 31.8064 41.0217 31.8187C41.4167 31.8104 41.8058 31.7155 42.1649 31.54C42.6215 31.3002 43.0288 30.9661 43.3631 30.5571C43.8176 30.029 44.341 29.0315 44.6165 28.474C44.6267 28.4522 44.6423 28.4337 44.6618 28.4208C44.6813 28.4078 44.7037 28.4009 44.7266 28.4007H44.7955L45.1261 28.5914C45.1456 28.5977 45.1633 28.609 45.1777 28.6244C45.1921 28.6397 45.2028 28.6586 45.2087 28.6794C45.2182 28.719 45.2133 28.7609 45.1949 28.7968Z" fill="white"/>
</svg>
