<svg id="Layer_1" data-name="Layer 1" xmlns="http://www.w3.org/2000/svg" viewBox="0 0 500 422.53"><defs><style>.cls-1{fill:#001f38;}</style></defs><path class="cls-1" d="M92.56,99.2A28.1,28.1,0,0,1,81.63,108a30.76,30.76,0,0,1-12.09,2.54,42.78,42.78,0,0,1-17.39-3.36A37.71,37.71,0,0,1,39.23,98a40,40,0,0,1-8.1-13.66,49.44,49.44,0,0,1-2.82-16.79,51.21,51.21,0,0,1,2.82-17.15,41.1,41.1,0,0,1,8.1-13.89,37.22,37.22,0,0,1,12.92-9.27,42.78,42.78,0,0,1,17.39-3.36A41.36,41.36,0,0,1,82,25.83a35,35,0,0,1,10.87,5.62,32,32,0,0,1,8,9.15,30,30,0,0,1,3.94,12.51H87.27q-1.65-6.95-6.4-10.42a18.67,18.67,0,0,0-11.33-3.48A21.83,21.83,0,0,0,59,41.58a20,20,0,0,0-7,6.37A27.56,27.56,0,0,0,48,57.05a44.72,44.72,0,0,0-1.23,10.54A41.63,41.63,0,0,0,48,77.72a26.94,26.94,0,0,0,3.94,8.86,20.12,20.12,0,0,0,7,6.31,21.83,21.83,0,0,0,10.58,2.38q9,0,14.09-4.58T89.5,77.43H70.94V63.88h35.24v44.7H94.44Z"/><path class="cls-1" d="M136,82.64q.36,7.88,4.11,11.53t10.81,3.64a15,15,0,0,0,8.69-2.49c2.43-1.66,3.92-3.41,4.46-5.27h14.69q-3.53,10.67-10.81,15.41t-17.62,4.75a34.46,34.46,0,0,1-12.92-2.32,27.52,27.52,0,0,1-9.75-6.49,28.82,28.82,0,0,1-6.16-10,35.94,35.94,0,0,1-2.18-12.74,34.43,34.43,0,0,1,2.24-12.5,29.21,29.21,0,0,1,6.34-10,29.8,29.8,0,0,1,9.81-6.66,31.8,31.8,0,0,1,12.62-2.43A29.21,29.21,0,0,1,163.85,50,26.88,26.88,0,0,1,173.31,58a32.63,32.63,0,0,1,5.34,11.35,41.71,41.71,0,0,1,1.17,13.32Zm27.14-10.42Q162,66,159,62.72t-9.11-3.24a14.63,14.63,0,0,0-6.63,1.33,12.62,12.62,0,0,0-4.23,3.3,11.92,11.92,0,0,0-2.23,4.17,18.88,18.88,0,0,0-.77,3.94Z"/><path class="cls-1" d="M192.62,48.71h15.86v8.34h.35a19.63,19.63,0,0,1,8.23-7.53,23.56,23.56,0,0,1,10.33-2.43,28.64,28.64,0,0,1,11,1.79,16.36,16.36,0,0,1,6.76,5,19.16,19.16,0,0,1,3.46,7.76,47.32,47.32,0,0,1,1,10.13v36.83H232.91V74.77q0-7.41-2.41-11.06c-1.6-2.44-4.36-3.65-8.28-3.65q-6.81,0-9.86,4T209.3,77.2v31.38H192.62Z"/><path class="cls-1" d="M279,82.64q.36,7.88,4.11,11.53t10.81,3.64a15,15,0,0,0,8.69-2.49c2.43-1.66,3.92-3.41,4.46-5.27h14.69q-3.52,10.67-10.81,15.41t-17.62,4.75a34.42,34.42,0,0,1-12.92-2.32,27.43,27.43,0,0,1-9.75-6.49,28.67,28.67,0,0,1-6.16-10,35.94,35.94,0,0,1-2.18-12.74,34.43,34.43,0,0,1,2.24-12.5,29.21,29.21,0,0,1,6.34-10,29.8,29.8,0,0,1,9.81-6.66,31.8,31.8,0,0,1,12.62-2.43A29.21,29.21,0,0,1,306.79,50,26.85,26.85,0,0,1,316.24,58a32.47,32.47,0,0,1,5.35,11.35,42,42,0,0,1,1.17,13.32Zm27.13-10.42q-1.17-6.25-4.17-9.5t-9.1-3.24a14.63,14.63,0,0,0-6.63,1.33,12.52,12.52,0,0,0-4.23,3.3,11.92,11.92,0,0,0-2.23,4.17,18.25,18.25,0,0,0-.77,3.94Z"/><path class="cls-1" d="M335.56,48.71h15.86V59.83h.24a19.88,19.88,0,0,1,3.17-5.16,20.55,20.55,0,0,1,4.58-4.05A22.24,22.24,0,0,1,365,48a20.56,20.56,0,0,1,6.05-.92,11.51,11.51,0,0,1,3.64.58V63c-.79-.15-1.73-.29-2.82-.4a29.3,29.3,0,0,0-3.17-.18,18.07,18.07,0,0,0-7.76,1.51A13.42,13.42,0,0,0,355.82,68a16.42,16.42,0,0,0-2.76,6.14,33.34,33.34,0,0,0-.82,7.47v27H335.56Z"/><path class="cls-1" d="M383.48,67.12a19,19,0,0,1,2.94-9.61A19.93,19.93,0,0,1,393,51.37a29.16,29.16,0,0,1,8.92-3.3,52,52,0,0,1,10.11-1,69.65,69.65,0,0,1,9.27.63,29,29,0,0,1,8.58,2.49,16.74,16.74,0,0,1,6.34,5.21,14.31,14.31,0,0,1,2.47,8.69V95.27a60.59,60.59,0,0,0,.47,7.76,13.81,13.81,0,0,0,1.64,5.55H423.89a21.08,21.08,0,0,1-.76-2.83,24,24,0,0,1-.42-3,22.21,22.21,0,0,1-9.39,5.74,37.28,37.28,0,0,1-11,1.68,28.91,28.91,0,0,1-8.11-1.1,19.59,19.59,0,0,1-6.58-3.31,15.15,15.15,0,0,1-4.4-5.55,18.57,18.57,0,0,1-1.58-8,17.66,17.66,0,0,1,1.76-8.39,14.28,14.28,0,0,1,4.7-5.27,22,22,0,0,1,6.63-3,71.64,71.64,0,0,1,7.58-1.56q3.87-.57,7.4-.93a42.13,42.13,0,0,0,6.28-1,11.31,11.31,0,0,0,4.4-2A4.71,4.71,0,0,0,422,66.2a8.59,8.59,0,0,0-.88-4.23,6.46,6.46,0,0,0-2.35-2.43,9.23,9.23,0,0,0-3.41-1.16,28.64,28.64,0,0,0-4.17-.29,12.83,12.83,0,0,0-7.69,2.08c-1.92,1.39-3,3.71-3.35,7ZM422,79.28a7.62,7.62,0,0,1-2.64,1.45,26.93,26.93,0,0,1-3.41.87c-1.21.23-2.51.42-3.88.58s-2.68.35-3.93.58a27.56,27.56,0,0,0-3.76.92,11.21,11.21,0,0,0-3.11,1.57,7.1,7.1,0,0,0-2.17,2.55,7.94,7.94,0,0,0-.83,3.76,7.53,7.53,0,0,0,.83,3.76,6.28,6.28,0,0,0,2.23,2.32,9.61,9.61,0,0,0,3.29,1.22,21.35,21.35,0,0,0,3.87.34,15,15,0,0,0,7.64-1.62,10.87,10.87,0,0,0,4-3.88,12.37,12.37,0,0,0,1.59-4.57,32.21,32.21,0,0,0,.29-3.71Z"/><path class="cls-1" d="M455,25.89h16.68v82.69H455Z"/><path class="cls-1" d="M28.31,169.27H64.48a43.72,43.72,0,0,1,15.1,2.55,33,33,0,0,1,12.1,7.64,35.38,35.38,0,0,1,8,12.74,50.86,50.86,0,0,1,2.88,18,56.37,56.37,0,0,1-2.35,16.68A36.37,36.37,0,0,1,93.08,240a33.15,33.15,0,0,1-11.86,8.75A40.72,40.72,0,0,1,64.48,252H28.31Zm18.44,67.41H63.19a24,24,0,0,0,7.75-1.28,17.19,17.19,0,0,0,6.7-4.22,21.25,21.25,0,0,0,4.7-7.71,33.51,33.51,0,0,0,1.76-11.58,47.68,47.68,0,0,0-1.23-11.29A22.55,22.55,0,0,0,78.81,192a17.88,17.88,0,0,0-7.45-5.5,30.31,30.31,0,0,0-11.46-1.91H46.75Z"/><path class="cls-1" d="M130.26,226q.35,7.88,4.11,11.53t10.81,3.64a15,15,0,0,0,8.69-2.49c2.42-1.66,3.91-3.41,4.46-5.27H173q-3.52,10.66-10.8,15.41t-17.62,4.75a34.38,34.38,0,0,1-12.92-2.32,27.43,27.43,0,0,1-9.75-6.49,28.94,28.94,0,0,1-6.17-10,35.94,35.94,0,0,1-2.17-12.74,34.43,34.43,0,0,1,2.23-12.5,29.36,29.36,0,0,1,6.34-10A29.8,29.8,0,0,1,132,192.9a31.89,31.89,0,0,1,12.63-2.43,29.21,29.21,0,0,1,13.51,2.95,26.94,26.94,0,0,1,9.45,7.93,32.47,32.47,0,0,1,5.35,11.35A42,42,0,0,1,174.07,226Zm27.13-10.42q-1.17-6.25-4.17-9.5t-9.1-3.24a14.68,14.68,0,0,0-6.64,1.33,12.72,12.72,0,0,0-4.23,3.3,12.09,12.09,0,0,0-2.23,4.17,18.8,18.8,0,0,0-.76,3.94Z"/><path class="cls-1" d="M186.87,192.09h15.86v8.34h.35a19.54,19.54,0,0,1,8.22-7.53,23.6,23.6,0,0,1,10.34-2.43,28.64,28.64,0,0,1,11,1.79,16.27,16.27,0,0,1,6.75,5,19.17,19.17,0,0,1,3.47,7.76,48,48,0,0,1,1,10.13V252H227.16V218.15q0-7.41-2.41-11.06c-1.61-2.44-4.37-3.65-8.28-3.65q-6.81,0-9.87,4t-3,13.15V252H186.87Z"/><path class="cls-1" d="M280.6,192.09h12.21v11H280.6v29.65q0,4.17,1.41,5.56c.94.92,2.82,1.39,5.64,1.39a26.59,26.59,0,0,0,5.16-.47v12.86a41.13,41.13,0,0,1-4.7.46c-1.72.08-3.4.12-5.05.12a49.06,49.06,0,0,1-7.34-.52,16.63,16.63,0,0,1-6.1-2.09,11.09,11.09,0,0,1-4.17-4.34,15.11,15.11,0,0,1-1.53-7.3V203.09h-10.1v-11h10.1v-18H280.6Z"/><path class="cls-1" d="M305.38,210.5a18.89,18.89,0,0,1,2.93-9.61,20,20,0,0,1,6.58-6.14,29.12,29.12,0,0,1,8.93-3.3,51.94,51.94,0,0,1,10.1-1,69.79,69.79,0,0,1,9.28.63,29,29,0,0,1,8.57,2.49,16.66,16.66,0,0,1,6.34,5.21,14.29,14.29,0,0,1,2.47,8.69v31.16a62.18,62.18,0,0,0,.47,7.75A13.64,13.64,0,0,0,362.7,252H345.78a22.69,22.69,0,0,1-.76-2.83,22.19,22.19,0,0,1-.41-3,22.24,22.24,0,0,1-9.4,5.74,37.28,37.28,0,0,1-11,1.68,28.78,28.78,0,0,1-8.1-1.1,19.5,19.5,0,0,1-6.58-3.31,15.07,15.07,0,0,1-4.41-5.55,18.71,18.71,0,0,1-1.58-8,17.78,17.78,0,0,1,1.76-8.39A14.37,14.37,0,0,1,310,222a22.13,22.13,0,0,1,6.64-3,71.46,71.46,0,0,1,7.57-1.56q3.87-.57,7.4-.93a42.13,42.13,0,0,0,6.28-1,11.29,11.29,0,0,0,4.41-2,4.7,4.7,0,0,0,1.64-3.87,8.59,8.59,0,0,0-.88-4.23,6.46,6.46,0,0,0-2.35-2.43,9.25,9.25,0,0,0-3.4-1.16,28.74,28.74,0,0,0-4.17-.29,12.87,12.87,0,0,0-7.7,2.08q-2.88,2.08-3.34,6.95Zm38.52,12.16a7.44,7.44,0,0,1-2.64,1.45,26.5,26.5,0,0,1-3.41.87c-1.21.23-2.5.42-3.87.58s-2.68.35-3.94.58a27.06,27.06,0,0,0-3.75.92,11.14,11.14,0,0,0-3.12,1.57,7.2,7.2,0,0,0-2.17,2.55,7.94,7.94,0,0,0-.82,3.76,7.54,7.54,0,0,0,.82,3.76,6.36,6.36,0,0,0,2.23,2.32,9.69,9.69,0,0,0,3.29,1.22,21.38,21.38,0,0,0,3.88.34A14.93,14.93,0,0,0,338,241a10.87,10.87,0,0,0,4-3.88,12.37,12.37,0,0,0,1.59-4.57,32.21,32.21,0,0,0,.29-3.71Z"/><path class="cls-1" d="M376.91,169.27h16.67V252H376.91Z"/><path class="cls-1" d="M87.86,341.74A14.69,14.69,0,0,0,85.74,336a18.23,18.23,0,0,0-4.11-4.58,19.13,19.13,0,0,0-5.58-3.07,19.43,19.43,0,0,0-6.51-1.1A21.71,21.71,0,0,0,59,329.64a19.8,19.8,0,0,0-7,6.37A27.62,27.62,0,0,0,48,345.1a44.78,44.78,0,0,0-1.23,10.54A41.63,41.63,0,0,0,48,365.77a27.15,27.15,0,0,0,3.94,8.86,20,20,0,0,0,7,6.31,21.71,21.71,0,0,0,10.58,2.38q8.44,0,13.21-5.16a23.51,23.51,0,0,0,5.81-13.37h17.86a41.75,41.75,0,0,1-3.64,14,33.09,33.09,0,0,1-19,17.43,41,41,0,0,1-14.21,2.38,43,43,0,0,1-17.39-3.36,38,38,0,0,1-12.92-9.15,40.09,40.09,0,0,1-8.1-13.67,49.44,49.44,0,0,1-2.82-16.79,51.1,51.1,0,0,1,2.82-17.14,41.14,41.14,0,0,1,8.1-13.9,37.22,37.22,0,0,1,12.92-9.27A42.78,42.78,0,0,1,69.54,312a42.89,42.89,0,0,1,13.09,2,35.8,35.8,0,0,1,11,5.74,31.14,31.14,0,0,1,8,9.32,33.1,33.1,0,0,1,4,12.74Z"/><path class="cls-1" d="M120.51,353.73a28,28,0,0,1,6.34-10,28.38,28.38,0,0,1,9.87-6.37,35,35,0,0,1,12.92-2.26,35.54,35.54,0,0,1,13,2.26,28.31,28.31,0,0,1,9.92,6.37,28,28,0,0,1,6.35,10,36.46,36.46,0,0,1,2.23,13,36,36,0,0,1-2.23,13,28.13,28.13,0,0,1-6.35,9.9,28.45,28.45,0,0,1-9.92,6.37,35.75,35.75,0,0,1-13,2.26A35.2,35.2,0,0,1,136.72,396a28.52,28.52,0,0,1-9.87-6.37,28.11,28.11,0,0,1-6.34-9.9,35.8,35.8,0,0,1-2.23-13A36.24,36.24,0,0,1,120.51,353.73Zm15.15,20a18.37,18.37,0,0,0,2.41,6.14,12.62,12.62,0,0,0,4.52,4.34,13.88,13.88,0,0,0,7,1.63,14.22,14.22,0,0,0,7.11-1.63,12.64,12.64,0,0,0,4.58-4.34,18.57,18.57,0,0,0,2.4-6.14,34.49,34.49,0,0,0,.71-7,35.47,35.47,0,0,0-.71-7.07,18,18,0,0,0-2.4-6.14,13.44,13.44,0,0,0-4.58-4.34,13.91,13.91,0,0,0-7.11-1.68,13.58,13.58,0,0,0-7,1.68,13.43,13.43,0,0,0-4.52,4.34,17.8,17.8,0,0,0-2.41,6.14,35.47,35.47,0,0,0-.7,7.07A34.48,34.48,0,0,0,135.66,373.76Z"/><path class="cls-1" d="M251.82,396.64H236V388.3h-.36a19.61,19.61,0,0,1-8.22,7.53,23.56,23.56,0,0,1-10.33,2.43,28.64,28.64,0,0,1-11-1.8,16.22,16.22,0,0,1-6.75-5,19.1,19.1,0,0,1-3.46-7.76,47.26,47.26,0,0,1-1-10.13V336.76h16.68v33.82q0,7.41,2.4,11.06t8.28,3.65c4.55,0,7.83-1.34,9.87-4s3-7,3-13.14V336.76h16.68Z"/><path class="cls-1" d="M267.44,336.76H283.3v8.34h.35a19.66,19.66,0,0,1,8.22-7.53,23.64,23.64,0,0,1,10.34-2.43,28.83,28.83,0,0,1,11,1.79,16.36,16.36,0,0,1,6.76,5,19.3,19.3,0,0,1,3.46,7.76,48,48,0,0,1,1,10.14v36.83H307.73V362.82q0-7.41-2.41-11.06T297,348.11q-6.81,0-9.86,4t-3.06,13.14v31.39H267.44Z"/><path class="cls-1" d="M381.37,357.84q-1.65-10.3-12.33-10.31a11.86,11.86,0,0,0-6.7,1.8,14.23,14.23,0,0,0-4.4,4.63,19.65,19.65,0,0,0-2.41,6.31,33.81,33.81,0,0,0-.7,6.72,32.07,32.07,0,0,0,.7,6.6,20.38,20.38,0,0,0,2.29,6.08,13.16,13.16,0,0,0,4.29,4.46,11.89,11.89,0,0,0,6.58,1.74q5.87,0,9.16-3.31A15.34,15.34,0,0,0,382,373.7h16.09q-1.65,11.94-9.4,18.25t-19.85,6.31A33.6,33.6,0,0,1,356.24,396a27.52,27.52,0,0,1-9.63-6.37,29.21,29.21,0,0,1-6.23-9.73,33,33,0,0,1-2.23-12.33,39.41,39.41,0,0,1,2.05-12.92,29,29,0,0,1,6.05-10.3,27.58,27.58,0,0,1,9.75-6.78,33.57,33.57,0,0,1,13.16-2.43,38.43,38.43,0,0,1,10.39,1.39,26.88,26.88,0,0,1,8.87,4.23,23.43,23.43,0,0,1,6.4,7.12,22.14,22.14,0,0,1,2.88,10Z"/><path class="cls-1" d="M427.53,327.49H410.85V313.94h16.68Zm-16.68,9.27h16.68v59.88H410.85Z"/><path class="cls-1" d="M444.09,313.94h16.68v82.7H444.09Z"/></svg>