<svg width="24" height="24" viewBox="0 0 24 24" fill="none" xmlns="http://www.w3.org/2000/svg">
<g clip-path="url(#clip0_1415_5526)">
<g clip-path="url(#clip1_1415_5526)">
<path d="M19.5795 8.70447C19.427 7.88634 18.9812 7.14577 18.3197 6.61206L18.2763 6.7376C18.268 6.75599 18.2543 6.77169 18.237 6.78282C18.2197 6.79395 18.1994 6.80004 18.1786 6.80038H18.1568C18.1319 6.79549 18.1096 6.78234 18.0937 6.76322C18.0779 6.74411 18.0694 6.72023 18.07 6.69576C18.07 6.35051 17.8093 6.22496 17.5161 6.07849C16.8938 5.78757 16.2096 5.64068 15.5179 5.64955C15.0028 5.65233 14.4894 5.70845 13.9867 5.81694C13.5908 5.88956 13.2021 5.99456 12.8247 6.1308L12.4555 6.24589C13.1017 6.62463 13.8106 6.89358 14.5514 7.041C14.5772 7.04802 14.5998 7.06319 14.6155 7.08406C14.6313 7.10493 14.6393 7.1303 14.6383 7.15609C14.6336 7.18115 14.6203 7.20399 14.6007 7.22103C14.581 7.23806 14.5561 7.24834 14.5297 7.25025H14.2148C13.4437 7.21886 12.6835 6.98869 11.7496 6.5179C10.8157 6.04711 9.88173 5.74371 8.99123 5.67047L8.46996 5.64955C7.37313 5.64955 6.47177 5.95295 5.74417 6.55975C4.33241 7.7315 3.94146 9.64606 4.78851 11.3409C5.11431 12 5.55956 12.6278 5.99394 13.2241L6.17856 13.4856C7.09078 14.7516 7.50345 16.1535 7.43829 17.7646C7.40571 18.7062 7.36227 19.8047 7.38399 20.8823C7.40806 21.3371 7.49199 21.7871 7.63376 22.2215C7.66338 22.3018 7.70939 22.3755 7.76907 22.4384C7.82875 22.5013 7.90091 22.5521 7.98127 22.5876H8.06815C8.22019 22.5876 8.3505 22.4412 8.42652 22.2947C8.62352 21.9448 8.7836 21.5768 8.90435 21.1962C9.04553 20.7359 9.16498 20.2546 9.28444 19.7943C9.3496 19.5223 9.41476 19.2398 9.49078 18.9678C9.70797 18.1413 9.92517 17.4089 10.403 16.7393C10.8808 16.0698 11.3695 15.8815 11.9885 15.8815C12.1799 15.8837 12.37 15.9119 12.5532 15.9652C12.8065 16.0373 13.0411 16.1604 13.2414 16.3263C13.4417 16.4922 13.6032 16.6972 13.7152 16.9277C14.0301 17.6391 14.3016 18.361 14.5405 19.0933C14.6817 19.5432 14.812 20.014 14.9315 20.4638C15.051 20.9137 15.1378 21.2694 15.2573 21.667C15.3542 21.9443 15.5012 22.2028 15.6917 22.4307C15.7254 22.4803 15.7702 22.5221 15.8228 22.5528C15.8754 22.5836 15.9345 22.6026 15.9958 22.6086C16.1261 22.6086 16.2455 22.5144 16.3215 22.347C16.4303 22.0954 16.5069 21.8319 16.5496 21.5624C16.7451 20.4011 16.6691 19.2189 16.5822 18.068V18.0366C16.4627 16.279 16.8754 14.7725 17.8636 13.4333L18.1568 13.0462C18.4066 12.7114 18.6672 12.3767 18.8953 12.021C19.2299 11.5386 19.4626 10.9974 19.58 10.4283C19.6974 9.85925 19.6972 9.27347 19.5795 8.70447Z" fill="#878687"/>
<path d="M22.5228 6.02616C22.273 5.60767 22.0015 5.22058 21.7735 4.88579L21.4802 4.48823L21.4368 4.42546C21.5202 4.37097 21.5885 4.2977 21.6358 4.21201C21.6831 4.12632 21.708 4.0308 21.7083 3.93374C21.709 3.79778 21.6654 3.66504 21.5835 3.55428C21.5017 3.44352 21.3858 3.36033 21.2522 3.31648H21.2196L20.6658 3.18047C20.6767 3.14997 20.6839 3.11839 20.6875 3.08631C20.6983 3.04446 20.7201 2.98169 20.7309 2.92938L20.7961 2.63644L21.0567 2.59459L21.2413 2.54228C21.3357 2.51862 21.4231 2.47417 21.4965 2.41245C21.57 2.35072 21.6277 2.2734 21.6649 2.18657L21.7192 2.07149V2.0401C21.7495 1.95469 21.7613 1.86419 21.7538 1.77421C21.7463 1.68423 21.7198 1.59668 21.6757 1.517L21.6323 1.44377L21.5671 1.39146C21.507 1.33432 21.4358 1.28919 21.3575 1.25867C21.2792 1.22814 21.1955 1.21283 21.111 1.2136H21.0676L20.8069 1.23452H20.7744C20.7414 1.14024 20.7339 1.03943 20.7526 0.941587C20.7591 0.851475 20.7438 0.761147 20.708 0.677663C20.6722 0.594178 20.6169 0.519797 20.5463 0.460331C20.4898 0.40144 20.4208 0.355044 20.3439 0.324339C20.2671 0.293634 20.1842 0.279352 20.1011 0.282476H19.9382L19.873 0.3034C19.7597 0.327409 19.6549 0.379667 19.5691 0.454945C19.4834 0.530223 19.4196 0.625881 19.3843 0.732345C19.3626 0.836966 19.3409 0.941587 19.33 1.04621C19.3192 1.15083 19.3192 1.11944 19.3192 1.16129L19.1888 1.18221L18.8848 1.23452L18.863 1.10898L18.8305 0.962511C18.7964 0.823204 18.7147 0.698983 18.5985 0.609804C18.4823 0.520625 18.3383 0.471666 18.1897 0.470793H18.1572C18.0241 0.476259 17.8962 0.52151 17.7911 0.600258C17.686 0.679006 17.609 0.787339 17.5707 0.910201V0.941587C17.5382 1.06713 17.5164 1.18221 17.4839 1.30776C17.3966 1.22607 17.2932 1.16205 17.1798 1.11944L17.006 1.03575H16.9843C15.4279 0.357883 13.7403 0.00490635 12.0323 0L11.9563 0C11.3823 0.00224939 10.8092 0.0406925 10.2404 0.115083C7.48067 0.512923 4.94852 1.81764 3.073 3.8082C1.20017 5.79523 0.115621 8.35544 0.0105604 11.0375C-0.130616 15.0026 1.46576 18.2772 4.73454 20.7672L4.81056 20.8195C5.01209 21.0089 5.27867 21.1206 5.55988 21.1334H5.59246C5.73322 21.1222 5.87004 21.083 5.99427 21.0183C5.99427 21.0915 6.00513 21.1648 6.00513 21.238C6.02794 21.8537 6.17937 22.4586 6.45038 23.0166C6.57664 23.3076 6.78933 23.5562 7.06175 23.7312C7.33418 23.9061 7.65419 23.9997 7.9816 24H7.99246C8.42672 23.9902 8.8429 23.8306 9.16531 23.5501C9.41204 23.3445 9.62127 23.1005 9.78432 22.8282C9.95519 22.9461 10.1606 23.0084 10.3707 23.0061L11.9563 23.1421H12.0106L12.4775 23.1107L13.6395 23.0061C13.8462 22.998 14.046 22.9326 14.2151 22.8178C14.3366 23.0158 14.4785 23.2016 14.6386 23.3723C14.8057 23.5602 15.0119 23.7123 15.2439 23.8186C15.4759 23.9249 15.7284 23.9832 15.9852 23.9895H15.9961C16.6585 23.9895 17.2449 23.6129 17.5925 22.9747C17.7496 22.66 17.8593 22.3254 17.9183 21.9808C17.9726 21.667 18.016 21.3636 18.0377 21.0602C18.1459 21.0993 18.2592 21.124 18.3744 21.1334H18.4395C18.6551 21.119 18.862 21.0465 19.0368 20.9242L19.3083 20.7254C22.273 18.4551 23.8911 15.4316 23.9997 11.9791C23.9888 9.60419 23.5327 7.77332 22.5228 6.02616ZM18.8956 1.89364C18.8951 1.88797 18.8958 1.88226 18.8977 1.87686C18.8996 1.87147 18.9026 1.8665 18.9065 1.86225L18.9282 1.83086C18.9351 1.81258 18.9467 1.79627 18.9619 1.78346C18.977 1.77066 18.9954 1.76177 19.0151 1.75763L19.2866 1.70532C19.4712 1.67393 19.6558 1.64255 19.7427 1.54839C19.8296 1.45423 19.8513 1.28684 19.873 1.11944C19.8822 1.03152 19.8967 0.944185 19.9164 0.85789C19.9217 0.837667 19.9326 0.819198 19.9479 0.804457C19.9632 0.789716 19.9823 0.779255 20.0033 0.774194H20.1011C20.1228 0.774194 20.1554 0.774194 20.1662 0.795118C20.1913 0.816581 20.2069 0.846565 20.2097 0.878814C20.1879 1.20314 20.2531 1.4333 20.3834 1.56931C20.4462 1.62821 20.5213 1.6736 20.6037 1.70245C20.686 1.73131 20.7738 1.74298 20.8612 1.7367L21.1002 1.71578H21.1219C21.1378 1.71517 21.1537 1.71763 21.1686 1.72302C21.1835 1.72841 21.1972 1.73662 21.2087 1.74717C21.2186 1.76464 21.2246 1.78385 21.2265 1.80363C21.2283 1.82342 21.226 1.84336 21.2196 1.86225L21.1762 1.95641C21.1596 1.98558 21.1326 2.00791 21.1002 2.01918L20.9373 2.06103L20.5463 2.13426C20.3617 2.15519 20.2965 2.21796 20.2857 2.37489C20.2683 2.51638 20.2392 2.65632 20.1988 2.79337C20.1879 2.86661 20.1662 2.93984 20.1445 3.034C20.1377 3.05713 20.1236 3.07763 20.1041 3.09264C20.0847 3.10765 20.0608 3.11642 20.0359 3.1177C20.0105 3.11819 19.9857 3.11009 19.9659 3.09479C19.946 3.0795 19.9324 3.05799 19.9273 3.034C19.9056 2.93984 19.8947 2.85615 19.873 2.77245C19.8301 2.62476 19.7974 2.47447 19.7753 2.32258C19.7644 2.2075 19.7318 2.16565 19.6015 2.14473L19.1671 2.06103L18.9716 2.01918C18.9574 2.01695 18.9439 2.01172 18.932 2.00385C18.9201 1.99599 18.9102 1.98568 18.9029 1.97368C18.8956 1.96168 18.8912 1.94828 18.89 1.93444C18.8887 1.9206 18.8906 1.90667 18.8956 1.89364ZM5.88567 20.4534C5.80145 20.5433 5.68511 20.5993 5.55988 20.6103C5.39699 20.6103 5.26667 20.5057 5.14721 20.4115L5.08205 20.3592C1.94359 17.9738 0.42323 14.8457 0.553547 11.0584C0.64873 8.49941 1.68398 6.0561 3.47481 4.16391C5.26534 2.25852 7.68779 1.01213 10.3273 0.638187C10.8917 0.557868 11.4617 0.519394 12.0323 0.523104C13.6616 0.52326 15.2722 0.858544 16.7563 1.50654L16.9517 1.6007C17.0866 1.65433 17.1953 1.75529 17.2558 1.88317C17.2852 1.99264 17.2696 2.1088 17.2124 2.2075C17.1793 2.2692 17.1295 2.32119 17.0684 2.35801C17.0072 2.39482 16.9369 2.41511 16.8649 2.41674C16.7724 2.41042 16.6812 2.39284 16.5934 2.36443L16.0069 2.14473C15.4755 1.9357 14.9315 1.75753 14.378 1.61116C13.5914 1.43246 12.7861 1.34119 11.978 1.33915C6.86305 1.33915 2.37798 4.96949 1.5635 9.7925C1.48748 10.2005 1.4549 10.619 1.41147 10.9747C1.40423 11.1212 1.39337 11.2572 1.37889 11.3827C1.47662 14.9189 2.86667 17.6391 5.60332 19.7001C5.86395 19.8989 5.98341 20.0453 5.99427 20.1918C5.99627 20.2403 5.98763 20.2887 5.96892 20.3337C5.95021 20.3788 5.92184 20.4196 5.88567 20.4534ZM13.987 22.3261C13.8849 22.4219 13.7494 22.4779 13.6069 22.483L12.4341 22.5876L11.9888 22.619H11.978L10.3925 22.483C10.321 22.4852 10.25 22.4723 10.1843 22.4452C10.1187 22.4181 10.06 22.3774 10.0124 22.3261C9.9745 22.2833 9.94704 22.2329 9.932 22.1786C9.91697 22.1243 9.91475 22.0675 9.92549 22.0122C9.94721 21.8553 10.0341 21.6565 10.3599 21.6565H10.5011C10.9979 21.7195 11.4986 21.7509 11.9997 21.7507C12.5044 21.7506 13.0087 21.7191 13.5092 21.6565H13.6395C13.6909 21.6522 13.7426 21.6577 13.7918 21.6728C13.8409 21.6878 13.8865 21.7121 13.9259 21.7442C13.9652 21.7763 13.9976 21.8156 14.0212 21.8598C14.0447 21.904 14.0589 21.9522 14.063 22.0017C14.0767 22.115 14.0499 22.2294 13.987 22.3261ZM17.4187 17.9843C17.5273 19.2607 17.6359 20.5789 17.3861 21.8867C17.3301 22.183 17.2352 22.4713 17.1038 22.7446C16.8649 23.1944 16.4522 23.4664 15.9961 23.4664C15.8151 23.4629 15.637 23.4218 15.4739 23.346C15.3109 23.2702 15.1667 23.1614 15.0513 23.027C14.7678 22.7245 14.5533 22.3681 14.4214 21.9808C14.2368 21.4368 14.0848 20.8718 13.9436 20.3383C13.8567 20.0035 13.759 19.6582 13.6612 19.313C13.4983 18.748 13.3246 18.2563 13.1508 17.796C13.0526 17.5632 12.921 17.3449 12.7599 17.1473C12.6705 17.0296 12.5548 16.9328 12.4213 16.864C12.2879 16.7952 12.1401 16.7561 11.9888 16.7498C11.8445 16.7534 11.7034 16.7917 11.5782 16.8611C11.4531 16.9305 11.3479 17.0289 11.2721 17.1473C10.9684 17.5564 10.7406 18.013 10.5988 18.497C10.425 19.0096 10.2947 19.5432 10.1644 20.0453C10.0341 20.5475 9.97979 20.7568 9.88205 21.1125C9.76557 21.5469 9.6093 21.9705 9.41508 22.3784C9.26636 22.675 9.05991 22.9414 8.80694 23.163C8.5789 23.3582 8.28654 23.4694 7.9816 23.4769C7.75982 23.4776 7.54292 23.4142 7.35899 23.2948C7.17505 23.1754 7.03255 23.0056 6.94993 22.8073C6.70865 22.3079 6.5721 21.7675 6.54812 21.2171C6.51554 20.2232 6.54812 19.1979 6.59156 18.2145C6.59156 18.0052 6.60242 17.7855 6.61328 17.5763C6.65671 16.2371 6.34178 15.0968 5.65762 14.082L5.09291 13.3078C4.83228 12.952 4.56079 12.5754 4.32187 12.1988C3.35536 10.6713 3.19246 9.11247 3.84404 7.57454C4.49563 6.03662 6.23318 4.84394 8.20965 4.84394L8.6549 4.86487C9.84347 4.95163 10.9884 5.33371 11.978 5.97385H11.9888C12.0363 6.01045 12.0921 6.03557 12.1517 6.04708C12.1958 6.04073 12.2372 6.0226 12.2712 5.99477C13.368 5.22058 14.53 4.82302 15.7246 4.82302C16.4138 4.83164 17.0967 4.95188 17.7445 5.17873C17.7336 5.1578 17.7336 5.12642 17.7228 5.10549C17.6902 4.89625 17.6576 4.70793 17.6142 4.51962C17.574 4.47241 17.5215 4.43631 17.4621 4.415L16.0612 4.16391L15.4857 4.05929C15.3792 4.05059 15.2793 4.00616 15.2033 3.93374C15.1903 3.91978 15.1814 3.90271 15.1776 3.8843C15.1738 3.86589 15.1751 3.84683 15.1816 3.82912C15.1866 3.81161 15.1962 3.79564 15.2095 3.7828C15.2229 3.76996 15.2394 3.76069 15.2576 3.75589L15.8549 3.65126C16.3545 3.55711 16.8757 3.46295 17.397 3.38971C17.5707 3.35833 17.6142 3.31648 17.6468 3.15955C17.7575 2.45858 17.9062 1.76366 18.092 1.07759C18.0986 1.05725 18.1115 1.03933 18.129 1.02624C18.1464 1.01315 18.1677 1.00552 18.1897 1.00436C18.2152 1.00387 18.2399 1.01197 18.2598 1.02726C18.2796 1.04256 18.2933 1.06407 18.2983 1.08806L18.3309 1.22406L18.3961 1.53793C18.4178 1.66347 18.4395 1.79948 18.4721 1.92502C18.5481 2.32258 18.6241 2.74106 18.6893 3.14908C18.7219 3.31648 18.7653 3.35833 18.9282 3.38971C19.6992 3.5048 20.4051 3.6408 21.0893 3.8082C21.1122 3.8151 21.132 3.82911 21.1458 3.84804C21.1595 3.86696 21.1664 3.88974 21.1653 3.91282C21.164 3.93681 21.1549 3.9598 21.1393 3.97856C21.1237 3.99732 21.1024 4.01092 21.0784 4.01744L20.8287 4.05929L20.2531 4.17437L19.9599 4.22668L18.8848 4.40453C18.7544 4.42546 18.7219 4.45684 18.7002 4.58239C18.6784 4.70793 18.6567 4.87533 18.6241 5.01133C18.583 5.16551 18.5575 5.32319 18.5481 5.48213C18.5439 5.51378 18.5465 5.54594 18.5559 5.57655C18.5652 5.60717 18.5811 5.63558 18.6024 5.65998C20.9807 7.34438 20.9264 10.2738 19.6667 12.1779C19.33 12.68 18.9608 13.2136 18.5373 13.789C17.6576 15.0026 17.2884 16.3731 17.4187 17.9843ZM18.9716 20.3174L18.711 20.5057C18.6213 20.5663 18.5162 20.6024 18.4069 20.6103C18.3421 20.6067 18.279 20.5888 18.2225 20.5579C18.166 20.5271 18.1177 20.4842 18.0811 20.4324C17.9291 20.2337 17.9726 20.014 18.1897 19.8361L18.4287 19.6687L18.9934 19.2188C23.2069 15.578 23.8151 9.77158 20.4486 5.40889L20.416 5.36704C20.3933 5.33048 20.3679 5.29552 20.34 5.26242C20.2869 5.21242 20.2459 5.15189 20.2196 5.08504C20.1934 5.01818 20.1825 4.94662 20.1879 4.87533C20.1991 4.82209 20.2212 4.77153 20.2529 4.72662C20.2846 4.6817 20.3253 4.64334 20.3726 4.61378C20.4445 4.55265 20.5373 4.51913 20.6332 4.51962C20.7852 4.51962 20.9155 4.60331 21.035 4.77071L21.3282 5.17873C21.578 5.53444 21.8278 5.90061 22.0558 6.27725C23.0115 7.94072 23.4459 9.69834 23.4567 11.9686C23.359 15.2537 21.8169 18.1412 18.9716 20.3174Z" fill="#878687"/>
</g>
</g>
<defs>
<clipPath id="clip0_1415_5526">
<rect width="24" height="24" fill="white" transform="matrix(-1 0 0 1 24 0)"/>
</clipPath>
<clipPath id="clip1_1415_5526">
<rect width="24" height="24" fill="white"/>
</clipPath>
</defs>
</svg>
