<svg width="14" height="14" viewBox="0 0 14 14" fill="none" xmlns="http://www.w3.org/2000/svg">
<path d="M11.4211 5.07767C11.3322 4.60043 11.0721 4.16843 10.6863 3.8571L10.6609 3.93033C10.6561 3.94106 10.6481 3.95021 10.638 3.95671C10.6279 3.9632 10.6161 3.96675 10.6039 3.96695H10.5912C10.5767 3.96409 10.5637 3.95642 10.5544 3.94527C10.5452 3.93412 10.5403 3.9202 10.5406 3.90592C10.5406 3.70452 10.3885 3.63129 10.2175 3.54585C9.85448 3.37614 9.45534 3.29046 9.05188 3.29563C8.75137 3.29725 8.45191 3.32999 8.15867 3.39328C7.92773 3.43564 7.70097 3.49689 7.48084 3.57636L7.26545 3.6435C7.64241 3.86443 8.05597 4.02132 8.48808 4.10731C8.50312 4.11141 8.51629 4.12025 8.52548 4.13243C8.53467 4.1446 8.53935 4.1594 8.53876 4.17445C8.536 4.18906 8.52828 4.20239 8.51682 4.21233C8.50535 4.22227 8.49079 4.22826 8.47541 4.22937H8.2917C7.84192 4.21106 7.39849 4.0768 6.85369 3.80217C6.30889 3.52754 5.7641 3.35056 5.24464 3.30784L4.94057 3.29563C4.30075 3.29563 3.77496 3.47261 3.35052 3.82658C2.52699 4.5101 2.29894 5.62693 2.79306 6.6156C2.9831 7.00008 3.24283 7.36625 3.49622 7.71411L3.60392 7.86669C4.13604 8.60513 4.37677 9.42292 4.33876 10.3628C4.31975 10.912 4.29441 11.5528 4.30708 12.1814C4.32112 12.4467 4.37008 12.7092 4.45278 12.9626C4.47006 13.0094 4.4969 13.0525 4.53171 13.0891C4.56653 13.1258 4.60862 13.1554 4.6555 13.1762H4.70618C4.79487 13.1762 4.87088 13.0907 4.91523 13.0053C5.03014 12.8012 5.12352 12.5865 5.19396 12.3645C5.27631 12.096 5.346 11.8152 5.41568 11.5467C5.45369 11.388 5.4917 11.2233 5.53604 11.0646C5.66274 10.5825 5.78944 10.1553 6.06817 9.76468C6.3469 9.3741 6.63197 9.26424 6.99306 9.26424C7.10469 9.26556 7.21558 9.282 7.32247 9.31307C7.47024 9.35516 7.60706 9.42697 7.7239 9.52375C7.84074 9.62053 7.93495 9.74009 8.0003 9.87453C8.18401 10.2895 8.34238 10.7106 8.48174 11.1378C8.5641 11.4003 8.64011 11.6749 8.7098 11.9373C8.77948 12.1997 8.83016 12.4072 8.89984 12.6391C8.95636 12.8009 9.04215 12.9517 9.15324 13.0846C9.1729 13.1136 9.19903 13.1379 9.22972 13.1559C9.26042 13.1738 9.29489 13.1849 9.33061 13.1884C9.40663 13.1884 9.47631 13.1335 9.52066 13.0358C9.58412 12.889 9.62879 12.7353 9.65369 12.5781C9.76772 11.9007 9.72337 11.2111 9.67269 10.5397V10.5214C9.60301 9.49615 9.84373 8.61734 10.4202 7.83617L10.5912 7.61036C10.7369 7.41507 10.889 7.21978 11.022 7.01228C11.2172 6.7309 11.3529 6.4152 11.4214 6.08324C11.4899 5.75129 11.4898 5.40959 11.4211 5.07767Z" fill="#878687"/>
<path d="M13.1381 3.51526C12.9924 3.27114 12.8341 3.04534 12.701 2.85004L12.53 2.61813L12.5046 2.58152C12.5533 2.54973 12.5931 2.50699 12.6207 2.45701C12.6483 2.40702 12.6628 2.3513 12.663 2.29468C12.6634 2.21537 12.638 2.13794 12.5902 2.07333C12.5425 2.00872 12.4749 1.96019 12.3969 1.93461H12.3779L12.0549 1.85527C12.0612 1.83748 12.0655 1.81906 12.0675 1.80035C12.0739 1.77594 12.0865 1.73932 12.0929 1.70881L12.1309 1.53793L12.2829 1.51351L12.3906 1.483C12.4457 1.46919 12.4966 1.44327 12.5395 1.40726C12.5824 1.37125 12.616 1.32615 12.6377 1.2755L12.6693 1.20837V1.19006C12.687 1.14024 12.6939 1.08744 12.6896 1.03495C12.6852 0.982465 12.6697 0.931397 12.644 0.884917L12.6187 0.842197L12.5807 0.811683C12.5456 0.778352 12.504 0.752027 12.4584 0.734222C12.4127 0.716417 12.3639 0.707483 12.3146 0.707934H12.2893L12.1372 0.72014H12.1182C12.099 0.665139 12.0946 0.606332 12.1055 0.549259C12.1093 0.496693 12.1004 0.444003 12.0795 0.395303C12.0586 0.346604 12.0264 0.303215 11.9852 0.268527C11.9522 0.234174 11.912 0.207109 11.8671 0.189198C11.8223 0.171287 11.774 0.162955 11.7255 0.164778H11.6304L11.5924 0.176983C11.5263 0.190989 11.4652 0.221473 11.4152 0.265385C11.3651 0.309297 11.328 0.365097 11.3074 0.427201C11.2947 0.48823 11.282 0.549259 11.2757 0.610288C11.2693 0.671317 11.2693 0.653008 11.2693 0.677419L11.1933 0.689625L11.016 0.72014L11.0033 0.646905L10.9843 0.561465C10.9644 0.480202 10.9167 0.40774 10.8489 0.355719C10.7812 0.303698 10.6972 0.275139 10.6105 0.274629H10.5915C10.5139 0.277818 10.4393 0.304214 10.378 0.35015C10.3167 0.396087 10.2717 0.459281 10.2494 0.53095V0.549259C10.2304 0.622493 10.2178 0.689625 10.1988 0.76286C10.1478 0.71521 10.0875 0.67786 10.0214 0.653008L9.92002 0.604185H9.90735C8.99947 0.208765 8.01502 0.00286204 7.01867 0L6.97432 0C6.63952 0.00131214 6.30517 0.0237373 5.97342 0.0671316C4.36356 0.299205 2.88648 1.06029 1.79242 2.22145C0.699935 3.38055 0.0672827 4.87401 0.0059975 6.43854C-0.0763554 8.75153 0.854866 10.6617 2.76165 12.1142L2.806 12.1447C2.92356 12.2552 3.07906 12.3203 3.2431 12.3278H3.26211C3.34421 12.3213 3.42403 12.2984 3.4965 12.2607C3.4965 12.3034 3.50283 12.3461 3.50283 12.3888C3.51614 12.748 3.60447 13.1008 3.76256 13.4263C3.83621 13.5961 3.96028 13.7411 4.11919 13.8432C4.27811 13.9452 4.46478 13.9998 4.65577 14H4.66211C4.91542 13.9943 5.1582 13.9012 5.34627 13.7376C5.49019 13.6176 5.61225 13.4753 5.70735 13.3165C5.80703 13.3852 5.92686 13.4216 6.04944 13.4202L6.97432 13.4996H7.006L7.2784 13.4813L7.95622 13.4202C8.07678 13.4155 8.19335 13.3773 8.29197 13.3104C8.36286 13.4259 8.44563 13.5343 8.53903 13.6338C8.63651 13.7435 8.7568 13.8322 8.89212 13.8942C9.02743 13.9562 9.17475 13.9902 9.32455 13.9939H9.33088C9.71731 13.9939 10.0594 13.7742 10.2621 13.4019C10.3537 13.2183 10.4177 13.0231 10.4522 12.8221C10.4838 12.6391 10.5092 12.4621 10.5218 12.2851C10.585 12.3079 10.651 12.3223 10.7182 12.3278H10.7562C10.882 12.3194 11.0027 12.2771 11.1046 12.2058L11.263 12.0898C12.9924 10.7655 13.9363 9.00174 13.9997 6.98779C13.9933 5.60244 13.7273 4.53444 13.1381 3.51526ZM11.0223 1.10462C11.022 1.10131 11.0224 1.09799 11.0235 1.09484C11.0246 1.09169 11.0263 1.08879 11.0286 1.08631L11.0413 1.068C11.0453 1.05734 11.0521 1.04782 11.0609 1.04035C11.0698 1.03288 11.0805 1.0277 11.092 1.02528L11.2503 0.994769C11.358 0.97646 11.4657 0.958152 11.5164 0.903226C11.5671 0.8483 11.5798 0.750654 11.5924 0.653008C11.5978 0.601719 11.6062 0.550775 11.6178 0.500436C11.6208 0.488639 11.6272 0.477866 11.6361 0.469266C11.645 0.460667 11.6562 0.454566 11.6684 0.451613H11.7255C11.7381 0.451613 11.7571 0.451613 11.7635 0.463819C11.7781 0.476339 11.7872 0.49383 11.7888 0.512642C11.7761 0.701831 11.8141 0.836094 11.8902 0.915432C11.9268 0.949791 11.9706 0.976264 12.0186 0.993097C12.0667 1.00993 12.1179 1.01674 12.1689 1.01308L12.3083 1.00087H12.3209C12.3302 1.00051 12.3395 1.00195 12.3482 1.00509C12.3569 1.00824 12.3649 1.01303 12.3716 1.01918C12.3773 1.02937 12.3808 1.04058 12.3819 1.05212C12.383 1.06366 12.3817 1.07529 12.3779 1.08631L12.3526 1.14124C12.343 1.15825 12.3272 1.17128 12.3083 1.17786L12.2132 1.20227L11.9852 1.24499C11.8775 1.25719 11.8395 1.29381 11.8331 1.38535C11.823 1.46789 11.806 1.54952 11.7825 1.62947C11.7761 1.67219 11.7635 1.71491 11.7508 1.76983C11.7468 1.78332 11.7386 1.79529 11.7273 1.80404C11.7159 1.8128 11.702 1.81791 11.6874 1.81866C11.6726 1.81895 11.6582 1.81422 11.6466 1.8053C11.635 1.79638 11.6271 1.78383 11.6241 1.76983C11.6114 1.71491 11.6051 1.66609 11.5924 1.61726C11.5674 1.53111 11.5483 1.44344 11.5354 1.35484C11.5291 1.28771 11.5101 1.2633 11.4341 1.25109L11.1807 1.20227L11.0666 1.17786C11.0583 1.17656 11.0504 1.1735 11.0435 1.16891C11.0366 1.16433 11.0308 1.15832 11.0265 1.15132C11.0223 1.14432 11.0197 1.1365 11.019 1.12843C11.0182 1.12035 11.0194 1.11222 11.0223 1.10462ZM3.43315 11.9311C3.38402 11.9836 3.31615 12.0163 3.2431 12.0227C3.14808 12.0227 3.07206 11.9616 3.00238 11.9067L2.96437 11.8762C1.1336 10.4847 0.246721 8.65998 0.32274 6.45074C0.378263 4.95799 0.982161 3.53272 2.02681 2.42895C3.07128 1.31747 4.48438 0.590407 6.0241 0.372276C6.35335 0.325423 6.68585 0.30298 7.01867 0.305144C7.96913 0.305235 8.90862 0.500817 9.77432 0.878814L9.88835 0.93374C9.96702 0.965024 10.0304 1.02392 10.0657 1.09852C10.0829 1.16237 10.0738 1.23013 10.0404 1.28771C10.0211 1.3237 9.99206 1.35403 9.9564 1.3755C9.92073 1.39698 9.87972 1.40881 9.83767 1.40976C9.78376 1.40608 9.73054 1.39583 9.6793 1.37925L9.33722 1.25109C9.02721 1.12916 8.7099 1.02523 8.38699 0.939843C7.92815 0.8356 7.45842 0.782361 6.98699 0.781168C4.00328 0.781168 1.38699 2.89887 0.91188 5.71229C0.867536 5.9503 0.848531 6.19442 0.823192 6.40192C0.818969 6.48736 0.812634 6.5667 0.804188 6.63993C0.861201 8.7027 1.67206 10.2895 3.26844 11.4917C3.42048 11.6077 3.49016 11.6931 3.4965 11.7786C3.49766 11.8068 3.49262 11.8351 3.48171 11.8613C3.47079 11.8876 3.45425 11.9114 3.43315 11.9311ZM8.15894 13.0235C8.09936 13.0795 8.02034 13.1121 7.93722 13.1151L7.25306 13.1761L6.99333 13.1944H6.98699L6.06211 13.1151C6.02045 13.1164 5.97901 13.1088 5.9407 13.093C5.90239 13.0772 5.86815 13.0535 5.84039 13.0235C5.81829 12.9986 5.80228 12.9692 5.79351 12.9375C5.78474 12.9058 5.78344 12.8727 5.78971 12.8405C5.80238 12.7489 5.85306 12.633 6.0431 12.633H6.12545C6.41529 12.6697 6.70733 12.688 6.99966 12.6879C7.2941 12.6878 7.58822 12.6695 7.88021 12.633H7.95622C7.98619 12.6304 8.01638 12.6337 8.04505 12.6425C8.07372 12.6512 8.1003 12.6654 8.12326 12.6841C8.14623 12.7028 8.16512 12.7257 8.17885 12.7515C8.19259 12.7773 8.20089 12.8055 8.20328 12.8344C8.21123 12.9004 8.19559 12.9672 8.15894 13.0235ZM10.1607 10.4908C10.2241 11.2354 10.2874 12.0044 10.1417 12.7672C10.1091 12.9401 10.0537 13.1082 9.97704 13.2677C9.83767 13.5301 9.59695 13.6888 9.33088 13.6888C9.2253 13.6867 9.12141 13.6627 9.0263 13.6185C8.9312 13.5743 8.8471 13.5108 8.77975 13.4324C8.6144 13.2559 8.48924 13.0481 8.41233 12.8221C8.30464 12.5048 8.21595 12.1752 8.1336 11.864C8.08292 11.6687 8.02591 11.4673 7.96889 11.2659C7.87387 10.9364 7.77251 10.6495 7.67115 10.381C7.61386 10.2452 7.5371 10.1179 7.4431 10.0026C7.39096 9.93396 7.32347 9.87747 7.24562 9.83733C7.16777 9.79719 7.08154 9.77442 6.99333 9.77071C6.90912 9.77284 6.8268 9.79516 6.7538 9.83566C6.68079 9.87615 6.61942 9.93353 6.57523 10.0026C6.39808 10.2412 6.26519 10.5076 6.18247 10.7899C6.08111 11.0889 6.00509 11.4002 5.92907 11.6931C5.85306 11.9861 5.82138 12.1081 5.76437 12.3156C5.69642 12.569 5.60526 12.8162 5.49197 13.0541C5.40522 13.2271 5.28479 13.3825 5.13722 13.5118C5.0042 13.6256 4.83365 13.6905 4.65577 13.6949C4.5264 13.6953 4.39988 13.6583 4.29258 13.5886C4.18528 13.519 4.10216 13.4199 4.05396 13.3043C3.91322 13.0129 3.83356 12.6977 3.81957 12.3766C3.80057 11.7969 3.81957 11.1988 3.84491 10.6251C3.84491 10.5031 3.85125 10.3749 3.85758 10.2528C3.88292 9.47167 3.69921 8.80645 3.30011 8.21447L2.9707 7.76286C2.81867 7.55536 2.6603 7.33566 2.52093 7.11595C1.95713 6.22493 1.86211 5.31561 2.2422 4.41848C2.62229 3.52136 3.63586 2.82563 4.7888 2.82563L5.04853 2.83784C5.74186 2.88845 6.40973 3.11133 6.98699 3.48474H6.99333C7.021 3.5061 7.05359 3.52075 7.08835 3.52746C7.11408 3.52376 7.13822 3.51319 7.15803 3.49695C7.79785 3.04534 8.47568 2.81343 9.17251 2.81343C9.57457 2.81845 9.97289 2.8886 10.3508 3.02092C10.3445 3.00872 10.3445 2.99041 10.3381 2.9782C10.3191 2.85615 10.3001 2.74629 10.2748 2.63644C10.2513 2.6089 10.2207 2.58784 10.1861 2.57541L9.36889 2.42895L9.03315 2.36792C8.97104 2.36285 8.91274 2.33693 8.86844 2.29468C8.86084 2.28654 8.85565 2.27658 8.85342 2.26584C8.85119 2.2551 8.85201 2.24398 8.85577 2.23365C8.85868 2.22344 8.8643 2.21413 8.87207 2.20664C8.87985 2.19915 8.88951 2.19373 8.90012 2.19093L9.24853 2.1299C9.53993 2.07498 9.84401 2.02005 10.1481 1.97733C10.2494 1.95902 10.2748 1.93461 10.2938 1.84307C10.3584 1.43417 10.4451 1.0288 10.5535 0.628596C10.5574 0.616728 10.5649 0.606276 10.5751 0.598641C10.5853 0.591007 10.5976 0.586553 10.6105 0.585876C10.6253 0.585588 10.6398 0.590316 10.6514 0.599237C10.6629 0.608158 10.6709 0.620707 10.6739 0.634699L10.6929 0.714037L10.7309 0.897123C10.7436 0.970357 10.7562 1.04969 10.7752 1.12293C10.8196 1.35484 10.8639 1.59895 10.9019 1.83697C10.9209 1.93461 10.9463 1.95902 11.0413 1.97733C11.4911 2.04446 11.9028 2.1238 12.3019 2.22145C12.3153 2.22548 12.3269 2.23365 12.3349 2.24469C12.3429 2.25573 12.3469 2.26901 12.3463 2.28248C12.3455 2.29647 12.3402 2.30988 12.3311 2.32083C12.322 2.33177 12.3096 2.3397 12.2956 2.3435L12.1499 2.36792L11.8141 2.43505L11.6431 2.46556L11.016 2.56931C10.9399 2.58152 10.9209 2.59983 10.9083 2.67306C10.8956 2.74629 10.8829 2.84394 10.8639 2.92328C10.8399 3.01321 10.825 3.10519 10.8196 3.19791C10.8171 3.21637 10.8186 3.23513 10.8241 3.25299C10.8295 3.27085 10.8388 3.28742 10.8512 3.30166C12.2386 4.28422 12.2069 5.99303 11.4721 7.10375C11.2757 7.39669 11.0603 7.70793 10.8132 8.04359C10.3001 8.75153 10.0847 9.551 10.1607 10.4908ZM11.0666 11.8518L10.9146 11.9616C10.8623 11.997 10.801 12.0181 10.7372 12.0227C10.6994 12.0206 10.6626 12.0101 10.6296 11.9921C10.5967 11.9741 10.5685 11.9491 10.5472 11.9189C10.4585 11.803 10.4838 11.6748 10.6105 11.5711L10.7499 11.4734L11.0793 11.211C13.5372 9.08718 13.892 5.70009 11.9282 3.15519L11.9092 3.13078C11.8959 3.10945 11.8811 3.08905 11.8648 3.06975C11.8339 3.04058 11.8099 3.00527 11.7946 2.96627C11.7793 2.92727 11.773 2.88553 11.7761 2.84394C11.7826 2.81288 11.7955 2.78339 11.814 2.75719C11.8325 2.73099 11.8562 2.70861 11.8838 2.69137C11.9258 2.65571 11.9799 2.63616 12.0359 2.63644C12.1245 2.63644 12.2006 2.68527 12.2703 2.78291L12.4413 3.02092C12.587 3.22842 12.7327 3.44202 12.8657 3.66173C13.4232 4.63208 13.6766 5.65737 13.6829 6.98169C13.6259 8.89799 12.7264 10.5824 11.0666 11.8518Z" fill="#878687"/>
</svg>
