<svg width="24" height="24" viewBox="0 0 24 24" fill="none" xmlns="http://www.w3.org/2000/svg">
<path d="M7.80439 24.0005C7.57235 23.9998 7.34575 23.9329 7.15331 23.8083C6.96087 23.6837 6.81124 23.5069 6.72338 23.3005C6.47279 22.7775 6.32982 22.2129 6.30235 21.6378C6.26822 20.5986 6.30235 19.5266 6.34787 18.4983C6.34787 18.2795 6.35925 18.0498 6.37063 17.831C6.41614 16.4309 6.08615 15.2385 5.36927 14.1775L4.77756 13.368C4.50446 12.9961 4.21999 12.6023 3.96965 12.2085C2.95691 10.6114 2.78623 8.98153 3.46897 7.37352C4.15171 5.76551 5.97236 4.51848 8.04335 4.51848L8.50989 4.54036C9.75561 4.62959 10.9557 5.02922 11.9919 5.69987H12.0033C12.0551 5.73471 12.1129 5.76062 12.1739 5.77645C12.2197 5.76833 12.2627 5.74955 12.2991 5.72175C13.4484 4.91228 14.666 4.4966 15.9177 4.4966C16.6398 4.50603 17.3552 4.63174 18.0342 4.86852C18.0281 4.84261 18.0205 4.81704 18.0114 4.79195C17.9773 4.57318 17.9431 4.37628 17.8976 4.17938C17.8555 4.13001 17.8005 4.09227 17.7383 4.06999L16.2704 3.80746L15.6673 3.69807C15.556 3.68809 15.4516 3.64177 15.3715 3.5668C15.3588 3.55169 15.3501 3.53385 15.3461 3.5148C15.3421 3.49575 15.343 3.47606 15.3487 3.45741C15.3555 3.43994 15.3662 3.42407 15.3799 3.41086C15.3937 3.39766 15.4102 3.38742 15.4284 3.38084L16.0542 3.27145C16.5776 3.173 17.1238 3.07455 17.67 2.99798C17.8521 2.96517 17.8976 2.92141 17.9317 2.75733C18.0486 2.02455 18.2043 1.29799 18.3983 0.5805C18.4052 0.559226 18.4187 0.540494 18.437 0.526809C18.4553 0.513124 18.4775 0.505141 18.5007 0.503929C18.5273 0.503412 18.5533 0.511887 18.5741 0.527876C18.5949 0.543866 18.6092 0.566359 18.6145 0.591439L18.6486 0.733644L18.7169 1.06181C18.7397 1.19308 18.7624 1.33528 18.7966 1.46655C18.8762 1.88222 18.9559 2.31978 19.0241 2.74639C19.0583 2.92141 19.1038 2.96517 19.2745 2.99798C20.0824 3.11831 20.822 3.26051 21.5389 3.43554C21.5629 3.44276 21.5837 3.4574 21.5981 3.47719C21.6125 3.49698 21.6197 3.5208 21.6186 3.54492C21.6191 3.57052 21.6103 3.59548 21.5936 3.61546C21.577 3.63545 21.5536 3.6492 21.5275 3.65431L21.2658 3.69807L20.6627 3.8184L20.3555 3.87309L19.229 4.05905C19.0924 4.08093 19.0583 4.11374 19.0355 4.24501C19.0128 4.37628 18.99 4.5513 18.9559 4.6935C18.9182 4.85575 18.8916 5.02018 18.8762 5.18575C18.8724 5.21882 18.8755 5.25229 18.8853 5.28421C18.895 5.31613 18.9113 5.34587 18.9331 5.37171C21.4251 7.13286 21.3682 10.1957 20.0482 12.1866C19.6955 12.7117 19.3086 13.2696 18.8648 13.8712C17.9431 15.1401 17.5562 16.5731 17.6928 18.2577C17.8066 19.5922 17.9204 20.9705 17.6586 22.3378C17.6066 22.6492 17.5069 22.9515 17.3628 23.2348C17.1125 23.7052 16.68 23.9896 16.2021 23.9896C16.0126 23.9852 15.8262 23.9419 15.6555 23.8627C15.4848 23.7835 15.3336 23.6701 15.2122 23.5302C14.9159 23.2133 14.6912 22.8408 14.5522 22.4363C14.3587 21.8675 14.1994 21.2768 14.0515 20.7189C13.9605 20.3689 13.858 20.0079 13.7556 19.6469C13.5849 19.0562 13.4029 18.5421 13.2208 18.0608C13.1216 17.8157 12.9834 17.5869 12.8112 17.3826C12.7187 17.2583 12.5977 17.1562 12.4576 17.0841C12.3175 17.012 12.1621 16.9719 12.0033 16.9669C11.852 16.9707 11.7041 17.0107 11.573 17.0833C11.4419 17.1559 11.3316 17.2587 11.2522 17.3826C10.9409 17.8141 10.7028 18.2904 10.5467 18.7937C10.3647 19.3297 10.2281 19.8875 10.0916 20.4126C9.95503 20.9377 9.89813 21.1565 9.79572 21.5284C9.6739 21.9827 9.51015 22.4256 9.30642 22.852C9.15366 23.1639 8.93691 23.443 8.6692 23.6724C8.43132 23.8781 8.12431 23.9946 7.80439 24.0005ZM12.0033 16.059C12.2038 16.0613 12.403 16.0908 12.595 16.1465C12.861 16.2206 13.1074 16.3488 13.3175 16.5225C13.5276 16.6961 13.6964 16.9111 13.8125 17.1528C14.1436 17.8919 14.4323 18.6478 14.6773 19.4172C14.8253 19.8875 14.9618 20.3798 15.087 20.8502C15.2122 21.3205 15.3032 21.6925 15.4284 22.1081C15.5299 22.398 15.684 22.6684 15.8835 22.9067C15.9194 22.958 15.9665 23.0012 16.0215 23.0334C16.0765 23.0655 16.1382 23.0857 16.2021 23.0926C16.3387 23.0926 16.4638 22.9942 16.5435 22.8192C16.6604 22.557 16.7407 22.2811 16.7825 21.9987C16.9873 20.7845 16.9076 19.5484 16.8166 18.3452V18.3124C16.6914 16.4746 17.1238 14.8994 18.1593 13.4993L18.4666 13.0945C18.7283 12.7445 19.0014 12.3944 19.2403 12.0225C19.5916 11.5184 19.8357 10.9526 19.9587 10.3575C20.0817 9.7624 20.0812 9.14981 19.9572 8.55491C19.7966 7.69982 19.3296 6.92578 18.6372 6.36714L18.5917 6.49841C18.5844 6.51854 18.5704 6.53583 18.5519 6.54767C18.5335 6.5595 18.5115 6.56525 18.4893 6.56404H18.4666C18.4405 6.55893 18.4171 6.54518 18.4004 6.52519C18.3838 6.50521 18.375 6.48025 18.3755 6.45466C18.3755 6.09367 18.1024 5.96241 17.7952 5.80926C17.1433 5.50469 16.4262 5.3511 15.7014 5.36077C15.1618 5.3661 14.6242 5.42475 14.097 5.53579C13.6832 5.61601 13.2763 5.7257 12.8794 5.86396L12.4926 5.98428C13.1697 6.38028 13.9125 6.66149 14.6887 6.81564C14.7157 6.82298 14.7394 6.83883 14.7559 6.86065C14.7724 6.88248 14.7808 6.909 14.7797 6.93596C14.7748 6.96217 14.7609 6.98604 14.7403 7.00386C14.7197 7.02168 14.6936 7.03242 14.666 7.03441H14.336C13.5281 7.0016 12.7315 6.76094 11.7529 6.2687C10.7743 5.77645 9.79572 5.45922 8.86264 5.38265L8.31645 5.36077C7.16716 5.36077 6.2227 5.678 5.4603 6.31245C3.98103 7.5376 3.57138 9.53941 4.45895 11.3115C4.80032 12.0006 5.26686 12.657 5.72202 13.2805L5.91547 13.554C6.87131 14.8776 7.30371 16.3434 7.23544 18.0279C7.2013 19.0124 7.15578 20.161 7.17854 21.2877C7.20701 21.7628 7.29488 22.233 7.44026 22.6879C7.47129 22.7718 7.5195 22.849 7.58204 22.9147C7.64457 22.9805 7.72018 23.0335 7.80439 23.0707H7.89542C8.05473 23.0707 8.19128 22.9176 8.27093 22.7645C8.47812 22.399 8.64589 22.0141 8.77161 21.6159C8.91954 21.1346 9.04471 20.6314 9.16988 20.1501C9.23815 19.8657 9.30642 19.5703 9.38608 19.2859C9.61366 18.4217 9.84124 17.656 10.3419 16.9559C10.8426 16.2559 11.3547 16.059 12.0033 16.059Z" fill="#100E10"/>
<path d="M18.1561 5.04234C18.0992 4.72511 18.0651 4.4407 17.9854 4.16723C17.9651 4.11937 17.9326 4.07722 17.8908 4.04471C17.849 4.01219 17.7994 3.99037 17.7464 3.98127C17.0523 3.83906 16.3582 3.72968 15.6641 3.60935C15.5802 3.59102 15.5021 3.55349 15.4365 3.49996C16.1875 3.3687 16.9272 3.22649 17.6668 3.1171C17.883 3.07335 17.9854 3.00771 18.0195 2.78894C18.1447 2.06697 18.2926 1.34501 18.4861 0.623047L18.5885 1.08248C18.6909 1.6513 18.8047 2.20918 18.8957 2.778C18.9299 2.98584 19.0095 3.07335 19.2485 3.1171C19.9881 3.22649 20.7391 3.3687 21.4902 3.55466L20.6253 3.71874C20.1474 3.80625 19.6695 3.89376 19.1916 3.95939C19.116 3.96474 19.0452 3.99674 18.9927 4.04923C18.9402 4.10173 18.9097 4.17102 18.9071 4.2438C18.8616 4.56103 18.7819 4.86731 18.7478 5.18454C18.744 5.23614 18.7511 5.28794 18.7687 5.33683C18.7863 5.38571 18.814 5.43065 18.8502 5.46895C21.2626 7.16447 21.2284 10.1727 19.9426 12.1307C19.5557 12.7105 19.1688 13.2683 18.7592 13.8262C17.7806 15.1608 17.4392 16.6484 17.5644 18.2783C17.6782 19.6238 17.792 20.9802 17.5302 22.3257C17.4771 22.6284 17.3814 22.9228 17.2458 23.2008C16.8361 23.9884 15.8917 24.1306 15.2886 23.4743C15.0016 23.1671 14.7846 22.8057 14.6513 22.4132C14.3441 21.4943 14.1165 20.5536 13.8434 19.6347C13.696 19.0933 13.5175 18.5601 13.3086 18.0377C13.2121 17.7767 13.0654 17.5355 12.8762 17.3266C12.3755 16.725 11.6018 16.7031 11.1466 17.3266C10.8319 17.7712 10.5865 18.2577 10.4183 18.7706C10.1225 19.6676 9.92903 20.5974 9.66732 21.5053C9.54911 21.9557 9.38916 22.395 9.1894 22.8179C9.04213 23.1117 8.83737 23.3754 8.58631 23.5946C7.98322 24.0978 7.12979 23.9556 6.81117 23.2555C6.56855 22.7459 6.42951 22.1964 6.40153 21.6366C6.35601 20.3676 6.42429 19.0987 6.4698 17.8298C6.51532 16.5609 6.21946 15.2483 5.44569 14.1216C4.99053 13.4543 4.47847 12.8308 4.05744 12.1526C3.1016 10.654 2.86264 9.05689 3.56815 7.41606C4.36468 5.53458 6.32188 4.47352 8.4839 4.64854C9.70789 4.74048 10.887 5.13213 11.909 5.78618C12.0455 5.87369 12.1593 5.95026 12.3414 5.81899C14.1165 4.57197 16.0396 4.27662 18.1561 5.04234ZM14.6513 6.92382H14.3213C13.411 6.891 12.5917 6.57377 11.7952 6.16904C10.9987 5.7643 9.90628 5.35956 8.8594 5.27205C7.56219 5.18454 6.37877 5.39238 5.36603 6.22373C3.87538 7.45982 3.42022 9.52726 4.34192 11.365C4.74019 12.1526 5.28638 12.8855 5.80982 13.6184C6.76566 14.942 7.1753 16.4078 7.10703 18.0158C7.06151 19.1097 7.02738 20.1926 7.05013 21.2865C7.07931 21.7732 7.17104 22.2545 7.32323 22.7195C7.35939 22.8188 7.41644 22.9099 7.49084 22.987C7.56524 23.0642 7.65538 23.1258 7.75564 23.168C8.02873 23.2555 8.24494 23.0477 8.35873 22.8289C8.56222 22.4528 8.73347 22.0613 8.87078 21.6584C9.09836 20.8927 9.26905 20.1051 9.48525 19.3175C9.70145 18.5299 9.92904 17.7204 10.4183 17.0313C10.9076 16.3422 11.7383 16.0031 12.5462 16.2437C12.7963 16.3136 13.0275 16.435 13.224 16.5993C13.4205 16.7636 13.5775 16.967 13.6841 17.1954C14.0215 17.9295 14.314 18.6819 14.5603 19.4488C14.8448 20.3348 15.0382 21.2428 15.3113 22.1397C15.4118 22.4423 15.57 22.7242 15.7779 22.9711C16.0623 23.3211 16.4379 23.2664 16.6313 22.8617C16.7542 22.5894 16.8384 22.3024 16.8816 22.0085C17.0978 20.7833 17.0068 19.5363 16.9158 18.3111C16.7906 16.5719 17.1889 14.9857 18.2471 13.5637C18.6112 13.0714 18.9868 12.5901 19.3281 12.0869C20.0445 11.0388 20.3059 9.76282 20.0564 8.53183C19.881 7.59964 19.3544 6.76231 18.5771 6.17998C18.5316 6.28936 18.5088 6.37687 18.4747 6.45345C18.4747 6.02683 18.1561 5.87369 17.8375 5.70961C16.6199 5.12985 15.3341 5.18454 14.0596 5.4252C13.4565 5.53458 12.8762 5.75336 12.2048 5.95026C12.95 6.41868 13.7798 6.74889 14.6513 6.92382Z" fill="#100E10"/>
<path d="M5.25383 21.0028C5.08314 21.0028 4.94659 20.8934 4.82142 20.7949L4.75315 20.7402C1.46461 18.2462 -0.128461 14.9755 0.00808721 11.0156C0.113678 8.34121 1.19765 5.78842 3.06905 3.80692C4.94401 1.81325 7.48289 0.509758 10.2492 0.120537C10.8407 0.0369393 11.4379 -0.0032856 12.0357 0.000209588C13.7425 0.00501644 15.4291 0.355371 16.9856 1.02846L17.1905 1.12691C17.2617 1.15262 17.3268 1.19209 17.3816 1.24289C17.4363 1.29368 17.4797 1.35473 17.5091 1.42226C17.5262 1.47874 17.531 1.53803 17.5232 1.59638C17.5154 1.65474 17.4951 1.71091 17.4636 1.76136C17.4309 1.82746 17.3793 1.88319 17.3148 1.92196C17.2503 1.96074 17.1755 1.98092 17.0994 1.98014C17.0024 1.97469 16.9067 1.95628 16.8149 1.92544L16.2005 1.69573C15.6436 1.47718 15.0736 1.29089 14.4936 1.13785C13.6695 0.950333 12.8257 0.854899 11.9788 0.853438C6.61932 0.853438 1.91977 4.64921 1.06634 9.69201C0.986686 10.1186 0.952549 10.5562 0.907032 10.9281C0.899446 11.0812 0.888067 11.2235 0.872895 11.3547C0.975306 15.052 2.43183 17.8961 5.29935 20.0511C5.57244 20.2589 5.69761 20.4121 5.70899 20.5652C5.71264 20.6161 5.7043 20.6671 5.68459 20.7144C5.66489 20.7618 5.63434 20.8043 5.5952 20.8387C5.55264 20.8866 5.50049 20.9259 5.44184 20.954C5.3832 20.9822 5.31926 20.9988 5.25383 21.0028Z" fill="#100E10"/>
<path d="M0.762453 11.3431C0.864865 15.0732 2.33276 17.9501 5.23442 20.1379C5.59855 20.4113 5.68958 20.5864 5.50752 20.7614C5.32545 20.9364 5.0296 20.8051 4.82477 20.652C1.59312 18.2017 -0.011322 14.9857 0.125227 11.0258C0.307291 5.58922 4.65409 1.00585 10.264 0.229193C12.5349 -0.0981778 14.8559 0.217307 16.9435 1.13712L17.1483 1.22463C17.3645 1.32308 17.501 1.47622 17.3645 1.70594C17.2279 1.93565 17.0686 1.8919 16.8524 1.81532C16.0787 1.54185 15.3163 1.22463 14.5311 1.03867C8.32952 -0.405259 1.98001 3.64211 0.955898 9.66941C0.853486 10.282 0.80797 10.9055 0.762453 11.3431Z" fill="#100E10"/>
<path d="M18.7091 21.0036C18.641 21.0007 18.5746 20.9823 18.5152 20.95C18.4559 20.9177 18.4054 20.8723 18.3678 20.8177C18.2084 20.6098 18.254 20.3801 18.4815 20.1941L18.7319 20.0191L19.3236 19.5487C23.7387 15.742 24.3759 9.67098 20.8484 5.10949L20.8142 5.06573C20.7904 5.0275 20.7638 4.99095 20.7346 4.95635C20.6808 4.90285 20.6389 4.83936 20.6115 4.76977C20.5841 4.70017 20.5718 4.62594 20.5753 4.55161C20.5863 4.49573 20.6092 4.44262 20.6425 4.39558C20.6758 4.34854 20.7187 4.30857 20.7687 4.27814C20.8461 4.21741 20.942 4.18282 21.0418 4.17969C21.2011 4.17969 21.3377 4.2672 21.4629 4.44222L21.7701 4.86883C22.0318 5.24075 22.2935 5.62361 22.5325 6.01741C23.5338 7.75669 23.989 9.59441 24.0004 11.9681C23.898 15.4029 22.2821 18.422 19.3008 20.6973L19.0277 20.8942C18.9346 20.9592 18.824 20.9971 18.7091 21.0036Z" fill="#100E10"/>
<path d="M23.8862 11.968C23.7952 15.2606 22.259 18.2906 19.2208 20.6096L18.9591 20.8065C18.777 20.9269 18.595 20.9269 18.4584 20.7518C18.3219 20.5768 18.3788 20.4127 18.5608 20.2815C18.7429 20.1502 19.1298 19.8549 19.4029 19.6251C23.8293 15.8184 24.4779 9.61611 20.9391 5.04368L20.8253 4.89053C20.666 4.70457 20.6204 4.50768 20.8366 4.36547C21.0529 4.22327 21.2349 4.31078 21.3601 4.49674C21.7242 5.0218 22.1111 5.52499 22.4297 6.07193C23.4083 7.76745 23.8749 9.60517 23.8862 11.968Z" fill="#100E10"/>
<path d="M11.9765 23.1036L10.3152 22.9613C10.2404 22.9629 10.1662 22.9491 10.0975 22.9208C10.0288 22.8925 9.96723 22.8504 9.91688 22.7973C9.87853 22.7518 9.8506 22.6991 9.83491 22.6425C9.81923 22.586 9.81614 22.5269 9.82585 22.4691C9.84861 22.305 9.93964 22.0972 10.281 22.0972H10.4289C10.9496 22.1626 11.4741 22.1955 11.9993 22.1956C12.5281 22.1955 13.0565 22.1626 13.5809 22.0972H13.7175C13.7713 22.0927 13.8255 22.0985 13.877 22.1142C13.9285 22.13 13.9763 22.1553 14.0175 22.1889C14.0588 22.2224 14.0927 22.2635 14.1174 22.3097C14.1421 22.3559 14.157 22.4064 14.1613 22.4582C14.1775 22.5767 14.1492 22.6969 14.0816 22.7973C13.9766 22.9003 13.8334 22.9593 13.6834 22.9613L12.4544 23.0707L11.9879 23.1036H11.9765Z" fill="#100E10"/>
<path d="M11.9764 22.9933L10.3264 22.8511C10.0875 22.8401 9.91678 22.7417 9.93953 22.4792C9.96229 22.2166 10.1785 22.1947 10.4061 22.2166C11.463 22.3588 12.5353 22.3588 13.5922 22.2166C13.8198 22.1838 14.0132 22.2276 14.0474 22.4682C14.0815 22.7089 13.9222 22.8292 13.6719 22.8511L11.9764 22.9933Z" fill="#100E10"/>
<path d="M20.4195 2.71202C20.3934 2.71068 20.3684 2.70152 20.348 2.68582C20.3276 2.67013 20.3128 2.64869 20.3058 2.62451C20.283 2.52606 20.2716 2.43855 20.2489 2.35104C20.2061 2.1961 20.1719 2.03908 20.1464 1.88067C20.1351 1.76034 20.1009 1.71658 19.9644 1.69471L19.5092 1.6072L19.3044 1.56344C19.287 1.55918 19.271 1.55104 19.2575 1.53968C19.244 1.52832 19.2335 1.51407 19.2269 1.49808C19.2202 1.48208 19.2176 1.46481 19.2192 1.44765C19.2208 1.4305 19.2266 1.41395 19.2361 1.39936L19.2589 1.36654C19.2776 1.33051 19.3103 1.303 19.3499 1.28997L19.6344 1.23528C19.8278 1.20246 20.0213 1.16964 20.1123 1.07119C20.2033 0.972743 20.2261 0.797722 20.2489 0.622701C20.2585 0.53077 20.2737 0.439457 20.2944 0.34923C20.2999 0.328085 20.3113 0.308774 20.3273 0.293361C20.3433 0.277948 20.3634 0.267011 20.3854 0.261719H20.4878C20.5106 0.261719 20.5447 0.261719 20.5561 0.283597C20.571 0.293104 20.583 0.306182 20.591 0.321532C20.5989 0.336883 20.6026 0.353972 20.6016 0.371107C20.5789 0.710211 20.6471 0.950866 20.7837 1.09307C20.8495 1.15466 20.9281 1.20211 21.0145 1.23228C21.1008 1.26245 21.1928 1.27466 21.2844 1.26809L21.5347 1.24621H21.5574C21.5741 1.24557 21.5908 1.24814 21.6064 1.25378C21.622 1.25942 21.6363 1.268 21.6485 1.27903C21.6588 1.2973 21.6651 1.31738 21.667 1.33807C21.669 1.35876 21.6665 1.37961 21.6599 1.39936L21.6143 1.49781C21.6068 1.51364 21.5958 1.5277 21.582 1.53903C21.5683 1.55036 21.5521 1.55869 21.5347 1.56344L21.364 1.6072L20.9544 1.68377C20.7609 1.70564 20.6926 1.77128 20.6813 1.93536C20.6652 2.08363 20.6347 2.23012 20.5902 2.37291C20.5788 2.44949 20.5561 2.52606 20.5333 2.62451C20.5262 2.64869 20.5115 2.67013 20.4911 2.68582C20.4706 2.70152 20.4456 2.71068 20.4195 2.71202Z" fill="#100E10"/>
<path d="M20.4849 0.371094C20.4507 1.07118 20.7352 1.47592 21.5545 1.35559L21.509 1.45404C21.3181 1.50458 21.1243 1.54475 20.9287 1.57437C20.7125 1.59624 20.5873 1.68375 20.5645 1.92441C20.5336 2.15383 20.4842 2.38058 20.4166 2.60262C20.3483 2.29633 20.2914 2.08849 20.2573 1.86971C20.2232 1.65094 20.1435 1.61812 19.9728 1.58531L19.3242 1.46498C19.3584 1.42122 19.3697 1.39934 19.3811 1.39934C19.6542 1.32277 20.0183 1.32277 20.189 1.14775C20.3597 0.97273 20.337 0.644565 20.4052 0.371094H20.4849Z" fill="#100E10"/>
</svg>
