<svg width="76" height="77" viewBox="0 0 76 77" fill="none" xmlns="http://www.w3.org/2000/svg">
<g filter="url(#filter0_d_324_9906)">
<rect x="6" y="6.5" width="60" height="60" rx="30" fill="white"/>
<path d="M51.0306 23.1826C49.9974 22.9202 48.9313 22.6906 47.7668 22.5102C47.5208 22.4774 47.4552 22.3954 47.406 22.1493C47.3076 21.4933 47.1928 20.8537 47.078 20.214C47.0288 20.0172 46.996 19.8204 46.9632 19.6072L46.8648 19.1152L46.8156 18.902C46.8054 18.8657 46.7841 18.8336 46.7546 18.81C46.7252 18.7865 46.6892 18.7728 46.6516 18.7708C46.614 18.7728 46.5779 18.7865 46.5485 18.81C46.5191 18.8336 46.4978 18.8657 46.4876 18.902C46.2105 19.9773 45.9915 21.0668 45.8315 22.1657C45.7823 22.3954 45.7167 22.4774 45.4543 22.5102L43.1254 22.9366L42.2233 23.1006C42.1741 23.1006 42.1249 23.1498 42.0921 23.2154C42.0885 23.2447 42.0911 23.2743 42.0995 23.3026C42.108 23.3308 42.1222 23.357 42.1413 23.3794C42.2636 23.4815 42.4107 23.5494 42.5677 23.5762L43.437 23.7402L45.5527 24.1339C45.6 24.1444 45.6448 24.1643 45.6842 24.1925C45.7237 24.2207 45.757 24.2565 45.7823 24.2979C45.8479 24.5767 45.8971 24.8883 45.9463 25.1999C45.9598 25.2366 45.9654 25.2757 45.9627 25.3147C44.989 24.965 43.9632 24.782 42.9286 24.7735C41.1245 24.7735 39.3696 25.3803 37.6967 26.6104C37.6512 26.6506 37.5933 26.6737 37.5327 26.676C37.4422 26.6592 37.3576 26.6197 37.2867 26.5612H37.2703C35.775 25.5565 34.047 24.9523 32.2516 24.8063H31.5791C28.5942 24.8063 26.0684 26.43 24.986 29.0705C23.9035 31.7111 24.2479 33.9088 25.7076 36.3033C26.0684 36.9102 26.4785 37.4842 26.8721 38.0418C27.2657 38.5995 27.4461 38.8455 27.7249 39.2719C28.7582 40.8464 29.2338 42.6341 29.1682 44.7334L29.119 45.7502C29.0698 47.2919 29.0206 48.8828 29.0698 50.4573C29.109 51.3144 29.3151 52.1557 29.6766 52.9338C29.7988 53.2478 30.0129 53.5175 30.2909 53.7077C30.5689 53.8979 30.8979 53.9997 31.2347 53.9999C31.6955 53.9896 32.1375 53.8151 32.4812 53.5079C32.8666 53.1699 33.1791 52.757 33.3996 52.2942C33.6904 51.6482 33.9263 50.9789 34.1049 50.2933C34.2525 49.7357 34.4001 49.178 34.5313 48.6368C34.7281 47.8332 34.9249 46.9967 35.1873 46.2095C35.4122 45.4498 35.7554 44.7303 36.2042 44.0774C36.3208 43.8937 36.4801 43.741 36.6687 43.6325C36.8572 43.5239 37.0693 43.4627 37.2867 43.4541C37.5127 43.4642 37.7336 43.5255 37.9325 43.6335C38.1314 43.7414 38.3031 43.8932 38.4347 44.0774C38.6844 44.3857 38.8887 44.7281 39.0416 45.0942C39.304 45.8159 39.55 46.6031 39.8124 47.4887C39.96 48.0136 40.1076 48.5548 40.2388 49.0796C40.452 49.9325 40.6816 50.8017 40.9605 51.6546C41.1566 52.2679 41.4808 52.8326 41.9117 53.3111C42.0876 53.5187 42.306 53.6861 42.5522 53.8021C42.7983 53.9181 43.0665 53.98 43.3386 53.9835C44.0274 53.9835 44.6507 53.5735 45.0115 52.8682C45.2215 52.4386 45.3653 51.9796 45.4379 51.507C45.8151 49.4733 45.6511 47.3903 45.4871 45.3894C45.2903 42.8801 45.8479 40.7316 47.1764 38.8291C47.816 37.9106 48.3737 37.0742 48.8821 36.2869C50.7846 33.302 50.8666 28.7097 47.2748 26.0692C47.2098 25.9909 47.1749 25.892 47.1764 25.7903C47.2092 25.5443 47.2584 25.2983 47.3076 25.0687C47.3568 24.8391 47.3896 24.6095 47.4224 24.3963C47.4552 24.1831 47.5044 24.1503 47.7012 24.1174L49.3249 23.8222L49.7677 23.7402L50.637 23.5762L51.0142 23.4942C51.0505 23.4902 51.0839 23.4728 51.1081 23.4456C51.1324 23.4183 51.1456 23.3831 51.1454 23.3466C51.1471 23.3104 51.1367 23.2747 51.1159 23.2451C51.0952 23.2154 51.0652 23.1934 51.0306 23.1826ZM49.7349 23.5762L47.6684 23.9534C47.406 23.9862 47.3076 24.101 47.2584 24.3635C47.2092 24.6259 47.078 25.2983 47.0288 25.7739C47.0176 25.8516 47.0252 25.9309 47.0508 26.0051C47.0765 26.0793 47.1196 26.1462 47.1764 26.2004C50.637 28.7589 50.6042 33.2692 48.7345 36.2049C48.1933 37.0578 47.6192 37.8942 47.0452 38.7307C45.6347 40.748 45.1427 42.9785 45.3231 45.4058C45.4871 47.4395 45.6511 49.4733 45.2739 51.4906C45.1972 51.9392 45.0592 52.3752 44.8639 52.7862C44.2734 53.9671 42.9122 54.1803 42.0429 53.1963C41.6265 52.735 41.3084 52.1937 41.1081 51.6054C40.6816 50.2441 40.3536 48.8336 39.96 47.4395C39.7304 46.6359 39.4844 45.8323 39.1892 45.045C39.0362 44.6603 38.8261 44.3009 38.5659 43.979C37.8443 43.0769 36.729 43.0441 36.073 43.9954C35.6131 44.6583 35.259 45.3886 35.0233 46.1603C34.5969 47.5051 34.3181 48.8828 33.9409 50.2441C33.7705 50.9194 33.54 51.5781 33.252 52.2122C33.0446 52.6602 32.7489 53.0619 32.3828 53.3931C31.5135 54.1475 30.2835 53.9179 29.8242 52.8682C29.4766 52.1092 29.2762 51.2911 29.2338 50.4573C29.1682 48.5548 29.2666 46.6523 29.3322 44.7498C29.3978 42.8473 28.9714 40.8628 27.8561 39.1735C27.2001 38.1894 26.4621 37.2382 25.8552 36.2213C24.4775 33.9744 24.1331 31.5799 25.15 29.1197C26.298 26.2988 29.119 24.7243 32.2352 24.9703C33.9994 25.1082 35.6989 25.6954 37.1718 26.676C37.3687 26.8072 37.5327 26.9384 37.7951 26.7416C40.3536 24.8719 43.1254 24.4127 46.1759 25.5607C46.0939 25.0851 46.0447 24.6587 45.9299 24.2487C45.8954 24.1805 45.8469 24.1204 45.7876 24.0724C45.7282 24.0243 45.6593 23.9894 45.5855 23.9698L42.5841 23.4122C42.4643 23.3908 42.3516 23.3401 42.2561 23.2646L45.4707 22.6742C45.7823 22.625 45.9299 22.5102 45.9791 22.1821C46.1595 21.0997 46.3728 20.0336 46.6516 18.9348L46.7992 19.64C46.9468 20.4764 47.1108 21.3129 47.242 22.1657C47.2912 22.4774 47.406 22.625 47.734 22.6742C48.8269 22.8376 49.9108 23.0565 50.9814 23.3302L49.7349 23.5762Z" fill="#161616"/>
<path d="M48.7346 36.205C48.1933 37.0578 47.6193 37.8943 47.0453 38.7307C45.6348 40.748 45.1428 42.9786 45.3232 45.4059C45.4872 47.4396 45.6512 49.4733 45.274 51.4906C45.1973 51.9393 45.0593 52.3752 44.864 52.7863C44.2735 53.9672 42.9122 54.1804 42.043 53.1963C41.6266 52.735 41.3085 52.1937 41.1081 51.6054C40.6817 50.2442 40.3537 48.8337 39.9601 47.4396C39.7305 46.636 39.4845 45.8323 39.1892 45.0451C39.0363 44.6604 38.8262 44.301 38.566 43.979C37.8444 43.077 36.7291 43.0442 36.0731 43.9954C35.6132 44.6583 35.2591 45.3887 35.0234 46.1603C34.597 47.5052 34.3182 48.8829 33.9409 50.2442C33.7706 50.9194 33.54 51.5781 33.2521 52.2123C33.0447 52.6603 32.749 53.0619 32.3829 53.3931C31.5136 54.1476 30.2835 53.918 29.8243 52.8683C29.4766 52.1093 29.2763 51.2911 29.2339 50.4574C29.1683 48.5549 29.2667 46.6524 29.3323 44.7498C29.3979 42.8473 28.9715 40.8628 27.8562 39.1735C27.2002 38.1895 26.4621 37.2382 25.8553 36.2214C24.4776 33.9745 24.1332 31.5799 25.1501 29.1198C26.2981 26.2988 29.1191 24.7243 32.2352 24.9703C33.9994 25.1082 35.6989 25.6954 37.1719 26.676C37.3687 26.8073 37.5327 26.9385 37.7952 26.7416C40.3537 24.8719 43.1255 24.4127 46.176 25.5608C46.094 25.0852 46.0448 24.6587 45.93 24.2487C45.8955 24.1806 45.847 24.1205 45.7876 24.0724C45.7283 24.0244 45.6594 23.9894 45.5856 23.9699L42.5842 23.4123C42.4644 23.3909 42.3517 23.3402 42.2562 23.2647L45.4708 22.6742C45.7824 22.625 45.93 22.5102 45.9792 22.1822C46.1596 21.0997 46.3728 20.0337 46.6517 18.9348L46.7993 19.6401C46.9469 20.4765 47.1109 21.3129 47.2421 22.1658C47.2913 22.4774 47.4061 22.625 47.7341 22.6742C48.827 22.8376 49.9109 23.0566 50.9815 23.3303L49.735 23.5763L47.6685 23.9535C47.4061 23.9863 47.3077 24.1011 47.2585 24.3635C47.2093 24.6259 47.0781 25.2984 47.0289 25.774C47.0177 25.8517 47.0252 25.9309 47.0509 26.0051C47.0766 26.0793 47.1196 26.1463 47.1765 26.2004C50.6371 28.759 50.6043 33.2692 48.7346 36.205Z" fill="#161616"/>
<path d="M27.5774 49.4897C27.3386 49.4654 27.1169 49.3545 26.9541 49.1781L26.8557 49.1125C22.1159 45.3567 19.8197 40.4528 20.0165 34.5321C20.1579 30.5151 21.7214 26.6788 24.4284 23.7075C27.1325 20.7205 30.791 18.7666 34.7774 18.1804C35.6307 18.0632 36.4909 18.003 37.3523 18C39.8143 18.0049 42.2468 18.5361 44.4867 19.5581L44.7819 19.7057C44.8842 19.7451 44.9775 19.8046 45.0564 19.8806C45.1352 19.9567 45.1981 20.0478 45.2411 20.1485C45.2655 20.2305 45.2723 20.3168 45.2609 20.4015C45.2496 20.4863 45.2205 20.5678 45.1755 20.6405C45.1327 20.744 45.0598 20.8322 44.9662 20.8936C44.8726 20.9551 44.7627 20.9869 44.6507 20.985C44.5091 20.9781 44.37 20.9448 44.2407 20.8866L43.3386 20.5421C42.5449 20.2101 41.7282 19.9361 40.8949 19.7221C39.7092 19.4277 38.492 19.279 37.2703 19.2793C29.5455 19.2793 22.7719 24.9868 21.5418 32.5312C21.427 33.1872 21.3778 33.8269 21.3122 34.4009C21.3011 34.6096 21.2792 34.8177 21.2466 35.0241C21.4106 40.5677 23.5099 44.8319 27.643 48.0793C28.0366 48.3745 28.217 48.6041 28.2334 48.8501C28.2375 48.9263 28.2249 49.0024 28.1966 49.0732C28.1683 49.144 28.1249 49.2078 28.0694 49.2601C27.9396 49.3951 27.7642 49.4769 27.5774 49.4897Z" fill="#161616"/>
<path d="M21.0826 35.0242C21.2466 40.6005 23.3459 44.9303 27.5445 48.2105C28.0694 48.6041 28.2006 48.883 27.9382 49.1454C27.6757 49.4078 27.2493 49.211 26.9541 48.9814C22.2963 45.2912 19.9837 40.4693 20.1805 34.5322C20.4429 26.3809 26.7081 19.5089 34.7937 18.3445C38.0616 17.854 41.4016 18.3271 44.4047 19.7057L44.7163 19.8533C45.0279 20.0009 45.2083 20.2142 45.0279 20.5586C44.8475 20.903 44.6015 20.8374 44.2899 20.739C43.1746 20.329 42.0757 19.8369 40.9277 19.5581C32.0056 17.3932 22.8539 23.4779 21.3778 32.5148C21.2302 33.4333 21.1646 34.3681 21.0826 35.0242Z" fill="#161616"/>
<path d="M46.9796 49.4897C46.8829 49.4872 46.7881 49.4622 46.7026 49.4166C46.6172 49.3711 46.5436 49.3063 46.4876 49.2273C46.258 48.8993 46.3236 48.5549 46.6516 48.2925L47.0124 48.0137L47.8653 47.3084C54.2288 41.6173 55.1473 32.5148 50.063 25.6592L50.0138 25.5936C49.9717 25.5417 49.9333 25.4869 49.899 25.4296C49.8219 25.3525 49.7617 25.2601 49.7222 25.1585C49.6827 25.0569 49.6647 24.9481 49.6694 24.8392C49.6822 24.7521 49.7137 24.6689 49.7619 24.5953C49.81 24.5217 49.8736 24.4594 49.9482 24.4128C50.0569 24.3169 50.197 24.2644 50.3418 24.2651C50.555 24.2651 50.7683 24.4128 50.9487 24.6588C51.1291 24.9048 51.2275 25.1016 51.3751 25.3148C51.7754 25.8607 52.1424 26.4303 52.474 27.0205C53.9336 29.6282 54.5897 32.3836 54.6061 35.959C54.4585 41.1089 52.1131 45.6191 47.8161 49.0469L47.4389 49.3257C47.307 49.4276 47.1462 49.4851 46.9796 49.4897Z" fill="#161616"/>
<path d="M54.442 35.9591C54.3108 40.8958 52.0967 45.4388 47.7177 48.9158L47.3404 49.1946C47.078 49.375 46.8156 49.3914 46.6188 49.129C46.422 48.8666 46.504 48.6206 46.75 48.4238C46.996 48.227 47.5865 47.7841 47.9801 47.4233C54.3436 41.7158 55.2949 32.4329 50.1942 25.5609L50.0138 25.3313C49.8006 25.0689 49.735 24.7737 50.0466 24.544C50.3582 24.3144 50.6206 24.4784 50.801 24.7573C51.3259 25.5281 51.8835 26.2825 52.3427 27.1026C53.7532 29.6447 54.4256 32.4001 54.442 35.9591Z" fill="#161616"/>
<path d="M37.2539 52.6552L34.8758 52.442C34.7675 52.4383 34.661 52.4132 34.5625 52.3682C34.464 52.3231 34.3753 52.259 34.3017 52.1795C34.2459 52.115 34.2051 52.0388 34.1824 51.9565C34.1597 51.8743 34.1557 51.788 34.1705 51.7039C34.2033 51.4415 34.3345 51.1463 34.8266 51.1463H35.0398C35.7902 51.2444 36.5462 51.2937 37.3031 51.2939C38.066 51.2964 38.8281 51.2416 39.5828 51.1299H39.7632C40.1404 51.1299 40.3701 51.3103 40.4193 51.6547C40.4457 51.8326 40.4047 52.0139 40.3045 52.1631C40.2309 52.2426 40.1422 52.3067 40.0437 52.3518C39.9452 52.3968 39.8387 52.4219 39.7304 52.4256L37.9427 52.5732L37.2867 52.6388H37.2539V52.6552Z" fill="#161616"/>
<path d="M37.2703 52.4911L34.8922 52.2779C34.5478 52.245 34.2854 52.0974 34.3346 51.7202C34.3838 51.343 34.679 51.2774 35.007 51.3266C36.5316 51.5262 38.0761 51.5207 39.5993 51.3102C39.9273 51.2774 40.1897 51.3266 40.2553 51.7038C40.3209 52.081 40.0585 52.245 39.7141 52.2779L37.2703 52.4911Z" fill="#161616"/>
<path d="M49.4398 22.0673C49.4014 22.0681 49.364 22.0554 49.334 22.0314C49.304 22.0074 49.2834 21.9737 49.2758 21.9361C49.243 21.7885 49.2102 21.6573 49.1938 21.5425C49.132 21.3047 49.0828 21.0638 49.0461 20.8208C49.0297 20.6404 48.9641 20.5748 48.7673 20.542L48.1277 20.4272L47.8325 20.3616C47.8048 20.3556 47.7788 20.3437 47.7561 20.3267C47.7335 20.3098 47.7148 20.2881 47.7013 20.2632C47.6944 20.2351 47.6937 20.2059 47.6994 20.1776C47.705 20.1492 47.7169 20.1225 47.7341 20.0992L47.7669 20.05C47.8032 20.004 47.8476 19.9651 47.8981 19.9352L48.3081 19.8532C48.5869 19.804 48.8657 19.7548 48.9969 19.6236C49.1281 19.4924 49.1609 19.2136 49.1938 18.9347C49.2076 18.8023 49.2295 18.6709 49.2594 18.5411C49.2758 18.4591 49.325 18.4099 49.3906 18.4099H49.5382C49.5761 18.413 49.6113 18.4306 49.6366 18.4591C49.6549 18.4727 49.6702 18.4898 49.6815 18.5096C49.6928 18.5294 49.6998 18.5513 49.7022 18.5739C49.6694 19.0988 49.7678 19.4596 49.9646 19.6728C50.0625 19.7597 50.1767 19.8263 50.3006 19.8685C50.4245 19.9108 50.5556 19.9279 50.6862 19.9188L51.0471 19.886H51.0799C51.1055 19.8845 51.1312 19.8898 51.1542 19.9013C51.1772 19.9129 51.1968 19.9302 51.2111 19.9516C51.2255 19.9761 51.2344 20.0035 51.2373 20.0318C51.2401 20.0601 51.2367 20.0887 51.2275 20.1156L51.1619 20.2796C51.151 20.3033 51.1351 20.3244 51.1153 20.3414C51.0954 20.3584 51.0722 20.3709 51.0471 20.378L50.801 20.4272C50.6076 20.4812 50.4102 20.5196 50.2106 20.542C49.9318 20.5748 49.8334 20.6732 49.817 20.9193C49.7955 21.1418 49.7515 21.3616 49.6858 21.5753C49.653 21.6901 49.6366 21.8213 49.6038 21.9525C49.5961 21.9901 49.5755 22.0238 49.5455 22.0478C49.5156 22.0718 49.4781 22.0845 49.4398 22.0837V22.0673Z" fill="#161616"/>
<path d="M49.5381 18.5576C49.4889 19.6073 49.8989 20.2141 51.0798 20.0337L51.0142 20.1977C50.7354 20.2469 50.4566 20.3289 50.1778 20.3617C49.8989 20.3945 49.6693 20.5421 49.6529 20.8865C49.6003 21.2291 49.5292 21.5686 49.4397 21.9034C49.3448 21.5412 49.2681 21.1745 49.2101 20.8045C49.2101 20.6958 49.1669 20.5915 49.09 20.5146C49.0131 20.4377 48.9088 20.3945 48.8001 20.3945C48.4885 20.3453 48.1933 20.2633 47.8652 20.1977C47.9144 20.1321 47.9144 20.0993 47.9472 20.0993C48.3409 19.9845 48.8657 19.9845 49.1117 19.7385C49.3577 19.4925 49.3249 18.9676 49.4069 18.574L49.5381 18.5576Z" fill="#161616"/>
</g>
<defs>
<filter id="filter0_d_324_9906" x="0" y="0.5" width="76" height="76" filterUnits="userSpaceOnUse" color-interpolation-filters="sRGB">
<feFlood flood-opacity="0" result="BackgroundImageFix"/>
<feColorMatrix in="SourceAlpha" type="matrix" values="0 0 0 0 0 0 0 0 0 0 0 0 0 0 0 0 0 0 127 0" result="hardAlpha"/>
<feOffset dx="2" dy="2"/>
<feGaussianBlur stdDeviation="4"/>
<feComposite in2="hardAlpha" operator="out"/>
<feColorMatrix type="matrix" values="0 0 0 0 0 0 0 0 0 0 0 0 0 0 0 0 0 0 0.04 0"/>
<feBlend mode="normal" in2="BackgroundImageFix" result="effect1_dropShadow_324_9906"/>
<feBlend mode="normal" in="SourceGraphic" in2="effect1_dropShadow_324_9906" result="shape"/>
</filter>
</defs>
</svg>
