<svg width="40" height="40" viewBox="0 0 40 40" fill="none" xmlns="http://www.w3.org/2000/svg">
<path d="M15.8044 32.0005C15.5724 31.9998 15.3458 31.9329 15.1533 31.8083C14.9609 31.6837 14.8112 31.5069 14.7234 31.3005C14.4728 30.7775 14.3298 30.2129 14.3024 29.6378C14.2682 28.5986 14.3024 27.5266 14.3479 26.4983C14.3479 26.2795 14.3592 26.0498 14.3706 25.831C14.4161 24.4309 14.0862 23.2385 13.3693 22.1775L12.7776 21.368C12.5045 20.9961 12.22 20.6023 11.9696 20.2085C10.9569 18.6114 10.7862 16.9815 11.469 15.3735C12.1517 13.7655 13.9724 12.5185 16.0433 12.5185L16.5099 12.5404C17.7556 12.6296 18.9557 13.0292 19.9919 13.6999H20.0033C20.0551 13.7347 20.1129 13.7606 20.1739 13.7764C20.2197 13.7683 20.2627 13.7495 20.2991 13.7218C21.4484 12.9123 22.666 12.4966 23.9177 12.4966C24.6398 12.506 25.3552 12.6317 26.0342 12.8685C26.0281 12.8426 26.0205 12.817 26.0114 12.792C25.9773 12.5732 25.9431 12.3763 25.8976 12.1794C25.8555 12.13 25.8005 12.0923 25.7383 12.07L24.2704 11.8075L23.6673 11.6981C23.556 11.6881 23.4516 11.6418 23.3715 11.5668C23.3588 11.5517 23.3501 11.5338 23.3461 11.5148C23.3421 11.4957 23.343 11.4761 23.3487 11.4574C23.3555 11.4399 23.3662 11.4241 23.3799 11.4109C23.3937 11.3977 23.4102 11.3874 23.4284 11.3808L24.0542 11.2715C24.5776 11.173 25.1238 11.0746 25.67 10.998C25.8521 10.9652 25.8976 10.9214 25.9317 10.7573C26.0486 10.0246 26.2043 9.29799 26.3983 8.5805C26.4052 8.55923 26.4187 8.54049 26.437 8.52681C26.4553 8.51312 26.4775 8.50514 26.5007 8.50393C26.5273 8.50341 26.5533 8.51189 26.5741 8.52788C26.5949 8.54387 26.6092 8.56636 26.6145 8.59144L26.6486 8.73364L26.7169 9.06181C26.7397 9.19308 26.7624 9.33528 26.7966 9.46655C26.8762 9.88222 26.9559 10.3198 27.0241 10.7464C27.0583 10.9214 27.1038 10.9652 27.2745 10.998C28.0824 11.1183 28.822 11.2605 29.5389 11.4355C29.5629 11.4428 29.5837 11.4574 29.5981 11.4772C29.6125 11.497 29.6197 11.5208 29.6186 11.5449C29.6191 11.5705 29.6103 11.5955 29.5936 11.6155C29.577 11.6355 29.5536 11.6492 29.5275 11.6543L29.2658 11.6981L28.6627 11.8184L28.3555 11.8731L27.229 12.0591C27.0924 12.0809 27.0583 12.1137 27.0355 12.245C27.0128 12.3763 26.99 12.5513 26.9559 12.6935C26.9182 12.8557 26.8916 13.0202 26.8762 13.1857C26.8724 13.2188 26.8755 13.2523 26.8853 13.2842C26.895 13.3161 26.9113 13.3459 26.9331 13.3717C29.4251 15.1329 29.3682 18.1957 28.0482 20.1866C27.6955 20.7117 27.3086 21.2696 26.8648 21.8712C25.9431 23.1401 25.5562 24.5731 25.6928 26.2577C25.8066 27.5922 25.9204 28.9705 25.6586 30.3378C25.6066 30.6492 25.5069 30.9515 25.3628 31.2348C25.1125 31.7052 24.68 31.9896 24.2021 31.9896C24.0126 31.9852 23.8262 31.9419 23.6555 31.8627C23.4848 31.7835 23.3336 31.6701 23.2122 31.5302C22.9159 31.2133 22.6912 30.8408 22.5522 30.4363C22.3587 29.8675 22.1994 29.2768 22.0515 28.7189C21.9605 28.3689 21.858 28.0079 21.7556 27.6469C21.5849 27.0562 21.4029 26.5421 21.2208 26.0608C21.1216 25.8157 20.9834 25.5869 20.8112 25.3826C20.7187 25.2583 20.5977 25.1562 20.4576 25.0841C20.3175 25.012 20.1621 24.9719 20.0033 24.9669C19.852 24.9707 19.7041 25.0107 19.573 25.0833C19.4419 25.1559 19.3316 25.2587 19.2522 25.3826C18.9409 25.8141 18.7028 26.2904 18.5467 26.7937C18.3647 27.3297 18.2281 27.8875 18.0916 28.4126C17.955 28.9377 17.8981 29.1565 17.7957 29.5284C17.6739 29.9827 17.5102 30.4256 17.3064 30.852C17.1537 31.1639 16.9369 31.443 16.6692 31.6724C16.4313 31.8781 16.1243 31.9946 15.8044 32.0005ZM20.0033 24.059C20.2038 24.0613 20.403 24.0908 20.595 24.1465C20.861 24.2206 21.1074 24.3488 21.3175 24.5225C21.5276 24.6961 21.6964 24.9111 21.8125 25.1528C22.1436 25.8919 22.4323 26.6478 22.6773 27.4172C22.8253 27.8875 22.9618 28.3798 23.087 28.8502C23.2122 29.3205 23.3032 29.6925 23.4284 30.1081C23.5299 30.398 23.684 30.6684 23.8835 30.9067C23.9194 30.958 23.9665 31.0012 24.0215 31.0334C24.0765 31.0655 24.1382 31.0857 24.2021 31.0926C24.3387 31.0926 24.4638 30.9942 24.5435 30.8192C24.6604 30.557 24.7407 30.2811 24.7825 29.9987C24.9873 28.7845 24.9076 27.5484 24.8166 26.3452V26.3124C24.6914 24.4746 25.1238 22.8994 26.1593 21.4993L26.4666 21.0945C26.7283 20.7445 27.0014 20.3944 27.2403 20.0225C27.5916 19.5184 27.8357 18.9526 27.9587 18.3575C28.0817 17.7624 28.0812 17.1498 27.9572 16.5549C27.7966 15.6998 27.3296 14.9258 26.6372 14.3671L26.5917 14.4984C26.5844 14.5185 26.5704 14.5358 26.5519 14.5477C26.5335 14.5595 26.5115 14.5653 26.4893 14.564H26.4666C26.4405 14.5589 26.4171 14.5452 26.4004 14.5252C26.3838 14.5052 26.375 14.4802 26.3755 14.4547C26.3755 14.0937 26.1024 13.9624 25.7952 13.8093C25.1433 13.5047 24.4262 13.3511 23.7014 13.3608C23.1618 13.3661 22.6242 13.4248 22.097 13.5358C21.6832 13.616 21.2763 13.7257 20.8794 13.864L20.4926 13.9843C21.1697 14.3803 21.9125 14.6615 22.6887 14.8156C22.7157 14.823 22.7394 14.8388 22.7559 14.8607C22.7724 14.8825 22.7808 14.909 22.7797 14.936C22.7748 14.9622 22.7609 14.986 22.7403 15.0039C22.7197 15.0217 22.6936 15.0324 22.666 15.0344H22.336C21.5281 15.0016 20.7315 14.7609 19.7529 14.2687C18.7743 13.7764 17.7957 13.4592 16.8626 13.3826L16.3164 13.3608C15.1672 13.3608 14.2227 13.678 13.4603 14.3124C11.981 15.5376 11.5714 17.5394 12.4589 19.3115C12.8003 20.0006 13.2669 20.657 13.722 21.2805L13.9155 21.554C14.8713 22.8776 15.3037 24.3434 15.2354 26.0279C15.2013 27.0124 15.1558 28.161 15.1785 29.2877C15.207 29.7628 15.2949 30.233 15.4403 30.6879C15.4713 30.7718 15.5195 30.849 15.582 30.9147C15.6446 30.9805 15.7202 31.0335 15.8044 31.0707H15.8954C16.0547 31.0707 16.1913 30.9176 16.2709 30.7645C16.4781 30.399 16.6459 30.0141 16.7716 29.6159C16.9195 29.1346 17.0447 28.6314 17.1699 28.1501C17.2381 27.8657 17.3064 27.5703 17.3861 27.2859C17.6137 26.4217 17.8412 25.656 18.3419 24.9559C18.8426 24.2559 19.3547 24.059 20.0033 24.059Z" fill="#100E10"/>
<path d="M26.1561 13.0423C26.0992 12.7251 26.0651 12.4407 25.9854 12.1672C25.9651 12.1194 25.9326 12.0772 25.8908 12.0447C25.849 12.0122 25.7994 11.9904 25.7464 11.9813C25.0523 11.8391 24.3582 11.7297 23.6641 11.6093C23.5802 11.591 23.5021 11.5535 23.4365 11.5C24.1875 11.3687 24.9272 11.2265 25.6668 11.1171C25.883 11.0733 25.9854 11.0077 26.0195 10.7889C26.1447 10.067 26.2926 9.34501 26.4861 8.62305L26.5885 9.08248C26.6909 9.6513 26.8047 10.2092 26.8957 10.778C26.9299 10.9858 27.0095 11.0733 27.2485 11.1171C27.9881 11.2265 28.7391 11.3687 29.4902 11.5547L28.6253 11.7187C28.1474 11.8062 27.6695 11.8938 27.1916 11.9594C27.116 11.9647 27.0452 11.9967 26.9927 12.0492C26.9402 12.1017 26.9097 12.171 26.9071 12.2438C26.8616 12.561 26.7819 12.8673 26.7478 13.1845C26.744 13.2361 26.7511 13.2879 26.7687 13.3368C26.7863 13.3857 26.814 13.4307 26.8502 13.469C29.2626 15.1645 29.2284 18.1727 27.9426 20.1307C27.5557 20.7105 27.1688 21.2683 26.7592 21.8262C25.7806 23.1608 25.4392 24.6484 25.5644 26.2783C25.6782 27.6238 25.792 28.9802 25.5302 30.3257C25.4771 30.6284 25.3814 30.9228 25.2458 31.2008C24.8361 31.9884 23.8917 32.1306 23.2886 31.4743C23.0016 31.1671 22.7846 30.8057 22.6513 30.4132C22.3441 29.4943 22.1165 28.5536 21.8434 27.6347C21.696 27.0933 21.5175 26.5601 21.3086 26.0377C21.2121 25.7767 21.0654 25.5355 20.8762 25.3266C20.3755 24.725 19.6018 24.7031 19.1466 25.3266C18.8319 25.7712 18.5865 26.2577 18.4183 26.7706C18.1225 27.6676 17.929 28.5974 17.6673 29.5053C17.5491 29.9557 17.3892 30.395 17.1894 30.8179C17.0421 31.1117 16.8374 31.3754 16.5863 31.5946C15.9832 32.0978 15.1298 31.9556 14.8112 31.2555C14.5686 30.7459 14.4295 30.1964 14.4015 29.6366C14.356 28.3676 14.4243 27.0987 14.4698 25.8298C14.5153 24.5609 14.2195 23.2483 13.4457 22.1216C12.9905 21.4543 12.4785 20.8308 12.0574 20.1526C11.1016 18.654 10.8626 17.0569 11.5681 15.4161C12.3647 13.5346 14.3219 12.4735 16.4839 12.6485C17.7079 12.7405 18.887 13.1321 19.909 13.7862C20.0455 13.8737 20.1593 13.9503 20.3414 13.819C22.1165 12.572 24.0396 12.2766 26.1561 13.0423ZM22.6513 14.9238H22.3213C21.411 14.891 20.5917 14.5738 19.7952 14.169C18.9987 13.7643 17.9063 13.3596 16.8594 13.2721C15.5622 13.1845 14.3788 13.3924 13.366 14.2237C11.8754 15.4598 11.4202 17.5273 12.3419 19.365C12.7402 20.1526 13.2864 20.8855 13.8098 21.6184C14.7657 22.942 15.1753 24.4078 15.107 26.0158C15.0615 27.1097 15.0274 28.1926 15.0501 29.2865C15.0793 29.7732 15.171 30.2545 15.3232 30.7195C15.3594 30.8188 15.4164 30.9099 15.4908 30.987C15.5652 31.0642 15.6554 31.1258 15.7556 31.168C16.0287 31.2555 16.2449 31.0477 16.3587 30.8289C16.5622 30.4528 16.7335 30.0613 16.8708 29.6584C17.0984 28.8927 17.269 28.1051 17.4853 27.3175C17.7015 26.5299 17.929 25.7204 18.4183 25.0313C18.9076 24.3422 19.7383 24.0031 20.5462 24.2437C20.7963 24.3136 21.0275 24.435 21.224 24.5993C21.4205 24.7636 21.5775 24.967 21.6841 25.1954C22.0215 25.9295 22.314 26.6819 22.5603 27.4488C22.8448 28.3348 23.0382 29.2428 23.3113 30.1397C23.4118 30.4423 23.57 30.7242 23.7779 30.9711C24.0623 31.3211 24.4379 31.2664 24.6313 30.8617C24.7542 30.5894 24.8384 30.3024 24.8816 30.0085C25.0978 28.7833 25.0068 27.5363 24.9158 26.3111C24.7906 24.5719 25.1889 22.9857 26.2471 21.5637C26.6112 21.0714 26.9868 20.5901 27.3281 20.0869C28.0445 19.0388 28.3059 17.7628 28.0564 16.5318C27.881 15.5996 27.3544 14.7623 26.5771 14.18C26.5316 14.2894 26.5088 14.3769 26.4747 14.4534C26.4747 14.0268 26.1561 13.8737 25.8375 13.7096C24.6199 13.1298 23.3341 13.1845 22.0596 13.4252C21.4565 13.5346 20.8762 13.7534 20.2048 13.9503C20.95 14.4187 21.7798 14.7489 22.6513 14.9238Z" fill="#100E10"/>
<path d="M13.2538 29.0028C13.0831 29.0028 12.9466 28.8934 12.8214 28.7949L12.7532 28.7402C9.46461 26.2462 7.87154 22.9755 8.00809 19.0156C8.11368 16.3412 9.19765 13.7884 11.0691 11.8069C12.944 9.81325 15.4829 8.50976 18.2492 8.12054C18.8407 8.03694 19.4379 7.99671 20.0357 8.00021C21.7425 8.00502 23.4291 8.35537 24.9856 9.02846L25.1905 9.12691C25.2617 9.15262 25.3268 9.19209 25.3816 9.24289C25.4363 9.29368 25.4797 9.35473 25.5091 9.42226C25.5262 9.47874 25.531 9.53803 25.5232 9.59638C25.5154 9.65474 25.4951 9.71091 25.4636 9.76136C25.4309 9.82746 25.3793 9.88319 25.3148 9.92196C25.2503 9.96074 25.1755 9.98092 25.0994 9.98014C25.0024 9.97469 24.9067 9.95628 24.8149 9.92544L24.2005 9.69573C23.6436 9.47718 23.0736 9.29089 22.4936 9.13785C21.6695 8.95033 20.8257 8.8549 19.9788 8.85344C14.6193 8.85344 9.91977 12.6492 9.06634 17.692C8.98669 18.1186 8.95255 18.5562 8.90703 18.9281C8.89945 19.0812 8.88807 19.2235 8.87289 19.3547C8.97531 23.052 10.4318 25.8961 13.2993 28.0511C13.5724 28.2589 13.6976 28.4121 13.709 28.5652C13.7126 28.6161 13.7043 28.6671 13.6846 28.7144C13.6649 28.7618 13.6343 28.8043 13.5952 28.8387C13.5526 28.8866 13.5005 28.9259 13.4418 28.954C13.3832 28.9822 13.3193 28.9988 13.2538 29.0028Z" fill="#100E10"/>
<path d="M8.76245 19.3431C8.86486 23.0732 10.3328 25.9501 13.2344 28.1379C13.5986 28.4113 13.6896 28.5864 13.5075 28.7614C13.3255 28.9364 13.0296 28.8051 12.8248 28.652C9.59312 26.2017 7.98868 22.9857 8.12523 19.0258C8.30729 13.5892 12.6541 9.00585 18.264 8.22919C20.5349 7.90182 22.8559 8.21731 24.9435 9.13712L25.1483 9.22463C25.3645 9.32308 25.501 9.47622 25.3645 9.70594C25.2279 9.93565 25.0686 9.8919 24.8524 9.81532C24.0787 9.54185 23.3163 9.22463 22.5311 9.03867C16.3295 7.59474 9.98001 11.6421 8.9559 17.6694C8.85349 18.282 8.80797 18.9055 8.76245 19.3431Z" fill="#100E10"/>
<path d="M26.7091 29.0036C26.641 29.0007 26.5746 28.9823 26.5152 28.95C26.4559 28.9177 26.4054 28.8723 26.3678 28.8177C26.2084 28.6098 26.254 28.3801 26.4815 28.1941L26.7319 28.0191L27.3236 27.5487C31.7387 23.742 32.3759 17.671 28.8484 13.1095L28.8142 13.0657C28.7904 13.0275 28.7638 12.9909 28.7346 12.9563C28.6808 12.9028 28.6389 12.8394 28.6115 12.7698C28.5841 12.7002 28.5718 12.6259 28.5753 12.5516C28.5863 12.4957 28.6092 12.4426 28.6425 12.3956C28.6758 12.3485 28.7187 12.3086 28.7687 12.2781C28.8461 12.2174 28.942 12.1828 29.0418 12.1797C29.2011 12.1797 29.3377 12.2672 29.4629 12.4422L29.7701 12.8688C30.0318 13.2408 30.2935 13.6236 30.5325 14.0174C31.5338 15.7567 31.989 17.5944 32.0004 19.9681C31.898 23.4029 30.2821 26.422 27.3008 28.6973L27.0277 28.8942C26.9346 28.9592 26.824 28.9971 26.7091 29.0036Z" fill="#100E10"/>
<path d="M31.8862 19.968C31.7952 23.2606 30.259 26.2906 27.2208 28.6096L26.9591 28.8065C26.777 28.9269 26.595 28.9269 26.4584 28.7518C26.3219 28.5768 26.3788 28.4127 26.5608 28.2815C26.7429 28.1502 27.1298 27.8549 27.4029 27.6251C31.8293 23.8184 32.4779 17.6161 28.9391 13.0437L28.8253 12.8905C28.666 12.7046 28.6204 12.5077 28.8366 12.3655C29.0529 12.2233 29.2349 12.3108 29.3601 12.4967C29.7242 13.0218 30.1111 13.525 30.4297 14.0719C31.4083 15.7674 31.8749 17.6052 31.8862 19.968Z" fill="#100E10"/>
<path d="M19.9765 31.1036L18.3152 30.9613C18.2404 30.9629 18.1662 30.9491 18.0975 30.9208C18.0288 30.8925 17.9672 30.8504 17.9169 30.7973C17.8785 30.7518 17.8506 30.6991 17.8349 30.6425C17.8192 30.586 17.8161 30.5269 17.8259 30.4691C17.8486 30.305 17.9396 30.0972 18.281 30.0972H18.4289C18.9496 30.1626 19.4741 30.1955 19.9993 30.1956C20.5281 30.1955 21.0565 30.1626 21.5809 30.0972H21.7175C21.7713 30.0927 21.8255 30.0985 21.877 30.1142C21.9285 30.13 21.9763 30.1553 22.0175 30.1889C22.0588 30.2224 22.0927 30.2635 22.1174 30.3097C22.1421 30.3559 22.157 30.4064 22.1613 30.4582C22.1775 30.5767 22.1492 30.6969 22.0816 30.7973C21.9766 30.9003 21.8334 30.9593 21.6834 30.9613L20.4544 31.0707L19.9879 31.1036H19.9765Z" fill="#100E10"/>
<path d="M19.9764 30.9933L18.3264 30.8511C18.0875 30.8401 17.9168 30.7417 17.9395 30.4792C17.9623 30.2166 18.1785 30.1947 18.4061 30.2166C19.463 30.3588 20.5353 30.3588 21.5922 30.2166C21.8198 30.1838 22.0132 30.2276 22.0474 30.4682C22.0815 30.7089 21.9222 30.8292 21.6719 30.8511L19.9764 30.9933Z" fill="#100E10"/>
<path d="M28.4195 10.712C28.3934 10.7107 28.3684 10.7015 28.348 10.6858C28.3276 10.6701 28.3128 10.6487 28.3058 10.6245C28.283 10.5261 28.2716 10.4385 28.2489 10.351C28.2061 10.1961 28.1719 10.0391 28.1464 9.88067C28.1351 9.76034 28.1009 9.71658 27.9644 9.69471L27.5092 9.6072L27.3044 9.56344C27.287 9.55918 27.271 9.55104 27.2575 9.53968C27.244 9.52832 27.2335 9.51407 27.2269 9.49808C27.2202 9.48208 27.2176 9.46481 27.2192 9.44765C27.2208 9.4305 27.2266 9.41395 27.2361 9.39936L27.2589 9.36654C27.2776 9.33051 27.3103 9.303 27.3499 9.28997L27.6344 9.23528C27.8278 9.20246 28.0213 9.16964 28.1123 9.07119C28.2033 8.97274 28.2261 8.79772 28.2489 8.6227C28.2585 8.53077 28.2737 8.43946 28.2944 8.34923C28.2999 8.32808 28.3113 8.30877 28.3273 8.29336C28.3433 8.27795 28.3634 8.26701 28.3854 8.26172H28.4878C28.5106 8.26172 28.5447 8.26172 28.5561 8.2836C28.571 8.2931 28.583 8.30618 28.591 8.32153C28.5989 8.33688 28.6026 8.35397 28.6016 8.37111C28.5789 8.71021 28.6471 8.95087 28.7837 9.09307C28.8495 9.15466 28.9281 9.20211 29.0145 9.23228C29.1008 9.26245 29.1928 9.27466 29.2844 9.26809L29.5347 9.24621H29.5574C29.5741 9.24557 29.5908 9.24814 29.6064 9.25378C29.622 9.25942 29.6363 9.268 29.6485 9.27903C29.6588 9.2973 29.6651 9.31738 29.667 9.33807C29.669 9.35876 29.6665 9.37961 29.6599 9.39936L29.6143 9.49781C29.6068 9.51364 29.5958 9.5277 29.582 9.53903C29.5683 9.55036 29.5521 9.55869 29.5347 9.56344L29.364 9.6072L28.9544 9.68377C28.7609 9.70564 28.6926 9.77128 28.6813 9.93536C28.6652 10.0836 28.6347 10.2301 28.5902 10.3729C28.5788 10.4495 28.5561 10.5261 28.5333 10.6245C28.5262 10.6487 28.5115 10.6701 28.4911 10.6858C28.4706 10.7015 28.4456 10.7107 28.4195 10.712Z" fill="#100E10"/>
<path d="M28.4849 8.37109C28.4507 9.07118 28.7352 9.47592 29.5545 9.35559L29.509 9.45404C29.3181 9.50458 29.1243 9.54475 28.9287 9.57437C28.7125 9.59624 28.5873 9.68375 28.5645 9.92441C28.5336 10.1538 28.4842 10.3806 28.4166 10.6026C28.3483 10.2963 28.2914 10.0885 28.2573 9.86971C28.2232 9.65094 28.1435 9.61812 27.9728 9.58531L27.3242 9.46498C27.3584 9.42122 27.3697 9.39934 27.3811 9.39934C27.6542 9.32277 28.0183 9.32277 28.189 9.14775C28.3597 8.97273 28.337 8.64456 28.4052 8.37109H28.4849Z" fill="#100E10"/>
</svg>
