<svg width="76" height="76" viewBox="0 0 76 76" fill="none" xmlns="http://www.w3.org/2000/svg">
<g filter="url(#filter0_d_324_10019)">
<rect x="6" y="6" width="60" height="60" rx="30" fill="#353434"/>
<g clip-path="url(#clip0_324_10019)">
<path d="M51.0305 23.6826C49.9973 23.4202 48.9312 23.1906 47.7667 23.0102C47.5207 22.9774 47.4551 22.8954 47.4059 22.6493C47.3075 21.9933 47.1927 21.3537 47.0779 20.714C47.0287 20.5172 46.9959 20.3204 46.9631 20.1072L46.8647 19.6152L46.8155 19.402C46.8053 19.3657 46.784 19.3336 46.7545 19.31C46.7251 19.2865 46.6891 19.2728 46.6515 19.2708C46.6139 19.2728 46.5778 19.2865 46.5484 19.31C46.519 19.3336 46.4977 19.3657 46.4875 19.402C46.2104 20.4773 45.9914 21.5668 45.8314 22.6657C45.7822 22.8954 45.7166 22.9774 45.4542 23.0102L43.1253 23.4366L42.2232 23.6006C42.174 23.6006 42.1248 23.6498 42.092 23.7154C42.0884 23.7447 42.091 23.7743 42.0994 23.8026C42.1079 23.8308 42.1221 23.857 42.1412 23.8794C42.2635 23.9815 42.4106 24.0494 42.5677 24.0762L43.4369 24.2402L45.5526 24.6339C45.6 24.6444 45.6447 24.6643 45.6841 24.6925C45.7236 24.7207 45.7569 24.7565 45.7822 24.7979C45.8478 25.0767 45.897 25.3883 45.9462 25.6999C45.9597 25.7366 45.9653 25.7757 45.9626 25.8147C44.9889 25.465 43.9631 25.282 42.9285 25.2735C41.1244 25.2735 39.3695 25.8803 37.6966 27.1104C37.6511 27.1506 37.5932 27.1737 37.5326 27.176C37.4422 27.1592 37.3575 27.1197 37.2866 27.0612H37.2702C35.7749 26.0565 34.0469 25.4523 32.2515 25.3063H31.579C28.5941 25.3063 26.0683 26.93 24.9859 29.5705C23.9034 32.2111 24.2478 34.4088 25.7075 36.8033C26.0683 37.4102 26.4784 37.9842 26.872 38.5418C27.2656 39.0995 27.446 39.3455 27.7248 39.7719C28.7581 41.3464 29.2337 43.1341 29.1681 45.2334L29.1189 46.2502C29.0697 47.7919 29.0205 49.3828 29.0697 50.9573C29.1089 51.8144 29.315 52.6557 29.6765 53.4338C29.7987 53.7478 30.0128 54.0175 30.2908 54.2077C30.5688 54.3979 30.8978 54.4997 31.2346 54.4999C31.6955 54.4896 32.1375 54.3151 32.4811 54.0079C32.8665 53.6699 33.179 53.257 33.3995 52.7942C33.6903 52.1482 33.9262 51.4789 34.1048 50.7933C34.2524 50.2357 34.4 49.678 34.5312 49.1368C34.728 48.3332 34.9248 47.4967 35.1872 46.7095C35.4121 45.9498 35.7553 45.2303 36.2041 44.5774C36.3207 44.3937 36.4801 44.241 36.6686 44.1325C36.8571 44.0239 37.0692 43.9627 37.2866 43.9541C37.5127 43.9642 37.7335 44.0255 37.9324 44.1335C38.1313 44.2414 38.303 44.3932 38.4346 44.5774C38.6843 44.8857 38.8886 45.2281 39.0415 45.5942C39.3039 46.3159 39.5499 47.1031 39.8123 47.9887C39.9599 48.5136 40.1075 49.0548 40.2387 49.5796C40.4519 50.4325 40.6816 51.3017 40.9604 52.1546C41.1565 52.7679 41.4807 53.3326 41.9116 53.8111C42.0875 54.0187 42.3059 54.1861 42.5521 54.3021C42.7982 54.4181 43.0664 54.48 43.3385 54.4835C44.0273 54.4835 44.6506 54.0735 45.0114 53.3682C45.2214 52.9386 45.3652 52.4796 45.4378 52.007C45.815 49.9733 45.651 47.8903 45.487 45.8894C45.2902 43.3801 45.8478 41.2316 47.1763 39.3291C47.8159 38.4106 48.3736 37.5742 48.882 36.7869C50.7845 33.802 50.8665 29.2097 47.2747 26.5692C47.2097 26.4909 47.1748 26.392 47.1763 26.2903C47.2091 26.0443 47.2583 25.7983 47.3075 25.5687C47.3567 25.3391 47.3895 25.1095 47.4223 24.8963C47.4551 24.6831 47.5043 24.6503 47.7011 24.6174L49.3248 24.3222L49.7677 24.2402L50.6369 24.0762L51.0141 23.9942C51.0504 23.9902 51.0838 23.9728 51.1081 23.9456C51.1323 23.9183 51.1456 23.8831 51.1453 23.8466C51.147 23.8104 51.1366 23.7747 51.1159 23.7451C51.0951 23.7154 51.0651 23.6934 51.0305 23.6826ZM49.7349 24.0762L47.6683 24.4534C47.4059 24.4862 47.3075 24.601 47.2583 24.8635C47.2091 25.1259 47.0779 25.7983 47.0287 26.2739C47.0175 26.3516 47.0251 26.4309 47.0507 26.5051C47.0764 26.5793 47.1195 26.6462 47.1763 26.7004C50.6369 29.2589 50.6041 33.7692 48.7344 36.7049C48.1932 37.5578 47.6191 38.3942 47.0451 39.2307C45.6346 41.248 45.1426 43.4785 45.323 45.9058C45.487 47.9395 45.651 49.9733 45.2738 51.9906C45.1971 52.4392 45.0591 52.8752 44.8638 53.2862C44.2734 54.4671 42.9121 54.6803 42.0428 53.6963C41.6264 53.235 41.3083 52.6937 41.108 52.1054C40.6816 50.7441 40.3535 49.3336 39.9599 47.9395C39.7303 47.1359 39.4843 46.3323 39.1891 45.545C39.0361 45.1603 38.826 44.8009 38.5658 44.479C37.8442 43.5769 36.7289 43.5441 36.0729 44.4954C35.613 45.1583 35.2589 45.8886 35.0232 46.6603C34.5968 48.0051 34.318 49.3828 33.9408 50.7441C33.7704 51.4194 33.5399 52.0781 33.2519 52.7122C33.0445 53.1602 32.7488 53.5619 32.3827 53.8931C31.5134 54.6475 30.2834 54.4179 29.8241 53.3682C29.4765 52.6092 29.2761 51.7911 29.2337 50.9573C29.1681 49.0548 29.2665 47.1523 29.3321 45.2498C29.3977 43.3473 28.9713 41.3628 27.856 39.6735C27.2 38.6894 26.462 37.7382 25.8551 36.7213C24.4775 34.4744 24.133 32.0799 25.1499 29.6197C26.298 26.7988 29.1189 25.2243 32.2351 25.4703C33.9993 25.6082 35.6988 26.1954 37.1718 27.176C37.3686 27.3072 37.5326 27.4384 37.795 27.2416C40.3535 25.3719 43.1253 24.9127 46.1759 26.0607C46.0939 25.5851 46.0446 25.1587 45.9298 24.7487C45.8954 24.6805 45.8468 24.6204 45.7875 24.5724C45.7281 24.5243 45.6593 24.4894 45.5854 24.4698L42.5841 23.9122C42.4642 23.8908 42.3515 23.8401 42.256 23.7646L45.4706 23.1742C45.7822 23.125 45.9298 23.0102 45.979 22.6821C46.1595 21.5997 46.3727 20.5336 46.6515 19.4348L46.7991 20.14C46.9467 20.9764 47.1107 21.8129 47.2419 22.6657C47.2911 22.9774 47.4059 23.125 47.7339 23.1742C48.8268 23.3376 49.9107 23.5565 50.9813 23.8302L49.7349 24.0762Z" fill="white"/>
<path d="M48.7344 36.705C48.1932 37.5578 47.6191 38.3943 47.0451 39.2307C45.6346 41.248 45.1426 43.4786 45.323 45.9059C45.487 47.9396 45.651 49.9733 45.2738 51.9906C45.1971 52.4393 45.0591 52.8752 44.8638 53.2863C44.2734 54.4672 42.9121 54.6804 42.0428 53.6963C41.6264 53.235 41.3083 52.6937 41.108 52.1054C40.6816 50.7442 40.3535 49.3337 39.9599 47.9396C39.7303 47.136 39.4843 46.3323 39.1891 45.5451C39.0361 45.1604 38.826 44.801 38.5658 44.479C37.8442 43.577 36.7289 43.5442 36.0729 44.4954C35.613 45.1583 35.2589 45.8887 35.0232 46.6603C34.5968 48.0052 34.318 49.3829 33.9408 50.7442C33.7704 51.4194 33.5399 52.0781 33.2519 52.7123C33.0445 53.1603 32.7488 53.5619 32.3827 53.8931C31.5134 54.6476 30.2834 54.418 29.8241 53.3683C29.4765 52.6093 29.2761 51.7911 29.2337 50.9574C29.1681 49.0549 29.2665 47.1524 29.3321 45.2498C29.3977 43.3473 28.9713 41.3628 27.856 39.6735C27.2 38.6895 26.462 37.7382 25.8551 36.7214C24.4775 34.4745 24.133 32.0799 25.1499 29.6198C26.298 26.7988 29.1189 25.2243 32.2351 25.4703C33.9993 25.6082 35.6988 26.1954 37.1718 27.176C37.3686 27.3073 37.5326 27.4385 37.795 27.2416C40.3535 25.3719 43.1253 24.9127 46.1759 26.0608C46.0939 25.5852 46.0447 25.1587 45.9298 24.7487C45.8954 24.6806 45.8468 24.6205 45.7875 24.5724C45.7281 24.5244 45.6593 24.4894 45.5854 24.4699L42.5841 23.9123C42.4642 23.8909 42.3515 23.8402 42.256 23.7647L45.4706 23.1742C45.7822 23.125 45.9298 23.0102 45.979 22.6822C46.1595 21.5997 46.3727 20.5337 46.6515 19.4348L46.7991 20.1401C46.9467 20.9765 47.1107 21.8129 47.2419 22.6658C47.2911 22.9774 47.4059 23.125 47.7339 23.1742C48.8268 23.3376 49.9107 23.5566 50.9813 23.8303L49.7349 24.0763L47.6683 24.4535C47.4059 24.4863 47.3075 24.6011 47.2583 24.8635C47.2091 25.1259 47.0779 25.7984 47.0287 26.274C47.0175 26.3517 47.0251 26.4309 47.0507 26.5051C47.0764 26.5793 47.1195 26.6463 47.1763 26.7004C50.6369 29.259 50.6041 33.7692 48.7344 36.705Z" fill="white"/>
<path d="M27.5772 49.9897C27.3384 49.9654 27.1168 49.8545 26.954 49.6781L26.8556 49.6125C22.1157 45.8567 19.8196 40.9528 20.0164 35.0321C20.1577 31.0151 21.7213 27.1788 24.4282 24.2075C27.1324 21.2205 30.7909 19.2666 34.7772 18.6804C35.6306 18.5632 36.4908 18.503 37.3522 18.5C39.8142 18.5049 42.2467 19.0361 44.4866 20.0581L44.7818 20.2057C44.884 20.2451 44.9773 20.3046 45.0562 20.3806C45.1351 20.4567 45.1979 20.5478 45.241 20.6485C45.2654 20.7305 45.2721 20.8168 45.2608 20.9015C45.2495 20.9863 45.2204 21.0678 45.1754 21.1405C45.1326 21.244 45.0597 21.3322 44.9661 21.3936C44.8724 21.4551 44.7625 21.4869 44.6506 21.485C44.5089 21.4781 44.3699 21.4448 44.2405 21.3866L43.3385 21.0421C42.5448 20.7101 41.7281 20.4361 40.8948 20.2221C39.7091 19.9277 38.4919 19.779 37.2702 19.7793C29.5453 19.7793 22.7718 25.4868 21.5417 33.0312C21.4269 33.6872 21.3777 34.3269 21.3121 34.9009C21.3009 35.1096 21.279 35.3177 21.2465 35.5241C21.4105 41.0677 23.5098 45.3319 27.6428 48.5793C28.0364 48.8745 28.2169 49.1041 28.2333 49.3501C28.2374 49.4263 28.2248 49.5024 28.1965 49.5732C28.1682 49.644 28.1247 49.7078 28.0692 49.7601C27.9394 49.8951 27.764 49.9769 27.5772 49.9897Z" fill="white"/>
<path d="M21.0825 35.5242C21.2465 41.1005 23.3458 45.4303 27.5444 48.7105C28.0692 49.1041 28.2005 49.383 27.938 49.6454C27.6756 49.9078 27.2492 49.711 26.954 49.4814C22.2961 45.7912 19.9836 40.9693 20.1804 35.0322C20.4428 26.8809 26.708 20.0089 34.7936 18.8445C38.0615 18.354 41.4014 18.8271 44.4046 20.2057L44.7162 20.3533C45.0278 20.5009 45.2082 20.7142 45.0278 21.0586C44.8474 21.403 44.6014 21.3374 44.2897 21.239C43.1745 20.829 42.0756 20.3369 40.9276 20.0581C32.0055 17.8932 22.8538 23.9779 21.3777 33.0148C21.2301 33.9333 21.1645 34.8681 21.0825 35.5242Z" fill="white"/>
<path d="M46.9795 49.9897C46.8827 49.9872 46.7879 49.9622 46.7025 49.9166C46.6171 49.8711 46.5435 49.8063 46.4875 49.7273C46.2579 49.3993 46.3235 49.0549 46.6515 48.7925L47.0123 48.5137L47.8651 47.8084C54.2287 42.1173 55.1471 33.0148 50.0629 26.1592L50.0137 26.0936C49.9716 26.0417 49.9332 25.9869 49.8989 25.9296C49.8218 25.8525 49.7616 25.7601 49.722 25.6585C49.6825 25.5569 49.6645 25.4481 49.6692 25.3392C49.682 25.2521 49.7136 25.1689 49.7617 25.0953C49.8099 25.0217 49.8735 24.9594 49.9481 24.9128C50.0567 24.8169 50.1968 24.7644 50.3417 24.7651C50.5549 24.7651 50.7681 24.9128 50.9485 25.1588C51.1289 25.4048 51.2273 25.6016 51.3749 25.8148C51.7753 26.3607 52.1422 26.9303 52.4738 27.5205C53.9335 30.1282 54.5895 32.8836 54.6059 36.459C54.4583 41.6089 52.113 46.1191 47.8159 49.5469L47.4387 49.8257C47.3069 49.9276 47.1461 49.9851 46.9795 49.9897Z" fill="white"/>
<path d="M54.4419 36.4591C54.3107 41.3958 52.0966 45.9388 47.7175 49.4158L47.3403 49.6946C47.0779 49.875 46.8155 49.8914 46.6187 49.629C46.4219 49.3666 46.5039 49.1206 46.7499 48.9238C46.9959 48.727 47.5863 48.2841 47.98 47.9233C54.3435 42.2158 55.2948 32.9329 50.1941 26.0609L50.0137 25.8313C49.8005 25.5689 49.7348 25.2737 50.0465 25.044C50.3581 24.8144 50.6205 24.9784 50.8009 25.2573C51.3257 26.0281 51.8834 26.7825 52.3426 27.6026C53.7531 30.1447 54.4255 32.9001 54.4419 36.4591Z" fill="white"/>
<path d="M37.2538 53.1552L34.8756 52.942C34.7674 52.9383 34.6609 52.9132 34.5624 52.8682C34.4638 52.8231 34.3752 52.759 34.3016 52.6795C34.2457 52.615 34.205 52.5388 34.1823 52.4565C34.1596 52.3743 34.1555 52.288 34.1704 52.2039C34.2032 51.9415 34.3344 51.6463 34.8264 51.6463H35.0396C35.7901 51.7444 36.5461 51.7937 37.303 51.7939C38.0659 51.7964 38.828 51.7416 39.5827 51.6299H39.7631C40.1403 51.6299 40.3699 51.8103 40.4191 52.1547C40.4456 52.3326 40.4046 52.5139 40.3043 52.6631C40.2307 52.7426 40.1421 52.8067 40.0436 52.8518C39.945 52.8968 39.8386 52.9219 39.7303 52.9256L37.9426 53.0732L37.2866 53.1388H37.2538V53.1552Z" fill="white"/>
<path d="M37.2702 52.9911L34.892 52.7779C34.5476 52.745 34.2852 52.5974 34.3344 52.2202C34.3836 51.843 34.6788 51.7774 35.0068 51.8266C36.5314 52.0262 38.0759 52.0207 39.5991 51.8102C39.9271 51.7774 40.1895 51.8266 40.2551 52.2038C40.3207 52.581 40.0583 52.745 39.7139 52.7779L37.2702 52.9911Z" fill="white"/>
<path d="M49.4396 22.5673C49.4013 22.5681 49.3638 22.5554 49.3339 22.5314C49.3039 22.5074 49.2833 22.4737 49.2756 22.4361C49.2428 22.2885 49.21 22.1573 49.1936 22.0425C49.1319 21.8047 49.0826 21.5638 49.046 21.3208C49.0296 21.1404 48.964 21.0748 48.7672 21.042L48.1276 20.9272L47.8324 20.8616C47.8047 20.8556 47.7787 20.8437 47.756 20.8267C47.7334 20.8098 47.7147 20.7881 47.7011 20.7632C47.6942 20.7351 47.6936 20.7059 47.6993 20.6776C47.7049 20.6492 47.7168 20.6225 47.7339 20.5992L47.7667 20.55C47.803 20.504 47.8475 20.4651 47.898 20.4352L48.308 20.3532C48.5868 20.304 48.8656 20.2548 48.9968 20.1236C49.128 19.9924 49.1608 19.7136 49.1936 19.4347C49.2075 19.3023 49.2294 19.1709 49.2592 19.0411C49.2756 18.9591 49.3248 18.9099 49.3904 18.9099H49.538C49.576 18.913 49.6112 18.9306 49.6365 18.9591C49.6548 18.9727 49.67 18.9898 49.6813 19.0096C49.6926 19.0294 49.6997 19.0513 49.7021 19.0739C49.6693 19.5988 49.7677 19.9596 49.9645 20.1728C50.0623 20.2597 50.1766 20.3263 50.3005 20.3685C50.4244 20.4108 50.5555 20.4279 50.6861 20.4188L51.0469 20.386H51.0797C51.1054 20.3845 51.131 20.3898 51.1541 20.4013C51.1771 20.4129 51.1967 20.4302 51.2109 20.4516C51.2254 20.4761 51.2343 20.5035 51.2371 20.5318C51.24 20.5601 51.2366 20.5887 51.2273 20.6156L51.1617 20.7796C51.1509 20.8033 51.135 20.8244 51.1151 20.8414C51.0953 20.8584 51.072 20.8709 51.0469 20.878L50.8009 20.9272C50.6075 20.9812 50.41 21.0196 50.2105 21.042C49.9317 21.0748 49.8333 21.1732 49.8169 21.4193C49.7954 21.6418 49.7514 21.8616 49.6857 22.0753C49.6529 22.1901 49.6365 22.3213 49.6037 22.4525C49.596 22.4901 49.5754 22.5238 49.5454 22.5478C49.5154 22.5718 49.478 22.5845 49.4396 22.5837V22.5673Z" fill="white"/>
<path d="M49.538 19.0576C49.4888 20.1073 49.8989 20.7141 51.0797 20.5337L51.0141 20.6977C50.7353 20.7469 50.4565 20.8289 50.1777 20.8617C49.8989 20.8945 49.6692 21.0421 49.6528 21.3865C49.6003 21.7291 49.5291 22.0686 49.4396 22.4034C49.3447 22.0412 49.268 21.6745 49.21 21.3045C49.21 21.1958 49.1668 21.0915 49.0899 21.0146C49.013 20.9377 48.9087 20.8945 48.8 20.8945C48.4884 20.8453 48.1932 20.7633 47.8651 20.6977C47.9143 20.6321 47.9143 20.5993 47.9471 20.5993C48.3408 20.4845 48.8656 20.4845 49.1116 20.2385C49.3576 19.9925 49.3248 19.4676 49.4068 19.074L49.538 19.0576Z" fill="white"/>
</g>
</g>
<defs>
<filter id="filter0_d_324_10019" x="0" y="0" width="76" height="76" filterUnits="userSpaceOnUse" color-interpolation-filters="sRGB">
<feFlood flood-opacity="0" result="BackgroundImageFix"/>
<feColorMatrix in="SourceAlpha" type="matrix" values="0 0 0 0 0 0 0 0 0 0 0 0 0 0 0 0 0 0 127 0" result="hardAlpha"/>
<feOffset dx="2" dy="2"/>
<feGaussianBlur stdDeviation="4"/>
<feComposite in2="hardAlpha" operator="out"/>
<feColorMatrix type="matrix" values="0 0 0 0 0 0 0 0 0 0 0 0 0 0 0 0 0 0 0.04 0"/>
<feBlend mode="normal" in2="BackgroundImageFix" result="effect1_dropShadow_324_10019"/>
<feBlend mode="normal" in="SourceGraphic" in2="effect1_dropShadow_324_10019" result="shape"/>
</filter>
<clipPath id="clip0_324_10019">
<rect width="34.6059" height="36" fill="white" transform="translate(20 18.5)"/>
</clipPath>
</defs>
</svg>
