<svg width="76" height="77" viewBox="0 0 76 77" fill="none" xmlns="http://www.w3.org/2000/svg">
<g filter="url(#filter0_d_32_10080)">
<rect x="6" y="6.5" width="60" height="60" rx="30" fill="white"/>
<path d="M29.7066 54.5006C29.3585 54.4995 29.0186 54.3991 28.73 54.2122C28.4413 54.0252 28.2169 53.7601 28.0851 53.4504C27.7092 52.666 27.4947 51.8191 27.4535 50.9564C27.4023 49.3976 27.4535 47.7896 27.5218 46.2472C27.5218 45.9191 27.5389 45.5745 27.5559 45.2463C27.6242 43.1461 27.1292 41.3576 26.0539 39.766L25.1663 38.5518C24.7567 37.9939 24.33 37.4032 23.9545 36.8125C22.4354 34.4169 22.1793 31.972 23.2035 29.56C24.2276 27.148 26.9585 25.2775 30.065 25.2775L30.7648 25.3103C32.6334 25.4441 34.4335 26.0436 35.9878 27.0496H36.0049C36.0827 27.1018 36.1693 27.1407 36.2609 27.1644C36.3295 27.1522 36.394 27.1241 36.4487 27.0824C38.1726 25.8682 39.9989 25.2447 41.8765 25.2447C42.9597 25.2588 44.0328 25.4474 45.0512 25.8025C45.0421 25.7637 45.0307 25.7253 45.0171 25.6877C44.9659 25.3595 44.9147 25.0642 44.8464 24.7688C44.7833 24.6948 44.7008 24.6382 44.6075 24.6047L42.4056 24.2109L41.501 24.0469C41.334 24.0319 41.1774 23.9624 41.0572 23.85C41.0381 23.8273 41.0251 23.8005 41.0191 23.772C41.0132 23.7434 41.0145 23.7138 41.0231 23.6859C41.0333 23.6597 41.0493 23.6359 41.0699 23.6161C41.0905 23.5962 41.1153 23.5809 41.1425 23.571L42.0813 23.4069C42.8665 23.2593 43.6857 23.1116 44.505 22.9967C44.7781 22.9475 44.8464 22.8819 44.8976 22.6357C45.0729 21.5366 45.3064 20.4467 45.5974 19.3705C45.6078 19.3386 45.6281 19.3105 45.6555 19.29C45.683 19.2694 45.7163 19.2575 45.751 19.2556C45.791 19.2549 45.8299 19.2676 45.8611 19.2916C45.8923 19.3156 45.9138 19.3493 45.9217 19.3869L45.9729 19.6002L46.0753 20.0925C46.1095 20.2894 46.1436 20.5027 46.1948 20.6996C46.3143 21.3231 46.4338 21.9794 46.5362 22.6193C46.5874 22.8819 46.6557 22.9475 46.9117 22.9967C48.1236 23.1772 49.233 23.3905 50.3084 23.6531C50.3443 23.6639 50.3755 23.6859 50.3972 23.7155C50.4188 23.7452 50.4296 23.7809 50.4278 23.8171C50.4286 23.8555 50.4154 23.893 50.3905 23.923C50.3655 23.9529 50.3304 23.9736 50.2913 23.9812L49.8987 24.0469L48.9941 24.2273L48.5332 24.3094L46.8434 24.5883C46.6386 24.6211 46.5874 24.6704 46.5533 24.8673C46.5191 25.0642 46.485 25.3267 46.4338 25.54C46.3773 25.7834 46.3374 26.03 46.3143 26.2784C46.3086 26.328 46.3133 26.3782 46.3279 26.4261C46.3426 26.4739 46.3669 26.5186 46.3996 26.5573C50.1377 29.199 50.0523 33.7934 48.0724 36.7797C47.5432 37.5673 46.9629 38.4041 46.2972 39.3065C44.9147 41.2099 44.3344 43.3594 44.5392 45.8862C44.7099 47.8881 44.8805 49.9555 44.488 52.0065C44.41 52.4736 44.2604 52.927 44.0442 53.352C43.6687 54.0576 43.0201 54.4842 42.3032 54.4842C42.0189 54.4776 41.7394 54.4127 41.4833 54.2938C41.2272 54.175 41.0004 54.0049 40.8182 53.795C40.3739 53.3197 40.0368 52.761 39.8282 52.1542C39.5381 51.301 39.2991 50.4149 39.0772 49.5781C38.9407 49.053 38.7871 48.5116 38.6334 47.9701C38.3774 47.084 38.1043 46.3129 37.8312 45.5909C37.6825 45.2232 37.4752 44.88 37.2168 44.5736C37.0781 44.3872 36.8966 44.2341 36.6865 44.1259C36.4763 44.0178 36.2431 43.9576 36.0049 43.9501C35.778 43.9558 35.5562 44.0158 35.3595 44.1247C35.1628 44.2336 34.9974 44.3878 34.8784 44.5736C34.4114 45.2209 34.0542 45.9353 33.8201 46.6903C33.547 47.4943 33.3422 48.3311 33.1374 49.1187C32.9325 49.9063 32.8472 50.2344 32.6936 50.7923C32.5109 51.4738 32.2652 52.1382 31.9596 52.7777C31.7305 53.2456 31.4054 53.6642 31.0038 54.0083C30.647 54.3169 30.1865 54.4917 29.7066 54.5006ZM36.0049 42.5882C36.3057 42.5917 36.6045 42.6359 36.8925 42.7195C37.2916 42.8307 37.6612 43.023 37.9763 43.2835C38.2913 43.5439 38.5446 43.8664 38.7188 44.229C39.2153 45.3376 39.6484 46.4714 40.016 47.6255C40.2379 48.3311 40.4427 49.0694 40.6305 49.775C40.8182 50.4806 40.9548 51.0384 41.1425 51.6619C41.2948 52.0968 41.526 52.5023 41.8253 52.8598C41.8791 52.9368 41.9498 53.0016 42.0323 53.0498C42.1148 53.098 42.2073 53.1283 42.3032 53.1387C42.508 53.1387 42.6958 52.991 42.8153 52.7285C42.9906 52.3352 43.1111 51.9215 43.1737 51.4979C43.4809 49.6766 43.3614 47.8224 43.2249 46.0175V45.9683C43.0371 43.2117 43.6857 40.8489 45.239 38.7487L45.6998 38.1416C46.0924 37.6165 46.5021 37.0914 46.8605 36.5335C47.3873 35.7774 47.7535 34.9286 47.9381 34.036C48.1226 33.1434 48.1218 32.2245 47.9358 31.3321C47.6949 30.0495 46.9944 28.8884 45.9559 28.0505L45.8876 28.2474C45.8765 28.2776 45.8556 28.3035 45.8279 28.3213C45.8002 28.339 45.7672 28.3476 45.734 28.3458H45.6998C45.6607 28.3382 45.6256 28.3175 45.6007 28.2875C45.5757 28.2576 45.5625 28.2201 45.5633 28.1817C45.5633 27.6403 45.1536 27.4434 44.6928 27.2137C43.7149 26.7568 42.6393 26.5264 41.5522 26.5409C40.7427 26.5489 39.9363 26.6369 39.1455 26.8034C38.5249 26.9238 37.9144 27.0883 37.3192 27.2957L36.7388 27.4762C37.7545 28.0702 38.8688 28.492 40.0331 28.7232C40.0736 28.7342 40.1091 28.758 40.1338 28.7907C40.1586 28.8235 40.1712 28.8633 40.1696 28.9037C40.1622 28.943 40.1414 28.9788 40.1105 29.0055C40.0796 29.0323 40.0404 29.0484 39.9989 29.0514H39.5039C38.2921 29.0022 37.0973 28.6412 35.6294 27.9028C34.1615 27.1644 32.6936 26.6886 31.294 26.5737L30.4747 26.5409C28.7507 26.5409 27.3341 27.0168 26.1905 27.9684C23.9715 29.8062 23.3571 32.8089 24.6884 35.467C25.2005 36.5007 25.9003 37.4852 26.583 38.4205L26.8732 38.8307C28.307 40.8161 28.9556 43.0148 28.8532 45.5417C28.8019 47.0184 28.7337 48.7413 28.7678 50.4313C28.8105 51.144 28.9423 51.8492 29.1604 52.5316C29.2069 52.6575 29.2792 52.7732 29.3731 52.8718C29.4669 52.9705 29.5803 53.0501 29.7066 53.1059H29.8431C30.0821 53.1059 30.2869 52.8762 30.4064 52.6464C30.7172 52.0983 30.9688 51.521 31.1574 50.9236C31.3793 50.2016 31.5671 49.4468 31.7548 48.7249C31.8572 48.2983 31.9596 47.8552 32.0791 47.4286C32.4205 46.1324 32.7619 44.9838 33.5129 43.9337C34.2639 42.8835 35.032 42.5882 36.0049 42.5882Z" fill="#161616"/>
<path d="M45.2341 26.0633C45.1488 25.5874 45.0976 25.1608 44.9781 24.7506C44.9477 24.6788 44.8989 24.6156 44.8362 24.5668C44.7735 24.518 44.699 24.4853 44.6197 24.4717C43.5785 24.2584 42.5373 24.0943 41.4961 23.9138C41.3703 23.8863 41.2531 23.83 41.1547 23.7497C42.2813 23.5528 43.3907 23.3395 44.5002 23.1754C44.8245 23.1098 44.9781 23.0113 45.0293 22.6832C45.2171 21.6002 45.439 20.5173 45.7291 19.4343L45.8827 20.1235C46.0364 20.9767 46.207 21.8135 46.3436 22.6668C46.3948 22.9785 46.5143 23.1098 46.8727 23.1754C47.9822 23.3395 49.1087 23.5528 50.2352 23.8317L48.938 24.0779C48.2211 24.2091 47.5043 24.3404 46.7874 24.4388C46.674 24.4469 46.5678 24.4949 46.489 24.5736C46.4103 24.6523 46.3646 24.7563 46.3607 24.8655C46.2924 25.3413 46.1729 25.8007 46.1217 26.2766C46.116 26.354 46.1267 26.4317 46.1531 26.505C46.1795 26.5783 46.2211 26.6457 46.2753 26.7032C49.8939 29.2465 49.8426 33.7587 47.9139 36.6958C47.3336 37.5654 46.7532 38.4023 46.1388 39.2391C44.6709 41.2409 44.1588 43.4724 44.3466 45.9172C44.5173 47.9355 44.6879 49.9701 44.2954 51.9883C44.2156 52.4424 44.072 52.884 43.8686 53.301C43.2542 54.4824 41.8375 54.6957 40.9329 53.7112C40.5024 53.2504 40.1769 52.7083 39.977 52.1196C39.5162 50.7413 39.1748 49.3302 38.7651 47.9519C38.5441 47.1397 38.2763 46.3399 37.9629 45.5563C37.8182 45.1648 37.5981 44.803 37.3143 44.4897C36.5633 43.5873 35.4026 43.5545 34.7199 44.4897C34.2478 45.1566 33.8798 45.8863 33.6275 46.6556C33.1837 48.0011 32.8936 49.3958 32.501 50.7577C32.3237 51.4333 32.0837 52.0922 31.7841 52.7267C31.5632 53.1673 31.2561 53.5628 30.8795 53.8917C29.9748 54.6464 28.6947 54.4331 28.2168 53.383C27.8528 52.6186 27.6443 51.7943 27.6023 50.9546C27.534 49.0512 27.6364 47.1479 27.7047 45.2445C27.773 43.3412 27.3292 41.3722 26.1685 39.6821C25.4858 38.6812 24.7177 37.7459 24.0862 36.7286C22.6524 34.4807 22.294 32.0851 23.3522 29.6239C24.547 26.8016 27.4828 25.21 30.7258 25.4726C32.5618 25.6105 34.3305 26.1979 35.8635 27.179C36.0683 27.3103 36.239 27.4251 36.5121 27.2282C39.1748 25.3577 42.0594 24.9147 45.2341 26.0633ZM39.977 28.8855H39.482C38.1165 28.8363 36.8876 28.3604 35.6928 27.7533C34.498 27.1462 32.8594 26.5391 31.2891 26.4078C29.3433 26.2766 27.5682 26.5883 26.0491 27.8354C23.8131 29.6895 23.1303 32.7906 24.5129 35.5472C25.1103 36.7286 25.9296 37.828 26.7147 38.9273C28.1485 40.9127 28.763 43.1114 28.6605 45.5234C28.5923 47.1643 28.5411 48.7887 28.5752 50.4295C28.619 51.1595 28.7566 51.8815 28.9848 52.579C29.0391 52.728 29.1247 52.8646 29.2363 52.9803C29.3479 53.0961 29.4831 53.1885 29.6335 53.2517C30.0431 53.383 30.3674 53.0712 30.5381 52.7431C30.8433 52.1789 31.1002 51.5917 31.3062 50.9874C31.6475 49.8388 31.9036 48.6574 32.2279 47.476C32.5522 46.2946 32.8936 45.0804 33.6275 44.0467C34.3615 43.013 35.6075 42.5043 36.8193 42.8653C37.1944 42.9702 37.5413 43.1522 37.836 43.3987C38.1307 43.6452 38.3662 43.9502 38.5262 44.2928C39.0322 45.394 39.471 46.5226 39.8405 47.6729C40.2672 49.002 40.5573 50.3639 40.967 51.7094C41.1178 52.1632 41.3551 52.586 41.6668 52.9564C42.0935 53.4814 42.6568 53.3994 42.9469 52.7923C43.1314 52.3838 43.2577 51.9534 43.3225 51.5125C43.6468 49.6747 43.5102 47.8042 43.3737 45.9665C43.1859 43.3576 43.7833 40.9784 45.3707 38.8453C45.9169 38.1069 46.4801 37.385 46.9922 36.6302C48.0667 35.0579 48.4588 33.144 48.0846 31.2975C47.8216 29.8992 47.0315 28.6432 45.8657 27.7697C45.7974 27.9338 45.7633 28.0651 45.7121 28.1799C45.7121 27.54 45.2341 27.3103 44.7562 27.0642C42.9299 26.1945 41.0011 26.2766 39.0894 26.6375C38.1848 26.8016 37.3143 27.1298 36.3073 27.4251C37.425 28.1278 38.6697 28.6231 39.977 28.8855Z" fill="#161616"/>
<path d="M25.8807 50.0039C25.6247 50.0039 25.4199 49.8398 25.2321 49.6922L25.1297 49.6101C20.1969 45.869 17.8073 40.963 18.0121 35.0232C18.1705 31.0116 19.7965 27.1824 22.6036 24.2101C25.416 21.2196 29.2243 19.2644 33.3738 18.6806C34.2611 18.5552 35.1569 18.4948 36.0536 18.5001C38.6138 18.5073 41.1436 19.0328 43.4784 20.0424L43.7857 20.1901C43.8926 20.2287 43.9901 20.2879 44.0723 20.3641C44.1545 20.4403 44.2196 20.5318 44.2636 20.6331C44.2893 20.7179 44.2965 20.8068 44.2848 20.8943C44.273 20.9819 44.2426 21.0661 44.1953 21.1418C44.1464 21.2409 44.069 21.3245 43.9722 21.3827C43.8754 21.4409 43.7633 21.4711 43.6491 21.47C43.5036 21.4618 43.36 21.4342 43.2224 21.3879L42.3007 21.0433C41.4654 20.7155 40.6105 20.4361 39.7404 20.2065C38.5043 19.9253 37.2385 19.7821 35.9683 19.7799C27.929 19.7799 20.8797 25.4736 19.5995 33.0378C19.48 33.6777 19.4288 34.334 19.3605 34.8919C19.3492 35.1216 19.3321 35.3349 19.3093 35.5318C19.463 41.0778 21.6477 45.344 25.949 48.5764C26.3587 48.8881 26.5464 49.1179 26.5635 49.3476C26.569 49.4239 26.5564 49.5004 26.5269 49.5714C26.4973 49.6424 26.4515 49.7061 26.3928 49.7578C26.329 49.8297 26.2507 49.8885 26.1628 49.9308C26.0748 49.9731 25.9789 49.998 25.8807 50.0039Z" fill="#161616"/>
<path d="M19.1437 35.5143C19.2973 41.1095 21.4991 45.4249 25.8516 48.7066C26.3978 49.1168 26.5344 49.3793 26.2613 49.6418C25.9882 49.9044 25.5444 49.7075 25.2372 49.4778C20.3897 45.8023 17.983 40.9783 18.1878 35.0385C18.4609 26.8836 24.9811 20.0085 33.3959 18.8435C36.8024 18.3525 40.2839 18.8257 43.4152 20.2054L43.7224 20.3367C44.0467 20.4844 44.2516 20.7141 44.0467 21.0587C43.8419 21.4032 43.603 21.3376 43.2787 21.2227C42.118 20.8125 40.9744 20.3367 39.7967 20.0578C30.4943 17.8919 20.97 23.9629 19.4338 33.0039C19.2802 33.9227 19.212 34.858 19.1437 35.5143Z" fill="#161616"/>
<path d="M46.0637 50.0052C45.9615 50.0008 45.8618 49.9732 45.7728 49.9248C45.6839 49.8763 45.6081 49.8083 45.5516 49.7262C45.3127 49.4145 45.3809 49.0699 45.7223 48.791L46.0978 48.5284L46.9854 47.8229C53.608 42.1128 54.5638 33.0062 49.2726 26.164L49.2214 26.0984C49.1856 26.041 49.1457 25.9862 49.1019 25.9343C49.0212 25.854 48.9584 25.7588 48.9173 25.6544C48.8762 25.55 48.8577 25.4387 48.8629 25.3272C48.8795 25.2433 48.9138 25.1637 48.9638 25.0931C49.0137 25.0226 49.0781 24.9626 49.1531 24.917C49.2691 24.8259 49.413 24.774 49.5627 24.7693C49.8017 24.7693 50.0065 24.9006 50.1943 25.1631L50.6551 25.803C51.0477 26.3609 51.4403 26.9352 51.7987 27.5259C53.3008 30.1348 53.9835 32.8914 54.0006 36.452C53.847 41.6042 51.4232 46.1328 46.9513 49.5457L46.5416 49.8411C46.4018 49.9385 46.236 49.9954 46.0637 50.0052Z" fill="#161616"/>
<path d="M53.8294 36.4517C53.6928 41.3906 51.3885 45.9357 46.8312 49.4142L46.4387 49.7096C46.1656 49.8901 45.8925 49.8901 45.6876 49.6275C45.4828 49.365 45.5682 49.1189 45.8413 48.922C46.1144 48.7251 46.6947 48.2821 47.1043 47.9375C53.744 42.2274 54.7169 32.9239 49.4086 26.0653L49.2379 25.8356C48.9989 25.5566 48.9307 25.2613 49.255 25.048C49.5793 24.8347 49.8524 24.9659 50.0401 25.2449C50.5863 26.0325 51.1667 26.7872 51.6446 27.6077C53.1125 30.1509 53.8123 32.9075 53.8294 36.4517Z" fill="#161616"/>
<path d="M35.9647 53.1551L33.4727 52.9418C33.3606 52.9441 33.2493 52.9234 33.1463 52.8809C33.0432 52.8385 32.9509 52.7753 32.8753 52.6957C32.8178 52.6275 32.7759 52.5484 32.7524 52.4635C32.7288 52.3787 32.7242 52.2901 32.7388 52.2034C32.7729 51.9573 32.9095 51.6455 33.4215 51.6455H33.6434C34.4244 51.7437 35.2112 51.793 35.9989 51.7932C36.7922 51.7931 37.5847 51.7437 38.3714 51.6455H38.5762C38.657 51.6388 38.7383 51.6475 38.8156 51.6711C38.8928 51.6947 38.9644 51.7327 39.0263 51.7831C39.0882 51.8334 39.1391 51.895 39.1761 51.9643C39.2131 52.0337 39.2355 52.1093 39.2419 52.187C39.2662 52.3648 39.2238 52.5451 39.1224 52.6957C38.9649 52.8502 38.7501 52.9387 38.525 52.9418L36.6816 53.1059L35.9818 53.1551H35.9647Z" fill="#161616"/>
<path d="M35.9646 52.9897L33.4896 52.7764C33.1312 52.76 32.8752 52.6123 32.9093 52.2185C32.9434 51.8247 33.2677 51.7919 33.6091 51.8247C35.1945 52.038 36.803 52.038 38.3883 51.8247C38.7297 51.7755 39.0199 51.8411 39.0711 52.2021C39.1223 52.5631 38.8833 52.7436 38.5078 52.7764L35.9646 52.9897Z" fill="#161616"/>
<path d="M48.6293 22.5678C48.5902 22.5658 48.5527 22.552 48.5221 22.5285C48.4914 22.5049 48.4693 22.4728 48.4586 22.4365C48.4245 22.2888 48.4074 22.1576 48.3733 22.0263C48.3092 21.7939 48.2579 21.5584 48.2197 21.3208C48.2026 21.1403 48.1514 21.0746 47.9466 21.0418L47.2638 20.9105L46.9566 20.8449C46.9306 20.8385 46.9065 20.8263 46.8862 20.8093C46.866 20.7922 46.8503 20.7709 46.8403 20.7469C46.8304 20.7229 46.8264 20.697 46.8288 20.6712C46.8312 20.6455 46.8399 20.6207 46.8542 20.5988L46.8883 20.5496C46.9164 20.4955 46.9654 20.4542 47.0249 20.4347L47.4516 20.3527C47.7417 20.3034 48.0319 20.2542 48.1685 20.1065C48.305 19.9589 48.3391 19.6963 48.3733 19.4338C48.3877 19.2959 48.4105 19.1589 48.4416 19.0236C48.4498 18.9919 48.4669 18.9629 48.4909 18.9398C48.515 18.9167 48.5451 18.9003 48.5781 18.8923H48.7317C48.7659 18.8923 48.8171 18.8923 48.8341 18.9252C48.8564 18.9394 48.8745 18.959 48.8864 18.9821C48.8984 19.0051 48.9039 19.0307 48.9024 19.0564C48.8683 19.5651 48.9707 19.9261 49.1755 20.1394C49.2742 20.2317 49.3922 20.3029 49.5217 20.3482C49.6512 20.3934 49.7891 20.4117 49.9265 20.4019L50.302 20.3691H50.3362C50.3612 20.3681 50.3862 20.372 50.4096 20.3804C50.4331 20.3889 50.4545 20.4018 50.4727 20.4183C50.4881 20.4457 50.4976 20.4758 50.5006 20.5069C50.5035 20.5379 50.4998 20.5692 50.4898 20.5988L50.4215 20.7465C50.4102 20.7702 50.3936 20.7913 50.373 20.8083C50.3524 20.8253 50.3282 20.8378 50.302 20.8449L50.046 20.9105L49.4315 21.0254C49.1414 21.0582 49.039 21.1567 49.0219 21.4028C48.9978 21.6252 48.9521 21.8449 48.8853 22.0591C48.8683 22.174 48.8341 22.2888 48.8 22.4365C48.7894 22.4728 48.7672 22.5049 48.7366 22.5285C48.706 22.552 48.6685 22.5658 48.6293 22.5678Z" fill="#161616"/>
<path d="M48.7273 19.0564C48.6761 20.1065 49.1028 20.7136 50.3318 20.5331L50.2635 20.6808C49.9771 20.7566 49.6865 20.8169 49.393 20.8613C49.0687 20.8941 48.8809 21.0254 48.8468 21.3864C48.8004 21.7305 48.7263 22.0706 48.6249 22.4037C48.5225 21.9442 48.4372 21.6325 48.386 21.3043C48.3347 20.9762 48.2153 20.9269 47.9592 20.8777L46.9863 20.6972C47.0375 20.6316 47.0546 20.5988 47.0717 20.5988C47.4813 20.4839 48.0275 20.4839 48.2835 20.2214C48.5396 19.9589 48.5054 19.4666 48.6078 19.0564H48.7273Z" fill="#161616"/>
</g>
<defs>
<filter id="filter0_d_32_10080" x="0" y="0.5" width="76" height="76" filterUnits="userSpaceOnUse" color-interpolation-filters="sRGB">
<feFlood flood-opacity="0" result="BackgroundImageFix"/>
<feColorMatrix in="SourceAlpha" type="matrix" values="0 0 0 0 0 0 0 0 0 0 0 0 0 0 0 0 0 0 127 0" result="hardAlpha"/>
<feOffset dx="2" dy="2"/>
<feGaussianBlur stdDeviation="4"/>
<feComposite in2="hardAlpha" operator="out"/>
<feColorMatrix type="matrix" values="0 0 0 0 0 0 0 0 0 0 0 0 0 0 0 0 0 0 0.04 0"/>
<feBlend mode="normal" in2="BackgroundImageFix" result="effect1_dropShadow_32_10080"/>
<feBlend mode="normal" in="SourceGraphic" in2="effect1_dropShadow_32_10080" result="shape"/>
</filter>
</defs>
</svg>
