<svg width="40" height="40" viewBox="0 0 40 40" fill="none" xmlns="http://www.w3.org/2000/svg">
<path d="M20 40C31.0457 40 40 31.0457 40 20C40 8.95431 31.0457 0 20 0C8.95431 0 0 8.95431 0 20C0 31.0457 8.95431 40 20 40Z" fill="#100E10"/>
<path d="M27.1475 19.9202C27.1975 20.8502 27.2175 21.7202 27.1075 22.5902C26.9475 23.8302 26.5375 25.0002 26.2075 26.1902C25.8775 27.3802 25.5375 28.5502 25.2075 29.7302C25.1755 29.8578 25.1587 29.9887 25.1575 30.1202C25.1475 30.5802 25.1575 31.0302 25.1575 31.5002H16.4674C16.4674 31.3302 16.4574 31.1602 16.4674 30.9802C16.5275 30.2402 16.2975 29.6002 15.9075 28.9702C15.0175 27.5802 14.1675 26.1502 13.2975 24.7402C13.0559 24.365 12.8963 23.943 12.8291 23.5018C12.7619 23.0607 12.7886 22.6103 12.9075 22.1802C13.2175 21.0102 13.6975 19.9102 14.4575 18.9602C15.0375 18.2302 15.7475 17.9902 16.6475 18.2402C17.5475 18.4902 18.5975 18.7602 19.5675 19.0202C20.0975 19.1702 20.2875 19.5502 20.1075 20.0702C19.9581 20.4722 19.6563 20.7992 19.2674 20.9802C18.6674 21.2902 18.0275 21.3702 17.3775 21.4202L16.8175 21.4402C16.6374 21.4402 16.4875 21.4902 16.4475 21.6902C16.4075 21.8902 16.5175 21.9702 16.6575 22.0602C17.2975 22.4702 17.9574 22.8602 18.5675 23.3002C19.0302 23.6566 19.471 24.0406 19.8874 24.4502C20.3641 24.9153 20.7506 25.4645 21.0275 26.0702C21.1175 26.2802 21.2875 26.3602 21.4575 26.2802C21.6275 26.2002 21.6775 26.0302 21.5875 25.8202C21.213 24.9871 20.6559 24.2488 19.9575 23.6602C19.3575 23.1302 18.7075 22.6702 18.0775 22.1802L17.8374 22.0202L18.5874 21.8802C19.3474 21.7002 20.0375 21.4002 20.4775 20.7002C20.6075 20.4902 20.6875 20.2502 20.7975 20.0302C21.7075 21.2802 23.3075 21.0802 24.0275 19.9802C24.4275 20.4702 24.9375 20.7502 25.5675 20.7502C26.1975 20.7502 26.7175 20.4702 27.1475 19.9202Z" fill="white"/>
<path d="M23.7878 17.0799L23.6678 19.0699C23.6497 19.3745 23.5225 19.6624 23.3094 19.881C23.0964 20.0995 22.8119 20.234 22.5078 20.2599C21.8878 20.3099 21.2978 19.9199 21.1878 19.3199C21.1278 18.9699 21.1578 18.5899 21.1778 18.2299C21.2278 17.2699 21.2878 16.3199 21.3478 15.3699C21.3523 15.1984 21.3724 15.0277 21.4078 14.8599C21.4835 14.5625 21.6661 14.3034 21.9205 14.1319C22.175 13.9604 22.4837 13.8885 22.7878 13.9299C23.4478 14.0199 23.9178 14.5399 23.8978 15.1999C23.8778 15.8599 23.8278 16.4599 23.7878 17.0799Z" fill="white"/>
<path d="M26.9874 16.3301C26.9374 17.1801 26.8974 18.0301 26.8374 18.8801C26.7974 19.5201 26.4074 19.9801 25.8274 20.1101C25.5582 20.1678 25.2774 20.1343 25.0294 20.0148C24.7813 19.8953 24.5801 19.6966 24.4574 19.4501C24.3567 19.2345 24.3087 18.998 24.3174 18.7601C24.3574 17.8301 24.4174 16.9001 24.4774 15.9701C24.484 15.6359 24.6232 15.3181 24.8641 15.0865C24.9835 14.9718 25.1242 14.8817 25.2783 14.8215C25.4325 14.7612 25.597 14.7318 25.7624 14.7351C25.9279 14.7384 26.0911 14.7742 26.2427 14.8406C26.3943 14.9069 26.5314 15.0025 26.6461 15.1218C26.7607 15.2412 26.8508 15.3819 26.9111 15.536C26.9714 15.6902 27.0007 15.8546 26.9974 16.0201C27.0074 16.1201 26.9974 16.2301 26.9974 16.3301H26.9874Z" fill="white"/>
<path d="M20.4811 18.8602C20.2011 18.5202 19.8111 18.4402 19.4211 18.3402L18.0311 17.9602C18.0261 17.8903 18.0261 17.8201 18.0311 17.7502C18.0611 16.7302 18.0911 15.7102 18.1311 14.6902C18.1611 14.0302 18.5211 13.5502 19.0811 13.4102C19.2694 13.3586 19.4672 13.3518 19.6586 13.3904C19.85 13.429 20.0297 13.5118 20.1833 13.6324C20.3369 13.7529 20.4601 13.9078 20.5431 14.0845C20.6261 14.2613 20.6665 14.455 20.6611 14.6502C20.6511 15.6602 20.5911 16.6802 20.5611 17.6902C20.5511 18.0702 20.5611 18.4502 20.5611 18.8302L20.4811 18.8602Z" fill="white"/>
<path d="M17.3079 17.78C16.4479 17.5 15.6179 17.36 14.7979 17.84C14.7875 17.7872 14.7808 17.7337 14.7779 17.68C14.7779 16.85 14.7679 16.01 14.7779 15.17C14.7789 14.8725 14.885 14.5851 15.0775 14.3584C15.2701 14.1317 15.5366 13.9804 15.8299 13.9313C16.1232 13.8823 16.4245 13.9385 16.6803 14.0902C16.9362 14.2418 17.1301 14.4791 17.2279 14.76C17.2711 14.8648 17.2949 14.9766 17.2979 15.09C17.3079 15.97 17.3079 16.85 17.3079 17.78Z" fill="white"/>
<path d="M26.0683 11.1899C25.9683 11.1199 25.8383 11.0699 25.8183 10.9799C25.7851 10.8592 25.7994 10.7304 25.8583 10.6199C26.2183 10.0999 26.5983 9.59991 26.9783 9.09991C27.0292 9.01919 27.086 8.94231 27.1483 8.86991C27.1718 8.838 27.2016 8.81125 27.2358 8.79132C27.2701 8.77138 27.3081 8.75867 27.3474 8.75399C27.3868 8.7493 27.4267 8.75273 27.4647 8.76407C27.5027 8.77541 27.5379 8.79442 27.5683 8.81991C27.6053 8.8397 27.6374 8.86757 27.6623 8.90146C27.6871 8.93535 27.704 8.97439 27.7116 9.01568C27.7193 9.05698 27.7176 9.09947 27.7066 9.14002C27.6957 9.18057 27.6757 9.21812 27.6483 9.24991C27.2183 9.84991 26.7783 10.4399 26.3283 11.0299C26.2783 11.0999 26.1783 11.1299 26.0683 11.1899Z" fill="white"/>
<path d="M12.6497 8.75C12.7283 8.78226 12.7997 8.82986 12.8597 8.89L14.1597 10.63C14.187 10.6637 14.2072 10.7026 14.219 10.7444C14.2308 10.7861 14.234 10.8298 14.2284 10.8729C14.2228 10.9159 14.2085 10.9573 14.1863 10.9947C14.1642 11.032 14.1347 11.0644 14.0997 11.09C14.0655 11.1161 14.0263 11.1348 13.9846 11.145C13.9428 11.1551 13.8994 11.1565 13.8571 11.149C13.8148 11.1415 13.7745 11.1252 13.7388 11.1013C13.7031 11.0774 13.6727 11.0463 13.6497 11.01C13.2197 10.43 12.7797 9.85 12.3597 9.26C12.1997 9.05 12.3397 8.76 12.6497 8.75Z" fill="white"/>
<path d="M30.0198 16.46C29.927 16.3906 29.843 16.3099 29.7698 16.22C29.6998 16.07 29.7698 15.94 29.8998 15.85C29.9655 15.813 30.0363 15.7861 30.1098 15.77L31.9398 15.13C32.1998 15.04 32.3798 15.11 32.4398 15.31C32.4998 15.51 32.3998 15.65 32.1498 15.73L30.2698 16.38L30.0198 16.46Z" fill="white"/>
<path d="M7.79945 15.0601L8.04945 15.1301L9.94945 15.7901C10.1994 15.8701 10.2994 16.0201 10.2294 16.2201C10.1594 16.4201 9.99945 16.4701 9.74945 16.3901L7.78945 15.7101C7.60945 15.6501 7.49945 15.5201 7.55945 15.3401C7.61945 15.1601 7.71945 15.1401 7.79945 15.0601Z" fill="white"/>
<path d="M20.3072 7.63999C20.3072 7.99 20.3172 8.34999 20.3072 8.69999C20.2972 9.04999 20.1872 9.04999 19.9972 9.04999C19.8072 9.04999 19.6872 8.91999 19.6872 8.69999C19.6772 7.98999 19.6772 7.28 19.6872 6.58C19.6872 6.36 19.8172 6.21999 20.0072 6.22999C20.1972 6.23999 20.3072 6.36999 20.3072 6.56999C20.3172 6.92999 20.3072 7.29 20.3072 7.63999Z" fill="white"/>
<path d="M7.85922 22.1299H8.90922C9.12922 22.1299 9.26922 22.2499 9.26922 22.4399C9.26922 22.6299 9.13922 22.7599 8.91922 22.7599H6.79922C6.57922 22.7599 6.44922 22.6299 6.44922 22.4399C6.44922 22.2499 6.57922 22.1399 6.80922 22.1299H7.85922Z" fill="white"/>
<path d="M32.1407 22.1299H33.1907C33.4207 22.1399 33.5507 22.2499 33.5507 22.4399C33.5507 22.6299 33.4207 22.7599 33.2007 22.7599H31.0707C31.0267 22.7642 30.9822 22.759 30.9404 22.7448C30.8985 22.7305 30.8602 22.7074 30.828 22.6771C30.7958 22.6468 30.7705 22.6099 30.7537 22.569C30.7369 22.5281 30.729 22.4841 30.7307 22.4399C30.7307 22.2499 30.8707 22.1299 31.0907 22.1299H32.1407Z" fill="white"/>
</svg>
