<svg width="40" height="40" viewBox="0 0 40 40" fill="none" xmlns="http://www.w3.org/2000/svg">
<path d="M23.5912 15.6103C23.4322 15.6117 23.2765 15.6566 23.1412 15.7403C23.0076 15.8321 22.9035 15.9606 22.8412 16.1103C22.7836 16.257 22.7701 16.4174 22.8023 16.5717C22.8345 16.726 22.911 16.8676 23.0225 16.9791C23.1339 17.0905 23.2755 17.1671 23.4298 17.1992C23.5841 17.2314 23.7445 17.2179 23.8912 17.1603C24.0409 17.0981 24.1694 16.9939 24.2612 16.8603C24.3449 16.725 24.3899 16.5693 24.3912 16.4103C24.3926 16.3048 24.3728 16.2002 24.3331 16.1025C24.2934 16.0049 24.2345 15.9161 24.1599 15.8416C24.0854 15.767 23.9966 15.7082 23.899 15.6684C23.8013 15.6287 23.6967 15.6089 23.5912 15.6103ZM26.6812 17.2303C26.6633 16.6741 26.5587 16.1242 26.3712 15.6003C26.1989 15.1526 25.933 14.7469 25.5912 14.4103C25.2567 14.0684 24.8502 13.8054 24.4012 13.6403C23.8792 13.4449 23.3285 13.3368 22.7712 13.3203C22.0512 13.2803 21.8312 13.2803 20.0012 13.2803C18.1712 13.2803 17.9412 13.2803 17.2312 13.3203C16.674 13.3368 16.1233 13.4449 15.6012 13.6403C15.1542 13.8091 14.7485 14.0717 14.4113 14.4103C14.0694 14.7448 13.8063 15.1513 13.6412 15.6003C13.4459 16.1224 13.3378 16.6731 13.3212 17.2303C13.2812 17.9403 13.2812 18.1703 13.2812 20.0003C13.2812 21.8303 13.2812 22.0503 13.3212 22.7703C13.3378 23.3275 13.4459 23.8782 13.6412 24.4003C13.8063 24.8492 14.0694 25.2557 14.4113 25.5903C14.7485 25.9289 15.1542 26.1914 15.6012 26.3603C16.1233 26.5556 16.674 26.6638 17.2312 26.6803C17.9412 26.7203 18.1712 26.7203 20.0012 26.7203C21.8312 26.7203 22.0512 26.7203 22.7712 26.6803C23.3285 26.6638 23.8792 26.5556 24.4012 26.3603C24.8502 26.1952 25.2567 25.9321 25.5912 25.5903C25.933 25.2536 26.1989 24.8479 26.3712 24.4003C26.5587 23.8764 26.6633 23.3264 26.6812 22.7703C26.6812 22.0503 26.7212 21.8303 26.7212 20.0003C26.7212 18.1703 26.7212 17.9403 26.6812 17.2303ZM25.4712 22.6903C25.4587 23.1162 25.3812 23.5378 25.2412 23.9403C25.1265 24.2285 24.9536 24.49 24.7334 24.7085C24.5132 24.9269 24.2503 25.0978 23.9612 25.2103C23.5605 25.3568 23.1379 25.4345 22.7112 25.4403C22.0412 25.4703 21.7912 25.4803 20.0312 25.4803C18.2712 25.4803 18.0112 25.4803 17.3412 25.4403C16.8996 25.4489 16.4599 25.3812 16.0412 25.2403C15.7625 25.1223 15.5107 24.9487 15.3012 24.7303C15.0796 24.5138 14.9088 24.2508 14.8012 23.9603C14.6418 23.5547 14.5506 23.1256 14.5312 22.6903C14.5312 22.0103 14.4912 21.7703 14.4912 20.0003C14.4912 18.2303 14.4912 17.9903 14.5312 17.3103C14.5413 16.8767 14.6224 16.4477 14.7712 16.0403C14.8877 15.7556 15.0692 15.5022 15.3012 15.3003C15.5047 15.0675 15.7575 14.883 16.0412 14.7603C16.4492 14.6147 16.8782 14.537 17.3112 14.5303C17.9912 14.5303 18.2312 14.4903 20.0012 14.4903C21.7712 14.4903 22.0112 14.4903 22.6912 14.5303C23.1172 14.5428 23.5387 14.6203 23.9412 14.7603C24.242 14.8783 24.5121 15.0629 24.7312 15.3003C24.9529 15.507 25.1269 15.7595 25.2412 16.0403C25.3868 16.4482 25.4645 16.8772 25.4712 17.3103C25.5012 17.9903 25.5112 18.2303 25.5112 20.0003C25.5112 21.7703 25.5012 22.0103 25.4712 22.6903ZM20.0012 16.5503C19.3208 16.5571 18.657 16.7621 18.0912 17.1403C17.5235 17.5195 17.0814 18.059 16.8212 18.6903C16.5593 19.3194 16.4931 20.0129 16.6312 20.6803C16.731 21.1797 16.9405 21.6508 17.2445 22.0595C17.5485 22.4682 17.9394 22.8043 18.3891 23.0435C18.8388 23.2827 19.336 23.419 19.8448 23.4427C20.3536 23.4663 20.8613 23.3767 21.3312 23.1803C21.9587 22.9181 22.4946 22.4764 22.8718 21.9107C23.249 21.3449 23.4506 20.6803 23.4512 20.0003C23.45 19.5477 23.3617 19.0995 23.1912 18.6803C23.0187 18.2605 22.7637 17.8796 22.4412 17.5603C22.1214 17.2391 21.7412 16.9844 21.3223 16.811C20.9035 16.6377 20.4545 16.5491 20.0012 16.5503ZM20.0012 22.2403C19.5592 22.2405 19.1273 22.1081 18.7612 21.8603C18.3942 21.6137 18.106 21.2665 17.9312 20.8603C17.7619 20.4488 17.72 19.9958 17.8112 19.5603C17.8975 19.1284 18.1098 18.7317 18.4212 18.4202C18.7326 18.1088 19.1293 17.8965 19.5612 17.8103C19.9968 17.7191 20.4497 17.7609 20.8612 17.9303C21.2674 18.1051 21.6146 18.3932 21.8612 18.7603C22.1091 19.1263 22.2414 19.5582 22.2412 20.0003C22.2412 20.5944 22.0052 21.1641 21.5852 21.5842C21.1651 22.0043 20.5953 22.2403 20.0012 22.2403Z" fill="white"/>
<path d="M20 1.2C22.5147 1.19614 25.0043 1.69951 27.32 2.68C31.8212 4.59452 35.4055 8.17877 37.32 12.68C38.2969 14.9968 38.8002 17.4857 38.8002 20C38.8002 22.5143 38.2969 25.0032 37.32 27.32C35.4055 31.8212 31.8212 35.4055 27.32 37.32C25.0032 38.2969 22.5143 38.8002 20 38.8002C17.4857 38.8002 14.9968 38.2969 12.68 37.32C8.17878 35.4055 4.59453 31.8212 2.68001 27.32C1.70311 25.0032 1.19982 22.5143 1.19982 20C1.19982 17.4857 1.70311 14.9968 2.68001 12.68C4.59453 8.17877 8.17878 4.59452 12.68 2.68C14.9957 1.69951 17.4853 1.19614 20 1.2ZM20 2.50273e-06C16.0444 2.50273e-06 12.1776 1.17298 8.8886 3.37061C5.59962 5.56824 3.03617 8.69181 1.52242 12.3463C0.00866565 16.0009 -0.387401 20.0222 0.384303 23.9018C1.15601 27.7814 3.06082 31.3451 5.85787 34.1421C8.65492 36.9392 12.2186 38.844 16.0982 39.6157C19.9778 40.3874 23.9991 39.9913 27.6537 38.4776C31.3082 36.9638 34.4318 34.4004 36.6294 31.1114C38.827 27.8224 40 23.9556 40 20C40.0013 17.3732 39.4849 14.7719 38.4803 12.3448C37.4756 9.91767 36.0025 7.71237 34.1451 5.85493C32.2876 3.9975 30.0823 2.52436 27.6552 1.51973C25.2281 0.515106 22.6268 -0.00131189 20 2.50273e-06Z" fill="white"/>
</svg>
