<svg width="24" height="24" viewBox="0 0 24 24" fill="none" xmlns="http://www.w3.org/2000/svg">
<g clip-path="url(#clip0_1310_6656)">
<path d="M13.6683 14.8768C13.9886 14.9637 14.3313 14.9637 14.659 14.9734H14.7856C15.5901 14.9734 16.253 14.2686 16.4244 13.226C16.5212 12.6371 16.5212 12.0192 16.5138 11.4303C16.5138 11.2276 16.5063 11.0056 16.5138 10.7932C16.5138 10.7642 16.5063 10.7449 16.5063 10.7256L16.3499 10.2429C16.2381 9.88568 16.119 9.50918 16.0221 9.14232C15.97 8.9782 15.9178 8.92993 15.7912 8.92993H13.4374C12.7596 8.94924 12.2828 9.57675 12.2828 10.4649C12.2729 11.1922 12.2729 11.9066 12.2828 12.6081C12.2828 13.6797 12.8787 14.6548 13.6683 14.8768Z" fill="white"/>
<path d="M17.5644 9.36436C17.5639 9.39559 17.5561 9.42588 17.5421 9.45125C17.5421 9.46091 17.5719 9.37402 17.5346 9.48987C17.4974 9.60572 17.4601 9.73122 17.4154 9.85672C17.3196 10.1136 17.2519 10.3865 17.2143 10.6677C17.1633 11.3977 17.1758 12.1328 17.2516 12.8591C17.3782 13.9404 17.8698 14.6451 18.6668 14.8961C18.8746 14.9558 19.0873 14.9817 19.3 14.9734H19.6277C20.6035 14.9734 21.3633 14.1335 21.5197 12.8978C21.5522 12.5744 21.5696 12.2488 21.5719 11.9227C21.5793 11.7875 21.6017 11.5172 21.5868 11.5172C21.5719 11.5172 21.5644 11.4979 21.5644 11.4786V11.1117C21.5644 10.8607 21.5719 10.5904 21.557 10.3201C21.5492 9.94957 21.4307 9.59742 21.2264 9.33803C21.0221 9.07863 20.748 8.9323 20.462 8.92993H17.9964C17.7134 8.92993 17.5942 9.05543 17.5644 9.36436Z" fill="white"/>
<path d="M8.06015 9.17141L8.85718 9.56722L9.05829 9.66376C9.25941 9.76031 9.35624 9.91477 9.35624 10.1561C9.35624 10.3975 9.25196 10.5712 9.05829 10.6678L8.75289 10.8029L8.06015 11.1408C8.00172 11.1777 7.95452 11.2389 7.92608 11.3146L7.76965 11.8552C7.71751 12.029 7.66537 12.2124 7.60578 12.3862C7.50894 12.7144 7.40466 13.091 7.4866 13.4964C7.62813 14.2108 8.00056 14.6839 8.55922 14.8673C8.87207 14.9638 9.21472 14.9638 9.54246 14.9735H9.6542C10.5927 14.9735 11.3749 14.1046 11.4866 12.9558C11.5618 12.0644 11.5718 11.1658 11.5164 10.272C11.4938 9.92203 11.3699 9.59613 11.1696 9.35973C10.9692 9.12334 10.7072 8.99398 10.4363 8.99763H7.91863V9.0266L7.94842 9.06521C7.97907 9.11099 8.01726 9.14728 8.06015 9.17141Z" fill="white"/>
<path d="M16.1497 7.01854C16.2688 7.47228 16.4029 7.93567 16.5295 8.37976L16.604 8.62111C16.6562 8.81419 16.7158 8.99762 16.7754 9.20036L16.8275 9.38378C16.8349 9.36447 16.8424 9.35482 16.8424 9.33551L16.9988 8.80454L17.4904 7.0475C17.5198 6.93434 17.5686 6.83127 17.6331 6.74601C17.6976 6.66074 17.7762 6.59549 17.8629 6.55514C18.0565 6.47791 18.2502 6.38137 18.4364 6.28483L18.6301 6.19794L19.4048 5.82143L19.6953 5.67662L19.6357 5.63801L19.2186 5.44492C18.8536 5.27115 18.4215 5.06842 18.1161 4.94291C17.8107 4.81741 17.4904 4.61467 17.4159 4.04508C17.409 3.98727 17.3939 3.93162 17.3713 3.88097L17.3415 3.79408L16.8275 1.98877L16.7754 2.14323L16.6562 2.55836L16.1422 4.37332C16.1173 4.47107 16.0755 4.56015 16.02 4.63376C15.9645 4.70738 15.8967 4.76359 15.8219 4.7981L14.3322 5.50285L14.0565 5.64766L13.9746 5.68628H14.0044L14.1683 5.77316L14.5333 5.94694L15.807 6.5648C15.8872 6.60108 15.9599 6.66091 16.0194 6.73962C16.0788 6.81833 16.1234 6.91379 16.1497 7.01854Z" fill="white"/>
<path d="M22.9342 14.8286C22.9341 14.7472 22.9266 14.6662 22.9118 14.5872C22.8299 14.0755 22.6511 13.8825 22.2489 13.8825H22.0999C22.0329 13.8825 21.9882 13.9307 21.9361 14.0466C21.6316 14.8295 21.1019 15.4259 20.4612 15.7071C20.1405 15.8338 19.8055 15.8893 19.4705 15.8712H19.1204C18.1968 15.8519 17.4593 15.3306 16.9454 14.3072C16.9299 14.268 16.9098 14.2322 16.8858 14.201C16.558 14.9734 16.1111 15.4657 15.5152 15.7167C15.2132 15.8334 14.8991 15.8887 14.5841 15.8808L14.0999 15.8615H14.0329C13.4356 15.8493 12.8639 15.546 12.4314 15.012C12.2895 14.8215 12.1552 14.6218 12.0292 14.4134L11.8802 14.1817L11.8578 14.2203C11.3662 15.2437 10.666 15.8036 9.79453 15.8615C9.6232 15.8808 9.43698 15.8905 9.25076 15.8905C8.95136 15.9001 8.65255 15.8513 8.36436 15.7457C7.82514 15.5398 7.36029 15.0914 7.05337 14.481L6.97143 14.5969L6.74052 14.9058C6.19676 15.5719 5.51892 15.9002 4.66976 15.9002C4.39033 15.9 4.11136 15.8709 3.83549 15.8133C3.05337 15.6685 2.43512 15.0699 1.99564 14.0273C1.97965 13.9778 1.95397 13.9345 1.92115 13.9018C1.84599 13.8747 1.76824 13.8617 1.69024 13.8631C1.40719 13.8631 1.20607 14.0852 1.11669 14.481C1.08716 14.6325 1.07215 14.7881 1.07199 14.9444C1.06454 16.1898 1.06454 17.2421 1.07199 18.2944C1.07336 18.576 1.09329 18.857 1.13158 19.1343C1.2747 20.126 1.68198 21.0211 2.28235 21.6634C2.88272 22.3056 3.63805 22.6542 4.4165 22.6483H19.3737C19.7271 22.658 20.08 22.6094 20.4239 22.5035C21.111 22.2744 21.7236 21.7668 22.1724 21.0548C22.6213 20.3428 22.883 19.4636 22.9193 18.5454C22.9491 17.6765 22.9416 16.798 22.9342 15.9484V14.8286Z" fill="white"/>
<path d="M6.33085 10.2139C6.42768 10.2622 6.53196 10.3201 6.63625 10.3587C6.7258 10.3891 6.8075 10.4498 6.87295 10.5346C6.9384 10.6195 6.98525 10.7254 7.00869 10.8414L7.12787 11.2662L7.16511 11.382C7.17256 11.3434 7.15021 11.411 7.19491 11.2662C7.2396 11.1214 7.27684 10.9959 7.30664 10.8704C7.32924 10.7475 7.37725 10.635 7.44549 10.5448C7.51373 10.4547 7.59964 10.3903 7.69397 10.3587L8.01427 10.2042L8.10366 10.156L8.01427 10.1077L7.69397 9.9629C7.59964 9.93126 7.51373 9.86691 7.44549 9.77676C7.37725 9.68662 7.32924 9.57408 7.30664 9.45123L7.18746 9.04576L7.16511 8.94922C7.14946 8.98932 7.13698 9.03137 7.12787 9.07472C7.09129 9.24644 7.03876 9.41177 6.97144 9.56708C6.90453 9.71791 6.80651 9.84161 6.68839 9.92428C6.57892 9.99938 6.46419 10.0608 6.34574 10.1077L6.22656 10.1656L6.33085 10.2139Z" fill="white"/>
<path d="M23.9926 15.1569V14.8286C23.9926 13.9791 23.6946 13.2454 23.121 12.7241H23.1061C22.9679 12.6083 22.8087 12.5418 22.6443 12.531H22.6369V12.1352C22.6294 11.9421 22.6294 11.749 22.6294 11.5463C22.6294 11.0539 22.6294 10.5422 22.5996 10.0306C22.4953 8.70796 21.5866 7.61705 20.5661 7.58809H18.8007L20.3203 6.87369L20.6182 6.74819C21.1397 6.49718 21.2142 5.98552 21.2142 5.70555C21.2142 5.42558 21.1099 4.94288 20.6257 4.69187L20.2682 4.52776L18.4283 3.64924C18.3315 3.29204 18.2272 2.93483 18.1304 2.59694L17.8845 1.73773C17.7952 1.4288 17.7058 1.11987 17.6238 0.820595C17.4898 0.289622 17.1993 0 16.8268 0C16.6182 0 16.2384 0.0965406 16.0372 0.753017L16 0.897828L15.7765 1.67981C15.5903 2.31697 15.4041 2.97345 15.2253 3.62027L12.9981 4.68222C12.5512 4.89461 12.3352 5.4642 12.4842 6.03379C12.5196 6.19772 12.5879 6.34657 12.6821 6.46526C12.7763 6.58394 12.8931 6.66823 13.0205 6.70957L13.0726 6.72888L14.8082 7.55913H13.3631C12.9153 7.55971 12.4803 7.75329 12.1266 8.10941C12.0463 8.18782 11.9693 8.2716 11.8957 8.36042C11.5159 7.87875 11.0044 7.6115 10.473 7.61706H7.92551C7.91169 7.58251 7.89926 7.54707 7.88827 7.51086C7.76164 7.08608 7.50093 6.83508 7.16574 6.83508C7.00125 6.83712 6.84145 6.90632 6.70906 7.03285C6.57667 7.15937 6.47843 7.33677 6.42831 7.53982L6.38361 7.72325C6.19512 7.6432 6.00019 7.59138 5.80261 7.56878H5.78771L4.72253 7.54948H3.50093C3.01701 7.54877 2.54692 7.75868 2.16603 8.14555C1.78514 8.53242 1.51551 9.07385 1.40037 9.68302C1.35431 9.9659 1.3269 10.2533 1.31844 10.5422V12.5406H1.19181C1.06973 12.5495 0.952706 12.6068 0.856611 12.7047L0.841713 12.7241L0.685289 12.9171C0.525011 13.1046 0.384731 13.3188 0.268156 13.5543C0.111732 13.8825 0.00744879 14.4714 0 14.8576V18.1883C0 19.7522 0.402235 21.0941 1.19926 22.185C1.99628 23.2759 3.01676 23.9228 4.11918 23.971C4.54376 23.9903 5.02048 24 5.57169 24H19.2328C19.7765 24 20.4097 23.9807 21.0354 23.6911C22.7263 22.9574 23.9702 20.7659 23.9926 18.4972C24.0074 17.3677 24 16.1899 23.9926 15.1569ZM23.6201 18.4875C23.5978 20.5632 22.4581 22.5615 20.9162 23.2373C20.3352 23.498 19.7393 23.5173 19.2328 23.5173H5.57169C5.01304 23.5173 4.55121 23.5076 4.13408 23.4883C3.11359 23.4401 2.19739 22.8608 1.46741 21.8568C0.73743 20.8528 0.372439 19.6171 0.372439 18.1883V14.8673C0.379888 14.5294 0.476723 14.037 0.581006 13.8246C0.684132 13.6218 0.806784 13.4369 0.945996 13.2743L1.08752 13.0909C1.12077 13.0541 1.16296 13.0336 1.2067 13.033H1.2514L1.69088 12.9751V10.5519C1.69688 10.2952 1.72182 10.0398 1.76536 9.78922C1.8633 9.28651 2.08799 8.8406 2.40377 8.52228C2.71956 8.20395 3.10833 8.03146 3.50838 8.03218H4.72253L5.77281 8.05149C5.97222 8.07035 6.1682 8.12896 6.35382 8.22526L6.59963 8.3218L6.64432 8.18665C6.68901 8.03218 6.74115 7.85841 6.78585 7.68463C6.81002 7.57845 6.86012 7.48529 6.92862 7.41915C6.99711 7.353 7.08032 7.31743 7.16574 7.31778C7.34451 7.31778 7.47114 7.44328 7.54562 7.69429C7.67225 8.0901 7.6797 8.09976 7.93296 8.09976H10.473C10.9944 8.09976 11.4339 8.37973 11.7914 8.92035L11.8883 9.05551L12.0149 8.89139C12.1219 8.74631 12.2364 8.61084 12.3575 8.48592C12.6531 8.18832 13.0187 8.03153 13.3929 8.04183H15.6946C15.6797 7.99356 15.6723 7.94529 15.6574 7.89702L15.5233 7.42397C15.5158 7.40467 15.486 7.3757 15.419 7.33709L13.1993 6.27514C13.0577 6.20756 12.9162 6.19791 12.8343 5.87932C12.7523 5.56074 12.8641 5.26146 13.1248 5.13596L15.3669 4.06436C15.4173 4.04493 15.463 4.00894 15.4995 3.95989C15.5361 3.91084 15.5622 3.85039 15.5754 3.78439C15.8287 2.87691 16.0968 1.95012 16.3501 1.06195L16.3873 0.92679C16.4767 0.627514 16.6182 0.482703 16.8268 0.482703C17.0354 0.482703 17.1918 0.637168 17.2737 0.946098C17.3557 1.25503 17.4451 1.56396 17.5345 1.87289C17.7132 2.51006 17.9069 3.15688 18.0857 3.8037C18.1004 3.86504 18.1263 3.92081 18.1614 3.96623C18.1964 4.01164 18.2395 4.04532 18.2868 4.06436L20.1415 4.95253L20.4916 5.11665C20.7225 5.2325 20.8417 5.39662 20.8417 5.67659C20.8417 5.95656 20.7225 6.14964 20.4842 6.26549L20.2011 6.39099L18.2421 7.30813C18.2048 7.32467 18.1711 7.35261 18.1439 7.38957C18.1166 7.42654 18.0967 7.47145 18.0857 7.52051C18.0559 7.64602 17.9963 7.85841 17.9888 7.90668C17.9814 7.95495 17.9665 7.99356 17.959 8.04183H20.5661C21.3855 8.06114 22.1453 8.97828 22.2272 10.0499C22.257 10.5422 22.257 11.0442 22.257 11.527C22.257 11.7297 22.257 11.9324 22.2644 12.1352V12.9944H22.622C22.7221 13.0034 22.8191 13.0431 22.905 13.1102C23.3818 13.5543 23.6201 14.1335 23.6201 14.8286V15.1569C23.6276 16.2478 23.635 17.387 23.6201 18.4875Z" fill="white"/>
<path d="M3.86512 14.9059C4.09582 14.964 4.3303 14.9931 4.56531 14.9928L5.01224 14.9639C5.80926 14.877 6.39771 14.346 6.70311 13.4482C6.78326 13.1707 6.80133 12.8695 6.75525 12.5793C6.68575 12.2319 6.59354 11.8928 6.47965 11.5656L6.40516 11.3339C6.37291 11.247 6.31728 11.1784 6.24873 11.1408C6.07741 11.0443 5.89864 10.9574 5.72732 10.8802L5.27294 10.6581C5.18196 10.6172 5.10186 10.5436 5.04203 10.4458C5.00881 10.3849 4.98627 10.3153 4.97597 10.2419C4.96568 10.1685 4.96789 10.0931 4.98244 10.021C5.00707 9.9359 5.04587 9.85892 5.09609 9.79551C5.1463 9.7321 5.20669 9.68382 5.27294 9.65412L5.98058 9.31623L6.25618 9.18107L6.24129 9.16176L6.1519 9.09418L6.01037 9.04591C5.8705 8.9865 5.72529 8.95081 5.57834 8.93972C5.11652 8.92041 4.65469 8.92041 4.20032 8.92041H3.64166C2.85954 8.92041 2.39026 9.52862 2.39026 10.5423C2.39026 10.7161 2.39026 10.8802 2.38281 11.0443C2.38281 11.5463 2.38281 12.0676 2.39771 12.5793C2.42751 13.7088 3.04575 14.6839 3.86512 14.9059Z" fill="white"/>
</g>
<defs>
<clipPath id="clip0_1310_6656">
<rect width="24" height="24" fill="white"/>
</clipPath>
</defs>
</svg>
