<svg width="60" height="60" viewBox="0 0 60 60" fill="none" xmlns="http://www.w3.org/2000/svg">
<rect width="60" height="60" rx="30" fill="#454545"/>
<path d="M47.9867 34.9335V34.4205C47.9867 33.3342 47.6177 32.4289 46.8798 31.7349C46.7477 31.6271 46.597 31.5648 46.4416 31.5538H45.8881V30.211C45.8766 29.8941 45.8766 29.5773 45.8766 29.2604C45.8766 28.506 45.8766 27.7215 45.8305 26.952C45.7036 25.2772 44.5275 23.8438 43.2592 23.8137H39.2235C39.235 23.7382 39.2581 23.6779 39.2696 23.6024C39.2812 23.527 39.3734 23.1951 39.4195 22.9989C39.4347 22.921 39.4649 22.8496 39.5074 22.7914C39.5498 22.7333 39.6029 22.6904 39.6617 22.667L42.6942 21.2336L43.1323 21.0375C43.5013 20.8564 43.6858 20.5547 43.6858 20.1171C43.6858 19.6796 43.5013 19.4231 43.1439 19.242L42.6019 18.9855L39.7309 17.5974C39.6576 17.5676 39.591 17.515 39.5367 17.444C39.4825 17.3731 39.4423 17.2859 39.4195 17.19C39.1428 16.1791 38.843 15.1682 38.5663 14.1724C38.4279 13.6896 38.2895 13.2068 38.1627 12.724C38.0359 12.2412 37.7937 11.9998 37.4709 11.9998C37.148 11.9998 36.9289 12.2261 36.7906 12.6938L36.7329 12.905C36.3409 14.2931 35.9258 15.7416 35.5337 17.1599C35.5114 17.2618 35.4702 17.3549 35.4139 17.4312C35.3576 17.5075 35.2879 17.5646 35.2109 17.5974L31.7402 19.2722C31.3366 19.4683 31.1637 19.9361 31.2905 20.434C31.4174 20.9319 31.6364 20.9469 31.8555 21.0526L35.2916 22.7122C35.3954 22.7726 35.4415 22.8179 35.453 22.848L35.6606 23.5874C35.6836 23.6628 35.6952 23.7382 35.7182 23.8137H32.1553C31.5763 23.8 31.011 24.0448 30.5526 24.5077C30.365 24.703 30.1878 24.9147 30.0222 25.1414L29.8262 25.3979L29.6763 25.1867C29.1228 24.3418 28.4425 23.9042 27.6354 23.9042H23.7035C23.3114 23.9042 23.2999 23.8891 23.1039 23.2705C22.9886 22.8782 22.7925 22.6821 22.5158 22.6821C22.3836 22.6815 22.2548 22.7371 22.1488 22.8405C22.0427 22.9439 21.9652 23.0895 21.9278 23.2554C21.8586 23.527 21.7779 23.7986 21.7087 24.04L21.6395 24.2512L21.259 24.1003C20.9709 23.9529 20.6679 23.8614 20.3596 23.8288L18.7338 23.7986H16.8543C16.2346 23.7948 15.6318 24.0634 15.1425 24.5613C14.6533 25.0592 14.306 25.7576 14.1562 26.5446C14.0873 26.9359 14.0487 27.3352 14.0409 27.7366V31.5236L13.3606 31.6142H13.2914C13.2242 31.6185 13.1597 31.6501 13.1069 31.7047L12.8878 31.9914C12.6727 32.2459 12.4829 32.5349 12.3229 32.8514C12.1614 33.1833 12.0115 33.9528 12 34.4809V39.6712C12 41.9042 12.565 43.8355 13.695 45.4046C14.825 46.9738 16.2432 47.8791 17.8229 47.9545C18.4686 47.9847 19.1835 47.9998 20.0483 47.9998H41.1952C41.9793 47.9998 42.9017 47.9696 43.8011 47.5622C46.1879 46.506 47.9521 43.3828 47.9867 40.1389C48.0098 38.4189 47.9982 36.6385 47.9867 34.9335ZM41.4143 46.6418H18.2611C17.0566 46.6481 15.8886 46.1022 14.9597 45.0989C14.0308 44.0957 13.3997 42.6984 13.1761 41.1498C13.1147 40.7169 13.0839 40.2775 13.0839 39.8371C13.0723 38.1925 13.0723 36.548 13.0839 34.6016C13.0812 34.3572 13.1045 34.1134 13.153 33.8774C13.2914 33.2588 13.6027 32.9117 14.0409 32.9117C14.1616 32.9105 14.2818 32.9308 14.3983 32.9721C14.4491 33.0233 14.4889 33.0909 14.5136 33.1682C15.1939 34.7977 16.151 35.7332 17.3617 35.9595C17.7891 36.0456 18.2207 36.0909 18.6531 36.0953C19.9676 36.0953 21.0168 35.5823 21.8586 34.5412L22.216 34.0584L22.3429 33.8774C22.8187 34.8304 23.538 35.5309 24.3722 35.8539C24.8188 36.0159 25.281 36.0921 25.7444 36.0802C26.0326 36.0802 26.3209 36.0651 26.5861 36.035C27.9351 35.9444 29.019 35.0693 29.78 33.47L29.8146 33.4096L30.0452 33.7718C30.2404 34.0974 30.4482 34.4096 30.6679 34.7072C31.3373 35.5418 32.2224 36.0158 33.1469 36.035H33.2507L34.0002 36.0651C34.4879 36.0774 34.9741 35.9909 35.4415 35.8086C36.3639 35.4164 37.0558 34.6469 37.5631 33.4398C37.5976 33.4914 37.6285 33.547 37.6554 33.6058C38.451 35.2051 39.5925 36.0199 41.0223 36.05H41.5642C42.0827 36.0747 42.6007 35.9881 43.0978 35.7936C44.0902 35.3555 44.9105 34.423 45.3808 33.1984C45.4615 33.0174 45.5307 32.9419 45.6345 32.9419H45.8651C46.4877 32.9419 46.7645 33.2437 46.8913 34.0433C46.9099 34.1678 46.9215 34.2939 46.9259 34.4205V36.1708C46.9374 37.4985 46.9489 38.8715 46.9028 40.2294C46.8484 41.6652 46.444 43.0404 45.7489 44.1536C45.0538 45.2668 44.1045 46.0595 43.0401 46.4155C42.5084 46.5861 41.9615 46.6622 41.4143 46.6418ZM21.1091 25.5941L20.6825 25.8053L19.5871 26.3334C19.4845 26.3798 19.391 26.4552 19.3133 26.5543C19.2356 26.6534 19.1755 26.7738 19.1374 26.9067C19.1156 27.0196 19.1126 27.1372 19.1285 27.2517C19.1444 27.3662 19.1789 27.475 19.2296 27.5706C19.3243 27.7206 19.4476 27.8351 19.5871 27.9025L20.2904 28.2495C20.5556 28.3703 20.8324 28.506 21.0976 28.6569C21.2056 28.7117 21.2926 28.8202 21.3397 28.9587L21.455 29.3208C21.6313 29.8321 21.774 30.3621 21.8816 30.905C21.9556 31.3584 21.9275 31.83 21.8009 32.263C21.3282 33.6661 20.4173 34.496 19.1835 34.6318L18.4917 34.677C18.1278 34.6803 17.7646 34.6348 17.4078 34.5412C16.1394 34.1942 15.1824 32.6703 15.1363 30.905C15.1132 30.1054 15.1132 29.2906 15.1132 28.506C15.1248 28.2495 15.1248 27.9931 15.1248 27.7215C15.1248 26.1372 15.8512 25.1867 17.0619 25.1867H17.9267C18.63 25.1867 19.3449 25.1867 20.0598 25.2169C20.2872 25.2355 20.5118 25.2912 20.7286 25.3828L20.9477 25.4583L21.086 25.5639L21.1091 25.5941ZM22.4582 25.4281C22.4723 25.3603 22.4916 25.2946 22.5158 25.2319L22.5504 25.3828L22.7349 26.0165C22.7699 26.2085 22.8442 26.3844 22.9498 26.5253C23.0555 26.6662 23.1885 26.7667 23.3345 26.8162L23.8303 27.0425L23.9687 27.1179L23.8303 27.1934L23.3345 27.4348C23.189 27.4857 23.0566 27.5868 22.9512 27.7274C22.8457 27.8681 22.771 28.0432 22.7349 28.2345C22.6888 28.4306 22.6311 28.6267 22.5619 28.8531C22.4928 29.0794 22.5273 28.9738 22.5158 29.0341L22.4582 28.8531L22.2737 28.1892C22.2374 28.0078 22.1649 27.8423 22.0636 27.7097C21.9622 27.5772 21.8358 27.4823 21.6971 27.4348C21.5357 27.3744 21.3743 27.2839 21.2244 27.2085L21.063 27.133L21.2475 27.0425C21.4308 26.9692 21.6084 26.8732 21.7779 26.7558C21.9607 26.6266 22.1124 26.4333 22.216 26.1976C22.3174 25.953 22.3985 25.6951 22.4582 25.4281ZM29.2035 31.4935C29.0305 33.2889 27.8198 34.6469 26.367 34.6469H26.194C25.6867 34.6318 25.1563 34.6318 24.672 34.4809C23.8072 34.1942 23.2307 33.4549 23.0116 32.3384C22.8848 31.7047 23.0462 31.1163 23.1961 30.6033C23.2884 30.3317 23.3691 30.045 23.4498 29.7734C23.5305 29.5019 23.6112 29.2001 23.6919 28.9285C23.7359 28.8102 23.809 28.7145 23.8995 28.6569L24.9718 28.1288L25.4446 27.9176C25.7444 27.7667 25.9058 27.4951 25.9058 27.1179C25.9058 26.7407 25.7559 26.4993 25.4446 26.3485L25.1332 26.1976L23.8995 25.579C23.8341 25.5389 23.7753 25.4826 23.7265 25.413L23.6804 25.3526V25.3074H27.5777C27.9971 25.3017 28.4026 25.5038 28.7127 25.8733C29.0229 26.2427 29.2147 26.7521 29.2496 27.299C29.3303 28.9587 29.3188 30.2864 29.2035 31.4935ZM32.9048 25.2018H35.8681C36.0642 25.2018 36.1449 25.2772 36.2256 25.5337C36.3755 26.107 36.56 26.6955 36.7329 27.2537L36.9751 28.0081C36.9751 28.0383 36.9866 28.0685 36.9866 28.1138C36.9751 28.4457 36.9866 28.7927 36.9866 29.1096C36.9981 30.0299 36.9981 30.9956 36.8482 31.9159C36.583 33.5454 35.5568 34.6469 34.3115 34.6469H34.1155C33.6082 34.6318 33.0778 34.6318 32.5819 34.496C31.3597 34.149 30.4373 32.6251 30.4373 30.9503C30.4219 29.8438 30.4219 28.7273 30.4373 27.6008C30.4373 26.2127 31.1752 25.2319 32.2245 25.2018H32.9048ZM33.0547 20.1322L33.1815 20.0718L33.6082 19.8455L35.9143 18.7441C36.0301 18.6902 36.135 18.6023 36.2209 18.4873C36.3068 18.3722 36.3715 18.233 36.4101 18.0802L37.2057 15.2437L37.3902 14.5949L37.4709 14.3535L38.2665 17.1749L38.3126 17.3107C38.3476 17.3899 38.371 17.4769 38.3818 17.5672C38.4971 18.4574 38.9929 18.7743 39.4657 18.9704C39.9384 19.1666 40.6072 19.4834 41.1722 19.755L41.8179 20.0568L41.9101 20.1171L41.4604 20.3434L40.2613 20.9319L39.9615 21.0677C39.6732 21.2185 39.3734 21.3694 39.0736 21.4901C38.9394 21.5532 38.8178 21.6552 38.718 21.7884C38.6181 21.9217 38.5426 22.0828 38.4971 22.2596L37.7361 25.0056L37.4939 25.8355C37.4939 25.8656 37.4824 25.8807 37.4709 25.9109L37.3902 25.6242C37.2979 25.3074 37.2057 25.0207 37.125 24.719L37.0097 24.3418C36.8136 23.6477 36.6061 22.9235 36.4216 22.2143C36.3809 22.0506 36.3119 21.9015 36.2199 21.7784C36.1279 21.6554 36.0154 21.5619 35.8912 21.5052L33.9195 20.5547L33.3545 20.2831L33.1008 20.1473L33.0547 20.1322ZM44.8043 28.6117V29.185C44.8043 29.2152 44.8158 29.2454 44.8389 29.2454C44.8619 29.2454 44.8273 29.6678 44.8158 29.8791C44.8119 30.3887 44.7849 30.8975 44.7351 31.4029C44.4929 33.3342 43.3168 34.6469 41.8063 34.6469H41.299C40.9698 34.6591 40.6406 34.6186 40.3189 34.5262C39.0851 34.1339 38.3241 33.0324 38.1281 31.3426C38.0133 30.2071 37.994 29.0586 38.0705 27.9176C38.1249 27.4771 38.2299 27.0498 38.3818 26.6502C38.451 26.4541 38.5086 26.2579 38.5663 26.0769C38.6239 25.8958 38.5778 26.0316 38.5778 26.0165C38.6011 25.9779 38.6133 25.9299 38.6124 25.8807C38.6585 25.3979 38.843 25.2018 39.2812 25.2018H43.0978C43.5405 25.2055 43.9648 25.4342 44.281 25.8396C44.5973 26.245 44.7808 26.7953 44.7927 27.3744C44.8158 27.7969 44.8043 28.2194 44.8043 28.6117Z" fill="white"/>
</svg>
