<svg width="24" height="24" viewBox="0 0 24 24" fill="none" xmlns="http://www.w3.org/2000/svg">
<g clip-path="url(#clip0_1423_5835)">
<g clip-path="url(#clip1_1423_5835)">
<path d="M13.6683 14.8768C13.9886 14.9637 14.3313 14.9637 14.659 14.9734H14.7856C15.5901 14.9734 16.253 14.2686 16.4244 13.226C16.5212 12.6371 16.5212 12.0192 16.5138 11.4303C16.5138 11.2276 16.5063 11.0056 16.5138 10.7932C16.5138 10.7642 16.5063 10.7449 16.5063 10.7256L16.3499 10.2429C16.2381 9.88568 16.119 9.50918 16.0221 9.14232C15.97 8.9782 15.9178 8.92993 15.7912 8.92993H13.4374C12.7596 8.94924 12.2828 9.57675 12.2828 10.4649C12.2729 11.1922 12.2729 11.9066 12.2828 12.6081C12.2828 13.6797 12.8787 14.6548 13.6683 14.8768Z" fill="white"/>
<path d="M17.5644 9.36436C17.5639 9.39559 17.5561 9.42588 17.5421 9.45125C17.5421 9.46091 17.5719 9.37402 17.5346 9.48987C17.4974 9.60572 17.4601 9.73122 17.4154 9.85672C17.3196 10.1136 17.2519 10.3865 17.2143 10.6677C17.1633 11.3977 17.1758 12.1328 17.2516 12.8591C17.3782 13.9404 17.8698 14.6451 18.6668 14.8961C18.8746 14.9558 19.0873 14.9817 19.3 14.9734H19.6277C20.6035 14.9734 21.3633 14.1335 21.5197 12.8978C21.5522 12.5744 21.5696 12.2488 21.5719 11.9227C21.5793 11.7875 21.6017 11.5172 21.5868 11.5172C21.5719 11.5172 21.5644 11.4979 21.5644 11.4786V11.1117C21.5644 10.8607 21.5719 10.5904 21.557 10.3201C21.5492 9.94957 21.4307 9.59742 21.2264 9.33803C21.0221 9.07863 20.748 8.9323 20.462 8.92993H17.9964C17.7134 8.92993 17.5942 9.05543 17.5644 9.36436Z" fill="white"/>
<path d="M8.05918 9.17141L8.8562 9.56722L9.05732 9.66376C9.25843 9.76031 9.35527 9.91477 9.35527 10.1561C9.35527 10.3975 9.25098 10.5712 9.05732 10.6678L8.75192 10.8029L8.05918 11.1408C8.00075 11.1777 7.95354 11.2389 7.9251 11.3146L7.76868 11.8552C7.71653 12.029 7.66439 12.2124 7.6048 12.3862C7.50797 12.7144 7.40369 13.091 7.48562 13.4964C7.62715 14.2108 7.99959 14.6839 8.55825 14.8673C8.8711 14.9638 9.21374 14.9638 9.54149 14.9735H9.65322C10.5918 14.9735 11.3739 14.1046 11.4856 12.9558C11.5609 12.0644 11.5708 11.1658 11.5154 10.272C11.4929 9.92203 11.3689 9.59613 11.1686 9.35973C10.9682 9.12334 10.7063 8.99398 10.4353 8.99763H7.91765V9.0266L7.94745 9.06521C7.9781 9.11099 8.01628 9.14728 8.05918 9.17141Z" fill="white"/>
<path d="M16.1487 7.01854C16.2679 7.47228 16.4019 7.93567 16.5286 8.37976L16.6031 8.62111C16.6552 8.81419 16.7148 8.99762 16.7744 9.20036L16.8265 9.38378C16.834 9.36447 16.8414 9.35482 16.8414 9.33551L16.9978 8.80454L17.4895 7.0475C17.5189 6.93434 17.5677 6.83127 17.6321 6.74601C17.6966 6.66074 17.7752 6.59549 17.8619 6.55514C18.0556 6.47791 18.2492 6.38137 18.4355 6.28483L18.6291 6.19794L19.4038 5.82143L19.6943 5.67662L19.6347 5.63801L19.2176 5.44492C18.8526 5.27115 18.4206 5.06842 18.1152 4.94291C17.8098 4.81741 17.4895 4.61467 17.415 4.04508C17.408 3.98727 17.3929 3.93162 17.3703 3.88097L17.3405 3.79408L16.8265 1.98877L16.7744 2.14323L16.6552 2.55836L16.1412 4.37332C16.1163 4.47107 16.0745 4.56015 16.019 4.63376C15.9635 4.70738 15.8958 4.76359 15.8209 4.7981L14.3312 5.50285L14.0556 5.64766L13.9736 5.68628H14.0034L14.1673 5.77316L14.5323 5.94694L15.806 6.5648C15.8863 6.60108 15.9589 6.66091 16.0184 6.73962C16.0778 6.81833 16.1224 6.91379 16.1487 7.01854Z" fill="white"/>
<path d="M22.9352 14.8286C22.9351 14.7472 22.9276 14.6662 22.9128 14.5872C22.8309 14.0755 22.6521 13.8825 22.2499 13.8825H22.1009C22.0339 13.8825 21.9892 13.9307 21.937 14.0466C21.6326 14.8295 21.1029 15.4259 20.4622 15.7071C20.1414 15.8338 19.8065 15.8893 19.4715 15.8712H19.1214C18.1977 15.8519 17.4603 15.3306 16.9463 14.3072C16.9308 14.268 16.9107 14.2322 16.8867 14.201C16.559 14.9734 16.1121 15.4657 15.5162 15.7167C15.2142 15.8334 14.9001 15.8887 14.5851 15.8808L14.1009 15.8615H14.0339C13.4366 15.8493 12.8648 15.546 12.4324 15.012C12.2905 14.8215 12.1562 14.6218 12.0301 14.4134L11.8812 14.1817L11.8588 14.2203C11.3672 15.2437 10.667 15.8036 9.7955 15.8615C9.62418 15.8808 9.43796 15.8905 9.25174 15.8905C8.95234 15.9001 8.65353 15.8513 8.36533 15.7457C7.82612 15.5398 7.36126 15.0914 7.05435 14.481L6.97241 14.5969L6.7415 14.9058C6.19774 15.5719 5.5199 15.9002 4.67073 15.9002C4.39131 15.9 4.11233 15.8709 3.83647 15.8133C3.05435 15.6685 2.4361 15.0699 1.99662 14.0273C1.98062 13.9778 1.95495 13.9345 1.92213 13.9018C1.84697 13.8747 1.76922 13.8617 1.69122 13.8631C1.40817 13.8631 1.20705 14.0852 1.11766 14.481C1.08813 14.6325 1.07312 14.7881 1.07297 14.9444C1.06552 16.1898 1.06552 17.2421 1.07297 18.2944C1.07433 18.576 1.09427 18.857 1.13256 19.1343C1.27567 20.126 1.68296 21.0211 2.28333 21.6634C2.8837 22.3056 3.63902 22.6542 4.41748 22.6483H19.3746C19.7281 22.658 20.081 22.6094 20.4249 22.5035C21.1119 22.2744 21.7245 21.7668 22.1734 21.0548C22.6223 20.3428 22.8839 19.4636 22.9203 18.5454C22.9501 17.6765 22.9426 16.798 22.9352 15.9484V14.8286Z" fill="white"/>
<path d="M6.33182 10.2139C6.42866 10.2622 6.53294 10.3201 6.63722 10.3587C6.72677 10.3891 6.80847 10.4498 6.87393 10.5346C6.93938 10.6195 6.98623 10.7254 7.00966 10.8414L7.12884 11.2662L7.16609 11.382C7.17354 11.3434 7.15119 11.411 7.19588 11.2662C7.24057 11.1214 7.27782 10.9959 7.30761 10.8704C7.33022 10.7475 7.37822 10.635 7.44647 10.5448C7.51471 10.4547 7.60061 10.3903 7.69495 10.3587L8.01525 10.2042L8.10463 10.156L8.01525 10.1077L7.69495 9.9629C7.60061 9.93126 7.51471 9.86691 7.44647 9.77676C7.37822 9.68662 7.33022 9.57408 7.30761 9.45123L7.18843 9.04576L7.16609 8.94922C7.15044 8.98932 7.13796 9.03137 7.12884 9.07472C7.09227 9.24644 7.03974 9.41177 6.97242 9.56708C6.9055 9.71791 6.80749 9.84161 6.68936 9.92428C6.5799 9.99938 6.46517 10.0608 6.34672 10.1077L6.22754 10.1656L6.33182 10.2139Z" fill="white"/>
<path d="M23.9926 15.1569V14.8286C23.9926 13.9791 23.6946 13.2454 23.121 12.7241H23.1061C22.9679 12.6083 22.8087 12.5418 22.6443 12.531H22.6369V12.1352C22.6294 11.9421 22.6294 11.749 22.6294 11.5463C22.6294 11.0539 22.6294 10.5422 22.5996 10.0306C22.4953 8.70796 21.5866 7.61705 20.5661 7.58809H18.8007L20.3203 6.87369L20.6182 6.74819C21.1397 6.49718 21.2142 5.98552 21.2142 5.70555C21.2142 5.42558 21.1099 4.94288 20.6257 4.69187L20.2682 4.52776L18.4283 3.64924C18.3315 3.29204 18.2272 2.93483 18.1304 2.59694L17.8845 1.73773C17.7952 1.4288 17.7058 1.11987 17.6238 0.820595C17.4898 0.289622 17.1993 0 16.8268 0C16.6182 0 16.2384 0.0965406 16.0372 0.753017L16 0.897828L15.7765 1.67981C15.5903 2.31697 15.4041 2.97345 15.2253 3.62027L12.9981 4.68222C12.5512 4.89461 12.3352 5.4642 12.4842 6.03379C12.5196 6.19772 12.5879 6.34657 12.6821 6.46526C12.7763 6.58394 12.8931 6.66823 13.0205 6.70957L13.0726 6.72888L14.8082 7.55913H13.3631C12.9153 7.55971 12.4803 7.75329 12.1266 8.10941C12.0463 8.18782 11.9693 8.2716 11.8957 8.36042C11.5159 7.87875 11.0044 7.6115 10.473 7.61706H7.92551C7.91169 7.58251 7.89926 7.54707 7.88827 7.51086C7.76164 7.08608 7.50093 6.83508 7.16574 6.83508C7.00125 6.83712 6.84145 6.90632 6.70906 7.03285C6.57667 7.15937 6.47843 7.33677 6.42831 7.53982L6.38361 7.72325C6.19512 7.6432 6.00019 7.59138 5.80261 7.56878H5.78771L4.72253 7.54948H3.50093C3.01701 7.54877 2.54692 7.75868 2.16603 8.14555C1.78514 8.53242 1.51551 9.07385 1.40037 9.68302C1.35431 9.9659 1.3269 10.2533 1.31844 10.5422V12.5406H1.19181C1.06973 12.5495 0.952706 12.6068 0.856611 12.7047L0.841713 12.7241L0.685289 12.9171C0.525011 13.1046 0.384731 13.3188 0.268156 13.5543C0.111732 13.8825 0.00744879 14.4714 0 14.8576V18.1883C0 19.7522 0.402235 21.0941 1.19926 22.185C1.99628 23.2759 3.01676 23.9228 4.11918 23.971C4.54376 23.9903 5.02048 24 5.57169 24H19.2328C19.7765 24 20.4097 23.9807 21.0354 23.6911C22.7263 22.9574 23.9702 20.7659 23.9926 18.4972C24.0074 17.3677 24 16.1899 23.9926 15.1569ZM23.6201 18.4875C23.5978 20.5632 22.4581 22.5615 20.9162 23.2373C20.3352 23.498 19.7393 23.5173 19.2328 23.5173H5.57169C5.01304 23.5173 4.55121 23.5076 4.13408 23.4883C3.11359 23.4401 2.19739 22.8608 1.46741 21.8568C0.73743 20.8528 0.372439 19.6171 0.372439 18.1883V14.8673C0.379888 14.5294 0.476723 14.037 0.581006 13.8246C0.684132 13.6218 0.806784 13.4369 0.945996 13.2743L1.08752 13.0909C1.12077 13.0541 1.16296 13.0336 1.2067 13.033H1.2514L1.69088 12.9751V10.5519C1.69688 10.2952 1.72182 10.0398 1.76536 9.78922C1.8633 9.28651 2.08799 8.8406 2.40377 8.52228C2.71956 8.20395 3.10833 8.03146 3.50838 8.03218H4.72253L5.77281 8.05149C5.97222 8.07035 6.1682 8.12896 6.35382 8.22526L6.59963 8.3218L6.64432 8.18665C6.68901 8.03218 6.74115 7.85841 6.78585 7.68463C6.81002 7.57845 6.86012 7.48529 6.92862 7.41915C6.99711 7.353 7.08032 7.31743 7.16574 7.31778C7.34451 7.31778 7.47114 7.44328 7.54562 7.69429C7.67225 8.0901 7.6797 8.09976 7.93296 8.09976H10.473C10.9944 8.09976 11.4339 8.37973 11.7914 8.92035L11.8883 9.05551L12.0149 8.89139C12.1219 8.74631 12.2364 8.61084 12.3575 8.48592C12.6531 8.18832 13.0187 8.03153 13.3929 8.04183H15.6946C15.6797 7.99356 15.6723 7.94529 15.6574 7.89702L15.5233 7.42397C15.5158 7.40467 15.486 7.3757 15.419 7.33709L13.1993 6.27514C13.0577 6.20756 12.9162 6.19791 12.8343 5.87932C12.7523 5.56074 12.8641 5.26146 13.1248 5.13596L15.3669 4.06436C15.4173 4.04493 15.463 4.00894 15.4995 3.95989C15.5361 3.91084 15.5622 3.85039 15.5754 3.78439C15.8287 2.87691 16.0968 1.95012 16.3501 1.06195L16.3873 0.92679C16.4767 0.627514 16.6182 0.482703 16.8268 0.482703C17.0354 0.482703 17.1918 0.637168 17.2737 0.946098C17.3557 1.25503 17.4451 1.56396 17.5345 1.87289C17.7132 2.51006 17.9069 3.15688 18.0857 3.8037C18.1004 3.86504 18.1263 3.92081 18.1614 3.96623C18.1964 4.01164 18.2395 4.04532 18.2868 4.06436L20.1415 4.95253L20.4916 5.11665C20.7225 5.2325 20.8417 5.39662 20.8417 5.67659C20.8417 5.95656 20.7225 6.14964 20.4842 6.26549L20.2011 6.39099L18.2421 7.30813C18.2048 7.32467 18.1711 7.35261 18.1439 7.38957C18.1166 7.42654 18.0967 7.47145 18.0857 7.52051C18.0559 7.64602 17.9963 7.85841 17.9888 7.90668C17.9814 7.95495 17.9665 7.99356 17.959 8.04183H20.5661C21.3855 8.06114 22.1453 8.97828 22.2272 10.0499C22.257 10.5422 22.257 11.0442 22.257 11.527C22.257 11.7297 22.257 11.9324 22.2644 12.1352V12.9944H22.622C22.7221 13.0034 22.8191 13.0431 22.905 13.1102C23.3818 13.5543 23.6201 14.1335 23.6201 14.8286V15.1569C23.6276 16.2478 23.635 17.387 23.6201 18.4875Z" fill="white"/>
<path d="M3.8661 14.9059C4.0968 14.964 4.33128 14.9931 4.56628 14.9928L5.01321 14.9639C5.81023 14.877 6.39869 14.346 6.70409 13.4482C6.78423 13.1707 6.80231 12.8695 6.75623 12.5793C6.68672 12.2319 6.59452 11.8928 6.48062 11.5656L6.40614 11.3339C6.37388 11.247 6.31826 11.1784 6.24971 11.1408C6.07839 11.0443 5.89962 10.9574 5.7283 10.8802L5.27392 10.6581C5.18294 10.6172 5.10283 10.5436 5.04301 10.4458C5.00979 10.3849 4.98724 10.3153 4.97695 10.2419C4.96666 10.1685 4.96886 10.0931 4.98342 10.021C5.00805 9.9359 5.04685 9.85892 5.09706 9.79551C5.14728 9.7321 5.20766 9.68382 5.27392 9.65412L5.98155 9.31623L6.25716 9.18107L6.24226 9.16176L6.15288 9.09418L6.01135 9.04591C5.87148 8.9865 5.72626 8.95081 5.57932 8.93972C5.11749 8.92041 4.65567 8.92041 4.20129 8.92041H3.64263C2.86051 8.92041 2.39124 9.52862 2.39124 10.5423C2.39124 10.7161 2.39124 10.8802 2.38379 11.0443C2.38379 11.5463 2.38379 12.0676 2.39869 12.5793C2.42848 13.7088 3.04673 14.6839 3.8661 14.9059Z" fill="white"/>
</g>
</g>
<defs>
<clipPath id="clip0_1423_5835">
<rect width="24" height="24" fill="white" transform="matrix(-1 0 0 1 24 0)"/>
</clipPath>
<clipPath id="clip1_1423_5835">
<rect width="24" height="24" fill="white"/>
</clipPath>
</defs>
</svg>
