<svg width="60" height="60" viewBox="0 0 60 60" fill="none" xmlns="http://www.w3.org/2000/svg">
<rect width="60" height="60" rx="30" fill="#353434"/>
<path d="M49.2743 34.1149V33.6871C49.2743 32.7936 48.8716 32.0386 48.0663 31.4597C47.9246 31.3648 47.7586 31.3124 47.5881 31.3087H46.9841V30.1888C46.9715 29.9245 46.9715 29.6602 46.9715 29.396C46.9882 28.7535 46.9672 28.1106 46.9086 27.4706C46.7827 26.0738 45.4992 24.8784 44.1149 24.8532H39.7106C39.7232 24.7903 39.7483 24.7399 39.7609 24.677C39.7735 24.6141 39.8742 24.3372 39.9245 24.1737C39.9372 24.107 39.9689 24.0453 40.0158 23.9962C40.0626 23.9471 40.1227 23.9126 40.1888 23.8968L43.4983 22.7013L43.9765 22.5252C44.3792 22.3867 44.5805 22.1225 44.5805 21.7701C44.5805 21.4178 44.3792 21.1913 43.9891 21.0403L43.3976 20.8263L40.2643 19.656C40.1836 19.6367 40.1096 19.5962 40.0499 19.5387C39.9901 19.4811 39.9469 19.4087 39.9245 19.3289L38.9933 16.8121C38.8423 16.4094 38.6913 16.0067 38.5529 15.604C38.4144 15.2013 38.1502 15 37.7978 15C37.4455 15 37.2064 15.1888 37.0554 15.5789L36.9924 15.755C36.5646 16.9128 36.1116 18.1082 35.6837 19.3037C35.6574 19.3877 35.6119 19.4645 35.5507 19.5278C35.4895 19.5912 35.4144 19.6394 35.3314 19.6686L31.5436 21.0654C31.1158 21.229 30.9144 21.6065 31.0529 22.0218C31.1913 22.4371 31.4304 22.4622 31.6695 22.5503L35.4195 23.9346C35.4898 23.9501 35.5523 23.9903 35.5956 24.0478L35.8221 24.6644L35.8851 24.8406H31.9966C31.364 24.824 30.7454 25.0288 30.2475 25.4195C30.0428 25.5823 29.8494 25.7589 29.6686 25.948L29.4547 26.1619L29.2911 25.9732C28.6871 25.281 27.9446 24.9161 27.0638 24.9035H22.7726C22.3448 24.9035 22.3322 24.8909 22.1183 24.3624C21.9924 24.0478 21.7785 23.8842 21.4765 23.8842C21.3317 23.8817 21.1901 23.9272 21.074 24.0138C20.9579 24.1003 20.8737 24.2229 20.8347 24.3624C20.7628 24.5808 20.6788 24.7951 20.5831 25.0042C20.5678 25.0689 20.5467 25.1321 20.5201 25.193L20.1049 25.0671C19.7905 24.9441 19.4598 24.8678 19.1233 24.8406C18.6074 24.8154 18.0411 24.8029 17.3616 24.8029H15.2978C14.6203 24.8026 13.9622 25.0293 13.4285 25.4466C12.8948 25.864 12.5162 26.4481 12.3532 27.1057C12.2773 27.4319 12.2351 27.765 12.2273 28.0998C12.2148 28.8675 12.2273 29.6602 12.2273 30.4153V31.2584L11.4849 31.3339H11.4094C11.3361 31.3375 11.2657 31.3639 11.2081 31.4094C11.1326 31.4849 11.0445 31.5604 10.969 31.6485C10.7374 31.8592 10.5305 32.0957 10.3523 32.3532C10.1762 32.63 10.0126 33.2844 10.0126 33.7248C10 34.6435 10 35.5747 10 36.4807V38.0537C10 39.9161 10.6166 41.5268 11.8498 42.8356C13.0831 44.1443 14.6309 44.8993 16.3549 44.9623C17.0596 44.9874 17.8398 45 18.7836 45H41.8624C42.7307 45 43.7248 44.9622 44.7064 44.6351C47.3112 43.7542 49.2366 41.1493 49.2743 38.4438C49.2995 37.0344 49.2869 35.5495 49.2743 34.1149ZM38.4522 28.2634C38.5117 27.9 38.6263 27.5478 38.7919 27.219C38.8675 27.0554 38.9304 26.8918 38.9933 26.7282C39.0562 26.5646 39.0059 26.703 39.0185 26.6904C39.0328 26.6543 39.0413 26.616 39.0436 26.5772C39.094 26.1619 39.2953 26.0109 39.7735 26.0109H43.9513C44.4323 26.0172 44.8922 26.2094 45.2347 26.5472C45.5771 26.885 45.7756 27.3421 45.7886 27.823C45.8138 28.1628 45.8012 28.5151 45.8012 28.8549V29.3205C45.8001 29.3336 45.8032 29.3467 45.8099 29.358C45.8167 29.3693 45.8268 29.3782 45.8389 29.3834C45.8263 29.5596 45.8263 29.7357 45.8138 29.9119C45.8099 30.3328 45.7805 30.753 45.7257 31.1703C45.4614 32.7936 44.1779 33.8884 42.5294 33.8884H41.9757C41.6163 33.8993 41.257 33.8655 40.906 33.7878C39.5596 33.4606 38.729 32.5419 38.5151 31.1326C38.3896 30.1813 38.3685 29.2192 38.4522 28.2634ZM30.1216 27.9992C30.1216 26.854 30.927 26.0361 32.0721 26.0109H36.0487C36.2626 26.0109 36.3507 26.0864 36.4388 26.3003C36.6023 26.7785 36.8037 27.2693 36.9924 27.7349L37.2567 28.3641C37.2567 28.3893 37.2693 28.4144 37.2693 28.4522C37.2567 28.729 37.2693 29.0059 37.2693 29.2827C37.2819 30.0503 37.2819 30.8431 37.1183 31.6233C36.8289 32.9824 35.7089 33.901 34.3498 33.901H34.1359C33.5756 33.9202 33.0148 33.8822 32.4622 33.7878C31.1409 33.4983 30.1342 32.2274 30.1216 30.8305C30.1091 29.8867 30.1091 28.9555 30.1216 27.9992ZM22.219 30.5159C22.3196 30.2894 22.4077 30.0503 22.4958 29.8238C22.5839 29.5973 22.6594 29.3456 22.7601 29.1065C22.8088 29.0113 22.8887 28.9358 22.9866 28.8926L24.1569 28.4522L24.6728 28.2634C25 28.1502 25.1762 27.9237 25.1762 27.6091C25.1762 27.2945 25.0126 27.0805 24.6728 26.9547L24.3331 26.8289L22.9866 26.3255C22.9134 26.2953 22.8487 26.2478 22.7978 26.1871L22.7475 26.1367V26.099H25.3901L26.9505 26.0738H27.0008C27.4614 26.0663 27.9073 26.2356 28.2468 26.547C28.5862 26.8583 28.7934 27.288 28.8255 27.7475C28.9091 28.9131 28.888 30.0839 28.7626 31.2458C28.5864 32.7433 27.2525 33.8633 25.6669 33.8633H25.4908C24.9245 33.8633 24.3582 33.8633 23.8297 33.7248C23.3891 33.6344 22.9839 33.419 22.6625 33.1044C22.3412 32.7897 22.1173 32.3891 22.0176 31.9505C21.8792 31.4346 22.0554 30.9438 22.219 30.5159ZM13.3977 28.7668C13.4102 28.5403 13.4102 28.3263 13.4102 28.1124C13.4102 26.7911 14.203 25.9983 15.5243 25.9983H16.4807C17.2357 25.9983 18.0159 25.9983 18.7961 26.0235C19.0482 26.0401 19.2974 26.0866 19.5386 26.1619L19.7651 26.2248C19.8215 26.2424 19.8731 26.2725 19.9161 26.3129L19.9539 26.3381L19.4757 26.5143L18.2802 26.9547C18.1683 26.9934 18.0663 27.0563 17.9814 27.139C17.8966 27.2217 17.831 27.322 17.7894 27.4329C17.7659 27.525 17.7627 27.6211 17.7801 27.7145C17.7975 27.808 17.835 27.8965 17.8901 27.974C17.9922 28.1033 18.1269 28.2032 18.2802 28.2634L19.0478 28.5529L19.9287 28.88C20.0454 28.9339 20.139 29.0276 20.193 29.1443C20.2295 29.2471 20.2715 29.3479 20.3188 29.4463C20.5112 29.8727 20.667 30.3148 20.7844 30.7676C20.8655 31.1415 20.8349 31.531 20.6963 31.8876C20.1804 33.0705 19.1862 33.75 17.8398 33.8758L17.0847 33.901C16.6924 33.9021 16.3008 33.8684 15.9144 33.8003C14.5176 33.5109 13.4732 32.2399 13.4228 30.755C13.3977 30.1007 13.3977 29.4211 13.3977 28.7668Z" fill="white"/>
</svg>
