<svg width="14" height="14" viewBox="0 0 14 14" fill="none" xmlns="http://www.w3.org/2000/svg">
<g clip-path="url(#clip0_832_26817)">
<g clip-path="url(#clip1_832_26817)">
<path d="M7.97367 8.67826C8.16051 8.72894 8.36039 8.72894 8.55157 8.73457H8.62544C9.09471 8.73457 9.48143 8.32347 9.58137 7.71526C9.63786 7.37174 9.63786 7.01132 9.63351 6.6678C9.63351 6.54953 9.62917 6.42001 9.63351 6.29612C9.63351 6.27922 9.62917 6.26796 9.62917 6.25669L9.53792 5.97512C9.47274 5.76675 9.40322 5.54712 9.34673 5.33312C9.31632 5.23739 9.2859 5.20923 9.21203 5.20923H7.83897C7.44357 5.22049 7.16548 5.58654 7.16548 6.10464C7.15968 6.52889 7.15968 6.94562 7.16548 7.35484C7.16548 7.97994 7.51309 8.54873 7.97367 8.67826Z" fill="#878687"/>
<path d="M10.2456 5.46265C10.2453 5.48086 10.2407 5.49853 10.2325 5.51333C10.2325 5.51896 10.2499 5.46828 10.2282 5.53586C10.2065 5.60344 10.1848 5.67665 10.1587 5.74986C10.1028 5.89968 10.0633 6.0589 10.0414 6.22291C10.0116 6.64873 10.0189 7.07755 10.0631 7.50126C10.137 8.132 10.4237 8.5431 10.8887 8.68952C11.0099 8.7243 11.1339 8.73943 11.258 8.73457H11.4492C12.0184 8.73457 12.4616 8.24463 12.5528 7.52379C12.5718 7.33516 12.5819 7.14522 12.5833 6.955C12.5876 6.87616 12.6006 6.71848 12.592 6.71848C12.5833 6.71848 12.5789 6.70722 12.5789 6.69595V6.48196C12.5789 6.33554 12.5833 6.17785 12.5746 6.02017C12.5701 5.80402 12.5009 5.5986 12.3817 5.44728C12.2626 5.29597 12.1027 5.21061 11.9358 5.20923H10.4976C10.3325 5.20923 10.263 5.28244 10.2456 5.46265Z" fill="#878687"/>
<path d="M4.70143 5.34995L5.16636 5.58084L5.28368 5.63716C5.401 5.69347 5.45748 5.78358 5.45748 5.92436C5.45748 6.06515 5.39665 6.16652 5.28368 6.22284L5.10553 6.30168L4.70143 6.49878C4.66735 6.52028 4.63981 6.55597 4.62322 6.60015L4.53197 6.91551C4.50156 7.01688 4.47114 7.12388 4.43638 7.22525C4.37989 7.41672 4.31906 7.63635 4.36686 7.87288C4.44941 8.28961 4.66667 8.56555 4.99256 8.67255C5.17505 8.72887 5.37493 8.72887 5.56611 8.7345H5.63129C6.17878 8.7345 6.63501 8.22766 6.70019 7.55751C6.74408 7.03753 6.7499 6.51334 6.71757 5.99194C6.70441 5.78781 6.63213 5.5977 6.51525 5.4598C6.39838 5.32191 6.24557 5.24645 6.08753 5.24858H4.61887V5.26547L4.63625 5.288C4.65413 5.3147 4.67641 5.33587 4.70143 5.34995Z" fill="#878687"/>
<path d="M9.42014 4.09419C9.48967 4.35887 9.56788 4.62918 9.64175 4.88823L9.6852 5.02902C9.71561 5.14165 9.75037 5.24865 9.78513 5.36691L9.81555 5.47391C9.8199 5.46265 9.82424 5.45702 9.82424 5.44576L9.91549 5.13602L10.2023 4.11108C10.2194 4.04507 10.2479 3.98495 10.2855 3.93521C10.3231 3.88547 10.3689 3.84741 10.4195 3.82387C10.5325 3.77882 10.6455 3.72251 10.7541 3.66619L10.8671 3.61551L11.319 3.39588L11.4884 3.3114L11.4537 3.28888L11.2103 3.17625C10.9974 3.07488 10.7454 2.95662 10.5673 2.88341C10.3891 2.8102 10.2023 2.69193 10.1588 2.35967C10.1548 2.32595 10.1459 2.29349 10.1327 2.26394L10.1154 2.21325L9.81555 1.16016L9.78513 1.25026L9.71561 1.49242L9.4158 2.55115C9.40127 2.60816 9.37689 2.66013 9.34451 2.70307C9.31213 2.74601 9.27261 2.7788 9.22896 2.79893L8.35993 3.21004L8.19916 3.29451L8.15137 3.31703H8.16875L8.26434 3.36772L8.47725 3.46909L9.22027 3.8295C9.26707 3.85067 9.30947 3.88557 9.34414 3.93149C9.37881 3.9774 9.40482 4.03309 9.42014 4.09419Z" fill="#878687"/>
<path d="M13.3783 8.65013C13.3782 8.6027 13.3738 8.55544 13.3652 8.50934C13.3174 8.21087 13.2132 8.09824 12.9785 8.09824H12.8916C12.8525 8.09824 12.8264 8.1264 12.796 8.19398C12.6184 8.65067 12.3094 8.99857 11.9357 9.1626C11.7486 9.23653 11.5532 9.2689 11.3578 9.25834H11.1536C10.6148 9.24707 10.1846 8.94297 9.88479 8.34603C9.87576 8.32317 9.86403 8.30227 9.85003 8.28408C9.65885 8.7346 9.39814 9.02181 9.05053 9.16823C8.87438 9.23627 8.69116 9.26856 8.50739 9.26397L8.22496 9.2527H8.18585C7.83746 9.24557 7.50392 9.06863 7.25165 8.75713C7.16886 8.64604 7.09055 8.5295 7.01701 8.40797L6.93011 8.27282L6.91707 8.29534C6.63029 8.89229 6.22185 9.21892 5.71347 9.2527C5.61353 9.26397 5.50491 9.2696 5.39628 9.2696C5.22163 9.2752 5.04732 9.24672 4.87921 9.18513C4.56467 9.06503 4.2935 8.80344 4.11447 8.44739L4.06667 8.51497L3.93197 8.69518C3.61478 9.08376 3.21937 9.27523 2.72403 9.27523C2.56103 9.27514 2.39829 9.2582 2.23737 9.22455C1.78113 9.14007 1.42049 8.79092 1.16412 8.18271C1.15479 8.15383 1.13982 8.1286 1.12067 8.1095C1.07683 8.09372 1.03147 8.08614 0.985975 8.08698C0.82086 8.08698 0.703541 8.2165 0.6514 8.44739C0.634175 8.53577 0.625418 8.62656 0.625329 8.71771C0.620984 9.44418 0.620984 10.058 0.625329 10.6719C0.626124 10.8362 0.637754 11.0001 0.66009 11.1618C0.743573 11.7403 0.981155 12.2625 1.33137 12.6371C1.68159 13.0118 2.12219 13.2151 2.57629 13.2117H11.3013C11.5075 13.2173 11.7133 13.189 11.914 13.1272C12.3147 12.9935 12.6721 12.6974 12.9339 12.2821C13.1958 11.8668 13.3484 11.3539 13.3696 10.8183C13.387 10.3114 13.3826 9.79896 13.3783 9.30339V8.65013Z" fill="#878687"/>
<path d="M3.69364 5.95819C3.75013 5.98635 3.81096 6.02014 3.87179 6.04266C3.92403 6.06038 3.97169 6.0958 4.00987 6.14528C4.04805 6.19477 4.07538 6.25654 4.08905 6.32424L4.15857 6.57203L4.1803 6.63961C4.18464 6.61708 4.17161 6.6565 4.19768 6.57203C4.22375 6.48755 4.24548 6.41434 4.26286 6.34113C4.27604 6.26947 4.30405 6.20383 4.34385 6.15124C4.38366 6.09865 4.43377 6.06112 4.4888 6.04266L4.67564 5.95256L4.72778 5.9244L4.67564 5.89624L4.4888 5.81177C4.43377 5.79332 4.38366 5.75578 4.34385 5.70319C4.30405 5.65061 4.27604 5.58496 4.26286 5.5133L4.19333 5.27677L4.1803 5.22046C4.17117 5.24385 4.16389 5.26838 4.15857 5.29367C4.13724 5.39384 4.1066 5.49028 4.06733 5.58088C4.02829 5.66886 3.97112 5.74102 3.90221 5.78924C3.83836 5.83305 3.77143 5.86888 3.70233 5.89624L3.63281 5.93003L3.69364 5.95819Z" fill="#878687"/>
<path d="M13.9957 8.84151V8.65004C13.9957 8.15447 13.8218 7.72647 13.4873 7.42237H13.4786C13.398 7.35486 13.3051 7.31602 13.2092 7.30973H13.2048V7.07884C13.2005 6.96621 13.2005 6.85358 13.2005 6.73532C13.2005 6.44811 13.2005 6.14964 13.1831 5.85117C13.1223 5.07965 12.5922 4.44328 11.9969 4.42639H10.9671L11.8535 4.00965L12.0273 3.93644C12.3315 3.79002 12.3749 3.49155 12.3749 3.32824C12.3749 3.16492 12.3141 2.88335 12.0317 2.73693L11.8231 2.64119L10.7498 2.12872C10.6934 1.92035 10.6325 1.71199 10.576 1.51488L10.4327 1.01368C10.3805 0.833467 10.3284 0.653258 10.2806 0.478681C10.2024 0.168946 10.0329 0 9.81564 0C9.69398 0 9.47238 0.0563154 9.35506 0.43926L9.33333 0.523733L9.20298 0.979887C9.09435 1.35157 8.98572 1.73451 8.88144 2.11183L7.58225 2.7313C7.32154 2.85519 7.19553 3.18745 7.28243 3.51971C7.30313 3.61534 7.34297 3.70217 7.39791 3.7714C7.45285 3.84063 7.52095 3.8898 7.59528 3.91392L7.6257 3.92518L8.63811 4.40949H7.79516C7.53391 4.40983 7.28017 4.52275 7.07387 4.73049C7.02703 4.77623 6.98207 4.8251 6.93917 4.87691C6.71759 4.59594 6.41923 4.44004 6.10925 4.44328H4.62322C4.61516 4.42313 4.6079 4.40246 4.60149 4.38134C4.52762 4.13355 4.37554 3.98713 4.18001 3.98713C4.08406 3.98832 3.99085 4.02869 3.91362 4.10249C3.83639 4.1763 3.77908 4.27978 3.74984 4.39823L3.72377 4.50523C3.61382 4.45854 3.50011 4.4283 3.38485 4.41512H3.37616L2.75481 4.40386H2.04221C1.75992 4.40345 1.4857 4.52589 1.26352 4.75157C1.04133 4.97724 0.884049 5.29308 0.816884 5.64843C0.790014 5.81344 0.774024 5.98111 0.769088 6.14964V7.31537H0.69522C0.624009 7.32052 0.555745 7.35395 0.49969 7.4111L0.490999 7.42237L0.399752 7.535C0.306256 7.64432 0.224426 7.76932 0.156425 7.90668C0.0651769 8.09815 0.00434513 8.44167 0 8.66693V10.6098C0 11.5221 0.234637 12.3049 0.699565 12.9413C1.16449 13.5776 1.75978 13.9549 2.40286 13.9831C2.65053 13.9944 2.92862 14 3.25016 14H11.2191C11.5363 14 11.9056 13.9887 12.2706 13.8198C13.257 13.3918 13.9826 12.1134 13.9957 10.79C14.0043 10.1311 14 9.44409 13.9957 8.84151ZM13.7784 10.7844C13.7654 11.9952 13.1006 13.1609 12.2011 13.5551C11.8622 13.7072 11.5146 13.7184 11.2191 13.7184H3.25016C2.92427 13.7184 2.65487 13.7128 2.41155 13.7015C1.81626 13.6734 1.28181 13.3355 0.85599 12.7498C0.430168 12.1641 0.217256 11.4433 0.217256 10.6098V8.67257C0.221601 8.47546 0.278088 8.18825 0.33892 8.06436C0.399077 7.94607 0.470624 7.8382 0.551831 7.74336L0.634389 7.63636C0.653781 7.61487 0.678394 7.6029 0.703911 7.60257H0.729981L0.986344 7.56878V6.15527C0.989845 6.00552 1.00439 5.85654 1.0298 5.71038C1.08693 5.41713 1.218 5.15702 1.4022 4.97133C1.58641 4.78564 1.81319 4.68502 2.04655 4.68544H2.75481L3.36747 4.6967C3.4838 4.7077 3.59811 4.74189 3.70639 4.79807L3.84978 4.85438L3.87585 4.77554C3.90192 4.68544 3.93234 4.58407 3.95841 4.4827C3.97251 4.42076 4.00174 4.36642 4.04169 4.32784C4.08165 4.28925 4.13018 4.2685 4.18001 4.2687C4.2843 4.2687 4.35816 4.34191 4.40161 4.48833C4.47548 4.71923 4.47983 4.72486 4.62756 4.72486H6.10925C6.41341 4.72486 6.66977 4.88817 6.87834 5.20354L6.93482 5.28238L7.00869 5.18665C7.0711 5.10202 7.13788 5.02299 7.20857 4.95012C7.381 4.77652 7.59425 4.68506 7.81254 4.69107H9.15518C9.14649 4.66291 9.14215 4.63475 9.13346 4.6066L9.05524 4.33065C9.0509 4.31939 9.03352 4.30249 8.99441 4.27997L7.69957 3.6605C7.61701 3.62108 7.53445 3.61545 7.48665 3.42961C7.43886 3.24377 7.50403 3.06919 7.65611 2.99598L8.964 2.37088C8.99341 2.35954 9.02007 2.33855 9.04138 2.30994C9.0627 2.28132 9.07795 2.24606 9.08566 2.20756C9.2334 1.6782 9.38982 1.13757 9.53755 0.619469L9.55928 0.540628C9.61142 0.36605 9.69398 0.281577 9.81564 0.281577C9.93731 0.281577 10.0286 0.371681 10.0763 0.551891C10.1241 0.7321 10.1763 0.912309 10.2284 1.09252C10.3327 1.4642 10.4457 1.84151 10.55 2.21883C10.5585 2.2546 10.5737 2.28714 10.5941 2.31363C10.6146 2.34012 10.6397 2.35977 10.6673 2.37088L11.7492 2.88898L11.9534 2.98471C12.0881 3.05229 12.1577 3.14803 12.1577 3.31134C12.1577 3.47466 12.0881 3.58729 11.9491 3.65487L11.784 3.72808L10.6412 4.26307C10.6195 4.27273 10.5998 4.28902 10.5839 4.31058C10.568 4.33215 10.5564 4.35835 10.55 4.38697C10.5326 4.46018 10.4978 4.58407 10.4935 4.61223C10.4891 4.64039 10.4804 4.66291 10.4761 4.69107H11.9969C12.4749 4.70233 12.9181 5.23733 12.9659 5.86243C12.9832 6.14964 12.9832 6.44248 12.9832 6.72405C12.9832 6.84232 12.9832 6.96058 12.9876 7.07884V7.58005H13.1962C13.2545 7.5853 13.3111 7.60846 13.3613 7.64763C13.6394 7.90668 13.7784 8.24457 13.7784 8.65004V8.84151C13.7827 9.47788 13.7871 10.1424 13.7784 10.7844Z" fill="#878687"/>
<path d="M2.25531 8.69517C2.38988 8.72903 2.52666 8.746 2.66375 8.74585L2.92446 8.72895C3.38938 8.67827 3.73265 8.36854 3.9108 7.8448C3.95755 7.68294 3.96809 7.50725 3.94121 7.33797C3.90067 7.13531 3.84689 6.93749 3.78045 6.74665L3.73699 6.6115C3.71818 6.5608 3.68573 6.52075 3.64575 6.49887C3.54581 6.44255 3.44153 6.39187 3.34159 6.34681L3.07653 6.21729C3.02346 6.19343 2.97673 6.15045 2.94184 6.0934C2.92246 6.05787 2.90931 6.01729 2.9033 5.97449C2.8973 5.93168 2.89859 5.8877 2.90707 5.84561C2.92144 5.79598 2.94408 5.75108 2.97337 5.71409C3.00266 5.6771 3.03789 5.64894 3.07653 5.63161L3.48932 5.43451L3.65009 5.35566L3.6414 5.3444L3.58926 5.30498L3.5067 5.27682C3.42511 5.24217 3.3404 5.22135 3.25468 5.21488C2.98529 5.20361 2.71589 5.20361 2.45084 5.20361H2.12495C1.66871 5.20361 1.39497 5.5584 1.39497 6.14971C1.39497 6.25108 1.39497 6.34682 1.39062 6.44255C1.39062 6.73539 1.39063 7.03949 1.39932 7.33797C1.4167 7.99686 1.77734 8.56564 2.25531 8.69517Z" fill="#878687"/>
</g>
</g>
<defs>
<clipPath id="clip0_832_26817">
<rect width="14" height="14" fill="white" transform="matrix(-1 0 0 1 14 0)"/>
</clipPath>
<clipPath id="clip1_832_26817">
<rect width="14" height="14" fill="white"/>
</clipPath>
</defs>
</svg>
