<svg width="40" height="40" viewBox="0 0 40 40" fill="none" xmlns="http://www.w3.org/2000/svg">
<path d="M31.9911 23.2892V22.9472C31.9911 22.223 31.7451 21.6194 31.2532 21.1567C31.1651 21.0849 31.0647 21.0434 30.9611 21.036H30.5921V20.1408C30.5844 19.9296 30.5844 19.7184 30.5844 19.5071C30.5844 19.0042 30.5844 18.4811 30.5537 17.9681C30.4691 16.8516 29.685 15.8961 28.8395 15.8759H26.149C26.1567 15.8257 26.1721 15.7854 26.1798 15.7351C26.1874 15.6848 26.2489 15.4635 26.2797 15.3328C26.2898 15.2808 26.31 15.2332 26.3382 15.1944C26.3665 15.1557 26.4019 15.1271 26.4411 15.1115L28.4628 14.1559L28.7549 14.0251C29.0009 13.9044 29.1239 13.7033 29.1239 13.4116C29.1239 13.1199 29.0009 12.9489 28.7626 12.8282L28.4013 12.6572L26.4872 11.7318C26.4384 11.7119 26.394 11.6768 26.3578 11.6295C26.3217 11.5822 26.2948 11.5241 26.2797 11.4602C26.0952 10.7863 25.8953 10.1123 25.7108 9.44845C25.6186 9.12657 25.5264 8.80469 25.4418 8.48282C25.3572 8.16094 25.1958 8 24.9806 8C24.7653 8 24.6193 8.15088 24.527 8.4627L24.4886 8.60352C24.2273 9.52892 23.9505 10.4946 23.6892 11.4401C23.6742 11.508 23.6468 11.5701 23.6093 11.621C23.5718 11.6718 23.5253 11.7099 23.4739 11.7318L21.1601 12.8483C20.8911 12.979 20.7758 13.2909 20.8603 13.6228C20.9449 13.9547 21.091 13.9648 21.237 14.0352L23.5277 15.1417C23.5969 15.1819 23.6277 15.2121 23.6354 15.2322L23.7737 15.7251C23.7891 15.7754 23.7968 15.8257 23.8122 15.8759H21.4369C21.0509 15.8668 20.674 16.03 20.3684 16.3386C20.2433 16.4688 20.1252 16.6099 20.0148 16.7611L19.8841 16.9321L19.7842 16.7913C19.4152 16.228 18.9617 15.9363 18.4236 15.9363H15.8023C15.5409 15.9363 15.5333 15.9262 15.4026 15.5138C15.3257 15.2523 15.195 15.1215 15.0105 15.1215C14.9224 15.1212 14.8365 15.1582 14.7658 15.2272C14.6952 15.2961 14.6435 15.3931 14.6185 15.5038C14.5724 15.6848 14.5186 15.8659 14.4725 16.0268L14.4263 16.1676L14.1727 16.0671C13.9806 15.9688 13.7786 15.9078 13.5731 15.886L12.4892 15.8659H11.2362C10.823 15.8634 10.4212 16.0424 10.095 16.3744C9.76887 16.7063 9.53732 17.1719 9.43747 17.6966C9.39156 17.9574 9.3658 18.2236 9.3606 18.4912V21.0159L8.90707 21.0763H8.86094C8.81614 21.0791 8.77314 21.1002 8.73795 21.1366L8.5919 21.3277C8.44847 21.4974 8.32192 21.6901 8.21524 21.9011C8.10762 22.1224 8.00769 22.6354 8 22.9874V26.4476C8 27.9363 8.37666 29.2238 9.12999 30.2699C9.88331 31.316 10.8288 31.9195 11.8819 31.9698C12.3124 31.9899 12.789 32 13.3655 32H27.4635C27.9862 32 28.6012 31.9799 29.2007 31.7083C30.792 31.0042 31.9681 28.922 31.9911 26.7594C32.0065 25.6127 31.9988 24.4258 31.9911 23.2892ZM27.6095 31.0947H12.174C11.3711 31.0989 10.5924 30.735 9.97312 30.0661C9.35386 29.3973 8.93316 28.4658 8.78407 27.4334C8.74316 27.1447 8.72258 26.8518 8.72258 26.5583C8.71489 25.4619 8.71489 24.3655 8.72258 23.0679C8.7208 22.9049 8.73632 22.7424 8.7687 22.5851C8.86094 22.1727 9.06849 21.9413 9.3606 21.9413C9.44106 21.9405 9.52123 21.954 9.5989 21.9816C9.63277 22.0157 9.65926 22.0607 9.67577 22.1123C10.1293 23.1987 10.7673 23.8223 11.5745 23.9732C11.8594 24.0305 12.1471 24.0608 12.4354 24.0637C13.3117 24.0637 14.0112 23.7217 14.5724 23.0277L14.8107 22.7058L14.8952 22.5851C15.2125 23.2204 15.692 23.6875 16.2481 23.9028C16.5459 24.0108 16.854 24.0616 17.1629 24.0536C17.3551 24.0536 17.5473 24.0436 17.7241 24.0235C18.6234 23.9631 19.346 23.3797 19.8534 22.3135L19.8764 22.2733L20.0302 22.5147C20.1602 22.7317 20.2988 22.9399 20.4453 23.1383C20.8915 23.6947 21.4816 24.0107 22.098 24.0235H22.1671L22.6668 24.0436C22.9919 24.0518 23.316 23.9941 23.6277 23.8726C24.2426 23.6111 24.7038 23.0981 25.0421 22.2934C25.0651 22.3278 25.0856 22.3648 25.1036 22.404C25.634 23.4702 26.395 24.0134 27.3482 24.0335H27.7095C28.0551 24.05 28.4005 23.9922 28.7318 23.8625C29.3935 23.5705 29.9404 22.9488 30.2539 22.1324C30.3077 22.0117 30.3538 21.9614 30.423 21.9614H30.5767C30.9918 21.9614 31.1763 22.1626 31.2609 22.6957C31.2733 22.7787 31.281 22.8627 31.2839 22.9472V24.114C31.2916 24.9992 31.2993 25.9145 31.2685 26.8198C31.2322 27.777 30.9626 28.6938 30.4992 29.4359C30.0358 30.1781 29.403 30.7065 28.6934 30.9438C28.3389 31.0576 27.9744 31.1083 27.6095 31.0947ZM14.0727 17.0629L13.7883 17.2037L13.058 17.5557C12.9897 17.5867 12.9274 17.637 12.8755 17.7031C12.8237 17.7691 12.7837 17.8493 12.7583 17.938C12.7437 18.0132 12.7417 18.0916 12.7523 18.168C12.7629 18.2443 12.7859 18.3168 12.8197 18.3806C12.8829 18.4806 12.9651 18.5569 13.058 18.6018L13.527 18.8332C13.7038 18.9137 13.8882 19.0042 14.065 19.1048C14.1371 19.1413 14.1951 19.2136 14.2265 19.306L14.3033 19.5474C14.4209 19.8882 14.516 20.2415 14.5878 20.6035C14.637 20.9057 14.6183 21.2202 14.5339 21.5088C14.2188 22.4443 13.6115 22.9975 12.789 23.088L12.3278 23.1182C12.0852 23.1204 11.8431 23.0901 11.6052 23.0277C10.7596 22.7963 10.1216 21.7804 10.0909 20.6035C10.0755 20.0704 10.0755 19.5272 10.0755 19.0042C10.0832 18.8332 10.0832 18.6622 10.0832 18.4811C10.0832 17.425 10.5675 16.7913 11.3746 16.7913H11.9511C12.42 16.7913 12.8966 16.7913 13.3732 16.8114C13.5248 16.8238 13.6745 16.861 13.8191 16.922L13.9651 16.9723L14.0574 17.0427L14.0727 17.0629ZM14.9721 16.9522C14.9815 16.907 14.9944 16.8632 15.0105 16.8215L15.0336 16.922L15.1566 17.3445C15.1799 17.4725 15.2295 17.5898 15.2999 17.6837C15.3703 17.7776 15.459 17.8447 15.5563 17.8776L15.8869 18.0285L15.9791 18.0788L15.8869 18.1291L15.5563 18.29C15.4593 18.324 15.3711 18.3913 15.3008 18.4851C15.2305 18.5789 15.1807 18.6956 15.1566 18.8231C15.1258 18.9539 15.0874 19.0847 15.0413 19.2355C14.9952 19.3864 15.0182 19.316 15.0105 19.3562L14.9721 19.2355L14.8491 18.793C14.8249 18.672 14.7766 18.5617 14.709 18.4733C14.6415 18.3849 14.5572 18.3217 14.4648 18.29C14.3571 18.2498 14.2495 18.1894 14.1496 18.1391L14.042 18.0889L14.165 18.0285C14.2872 17.9796 14.4056 17.9156 14.5186 17.8374C14.6405 17.7512 14.7416 17.6224 14.8107 17.4652C14.8782 17.3022 14.9324 17.1302 14.9721 16.9522ZM19.469 20.9958C19.3537 22.1928 18.5466 23.0981 17.578 23.0981H17.4627C17.1245 23.088 16.7709 23.088 16.448 22.9874C15.8715 22.7963 15.4871 22.3034 15.3411 21.5591C15.2565 21.1366 15.3641 20.7443 15.4641 20.4023C15.5256 20.2213 15.5794 20.0302 15.6332 19.8491C15.687 19.6681 15.7408 19.4669 15.7946 19.2858C15.824 19.2069 15.8727 19.1432 15.933 19.1048L16.6479 18.7527L16.963 18.6119C17.1629 18.5113 17.2705 18.3303 17.2705 18.0788C17.2705 17.8273 17.1706 17.6664 16.963 17.5658L16.7555 17.4652L15.933 17.0528C15.8894 17.0261 15.8502 16.9885 15.8177 16.9422L15.7869 16.9019V16.8718H18.3851C18.6647 16.8679 18.9351 17.0027 19.1418 17.249C19.3486 17.4953 19.4765 17.8349 19.4998 18.1995C19.5536 19.306 19.5459 20.1911 19.469 20.9958ZM21.9365 16.8013H23.9121C24.0428 16.8013 24.0966 16.8516 24.1504 17.0226C24.2503 17.4049 24.3733 17.7971 24.4886 18.1693L24.65 18.6723C24.65 18.6924 24.6577 18.7125 24.6577 18.7427C24.65 18.964 24.6577 19.1953 24.6577 19.4065C24.6654 20.0201 24.6654 20.6639 24.5655 21.2775C24.3887 22.3638 23.7045 23.0981 22.8743 23.0981H22.7437C22.4054 23.088 22.0518 23.088 21.7213 22.9975C20.9065 22.7661 20.2915 21.7502 20.2915 20.6337C20.2813 19.8961 20.2813 19.1517 20.2915 18.4007C20.2915 17.4753 20.7835 16.8215 21.483 16.8013H21.9365ZM22.0365 13.4216L22.121 13.3814L22.4054 13.2305L23.9428 12.4962C24.0201 12.4603 24.09 12.4017 24.1473 12.325C24.2045 12.2483 24.2477 12.1555 24.2734 12.0536L24.8038 10.1626L24.9268 9.73009L24.9806 9.56915L25.511 11.4501L25.5417 11.5407C25.5651 11.5934 25.5807 11.6514 25.5879 11.7117C25.6647 12.3051 25.9953 12.5163 26.3104 12.6471C26.6256 12.7779 27.0714 12.9891 27.4481 13.1702L27.8786 13.3713L27.9401 13.4116L27.6403 13.5624L26.8408 13.9547L26.641 14.0453C26.4488 14.1458 26.2489 14.2464 26.0491 14.3269C25.9596 14.3689 25.8785 14.4369 25.812 14.5258C25.7454 14.6146 25.6951 14.722 25.6647 14.8399L25.1574 16.6706L24.996 17.2238C24.996 17.2439 24.9883 17.254 24.9806 17.2741L24.9268 17.083C24.8653 16.8718 24.8038 16.6806 24.75 16.4795L24.6731 16.228C24.5424 15.7653 24.4041 15.2825 24.2811 14.8097C24.254 14.7006 24.2079 14.6011 24.1466 14.5191C24.0853 14.4371 24.0103 14.3748 23.9275 14.337L22.613 13.7033L22.2363 13.5222L22.0672 13.4317L22.0365 13.4216ZM29.8695 19.0746V19.4568C29.8695 19.4769 29.8772 19.4971 29.8926 19.4971C29.9079 19.4971 29.8849 19.7787 29.8772 19.9195C29.8746 20.2593 29.8566 20.5985 29.8234 20.9355C29.662 22.223 28.8779 23.0981 27.8709 23.0981H27.5327C27.3132 23.1062 27.0937 23.0792 26.8793 23.0176C26.0568 22.7561 25.5494 22.0218 25.4187 20.8952C25.3422 20.1382 25.3293 19.3726 25.3803 18.6119C25.4166 18.3182 25.4866 18.0334 25.5879 17.767C25.634 17.6362 25.6724 17.5054 25.7108 17.3847C25.7493 17.264 25.7185 17.3546 25.7185 17.3445C25.734 17.3188 25.7422 17.2867 25.7416 17.254C25.7723 16.9321 25.8953 16.8013 26.1874 16.8013H28.7318C29.027 16.8038 29.3098 16.9563 29.5207 17.2265C29.7315 17.4968 29.8539 17.8637 29.8618 18.2498C29.8772 18.5314 29.8695 18.8131 29.8695 19.0746Z" fill="#100E10"/>
</svg>
