<svg width="40" height="40" viewBox="0 0 40 40" fill="none" xmlns="http://www.w3.org/2000/svg">
<path d="M22.0414 29.9999C21.2977 30.0052 20.5778 29.7339 20.0167 29.2369L19.7696 29.3912C19.5166 29.5531 19.2498 29.6917 18.9725 29.8051C18.6317 29.9267 18.2734 29.9898 17.9123 29.9918C16.621 29.9918 15.4971 29.172 15.0507 27.8977C14.9949 27.7516 14.979 27.7516 14.9311 27.7516L14.8355 27.7678C14.6559 27.7937 14.4748 27.8073 14.2935 27.8084C13.8813 27.8118 13.4727 27.7294 13.093 27.5661C12.7133 27.4027 12.3704 27.162 12.0855 26.8587C11.794 26.5457 11.5682 26.1756 11.4215 25.771C11.2749 25.3663 11.2106 24.9356 11.2326 24.5048V24.3993L11.1847 24.3831C10.7264 24.2645 10.3011 24.0399 9.94178 23.7268C9.5825 23.4136 9.29894 23.0204 9.11312 22.5776C8.9273 22.1347 8.84422 21.6543 8.87033 21.1734C8.89645 20.6926 9.03105 20.2244 9.26369 19.8052C8.92328 19.541 8.63799 19.2105 8.42448 18.8328C8.21097 18.4551 8.07353 18.0379 8.0202 17.6055C7.97303 17.1857 8.00867 16.7605 8.12501 16.3549C8.24136 15.9493 8.43608 15.5714 8.69774 15.2435C8.64195 15.1136 8.57818 14.9919 8.52238 14.8701C8.34702 14.5292 8.18759 14.2045 8.10788 13.8474C7.81295 12.6217 8.17962 11.5503 9.14413 10.7305C9.72602 10.2516 10.3637 10 11.0412 10C11.4845 10.0043 11.9218 10.1039 12.3246 10.2922C13.4645 10.7955 14.1021 11.7208 14.1739 12.9627C14.1978 13.4253 14.1978 13.8961 14.1978 14.3506C14.1978 14.8052 14.1978 15.4058 14.2377 15.9253C14.4449 18.5957 15.4333 20.8116 17.187 22.5081C17.9841 23.2792 18.8051 23.7012 19.6899 23.8068C19.8034 23.8229 19.918 23.8311 20.0326 23.8311C20.7421 23.8311 21.4435 23.5714 22.1928 23.0275C23.3964 22.159 24.3211 20.909 25.0226 19.2126C25.5381 17.9319 25.8086 16.5627 25.8197 15.1786C25.8276 14.724 25.8276 14.2613 25.8276 13.8149V13.1818C25.8276 11.4773 27.1668 10.0568 28.8088 10.0244H28.8726C30.5864 10.0244 31.9335 11.323 31.9973 13.0438C32.0302 13.8335 31.7649 14.6061 31.2559 15.2029C31.8299 15.9334 32.077 16.7451 31.9733 17.6136C31.8697 18.4821 31.4712 19.1964 30.7378 19.7808C31.232 20.7224 31.2799 21.6639 30.8893 22.5892C30.4987 23.5146 29.7893 24.1233 28.7849 24.3993C28.8327 25.4788 28.482 26.3636 27.7407 27.0292C27.1863 27.5403 26.4639 27.8212 25.716 27.8165C25.4941 27.8138 25.2728 27.7921 25.0544 27.7516C24.6081 29.1233 23.4363 29.9999 22.0414 29.9999ZM20.0087 28.2792C20.1442 28.2792 20.2479 28.3847 20.3913 28.5227C20.8776 29.0016 21.4196 29.2369 22.0174 29.2369C22.2357 29.2382 22.4531 29.2081 22.6631 29.1477C23.516 28.9204 24.074 28.336 24.3769 27.3538C24.4407 27.1347 24.5044 26.9074 24.7675 26.9074C24.8677 26.9141 24.9667 26.9332 25.0624 26.9642C25.4879 27.0859 25.9384 27.0835 26.3626 26.9572C26.7868 26.8309 27.1676 26.5859 27.4617 26.2499C27.6853 25.9893 27.8504 25.6822 27.9454 25.3499C28.0403 25.0177 28.063 24.6683 28.0117 24.3262C27.9559 23.8961 28.0436 23.7743 28.4581 23.6931C28.8406 23.6249 29.2005 23.4609 29.5054 23.2159C29.8103 22.9709 30.0506 22.6526 30.2048 22.2896C30.3589 21.9266 30.422 21.5303 30.3885 21.1363C30.3549 20.7423 30.2257 20.363 30.0125 20.0324C29.7574 19.6347 29.7893 19.5129 30.1799 19.2613C30.4595 19.0741 30.6976 18.8293 30.8788 18.5427C31.06 18.2561 31.1803 17.9341 31.232 17.5974C31.2804 17.2666 31.2592 16.9291 31.1699 16.6073C31.0806 16.2854 30.9251 15.9866 30.7139 15.7305C30.3154 15.2435 30.3154 15.1542 30.7139 14.6753C30.9995 14.3276 31.1816 13.9041 31.2388 13.4546C31.2959 13.005 31.2257 12.5482 31.0364 12.138C30.8471 11.7277 30.5466 11.3811 30.1703 11.1389C29.794 10.8968 29.3576 10.7691 28.9124 10.7711C28.7436 10.7735 28.5755 10.7926 28.4103 10.8279C27.4139 11.0633 26.6646 11.9075 26.5929 12.8815C26.553 13.4659 26.553 14.0665 26.553 14.6428V15.1542C26.5577 16.5597 26.3008 17.9533 25.7957 19.2613C25.0465 21.2256 23.9863 22.6704 22.5595 23.685C21.7145 24.2857 20.8537 24.586 20.0087 24.586C19.1638 24.586 18.287 24.2857 17.4341 23.6769C16.1348 22.7516 15.1384 21.4529 14.3891 19.6996C13.7121 18.1402 13.3932 16.4441 13.4565 14.7402V14.1558C13.4565 13.8068 13.4645 13.5146 13.4565 13.2224C13.4246 11.9805 12.6355 11.0065 11.4876 10.7955C11.3556 10.7763 11.2225 10.7654 11.0891 10.763C10.6281 10.7626 10.1773 10.9006 9.79305 11.1597C9.40875 11.4189 9.10804 11.7877 8.92852 12.2199C8.74901 12.6522 8.69868 13.1288 8.78381 13.5901C8.86895 14.0514 9.08578 14.4769 9.40717 14.8133C9.71007 15.1299 9.71007 15.2678 9.41514 15.5844C9.17097 15.8387 8.98569 16.1453 8.87285 16.4818C8.76 16.8184 8.72246 17.1763 8.76295 17.5296C8.80345 17.8828 8.92096 18.2223 9.1069 18.5234C9.29283 18.8244 9.54249 19.0793 9.83761 19.2694C10.2043 19.513 10.2362 19.6428 9.99703 20.0243C9.77978 20.358 9.64845 20.7419 9.61512 21.1408C9.5818 21.5396 9.64756 21.9407 9.80634 22.3069C9.96512 22.6731 10.2118 22.9927 10.5237 23.2364C10.8357 23.4801 11.2028 23.6399 11.5913 23.7012C11.9181 23.7581 12.0536 23.9529 11.9978 24.2938C11.9431 24.6348 11.9611 24.9838 12.0505 25.3171C12.1399 25.6504 12.2986 25.9602 12.5159 26.2256C12.7346 26.4862 13.0058 26.6957 13.3112 26.84C13.6166 26.9843 13.9489 27.0599 14.2855 27.0616C14.4137 27.0629 14.5418 27.0521 14.6681 27.0292C14.8207 26.9989 14.9752 26.9799 15.1304 26.9723C15.4891 26.9723 15.5768 27.1996 15.7522 27.6623C16.1268 28.6363 16.9638 29.2369 17.9442 29.2369C18.5725 29.2312 19.1735 28.9748 19.6181 28.5227C19.7616 28.3847 19.8653 28.2792 20.0087 28.2792Z" fill="#100E10"/>
<path d="M9.46286 19.757C7.98821 18.6613 7.72516 16.6564 8.88097 15.2684C8.65778 14.7652 8.37879 14.3025 8.25923 13.8074C7.98024 12.6385 8.33894 11.6239 9.24764 10.861C10.1563 10.098 11.1926 9.9681 12.2607 10.4389C13.3288 10.9097 13.9426 11.7863 14.0144 12.9795C14.0702 13.9616 13.9984 14.9518 14.0781 15.934C14.2774 18.5314 15.2021 20.8041 17.0753 22.6223C17.8006 23.3284 18.6456 23.8479 19.6738 23.9697C20.7021 24.0914 21.5072 23.7262 22.2804 23.158C23.6434 22.1758 24.5282 20.8203 25.1659 19.2781C25.6934 17.9806 25.9695 16.5915 25.979 15.1872C25.9949 14.5217 25.9869 13.848 25.9869 13.1824C25.9869 11.559 27.2464 10.2197 28.8087 10.1873C30.371 10.1548 31.774 11.3886 31.8377 13.0525C31.8696 13.8642 31.5906 14.5785 31.0486 15.2035C31.6305 15.8934 31.9174 16.6807 31.8138 17.5979C31.7102 18.5151 31.2638 19.197 30.5384 19.7408C31.0406 20.6336 31.1442 21.5671 30.7377 22.5249C30.3312 23.4827 29.6138 24.0346 28.6174 24.2781C28.6891 25.3171 28.4102 26.2099 27.629 26.908C26.8478 27.606 25.9391 27.7765 24.9427 27.5654C24.2652 29.9437 21.547 30.4875 20.0405 29.0427C19.6579 29.2537 19.3072 29.5135 18.9166 29.6515C17.3622 30.2115 15.76 29.4161 15.1941 27.8414C15.1223 27.6304 15.0506 27.5654 14.8115 27.606C12.9303 27.9226 11.3122 26.4534 11.3919 24.5135C11.3998 24.3755 11.4078 24.2781 11.2245 24.2294C10.7847 24.1152 10.3771 23.8981 10.0341 23.5954C9.69117 23.2926 9.42233 22.9126 9.24897 22.4854C9.07561 22.0583 9.00251 21.5958 9.03549 21.1349C9.06847 20.6739 9.20662 20.2271 9.43895 19.8301C9.44568 19.8053 9.45366 19.7809 9.46286 19.757ZM13.6158 14.7489C13.6158 14.1077 13.6238 13.6613 13.6158 13.223C13.5839 11.908 12.731 10.861 11.5114 10.6418C10.9915 10.5522 10.457 10.6321 9.98427 10.8701C9.51155 11.1082 9.12475 11.4922 8.87906 11.9674C8.63337 12.4425 8.54135 12.9846 8.61613 13.5162C8.69091 14.0477 8.92866 14.5417 9.29547 14.9275C9.5346 15.1872 9.5346 15.2197 9.29547 15.4713C9.03504 15.7437 8.83772 16.0719 8.71798 16.4319C8.59823 16.7919 8.55909 17.1747 8.60342 17.5521C8.64774 17.9295 8.77441 18.2921 8.97415 18.6132C9.17389 18.9343 9.44164 19.2059 9.75779 19.408C10.0448 19.6028 10.0527 19.6353 9.86142 19.9356C8.86503 21.5184 9.74185 23.5476 11.5593 23.8642C11.8064 23.9047 11.8861 24.0184 11.8462 24.27C11.7786 24.6669 11.8053 25.0745 11.924 25.4588C12.0427 25.843 12.25 26.1928 12.5285 26.4788C12.8071 26.7648 13.1488 26.9788 13.5252 27.1029C13.9015 27.227 14.3016 27.2576 14.6919 27.1921C15.3615 27.0784 15.3615 27.0784 15.6006 27.7197C16.2861 29.4972 18.3825 29.968 19.7296 28.6369C20.0007 28.3771 20.0166 28.3771 20.2876 28.645C20.9731 29.3187 21.7862 29.5541 22.7029 29.3106C23.6195 29.0671 24.2413 28.3528 24.5282 27.395C24.6398 27.0378 24.6717 27.0297 25.0224 27.1271C25.4241 27.2433 25.8481 27.255 26.2553 27.1611C26.6626 27.0672 27.0402 26.8706 27.3536 26.5895C27.6669 26.3084 27.9059 25.9518 28.0488 25.5522C28.1916 25.1526 28.2336 24.7229 28.171 24.3025C28.1232 23.9616 28.1551 23.9129 28.4819 23.856C30.2754 23.507 31.1283 21.5021 30.1399 19.9437C29.9406 19.6272 29.9486 19.6028 30.2595 19.3999C30.5576 19.2047 30.8117 18.9475 31.0053 18.6452C31.1988 18.3428 31.3272 18.0022 31.3822 17.6457C31.4372 17.2892 31.4174 16.9248 31.3242 16.5767C31.2309 16.2285 31.0664 15.9043 30.8413 15.6255C30.4906 15.1954 30.4906 15.1954 30.8334 14.7814C31.1665 14.3743 31.3663 13.8712 31.4048 13.3427C31.4433 12.8142 31.3185 12.2867 31.0479 11.834C30.7773 11.3813 30.3744 11.0261 29.8957 10.8182C29.417 10.6102 28.8865 10.5599 28.3783 10.6743C27.3261 10.9178 26.513 11.8106 26.4333 12.8739C26.3775 13.6288 26.4014 14.3918 26.3935 15.1548C26.3959 16.5401 26.1445 17.9137 25.6522 19.2051C24.9826 20.9502 24.0021 22.4681 22.4717 23.5476C20.9412 24.6271 19.1796 24.7164 17.5296 23.5476C16.1347 22.5573 15.2021 21.1937 14.5325 19.6353C13.8703 18.0973 13.557 16.4272 13.6158 14.7489Z" fill="#100E10"/>
<path d="M29.3039 18.5953C29.2682 18.5944 29.2341 18.5799 29.2083 18.5547C29.1886 18.5414 29.1725 18.5232 29.1614 18.502C29.1503 18.4808 29.1445 18.457 29.1445 18.433C29.1458 18.4003 29.1431 18.3676 29.1365 18.3356C29.1286 18.2301 29.1126 18.1002 29.1844 18.0028C29.5431 17.4427 29.5431 17.1505 29.1844 16.6148C29.0967 16.4768 29.0728 16.2171 29.1844 16.0791C29.2136 16.0403 29.251 16.0085 29.2937 15.9861C29.3364 15.9636 29.3834 15.951 29.4315 15.9492C29.575 15.9492 29.6945 16.0629 29.7663 16.144C30.0465 16.45 30.2006 16.8539 30.1967 17.2723C30.1967 17.7593 30.0532 18.157 29.7503 18.4654C29.6608 18.5409 29.5477 18.5812 29.4315 18.5791H29.3039V18.5953Z" fill="#100E10"/>
<path d="M30.0337 17.2721C30.0337 17.7267 29.8982 18.0757 29.6351 18.3517C29.5634 18.4247 29.4119 18.4085 29.3003 18.4328C29.3003 18.3192 29.2605 18.1731 29.3083 18.0919C29.7069 17.4832 29.7069 17.1098 29.3163 16.5173C29.2605 16.4361 29.2445 16.2494 29.3003 16.1845C29.3561 16.1195 29.5474 16.1358 29.6511 16.2494C29.8997 16.5296 30.0363 16.8945 30.0337 17.2721Z" fill="#100E10"/>
<path d="M10.5299 18.588C10.4892 18.5909 10.4484 18.5852 10.4099 18.5713C10.3715 18.5573 10.3364 18.5354 10.3067 18.5069C9.98786 18.2065 9.82844 17.7926 9.8125 17.2569V17.2406C9.84438 16.7617 9.99584 16.3884 10.2748 16.1205C10.3701 16.0525 10.4858 16.0209 10.6016 16.0312H10.7132C10.7345 16.03 10.7557 16.0334 10.7756 16.0412C10.7954 16.0489 10.8135 16.0608 10.8285 16.0762C10.8436 16.0915 10.8553 16.1098 10.8629 16.1301C10.8705 16.1503 10.8738 16.1719 10.8727 16.1936C10.8727 16.2179 10.8806 16.2504 10.8806 16.2828C10.8806 16.3153 10.9045 16.502 10.8408 16.5994C10.4582 17.2 10.4582 17.4111 10.8567 18.0361C10.902 18.1292 10.9133 18.2356 10.8886 18.3364V18.4257C10.8851 18.4695 10.8651 18.5102 10.8328 18.5393C10.8204 18.5551 10.8046 18.5677 10.7866 18.5761C10.7686 18.5846 10.749 18.5887 10.7292 18.588H10.5299Z" fill="#100E10"/>
<path d="M9.97266 17.2489C9.99657 16.8836 10.1002 16.5183 10.3872 16.2424C10.4589 16.1774 10.6024 16.2018 10.714 16.1855C10.714 16.2911 10.7538 16.4291 10.706 16.5021C10.2915 17.1515 10.2915 17.4355 10.7219 18.1174C10.7698 18.1823 10.7299 18.3122 10.7299 18.4177C10.7299 18.5232 10.4748 18.4501 10.4111 18.3933C10.1002 18.093 9.98063 17.7115 9.97266 17.2489Z" fill="#100E10"/>
<path d="M10.5779 14.5934C10.5119 14.59 10.4475 14.5714 10.3895 14.5391C10.3315 14.5067 10.2815 14.4615 10.2431 14.4067C9.94023 14.0333 9.81269 13.6356 9.82066 13.0512C9.84465 12.6851 10.0008 12.3411 10.2591 12.0853C10.3577 11.9956 10.4856 11.9465 10.6178 11.9473C10.6709 11.9471 10.7231 11.961 10.7692 11.9879C10.8125 12.009 10.8506 12.0397 10.8809 12.0775C10.9112 12.1154 10.9329 12.1596 10.9446 12.207C10.9765 12.3531 10.8888 12.4911 10.825 12.5804C10.4663 13.0512 10.4663 13.4408 10.8171 13.9278C10.9127 14.0577 10.9446 14.3255 10.841 14.4554C10.8109 14.4978 10.7714 14.5325 10.7257 14.5564C10.6799 14.5804 10.6293 14.5931 10.5779 14.5934Z" fill="#100E10"/>
<path d="M9.98078 13.0515C10.0089 12.7296 10.1472 12.428 10.3714 12.1992C10.4431 12.1343 10.6185 12.0856 10.6982 12.1262C10.7779 12.1668 10.7938 12.3534 10.6982 12.4833C10.2996 13.019 10.3076 13.4898 10.6902 14.0255C10.746 14.1067 10.762 14.2934 10.7141 14.3583C10.6663 14.4232 10.467 14.4232 10.3634 14.3015C10.1163 13.993 9.97281 13.6521 9.98078 13.0515Z" fill="#100E10"/>
<path d="M29.3803 14.5445C29.3304 14.5474 29.2808 14.5361 29.2368 14.5121C29.1935 14.4932 29.155 14.4643 29.1246 14.4277C29.0941 14.391 29.0725 14.3477 29.0614 14.301C29.0295 14.1468 29.1172 14.0088 29.189 13.9195C29.5397 13.4569 29.5397 13.0754 29.189 12.564C29.0933 12.4342 29.0694 12.1744 29.173 12.0364C29.2014 11.9941 29.2394 11.9595 29.2839 11.9354C29.3283 11.9114 29.3778 11.8987 29.4281 11.8984C29.4947 11.9034 29.5593 11.9234 29.6172 11.9571C29.6752 11.9908 29.7249 12.0374 29.7629 12.0932C29.9107 12.2584 30.0249 12.4517 30.0988 12.6621C30.1727 12.8725 30.2048 13.0958 30.1933 13.3189C30.1966 13.7188 30.0448 14.1038 29.7709 14.3903C29.6628 14.4874 29.5243 14.5421 29.3803 14.5445Z" fill="#100E10"/>
<path d="M30.0371 13.3203C30.0384 13.4978 30.0053 13.6737 29.9397 13.8381C29.874 14.0025 29.7771 14.152 29.6545 14.2781C29.5828 14.3593 29.3915 14.4161 29.3118 14.3674C29.2321 14.3187 29.2241 14.1401 29.3197 14.0184C29.7183 13.4908 29.7103 13.0363 29.3197 12.4762C29.2639 12.395 29.248 12.2083 29.3038 12.1353C29.3596 12.0622 29.5509 12.0866 29.6466 12.2002C29.7812 12.3513 29.885 12.5281 29.9521 12.7204C30.0191 12.9127 30.048 13.1166 30.0371 13.3203Z" fill="#100E10"/>
<path d="M25.4459 25.9829C25.4038 25.9823 25.3637 25.9648 25.3343 25.9342L25.3104 25.918C25.2307 25.8693 25.1031 25.78 25.0792 25.6339C25.0681 25.5866 25.0674 25.5373 25.077 25.4896C25.0867 25.4419 25.1065 25.397 25.135 25.3579C25.2307 25.2362 25.3981 25.22 25.5256 25.2118C26.0358 25.1794 26.3705 24.8791 26.4582 24.3677C26.4742 24.2459 26.53 23.9375 26.8329 23.9375H26.8887C27.2474 23.9781 27.2155 24.3433 27.1995 24.4651C27.1198 25.3092 26.3466 25.9667 25.4459 25.9748V25.9829Z" fill="#100E10"/>
<path d="M25.4427 25.8207C25.4029 25.7801 25.2514 25.707 25.2355 25.6015C25.2195 25.496 25.379 25.3905 25.5304 25.3742C26.1203 25.3337 26.5109 24.9765 26.6065 24.4002C26.6384 24.2379 26.6703 24.0837 26.8696 24.108C27.0688 24.1324 27.0529 24.3028 27.0449 24.457C26.9732 25.1876 26.2797 25.8126 25.4427 25.8207Z" fill="#100E10"/>
<path d="M28.2118 22.7595C28.1392 22.761 28.0685 22.7367 28.0117 22.6908C27.9549 22.6448 27.9157 22.5801 27.9009 22.5078C27.8531 22.3374 27.9806 22.102 28.1161 22.0208C28.6502 21.7043 28.7857 21.4039 28.6741 20.7952C28.6502 20.6572 28.6342 20.503 28.7219 20.3893C28.7491 20.3528 28.784 20.3229 28.824 20.3019C28.864 20.2808 28.9081 20.2691 28.9531 20.2676H28.969C29.1444 20.2676 29.3197 20.4543 29.3835 20.5923C29.4313 20.7029 29.4609 20.8208 29.4712 20.9413C29.4726 20.985 29.4779 21.0284 29.4871 21.0711V21.1036C29.4805 21.4426 29.3796 21.7728 29.1962 22.0558C29.0128 22.3388 28.7544 22.5631 28.4509 22.7026C28.3761 22.7389 28.2946 22.7583 28.2118 22.7595Z" fill="#100E10"/>
<path d="M29.326 21.0965C29.3205 21.4035 29.2301 21.7027 29.0651 21.9597C28.9002 22.2168 28.6673 22.4212 28.3933 22.5494C28.2499 22.6144 28.0984 22.6387 28.0506 22.4683C28.0027 22.2978 28.1143 22.2166 28.1941 22.1679C28.7759 21.8108 28.9513 21.4455 28.8238 20.7637C28.7999 20.6176 28.7839 20.4472 28.9673 20.4309C29.1506 20.4147 29.1904 20.5608 29.2383 20.6663C29.2861 20.7718 29.302 20.9504 29.326 21.0965Z" fill="#100E10"/>
<path d="M14.4767 26.0392H14.4608C13.6159 25.9499 12.9144 25.2843 12.8187 24.497C12.8028 24.3509 12.7629 24.0181 13.1057 23.9531H13.1934C13.4724 23.9531 13.5282 24.2291 13.5521 24.359V24.3752C13.6477 24.8703 13.9905 25.1869 14.4608 25.2194H14.4927C14.6202 25.2275 14.7796 25.2437 14.8753 25.3655C14.9029 25.405 14.9221 25.4499 14.9317 25.4975C14.9414 25.545 14.9411 25.594 14.9311 25.6414C14.9072 25.7794 14.7876 25.8606 14.684 25.9336L14.5804 26.0067C14.5509 26.0302 14.514 26.0417 14.4767 26.0392Z" fill="#100E10"/>
<path d="M14.4776 25.8768C13.7123 25.7956 13.0667 25.195 12.979 24.4807C12.9631 24.3265 12.9392 24.156 13.1384 24.1154C13.3377 24.0749 13.3696 24.2453 13.4015 24.3995C13.5051 24.9677 13.9037 25.3411 14.4537 25.3736C14.6131 25.3898 14.8124 25.3817 14.7725 25.6008C14.7326 25.82 14.5812 25.7875 14.4776 25.8768Z" fill="#100E10"/>
<path d="M17.9218 28.0032H17.8979C17.332 27.9058 16.9414 27.711 16.6465 27.3701C16.5349 27.2402 16.487 27.1185 16.503 27.0049C16.5102 26.9558 16.5282 26.9091 16.5559 26.8683C16.5835 26.8275 16.62 26.7937 16.6624 26.7695C16.7121 26.7365 16.7705 26.7195 16.8298 26.7208C16.9544 26.72 17.0754 26.763 17.1726 26.8425C17.4276 27.0698 17.6668 27.1753 17.8979 27.1753C18.1053 27.1702 18.307 27.1055 18.4798 26.9886C18.5636 26.9262 18.6632 26.8896 18.7668 26.8831C18.8244 26.882 18.8813 26.8964 18.9317 26.9249C18.9821 26.9534 19.0242 26.995 19.0537 27.0454C19.087 27.09 19.11 27.1415 19.121 27.1963C19.132 27.2511 19.1308 27.3077 19.1175 27.362C19.0969 27.4217 19.0643 27.4764 19.0217 27.5225C18.9792 27.5686 18.9276 27.6052 18.8704 27.6299C18.6632 27.7273 18.4479 27.8084 18.2407 27.8977L17.9856 27.9951L17.9218 28.0032Z" fill="#100E10"/>
<path d="M17.9179 27.8401C17.4476 27.7508 17.065 27.5966 16.7621 27.2557C16.6585 27.142 16.5947 26.9959 16.7462 26.8985C16.8976 26.8011 16.9933 26.8904 17.065 26.9554C17.5513 27.3937 18.0216 27.4505 18.5556 27.1177C18.6911 27.0284 18.8187 26.9797 18.9223 27.1258C19.0259 27.2719 18.9382 27.4099 18.8027 27.4748L17.9179 27.8401Z" fill="#100E10"/>
<path d="M22.0661 27.9949H22.0024L21.7632 27.8975C21.548 27.8082 21.3328 27.7189 21.1176 27.6053C20.9024 27.4917 20.9741 27.4024 20.9582 27.2806C20.9422 27.1589 20.9422 27.2076 20.9342 27.1832C20.9259 27.1588 20.9237 27.1326 20.9278 27.1071C20.932 27.0815 20.9424 27.0575 20.9582 27.0371C20.9713 27.0171 20.9891 27.0007 21.0099 26.9894C21.0308 26.9781 21.0541 26.9722 21.0777 26.9722L21.1734 26.956L21.3408 26.9397C21.3989 26.9395 21.4563 26.9535 21.5082 26.9803C21.7553 27.1183 21.9545 27.1832 22.1379 27.1832C22.3212 27.1832 22.5763 27.0696 22.8314 26.8342C22.9166 26.7404 23.0331 26.6825 23.1582 26.6719C23.2112 26.6733 23.2629 26.6881 23.3089 26.7151C23.3548 26.742 23.3934 26.7802 23.4212 26.8261C23.5169 26.9803 23.4531 27.2401 23.3654 27.3537C23.1103 27.6946 22.6719 27.9056 22.1937 27.93C22.1798 27.9512 22.1608 27.9683 22.1384 27.9797C22.116 27.9911 22.0911 27.9964 22.0661 27.9949Z" fill="#100E10"/>
<path d="M22.0664 27.8337C21.7673 27.7233 21.4746 27.5959 21.1896 27.4522C21.1178 27.4116 21.1178 27.2412 21.0859 27.1275C21.2055 27.1194 21.341 27.0707 21.4287 27.1194C22.0425 27.4441 22.441 27.4116 22.9432 26.949C23.0548 26.8353 23.1903 26.7704 23.286 26.9165C23.3816 27.0626 23.3019 27.1681 23.2461 27.2493C22.9831 27.5821 22.5446 27.7688 22.0903 27.7688L22.0664 27.8337Z" fill="#100E10"/>
<path d="M11.7905 22.7599C11.689 22.7551 11.5904 22.7244 11.5036 22.6706C10.8978 22.3622 10.5869 21.8346 10.5391 21.0554V21.0148C10.5483 20.9831 10.5536 20.9504 10.555 20.9174C10.571 20.7893 10.6031 20.6638 10.6507 20.544C10.6985 20.4304 10.8101 20.3817 10.8898 20.333L10.9695 20.2924C10.9812 20.2813 10.995 20.2727 11.0101 20.2671C11.0252 20.2615 11.0412 20.2591 11.0572 20.2599H11.097C11.1202 20.2649 11.1418 20.2757 11.1599 20.2913C11.178 20.3069 11.192 20.3268 11.2007 20.3492C11.2187 20.3736 11.2322 20.4011 11.2405 20.4304C11.296 20.5128 11.3315 20.6073 11.3441 20.7064C11.351 20.8068 11.3456 20.9076 11.3282 21.0067C11.3138 21.1034 11.3111 21.2015 11.3202 21.2989C11.3425 21.4513 11.4036 21.5951 11.4972 21.7161C11.5909 21.8371 11.714 21.9311 11.8543 21.9888C11.9659 22.0456 12.0934 22.1187 12.1333 22.2567C12.1497 22.3047 12.1554 22.3559 12.1499 22.4065C12.1443 22.457 12.1278 22.5057 12.1014 22.5489C12.076 22.6115 12.0329 22.6651 11.9776 22.7027C11.9222 22.7403 11.8571 22.7602 11.7905 22.7599Z" fill="#100E10"/>
<path d="M10.6992 21.0469C10.7153 20.8977 10.7474 20.7507 10.7949 20.6086C10.8347 20.5274 10.9702 20.4868 11.0579 20.4219C11.1057 20.5193 11.1855 20.6248 11.1855 20.7222C11.1855 20.8196 11.1297 21.1362 11.1615 21.331C11.1892 21.5088 11.2608 21.6766 11.3695 21.8185C11.4783 21.9605 11.6206 22.072 11.7833 22.1426C11.9347 22.2157 12.0543 22.305 11.9587 22.4836C11.863 22.6621 11.7115 22.5972 11.576 22.5323C11.0021 22.2319 10.7391 21.7449 10.6992 21.0469Z" fill="#100E10"/>
</svg>
