<svg width="24" height="24" viewBox="0 0 24 24" fill="none" xmlns="http://www.w3.org/2000/svg">
<path d="M23.993 3.95944C23.9235 1.72231 22.4578 0.0280811 20.5831 0.0280811H20.5137C18.7162 0.074883 17.2504 1.90952 17.2504 4.13729V4.86739C17.2504 5.38222 17.2504 5.91576 17.2427 6.43994C17.2377 7.97556 16.9861 9.49529 16.5021 10.9142C15.8541 12.7863 14.9978 14.1622 13.8946 15.1076C13.2466 15.6786 12.6371 15.9501 12.0277 15.9501L11.7499 15.9314H11.7422C10.9708 15.8284 10.2456 15.3791 9.54358 14.5647C7.92352 12.6927 6.99777 10.2402 6.80491 7.27301C6.76634 6.69267 6.76634 6 6.76634 5.49454C6.76634 4.98908 6.76634 4.4181 6.74319 3.86583C6.66605 2.25585 5.94859 1.02028 4.72969 0.374415C4.28826 0.132377 3.81004 0.00485048 3.32564 0C2.59276 0 1.89073 0.318253 1.24271 0.954758C0.185814 2.02184 -0.207628 3.43526 0.116383 5.0078C0.209955 5.45779 0.355394 5.8895 0.548398 6.29017C0.565732 6.348 0.586353 6.4043 0.610115 6.45866C0.13863 7.28703 -0.0696487 8.29455 0.0238083 9.29485C0.126694 10.2931 0.517505 11.215 1.12699 11.897C1.04924 12.1083 0.987274 12.3276 0.941841 12.5523C0.732248 13.5481 0.840812 14.6033 1.24575 15.5061C1.65068 16.4089 2.32203 17.0925 3.12506 17.4197C3.13445 18.4675 3.46756 19.4729 4.05852 20.2371C4.36887 20.6265 4.74041 20.9365 5.15117 21.1487C5.56193 21.361 6.00359 21.4711 6.45004 21.4727H6.4809L6.9052 21.4446C7.14746 22.1956 7.57087 22.8404 8.12006 23.2946C8.66925 23.7489 9.31865 23.9915 9.98331 23.9906C10.3751 23.9897 10.7639 23.9074 11.1328 23.7473H11.1482C11.4377 23.609 11.7165 23.4399 11.9814 23.2418H11.9891C12.5603 23.7474 13.2492 24.0195 13.9563 24.0187H13.9717C14.6489 24.0243 15.312 23.7851 15.8767 23.3317C16.4414 22.8783 16.882 22.2311 17.1424 21.4727C17.2704 21.4914 17.3992 21.5008 17.5281 21.5008H17.5513C18.3606 21.5021 19.1415 21.1385 19.7422 20.4805C20.4828 19.6849 20.8686 18.6646 20.8917 17.4384C21.8329 17.0359 22.504 16.2871 22.8898 15.1919C23.2755 14.0967 23.2755 12.9922 22.8666 11.8877C23.4872 11.2316 23.8811 10.3158 23.9698 9.32293C24.0749 8.31745 23.8627 7.30095 23.3758 6.47738C23.8117 5.74774 24.0294 4.85951 23.993 3.95944ZM23.5841 9.24805C23.4838 10.2496 23.0981 11.0733 22.3883 11.7473C22.8666 12.8331 22.9129 13.9189 22.5349 14.986C22.1569 16.053 21.4703 16.7551 20.4983 17.0733C20.5445 18.3183 20.2051 19.3385 19.4876 20.1061C18.9523 20.6979 18.2523 21.0222 17.5281 21.014C17.3133 21.0119 17.0991 20.9868 16.8878 20.9392C16.4558 22.5211 15.3218 23.532 13.9717 23.532C13.2522 23.5372 12.5557 23.2244 12.0122 22.6521L11.7731 22.83C11.5291 23.0186 11.2707 23.1784 11.0016 23.3073C10.6723 23.4498 10.3252 23.5226 9.97559 23.5226C8.72583 23.5226 7.63808 22.5772 7.20607 21.1076C7.15206 20.9392 7.13663 20.9392 7.09035 20.9392L6.99777 20.9579C6.82397 20.9878 6.64871 21.0034 6.47318 21.0047C6.07425 21.0087 5.67887 20.9136 5.31137 20.7252C4.94387 20.5369 4.61202 20.2593 4.33625 19.9095C4.05641 19.5467 3.83922 19.1196 3.69745 18.6535C3.55569 18.1873 3.49222 17.6914 3.51079 17.195V17.0733L3.4645 17.0546C2.70053 16.8163 2.04534 16.2208 1.64205 15.3982C1.23876 14.5757 1.12016 13.5929 1.31214 12.6646C1.3823 12.3559 1.48063 12.0576 1.60529 11.7754C1.27677 11.4697 1.00131 11.0882 0.794771 10.6528C0.58823 10.2175 0.454685 9.7369 0.401822 9.23869C0.357039 8.7546 0.391944 8.26454 0.504511 7.79695C0.617078 7.32936 0.805064 6.89355 1.05756 6.51482C1.00356 6.36505 0.941841 6.22465 0.887839 6.08424C0.718119 5.69111 0.563828 5.31669 0.486682 4.90484C0.201243 3.49142 0.556113 2.25585 1.48957 1.31045C2.05274 0.75819 2.6699 0.468019 3.32564 0.468019C3.75438 0.47522 4.17725 0.589948 4.56769 0.804992C5.67087 1.38534 6.28803 2.45242 6.35746 3.88456C6.38061 4.4181 6.38061 4.961 6.38061 5.48518C6.38061 6.00936 6.38061 6.70203 6.41918 7.30109C6.61976 10.3807 7.57636 12.936 9.27357 14.8924C10.045 15.7816 10.8396 16.2683 11.6959 16.39L12.0277 16.4181C12.7143 16.4181 13.3931 16.1186 14.1183 15.4914C15.2832 14.4899 16.1781 13.0484 16.857 11.092C17.3587 9.61611 17.6207 8.03646 17.6284 6.43994C17.6362 5.91576 17.6362 5.38222 17.6362 4.86739V4.13729C17.6362 2.17161 18.9322 0.533541 20.5214 0.4961H20.5831C22.2417 0.4961 23.5455 1.99376 23.6072 3.97816C23.6431 4.88958 23.3859 5.78229 22.8898 6.46802C23.4452 7.31045 23.6844 8.24649 23.5841 9.24805Z" fill="white"/>
<path d="M22.3649 5.8596C22.556 5.58372 22.7004 5.26484 22.7899 4.92119C22.8794 4.57755 22.9122 4.21587 22.8864 3.85685C22.8606 3.49782 22.7767 3.14848 22.6396 2.82881C22.5025 2.50913 22.3147 2.22537 22.0872 1.99377C21.6748 1.58053 21.1563 1.35535 20.6214 1.35726C20.4581 1.36058 20.2954 1.38252 20.1354 1.42278C19.1711 1.69424 18.4459 2.66771 18.3765 3.79096C18.3379 4.46491 18.3379 5.15757 18.3379 5.82216V6.41186C18.3465 8.03309 18.0977 9.64116 17.605 11.1482C16.8799 13.4134 15.8538 15.0796 14.4729 16.2496C13.6552 16.9423 12.822 17.2886 12.0043 17.2886C11.1865 17.2886 10.3379 16.9423 9.51245 16.2403C8.25497 15.1732 7.29065 13.6755 6.56549 11.6537C5.91339 9.85411 5.60484 7.89904 5.66288 5.93449V5.26054C5.66288 4.85804 5.6706 4.52107 5.66288 4.1841C5.63202 2.75196 4.86828 1.62871 3.75739 1.38534C3.62957 1.3632 3.50075 1.3507 3.37166 1.3479C2.92557 1.34742 2.48927 1.50656 2.11734 1.80541C1.74541 2.10426 1.45438 2.52956 1.28064 3.02808C1.10691 3.5266 1.05819 4.07621 1.14059 4.60816C1.22299 5.1401 1.43284 5.63076 1.74389 6.01873C2.03704 6.38378 2.03704 6.54291 1.7516 6.90796C1.3327 7.43151 1.10161 8.13495 1.10884 8.86458C1.11607 9.59421 1.36102 10.2907 1.79017 10.8019C1.90475 10.9334 2.02867 11.0524 2.16047 11.1576C2.51534 11.4384 2.5462 11.5882 2.31476 12.0281C1.98552 12.6387 1.86809 13.3823 1.98798 14.0973C2.10786 14.8123 2.45538 15.4411 2.95507 15.8471C3.2268 16.0662 3.53497 16.21 3.85768 16.2683C4.17397 16.3339 4.30512 16.5585 4.25112 16.9516C4.20026 17.3449 4.21865 17.7467 4.30508 18.1307C4.39151 18.5147 4.54402 18.8721 4.75256 19.1794C4.96421 19.4799 5.22674 19.7216 5.52227 19.888C5.8178 20.0543 6.13941 20.1415 6.4652 20.1435C6.58934 20.1458 6.71338 20.1333 6.8355 20.1061C6.98312 20.071 7.13267 20.0491 7.28294 20.0406C7.6301 20.0406 7.71496 20.3027 7.88468 20.8362C8.24726 21.9594 9.05729 22.6521 10.0062 22.6521C10.6146 22.6475 11.1969 22.3515 11.6262 21.8284C11.7651 21.6693 11.8654 21.5476 12.0043 21.5476C12.1431 21.5476 12.2357 21.6693 12.3745 21.8284C12.8451 22.3807 13.3697 22.6521 13.9483 22.6521C14.1594 22.6514 14.3696 22.6168 14.5732 22.5491C15.3987 22.2871 15.9387 21.6131 16.2318 20.4805C16.2935 20.2278 16.3553 19.9657 16.6098 19.9657C16.7069 19.973 16.8028 19.995 16.8953 20.0312C17.3071 20.1716 17.7431 20.1688 18.1536 20.0231C18.5642 19.8775 18.9327 19.5949 19.2174 19.2075C19.4338 18.907 19.5935 18.5528 19.6855 18.1696C19.7774 17.7865 19.7993 17.3836 19.7497 16.9891C19.6957 16.493 19.7805 16.3526 20.1817 16.259C20.7739 16.1333 21.3007 15.7275 21.6465 15.1308C21.9922 14.534 22.1285 13.7951 22.0255 13.0765C21.9715 12.7058 21.856 12.3523 21.686 12.0374C21.4392 11.5788 21.47 11.4384 21.848 11.1482C22.1187 10.9322 22.3491 10.65 22.5245 10.3195C22.6999 9.98901 22.8163 9.61767 22.8664 9.22934C22.9152 8.84784 22.8957 8.45806 22.8091 8.08655C22.7226 7.71503 22.5711 7.37051 22.3649 7.07645C21.9792 6.51483 21.9792 6.41186 22.3649 5.8596ZM2.56934 2.87364C2.66594 2.77251 2.78892 2.71613 2.9165 2.71452C2.96789 2.71426 3.01844 2.7304 3.06308 2.76132C3.10524 2.78519 3.1424 2.82033 3.1718 2.86409C3.20119 2.90786 3.22204 2.95912 3.2328 3.01405C3.26365 3.18253 3.17879 3.34166 3.11708 3.44463C2.76992 3.98753 2.76992 4.43683 3.10936 4.99845C3.20194 5.14821 3.2328 5.45711 3.13251 5.60687C3.10483 5.6576 3.06689 5.69886 3.02232 5.72672C2.97775 5.75458 2.92803 5.7681 2.87793 5.766C2.81416 5.76141 2.75203 5.73972 2.696 5.70249C2.63997 5.66527 2.59144 5.61343 2.55391 5.55071C2.26076 5.12013 2.13733 4.66147 2.14504 3.98753C2.17037 3.56606 2.32118 3.17015 2.56934 2.87364ZM2.61563 10.2777C2.30705 9.93137 2.15276 9.45399 2.13733 8.8362V8.81748C2.16819 8.26522 2.31476 7.83464 2.58477 7.52575C2.67822 7.45074 2.78923 7.4146 2.90107 7.42278H3.00907C3.02856 7.42014 3.04829 7.42253 3.06696 7.42981C3.08563 7.43709 3.10282 7.44908 3.1174 7.46499C3.13198 7.48091 3.14361 7.50039 3.15153 7.52216C3.15945 7.54392 3.16349 7.56748 3.16336 7.59127V7.60999C3.16336 7.63807 3.17108 7.67552 3.17108 7.71296C3.17108 7.7504 3.19422 7.96569 3.13251 8.07801C2.76221 8.77068 2.76221 9.01405 3.14794 9.7348C3.17182 9.78713 3.18685 9.84472 3.19215 9.90419C3.19745 9.96366 3.19291 10.0238 3.17879 10.0811V10.1841C3.17538 10.2346 3.15604 10.2815 3.12479 10.3151C3.11282 10.3333 3.09752 10.3478 3.08011 10.3576C3.06271 10.3673 3.04367 10.372 3.0245 10.3713H2.83164C2.79226 10.3747 2.75273 10.3681 2.71554 10.352C2.67836 10.3359 2.64434 10.3106 2.61563 10.2777ZM4.35141 14.9392C4.32873 15.013 4.28745 15.0762 4.23343 15.1199C4.17941 15.1636 4.11541 15.1855 4.05054 15.1825C3.95248 15.1759 3.8572 15.1405 3.77281 15.0796C3.18651 14.7239 2.88564 14.1155 2.83935 13.2169V13.1701C2.85204 13.1347 2.85734 13.0961 2.85478 13.0577C2.87008 12.9099 2.9012 12.7652 2.94736 12.6272C2.99364 12.4961 3.10165 12.4399 3.17879 12.3838L3.25594 12.337C3.26729 12.3242 3.28066 12.3142 3.29524 12.3078C3.30981 12.3014 3.32531 12.2986 3.3408 12.2995H3.37937C3.40238 12.3035 3.424 12.3153 3.44174 12.3335C3.45949 12.3517 3.47263 12.3756 3.47966 12.4025C3.49997 12.4283 3.5134 12.4609 3.51823 12.4961C3.57389 12.5898 3.60846 12.6995 3.61852 12.8144C3.62884 12.9301 3.62363 13.047 3.60309 13.1607C3.59283 13.2726 3.59025 13.3853 3.59538 13.4977C3.61841 13.6728 3.67801 13.8378 3.76848 13.9771C3.85896 14.1164 3.9773 14.2252 4.11226 14.2933C4.22026 14.3588 4.34369 14.4431 4.38227 14.6022C4.39997 14.6572 4.40641 14.7166 4.40103 14.7753C4.39566 14.834 4.37863 14.8902 4.35141 14.9392ZM7.09008 18.5055C7.06693 18.6646 6.95121 18.7582 6.85092 18.8424L6.75064 18.9267C6.72253 18.9546 6.68652 18.968 6.65035 18.9641H6.63492C5.81717 18.8612 5.13829 18.0936 5.04572 17.1857C5.03029 17.0172 4.99172 16.6334 5.32344 16.5585H5.4083C5.67831 16.5585 5.73231 16.8768 5.75546 17.0265V17.0452C5.84803 17.6162 6.17976 17.9813 6.63492 18.0187H6.66578C6.78921 18.0281 6.9435 18.0468 7.03607 18.1872C7.06371 18.2322 7.08287 18.2841 7.0922 18.3391C7.10153 18.3941 7.10081 18.4509 7.09008 18.5055ZM11.1402 20.4899C11.1216 20.5596 11.0905 20.6234 11.0492 20.6769C11.0078 20.7303 10.9573 20.7719 10.9011 20.7988C10.7005 20.9111 10.4922 21.0047 10.2916 21.1077L10.0448 21.22H9.95989C9.41216 21.1077 9.03415 20.883 8.74871 20.4899C8.6407 20.3401 8.59442 20.1997 8.60984 20.0686C8.61831 20.0128 8.63643 19.9597 8.66303 19.9129C8.68962 19.8661 8.72408 19.8267 8.76414 19.7972C8.81311 19.7615 8.869 19.7421 8.92614 19.741C9.04694 19.7386 9.16452 19.7884 9.25787 19.8814C9.50473 20.1435 9.73617 20.2652 9.95989 20.2652C10.1602 20.2569 10.3549 20.1824 10.5231 20.0499C10.6052 19.9817 10.7014 19.9428 10.8008 19.9376C10.8567 19.9353 10.9121 19.9515 10.961 19.9845C11.0099 20.0175 11.0506 20.066 11.0785 20.1248C11.1123 20.1751 11.1355 20.2346 11.1463 20.2982C11.157 20.3617 11.1549 20.4275 11.1402 20.4899ZM15.2521 20.4805C15.0052 20.8736 14.5809 21.117 14.118 21.1451C14.1046 21.1695 14.0862 21.1893 14.0645 21.2025C14.0429 21.2156 14.0188 21.2216 13.9946 21.22H13.9329L13.7015 21.1077C13.4932 21.0047 13.2849 20.9017 13.0766 20.7707C12.8683 20.6396 12.9377 20.5367 12.9223 20.3963C12.9069 20.2559 12.9069 20.312 12.8991 20.2839C12.891 20.2558 12.8889 20.2255 12.893 20.1961C12.897 20.1667 12.9071 20.1389 12.9223 20.1155C12.9355 20.0929 12.9528 20.0744 12.9729 20.0614C12.9929 20.0484 13.0152 20.0413 13.038 20.0406L13.1306 20.0218L13.2926 20.0031C13.3489 20.0029 13.4044 20.019 13.4546 20.0499C13.6937 20.2091 13.8866 20.2839 14.064 20.2839C14.2415 20.2839 14.4883 20.1529 14.7352 19.8814C14.8172 19.7725 14.9303 19.7056 15.0515 19.6942C15.1028 19.6959 15.1529 19.713 15.1974 19.744C15.2418 19.7751 15.2792 19.8191 15.3061 19.8721C15.3987 20.0499 15.3369 20.3495 15.2521 20.4805ZM18.9628 17.1482C18.8856 18.1217 18.1373 18.8799 17.2656 18.8892C17.2249 18.8885 17.1861 18.8684 17.1576 18.8331L17.1344 18.8144C17.0573 18.7582 16.9339 18.6552 16.9107 18.4867C16.9019 18.432 16.9021 18.3757 16.9114 18.321C16.9207 18.2664 16.9388 18.2146 16.9647 18.1685C17.0573 18.0281 17.2193 18.0094 17.3427 18C17.8365 17.9626 18.1605 17.6162 18.2453 17.0265C18.2608 16.8861 18.3148 16.5304 18.6079 16.5304H18.6619C19.0091 16.5866 18.9782 17.0078 18.9628 17.1482ZM21.1769 13.273C21.1723 13.6645 21.0754 14.0462 20.8977 14.373C20.72 14.6998 20.4688 14.9579 20.174 15.117C20.1028 15.1629 20.0231 15.1855 19.9425 15.1825C19.8731 15.181 19.806 15.1517 19.7516 15.0993C19.6972 15.0468 19.6586 14.9741 19.6417 14.8924C19.5954 14.6958 19.7188 14.4243 19.85 14.3307C20.3668 13.9657 20.498 13.6194 20.39 12.9173C20.3668 12.7582 20.3514 12.5804 20.4363 12.4493C20.4626 12.4072 20.4964 12.3728 20.5351 12.3485C20.5738 12.3242 20.6164 12.3107 20.66 12.3089H20.6754C20.8451 12.3089 21.0149 12.5242 21.0766 12.6833C21.1237 12.8106 21.1524 12.9467 21.1614 13.0858C21.1691 13.1326 21.1692 13.1888 21.1769 13.2356V13.273ZM21.4314 10.2309C21.3441 10.3165 21.2351 10.3628 21.1229 10.3619H20.9994V10.3807C20.9653 10.3773 20.9329 10.361 20.9069 10.3339C20.8878 10.3184 20.8722 10.2976 20.8615 10.2731C20.8507 10.2486 20.8451 10.2212 20.8451 10.1935C20.8501 10.1558 20.8475 10.1173 20.8374 10.0811C20.8297 9.95945 20.8143 9.80968 20.8837 9.69736C21.2309 9.05149 21.2309 8.71452 20.8837 8.09673C20.7989 7.93761 20.7757 7.63807 20.8837 7.47895C20.9127 7.4351 20.949 7.39911 20.9902 7.37332C21.0314 7.34752 21.0766 7.33249 21.1229 7.32918C21.2617 7.32918 21.3774 7.46023 21.4469 7.55383C21.7216 7.90399 21.8713 8.37157 21.8635 8.85492C21.8635 9.41654 21.7246 9.8752 21.4314 10.2309ZM21.8635 4.29642C21.8672 4.52513 21.8329 4.7524 21.7626 4.96468C21.6924 5.17696 21.5876 5.3699 21.4546 5.53199C21.352 5.64776 21.2167 5.7114 21.0766 5.70984C21.0285 5.711 20.9809 5.69816 20.9377 5.67239C20.8958 5.65065 20.8586 5.61732 20.8291 5.57507C20.7997 5.53282 20.7787 5.48281 20.768 5.42903C20.7371 5.25118 20.822 5.09205 20.8914 4.98909C21.2309 4.45555 21.2309 4.01561 20.8914 3.4259C20.7989 3.27614 20.7757 2.97661 20.876 2.81748C20.9039 2.76925 20.9408 2.72971 20.9837 2.70205C21.0266 2.6744 21.0743 2.65943 21.1229 2.65835C21.1875 2.66265 21.2505 2.6852 21.3068 2.7242C21.363 2.76319 21.411 2.81757 21.4469 2.883C21.5907 3.07284 21.7016 3.29573 21.7732 3.53851C21.8447 3.78128 21.8754 4.039 21.8635 4.29642Z" fill="white"/>
</svg>
