<svg width="80" height="80" viewBox="0 0 80 80" fill="none" xmlns="http://www.w3.org/2000/svg">
<path d="M40 80C62.0914 80 80 62.0914 80 40C80 17.9086 62.0914 0 40 0C17.9086 0 0 17.9086 0 40C0 62.0914 17.9086 80 40 80Z" fill="#100E10"/>
<path d="M37.334 55.7461C38.218 57.6257 40.3275 58.5054 42.3969 58.1855C44.9686 57.7856 47.259 56.6659 49.4891 55.4062C51.1366 54.5064 52.0406 54.2465 53.5274 54.4664C53.0251 54.9263 52.6836 55.3062 52.2817 55.6062C51.1566 56.406 49.9311 57.1058 48.8462 57.9656C43.5823 62.1845 37.8161 62.2645 31.9696 59.7251C23.3304 55.9861 18.1268 47.0883 18.8099 37.7706C19.493 28.453 27.2884 20.0951 36.7111 18.8154C48.2836 17.2358 58.51 24.254 60.8004 35.5312C62.2068 42.4295 60.4387 48.5879 55.7575 53.8666L53.7685 52.067C55.9383 49.7676 57.6059 46.5284 58.3091 42.7894C60.278 32.5319 52.2416 22.1945 41.7741 21.2748C31.9094 20.435 23.1697 27.3332 21.7031 36.5909C20.7588 42.3695 22.0245 47.6082 26.3642 51.8071C28.4135 53.7866 30.8445 54.4864 33.6171 53.2268C35.0837 52.5669 36.6308 52.5469 38.1778 53.0468C39.2426 53.4067 40.2873 53.8266 41.3924 54.0266C42.4974 54.2265 43.964 54.2265 45.2699 54.3065C45.5713 54.3265 45.8727 54.3065 46.174 54.3065C46.174 55.5262 45.1092 56.6059 43.6426 56.5859C42.1759 56.5659 40.8901 56.206 39.5239 56.0261L37.334 55.7461Z" fill="#F4F4F4"/>
<path d="M32.3532 52.1668C32.3532 52.1668 35.4673 50.5472 38.1395 51.6869C38.1395 51.6869 39.2043 47.328 40.249 47.9278C41.2938 48.5277 42.1979 52.8266 42.1979 52.8266C42.1979 52.8266 43.986 53.3865 45.0106 53.0865C45.6989 52.9077 46.416 52.867 47.1202 52.9666C47.1202 52.9666 51.1987 47.6879 51.8617 40.1698C52.5247 32.6517 51.8617 27.9928 46.417 28.7126C40.9723 29.4325 36.3715 36.0108 31.3889 33.4115C31.3889 33.4115 35.6281 34.1913 38.1796 30.5322C38.1796 30.5322 33.3377 26.9731 29.6409 29.2525C25.9442 31.5319 28.2345 46.2682 32.3532 52.1668Z" fill="#F4F4F4"/>
<path d="M40.4215 23.1938C40.4215 25.7732 38.7539 25.8132 38.7539 25.8132C40.321 25.8132 40.4215 28.4925 40.4215 28.4925C40.4215 28.4925 40.5018 25.8132 42.089 25.8132C42.089 25.8132 40.4215 25.7732 40.4215 23.1938Z" fill="#F4F4F4"/>
<path d="M36.1072 25.8335C36.1072 27.0132 35.3438 27.0332 35.3438 27.0332C36.067 27.0332 36.1072 28.2729 36.1072 28.2729C36.1072 28.2729 36.1474 27.0332 36.8707 27.0332C36.8707 27.0332 36.1072 27.0132 36.1072 25.8335Z" fill="#F4F4F4"/>
<path d="M44.4822 25.2734C44.4822 26.4531 43.7188 26.4731 43.7188 26.4731C44.442 26.4731 44.4822 27.7128 44.4822 27.7128C44.4822 27.7128 44.5224 26.4731 45.2658 26.4731C45.2658 26.4731 44.4822 26.4531 44.4822 25.2734Z" fill="#F4F4F4"/>
<path d="M40 80C62.0914 80 80 62.0914 80 40C80 17.9086 62.0914 0 40 0C17.9086 0 0 17.9086 0 40C0 62.0914 17.9086 80 40 80Z" fill="#100E10"/>
<path d="M37.1467 56.8256C38.0709 58.8451 40.3412 59.7849 42.5513 59.445C45.3037 59.0251 47.7548 57.8054 50.1457 56.4657C51.8936 55.4859 52.858 55.226 54.4653 55.446C54.0514 55.8818 53.6084 56.2893 53.1393 56.6656C51.9137 57.5254 50.6078 58.2852 49.4425 59.205C43.817 63.7039 37.6691 63.8039 31.4007 61.0845C22.1588 57.0855 16.5935 47.5679 17.3168 37.6104C18.0401 27.6529 26.398 18.6952 36.4837 17.3355C48.8599 15.6359 59.8095 23.1341 62.2405 35.211C63.7474 42.5692 61.8588 49.1675 56.836 54.8061L54.7265 52.9066C57.0369 50.4472 58.8251 46.9881 59.5885 42.9691C61.678 31.9918 53.079 20.9346 41.8882 19.9748C31.3404 19.0551 21.998 26.4532 20.4108 36.3507C19.4264 42.5292 20.7725 48.1278 25.4135 52.6067C27.6035 54.7261 30.1952 55.486 33.1687 54.1263C34.7358 53.4265 36.3833 53.4065 38.0307 53.9463C39.1759 54.3262 40.301 54.7861 41.4864 54.9861C42.6718 55.186 44.2389 55.206 45.6252 55.286C45.9466 55.306 46.2681 55.286 46.5896 55.286C46.6097 56.5857 45.4645 57.7454 43.8773 57.7254C42.2901 57.7054 40.944 57.3255 39.4773 57.1255L37.1467 56.8256Z" fill="#F4F4F4"/>
<path d="M31.8416 52.9869C31.8416 52.9869 35.1567 51.2673 38.0096 52.487C38.0096 52.487 39.1548 47.8282 40.2598 48.468C41.3648 49.1078 42.3694 53.7067 42.3694 53.7067C42.3694 53.7067 44.2579 54.2865 45.383 53.9866C46.1173 53.796 46.8827 53.7552 47.6333 53.8666C47.6333 53.8666 51.993 48.2281 52.6962 40.1701C53.3994 32.1121 52.6962 27.1533 46.8698 27.9131C41.0434 28.673 36.121 35.7112 30.817 32.9519C30.817 32.9519 35.3375 33.7917 38.0699 29.8527C38.0699 29.8527 32.8864 26.0536 28.9284 28.493C24.9705 30.9324 27.4216 46.6884 31.8416 52.9869Z" fill="#F4F4F4"/>
<path d="M40.4522 22.0146C40.4522 24.754 38.6641 24.8139 38.6641 24.8139C40.3517 24.8139 40.4522 27.6732 40.4522 27.6732C40.4522 27.6732 40.5526 24.8139 42.2403 24.8139C42.2403 24.8139 40.4522 24.754 40.4522 22.0146Z" fill="#F4F4F4"/>
<path d="M35.8276 24.834C35.8276 26.1137 35.0039 26.1337 35.0039 26.1337C35.7875 26.1337 35.8276 27.4333 35.8276 27.4333C35.8276 27.4333 35.8678 26.1337 36.6313 26.1337C36.6313 26.1337 35.8276 26.1137 35.8276 24.834Z" fill="#F4F4F4"/>
<path d="M44.7925 24.2339C44.7925 25.5136 43.9688 25.5336 43.9688 25.5336C44.7523 25.5336 44.7925 26.8332 44.7925 26.8332C44.7925 26.8332 44.8327 25.5336 45.6162 25.5336C45.6162 25.5336 44.7925 25.5136 44.7925 24.2339Z" fill="#F4F4F4"/>
</svg>
