<svg width="24" height="24" viewBox="0 0 24 24" fill="none" xmlns="http://www.w3.org/2000/svg">
<g clip-path="url(#clip0_1420_5646)">
<path d="M23.992 4.62949C23.9225 2.57878 22.4568 1.02574 20.5821 1.02574H20.5127C18.7152 1.06864 17.2494 2.75039 17.2494 4.79251V5.46178C17.2494 5.9337 17.2494 6.42278 17.2417 6.90328C17.2367 8.31093 16.9852 9.70402 16.5011 11.0047C15.8531 12.7207 14.9968 13.9821 13.8936 14.8487C13.2456 15.3721 12.6361 15.6209 12.0267 15.6209L11.749 15.6037H11.7413C10.9698 15.5094 10.2446 15.0975 9.5426 14.351C7.92254 12.6349 6.9968 10.3869 6.80393 7.66693C6.76536 7.13495 6.76536 6.5 6.76536 6.03666C6.76536 5.57332 6.76536 5.04992 6.74222 4.54368C6.66507 3.06786 5.94762 1.93526 4.72871 1.34321C4.28728 1.12135 3.80906 1.00445 3.32466 1C2.59178 1 1.88976 1.29173 1.24173 1.8752C0.184838 2.85335 -0.208605 4.14899 0.115407 5.59048C0.208978 6.00297 0.354418 6.39871 0.547422 6.76599C0.564755 6.819 0.585377 6.87061 0.609138 6.92044C0.137653 7.67978 -0.0706252 8.60334 0.0228318 9.52028C0.125717 10.4354 0.516528 11.2804 1.12601 11.9056C1.04826 12.0993 0.986298 12.3003 0.940865 12.5062C0.731272 13.4191 0.839835 14.3864 1.24477 15.2139C1.64971 16.0415 2.32105 16.6681 3.12409 16.968C3.13348 17.9286 3.46659 18.8502 4.05755 19.5507C4.3679 19.9077 4.73943 20.1918 5.15019 20.3863C5.56096 20.5809 6.00261 20.6819 6.44906 20.6833H6.47992L6.90422 20.6576C7.14648 21.346 7.5699 21.937 8.11909 22.3534C8.66827 22.7698 9.31767 22.9922 9.98233 22.9914C10.3741 22.9906 10.7629 22.9151 11.1318 22.7683H11.1472C11.4367 22.6416 11.7156 22.4866 11.9804 22.305H11.9881C12.5593 22.7685 13.2483 23.0179 13.9553 23.0172H13.9708C14.6479 23.0223 15.311 22.803 15.8757 22.3874C16.4404 21.9717 16.881 21.3785 17.1414 20.6833C17.2694 20.7004 17.3982 20.709 17.5272 20.709H17.5503C18.3596 20.7103 19.1405 20.3769 19.7412 19.7738C20.4818 19.0445 20.8676 18.1092 20.8907 16.9852C21.8319 16.6162 22.5031 15.9298 22.8888 14.9259C23.2745 13.922 23.2745 12.9095 22.8656 11.897C23.4862 11.2957 23.8802 10.4562 23.9688 9.54602C24.0739 8.62433 23.8617 7.69254 23.3748 6.9376C23.8107 6.26876 24.0284 5.45455 23.992 4.62949ZM23.5831 9.47738C23.4828 10.3955 23.0971 11.1505 22.3873 11.7683C22.8657 12.7637 22.9119 13.759 22.5339 14.7371C22.1559 15.7153 21.4693 16.3588 20.4973 16.6505C20.5436 17.7917 20.2041 18.727 19.4867 19.4306C18.9513 19.9731 18.2514 20.2704 17.5272 20.2629C17.3123 20.2609 17.0981 20.2379 16.8869 20.1942C16.4548 21.6443 15.3208 22.571 13.9708 22.571C13.2512 22.5757 12.5547 22.2891 12.0113 21.7644L11.7721 21.9275C11.5281 22.1004 11.2698 22.2469 11.0007 22.3651C10.6713 22.4957 10.3243 22.5624 9.97462 22.5624C8.72486 22.5624 7.6371 21.6958 7.20509 20.3487C7.15109 20.1942 7.13566 20.1942 7.08937 20.1942L6.9968 20.2114C6.823 20.2388 6.64774 20.2531 6.47221 20.2543C6.07328 20.258 5.6779 20.1708 5.31039 19.9981C4.94289 19.8255 4.61104 19.571 4.33527 19.2504C4.05543 18.9178 3.83824 18.5263 3.69648 18.099C3.55471 17.6717 3.49125 17.2171 3.50981 16.7621V16.6505L3.46353 16.6334C2.69956 16.4149 2.04436 15.8691 1.64107 15.1151C1.23779 14.361 1.11918 13.4602 1.31116 12.6092C1.38132 12.3262 1.47965 12.0528 1.60432 11.7941C1.27579 11.5139 1.00033 11.1642 0.793794 10.7651C0.587253 10.366 0.453709 9.92549 0.400845 9.4688C0.356063 9.02505 0.390968 8.57583 0.503534 8.1472C0.616101 7.71858 0.804087 7.31909 1.05658 6.97192C1.00258 6.83463 0.940865 6.70593 0.886863 6.57722C0.717142 6.21685 0.562851 5.87364 0.485705 5.4961C0.200267 4.20047 0.555136 3.06786 1.4886 2.20125C2.05176 1.69501 2.66893 1.42902 3.32466 1.42902C3.7534 1.43562 4.17627 1.54079 4.56671 1.73791C5.66989 2.26989 6.28706 3.24805 6.35649 4.56084C6.37963 5.04992 6.37963 5.54758 6.37963 6.02808C6.37963 6.50858 6.37963 7.14353 6.4182 7.69267C6.61878 10.5156 7.57539 12.858 9.27259 14.6513C10.044 15.4665 10.8386 15.9126 11.695 16.0242L12.0267 16.0499C12.7133 16.0499 13.3922 15.7754 14.1173 15.2005C15.2822 14.2824 16.1771 12.961 16.856 11.1677C17.3577 9.81477 17.6197 8.36675 17.6275 6.90328C17.6352 6.42278 17.6352 5.9337 17.6352 5.46178V4.79251C17.6352 2.99064 18.9312 1.48908 20.5204 1.45476H20.5821C22.2408 1.45476 23.5445 2.82761 23.6062 4.64665C23.6421 5.48211 23.3849 6.30043 22.8888 6.92902C23.4442 7.70125 23.6834 8.55928 23.5831 9.47738Z" fill="#878687"/>
<path d="M22.3639 6.37132C22.555 6.11843 22.6995 5.82612 22.7889 5.51111C22.8784 5.1961 22.9112 4.86457 22.8854 4.53546C22.8596 4.20636 22.7757 3.88613 22.6386 3.59309C22.5015 3.30005 22.3138 3.03995 22.0862 2.82764C21.6738 2.44884 21.1553 2.24243 20.6204 2.24418C20.4571 2.24722 20.2944 2.26733 20.1344 2.30424C19.1701 2.55307 18.4449 3.44543 18.3755 4.47507C18.3369 5.09285 18.3369 5.7278 18.3369 6.337V6.87756C18.3455 8.36369 18.0967 9.83775 17.604 11.2192C16.8789 13.2957 15.8528 14.823 14.4719 15.8955C13.6542 16.5304 12.821 16.8479 12.0033 16.8479C11.1855 16.8479 10.3369 16.5304 9.51147 15.8869C8.254 14.9088 7.28968 13.5359 6.56451 11.6826C5.91242 10.033 5.60387 8.24081 5.66191 6.43997V5.82218C5.66191 5.45323 5.66962 5.14433 5.66191 4.83544C5.63105 3.52265 4.86731 2.49301 3.75641 2.26992C3.62859 2.24962 3.49977 2.23816 3.37068 2.2356C2.92459 2.23516 2.48829 2.38104 2.11636 2.65498C1.74444 2.92893 1.4534 3.31878 1.27967 3.77576C1.10593 4.23274 1.05722 4.73655 1.13961 5.22417C1.22201 5.71178 1.43186 6.16155 1.74291 6.51719C2.03606 6.85182 2.03606 6.99769 1.75062 7.33232C1.33172 7.81224 1.10064 8.45706 1.10787 9.12588C1.11509 9.79471 1.36004 10.4332 1.7892 10.9017C1.90378 11.0223 2.02769 11.1314 2.15949 11.2278C2.51436 11.4852 2.54522 11.6225 2.31379 12.0258C1.98454 12.5855 1.86712 13.2671 1.987 13.9225C2.10689 14.578 2.4544 15.1544 2.95409 15.5265C3.22582 15.7274 3.53399 15.8592 3.8567 15.9127C4.173 15.9727 4.30414 16.1787 4.25014 16.539C4.19928 16.8995 4.21767 17.2679 4.30411 17.6199C4.39054 17.9718 4.54305 18.2995 4.75159 18.5812C4.96324 18.8566 5.22576 19.0782 5.5213 19.2307C5.81683 19.3832 6.13843 19.4631 6.46422 19.4649C6.58837 19.467 6.7124 19.4555 6.83452 19.4306C6.98214 19.3984 7.13169 19.3783 7.28196 19.3705C7.62912 19.3705 7.71398 19.6108 7.8837 20.0999C8.24628 21.1295 9.05631 21.7645 10.0052 21.7645C10.6136 21.7603 11.1959 21.4889 11.6253 21.0094C11.7641 20.8635 11.8644 20.752 12.0033 20.752C12.1421 20.752 12.2347 20.8635 12.3736 21.0094C12.8442 21.5156 13.3688 21.7645 13.9473 21.7645C14.1585 21.7638 14.3686 21.7321 14.5722 21.6701C15.3977 21.4298 15.9377 20.812 16.2309 19.7738C16.2926 19.5422 16.3543 19.3019 16.6089 19.3019C16.7059 19.3086 16.8018 19.3288 16.8943 19.362C17.3061 19.4906 17.7421 19.4881 18.1526 19.3546C18.5632 19.2211 18.9318 18.962 19.2164 18.6069C19.4328 18.3314 19.5925 18.0067 19.6845 17.6555C19.7764 17.3043 19.7983 16.935 19.7487 16.5734C19.6947 16.1186 19.7796 15.9899 20.1807 15.9041C20.7729 15.7889 21.2998 15.4169 21.6455 14.8699C21.9912 14.3228 22.1275 13.6455 22.0245 12.9868C21.9705 12.647 21.855 12.323 21.6851 12.0344C21.4382 11.6139 21.469 11.4852 21.8471 11.2192C22.1177 11.0212 22.3481 10.7625 22.5235 10.4595C22.6989 10.1566 22.8153 9.81622 22.8654 9.46025C22.9142 9.11054 22.8947 8.75324 22.8081 8.41269C22.7216 8.07213 22.5701 7.75632 22.3639 7.48677C21.9782 6.97195 21.9782 6.87756 22.3639 6.37132ZM2.56837 3.63419C2.66496 3.54149 2.78794 3.48981 2.91552 3.48833C2.96692 3.48809 3.01747 3.50288 3.0621 3.53123C3.10426 3.55311 3.14143 3.58532 3.17082 3.62544C3.20021 3.66556 3.22106 3.71255 3.23182 3.7629C3.26268 3.91734 3.17782 4.06321 3.1161 4.15759C2.76895 4.65525 2.76895 5.06711 3.10839 5.58193C3.20096 5.71922 3.23182 6.00237 3.13153 6.13965C3.10385 6.18615 3.06591 6.22398 3.02134 6.24951C2.97677 6.27505 2.92706 6.28745 2.87695 6.28552C2.81318 6.28131 2.75105 6.26143 2.69502 6.22731C2.63899 6.19318 2.59047 6.14566 2.55294 6.08817C2.25978 5.69348 2.13635 5.27304 2.14407 4.65525C2.1694 4.26891 2.32021 3.90599 2.56837 3.63419ZM2.61465 10.4212C2.30607 10.1038 2.15178 9.66617 2.13635 9.09987V9.08271C2.16721 8.57647 2.31379 8.18178 2.5838 7.89862C2.67724 7.82986 2.78825 7.79674 2.90009 7.80424H3.0081C3.02759 7.80182 3.04731 7.80401 3.06599 7.81068C3.08466 7.81735 3.10185 7.82834 3.11642 7.84293C3.131 7.85752 3.14263 7.87538 3.15055 7.89533C3.15848 7.91528 3.16251 7.93688 3.16239 7.95869V7.97585C3.16239 8.00159 3.1701 8.03591 3.1701 8.07023C3.1701 8.10455 3.19325 8.3019 3.13153 8.40486C2.76123 9.03981 2.76123 9.2629 3.14696 9.92359C3.17084 9.97155 3.18588 10.0243 3.19118 10.0789C3.19648 10.1334 3.19193 10.1885 3.17782 10.2411V10.3354C3.17441 10.3817 3.15506 10.4248 3.12382 10.4556C3.11184 10.4722 3.09654 10.4855 3.07914 10.4945C3.06173 10.5034 3.04269 10.5077 3.02353 10.507H2.83066C2.79128 10.5101 2.75175 10.5041 2.71457 10.4893C2.67739 10.4746 2.64337 10.4514 2.61465 10.4212ZM4.35043 14.6943C4.32775 14.7619 4.28647 14.8199 4.23245 14.8599C4.17844 14.9 4.11444 14.9201 4.04956 14.9173C3.9515 14.9112 3.85622 14.8789 3.77184 14.823C3.18553 14.4969 2.88466 13.9392 2.83838 13.1155V13.0726C2.85106 13.0402 2.85636 13.0048 2.85381 12.9696C2.8691 12.8341 2.90022 12.7014 2.94638 12.5749C2.99267 12.4548 3.10067 12.4033 3.17782 12.3518L3.25496 12.3089C3.26632 12.2972 3.27968 12.2881 3.29426 12.2822C3.30884 12.2763 3.32433 12.2737 3.33982 12.2746H3.3784C3.40141 12.2782 3.42303 12.289 3.44077 12.3057C3.45851 12.3224 3.47165 12.3443 3.47868 12.369C3.49899 12.3926 3.51243 12.4225 3.51726 12.4548C3.57291 12.5407 3.60748 12.6412 3.61755 12.7465C3.62787 12.8526 3.62266 12.9598 3.60212 13.064C3.59186 13.1665 3.58928 13.2699 3.5944 13.3729C3.61744 13.5334 3.67703 13.6847 3.7675 13.8124C3.85798 13.94 3.97633 14.0398 4.11128 14.1022C4.21928 14.1623 4.34272 14.2395 4.38129 14.3854C4.39899 14.4358 4.40543 14.4902 4.40006 14.544C4.39468 14.5978 4.37765 14.6494 4.35043 14.6943ZM7.0891 17.9634C7.06596 18.1092 6.95024 18.195 6.84995 18.2723L6.74966 18.3495C6.72155 18.3751 6.68555 18.3874 6.64937 18.3838H6.63394C5.8162 18.2894 5.13732 17.5858 5.04474 16.7535C5.02931 16.5991 4.99074 16.2473 5.32246 16.1787H5.40733C5.67733 16.1787 5.73134 16.4704 5.75448 16.6077V16.6248C5.84706 17.1482 6.17878 17.4829 6.63394 17.5172H6.6648C6.78823 17.5258 6.94252 17.5429 7.0351 17.6716C7.06274 17.7129 7.0819 17.7604 7.09123 17.8108C7.10056 17.8612 7.09983 17.9133 7.0891 17.9634ZM11.1392 19.7824C11.1207 19.8463 11.0896 19.9049 11.0482 19.9538C11.0069 20.0028 10.9563 20.0409 10.9001 20.0656C10.6995 20.1685 10.4912 20.2543 10.2906 20.3487L10.0438 20.4517H9.95892C9.41118 20.3487 9.03317 20.1428 8.74773 19.7824C8.63973 19.6451 8.59344 19.5164 8.60887 19.3963C8.61733 19.345 8.63546 19.2964 8.66205 19.2535C8.68864 19.2106 8.7231 19.1745 8.76316 19.1475C8.81213 19.1147 8.86803 19.0969 8.92516 19.096C9.04597 19.0937 9.16355 19.1394 9.25689 19.2247C9.50376 19.4649 9.73519 19.5765 9.95892 19.5765C10.1593 19.5688 10.354 19.5006 10.5221 19.3791C10.6042 19.3166 10.7004 19.2809 10.7998 19.2762C10.8557 19.2741 10.9111 19.2889 10.96 19.3192C11.009 19.3494 11.0496 19.3938 11.0775 19.4478C11.1113 19.4939 11.1346 19.5484 11.1453 19.6067C11.156 19.6649 11.154 19.7252 11.1392 19.7824ZM15.2511 19.7738C15.0042 20.1342 14.5799 20.3573 14.1171 20.383C14.1037 20.4054 14.0852 20.4236 14.0636 20.4356C14.0419 20.4476 14.0178 20.4532 13.9936 20.4517H13.9319L13.7005 20.3487C13.4922 20.2543 13.2839 20.1599 13.0756 20.0398C12.8673 19.9197 12.9367 19.8253 12.9213 19.6966C12.9059 19.5679 12.9059 19.6194 12.8982 19.5936C12.8901 19.5678 12.8879 19.5401 12.892 19.5131C12.896 19.4861 12.9061 19.4607 12.9213 19.4392C12.9345 19.4185 12.9518 19.4016 12.9719 19.3897C12.992 19.3778 13.0143 19.3712 13.037 19.3705L13.1296 19.3534L13.2916 19.3362C13.3479 19.336 13.4034 19.3507 13.4536 19.3791C13.6928 19.525 13.8856 19.5936 14.0631 19.5936C14.2405 19.5936 14.4874 19.4735 14.7342 19.2247C14.8162 19.1248 14.9293 19.0635 15.0505 19.0531C15.1018 19.0546 15.1519 19.0703 15.1964 19.0987C15.2408 19.1272 15.2782 19.1675 15.3051 19.2161C15.3977 19.3791 15.336 19.6537 15.2511 19.7738ZM18.9618 16.7192C18.8847 17.6116 18.1364 18.3066 17.2646 18.3152C17.2239 18.3145 17.1851 18.296 17.1566 18.2637L17.1335 18.2465C17.0563 18.195 16.9329 18.1007 16.9097 17.9462C16.9009 17.896 16.9012 17.8444 16.9104 17.7943C16.9197 17.7442 16.9378 17.6967 16.9637 17.6545C17.0563 17.5258 17.2183 17.5086 17.3418 17.5C17.8355 17.4657 18.1595 17.1482 18.2444 16.6077C18.2598 16.479 18.3138 16.1529 18.6069 16.1529H18.6609C19.0081 16.2044 18.9772 16.5905 18.9618 16.7192ZM21.1759 13.167C21.1713 13.5258 21.0744 13.8757 20.8967 14.1752C20.719 14.4748 20.4678 14.7115 20.173 14.8573C20.1019 14.8994 20.0221 14.9201 19.9416 14.9173C19.8721 14.9159 19.805 14.8891 19.7506 14.841C19.6963 14.7929 19.6576 14.7263 19.6407 14.6514C19.5944 14.4712 19.7178 14.2223 19.849 14.1365C20.3659 13.8019 20.497 13.4844 20.389 12.8409C20.3659 12.695 20.3504 12.532 20.4353 12.4119C20.4616 12.3733 20.4954 12.3417 20.5341 12.3194C20.5728 12.2972 20.6155 12.2848 20.659 12.2832H20.6744C20.8442 12.2832 21.0139 12.4805 21.0756 12.6264C21.1227 12.7431 21.1514 12.8679 21.1605 12.9953C21.1682 13.0383 21.1682 13.0897 21.1759 13.1326V13.167ZM21.4305 10.3783C21.3432 10.4568 21.2341 10.4993 21.1219 10.4985H20.9985V10.5156C20.9643 10.5126 20.9319 10.4976 20.9059 10.4727C20.8869 10.4586 20.8713 10.4394 20.8605 10.417C20.8497 10.3945 20.8441 10.3695 20.8442 10.344C20.8492 10.3095 20.8465 10.2742 20.8364 10.2411C20.8287 10.1295 20.8133 9.99223 20.8827 9.88926C21.2299 9.29722 21.2299 8.98833 20.8827 8.42203C20.7979 8.27616 20.7747 8.00159 20.8827 7.85572C20.9118 7.81553 20.948 7.78254 20.9892 7.75889C21.0304 7.73525 21.0756 7.72147 21.1219 7.71844C21.2607 7.71844 21.3765 7.83856 21.4459 7.92436C21.7206 8.24534 21.8703 8.67396 21.8625 9.11703C21.8625 9.63185 21.7236 10.0523 21.4305 10.3783ZM21.8625 4.93841C21.8662 5.14805 21.8319 5.35639 21.7617 5.55097C21.6914 5.74556 21.5866 5.92243 21.4536 6.07101C21.351 6.17713 21.2157 6.23547 21.0756 6.23404C21.0275 6.23511 20.9799 6.22334 20.9367 6.19972C20.8948 6.17978 20.8576 6.14923 20.8281 6.1105C20.7987 6.07178 20.7778 6.02593 20.767 5.97663C20.7362 5.8136 20.821 5.66773 20.8904 5.57335C21.2299 5.08427 21.2299 4.68099 20.8904 4.14043C20.7979 4.00315 20.7747 3.72858 20.875 3.58271C20.9029 3.5385 20.9399 3.50225 20.9828 3.4769C21.0256 3.45156 21.0733 3.43783 21.1219 3.43684C21.1866 3.44079 21.2495 3.46145 21.3058 3.4972C21.362 3.53295 21.41 3.58279 21.4459 3.64277C21.5897 3.81679 21.7006 4.02111 21.7722 4.24365C21.8438 4.46619 21.8745 4.70244 21.8625 4.93841Z" fill="#878687"/>
</g>
<defs>
<clipPath id="clip0_1420_5646">
<rect width="24" height="22" fill="white" transform="translate(0 1)"/>
</clipPath>
</defs>
</svg>
