<svg width="60" height="60" viewBox="0 0 60 60" fill="none" xmlns="http://www.w3.org/2000/svg">
<rect width="60" height="60" rx="30" fill="#353434"/>
<path d="M49.082 18.8682C48.9781 16.116 46.7842 14.0389 43.9931 14.0389H43.8893C41.215 14.0909 39.0341 16.3497 39.0341 19.0888V20.1014C39.0341 20.8154 39.0341 21.5554 39.0211 22.2823C39.0019 24.4959 38.5613 26.6855 37.7229 28.7343C36.5805 31.4475 35.0747 33.4466 33.1144 34.8357C31.8941 35.6925 30.7517 36.1079 29.5964 36.1079C29.4099 36.1122 29.2234 36.1035 29.0382 36.0819C27.5972 35.9132 26.2601 35.2381 24.9619 33.9919C22.1189 31.2917 20.4962 27.7477 20.1587 23.4637C20.0937 22.6329 20.0937 21.7761 20.0937 20.9582C20.0937 20.1404 20.0937 19.4783 20.0548 18.7383C19.938 16.7521 18.8994 15.2722 17.056 14.4673C16.395 14.1673 15.6788 14.0082 14.953 14C13.8495 14 12.811 14.3895 11.8763 15.1684C10.2796 16.4665 9.69537 18.1931 10.1757 20.1533C10.3055 20.7245 10.5651 21.2438 10.8507 21.789C10.9416 21.9838 11.0455 22.1785 11.1363 22.3862C10.7102 22.9107 10.3931 23.515 10.2036 24.1637C10.0141 24.8124 9.95608 25.4925 10.0329 26.1639C10.1212 26.855 10.3456 27.5218 10.6932 28.1257C11.0408 28.7296 11.5047 29.2585 12.058 29.6819C11.6819 30.353 11.4648 31.1015 11.4236 31.8697C11.3824 32.6379 11.5182 33.4053 11.8205 34.1127C12.1228 34.8202 12.5835 35.4487 13.1671 35.9499C13.7507 36.4512 14.4417 36.8117 15.1866 37.0036L15.2645 37.0296V37.1984C15.2288 37.8873 15.3335 38.5762 15.5723 39.2234C15.8111 39.8706 16.179 40.4625 16.6536 40.9631C17.2258 41.5506 17.9331 41.989 18.7138 42.2402C19.4945 42.4914 20.3248 42.5476 21.1323 42.404H21.2881C21.366 42.404 21.3919 42.404 21.4828 42.6377C22.2098 44.6629 24.0402 45.987 26.1432 45.987C26.7313 45.9838 27.3148 45.8829 27.8698 45.6884C28.319 45.5017 28.7531 45.2803 29.168 45.0263L29.5704 44.7797C30.4867 45.5703 31.6575 46.0036 32.8678 46C35.1396 46 37.0479 44.5979 37.7749 42.404C38.1307 42.4654 38.4912 42.4958 38.8524 42.4949C40.0688 42.5073 41.2455 42.0625 42.1497 41.2487C43.357 40.1842 43.9282 38.7691 43.8503 37.0426C45.486 36.5882 46.6414 35.6146 47.2775 34.1347C47.9136 32.6548 47.8357 31.1619 47.0308 29.656C48.2252 28.7213 48.8872 27.5919 49.043 26.1898C49.1988 24.7878 48.8223 23.5026 47.8747 22.3213C48.7315 21.2828 49.1339 20.1274 49.082 18.8682ZM13.6808 17.3233C13.8457 17.1887 14.0521 17.1153 14.2649 17.1156C14.3514 17.1153 14.4365 17.1376 14.5116 17.1805C14.5801 17.2137 14.641 17.2609 14.6901 17.319C14.7393 17.3772 14.7758 17.445 14.7972 17.518C14.8491 17.7647 14.7063 17.9854 14.6025 18.1282C14.0183 18.8811 14.0183 19.5043 14.5895 20.2832C14.7453 20.4909 14.7972 20.9063 14.6284 21.127C14.5794 21.1949 14.5151 21.2502 14.4406 21.2886C14.3662 21.3269 14.2838 21.3472 14.2 21.3477C14.0916 21.3398 13.9864 21.3077 13.892 21.2538C13.7977 21.1999 13.7166 21.1255 13.6548 21.0361C13.1615 20.4519 12.9538 19.8028 12.9668 18.8682C13.0106 18.2839 13.2642 17.7352 13.6808 17.3233ZM13.7587 27.6049C13.2394 27.1245 12.9798 26.4625 12.9538 25.5927C13.0057 24.8138 13.2524 24.2296 13.7067 23.8012C13.8625 23.6584 14.0702 23.6584 14.239 23.6454H14.4207C14.4866 23.6473 14.5503 23.67 14.6025 23.7103C14.6541 23.767 14.682 23.8414 14.6804 23.918C14.6804 23.957 14.6933 24.0089 14.6933 24.0608C14.6933 24.1128 14.7323 24.4114 14.6284 24.5671C14.0053 25.5148 14.0053 25.8653 14.6544 26.8519C14.7279 27.0055 14.7463 27.1797 14.7063 27.3452V27.475C14.7052 27.512 14.6965 27.5483 14.6809 27.5817C14.6653 27.6152 14.643 27.6452 14.6155 27.6698C14.5694 27.712 14.5091 27.7352 14.4467 27.7347H14.1221C13.989 27.7384 13.8593 27.6921 13.7587 27.6049ZM16.6795 34.0827C16.6363 34.1805 16.5652 34.2634 16.4752 34.3211C16.3852 34.3788 16.2802 34.4088 16.1733 34.4073C16.008 34.3996 15.8473 34.3505 15.7059 34.2645C14.7193 33.7582 14.213 32.9144 14.1351 31.6811V31.6162C14.1501 31.5655 14.1588 31.5132 14.1611 31.4604C14.1839 31.2549 14.2364 31.0538 14.3169 30.8633C14.402 30.7077 14.5403 30.588 14.7063 30.5257L14.8361 30.4479C14.879 30.4213 14.9286 30.4078 14.9789 30.4089H15.0438C15.0806 30.4146 15.1154 30.4294 15.1449 30.4521C15.1744 30.4748 15.1977 30.5046 15.2126 30.5387L15.2775 30.6685C15.3702 30.8039 15.4282 30.9599 15.4463 31.1229C15.4571 31.2835 15.4484 31.4448 15.4203 31.6032C15.3969 31.7579 15.3925 31.9149 15.4073 32.0706C15.4852 32.5639 15.7708 32.9274 16.2771 33.174C16.4589 33.2649 16.6666 33.3817 16.7315 33.6024C16.7593 33.6813 16.7692 33.7654 16.7602 33.8485C16.7512 33.9316 16.7236 34.0117 16.6795 34.0827ZM21.2881 38.9898C21.2491 39.2235 21.0544 39.3533 20.8856 39.4702L20.7169 39.587C20.6709 39.6292 20.6105 39.6524 20.5481 39.6519H20.5221C19.1461 39.4961 18.0037 38.4446 17.8479 37.1854C17.8219 36.9517 17.757 36.4195 18.3152 36.3156H18.458C18.9124 36.3156 19.0033 36.757 19.0422 36.9647V36.9907C19.198 37.7825 19.7562 38.2888 20.5221 38.3408H20.5741C20.7818 38.3537 21.0414 38.3667 21.1972 38.5744C21.2408 38.6333 21.2714 38.7008 21.2871 38.7724C21.3028 38.844 21.3031 38.9181 21.2881 38.9898ZM28.1035 41.7549C28.0699 41.8504 28.0168 41.9379 27.9475 42.0116C27.8782 42.0854 27.7942 42.1439 27.701 42.1833C27.3635 42.3391 27.013 42.4689 26.6755 42.5988L26.2601 42.7675H26.1173C25.1956 42.5988 24.5595 42.2872 24.0791 41.7549C23.8974 41.5472 23.8195 41.3525 23.8455 41.1578C23.8605 41.0805 23.8913 41.0072 23.936 40.9424C23.9806 40.8777 24.0382 40.8228 24.1051 40.7813C24.1895 40.7384 24.283 40.7161 24.3777 40.7164C24.5806 40.7152 24.7778 40.784 24.9359 40.9111C25.3513 41.2746 25.7408 41.4434 26.1173 41.4434C26.456 41.43 26.7843 41.322 27.0649 41.1318C27.2013 41.032 27.3636 40.9734 27.5323 40.9631C27.6257 40.9638 27.7174 40.9879 27.7991 41.0333C27.8807 41.0787 27.9497 41.1438 27.9996 41.2227C28.0551 41.2983 28.0932 41.3852 28.1111 41.4772C28.1291 41.5692 28.1265 41.6641 28.1035 41.7549ZM35.0227 41.742C34.6073 42.2872 33.8933 42.6247 33.1144 42.6637C33.0935 42.7 33.0631 42.73 33.0266 42.7506C32.99 42.7711 32.9486 42.7815 32.9067 42.7805L32.8029 42.7545L32.4134 42.5988C32.0538 42.4693 31.7026 42.3176 31.3619 42.1444C31.1672 42.0405 31.1282 41.8199 31.1023 41.6251L31.0633 41.4564C31.0508 41.4193 31.0478 41.3796 31.0546 41.3411C31.0614 41.3025 31.0778 41.2663 31.1023 41.2357C31.1236 41.2037 31.1526 41.1774 31.1866 41.1593C31.2206 41.1412 31.2585 41.1318 31.297 41.1318L31.4528 41.1059L31.7254 41.0799C31.8208 41.0731 31.9159 41.0958 31.998 41.1448C32.4004 41.3525 32.725 41.4564 33.0236 41.4564C33.3221 41.4564 33.7375 41.2876 34.153 40.9111C34.22 40.8347 34.3016 40.7724 34.393 40.7278C34.4844 40.6832 34.5837 40.6573 34.6852 40.6515C34.7715 40.6538 34.8558 40.6775 34.9306 40.7206C35.0054 40.7636 35.0683 40.8247 35.1136 40.8982C35.2694 41.1448 35.1655 41.5602 35.0227 41.742ZM41.267 37.1464C41.1371 38.4836 39.8779 39.5481 38.411 39.5481C38.345 39.5462 38.2814 39.5235 38.2292 39.4831L38.1903 39.4572C38.0605 39.3663 37.8528 39.2235 37.8138 38.9898C37.7959 38.9162 37.7948 38.8395 37.8105 38.7653C37.8263 38.6912 37.8584 38.6215 37.9047 38.5614C38.0605 38.3667 38.3331 38.3408 38.5408 38.3278C39.3716 38.2629 39.9169 37.7955 40.0597 36.9777C40.0856 36.77 40.1765 36.2896 40.6698 36.2896H40.7607C41.3448 36.3675 41.2929 36.9517 41.267 37.1464ZM43.3051 34.3034C43.1839 34.3648 43.0513 34.4002 42.9156 34.4073C42.7957 34.4092 42.679 34.3685 42.5863 34.2925C42.4936 34.2164 42.4309 34.1099 42.4093 33.9919C42.3315 33.7322 42.5392 33.3558 42.7598 33.226C43.6296 32.7197 43.8503 32.2393 43.6686 31.2657C43.6296 31.045 43.6037 30.7984 43.7465 30.6166C43.7908 30.5582 43.8476 30.5104 43.9127 30.4768C43.9778 30.4431 44.0497 30.4243 44.1229 30.4219H44.1489C44.4345 30.4219 44.7201 30.7205 44.824 30.9282C44.9018 31.1097 44.9501 31.3026 44.9667 31.4994C44.969 31.565 44.9777 31.6302 44.9927 31.6941V31.746C44.9834 32.2886 44.8198 32.8173 44.5209 33.2702C44.222 33.7231 43.8003 34.0815 43.3051 34.3034ZM45.4211 27.5399C45.2783 27.6827 45.0706 27.6957 44.9018 27.7217H44.6941C44.6359 27.7202 44.5804 27.6971 44.5384 27.6568C44.5053 27.6334 44.4786 27.6021 44.4605 27.5659C44.4423 27.5297 44.4334 27.4896 44.4345 27.4491C44.4361 27.4011 44.4317 27.3532 44.4215 27.3063C44.4085 27.1375 44.3826 26.9298 44.4994 26.761C45.0836 25.8783 45.0836 25.398 44.4994 24.5412C44.3566 24.3335 44.3177 23.9051 44.4994 23.6974C44.5471 23.6353 44.6079 23.5845 44.6774 23.5486C44.747 23.5127 44.8236 23.4925 44.9018 23.4896C45.0082 23.5001 45.1113 23.5319 45.205 23.5832C45.2987 23.6345 45.381 23.7043 45.4471 23.7882C45.9043 24.2823 46.1551 24.9326 46.1481 25.6057C46.1481 26.4105 45.9144 27.0337 45.4211 27.5399ZM45.4601 21.0101C45.2854 21.1691 45.06 21.2611 44.824 21.2698C44.7428 21.2743 44.6619 21.2563 44.5903 21.2178C44.5217 21.1846 44.4609 21.1375 44.4117 21.0793C44.3625 21.0212 44.3261 20.9534 44.3047 20.8803C44.2528 20.6337 44.3956 20.413 44.5124 20.2572C45.0836 19.5172 45.0836 18.9201 44.5124 18.1022C44.3566 17.8945 44.3177 17.4661 44.4864 17.2584C44.5326 17.1908 44.5946 17.1353 44.6669 17.0969C44.7393 17.0585 44.8199 17.0382 44.9018 17.0377C45.0087 17.0458 45.1127 17.0766 45.2067 17.1281C45.3007 17.1796 45.3827 17.2506 45.4471 17.3363C45.9329 17.8752 46.185 18.5849 46.1481 19.3095C46.1528 19.9451 45.9054 20.5566 45.4601 21.0101Z" fill="white"/>
</svg>
