<svg width="14" height="12" viewBox="0 0 14 12" fill="none" xmlns="http://www.w3.org/2000/svg">
<g clip-path="url(#clip0_832_26739)">
<path d="M13.9957 1.97972C13.9552 0.861154 13.1002 0.0140406 12.0067 0.0140406H11.9662C10.9176 0.0374415 10.0626 0.954758 10.0626 2.06864V2.4337C10.0626 2.69111 10.0626 2.95788 10.0581 3.21997C10.0552 3.98778 9.90841 4.74765 9.62607 5.4571C9.24805 6.39314 8.74854 7.08112 8.10501 7.55382C7.727 7.83931 7.37149 7.97504 7.01597 7.97504L6.85397 7.96568H6.84947C6.39945 7.9142 5.97644 7.68955 5.56692 7.28237C4.62189 6.34633 4.08187 5.12012 3.96937 3.63651C3.94687 3.34633 3.94687 3 3.94687 2.74727C3.94687 2.49454 3.94687 2.20905 3.93337 1.93292C3.88836 1.12793 3.46985 0.51014 2.75882 0.187207C2.50132 0.0661886 2.22236 0.00242524 1.93979 0C1.51228 0 1.10276 0.159126 0.724751 0.477379C0.108229 1.01092 -0.121279 1.71763 0.0677274 2.5039C0.122311 2.72889 0.20715 2.94475 0.319736 3.14509C0.329847 3.174 0.341877 3.20215 0.355738 3.22933C0.0807045 3.64351 -0.0407911 4.14728 0.0137254 4.64743C0.0737421 5.14656 0.301715 5.60748 0.657248 5.94852C0.611894 6.05414 0.575747 6.16379 0.549245 6.27613C0.426982 6.77406 0.490311 7.30166 0.726523 7.75305C0.962735 8.20445 1.35435 8.54623 1.82279 8.70983C1.82827 9.23376 2.02258 9.73647 2.36731 10.1186C2.54835 10.3133 2.76507 10.4683 3.00469 10.5744C3.2443 10.6805 3.50193 10.7356 3.76236 10.7363H3.78036L4.02787 10.7223C4.16919 11.0978 4.41618 11.4202 4.73654 11.6473C5.0569 11.8744 5.43571 11.9957 5.82343 11.9953C6.05198 11.9948 6.27876 11.9537 6.49396 11.8736H6.50296C6.67184 11.8045 6.83448 11.7199 6.98897 11.6209H6.99347C7.32668 11.8737 7.72856 12.0098 8.14102 12.0094H8.15002C8.545 12.0121 8.93185 11.8926 9.26124 11.6658C9.59064 11.4391 9.84767 11.1156 9.99958 10.7363C10.0742 10.7457 10.1494 10.7504 10.2246 10.7504H10.2381C10.7102 10.751 11.1657 10.5692 11.5161 10.2402C11.9482 9.84243 12.1732 9.33229 12.1867 8.71919C12.7357 8.51794 13.1272 8.14353 13.3522 7.59594C13.5772 7.04836 13.5772 6.4961 13.3387 5.94384C13.7007 5.61581 13.9305 5.1579 13.9822 4.66147C14.0435 4.15872 13.9197 3.65047 13.6357 3.23869C13.89 2.87387 14.017 2.42976 13.9957 1.97972ZM13.7572 4.62403C13.6987 5.1248 13.4737 5.53666 13.0597 5.87363C13.3387 6.41654 13.3657 6.95944 13.1452 7.49298C12.9247 8.02652 12.5242 8.37753 11.9572 8.53666C11.9842 9.15913 11.7861 9.66927 11.3676 10.053C11.0553 10.3489 10.647 10.5111 10.2246 10.507C10.0993 10.5059 9.97429 10.4934 9.85108 10.4696C9.59907 11.2605 8.93754 11.766 8.15002 11.766C7.73027 11.7686 7.32397 11.6122 7.00697 11.3261L6.86747 11.415C6.72513 11.5093 6.57444 11.5892 6.41745 11.6537C6.22534 11.7249 6.02289 11.7613 5.81893 11.7613C5.08991 11.7613 4.45538 11.2886 4.20338 10.5538C4.17187 10.4696 4.16287 10.4696 4.13587 10.4696L4.08187 10.4789C3.98049 10.4939 3.87825 10.5017 3.77586 10.5023C3.54315 10.5043 3.31251 10.4568 3.09814 10.3626C2.88376 10.2684 2.69018 10.1296 2.52932 9.95476C2.36608 9.77336 2.23938 9.55982 2.15669 9.32673C2.07399 9.09364 2.03697 8.8457 2.0478 8.5975V8.53666L2.0208 8.5273C1.57515 8.40814 1.19295 8.1104 0.9577 7.69912C0.722449 7.28784 0.653261 6.79645 0.765252 6.33229C0.806179 6.17794 0.863536 6.02881 0.936258 5.88768C0.74462 5.73484 0.583935 5.5441 0.463453 5.32642C0.342971 5.10875 0.26507 4.86845 0.234233 4.61934C0.20811 4.3773 0.228472 4.13227 0.294135 3.89847C0.359799 3.66468 0.469458 3.44678 0.616747 3.25741C0.585246 3.18253 0.549245 3.11232 0.517743 3.04212C0.41874 2.84555 0.328737 2.65835 0.283735 2.45242C0.117229 1.74571 0.324236 1.12793 0.868756 0.655226C1.19727 0.379095 1.55728 0.234009 1.93979 0.234009C2.18989 0.23761 2.43657 0.294974 2.66432 0.402496C3.30784 0.692668 3.66786 1.22621 3.70836 1.94228C3.72186 2.20905 3.72186 2.4805 3.72186 2.74259C3.72186 3.00468 3.72186 3.35101 3.74436 3.65055C3.86136 5.19033 4.41938 6.46802 5.40942 7.44618C5.85943 7.8908 6.32295 8.13417 6.82247 8.19501L7.01597 8.20905C7.41649 8.20905 7.8125 8.05928 8.23552 7.74571C8.91504 7.24493 9.43706 6.52418 9.83308 5.54602C10.1257 4.80806 10.2786 4.01823 10.2831 3.21997C10.2876 2.95788 10.2876 2.69111 10.2876 2.4337V2.06864C10.2876 1.0858 11.0436 0.266771 11.9707 0.24805H12.0067C12.9742 0.24805 13.7347 0.99688 13.7707 1.98908C13.7917 2.44479 13.6416 2.89114 13.3522 3.23401C13.6762 3.65523 13.8157 4.12325 13.7572 4.62403Z" fill="#F8F8F8"/>
<path d="M13.0462 2.92968C13.1577 2.79174 13.2419 2.6323 13.2941 2.46047C13.3463 2.28865 13.3654 2.10781 13.3504 1.9283C13.3353 1.74879 13.2864 1.57412 13.2064 1.41428C13.1264 1.25444 13.0169 1.11256 12.8842 0.996762C12.6436 0.790141 12.3411 0.677554 12.0292 0.678509C11.9339 0.680169 11.839 0.691138 11.7456 0.71127C11.1831 0.846996 10.7601 1.33374 10.7196 1.89536C10.6971 2.23233 10.6971 2.57867 10.6971 2.91096V3.20581C10.7021 4.01643 10.557 4.82046 10.2696 5.57399C9.84658 6.70659 9.24806 7.53966 8.44253 8.12469C7.96551 8.47102 7.4795 8.64419 7.00248 8.64419C6.52546 8.64419 6.03045 8.47102 5.54893 8.12001C4.8154 7.58647 4.25288 6.83764 3.82987 5.82672C3.44948 4.92694 3.26949 3.9494 3.30335 2.96712V2.63015C3.30335 2.4289 3.30785 2.26041 3.30335 2.09193C3.28535 1.37586 2.83983 0.814234 2.19181 0.692549C2.11725 0.68148 2.0421 0.675228 1.9668 0.673829C1.70658 0.673588 1.45207 0.753159 1.23512 0.902585C1.01816 1.05201 0.848386 1.26466 0.747042 1.51392C0.645697 1.76318 0.617279 2.03799 0.665344 2.30396C0.713409 2.56993 0.835821 2.81526 1.01727 3.00924C1.18827 3.19177 1.18827 3.27133 1.02177 3.45386C0.777407 3.71563 0.642609 4.06735 0.646825 4.43217C0.651041 4.79698 0.793929 5.14523 1.04427 5.40082C1.11111 5.46659 1.18339 5.5261 1.26028 5.57867C1.46728 5.71907 1.48528 5.79395 1.35028 6.01392C1.15822 6.31923 1.08972 6.69101 1.15965 7.04852C1.22959 7.40604 1.4323 7.72044 1.72379 7.92344C1.8823 8.033 2.06206 8.1049 2.25031 8.13405C2.43482 8.16681 2.51132 8.27913 2.47982 8.4757C2.45015 8.67232 2.46088 8.87325 2.5113 9.06524C2.56172 9.25724 2.65068 9.43594 2.77233 9.58959C2.89579 9.73985 3.04893 9.86068 3.22132 9.94386C3.39372 10.027 3.58132 10.0706 3.77136 10.0716C3.84378 10.0728 3.91614 10.0665 3.98737 10.0529C4.07349 10.0354 4.16072 10.0244 4.24838 10.0202C4.45089 10.0202 4.50039 10.1512 4.59939 10.418C4.8109 10.9796 5.28342 11.3259 5.83694 11.3259C6.19185 11.3236 6.53152 11.1756 6.78197 10.9141C6.86297 10.8345 6.92148 10.7737 7.00248 10.7737C7.08348 10.7737 7.13748 10.8345 7.21849 10.9141C7.493 11.1902 7.79901 11.3259 8.13652 11.3259C8.25968 11.3256 8.38225 11.3083 8.50103 11.2745C8.98255 11.1434 9.29756 10.8064 9.46857 10.2401C9.50457 10.1138 9.54057 9.98272 9.68908 9.98272C9.74568 9.98637 9.80161 9.99738 9.85558 10.0155C10.0958 10.0857 10.3501 10.0843 10.5896 10.0114C10.8291 9.93863 11.0441 9.79732 11.2101 9.60363C11.3364 9.45337 11.4295 9.27627 11.4832 9.08469C11.5368 8.89311 11.5496 8.69167 11.5206 8.49442C11.4891 8.24637 11.5386 8.17617 11.7727 8.12937C12.1181 8.06653 12.4254 7.86363 12.6271 7.56525C12.8288 7.26687 12.9083 6.89743 12.8482 6.5381C12.8167 6.35278 12.7493 6.17604 12.6502 6.0186C12.5062 5.78927 12.5242 5.71907 12.7447 5.57399C12.9026 5.466 13.037 5.32486 13.1393 5.15962C13.2416 4.99438 13.3095 4.80872 13.3387 4.61455C13.3672 4.4238 13.3558 4.22891 13.3053 4.04315C13.2548 3.85739 13.1665 3.68513 13.0462 3.5381C12.8212 3.25729 12.8212 3.20581 13.0462 2.92968ZM1.49878 1.4367C1.55513 1.38613 1.62687 1.35795 1.70129 1.35714C1.73127 1.35701 1.76076 1.36508 1.78679 1.38054C1.81139 1.39247 1.83307 1.41004 1.85021 1.43192C1.86736 1.45381 1.87952 1.47944 1.8858 1.5069C1.9038 1.59115 1.8543 1.67071 1.8183 1.72219C1.61579 1.99364 1.61579 2.21829 1.81379 2.4991C1.8678 2.57398 1.8858 2.72843 1.8273 2.80331C1.81115 2.82868 1.78902 2.84931 1.76302 2.86324C1.73702 2.87717 1.70802 2.88393 1.67879 2.88288C1.64159 2.88058 1.60535 2.86974 1.57267 2.85113C1.53998 2.83251 1.51168 2.80659 1.48978 2.77523C1.31878 2.55994 1.24677 2.33062 1.25127 1.99364C1.26605 1.78291 1.35402 1.58495 1.49878 1.4367ZM1.52578 5.13873C1.34578 4.96556 1.25577 4.72687 1.24677 4.41798V4.40862C1.26478 4.13249 1.35028 3.9172 1.50778 3.76275C1.5623 3.72525 1.62705 3.70718 1.69229 3.71127H1.75529C1.76666 3.70995 1.77817 3.71115 1.78906 3.71478C1.79995 3.71842 1.80998 3.72442 1.81848 3.73237C1.82699 3.74033 1.83377 3.75007 1.83839 3.76096C1.84301 3.77184 1.84537 3.78362 1.8453 3.79551V3.80487C1.8453 3.81891 1.8498 3.83764 1.8498 3.85636C1.8498 3.87508 1.8633 3.98272 1.8273 4.03888C1.61129 4.38522 1.61129 4.5069 1.8363 4.86728C1.85023 4.89344 1.859 4.92224 1.86209 4.95197C1.86518 4.98171 1.86253 5.01179 1.8543 5.04044V5.09193C1.85231 5.11717 1.84102 5.14065 1.8228 5.15745C1.81581 5.16653 1.80689 5.1738 1.79673 5.17867C1.78658 5.18355 1.77547 5.1859 1.76429 5.18553H1.65179C1.62882 5.18722 1.60576 5.18393 1.58407 5.17587C1.56238 5.16781 1.54253 5.15517 1.52578 5.13873ZM2.53832 7.46946C2.52509 7.50637 2.50101 7.53799 2.4695 7.55984C2.43799 7.58169 2.40066 7.59264 2.36281 7.59115C2.30561 7.58781 2.25003 7.57015 2.20081 7.53966C1.8588 7.36182 1.68329 7.0576 1.65629 6.60831V6.58491C1.66369 6.56724 1.66678 6.54795 1.66529 6.52874C1.67421 6.45484 1.69237 6.38247 1.71929 6.31345C1.74629 6.24793 1.80929 6.21985 1.8543 6.19177L1.8993 6.16837C1.90592 6.16196 1.91372 6.157 1.92222 6.15378C1.93072 6.15056 1.93976 6.14916 1.9488 6.14965H1.9713C1.98472 6.15163 1.99733 6.15751 2.00768 6.16662C2.01803 6.17573 2.0257 6.18769 2.0298 6.20113C2.04165 6.21403 2.04949 6.23034 2.0523 6.24793C2.08477 6.29479 2.10493 6.34963 2.11081 6.40706C2.11683 6.46491 2.11379 6.52339 2.10181 6.58023C2.09582 6.63616 2.09431 6.69252 2.0973 6.74871C2.11074 6.83627 2.1455 6.91879 2.19828 6.98843C2.25106 7.05806 2.32009 7.11249 2.39882 7.14653C2.46182 7.17929 2.53382 7.22141 2.55632 7.30097C2.56665 7.32848 2.57041 7.35818 2.56727 7.38752C2.56413 7.41687 2.5542 7.44499 2.53832 7.46946ZM4.13588 9.25261C4.12238 9.33218 4.05487 9.37898 3.99637 9.4211L3.93787 9.46322C3.92147 9.47718 3.90047 9.4839 3.87937 9.48194H3.87037C3.39335 9.43046 2.99734 9.04668 2.94334 8.59271C2.93433 8.50846 2.91183 8.31657 3.10534 8.27913H3.15484C3.31235 8.27913 3.34385 8.43826 3.35735 8.51314V8.5225C3.41135 8.80799 3.60486 8.99052 3.87037 9.00924H3.88837C3.96037 9.01392 4.05037 9.02328 4.10438 9.09349C4.1205 9.116 4.13168 9.14192 4.13712 9.16941C4.14256 9.19691 4.14214 9.22531 4.13588 9.25261ZM6.49846 10.2448C6.48762 10.2797 6.46949 10.3116 6.44537 10.3383C6.42124 10.365 6.39174 10.3858 6.35896 10.3993C6.24195 10.4554 6.12045 10.5022 6.00344 10.5537L5.85944 10.6099H5.80994C5.49043 10.5537 5.26992 10.4414 5.10341 10.2448C5.04041 10.1699 5.01341 10.0997 5.02241 10.0342C5.02735 10.0063 5.03792 9.97971 5.05343 9.95632C5.06895 9.93292 5.08905 9.91321 5.11241 9.89848C5.14098 9.88061 5.17358 9.87093 5.20692 9.8704C5.27738 9.86918 5.34597 9.89406 5.40042 9.9406C5.54443 10.0716 5.67943 10.1325 5.80994 10.1325C5.92681 10.1283 6.04038 10.0911 6.13845 10.0248C6.18634 9.99074 6.24247 9.97129 6.30046 9.96868C6.33308 9.96754 6.36539 9.97565 6.39393 9.99213C6.42247 10.0086 6.44616 10.0329 6.46246 10.0623C6.48216 10.0874 6.49573 10.1172 6.502 10.149C6.50827 10.1807 6.50705 10.2136 6.49846 10.2448ZM8.89705 10.2401C8.75304 10.4367 8.50553 10.5584 8.23552 10.5724C8.2277 10.5847 8.21694 10.5945 8.20431 10.6011C8.19168 10.6077 8.17762 10.6107 8.16352 10.6099H8.12752L7.99252 10.5537C7.87101 10.5022 7.74951 10.4507 7.628 10.3852C7.5065 10.3197 7.547 10.2682 7.538 10.198C7.529 10.1278 7.529 10.1559 7.5245 10.1418C7.51977 10.1278 7.51853 10.1127 7.52089 10.0979C7.52325 10.0832 7.52913 10.0693 7.538 10.0576C7.54568 10.0463 7.55578 10.0371 7.5675 10.0306C7.57922 10.0241 7.59223 10.0205 7.6055 10.0202L7.6595 10.0108L7.75401 10.0014C7.78685 10.0013 7.81924 10.0094 7.84851 10.0248C7.98801 10.1044 8.10052 10.1418 8.20402 10.1418C8.30753 10.1418 8.45153 10.0763 8.59554 9.9406C8.64337 9.88615 8.70934 9.85268 8.78004 9.847C8.80995 9.84781 8.83919 9.85637 8.86512 9.8719C8.89105 9.88743 8.91285 9.90943 8.92855 9.93592C8.98255 10.0248 8.94655 10.1746 8.89705 10.2401ZM11.0616 8.57399C11.0166 9.06072 10.5801 9.43982 10.0716 9.4445C10.0478 9.44415 10.0252 9.43406 10.0086 9.41642L9.99509 9.40706C9.95009 9.37898 9.87808 9.3275 9.86458 9.24325C9.85944 9.21588 9.85958 9.18772 9.86499 9.1604C9.87039 9.13309 9.88096 9.10716 9.89608 9.08413C9.95008 9.01392 10.0446 9.00456 10.1166 8.99988C10.4046 8.98116 10.5936 8.80799 10.6431 8.51314C10.6521 8.44294 10.6836 8.26509 10.8546 8.26509H10.8861C11.0886 8.29317 11.0706 8.50378 11.0616 8.57399ZM12.3532 6.63639C12.3505 6.83213 12.294 7.02297 12.1903 7.18636C12.0866 7.34975 11.9401 7.47885 11.7682 7.55838C11.7267 7.58134 11.6801 7.59263 11.6331 7.59115C11.5926 7.59036 11.5535 7.57573 11.5218 7.54951C11.4901 7.52328 11.4675 7.48693 11.4576 7.44606C11.4306 7.34778 11.5026 7.21205 11.5791 7.16525C11.8807 6.98272 11.9572 6.80955 11.8942 6.45854C11.8807 6.37898 11.8717 6.29005 11.9212 6.22453C11.9365 6.20348 11.9562 6.18625 11.9788 6.17411C12.0014 6.16197 12.0263 6.15521 12.0517 6.15433H12.0607C12.1597 6.15433 12.2587 6.26197 12.2947 6.34154C12.3221 6.40517 12.3389 6.47325 12.3442 6.54278C12.3487 6.56618 12.3487 6.59427 12.3532 6.61767V6.63639ZM12.5017 5.11533C12.4507 5.15813 12.3871 5.18128 12.3217 5.18085H12.2497V5.19021C12.2297 5.18855 12.2108 5.18035 12.1957 5.16681C12.1846 5.1591 12.1755 5.14865 12.1692 5.13641C12.1629 5.12416 12.1596 5.11049 12.1597 5.09661C12.1626 5.07778 12.161 5.0585 12.1552 5.04044C12.1507 4.9796 12.1417 4.90472 12.1822 4.84856C12.3847 4.52562 12.3847 4.35714 12.1822 4.04824C12.1327 3.96868 12.1192 3.81891 12.1822 3.73935C12.1991 3.71743 12.2203 3.69943 12.2443 3.68654C12.2683 3.67364 12.2947 3.66612 12.3217 3.66447C12.4027 3.66447 12.4702 3.72999 12.5107 3.77679C12.6709 3.95187 12.7583 4.18566 12.7537 4.42734C12.7537 4.70815 12.6727 4.93748 12.5017 5.11533ZM12.7537 2.14809C12.7558 2.26244 12.7358 2.37608 12.6949 2.48222C12.6539 2.58836 12.5928 2.68483 12.5152 2.76587C12.4553 2.82376 12.3764 2.85558 12.2947 2.8548C12.2666 2.85538 12.2388 2.84896 12.2137 2.83608C12.1892 2.8252 12.1675 2.80854 12.1503 2.78741C12.1331 2.76629 12.1209 2.74129 12.1147 2.71439C12.0967 2.62547 12.1462 2.5459 12.1867 2.49442C12.3847 2.22765 12.3847 2.00768 12.1867 1.71283C12.1327 1.63795 12.1192 1.48818 12.1777 1.40862C12.194 1.3845 12.2155 1.36473 12.2405 1.35091C12.2655 1.33708 12.2933 1.32959 12.3217 1.32905C12.3594 1.3312 12.3961 1.34248 12.4289 1.36198C12.4618 1.38147 12.4897 1.40866 12.5107 1.44138C12.5946 1.5363 12.6593 1.64774 12.701 1.76913C12.7428 1.89052 12.7607 2.01938 12.7537 2.14809Z" fill="#F8F8F8"/>
</g>
<defs>
<clipPath id="clip0_832_26739">
<rect width="14" height="12" fill="white"/>
</clipPath>
</defs>
</svg>
