<svg width="60" height="60" viewBox="0 0 60 60" fill="none" xmlns="http://www.w3.org/2000/svg">
<rect width="60" height="60" rx="30" fill="#161616"/>
<path d="M33.062 44.9996C31.9466 45.0075 30.8667 44.6006 30.0251 43.8552L29.6544 44.0865C29.2749 44.3295 28.8747 44.5373 28.4587 44.7074C27.9475 44.8898 27.4101 44.9844 26.8685 44.9875C24.9315 44.9875 23.2456 43.7578 22.5761 41.8462C22.4924 41.6271 22.4685 41.6271 22.3967 41.6271L22.2532 41.6514C21.9839 41.6903 21.7122 41.7107 21.4402 41.7123C20.8219 41.7175 20.2091 41.5938 19.6395 41.3488C19.0699 41.1039 18.5556 40.7428 18.1282 40.2878C17.6911 39.8183 17.3522 39.2632 17.1323 38.6562C16.9124 38.0493 16.8159 37.4031 16.8488 36.757V36.5987L16.7771 36.5744C16.0896 36.3965 15.4516 36.0596 14.9127 35.5899C14.3738 35.1202 13.9484 34.5303 13.6697 33.8661C13.3909 33.2019 13.2663 32.4812 13.3055 31.7599C13.3447 31.0387 13.5466 30.3364 13.8955 29.7075C13.3849 29.3113 12.957 28.8155 12.6367 28.249C12.3165 27.6824 12.1103 27.0566 12.0303 26.408C11.9595 25.7783 12.013 25.1405 12.1875 24.5321C12.362 23.9237 12.6541 23.3569 13.0466 22.865C12.9629 22.6702 12.8673 22.4876 12.7836 22.3049C12.5205 21.7936 12.2814 21.3065 12.1618 20.7708C11.7194 18.9324 12.2694 17.3252 13.7162 16.0955C14.589 15.3772 15.5456 14.9998 16.5619 14.9998C17.2267 15.0063 17.8827 15.1556 18.4869 15.4381C20.1967 16.1929 21.1532 17.5809 21.2608 19.4437C21.2967 20.1377 21.2967 20.8439 21.2967 21.5257C21.2967 22.2075 21.2967 23.1085 21.3565 23.8877C21.6674 27.8934 23.15 31.2172 25.7804 33.7619C26.9761 34.9185 28.2076 35.5516 29.5348 35.7099C29.7052 35.7342 29.877 35.7464 30.049 35.7464C31.1131 35.7464 32.1653 35.3568 33.2892 34.5411C35.0947 33.2383 36.4816 31.3633 37.5338 28.8187C38.3071 26.8976 38.713 24.8437 38.7295 22.7676C38.7414 22.0858 38.7414 21.3918 38.7414 20.7221V19.7725C38.7414 17.2157 40.7502 15.085 43.2132 15.0363H43.3089C45.8796 15.0363 47.9002 16.9843 47.9959 19.5655C48.0453 20.7501 47.6474 21.9089 46.8839 22.8041C47.7448 23.8999 48.1155 25.1174 47.96 26.4202C47.8046 27.7229 47.2068 28.7943 46.1067 29.671C46.8481 31.0833 46.9198 32.4956 46.3339 33.8836C45.748 35.2716 44.6839 36.1847 43.1774 36.5987C43.2491 38.218 42.723 39.5451 41.611 40.5435C40.7794 41.3102 39.6958 41.7315 38.5741 41.7245C38.2412 41.7205 37.9092 41.6879 37.5817 41.6271C36.9121 43.6847 35.1545 44.9996 33.062 44.9996ZM30.0131 42.4185C30.2164 42.4185 30.3718 42.5768 30.587 42.7837C31.3164 43.5021 32.1294 43.8552 33.0262 43.8552C33.3536 43.857 33.6796 43.8119 33.9947 43.7212C35.274 43.3803 36.111 42.5037 36.5653 41.0305C36.661 40.7018 36.7566 40.3609 37.1512 40.3609C37.3015 40.371 37.4501 40.3996 37.5936 40.4461C38.2318 40.6286 38.9076 40.625 39.5439 40.4356C40.1802 40.2462 40.7514 39.8786 41.1926 39.3747C41.528 38.9838 41.7755 38.5231 41.918 38.0247C42.0605 37.5263 42.0945 37.0023 42.0176 36.4891C41.9339 35.8438 42.0654 35.6612 42.6871 35.5395C43.261 35.4371 43.8008 35.1911 44.2582 34.8236C44.7155 34.4562 45.076 33.9787 45.3072 33.4342C45.5384 32.8897 45.633 32.2952 45.5827 31.7042C45.5323 31.1132 45.3385 30.5442 45.0187 30.0484C44.6361 29.4518 44.6839 29.2692 45.2698 28.8917C45.6893 28.6108 46.0464 28.2436 46.3182 27.8138C46.59 27.3839 46.7705 26.9009 46.8481 26.3958C46.9206 25.8996 46.8888 25.3934 46.7548 24.9107C46.6208 24.4279 46.3877 23.9796 46.0709 23.5955C45.473 22.865 45.473 22.7311 46.0709 22.0127C46.4993 21.4912 46.7725 20.8559 46.8582 20.1816C46.9439 19.5073 46.8385 18.8221 46.5546 18.2067C46.2706 17.5913 45.8199 17.0714 45.2555 16.7081C44.691 16.3449 44.0364 16.1535 43.3687 16.1564C43.1155 16.1601 42.8632 16.1886 42.6154 16.2416C41.1208 16.5947 39.9969 17.8609 39.8893 19.322C39.8295 20.1986 39.8295 21.0996 39.8295 21.964V22.7311C39.8366 24.8393 39.4512 26.9297 38.6936 28.8917C37.5697 31.8382 35.9795 34.0054 33.8392 35.5273C32.5718 36.4282 31.2805 36.8787 30.0131 36.8787C28.7457 36.8787 27.4305 36.4282 26.1511 35.5151C24.2022 34.1271 22.7076 32.1791 21.5837 29.5492C20.5682 27.21 20.0898 24.6659 20.1847 22.1101V21.2335C20.1847 20.71 20.1967 20.2717 20.1847 19.8333C20.1369 17.9705 18.9532 16.5095 17.2314 16.1929C17.0333 16.1641 16.8337 16.1479 16.6336 16.1442C15.9422 16.1436 15.266 16.3506 14.6896 16.7393C14.1131 17.1281 13.6621 17.6812 13.3928 18.3297C13.1235 18.9781 13.048 19.693 13.1757 20.3849C13.3034 21.0768 13.6287 21.7151 14.1108 22.2197C14.5651 22.6945 14.5651 22.9015 14.1227 23.3763C13.7565 23.7577 13.4785 24.2177 13.3093 24.7225C13.14 25.2273 13.0837 25.7643 13.1444 26.2941C13.2052 26.8239 13.3814 27.3332 13.6603 27.7848C13.9392 28.2363 14.3137 28.6187 14.7564 28.9039C15.3064 29.2692 15.3542 29.464 14.9955 30.0362C14.6697 30.5367 14.4727 31.1126 14.4227 31.7109C14.3727 32.3092 14.4713 32.9107 14.7095 33.4601C14.9477 34.0094 15.3177 34.4889 15.7856 34.8544C16.2535 35.2199 16.8041 35.4597 17.3869 35.5516C17.8771 35.6369 18.0804 35.9291 17.9967 36.4404C17.9147 36.9519 17.9417 37.4754 18.0758 37.9753C18.2099 38.4753 18.4479 38.9401 18.7738 39.3381C19.1019 39.729 19.5088 40.0434 19.9668 40.2598C20.4248 40.4762 20.9233 40.5896 21.4282 40.5922C21.6206 40.5941 21.8127 40.5778 22.0021 40.5435C22.231 40.498 22.4627 40.4696 22.6956 40.4583C23.2337 40.4583 23.3652 40.7992 23.6282 41.4932C24.1902 42.9542 25.4457 43.8552 26.9163 43.8552C27.8588 43.8466 28.7603 43.4619 29.4272 42.7837C29.6424 42.5768 29.7979 42.4185 30.0131 42.4185Z" fill="white"/>
<path d="M14.1943 29.6353C11.9823 27.9916 11.5877 24.9843 13.3215 22.9024C12.9867 22.1475 12.5682 21.4535 12.3888 20.7108C11.9704 18.9576 12.5084 17.4357 13.8715 16.2912C15.2345 15.1467 16.7889 14.9519 18.3911 15.6581C19.9933 16.3642 20.9139 17.6792 21.0215 19.4689C21.1052 20.9421 20.9976 22.4275 21.1172 23.9007C21.4161 27.7968 22.8031 31.2059 25.6129 33.9332C26.7009 34.9924 27.9683 35.7716 29.5108 35.9543C31.0532 36.1369 32.2608 35.589 33.4206 34.7367C35.4652 33.2635 36.7924 31.2303 37.7489 28.917C38.54 26.9707 38.9542 24.887 38.9685 22.7806C38.9924 21.7822 38.9804 20.7717 38.9804 19.7733C38.9804 17.3383 40.8696 15.3293 43.2131 15.2806C45.5566 15.2319 47.6609 17.0826 47.7566 19.5785C47.8044 20.796 47.3859 21.8675 46.5729 22.805C47.4457 23.8399 47.8762 25.0209 47.7207 26.3967C47.5653 27.7725 46.8957 28.7952 45.8077 29.6109C46.5609 30.9502 46.7164 32.3504 46.1066 33.7871C45.4968 35.2237 44.4207 36.0517 42.9261 36.4169C43.0337 37.9754 42.6152 39.3146 41.4435 40.3617C40.2717 41.4088 38.9087 41.6645 37.4141 41.3479C36.3978 44.9153 32.3206 45.731 30.0608 43.5638C29.4868 43.8804 28.9608 44.27 28.3749 44.477C26.0433 45.3171 23.64 44.1239 22.7911 41.7619C22.6835 41.4453 22.5759 41.3479 22.2172 41.4088C19.3954 41.8836 16.9682 39.6799 17.0878 36.77C17.0998 36.563 17.1117 36.4169 16.8367 36.3439C16.177 36.1726 15.5656 35.847 15.0512 35.3928C14.5368 34.9387 14.1335 34.3686 13.8735 33.7279C13.6134 33.0872 13.5038 32.3935 13.5532 31.702C13.6027 31.0106 13.8099 30.3404 14.1584 29.7449C14.1685 29.7077 14.1805 29.6712 14.1943 29.6353ZM20.4237 22.1231C20.4237 21.1613 20.4357 20.4917 20.4237 19.8342C20.3759 17.8618 19.0965 16.2912 17.2672 15.9625C16.4872 15.828 15.6855 15.9479 14.9764 16.305C14.2673 16.662 13.6871 17.238 13.3186 17.9508C12.9501 18.6635 12.812 19.4766 12.9242 20.274C13.0364 21.0713 13.393 21.8123 13.9432 22.391C14.3019 22.7806 14.3019 22.8293 13.9432 23.2067C13.5526 23.6152 13.2566 24.1075 13.077 24.6476C12.8974 25.1876 12.8386 25.7617 12.9051 26.3279C12.9716 26.894 13.1616 27.4379 13.4612 27.9196C13.7608 28.4012 14.1625 28.8086 14.6367 29.1118C15.0671 29.404 15.0791 29.4527 14.7921 29.9032C13.2975 32.2773 14.6128 35.3212 17.3389 35.796C17.7095 35.8569 17.8291 36.0273 17.7693 36.4048C17.6679 37.0001 17.7079 37.6115 17.886 38.1879C18.064 38.7643 18.375 39.2889 18.7928 39.718C19.2106 40.147 19.7232 40.468 20.2878 40.6541C20.8523 40.8403 21.4524 40.8861 22.0379 40.7879C23.0422 40.6174 23.0422 40.6174 23.4009 41.5792C24.4292 44.2456 27.5738 44.9518 29.5945 42.955C30.001 42.5654 30.0249 42.5654 30.4314 42.9672C31.4597 43.9778 32.6793 44.3309 34.0543 43.9656C35.4293 43.6003 36.3619 42.5289 36.7924 41.0922C36.9597 40.5565 37.0076 40.5443 37.5337 40.6904C38.1362 40.8648 38.7721 40.8823 39.383 40.7414C39.9939 40.6005 40.5603 40.3057 41.0303 39.8841C41.5003 39.4624 41.8589 38.9274 42.0731 38.328C42.2874 37.7286 42.3504 37.0841 42.2565 36.4535C42.1848 35.9421 42.2326 35.869 42.7228 35.7838C45.4131 35.2603 46.6925 32.253 45.2098 29.9153C44.9109 29.4405 44.9229 29.404 45.3892 29.0996C45.8364 28.8069 46.2176 28.421 46.5079 27.9675C46.7981 27.514 46.9908 27.0031 47.0733 26.4683C47.1557 25.9335 47.1261 25.387 46.9862 24.8647C46.8464 24.3425 46.5996 23.8563 46.262 23.4381C45.7359 22.7928 45.7359 22.7928 46.2501 22.1718C46.7498 21.5612 47.0495 20.8066 47.1072 20.0139C47.1649 19.2211 46.9777 18.4298 46.5718 17.7508C46.1659 17.0718 45.5616 16.539 44.8436 16.227C44.1255 15.9151 43.3297 15.8396 42.5674 16.0112C40.9891 16.3764 39.7696 17.7157 39.65 19.3107C39.5663 20.443 39.6022 21.5874 39.5902 22.7319C39.5939 24.8099 39.2168 26.8703 38.4782 28.8074C37.4739 31.4251 36.0032 33.7018 33.7075 35.3212C31.4119 36.9405 28.7694 37.0744 26.2944 35.3212C24.202 33.8358 22.8031 31.7903 21.7987 29.4527C20.8055 27.1457 20.3355 24.6405 20.4237 22.1231Z" fill="white"/>
<path d="M43.9559 27.8927C43.9023 27.8913 43.8511 27.8696 43.8124 27.8318C43.7829 27.8118 43.7588 27.7846 43.7421 27.7528C43.7254 27.7209 43.7167 27.6853 43.7168 27.6492C43.7187 27.6002 43.7147 27.5511 43.7048 27.5031C43.6929 27.3448 43.6689 27.15 43.7766 27.0039C44.3146 26.1638 44.3146 25.7255 43.7766 24.922C43.645 24.715 43.6092 24.3254 43.7766 24.1184C43.8205 24.0602 43.8765 24.0125 43.9405 23.9788C44.0046 23.9452 44.0752 23.9263 44.1472 23.9236C44.3624 23.9236 44.5418 24.094 44.6494 24.2158C45.0698 24.6747 45.3009 25.2806 45.295 25.9082C45.295 26.6387 45.0798 27.2353 44.6255 27.6979C44.4912 27.8111 44.3215 27.8716 44.1472 27.8684H43.9559V27.8927Z" fill="white"/>
<path d="M45.0505 25.9079C45.0505 26.5898 44.8473 27.1133 44.4527 27.5273C44.3451 27.6368 44.1179 27.6125 43.9505 27.649C43.9505 27.4785 43.8907 27.2594 43.9625 27.1376C44.5603 26.2245 44.5603 25.6644 43.9744 24.7756C43.8907 24.6539 43.8668 24.3739 43.9505 24.2765C44.0342 24.179 44.3212 24.2034 44.4766 24.3739C44.8496 24.7941 45.0544 25.3415 45.0505 25.9079Z" fill="white"/>
<path d="M15.7948 27.8818C15.7338 27.8862 15.6725 27.8776 15.6149 27.8567C15.5573 27.8357 15.5046 27.8028 15.4601 27.76C14.9818 27.3096 14.7427 26.6886 14.7188 25.885V25.8607C14.7666 25.1424 14.9938 24.5823 15.4122 24.1805C15.5551 24.0785 15.7287 24.0311 15.9025 24.0466H16.0699C16.1017 24.0448 16.1336 24.0499 16.1634 24.0615C16.1932 24.0731 16.2202 24.091 16.2428 24.114C16.2653 24.137 16.2829 24.1645 16.2943 24.1949C16.3057 24.2252 16.3107 24.2576 16.309 24.2901C16.309 24.3266 16.3209 24.3753 16.3209 24.424C16.3209 24.4727 16.3568 24.7527 16.2612 24.8988C15.6872 25.7998 15.6872 26.1164 16.2851 27.0539C16.3529 27.1935 16.3699 27.3532 16.3329 27.5044V27.6383C16.3276 27.704 16.2976 27.765 16.2492 27.8087C16.2306 27.8324 16.2069 27.8513 16.18 27.864C16.153 27.8766 16.1235 27.8827 16.0938 27.8818H15.7948Z" fill="white"/>
<path d="M14.959 25.873C14.9949 25.3252 15.1503 24.7773 15.5807 24.3633C15.6883 24.2659 15.9036 24.3024 16.071 24.2781C16.071 24.4364 16.1307 24.6433 16.059 24.7529C15.4373 25.7269 15.4373 26.1531 16.0829 27.1758C16.1546 27.2732 16.0949 27.468 16.0949 27.6263C16.0949 27.7846 15.7123 27.675 15.6166 27.5898C15.1503 27.1393 14.9709 26.567 14.959 25.873Z" fill="white"/>
<path d="M15.8669 21.8898C15.7679 21.8847 15.6712 21.8569 15.5843 21.8084C15.4973 21.7599 15.4223 21.692 15.3647 21.6098C14.9103 21.0497 14.719 20.4531 14.731 19.5765C14.767 19.0274 15.0012 18.5113 15.3886 18.1276C15.5366 17.9932 15.7283 17.9195 15.9267 17.9207C16.0063 17.9203 16.0847 17.9413 16.1538 17.9815C16.2187 18.0133 16.2759 18.0592 16.3213 18.1161C16.3668 18.1729 16.3994 18.2392 16.4169 18.3103C16.4647 18.5294 16.3332 18.7364 16.2375 18.8703C15.6995 19.5765 15.6995 20.1609 16.2256 20.8914C16.3691 21.0862 16.4169 21.488 16.2614 21.6828C16.2163 21.7465 16.157 21.7984 16.0885 21.8344C16.0199 21.8704 15.944 21.8893 15.8669 21.8898Z" fill="white"/>
<path d="M14.9712 19.577C15.0134 19.0941 15.2208 18.6417 15.5571 18.2986C15.6647 18.2012 15.9277 18.1281 16.0473 18.189C16.1668 18.2499 16.1908 18.5299 16.0473 18.7247C15.4494 19.5283 15.4614 20.2345 16.0353 21.038C16.119 21.1598 16.1429 21.4398 16.0712 21.5372C15.9994 21.6346 15.7005 21.6346 15.5451 21.452C15.1744 20.9893 14.9592 20.478 14.9712 19.577Z" fill="white"/>
<path d="M44.0704 21.8166C43.9956 21.8208 43.9212 21.804 43.8552 21.7679C43.7902 21.7396 43.7326 21.6962 43.6869 21.6413C43.6412 21.5863 43.6088 21.5213 43.5921 21.4513C43.5443 21.22 43.6758 21.013 43.7834 20.8791C44.3095 20.1851 44.3095 19.6128 43.7834 18.8458C43.64 18.651 43.6041 18.2614 43.7595 18.0544C43.8021 17.9909 43.8592 17.939 43.9258 17.9029C43.9924 17.8669 44.0667 17.8478 44.1421 17.8474C44.242 17.8548 44.3389 17.8849 44.4258 17.9355C44.5127 17.986 44.5874 18.0558 44.6443 18.1396C44.8661 18.3873 45.0373 18.6774 45.1481 18.9929C45.259 19.3085 45.3072 19.6434 45.29 19.9781C45.2949 20.5779 45.0672 21.1554 44.6563 21.5852C44.4942 21.7308 44.2865 21.8128 44.0704 21.8166Z" fill="white"/>
<path d="M45.0557 19.98C45.0577 20.2462 45.008 20.5101 44.9095 20.7567C44.811 21.0032 44.6657 21.2275 44.4818 21.4167C44.3742 21.5385 44.0872 21.6237 43.9677 21.5506C43.8481 21.4776 43.8361 21.2097 43.9796 21.0271C44.5775 20.2357 44.5655 19.5539 43.9796 18.7138C43.8959 18.592 43.872 18.312 43.9557 18.2024C44.0394 18.0929 44.3264 18.1294 44.4698 18.2998C44.6718 18.5265 44.8276 18.7917 44.9281 19.0801C45.0287 19.3686 45.0721 19.6744 45.0557 19.98Z" fill="white"/>
<path d="M38.1688 38.9742C38.1058 38.9733 38.0456 38.947 38.0014 38.9011L37.9656 38.8768C37.846 38.8037 37.6547 38.6698 37.6188 38.4506C37.6022 38.3796 37.6011 38.3057 37.6155 38.2342C37.63 38.1627 37.6597 38.0952 37.7025 38.0367C37.846 37.8541 38.0971 37.8297 38.2884 37.8175C39.0536 37.7688 39.5558 37.3183 39.6873 36.5513C39.7112 36.3687 39.7949 35.906 40.2493 35.906H40.333C40.871 35.9669 40.8232 36.5148 40.7993 36.6974C40.6797 37.9636 39.5199 38.9498 38.1688 38.962V38.9742Z" fill="white"/>
<path d="M38.1641 38.7308C38.1043 38.6699 37.8771 38.5603 37.8532 38.402C37.8293 38.2438 38.0684 38.0855 38.2956 38.0611C39.1804 38.0002 39.7663 37.4645 39.9098 36.6001C39.9576 36.3566 40.0054 36.1253 40.3043 36.1618C40.6032 36.1983 40.5793 36.454 40.5674 36.6853C40.4598 37.7811 39.4195 38.7186 38.1641 38.7308Z" fill="white"/>
<path d="M42.3176 34.1388C42.2089 34.1412 42.1027 34.1047 42.0176 34.0358C41.9324 33.9669 41.8736 33.8698 41.8513 33.7614C41.7796 33.5057 41.9709 33.1526 42.1741 33.0309C42.9752 32.556 43.1785 32.1055 43.0111 31.1924C42.9752 30.9854 42.9513 30.7541 43.0829 30.5836C43.1237 30.5289 43.176 30.4841 43.236 30.4525C43.296 30.4209 43.3621 30.4033 43.4296 30.401H43.4535C43.7166 30.401 43.9796 30.681 44.0753 30.888C44.147 31.054 44.1914 31.2309 44.2068 31.4115C44.2089 31.4771 44.2169 31.5423 44.2307 31.6064V31.6551C44.2207 32.1636 44.0694 32.6588 43.7943 33.0833C43.5192 33.5078 43.1315 33.8443 42.6763 34.0536C42.5642 34.108 42.4418 34.1371 42.3176 34.1388Z" fill="white"/>
<path d="M43.9889 31.6445C43.9808 32.105 43.8452 32.5538 43.5977 32.9394C43.3502 33.3249 43.0009 33.6315 42.59 33.8239C42.3748 33.9213 42.1476 33.9578 42.0759 33.7021C42.0041 33.4465 42.1715 33.3247 42.2911 33.2517C43.1639 32.7159 43.427 32.1681 43.2357 31.1453C43.1998 30.9262 43.1759 30.6705 43.4509 30.6462C43.7259 30.6218 43.7857 30.841 43.8574 30.9992C43.9291 31.1575 43.9531 31.4254 43.9889 31.6445Z" fill="white"/>
<path d="M21.7151 39.0586H21.6912C20.4238 38.9247 19.3716 37.9263 19.2281 36.7453C19.2042 36.5262 19.1444 36.027 19.6585 35.9296H19.7901C20.2086 35.9296 20.2923 36.3435 20.3281 36.5383V36.5627C20.4716 37.3054 20.9857 37.7802 21.6912 37.8289H21.739C21.9303 37.8411 22.1694 37.8654 22.3129 38.0481C22.3544 38.1074 22.3832 38.1748 22.3976 38.2461C22.412 38.3173 22.4117 38.3909 22.3966 38.462C22.3608 38.669 22.1814 38.7908 22.026 38.9003L21.8705 39.0099C21.8264 39.0451 21.771 39.0625 21.7151 39.0586Z" fill="white"/>
<path d="M21.7164 38.8151C20.5685 38.6933 19.6 37.7924 19.4685 36.7209C19.4446 36.4896 19.4087 36.2339 19.7076 36.1731C20.0066 36.1122 20.0544 36.3679 20.1022 36.5992C20.2577 37.4515 20.8555 38.0115 21.6805 38.0602C21.9196 38.0846 22.2185 38.0724 22.1588 38.4011C22.099 38.7299 21.8718 38.6812 21.7164 38.8151Z" fill="white"/>
<path d="M26.8828 42.0042H26.8469C25.998 41.8581 25.4121 41.5659 24.9697 41.0546C24.8023 40.8598 24.7306 40.6771 24.7545 40.5067C24.7652 40.4331 24.7924 40.3631 24.8338 40.3019C24.8753 40.2407 24.9299 40.19 24.9936 40.1536C25.0682 40.1041 25.1557 40.0786 25.2447 40.0805C25.4316 40.0794 25.6132 40.1439 25.7588 40.2632C26.1415 40.6041 26.5002 40.7624 26.8469 40.7624C27.158 40.7547 27.4605 40.6576 27.7197 40.4823C27.8454 40.3887 27.9948 40.3338 28.1502 40.3241C28.2366 40.3224 28.322 40.344 28.3976 40.3868C28.4732 40.4295 28.5363 40.4919 28.5806 40.5676C28.6305 40.6344 28.6649 40.7117 28.6815 40.7939C28.6981 40.8761 28.6963 40.961 28.6763 41.0424C28.6454 41.132 28.5964 41.2139 28.5326 41.2831C28.4688 41.3523 28.3915 41.4072 28.3056 41.4442C27.9947 41.5903 27.6719 41.712 27.361 41.846L26.9784 41.9921L26.8828 42.0042Z" fill="white"/>
<path d="M26.8769 41.7599C26.1715 41.626 25.5976 41.3946 25.1432 40.8833C24.9878 40.7128 24.8921 40.4937 25.1193 40.3476C25.3465 40.2015 25.4899 40.3354 25.5976 40.4328C26.3269 41.0903 27.0323 41.1755 27.8334 40.6763C28.0367 40.5424 28.228 40.4693 28.3834 40.6885C28.5389 40.9076 28.4074 41.1146 28.2041 41.212L26.8769 41.7599Z" fill="white"/>
<path d="M33.0992 41.9921H33.0035L32.6448 41.846C32.322 41.7121 31.9992 41.5782 31.6764 41.4077C31.3535 41.2373 31.4611 41.1033 31.4372 40.9207C31.4133 40.7381 31.4133 40.8111 31.4014 40.7746C31.3888 40.7379 31.3855 40.6987 31.3918 40.6604C31.398 40.6221 31.4137 40.586 31.4372 40.5555C31.4569 40.5254 31.4836 40.5008 31.5149 40.4838C31.5462 40.4668 31.5811 40.458 31.6166 40.4581L31.7601 40.4337L32.0111 40.4094C32.0984 40.4091 32.1845 40.4299 32.2622 40.4702C32.6329 40.6772 32.9318 40.7746 33.2068 40.7746C33.4818 40.7746 33.8644 40.6042 34.247 40.2511C34.3748 40.1104 34.5497 40.0235 34.7373 40.0076C34.8167 40.0097 34.8944 40.032 34.9633 40.0724C35.0322 40.1127 35.0901 40.17 35.1318 40.2389C35.2753 40.4702 35.1797 40.8598 35.0481 41.0303C34.6655 41.5417 34.0079 41.8582 33.2905 41.8947C33.2697 41.9265 33.2411 41.9523 33.2076 41.9693C33.174 41.9864 33.1367 41.9943 33.0992 41.9921Z" fill="white"/>
<path d="M33.0996 41.7503C32.651 41.5847 32.2119 41.3937 31.7843 41.1781C31.6767 41.1172 31.6767 40.8615 31.6289 40.6911C31.8083 40.6789 32.0115 40.6058 32.143 40.6789C33.0637 41.1659 33.6615 41.1172 34.4148 40.4232C34.5822 40.2528 34.7855 40.1554 34.9289 40.3745C35.0724 40.5937 34.9529 40.7519 34.8692 40.8737C34.4746 41.3729 33.817 41.6529 33.1354 41.6529L33.0996 41.7503Z" fill="white"/>
<path d="M17.6858 34.1396C17.5335 34.1325 17.3855 34.0864 17.2553 34.0057C16.3466 33.543 15.8803 32.7517 15.8086 31.5828V31.522C15.8224 31.4744 15.8304 31.4254 15.8325 31.3758C15.8565 31.1837 15.9047 30.9954 15.976 30.8158C16.0477 30.6453 16.2151 30.5723 16.3347 30.4992L16.4543 30.4384C16.4718 30.4217 16.4926 30.4088 16.5152 30.4004C16.5378 30.392 16.5618 30.3884 16.5858 30.3897H16.6456C16.6803 30.3972 16.7127 30.4133 16.7398 30.4367C16.7669 30.4601 16.788 30.4899 16.801 30.5236C16.828 30.5601 16.8483 30.6014 16.8608 30.6453C16.9439 30.7689 16.9972 30.9108 17.0162 31.0593C17.0264 31.2099 17.0184 31.3612 16.9923 31.5098C16.9707 31.6548 16.9667 31.802 16.9803 31.9481C17.0138 32.1767 17.1053 32.3924 17.2458 32.5739C17.3863 32.7555 17.571 32.8965 17.7814 32.983C17.9488 33.0682 18.1401 33.1778 18.1999 33.3848C18.2246 33.4568 18.2331 33.5336 18.2248 33.6094C18.2165 33.6853 18.1917 33.7583 18.1521 33.8231C18.1141 33.9171 18.0494 33.9974 17.9663 34.0538C17.8833 34.1101 17.7856 34.14 17.6858 34.1396Z" fill="white"/>
<path d="M16.0488 31.5701C16.073 31.3462 16.1211 31.1258 16.1923 30.9126C16.2521 30.7908 16.4554 30.73 16.5869 30.6326C16.6586 30.7787 16.7782 30.9369 16.7782 31.0831C16.7782 31.2292 16.6945 31.704 16.7423 31.9962C16.7838 32.2629 16.8912 32.5146 17.0543 32.7275C17.2174 32.9405 17.431 33.1078 17.6749 33.2137C17.9021 33.3233 18.0815 33.4572 17.938 33.7251C17.7945 33.9929 17.5673 33.8955 17.3641 33.7981C16.5032 33.3477 16.1086 32.6171 16.0488 31.5701Z" fill="white"/>
</svg>
