<svg width="40" height="40" viewBox="0 0 40 40" fill="none" xmlns="http://www.w3.org/2000/svg">
<path d="M39.8699 20.0001C39.8699 30.9801 30.9799 39.8801 19.9999 39.8801C9.01988 39.8801 0.129883 30.9701 0.129883 20.0001C0.129883 9.03012 9.01988 0.120117 19.9999 0.120117C30.9799 0.120117 39.8699 9.03012 39.8699 20.0001Z" fill="white"/>
<path d="M27.8403 23.1906C27.3103 23.4306 26.4203 23.6806 25.4403 23.9606C25.1203 24.5506 24.4803 25.0406 23.5003 25.2806C23.244 25.338 22.9829 25.3715 22.7203 25.3806C22.0203 25.4306 21.1903 25.3806 20.2703 25.3606H20.0803C19.8703 25.3406 19.6503 25.1906 19.6303 24.9806C19.6232 24.9152 19.6301 24.8491 19.6506 24.7867C19.6711 24.7243 19.7048 24.667 19.7493 24.6187C19.7938 24.5703 19.8482 24.5321 19.9088 24.5066C19.9693 24.481 20.0346 24.4688 20.1003 24.4706H20.3103C21.4803 24.5306 22.6103 24.5806 23.2903 24.4106C24.5703 24.1106 24.9103 23.3006 24.8003 22.6606C24.6903 22.0206 24.2903 21.6206 23.6503 21.7006C22.7403 21.8106 21.6803 21.7706 20.6303 21.7506C19.5803 21.7306 18.2103 21.7306 17.3603 21.8506C16.5103 21.9706 14.4703 22.7906 12.7903 24.0406C11.9603 24.6606 11.0403 25.3806 10.4903 25.8106C10.4239 25.8639 10.3688 25.9299 10.3282 26.0048C10.2877 26.0797 10.2625 26.1619 10.2541 26.2467C10.2457 26.3314 10.2543 26.417 10.2794 26.4984C10.3045 26.5797 10.3456 26.6553 10.4003 26.7206L13.0603 29.8706C13.1693 29.9995 13.3241 30.081 13.4921 30.0978C13.6601 30.1146 13.828 30.0654 13.9603 29.9606L14.8503 29.2106C14.9562 29.1271 15.0794 29.0685 15.211 29.0391C15.3425 29.0097 15.479 29.0102 15.6103 29.0406C17.3403 29.5106 19.1403 29.7906 20.3403 29.8106C22.9103 29.8306 27.7403 26.5706 29.1203 25.5306C30.5003 24.4906 29.4003 22.5506 27.8403 23.1906Z" fill="black"/>
<path d="M20.0604 19.9004H27.1404C27.361 19.9004 27.5794 19.857 27.7833 19.7726C27.9871 19.6881 28.1723 19.5644 28.3283 19.4084C28.4843 19.2524 28.608 19.0672 28.6925 18.8633C28.7769 18.6595 28.8204 18.4411 28.8204 18.2204V13.8104C28.8204 13.3649 28.6434 12.9376 28.3283 12.6225C28.0132 12.3074 27.5859 12.1304 27.1404 12.1304H25.7604V11.0104C25.7617 10.8643 25.7339 10.7194 25.6786 10.5841C25.6233 10.4488 25.5416 10.3259 25.4382 10.2226C25.3349 10.1192 25.212 10.0375 25.0767 9.98221C24.9414 9.9269 24.7965 9.8991 24.6504 9.90044H22.5304C22.3842 9.8991 22.2393 9.9269 22.104 9.98221C21.9687 10.0375 21.8458 10.1192 21.7425 10.2226C21.6391 10.3259 21.5574 10.4488 21.5021 10.5841C21.4468 10.7194 21.419 10.8643 21.4204 11.0104V12.1304H20.0404C19.8197 12.1304 19.6013 12.1739 19.3974 12.2583C19.1936 12.3427 19.0084 12.4665 18.8524 12.6225C18.6964 12.7785 18.5727 12.9637 18.4882 13.1675C18.4038 13.3714 18.3604 13.5898 18.3604 13.8104V18.2204C18.3617 18.4424 18.4067 18.6619 18.4928 18.8664C18.579 19.071 18.7045 19.2565 18.8624 19.4125C19.0203 19.5685 19.2073 19.6919 19.4129 19.7756C19.6184 19.8593 19.8384 19.9018 20.0604 19.9004ZM22.4604 11.0104C22.4604 10.9604 22.4804 10.9404 22.5304 10.9404H24.6504C24.7004 10.9404 24.7204 10.9604 24.7204 11.0104V12.1304H22.4604V11.0104ZM21.6104 15.3204H22.8904V14.0504H24.2704V15.3204H25.5504V16.7104H24.2704V17.9804H22.8904V16.7104H21.6104V15.3204Z" fill="black"/>
</svg>
