<svg width="40" height="40" viewBox="0 0 40 40" fill="none" xmlns="http://www.w3.org/2000/svg">
<g clip-path="url(#clip0_1154_56259)">
<path d="M39.8709 20.0001C39.8709 30.9801 30.9809 39.8801 20.0009 39.8801C9.02086 39.8801 0.130859 30.9701 0.130859 20.0001C0.130859 9.03012 9.02086 0.120117 20.0009 0.120117C30.9809 0.120117 39.8709 9.03012 39.8709 20.0001Z" fill="white"/>
<path d="M32.1022 13.1707L32.0522 13.1507C31.7021 13.0517 31.3271 13.0949 31.0088 13.271C30.6904 13.447 30.4544 13.7416 30.3522 14.0907L29.2522 17.8607L27.0722 19.4907L26.5122 19.2407L27.9222 17.7907C28.1788 17.5504 28.3316 17.2194 28.348 16.8682C28.3643 16.5169 28.243 16.1732 28.0098 15.91C27.7766 15.6468 27.4499 15.485 27.0993 15.459C26.7486 15.433 26.4017 15.5449 26.1322 15.7707L22.6422 18.4407C22.3879 18.6347 22.191 18.8938 22.0722 19.1907L20.2422 25.0207L25.0522 26.9107L25.8222 23.7407L30.9022 20.7607C31.254 20.5538 31.5147 20.2216 31.6322 19.8307L33.0122 14.8207C33.0611 14.6527 33.0764 14.4766 33.0571 14.3026C33.0378 14.1286 32.9843 13.9601 32.8998 13.8068C32.8152 13.6535 32.7013 13.5184 32.5644 13.4093C32.4275 13.3001 32.2705 13.2191 32.1022 13.1707Z" fill="black"/>
<path d="M17.9317 19.1804C17.8138 18.883 17.6166 18.6236 17.3617 18.4304L13.8817 15.7704C13.6111 15.5542 13.2673 15.4511 12.9224 15.4828C12.5775 15.5145 12.2583 15.6785 12.0317 15.9404C11.81 16.1986 11.6924 16.5299 11.7016 16.8701C11.7109 17.2102 11.8463 17.5347 12.0817 17.7804L13.5017 19.2304L12.9417 19.4804L10.7617 17.8504C10.5917 17.3004 10.0017 15.2804 9.66165 14.0804C9.61217 13.9068 9.52887 13.7447 9.41653 13.6034C9.30419 13.4621 9.16504 13.3444 9.00706 13.257C8.84908 13.1697 8.6754 13.1144 8.49599 13.0944C8.31659 13.0744 8.13499 13.09 7.96165 13.1404L7.91165 13.1604C7.57616 13.2628 7.29271 13.4899 7.11969 13.795C6.94667 14.1001 6.89726 14.46 6.98165 14.8004L8.37165 19.8104C8.48977 20.2039 8.75473 20.5369 9.11165 20.7404L14.1817 23.7204L14.9517 26.8904L19.7717 25.0004L17.9417 19.2104L17.9317 19.1804Z" fill="black"/>
</g>
<defs>
<clipPath id="clip0_1154_56259">
<rect width="40" height="40" fill="white"/>
</clipPath>
</defs>
</svg>
