<svg width="40" height="40" viewBox="0 0 40 40" fill="none" xmlns="http://www.w3.org/2000/svg">
<path d="M19.9999 0.120117C9.01988 0.120117 0.129883 9.02012 0.129883 20.0001C0.129883 30.9801 9.01988 39.8801 19.9999 39.8801C30.9799 39.8801 39.8699 30.9801 39.8699 20.0001C39.8699 9.02012 30.9799 0.120117 19.9999 0.120117ZM20.1299 32.4201H20.0299C19.3981 32.38 18.8053 32.1008 18.372 31.6391C17.9387 31.1775 17.6976 30.5682 17.6976 29.9351C17.6976 29.302 17.9387 28.6927 18.372 28.2311C18.8053 27.7695 19.3981 27.4902 20.0299 27.4501H20.1299C20.4695 27.4286 20.8099 27.4768 21.1301 27.592C21.4503 27.7071 21.7435 27.8866 21.9916 28.1195C22.2397 28.3524 22.4375 28.6336 22.5727 28.9459C22.7079 29.2582 22.7776 29.5948 22.7776 29.9351C22.7776 30.2754 22.7079 30.6121 22.5727 30.9243C22.4375 31.2366 22.2397 31.5179 21.9916 31.7507C21.7435 31.9836 21.4503 32.1631 21.1301 32.2783C20.8099 32.3934 20.4695 32.4417 20.1299 32.4201ZM27.6899 17.1001C27.2264 18.2865 26.4183 19.3069 25.3699 20.0301C24.8799 20.3601 24.4199 20.6901 23.9899 21.0301C23.5615 21.3584 23.1782 21.7417 22.8499 22.1701C22.513 22.6171 22.2992 23.1447 22.2299 23.7001C22.2299 23.7101 22.1199 24.5701 21.9099 24.8701C21.7199 25.1793 21.4536 25.4346 21.1367 25.6114C20.8198 25.7882 20.4628 25.8808 20.0999 25.8801H20.0199C19.6187 25.8766 19.2258 25.7664 18.8813 25.5608C18.5369 25.3551 18.2533 25.0615 18.0599 24.7101C17.8399 24.2601 17.8599 23.5601 17.8599 23.5601C17.9299 22.6401 18.1099 21.8601 18.3999 21.2401C18.6585 20.6591 19.0023 20.1198 19.4199 19.6401C19.7872 19.2136 20.1996 18.828 20.6499 18.4901C21.0799 18.1701 21.4699 17.8501 21.8399 17.5301C22.1908 17.2223 22.4912 16.8613 22.7299 16.4601C22.966 16.015 23.0734 15.5129 23.0399 15.0101C23.0399 14.0101 22.7999 13.2801 22.3099 12.8101C21.8199 12.3401 21.1499 12.1001 20.2899 12.1001C19.7696 12.0894 19.2547 12.2061 18.7899 12.4401C18.381 12.66 18.0284 12.9714 17.7599 13.3501C17.4781 13.7481 17.2745 14.1961 17.1599 14.6701C17.082 14.9635 16.9748 15.2482 16.8399 15.5201C16.6446 15.8685 16.3602 16.1586 16.0157 16.3607C15.6713 16.5628 15.2792 16.6696 14.8799 16.6701H14.7899C14.1905 16.6701 13.6157 16.432 13.1918 16.0082C12.768 15.5843 12.5299 15.0095 12.5299 14.4101C12.5305 14.1883 12.5539 13.9671 12.5999 13.7501C12.6599 13.5301 12.7399 13.3201 12.8199 13.1001C13.1796 12.167 13.7199 11.314 14.4099 10.5901C15.1022 9.86995 15.9365 9.30129 16.8599 8.92012C17.8846 8.51593 18.9784 8.31552 20.0799 8.33012C21.5999 8.33012 22.8799 8.54012 23.8999 8.96012C24.9199 9.38012 25.7499 9.90012 26.3799 10.5301C27.4661 11.5973 28.0907 13.0477 28.1199 14.5701C28.0899 15.5901 27.9599 16.4301 27.6899 17.1001Z" fill="white"/>
<path d="M22.6195 29.9402C22.6169 30.5988 22.3534 31.2296 21.8867 31.6944C21.42 32.1592 20.7882 32.4202 20.1295 32.4202H20.0295C19.3977 32.3801 18.8049 32.1008 18.3717 31.6392C17.9384 31.1776 17.6973 30.5683 17.6973 29.9352C17.6973 29.3021 17.9384 28.6928 18.3717 28.2312C18.8049 27.7696 19.3977 27.4903 20.0295 27.4502H20.1295C20.7899 27.4502 21.4233 27.7125 21.8902 28.1795C22.3572 28.6465 22.6195 29.2798 22.6195 29.9402Z" fill="black"/>
<path d="M28.1203 14.5698C28.0903 15.5898 27.9603 16.4298 27.6903 17.0998C27.2267 18.2862 26.4187 19.3067 25.3703 20.0298C24.8803 20.3598 24.4203 20.6898 23.9903 21.0298C23.5619 21.3582 23.1786 21.7415 22.8503 22.1698C22.5133 22.6168 22.2996 23.1444 22.2303 23.6998C22.2303 23.7098 22.1203 24.5698 21.9103 24.8698C21.7203 25.179 21.454 25.4343 21.1371 25.6111C20.8202 25.788 20.4632 25.8805 20.1003 25.8798H20.0203C19.6191 25.8763 19.2262 25.7661 18.8817 25.5605C18.5373 25.3549 18.2537 25.0613 18.0603 24.7098C17.8403 24.2598 17.8603 23.5598 17.8603 23.5598C17.9303 22.6398 18.1103 21.8598 18.4003 21.2398C18.6589 20.6588 19.0027 20.1195 19.4203 19.6398C19.7876 19.2133 20.2 18.8277 20.6503 18.4898C21.0803 18.1698 21.4703 17.8498 21.8403 17.5298C22.1912 17.2221 22.4916 16.861 22.7303 16.4598C22.9664 16.0147 23.0737 15.5126 23.0403 15.0098C23.0403 14.0098 22.8003 13.2798 22.3103 12.8098C21.8203 12.3398 21.1503 12.0998 20.2903 12.0998C19.77 12.0891 19.2551 12.2059 18.7903 12.4398C18.3814 12.6597 18.0288 12.9711 17.7603 13.3498C17.4785 13.7479 17.2749 14.1958 17.1603 14.6698C17.0824 14.9632 16.9752 15.248 16.8403 15.5198C16.645 15.8682 16.3606 16.1584 16.0161 16.3605C15.6717 16.5626 15.2796 16.6694 14.8803 16.6698H14.7903C14.1909 16.6698 13.616 16.4317 13.1922 16.0079C12.7684 15.5841 12.5303 15.0092 12.5303 14.4098C12.5309 14.188 12.5543 13.9669 12.6003 13.7498C12.6603 13.5298 12.7403 13.3198 12.8203 13.0998C13.18 12.1667 13.7203 11.3138 14.4103 10.5898C15.1026 9.86968 15.9369 9.30102 16.8603 8.91984C17.885 8.51566 18.9788 8.31525 20.0803 8.32985C21.6003 8.32985 22.8803 8.53984 23.9003 8.95984C24.9203 9.37984 25.7503 9.89985 26.3803 10.5298C27.4664 11.597 28.0911 13.0474 28.1203 14.5698Z" fill="black"/>
</svg>
