<svg width="40" height="40" viewBox="0 0 40 40" fill="none" xmlns="http://www.w3.org/2000/svg">
<path d="M39.8709 20.0001C39.8709 30.9801 30.9809 39.8801 20.0009 39.8801C9.02086 39.8801 0.130859 30.9701 0.130859 20.0001C0.130859 9.03012 9.02086 0.120117 20.0009 0.120117C30.9809 0.120117 39.8709 9.03012 39.8709 20.0001Z" fill="white"/>
<path d="M24.2513 9.74023H11.4913C10.9264 9.74023 10.3846 9.96464 9.98519 10.3641C9.58574 10.7635 9.36133 11.3053 9.36133 11.8702V28.8802C9.36133 29.4451 9.58574 29.9869 9.98519 30.3864C10.3846 30.7858 10.9264 31.0102 11.4913 31.0102H24.2513C24.5306 31.0102 24.8071 30.9551 25.0649 30.8479C25.3228 30.7407 25.5569 30.5837 25.7539 30.3858C25.9509 30.1878 26.1069 29.953 26.2128 29.6946C26.3188 29.4362 26.3726 29.1595 26.3713 28.8802V11.8702C26.3726 11.591 26.3188 11.3142 26.2128 11.0559C26.1069 10.7975 25.9509 10.5626 25.7539 10.3647C25.5569 10.1668 25.3228 10.0097 25.0649 9.90256C24.8071 9.7954 24.5306 9.74023 24.2513 9.74023ZM11.4913 20.9702C11.5013 20.5902 11.7113 20.3802 12.0913 20.3802C12.9313 20.3669 13.7713 20.3669 14.6113 20.3802C15.0013 20.3802 15.2113 20.5802 15.2213 20.9802C15.2313 21.3802 15.2213 21.8202 15.2213 22.2502V23.4502C15.2213 23.8802 15.0313 24.0902 14.6113 24.0902H12.0913C11.7013 24.0902 11.5013 23.8902 11.4913 23.5002C11.4813 22.6602 11.4813 21.8102 11.4913 20.9702ZM24.2413 14.5202C24.2469 14.6523 24.201 14.7813 24.1134 14.8801C24.0257 14.979 23.9031 15.04 23.7713 15.0502H17.3913C16.9913 15.0402 16.7413 14.7302 16.8413 14.3802C16.8638 14.2824 16.9165 14.1941 16.9918 14.1277C17.0672 14.0613 17.1614 14.0202 17.2613 14.0102C17.3571 13.9939 17.4542 13.9872 17.5513 13.9902H23.7613C23.8279 13.9928 23.8933 14.0086 23.9536 14.0368C24.014 14.0649 24.0681 14.1049 24.1129 14.1542C24.1576 14.2036 24.192 14.2614 24.214 14.3243C24.2361 14.3871 24.2454 14.4537 24.2413 14.5202ZM11.8113 15.1202C11.9052 15.0722 12.0118 15.055 12.1159 15.0712C12.2201 15.0873 12.3165 15.136 12.3913 15.2102C12.5712 15.3701 12.7415 15.5404 12.9013 15.7202C13.0413 15.8702 13.1313 15.8802 13.2813 15.7202L14.8213 14.1802C14.8927 14.0981 14.988 14.0404 15.0938 14.0153C15.1996 13.9902 15.3107 13.9989 15.4113 14.0402C15.5026 14.0744 15.5822 14.134 15.6407 14.2119C15.6992 14.2899 15.7341 14.383 15.7413 14.4802C15.7505 14.5571 15.7418 14.635 15.7157 14.7079C15.6897 14.7808 15.6471 14.8466 15.5913 14.9002L13.2113 17.2902C13.1313 17.3802 13.0613 17.3702 12.9813 17.2902L11.6513 15.9502C11.558 15.8573 11.5043 15.7319 11.5013 15.6002C11.5005 15.4987 11.5294 15.3991 11.5845 15.3138C11.6396 15.2285 11.7184 15.1612 11.8113 15.1202ZM23.8513 23.5402L23.5213 23.5702H17.4813C17.3217 23.5862 17.1618 23.5436 17.0313 23.4502C16.9528 23.3916 16.8924 23.3121 16.8572 23.2207C16.8219 23.1293 16.8132 23.0298 16.832 22.9336C16.8508 22.8375 16.8964 22.7486 16.9635 22.6772C17.0306 22.6059 17.1165 22.5549 17.2113 22.5302C17.2932 22.5104 17.3771 22.5004 17.4613 22.5002H23.6213L23.8513 22.5202C23.9648 22.5513 24.0648 22.6193 24.1354 22.7134C24.206 22.8076 24.2433 22.9226 24.2413 23.0402C24.2442 23.1558 24.2068 23.2688 24.1357 23.36C24.0646 23.4511 23.9641 23.5148 23.8513 23.5402ZM16.8313 20.8202C16.8446 20.7168 16.8906 20.6202 16.9625 20.5447C17.0345 20.4692 17.1286 20.4185 17.2313 20.4002C17.3264 20.379 17.4242 20.3723 17.5213 20.3802H23.5413C23.6384 20.3766 23.7356 20.3833 23.8313 20.4002C23.9561 20.42 24.0684 20.4873 24.1448 20.5879C24.2212 20.6885 24.2558 20.8147 24.2413 20.9402C24.2364 21.066 24.1842 21.1852 24.0953 21.2742C24.0063 21.3631 23.8871 21.4153 23.7613 21.4202H17.4513C17.3117 21.4357 17.1709 21.404 17.0513 21.3302C16.9683 21.2765 16.9032 21.1994 16.864 21.1086C16.8248 21.0178 16.8135 20.9175 16.8313 20.8202ZM23.7913 17.1702H17.3413C17.2042 17.1677 17.0734 17.1121 16.9765 17.0151C16.8795 16.9181 16.8239 16.7873 16.8213 16.6502C16.8185 16.5812 16.83 16.5123 16.8552 16.4479C16.8803 16.3836 16.9185 16.3251 16.9674 16.2763C17.0162 16.2274 17.0747 16.1892 17.139 16.1641C17.2034 16.1389 17.2723 16.1274 17.3413 16.1302H23.6513C23.9013 16.1302 24.0913 16.2102 24.2013 16.4402C24.2348 16.5145 24.2505 16.5956 24.2469 16.677C24.2433 16.7584 24.2207 16.8378 24.1808 16.9088C24.1409 16.9799 24.0848 17.0405 24.0172 17.0859C23.9495 17.1313 23.8722 17.1602 23.7913 17.1702Z" fill="black"/>
<path d="M27.7121 19.31C27.5321 19.31 27.4321 19.35 27.4421 19.57V28.69C27.4366 28.8129 27.4756 28.9337 27.5521 29.03L28.8821 30.79C29.0321 30.99 29.0421 30.99 29.2021 30.78L30.4521 29.12C30.5021 29.05 30.5421 28.97 30.6421 28.94V19.29L30.3321 19.31H27.7121Z" fill="black"/>
<path d="M30.5314 16.1902C30.5214 16.1902 30.5214 16.1802 30.5114 16.1702C30.4146 15.9824 30.2639 15.8277 30.0786 15.7262C29.8933 15.6246 29.6818 15.5807 29.4714 15.6002H28.6614C27.8914 15.5802 27.4414 16.0102 27.4414 16.7702V18.4702C27.4414 18.7802 27.4514 18.7902 27.7514 18.7902H30.6414V16.6602C30.6393 16.4974 30.6018 16.337 30.5314 16.1902Z" fill="black"/>
<path d="M12.7816 23.0407H13.9416C14.0916 23.0407 14.1516 22.9707 14.1516 22.8207C14.1416 22.4307 14.1416 22.0307 14.1516 21.6407C14.1516 21.5007 14.0916 21.4307 13.9516 21.4307H12.7516C12.6216 21.4307 12.5616 21.4907 12.5616 21.6307C12.5616 21.7707 12.5616 22.0307 12.5616 22.2307C12.5616 22.4307 12.5716 22.6207 12.5616 22.8107C12.5516 23.0007 12.6116 23.0407 12.7816 23.0407Z" fill="black"/>
</svg>
