<svg width="24" height="24" viewBox="0 0 24 24" fill="none" xmlns="http://www.w3.org/2000/svg">
<path d="M23.9995 1.38323C23.9767 1.14421 23.8673 0.912384 23.6806 0.707494C23.4938 0.502603 23.2353 0.330711 22.927 0.206452C22.5932 0.0738193 22.2123 0.00256373 21.8234 0C21.3214 0.00376633 20.8374 0.12431 20.4555 0.340645L19.756 0.701935C18.9633 1.12516 18.1394 1.56903 17.3622 2.03355C16.585 2.49806 15.9322 2.89032 15.9166 3.36516C15.9171 3.49355 15.9596 3.62033 16.041 3.73677C15.7406 3.77283 15.467 3.87457 15.2638 4.02581C14.3622 4.58323 13.585 5.09935 12.9011 5.58452H4.5384C2.30006 5.58452 0.636849 6.54452 0.186072 8.0929C-0.326882 9.86839 0.310424 11.5716 1.00991 13.0065C1.43603 13.839 1.48468 14.7363 1.1498 15.5871C0.636849 16.9084 0.605761 18.1781 1.05654 19.3652C1.78711 21.1716 2.90628 22.4723 4.55395 23.4219C4.75602 23.5458 5.36224 23.9071 6.17053 23.9071C6.46555 23.9068 6.75705 23.8646 7.02545 23.7832C7.61612 23.5974 8.30006 23.1948 8.19125 22.2658C8.14462 21.9148 8.08245 21.5742 8.02027 21.2232C7.927 20.6452 7.8182 20.0568 7.75602 19.489C7.61612 18.24 8.02027 17.1148 8.93737 16.1342C9.45032 15.5974 10.0099 15.2981 10.4918 15.2981C10.9736 15.2981 11.5177 15.5974 11.9995 16.1342C12.9011 17.1252 13.3208 18.3123 13.3208 19.871C13.3023 20.2486 13.2399 20.6248 13.1343 20.9961C12.9964 21.4586 12.9235 21.9286 12.9166 22.4C12.9633 23.1329 13.4296 23.6284 14.269 23.8555C14.7104 23.993 15.2066 24.0331 15.6848 23.9699C16.163 23.9068 16.5983 23.7437 16.927 23.5045C17.2045 23.3291 17.4545 23.1354 17.6731 22.9265V22.9058C20.2845 20.2426 21.2482 17.569 20.6576 14.7406C20.4555 13.8529 20.5488 13.12 20.9063 12.4387C21.2834 11.7495 21.6 11.0464 21.8545 10.3329C22.585 8.21677 21.2016 6.50323 18.1084 5.72903H18.0928C17.6269 5.64324 17.1462 5.59813 16.6628 5.59484L17.0358 5.37806C17.2837 5.2458 17.4631 5.06532 17.5488 4.86194C17.7621 4.96405 18.0165 5.02155 18.2793 5.0271C18.6289 5.01556 18.9603 4.9202 19.212 4.75871C20.098 4.2529 21.0151 3.7471 21.9011 3.26194L23.0669 2.61161C23.3435 2.47643 23.5699 2.30106 23.7288 2.0989C23.8878 1.89675 23.975 1.67314 23.984 1.44516V1.39355L23.9995 1.38323ZM18.1705 14.6271C17.9535 13.7676 18.0767 12.8854 18.528 12.0671C18.9011 11.3342 19.2431 10.6013 19.5073 9.84774C19.8804 8.82581 19.3519 8.0929 18.0462 7.54581C17.7975 7.44258 17.1291 7.29806 17.0047 6.98839C16.8804 6.67871 17.2845 6.35871 17.3778 6.23484C17.471 6.11097 17.6887 6.1729 17.8596 6.21419C20.5488 6.88516 21.7612 8.35097 21.1084 10.209C20.8664 10.9056 20.5602 11.5916 20.1913 12.2632C19.7405 13.0994 19.7094 13.9355 19.8959 14.8129C20.5021 17.6619 19.3674 20.2426 17.0358 22.6271C16.8385 22.813 16.6147 22.9858 16.3674 23.1432C16.1479 23.3055 15.8552 23.4163 15.533 23.4591C15.2109 23.5019 14.8765 23.4744 14.5799 23.3806C13.9115 23.2052 13.7249 22.8232 13.6938 22.3794C13.6628 21.5226 14.098 20.7071 14.098 19.8606C14.098 18.4465 13.7871 17.0839 12.6679 15.8555C11.3622 14.4206 9.65239 14.4103 8.28452 15.8452C7.24307 16.96 6.83892 18.1987 6.97882 19.5097C7.08763 20.4387 7.27416 21.3781 7.41405 22.3071C7.46068 22.72 7.35187 23.1123 6.69903 23.3084C6.04618 23.5045 5.51768 23.3084 5.0669 23.04C3.32597 22.0284 2.39333 20.6865 1.80265 19.231C1.35187 18.0542 1.44514 16.8671 1.89592 15.711C2.27271 14.7653 2.21862 13.7666 1.74048 12.8413C1.00991 11.3342 0.481409 9.79613 0.94773 8.18581C1.33633 6.84387 2.75084 6.05935 4.6783 6.10065C5.11353 6.11097 5.25343 6.19355 5.19125 6.4929C5.12908 6.79226 5.12908 7.24645 4.10317 7.27742C3.07726 7.30839 2.87519 7.75226 2.67312 8.23742C2.28659 9.1129 2.31371 10.046 2.75084 10.911C3.82338 13.0374 3.91664 15.1226 3.29488 17.3316C2.8441 18.9523 3.93219 20.449 5.53322 21.7187C5.54877 21.76 5.54877 21.8323 5.64203 21.791C5.73529 21.7497 5.64203 21.7084 5.64203 21.6568C5.39333 20.2632 5.05136 18.8594 5.53322 17.4555C5.90628 16.4232 6.46587 15.4529 7.56949 14.6374C9.3726 13.2955 11.8596 13.3161 13.5384 14.7303C15.2172 16.1445 15.7923 18.0129 15.7767 19.8813C15.7612 20.6142 15.5436 21.3161 15.3571 22.1316C15.734 21.9389 16.0331 21.6871 16.2275 21.3987C17.9685 19.2826 18.8389 17.0529 18.1705 14.6271ZM16.5384 4.97548C12.9011 7.12258 9.71457 9.52774 7.38296 12.3974C6.01509 14.08 5.00472 15.8348 4.49177 17.7239C4.44514 17.889 4.47623 18.0955 4.08763 18.2194C3.9011 17.7445 4.1498 17.3419 4.27416 16.9394C5.48659 12.9548 8.51768 9.61032 12.528 6.61677C13.5539 5.84258 14.6576 5.10968 15.7923 4.39742C16.1187 4.19097 16.2742 4.19097 16.585 4.40774C16.8959 4.62452 16.9115 4.75871 16.5384 4.97548ZM22.6006 2.19871C21.2949 2.92129 19.9892 3.62323 18.7146 4.35613C18.3726 4.55226 18.1861 4.54194 17.8752 4.34581C16.3208 3.37548 16.2897 3.36516 17.8752 2.41548C18.8545 1.8271 19.9115 1.29032 20.9374 0.743226C21.4192 0.485161 21.9788 0.433548 22.5229 0.650323C22.7223 0.73172 22.8897 0.843431 23.0113 0.976244C23.1329 1.10906 23.2053 1.25917 23.2223 1.41419C23.213 1.56742 23.1523 1.71733 23.0447 1.85304C22.9372 1.98874 22.7855 2.10682 22.6006 2.19871Z" fill="white"/>
</svg>
