<svg width="20" height="24" viewBox="0 0 20 24" fill="none" xmlns="http://www.w3.org/2000/svg">
<path d="M4.33864 22.0954C4.11708 20.639 3.81243 19.1718 4.2417 17.7046C4.57404 16.6258 5.07255 15.6117 6.05572 14.7594C7.66202 13.3569 9.8776 13.3785 11.3731 14.8565C12.8686 16.3345 13.381 18.2872 13.3671 20.2398C13.3533 21.0058 13.1594 21.7394 12.9933 22.5917C13.3295 22.3906 13.596 22.1273 13.7687 21.8257C15.3196 19.6141 16.0951 17.2839 15.4996 14.7486C15.307 13.8503 15.4167 12.9285 15.8181 12.0731C16.1505 11.3072 16.4551 10.5412 16.6905 9.75368C17.0229 8.68565 16.552 7.91968 15.3889 7.34791C15.1673 7.24003 14.5719 7.08899 14.4611 6.76535C14.3503 6.4417 14.7103 6.10727 14.7934 5.97781C14.8765 5.84835 15.0704 5.91308 15.2227 5.95623C17.6183 6.65746 18.6984 8.18939 18.1168 10.1313C17.8975 10.8585 17.6247 11.5753 17.2998 12.2781C16.8982 13.152 16.8705 14.0258 17.0367 14.9428C17.5768 17.9204 16.5659 20.6174 14.4888 23.1095C14.3136 23.3041 14.1141 23.4848 13.8933 23.6489C13.6978 23.8185 13.437 23.9343 13.15 23.979C12.863 24.0237 12.5652 23.995 12.3009 23.897C11.7055 23.7136 11.5393 23.3145 11.5116 22.8506C11.4839 21.9551 11.8716 21.1029 11.8716 20.2182C11.8716 18.7403 11.5947 17.3162 10.5977 16.0324C9.43448 14.5329 7.91127 14.5221 6.6927 16.0216C5.76492 17.1868 5.40489 18.4813 5.52951 19.8514C5.62645 20.8224 5.79261 21.8041 5.91724 22.775C5.95878 23.2066 5.86185 23.6165 5.28026 23.8215C4.69867 24.0265 4.22786 23.8215 3.82628 23.541C2.27537 22.4838 1.44453 21.0813 0.918327 19.5602C0.516752 18.3303 0.599837 17.0897 1.00141 15.8814C1.33708 14.893 1.28889 13.8493 0.862938 12.8823C0.21211 11.3072 -0.258703 9.69974 0.156719 8.01678C0.502904 6.61431 1.76302 5.79441 3.4801 5.83756C3.86782 5.84835 3.99245 5.93465 3.93706 6.24751C3.88167 6.56037 3.88167 7.03505 2.96774 7.06742C2.05381 7.09978 1.8738 7.56368 1.69378 8.07072C1.34855 8.9856 1.37272 9.96105 1.76302 10.8649C2.71849 13.0872 2.80157 15.2665 2.24768 17.5751C1.8461 19.2689 2.81542 20.8332 4.2417 22.1601C4.25555 22.2033 4.25555 22.2788 4.33864 22.2356C4.42172 22.1925 4.33864 22.1493 4.33864 22.0954Z" fill="#100E10"/>
<path d="M2.95428 18.5043C2.78811 18.0081 3.00967 17.5874 3.12045 17.1666C4.20055 13.0024 6.90079 9.50698 10.4734 6.3784C11.3874 5.56929 12.3705 4.80332 13.3814 4.05894C13.6722 3.84317 13.8106 3.84317 14.0876 4.06972C14.3645 4.29628 14.3784 4.43652 14.0461 4.66308C10.8058 6.90702 7.96704 9.42068 5.88993 12.4198C4.67136 14.1783 3.77128 16.0123 3.31431 17.9865C3.27277 18.1591 3.30047 18.3749 2.95428 18.5043Z" fill="#100E10"/>
<path d="M20 0.940159C19.9936 1.10062 19.9404 1.25784 19.8444 1.3999C19.7485 1.54196 19.6122 1.66513 19.4461 1.76006C18.2829 2.51524 17.1197 3.24884 15.9842 4.0148C15.6796 4.21977 15.5134 4.20899 15.2365 4.00401C13.8517 2.98992 13.824 2.97913 15.2365 1.98661C16.1089 1.37169 17.0505 0.8107 17.9644 0.238925C18.3937 -0.0307803 18.8922 -0.0847215 19.3768 0.141831C19.556 0.225534 19.7064 0.34195 19.815 0.481033C19.9235 0.620117 19.987 0.777691 20 0.940159Z" fill="#100E10"/>
</svg>
