<svg width="40" height="40" viewBox="0 0 40 40" fill="none" xmlns="http://www.w3.org/2000/svg">
<path d="M14.3386 30.0954C14.1171 28.639 13.8124 27.1718 14.2417 25.7046C14.574 24.6258 15.0725 23.6117 16.0557 22.7594C17.662 21.3569 19.8776 21.3785 21.3731 22.8565C22.8686 24.3345 23.381 26.2872 23.3671 28.2398C23.3533 29.0058 23.1594 29.7394 22.9933 30.5917C23.3295 30.3906 23.596 30.1273 23.7687 29.8257C25.3196 27.6141 26.0951 25.2839 25.4996 22.7486C25.307 21.8503 25.4167 20.9285 25.8181 20.0731C26.1505 19.3072 26.4551 18.5412 26.6905 17.7537C27.0229 16.6856 26.5521 15.9197 25.3889 15.3479C25.1673 15.24 24.5719 15.089 24.4611 14.7653C24.3503 14.4417 24.7103 14.1073 24.7934 13.9778C24.8765 13.8483 25.0704 13.9131 25.2227 13.9562C27.6183 14.6575 28.6984 16.1894 28.1168 18.1313C27.8975 18.8585 27.6247 19.5753 27.2998 20.2781C26.8982 21.152 26.8705 22.0258 27.0367 22.9428C27.5768 25.9204 26.5659 28.6174 24.4888 31.1095C24.3136 31.3041 24.1141 31.4848 23.8933 31.6489C23.6978 31.8185 23.437 31.9343 23.15 31.979C22.863 32.0237 22.5652 31.995 22.3009 31.897C21.7055 31.7136 21.5393 31.3145 21.5116 30.8506C21.4839 29.9551 21.8716 29.1029 21.8716 28.2182C21.8716 26.7403 21.5947 25.3162 20.5977 24.0324C19.4345 22.5329 17.9113 22.5221 16.6927 24.0216C15.7649 25.1868 15.4049 26.4813 15.5295 27.8514C15.6264 28.8224 15.7926 29.8041 15.9172 30.775C15.9588 31.2066 15.8619 31.6165 15.2803 31.8215C14.6987 32.0265 14.2279 31.8215 13.8263 31.541C12.2754 30.4838 11.4445 29.0813 10.9183 27.5602C10.5168 26.3303 10.5998 25.0897 11.0014 23.8814C11.3371 22.893 11.2889 21.8493 10.8629 20.8823C10.2121 19.3072 9.7413 17.6997 10.1567 16.0168C10.5029 14.6143 11.763 13.7944 13.4801 13.8376C13.8678 13.8483 13.9925 13.9347 13.9371 14.2475C13.8817 14.5604 13.8817 15.0351 12.9677 15.0674C12.0538 15.0998 11.8738 15.5637 11.6938 16.0707C11.3485 16.9856 11.3727 17.9611 11.763 18.8649C12.7185 21.0872 12.8016 23.2665 12.2477 25.5751C11.8461 27.2689 12.8154 28.8332 14.2417 30.1601C14.2556 30.2033 14.2556 30.2788 14.3386 30.2356C14.4217 30.1925 14.3386 30.1493 14.3386 30.0954Z" fill="white"/>
<path d="M12.9543 26.5043C12.7881 26.0081 13.0097 25.5874 13.1205 25.1666C14.2005 21.0024 16.9008 17.507 20.4734 14.3784C21.3874 13.5693 22.3705 12.8033 23.3814 12.0589C23.6722 11.8432 23.8106 11.8432 24.0876 12.0697C24.3645 12.2963 24.3784 12.4365 24.0461 12.6631C20.8058 14.907 17.967 17.4207 15.8899 20.4198C14.6714 22.1783 13.7713 24.0123 13.3143 25.9865C13.2728 26.1591 13.3005 26.3749 12.9543 26.5043Z" fill="white"/>
<path d="M30 8.94016C29.9936 9.10062 29.9404 9.25784 29.8444 9.3999C29.7485 9.54196 29.6122 9.66513 29.4461 9.76006C28.2829 10.5152 27.1197 11.2488 25.9842 12.0148C25.6796 12.2198 25.5134 12.209 25.2365 12.004C23.8517 10.9899 23.824 10.9791 25.2365 9.98661C26.1089 9.37169 27.0505 8.8107 27.9644 8.23892C28.3937 7.96922 28.8922 7.91528 29.3768 8.14183C29.556 8.22553 29.7064 8.34195 29.815 8.48103C29.9235 8.62012 29.987 8.77769 30 8.94016Z" fill="white"/>
</svg>
