<svg width="10" height="14" viewBox="0 0 10 14" fill="none" xmlns="http://www.w3.org/2000/svg">
<g clip-path="url(#clip0_832_26731)">
<path d="M9.99981 0.806882C9.99031 0.667454 9.94472 0.532224 9.86691 0.412705C9.7891 0.293185 9.68138 0.192915 9.55292 0.12043C9.41385 0.0430613 9.25513 0.00149551 9.09307 0C8.88393 0.00219703 8.68225 0.072514 8.52313 0.19871L8.23168 0.409462C7.90136 0.656344 7.5581 0.915269 7.23427 1.18624C6.91043 1.4572 6.63841 1.68602 6.63193 1.96301C6.63214 2.0379 6.64982 2.11186 6.68375 2.17979C6.55859 2.20082 6.4446 2.26017 6.35991 2.34839C5.98427 2.67355 5.66043 2.97462 5.37546 3.25763H1.891C0.958359 3.25763 0.265354 3.81763 0.0775299 4.72086C-0.136201 5.75656 0.129343 6.75011 0.420794 7.5871C0.598346 8.07276 0.618615 8.5962 0.479084 9.09247C0.265354 9.86323 0.2524 10.6039 0.440224 11.2963C0.744628 12.3501 1.21095 13.1088 1.89748 13.6628C1.98168 13.7351 2.23427 13.9458 2.57105 13.9458C2.69398 13.9456 2.81544 13.921 2.92727 13.8735C3.17338 13.7652 3.45836 13.5303 3.41302 12.9884C3.39359 12.7837 3.36769 12.5849 3.34178 12.3802C3.30292 12.043 3.25758 11.6998 3.23168 11.3686C3.17338 10.64 3.34178 9.98366 3.7239 9.41161C3.93763 9.0985 4.17079 8.92387 4.37157 8.92387C4.57235 8.92387 4.79903 9.0985 4.99981 9.41161C5.37546 9.98968 5.55033 10.6822 5.55033 11.5914C5.54261 11.8117 5.51662 12.0311 5.47261 12.2477C5.41516 12.5175 5.3848 12.7917 5.38193 13.0667C5.40136 13.4942 5.59566 13.7832 5.94541 13.9157C6.12935 13.9959 6.33606 14.0193 6.53533 13.9825C6.7346 13.9456 6.91597 13.8505 7.05292 13.711C7.16856 13.6086 7.27272 13.4957 7.3638 13.3738V13.3617C8.45188 11.8082 8.85344 10.2486 8.60732 8.59871C8.52312 8.08086 8.56199 7.65333 8.71095 7.25591C8.86809 6.8539 9 6.44375 9.10603 6.02753C9.41043 4.79312 8.83401 3.79355 7.54515 3.34194H7.53867C7.34455 3.29189 7.14425 3.26557 6.94281 3.26366L7.09826 3.1372C7.20155 3.06005 7.27629 2.95477 7.31199 2.83613C7.40088 2.89569 7.50687 2.92924 7.61639 2.93247C7.76204 2.92574 7.90011 2.87011 8.00499 2.77591C8.37416 2.48086 8.75629 2.18581 9.12546 1.9028L9.61121 1.52344C9.72645 1.44458 9.82078 1.34229 9.88701 1.22436C9.95324 1.10643 9.9896 0.975998 9.99333 0.843011V0.812903L9.99981 0.806882ZM7.57105 8.53247C7.48064 8.03111 7.53198 7.5165 7.72002 7.03914C7.87546 6.61161 8.01794 6.18409 8.12805 5.74452C8.28349 5.14839 8.06328 4.72086 7.51924 4.40172C7.41561 4.34151 7.13712 4.2572 7.0853 4.07656C7.03349 3.89591 7.20188 3.70925 7.24074 3.63699C7.2796 3.56473 7.37028 3.60086 7.44152 3.62495C8.56199 4.01634 9.06717 4.8714 8.79515 5.95527C8.69435 6.36161 8.56673 6.76179 8.41302 7.15355C8.2252 7.64129 8.21224 8.12903 8.28997 8.64086C8.54256 10.3028 8.06976 11.8082 7.09826 13.1991C7.01604 13.3076 6.92278 13.4084 6.81976 13.5002C6.72827 13.5949 6.60632 13.6595 6.47209 13.6845C6.33786 13.7094 6.19855 13.6934 6.07494 13.6387C5.79644 13.5363 5.71872 13.3135 5.70577 13.0546C5.69281 12.5548 5.87416 12.0791 5.87416 11.5854C5.87416 10.7604 5.74463 9.96559 5.27831 9.24903C4.73427 8.41204 4.02183 8.40602 3.45188 9.24301C3.01794 9.89333 2.84955 10.6159 2.90784 11.3806C2.95318 11.9226 3.0309 12.4705 3.08919 13.0125C3.10862 13.2533 3.06328 13.4822 2.79126 13.5966C2.51924 13.711 2.29903 13.5966 2.11121 13.44C1.38582 12.8499 0.997219 12.0671 0.751105 11.2181C0.563281 10.5316 0.602141 9.83914 0.789965 9.16473C0.946964 8.61307 0.924425 8.0305 0.725198 7.49075C0.420794 6.61161 0.200587 5.71441 0.394887 4.77505C0.556805 3.99226 1.14618 3.53462 1.94929 3.55871C2.13064 3.56473 2.18893 3.6129 2.16302 3.78753C2.13712 3.96215 2.13712 4.2271 1.70965 4.24516C1.28219 4.26323 1.198 4.52215 1.1138 4.80516C0.952745 5.31586 0.964047 5.86019 1.14618 6.36473C1.59307 7.60516 1.63193 8.82151 1.37287 10.1101C1.18504 11.0555 1.63841 11.9286 2.30551 12.6692C2.31199 12.6933 2.31199 12.7355 2.35085 12.7114C2.38971 12.6873 2.35085 12.6632 2.35085 12.6331C2.24722 11.8202 2.10473 11.0013 2.30551 10.1824C2.46095 9.58022 2.69411 9.01419 3.15395 8.5385C3.90525 7.7557 4.94152 7.76774 5.641 8.59269C6.34048 9.41763 6.58012 10.5075 6.57364 11.5974C6.56717 12.0249 6.47649 12.4344 6.39877 12.9101C6.55585 12.7977 6.68047 12.6508 6.76147 12.4826C7.48686 11.2482 7.84955 9.94753 7.57105 8.53247ZM6.891 2.90237C5.37546 4.15484 4.04774 5.55785 3.07623 7.23183C2.50629 8.21333 2.0853 9.23699 1.87157 10.3389C1.85214 10.4353 1.86509 10.5557 1.70318 10.628C1.62546 10.351 1.72908 10.1161 1.7809 9.88129C2.28608 7.55699 3.54903 5.60602 5.22002 3.85979C5.64748 3.40817 6.10732 2.98065 6.58012 2.56516C6.71613 2.44473 6.7809 2.44473 6.91043 2.57118C7.03997 2.69763 7.04644 2.77591 6.891 2.90237ZM9.41691 1.28258C8.87287 1.70409 8.32882 2.11355 7.79774 2.54108C7.65525 2.65548 7.57753 2.64946 7.448 2.53505C6.80033 1.96903 6.78737 1.96301 7.448 1.40903C7.85603 1.06581 8.29644 0.752688 8.7239 0.433548C8.92468 0.283011 9.15784 0.252903 9.38452 0.379355C9.46761 0.426836 9.53737 0.492001 9.58804 0.569475C9.63872 0.64695 9.66886 0.734514 9.67597 0.824946C9.67207 0.914328 9.64679 1.00178 9.60197 1.08094C9.55716 1.1601 9.49394 1.22898 9.41691 1.28258Z" fill="#878687"/>
</g>
<defs>
<clipPath id="clip0_832_26731">
<rect width="10" height="14" fill="white"/>
</clipPath>
</defs>
</svg>
