<svg width="76" height="77" viewBox="0 0 76 77" fill="none" xmlns="http://www.w3.org/2000/svg">
<g filter="url(#filter0_d_324_9852)">
<rect x="6" y="6.5" width="60" height="60" rx="30" fill="white"/>
<g clip-path="url(#clip0_324_9852)">
<path d="M46.8027 35.4016C46.5262 36.3542 46.1728 37.3683 45.7118 38.5207C45.3901 39.3376 45.2284 40.2087 45.2355 41.0866V41.7626C45.2509 43.5296 45.2662 45.358 45.2201 47.1557C45.1433 49.1993 44.8821 50.8279 44.3904 52.2876C44.2061 52.81 43.9295 53.4553 43.3764 53.9624C43.0543 54.2887 42.6206 54.4808 42.1625 54.5002C41.8091 54.5002 41.3021 54.3772 40.8411 53.7166C40.3802 53.0559 39.9039 51.7652 39.6888 50.7665C39.5351 50.0597 39.3968 49.3222 39.2739 48.6C39.151 47.8779 39.0895 47.4938 38.9666 46.9406C38.7361 45.7729 38.3981 44.8817 37.8757 44.1749C37.6306 43.8301 37.3294 43.5289 36.9845 43.2838C36.777 43.1254 36.5235 43.039 36.2624 43.0379C35.9757 43.042 35.6971 43.1331 35.4634 43.2991C35.0178 43.5757 34.6644 43.9906 34.3264 44.6205C33.7118 45.8036 33.466 47.0635 33.3123 48.1391C33.1126 49.5834 32.836 51.1045 32.2522 52.5795C32.1005 52.9898 31.8937 53.3774 31.6376 53.7319C31.192 54.3772 30.6849 54.5002 30.3315 54.5002C29.8905 54.4857 29.4698 54.3109 29.1484 54.0085C28.6708 53.5356 28.3217 52.9485 28.1344 52.303C27.7195 51.1352 27.489 49.86 27.3661 48.1698C27.2739 46.9406 27.2739 45.0815 27.2739 44.1749V40.9944C27.305 40.1623 27.1529 39.3336 26.8283 38.5667C25.8911 36.3235 25.3533 34.4182 25.1075 32.5437C24.9576 31.5811 24.9628 30.6007 25.1228 29.6397C25.5377 27.3811 26.982 26.1058 29.2714 25.9521H30.0857C30.7157 25.9521 31.4532 26.0443 32.1292 26.705C32.8053 27.3657 33.6504 27.7191 34.8335 27.9189C35.2329 27.9803 35.6171 28.011 35.9858 28.0418C31.9909 32.7895 29.5326 37.6295 28.4724 42.8075C28.4558 42.927 28.4301 43.0452 28.3956 43.1609C28.2573 43.6833 28.1036 44.3286 28.288 45.0661C28.3184 45.1727 28.3711 45.2717 28.4426 45.3565C28.5142 45.4412 28.6029 45.5098 28.7029 45.5578C28.8064 45.6137 28.9233 45.6403 29.0409 45.6346C29.1515 45.6367 29.2614 45.6158 29.3635 45.5731C30.0703 45.2351 30.1472 44.6205 30.1933 44.3593V44.2671C30.6696 41.6705 31.5915 39.1506 32.9743 36.5693C34.9871 32.8356 37.7989 29.3785 41.5326 26.0136H42.8078C43.1782 26.0047 43.5486 26.0304 43.9141 26.0904C45.9423 26.4285 47.2022 27.8113 47.4481 29.9931C47.6939 32.1749 47.2329 33.9419 46.8027 35.4016Z" fill="#161616"/>
<path d="M29.0409 44.8509C28.8565 44.1595 29.1024 43.5449 29.2253 42.9457C30.4238 37.0302 33.4199 32.0519 37.3841 27.5808C38.3981 26.4284 39.5044 25.3528 40.6107 24.2927C40.9334 23.9854 41.1024 23.97 41.3943 24.308C41.6862 24.6461 41.717 24.8304 41.3482 25.1531C37.7528 28.349 34.6184 31.929 32.2983 36.1851C30.9444 38.6656 29.9805 41.3396 29.4404 44.1134C29.3943 44.3592 29.425 44.6665 29.0409 44.8509Z" fill="#161616"/>
<path d="M47.9704 19.8368C47.9551 20.3592 47.6939 20.7126 47.3405 21.0045C46.0652 22.0801 44.7592 23.1403 43.4992 24.2312C43.1612 24.5077 42.9768 24.5077 42.6695 24.2004C41.133 22.7561 41.1023 22.7408 42.6695 21.3272C43.6375 20.4514 44.6823 19.6524 45.6964 18.8381C46.1727 18.454 46.7259 18.3771 47.2636 18.6998C47.4672 18.8151 47.6385 18.9796 47.762 19.1782C47.8854 19.3769 47.9571 19.6033 47.9704 19.8368Z" fill="#161616"/>
</g>
</g>
<defs>
<filter id="filter0_d_324_9852" x="0" y="0.5" width="76" height="76" filterUnits="userSpaceOnUse" color-interpolation-filters="sRGB">
<feFlood flood-opacity="0" result="BackgroundImageFix"/>
<feColorMatrix in="SourceAlpha" type="matrix" values="0 0 0 0 0 0 0 0 0 0 0 0 0 0 0 0 0 0 127 0" result="hardAlpha"/>
<feOffset dx="2" dy="2"/>
<feGaussianBlur stdDeviation="4"/>
<feComposite in2="hardAlpha" operator="out"/>
<feColorMatrix type="matrix" values="0 0 0 0 0 0 0 0 0 0 0 0 0 0 0 0 0 0 0.04 0"/>
<feBlend mode="normal" in2="BackgroundImageFix" result="effect1_dropShadow_324_9852"/>
<feBlend mode="normal" in="SourceGraphic" in2="effect1_dropShadow_324_9852" result="shape"/>
</filter>
<clipPath id="clip0_324_9852">
<rect width="22.9706" height="36" fill="white" transform="translate(25 18.5)"/>
</clipPath>
</defs>
</svg>
