<svg width="76" height="77" viewBox="0 0 76 77" fill="none" xmlns="http://www.w3.org/2000/svg">
<g filter="url(#filter0_d_32_10023)">
<rect x="6" y="6.5" width="60" height="60" rx="30" fill="white"/>
<path d="M27.508 51.6428C27.1756 49.4582 26.7187 47.2574 27.3626 45.0566C27.8611 43.4384 28.6088 41.9173 30.0836 40.6389C32.493 38.5352 35.8164 38.5675 38.0597 40.7845C40.303 43.0015 41.0715 45.9305 41.0507 48.8595C41.0299 50.0084 40.7392 51.1088 40.4899 52.3872C40.9943 52.0856 41.3941 51.6907 41.6531 51.2383C43.9794 47.9209 45.1426 44.4255 44.2495 40.6227C43.9605 39.2753 44.1251 37.8925 44.7272 36.6095C45.2257 35.4605 45.6827 34.3116 46.0358 33.1303C46.5343 31.5282 45.8281 30.3793 44.0833 29.5216C43.751 29.3598 42.8578 29.1332 42.6916 28.6478C42.5255 28.1623 43.0655 27.6607 43.1901 27.4665C43.3148 27.2723 43.6056 27.3694 43.834 27.4341C47.4275 28.486 49.0476 30.7838 48.1752 33.6967C47.8462 34.7875 47.4371 35.8627 46.9497 36.9169C46.3474 38.2277 46.3058 39.5385 46.5551 40.914C47.3651 45.3803 45.8488 49.4259 42.7332 53.164C42.4703 53.4559 42.1712 53.7269 41.84 53.9731C41.5466 54.2275 41.1555 54.4012 40.725 54.4683C40.2946 54.5354 39.8478 54.4922 39.4513 54.3453C38.5582 54.0702 38.3089 53.4714 38.2674 52.7756C38.2258 51.4325 38.8074 50.1541 38.8074 48.8271C38.8074 46.6101 38.392 44.4741 36.8965 42.5484C35.1517 40.299 32.8669 40.2829 31.039 42.5322C29.6474 44.2799 29.1073 46.2218 29.2943 48.2769C29.4397 49.7333 29.6889 51.2059 29.8759 52.6623C29.9382 53.3096 29.7928 53.9246 28.9204 54.232C28.048 54.5395 27.3418 54.232 26.7394 53.8113C24.4131 52.2254 23.1668 50.1217 22.3775 47.84C21.7751 45.9952 21.8998 44.1343 22.5021 42.3218C23.0056 40.8393 22.9333 39.2737 22.2944 37.8231C21.3182 35.4605 20.6119 33.0494 21.2351 30.5249C21.7544 28.4212 23.6445 27.1914 26.2201 27.2561C26.8017 27.2723 26.9887 27.4017 26.9056 27.871C26.8225 28.3403 26.8225 29.0523 25.4516 29.1009C24.0807 29.1494 23.8107 29.8453 23.5407 30.6058C23.0228 31.9782 23.0591 33.4413 23.6445 34.7971C25.0777 38.1306 25.2024 41.3994 24.3715 44.8625C23.7692 47.4031 25.2231 49.7495 27.3626 51.7399C27.3833 51.8047 27.3833 51.9179 27.508 51.8532C27.6326 51.7885 27.508 51.7238 27.508 51.6428Z" fill="#161616"/>
<path d="M25.4314 46.2563C25.1822 45.5119 25.5145 44.8808 25.6807 44.2497C27.3008 38.0033 31.3512 32.7602 36.7101 28.0674C38.081 26.8537 39.5558 25.7047 41.0721 24.5882C41.5083 24.2645 41.716 24.2645 42.1314 24.6043C42.5468 24.9442 42.5676 25.1545 42.0691 25.4944C37.2086 28.8603 32.9506 32.6308 29.8349 37.1295C28.007 39.7672 26.6569 42.5182 25.9715 45.4795C25.9092 45.7384 25.9507 46.0621 25.4314 46.2563Z" fill="#161616"/>
<path d="M51 19.91C50.9904 20.1507 50.9106 20.3865 50.7667 20.5996C50.6227 20.8127 50.4184 20.9974 50.1691 21.1398C48.4243 22.2726 46.6796 23.373 44.9763 24.522C44.5194 24.8294 44.2701 24.8132 43.8547 24.5058C41.7776 22.9846 41.736 22.9685 43.8547 21.4797C45.1633 20.5573 46.5757 19.7158 47.9466 18.8581C48.5905 18.4536 49.3383 18.3727 50.0653 18.7125C50.3341 18.8381 50.5596 19.0127 50.7225 19.2213C50.8853 19.4299 50.9805 19.6663 51 19.91Z" fill="#161616"/>
</g>
<defs>
<filter id="filter0_d_32_10023" x="0" y="0.5" width="76" height="76" filterUnits="userSpaceOnUse" color-interpolation-filters="sRGB">
<feFlood flood-opacity="0" result="BackgroundImageFix"/>
<feColorMatrix in="SourceAlpha" type="matrix" values="0 0 0 0 0 0 0 0 0 0 0 0 0 0 0 0 0 0 127 0" result="hardAlpha"/>
<feOffset dx="2" dy="2"/>
<feGaussianBlur stdDeviation="4"/>
<feComposite in2="hardAlpha" operator="out"/>
<feColorMatrix type="matrix" values="0 0 0 0 0 0 0 0 0 0 0 0 0 0 0 0 0 0 0.04 0"/>
<feBlend mode="normal" in2="BackgroundImageFix" result="effect1_dropShadow_32_10023"/>
<feBlend mode="normal" in="SourceGraphic" in2="effect1_dropShadow_32_10023" result="shape"/>
</filter>
</defs>
</svg>
