<svg width="76" height="76" viewBox="0 0 76 76" fill="none" xmlns="http://www.w3.org/2000/svg">
<g filter="url(#filter0_d_324_9965)">
<rect x="6" y="6" width="60" height="60" rx="30" fill="#353434"/>
<g clip-path="url(#clip0_324_9965)">
<path d="M46.8028 34.9016C46.5262 35.8542 46.1728 36.8683 45.7119 38.0207C45.3902 38.8376 45.2285 39.7087 45.2356 40.5866V41.2626C45.2509 43.0296 45.2663 44.858 45.2202 46.6557C45.1434 48.6993 44.8822 50.3279 44.3905 51.7876C44.2061 52.31 43.9295 52.9553 43.3764 53.4624C43.0543 53.7887 42.6206 53.9808 42.1626 54.0002C41.8092 54.0002 41.3021 53.8772 40.8412 53.2166C40.3803 52.5559 39.9039 51.2652 39.6888 50.2665C39.5352 49.5597 39.3969 48.8222 39.274 48.1C39.1511 47.3779 39.0896 46.9938 38.9667 46.4406C38.7362 45.2729 38.3982 44.3817 37.8758 43.6749C37.6307 43.3301 37.3294 43.0289 36.9846 42.7838C36.7771 42.6254 36.5235 42.539 36.2625 42.5379C35.9758 42.542 35.6972 42.6331 35.4635 42.7991C35.0179 43.0757 34.6645 43.4906 34.3265 44.1205C33.7119 45.3036 33.466 46.5635 33.3124 47.6391C33.1126 49.0834 32.8361 50.6045 32.2522 52.0795C32.1005 52.4898 31.8938 52.8774 31.6376 53.2319C31.192 53.8772 30.685 54.0002 30.3316 54.0002C29.8905 53.9857 29.4699 53.8109 29.1485 53.5085C28.6708 53.0356 28.3218 52.4485 28.1344 51.803C27.7196 50.6352 27.4891 49.36 27.3662 47.6698C27.274 46.4406 27.274 44.5815 27.274 43.6749V40.4944C27.305 39.6623 27.1529 38.8336 26.8284 38.0667C25.8911 35.8235 25.3534 33.9182 25.1075 32.0437C24.9576 31.0811 24.9628 30.1007 25.1229 29.1397C25.5377 26.8811 26.982 25.6058 29.2714 25.4521H30.0858C30.7157 25.4521 31.4532 25.5443 32.1293 26.205C32.8053 26.8657 33.6504 27.2191 34.8335 27.4189C35.233 27.4803 35.6171 27.511 35.9859 27.5418C31.991 32.2895 29.5326 37.1295 28.4724 42.3075C28.4558 42.427 28.4301 42.5452 28.3956 42.6609C28.2573 43.1833 28.1037 43.8286 28.2881 44.5661C28.3185 44.6727 28.3712 44.7717 28.4427 44.8565C28.5142 44.9412 28.6029 45.0098 28.7029 45.0578C28.8065 45.1137 28.9234 45.1403 29.0409 45.1346C29.1516 45.1367 29.2615 45.1158 29.3636 45.0731C30.0704 44.7351 30.1472 44.1205 30.1933 43.8593V43.7671C30.6696 41.1705 31.5915 38.6506 32.9744 36.0693C34.9872 32.3356 37.7989 28.8785 41.5326 25.5136H42.8079C43.1783 25.5047 43.5486 25.5304 43.9142 25.5904C45.9424 25.9285 47.2023 27.3113 47.4481 29.4931C47.694 31.6749 47.233 33.4419 46.8028 34.9016Z" fill="white"/>
<path d="M29.041 44.3509C28.8566 43.6595 29.1024 43.0449 29.2253 42.4457C30.4238 36.5302 33.42 31.5519 37.3841 27.0808C38.3982 25.9284 39.5045 24.8528 40.6108 23.7927C40.9334 23.4854 41.1024 23.47 41.3944 23.808C41.6863 24.1461 41.717 24.3304 41.3483 24.6531C37.7529 27.849 34.6184 31.429 32.2983 35.6851C30.9445 38.1656 29.9806 40.8396 29.4405 43.6134C29.3944 43.8592 29.4251 44.1665 29.041 44.3509Z" fill="white"/>
<path d="M47.9706 19.3368C47.9552 19.8592 47.694 20.2126 47.3406 20.5045C46.0653 21.5801 44.7593 22.6403 43.4994 23.7312C43.1613 24.0077 42.977 24.0077 42.6697 23.7004C41.1332 22.2561 41.1024 22.2408 42.6697 20.8272C43.6376 19.9514 44.6825 19.1524 45.6965 18.3381C46.1729 17.954 46.726 17.8771 47.2638 18.1998C47.4673 18.3151 47.6386 18.4796 47.7621 18.6782C47.8856 18.8769 47.9572 19.1033 47.9706 19.3368Z" fill="white"/>
</g>
</g>
<defs>
<filter id="filter0_d_324_9965" x="0" y="0" width="76" height="76" filterUnits="userSpaceOnUse" color-interpolation-filters="sRGB">
<feFlood flood-opacity="0" result="BackgroundImageFix"/>
<feColorMatrix in="SourceAlpha" type="matrix" values="0 0 0 0 0 0 0 0 0 0 0 0 0 0 0 0 0 0 127 0" result="hardAlpha"/>
<feOffset dx="2" dy="2"/>
<feGaussianBlur stdDeviation="4"/>
<feComposite in2="hardAlpha" operator="out"/>
<feColorMatrix type="matrix" values="0 0 0 0 0 0 0 0 0 0 0 0 0 0 0 0 0 0 0.04 0"/>
<feBlend mode="normal" in2="BackgroundImageFix" result="effect1_dropShadow_324_9965"/>
<feBlend mode="normal" in="SourceGraphic" in2="effect1_dropShadow_324_9965" result="shape"/>
</filter>
<clipPath id="clip0_324_9965">
<rect width="22.9706" height="36" fill="white" transform="translate(25 18)"/>
</clipPath>
</defs>
</svg>
