<svg width="24" height="24" viewBox="0 0 24 24" fill="none" xmlns="http://www.w3.org/2000/svg">
<g clip-path="url(#clip0_1415_5542)">
<path d="M21.0006 1.38323C20.9835 1.14421 20.9015 0.912384 20.7614 0.707494C20.6214 0.502603 20.4275 0.330711 20.1962 0.206452C19.9459 0.0738193 19.6602 0.00256373 19.3685 0C18.9921 0.00376633 18.629 0.12431 18.3426 0.340645L17.818 0.701935C17.2234 1.12516 16.6056 1.56903 16.0227 2.03355C15.4398 2.49806 14.9501 2.89032 14.9385 3.36516C14.9388 3.49355 14.9707 3.62033 15.0317 3.73677C14.8064 3.77283 14.6013 3.87457 14.4488 4.02581C13.7727 4.58323 13.1898 5.09935 12.6768 5.58452H6.40478C4.72602 5.58452 3.47861 6.54452 3.14053 8.0929C2.75582 9.86839 3.23379 11.5716 3.75841 13.0065C4.078 13.839 4.11448 14.7363 3.86333 15.5871C3.47861 16.9084 3.4553 18.1781 3.79338 19.3652C4.34131 21.1716 5.18069 22.4723 6.41644 23.4219C6.56799 23.5458 7.02266 23.9071 7.62887 23.9071C7.85014 23.9068 8.06876 23.8646 8.27006 23.7832C8.71307 23.5974 9.22602 23.1948 9.14442 22.2658C9.10944 21.9148 9.06281 21.5742 9.01618 21.2232C8.94623 20.6452 8.86462 20.0568 8.81799 19.489C8.71307 18.24 9.01618 17.1148 9.704 16.1342C10.0887 15.5974 10.5084 15.2981 10.8698 15.2981C11.2312 15.2981 11.6392 15.5974 12.0006 16.1342C12.6768 17.1252 12.9916 18.3123 12.9916 19.871C12.9777 20.2486 12.9309 20.6248 12.8517 20.9961C12.7483 21.4586 12.6936 21.9286 12.6885 22.4C12.7234 23.1329 13.0732 23.6284 13.7027 23.8555C14.0338 23.993 14.4059 24.0331 14.7646 23.9699C15.1233 23.9068 15.4497 23.7437 15.6962 23.5045C15.9044 23.3291 16.0919 23.1354 16.2558 22.9265V22.9058C18.2144 20.2426 18.9372 17.569 18.4942 14.7406C18.3426 13.8529 18.4126 13.12 18.6807 12.4387C18.9635 11.7495 19.201 11.0464 19.3918 10.3329C19.9398 8.21677 18.9022 6.50323 16.5822 5.72903H16.5706C16.2212 5.64324 15.8606 5.59813 15.498 5.59484L15.7778 5.37806C15.9638 5.2458 16.0983 5.06532 16.1626 4.86194C16.3226 4.96405 16.5133 5.02155 16.7105 5.0271C16.9726 5.01556 17.2212 4.9202 17.41 4.75871C18.0745 4.2529 18.7623 3.7471 19.4268 3.26194L20.3012 2.61161C20.5086 2.47643 20.6784 2.30106 20.7976 2.0989C20.9168 1.89675 20.9823 1.67314 20.989 1.44516V1.39355L21.0006 1.38323ZM16.6289 14.6271C16.4661 13.7676 16.5585 12.8854 16.897 12.0671C17.1768 11.3342 17.4333 10.6013 17.6315 9.84774C17.9113 8.82581 17.5149 8.0929 16.5356 7.54581C16.3491 7.44258 15.8478 7.29806 15.7545 6.98839C15.6613 6.67871 15.9644 6.35871 16.0343 6.23484C16.1043 6.11097 16.2675 6.1729 16.3957 6.21419C18.4126 6.88516 19.3219 8.35097 18.8322 10.209C18.6508 10.9056 18.4211 11.5916 18.1444 12.2632C17.8063 13.0994 17.783 13.9355 17.9229 14.8129C18.3776 17.6619 17.5265 20.2426 15.7778 22.6271C15.6298 22.813 15.462 22.9858 15.2765 23.1432C15.1119 23.3055 14.8924 23.4163 14.6507 23.4591C14.4091 23.5019 14.1584 23.4744 13.9359 23.3806C13.4346 23.2052 13.2947 22.8232 13.2714 22.3794C13.248 21.5226 13.5745 20.7071 13.5745 19.8606C13.5745 18.4465 13.3413 17.0839 12.5019 15.8555C11.5227 14.4206 10.2403 14.4103 9.21437 15.8452C8.43328 16.96 8.13017 18.1987 8.23509 19.5097C8.3167 20.4387 8.45659 21.3781 8.56152 22.3071C8.59649 22.72 8.51488 23.1123 8.02525 23.3084C7.53561 23.5045 7.13924 23.3084 6.80115 23.04C5.49545 22.0284 4.79597 20.6865 4.35297 19.231C4.01488 18.0542 4.08483 16.8671 4.42291 15.711C4.70551 14.7653 4.66494 13.7666 4.30633 12.8413C3.75841 11.3342 3.36203 9.79613 3.71177 8.18581C4.00322 6.84387 5.06411 6.05935 6.5097 6.10065C6.83613 6.11097 6.94105 6.19355 6.89442 6.4929C6.84778 6.79226 6.84778 7.24645 6.07835 7.27742C5.30892 7.30839 5.15737 7.75226 5.00582 8.23742C4.71592 9.1129 4.73626 10.046 5.06411 10.911C5.86851 13.0374 5.93846 15.1226 5.47214 17.3316C5.13405 18.9523 5.95012 20.449 7.15089 21.7187C7.16255 21.76 7.16255 21.8323 7.2325 21.791C7.30245 21.7497 7.2325 21.7084 7.2325 21.6568C7.04597 20.2632 6.78949 18.8594 7.15089 17.4555C7.43069 16.4232 7.85038 15.4529 8.6781 14.6374C10.0304 13.2955 11.8957 13.3161 13.1548 14.7303C14.4138 16.1445 14.8452 18.0129 14.8335 19.8813C14.8219 20.6142 14.6587 21.3161 14.5188 22.1316C14.8015 21.9389 15.0258 21.6871 15.1716 21.3987C16.4773 19.2826 17.1302 17.0529 16.6289 14.6271ZM15.4048 4.97548C12.6768 7.12258 10.2869 9.52774 8.5382 12.3974C7.51229 14.08 6.75452 15.8348 6.36981 17.7239C6.33483 17.889 6.35815 18.0955 6.0667 18.2194C5.9268 17.7445 6.11333 17.3419 6.20659 16.9394C7.11592 12.9548 9.38924 9.61032 12.397 6.61677C13.1664 5.84258 13.9942 5.10968 14.8452 4.39742C15.09 4.19097 15.2066 4.19097 15.4398 4.40774C15.6729 4.62452 15.6846 4.75871 15.4048 4.97548ZM19.9514 2.19871C18.9721 2.92129 17.9929 3.62323 17.0369 4.35613C16.7804 4.55226 16.6405 4.54194 16.4074 4.34581C15.2416 3.37548 15.2183 3.36516 16.4074 2.41548C17.1418 1.8271 17.9346 1.29032 18.704 0.743226C19.0654 0.485161 19.4851 0.433548 19.8931 0.650323C20.0427 0.73172 20.1682 0.843431 20.2595 0.976244C20.3507 1.10906 20.4049 1.25917 20.4177 1.41419C20.4107 1.56742 20.3652 1.71733 20.2845 1.85304C20.2039 1.98874 20.0901 2.10682 19.9514 2.19871Z" fill="#878687"/>
</g>
<defs>
<clipPath id="clip0_1415_5542">
<rect width="18" height="24" fill="white" transform="translate(3)"/>
</clipPath>
</defs>
</svg>
