<svg width="24" height="24" viewBox="0 0 24 24" fill="none" xmlns="http://www.w3.org/2000/svg">
<path d="M22.6783 13.8655L20.7572 11.7093C20.6253 11.5636 20.4591 11.4839 20.2875 11.4839C20.1159 11.4839 19.9498 11.5636 19.8178 11.7093C19.6665 11.8758 19.5705 12.1146 19.5507 12.3742C19.5309 12.6338 19.5888 12.8933 19.7119 13.0968L21.3364 15.6468L21.3858 15.7124C21.473 15.8339 21.5784 15.93 21.6951 15.9946C21.8118 16.0592 21.9374 16.0908 22.0639 16.0874C22.1883 16.088 22.3116 16.056 22.4268 15.9933C22.5419 15.9305 22.6466 15.8383 22.7348 15.7218L22.7843 15.6468C22.8672 15.5222 22.93 15.3764 22.9688 15.2184C23.0077 15.0604 23.0218 14.8935 23.0103 14.728C23.0015 14.562 22.9676 14.4001 22.9105 14.2519C22.8535 14.1037 22.7745 13.9723 22.6783 13.8655Z" fill="white"/>
<path d="M17.946 2.68125C17.2769 1.80188 16.3733 1.30859 15.4316 1.30859C14.49 1.30859 13.5864 1.80188 12.9172 2.68125C11.886 4.0125 11.5964 5.97188 12.1544 7.79063C12.7124 9.60938 13.9484 10.7438 15.3822 10.7438H15.4881C16.9148 10.7438 18.1509 9.60938 18.7088 7.78125C19.2668 5.95313 18.9702 4.00313 17.946 2.68125ZM17.7695 5.94375C17.7342 6.12188 17.6353 6.21563 17.4799 6.24375C17.4041 6.24166 17.3316 6.20202 17.2768 6.13263C17.2219 6.06325 17.1885 5.96912 17.1832 5.86875C17.1478 5.25357 16.9392 4.67863 16.5989 4.25827C16.2587 3.83791 15.8117 3.60291 15.3469 3.6C15.2669 3.59799 15.1908 3.5542 15.135 3.47813C15.0833 3.4028 15.0512 3.30754 15.0432 3.20625C15.0643 3.01875 15.1279 2.775 15.4811 2.775C16.0249 2.775 16.8583 3.36563 17.0702 3.73125L17.0844 3.75C17.3881 4.09688 17.9037 5.3625 17.7695 5.94375Z" fill="white"/>
<path d="M23.5338 13.1625H23.5267L23.3219 12.8906L21.3867 10.7344C21.0784 10.3893 20.6881 10.2 20.2848 10.2C20.0643 10.1997 19.8459 10.2571 19.6421 10.3687L19.07 9.61875C20.0659 7.88437 20.2425 5.56875 19.5291 3.50625C18.8157 1.44375 17.2266 0 15.4891 0H15.4255C14.4753 0.00339843 13.5494 0.399918 12.7769 1.13437C12.5219 1.08575 12.2646 1.06069 12.007 1.05937H11.9858C10.8837 1.06274 9.81238 1.5433 8.93463 2.42812C8.87107 2.48437 8.74393 2.59687 8.65918 2.59687C8.57442 2.59687 8.4261 2.5125 8.22127 2.31562H8.21421C7.22539 1.4625 6.20832 1.03125 5.19832 1.03125C3.72216 1.03125 2.3025 1.97812 1.29955 3.61875C0.388271 5.08093 -0.073369 6.94598 0.00702864 8.84062C0.0817933 10.7358 0.701101 12.5208 1.73746 13.8281H1.74452C2.00457 14.1344 2.20989 14.5138 2.34551 14.9387C2.48113 15.3636 2.54365 15.8233 2.52851 16.2844V16.3031C2.52851 19.3031 3.52439 22.1062 5.13475 23.6062C5.37058 23.8444 5.65776 23.9759 5.95406 23.9812H5.97525C6.1789 23.9731 6.37915 23.9098 6.56375 23.7954C6.74834 23.6809 6.9134 23.5177 7.04882 23.3156C7.22036 23.0679 7.35205 22.7764 7.43585 22.4588C7.51964 22.1413 7.55377 21.8044 7.53616 21.4687C7.48777 19.7678 7.68928 18.0706 8.12945 16.4719C8.30603 15.8531 8.51792 15.4594 8.63799 15.3187L8.73687 15.4969C9.62681 17.3437 9.72569 19.7531 9.72569 21.4031C9.70582 21.7447 9.73744 22.0881 9.81869 22.4132C9.89994 22.7384 10.0292 23.0388 10.1989 23.2969C10.4956 23.7469 10.877 23.9906 11.2725 23.9906H11.2795C11.5713 23.9843 11.8547 23.8601 12.0918 23.6344H12.0988C12.9453 22.7873 13.6258 21.6825 14.0831 20.4131C14.5404 19.1437 14.761 17.7469 14.7263 16.3406C14.7185 15.8781 14.7844 15.4186 14.9194 14.9922C15.0545 14.5657 15.2559 14.1818 15.5103 13.8656H15.5173C15.9757 13.2701 16.3617 12.5838 16.6615 11.8312C17.1902 11.6265 17.6875 11.2997 18.1306 10.8656L18.6957 11.6156C18.5762 11.9993 18.5387 12.4193 18.5873 12.8295C18.6359 13.2396 18.7687 13.6241 18.9711 13.9406L20.5956 16.4906C20.7754 16.7727 20.9993 16.9994 21.2518 17.1548C21.5043 17.3103 21.7793 17.3907 22.0576 17.3906H22.0788C22.5403 17.3915 22.9866 17.1718 23.336 16.7719C23.7207 16.3283 23.9574 15.7006 23.9945 15.026C24.0315 14.3515 23.8659 13.6849 23.5338 13.1719V13.1625ZM23.103 16.4062C22.815 16.7376 22.4457 16.9176 22.0647 16.9125C21.8367 16.9127 21.6113 16.8474 21.4041 16.7212C21.1969 16.595 21.0126 16.4108 20.864 16.1812L19.2395 13.6312C19.0662 13.3516 18.9589 13.0102 18.9313 12.6499C18.9036 12.2896 18.9568 11.9265 19.0841 11.6062C19.0972 11.5805 19.103 11.5493 19.1004 11.5184C19.0978 11.4875 19.087 11.4588 19.07 11.4375L18.2295 10.3219C18.2191 10.309 18.2069 10.2991 18.1935 10.2927C18.1802 10.2862 18.166 10.2834 18.1518 10.2844C18.1268 10.2848 18.1023 10.2946 18.0812 10.3125C17.6094 10.8295 17.0569 11.2009 16.4638 11.4C16.4487 11.4054 16.4347 11.4148 16.4226 11.4277C16.4104 11.4406 16.4004 11.4567 16.3931 11.475C16.107 12.2343 15.7274 12.9251 15.2701 13.5187C14.9803 13.8817 14.7508 14.3211 14.5963 14.8086C14.4418 15.2962 14.3658 15.8212 14.3731 16.35C14.4061 17.6818 14.1975 19.0047 13.7648 20.2071C13.3322 21.4095 12.6881 22.4564 11.887 23.2594C11.7073 23.4297 11.4932 23.5244 11.2725 23.5312C10.9758 23.5312 10.6933 23.3437 10.4673 22.9969C10.327 22.7836 10.2204 22.5352 10.1537 22.2663C10.0869 21.9974 10.0615 21.7134 10.0788 21.4312V21.4125C10.0788 19.7062 9.97289 17.2125 9.03351 15.2531C8.89226 14.9625 8.76512 14.8219 8.65211 14.8219H8.62386C8.37666 14.8594 8.02351 15.5062 7.79749 16.3219C7.34389 17.9784 7.13526 19.7355 7.18301 21.4969C7.19741 21.7723 7.1698 22.0488 7.10184 22.3097C7.03388 22.5707 6.92697 22.8108 6.78749 23.0156C6.6829 23.1701 6.55568 23.2947 6.41359 23.3817C6.27151 23.4688 6.11755 23.5165 5.96112 23.5219C5.73681 23.5172 5.51932 23.4188 5.33958 23.2406C3.82104 21.8156 2.88166 19.1531 2.88166 16.3125C2.89877 15.7825 2.82648 15.2541 2.67007 14.7658C2.51366 14.2776 2.27708 13.842 1.9776 13.4906C1.01363 12.255 0.436073 10.5823 0.360142 8.80641C0.284212 7.0305 0.715494 5.28187 1.56795 3.90937C2.50732 2.37187 3.8281 1.49062 5.19832 1.49062C6.13769 1.49062 7.08413 1.89375 8.01645 2.7C8.2919 2.95312 8.4826 3.06562 8.65918 3.06562C8.83575 3.06562 8.9982 2.93437 9.13946 2.80312C9.66041 2.28188 10.2564 1.90809 10.8906 1.70491C11.5248 1.50172 12.1836 1.47346 12.8263 1.62187H12.8475C12.8597 1.62344 12.8719 1.6208 12.883 1.61423C12.8942 1.60766 12.9038 1.59738 12.9111 1.58437C13.6366 0.862132 14.5186 0.470775 15.4255 0.46875H15.4891C17.0853 0.46875 18.512 1.70625 19.2042 3.69375C19.8964 5.68125 19.6915 7.92187 18.6604 9.54375C18.6458 9.57341 18.6387 9.60837 18.64 9.6437C18.6412 9.67902 18.6508 9.71293 18.6674 9.74062L19.5079 10.8469C19.5282 10.8754 19.5561 10.8922 19.5856 10.8937L19.635 10.875C19.8758 10.7035 20.1498 10.6316 20.4216 10.6683C20.6935 10.7051 20.9508 10.8489 21.1606 11.0812L23.0818 13.2281L23.2654 13.4719C23.5369 13.8897 23.6723 14.4335 23.6418 14.9837C23.6114 15.5339 23.4175 16.0456 23.103 16.4062Z" fill="white"/>
<path d="M15.4264 11.5782C14.6412 11.5751 13.8724 11.279 13.2079 10.7238C12.5434 10.1686 12.0098 9.37655 11.6681 8.43814C11.3264 7.49973 11.1903 6.45271 11.2754 5.41657C11.3604 4.38043 11.6632 3.3969 12.1492 2.57822C12.1629 2.5582 12.1716 2.53304 12.1742 2.50619C12.1767 2.47934 12.1729 2.45211 12.1633 2.42822C12.1558 2.40197 12.1422 2.3796 12.1244 2.36441C12.1066 2.34923 12.0856 2.34202 12.0644 2.34385H11.9726C11.0808 2.34507 10.2143 2.73726 9.50765 3.45947C9.21101 3.7501 8.93555 3.9001 8.65303 3.9001C8.37051 3.9001 8.02442 3.73135 7.66421 3.38447C6.85903 2.68135 6.03266 2.33447 5.21336 2.33447C4.01265 2.33447 2.86845 3.09385 2.05621 4.4251C1.3062 5.64301 0.927163 7.1897 0.993841 8.76022C1.06052 10.3307 1.56807 11.8111 2.41642 12.9095C2.77483 13.34 3.05792 13.8694 3.24583 14.4605C3.43373 15.0516 3.52189 15.6902 3.50412 16.3313C3.49688 16.7207 3.51817 17.11 3.56768 17.4938C3.64835 18.4921 3.88012 19.4584 4.24909 20.3347C4.61805 21.2111 5.11661 21.9795 5.71483 22.5938C5.79025 22.6603 5.8786 22.6961 5.9691 22.697C6.04908 22.6993 6.12776 22.6699 6.19511 22.6126C6.38581 22.4438 6.56239 22.2001 6.56239 21.5063C6.54826 19.1345 6.95085 14.522 8.56121 14.0063H8.61065C8.80589 14.0095 8.99674 14.0837 9.16238 14.2209C9.32802 14.3581 9.46211 14.5531 9.55003 14.7845V14.8032C10.5742 16.9501 10.6942 19.6126 10.6942 21.422C10.6872 21.8907 10.7719 22.2845 10.9344 22.5001C10.976 22.5592 11.0263 22.6064 11.0822 22.6386C11.138 22.6709 11.1983 22.6875 11.2593 22.6876C11.3426 22.6873 11.4247 22.6617 11.4994 22.6126L11.5135 22.5938C12.2342 21.8659 12.8125 20.9188 13.1997 19.8321C13.5869 18.7455 13.7716 17.5513 13.7384 16.3501C13.7329 15.7134 13.826 15.082 14.0118 14.495C14.1977 13.908 14.4725 13.3779 14.819 12.9376C15.09 12.6001 15.3252 12.2153 15.5182 11.7938C15.5289 11.7714 15.5346 11.7454 15.5346 11.7188C15.5346 11.6923 15.5289 11.6663 15.5182 11.6438C15.5076 11.6244 15.4939 11.6085 15.478 11.5971C15.4621 11.5858 15.4445 11.5793 15.4264 11.5782Z" fill="white"/>
</svg>
