<svg width="14" height="14" viewBox="0 0 14 14" fill="none" xmlns="http://www.w3.org/2000/svg">
<g clip-path="url(#clip0_832_26808)">
<path d="M13.23 7.93275L12.1093 6.85463C12.0324 6.78181 11.9355 6.74194 11.8354 6.74194C11.7353 6.74194 11.6383 6.78181 11.5614 6.85463C11.4731 6.93788 11.4171 7.0573 11.4055 7.1871C11.394 7.3169 11.4278 7.44666 11.4996 7.54838L12.4472 8.82338L12.476 8.85619C12.5269 8.91696 12.5884 8.96502 12.6565 8.9973C12.7245 9.02958 12.7978 9.04538 12.8716 9.04369C12.9442 9.04399 13.0161 9.028 13.0833 8.99663C13.1504 8.96527 13.2115 8.91913 13.263 8.86088L13.2918 8.82338C13.3402 8.76108 13.3768 8.68819 13.3995 8.60919C13.4221 8.53019 13.4304 8.44675 13.4236 8.364C13.4185 8.281 13.3987 8.20003 13.3654 8.12593C13.3322 8.05183 13.2861 7.98613 13.23 7.93275Z" fill="#878687"/>
<path d="M10.4692 2.34063C10.0788 1.90094 9.55173 1.6543 9.00243 1.6543C8.45314 1.6543 7.92604 1.90094 7.53569 2.34063C6.93415 3.00625 6.76523 3.98594 7.09072 4.89531C7.4162 5.80469 8.13722 6.37188 8.97359 6.37188H9.03539C9.86765 6.37188 10.5887 5.80469 10.9141 4.89063C11.2396 3.97656 11.0666 3.00156 10.4692 2.34063ZM10.3662 3.97188C10.3456 4.06094 10.2879 4.10781 10.1973 4.12188C10.153 4.12083 10.1108 4.10101 10.0788 4.06632C10.0467 4.03162 10.0273 3.98456 10.0242 3.93438C10.0035 3.62678 9.88183 3.33932 9.68335 3.12914C9.48487 2.91896 9.22414 2.80146 8.95299 2.8C8.90634 2.799 8.86193 2.7771 8.82939 2.73906C8.79926 2.7014 8.7805 2.65377 8.77583 2.60313C8.78819 2.50938 8.82527 2.3875 9.03127 2.3875C9.34852 2.3875 9.83468 2.68281 9.95829 2.86563L9.96653 2.875C10.1437 3.04844 10.4445 3.68125 10.3662 3.97188Z" fill="#878687"/>
<path d="M13.7282 7.58125H13.7241L13.6046 7.44531L12.4757 6.36719C12.2959 6.19465 12.0682 6.10001 11.833 6.1C11.7044 6.09988 11.577 6.12854 11.4581 6.18438L11.1243 5.80938C11.7053 4.94219 11.8083 3.78438 11.3921 2.75313C10.976 1.72188 10.049 1 9.03546 1H8.99838C8.44406 1.0017 7.904 1.19996 7.45335 1.56719C7.3046 1.54288 7.15454 1.53035 7.00426 1.52969H6.9919C6.34896 1.53137 5.72405 1.77165 5.21203 2.21406C5.17495 2.24219 5.10079 2.29844 5.05135 2.29844C5.00191 2.29844 4.91539 2.25625 4.79591 2.15781H4.79179C4.21498 1.73125 3.62169 1.51563 3.03251 1.51563C2.17142 1.51563 1.34329 1.98906 0.758236 2.80938C0.226654 3.54046 -0.0426358 4.47299 0.0042628 5.42031C0.0478755 6.36789 0.409138 7.26039 1.01368 7.91406H1.0178C1.1695 8.0672 1.28926 8.25691 1.36838 8.46936C1.44749 8.68182 1.48396 8.91167 1.47513 9.14219V9.15156C1.47513 10.6516 2.05606 12.0531 2.99543 12.8031C3.133 12.9222 3.30052 12.9879 3.47336 12.9906H3.48572C3.60452 12.9865 3.72133 12.9549 3.82901 12.8977C3.9367 12.8405 4.03298 12.7588 4.11197 12.6578C4.21204 12.534 4.28886 12.3882 4.33774 12.2294C4.38662 12.0706 4.40653 11.9022 4.39626 11.7344C4.36803 10.8839 4.48558 10.0353 4.74234 9.23594C4.84535 8.92656 4.96895 8.72969 5.03899 8.65938L5.09667 8.74844C5.6158 9.67188 5.67348 10.8766 5.67348 11.7016C5.66189 11.8723 5.68033 12.044 5.72773 12.2066C5.77513 12.3692 5.85053 12.5194 5.94952 12.6484C6.12257 12.8734 6.34505 12.9953 6.57578 12.9953H6.5799C6.75008 12.9922 6.91538 12.93 7.0537 12.8172H7.05782C7.55157 12.3936 7.94855 11.8412 8.2153 11.2065C8.48204 10.5718 8.61072 9.87346 8.59049 9.17031C8.58598 8.93906 8.62437 8.70932 8.70318 8.49608C8.78198 8.28285 8.89941 8.09092 9.04782 7.93281H9.05194C9.31932 7.63506 9.54448 7.29192 9.71939 6.91563C10.0278 6.81327 10.3179 6.64983 10.5764 6.43281L10.906 6.80781C10.8363 6.99967 10.8144 7.20967 10.8428 7.41475C10.8711 7.61982 10.9486 7.81205 11.0667 7.97031L12.0143 9.24531C12.1191 9.38636 12.2497 9.49969 12.397 9.57741C12.5443 9.65513 12.7048 9.69537 12.8671 9.69531H12.8795C13.1487 9.69574 13.409 9.58592 13.6129 9.38594C13.8372 9.16413 13.9753 8.8503 13.9969 8.51302C14.0185 8.17573 13.9219 7.84243 13.7282 7.58594V7.58125ZM13.4769 9.20313C13.3089 9.36878 13.0935 9.45881 12.8712 9.45625C12.7382 9.45633 12.6068 9.4237 12.4859 9.36059C12.365 9.29748 12.2575 9.20539 12.1708 9.09063L11.2232 7.81563C11.1221 7.6758 11.0595 7.5051 11.0434 7.32496C11.0273 7.14482 11.0583 6.96327 11.1326 6.80313C11.1402 6.79023 11.1436 6.77467 11.1421 6.75922C11.1406 6.74377 11.1343 6.72942 11.1243 6.71875L10.634 6.16094C10.628 6.15452 10.6208 6.14955 10.6131 6.14633C10.6053 6.14311 10.597 6.1417 10.5887 6.14219C10.5741 6.14241 10.5598 6.14728 10.5475 6.15625C10.2723 6.41474 9.95003 6.60046 9.60403 6.7C9.59526 6.70269 9.58708 6.7074 9.57999 6.71386C9.5729 6.72031 9.56705 6.72836 9.56283 6.7375C9.39588 7.11717 9.17449 7.46253 8.90774 7.75938C8.73866 7.94086 8.60479 8.16053 8.51468 8.40431C8.42457 8.64808 8.38023 8.91059 8.38449 9.175C8.40373 9.84091 8.28203 10.5023 8.02964 11.1036C7.77725 11.7048 7.40156 12.2282 6.93422 12.6297C6.82941 12.7148 6.70453 12.7622 6.57578 12.7656C6.40273 12.7656 6.23793 12.6719 6.10609 12.4984C6.02426 12.3918 5.96205 12.2676 5.92313 12.1331C5.88421 11.9987 5.86937 11.8567 5.87948 11.7156V11.7063C5.87948 10.8531 5.81768 9.60625 5.26971 8.62656C5.18731 8.48125 5.11315 8.41094 5.04723 8.41094H5.03075C4.88655 8.42969 4.68054 8.75313 4.5487 9.16094C4.2841 9.98919 4.1624 10.8677 4.19025 11.7484C4.19865 11.8862 4.18255 12.0244 4.1429 12.1549C4.10326 12.2854 4.04089 12.4054 3.95953 12.5078C3.89852 12.5851 3.82431 12.6474 3.74143 12.6909C3.65854 12.7344 3.56873 12.7582 3.47748 12.7609C3.34664 12.7586 3.21976 12.7094 3.11492 12.6203C2.2291 11.9078 1.68113 10.5766 1.68113 9.15625C1.69111 8.89123 1.64895 8.62703 1.55771 8.38292C1.46647 8.13882 1.32846 7.92098 1.15376 7.74531C0.591449 7.12748 0.254539 6.29116 0.210246 5.40321C0.165953 4.51525 0.417534 3.64093 0.914798 2.95469C1.46277 2.18594 2.23322 1.74531 3.03251 1.74531C3.58048 1.74531 4.13257 1.94688 4.67642 2.35C4.83711 2.47656 4.94835 2.53281 5.05135 2.53281C5.15435 2.53281 5.24911 2.46719 5.33151 2.40156C5.6354 2.14094 5.98307 1.95405 6.35301 1.85245C6.72294 1.75086 7.10726 1.73673 7.48219 1.81094H7.49455C7.50163 1.81172 7.50876 1.8104 7.51526 1.80712C7.52176 1.80383 7.5274 1.79869 7.53163 1.79219C7.95484 1.43107 8.46937 1.23539 8.99838 1.23438H9.03546C9.96659 1.23438 10.7988 1.85313 11.2026 2.84688C11.6064 3.84063 11.4869 4.96094 10.8854 5.77188C10.8769 5.78671 10.8727 5.80419 10.8735 5.82185C10.8742 5.83951 10.8798 5.85647 10.8895 5.87031L11.3798 6.42344C11.3916 6.43769 11.4079 6.4461 11.4251 6.44688L11.4539 6.4375C11.5944 6.35177 11.7542 6.31578 11.9128 6.33416C12.0714 6.35253 12.2215 6.42444 12.3439 6.54063L13.4645 7.61406L13.5717 7.73594C13.73 7.94484 13.809 8.21673 13.7912 8.49185C13.7735 8.76697 13.6604 9.02281 13.4769 9.20313Z" fill="#878687"/>
<path d="M8.99858 6.78911C8.54053 6.78754 8.0921 6.6395 7.70445 6.36189C7.3168 6.08428 7.00555 5.68827 6.80622 5.21907C6.60689 4.74986 6.5275 4.22636 6.57713 3.70829C6.62675 3.19022 6.80339 2.69845 7.08687 2.28911C7.09487 2.2791 7.09996 2.26652 7.10144 2.2531C7.10291 2.23967 7.1007 2.22605 7.09511 2.21411C7.09073 2.20098 7.08276 2.1898 7.07238 2.18221C7.062 2.17461 7.04975 2.17101 7.03743 2.17192H6.98387C6.46364 2.17253 5.95816 2.36863 5.54597 2.72974C5.37292 2.87505 5.21224 2.95005 5.04744 2.95005C4.88264 2.95005 4.68075 2.86567 4.47063 2.69224C4.00094 2.34067 3.51889 2.16724 3.04096 2.16724C2.34055 2.16724 1.6731 2.54692 1.19929 3.21255C0.761785 3.8215 0.540682 4.59485 0.579578 5.38011C0.618473 6.16537 0.914544 6.90556 1.40942 7.45474C1.61849 7.66998 1.78363 7.93468 1.89324 8.23024C2.00285 8.52581 2.05427 8.84509 2.04391 9.16567C2.03968 9.36033 2.0521 9.555 2.08099 9.74692C2.12804 10.246 2.26324 10.7292 2.47847 11.1674C2.6937 11.6056 2.98453 11.9898 3.33349 12.2969C3.37748 12.3301 3.42902 12.348 3.48181 12.3485C3.52847 12.3496 3.57437 12.335 3.61365 12.3063C3.72489 12.2219 3.8279 12.1 3.8279 11.7532C3.81966 10.5672 4.0545 8.26099 4.99388 8.00317H5.02272C5.13661 8.00474 5.24793 8.04185 5.34456 8.11046C5.44119 8.17906 5.5194 8.27653 5.57069 8.39224V8.40161C6.1681 9.47505 6.23814 10.8063 6.23814 11.711C6.23402 11.9454 6.28346 12.1422 6.37822 12.25C6.40248 12.2796 6.43183 12.3032 6.46443 12.3193C6.49703 12.3354 6.53219 12.3438 6.56774 12.3438C6.61635 12.3437 6.66427 12.3308 6.70783 12.3063L6.71607 12.2969C7.13645 11.933 7.47378 11.4594 7.69964 10.9161C7.92551 10.3728 8.03328 9.77566 8.01389 9.17505C8.01068 8.85669 8.06498 8.54098 8.17341 8.24748C8.28184 7.95398 8.4421 7.68894 8.64426 7.4688C8.80232 7.30002 8.93953 7.10765 9.05215 6.89692C9.05837 6.8857 9.06167 6.8727 9.06167 6.85942C9.06167 6.84615 9.05837 6.83315 9.05215 6.82192C9.04596 6.81222 9.03793 6.80424 9.02866 6.79856C9.01939 6.79288 9.00911 6.78965 8.99858 6.78911Z" fill="#878687"/>
</g>
<defs>
<clipPath id="clip0_832_26808">
<rect width="14" height="12" fill="white" transform="translate(0 1)"/>
</clipPath>
</defs>
</svg>
