<svg width="76" height="76" viewBox="0 0 76 76" fill="none" xmlns="http://www.w3.org/2000/svg">
<g filter="url(#filter0_d_129_4597)">
<rect x="6" y="6" width="60" height="60" rx="30" fill="#161616"/>
<path d="M50.4922 52.4987C49.9721 52.5121 49.4576 52.3925 49.0028 52.1523C48.5479 51.9121 48.1692 51.5602 47.9064 51.1333C47.5712 50.6023 47.236 50.0561 46.9007 49.5403L46.4698 48.8272L45.0651 46.597L41.4736 40.8469C41.2595 40.517 41.118 40.1493 41.0577 39.766C40.9973 39.3827 41.0194 38.9917 41.1224 38.6167C41.1319 38.5818 41.1319 38.5453 41.1224 38.5105C40.9469 38.207 40.7553 37.9036 40.5638 37.6153L40.4999 37.5091C40.452 37.676 40.3882 37.8429 40.3403 38.0098L39.9891 39.087C39.5741 40.3462 39.1591 41.6055 38.76 42.8647C38.361 44.124 38.1854 45.808 38.1535 46.9459C38.1486 47.6656 37.8837 48.3619 37.4033 48.9182C37.1408 49.2311 36.8084 49.4846 36.4302 49.6604C36.052 49.8362 35.6374 49.9299 35.2164 49.9347C34.8013 49.9295 34.3931 49.8321 34.0245 49.6503C33.6559 49.4686 33.3371 49.2075 33.0935 48.8879C32.5188 48.2052 32.1996 47.4011 31.9442 46.6273C31.5134 45.2806 31.2509 43.8905 31.1621 42.4854V42.3186C31.0982 41.4538 31.0184 40.5586 30.6992 39.7242C30.6193 39.5118 30.5395 39.3146 30.4278 39.087C30.4022 39.0288 30.3604 38.9784 30.307 38.941C30.2536 38.9036 30.1905 38.8806 30.1245 38.8746C30.0618 38.8777 30.001 38.8961 29.9479 38.928C29.8948 38.9599 29.8512 39.0042 29.8212 39.0566C29.3263 39.7794 28.9898 40.5895 28.8316 41.4386C28.7837 41.7117 28.7199 41.9696 28.672 42.2427C28.5123 43.0316 28.3368 43.8357 28.1452 44.6246C27.8885 45.6573 27.463 46.6454 26.8842 47.5528C26.6611 47.9196 26.3873 48.2563 26.0701 48.5541C25.8256 48.8002 25.5313 48.9969 25.2049 49.1325C24.8786 49.268 24.5268 49.3396 24.1706 49.343C23.7557 49.3366 23.348 49.2387 22.9796 49.057C22.6112 48.8754 22.2922 48.6149 22.0477 48.2962C21.5042 47.6151 21.248 46.7656 21.3294 45.9142C21.4454 44.1724 21.2895 42.4239 20.8665 40.7255C20.228 38.0553 19.5735 35.2486 18.9351 32.3659C18.5406 30.654 18.2528 28.9214 18.0731 27.1772C17.9773 26.2366 17.9135 25.1291 18.2966 24.067C18.9351 22.2768 20.2918 21.2299 22.335 20.9417C22.6254 20.8988 22.919 20.8785 23.2129 20.881C24.2572 20.8759 25.2775 21.1779 26.134 21.7458C26.4616 21.9654 26.7568 22.2256 27.0119 22.5195C27.5842 23.1695 28.3122 23.6794 29.1349 24.0064H29.1668L29.1987 23.9608C30.8428 21.4423 33.2052 19.9707 36.2221 19.5762C36.6558 19.5207 37.0933 19.4954 37.531 19.5004C39.7462 19.5047 41.8909 20.2412 43.5975 21.5837C45.304 22.9262 46.4662 24.791 46.8848 26.8586C47.4754 29.8323 46.6613 32.5177 44.4585 34.8389L44.4266 34.8693H44.4426L44.8576 35.5217L45.2886 36.2044C45.3206 36.2462 45.3651 36.2779 45.4163 36.2954C46.116 36.5017 46.7121 36.9442 47.0923 37.5395C48.465 39.7242 49.8218 41.9089 51.1946 44.0785L52.6312 46.3846L53.5729 47.8714C53.9573 48.4828 54.0885 49.2083 53.9409 49.9067C53.7934 50.605 53.3777 51.2261 52.7748 51.6491C52.2481 51.9981 51.6255 52.3925 50.8434 52.4532L50.4922 52.4987ZM44.5383 37.7215C44.2751 37.7281 44.0175 37.7958 43.7881 37.9188L43.5168 38.0857L43.3891 38.1463C42.6229 38.5863 42.4154 39.3601 42.8623 40.0732L45.113 43.6537L46.8688 46.4756C47.6669 47.75 48.465 49.0244 49.2791 50.2989C49.3948 50.5051 49.5673 50.6775 49.7782 50.7978C49.9891 50.9181 50.2304 50.9816 50.4763 50.9816C50.742 50.9766 51.0012 50.9032 51.2265 50.7692L51.6894 50.5113C51.8941 50.3906 52.064 50.2234 52.1838 50.0247C52.3036 49.8261 52.3696 49.6023 52.3758 49.3734C52.3651 49.0914 52.271 48.818 52.1044 48.5845L49.2312 44.0026L47.6031 41.4234C46.9806 40.4069 46.3421 39.4056 45.7036 38.3891C45.591 38.1881 45.4232 38.0198 45.218 37.9023C45.0128 37.7847 44.7779 37.7223 44.5383 37.7215ZM30.0926 37.3423C30.4475 37.3402 30.7962 37.4311 31.1003 37.6051C31.4044 37.7791 31.6522 38.0293 31.8165 38.3284C31.9427 38.5701 32.0546 38.8183 32.1517 39.0718C32.5987 40.1794 32.6944 41.3627 32.7742 42.4096C32.863 43.8632 33.1638 45.298 33.6681 46.6728C33.8237 47.168 34.0844 47.6276 34.4343 48.0231C34.5352 48.1362 34.6596 48.2282 34.7997 48.2935C34.9398 48.3588 35.0925 48.3958 35.2484 48.4024C35.4036 48.4006 35.5565 48.3671 35.697 48.3043C35.8374 48.2415 35.962 48.1508 36.0624 48.0383C36.2257 47.8781 36.3525 47.6876 36.4349 47.4788C36.5173 47.27 36.5535 47.0473 36.5413 46.8245C36.5732 45.7625 36.6371 44.5184 36.9723 43.3351C37.3075 42.1517 37.5788 41.2869 37.8981 40.2856C37.9939 39.9973 38.0737 39.709 38.1694 39.4056L38.6164 38.0553C38.6643 37.9339 38.6962 37.8126 38.7441 37.6912C38.3095 37.7382 37.8726 37.7636 37.4352 37.7671C34.3705 37.7671 31.8484 36.614 29.9489 34.3686C27.7302 31.7591 27.2194 28.7399 28.4325 25.4022C27.3529 24.9605 26.4044 24.2726 25.6711 23.3995C25.5365 23.2441 25.3809 23.1063 25.2082 22.9899C24.6074 22.6111 23.9019 22.4104 23.181 22.4133C22.9348 22.4115 22.6889 22.4319 22.4467 22.474C21.0421 22.7016 20.1322 23.4602 19.7491 24.7498C19.5257 25.5084 19.5735 26.2821 19.6693 27.1469C19.8567 28.84 20.1445 30.5216 20.5313 32.1839C20.9622 34.141 21.4251 36.1133 21.8721 38.0401L22.4467 40.5283C22.75 41.8179 22.9416 42.9103 22.9575 44.0481C22.9575 44.4729 22.9416 44.9129 22.9416 45.3377C22.9416 45.7625 22.9256 45.8991 22.9256 46.1722C22.9073 46.4189 22.9465 46.6665 23.0403 46.8972C23.1341 47.128 23.2802 47.3363 23.4683 47.5073C23.558 47.6 23.6664 47.6746 23.7871 47.7267C23.9077 47.7788 24.0382 47.8074 24.1706 47.8107C24.4013 47.8001 24.6211 47.7144 24.7932 47.568C25.0502 47.3437 25.2755 47.0887 25.4636 46.8094C25.9663 46.0078 26.3377 45.1381 26.565 44.2302C26.7565 43.4716 26.9161 42.6827 27.0758 41.9089C27.1396 41.6207 27.1875 41.3476 27.2513 41.0593C27.4477 40.0091 27.8776 39.0108 28.5123 38.1312C28.6866 37.8857 28.9221 37.6852 29.1979 37.5475C29.4737 37.4098 29.7811 37.3393 30.0926 37.3423ZM42.1121 37.0843L43.437 36.3258L43.2295 35.992L41.9046 36.7354L42.1121 37.0843ZM37.4512 21.0327C35.3229 21.0447 33.2856 21.8546 31.7821 23.2865C30.2787 24.7183 29.4306 26.6563 29.4222 28.6792C29.4222 30.6804 30.2575 32.5999 31.7448 34.0164C33.2321 35.4329 35.2499 36.2307 37.3554 36.2347H37.3873C39.5083 36.2468 41.5474 35.4575 43.0561 34.0406C44.5648 32.6237 45.4195 30.6951 45.4322 28.6792C45.4449 26.6633 44.6146 24.7252 43.1238 23.2912C41.6331 21.8572 39.604 21.0448 37.4831 21.0327H37.4512Z" fill="white"/>
<path d="M40.4359 37.1439C40.3401 37.417 40.2443 37.6901 40.1645 37.9632C39.6378 39.5714 39.095 41.1948 38.5843 42.8181C38.1373 44.1684 38.0096 45.549 37.9777 46.9448C37.9631 47.6209 37.7101 48.2726 37.2594 48.7958C36.3017 49.9336 34.4501 50.2371 33.2369 48.7806C32.6942 48.1282 32.375 47.3696 32.1196 46.5807C31.6919 45.2437 31.4294 43.8639 31.3374 42.4692C31.2576 41.5285 31.1938 40.5727 30.8586 39.6624C30.7794 39.4387 30.6833 39.2207 30.5713 39.01C30.3797 38.6156 29.9168 38.5852 29.6455 38.9494C29.1369 39.6946 28.7946 40.5311 28.6398 41.4072C28.4164 42.4692 28.2089 43.5312 27.9375 44.578C27.6882 45.5915 27.2792 46.5634 26.7244 47.4607C26.4995 47.8131 26.2316 48.139 25.9263 48.4316C24.793 49.5088 23.1489 49.3875 22.1752 48.1889C21.6513 47.5462 21.4058 46.7375 21.4888 45.9283C21.6142 44.1663 21.4581 42.3965 21.0259 40.6789C20.3555 37.8975 19.7117 35.116 19.0945 32.3345C18.7114 30.6256 18.4237 28.8987 18.2325 27.161C18.1367 26.1445 18.0889 25.1128 18.456 24.1266C19.0945 22.3516 20.4193 21.3806 22.3348 21.1075C23.6596 20.9254 24.9047 21.153 26.0061 21.8812C26.3212 22.0926 26.6057 22.3426 26.8521 22.6246C27.4399 23.3026 28.1973 23.8294 29.0549 24.157C29.1826 24.2177 29.2624 24.2025 29.3422 24.066C30.9384 21.6385 33.2369 20.1517 36.2219 19.7724C38.5973 19.4517 41.0113 20.014 42.9617 21.3422C44.912 22.6703 46.2485 24.6621 46.693 26.9031C47.2836 29.8767 46.4376 32.4862 44.3147 34.7316C44.2349 34.8227 44.2029 34.8834 44.2668 34.9896L45.1128 36.3247C45.1723 36.3963 45.2489 36.4535 45.3363 36.4915C46.0004 36.6753 46.5657 37.0932 46.9165 37.6598C48.6883 40.4665 50.4441 43.2885 52.2 46.0952L53.3971 47.9917C53.7596 48.5634 53.8836 49.2434 53.7447 49.8977C53.6058 50.552 53.2142 51.1332 52.6469 51.5267C52.1042 51.906 51.5296 52.2549 50.8113 52.3156C49.6301 52.4066 48.7043 51.997 48.0658 51.0412C47.4273 50.0854 47.1081 49.5088 46.6292 48.7503L41.633 40.7548C41.4299 40.446 41.2954 40.1009 41.2377 39.7409C41.1801 39.3808 41.2005 39.0134 41.2978 38.6611C41.3166 38.5804 41.3111 38.4962 41.2819 38.4183C41.0424 38.0087 40.7711 37.5991 40.5157 37.1894C40.4997 37.1743 40.4997 37.1439 40.4838 37.1136L40.4359 37.1439ZM38.9993 37.4929C35.4078 37.9025 32.359 36.9467 30.0924 34.2613C27.8258 31.5759 27.4427 28.5416 28.6558 25.31L28.576 25.2797C27.4947 24.8478 26.5451 24.1644 25.8145 23.2922C25.668 23.1224 25.4959 22.9742 25.3037 22.8522C24.8871 22.5838 24.4189 22.3961 23.9259 22.2998C23.4329 22.2035 22.9248 22.2005 22.4306 22.2909C20.962 22.5336 19.9724 23.3225 19.5733 24.7032C19.3339 25.5224 19.3978 26.3417 19.4935 27.161C19.6757 28.8647 19.9635 30.5568 20.3555 32.2283C20.978 35.0047 21.6325 37.7811 22.2709 40.5576C22.5263 41.7106 22.7658 42.8636 22.7658 44.047C22.7817 44.7449 22.7498 45.458 22.7338 46.1711C22.722 46.4407 22.7699 46.7096 22.8744 46.9605C22.9789 47.2114 23.1376 47.4387 23.3404 47.6276C23.8033 48.0675 24.4099 48.0979 24.9047 47.6882C25.1766 47.4579 25.413 47.1923 25.607 46.8993C26.1252 46.0853 26.5075 45.1999 26.7403 44.2746C27.0117 43.2278 27.2032 42.1506 27.4267 41.0886C27.629 40.0638 28.047 39.0885 28.6558 38.2211C28.8309 37.9886 29.0654 37.8023 29.3372 37.6798C29.609 37.5572 29.9092 37.5025 30.2094 37.5207C30.5096 37.5389 30.8 37.6295 31.0532 37.7839C31.3064 37.9383 31.5141 38.1514 31.6567 38.4032C31.7684 38.6459 31.8802 38.8887 31.9759 39.1314C32.4069 40.1934 32.5027 41.301 32.5985 42.4237C32.6877 43.892 32.9885 45.3418 33.4923 46.7324C33.6839 47.2331 33.9073 47.7338 34.2904 48.1282C34.6735 48.5227 35.6313 48.7199 36.2059 48.1586C36.5495 47.797 36.7375 47.3258 36.7326 46.8386C36.7646 45.6704 36.8284 44.5022 37.1477 43.3795C37.4669 42.2568 37.9458 40.77 38.3448 39.4652C38.5523 38.8128 38.7758 38.1604 38.9993 37.4929ZM52.5511 49.3875C52.5538 49.0682 52.4536 48.7558 52.2638 48.4923C51.0347 46.5352 49.8057 44.5932 48.5925 42.6361L45.863 38.297C45.4001 37.5536 44.4903 37.3412 43.6921 37.766L43.2931 37.9935C42.4471 38.479 42.2077 39.359 42.7025 40.1631L45.847 45.1697L49.1193 50.3888C49.2213 50.5669 49.3609 50.7231 49.5295 50.8475C49.698 50.9719 49.8918 51.0619 50.0986 51.1118C50.3054 51.1616 50.5209 51.1703 50.7314 51.1373C50.942 51.1042 51.1431 51.0302 51.3221 50.9198C51.482 50.8377 51.6366 50.7465 51.785 50.6467C52.0187 50.5203 52.2128 50.337 52.3475 50.1157C52.4821 49.8944 52.5524 49.6431 52.5511 49.3875ZM29.2464 28.6781C29.2464 30.721 30.098 32.6806 31.6148 34.128C33.1316 35.5753 35.1899 36.3925 37.3392 36.4005C41.8725 36.4309 45.6076 32.9414 45.6236 28.663C45.632 27.6418 45.4277 26.6291 45.0223 25.6833C44.617 24.7375 44.0187 23.8774 43.2619 23.1524C42.5051 22.4275 41.6049 21.8521 40.613 21.4595C39.6211 21.0668 38.5573 20.8647 37.4829 20.8647C32.9656 20.8344 29.2624 24.3542 29.2464 28.6781ZM43.2931 35.7481L41.649 36.6888C41.7927 36.9012 41.9204 37.1136 42.064 37.3108L43.6921 36.3853C43.5485 36.1729 43.4208 35.9757 43.2931 35.7481Z" fill="white"/>
<path d="M37.4023 35.674C33.3479 35.674 30.0277 32.579 30.0118 28.7709C29.9958 24.9628 33.2681 21.625 37.4501 21.5947C41.6322 21.5644 44.8087 24.7049 44.8406 28.5585C44.8469 29.4882 44.6602 30.41 44.2912 31.271C43.9222 32.1321 43.3782 32.9155 42.6902 33.5765C42.0023 34.2374 41.1839 34.7629 40.282 35.1228C39.3801 35.4827 38.4123 35.67 37.4342 35.674H37.4023ZM37.4501 23.1422C35.909 23.1462 34.4319 23.7288 33.3407 24.7632C32.2494 25.7976 31.6324 27.1999 31.624 28.6647C31.624 30.1173 32.2311 31.5104 33.3117 32.5375C34.3924 33.5646 35.858 34.1417 37.3863 34.1417C38.9302 34.1417 40.4114 33.5608 41.5061 32.526C42.6008 31.4912 43.22 30.0866 43.2284 28.6192C43.2242 27.1652 42.6136 25.7722 41.5304 24.7455C40.4472 23.7188 38.9799 23.1422 37.4501 23.1422Z" fill="white"/>
<path d="M37.4525 21.7762C41.6027 21.8218 44.6355 24.932 44.6674 28.558C44.6717 30.389 43.9138 32.1473 42.5591 33.4491C41.2044 34.7509 39.3629 35.4906 37.4366 35.5066C33.478 35.5218 30.2217 32.4874 30.2057 28.7552C30.193 27.843 30.3711 26.9376 30.7296 26.0913C31.0881 25.2451 31.6199 24.475 32.2941 23.8258C32.9683 23.1765 33.7715 22.661 34.657 22.3091C35.5425 21.9573 36.4927 21.7762 37.4525 21.7762ZM37.4525 22.9596C35.8621 22.9636 34.3379 23.5659 33.2133 24.6349C32.0887 25.7038 31.455 27.1525 31.4508 28.6642C31.4539 29.7881 31.8073 30.886 32.4662 31.8193C33.1251 32.7526 34.0602 33.4795 35.1533 33.9082C36.2464 34.3369 37.4486 34.4483 38.6082 34.2283C39.7679 34.0083 40.833 33.4667 41.6691 32.672C42.5053 31.8772 43.0751 30.8649 43.3066 29.7627C43.538 28.6604 43.4208 27.5178 42.9698 26.4788C42.5187 25.4398 41.754 24.5511 40.772 23.9248C39.7901 23.2985 38.635 22.9626 37.4525 22.9596Z" fill="white"/>
</g>
<defs>
<filter id="filter0_d_129_4597" x="0" y="0" width="76" height="76" filterUnits="userSpaceOnUse" color-interpolation-filters="sRGB">
<feFlood flood-opacity="0" result="BackgroundImageFix"/>
<feColorMatrix in="SourceAlpha" type="matrix" values="0 0 0 0 0 0 0 0 0 0 0 0 0 0 0 0 0 0 127 0" result="hardAlpha"/>
<feOffset dx="2" dy="2"/>
<feGaussianBlur stdDeviation="4"/>
<feComposite in2="hardAlpha" operator="out"/>
<feColorMatrix type="matrix" values="0 0 0 0 0 0 0 0 0 0 0 0 0 0 0 0 0 0 0.04 0"/>
<feBlend mode="normal" in2="BackgroundImageFix" result="effect1_dropShadow_129_4597"/>
<feBlend mode="normal" in="SourceGraphic" in2="effect1_dropShadow_129_4597" result="shape"/>
</filter>
</defs>
</svg>
