<svg width="40" height="40" viewBox="0 0 40 40" fill="none" xmlns="http://www.w3.org/2000/svg">
<path d="M19.2518 31C18.9462 31 18.6551 30.8211 18.4223 30.4902C18.276 30.2882 18.1649 30.0514 18.0961 29.7945C18.0273 29.5376 18.0021 29.2661 18.022 28.9967V28.9789C18.022 27.3512 17.9129 24.9724 16.9451 23.1033C16.7996 22.826 16.6686 22.6919 16.5521 22.6919H16.523C16.2684 22.7276 15.9045 23.3447 15.6717 24.1228C15.2009 25.7019 14.9859 27.3788 15.0386 29.0593C15.0526 29.322 15.0237 29.5855 14.9538 29.8343C14.8838 30.0831 14.7741 30.3122 14.6311 30.5081C14.5231 30.6551 14.3919 30.7737 14.2456 30.8567C14.0993 30.9397 13.9408 30.9854 13.7797 30.9911C13.5486 30.9866 13.3245 30.8927 13.1393 30.7228C11.5748 29.3634 10.607 26.8236 10.607 24.1138C10.6231 23.6084 10.5479 23.105 10.3869 22.6395C10.2258 22.1741 9.98294 21.7583 9.67561 21.422C8.67753 20.2499 8.08144 18.6536 8.00923 16.9593C7.92906 15.2632 8.37353 13.5924 9.25355 12.2821C10.2214 10.8154 11.5821 9.9748 12.9938 9.9748C13.9616 9.9748 14.9367 10.3593 15.8972 11.1285C16.181 11.3699 16.3775 11.4772 16.5594 11.4772C16.7413 11.4772 16.9087 11.352 17.0542 11.2268C17.8973 10.4384 18.9274 10.0112 19.9868 10.0106C20.277 10.0089 20.5668 10.0388 20.8527 10.1H20.8745C20.887 10.1007 20.8994 10.0978 20.9107 10.0916C20.9221 10.0854 20.9321 10.076 20.94 10.0642C21.687 9.3741 22.5961 9.00064 23.5306 9H23.596C25.2406 9 26.7105 10.1805 27.4236 12.0764C28.1367 13.9724 27.9257 16.1098 26.8633 17.6569C26.8472 17.6847 26.8392 17.7183 26.8405 17.7524C26.8418 17.7864 26.8524 17.8189 26.8706 17.8447L27.7365 18.9C27.7574 18.9272 27.7862 18.9432 27.8166 18.9447L27.8675 18.9268C28.1156 18.7633 28.3978 18.6946 28.6779 18.7297C28.958 18.7647 29.2231 18.9019 29.4393 19.1236L31.4186 21.1715L31.6078 21.4041C31.8106 21.6931 31.9414 22.0478 31.9844 22.4258C32.0274 22.8038 31.9809 23.189 31.8504 23.5354C31.7198 23.8817 31.5108 24.1744 31.2484 24.3785C30.986 24.5826 30.6813 24.6895 30.3707 24.6862C30.1356 24.6881 29.9029 24.6267 29.6892 24.5062C29.4754 24.3856 29.2858 24.209 29.1337 23.9886L27.46 21.5561C27.2796 21.2904 27.168 20.9646 27.1395 20.6203C27.111 20.2761 27.1668 19.9293 27.2999 19.6244C27.3121 19.5993 27.3173 19.57 27.3146 19.5409C27.312 19.5118 27.3017 19.4846 27.2854 19.4634L26.4194 18.3992C26.4087 18.3869 26.3961 18.3775 26.3824 18.3713C26.3686 18.3652 26.354 18.3625 26.3394 18.3634C26.3136 18.3638 26.2884 18.3731 26.2666 18.3902C25.7805 18.8834 25.2113 19.2377 24.6002 19.4276C24.5848 19.4328 24.5703 19.4418 24.5578 19.4541C24.5453 19.4664 24.5349 19.4817 24.5275 19.4992C24.2308 20.2222 23.84 20.8807 23.3705 21.4488C23.0704 21.7936 22.833 22.2125 22.6737 22.6779C22.5145 23.1433 22.437 23.6448 22.4463 24.1496C22.4797 25.42 22.2645 26.6816 21.8188 27.8285C21.3731 28.9754 20.7099 29.9741 19.8849 30.7406C19.6998 30.9031 19.4792 30.9935 19.2518 31ZM13.0084 10.7797C11.7713 10.7797 10.5925 11.5041 9.75565 12.774C8.98134 13.9349 8.58981 15.4108 8.65854 16.9096C8.72726 18.4083 9.25123 19.8208 10.1268 20.8675C10.4956 21.2785 10.787 21.7836 10.9806 22.3474C11.1741 22.9112 11.2652 23.5202 11.2474 24.1317C11.2399 24.5031 11.2619 24.8745 11.3129 25.2406C11.3952 26.1931 11.6336 27.1153 12.0138 27.9514C12.394 28.7876 12.9081 29.5204 13.525 30.1057C13.6027 30.169 13.6937 30.2032 13.787 30.2041C13.8691 30.2038 13.9496 30.176 14.0198 30.1236C14.2163 29.9626 14.3982 29.7301 14.3982 29.0683C14.3837 26.8057 14.7984 22.4057 16.4575 21.9138H16.5085C16.7098 21.9158 16.9068 21.9862 17.0776 22.1172C17.2484 22.2482 17.3864 22.4347 17.4763 22.6561V22.674C18.5314 24.722 18.6551 27.2618 18.6551 28.9878C18.6479 29.435 18.7352 29.8106 18.9025 30.0163C18.9448 30.0735 18.9965 30.1191 19.0543 30.1499C19.112 30.1808 19.1743 30.1962 19.2373 30.1951C19.3232 30.1962 19.4081 30.1717 19.4847 30.1236L19.4992 30.1057C20.2417 29.4113 20.8375 28.5078 21.2364 27.4712C21.6353 26.4347 21.8257 25.2955 21.7914 24.1496C21.7849 23.5421 21.8804 22.9394 22.0719 22.3793C22.2635 21.8192 22.547 21.3137 22.9048 20.8943C23.1819 20.57 23.424 20.2033 23.6252 19.8033C23.6361 19.7818 23.642 19.757 23.642 19.7317C23.642 19.7064 23.6361 19.6816 23.6252 19.6602C23.6142 19.6417 23.6001 19.6264 23.5837 19.6156C23.5673 19.6047 23.5491 19.5986 23.5306 19.5976C22.7216 19.5946 21.9295 19.3121 21.2449 18.7825C20.5602 18.2528 20.0105 17.4973 19.6585 16.6021C19.3064 15.707 19.1662 14.7082 19.2538 13.7198C19.3415 12.7314 19.6535 11.7932 20.1541 11.0122C20.1667 10.9921 20.1746 10.9682 20.1772 10.9431C20.1797 10.9179 20.1768 10.8924 20.1687 10.8691C20.161 10.8441 20.1469 10.8227 20.1285 10.8082C20.1102 10.7937 20.0886 10.7869 20.0668 10.7886H19.9722C19.0532 10.7884 18.1601 11.1627 17.4326 11.8528C17.127 12.1301 16.8432 12.2732 16.5521 12.2732C16.2611 12.2732 15.9045 12.1122 15.5334 11.7813C14.7038 11.1106 13.8525 10.7797 13.0084 10.7797ZM28.537 19.5081C28.3618 19.5112 28.1926 19.5869 28.0567 19.7228C27.9783 19.8004 27.9134 19.8966 27.8659 20.0057C27.8183 20.1147 27.7892 20.2345 27.7802 20.3577C27.7695 20.4804 27.7788 20.6045 27.8076 20.7227C27.8363 20.8409 27.8839 20.9509 27.9475 21.0463L29.6212 23.4789L29.6721 23.5415C29.7625 23.6565 29.8712 23.7477 29.9913 23.8092C30.1114 23.8707 30.2406 23.9013 30.3707 23.8992C30.4989 23.8998 30.626 23.8693 30.7446 23.8094C30.8632 23.7496 30.9711 23.6615 31.062 23.5504L31.1129 23.4789C31.1969 23.3589 31.2607 23.2197 31.3007 23.0693C31.3407 22.9188 31.356 22.7602 31.3458 22.6024C31.3251 22.2833 31.202 21.9874 31.0038 21.7797L29.0245 19.7228C28.8864 19.5856 28.7145 19.5099 28.537 19.5081ZM23.596 18.8016C25.066 18.8016 26.3394 17.7195 26.9142 15.9756C27.4891 14.2317 27.1835 12.3715 26.1284 11.1106C25.438 10.2739 24.5074 9.80478 23.5378 9.80478C22.5683 9.80478 21.6377 10.2739 20.9473 11.1106C19.8849 12.3805 19.5866 14.2496 20.1614 15.9846C20.7363 17.7195 22.0097 18.8016 23.4869 18.8016H23.596Z" fill="#100E10"/>
</svg>
