<svg width="24" height="24" viewBox="0 0 24 24" fill="none" xmlns="http://www.w3.org/2000/svg">
<g clip-path="url(#clip0_1423_5826)">
<path d="M22.6793 13.5547L20.7582 11.7579C20.6263 11.6365 20.4601 11.5701 20.2885 11.5701C20.1169 11.5701 19.9507 11.6365 19.8188 11.7579C19.6674 11.8966 19.5715 12.0957 19.5517 12.312C19.5318 12.5283 19.5897 12.7446 19.7129 12.9141L21.3373 15.0391L21.3868 15.0938C21.474 15.1951 21.5793 15.2752 21.6961 15.329C21.8128 15.3828 21.9384 15.4091 22.0648 15.4063C22.1893 15.4068 22.3126 15.3802 22.4278 15.3279C22.5429 15.2756 22.6476 15.1987 22.7358 15.1016L22.7853 15.0391C22.8681 14.9353 22.9309 14.8138 22.9698 14.6822C23.0087 14.5505 23.0228 14.4114 23.0113 14.2735C23.0025 14.1352 22.9685 14.0002 22.9115 13.8767C22.8545 13.7532 22.7755 13.6437 22.6793 13.5547Z" fill="white"/>
<path d="M17.947 4.23446C17.2778 3.50165 16.3742 3.09058 15.4326 3.09058C14.491 3.09058 13.5874 3.50165 12.9182 4.23446C11.887 5.34383 11.5974 6.97665 12.1554 8.49227C12.7134 10.0079 13.9494 10.9532 15.3832 10.9532H15.4891C16.9158 10.9532 18.1518 10.0079 18.7098 8.48446C19.2678 6.96102 18.9712 5.33602 17.947 4.23446ZM17.7704 6.95321C17.7351 7.10165 17.6362 7.17977 17.4809 7.20321C17.4051 7.20146 17.3326 7.16843 17.2777 7.11061C17.2228 7.05279 17.1895 6.97435 17.1842 6.89071C17.1487 6.37805 16.9401 5.89894 16.5999 5.54864C16.2596 5.19834 15.8127 5.00251 15.3478 5.00008C15.2679 4.99841 15.1917 4.96191 15.136 4.89852C15.0843 4.83574 15.0521 4.75637 15.0441 4.67196C15.0653 4.51571 15.1289 4.31258 15.482 4.31258C16.0259 4.31258 16.8593 4.80477 17.0712 5.10946L17.0853 5.12508C17.389 5.41415 17.9046 6.46883 17.7704 6.95321Z" fill="white"/>
<path d="M23.5338 12.9688H23.5267L23.3219 12.7422L21.3867 10.9453C21.0784 10.6578 20.6881 10.5 20.2848 10.5C20.0643 10.4998 19.8459 10.5476 19.6421 10.6406L19.07 10.0156C20.0659 8.57031 20.2425 6.64062 19.5291 4.92188C18.8157 3.20313 17.2266 2 15.4891 2H15.4255C14.4753 2.00283 13.5494 2.33326 12.7769 2.94531C12.5219 2.9048 12.2646 2.88391 12.007 2.88281H11.9858C10.8837 2.88561 9.81238 3.28608 8.93463 4.02344C8.87107 4.07031 8.74393 4.16406 8.65918 4.16406C8.57442 4.16406 8.4261 4.09375 8.22127 3.92969H8.21421C7.22539 3.21875 6.20832 2.85938 5.19832 2.85938C3.72216 2.85938 2.3025 3.64844 1.29955 5.01562C0.388271 6.23411 -0.073369 7.78832 0.00702864 9.36719C0.0817933 10.9465 0.701101 12.434 1.73746 13.5234H1.74452C2.00457 13.7787 2.20989 14.0948 2.34551 14.4489C2.48113 14.803 2.54365 15.1861 2.52851 15.5703V15.5859C2.52851 18.0859 3.52439 20.4219 5.13475 21.6719C5.37058 21.8704 5.65776 21.9799 5.95406 21.9844H5.97525C6.1789 21.9776 6.37915 21.9249 6.56375 21.8295C6.74834 21.7341 6.9134 21.5981 7.04882 21.4297C7.22036 21.2233 7.35205 20.9803 7.43585 20.7157C7.51964 20.4511 7.55377 20.1703 7.53616 19.8906C7.48777 18.4732 7.68928 17.0588 8.12945 15.7266C8.30603 15.2109 8.51792 14.8828 8.63799 14.7656L8.73687 14.9141C9.62681 16.4531 9.72569 18.4609 9.72569 19.8359C9.70582 20.1206 9.73744 20.4067 9.81869 20.6777C9.89994 20.9487 10.0292 21.199 10.1989 21.4141C10.4956 21.7891 10.877 21.9922 11.2725 21.9922H11.2795C11.5713 21.987 11.8547 21.8834 12.0918 21.6953H12.0988C12.9453 20.9894 13.6258 20.0687 14.0831 19.0109C14.5404 17.9531 14.761 16.7891 14.7263 15.6172C14.7185 15.2318 14.7844 14.8489 14.9194 14.4935C15.0545 14.1381 15.2559 13.8182 15.5103 13.5547H15.5173C15.9757 13.0584 16.3617 12.4865 16.6615 11.8594C17.1902 11.6888 17.6875 11.4164 18.1306 11.0547L18.6957 11.6797C18.5762 11.9995 18.5387 12.3495 18.5873 12.6912C18.6359 13.033 18.7687 13.3534 18.9711 13.6172L20.5956 15.7422C20.7754 15.9773 20.9993 16.1662 21.2518 16.2957C21.5043 16.4252 21.7793 16.4923 22.0576 16.4922H22.0788C22.5403 16.4929 22.9866 16.3099 23.336 15.9766C23.7207 15.6069 23.9574 15.0838 23.9945 14.5217C24.0315 13.9596 23.8659 13.404 23.5338 12.9766V12.9688ZM23.103 15.6719C22.815 15.948 22.4457 16.098 22.0647 16.0938C21.8367 16.0939 21.6113 16.0395 21.4041 15.9343C21.1969 15.8291 21.0126 15.6757 20.864 15.4844L19.2395 13.3594C19.0662 13.1263 18.9589 12.8418 18.9313 12.5416C18.9036 12.2414 18.9568 11.9388 19.0841 11.6719C19.0972 11.6504 19.103 11.6244 19.1004 11.5987C19.0978 11.5729 19.087 11.549 19.07 11.5312L18.2295 10.6016C18.2191 10.5909 18.2069 10.5826 18.1935 10.5772C18.1802 10.5718 18.166 10.5695 18.1518 10.5703C18.1268 10.5707 18.1023 10.5788 18.0812 10.5938C17.6094 11.0246 17.0569 11.3341 16.4638 11.5C16.4487 11.5045 16.4347 11.5123 16.4226 11.5231C16.4104 11.5338 16.4004 11.5473 16.3931 11.5625C16.107 12.1953 15.7274 12.7709 15.2701 13.2656C14.9803 13.5681 14.7508 13.9342 14.5963 14.3405C14.4418 14.7468 14.3658 15.1843 14.3731 15.625C14.4061 16.7349 14.1975 17.8372 13.7648 18.8393C13.3322 19.8413 12.6881 20.7136 11.887 21.3828C11.7073 21.5247 11.4932 21.6037 11.2725 21.6094C10.9758 21.6094 10.6933 21.4531 10.4673 21.1641C10.327 20.9863 10.2204 20.7793 10.1537 20.5552C10.0869 20.3311 10.0615 20.0945 10.0788 19.8594V19.8438C10.0788 18.4219 9.97289 16.3438 9.03351 14.7109C8.89226 14.4688 8.76512 14.3516 8.65211 14.3516H8.62386C8.37666 14.3828 8.02351 14.9219 7.79749 15.6016C7.34389 16.982 7.13526 18.4462 7.18301 19.9141C7.19741 20.1436 7.1698 20.374 7.10184 20.5915C7.03388 20.8089 6.92697 21.009 6.78749 21.1797C6.6829 21.3084 6.55568 21.4123 6.41359 21.4848C6.27151 21.5573 6.11755 21.5971 5.96112 21.6016C5.73681 21.5977 5.51932 21.5157 5.33958 21.3672C3.82104 20.1797 2.88166 17.9609 2.88166 15.5938C2.89877 15.1521 2.82648 14.7117 2.67007 14.3049C2.51366 13.898 2.27708 13.535 1.9776 13.2422C1.01363 12.2125 0.436073 10.8186 0.360142 9.33868C0.284212 7.85875 0.715494 6.40156 1.56795 5.25781C2.50732 3.97656 3.8281 3.24219 5.19832 3.24219C6.13769 3.24219 7.08413 3.57812 8.01645 4.25C8.2919 4.46094 8.4826 4.55469 8.65918 4.55469C8.83575 4.55469 8.9982 4.44531 9.13946 4.33594C9.66041 3.90156 10.2564 3.59008 10.8906 3.42076C11.5248 3.25144 12.1836 3.22789 12.8263 3.35156H12.8475C12.8597 3.35286 12.8719 3.35067 12.883 3.34519C12.8942 3.33972 12.9038 3.33115 12.9111 3.32031C13.6366 2.71844 14.5186 2.39231 15.4255 2.39062H15.4891C17.0853 2.39062 18.512 3.42188 19.2042 5.07812C19.8964 6.73438 19.6915 8.60156 18.6604 9.95312C18.6458 9.97784 18.6387 10.007 18.64 10.0364C18.6412 10.0659 18.6508 10.0941 18.6674 10.1172L19.5079 11.0391C19.5282 11.0628 19.5561 11.0768 19.5856 11.0781L19.635 11.0625C19.8758 10.9196 20.1498 10.8596 20.4216 10.8903C20.6935 10.9209 20.9508 11.0407 21.1606 11.2344L23.0818 13.0234L23.2654 13.2266C23.5369 13.5747 23.6723 14.0279 23.6418 14.4864C23.6114 14.945 23.4175 15.3713 23.103 15.6719Z" fill="white"/>
<path d="M15.4254 11.6484C14.6402 11.6458 13.8715 11.3991 13.2069 10.9364C12.5424 10.4737 12.0088 9.81371 11.6671 9.0317C11.3254 8.24969 11.1893 7.37718 11.2744 6.51373C11.3595 5.65028 11.6623 4.83067 12.1482 4.14844C12.1619 4.13175 12.1707 4.11079 12.1732 4.08841C12.1757 4.06604 12.1719 4.04334 12.1624 4.02344C12.1548 4.00156 12.1412 3.98292 12.1234 3.97026C12.1056 3.95761 12.0846 3.9516 12.0635 3.95313H11.9717C11.0798 3.95414 10.2133 4.28097 9.50667 4.88281C9.21003 5.125 8.93457 5.25 8.65205 5.25C8.36953 5.25 8.02345 5.10938 7.66324 4.82031C6.85806 4.23437 6.03169 3.94531 5.21238 3.94531C4.01168 3.94531 2.86747 4.57813 2.05523 5.6875C1.30522 6.70243 0.926186 7.99134 0.992864 9.30011C1.05954 10.6089 1.56709 11.8425 2.41544 12.7578C2.77386 13.1166 3.05695 13.5577 3.24485 14.0503C3.43275 14.5429 3.52091 15.0751 3.50314 15.6094C3.4959 15.9338 3.51719 16.2583 3.56671 16.5781C3.64738 17.41 3.87915 18.2152 4.24811 18.9455C4.61708 19.6759 5.11563 20.3162 5.71385 20.8281C5.78927 20.8835 5.87762 20.9133 5.96812 20.9141C6.0481 20.916 6.12679 20.8915 6.19414 20.8438C6.38484 20.7031 6.56141 20.5 6.56141 19.9219C6.54729 17.9453 6.94988 14.1016 8.56023 13.6719H8.60968C8.80491 13.6745 8.99576 13.7363 9.1614 13.8507C9.32705 13.965 9.46114 14.1275 9.54905 14.3203V14.3359C10.5732 16.125 10.6933 18.3438 10.6933 19.8516C10.6862 20.2422 10.7709 20.5703 10.9334 20.75C10.975 20.7993 11.0253 20.8386 11.0812 20.8654C11.1371 20.8923 11.1973 20.9062 11.2583 20.9063C11.3416 20.906 11.4238 20.8847 11.4984 20.8438L11.5126 20.8281C12.2332 20.2215 12.8115 19.4322 13.1987 18.5267C13.5859 17.6212 13.7706 16.626 13.7374 15.625C13.7319 15.0944 13.825 14.5682 14.0109 14.0791C14.1967 13.5899 14.4715 13.1482 14.818 12.7813C15.089 12.5 15.3242 12.1793 15.5173 11.8281C15.5279 11.8094 15.5336 11.7877 15.5336 11.7656C15.5336 11.7435 15.5279 11.7218 15.5173 11.7031C15.5067 11.687 15.4929 11.6736 15.477 11.6642C15.4611 11.6547 15.4435 11.6493 15.4254 11.6484Z" fill="white"/>
</g>
<defs>
<clipPath id="clip0_1423_5826">
<rect width="24" height="20" fill="white" transform="translate(0 2)"/>
</clipPath>
</defs>
</svg>
