<svg width="40" height="40" viewBox="0 0 40 40" fill="none" xmlns="http://www.w3.org/2000/svg">
<path d="M19.9416 11.9684C20.358 11.5609 20.7064 11.1632 21.0974 10.814C22.2702 9.76632 23.5791 9.11637 25.0918 9.16488C25.5848 9.17458 26.0692 9.30068 26.5536 9.39769C26.6896 9.42679 26.7576 9.40739 26.8171 9.29098L27.1231 8.67984C27.31 8.25302 27.6075 8.0008 28.0239 8.0008C28.2174 7.99237 28.4085 8.05084 28.5723 8.16856C28.7361 8.28627 28.8649 8.45772 28.9418 8.66044C29.2219 9.3934 29.7308 9.98123 30.3696 10.3096C30.5482 10.3913 30.7003 10.5338 30.8053 10.7179C30.9102 10.9019 30.9629 11.1184 30.956 11.3378C30.956 11.8229 30.7351 12.1624 30.3696 12.3855L30.1147 12.5407C30.2846 12.9869 30.4631 13.4041 30.5991 13.8406C31.1345 15.5867 31.075 17.3134 30.4716 19.0207C30.4492 19.0828 30.4392 19.1498 30.4421 19.2169C30.445 19.284 30.4609 19.3495 30.4886 19.4088C30.6671 19.8841 30.8711 20.3594 30.956 20.8639C31.1345 21.9115 30.7606 22.7167 29.9957 23.289C29.4688 23.6867 28.8738 23.8711 28.2619 23.9681C28.0749 23.9972 27.9815 24.0748 27.922 24.2688C27.6941 24.9743 27.5733 25.719 27.565 26.4708C27.548 27.47 27.4885 28.4498 27.1741 29.4004C26.9191 30.1474 26.5791 30.8264 26.0182 31.3405C25.4641 31.8393 24.7602 32.069 24.0588 31.98C23.3575 31.8911 22.715 31.4906 22.2702 30.8652C21.7263 30.0795 21.4543 29.1385 21.2249 28.1878C21.0294 27.3827 20.8339 26.5678 20.63 25.753C20.5824 25.5797 20.5167 25.4136 20.4345 25.2582C20.171 24.7441 19.7971 24.7441 19.5506 25.2679C19.4104 25.5669 19.2993 25.8824 19.2191 26.2089C18.9982 27.0917 18.8197 27.9938 18.5647 28.8766C18.4027 29.4531 18.1831 30.0064 17.9103 30.5257C16.9245 32.4173 14.5108 32.5337 13.3634 30.613C12.7855 29.6526 12.5221 28.5759 12.4541 27.4312C12.4116 26.7812 12.4031 26.1216 12.3351 25.4814C12.2331 24.5016 11.8592 23.6285 11.4172 22.804C10.9753 21.9794 10.4059 20.9803 9.93842 20.0393C9.3095 18.7976 8.96105 17.4492 9.02904 16.0038C9.06304 15.4218 9.18202 14.8495 9.25851 14.2771C9.2805 14.1539 9.27167 14.0262 9.23301 13.9085C8.79107 12.7541 8.87606 11.1535 10.3889 10.3775C10.9753 10.0767 11.6042 9.94093 12.2416 9.86332C12.3238 9.85692 12.4044 9.83393 12.4796 9.79542C14.6128 8.68954 16.6185 9.02907 18.5137 10.5036C18.9812 10.8722 19.3891 11.3378 19.8141 11.7743C19.8664 11.8298 19.9096 11.8955 19.9416 11.9684ZM25.9927 10.1058C25.8667 10.0716 25.739 10.0457 25.6103 10.0282C25.4318 10.0088 25.2448 9.98943 25.0664 9.98943C23.1796 10.0185 21.7433 11.0759 20.5025 12.5892C20.4857 12.6135 20.4746 12.6423 20.4702 12.6728C20.4657 12.7033 20.468 12.7346 20.477 12.7638C20.7659 13.5108 21.2164 14.0152 21.9473 14.1316C22.1357 14.1658 22.326 14.1853 22.5167 14.1898C22.7632 14.2092 22.9161 14.3838 22.9161 14.6263C22.9161 14.8689 22.7462 15.0338 22.4912 15.0241C21.2844 15.0241 20.358 14.4808 19.8396 13.1809C19.7793 13.0302 19.7052 12.8871 19.6186 12.7541C19.1323 12.1178 18.5751 11.5569 17.9613 11.0856C16.8565 10.2707 15.6581 9.84392 14.3408 10.0379C12.5391 10.3096 11.2557 11.4445 10.4144 13.2391C9.98941 14.151 9.98091 13.8891 10.5078 14.733C11.2642 15.9359 12.2671 16.8769 13.321 17.7305C15.9811 19.8744 18.9047 21.3877 22.0408 22.3966C23.7575 22.9495 25.5083 23.3181 27.31 23.2405C27.48 23.2405 27.5565 23.1629 27.633 23.0077C27.9475 22.3966 28.2704 21.7951 28.5849 21.1937C28.8993 20.5922 29.2648 19.9326 29.5622 19.2826C30.2676 17.7402 30.4291 16.1202 29.9957 14.442C29.8767 13.9764 29.6897 13.5302 29.5282 13.0742H29.4348C29.2648 13.4041 29.0863 13.7242 28.9248 14.054C28.7633 14.3838 28.3894 14.7136 27.9475 14.6748C27.7743 14.6632 27.6074 14.5972 27.4649 14.4843C27.3225 14.3713 27.2101 14.2157 27.1401 14.0346C26.8569 13.2828 26.3301 12.685 25.6698 12.3661L25.5763 12.2982C25.4325 12.1969 25.314 12.0551 25.2321 11.8864C25.1502 11.7178 25.1076 11.5279 25.1085 11.3351C25.1093 11.1423 25.1536 10.9529 25.237 10.7852C25.3204 10.6175 25.4402 10.4771 25.5848 10.3775L25.9927 10.1058ZM27.1741 24.0845H26.9191C25.7763 24.0897 24.6365 23.9531 23.5196 23.677C20.9444 23.0562 18.4967 22.0182 16.1511 20.6601C14.4088 19.6416 12.7515 18.4581 11.2982 16.9254C10.7883 16.3822 10.3209 15.7807 9.84493 15.2084C9.82673 15.2612 9.81528 15.3167 9.81093 15.3733C9.81093 15.9844 9.77694 16.6053 9.83643 17.2164C9.94691 18.3805 10.4144 19.3894 10.9328 20.3691C11.2982 21.0676 11.7062 21.7466 12.0801 22.4451C12.4541 23.1435 12.9045 24.1621 13.0235 25.1418C13.117 25.8888 13.134 26.6454 13.185 27.4021C13.253 28.411 13.4654 29.3616 14.0009 30.1862C14.8677 31.5346 16.4825 31.4958 17.2899 30.0989C17.4653 29.8116 17.6054 29.4982 17.7064 29.1676C17.9783 28.1587 18.2078 27.1305 18.4882 26.1216C18.62 25.6035 18.8115 25.1077 19.0577 24.6471C19.5336 23.8031 20.4345 23.8225 20.9359 24.6471C21.0972 24.9087 21.2233 25.1965 21.3099 25.5008C21.5138 26.2283 21.6838 26.9753 21.8623 27.7125C22.0408 28.4498 22.2532 29.3616 22.6782 30.0795C23.1031 30.7973 23.834 31.2629 24.6924 31.1271C25.3383 31.0204 25.7803 30.5645 26.1117 29.9631C26.5961 29.09 26.7661 28.1199 26.8171 27.1014C26.8426 26.4611 26.8766 25.8209 26.9446 25.1806C26.9871 24.8217 27.0891 24.4725 27.1741 24.0845ZM28.0239 8.77685C27.922 8.89326 27.8115 8.96116 27.769 9.07757C27.4255 9.95139 26.811 10.6493 26.0437 11.0371L25.9672 11.0953C25.7973 11.2408 25.7973 11.4445 25.9672 11.59C26.0379 11.6442 26.1117 11.6928 26.1882 11.7355C26.8465 12.0906 27.3777 12.6935 27.6925 13.4429C27.7605 13.6175 27.8115 13.8406 28.0409 13.8406C28.2704 13.8406 28.3129 13.6078 28.3809 13.4332C28.6957 12.6894 29.2233 12.0906 29.8767 11.7355C29.9462 11.7031 30.0119 11.6607 30.0722 11.6094C30.2846 11.4542 30.2846 11.2214 30.0722 11.0759C29.8597 10.9304 29.7917 10.8916 29.6557 10.8043C29.1636 10.5017 28.7613 10.0392 28.4999 9.4753C28.4234 9.32009 28.3554 9.16488 28.2704 9.01937C28.1854 8.87386 28.1344 8.88356 28.0239 8.77685ZM28.4064 23.0853C28.8295 23.0198 29.2353 22.851 29.5962 22.5906C30.2931 22.0861 30.4716 20.9997 30.0042 20.1848C29.4773 21.1452 28.9588 22.0958 28.4064 23.0853ZM9.77694 12.7832C9.94691 12.4825 10.1084 12.1818 10.2869 11.9005C10.4653 11.6191 10.6863 11.3572 10.8988 11.0565C10.1509 11.2893 9.61546 12.1236 9.77694 12.7832Z" fill="#100E10"/>
<path d="M25.208 14.3441C25.497 14.3441 25.7265 14.4799 25.854 14.7709C25.9814 15.0619 26.2874 15.45 26.6358 15.6731C27.1713 16.0126 27.1543 16.7886 26.6189 17.1282C26.2943 17.3194 26.03 17.6211 25.8625 17.9915C25.565 18.6221 24.8766 18.6124 24.5791 17.9818C24.4116 17.6114 24.1473 17.3097 23.8227 17.1185C23.2873 16.7886 23.2788 15.9932 23.8227 15.6731C24.155 15.477 24.4232 15.1641 24.5876 14.7806C24.6424 14.6466 24.7303 14.5339 24.8406 14.4563C24.9508 14.3787 25.0786 14.3397 25.208 14.3441ZM26.3044 16.3715C25.7605 16.1387 25.4545 15.7216 25.208 15.1589C25.0211 15.7701 24.6386 16.129 24.1542 16.4103C24.6811 16.6431 24.9956 17.0603 25.242 17.6326C25.4375 17.0118 25.803 16.6625 26.3044 16.3715Z" fill="#100E10"/>
<path d="M14.7081 10.8332C14.7755 10.8203 14.844 10.8171 14.9121 10.8235C15.1415 10.8332 15.286 10.9787 15.2945 11.2115C15.303 11.4444 15.184 11.6093 14.9546 11.6481C14.7251 11.6869 14.4701 11.6966 14.2322 11.7451C13.719 11.8708 13.2369 12.126 12.8213 12.492C12.7364 12.5599 12.6259 12.6666 12.5409 12.6569C12.3989 12.6308 12.2695 12.5483 12.1754 12.4241C12.0565 12.2398 12.1329 12.0458 12.2859 11.9003C12.845 11.387 13.5086 11.0433 14.2152 10.9011C14.3782 10.8657 14.5427 10.8398 14.7081 10.8235V10.8332Z" fill="#100E10"/>
<path d="M11.9418 13.4337C11.9419 13.4881 11.9323 13.5418 11.9139 13.5919C11.8954 13.642 11.8684 13.6873 11.8343 13.7253C11.8003 13.7633 11.7599 13.7931 11.7156 13.813C11.6713 13.8329 11.624 13.8424 11.5764 13.8412C11.5284 13.8412 11.4809 13.8304 11.4365 13.8094C11.3922 13.7884 11.3519 13.7577 11.318 13.719C11.284 13.6802 11.2571 13.6343 11.2388 13.5837C11.2204 13.533 11.2109 13.4788 11.2109 13.424C11.2121 13.3134 11.2516 13.2078 11.321 13.1305C11.3903 13.0532 11.4837 13.0105 11.5806 13.0117C11.6776 13.013 11.7701 13.0582 11.8378 13.1374C11.9055 13.2165 11.943 13.3231 11.9418 13.4337Z" fill="#100E10"/>
</svg>
