<svg width="24" height="24" viewBox="0 0 24 24" fill="none" xmlns="http://www.w3.org/2000/svg">
<g clip-path="url(#clip0_1420_5662)">
<g clip-path="url(#clip1_1420_5662)">
<path d="M15.6996 15.5339C12.9952 14.9372 10.4247 13.9395 7.96136 12.6341C6.13168 11.6551 4.39126 10.5176 2.86504 9.04439C2.32953 8.52225 1.83864 7.94416 1.33882 7.39404C1.31862 7.44445 1.30655 7.49802 1.30312 7.55255C1.30312 8.13996 1.26742 8.7367 1.3299 9.32411C1.44593 10.443 1.93682 11.4127 2.48126 12.3544C2.86504 13.0257 3.29345 13.6784 3.68617 14.3498C4.07888 15.0211 4.55192 16.0001 4.67687 16.9418C4.77505 17.6598 4.7929 18.387 4.84645 19.1143C4.91785 20.084 5.14098 20.9978 5.70327 21.7903C6.61365 23.0863 8.30945 23.0491 9.15734 21.7064C9.33984 21.4292 9.48686 21.1283 9.59468 20.8113C9.88029 19.8416 10.1213 18.8532 10.4158 17.8836C10.5537 17.3854 10.7548 16.9087 11.0138 16.4663C11.5136 15.6551 12.4597 15.6738 12.9863 16.4663C13.1557 16.7178 13.2881 16.9943 13.379 17.2868C13.5932 17.9861 13.7717 18.7041 13.9591 19.4127C14.1466 20.1213 14.3697 20.9978 14.816 21.6877C15.0399 22.0488 15.3581 22.3355 15.7329 22.5139C16.1076 22.6923 16.5234 22.755 16.9312 22.6947C17.6096 22.5922 18.0737 22.1539 18.4218 21.5759C18.9305 20.7367 19.109 19.8043 19.1625 18.8253C19.1893 18.2099 19.225 17.5945 19.2964 16.9791C19.3411 16.6341 19.4482 16.2985 19.5374 15.9255H19.2697C18.0693 15.9357 16.8717 15.8043 15.6996 15.5339Z" fill="#878687"/>
<path d="M17.4759 7.34741C17.2795 7.93482 16.8779 8.27981 16.3691 8.55021C16.9225 8.77398 17.2527 9.17492 17.5116 9.72503C17.7169 9.1283 18.1006 8.79263 18.6272 8.51291C18.056 8.28914 17.7347 7.8882 17.4759 7.34741Z" fill="#878687"/>
<path d="M2.44575 3.40332C1.66033 3.6271 1.09804 4.42896 1.26762 5.06299C1.44612 4.77395 1.6157 4.48491 1.80313 4.21451C1.99056 3.94411 2.22262 3.69236 2.44575 3.40332Z" fill="#878687"/>
<path d="M18.2706 3.91612C18.3427 3.97161 18.4206 4.01852 18.5027 4.05598C19.1919 4.40034 19.7489 4.97891 20.0824 5.69701C20.1538 5.86484 20.2074 6.07929 20.4484 6.07929C20.6893 6.07929 20.734 5.85552 20.8054 5.68768C21.1359 4.97284 21.6901 4.39723 22.3762 4.05598C22.4493 4.02477 22.5182 3.98404 22.5815 3.93477C22.8046 3.78558 22.8046 3.56181 22.5815 3.42195L22.1442 3.16088C21.6274 2.87008 21.2049 2.42548 20.9303 1.88349C20.85 1.7343 20.7786 1.58512 20.6893 1.44526C20.6001 1.3054 20.5465 1.31472 20.4305 1.21216C20.3234 1.32405 20.2074 1.38931 20.1628 1.5012C19.7992 2.33908 19.1548 3.00902 18.3509 3.38465L18.2706 3.4406C18.0921 3.58046 18.0921 3.77626 18.2706 3.91612Z" fill="#878687"/>
<path d="M23.9469 12.7459C23.8487 12.3052 23.705 11.8769 23.5185 11.4685L23.4292 11.2448V11.2261C24.1076 9.46387 24.1522 7.68298 23.5631 5.92075C23.456 5.62238 23.3311 5.32401 23.2061 5.03497C23.4369 4.9013 23.6291 4.70529 23.7626 4.46745C23.896 4.22961 23.9659 3.95868 23.9648 3.68298C23.972 3.37871 23.8905 3.07933 23.7311 2.82455C23.5717 2.56978 23.3419 2.37164 23.0722 2.25641C22.5059 1.98721 22.0546 1.50911 21.8049 0.913753C21.6897 0.642913 21.502 0.412597 21.2645 0.250496C21.027 0.0883956 20.7498 0.00141081 20.4661 0L20.4214 0C19.8413 0.00932401 19.3683 0.32634 19.0916 0.904429L18.8506 1.33333L18.6632 1.29604C18.2344 1.19863 17.7985 1.13936 17.3601 1.11888H17.1816C15.6732 1.11888 14.263 1.669 12.8796 2.80653C12.6208 3.02098 12.3798 3.24476 12.1299 3.47786L11.9782 3.62704L11.8086 3.45921C11.4587 3.10929 11.0859 2.78527 10.6929 2.48951C9.39875 1.56643 8.05997 1.10023 6.7301 1.10023C5.7587 1.11084 4.80048 1.33646 3.91865 1.76224C3.88921 1.78132 3.8551 1.79103 3.82047 1.79021H3.80262C2.9458 1.89277 2.30318 2.05128 1.72304 2.32168C-0.0709379 3.17016 -0.294069 4.9324 0.277147 6.32168C0.284461 6.34896 0.287475 6.3773 0.286072 6.40559V6.43357C0.256321 6.6014 0.229546 6.77855 0.205745 6.96503C0.125505 7.34936 0.0688626 7.73866 0.0361653 8.13054C-0.0352367 9.52914 0.303923 10.9277 1.04472 12.2704C1.3928 12.9044 1.77659 13.5385 2.14252 14.1632L2.60664 14.9371C2.97257 15.5618 3.40098 16.3916 3.50809 17.324C3.55271 17.7063 3.57056 18.0793 3.58842 18.4802C3.60627 18.7133 3.61519 18.9464 3.63304 19.1795C3.71337 20.4569 4.05253 21.5385 4.65945 22.4615C4.96031 22.9353 5.36886 23.3238 5.84858 23.5922C6.32829 23.8607 6.86421 24.0008 7.40842 24C7.96931 24.0042 8.52148 23.8549 9.01001 23.567C9.49855 23.2791 9.90643 22.8626 10.1931 22.359C10.4936 21.8297 10.7361 21.2667 10.916 20.6807C11.0946 20.1305 11.2374 19.5711 11.3712 19.0303C11.4426 18.7226 11.523 18.4056 11.6122 18.0979C11.6844 17.8152 11.7893 17.5428 11.9246 17.2867C11.9429 17.2459 11.9669 17.2082 11.996 17.1748L12.0763 17.296C12.1388 17.4127 12.1926 17.5343 12.237 17.6597C12.4066 18.2751 12.5672 18.8998 12.7279 19.4965L12.8618 19.9907C13.0849 20.8765 13.3883 21.8834 14.0399 22.7413C14.5818 23.437 15.3642 23.8819 16.2178 23.9796C17.0713 24.0773 17.9274 23.82 18.6007 23.2634C19.1808 22.7786 19.6092 22.1259 19.9573 21.2028C20.3054 20.2797 20.3679 19.338 20.3947 18.2284C20.4001 17.5634 20.5148 16.9042 20.7338 16.2797H20.7427C21.5639 16.1585 22.1976 15.9254 22.742 15.5524C23.7416 14.8625 24.1611 13.8928 23.9469 12.7459ZM22.501 15.1608C21.9477 15.5431 21.3229 15.7203 20.6803 15.8135C20.4839 15.8415 20.3857 15.9161 20.3233 16.1026C20.0839 16.7807 19.9571 17.4965 19.9484 18.2191C19.9305 19.1795 19.8681 20.1212 19.5378 21.035C19.2701 21.7529 18.9131 22.4056 18.324 22.8998C17.742 23.3791 17.0029 23.5999 16.2663 23.5144C15.5298 23.4289 14.855 23.044 14.388 22.4429C13.8168 21.6876 13.5311 20.7832 13.2902 19.8695C13.0849 19.0956 12.8796 18.3124 12.6654 17.5291C12.6116 17.3642 12.5429 17.2049 12.4601 17.0536C12.1834 16.5594 11.7907 16.5594 11.5319 17.0629C11.3809 17.3484 11.264 17.6522 11.1838 17.9674C10.9517 18.8159 10.7643 19.683 10.4966 20.5315C10.3282 21.0863 10.0975 21.6184 9.80931 22.1166C8.77399 23.9347 6.23921 24.0466 5.03431 22.2005C4.42739 21.2774 4.15071 20.2424 4.0793 19.1422C4.03468 18.5175 4.02575 17.8834 3.95435 17.2681C3.84725 16.3263 3.45454 15.4872 2.99042 14.6946C2.52631 13.9021 1.92832 12.9417 1.43743 12.0373C0.776961 10.8438 0.411026 9.54779 0.482428 8.15851C0.518129 7.59907 0.643082 7.04895 0.72341 6.49883C0.741591 6.38019 0.732412 6.25872 0.696634 6.14452C0.232521 5.03497 0.321773 3.4965 1.91047 2.75058C2.52631 2.46154 3.18678 2.331 3.85617 2.25641C3.94215 2.24794 4.0264 2.22593 4.10608 2.19114C6.34632 1.12821 8.45268 1.45455 10.443 2.87179C10.9339 3.22611 11.3623 3.67366 11.8086 4.09324C11.8609 4.14897 11.9059 4.21167 11.9425 4.27972C12.3798 3.88811 12.7457 3.50583 13.1563 3.17016C14.388 2.16317 15.7625 1.53846 17.3512 1.58508C17.8688 1.59441 18.3776 1.71562 18.8863 1.80886C19.0291 1.83683 19.1005 1.81818 19.163 1.70629L19.4843 1.11888C19.6806 0.708625 19.993 0.4662 20.4304 0.4662C20.6335 0.458099 20.8342 0.514303 21.0062 0.627445C21.1782 0.740586 21.3135 0.905384 21.3943 1.10023C21.6884 1.80473 22.2229 2.36974 22.8937 2.68531C23.0805 2.76496 23.2395 2.90228 23.3496 3.07889C23.4596 3.25551 23.5155 3.46301 23.5096 3.67366C23.5096 4.13986 23.2775 4.4662 22.8937 4.68065L22.626 4.82984C22.8045 5.25874 22.9919 5.65967 23.1347 6.07925C23.697 7.75758 23.6345 9.41725 23.0008 11.0583C22.9746 11.1173 22.9626 11.1821 22.9657 11.2471C22.9688 11.312 22.987 11.3752 23.0187 11.4312C23.2061 11.8881 23.4203 12.345 23.5096 12.8298C23.697 13.8368 23.3043 14.6107 22.501 15.1608Z" fill="#878687"/>
<path d="M20.832 14.9651C21.2762 14.9013 21.7022 14.7392 22.0816 14.4896C22.8134 14.0048 23.0009 12.9605 22.51 12.1772C21.9566 13.1003 21.4122 14.0141 20.832 14.9651Z" fill="#878687"/>
<path d="M22.0455 11.3101C22.7863 9.82757 22.9558 8.27046 22.5007 6.65741C22.3757 6.20985 22.1793 5.78095 22.0098 5.34272H21.9116C21.7331 5.65974 21.5456 5.96743 21.3761 6.28445C21.2065 6.60146 20.8138 6.91848 20.3497 6.88118C20.1676 6.87099 19.9918 6.80802 19.842 6.69933C19.6923 6.59063 19.5744 6.44051 19.5018 6.2658C19.199 5.54696 18.6475 4.97414 17.9577 4.66207L17.8595 4.5968C17.7432 4.52235 17.6422 4.42464 17.5621 4.30927C17.4821 4.1939 17.4247 4.06314 17.3932 3.92451C17.3616 3.78589 17.3567 3.64212 17.3785 3.50148C17.4003 3.36083 17.4485 3.22608 17.5204 3.10496C17.6109 2.96233 17.7296 2.84153 17.8684 2.75065L18.2969 2.48957L17.8952 2.41498C17.7078 2.39633 17.5114 2.37769 17.324 2.37769C15.3426 2.40566 13.8342 3.42197 12.5311 4.87652C12.5136 4.8999 12.5019 4.92753 12.4972 4.95686C12.4925 4.98619 12.495 5.01628 12.5044 5.04435C12.8078 5.7623 13.2809 6.24715 14.0484 6.35904C14.2457 6.39656 14.4459 6.41529 14.6464 6.41498C14.9053 6.43363 15.0659 6.60146 15.0659 6.83456C15.0659 7.06766 14.8874 7.22617 14.6197 7.21685C13.3523 7.21685 12.3794 6.6947 11.835 5.44528C11.7697 5.30148 11.692 5.16416 11.6029 5.03503C11.0898 4.42593 10.505 3.88708 9.86249 3.4313C8.70221 2.64808 7.44375 2.23783 6.06034 2.42431C4.16818 2.68538 2.82047 3.77629 1.93687 5.50123C1.49061 6.37769 1.48168 6.12594 2.03505 6.93713C2.8294 8.0933 3.88258 8.99773 4.98931 9.81825C7.78291 11.8789 10.8532 13.3334 14.1466 14.3031C15.9495 14.8346 17.7881 15.1889 19.6803 15.1143C19.8588 15.1143 19.9391 15.0397 20.0194 14.8905C20.3497 14.3031 20.6888 13.725 21.0191 13.1469C21.3493 12.5688 21.7331 11.9348 22.0455 11.3101ZM3.16856 6.07932H3.15963C3.05784 6.07932 2.96023 6.03708 2.88825 5.96189C2.81628 5.8867 2.77585 5.78472 2.77585 5.67839C2.77583 5.62616 2.78581 5.57447 2.80521 5.52634C2.8246 5.47821 2.85302 5.43462 2.88878 5.39813C2.92454 5.36164 2.96692 5.33299 3.01344 5.31387C3.05995 5.29474 3.10966 5.28553 3.15963 5.28678C3.26142 5.28678 3.35903 5.32902 3.43101 5.40421C3.50298 5.4794 3.54342 5.58138 3.54342 5.68771C3.54342 5.79157 3.50392 5.89118 3.43362 5.96462C3.36332 6.03806 3.26798 6.07932 3.16856 6.07932ZM6.70296 3.97209C6.46197 4.00939 6.19422 4.01871 5.94431 4.06533C5.40478 4.18437 4.89818 4.42986 4.46272 4.78328C4.37347 4.84855 4.25744 4.95111 4.16818 4.94179C4.01906 4.91664 3.88317 4.83741 3.7844 4.71801C3.65945 4.54086 3.73977 4.35438 3.90043 4.21452C4.48834 3.72256 5.18491 3.39238 5.92646 3.25414C6.0976 3.21952 6.2704 3.19462 6.44412 3.17955C6.51488 3.16718 6.58683 3.16405 6.65833 3.17023C6.89931 3.17955 7.05104 3.31941 7.05997 3.54319C7.06889 3.76696 6.94394 3.9348 6.70296 3.97209ZM18.9573 9.24016C18.6165 9.42393 18.3389 9.71395 18.163 10.07C17.8506 10.6761 17.1276 10.6667 16.8153 10.0607C16.637 9.70643 16.36 9.41706 16.0209 9.23083C15.4586 8.91382 15.4497 8.14925 16.0209 7.84156C16.3699 7.65311 16.6515 7.35235 16.8242 6.98375C16.8817 6.85496 16.974 6.74659 17.0898 6.67202C17.2056 6.59746 17.3398 6.55996 17.4757 6.56417C17.7792 6.56417 18.0202 6.6947 18.1541 6.97442C18.3482 7.33531 18.6318 7.63486 18.9752 7.84156C19.5375 8.1679 19.5196 8.91382 18.9573 9.24016Z" fill="#878687"/>
</g>
</g>
<defs>
<clipPath id="clip0_1420_5662">
<rect width="24" height="24" fill="white" transform="matrix(-1 0 0 1 24 0)"/>
</clipPath>
<clipPath id="clip1_1420_5662">
<rect width="24" height="24" fill="white"/>
</clipPath>
</defs>
</svg>
