<svg width="14" height="14" viewBox="0 0 14 14" fill="none" xmlns="http://www.w3.org/2000/svg">
<g clip-path="url(#clip0_832_26754)">
<g clip-path="url(#clip1_832_26754)">
<path d="M9.15872 9.06148C7.58119 8.71339 6.08174 8.13141 4.64478 7.36995C3.57747 6.79886 2.56222 6.1353 1.67193 5.27594C1.35954 4.97135 1.07319 4.63413 0.781632 4.31323C0.769844 4.34264 0.762806 4.37388 0.760807 4.4057C0.760807 4.74835 0.739981 5.09645 0.776426 5.43911C0.844109 6.09179 1.13046 6.65744 1.44805 7.20678C1.67193 7.59839 1.92183 7.97912 2.15091 8.37073C2.38 8.76234 2.65593 9.33343 2.72882 9.88277C2.78609 10.3016 2.79651 10.7258 2.82775 11.1501C2.8694 11.7157 2.99956 12.2487 3.32756 12.7111C3.85861 13.4671 4.84783 13.4453 5.34244 12.6621C5.44889 12.5004 5.53465 12.3249 5.59755 12.14C5.76415 11.5743 5.90473 10.9978 6.07654 10.4321C6.15697 10.1415 6.27429 9.86346 6.42537 9.60538C6.71692 9.13219 7.2688 9.14307 7.57598 9.60538C7.67481 9.75207 7.75202 9.91341 7.80506 10.084C7.93001 10.4919 8.03414 10.9107 8.14348 11.3241C8.25281 11.7375 8.38297 12.2487 8.64329 12.6512C8.77395 12.8619 8.95953 13.0291 9.17815 13.1331C9.39678 13.2372 9.63933 13.2738 9.87721 13.2386C10.2729 13.1788 10.5436 12.9232 10.7467 12.586C11.0434 12.0964 11.1476 11.5525 11.1788 10.9815C11.1944 10.6225 11.2153 10.2635 11.2569 9.90453C11.2829 9.70329 11.3454 9.50748 11.3975 9.28992H11.2413C10.5411 9.29584 9.84248 9.21921 9.15872 9.06148Z" fill="#878687"/>
<path d="M10.1944 4.28589C10.0799 4.62855 9.84559 4.82979 9.54883 4.98752C9.87162 5.11806 10.0643 5.35193 10.2152 5.67284C10.335 5.32474 10.5589 5.12893 10.866 4.96576C10.5328 4.83523 10.3454 4.60135 10.1944 4.28589Z" fill="#878687"/>
<path d="M1.42661 1.98535C0.968444 2.11589 0.640441 2.58364 0.739362 2.95349C0.84349 2.78489 0.942412 2.61628 1.05175 2.45855C1.16108 2.30081 1.29645 2.15396 1.42661 1.98535Z" fill="#878687"/>
<path d="M10.6582 2.28434C10.7003 2.31671 10.7457 2.34407 10.7935 2.36593C11.1956 2.5668 11.5205 2.9043 11.7151 3.32319C11.7567 3.42109 11.788 3.54619 11.9285 3.54619C12.0691 3.54619 12.0951 3.41566 12.1368 3.31775C12.3296 2.90076 12.6529 2.56499 13.0531 2.36593C13.0957 2.34772 13.136 2.32396 13.1729 2.29522C13.303 2.2082 13.303 2.07766 13.1729 1.99608L12.9178 1.84378C12.6163 1.67415 12.3698 1.4148 12.2097 1.09864C12.1628 1.01162 12.1212 0.924591 12.0691 0.843006C12.017 0.761421 11.9858 0.76686 11.9181 0.707031C11.8556 0.772299 11.788 0.810372 11.7619 0.87564C11.5499 1.3644 11.1739 1.7552 10.705 1.97432L10.6582 2.00695C10.554 2.08854 10.554 2.20276 10.6582 2.28434Z" fill="#878687"/>
<path d="M13.9692 7.43512C13.9119 7.17804 13.8281 6.9282 13.7193 6.68998L13.6672 6.55944V6.54856C14.0629 5.52059 14.0889 4.48174 13.7453 3.45377C13.6828 3.27972 13.61 3.10567 13.5371 2.93706C13.6717 2.85909 13.7838 2.74475 13.8617 2.60601C13.9395 2.46727 13.9803 2.30923 13.9796 2.14841C13.9838 1.97091 13.9363 1.79628 13.8433 1.64766C13.7503 1.49904 13.6163 1.38346 13.459 1.31624C13.1286 1.15921 12.8653 0.880311 12.7197 0.533023C12.6525 0.375032 12.543 0.240681 12.4045 0.146123C12.2659 0.0515641 12.1042 0.000822975 11.9387 0L11.9127 0C11.5743 0.00543901 11.2983 0.190365 11.1369 0.527584L10.9963 0.777778L10.887 0.756022C10.6369 0.699199 10.3826 0.664628 10.1269 0.652681H10.0227C9.14287 0.652681 8.32026 0.973582 7.51326 1.63714C7.36228 1.76224 7.2217 1.89277 7.07593 2.02875L6.98742 2.11577L6.8885 2.01787C6.68441 1.81375 6.46695 1.62474 6.2377 1.45221C5.48277 0.913753 4.70181 0.641803 3.92606 0.641803C3.3594 0.647988 2.80044 0.779604 2.28604 1.02797C2.26887 1.0391 2.24897 1.04477 2.22877 1.04429H2.21836C1.71854 1.10412 1.34368 1.19658 1.00527 1.35431C-0.0412177 1.84926 -0.171377 2.87723 0.161832 3.68765C0.166098 3.70356 0.167857 3.72009 0.167038 3.7366V3.75291C0.149684 3.85082 0.134064 3.95416 0.120181 4.06294C0.0733738 4.28713 0.0403326 4.51422 0.0212592 4.74281C-0.020392 5.55866 0.177451 6.37452 0.609582 7.15773C0.812631 7.52758 1.03651 7.89744 1.24997 8.26185L1.5207 8.71329C1.73416 9.0777 1.98407 9.56177 2.04655 10.1057C2.07258 10.3287 2.08299 10.5462 2.09341 10.7801C2.10382 10.9161 2.10902 11.0521 2.11944 11.188C2.16629 11.9332 2.36414 12.5641 2.71817 13.1026C2.89368 13.3789 3.132 13.6055 3.41183 13.7621C3.69166 13.9187 4.00429 14.0005 4.32174 14C4.64893 14.0024 4.97102 13.9154 5.256 13.7474C5.54098 13.5795 5.77891 13.3365 5.94614 13.0427C6.12145 12.734 6.26291 12.4056 6.36786 12.0637C6.47198 11.7428 6.55529 11.4165 6.63338 11.101C6.67503 10.9215 6.72189 10.7366 6.77396 10.5571C6.81606 10.3922 6.87726 10.2333 6.95618 10.0839C6.96684 10.0601 6.98088 10.0381 6.99783 10.0186L7.04469 10.0894C7.08115 10.1574 7.11249 10.2283 7.1384 10.3015C7.23732 10.6605 7.33104 11.0249 7.42476 11.373L7.50285 11.6612C7.63301 12.1779 7.81003 12.7653 8.19009 13.2657C8.50624 13.6716 8.96263 13.9311 9.46053 13.9881C9.95842 14.0451 10.4578 13.895 10.8506 13.5703C11.189 13.2875 11.4389 12.9068 11.6419 12.3683C11.845 11.8298 11.8814 11.2805 11.897 10.6333C11.9002 10.2453 11.9671 9.8608 12.0949 9.4965H12.1001C12.5791 9.4258 12.9487 9.28982 13.2663 9.07226C13.8494 8.66978 14.0941 8.10412 13.9692 7.43512ZM13.1258 8.84382C12.803 9.06682 12.4385 9.17016 12.0637 9.22455C11.9491 9.24087 11.8918 9.28438 11.8554 9.39316C11.7158 9.78871 11.6418 10.2063 11.6367 10.6278C11.6263 11.188 11.5899 11.7374 11.3972 12.2704C11.241 12.6892 11.0328 13.0699 10.6892 13.3582C10.3497 13.6378 9.91851 13.7666 9.48885 13.7167C9.05919 13.6669 8.66559 13.4423 8.39314 13.0917C8.05993 12.6511 7.89333 12.1235 7.75276 11.5905C7.63301 11.1391 7.51326 10.6822 7.38831 10.2253C7.35693 10.1291 7.31683 10.0362 7.26856 9.94794C7.10716 9.65967 6.87808 9.65967 6.7271 9.95338C6.63903 10.1199 6.57084 10.2971 6.52405 10.481C6.38868 10.9759 6.27935 11.4817 6.12316 11.9767C6.02492 12.3003 5.89035 12.6107 5.72226 12.9013C5.11832 13.9619 3.6397 14.0272 2.93684 12.9503C2.58281 12.4118 2.42141 11.8081 2.37976 11.1663C2.35372 10.8019 2.34852 10.432 2.30687 10.073C2.24439 9.5237 2.01531 9.03419 1.74458 8.57187C1.47384 8.10956 1.12502 7.54934 0.838663 7.02176C0.45339 6.32556 0.239928 5.56954 0.281579 4.75913C0.302405 4.43279 0.375294 4.11189 0.422152 3.79099C0.432758 3.72178 0.427403 3.65092 0.406533 3.5843C0.1358 2.93706 0.187864 2.03963 1.1146 1.60451C1.47384 1.4359 1.85912 1.35975 2.2496 1.31624C2.29975 1.3113 2.3489 1.29846 2.39538 1.27817C3.70218 0.65812 4.93089 0.848485 6.09192 1.67521C6.37827 1.8819 6.62818 2.14297 6.8885 2.38772C6.919 2.42023 6.94526 2.45681 6.96659 2.4965C7.22171 2.26807 7.43517 2.04507 7.67466 1.84926C8.39314 1.26185 9.19493 0.897436 10.1217 0.924631C10.4236 0.93007 10.7204 1.00078 11.0172 1.05517C11.1005 1.07148 11.1421 1.06061 11.1786 0.995338L11.366 0.652681C11.4805 0.413364 11.6628 0.27195 11.9179 0.27195C12.0364 0.267225 12.1534 0.30001 12.2538 0.366009C12.3541 0.432008 12.433 0.52814 12.4802 0.641803C12.6517 1.05276 12.9635 1.38235 13.3548 1.56643C13.4638 1.6129 13.5566 1.69299 13.6208 1.79602C13.6849 1.89905 13.7175 2.02009 13.7141 2.14297C13.7141 2.41492 13.5787 2.60528 13.3548 2.73038L13.1986 2.8174C13.3028 3.0676 13.4121 3.30148 13.4954 3.54623C13.8234 4.52525 13.787 5.4934 13.4173 6.45066C13.402 6.48509 13.395 6.52288 13.3968 6.56078C13.3986 6.59869 13.4092 6.63556 13.4277 6.66822C13.5371 6.93473 13.662 7.20124 13.7141 7.48407C13.8234 8.07148 13.5943 8.52292 13.1258 8.84382Z" fill="#878687"/>
<path d="M12.1523 8.72953C12.4114 8.6923 12.6599 8.59773 12.8812 8.45214C13.3082 8.16932 13.4175 7.56015 13.1311 7.10327C12.8083 7.64173 12.4908 8.17476 12.1523 8.72953Z" fill="#878687"/>
<path d="M12.8599 6.59753C13.2921 5.73273 13.391 4.82441 13.1255 3.88347C13.0526 3.62239 12.938 3.3722 12.8391 3.11657H12.7818C12.6777 3.30149 12.5684 3.48098 12.4695 3.66591C12.3705 3.85083 12.1415 4.03576 11.8707 4.014C11.7645 4.00806 11.662 3.97132 11.5746 3.90792C11.4872 3.84452 11.4185 3.75695 11.3761 3.65503C11.1995 3.2357 10.8778 2.90156 10.4754 2.71952L10.4181 2.68145C10.3503 2.63802 10.2913 2.58102 10.2447 2.51372C10.198 2.44642 10.1645 2.37014 10.1461 2.28928C10.1277 2.20841 10.1248 2.12455 10.1375 2.04251C10.1503 1.96047 10.1784 1.88186 10.2203 1.81121C10.2731 1.728 10.3424 1.65754 10.4233 1.60452L10.6732 1.45223L10.439 1.40872C10.3296 1.39784 10.2151 1.38696 10.1058 1.38696C8.94993 1.40328 8.07005 1.99613 7.30992 2.84462C7.29966 2.85825 7.29285 2.87437 7.29012 2.89148C7.28739 2.90859 7.28883 2.92614 7.2943 2.94252C7.47131 3.36132 7.74725 3.64415 8.195 3.70942C8.31009 3.73131 8.42685 3.74223 8.54383 3.74205C8.69482 3.75293 8.78853 3.85083 8.78853 3.98681C8.78853 4.12278 8.6844 4.21525 8.52821 4.20981C7.7889 4.20981 7.22141 3.90522 6.90382 3.1764C6.86572 3.09251 6.82041 3.01241 6.76845 2.93708C6.46914 2.58177 6.12802 2.26744 5.7532 2.00157C5.07637 1.54469 4.34227 1.30538 3.53528 1.41416C2.43152 1.56645 1.64536 2.20281 1.12992 3.20903C0.869603 3.7203 0.864397 3.57344 1.18719 4.04664C1.65056 4.72107 2.26492 5.24866 2.91051 5.72729C4.54011 6.92931 6.33111 7.77779 8.25227 8.34345C9.30397 8.65347 10.3765 8.86016 11.4802 8.81664C11.5844 8.81664 11.6312 8.77313 11.6781 8.68611C11.8707 8.34345 12.0686 8.00623 12.2612 7.66901C12.4538 7.3318 12.6777 6.96194 12.8599 6.59753ZM1.84841 3.54625H1.8432C1.78382 3.54625 1.72688 3.52161 1.6849 3.47775C1.64291 3.43389 1.61932 3.3744 1.61932 3.31237C1.61932 3.28191 1.62514 3.25175 1.63645 3.22368C1.64777 3.1956 1.66434 3.17017 1.6852 3.14889C1.70606 3.1276 1.73078 3.11089 1.75792 3.09974C1.78505 3.08858 1.81405 3.08321 1.8432 3.08393C1.90257 3.08393 1.95952 3.10857 2.0015 3.15243C2.04349 3.19629 2.06707 3.25578 2.06707 3.31781C2.06707 3.3784 2.04404 3.4365 2.00303 3.47934C1.96202 3.52218 1.9064 3.54625 1.84841 3.54625ZM3.91014 2.31703C3.76957 2.33879 3.61337 2.34423 3.4676 2.37142C3.15287 2.44086 2.85735 2.58406 2.60333 2.79023C2.55127 2.8283 2.48359 2.88813 2.43152 2.88269C2.34453 2.86802 2.26527 2.8218 2.20765 2.75215C2.13476 2.64881 2.18162 2.54003 2.27533 2.45845C2.61828 2.17147 3.02461 1.97887 3.45718 1.89823C3.55701 1.87803 3.65782 1.86351 3.75915 1.85472C3.80043 1.8475 3.8424 1.84568 3.88411 1.84928C4.02468 1.85472 4.11319 1.9363 4.11839 2.06684C4.1236 2.19737 4.05071 2.29528 3.91014 2.31703ZM11.0585 5.39007C10.8597 5.49727 10.6978 5.66645 10.5952 5.87414C10.4129 6.22768 9.99121 6.22224 9.80899 5.8687C9.705 5.66206 9.54342 5.49327 9.34562 5.38463C9.01761 5.19971 9.01241 4.75371 9.34562 4.57422C9.54918 4.4643 9.71347 4.28885 9.81419 4.07383C9.84773 3.99871 9.9016 3.93549 9.96914 3.89199C10.0367 3.8485 10.1149 3.82662 10.1943 3.82908C10.3713 3.82908 10.5118 3.90522 10.5899 4.06839C10.7032 4.27891 10.8687 4.45365 11.0689 4.57422C11.3969 4.76459 11.3865 5.19971 11.0585 5.39007Z" fill="#878687"/>
</g>
</g>
<defs>
<clipPath id="clip0_832_26754">
<rect width="14" height="14" fill="white" transform="matrix(-1 0 0 1 14 0)"/>
</clipPath>
<clipPath id="clip1_832_26754">
<rect width="14" height="14" fill="white"/>
</clipPath>
</defs>
</svg>
