<svg width="60" height="60" viewBox="0 0 60 60" fill="none" xmlns="http://www.w3.org/2000/svg">
<rect width="60" height="60" rx="30" fill="white"/>
<path d="M47.5949 31.2994C47.4494 30.5427 47.1002 29.8296 46.7946 29.102C46.7474 29.0157 46.7203 28.9198 46.7152 28.8216C46.7102 28.7233 46.7274 28.6252 46.7654 28.5345C47.7987 25.9732 47.9005 23.3829 46.9837 20.7635C46.7509 20.1086 46.4453 19.4683 46.1688 18.8135L46.5908 18.5661C47.2311 18.2459 47.5949 17.7366 47.5949 17.009C47.6054 16.6782 47.515 16.352 47.3357 16.0739C47.1563 15.7957 46.8965 15.5788 46.5908 15.4519C45.4942 14.9658 44.6175 14.0892 44.1315 12.9925C44.0094 12.6845 43.793 12.4229 43.5134 12.2452C43.2337 12.0675 42.9051 11.9827 42.5744 12.0029C41.8613 12.0029 41.3665 12.3813 41.0318 13.0071C40.8572 13.3272 40.6825 13.6183 40.5079 13.9239C40.3333 14.2295 40.2896 14.1421 40.0568 14.0985C39.2273 13.953 38.3978 13.7638 37.5538 13.7347C34.9634 13.6765 32.7224 14.6515 30.7141 16.2231C30.0447 16.747 29.4481 17.3291 28.735 17.9549C28.6771 17.8432 28.6036 17.7403 28.5167 17.6493C27.7891 17.009 27.0906 16.3105 26.2902 15.7575C23.045 13.5309 19.6107 13.0362 15.958 14.6951C15.8284 14.7479 15.6904 14.7775 15.5505 14.7824C14.4591 14.9134 13.3968 15.1026 12.3781 15.5683C9.78778 16.7325 9.64226 19.1336 10.399 20.8508C10.4644 21.0275 10.4795 21.219 10.4426 21.4038C10.3117 22.2769 10.1079 23.1355 10.0643 23.9941C9.93331 26.177 10.53 28.1852 11.6068 30.0625C12.4072 31.4741 13.2949 32.8129 14.139 34.1954C14.983 35.5778 15.536 36.742 15.7106 38.2118C15.827 39.1868 15.8416 40.1764 15.9143 41.1514C16.0308 42.8686 16.4819 44.4839 17.4715 45.9246C19.436 48.806 23.5689 48.6168 25.257 45.7936C25.7242 45.0096 26.1002 44.1747 26.3775 43.3052C26.8141 41.9955 27.1197 40.6421 27.4981 39.3178C27.6367 38.8306 27.8219 38.3579 28.0511 37.9062C28.4876 37.1204 29.1279 37.1204 29.5791 37.8771C29.72 38.1153 29.8323 38.3693 29.9138 38.6338C30.263 39.8417 30.5832 41.0641 30.9324 42.2865C31.2817 43.5089 31.791 45.1097 32.7369 46.2884C33.1105 46.7557 33.5724 47.1449 34.0964 47.4337C34.6204 47.7224 35.1961 47.9051 35.7907 47.9714C36.3853 48.0376 36.9872 47.986 37.5618 47.8196C38.1365 47.6532 38.6728 47.3752 39.14 47.0015C40.1004 46.2448 40.6825 45.2261 41.1191 44.091C41.6576 42.6794 41.7594 41.1951 41.7885 39.7107C41.8013 38.5827 42.0081 37.4653 42.3997 36.4073C42.4345 36.2791 42.5102 36.1657 42.6152 36.0842C42.7202 36.0028 42.8489 35.9579 42.9818 35.9562C44.0296 35.8107 45.0483 35.5342 45.9505 34.9375C47.2602 34.0789 47.9005 32.8711 47.5949 31.2994ZM13.2513 16.5869C12.8874 17.0235 12.5236 17.4164 12.218 17.853C11.9124 18.2896 11.6214 18.7262 11.3158 19.1773C11.0538 18.1732 11.9706 16.9362 13.2513 16.5869ZM41.9049 34.5155C41.8568 34.6212 41.7788 34.7106 41.6806 34.7727C41.5823 34.8347 41.4681 34.8667 41.352 34.8648C38.2668 34.9812 35.269 34.4282 32.3295 33.5987C26.9596 32.0853 21.9536 29.8151 17.3987 26.599C15.5942 25.3184 13.877 23.9068 12.5818 22.0878C11.6796 20.8362 11.6796 21.2292 12.4218 19.8612C13.8625 17.169 16.0599 15.4664 19.145 15.0589C21.4006 14.7679 23.4525 15.4082 25.3443 16.6306C26.3986 17.3334 27.3531 18.1753 28.182 19.1336C28.3363 19.3265 28.4591 19.5426 28.5458 19.7739C29.4481 21.7239 31.0343 22.5243 33.1153 22.5389C33.5373 22.5389 33.8138 22.306 33.8284 21.9277C33.8429 21.5493 33.5664 21.3165 33.1444 21.2874C32.7224 21.2583 32.4895 21.2437 32.1694 21.2001C30.9179 21.0254 30.1466 20.2542 29.6518 19.1482C29.6365 19.1044 29.6325 19.0574 29.6401 19.0116C29.6478 18.9658 29.6668 18.9227 29.6955 18.8862C31.8201 16.6161 34.2795 15.0153 37.5101 14.9862C37.8303 14.9862 38.1359 15.0007 38.4415 15.0298L39.0963 15.1608L38.3978 15.5683C38.1502 15.7178 37.9451 15.9284 37.8023 16.18C37.6595 16.4316 37.5837 16.7156 37.5822 17.0049C37.5808 17.2942 37.6537 17.579 37.7939 17.832C37.9342 18.0849 38.1371 18.2977 38.3833 18.4497C38.4316 18.4872 38.4856 18.5167 38.5433 18.537C39.6724 19.0251 40.5728 19.9255 41.0609 21.0545C41.1787 21.3265 41.371 21.5597 41.6156 21.727C41.8602 21.8944 42.1472 21.9892 42.4434 22.0004C43.2001 22.0587 43.7385 21.7385 44.1169 21.0836C44.4953 20.4288 44.699 20.1086 44.9901 19.6138H45.1501C45.4266 20.2978 45.7468 20.9672 45.9505 21.6657C46.6927 24.1688 46.4162 26.599 45.2083 28.9128C44.699 29.9024 44.1024 30.8338 43.5348 31.7942C42.9673 32.7547 42.4434 33.5987 41.9049 34.5155ZM45.2665 33.8898C44.6426 34.2681 43.9504 34.5203 43.2292 34.6319L45.9651 30.2808C46.7654 31.4886 46.4598 33.1185 45.2665 33.8898Z" fill="#161616"/>
<path d="M40.1732 25.6822C39.6198 25.9789 39.1686 26.4353 38.878 26.9919C38.3687 27.9233 37.1899 27.9233 36.6806 26.9774C36.3938 26.4217 35.9411 25.969 35.3855 25.6822C34.4687 25.1729 34.4541 23.9941 35.3855 23.4993C35.9566 23.2151 36.4172 22.7493 36.6952 22.1751C36.7897 21.9736 36.9401 21.8035 37.1283 21.6849C37.3166 21.5662 37.535 21.504 37.7575 21.5056C38.2523 21.5202 38.6452 21.7239 38.8635 22.146C39.1509 22.7341 39.6204 23.2139 40.2023 23.5139C41.1191 24.0232 41.09 25.1874 40.1732 25.6822Z" fill="#161616"/>
<path d="M19.7707 16.2377H20.12C20.5129 16.2522 20.7603 16.4851 20.7748 16.8343C20.7894 17.1836 20.5856 17.431 20.1927 17.4892C19.7782 17.5161 19.3653 17.5647 18.9558 17.6347C18.077 17.8234 17.2516 18.2062 16.5401 18.7552C16.3945 18.8571 16.2054 19.0172 16.0598 18.9881C15.8179 18.9551 15.5958 18.8363 15.4341 18.6534C15.2304 18.3769 15.3613 18.0858 15.6233 17.8675C16.5794 17.0929 17.7156 16.5723 18.9267 16.3541L19.7707 16.2377Z" fill="#161616"/>
<path d="M15.0412 20.1522C15.0412 20.2337 15.0249 20.3144 14.9933 20.3896C14.9617 20.4647 14.9154 20.5327 14.857 20.5897C14.7987 20.6466 14.7296 20.6913 14.6538 20.7212C14.578 20.751 14.4969 20.7654 14.4154 20.7634C14.2495 20.7634 14.0903 20.6975 13.973 20.5802C13.8556 20.4628 13.7897 20.3037 13.7897 20.1377C13.7972 19.973 13.8679 19.8175 13.9872 19.7036C14.1065 19.5898 14.2651 19.5263 14.43 19.5265C14.5934 19.5303 14.7489 19.5979 14.8631 19.7148C14.9773 19.8318 15.0412 19.9888 15.0412 20.1522Z" fill="#161616"/>
</svg>
