<svg width="60" height="60" viewBox="0 0 60 60" fill="none" xmlns="http://www.w3.org/2000/svg">
<rect width="60" height="60" rx="30" fill="#161616"/>
<path d="M29.9123 17.9523C30.537 17.3412 31.0597 16.7446 31.6461 16.2207C33.4053 14.6492 35.3686 13.6743 37.6378 13.7471C38.3772 13.7616 39.1038 13.9508 39.8305 14.0963C40.0344 14.1399 40.1364 14.1108 40.2257 13.9362L40.6846 13.0195C40.9651 12.3793 41.4113 12.001 42.0359 12.001C42.326 11.9883 42.6127 12.076 42.8584 12.2526C43.1041 12.4292 43.2973 12.6863 43.4127 12.9904C43.8328 14.0899 44.5963 14.9716 45.5544 15.4641C45.8223 15.5866 46.0505 15.8005 46.2079 16.0766C46.3653 16.3526 46.4443 16.6773 46.4341 17.0065C46.4341 17.734 46.1026 18.2433 45.5544 18.578L45.172 18.8108C45.427 19.4801 45.6947 20.1058 45.8986 20.7606C46.7018 23.3798 46.6125 25.9699 45.7074 28.5309C45.6739 28.624 45.6587 28.7245 45.6631 28.8251C45.6675 28.9257 45.6914 29.024 45.7329 29.1129C46.0006 29.8259 46.3066 30.5389 46.4341 31.2955C46.7018 32.867 46.1409 34.0748 44.9935 34.9333C44.2031 35.5299 43.3108 35.8063 42.3929 35.9518C42.1124 35.9955 41.9722 36.1119 41.8829 36.4029C41.5411 37.4611 41.36 38.5782 41.3475 39.706C41.322 41.2047 41.2328 42.6744 40.7611 44.1004C40.3786 45.2208 39.8687 46.2394 39.0273 47.0106C38.1961 47.7586 37.1403 48.1032 36.0883 47.9698C35.0362 47.8364 34.0724 47.2357 33.4053 46.2976C32.5895 45.119 32.1815 43.7075 31.8373 42.2815C31.5441 41.0738 31.2509 39.8515 30.9449 38.6292C30.8736 38.3694 30.7751 38.1202 30.6517 37.8871C30.2565 37.1159 29.6956 37.1159 29.3259 37.9017C29.1157 38.3501 28.9489 38.8234 28.8287 39.3131C28.4973 40.6373 28.2296 41.9905 27.8471 43.3146C27.6041 44.1794 27.2747 45.0094 26.8655 45.7883C25.3867 48.6257 21.7662 48.8003 20.0452 45.9193C19.1783 44.4787 18.7831 42.8636 18.6811 41.1465C18.6174 40.1716 18.6046 39.1822 18.5026 38.2218C18.3497 36.7521 17.7887 35.4426 17.1258 34.2057C16.4629 32.9689 15.6088 31.4701 14.9076 30.0587C13.9643 28.1962 13.4416 26.1736 13.5436 24.0055C13.5946 23.1324 13.773 22.2739 13.8878 21.4154C13.9208 21.2307 13.9075 21.039 13.8495 20.8625C13.1866 19.1309 13.3141 16.73 15.5833 15.5659C16.4629 15.1149 17.4063 14.9111 18.3624 14.7947C18.4857 14.7851 18.6066 14.7507 18.7194 14.6929C21.9192 13.0341 24.9278 13.5434 27.7706 15.7551C28.4718 16.308 29.0837 17.0065 29.7211 17.6613C29.7996 17.7444 29.8644 17.843 29.9123 17.9523ZM38.9891 15.1585C38.8 15.1072 38.6084 15.0683 38.4154 15.0421C38.1477 15.013 37.8672 14.9839 37.5995 14.9839C34.7694 15.0276 32.615 16.6136 30.7537 18.8836C30.7286 18.92 30.7119 18.9632 30.7052 19.0089C30.6986 19.0547 30.7021 19.1017 30.7155 19.1455C31.1489 20.2659 31.8246 21.0226 32.9209 21.1972C33.2035 21.2485 33.4889 21.2777 33.7751 21.2845C34.1448 21.3136 34.3742 21.5755 34.3742 21.9393C34.3742 22.303 34.1193 22.5504 33.7368 22.5359C31.9266 22.5359 30.537 21.721 29.7593 19.7712C29.6689 19.545 29.5578 19.3304 29.4279 19.1309C28.6984 18.1765 27.8627 17.3351 26.942 16.6282C25.2847 15.4059 23.4872 14.7656 21.5112 15.0567C18.8086 15.4641 16.8836 17.1665 15.6215 19.8585C14.9841 21.2263 14.9714 20.8334 15.7618 22.0993C16.8964 23.9036 18.4006 25.3151 19.9814 26.5956C23.9716 29.8113 28.357 32.0813 33.0611 33.5946C35.6363 34.424 38.2624 34.9769 40.9651 34.8605C41.22 34.8605 41.3348 34.7441 41.4495 34.5113C41.9212 33.5946 42.4056 32.6924 42.8773 31.7903C43.349 30.8881 43.8972 29.8986 44.3434 28.9237C45.4015 26.6101 45.6437 24.1801 44.9935 21.6628C44.815 20.9643 44.5346 20.295 44.2924 19.6111H44.1521C43.8972 20.1058 43.6295 20.586 43.3872 21.0808C43.145 21.5755 42.5841 22.0702 41.9212 22.012C41.6615 21.9945 41.411 21.8956 41.1974 21.7261C40.9837 21.5567 40.8151 21.3233 40.7101 21.0517C40.2853 19.9239 39.4951 19.0272 38.5047 18.5489L38.3644 18.447C38.1488 18.295 37.971 18.0824 37.8482 17.8294C37.7253 17.5764 37.6614 17.2916 37.6627 17.0024C37.664 16.7132 37.7304 16.4291 37.8555 16.1776C37.9806 15.9261 38.1602 15.7154 38.3772 15.5659L38.9891 15.1585ZM40.7611 36.1265H40.3786C38.6645 36.1343 36.9547 35.9294 35.2793 35.5153C31.4166 34.5841 27.7451 33.0271 24.2266 30.99C21.6132 29.4621 19.1273 27.6869 16.9473 25.3878C16.1824 24.573 15.4813 23.6708 14.7674 22.8123C14.7401 22.8916 14.7229 22.9749 14.7164 23.0597C14.7164 23.9764 14.6654 24.9077 14.7546 25.8244C14.9204 27.5705 15.6215 29.0838 16.3992 30.5534C16.9473 31.6011 17.5593 32.6197 18.1202 33.6673C18.6811 34.715 19.3568 36.2429 19.5352 37.7125C19.6755 38.8329 19.701 39.9679 19.7775 41.1029C19.8794 42.6162 20.1982 44.0422 21.0013 45.279C22.3016 47.3016 24.7238 47.2434 25.9349 45.1481C26.1979 44.7171 26.4081 44.2471 26.5595 43.7512C26.9675 42.2379 27.3117 40.6955 27.7324 39.1822C27.93 38.405 28.2172 37.6612 28.5865 36.9704C29.3004 35.7045 30.6517 35.7336 31.4039 36.9704C31.6459 37.3629 31.8349 37.7945 31.9648 38.2509C32.2708 39.3422 32.5257 40.4626 32.7934 41.5685C33.0611 42.6744 33.3799 44.0422 34.0173 45.119C34.6547 46.1957 35.751 46.8942 37.0386 46.6905C38.0075 46.5304 38.6704 45.8465 39.1676 44.9443C39.8942 43.6348 40.1492 42.1797 40.2257 40.6518C40.2639 39.6914 40.3149 38.7311 40.4169 37.7707C40.4806 37.2323 40.6336 36.7085 40.7611 36.1265ZM42.0359 13.165C41.8829 13.3396 41.7172 13.4415 41.6535 13.6161C41.1382 14.9268 40.2165 15.9738 39.0656 16.5554L38.9508 16.6427C38.6959 16.861 38.6959 17.1665 38.9508 17.3848C39.0568 17.4661 39.1676 17.539 39.2823 17.6031C40.2698 18.1356 41.0666 19.0399 41.5387 20.164C41.6407 20.426 41.7172 20.7606 42.0614 20.7606C42.4056 20.7606 42.4694 20.4114 42.5714 20.1495C43.0435 19.0339 43.835 18.1356 44.815 17.6031C44.9194 17.5544 45.0179 17.4908 45.1083 17.4139C45.427 17.1811 45.427 16.8319 45.1083 16.6136C44.7895 16.3953 44.6876 16.3371 44.4836 16.2062C43.7454 15.7524 43.142 15.0585 42.7498 14.2127C42.6351 13.9799 42.5331 13.7471 42.4056 13.5288C42.2781 13.3105 42.2017 13.3251 42.0359 13.165ZM42.6096 34.6277C43.2443 34.5294 43.853 34.2763 44.3944 33.8856C45.4397 33.129 45.7074 31.4992 45.0063 30.277C44.2159 31.7175 43.4382 33.1435 42.6096 34.6277ZM14.6654 19.1746C14.9204 18.7235 15.1626 18.2724 15.4303 17.8504C15.698 17.4285 16.0295 17.0356 16.3482 16.5845C15.2263 16.9337 14.4232 18.1851 14.6654 19.1746Z" fill="white"/>
<path d="M37.8121 21.5159C38.2455 21.5159 38.5897 21.7196 38.7809 22.1561C38.9722 22.5927 39.4311 23.1747 39.9538 23.5094C40.7569 24.0186 40.7314 25.1827 39.9283 25.692C39.4415 25.9788 39.0449 26.4314 38.7937 26.987C38.3475 27.9329 37.3149 27.9183 36.8687 26.9725C36.6174 26.4169 36.2209 25.9642 35.7341 25.6775C34.931 25.1827 34.9182 23.9895 35.7341 23.5094C36.2325 23.2153 36.6348 22.7459 36.8814 22.1707C36.9636 21.9697 37.0955 21.8006 37.2608 21.6842C37.4262 21.5678 37.6179 21.5093 37.8121 21.5159ZM39.4566 24.557C38.6407 24.2078 38.1818 23.5821 37.8121 22.7382C37.5316 23.6549 36.9579 24.1933 36.2313 24.6152C37.0217 24.9645 37.4934 25.5902 37.8631 26.4487C38.1563 25.5174 38.7044 24.9936 39.4566 24.557Z" fill="white"/>
<path d="M22.0621 16.2496C22.1632 16.2303 22.266 16.2254 22.3681 16.235C22.7123 16.2496 22.929 16.4678 22.9418 16.8171C22.9545 17.1663 22.776 17.4137 22.4318 17.4719C22.0876 17.5301 21.7052 17.5446 21.3482 17.6174C20.5784 17.806 19.8554 18.1888 19.232 18.7378C19.1045 18.8396 18.9388 18.9997 18.8113 18.9852C18.5983 18.9459 18.4042 18.8223 18.2632 18.6359C18.0847 18.3595 18.1994 18.0684 18.4289 17.8502C19.2675 17.0803 20.2629 16.5648 21.3227 16.3514C21.5673 16.2984 21.8141 16.2595 22.0621 16.235V16.2496Z" fill="white"/>
<path d="M17.9128 20.1503C17.9128 20.2318 17.8985 20.3125 17.8708 20.3876C17.8431 20.4627 17.8025 20.5308 17.7515 20.5877C17.7004 20.6447 17.6398 20.6894 17.5734 20.7192C17.507 20.7491 17.436 20.7634 17.3646 20.7615C17.2926 20.7615 17.2213 20.7453 17.1548 20.7139C17.0883 20.6824 17.0279 20.6363 16.977 20.5782C16.9261 20.5201 16.8857 20.4511 16.8581 20.3752C16.8306 20.2993 16.8164 20.218 16.8164 20.1358C16.8181 19.9698 16.8775 19.8115 16.9815 19.6955C17.0855 19.5795 17.2256 19.5154 17.371 19.5174C17.5163 19.5193 17.6551 19.5871 17.7567 19.7058C17.8583 19.8245 17.9144 19.9844 17.9128 20.1503Z" fill="white"/>
</svg>
