<svg width="40" height="40" viewBox="0 0 40 40" fill="none" xmlns="http://www.w3.org/2000/svg">
<path d="M23.3783 15.4596C22.8766 14.8866 22.5995 14.1513 22.5983 13.3896H20.3283V22.4996C20.3057 22.9906 20.0985 23.4549 19.7483 23.7996C19.5057 24.0334 19.2055 24.1988 18.8784 24.2791C18.5512 24.3594 18.2086 24.3517 17.8853 24.2568C17.5621 24.162 17.2696 23.9833 17.0377 23.7389C16.8058 23.4946 16.6427 23.1932 16.5648 22.8655C16.487 22.5377 16.4972 22.1952 16.5945 21.8726C16.6918 21.5501 16.8726 21.259 17.1187 21.0289C17.3648 20.7989 17.6673 20.638 17.9957 20.5626C18.324 20.4872 18.6665 20.5 18.9883 20.5996V18.2796C18.3971 18.1999 17.7958 18.2473 17.2244 18.4187C16.6531 18.5901 16.1249 18.8815 15.6753 19.2734C15.2256 19.6653 14.8648 20.1487 14.617 20.6913C14.3692 21.2339 14.24 21.8232 14.2383 22.4196C14.2383 24.8696 16.2683 26.6096 18.4183 26.6096C19.5278 26.607 20.591 26.1644 21.3746 25.3789C22.1582 24.5934 22.5983 23.5292 22.5983 22.4196V17.8096C23.5195 18.4695 24.6251 18.8229 25.7583 18.8196V16.5496C25.3068 16.5479 24.861 16.4498 24.4505 16.2618C24.0401 16.0738 23.6745 15.8003 23.3783 15.4596Z" fill="white"/>
<path d="M20 1.2C22.5147 1.19614 25.0043 1.69951 27.32 2.68C31.8212 4.59452 35.4055 8.17877 37.32 12.68C38.2969 14.9968 38.8002 17.4857 38.8002 20C38.8002 22.5143 38.2969 25.0032 37.32 27.32C35.4055 31.8212 31.8212 35.4055 27.32 37.32C25.0032 38.2969 22.5143 38.8002 20 38.8002C17.4857 38.8002 14.9968 38.2969 12.68 37.32C8.17878 35.4055 4.59453 31.8212 2.68001 27.32C1.70311 25.0032 1.19982 22.5143 1.19982 20C1.19982 17.4857 1.70311 14.9968 2.68001 12.68C4.59453 8.17877 8.17878 4.59452 12.68 2.68C14.9957 1.69951 17.4853 1.19614 20 1.2ZM20 2.50273e-06C16.0444 2.50273e-06 12.1776 1.17298 8.8886 3.37061C5.59962 5.56824 3.03617 8.69181 1.52242 12.3463C0.00866565 16.0009 -0.387401 20.0222 0.384303 23.9018C1.15601 27.7814 3.06082 31.3451 5.85787 34.1421C8.65492 36.9392 12.2186 38.844 16.0982 39.6157C19.9778 40.3874 23.9991 39.9913 27.6537 38.4776C31.3082 36.9638 34.4318 34.4004 36.6294 31.1114C38.827 27.8224 40 23.9556 40 20C40.0013 17.3732 39.4849 14.7719 38.4803 12.3448C37.4756 9.91767 36.0025 7.71237 34.1451 5.85493C32.2876 3.9975 30.0823 2.52436 27.6552 1.51973C25.2281 0.515106 22.6268 -0.00131189 20 2.50273e-06Z" fill="white"/>
</svg>
