<svg width="32" height="28" viewBox="0 0 32 28" fill="none" xmlns="http://www.w3.org/2000/svg">
<path d="M27.686 8.41301C27.7023 9.84756 27.3931 11.4256 26.9212 12.9677C26.4101 14.5883 26.0982 16.2769 25.9937 17.9887C25.8937 19.9904 25.2087 21.9027 24.041 23.44C23.6733 23.956 23.1991 24.3679 22.6579 24.6414C21.7141 25.1077 20.9005 24.7311 20.5751 23.6552C20.3635 22.9738 20.3798 22.2744 20.4612 21.5571C20.5425 20.8399 20.6076 20.3557 20.5262 19.7639C20.4937 19.5129 20.4774 19.2439 20.2171 19.1543C19.9567 19.0646 19.794 19.2798 19.6475 19.4591C19.0455 20.2122 18.8177 21.1268 18.7526 22.0951C18.6875 23.0634 18.8177 23.978 18.9804 24.9104C19.088 25.3789 19.1319 25.8623 19.1106 26.345C19.0129 27.403 18.3132 28.0664 17.3532 27.9947C16.3931 27.923 15.2866 27.2954 14.5218 26.3988C12.7969 24.3725 11.902 21.9875 11.9671 19.1901C11.994 18.4585 11.9559 17.7258 11.8531 17.0024C11.7606 16.3806 11.5377 15.7912 11.2023 15.2809C10.0795 13.5953 9.00551 11.8918 8.24072 9.97309C7.70373 8.59233 7.28065 7.15777 7.45965 5.63355C7.899 2.06509 10.1608 -0.33779 13.7245 0.0387816C15.4018 0.245865 16.9978 0.945689 18.3458 2.06509C18.4215 2.14854 18.5208 2.2011 18.6273 2.21414C18.7337 2.22717 18.841 2.19991 18.9316 2.13682C19.9463 1.5706 21.052 1.22941 22.186 1.13263C24.6757 0.95331 26.4981 2.352 27.2629 4.988C27.5721 6.02806 27.686 7.10397 27.686 8.41301Z" fill="white"/>
<path d="M12.8061 26.4346C11.4344 26.2582 10.0985 25.8341 8.85194 25.1794C7.81052 24.6055 6.883 23.8883 6.1833 22.8482C4.84897 20.8757 4.76761 18.7418 5.61377 16.5182C6.13448 15.1375 6.96436 13.9898 7.90815 12.9139C8.07087 12.7346 8.15223 12.7884 8.24987 12.9856C8.83567 14.0616 9.50283 15.0837 10.17 16.1058C10.5443 16.6617 10.6419 17.3252 10.6744 17.9887C10.707 18.6521 10.6907 19.3336 10.707 20.015C10.7721 22.2385 11.4555 24.229 12.6271 26.0401C12.7211 26.149 12.7835 26.2864 12.8061 26.4346Z" fill="white"/>
<path d="M25.6016 23.5663C26.1516 22.5606 26.5835 21.482 26.8871 20.3565C27.1423 19.4003 27.2845 18.4119 27.3101 17.4156C27.3264 15.9631 27.7658 14.6003 28.1563 13.2375C28.5468 11.8746 28.8397 10.6194 28.9211 9.23865C28.9374 8.91588 29.0513 8.96967 29.2303 9.11313C31.8826 10.996 32.7125 14.2237 31.3619 17.3798C30.5809 19.2268 29.3442 20.6972 27.8959 21.9524C27.1828 22.5747 26.4141 23.1155 25.6016 23.5663Z" fill="white"/>
<path d="M5.68065 10.7081C4.80195 10.7081 4.23242 11.3357 4.21615 12.304V12.6627C4.19987 12.824 4.11851 12.9316 3.97206 12.9137C3.91596 12.9137 3.86215 12.8892 3.82248 12.8454C3.78281 12.8017 3.76052 12.7424 3.76052 12.6806C3.75238 12.5193 3.75238 12.3577 3.76052 12.1964C3.7584 11.9986 3.72094 11.8032 3.65028 11.6213C3.57961 11.4395 3.47714 11.2748 3.3487 11.1365C3.22026 10.9983 3.06837 10.8894 2.90172 10.8158C2.73506 10.7423 2.55689 10.7057 2.37739 10.7081H1.97058C1.93924 10.7082 1.90823 10.7011 1.87947 10.6874C1.85072 10.6737 1.82484 10.6536 1.80346 10.6283C1.78207 10.6031 1.76565 10.5732 1.75521 10.5407C1.74476 10.5081 1.74053 10.4735 1.74277 10.4391C1.74262 10.3755 1.76438 10.3142 1.80364 10.2676C1.84291 10.221 1.89675 10.1926 1.95431 10.1881H2.29603C3.191 10.1881 3.74425 9.57836 3.76052 8.57417V8.34106C3.76052 8.16174 3.7768 7.98242 4.00461 7.98242C4.23242 7.98242 4.21615 8.16174 4.21615 8.32313V8.77143C4.23288 9.1536 4.38253 9.51399 4.63402 9.77778C4.88552 10.0416 5.21954 10.1885 5.56674 10.1881H5.92473C6.08745 10.1881 6.2339 10.2598 6.21763 10.457C6.20136 10.6543 6.08745 10.7081 5.941 10.7081H5.68065Z" fill="white"/>
<path d="M1.56309 7.46158C1.52977 7.45768 1.49868 7.44131 1.47499 7.41521C1.4513 7.3891 1.43645 7.35483 1.43291 7.31812C1.41948 7.2474 1.41401 7.17513 1.41664 7.10294C1.40037 6.296 1.05865 5.91943 0.342672 5.9015C0.212494 5.9015 0.0172264 5.95529 0.000954147 5.74011C-0.0153181 5.52493 0.179949 5.54286 0.326399 5.52492C1.07492 5.48906 1.38409 5.13042 1.41664 4.26969C1.43291 4.14416 1.40037 3.96484 1.57936 3.96484C1.75835 3.96484 1.75835 4.14416 1.75835 4.28762C1.7909 5.16629 2.0838 5.47113 2.89741 5.52492C3.01132 5.54286 3.17404 5.52492 3.17404 5.72218C3.17404 5.91943 3.01132 5.9015 2.89741 5.9015C2.05125 5.95529 1.83972 6.20634 1.75835 7.17467C1.74208 7.31812 1.72581 7.44364 1.56309 7.46158Z" fill="white"/>
</svg>
