<svg width="32" height="32" viewBox="0 0 32 32" fill="none" xmlns="http://www.w3.org/2000/svg">
<g clip-path="url(#clip0_929_8107)">
<path d="M26.5161 10.5721C24.9515 6.38692 20.1763 5.12163 16.8842 7.55487C16.216 8.04152 15.7597 8.00908 15.0426 7.50621C14.3381 6.98115 13.5258 6.61731 12.6637 6.44066C11.8017 6.26401 10.9111 6.27889 10.0555 6.48425C7.07303 7.18178 5.01953 9.90701 5.01953 13.5407C5.0353 14.3762 5.21941 15.2002 5.56095 15.9637C5.90248 16.7271 6.3945 17.4146 7.00784 17.9854C8.01829 18.9749 8.45833 20.0942 8.45833 21.4893C8.45833 23.9712 9.46878 26.0475 11.2615 27.7508C11.7505 28.205 12.3046 28.4159 12.9402 28.1239C13.5758 27.8319 13.7551 27.3128 13.804 26.6477C13.9017 25.2851 14.0158 23.9225 14.2277 22.5923C14.3507 21.6591 14.6972 20.7689 15.2381 19.9969C15.7597 19.2507 16.2649 19.2344 16.7701 19.9969C17.0524 20.4588 17.2872 20.948 17.4709 21.4568C18.0576 23.1276 18.2043 24.8796 18.2043 26.6477C18.2043 27.329 18.4325 27.8481 19.0681 28.1239C19.7037 28.3997 20.2578 28.205 20.7467 27.7508C22.6047 25.9989 23.5662 23.8576 23.5662 21.3108C23.5522 20.7162 23.6623 20.1252 23.8895 19.5752C24.1167 19.0251 24.4562 18.5279 24.8863 18.1152C27.0213 15.9577 27.5592 13.3784 26.5161 10.5721ZM11.4082 9.84212C9.87622 9.95567 8.84947 10.9776 8.70279 12.5187C8.6865 12.8431 8.60501 13.1513 8.24646 13.2C8.01824 13.2071 7.79617 13.1257 7.62715 12.9729C7.51307 12.8593 7.51307 12.616 7.46418 12.4214C7.59456 10.4099 9.3384 8.69039 11.343 8.65794C11.8156 8.64172 12.0764 8.83638 12.0927 9.20948C12.109 9.58258 11.8645 9.80968 11.4082 9.84212Z" fill="#100E10"/>
<path d="M31.5389 27.475C31.2129 27.3939 30.8707 27.329 30.5447 27.2317C30.1952 27.1441 29.8753 26.9659 29.6176 26.7151C29.36 26.4643 29.1737 26.15 29.078 25.8042C28.9802 25.4635 28.915 25.1229 28.8172 24.7822C28.7938 24.6404 28.7201 24.5117 28.6094 24.4194C28.4988 24.3272 28.3585 24.2774 28.2142 24.2793C28.076 24.2779 27.942 24.3265 27.8371 24.416C27.7322 24.5055 27.6635 24.6299 27.6438 24.766L27.3993 25.7231C27.3124 26.0828 27.1283 26.4121 26.8669 26.6752C26.6055 26.9382 26.2767 27.1251 25.9162 27.2155C25.5903 27.3128 25.2317 27.3452 24.9221 27.4912C24.703 27.6126 24.5353 27.8084 24.4494 28.0428C24.3679 28.351 24.6124 28.5781 24.9221 28.6592L25.8347 28.8701C26.2211 28.9581 26.5739 29.1548 26.8512 29.4366C27.1286 29.7184 27.3188 30.0735 27.3993 30.4598C27.4613 30.7797 27.5485 31.0943 27.6601 31.4006C27.7578 31.5953 27.9697 31.7413 28.2305 32.0008C28.4749 31.7413 28.6868 31.5791 28.7846 31.3682C28.8928 31.0731 28.9746 30.7692 29.0291 30.4598C29.1184 30.0625 29.3214 29.6995 29.6135 29.4145C29.9056 29.1296 30.2743 28.9348 30.6751 28.8538L31.5389 28.643C31.6709 28.6118 31.7886 28.5372 31.8727 28.4312C31.9569 28.3252 32.0027 28.1941 32.0027 28.059C32.0027 27.9239 31.9569 27.7928 31.8727 27.6868C31.7886 27.5808 31.6709 27.5062 31.5389 27.475ZM28.2142 28.935L27.3015 28.059L28.2468 27.1668L29.1105 28.0265L28.2142 28.935Z" fill="#100E10"/>
<path d="M7.12288 3.15788L6.21022 2.93078C5.82214 2.85065 5.46533 2.66131 5.1822 2.38526C4.89908 2.1092 4.70153 1.75804 4.61305 1.3735C4.55105 1.05356 4.46386 0.738974 4.35229 0.432647C4.29821 0.324421 4.22664 0.225777 4.14042 0.140658C4.09239 0.0946204 4.03568 0.0585009 3.97356 0.034382C3.91144 0.0102631 3.84514 -0.00137815 3.77848 0.000129831C3.71181 0.00163781 3.64611 0.0162647 3.58516 0.0431678C3.5242 0.0700709 3.4692 0.108718 3.42332 0.15688C3.33854 0.243208 3.26713 0.341616 3.21145 0.44887C3.10325 0.755003 3.02147 1.06976 2.96699 1.38972C2.8794 1.75792 2.69162 2.09499 2.42426 2.36397C2.15689 2.63295 1.82027 2.82344 1.45131 2.91456L0.538642 3.14166C0.212689 3.22277 -0.0154772 3.40121 0.0008204 3.75808C0.017118 4.11496 0.212689 4.26095 0.522344 4.34206L1.38612 4.55294C2.24989 4.76382 2.77142 5.31536 2.98329 6.15888L3.21145 7.0673C3.29294 7.35929 3.52111 7.57017 3.81447 7.50528C4.04427 7.42575 4.23603 7.2638 4.35229 7.05107C4.49897 6.75908 4.53156 6.40221 4.62935 6.07778C4.71264 5.70932 4.89929 5.37195 5.16759 5.1049C5.4359 4.83784 5.77484 4.65207 6.14503 4.56916C6.47098 4.47183 6.81323 4.45561 7.09029 4.30962C7.31436 4.18674 7.48327 3.98384 7.56292 3.74186C7.62811 3.46609 7.41624 3.23899 7.12288 3.15788ZM3.78187 4.63405L2.9018 3.75808L3.79817 2.86589L4.67824 3.75808L3.78187 4.63405Z" fill="#100E10"/>
<path d="M29.6134 19.9801C29.6134 19.7435 29.7079 19.5165 29.876 19.3492C30.0441 19.1819 30.2721 19.0879 30.5098 19.0879C30.7478 19.0919 30.9752 19.1867 31.145 19.3527C31.3148 19.5187 31.4142 19.7433 31.4225 19.9801C31.4225 20.1008 31.3984 20.2202 31.3515 20.3315C31.3046 20.4428 31.2359 20.5437 31.1494 20.6282C31.0629 20.7128 30.9604 20.7794 30.8478 20.8241C30.7352 20.8687 30.6147 20.8906 30.4935 20.8885C30.3758 20.8864 30.2596 20.8612 30.1517 20.8144C30.0438 20.7676 29.9461 20.7001 29.8644 20.6157C29.7827 20.5314 29.7185 20.4318 29.6754 20.3228C29.6323 20.2137 29.6113 20.0972 29.6134 19.9801Z" fill="#100E10"/>
<path d="M14.1307 3.72638C14.0123 3.72646 13.8951 3.70278 13.7862 3.65674C13.6772 3.6107 13.5787 3.54326 13.4966 3.45846C13.4144 3.37365 13.3503 3.27321 13.308 3.16316C13.2657 3.05311 13.2462 2.93571 13.2506 2.81797C13.2548 2.58265 13.3506 2.35813 13.5178 2.19171C13.685 2.02528 13.9105 1.92995 14.147 1.92578C14.269 1.92789 14.3894 1.95391 14.5013 2.00234C14.6132 2.05076 14.7144 2.12066 14.7991 2.20803C14.8839 2.2954 14.9505 2.39853 14.9952 2.51154C15.0399 2.62454 15.0618 2.74521 15.0596 2.86664C15.0554 2.98382 15.0281 3.09904 14.9791 3.20569C14.9301 3.31234 14.8605 3.40834 14.7742 3.48819C14.6879 3.56804 14.5867 3.63017 14.4763 3.67104C14.3658 3.71192 14.2484 3.73072 14.1307 3.72638Z" fill="#100E10"/>
<path d="M4.71021 23.2401C4.4709 23.2445 4.23942 23.1551 4.06566 22.9913C3.8919 22.8274 3.78976 22.6022 3.78125 22.3641C3.78125 22.1189 3.87912 21.8837 4.05334 21.7103C4.22755 21.5369 4.46384 21.4395 4.71021 21.4395C4.94943 21.4437 5.17741 21.5413 5.34506 21.7112C5.51271 21.8811 5.60662 22.1097 5.60658 22.3479C5.60658 22.5845 5.51215 22.8114 5.34404 22.9787C5.17594 23.1461 4.94795 23.2401 4.71021 23.2401Z" fill="#100E10"/>
</g>
<defs>
<clipPath id="clip0_929_8107">
<rect width="32" height="32" fill="white"/>
</clipPath>
</defs>
</svg>
