<svg width="40" height="40" viewBox="0 0 40 40" fill="none" xmlns="http://www.w3.org/2000/svg">
<path d="M20 40C31.0457 40 40 31.0457 40 20C40 8.95431 31.0457 0 20 0C8.95431 0 0 8.95431 0 20C0 31.0457 8.95431 40 20 40Z" fill="#100E10"/>
<path d="M22.3194 22.7102H17.7294C17.7494 22.0402 17.4194 21.4102 17.7294 20.7302C17.8194 20.5302 17.7094 20.1902 17.5994 19.9602C17.3094 19.4002 16.9794 18.8702 16.6494 18.3302C16.4694 18.0302 16.4894 17.7702 16.7294 17.5102C17.1294 17.0702 17.5394 16.6302 17.9194 16.1702C17.9894 16.0902 17.9794 15.9402 17.9994 15.8202C17.8894 15.8502 17.7394 15.8502 17.6694 15.9202C17.2294 16.3935 16.7994 16.8735 16.3794 17.3602C16.0794 17.7202 16.0694 18.0602 16.3194 18.5002L17.2794 20.1202C17.4794 20.4702 17.4394 20.7902 17.1494 20.9402C16.8594 21.0902 16.5794 20.9902 16.3894 20.7002C15.7294 19.7302 15.0794 18.7502 14.4294 17.7702C14.2294 17.4902 14.2494 17.2202 14.4494 16.9402C15.1694 15.9402 15.8694 14.9402 16.5794 13.9302C17.0194 13.3002 17.6394 13.0402 18.3894 13.1102C18.5468 13.1352 18.695 13.2007 18.8194 13.3002C19.5894 13.7802 20.3694 13.8102 21.1494 13.3502C21.425 13.1755 21.7478 13.0903 22.0737 13.1064C22.3996 13.1225 22.7125 13.2391 22.9694 13.4402C23.1516 13.5841 23.3131 13.7523 23.4494 13.9402C24.1494 14.9202 24.8294 15.9102 25.5394 16.8802C25.7794 17.2202 25.7894 17.5102 25.5494 17.8502C24.9094 18.7702 24.2994 19.7102 23.6794 20.6502C23.4194 21.0202 23.1494 21.1202 22.8594 20.9402C22.5694 20.7602 22.5394 20.4702 22.7694 20.0702C22.9994 19.6702 23.3894 19.0402 23.6894 18.5202C23.9894 18.0002 23.9494 17.7002 23.5894 17.2902C23.2294 16.8802 22.7694 16.3602 22.3494 15.9202C22.2794 15.8502 22.1294 15.8602 22.0194 15.8302C21.9094 15.8002 22.0194 16.0802 22.0894 16.1502C22.4694 16.6102 22.8694 17.0602 23.2794 17.5002C23.5394 17.7702 23.5594 18.0302 23.3694 18.3502C23.0394 18.8802 22.7294 19.4302 22.4094 19.9702C22.2094 20.3102 22.2294 20.6302 22.3794 20.9902C22.4594 21.1902 22.4394 21.4502 22.4294 21.6902C22.4194 21.9302 22.3594 22.3402 22.3194 22.7102Z" fill="white"/>
<path d="M17.4168 31.2703C17.5468 30.5303 17.6568 29.8203 17.7968 29.1103C17.8271 29.0011 17.8253 28.8855 17.7916 28.7773C17.7579 28.6692 17.6937 28.573 17.6068 28.5003C17.0868 28.0203 16.5968 27.5303 16.1068 27.0403C16.0268 26.9603 15.9368 26.8203 15.9668 26.7303C15.9968 26.6403 16.1468 26.5903 16.2568 26.5803C16.9568 26.4603 17.6568 26.3803 18.3568 26.2503C18.45 26.228 18.5378 26.1873 18.6151 26.1306C18.6924 26.074 18.7576 26.0025 18.8068 25.9203C19.1368 25.3103 19.4268 24.6803 19.7368 24.0603C19.8137 23.9551 19.9045 23.8609 20.0068 23.7803C20.1062 23.861 20.1937 23.9553 20.2668 24.0603C20.5868 24.7003 20.8868 25.3403 21.2268 25.9703C21.2691 26.0413 21.3255 26.1028 21.3926 26.151C21.4597 26.1992 21.5361 26.233 21.6168 26.2503C22.3168 26.3703 23.0168 26.4603 23.7168 26.5703C23.8368 26.5903 23.9468 26.6803 24.0668 26.7403C24.0121 26.8571 23.9451 26.9677 23.8668 27.0703C23.3868 27.5503 22.9068 28.0403 22.3968 28.5003C22.3089 28.5722 22.2441 28.6683 22.2103 28.7768C22.1765 28.8852 22.1753 29.0012 22.2068 29.1103C22.3368 29.7903 22.4568 30.4603 22.5568 31.1303C22.5768 31.2503 22.5168 31.3803 22.4968 31.5103C22.3811 31.4954 22.2671 31.4686 22.1568 31.4303C21.5168 31.1103 20.8968 30.7603 20.2568 30.4603C20.1762 30.4259 20.0895 30.4082 20.0018 30.4082C19.9142 30.4082 19.8275 30.4259 19.7468 30.4603C19.0968 30.7703 18.4568 31.1203 17.8168 31.4603C17.5868 31.5803 17.4168 31.5703 17.4168 31.2703Z" fill="white"/>
<path d="M9.61844 28.2702C9.74844 27.4902 9.86844 26.7702 10.0084 26.0402C10.0355 25.937 10.0319 25.8282 9.99815 25.727C9.96441 25.6258 9.90197 25.5366 9.81844 25.4702C9.30844 24.9902 8.81844 24.5002 8.32844 24.0102C8.25472 23.9155 8.19417 23.8112 8.14844 23.7002C8.26844 23.6502 8.36844 23.5502 8.48844 23.5302C9.17844 23.4202 9.86844 23.3402 10.5584 23.2102C10.7417 23.1663 10.9021 23.0558 11.0084 22.9002C11.3284 22.3102 11.6084 21.7002 11.9084 21.1102C11.9907 20.9762 12.088 20.8521 12.1984 20.7402C12.3084 20.8702 12.4484 20.9802 12.5184 21.1202C12.8184 21.7102 13.1184 22.2902 13.3884 22.8902C13.4984 23.1202 13.6384 23.2002 13.8884 23.2302C14.5484 23.3102 15.2084 23.4102 15.8784 23.5202C16.0084 23.5402 16.1384 23.6302 16.2684 23.6802C16.2104 23.81 16.1401 23.9339 16.0584 24.0502C15.5884 24.5202 15.1084 25.0002 14.6184 25.4502C14.5266 25.5191 14.4581 25.6146 14.4224 25.7237C14.3866 25.8328 14.3852 25.9503 14.4184 26.0602C14.5484 26.7202 14.6584 27.3802 14.7584 28.0402C14.7784 28.1702 14.7284 28.3202 14.7084 28.4602C14.5683 28.4435 14.4306 28.4099 14.2984 28.3602C13.7284 28.0702 13.1484 27.7802 12.5984 27.4602C12.3284 27.3102 12.1284 27.2902 11.8484 27.4502C11.2584 27.8002 10.6384 28.0902 10.0384 28.4102C9.81844 28.5302 9.64844 28.5502 9.61844 28.2702Z" fill="white"/>
<path d="M25.2167 28.2202C25.3367 27.5102 25.4267 26.8002 25.5767 26.1102C25.6467 25.8002 25.5667 25.6102 25.3367 25.4002C24.8467 24.9502 24.3767 24.4802 23.8967 24.0002C23.8267 23.9202 23.7367 23.7802 23.7567 23.7002C23.7767 23.6202 23.9367 23.5502 24.0367 23.5402C24.7567 23.4202 25.4767 23.3302 26.1867 23.2002C26.2671 23.1853 26.3434 23.1535 26.4106 23.1069C26.4778 23.0604 26.5344 23.0002 26.5767 22.9302C26.9067 22.3002 27.2067 21.6602 27.5267 21.0202C27.6036 20.915 27.6944 20.8208 27.7967 20.7402C27.8961 20.821 27.9836 20.9152 28.0567 21.0202C28.3767 21.6402 28.6667 22.2702 28.9967 22.8902C29.0998 23.051 29.2611 23.1656 29.4467 23.2102C30.1367 23.3402 30.8467 23.4202 31.5467 23.5402C31.6567 23.5502 31.8167 23.6202 31.8367 23.6902C31.8567 23.7602 31.7667 23.9202 31.6967 23.9902C31.1967 24.4902 30.7067 24.9802 30.1967 25.4502C30.1072 25.5233 30.0407 25.6207 30.0053 25.7307C29.9698 25.8407 29.9668 25.9586 29.9967 26.0702C30.1267 26.7402 30.2467 27.4102 30.3467 28.0902C30.3498 28.2154 30.3329 28.3403 30.2967 28.4602C30.1767 28.4402 30.0467 28.4502 29.9467 28.3902C29.3567 28.0902 28.7567 27.8002 28.1767 27.4602C27.8867 27.2902 27.6667 27.3202 27.3867 27.4702C26.8067 27.8002 26.2067 28.1002 25.6167 28.4102C25.3867 28.5302 25.2167 28.5502 25.2167 28.2202Z" fill="white"/>
<path d="M22.1472 10.9502C21.9872 11.4002 21.8872 11.9002 21.6472 12.3102C20.8872 13.6202 19.2572 13.6302 18.4172 12.3702C17.8272 11.4702 17.8572 10.1602 18.5072 9.29023C19.3272 8.19023 20.7472 8.20023 21.5572 9.30023C21.8972 9.76023 22.0472 10.2802 22.1472 10.9502Z" fill="white"/>
</svg>
