<svg width="40" height="40" viewBox="0 0 40 40" fill="none" xmlns="http://www.w3.org/2000/svg">
<path d="M19.8772 32C16.3545 31.9513 14.29 30.1217 13.1848 28.5937C12.4868 27.6394 11.9512 26.513 11.6115 25.2847C10.7366 23.7567 10.0535 21.7421 9.6007 19.2993C9.34295 17.9265 9.16848 16.5307 9.07882 15.1241C8.61276 14.6115 8.2786 13.9335 8.11947 13.1776C7.85853 12.0097 8.02738 10.7835 8.60298 9.72263C8.83985 9.27858 9.14717 8.90208 9.5053 8.61719C9.86343 8.33231 10.2645 8.1453 10.6828 8.06813C10.886 8.0286 11.0913 8.00908 11.2968 8.00973C11.8078 8.01644 12.315 8.12145 12.8011 8.32117C14.6891 8.85645 15.3568 11.1338 16.0091 13.3333L16.0245 13.382C16.3391 14.4428 16.6385 15.455 17.0682 16.2336C17.7743 17.4988 18.8488 18.2287 20.0077 18.2287C21.1666 18.2287 22.2334 17.4988 22.9471 16.2336C23.3846 15.4355 23.6302 14.3844 23.8911 13.2749V13.2555C24.4283 10.9684 24.9886 8.59367 27.3524 8.26277C27.7933 8.0949 28.2506 8.00644 28.7109 8C28.9424 8.00093 29.1735 8.02697 29.4016 8.07786C29.8043 8.16767 30.1887 8.35964 30.5315 8.64226C30.8744 8.92487 31.1688 9.29233 31.397 9.72263C31.9726 10.7737 32.1415 12 31.8805 13.1776C31.7213 13.9307 31.387 14.6055 30.9212 15.1144C30.7984 17.0998 30.3072 21.9173 28.3885 25.2847C28.048 26.5096 27.5125 27.6326 26.8152 28.5839C25.6947 30.1411 23.5995 31.9903 20.0077 31.9903L19.8772 32ZM11.2815 8.83698C10.3452 8.83698 9.62373 9.2944 9.13254 10.1995C8.64136 11.1046 8.52624 12.0292 8.74113 12.9635C8.88695 13.635 9.20929 14.2579 9.57768 14.5791L9.65443 14.6569C9.66813 14.669 9.67943 14.685 9.68742 14.7036C9.69541 14.7221 9.69988 14.7428 9.70047 14.764V14.8905C10.0151 20.7494 11.6575 24.0097 12.1564 24.8662L12.1717 24.8954L12.1871 24.9343L12.2024 24.9732C12.2945 25.3625 12.6706 26.6959 13.6453 28.0389C14.62 29.382 16.6078 31.163 19.9463 31.1825H20.1305C23.4153 31.1338 25.3186 29.4501 26.3317 28.0389C27.3447 26.6277 27.7131 25.2457 27.7745 24.983L27.7899 24.9343C27.7976 24.9246 27.7976 24.9051 27.8052 24.8954L27.8283 24.8564C28.3194 24.0097 29.9618 20.7786 30.2765 14.8905V14.764C30.2771 14.7428 30.2816 14.7221 30.2896 14.7036C30.2975 14.685 30.3088 14.669 30.3226 14.6569L30.3993 14.5888C30.7754 14.2482 31.0977 13.6253 31.2435 12.9635C31.4507 12.0389 31.3126 11.056 30.8444 10.1995C30.3763 9.34307 29.6241 8.84672 28.6802 8.84672C28.2747 8.84856 27.8715 8.92393 27.4829 9.07056H27.4138C25.4568 9.33333 24.9886 11.3479 24.4897 13.4891L24.4667 13.5572C24.2134 14.6667 23.9448 15.8151 23.446 16.7007C22.6094 18.1898 21.3508 19.0462 19.977 19.0462C18.6032 19.0462 17.3445 18.1898 16.5157 16.7007C16.0322 15.8248 15.6945 14.6959 15.3798 13.6156C14.7888 11.6107 14.1749 9.54745 12.6246 9.11922H12.5939C12.1709 8.93803 11.7279 8.84278 11.2815 8.83698ZM20 30.8127C17.4059 30.8127 15.3568 29.8102 13.9062 27.8346C13.2646 26.9673 12.7777 25.935 12.4787 24.8078C12.4787 24.7981 12.4711 24.7981 12.4711 24.7883L12.448 24.7202H12.4404C10.3912 21.2457 10.0382 15.6691 9.99211 14.5888V14.5693C9.98996 14.5326 9.98036 14.4971 9.96422 14.4664C9.94808 14.4357 9.92597 14.4108 9.90002 14.3942C9.59303 14.2287 9.19394 13.6448 9.01742 12.8662C8.88695 12.292 8.8409 11.3966 9.37046 10.4136C9.80025 9.61557 10.468 9.19708 11.2815 9.19708C11.6268 9.19912 11.9703 9.26134 12.3022 9.382L12.3559 9.40146C12.3653 9.40357 12.3742 9.40812 12.3822 9.41482C12.3901 9.42152 12.3968 9.43023 12.402 9.44039L12.4404 9.48905C12.8625 10.0146 13.062 10.618 13.039 11.2798C13.0083 12.3212 12.7704 12.8662 12.5248 13.2068C13.1234 13.4307 14.1979 13.9659 14.1135 15.7178C14.0444 17.0608 13.6837 17.5669 13.4841 17.8394H13.4688C13.9907 18.6375 14.4895 19.8248 13.96 20.9927C13.9458 21.0229 13.9355 21.0558 13.9293 21.09C14.0015 21.1706 14.0814 21.2392 14.1672 21.2944H14.1902C14.4205 21.4501 14.7274 21.6642 14.8272 22.1022C14.8963 22.3844 14.8579 22.6959 14.7044 23.0365C14.5509 23.3771 14.6123 23.5718 14.9347 23.9124C15.257 24.253 15.6254 24.6229 15.6254 25.4015C15.6254 26.5304 17.3829 27.7275 19.9923 27.7275C21.6961 27.7275 22.7399 27.2701 23.3232 26.8905C23.9065 26.5109 24.3669 25.8978 24.3669 25.4015C24.3669 24.6326 24.7584 24.2238 25.0423 23.9221L25.0577 23.9027C25.38 23.562 25.4798 23.4647 25.2956 23.0268C25.1114 22.5888 25.1037 22.3747 25.1728 22.0925C25.2726 21.6545 25.5795 21.4501 25.8098 21.2944L25.8328 21.2749C25.9096 21.2263 26.0477 21.129 26.0707 21.0706C26.0645 21.0363 26.0542 21.0035 26.04 20.9732C25.5105 19.8151 26.0093 18.6277 26.5312 17.8297H26.5235C26.3394 17.5864 25.9633 17.0706 25.8865 15.6983C25.8021 13.9465 26.8766 13.4209 27.4752 13.1873C27.2296 12.8467 26.9917 12.3114 26.961 11.2603C26.938 10.5888 27.1452 9.9854 27.5673 9.45985L27.6057 9.41119L27.6517 9.37226L27.7055 9.3528C28.0282 9.24067 28.3609 9.18179 28.6955 9.17762C29.5167 9.17762 30.1844 9.59611 30.6142 10.3844C31.1438 11.3577 31.0977 12.253 30.9672 12.837C30.7907 13.6253 30.3916 14.1995 30.0846 14.3747C30.0593 14.3898 30.0374 14.4129 30.0213 14.4419C30.0051 14.471 29.9952 14.5048 29.9925 14.5401C29.9925 14.5888 29.77 20.9343 27.5443 24.7007C27.5326 24.7133 27.5245 24.7304 27.5213 24.7494V24.7689C27.2297 25.9032 26.742 26.9406 26.0938 27.8054C24.6509 29.8005 22.6017 30.8127 20 30.8127ZM13.0927 24.5839C13.1004 24.6326 13.4151 25.9757 14.3667 27.2701C15.7021 29.0803 17.5901 29.9951 19.9923 29.9951C22.3945 29.9951 24.2979 29.0803 25.6179 27.2701C26.6156 25.927 26.8996 24.5839 26.8996 24.5742C26.925 24.4431 26.9721 24.3204 27.0378 24.2141C29.156 20.6326 29.3555 14.5791 29.3632 14.5207C29.3667 14.3319 29.4126 14.1483 29.4956 13.9914C29.5785 13.8345 29.695 13.7109 29.8314 13.635C29.9311 13.5766 30.2228 13.2165 30.3533 12.6326C30.4453 12.2141 30.476 11.5718 30.0846 10.871C29.6932 10.1703 29.3095 10.0146 28.7032 10.0146C28.4549 10.0174 28.2076 10.0566 27.9664 10.1314C27.8501 10.2777 27.7582 10.4522 27.6963 10.6445C27.6343 10.8368 27.6035 11.0429 27.6057 11.2506C27.6364 12.3309 27.9204 12.6423 28.0969 12.8273C28.2734 13.0122 28.3425 13.09 28.3425 13.3625C28.3425 13.635 28.0662 13.8394 27.7899 13.9367C27.1222 14.18 26.4698 14.5109 26.5312 15.6691C26.5926 16.8273 26.8229 17.0608 26.984 17.2847H26.9917C27.1299 17.4696 27.3831 17.82 27.0301 18.3455C26.4545 19.2117 26.3087 19.9611 26.5849 20.5742C26.7001 20.8273 26.7384 21.0706 26.6847 21.3041C26.608 21.6837 26.3317 21.8686 26.1091 22.0146H26.0938C25.9633 22.1119 25.8021 22.219 25.7791 22.3163C25.7561 22.4136 25.7561 22.4234 25.8482 22.6375C26.2933 23.6594 25.7944 24.1849 25.4644 24.5255H25.4568C25.1728 24.8175 25.0039 25.0122 25.0039 25.3917C25.0039 26.9197 23.2387 28.5353 19.977 28.5353C16.7152 28.5353 14.9654 26.9197 14.9654 25.3917C14.9654 25.0122 14.7658 24.7981 14.5202 24.5353H14.5125C14.1749 24.1946 13.676 23.6691 14.1211 22.6375C14.2132 22.4331 14.2056 22.3358 14.1979 22.3163C14.1902 22.2968 14.0137 22.1119 13.8755 22.0146H13.8679C13.6453 21.8686 13.369 21.6837 13.2846 21.3041C13.2407 21.0537 13.2765 20.7913 13.3844 20.5742C13.6607 19.9611 13.5148 19.2117 12.9469 18.3455C12.5939 17.8102 12.8471 17.4696 12.9853 17.2847C13.1234 17.0998 13.3997 16.7202 13.4458 15.6594C13.4918 14.5985 12.8548 14.1703 12.1871 13.927C11.9262 13.8394 11.6345 13.7324 11.6345 13.3528C11.6345 12.9732 11.7727 12.9343 11.8801 12.8175C11.9876 12.7007 12.3406 12.3212 12.3713 11.2409C12.3738 11.0346 12.3431 10.8298 12.281 10.639C12.219 10.4483 12.127 10.2755 12.0106 10.1314C11.7729 10.0492 11.5278 10.0066 11.2815 10.0049C10.6828 10.0049 10.2147 10.2968 9.90002 10.871C9.58535 11.4453 9.54698 12.2141 9.63908 12.6326C9.76187 13.2165 10.0535 13.5766 10.161 13.635C10.2962 13.7102 10.4119 13.8323 10.4947 13.9873C10.5776 14.1423 10.6242 14.3238 10.6291 14.511C10.6291 14.5791 10.8363 20.6326 12.9546 24.2141C13.0181 24.3171 13.0627 24.4368 13.085 24.5645L13.0927 24.5839Z" fill="#100E10"/>
<path d="M19.8747 31.8549C16.398 31.8063 14.3642 30.0058 13.2667 28.4973C12.5755 27.5548 12.0451 26.4415 11.7087 25.2272C10.8415 23.7089 10.1661 21.7041 9.70563 19.271C9.45173 17.8841 9.27731 16.4757 9.18375 15.0569C8.75396 14.6189 8.39325 13.9085 8.2244 13.1396C7.97114 12.0106 8.13998 10.833 8.69256 9.81113C8.91857 9.38072 9.21394 9.01593 9.55921 8.74081C9.90448 8.46569 10.2918 8.28649 10.6957 8.21502C11.5015 8.04957 12.269 8.25395 12.7755 8.45833C14.5945 8.97415 15.2622 11.2126 15.8992 13.3829C16.2215 14.4729 16.5285 15.5143 16.9736 16.3123C17.7027 17.6262 18.8079 18.3756 20.0052 18.3756C21.2024 18.3756 22.2999 17.6262 23.0367 16.3123C23.4895 15.4948 23.7351 14.434 23.996 13.305C24.5256 11.0569 25.0705 8.72111 27.3653 8.39994C27.8641 8.21502 28.6086 8.04957 29.3837 8.22476C29.7708 8.31012 30.1403 8.49378 30.47 8.76471C30.7997 9.03565 31.0828 9.38826 31.3024 9.8014C31.855 10.8233 32.0238 12.0009 31.7706 13.1396C31.6102 13.8838 31.2757 14.5489 30.8112 15.0471C30.7114 16.7114 30.2586 21.7722 28.2862 25.2175C27.9533 26.4339 27.4225 27.548 26.7282 28.4875C25.6231 30.0252 23.5509 31.8452 20.0052 31.8452L19.8747 31.8549ZM11.279 8.69191C10.5192 8.69191 9.64423 9.00334 9.03793 10.1226C8.55442 11.0082 8.4086 12.0301 8.62349 13.0033C8.78466 13.7041 9.11468 14.3464 9.51376 14.7065L9.59051 14.7746V14.9012C9.90518 20.8087 11.5629 24.0788 12.0695 24.9547L12.0848 24.9839L12.1002 25.0228C12.1923 25.4121 12.576 26.7746 13.566 28.1372C14.5561 29.4997 16.5745 31.3099 19.9514 31.3196H20.1356C23.4511 31.2807 25.3852 29.5678 26.4213 28.1372C27.0796 27.2419 27.5816 26.1807 27.8948 25.0228V24.9839L27.9178 24.9547C28.4167 24.0885 30.0744 20.8087 30.3891 14.9012V14.7746L30.4659 14.7065C30.8573 14.3464 31.195 13.7041 31.3484 13.0033C31.571 12.0301 31.4175 10.9985 30.934 10.1226C29.9133 8.25395 28.1558 8.67244 27.4497 8.93522H27.4036C25.3698 9.19799 24.8863 11.2613 24.3721 13.4608C24.1112 14.5703 23.8425 15.7284 23.3514 16.6141C22.5378 18.0642 21.3099 18.9012 19.9745 18.9012C18.6391 18.9012 17.4188 18.0642 16.6052 16.6141C16.1294 15.7576 15.7994 14.6481 15.4771 13.5678C14.8784 11.5338 14.2568 9.42184 12.6451 8.97415H12.6297C12.1936 8.79261 11.738 8.69741 11.279 8.69191ZM19.9975 30.6676C17.4341 30.6676 15.4157 29.6749 13.9881 27.7381C13.3517 26.8843 12.8698 25.8646 12.576 24.7503C12.5679 24.7091 12.555 24.6698 12.5376 24.6335C10.3273 20.8963 10.1047 14.6189 10.097 14.5508C10.0965 14.4885 10.0818 14.4277 10.0545 14.3759C10.0273 14.324 9.98871 14.2834 9.94355 14.2588C9.66726 14.1031 9.28352 13.5484 9.12235 12.8184C8.99955 12.2734 8.96118 11.417 9.46004 10.4827C9.9589 9.54836 11.0334 9.09094 12.269 9.51916L12.3227 9.54836L12.3611 9.58729C12.7602 10.0836 12.9444 10.6481 12.9214 11.271C12.8907 12.5362 12.5376 13.0131 12.3074 13.2759H12.3457C12.9137 13.49 14.0879 13.9085 13.9958 15.6992C13.9344 17.0131 13.5737 17.4802 13.3895 17.743L13.3204 17.8306L13.3665 17.9182C13.873 18.6773 14.3642 19.816 13.8577 20.9158C13.8254 20.9795 13.8093 21.0542 13.8116 21.1299C13.8347 21.2272 13.9881 21.3342 14.134 21.4316C14.2798 21.5289 14.6328 21.7819 14.7172 22.1518C14.8017 22.5216 14.7403 22.6676 14.6021 22.979C14.3642 23.5143 14.5331 23.6895 14.8631 24.0301C15.1931 24.3707 15.5077 24.7016 15.5077 25.4121C15.5077 26.5995 17.2192 27.8841 19.9898 27.8841C21.709 27.8841 22.7757 27.417 23.3667 27.0277C23.9577 26.6384 24.4795 25.9669 24.4795 25.4121C24.4795 24.7016 24.8403 24.3318 25.1242 24.0301C25.4082 23.7284 25.6231 23.5046 25.3928 22.9693C25.2547 22.6578 25.224 22.3853 25.2777 22.142C25.3314 21.8987 25.6384 21.5776 25.861 21.4316C26.0836 21.2856 26.1603 21.2175 26.1833 21.1201C26.1856 21.0445 26.1696 20.9697 26.1373 20.906C25.6308 19.816 26.1219 18.6676 26.6285 17.9085L26.6745 17.8306L26.6055 17.7333C26.4213 17.4802 26.0682 17.0033 25.9991 15.6895C25.907 13.8987 27.0813 13.4802 27.6492 13.2759L27.6876 13.2564C27.4573 13.0033 27.1043 12.5265 27.0736 11.2613C27.0506 10.6286 27.2425 10.0544 27.6492 9.55809L27.6799 9.50943L27.7336 9.48996C28.9616 9.07147 29.944 9.42184 30.5196 10.4729C31.0952 11.524 30.9801 12.2442 30.8573 12.799C30.6961 13.5289 30.3124 14.0934 30.0361 14.2394C29.9915 14.2661 29.9533 14.3071 29.925 14.3583C29.8967 14.4095 29.8795 14.4691 29.8749 14.5313C29.8749 14.5897 29.6677 20.8671 27.4497 24.6141C27.4284 24.6487 27.4127 24.6884 27.4036 24.7308C27.3883 24.799 27.0583 26.2783 25.9991 27.7089C24.5793 29.6749 22.5609 30.6676 19.9975 30.6676ZM11.279 9.87926C10.5038 9.87926 10.0587 10.3367 9.8054 10.7941C9.39864 11.5532 9.42934 12.2345 9.52911 12.6822C9.65958 13.305 9.97425 13.7041 10.1124 13.7722C10.2286 13.8382 10.3277 13.9445 10.3983 14.0788C10.4689 14.2131 10.5081 14.37 10.5115 14.5313C10.5115 14.5897 10.734 20.7114 12.86 24.3123C12.9119 24.4036 12.9509 24.5057 12.9751 24.6141C12.9751 24.6238 13.2897 26.0155 14.2798 27.3683C15.6305 29.198 17.5492 30.1323 19.9898 30.1323C22.4304 30.1323 24.3491 29.2077 25.6998 27.3683C26.6975 26.0252 26.9969 24.6627 27.0045 24.6043C27.0272 24.4983 27.0664 24.399 27.1197 24.3123C29.2532 20.7016 29.4681 14.58 29.4681 14.5216C29.4756 14.3603 29.5174 14.2046 29.589 14.0709C29.6606 13.9373 29.7594 13.8307 29.8749 13.7625C30.0054 13.6943 30.32 13.2856 30.4582 12.6724C30.5579 12.2248 30.5886 11.5435 30.1742 10.7941C29.8519 10.2004 29.1918 9.58729 27.9025 10.0058C27.6185 10.3853 27.4804 10.8038 27.488 11.2515C27.5264 12.3999 27.8334 12.7406 28.0176 12.9352C28.2018 13.1299 28.2248 13.1591 28.2248 13.3634C28.2248 13.5678 28.0176 13.7041 27.7567 13.8014C27.0736 14.0447 26.3522 14.4145 26.4136 15.6797C26.475 16.945 26.7436 17.1591 26.9048 17.3829C27.0659 17.6068 27.2348 17.8209 26.9431 18.2588C26.3368 19.1834 26.1833 19.9912 26.4827 20.653C26.5312 20.7431 26.5644 20.8449 26.5802 20.9522C26.5961 21.0594 26.5942 21.1696 26.5748 21.2759C26.5057 21.5873 26.2678 21.7527 26.0529 21.8987C25.838 22.0447 25.6998 22.142 25.6615 22.2978C25.6231 22.4535 25.6691 22.5411 25.7459 22.726C26.1526 23.6505 25.7229 24.0885 25.3852 24.4486C25.0475 24.8087 24.8863 24.9547 24.8863 25.4218C24.8863 26.8817 23.1672 28.4291 19.9745 28.4291C16.7818 28.4291 15.0703 26.8817 15.0703 25.4218C15.0703 24.9644 14.84 24.7211 14.5791 24.4486C14.3182 24.1761 13.8193 23.6505 14.2184 22.726C14.2951 22.5411 14.3258 22.3951 14.3028 22.2978C14.2798 22.2004 14.0879 22.0252 13.9191 21.8987C13.7502 21.7722 13.4586 21.5873 13.3972 21.2759C13.3761 21.1703 13.3728 21.0604 13.3873 20.9531C13.4019 20.8458 13.434 20.7435 13.4816 20.653C13.7886 19.9814 13.6351 19.1834 13.0288 18.2588C12.7372 17.8209 12.929 17.5678 13.0672 17.3829C13.2053 17.198 13.5046 16.799 13.5584 15.6797C13.6121 14.5605 12.8983 14.0447 12.2153 13.8014C11.9543 13.7041 11.7394 13.6262 11.7394 13.3634C11.7394 13.1007 11.8546 13.0423 11.9543 12.9352C12.0541 12.8282 12.4455 12.3999 12.4762 11.2515C12.4916 10.8038 12.3534 10.3853 12.0695 10.0155C11.8121 9.92439 11.5461 9.87854 11.279 9.87926Z" fill="#100E10"/>
</svg>
