<svg width="24" height="24" viewBox="0 0 24 24" fill="none" xmlns="http://www.w3.org/2000/svg">
<g clip-path="url(#clip0_1420_5674)">
<g clip-path="url(#clip1_1420_5674)">
<path d="M20.4144 1.28133C20.0214 1.28192 19.6306 1.35439 19.2542 1.49645H19.1872C17.2907 1.74898 16.8371 3.68507 16.3536 5.74274L16.3313 5.80822C16.0859 6.87447 15.8256 7.97813 15.3422 8.82926C14.5315 10.2603 13.3118 11.0834 11.9805 11.0834C10.6493 11.0834 9.42955 10.2603 8.62633 8.82926C8.15778 7.98748 7.83054 6.90253 7.52562 5.86433C6.95295 3.9376 6.35797 1.95475 4.85565 1.54321H4.8259C4.41596 1.36924 3.98676 1.2777 3.55413 1.27197C2.64678 1.27197 1.94768 1.71157 1.4717 2.5814C0.995713 3.45124 0.884155 4.33978 1.0924 5.23768C1.23371 5.88304 1.54607 6.48164 1.90306 6.79029L1.97743 6.86511C1.99033 6.8772 2.00099 6.89266 2.00869 6.91042C2.0164 6.92817 2.02095 6.94782 2.02205 6.968V7.08959C2.32698 12.7201 3.91855 15.8534 4.40197 16.6765L4.41685 16.7046L4.43172 16.742L4.4466 16.7794C4.53584 17.1535 4.90027 18.4349 5.8448 19.7256C6.78933 21.0163 8.71558 22.7279 11.9508 22.7466H12.1293C15.3124 22.6999 17.1569 21.0818 18.1386 19.7256C19.1203 18.3694 19.4773 17.0413 19.5368 16.7887L19.5516 16.742C19.5591 16.7326 19.5591 16.7139 19.5665 16.7046L19.5888 16.6671C20.0648 15.8534 21.6564 12.7482 21.9613 7.08959V6.968C21.9613 6.94751 21.9653 6.92733 21.9731 6.90935C21.9809 6.89136 21.9922 6.87615 22.0059 6.86511L22.0803 6.79964C22.4447 6.47228 22.7571 5.87369 22.8984 5.23768C23.0992 4.34914 22.9653 3.40447 22.5117 2.5814C22.058 1.75833 21.3291 1.28133 20.4144 1.28133ZM22.6307 5.11609C22.4596 5.87369 22.0729 6.42552 21.7754 6.59387C21.7498 6.60659 21.7278 6.6284 21.7119 6.65664C21.6961 6.68489 21.6871 6.71833 21.6861 6.75288C21.6861 6.79964 21.4705 12.8978 19.3137 16.5175C19.3065 16.5214 19.3005 16.528 19.2965 16.5364C19.2925 16.5447 19.2907 16.5545 19.2913 16.5643V16.583C19.0079 17.6726 18.5354 18.6693 17.908 19.5011C16.5098 21.4185 14.5241 22.3912 12.0028 22.3912C9.48161 22.3912 7.5033 21.4279 6.09767 19.5292C5.47453 18.697 5.00254 17.7045 4.71434 16.6204V16.6017L4.69203 16.5362H4.68459C2.69141 13.1971 2.34929 7.83783 2.30467 6.79964V6.78094C2.30259 6.74558 2.29327 6.71151 2.27764 6.68201C2.262 6.65251 2.24057 6.6286 2.21542 6.61258C1.91793 6.45358 1.5312 5.89239 1.36014 5.14415C1.23371 4.59232 1.18908 3.73183 1.70225 2.78717C2.11874 2.02022 2.76578 1.61804 3.55413 1.61804C3.88868 1.62138 4.22136 1.68115 4.54328 1.79575L4.59534 1.81445C4.61022 1.81445 4.62509 1.83316 4.63997 1.85186L4.67715 1.89863C5.0862 2.40369 5.27957 2.98359 5.25726 3.6196C5.22751 4.62037 4.99695 5.14415 4.75896 5.4715C5.33907 5.68663 6.38028 6.20105 6.29847 7.8846C6.23154 9.17532 5.88199 9.66168 5.68862 9.92357H5.67374C6.17948 10.6905 6.6629 11.8316 6.14973 12.954C6.13245 12.9806 6.12207 13.0132 6.11998 13.0475C6.19081 13.1235 6.26813 13.1894 6.35053 13.2439H6.37284C6.59596 13.3936 6.89345 13.5993 6.99014 14.0202C7.05707 14.2915 7.01988 14.5908 6.87114 14.9181C6.72239 15.2455 6.78189 15.4325 7.09426 15.7599C7.40662 16.0872 7.76361 16.4427 7.76361 17.1909C7.76361 18.2759 9.46674 19.4263 11.9954 19.4263C13.6465 19.4263 14.6579 18.9867 15.2232 18.6219C15.7884 18.2572 16.2346 17.6679 16.2346 17.1909C16.2346 16.452 16.6139 16.0592 16.8891 15.7692L16.904 15.7505C17.2164 15.4232 17.313 15.3296 17.1345 14.9088C16.956 14.4879 16.9486 14.2821 17.0155 14.0109C17.1122 13.59 17.4097 13.3936 17.6328 13.2439L17.6551 13.2252C17.7295 13.1784 17.8634 13.0849 17.8857 13.0288C17.8804 12.9956 17.8703 12.9639 17.856 12.9353C17.3428 11.8222 17.8262 10.6812 18.3319 9.91422H18.3245C18.146 9.68039 17.7816 9.18468 17.7072 7.86589C17.6254 6.18234 18.6666 5.67727 19.2467 5.4528C19.0087 5.12544 18.7782 4.61102 18.7484 3.60089C18.7261 2.95553 18.9269 2.37564 19.336 1.87057L19.3732 1.8238L19.4178 1.78639L19.4698 1.76769C19.7818 1.65548 20.1048 1.59881 20.4292 1.59933C21.225 1.59933 21.8721 2.00151 22.2886 2.75911C22.8017 3.69442 22.7571 4.5549 22.6307 5.11609Z" fill="#878687"/>
<path d="M23.3525 1.86103C23.1024 1.39643 22.7806 0.99974 22.4063 0.694476C22.032 0.389213 21.6127 0.181598 21.1734 0.0839457C20.9305 0.0272636 20.6841 -0.000916844 20.4371 -0.000231952C19.9686 0.00689012 19.5031 0.0950113 19.0538 0.261654C16.54 0.626424 15.945 3.15176 15.4169 5.38714L15.4021 5.45261V5.47132C15.1641 6.4721 14.9335 7.42611 14.5542 8.10889C13.9295 9.2032 13.0073 9.82985 12.0107 9.82985C11.0141 9.82985 10.077 9.2032 9.46714 8.10889C9.08041 7.41676 8.79779 6.48145 8.5003 5.49003L8.47799 5.42455V5.39649C7.85326 3.29205 7.13185 0.897664 5.13123 0.327126C4.6263 0.122945 4.09977 0.0157371 3.5694 0.00912113H3.55453C3.34024 0.00804858 3.12626 0.0299517 2.91493 0.0745927C2.4589 0.157875 2.02167 0.35974 1.63111 0.667319C1.24056 0.974897 0.905253 1.38144 0.646566 1.86103C0.0292747 2.99275 -0.156656 4.31154 0.125959 5.56485C0.288125 6.31636 0.60943 6.99844 1.05561 7.53835C1.14915 8.84898 1.31817 10.1494 1.56135 11.4292C2.00015 13.7956 2.6695 15.7691 3.53966 17.2936C3.88379 18.5125 4.42292 19.6298 5.12379 20.5765C6.23938 22.1104 8.32181 23.953 11.8768 23.9998H12.0181C15.6401 23.9904 17.7448 22.1385 18.8753 20.5765C19.5759 19.6332 20.1151 18.519 20.4594 17.303C22.2964 14.0668 22.8021 9.53055 22.9434 7.53835C23.3906 7.0031 23.7121 6.32366 23.8731 5.5742C24.1557 4.29283 23.9698 2.9834 23.3525 1.86103ZM23.5161 5.44326C23.3589 6.16537 23.0355 6.81292 22.5864 7.30452C22.4675 9.21255 21.9915 13.8423 20.1322 17.0785C19.8005 18.2547 19.2817 19.3335 18.6075 20.2492C17.5217 21.7457 15.4913 23.5228 12.0107 23.5228H11.8842C8.47055 23.476 6.46993 21.7176 5.39897 20.2492C4.72202 19.3325 4.20296 18.2499 3.87433 17.0691C3.02649 15.6007 2.36457 13.6646 1.92577 11.317C1.67232 9.99862 1.5032 8.65684 1.42004 7.30452C0.965909 6.81459 0.641562 6.16196 0.490384 5.43391C0.237518 4.31154 0.401137 3.13305 0.958931 2.11356C1.18853 1.68775 1.48649 1.32712 1.83361 1.05489C2.18074 0.782649 2.56935 0.604836 2.97442 0.532893C3.17134 0.495275 3.37023 0.476515 3.5694 0.476775C4.06454 0.483365 4.55602 0.584276 5.0271 0.776074C6.85667 1.29049 7.50371 3.47911 8.13587 5.59291L8.15075 5.63967C8.45568 6.65916 8.74573 7.63188 9.16221 8.38013C9.84644 9.59603 10.8877 10.2975 12.0107 10.2975C13.1337 10.2975 14.1675 9.59603 14.8591 8.38013C15.2831 7.61317 15.5211 6.60304 15.7739 5.53679V5.51808C16.2945 3.32011 16.8375 1.03796 19.1281 0.719955C19.5558 0.560969 19.9986 0.47601 20.4445 0.467422C20.6689 0.469107 20.8928 0.494134 21.1139 0.542247C21.5039 0.629582 21.876 0.814486 22.2082 1.086C22.5403 1.35752 22.8258 1.71012 23.0476 2.12292C23.6054 3.13305 23.769 4.31154 23.5161 5.44326Z" fill="#878687"/>
<path d="M20.4374 2.40364C20.1966 2.40295 19.9567 2.44066 19.7234 2.51588C19.6093 2.65515 19.5194 2.8226 19.4592 3.00771C19.399 3.19282 19.37 3.39157 19.3739 3.59148C19.4036 4.62967 19.6788 4.92897 19.8498 5.10668C20.0209 5.28439 20.0878 5.35921 20.0878 5.6211C20.0878 5.88299 19.8201 6.0794 19.5524 6.17293C18.9053 6.40676 18.2732 6.72476 18.3327 7.83778C18.3922 8.9508 18.6153 9.17527 18.7715 9.39039H18.7789C18.9128 9.5681 19.1582 9.90481 18.8161 10.4099C18.2583 11.2423 18.117 11.9625 18.3847 12.5517C18.4963 12.7949 18.5335 13.0287 18.4814 13.2532C18.407 13.618 18.1393 13.7957 17.9236 13.936H17.9087C17.7823 14.0295 17.6261 14.1324 17.6038 14.2259C17.5815 14.3195 17.5815 14.3288 17.6707 14.5346C18.1021 15.5167 17.6187 16.0217 17.2989 16.3491H17.2914C17.0163 16.6297 16.8526 16.8167 16.8526 17.1815C16.8526 18.6499 15.1421 20.2025 11.9812 20.2025C8.82041 20.2025 7.12472 18.6499 7.12472 17.1815C7.12472 16.8167 6.93135 16.611 6.69336 16.3584H6.68592C6.35868 16.0311 5.87526 15.526 6.30662 14.5346C6.39587 14.3382 6.38843 14.2446 6.381 14.2259C6.28588 14.1148 6.18109 14.0175 6.06863 13.936H6.06119C5.84551 13.7957 5.57777 13.618 5.49596 13.2532C5.47448 13.134 5.47196 13.0107 5.48855 12.8903C5.50515 12.7699 5.54053 12.6549 5.59265 12.5517C5.86039 11.9625 5.71908 11.2423 5.16872 10.4099C4.82661 9.89546 5.07204 9.5681 5.20591 9.39039C5.33978 9.21268 5.60752 8.84791 5.65215 7.82843C5.69677 6.80894 5.07948 6.39741 4.43244 6.16358C4.17957 6.0794 3.89696 5.97652 3.89696 5.61175C3.89696 5.24698 4.03083 5.20956 4.13495 5.09733C4.23907 4.98509 4.58118 4.62032 4.61093 3.58213C4.61124 3.38423 4.58052 3.18821 4.52054 3.00525C4.46056 2.82229 4.3725 2.656 4.26138 2.51588C4.03086 2.43819 3.79348 2.39734 3.55484 2.39429C2.97474 2.39429 2.52106 2.67488 2.21614 3.22671C1.91121 3.77854 1.87402 4.51744 1.96327 4.91962C2.08227 5.4808 2.36488 5.82687 2.469 5.88299C2.59901 5.95701 2.7102 6.07482 2.79027 6.22338C2.87034 6.37195 2.91617 6.54548 2.92268 6.72476C2.92268 6.79023 3.12348 12.6078 5.17616 16.0498C5.236 16.1501 5.27902 16.2646 5.30259 16.3865V16.4052C5.31003 16.452 5.61496 17.7427 6.53718 18.9866C7.83126 20.7263 9.66082 21.6055 11.9887 21.6055C14.3165 21.6055 16.161 20.7263 17.4402 18.9866C18.407 17.6959 18.6822 16.4052 18.6822 16.3958C18.7036 16.2684 18.7496 16.1496 18.8161 16.0498C20.8688 12.6078 21.0621 6.79023 21.0696 6.73412C21.0721 6.5524 21.1162 6.37544 21.1967 6.22447C21.2771 6.07351 21.3905 5.95494 21.5232 5.88299C21.6199 5.82687 21.9025 5.4808 22.029 4.91962C22.1182 4.51744 22.148 3.90013 21.7687 3.22671C21.3894 2.55329 21.0249 2.40364 20.4374 2.40364Z" fill="#878687"/>
</g>
</g>
<defs>
<clipPath id="clip0_1420_5674">
<rect width="24" height="24" fill="white" transform="matrix(-1 0 0 1 24 0)"/>
</clipPath>
<clipPath id="clip1_1420_5674">
<rect width="24" height="24" fill="white"/>
</clipPath>
</defs>
</svg>
