<svg width="60" height="60" viewBox="0 0 60 60" fill="none" xmlns="http://www.w3.org/2000/svg">
<rect width="60" height="60" rx="30" fill="white"/>
<path d="M50.0492 15.4276C49.6383 14.8198 49.1088 14.3012 48.4925 13.903C47.8763 13.5048 47.186 13.2352 46.463 13.1103C46.0531 13.0382 45.6378 13.0013 45.2216 13C44.3938 13.0022 43.571 13.1277 42.7802 13.3724C38.532 13.8414 37.5251 17.1931 36.5595 20.4483C36.0906 22.0345 35.6492 23.5241 34.863 24.6414C33.5802 26.4483 31.663 27.4828 29.5802 27.4828C27.4975 27.4828 25.5664 26.4483 24.2975 24.6414C23.5251 23.5517 22.9871 22.1172 22.4216 20.6138L22.394 20.531C21.2216 17.4138 20.0216 14.2 16.6285 13.4414C15.7564 13.1522 14.8439 13.0033 13.9251 13C13.5553 13.0036 13.1864 13.0359 12.8216 13.0966C12.069 13.2034 11.3472 13.4674 10.7033 13.8714C10.0593 14.2754 9.50749 14.8103 9.08368 15.4414C8.0492 16.9448 7.74575 18.6828 8.21472 20.3379C8.5038 21.4078 9.10384 22.3679 9.93886 23.0966C10.1 25.09 10.4135 27.0682 10.8768 29.0138C11.6906 32.4759 12.9182 35.3172 14.4906 37.4966C15.1043 39.2358 16.0665 40.8316 17.3182 42.1862C19.3044 44.3517 23.0147 46.931 29.3458 47H29.5802C36.0354 47 39.8009 44.3793 41.8147 42.1724C43.0692 40.8199 44.0317 39.2235 44.6423 37.4828C48.0906 32.7241 48.9733 25.8966 49.194 23.0828C50.0316 22.3563 50.6322 21.3954 50.9182 20.3241C51.3871 18.669 51.0837 16.931 50.0492 15.4276ZM49.2768 19.869C48.9595 20.9724 48.2423 21.8 47.6906 22.0345C47.6439 22.0581 47.6042 22.0934 47.5752 22.1369C47.5462 22.1804 47.5289 22.2306 47.5251 22.2828C47.5251 22.3517 47.1251 31.331 43.1113 36.6828L43.0837 36.7517C43.0837 36.7655 43.0837 36.7655 43.0699 36.7793C42.5459 38.387 41.6694 39.8573 40.5044 41.0828C37.9251 43.8966 34.2423 45.3172 29.5664 45.3172C24.8906 45.3172 21.2216 43.8965 18.6147 41.1103C17.4615 39.8812 16.5865 38.4182 16.0492 36.8207V36.7931C16.0454 36.7575 16.0309 36.7239 16.0078 36.6966H15.994C12.3113 31.7724 11.6768 23.869 11.594 22.3379V22.3103C11.5902 22.2582 11.5729 22.208 11.5439 22.1645C11.5149 22.121 11.4752 22.0857 11.4285 22.0621C10.8768 21.8276 10.1458 21 9.8423 19.8966C9.60782 19.0828 9.52506 17.8138 10.4768 16.4207C11.2492 15.2897 12.4492 14.6966 13.9113 14.6966C14.5325 14.7044 15.1497 14.7973 15.7458 14.9724L15.8423 15C15.8592 15.003 15.8752 15.0094 15.8895 15.0189C15.9037 15.0284 15.9158 15.0408 15.9251 15.0552L15.994 15.1241C16.7526 15.8552 17.1113 16.7103 17.0699 17.6621C17.0147 19.1379 16.5871 19.9103 16.1458 20.3793C17.2216 20.7103 19.1526 21.469 19.0009 23.9517C18.8768 25.8552 18.2147 26.5724 17.8699 26.9448L17.8423 26.9724C18.7802 28.1034 19.6768 29.7862 18.7251 31.4276C18.6985 31.4748 18.6799 31.5261 18.6699 31.5793C18.7997 31.6935 18.9433 31.7908 19.0975 31.869H19.1389C19.5389 32.0897 20.1044 32.3931 20.2837 33.0138C20.4078 33.4138 20.3389 33.8414 20.063 34.3379C19.7871 34.8345 19.8975 35.0966 20.4768 35.5655C21.0561 36.0345 21.7182 36.5862 21.7182 37.6897C21.7182 39.2759 24.8768 40.9862 29.5664 40.9862C32.6285 40.9862 34.5044 40.3379 35.5389 39.8C36.5733 39.2621 37.4285 38.3931 37.4285 37.6897C37.4285 36.6 38.132 36.0207 38.6423 35.5793H38.6699C39.2492 35.0966 39.4285 34.9448 39.0975 34.3379C38.7664 33.731 38.7526 33.4138 38.8768 33.0138C39.0561 32.3931 39.6216 32.0897 40.0216 31.869H40.063C40.2171 31.7908 40.3608 31.6935 40.4906 31.5793C40.4794 31.5308 40.4608 31.4842 40.4354 31.4414C39.4837 29.7862 40.3802 28.1034 41.3182 26.9724H41.2906C40.9595 26.6276 40.2699 25.8966 40.1458 23.9517C39.994 21.469 41.9251 20.7103 43.0009 20.3931C42.5595 19.9103 42.132 19.1379 42.0768 17.6621C42.0354 16.7103 42.4078 15.8552 43.1664 15.0966L43.2354 15.0414L43.3182 14.9862L43.4147 14.9586C43.9942 14.7955 44.5922 14.7074 45.194 14.6966C46.6699 14.6966 47.8561 15.2897 48.6423 16.4207C49.594 17.7586 49.5113 19.0414 49.2768 19.869Z" fill="#161616"/>
</svg>
