<svg width="24" height="24" viewBox="0 0 24 24" fill="none" xmlns="http://www.w3.org/2000/svg">
<path d="M20.4163 1.28133C20.0233 1.28192 19.6325 1.35439 19.2561 1.49645H19.1892C17.2927 1.74898 16.839 3.68507 16.3556 5.74274L16.3333 5.80822C16.0878 6.87447 15.8275 7.97813 15.3441 8.82926C14.5335 10.2603 13.3137 11.0834 11.9825 11.0834C10.6512 11.0834 9.43151 10.2603 8.62828 8.82926C8.15974 7.98748 7.8325 6.90253 7.52757 5.86433C6.9549 3.9376 6.35992 1.95475 4.8576 1.54321H4.82785C4.41791 1.36924 3.98871 1.2777 3.55608 1.27197C2.64874 1.27197 1.94963 1.71157 1.47365 2.5814C0.997667 3.45124 0.886108 4.33978 1.09435 5.23768C1.23566 5.88304 1.54802 6.48164 1.90501 6.79029L1.97938 6.86511C1.99228 6.8772 2.00294 6.89266 2.01065 6.91042C2.01835 6.92817 2.02291 6.94782 2.02401 6.968V7.08959C2.32893 12.7201 3.92051 15.8534 4.40393 16.6765L4.4188 16.7046L4.43368 16.742L4.44855 16.7794C4.5378 17.1535 4.90222 18.4349 5.84675 19.7256C6.79128 21.0163 8.71753 22.7279 11.9527 22.7466H12.1312C15.3144 22.6999 17.1588 21.0818 18.1405 19.7256C19.1222 18.3694 19.4792 17.0413 19.5387 16.7887L19.5536 16.742C19.561 16.7326 19.561 16.7139 19.5685 16.7046L19.5908 16.6671C20.0668 15.8534 21.6583 12.7482 21.9633 7.08959V6.968C21.9632 6.94751 21.9673 6.92733 21.9751 6.90935C21.9829 6.89136 21.9942 6.87615 22.0079 6.86511L22.0823 6.79964C22.4467 6.47228 22.7591 5.87369 22.9004 5.23768C23.1012 4.34914 22.9673 3.40447 22.5136 2.5814C22.06 1.75833 21.3311 1.28133 20.4163 1.28133ZM22.6326 5.11609C22.4616 5.87369 22.0748 6.42552 21.7773 6.59387C21.7518 6.60659 21.7297 6.6284 21.7139 6.65664C21.698 6.68489 21.6891 6.71833 21.6881 6.75288C21.6881 6.79964 21.4724 12.8978 19.3156 16.5175C19.3085 16.5214 19.3025 16.528 19.2985 16.5364C19.2945 16.5447 19.2927 16.5545 19.2933 16.5643V16.583C19.0098 17.6726 18.5373 18.6693 17.91 19.5011C16.5118 21.4185 14.526 22.3912 12.0048 22.3912C9.48357 22.3912 7.50526 21.4279 6.09962 19.5292C5.47648 18.697 5.00449 17.7045 4.71629 16.6204V16.6017L4.69398 16.5362H4.68654C2.69336 13.1971 2.35125 7.83783 2.30662 6.79964V6.78094C2.30454 6.74558 2.29523 6.71151 2.27959 6.68201C2.26395 6.65251 2.24252 6.6286 2.21738 6.61258C1.91989 6.45358 1.53315 5.89239 1.36209 5.14415C1.23566 4.59232 1.19103 3.73183 1.70421 2.78717C2.12069 2.02022 2.76773 1.61804 3.55608 1.61804C3.89063 1.62138 4.22332 1.68115 4.54523 1.79575L4.59729 1.81445C4.61217 1.81445 4.62704 1.83316 4.64192 1.85186L4.6791 1.89863C5.08815 2.40369 5.28152 2.98359 5.25921 3.6196C5.22946 4.62037 4.99891 5.14415 4.76091 5.4715C5.34102 5.68663 6.38223 6.20105 6.30042 7.8846C6.23349 9.17532 5.88394 9.66168 5.69057 9.92357H5.6757C6.18143 10.6905 6.66485 11.8316 6.15168 12.954C6.1344 12.9806 6.12402 13.0132 6.12193 13.0475C6.19276 13.1235 6.27009 13.1894 6.35249 13.2439H6.3748C6.59791 13.3936 6.8954 13.5993 6.99209 14.0202C7.05902 14.2915 7.02184 14.5908 6.87309 14.9181C6.72435 15.2455 6.78385 15.4325 7.09621 15.7599C7.40857 16.0872 7.76556 16.4427 7.76556 17.1909C7.76556 18.2759 9.46869 19.4263 11.9974 19.4263C13.6484 19.4263 14.6599 18.9867 15.2251 18.6219C15.7904 18.2572 16.2366 17.6679 16.2366 17.1909C16.2366 16.452 16.6159 16.0592 16.8911 15.7692L16.9059 15.7505C17.2183 15.4232 17.315 15.3296 17.1365 14.9088C16.958 14.4879 16.9506 14.2821 17.0175 14.0109C17.1142 13.59 17.4117 13.3936 17.6348 13.2439L17.6571 13.2252C17.7315 13.1784 17.8653 13.0849 17.8877 13.0288C17.8823 12.9956 17.8722 12.9639 17.8579 12.9353C17.3447 11.8222 17.8282 10.6812 18.3339 9.91422H18.3265C18.148 9.68039 17.7835 9.18468 17.7092 7.86589C17.6274 6.18234 18.6686 5.67727 19.2487 5.4528C19.0107 5.12544 18.7801 4.61102 18.7504 3.60089C18.7281 2.95553 18.9289 2.37564 19.3379 1.87057L19.3751 1.8238L19.4197 1.78639L19.4718 1.76769C19.7838 1.65548 20.1067 1.59881 20.4312 1.59933C21.227 1.59933 21.874 2.00151 22.2905 2.75911C22.8037 3.69442 22.7591 4.5549 22.6326 5.11609Z" fill="white"/>
<path d="M23.3535 1.86103C23.1033 1.39643 22.7816 0.99974 22.4073 0.694476C22.0329 0.389213 21.6137 0.181598 21.1743 0.0839457C20.9315 0.0272636 20.685 -0.000916844 20.4381 -0.000231952C19.9696 0.00689012 19.5041 0.0950113 19.0547 0.261654C16.5409 0.626424 15.946 3.15176 15.4179 5.38714L15.403 5.45261V5.47132C15.1651 6.4721 14.9345 7.42611 14.5552 8.10889C13.9305 9.2032 13.0082 9.82985 12.0117 9.82985C11.0151 9.82985 10.078 9.2032 9.46812 8.10889C9.08138 7.41676 8.79877 6.48145 8.50128 5.49003L8.47896 5.42455V5.39649C7.85424 3.29205 7.13282 0.897664 5.1322 0.327126C4.62728 0.122945 4.10074 0.0157371 3.57038 0.00912113H3.55551C3.34121 0.00804858 3.12724 0.0299517 2.9159 0.0745927C2.45987 0.157875 2.02264 0.35974 1.63209 0.667319C1.24154 0.974897 0.906229 1.38144 0.647543 1.86103C0.0302513 2.99275 -0.15568 4.31154 0.126936 5.56485C0.289101 6.31636 0.610406 6.99844 1.05659 7.53835C1.15013 8.84898 1.31915 10.1494 1.56232 11.4292C2.00112 13.7956 2.67047 15.7691 3.54063 17.2936C3.88476 18.5125 4.4239 19.6298 5.12477 20.5765C6.24035 22.1104 8.32278 23.953 11.8778 23.9998H12.0191C15.641 23.9904 17.7458 22.1385 18.8762 20.5765C19.5769 19.6332 20.1161 18.519 20.4604 17.303C22.2974 14.0668 22.8031 9.53055 22.9444 7.53835C23.3915 7.0031 23.7131 6.32366 23.8741 5.5742C24.1567 4.29283 23.9708 2.9834 23.3535 1.86103ZM23.5171 5.44326C23.3599 6.16537 23.0364 6.81292 22.5874 7.30452C22.4684 9.21255 21.9924 13.8423 20.1331 17.0785C19.8015 18.2547 19.2827 19.3335 18.6085 20.2492C17.5227 21.7457 15.4923 23.5228 12.0117 23.5228H11.8852C8.47153 23.476 6.47091 21.7176 5.39994 20.2492C4.723 19.3325 4.20394 18.2499 3.87531 17.0691C3.02746 15.6007 2.36555 13.6646 1.92675 11.317C1.6733 9.99862 1.50418 8.65684 1.42102 7.30452C0.966885 6.81459 0.642538 6.16196 0.491361 5.43391C0.238494 4.31154 0.402114 3.13305 0.959907 2.11356C1.18951 1.68775 1.48746 1.32712 1.83459 1.05489C2.18172 0.782649 2.57033 0.604836 2.9754 0.532893C3.17231 0.495275 3.37121 0.476515 3.57038 0.476775C4.06551 0.483365 4.55699 0.584276 5.02808 0.776074C6.85764 1.29049 7.50469 3.47911 8.13685 5.59291L8.15173 5.63967C8.45665 6.65916 8.74671 7.63188 9.16319 8.38013C9.84742 9.59603 10.8886 10.2975 12.0117 10.2975C13.1347 10.2975 14.1685 9.59603 14.8601 8.38013C15.284 7.61317 15.522 6.60304 15.7749 5.53679V5.51808C16.2955 3.32011 16.8384 1.03796 19.1291 0.719955C19.5567 0.560969 19.9996 0.47601 20.4455 0.467422C20.6699 0.469107 20.8938 0.494134 21.1148 0.542247C21.5049 0.629582 21.877 0.814486 22.2091 1.086C22.5413 1.35752 22.8267 1.71012 23.0485 2.12292C23.6063 3.13305 23.7699 4.31154 23.5171 5.44326Z" fill="white"/>
<path d="M20.4384 2.40364C20.1976 2.40295 19.9577 2.44066 19.7244 2.51588C19.6103 2.65515 19.5203 2.8226 19.4602 3.00771C19.4 3.19282 19.371 3.39157 19.3748 3.59148C19.4046 4.62967 19.6798 4.92897 19.8508 5.10668C20.0219 5.28439 20.0888 5.35921 20.0888 5.6211C20.0888 5.88299 19.8211 6.0794 19.5533 6.17293C18.9063 6.40676 18.2741 6.72476 18.3336 7.83778C18.3931 8.9508 18.6162 9.17527 18.7724 9.39039H18.7799C18.9137 9.5681 19.1592 9.90481 18.8171 10.4099C18.2593 11.2423 18.1179 11.9625 18.3857 12.5517C18.4972 12.7949 18.5344 13.0287 18.4824 13.2532C18.408 13.618 18.1403 13.7957 17.9246 13.936H17.9097C17.7833 14.0295 17.6271 14.1324 17.6048 14.2259C17.5825 14.3195 17.5825 14.3288 17.6717 14.5346C18.1031 15.5167 17.6197 16.0217 17.2999 16.3491H17.2924C17.0172 16.6297 16.8536 16.8167 16.8536 17.1815C16.8536 18.6499 15.1431 20.2025 11.9822 20.2025C8.82139 20.2025 7.1257 18.6499 7.1257 17.1815C7.1257 16.8167 6.93233 16.611 6.69434 16.3584H6.6869C6.35966 16.0311 5.87624 15.526 6.3076 14.5346C6.39685 14.3382 6.38941 14.2446 6.38197 14.2259C6.28686 14.1148 6.18207 14.0175 6.06961 13.936H6.06217C5.84649 13.7957 5.57875 13.618 5.49694 13.2532C5.47546 13.134 5.47294 13.0107 5.48953 12.8903C5.50612 12.7699 5.5415 12.6549 5.59362 12.5517C5.86136 11.9625 5.72006 11.2423 5.1697 10.4099C4.82759 9.89546 5.07302 9.5681 5.20689 9.39039C5.34076 9.21268 5.6085 8.84791 5.65312 7.82843C5.69775 6.80894 5.08045 6.39741 4.43341 6.16358C4.18055 6.0794 3.89793 5.97652 3.89793 5.61175C3.89793 5.24698 4.0318 5.20956 4.13592 5.09733C4.24004 4.98509 4.58216 4.62032 4.61191 3.58213C4.61221 3.38423 4.5815 3.18821 4.52152 3.00525C4.46154 2.82229 4.37347 2.656 4.26236 2.51588C4.03184 2.43819 3.79446 2.39734 3.55582 2.39429C2.97571 2.39429 2.52204 2.67488 2.21711 3.22671C1.91219 3.77854 1.875 4.51744 1.96425 4.91962C2.08324 5.4808 2.36586 5.82687 2.46998 5.88299C2.59999 5.95701 2.71118 6.07482 2.79125 6.22338C2.87132 6.37195 2.91714 6.54548 2.92365 6.72476C2.92365 6.79023 3.12446 12.6078 5.17714 16.0498C5.23698 16.1501 5.27999 16.2646 5.30357 16.3865V16.4052C5.31101 16.452 5.61594 17.7427 6.53815 18.9866C7.83224 20.7263 9.6618 21.6055 11.9897 21.6055C14.3175 21.6055 16.162 20.7263 17.4412 18.9866C18.408 17.6959 18.6832 16.4052 18.6832 16.3958C18.7046 16.2684 18.7506 16.1496 18.8171 16.0498C20.8697 12.6078 21.0631 6.79023 21.0705 6.73412C21.073 6.5524 21.1172 6.37544 21.1976 6.22447C21.2781 6.07351 21.3915 5.95494 21.5242 5.88299C21.6209 5.82687 21.9035 5.4808 22.0299 4.91962C22.1192 4.51744 22.1489 3.90013 21.7696 3.22671C21.3903 2.55329 21.0259 2.40364 20.4384 2.40364Z" fill="white"/>
</svg>
