<svg width="14" height="14" viewBox="0 0 14 14" fill="none" xmlns="http://www.w3.org/2000/svg">
<g clip-path="url(#clip0_832_26766)">
<g clip-path="url(#clip1_832_26766)">
<path d="M11.9097 0.747399C11.6804 0.747747 11.4525 0.790018 11.2329 0.872886H11.1938C10.0876 1.0202 9.82292 2.14958 9.54092 3.34989L9.5279 3.38809C9.38474 4.01006 9.23289 4.65387 8.9509 5.15036C8.47801 5.98512 7.76652 6.46525 6.98994 6.46525C6.21337 6.46525 5.50187 5.98512 5.03333 5.15036C4.76001 4.65932 4.56912 4.02643 4.39125 3.42082C4.05719 2.29689 3.71012 1.14023 2.83376 0.900166H2.81641C2.57728 0.798681 2.32691 0.745283 2.07454 0.741943C1.54526 0.741943 1.13745 0.998374 0.859792 1.50578C0.582135 2.01318 0.517059 2.5315 0.638534 3.05527C0.720964 3.43173 0.903176 3.78091 1.11142 3.96096L1.1548 4.00461C1.16233 4.01166 1.16855 4.02068 1.17304 4.03103C1.17753 4.04139 1.18019 4.05285 1.18083 4.06462V4.13555C1.35871 7.42004 2.28712 9.24779 2.56912 9.72791L2.5778 9.74428L2.58647 9.7661L2.59515 9.78793C2.64721 10.0062 2.85979 10.7536 3.41077 11.5066C3.96174 12.2595 5.08539 13.2579 6.97259 13.2688H7.07671C8.93355 13.2416 10.0095 12.2977 10.5821 11.5066C11.1548 10.7154 11.363 9.9407 11.3978 9.79338L11.4064 9.7661C11.4108 9.76065 11.4108 9.74974 11.4151 9.74428L11.4281 9.72246C11.7058 9.24779 12.6342 7.43641 12.8121 4.13555V4.06462C12.812 4.05267 12.8144 4.0409 12.819 4.03041C12.8235 4.01992 12.8301 4.01104 12.8381 4.00461L12.8815 3.96642C13.0941 3.77546 13.2763 3.42628 13.3587 3.05527C13.4758 2.53695 13.3978 1.9859 13.1331 1.50578C12.8685 1.02565 12.4433 0.747399 11.9097 0.747399ZM13.2025 2.98434C13.1027 3.42628 12.8771 3.74818 12.7036 3.84639C12.6887 3.8538 12.6758 3.86653 12.6666 3.883C12.6573 3.89948 12.6521 3.91898 12.6515 3.93914C12.6515 3.96642 12.5257 7.5237 11.2676 9.63516C11.2634 9.63743 11.2599 9.64127 11.2576 9.64617C11.2553 9.65106 11.2542 9.65675 11.2546 9.66244V9.67335C11.0892 10.309 10.8136 10.8904 10.4476 11.3756C9.63203 12.4941 8.47367 13.0615 7.00296 13.0615C5.53224 13.0615 4.37823 12.4995 3.55827 11.392C3.19478 10.9065 2.91945 10.3276 2.75133 9.69518V9.68427L2.73832 9.64607H2.73398C1.57129 7.6983 1.37172 4.57203 1.34569 3.96642V3.95551C1.34448 3.93488 1.33904 3.915 1.32992 3.8978C1.3208 3.88059 1.3083 3.86664 1.29363 3.8573C1.1201 3.76455 0.894499 3.43719 0.794716 3.00071C0.720964 2.67881 0.694933 2.17686 0.994282 1.62581C1.23723 1.17842 1.61467 0.943814 2.07454 0.943814C2.2697 0.945765 2.46376 0.98063 2.65155 1.04748L2.68192 1.05839C2.69059 1.05839 2.69927 1.0693 2.70795 1.08021L2.72964 1.10749C2.96825 1.40211 3.08105 1.74038 3.06803 2.11139C3.05068 2.69518 2.91619 3.00071 2.77736 3.19167C3.11576 3.31716 3.72313 3.61724 3.67541 4.59931C3.63636 5.35223 3.43246 5.63594 3.31966 5.78871H3.31099C3.606 6.2361 3.88799 6.90172 3.58864 7.55644C3.57857 7.57197 3.57251 7.59101 3.57129 7.611C3.61261 7.65534 3.65771 7.69377 3.70578 7.72557H3.71879C3.84895 7.81287 4.02248 7.9329 4.07888 8.17842C4.11793 8.33664 4.09623 8.51123 4.00947 8.70219C3.9227 8.89315 3.95741 9.00227 4.13962 9.19323C4.32183 9.38419 4.53007 9.59151 4.53007 10.028C4.53007 10.6609 5.52357 11.332 6.99862 11.332C7.96174 11.332 8.55177 11.0755 8.88148 10.8628C9.2112 10.65 9.47151 10.3062 9.47151 10.028C9.47151 9.59697 9.69276 9.36782 9.85328 9.19868L9.86196 9.18777C10.0442 8.99681 10.1006 8.94225 9.99645 8.69674C9.89233 8.45122 9.88799 8.33119 9.92704 8.17296C9.98344 7.92745 10.157 7.81287 10.2871 7.72557L10.3001 7.71466C10.3435 7.68738 10.4216 7.63282 10.4346 7.60009C10.4315 7.58073 10.4256 7.56225 10.4173 7.54553C10.1179 6.89627 10.3999 6.23064 10.6949 5.78325H10.6906C10.5865 5.64685 10.3739 5.35769 10.3305 4.5884C10.2828 3.60632 10.8902 3.3117 11.2286 3.18076C11.0897 2.9898 10.9552 2.68972 10.9379 2.10048C10.9249 1.72402 11.042 1.38575 11.2806 1.09112L11.3023 1.06385L11.3283 1.04202L11.3587 1.03111C11.5407 0.965657 11.7291 0.9326 11.9184 0.932902C12.3826 0.932902 12.76 1.16751 13.003 1.60944C13.3023 2.15504 13.2763 2.65699 13.2025 2.98434Z" fill="#878687"/>
<path d="M13.623 1.0855C13.4771 0.814485 13.2894 0.58308 13.0711 0.405009C12.8527 0.226939 12.6081 0.10583 12.3519 0.0488666C12.2102 0.015802 12.0664 -0.000636551 11.9224 -0.000237031C11.6491 0.00391751 11.3776 0.0553215 11.1154 0.15253C9.64905 0.365312 9.30197 1.83842 8.99395 3.1424L8.98527 3.18059V3.1915C8.84644 3.77529 8.71195 4.3318 8.49069 4.73008C8.12627 5.36843 7.58831 5.73398 7.00696 5.73398C6.42562 5.73398 5.87898 5.36843 5.52323 4.73008C5.29764 4.32634 5.13278 3.78075 4.95924 3.20241L4.94623 3.16422V3.14785C4.5818 1.92026 4.16098 0.523535 2.99395 0.190722C2.69941 0.0716163 2.39226 0.00907827 2.08289 0.00521893H2.07421C1.9492 0.00459328 1.82439 0.0173701 1.70111 0.0434107C1.43509 0.091992 1.18004 0.209747 0.952216 0.389167C0.724393 0.568588 0.528797 0.805739 0.377896 1.0855C0.0178093 1.74567 -0.0906505 2.51496 0.0742085 3.24606C0.168805 3.68444 0.356233 4.08232 0.616508 4.39727C0.671072 5.16181 0.769668 5.92036 0.911519 6.66695C1.16748 8.04731 1.55794 9.19852 2.06553 10.0878C2.26627 10.7989 2.58077 11.4506 2.98961 12.0029C3.64037 12.8977 4.85512 13.9725 6.92887 13.9998H7.0113C9.1241 13.9943 10.3519 12.914 11.0113 12.0029C11.42 11.4526 11.7346 10.8027 11.9354 10.0933C13.007 8.20553 13.302 5.55939 13.3844 4.39727C13.6452 4.08504 13.8328 3.6887 13.9267 3.25152C14.0916 2.50405 13.9831 1.74021 13.623 1.0855ZM13.7185 3.17513C13.6268 3.59636 13.4381 3.9741 13.1762 4.26087C13.1067 5.37389 12.8291 8.07459 11.7445 9.96235C11.551 10.6485 11.2484 11.2778 10.8551 11.8119C10.2217 12.6849 9.03733 13.7215 7.00696 13.7215H6.93321C4.94189 13.6942 3.77486 12.6685 3.15013 11.8119C2.75524 11.2772 2.45246 10.6457 2.26076 9.95689C1.76618 9.10031 1.38007 7.97092 1.1241 6.60148C0.976252 5.83243 0.877599 5.04972 0.829089 4.26087C0.564179 3.97508 0.374977 3.59437 0.28679 3.16968C0.139284 2.51496 0.234729 1.82751 0.560109 1.23281C0.694043 0.984422 0.867849 0.774054 1.07034 0.615249C1.27283 0.456443 1.49952 0.352719 1.73581 0.310753C1.85068 0.288809 1.9667 0.277865 2.08289 0.278017C2.37171 0.281861 2.65841 0.340726 2.93321 0.452608C4.00046 0.752686 4.3779 2.02938 4.74666 3.26243L4.75534 3.28971C4.93321 3.88441 5.10241 4.45183 5.34536 4.88831C5.74449 5.59758 6.35187 6.00678 7.00696 6.00678C7.66206 6.00678 8.2651 5.59758 8.66857 4.88831C8.91586 4.44092 9.05469 3.85167 9.20219 3.22969V3.21878C9.50588 1.93663 9.82258 0.605375 11.1588 0.419872C11.4083 0.32713 11.6666 0.277571 11.9267 0.272561C12.0576 0.273544 12.1882 0.288143 12.3172 0.316209C12.5447 0.367154 12.7617 0.475015 12.9555 0.633399C13.1493 0.791784 13.3158 0.997469 13.4451 1.23827C13.7705 1.82751 13.866 2.51496 13.7185 3.17513Z" fill="#878687"/>
<path d="M11.9224 1.40218C11.7819 1.40178 11.642 1.42378 11.5059 1.46766C11.4393 1.5489 11.3869 1.64658 11.3518 1.75456C11.3167 1.86254 11.2997 1.97848 11.302 2.09509C11.3193 2.7007 11.4799 2.87529 11.5796 2.97896C11.6794 3.08262 11.7185 3.12627 11.7185 3.27904C11.7185 3.4318 11.5623 3.54638 11.4061 3.60094C11.0287 3.73734 10.6599 3.92284 10.6946 4.5721C10.7293 5.22136 10.8595 5.3523 10.9506 5.47779H10.9549C11.033 5.58145 11.1762 5.77787 10.9766 6.07249C10.6512 6.55807 10.5688 6.97818 10.725 7.3219C10.7901 7.46376 10.8118 7.60016 10.7814 7.7311C10.738 7.94388 10.5818 8.04755 10.456 8.12939H10.4473C10.3736 8.18395 10.2825 8.24396 10.2695 8.29852C10.2564 8.35308 10.2564 8.35854 10.3085 8.47857C10.5601 9.05144 10.2781 9.34607 10.0916 9.53702H10.0872C9.92672 9.7007 9.83128 9.80982 9.83128 10.0226C9.83128 10.8792 8.83345 11.7849 6.98963 11.7849C5.14581 11.7849 4.15666 10.8792 4.15666 10.0226C4.15666 9.80982 4.04386 9.68979 3.90503 9.54248H3.90069C3.7098 9.35152 3.42781 9.0569 3.67943 8.47857C3.73149 8.36399 3.72716 8.30943 3.72282 8.29852C3.66733 8.2337 3.60621 8.17696 3.5406 8.12939H3.53627C3.41045 8.04755 3.25427 7.94388 3.20655 7.7311C3.19402 7.66159 3.19255 7.58964 3.20223 7.51941C3.21191 7.44918 3.23254 7.38206 3.26295 7.3219C3.41913 6.97818 3.3367 6.55807 3.01566 6.07249C2.81609 5.77241 2.95926 5.58145 3.03735 5.47779C3.11544 5.37413 3.27162 5.16134 3.29765 4.56664C3.32368 3.97194 2.9636 3.73188 2.58616 3.59548C2.43865 3.54638 2.27379 3.48636 2.27379 3.27358C2.27379 3.0608 2.35188 3.03897 2.41262 2.9735C2.47336 2.90803 2.67293 2.69525 2.69028 2.08964C2.69046 1.9742 2.67254 1.85985 2.63755 1.75312C2.60256 1.6464 2.55119 1.54939 2.48637 1.46766C2.35191 1.42234 2.21343 1.39851 2.07423 1.39673C1.73583 1.39673 1.47119 1.56041 1.29332 1.88231C1.11544 2.20421 1.09375 2.63523 1.14581 2.86984C1.21523 3.1972 1.38008 3.39907 1.44082 3.4318C1.51666 3.47498 1.58152 3.5437 1.62823 3.63037C1.67494 3.71703 1.70167 3.81825 1.70546 3.92284C1.70546 3.96103 1.8226 7.35464 3.02 9.36243C3.0549 9.42095 3.08 9.48777 3.09375 9.55885V9.56976C3.09809 9.59704 3.27596 10.35 3.81392 11.0756C4.5688 12.0904 5.63605 12.6033 6.99397 12.6033C8.35188 12.6033 9.42781 12.0904 10.174 11.0756C10.738 10.3227 10.8985 9.56976 10.8985 9.5643C10.911 9.48999 10.9378 9.42067 10.9766 9.36243C12.174 7.35464 12.2868 3.96103 12.2911 3.9283C12.2926 3.82229 12.3183 3.71907 12.3653 3.631C12.4122 3.54294 12.4784 3.47377 12.5558 3.4318C12.6122 3.39907 12.777 3.1972 12.8508 2.86984C12.9029 2.63523 12.9202 2.27514 12.699 1.88231C12.4777 1.48948 12.2651 1.40218 11.9224 1.40218Z" fill="#878687"/>
</g>
</g>
<defs>
<clipPath id="clip0_832_26766">
<rect width="14" height="14" fill="white" transform="matrix(-1 0 0 1 14 0)"/>
</clipPath>
<clipPath id="clip1_832_26766">
<rect width="14" height="14" fill="white"/>
</clipPath>
</defs>
</svg>
