<svg width="60" height="60" viewBox="0 0 60 60" fill="none" xmlns="http://www.w3.org/2000/svg">
<rect width="60" height="60" rx="30" fill="#454545"/>
<path d="M29.8158 47.9998C24.5317 47.9268 21.435 45.1822 19.7772 42.8903C18.7302 41.4588 17.9268 39.7692 17.4172 37.9268C16.1048 35.6348 15.0803 32.6129 14.4011 28.9487C14.0144 26.8895 13.7527 24.7958 13.6182 22.6859C12.9191 21.917 12.4179 20.9 12.1792 19.7662C11.7878 18.0144 12.0411 16.1749 12.9045 14.5837C13.2598 13.9176 13.7208 13.3529 14.2579 12.9255C14.7951 12.4982 15.3967 12.2177 16.0243 12.1019C16.329 12.0427 16.6369 12.0134 16.9452 12.0144C17.7117 12.0244 18.4725 12.1819 19.2016 12.4815C22.0336 13.2844 23.0352 16.7005 24.0137 19.9998L24.0367 20.0727C24.5087 21.664 24.9577 23.1822 25.6024 24.3501C26.6615 26.2479 28.2732 27.3428 30.0115 27.3428C31.7498 27.3428 33.35 26.2479 34.4207 24.3501C35.0769 23.153 35.4452 21.5764 35.8367 19.9122V19.883C36.6425 16.4523 37.4829 12.8903 41.0286 12.3939C41.6899 12.1421 42.3759 12.0094 43.0663 11.9998C43.4136 12.0011 43.7603 12.0402 44.1024 12.1165C44.7065 12.2513 45.283 12.5392 45.7973 12.9631C46.3116 13.3871 46.7532 13.9383 47.0955 14.5837C47.9589 16.1603 48.2122 17.9998 47.8208 19.7662C47.582 20.8958 47.0806 21.9081 46.3818 22.6713C46.1976 25.6494 45.4608 32.8757 42.5828 37.9268C42.0721 39.7642 41.2687 41.4487 40.2228 42.8757C38.542 45.2114 35.3992 47.9852 30.0115 47.9852L29.8158 47.9998ZM16.9222 13.2552C15.5177 13.2552 14.4356 13.9414 13.6988 15.299C12.962 16.6567 12.7894 18.0436 13.1117 19.445C13.3304 20.4523 13.8139 21.3866 14.3665 21.8684L14.4816 21.9852C14.5022 22.0033 14.5191 22.0272 14.5311 22.0551C14.5431 22.083 14.5498 22.114 14.5507 22.1457V22.3355C15.0227 31.1238 17.4863 36.0144 18.2346 37.299L18.2576 37.3428L18.2806 37.4012L18.3037 37.4596C18.4418 38.0436 19.0059 40.0436 20.4679 42.0582C21.93 44.0728 24.9116 46.7443 29.9194 46.7735H30.1957C35.1229 46.7005 37.9779 44.1749 39.4975 42.0582C41.0171 39.9414 41.5697 37.8684 41.6618 37.4742L41.6848 37.4012C41.6963 37.3866 41.6963 37.3574 41.7078 37.3428L41.7424 37.2844C42.4792 36.0144 44.9428 31.1676 45.4148 22.3355V22.1457C45.4156 22.114 45.4223 22.083 45.4343 22.0551C45.4463 22.0272 45.4633 22.0033 45.4838 21.9852L45.5989 21.883C46.163 21.372 46.6466 20.4377 46.8653 19.445C47.1761 18.0582 46.9689 16.5837 46.2667 15.299C45.5644 14.0144 44.4362 13.2698 43.0202 13.2698C42.412 13.2726 41.8073 13.3857 41.2243 13.6056H41.1207C38.1851 13.9998 37.4829 17.0217 36.7346 20.2333L36.7001 20.3355C36.3202 21.9998 35.9172 23.7224 35.1689 25.0509C33.9141 27.2844 32.0261 28.5691 29.9655 28.5691C27.9048 28.5691 26.0168 27.2844 24.7735 25.0509C24.0482 23.737 23.5417 22.0436 23.0697 20.4231C22.1833 17.4158 21.2623 14.3209 18.9368 13.6786H18.8908C18.2563 13.4068 17.5919 13.2639 16.9222 13.2552ZM30 46.2187C26.1089 46.2187 23.0352 44.7151 20.8594 41.7516C19.8968 40.4507 19.1665 38.9022 18.7181 37.2114C18.7181 37.1968 18.7066 37.1968 18.7066 37.1822L18.6721 37.08H18.6605C15.5868 31.8684 15.0572 23.5034 14.9882 21.883V21.8538C14.9849 21.7986 14.9705 21.7454 14.9463 21.6994C14.9221 21.6533 14.889 21.616 14.85 21.591C14.3895 21.3428 13.7909 20.4669 13.5261 19.299C13.3304 18.4377 13.2614 17.0946 14.0557 15.6202C14.7004 14.4231 15.7019 13.7954 16.9222 13.7954C17.4402 13.7984 17.9554 13.8918 18.4533 14.0727L18.5339 14.1019C18.548 14.1051 18.5614 14.1119 18.5733 14.122C18.5851 14.132 18.5953 14.1451 18.603 14.1603L18.6605 14.2333C19.2937 15.0217 19.593 15.9268 19.5585 16.9195C19.5124 18.4815 19.1556 19.299 18.7872 19.81C19.6851 20.1457 21.2968 20.9487 21.1702 23.5764C21.0666 25.591 20.5255 26.3501 20.2262 26.7589H20.2032C20.986 27.956 21.7343 29.737 20.9399 31.4888C20.9188 31.5342 20.9032 31.5834 20.8939 31.6348C21.0022 31.7556 21.1221 31.8586 21.2508 31.9414H21.2853C21.6307 32.1749 22.0912 32.4961 22.2408 33.153C22.3444 33.5764 22.2869 34.0436 22.0566 34.5545C21.8264 35.0655 21.9185 35.3574 22.402 35.8684C22.8855 36.3793 23.4381 36.9341 23.4381 38.1019C23.4381 39.7954 26.0744 41.591 29.9885 41.591C32.5442 41.591 34.1098 40.9049 34.9848 40.3355C35.8597 39.7662 36.5504 38.8465 36.5504 38.1019C36.5504 36.9487 37.1375 36.3355 37.5635 35.883L37.5865 35.8538C38.07 35.3428 38.2197 35.1968 37.9434 34.5399C37.6671 33.883 37.6556 33.5618 37.7592 33.1384C37.9088 32.4815 38.3693 32.1749 38.7147 31.9414L38.7492 31.9122C38.8643 31.8392 39.0716 31.6932 39.1061 31.6056C39.0968 31.5542 39.0813 31.505 39.0601 31.4596C38.2657 29.7224 39.014 27.9414 39.7968 26.7443H39.7853C39.509 26.3793 38.9449 25.6056 38.8298 23.5472C38.7032 20.9195 40.3149 20.1311 41.2128 19.7808C40.8444 19.2698 40.4876 18.4669 40.4415 16.8903C40.407 15.883 40.7178 14.9779 41.351 14.1895L41.4085 14.1165L41.4776 14.0582L41.5582 14.029C42.0422 13.8608 42.5414 13.7724 43.0433 13.7662C44.2751 13.7662 45.2766 14.3939 45.9213 15.5764C46.7156 17.0363 46.6466 18.3793 46.4508 19.2552C46.1861 20.4377 45.5874 21.299 45.1269 21.5618C45.0889 21.5844 45.0562 21.6191 45.0319 21.6627C45.0077 21.7062 44.9928 21.757 44.9888 21.81C44.9888 21.883 44.6549 31.4012 41.3164 37.0509C41.2988 37.0696 41.2867 37.0953 41.2819 37.1238V37.153C40.8446 38.8546 40.113 40.4107 39.1406 41.7078C36.9764 44.7005 33.9026 46.2187 30 46.2187ZM19.6391 36.8757C19.6506 36.9487 20.1226 38.9633 21.5501 40.9049C23.5532 43.6202 26.3852 44.9925 29.9885 44.9925C33.5918 44.9925 36.4468 43.6202 38.4269 40.9049C39.9235 38.8903 40.3494 36.8757 40.3494 36.8611C40.3876 36.6645 40.4582 36.4804 40.5566 36.3209C43.734 30.9487 44.0333 21.8684 44.0448 21.7808C44.0501 21.4976 44.119 21.2222 44.2433 20.9868C44.3677 20.7515 44.5425 20.5661 44.7471 20.4523C44.8967 20.3647 45.3342 19.8246 45.5299 18.9487C45.668 18.3209 45.7141 17.3574 45.1269 16.3063C44.5398 15.2552 43.9642 15.0217 43.0548 15.0217C42.6823 15.0259 42.3114 15.0847 41.9496 15.1968C41.7752 15.4163 41.6374 15.678 41.5444 15.9665C41.4515 16.2549 41.4052 16.5641 41.4085 16.8757C41.4546 18.4961 41.8805 18.9633 42.1453 19.2406C42.4101 19.518 42.5137 19.6348 42.5137 20.0436C42.5137 20.4523 42.0993 20.7589 41.6848 20.9049C40.6833 21.2698 39.7047 21.7662 39.7968 23.5034C39.8889 25.2406 40.2343 25.591 40.476 25.9268H40.4876C40.6948 26.2041 41.0747 26.7297 40.5451 27.518C39.6817 28.8173 39.463 29.9414 39.8774 30.8611C40.0501 31.2406 40.1077 31.6056 40.0271 31.956C39.912 32.5253 39.4975 32.8027 39.1637 33.0217H39.1406C38.9449 33.1676 38.7032 33.3282 38.6686 33.4742C38.6341 33.6202 38.6341 33.6348 38.7722 33.956C39.44 35.4888 38.6917 36.2771 38.1966 36.7881H38.1851C37.7592 37.226 37.5059 37.518 37.5059 38.0873C37.5059 40.3793 34.8581 42.8027 29.9655 42.8027C25.0728 42.8027 22.448 40.3793 22.448 38.0873C22.448 37.518 22.1487 37.1968 21.7803 36.8027H21.7688C21.2623 36.2917 20.514 35.5034 21.1817 33.956C21.3198 33.6494 21.3083 33.5034 21.2968 33.4742C21.2853 33.445 21.0205 33.1676 20.8133 33.0217H20.8018C20.4679 32.8027 20.0535 32.5253 19.9269 31.956C19.861 31.5802 19.9148 31.1867 20.0765 30.8611C20.491 29.9414 20.2722 28.8173 19.4203 27.518C18.8908 26.7151 19.2707 26.2041 19.4779 25.9268C19.6851 25.6494 20.0996 25.08 20.1686 23.4888C20.2377 21.8976 19.2822 21.2552 18.2806 20.8903C17.8892 20.7589 17.4518 20.5983 17.4518 20.029C17.4518 19.4596 17.659 19.4012 17.8202 19.226C17.9813 19.0509 18.5109 18.4815 18.5569 16.8611C18.5607 16.5516 18.5146 16.2444 18.4216 15.9583C18.3285 15.6721 18.1905 15.4131 18.0159 15.1968C17.6594 15.0735 17.2917 15.0097 16.9222 15.0071C16.0243 15.0071 15.322 15.445 14.85 16.3063C14.378 17.1676 14.3205 18.3209 14.4586 18.9487C14.6428 19.8246 15.0803 20.3647 15.2414 20.4523C15.4443 20.565 15.6179 20.7482 15.7421 20.9807C15.8664 21.2132 15.9362 21.4855 15.9437 21.7662C15.9437 21.8684 16.2545 30.9487 19.4319 36.3209C19.5272 36.4754 19.5941 36.655 19.6276 36.8465L19.6391 36.8757Z" fill="white"/>
<path d="M29.812 47.7821C24.597 47.7092 21.5463 45.0084 19.9001 42.7456C18.8632 41.3319 18.0677 39.6621 17.5631 37.8405C16.2622 35.5632 15.2492 32.5559 14.5584 28.9062C14.1776 26.8259 13.916 24.7133 13.7756 22.5851C13.1309 21.9281 12.5899 20.8624 12.3366 19.7092C11.9567 18.0157 12.21 16.2493 13.0388 14.7165C13.3778 14.0708 13.8209 13.5236 14.3388 13.111C14.8567 12.6983 15.4377 12.4295 16.0435 12.3223C17.2523 12.0741 18.4035 12.3807 19.1633 12.6873C21.8917 13.461 22.8932 16.8186 23.8487 20.0741C24.3323 21.7092 24.7927 23.2712 25.4604 24.4683C26.5541 26.4391 28.2118 27.5632 30.0077 27.5632C31.8036 27.5632 33.4499 26.4391 34.555 24.4683C35.2342 23.242 35.6026 21.6508 35.994 19.9573C36.7884 16.5851 37.6057 13.0814 41.0479 12.5997C41.7962 12.3223 42.9128 12.0741 44.0756 12.3369C44.6562 12.4649 45.2104 12.7404 45.705 13.1468C46.1995 13.5532 46.6242 14.0821 46.9536 14.7019C47.7825 16.2347 48.0357 18.0011 47.6558 19.7092C47.4153 20.8255 46.9136 21.8231 46.2168 22.5705C46.0672 25.0668 45.388 32.6581 42.4293 37.8259C41.93 39.6506 41.1338 41.3217 40.0924 42.7311C38.4346 45.0376 35.3263 47.7676 30.0077 47.7676L29.812 47.7821ZM16.9184 13.0376C15.7787 13.0376 14.4664 13.5048 13.5569 15.1836C12.8316 16.5121 12.6129 18.0449 12.9352 19.5048C13.177 20.5559 13.672 21.5194 14.2706 22.0595L14.3858 22.1617V22.3515C14.8578 31.2128 17.3444 36.1179 18.1042 37.4318L18.1272 37.4756L18.1502 37.534C18.2884 38.1179 18.864 40.1617 20.3491 42.2055C21.8341 44.2493 24.8618 46.9646 29.9272 46.9792H30.2034C35.1767 46.9208 38.0777 44.3515 39.6319 42.2055C40.6193 40.8626 41.3725 39.2708 41.8422 37.534V37.4756L41.8768 37.4318C42.625 36.1325 45.1117 31.2128 45.5837 22.3515V22.1617L45.6988 22.0595C46.2859 21.5194 46.7924 20.5559 47.0227 19.5048C47.3565 18.0449 47.1263 16.4975 46.401 15.1836C44.8699 12.3807 42.2336 13.0084 41.1745 13.4026H41.1054C38.0547 13.7967 37.3295 16.8916 36.5581 20.1909C36.1667 21.8551 35.7638 23.5924 35.027 24.9208C33.8067 27.096 31.9648 28.3515 29.9617 28.3515C27.9586 28.3515 26.1281 27.096 24.9079 24.9208C24.1941 23.6362 23.6991 21.9719 23.2156 20.3515C22.3176 17.3004 21.3851 14.1325 18.9676 13.461H18.9446C18.2904 13.1887 17.607 13.0459 16.9184 13.0376ZM29.9962 46.0011C26.1512 46.0011 23.1235 44.5121 20.9822 41.607C20.0275 40.3262 19.3046 38.7967 18.864 37.1252C18.8519 37.0635 18.8325 37.0044 18.8064 36.95C15.4909 31.3442 15.1571 21.9281 15.1456 21.8259C15.1448 21.7325 15.1227 21.6413 15.0818 21.5636C15.0409 21.4858 14.9831 21.4248 14.9153 21.388C14.5009 21.1544 13.9253 20.3223 13.6835 19.2274C13.4993 18.4099 13.4418 17.1252 14.1901 15.7238C14.9383 14.3223 16.55 13.6362 18.4035 14.2785L18.4841 14.3223L18.5416 14.3807C19.1403 15.1252 19.4166 15.9719 19.382 16.9062C19.336 18.804 18.8064 19.5194 18.4611 19.9135H18.5186C19.3705 20.2347 21.1319 20.8624 20.9937 23.5486C20.9016 25.5194 20.3606 26.2201 20.0843 26.6143L19.9807 26.7456L20.0497 26.877C20.8095 28.0157 21.5463 29.7238 20.7865 31.3734C20.7381 31.469 20.714 31.5811 20.7174 31.6946C20.752 31.8405 20.9822 32.0011 21.201 32.1471C21.4197 32.2931 21.9492 32.6727 22.0759 33.2274C22.2025 33.7821 22.1104 34.0011 21.9032 34.4683C21.5463 35.2712 21.7996 35.534 22.2946 36.0449C22.7896 36.5559 23.2616 37.0522 23.2616 38.1179C23.2616 39.8989 25.8288 41.8259 29.9847 41.8259C32.5634 41.8259 34.1636 41.1252 35.0501 40.5413C35.9365 39.9573 36.7193 38.95 36.7193 38.1179C36.7193 37.0522 37.2604 36.4975 37.6863 36.0449C38.1123 35.5924 38.4346 35.2566 38.0893 34.4537C37.882 33.9865 37.836 33.5778 37.9166 33.2128C37.9972 32.8478 38.4576 32.3661 38.7915 32.1471C39.1253 31.9281 39.2405 31.8259 39.275 31.68C39.2785 31.5665 39.2543 31.4544 39.2059 31.3588C38.4461 29.7238 39.1829 28.0011 39.9427 26.8624L40.0118 26.7456L39.9082 26.5997C39.6319 26.2201 39.1023 25.5048 38.9987 23.534C38.8606 20.8478 40.6219 20.2201 41.4738 19.9135L41.5314 19.8843C41.186 19.5048 40.6565 18.7894 40.6104 16.8916C40.5759 15.9427 40.8637 15.0814 41.4738 14.3369L41.5199 14.2639L41.6005 14.2347C43.4424 13.607 44.916 14.1325 45.7794 15.7092C46.6428 17.2858 46.4701 18.3661 46.2859 19.1982C46.0441 20.2931 45.4685 21.1398 45.0541 21.3588C44.9873 21.3989 44.9299 21.4604 44.8875 21.5372C44.8451 21.614 44.8192 21.7034 44.8123 21.7967C44.8123 21.8843 44.5015 31.3004 41.1745 36.9208C41.1425 36.9728 41.1191 37.0324 41.1054 37.096C41.0824 37.1982 40.5874 39.4172 38.9987 41.5632C36.869 44.5121 33.8413 46.0011 29.9962 46.0011ZM16.9184 14.8186C15.7557 14.8186 15.088 15.5048 14.7081 16.1909C14.098 17.3296 14.144 18.3515 14.2937 19.023C14.4894 19.9573 14.9614 20.5559 15.1686 20.6581C15.3429 20.757 15.4915 20.9164 15.5974 21.1179C15.7033 21.3194 15.7622 21.5547 15.7672 21.7967C15.7672 21.8843 16.1011 31.0668 19.2899 36.4683C19.3679 36.6052 19.4263 36.7583 19.4626 36.9208C19.4626 36.9354 19.9346 39.023 21.4197 41.0522C23.4458 43.7967 26.3239 45.1982 29.9847 45.1982C33.6456 45.1982 36.5236 43.8113 38.5497 41.0522C40.0463 39.0376 40.4953 36.9938 40.5068 36.9062C40.5409 36.7472 40.5996 36.5983 40.6795 36.4683C43.8799 31.0522 44.2022 21.8697 44.2022 21.7821C44.2134 21.5402 44.2761 21.3066 44.3835 21.1061C44.4909 20.9057 44.6391 20.7458 44.8123 20.6435C45.0081 20.5413 45.48 19.9281 45.6873 19.0084C45.8369 18.3369 45.883 17.315 45.2613 16.1909C44.7778 15.3004 43.7878 14.3807 41.8537 15.0084C41.4278 15.5778 41.2206 16.2055 41.2321 16.877C41.2896 18.5997 41.7501 19.1106 42.0264 19.4026C42.3027 19.6946 42.3372 19.7384 42.3372 20.0449C42.3372 20.3515 42.0264 20.5559 41.635 20.7019C40.6104 21.0668 39.5283 21.6216 39.6204 23.5194C39.7125 25.4172 40.1154 25.7384 40.3571 26.0741C40.5989 26.4099 40.8522 26.7311 40.4147 27.388C39.5053 28.7748 39.275 29.9865 39.724 30.9792C39.7967 31.1144 39.8466 31.2672 39.8703 31.428C39.8941 31.5888 39.8913 31.7542 39.8621 31.9135C39.7585 32.3807 39.4016 32.6289 39.0793 32.8478C38.757 33.0668 38.5497 33.2128 38.4922 33.4464C38.4346 33.68 38.5037 33.8113 38.6188 34.0887C39.229 35.4756 38.5843 36.1325 38.0777 36.6727C37.5712 37.2128 37.3295 37.4318 37.3295 38.1325C37.3295 40.3223 34.7507 42.6435 29.9617 42.6435C25.1726 42.6435 22.6054 40.3223 22.6054 38.1325C22.6054 37.4464 22.2601 37.0814 21.8687 36.6727C21.4772 36.2639 20.729 35.4756 21.3276 34.0887C21.4427 33.8113 21.4888 33.5924 21.4542 33.4464C21.4197 33.3004 21.1319 33.0376 20.8786 32.8478C20.6253 32.6581 20.1879 32.3807 20.0958 31.9135C20.0642 31.7552 20.0592 31.5903 20.081 31.4294C20.1028 31.2684 20.151 31.1151 20.2224 30.9792C20.6829 29.9719 20.4527 28.7748 19.5432 27.388C19.1057 26.7311 19.3935 26.3515 19.6008 26.0741C19.808 25.7967 20.257 25.1982 20.3375 23.5194C20.4181 21.8405 19.3475 21.0668 18.3229 20.7019C17.9315 20.5559 17.6092 20.4391 17.6092 20.0449C17.6092 19.6508 17.7818 19.5632 17.9315 19.4026C18.0812 19.242 18.6683 18.5997 18.7143 16.877C18.7374 16.2055 18.5301 15.5778 18.1042 15.023C17.7182 14.8863 17.3192 14.8176 16.9184 14.8186Z" fill="white"/>
</svg>
