<svg width="40" height="40" viewBox="0 0 40 40" fill="none" xmlns="http://www.w3.org/2000/svg">
<path d="M24.6597 15.3202C24.0555 14.7069 23.3347 14.2206 22.5397 13.8902C21.2755 13.3643 19.8783 13.2477 18.5445 13.5569C17.2106 13.8661 16.0072 14.5855 15.1034 15.614C14.1995 16.6426 13.6408 17.9285 13.5056 19.291C13.3704 20.6535 13.6656 22.0242 14.3497 23.2102L13.4297 26.6102L16.8897 25.7002C17.8874 26.2397 19.008 26.5113 20.142 26.4884C21.276 26.4655 22.3847 26.149 23.3599 25.5697C24.3351 24.9905 25.1434 24.1682 25.706 23.1833C26.2686 22.1984 26.5661 21.0845 26.5697 19.9502C26.5728 19.0906 26.4056 18.2389 26.0778 17.4442C25.7499 16.6495 25.268 15.9277 24.6597 15.3202ZM20.0297 25.3802C19.0515 25.3819 18.091 25.1194 17.2497 24.6202L17.0497 24.5102L14.9897 25.0502L15.5397 23.0402L15.4097 22.8302C14.8934 22.0069 14.6071 21.0602 14.5806 20.0888C14.554 19.1173 14.7882 18.1564 15.2588 17.3061C15.7294 16.4558 16.4192 15.7471 17.2564 15.2536C18.0937 14.7602 19.0478 14.5 20.0197 14.5002C20.7342 14.4965 21.4423 14.6361 22.1019 14.9109C22.7615 15.1858 23.3592 15.5902 23.8597 16.1002C24.3686 16.6027 24.773 17.2008 25.0497 17.8602C25.3207 18.5237 25.46 19.2336 25.4597 19.9502C25.461 20.6637 25.3215 21.3704 25.049 22.0298C24.7766 22.6892 24.3767 23.2883 23.8722 23.7928C23.3677 24.2973 22.7686 24.6972 22.1092 24.9696C21.4498 25.242 20.7431 25.3816 20.0297 25.3802ZM23.0097 21.3102L21.8997 20.7802C21.7397 20.7302 21.6397 20.7002 21.5297 20.8602C21.4197 21.0202 21.0997 21.3902 21.0097 21.5002C20.9197 21.6102 20.8197 21.6302 20.6497 21.5402C20.1702 21.3465 19.7273 21.0726 19.3397 20.7302C18.9817 20.3973 18.6751 20.0131 18.4297 19.5902C18.3397 19.4302 18.4097 19.3402 18.4997 19.2502C18.5846 19.1612 18.6647 19.0678 18.7397 18.9702C18.8091 18.8889 18.8663 18.798 18.9097 18.7002C18.931 18.6545 18.9412 18.6044 18.9394 18.554C18.9377 18.5037 18.9241 18.4544 18.8997 18.4102C18.8597 18.3402 18.5297 17.5302 18.3897 17.2002C18.2497 16.8702 18.1197 16.9202 18.0197 16.9102H17.7097C17.6256 16.9119 17.5429 16.9315 17.467 16.9677C17.3911 17.0039 17.3238 17.0559 17.2697 17.1202C17.0862 17.2976 16.941 17.5107 16.843 17.7463C16.745 17.9819 16.6962 18.2351 16.6997 18.4902C16.6997 19.2902 17.2897 20.0702 17.3697 20.1802C17.4497 20.2902 18.5297 21.9402 20.1697 22.6502C20.4713 22.7853 20.7821 22.8989 21.0997 22.9902C21.4326 23.0949 21.7857 23.1189 22.1297 23.0602C22.4397 23.0102 23.0997 22.6602 23.2297 22.2802C23.3597 21.9002 23.3697 21.5702 23.3197 21.5002C23.2697 21.4302 23.1797 21.3902 23.0097 21.3102Z" fill="white"/>
<path d="M20 1.2C22.5147 1.19614 25.0043 1.69951 27.32 2.68C31.8212 4.59452 35.4055 8.17877 37.32 12.68C38.2969 14.9968 38.8002 17.4857 38.8002 20C38.8002 22.5143 38.2969 25.0032 37.32 27.32C35.4055 31.8212 31.8212 35.4055 27.32 37.32C25.0032 38.2969 22.5143 38.8002 20 38.8002C17.4857 38.8002 14.9968 38.2969 12.68 37.32C8.17878 35.4055 4.59453 31.8212 2.68001 27.32C1.70311 25.0032 1.19982 22.5143 1.19982 20C1.19982 17.4857 1.70311 14.9968 2.68001 12.68C4.59453 8.17877 8.17878 4.59452 12.68 2.68C14.9957 1.69951 17.4853 1.19614 20 1.2ZM20 2.50273e-06C16.0444 2.50273e-06 12.1776 1.17298 8.8886 3.37061C5.59962 5.56824 3.03617 8.69181 1.52242 12.3463C0.00866565 16.0009 -0.387401 20.0222 0.384303 23.9018C1.15601 27.7814 3.06082 31.3451 5.85787 34.1421C8.65492 36.9392 12.2186 38.844 16.0982 39.6157C19.9778 40.3874 23.9991 39.9913 27.6537 38.4776C31.3082 36.9638 34.4318 34.4004 36.6294 31.1114C38.827 27.8224 40 23.9556 40 20C40.0013 17.3732 39.4849 14.7719 38.4803 12.3448C37.4756 9.91767 36.0025 7.71237 34.1451 5.85493C32.2876 3.9975 30.0823 2.52436 27.6552 1.51973C25.2281 0.515106 22.6268 -0.00131189 20 2.50273e-06Z" fill="white"/>
</svg>
