<svg width="76" height="77" viewBox="0 0 76 77" fill="none" xmlns="http://www.w3.org/2000/svg">
<g filter="url(#filter0_d_324_9895)">
<rect x="6" y="6.5" width="60" height="60" rx="30" fill="white"/>
<g clip-path="url(#clip0_324_9895)">
<path d="M48.6388 28.1449C48.3799 25.8473 47.0532 24.3912 44.9174 24.0352C44.5316 23.98 44.1422 23.953 43.7525 23.9543H42.4743C42.1647 23.9875 41.8775 24.1311 41.6653 24.3588C41.1877 24.9077 40.5819 25.3301 39.9017 25.5885C38.9976 25.9316 38.0371 26.1017 37.0702 26.09C36.4964 26.0978 35.923 26.0599 35.3552 25.9768C34.1093 25.7826 33.1709 25.3619 32.5075 24.7148C31.8442 24.0676 31.019 23.9058 30.3556 23.9058H29.4981C27.0873 24.0676 25.5664 25.4105 25.1296 27.7889C24.9572 28.8114 24.9517 29.855 25.1134 30.8792C25.3723 32.837 25.9385 34.8595 26.9255 37.2055C27.2657 38.0135 27.4258 38.8858 27.3947 39.7619V43.1273C27.3947 44.0658 27.3947 46.0235 27.4918 47.3179C27.6212 49.1138 27.8639 50.4568 28.3008 51.6703C28.495 52.3551 28.8694 52.9753 29.3848 53.4662C29.7182 53.7945 30.163 53.9851 30.6307 54.0001C31.0028 54.0001 31.5367 53.8545 32.006 53.1912C32.2725 52.8159 32.49 52.4081 32.6532 51.9777C33.268 50.4244 33.5592 48.8064 33.7696 47.2855C33.9314 46.153 34.1902 44.8262 34.8374 43.5965C35.1934 42.917 35.5655 42.4963 36.0347 42.1889C36.2842 42.0208 36.5755 41.9255 36.8761 41.9139C37.1495 41.9235 37.414 42.0135 37.6365 42.1727C38.0002 42.4366 38.3173 42.7592 38.5749 43.1273C39.1251 43.8716 39.481 44.7939 39.7237 46.0397C39.8532 46.6222 39.9502 47.2046 40.0473 47.7871C40.1444 48.3696 40.3224 49.308 40.4842 50.0685C40.7107 51.1201 41.0019 52.2204 41.6976 53.175C42.183 53.8545 42.717 54.0001 43.0891 54.0001C43.5714 53.9798 44.0282 53.7774 44.3673 53.4339C44.9498 52.8999 45.241 52.2042 45.4352 51.6541C45.9529 50.1332 46.228 48.4181 46.3089 46.25C46.3574 44.357 46.3412 42.4478 46.3251 40.5871V39.859C46.3192 38.9347 46.4894 38.0177 46.8266 37.157C47.2655 36.088 47.6489 34.9971 47.9754 33.8887C48.4123 32.3516 48.8976 30.2968 48.6388 28.1449ZM31.6338 25.8473C33.0576 26.9637 34.7889 27.5139 36.9246 27.5139C38.3484 27.5139 40.4033 27.3521 42.1021 25.9282C42.1053 26.055 42.0792 26.1808 42.0259 26.2958C41.9726 26.4109 41.8935 26.5121 41.7947 26.5916C41.3929 26.9887 40.9282 27.3167 40.4194 27.5624C39.4325 28.0154 38.2999 28.2419 36.957 28.2419H36.2774C34.886 28.161 33.8019 27.886 32.8797 27.3682C32.5108 27.1579 32.1777 26.8903 31.8927 26.5754C31.7922 26.4853 31.7159 26.3715 31.6707 26.2443C31.6255 26.1171 31.6128 25.9807 31.6338 25.8473Z" fill="#161616"/>
<path d="M43.3479 20.3461C43.0728 21.0095 42.5713 21.5596 41.8108 22.0288C40.7591 22.676 39.5456 23.0482 37.9762 23.1938L37.5717 23.2261V23.6306H37.8468C37.9294 23.6248 38.0123 23.6362 38.0902 23.664C38.1682 23.6919 38.2396 23.7356 38.2998 23.7924C38.3961 23.9262 38.4493 24.0862 38.4522 24.251C38.4551 24.4158 38.4076 24.5776 38.316 24.7147C38.0411 25.0219 37.7495 25.3135 37.4423 25.5884L37.3452 25.6855C37.2155 25.8139 37.0422 25.889 36.8598 25.8958C36.7618 25.8915 36.6655 25.8678 36.5767 25.8262C36.4878 25.7845 36.4081 25.7257 36.342 25.6531L35.4683 24.7956C35.1286 24.472 35.1124 24.0675 35.4198 23.7601C35.4819 23.6936 35.5571 23.6406 35.6406 23.6044C35.7241 23.5682 35.8142 23.5496 35.9052 23.5497C35.9885 23.5501 36.0709 23.5666 36.1479 23.5983V23.2423L35.7596 23.1938C35.2742 23.1291 34.7726 23.0643 34.2872 22.9511C33.0737 22.7084 32.1029 22.2715 31.3263 21.6082C30.809 21.2114 30.4389 20.6534 30.2746 20.0225C30.0805 19.1812 30.3879 18.6473 31.1645 18.4369C31.8062 18.2678 32.4612 18.1541 33.1223 18.0971C34.0769 18.0324 35.0315 18.0001 35.9699 18.0001C38.0237 17.9963 40.0744 18.1587 42.102 18.4855L42.3933 18.5502H42.4256C42.8139 18.6473 43.2346 18.7929 43.4288 19.165C43.6229 19.5371 43.4935 19.974 43.3479 20.3461Z" fill="#161616"/>
</g>
</g>
<defs>
<filter id="filter0_d_324_9895" x="0" y="0.5" width="76" height="76" filterUnits="userSpaceOnUse" color-interpolation-filters="sRGB">
<feFlood flood-opacity="0" result="BackgroundImageFix"/>
<feColorMatrix in="SourceAlpha" type="matrix" values="0 0 0 0 0 0 0 0 0 0 0 0 0 0 0 0 0 0 127 0" result="hardAlpha"/>
<feOffset dx="2" dy="2"/>
<feGaussianBlur stdDeviation="4"/>
<feComposite in2="hardAlpha" operator="out"/>
<feColorMatrix type="matrix" values="0 0 0 0 0 0 0 0 0 0 0 0 0 0 0 0 0 0 0.04 0"/>
<feBlend mode="normal" in2="BackgroundImageFix" result="effect1_dropShadow_324_9895"/>
<feBlend mode="normal" in="SourceGraphic" in2="effect1_dropShadow_324_9895" result="shape"/>
</filter>
<clipPath id="clip0_324_9895">
<rect width="23.7196" height="36" fill="white" transform="translate(25 18)"/>
</clipPath>
</defs>
</svg>
