<svg width="76" height="77" viewBox="0 0 76 77" fill="none" xmlns="http://www.w3.org/2000/svg">
<g filter="url(#filter0_d_32_10068)">
<rect x="6" y="6.5" width="60" height="60" rx="30" fill="white"/>
<path d="M28.113 54.4527C27.5258 54.4375 26.9657 54.2536 26.5378 53.9355C25.8013 53.402 25.4331 52.7392 25.1671 52.1411C24.6148 50.9126 24.3079 49.587 24.1442 47.7927C24.0215 46.4994 24.0215 44.5435 24.0215 43.5897V42.3126C24.0215 41.6337 24.0215 40.9224 24.0419 40.2435C24.066 39.3676 23.8569 38.4974 23.4282 37.6894C22.2008 35.3293 21.4643 33.3248 21.137 31.3526C20.9477 30.3393 20.9546 29.3091 21.1574 28.2974C21.7302 25.9211 23.6328 24.5794 26.681 24.4177H27.7652C28.604 24.4177 29.586 24.5147 30.4861 25.2098C31.3862 25.9049 32.5114 26.2767 34.1071 26.4869C34.8175 26.5763 35.5359 26.6196 36.2552 26.6162C37.4842 26.6265 38.7051 26.4565 39.8557 26.1151C40.7132 25.8609 41.4788 25.4447 42.0856 24.9027C42.2103 24.786 42.3631 24.6902 42.5353 24.6208C42.7074 24.5514 42.8953 24.5098 43.088 24.4986H44.7042C45.1973 24.4892 45.6904 24.5162 46.1771 24.5794C48.8776 24.935 50.5551 26.3899 50.9029 28.6853C51.2506 30.9808 50.596 32.8721 50.0232 34.4078C49.6106 35.5207 49.1258 36.616 48.5707 37.6894C48.1396 38.5478 47.9309 39.4657 47.957 40.389V41.1164C47.9774 42.9593 47.9979 44.8829 47.9365 46.7743C47.8547 48.9242 47.4864 50.6378 46.8318 52.1734C46.5863 52.7231 46.2181 53.4182 45.502 53.9355C45.0709 54.2761 44.4948 54.4778 43.8859 54.5012C43.4154 54.5012 42.7198 54.3719 42.1061 53.693C41.2468 52.7392 40.8581 51.6238 40.5717 50.5731C40.3672 49.8295 40.183 49.0536 40.0194 48.31C39.8557 47.5664 39.7739 47.1299 39.6307 46.5641C39.3034 45.3194 38.8533 44.3818 38.1782 43.6382C37.8356 43.2865 37.4367 42.9714 36.9916 42.7006C36.7057 42.5367 36.3629 42.4464 36.0097 42.442C35.628 42.4462 35.257 42.5421 34.9459 42.7168C34.3526 43.0078 33.8821 43.4442 33.432 44.107C32.6137 45.3517 32.2864 46.6773 32.0818 47.8088C31.8159 49.3284 31.4476 50.9287 30.6702 52.4806C30.4683 52.9122 30.193 53.32 29.8519 53.693C29.2586 54.3234 28.5835 54.4527 28.113 54.4527ZM35.9688 40.9871C36.9303 40.9871 37.8713 41.3104 38.6896 41.8924C39.001 42.1388 39.2882 42.4036 39.5489 42.6844C40.3876 43.622 40.9809 44.7374 41.3287 46.1438C41.4923 46.7743 41.6355 47.4209 41.7787 48.0513C41.9219 48.6818 42.0856 49.4415 42.2697 50.1205C42.4538 50.7994 42.8221 51.9633 43.4972 52.7716C43.6608 52.9494 43.804 53.0625 43.9268 53.0625C44.0495 53.0625 44.1518 52.9817 44.295 52.8362C44.6535 52.4813 44.9367 52.0827 45.1338 51.6562C45.768 50.2983 45.9521 48.9081 46.1158 47.2269C46.3817 44.7536 46.2794 42.2803 46.1771 40.389C46.1217 39.2886 46.3659 38.1916 46.8932 37.1721C47.4251 36.1537 47.8751 35.1191 48.2638 34.1007C49.0412 32.0639 49.3276 30.4959 49.164 28.9763C48.9594 27.182 47.8547 26.1636 45.768 25.8888C45.3209 25.8365 44.8697 25.8095 44.4178 25.8079H44.2746C44.561 26.8102 44.1723 27.6669 43.1289 28.3782C42.5801 28.7517 41.9671 29.0619 41.3082 29.2996C39.7534 29.8654 38.0554 30.1241 36.1324 30.1241C35.7028 30.1241 35.2732 30.1241 34.8231 30.0917C32.6751 29.9624 30.9975 29.5583 29.5655 28.8308C28.1335 28.1034 27.4584 27.1497 27.7243 25.8079H27.6016C27.1984 25.8075 26.7956 25.8237 26.3946 25.8564C24.5534 26.0342 23.4078 26.8425 22.9781 28.2651C22.7431 29.1641 22.7085 30.0886 22.8759 30.997C23.1623 32.8883 23.8578 34.8281 25.0648 37.1236C25.608 38.1398 25.8595 39.2384 25.8013 40.3405C25.6786 42.4581 25.5967 45.2547 25.9445 48.0351C26.1286 49.3607 26.3332 50.6539 26.9469 51.8663C27.1303 52.2202 27.386 52.5479 27.7039 52.8362C27.9084 53.0302 28.0312 53.0625 28.0721 53.0625C28.113 53.0625 28.3176 52.9494 28.4608 52.7877C28.6714 52.5584 28.8433 52.3085 28.9722 52.0441L29.0336 51.8825C29.3424 51.194 29.6019 50.4924 29.811 49.781C29.9747 49.1667 30.1179 48.5201 30.2406 47.9058C30.3634 47.2915 30.5475 46.4994 30.7521 45.8043C31.2226 44.1393 31.9795 42.9269 33.1661 41.9893C34.0048 41.3427 34.9663 40.9871 35.9688 40.9871ZM29.3814 26.3414C29.3618 26.4719 29.3812 26.6043 29.438 26.7278C29.4949 26.8513 29.5876 26.9626 29.7087 27.0527C30.0746 27.3625 30.4948 27.6293 30.9566 27.8448C32.1227 28.362 33.4934 28.6369 35.2527 28.7015H36.1324C37.8099 28.7015 39.242 28.4914 40.4899 28.0226C41.1285 27.7777 41.7152 27.456 42.2288 27.0688C42.3537 26.9894 42.4537 26.8883 42.5211 26.7733C42.5885 26.6584 42.6215 26.5327 42.6175 26.406C40.4694 27.8124 37.8713 27.9902 36.071 27.9902C33.3706 28.0064 31.1817 27.4568 29.3814 26.3414Z" fill="#161616"/>
<path d="M24.438 43.2152C24.438 42.213 24.4176 41.2269 24.4585 40.2408C24.4873 39.3195 24.264 38.4042 23.8038 37.5574C22.7605 35.5529 21.9217 33.4838 21.5535 31.3176C21.3557 30.3373 21.3626 29.3379 21.574 28.3594C22.0854 26.1286 23.8652 24.9 26.7293 24.7384H27.6294C28.6114 24.7222 29.4502 24.8515 30.2071 25.4496C30.964 26.0477 32.6211 26.6135 34.0327 26.7913C36.058 27.05 38.0628 27.0015 40.0063 26.4195C40.9245 26.1483 41.7408 25.6978 42.3794 25.1102C42.5742 24.948 42.8348 24.845 43.1159 24.8192C44.1183 24.803 45.1412 24.7384 46.1232 24.8677C48.6599 25.191 50.1738 26.5812 50.5011 28.6827C50.8284 30.7842 50.317 32.4653 49.6419 34.292C49.2327 35.3913 48.7418 36.4582 48.2099 37.5251C47.749 38.4227 47.5262 39.3856 47.5552 40.354C47.5757 42.4716 47.6166 44.6054 47.5347 46.7231C47.4529 48.5174 47.2074 50.3118 46.4505 52.0415C46.1845 52.6396 45.8368 53.2215 45.223 53.6741C44.2615 54.3692 43.1977 54.3046 42.4408 53.464C41.6839 52.6234 41.2542 51.5242 40.9678 50.4734C40.6201 49.1479 40.3746 47.79 40.0268 46.4644C39.7608 45.3814 39.3312 44.3306 38.5129 43.4254C38.1579 43.0317 37.7223 42.6875 37.2241 42.407C36.4262 41.9543 35.567 41.9867 34.7282 42.407C34.0211 42.7892 33.4561 43.3138 33.0916 43.9265C32.2733 45.1227 31.9255 46.4159 31.6801 47.7253C31.4141 49.2934 31.0459 50.8614 30.3094 52.3324C30.1036 52.7361 29.8429 53.1209 29.532 53.4802C28.816 54.2884 27.7726 54.3692 26.8111 53.7065C26.1769 53.2538 25.8292 52.6557 25.5632 52.0415C24.9859 50.6669 24.6487 49.2366 24.5608 47.79C24.4176 46.2543 24.4585 43.7972 24.438 43.2152ZM28.2227 25.4496C27.5681 25.482 26.9543 25.482 26.3611 25.5466C24.3357 25.7244 23.0674 26.6297 22.5968 28.1816C22.3415 29.1165 22.2999 30.0801 22.4741 31.0266C22.8014 33.1928 23.6402 35.2458 24.6835 37.2503C25.2153 38.2176 25.4602 39.2681 25.3995 40.3217C25.2563 42.8919 25.2154 45.4784 25.5428 48.0648C25.7269 49.3904 25.9314 50.7321 26.5656 51.9768C26.7738 52.3659 27.0492 52.7304 27.3839 53.0599C27.9158 53.5125 28.3864 53.4802 28.816 52.9629C29.0399 52.7059 29.2253 52.4292 29.3683 52.1384C29.6977 51.3852 29.9776 50.619 30.2071 49.843C30.5753 48.5336 30.7799 47.1919 31.1686 45.8663C31.5573 44.5408 32.1915 43.2314 33.4599 42.2292C34.7282 41.2269 36.8763 41.0168 38.4106 42.1322C38.7154 42.3569 38.9896 42.6061 39.2289 42.8758C40.1291 43.878 40.6405 45.0096 40.9474 46.2058C41.2542 47.402 41.5202 48.8569 41.8884 50.1824C42.1339 51.1524 42.4612 52.1061 43.1773 52.9467C43.6069 53.4802 44.1183 53.5287 44.6093 53.0437C45.0053 52.6622 45.3166 52.2304 45.5299 51.7666C46.205 50.3118 46.3891 48.7761 46.5323 47.2565C46.7471 44.9647 46.7676 42.6641 46.5937 40.3701C46.5364 39.3184 46.7739 38.2696 47.2893 37.2988C47.8007 36.2803 48.2712 35.2458 48.6599 34.195C49.3146 32.4815 49.7646 30.7518 49.5805 28.9575C49.3964 27.1631 48.1076 25.8699 45.8572 25.5628C45.1821 25.482 44.4866 25.4981 43.7296 25.4496C44.2615 26.5974 43.8728 27.4541 42.8704 28.1331C42.3486 28.4904 41.7626 28.7846 41.1315 29.006C39.1471 29.7173 37.04 29.8951 34.8715 29.7657C33.0712 29.6526 31.3323 29.3455 29.7979 28.5534C28.2636 27.7613 27.8136 26.9207 28.2227 25.4496ZM29.1842 25.7729C28.8569 26.3549 28.8978 26.8237 29.4093 27.2601C29.7963 27.6027 30.2526 27.8922 30.7595 28.1169C32.1506 28.7312 33.6849 28.9575 35.2397 29.0221C37.1218 29.103 38.963 28.9575 40.661 28.3432C41.3418 28.0716 41.9689 27.7231 42.5226 27.3086C43.0341 26.9368 43.1977 26.4195 42.8499 25.8214C40.9474 27.3086 38.5743 27.6804 36.058 27.6804C33.5417 27.6804 31.1686 27.1793 29.1842 25.7729Z" fill="#161616"/>
<path d="M35.9955 26.3561C35.7486 26.3499 35.5142 26.2688 35.3409 26.1298L34.2361 25.2568C34.1407 25.1966 34.0627 25.1211 34.0071 25.0351C33.9516 24.9492 33.9199 24.855 33.9141 24.7586C33.9082 24.6622 33.9285 24.566 33.9734 24.4763C34.0184 24.3866 34.087 24.3055 34.1748 24.2384C34.2531 24.1705 34.3476 24.1156 34.453 24.0767C34.5583 24.0379 34.6723 24.0159 34.7885 24.0121C34.8938 24.0125 34.998 24.029 35.0954 24.0606V23.7373L34.6044 23.6888C33.9906 23.6241 33.3565 23.5433 32.7427 23.4463C31.2084 23.1877 30.0014 22.7512 28.999 22.1046C28.3435 21.7024 27.8757 21.1394 27.6692 20.5042C27.4237 19.6798 27.8124 19.1464 28.7944 18.9362C29.6013 18.7517 30.4314 18.6379 31.2698 18.5967C32.4768 18.5321 33.6838 18.4998 34.8703 18.4998C37.473 18.4994 40.0718 18.6562 42.6442 18.9685L42.992 19.0332H43.0329C43.5239 19.1302 44.0558 19.2757 44.3013 19.6475C44.5468 20.0193 44.3831 20.4396 44.199 20.8276C43.8512 21.4903 43.2375 22.0399 42.276 22.5087C40.9258 23.1392 39.3915 23.511 37.4071 23.6726L36.8956 23.705V24.1091L37.2434 24.0768C37.4535 24.0705 37.6587 24.1284 37.8162 24.2384C37.938 24.3721 38.0053 24.5319 38.0089 24.6966C38.0126 24.8613 37.9525 25.0229 37.8367 25.1598C37.4893 25.4719 37.1205 25.7687 36.732 26.0489L36.6092 26.1459C36.4476 26.2771 36.2271 26.3526 35.9955 26.3561ZM29.4081 20.2294L29.5513 20.4719C29.8787 20.9407 30.431 21.2963 31.2493 21.5712C32.7574 22.0788 34.3768 22.3479 36.016 22.3632C37.6659 22.3477 39.2946 22.0672 40.8031 21.5388C41.4035 21.3004 41.9333 20.9644 42.3578 20.5527L42.542 20.3911L42.2351 20.3426C40.578 20.1971 38.88 20.084 37.2434 19.9546C36.6911 19.9061 34.5635 19.89 34.4203 19.89H33.9293L33.2951 19.9223C32.1085 19.987 30.8606 20.0678 29.6536 20.1809C29.5683 20.183 29.4846 20.1995 29.4081 20.2294Z" fill="#161616"/>
<path d="M36.4821 23.4131V24.7063C36.6458 24.6093 36.7481 24.48 36.8708 24.4476C36.9936 24.4153 37.4027 24.383 37.505 24.48C37.565 24.5549 37.5969 24.6418 37.5969 24.7305C37.5969 24.8192 37.565 24.9061 37.505 24.9811C37.1355 25.3135 36.7391 25.6267 36.3185 25.9187C36.0934 26.0965 35.8479 26.0642 35.6229 25.8863L34.5182 25.0296C34.2932 24.8518 34.2318 24.6416 34.4568 24.4638C34.6818 24.286 34.9683 24.3183 35.1933 24.4961L35.5002 24.7063V23.4616C34.5796 23.3484 33.6999 23.2676 32.8202 23.1221C31.5191 22.943 30.2954 22.5095 29.2606 21.8612C28.6878 21.4732 28.2377 21.0206 28.074 20.4387C27.9104 19.8567 28.0945 19.4202 28.9128 19.2424C29.6877 19.0708 30.4829 18.9625 31.2859 18.9191C35.0489 18.7028 38.8309 18.8276 42.5581 19.2909L42.9263 19.3556C44.0105 19.5657 44.2151 19.889 43.806 20.7135C43.4498 21.3646 42.8313 21.9046 42.0466 22.2492C40.6146 22.9281 39.0189 23.2352 37.3618 23.3646L36.4821 23.4131ZM35.316 19.4849V19.5819C34.8455 19.5819 34.375 19.5496 33.9045 19.5819C32.4724 19.6627 31.0404 19.7274 29.6288 19.8729C28.8923 19.9375 28.8514 20.1154 29.1992 20.6165C29.6301 21.2005 30.3127 21.6424 31.1222 21.8612C34.3954 22.9443 37.7096 22.9604 40.9828 21.8289C41.6337 21.5739 42.2115 21.2163 42.6808 20.7781C43.2332 20.2932 43.1309 20.0992 42.2921 20.0184C39.9599 19.8244 37.6482 19.6627 35.316 19.4849Z" fill="#161616"/>
</g>
<defs>
<filter id="filter0_d_32_10068" x="0" y="0.5" width="76" height="76" filterUnits="userSpaceOnUse" color-interpolation-filters="sRGB">
<feFlood flood-opacity="0" result="BackgroundImageFix"/>
<feColorMatrix in="SourceAlpha" type="matrix" values="0 0 0 0 0 0 0 0 0 0 0 0 0 0 0 0 0 0 127 0" result="hardAlpha"/>
<feOffset dx="2" dy="2"/>
<feGaussianBlur stdDeviation="4"/>
<feComposite in2="hardAlpha" operator="out"/>
<feColorMatrix type="matrix" values="0 0 0 0 0 0 0 0 0 0 0 0 0 0 0 0 0 0 0.04 0"/>
<feBlend mode="normal" in2="BackgroundImageFix" result="effect1_dropShadow_32_10068"/>
<feBlend mode="normal" in="SourceGraphic" in2="effect1_dropShadow_32_10068" result="shape"/>
</filter>
</defs>
</svg>
