<svg width="20" height="24" viewBox="0 0 20 24" fill="none" xmlns="http://www.w3.org/2000/svg">
<path d="M4.74201 23.9687C4.35051 23.9585 3.97713 23.8359 3.69185 23.6238C3.20087 23.2682 2.95537 22.8263 2.77807 22.4276C2.40984 21.6085 2.20526 20.7248 2.09615 19.5286C2.01432 18.6665 2.01432 17.3625 2.01432 16.7266V15.8753C2.01432 15.4226 2.01432 14.9485 2.02796 14.4958C2.04398 13.9119 1.90458 13.3318 1.61881 12.7931C0.800501 11.2197 0.309516 9.88335 0.0913007 8.56857C-0.0348468 7.89301 -0.0302483 7.20622 0.104939 6.53175C0.486815 4.94756 1.75519 4.05308 3.78732 3.94531H4.51016C5.06933 3.94531 5.72398 4.00997 6.32407 4.47338C6.92416 4.93678 7.67428 5.18465 8.73808 5.32475C9.21163 5.38437 9.69059 5.41321 10.1701 5.41096C10.9895 5.4178 11.8034 5.30452 12.5705 5.07688C13.1421 4.90746 13.6525 4.62995 14.0571 4.26862C14.1402 4.19084 14.2421 4.12695 14.3568 4.08069C14.4716 4.03442 14.5969 4.00672 14.7254 3.9992H15.8028C16.1315 3.99295 16.4603 4.01099 16.7848 4.05308C18.585 4.29017 19.7034 5.26009 19.9352 6.7904C20.1671 8.32071 19.7307 9.58159 19.3488 10.6054C19.0738 11.3473 18.7506 12.0775 18.3805 12.7931C18.0931 13.3653 17.954 13.9773 17.9713 14.5928V15.0778C17.9849 16.3063 17.9986 17.5888 17.9577 18.8497C17.9031 20.283 17.6576 21.4253 17.2212 22.4491C17.0575 22.8155 16.812 23.2789 16.3347 23.6238C16.0473 23.8509 15.6632 23.9853 15.2573 24.001C14.9436 24.001 14.4799 23.9148 14.0707 23.4622C13.4979 22.8263 13.2388 22.0827 13.0478 21.3822C12.9114 20.8865 12.7887 20.3692 12.6796 19.8735C12.5705 19.3777 12.5159 19.0868 12.4205 18.7096C12.2022 17.8798 11.9022 17.2547 11.4521 16.759C11.2237 16.5245 10.9578 16.3144 10.6611 16.1339C10.4705 16.0246 10.2419 15.9644 10.0065 15.9615C9.75201 15.9643 9.50467 16.0282 9.29725 16.1447C8.90174 16.3387 8.58805 16.6296 8.28801 17.0715C7.74247 17.9013 7.52425 18.785 7.38787 19.5394C7.21057 20.5524 6.96508 21.6193 6.44682 22.6539C6.31217 22.9416 6.12865 23.2135 5.90128 23.4622C5.50576 23.8824 5.0557 23.9687 4.74201 23.9687ZM9.97917 14.9916C10.6202 14.9916 11.2475 15.2071 11.7931 15.5951C12.0006 15.7594 12.1921 15.9359 12.3659 16.1231C12.9251 16.7482 13.3206 17.4918 13.5524 18.4294C13.6616 18.8497 13.757 19.2807 13.8525 19.701C13.948 20.1213 14.0571 20.6278 14.1798 21.0805C14.3026 21.5331 14.5481 22.309 14.9981 22.8479C15.1072 22.9664 15.2027 23.0419 15.2845 23.0419C15.3664 23.0419 15.4346 22.988 15.53 22.891C15.769 22.6543 15.9578 22.3887 16.0892 22.1043C16.512 21.199 16.6347 20.2722 16.7438 19.1514C16.9211 17.5026 16.853 15.8537 16.7848 14.5928C16.7478 13.8592 16.9106 13.1279 17.2621 12.4482C17.6167 11.7693 17.9167 11.0796 18.1759 10.4006C18.6941 9.04275 18.8851 7.9974 18.776 6.98438C18.6396 5.78815 17.9031 5.10921 16.512 4.926C16.2139 4.89117 15.9131 4.87316 15.6119 4.87212H15.5164C15.7073 5.54028 15.4482 6.11145 14.7526 6.58563C14.3867 6.83465 13.9781 7.04146 13.5388 7.19992C12.5023 7.5771 11.3703 7.74953 10.0883 7.74953C9.80187 7.74953 9.51547 7.74953 9.21542 7.72798C7.78338 7.64176 6.66503 7.37234 5.71034 6.88739C4.75565 6.40243 4.30558 5.7666 4.48288 4.87212H4.40105C4.1323 4.87186 3.86371 4.88265 3.59638 4.90445C2.36892 5.023 1.60517 5.56184 1.31876 6.5102C1.16209 7.10953 1.13902 7.72588 1.25057 8.33148C1.44151 9.59237 1.90521 10.8856 2.70988 12.4159C3.07197 13.0933 3.23964 13.8257 3.20087 14.5605C3.11904 15.9723 3.06448 17.8366 3.29633 19.6903C3.41908 20.574 3.55547 21.4361 3.96462 22.2444C4.08688 22.4803 4.25736 22.6987 4.46924 22.891C4.60563 23.0203 4.68746 23.0419 4.71473 23.0419C4.74201 23.0419 4.87839 22.9664 4.97386 22.8586C5.11425 22.7058 5.22887 22.5391 5.31483 22.3629L5.35574 22.2551C5.5616 21.7962 5.73462 21.3285 5.874 20.8542C5.98311 20.4446 6.07858 20.0136 6.16041 19.604C6.24224 19.1945 6.36498 18.6665 6.50137 18.2031C6.81505 17.093 7.31968 16.2848 8.11071 15.6597C8.66988 15.2287 9.31089 14.9916 9.97917 14.9916ZM5.58759 5.22776C5.57452 5.31477 5.58745 5.403 5.62534 5.48535C5.66324 5.5677 5.72505 5.64188 5.80581 5.70194C6.04973 5.9085 6.3299 6.08633 6.63775 6.23C7.41514 6.57486 8.32892 6.75806 9.50183 6.80117H10.0883C11.2066 6.80117 12.1613 6.66107 12.9933 6.34854C13.419 6.18532 13.8101 5.97082 14.1525 5.71271C14.2358 5.65975 14.3025 5.59233 14.3474 5.5157C14.3924 5.43907 14.4143 5.35529 14.4117 5.27086C12.9796 6.20845 11.2475 6.32699 10.0474 6.32699C8.24709 6.33777 6.78778 5.97136 5.58759 5.22776Z" fill="#100E10"/>
<path d="M2.29203 16.477C2.29203 15.8088 2.27839 15.1514 2.30567 14.494C2.32485 13.8799 2.17598 13.2696 1.86923 12.7051C1.17367 11.3688 0.614496 9.98933 0.369004 8.54524C0.237157 7.89168 0.241765 7.22546 0.382643 6.57308C0.723604 5.08587 1.91015 4.26684 3.81953 4.15907H4.41962C5.07427 4.14829 5.63345 4.23451 6.13807 4.63325C6.64269 5.03199 7.7474 5.40918 8.68846 5.52772C10.0387 5.70015 11.3752 5.66782 12.6709 5.27986C13.283 5.099 13.8272 4.79871 14.2529 4.40693C14.3828 4.2988 14.5566 4.23014 14.7439 4.21295C15.4122 4.20217 16.0941 4.15907 16.7488 4.24528C18.4399 4.46082 19.4492 5.38763 19.6674 6.78861C19.8856 8.1896 19.5447 9.31039 19.0946 10.5282C18.8218 11.261 18.4945 11.9723 18.1399 12.6835C17.8327 13.282 17.6841 13.9239 17.7035 14.5695C17.7171 15.9812 17.7444 17.4038 17.6898 18.8156C17.6353 20.0118 17.4716 21.208 16.967 22.3611C16.7897 22.7599 16.5578 23.1478 16.1487 23.4496C15.5077 23.913 14.7985 23.8699 14.2939 23.3095C13.7892 22.7491 13.5028 22.0163 13.3119 21.3158C13.08 20.4321 12.9164 19.5268 12.6845 18.6431C12.5072 17.9211 12.2208 17.2206 11.6753 16.6171C11.4386 16.3546 11.1482 16.1251 10.8161 15.9381C10.2842 15.6364 9.71134 15.6579 9.15217 15.9381C8.68074 16.193 8.30405 16.5427 8.06109 16.9512C7.51555 17.7486 7.2837 18.6108 7.12004 19.4837C6.94274 20.5291 6.69724 21.5744 6.20626 22.5551C6.06906 22.8242 5.89528 23.0808 5.688 23.3203C5.21065 23.8591 4.51509 23.913 3.87409 23.4711C3.45129 23.1694 3.21944 22.7706 3.04214 22.3611C2.65729 21.4448 2.43246 20.4912 2.37386 19.5268C2.27839 18.503 2.30566 16.8649 2.29203 16.477ZM4.81514 4.63325C4.37871 4.6548 3.96955 4.6548 3.57404 4.69791C2.22383 4.81645 1.37825 5.41996 1.06457 6.45453C0.89433 7.07785 0.866616 7.72022 0.982734 8.35125C1.20095 9.79535 1.76013 11.164 2.45569 12.5003C2.81022 13.1452 2.9735 13.8456 2.93303 14.5479C2.83756 16.2614 2.81029 17.9857 3.0285 19.71C3.15125 20.5937 3.28763 21.4882 3.71042 22.318C3.8492 22.5775 4.03279 22.8204 4.25596 23.0401C4.61056 23.3418 4.92425 23.3203 5.21065 22.9754C5.35994 22.8041 5.48352 22.6197 5.57889 22.4258C5.79845 21.9236 5.98509 21.4128 6.13807 20.8955C6.38356 20.0226 6.51994 19.1281 6.77908 18.2444C7.03821 17.3607 7.461 16.4878 8.30658 15.8196C9.15217 15.1514 10.5842 15.0113 11.6071 15.7549C11.8103 15.9047 11.9931 16.0709 12.1526 16.2507C12.7527 16.9188 13.0937 17.6732 13.2983 18.4707C13.5028 19.2682 13.6801 20.2381 13.9256 21.1218C14.0893 21.7684 14.3075 22.4042 14.7848 22.9646C15.0713 23.3203 15.4122 23.3526 15.7395 23.0293C16.0035 22.775 16.2111 22.4871 16.3533 22.1779C16.8033 21.208 16.9261 20.1842 17.0216 19.1712C17.1647 17.6433 17.1784 16.1096 17.0625 14.5803C17.0242 13.8791 17.1826 13.1799 17.5262 12.5327C17.8671 11.8537 18.1808 11.164 18.4399 10.4635C18.8764 9.32117 19.1764 8.16805 19.0537 6.97182C18.9309 5.77559 18.0717 4.91345 16.5715 4.70869C16.1214 4.6548 15.6577 4.66558 15.1531 4.63325C15.5077 5.3984 15.2486 5.96957 14.5803 6.4222C14.2324 6.66045 13.8417 6.85657 13.421 7.00415C12.0981 7.47833 10.6933 7.59688 9.24763 7.51066C8.04745 7.43522 6.88818 7.23046 5.8653 6.7024C4.84242 6.17433 4.54237 5.61394 4.81514 4.63325ZM5.45615 4.84878C5.23793 5.23675 5.26521 5.54928 5.60617 5.84025C5.8642 6.06865 6.16837 6.26166 6.50631 6.41142C7.43372 6.82094 8.4566 6.97182 9.49313 7.01493C10.7479 7.06881 11.9753 6.97182 13.1073 6.5623C13.5612 6.38122 13.9793 6.14888 14.3484 5.87258C14.6894 5.62472 14.7985 5.27986 14.5666 4.88112C13.2983 5.87258 11.7162 6.12045 10.0387 6.12045C8.36114 6.12045 6.77908 5.78637 5.45615 4.84878Z" fill="#100E10"/>
<path d="M9.997 5.23754C9.8324 5.23341 9.67612 5.17939 9.56057 5.08666L8.82409 4.50472C8.76049 4.46458 8.70844 4.4142 8.67142 4.35692C8.63439 4.29965 8.61324 4.2368 8.60937 4.17255C8.6055 4.10831 8.619 4.04416 8.64897 3.98436C8.67894 3.92456 8.72469 3.8705 8.78318 3.82577C8.83538 3.78051 8.89841 3.74387 8.96864 3.71798C9.03887 3.69208 9.1149 3.67744 9.19233 3.6749C9.26252 3.67518 9.33198 3.68615 9.39691 3.70723V3.49169L9.06958 3.45936C8.66043 3.41625 8.23764 3.36237 7.82849 3.29771C6.8056 3.12528 6.00093 2.83431 5.33265 2.40323C4.89566 2.13507 4.58382 1.75978 4.44615 1.33633C4.28249 0.786708 4.54162 0.431073 5.19627 0.290974C5.73419 0.167959 6.2876 0.0920653 6.84652 0.0646611C7.65119 0.0215538 8.45585 3.33748e-07 9.24688 3.33748e-07C10.982 -0.000215511 12.7145 0.104264 14.4295 0.312528L14.6613 0.355635H14.6886C15.0159 0.420296 15.3705 0.517288 15.5342 0.765155C15.6979 1.01302 15.5888 1.29322 15.466 1.55186C15.2342 1.99371 14.825 2.36013 14.184 2.67265C13.2839 3.09295 12.261 3.34082 10.9381 3.44859L10.5971 3.47014V3.73956L10.8289 3.71801C10.969 3.71382 11.1058 3.75242 11.2108 3.82577C11.292 3.91487 11.3369 4.02145 11.3393 4.13123C11.3417 4.24101 11.3017 4.34876 11.2245 4.44005C10.9928 4.64811 10.747 4.84598 10.488 5.03278L10.4062 5.09744C10.2984 5.18489 10.1514 5.23523 9.997 5.23754ZM5.60542 1.15312L5.70089 1.31477C5.9191 1.6273 6.28734 1.86439 6.83288 2.0476C7.83827 2.38604 8.91789 2.56544 10.0106 2.57566C11.1106 2.56527 12.1964 2.37828 13.202 2.02604C13.6023 1.8671 13.9556 1.64307 14.2386 1.36866L14.3613 1.26089L14.1567 1.22856C13.052 1.13157 11.92 1.05613 10.8289 0.969915C10.4607 0.937584 9.04231 0.926807 8.94684 0.926807H8.61951L8.19672 0.948361C7.40569 0.991468 6.57375 1.04535 5.76908 1.12079C5.71222 1.12214 5.6564 1.13317 5.60542 1.15312Z" fill="#100E10"/>
<path d="M10.3214 3.27554V4.13768C10.4305 4.07302 10.4987 3.98681 10.5805 3.96526C10.6624 3.9437 10.9351 3.92215 11.0033 3.98681C11.0433 4.03679 11.0646 4.09471 11.0646 4.15385C11.0646 4.21299 11.0433 4.27091 11.0033 4.32089C10.757 4.54249 10.4928 4.75128 10.2123 4.94595C10.0623 5.06449 9.89862 5.04294 9.7486 4.92439L9.01212 4.35322C8.8621 4.23468 8.82118 4.09458 8.97121 3.97603C9.12123 3.85749 9.31217 3.87904 9.46219 3.99759L9.66677 4.13768V3.30787C9.05304 3.23243 8.46659 3.17855 7.88013 3.08156C7.01276 2.96214 6.19697 2.67317 5.50704 2.24096C5.12517 1.98232 4.82512 1.68057 4.71601 1.2926C4.60691 0.904636 4.72965 0.613662 5.27519 0.495117C5.79182 0.380695 6.32195 0.308471 6.85725 0.27958C9.36594 0.135382 11.8873 0.218545 14.372 0.527447L14.6175 0.570554C15.3404 0.710653 15.4767 0.92619 15.204 1.47581C14.9666 1.90993 14.5542 2.26986 14.0311 2.49961C13.0764 2.95223 12.0126 3.15699 10.9079 3.24321L10.3214 3.27554ZM9.54402 0.656769V0.72143C9.23034 0.72143 8.91665 0.699876 8.60297 0.72143C7.64828 0.775314 6.69359 0.818422 5.75253 0.915413C5.26155 0.95852 5.23427 1.07707 5.46613 1.41115C5.75338 1.8005 6.20849 2.09508 6.74814 2.24096C8.93029 2.96301 11.1397 2.97379 13.3219 2.21941C13.7558 2.04944 14.141 1.81105 14.4539 1.51892C14.8221 1.19561 14.7539 1.06629 14.1947 1.0124C12.64 0.883082 11.0988 0.775314 9.54402 0.656769Z" fill="#100E10"/>
</svg>
