<svg width="24" height="24" viewBox="0 0 24 24" fill="none" xmlns="http://www.w3.org/2000/svg">
<path d="M8.22394 6.477C9.09695 6.80704 10.1231 6.98237 11.4403 7.02362H12.0989C13.3548 7.02362 14.4269 6.88955 15.3611 6.59045C15.8397 6.43467 16.2789 6.22935 16.663 5.98194C16.7548 5.93025 16.8285 5.86554 16.8788 5.79244C16.9291 5.71934 16.9548 5.63965 16.954 5.55908C15.3458 6.45637 13.4007 6.56982 12.0529 6.56982C10.0312 6.58013 8.39242 6.22947 7.04462 5.51782C7.02993 5.6011 7.04445 5.68553 7.08701 5.76435C7.12957 5.84316 7.19898 5.91415 7.28967 5.97163C7.56193 6.17051 7.87684 6.34085 8.22394 6.477Z" fill="white"/>
<path d="M15.5915 2.45459C16.037 2.29832 16.4325 2.08455 16.7555 1.82545L16.8933 1.72231L16.6636 1.69137C15.423 1.59855 14.1518 1.52635 12.9265 1.44384C12.513 1.4129 10.9202 1.40259 10.8129 1.40259H10.4454L9.97057 1.42322C9.08224 1.46447 8.14798 1.51604 7.24434 1.58823C7.18011 1.58756 7.11674 1.59823 7.06055 1.61918L7.16776 1.77388C7.41281 2.07298 7.82634 2.29988 8.43898 2.47521C9.56874 2.79759 10.7807 2.96922 12.0076 2.98059C13.2429 2.97093 14.4623 2.79196 15.5915 2.45459Z" fill="white"/>
<path d="M19.312 5.22906C18.9772 5.19652 18.6395 5.17929 18.3012 5.17749H18.194C18.4084 5.81694 18.1174 6.36357 17.3363 6.81737C16.9229 7.05347 16.4645 7.25119 15.9732 7.40526C14.8091 7.76624 13.5379 7.93125 12.0982 7.93125C11.7766 7.93125 11.455 7.93125 11.118 7.91063C9.50985 7.82812 8.25395 7.57028 7.18184 7.10616C6.10972 6.64204 5.6043 6.03353 5.80341 5.17749H5.71151C5.4097 5.17725 5.10808 5.18757 4.80787 5.20844C3.42944 5.32189 2.57175 5.83757 2.25012 6.74518C2.07164 7.31856 2.04571 7.90872 2.17354 8.4882C2.38796 9.6949 2.9087 10.9325 3.81234 12.3971C4.21559 13.0461 4.40375 13.7465 4.36371 14.4495C4.27182 15.8006 4.21055 17.5849 4.47092 19.3588C4.60877 20.2046 4.76192 21.0297 5.2214 21.8032C5.35637 22.0298 5.54804 22.2391 5.78809 22.422C5.94125 22.5458 6.03314 22.5664 6.06378 22.5664C6.18205 22.5263 6.28245 22.4658 6.35478 22.3911C6.50624 22.2422 6.63455 22.0832 6.73767 21.9166L6.78362 21.8135C7.01336 21.37 7.19715 20.9265 7.36563 20.4727C7.5341 20.0189 7.59536 19.6683 7.68726 19.2763C7.77916 18.8844 7.917 18.379 8.07016 17.9356C8.42242 16.8732 8.98911 16.0997 9.87743 15.5015C10.5054 15.089 11.2252 14.8621 11.9757 14.8621C12.7262 14.8621 13.4001 15.0683 14.0127 15.4396C14.2433 15.5984 14.4582 15.7673 14.656 15.945C15.2839 16.5432 15.7281 17.2548 15.9885 18.1521C16.111 18.5544 16.2182 18.9669 16.3254 19.3692C16.4326 19.7714 16.5552 20.2561 16.693 20.6893C16.8308 21.1225 17.1065 21.8651 17.612 22.3808C17.7345 22.4942 17.8417 22.5664 17.9336 22.5664C18.0255 22.5664 18.1021 22.5148 18.2093 22.422C18.4714 22.1927 18.6829 21.9392 18.8372 21.6691C19.312 20.8028 19.4499 19.9158 19.5724 18.8432C19.7715 17.2652 19.6949 15.6872 19.6183 14.4805C19.573 13.7782 19.7559 13.0777 20.1544 12.428C20.5526 11.7783 20.8896 11.1182 21.1806 10.4684C21.7626 9.1689 21.977 8.16847 21.8545 7.19898C21.7013 6.05416 20.8742 5.4044 19.312 5.22906Z" fill="white"/>
<path d="M23.9073 6.95144C23.6163 5.27031 22.0848 4.14611 19.7414 3.88827C19.3822 3.84718 19.0184 3.82648 18.654 3.82639H17.2449C16.7529 3.85206 16.2959 4.00778 15.9737 4.25956C15.6002 4.53939 15.1329 4.75509 14.6106 4.8887C14.422 4.94075 14.2274 4.98214 14.0286 5.01246C14.1374 4.89535 14.2098 4.76458 14.2414 4.62807C14.273 4.49157 14.2631 4.35217 14.2124 4.21831C15.2268 4.10251 16.2021 3.86496 17.0918 3.51697C17.9341 3.15599 18.5008 2.73313 18.8378 2.19682V2.17619C18.9603 1.94929 19.2207 1.47486 18.8684 1.01074C18.5162 0.546627 17.7657 0.412548 17.444 0.350666H17.3062L17.1071 0.309411H17.0765C15.1147 0.108211 13.1336 0.00479315 11.1492 0C10.2456 0 9.3113 0.0206274 8.40767 0.0618823C7.72743 0.0880529 7.05407 0.167665 6.40128 0.299098C5.26791 0.505372 4.73185 1.12419 5.00754 1.90804C5.2002 2.42858 5.64811 2.89009 6.27876 3.21788C7.12113 3.68199 8.13198 3.99141 9.4032 4.17705L9.72483 4.21831C9.6668 4.34317 9.64908 4.47494 9.67285 4.60479C9.69663 4.73465 9.76135 4.85958 9.86268 4.97121C9.31559 4.87688 8.81423 4.68853 8.40767 4.42458C7.51935 3.84701 6.56976 3.77482 5.8346 3.77482H4.96159C2.34257 3.89858 0.627194 4.91964 0.137086 6.67297H0.12177C-0.0378911 7.36993 -0.0430527 8.07899 0.106454 8.77697C0.351508 10.0662 0.918196 11.3863 1.8831 12.954C2.16061 13.4048 2.2962 13.8894 2.28131 14.3773C2.26599 14.8105 2.26599 15.2643 2.26599 15.7078V16.5226C2.26599 17.1311 2.26599 18.3997 2.35789 19.2454C2.48042 20.4315 2.72547 21.3288 3.16963 22.1538C3.36874 22.5561 3.70569 23.0821 4.37959 23.4946C4.83614 23.7862 5.4355 23.9549 6.06434 23.9691H6.09497C6.47432 23.9645 6.84643 23.8983 7.17972 23.7762C7.513 23.6541 7.79763 23.4797 8.00945 23.2677C8.30656 22.9965 8.54386 22.6977 8.71398 22.3807C9.35725 21.3081 9.63294 20.2149 9.81673 19.2866C9.96989 18.6162 10.1843 17.8221 10.751 17.1001C11.0267 16.7495 11.2871 16.5329 11.6087 16.3988H11.6546C11.7543 16.3446 11.8788 16.3154 12.0069 16.3163C12.106 16.3177 12.2021 16.3392 12.2826 16.3782C12.5573 16.522 12.8042 16.6883 13.0177 16.8732C13.4313 17.2652 13.7376 17.8015 13.9673 18.5337C14.0286 18.771 14.0745 18.9669 14.1511 19.2144C14.2277 19.462 14.2124 19.4826 14.243 19.627C14.3962 20.1839 14.534 20.6687 14.6719 21.0915C14.9016 21.8238 15.2232 22.587 15.9431 23.278C16.6629 23.9691 17.3675 24.0103 17.9035 24.0103H17.9341C18.5749 23.9913 19.1817 23.811 19.6342 23.5049C20.2928 23.1027 20.6144 22.587 20.8289 22.1745C21.3649 21.1122 21.6406 19.9777 21.7019 18.575C21.7478 17.3477 21.7325 16.0791 21.7172 14.9549V14.4804C21.6934 13.962 21.829 13.4458 22.1154 12.9643C22.5442 12.263 22.9118 11.541 23.2334 10.8191C23.7236 9.68457 24.183 8.45724 23.9073 6.95144ZM9.55636 3.67168C8.40767 3.50666 7.50403 3.22819 6.75355 2.81564C6.26367 2.55847 5.91369 2.19952 5.75802 1.79459C5.57423 1.26859 5.86523 0.928234 6.60039 0.794156C7.20581 0.680367 7.82666 0.607807 8.45361 0.577568C9.35725 0.536313 10.2609 0.515685 11.1492 0.515685C13.0976 0.517447 15.043 0.617426 16.9692 0.814783L17.2296 0.856038H17.2603C17.6278 0.91792 18.026 1.01074 18.2098 1.24796C18.3936 1.48517 18.2711 1.75333 18.1333 2.00086C17.8729 2.42372 17.4134 2.77439 16.6936 3.07349C15.6827 3.47572 14.534 3.71294 13.0484 3.81607L12.6655 3.8367V4.09454L12.9259 4.07392C13.0827 4.07193 13.2352 4.10861 13.3547 4.17705C13.4439 4.26288 13.493 4.36468 13.4957 4.46942C13.4985 4.57415 13.4547 4.67706 13.37 4.76493C13.11 4.96409 12.8339 5.15346 12.543 5.33219L12.4511 5.39407C12.3897 5.43782 12.3155 5.4725 12.2332 5.49587C12.1509 5.51925 12.0622 5.53082 11.9729 5.52985C11.8836 5.52888 11.7955 5.51539 11.7143 5.49024C11.6332 5.46508 11.5607 5.42882 11.5015 5.38376L10.6744 4.82682C10.5437 4.75416 10.4596 4.65037 10.4396 4.53704C10.4197 4.4237 10.4654 4.30954 10.5672 4.21831C10.5825 4.20799 10.5978 4.18737 10.6285 4.17705C10.6831 4.13061 10.7531 4.09338 10.8329 4.06832C10.9126 4.04326 11 4.03105 11.0879 4.03266C11.1668 4.03293 11.2448 4.04343 11.3177 4.0636V3.85733L10.9501 3.82639C10.4906 3.78513 10.0158 3.73356 9.55636 3.67168ZM22.4983 10.6644C22.191 11.3747 21.828 12.0736 21.4109 12.7581C21.0832 13.3048 20.9268 13.8911 20.9514 14.4804V14.9446C20.9667 16.1203 20.982 17.3477 20.9361 18.5544C20.8748 19.9261 20.5991 21.0193 20.109 21.9991C19.9252 22.3498 19.6495 22.7933 19.1135 23.1233C18.7907 23.3407 18.3594 23.4693 17.9035 23.4843C17.5513 23.4843 17.0305 23.4018 16.571 22.9686C15.9278 22.3601 15.6368 21.6485 15.4223 20.9781C15.2692 20.5037 15.1313 20.0086 15.0088 19.5342C14.8863 19.0597 14.825 18.7813 14.7178 18.4203C14.4728 17.6261 14.1358 17.0279 13.6304 16.5535C13.3697 16.3316 13.0716 16.1309 12.7421 15.9553C12.528 15.8507 12.2713 15.7931 12.0069 15.7903C11.7203 15.7895 11.441 15.851 11.2105 15.9656C10.7663 16.1513 10.414 16.4297 10.0771 16.8526C9.46446 17.6468 9.21941 18.4925 9.06625 19.2144C8.86714 20.1839 8.59146 21.205 8.00945 22.1951C7.85454 22.4693 7.64869 22.7292 7.39682 22.9686C6.95266 23.3709 6.44723 23.4534 6.09497 23.4534C5.6547 23.4456 5.23442 23.328 4.91564 23.1233C4.36427 22.783 4.08859 22.3601 3.88948 21.9785C3.47595 21.1947 3.24621 20.3489 3.12368 19.2041C3.03179 18.379 3.03179 17.1311 3.03179 16.5226V15.7078C3.03179 15.2746 3.03179 14.8208 3.0471 14.3876C3.06373 13.8288 2.90724 13.2739 2.58763 12.7581C1.66867 11.2523 1.1173 9.97336 0.872248 8.71508C0.724135 8.06887 0.729304 7.41092 0.887564 6.76579C1.31641 5.24968 2.74079 4.39364 5.02285 4.2905H5.8346C6.46255 4.2905 7.19771 4.35239 7.87161 4.79587C8.54551 5.23936 9.38788 5.47658 10.5825 5.61066C11.1149 5.66416 11.6524 5.69173 12.1907 5.69317C13.1109 5.70019 14.025 5.59177 14.8863 5.37344C15.5254 5.2077 16.0974 4.94267 16.5557 4.59991C16.6466 4.52362 16.7605 4.46118 16.8899 4.41674C17.0192 4.37229 17.1611 4.34684 17.3062 4.34207H18.5162C18.8854 4.33355 19.255 4.35083 19.6189 4.39364C21.6406 4.62054 22.8965 5.54878 23.1569 7.01332C23.4172 8.47787 22.9271 9.68457 22.4983 10.6644Z" fill="white"/>
</svg>
