<svg width="40" height="40" viewBox="0 0 40 40" fill="none" xmlns="http://www.w3.org/2000/svg">
<path d="M14.742 31.9687C14.3505 31.9585 13.9771 31.8359 13.6919 31.6238C13.2009 31.2682 12.9554 30.8263 12.7781 30.4276C12.4098 29.6085 12.2053 28.7248 12.0962 27.5286C12.0143 26.6665 12.0143 25.3625 12.0143 24.7266V23.8753C12.0143 23.4226 12.0143 22.9485 12.028 22.4958C12.044 21.9119 11.9046 21.3318 11.6188 20.7931C10.8005 19.2197 10.3095 17.8833 10.0913 16.5686C9.96515 15.893 9.96975 15.2062 10.1049 14.5318C10.4868 12.9476 11.7552 12.0531 13.7873 11.9453H14.5102C15.0693 11.9453 15.724 12.01 16.3241 12.4734C16.9242 12.9368 17.6743 13.1846 18.7381 13.3247C19.2116 13.3844 19.6906 13.4132 20.1701 13.411C20.9895 13.4178 21.8034 13.3045 22.5705 13.0769C23.1421 12.9075 23.6525 12.63 24.0571 12.2686C24.1402 12.1908 24.2421 12.1269 24.3568 12.0807C24.4716 12.0344 24.5969 12.0067 24.7254 11.9992H25.8028C26.1315 11.9929 26.4603 12.011 26.7848 12.0531C28.585 12.2902 29.7034 13.2601 29.9352 14.7904C30.1671 16.3207 29.7307 17.5816 29.3488 18.6054C29.0738 19.3473 28.7506 20.0775 28.3805 20.7931C28.0931 21.3653 27.954 21.9773 27.9713 22.5928V23.0778C27.9849 24.3063 27.9986 25.5888 27.9577 26.8497C27.9031 28.283 27.6576 29.4253 27.2212 30.4491C27.0575 30.8155 26.812 31.2789 26.3347 31.6238C26.0473 31.8509 25.6632 31.9853 25.2573 32.001C24.9436 32.001 24.4799 31.9148 24.0707 31.4622C23.4979 30.8263 23.2388 30.0827 23.0478 29.3822C22.9114 28.8865 22.7887 28.3692 22.6796 27.8735C22.5705 27.3777 22.5159 27.0868 22.4205 26.7096C22.2022 25.8798 21.9022 25.2547 21.4521 24.759C21.2237 24.5245 20.9578 24.3144 20.6611 24.1339C20.4705 24.0246 20.2419 23.9644 20.0065 23.9615C19.752 23.9643 19.5047 24.0282 19.2973 24.1447C18.9017 24.3387 18.5881 24.6296 18.288 25.0715C17.7425 25.9013 17.5243 26.785 17.3879 27.5394C17.2106 28.5524 16.9651 29.6193 16.4468 30.6539C16.3122 30.9416 16.1286 31.2135 15.9013 31.4622C15.5058 31.8824 15.0557 31.9687 14.742 31.9687ZM19.9792 22.9916C20.6202 22.9916 21.2475 23.2071 21.7931 23.5951C22.0006 23.7594 22.1921 23.9359 22.3659 24.1231C22.9251 24.7482 23.3206 25.4918 23.5524 26.4294C23.6616 26.8497 23.757 27.2807 23.8525 27.701C23.948 28.1213 24.0571 28.6278 24.1798 29.0805C24.3026 29.5331 24.5481 30.309 24.9981 30.8479C25.1072 30.9664 25.2027 31.0419 25.2845 31.0419C25.3664 31.0419 25.4346 30.988 25.53 30.891C25.769 30.6543 25.9578 30.3887 26.0892 30.1043C26.512 29.199 26.6347 28.2722 26.7438 27.1514C26.9211 25.5026 26.853 23.8537 26.7848 22.5928C26.7478 21.8592 26.9106 21.1279 27.2621 20.4482C27.6167 19.7693 27.9167 19.0796 28.1759 18.4006C28.6941 17.0428 28.8851 15.9974 28.776 14.9844C28.6396 13.7882 27.9031 13.1092 26.512 12.926C26.2139 12.8912 25.9131 12.8732 25.6119 12.8721H25.5164C25.7073 13.5403 25.4482 14.1115 24.7526 14.5856C24.3867 14.8346 23.9781 15.0415 23.5388 15.1999C22.5023 15.5771 21.3703 15.7495 20.0883 15.7495C19.8019 15.7495 19.5155 15.7495 19.2154 15.728C17.7834 15.6418 16.665 15.3723 15.7103 14.8874C14.7556 14.4024 14.3056 13.7666 14.4829 12.8721H14.401C14.1323 12.8719 13.8637 12.8827 13.5964 12.9045C12.3689 13.023 11.6052 13.5618 11.3188 14.5102C11.1621 15.1095 11.139 15.7259 11.2506 16.3315C11.4415 17.5924 11.9052 18.8856 12.7099 20.4159C13.072 21.0933 13.2396 21.8257 13.2009 22.5605C13.119 23.9723 13.0645 25.8366 13.2963 27.6903C13.4191 28.574 13.5555 29.4361 13.9646 30.2444C14.0869 30.4803 14.2574 30.6987 14.4692 30.891C14.6056 31.0203 14.6875 31.0419 14.7147 31.0419C14.742 31.0419 14.8784 30.9664 14.9739 30.8586C15.1143 30.7058 15.2289 30.5391 15.3148 30.3629L15.3557 30.2551C15.5616 29.7962 15.7346 29.3285 15.874 28.8542C15.9831 28.4446 16.0786 28.0136 16.1604 27.604C16.2422 27.1945 16.365 26.6665 16.5014 26.2031C16.8151 25.093 17.3197 24.2848 18.1107 23.6597C18.6699 23.2287 19.3109 22.9916 19.9792 22.9916ZM15.5876 13.2278C15.5745 13.3148 15.5874 13.403 15.6253 13.4853C15.6632 13.5677 15.7251 13.6419 15.8058 13.7019C16.0497 13.9085 16.3299 14.0863 16.6378 14.23C17.4151 14.5749 18.3289 14.7581 19.5018 14.8012H20.0883C21.2066 14.8012 22.1613 14.6611 22.9933 14.3485C23.419 14.1853 23.8101 13.9708 24.1525 13.7127C24.2358 13.6597 24.3025 13.5923 24.3474 13.5157C24.3924 13.4391 24.4143 13.3553 24.4117 13.2709C22.9796 14.2084 21.2475 14.327 20.0474 14.327C18.2471 14.3378 16.7878 13.9714 15.5876 13.2278Z" fill="white"/>
<path d="M12.292 24.477C12.292 23.8088 12.2784 23.1514 12.3057 22.494C12.3248 21.8799 12.176 21.2696 11.8692 20.7051C11.1737 19.3688 10.6145 17.9893 10.369 16.5452C10.2372 15.8917 10.2418 15.2255 10.3826 14.5731C10.7236 13.0859 11.9101 12.2668 13.8195 12.1591H14.4196C15.0743 12.1483 15.6334 12.2345 16.1381 12.6332C16.6427 13.032 17.7474 13.4092 18.6885 13.5277C20.0387 13.7002 21.3752 13.6678 22.6709 13.2799C23.283 13.099 23.8272 12.7987 24.2529 12.4069C24.3828 12.2988 24.5566 12.2301 24.7439 12.213C25.4122 12.2022 26.0941 12.1591 26.7488 12.2453C28.4399 12.4608 29.4492 13.3876 29.6674 14.7886C29.8856 16.1896 29.5447 17.3104 29.0946 18.5282C28.8218 19.261 28.4945 19.9723 28.1399 20.6835C27.8327 21.282 27.6841 21.9239 27.7035 22.5695C27.7171 23.9812 27.7444 25.4038 27.6898 26.8156C27.6353 28.0118 27.4716 29.208 26.967 30.3611C26.7897 30.7599 26.5578 31.1478 26.1487 31.4496C25.5077 31.913 24.7985 31.8699 24.2939 31.3095C23.7892 30.7491 23.5028 30.0163 23.3119 29.3158C23.08 28.4321 22.9164 27.5268 22.6845 26.6431C22.5072 25.9211 22.2208 25.2206 21.6753 24.6171C21.4386 24.3546 21.1482 24.1251 20.8161 23.9381C20.2842 23.6364 19.7113 23.6579 19.1522 23.9381C18.6807 24.193 18.3041 24.5427 18.0611 24.9512C17.5156 25.7486 17.2837 26.6108 17.12 27.4837C16.9427 28.5291 16.6972 29.5744 16.2063 30.5551C16.0691 30.8242 15.8953 31.0808 15.688 31.3203C15.2107 31.8591 14.5151 31.913 13.8741 31.4711C13.4513 31.1694 13.2194 30.7706 13.0421 30.3611C12.6573 29.4448 12.4325 28.4912 12.3739 27.5268C12.2784 26.503 12.3057 24.8649 12.292 24.477ZM14.8151 12.6332C14.3787 12.6548 13.9696 12.6548 13.574 12.6979C12.2238 12.8165 11.3782 13.42 11.0646 14.4545C10.8943 15.0779 10.8666 15.7202 10.9827 16.3513C11.2009 17.7953 11.7601 19.164 12.4557 20.5003C12.8102 21.1452 12.9735 21.8456 12.933 22.5479C12.8376 24.2614 12.8103 25.9857 13.0285 27.71C13.1512 28.5937 13.2876 29.4882 13.7104 30.318C13.8492 30.5775 14.0328 30.8204 14.256 31.0401C14.6106 31.3418 14.9242 31.3203 15.2107 30.9754C15.3599 30.8041 15.4835 30.6197 15.5789 30.4258C15.7985 29.9236 15.9851 29.4128 16.1381 28.8955C16.3836 28.0226 16.5199 27.1281 16.7791 26.2444C17.0382 25.3607 17.461 24.4878 18.3066 23.8196C19.1522 23.1514 20.5842 23.0113 21.6071 23.7549C21.8103 23.9047 21.9931 24.0709 22.1526 24.2507C22.7527 24.9188 23.0937 25.6732 23.2983 26.4707C23.5028 27.2682 23.6801 28.2381 23.9256 29.1218C24.0893 29.7684 24.3075 30.4042 24.7848 30.9646C25.0713 31.3203 25.4122 31.3526 25.7395 31.0293C26.0035 30.775 26.2111 30.4871 26.3533 30.1779C26.8033 29.208 26.9261 28.1842 27.0216 27.1712C27.1647 25.6433 27.1784 24.1096 27.0625 22.5803C27.0242 21.8791 27.1826 21.1799 27.5262 20.5327C27.8671 19.8537 28.1808 19.164 28.4399 18.4635C28.8764 17.3212 29.1764 16.168 29.0537 14.9718C28.9309 13.7756 28.0717 12.9134 26.5715 12.7087C26.1214 12.6548 25.6577 12.6656 25.1531 12.6332C25.5077 13.3984 25.2486 13.9696 24.5803 14.4222C24.2324 14.6604 23.8417 14.8566 23.421 15.0042C22.0981 15.4783 20.6933 15.5969 19.2476 15.5107C18.0475 15.4352 16.8882 15.2305 15.8653 14.7024C14.8424 14.1743 14.5424 13.6139 14.8151 12.6332ZM15.4561 12.8488C15.2379 13.2368 15.2652 13.5493 15.6062 13.8403C15.8642 14.0686 16.1684 14.2617 16.5063 14.4114C17.4337 14.8209 18.4566 14.9718 19.4931 15.0149C20.7479 15.0688 21.9753 14.9718 23.1073 14.5623C23.5612 14.3812 23.9793 14.1489 24.3484 13.8726C24.6894 13.6247 24.7985 13.2799 24.5666 12.8811C23.2983 13.8726 21.7162 14.1205 20.0387 14.1205C18.3611 14.1205 16.7791 13.7864 15.4561 12.8488Z" fill="white"/>
<path d="M19.997 13.2375C19.8324 13.2334 19.6761 13.1794 19.5606 13.0867L18.8241 12.5047C18.7605 12.4646 18.7084 12.4142 18.6714 12.3569C18.6344 12.2996 18.6132 12.2368 18.6094 12.1726C18.6055 12.1083 18.619 12.0442 18.649 11.9844C18.6789 11.9246 18.7247 11.8705 18.7832 11.8258C18.8354 11.7805 18.8984 11.7439 18.9686 11.718C19.0389 11.6921 19.1149 11.6774 19.1923 11.6749C19.2625 11.6752 19.332 11.6862 19.3969 11.7072V11.4917L19.0696 11.4594C18.6604 11.4163 18.2376 11.3624 17.8285 11.2977C16.8056 11.1253 16.0009 10.8343 15.3327 10.4032C14.8957 10.1351 14.5838 9.75978 14.4462 9.33633C14.2825 8.78671 14.5416 8.43107 15.1963 8.29097C15.7342 8.16796 16.2876 8.09207 16.8465 8.06466C17.6512 8.02155 18.4559 8 19.2469 8C20.982 7.99978 22.7145 8.10426 24.4295 8.31253L24.6613 8.35564H24.6886C25.0159 8.4203 25.3705 8.51729 25.5342 8.76516C25.6979 9.01302 25.5888 9.29322 25.466 9.55186C25.2342 9.99371 24.825 10.3601 24.184 10.6727C23.2839 11.0929 22.261 11.3408 20.9381 11.4486L20.5971 11.4701V11.7396L20.8289 11.718C20.969 11.7138 21.1058 11.7524 21.2108 11.8258C21.292 11.9149 21.3369 12.0214 21.3393 12.1312C21.3417 12.241 21.3017 12.3488 21.2245 12.4401C20.9928 12.6481 20.747 12.846 20.488 13.0328L20.4062 13.0974C20.2984 13.1849 20.1514 13.2352 19.997 13.2375ZM15.6054 9.15312L15.7009 9.31477C15.9191 9.6273 16.2873 9.86439 16.8329 10.0476C17.8383 10.386 18.9179 10.5654 20.0106 10.5757C21.1106 10.5653 22.1964 10.3783 23.202 10.026C23.6023 9.8671 23.9556 9.64307 24.2386 9.36866L24.3613 9.26089L24.1567 9.22856C23.052 9.13157 21.92 9.05613 20.8289 8.96991C20.4607 8.93758 19.0423 8.92681 18.9468 8.92681H18.6195L18.1967 8.94836C17.4057 8.99147 16.5737 9.04535 15.7691 9.12079C15.7122 9.12214 15.6564 9.13317 15.6054 9.15312Z" fill="white"/>
<path d="M20.3214 11.2755V12.1377C20.4305 12.073 20.4987 11.9868 20.5805 11.9653C20.6624 11.9437 20.9351 11.9221 21.0033 11.9868C21.0433 12.0368 21.0646 12.0947 21.0646 12.1538C21.0646 12.213 21.0433 12.2709 21.0033 12.3209C20.757 12.5425 20.4928 12.7513 20.2123 12.9459C20.0623 13.0645 19.8986 13.0429 19.7486 12.9244L19.0121 12.3532C18.8621 12.2347 18.8212 12.0946 18.9712 11.976C19.1212 11.8575 19.3122 11.879 19.4622 11.9976L19.6668 12.1377V11.3079C19.053 11.2324 18.4666 11.1785 17.8801 11.0816C17.0128 10.9621 16.197 10.6732 15.507 10.241C15.1252 9.98232 14.8251 9.68057 14.716 9.2926C14.6069 8.90464 14.7297 8.61366 15.2752 8.49512C15.7918 8.3807 16.322 8.30847 16.8572 8.27958C19.3659 8.13538 21.8873 8.21854 24.372 8.52745L24.6175 8.57055C25.3404 8.71065 25.4767 8.92619 25.204 9.47581C24.9666 9.90993 24.5542 10.2699 24.0311 10.4996C23.0764 10.9522 22.0126 11.157 20.9079 11.2432L20.3214 11.2755ZM19.544 8.65677V8.72143C19.2303 8.72143 18.9167 8.69988 18.603 8.72143C17.6483 8.77531 16.6936 8.81842 15.7525 8.91541C15.2615 8.95852 15.2343 9.07707 15.4661 9.41115C15.7534 9.8005 16.2085 10.0951 16.7481 10.241C18.9303 10.963 21.1397 10.9738 23.3219 10.2194C23.7558 10.0494 24.141 9.81105 24.4539 9.51892C24.8221 9.19561 24.7539 9.06629 24.1947 9.0124C22.64 8.88308 21.0988 8.77531 19.544 8.65677Z" fill="white"/>
</svg>
