<svg width="24" height="24" viewBox="0 0 24 24" fill="none" xmlns="http://www.w3.org/2000/svg">
<g clip-path="url(#clip0_1415_5533)">
<path d="M8.85459 6.477C9.58209 6.80704 10.4372 6.98237 11.5349 7.02362H12.0837C13.1303 7.02362 14.0237 6.88955 14.8023 6.59045C15.201 6.43467 15.5671 6.22935 15.8871 5.98194C15.9636 5.93025 16.025 5.86554 16.0669 5.79244C16.1089 5.71934 16.1303 5.63965 16.1296 5.55908C14.7895 6.45637 13.1686 6.56982 12.0454 6.56982C10.3606 6.58013 8.99498 6.22947 7.87182 5.51782C7.85958 5.6011 7.87168 5.68553 7.90715 5.76435C7.94261 5.84316 8.00045 5.91415 8.07603 5.97163C8.30291 6.17051 8.56534 6.34085 8.85459 6.477Z" fill="#878687"/>
<path d="M14.9929 2.45459C15.3642 2.29832 15.6938 2.08455 15.9629 1.82545L16.0778 1.72231L15.8863 1.69137C14.8525 1.59855 13.7932 1.52635 12.7721 1.44384C12.4275 1.4129 11.1001 1.40259 11.0108 1.40259H10.7045L10.3088 1.42322C9.56854 1.46447 8.78998 1.51604 8.03695 1.58823C7.98343 1.58756 7.93062 1.59823 7.88379 1.61918L7.97313 1.77388C8.17734 2.07298 8.52195 2.29988 9.03248 2.47521C9.97395 2.79759 10.9839 2.96922 12.0063 2.98059C13.0357 2.97093 14.0519 2.79196 14.9929 2.45459Z" fill="#878687"/>
<path d="M18.0947 5.22906C17.8156 5.19652 17.5342 5.17929 17.2523 5.17749H17.1629C17.3416 5.81694 17.0991 6.36357 16.4482 6.81737C16.1038 7.05347 15.7217 7.25119 15.3123 7.40526C14.3423 7.76624 13.2829 7.93125 12.0832 7.93125C11.8151 7.93125 11.5471 7.93125 11.2663 7.91063C9.92618 7.82812 8.87959 7.57028 7.98616 7.10616C7.09274 6.64204 6.67155 6.03353 6.83747 5.17749H6.76089C6.50939 5.17725 6.25804 5.18757 6.00786 5.20844C4.85917 5.32189 4.14443 5.83757 3.8764 6.74518C3.72767 7.31856 3.70606 7.90872 3.81258 8.4882C3.99127 9.6949 4.42522 10.9325 5.17825 12.3971C5.51429 13.0461 5.67109 13.7465 5.63773 14.4495C5.56115 15.8006 5.5101 17.5849 5.72707 19.3588C5.84194 20.2046 5.96957 21.0297 6.35247 21.8032C6.46494 22.0298 6.62467 22.2391 6.82471 22.422C6.95234 22.5458 7.02892 22.5664 7.05445 22.5664C7.15301 22.5263 7.23668 22.4658 7.29695 22.3911C7.42317 22.2422 7.5301 22.0832 7.61603 21.9166L7.65432 21.8135C7.84577 21.37 7.99893 20.9265 8.13932 20.4727C8.27972 20.0189 8.33077 19.6683 8.40735 19.2763C8.48393 18.8844 8.5988 18.379 8.72643 17.9356C9.01999 16.8732 9.49223 16.0997 10.2325 15.5015C10.7558 15.089 11.3557 14.8621 11.9811 14.8621C12.6065 14.8621 13.168 15.0683 13.6786 15.4396C13.8707 15.5984 14.0498 15.7673 14.2146 15.945C14.7379 16.5432 15.1081 17.2548 15.325 18.1521C15.4271 18.5544 15.5165 18.9669 15.6058 19.3692C15.6952 19.7714 15.7973 20.2561 15.9121 20.6893C16.027 21.1225 16.2567 21.8651 16.6779 22.3808C16.78 22.4942 16.8694 22.5664 16.946 22.5664C17.0225 22.5664 17.0864 22.5148 17.1757 22.422C17.3941 22.1927 17.5704 21.9392 17.699 21.6691C18.0947 20.8028 18.2095 19.9158 18.3116 18.8432C18.4775 17.2652 18.4137 15.6872 18.3499 14.4805C18.3121 13.7782 18.4646 13.0777 18.7966 12.428C19.1285 11.7783 19.4093 11.1182 19.6518 10.4684C20.1368 9.1689 20.3155 8.16847 20.2133 7.19898C20.0857 6.05416 19.3965 5.4044 18.0947 5.22906Z" fill="#878687"/>
<path d="M21.9234 6.95144C21.6809 5.27031 20.4046 4.14611 18.4518 3.88827C18.1525 3.84718 17.8493 3.82648 17.5456 3.82639H16.3714C15.9614 3.85206 15.5805 4.00778 15.3121 4.25956C15.0009 4.53939 14.6114 4.75509 14.1762 4.8887C14.019 4.94075 13.8568 4.98214 13.6911 5.01246C13.7818 4.89535 13.8422 4.76458 13.8685 4.62807C13.8948 4.49157 13.8866 4.35217 13.8443 4.21831C14.6897 4.10251 15.5024 3.86496 16.2438 3.51697C16.9458 3.15599 17.418 2.73313 17.6988 2.19682V2.17619C17.8009 1.94929 18.0179 1.47486 17.7243 1.01074C17.4308 0.546627 16.8054 0.412548 16.5374 0.350666H16.4225L16.2566 0.309411H16.231C14.5962 0.108211 12.9453 0.00479315 11.2917 0C10.5386 0 9.76007 0.0206274 9.00704 0.0618823C8.44018 0.0880529 7.87905 0.167665 7.33506 0.299098C6.39058 0.505372 5.94386 1.12419 6.1736 1.90804C6.33415 2.42858 6.70741 2.89009 7.23295 3.21788C7.93493 3.68199 8.7773 3.99141 9.83665 4.17705L10.1047 4.21831C10.0563 4.34317 10.0415 4.47494 10.0614 4.60479C10.0812 4.73465 10.1351 4.85958 10.2195 4.97121C9.76364 4.87688 9.34585 4.68853 9.00704 4.42458C8.26677 3.84701 7.47545 3.77482 6.86282 3.77482H6.13531C3.9528 3.89858 2.52331 4.91964 2.11489 6.67297H2.10213C1.96908 7.36993 1.96477 8.07899 2.08936 8.77697C2.29357 10.0662 2.76581 11.3863 3.5699 12.954C3.80116 13.4048 3.91415 13.8894 3.90174 14.3773C3.88898 14.8105 3.88898 15.2643 3.88898 15.7078V16.5226C3.88898 17.1311 3.88898 18.3997 3.96556 19.2454C4.06767 20.4315 4.27188 21.3288 4.64201 22.1538C4.80793 22.5561 5.08872 23.0821 5.65031 23.4946C6.03077 23.7862 6.53024 23.9549 7.05426 23.9691H7.07979C7.39592 23.9645 7.70601 23.8983 7.98375 23.7762C8.26149 23.6541 8.49868 23.4797 8.6752 23.2677C8.92278 22.9965 9.12053 22.6977 9.26231 22.3807C9.79836 21.3081 10.0281 20.2149 10.1813 19.2866C10.3089 18.6162 10.4876 17.8221 10.9598 17.1001C11.1896 16.7495 11.4065 16.5329 11.6746 16.3988H11.7128C11.7959 16.3446 11.8997 16.3154 12.0064 16.3163C12.089 16.3177 12.1691 16.3392 12.2361 16.3782C12.465 16.522 12.6708 16.6883 12.8488 16.8732C13.1934 17.2652 13.4486 17.8015 13.6401 18.5337C13.6911 18.771 13.7294 18.9669 13.7933 19.2144C13.8571 19.462 13.8443 19.4826 13.8698 19.627C13.9975 20.1839 14.1123 20.6687 14.2272 21.0915C14.4187 21.8238 14.6867 22.587 15.2866 23.278C15.8864 23.9691 16.4735 24.0103 16.9202 24.0103H16.9458C17.4797 23.9913 17.9854 23.811 18.3625 23.5049C18.9113 23.1027 19.1793 22.587 19.358 22.1745C19.8047 21.1122 20.0345 19.9777 20.0855 18.575C20.1238 17.3477 20.1111 16.0791 20.0983 14.9549V14.4804C20.0785 13.962 20.1915 13.4458 20.4301 12.9643C20.7875 12.263 21.0938 11.541 21.3619 10.8191C21.7703 9.68457 22.1532 8.45724 21.9234 6.95144ZM9.96428 3.67168C9.00704 3.50666 8.25401 3.22819 7.62861 2.81564C7.22038 2.55847 6.92873 2.19952 6.799 1.79459C6.64584 1.26859 6.88834 0.928234 7.50098 0.794156C8.00549 0.680367 8.52287 0.607807 9.04533 0.577568C9.79836 0.536313 10.5514 0.515685 11.2917 0.515685C12.9153 0.517447 14.5365 0.617426 16.1417 0.814783L16.3587 0.856038H16.3842C16.6905 0.91792 17.0224 1.01074 17.1755 1.24796C17.3287 1.48517 17.2266 1.75333 17.1117 2.00086C16.8947 2.42372 16.5118 2.77439 15.912 3.07349C15.0696 3.47572 14.1123 3.71294 12.8743 3.81607L12.5552 3.8367V4.09454L12.7722 4.07392C12.9029 4.07193 13.03 4.10861 13.1296 4.17705C13.2039 4.26288 13.2448 4.36468 13.2471 4.46942C13.2494 4.57415 13.2129 4.67706 13.1423 4.76493C12.9256 4.96409 12.6956 5.15346 12.4531 5.33219L12.3765 5.39407C12.3254 5.43782 12.2636 5.4725 12.195 5.49587C12.1264 5.51925 12.0525 5.53082 11.9781 5.52985C11.9036 5.52888 11.8302 5.51539 11.7626 5.49024C11.695 5.46508 11.6345 5.42882 11.5852 5.38376L10.896 4.82682C10.7871 4.75416 10.717 4.65037 10.7004 4.53704C10.6837 4.4237 10.7218 4.30954 10.8067 4.21831C10.8194 4.20799 10.8322 4.18737 10.8577 4.17705C10.9033 4.13061 10.9616 4.09338 11.0281 4.06832C11.0945 4.04326 11.1673 4.03105 11.2406 4.03266C11.3063 4.03293 11.3713 4.04343 11.4321 4.0636V3.85733L11.1257 3.82639C10.7428 3.78513 10.3472 3.73356 9.96428 3.67168ZM20.7492 10.6644C20.4932 11.3747 20.1907 12.0736 19.843 12.7581C19.57 13.3048 19.4396 13.8911 19.4601 14.4804V14.9446C19.4729 16.1203 19.4857 17.3477 19.4474 18.5544C19.3963 19.9261 19.1666 21.0193 18.7582 21.9991C18.605 22.3498 18.3753 22.7933 17.9285 23.1233C17.6596 23.3407 17.3002 23.4693 16.9202 23.4843C16.6267 23.4843 16.1927 23.4018 15.8098 22.9686C15.2738 22.3601 15.0313 21.6485 14.8526 20.9781C14.725 20.5037 14.6101 20.0086 14.508 19.5342C14.4059 19.0597 14.3548 18.7813 14.2655 18.4203C14.0613 17.6261 13.7805 17.0279 13.3593 16.5535C13.1421 16.3316 12.8936 16.1309 12.619 15.9553C12.4407 15.8507 12.2267 15.7931 12.0064 15.7903C11.7676 15.7895 11.5349 15.851 11.3427 15.9656C10.9726 16.1513 10.679 16.4297 10.3982 16.8526C9.8877 17.6468 9.68349 18.4925 9.55586 19.2144C9.38994 20.1839 9.1602 21.205 8.6752 22.1951C8.5461 22.4693 8.37456 22.7292 8.16467 22.9686C7.79453 23.3709 7.37334 23.4534 7.07979 23.4534C6.7129 23.4456 6.36266 23.328 6.09702 23.1233C5.63754 22.783 5.40781 22.3601 5.24188 21.9785C4.89728 21.1947 4.70583 20.3489 4.60372 19.2041C4.52714 18.379 4.52714 17.1311 4.52714 16.5226V15.7078C4.52714 15.2746 4.52714 14.8208 4.53991 14.3876C4.55376 13.8288 4.42336 13.2739 4.15701 12.7581C3.39121 11.2523 2.93174 9.97336 2.72752 8.71508C2.6041 8.06887 2.6084 7.41092 2.74029 6.76579C3.09766 5.24968 4.28464 4.39364 6.18636 4.2905H6.86282C7.38611 4.2905 7.99874 4.35239 8.56033 4.79587C9.12191 5.23936 9.82389 5.47658 10.8194 5.61066C11.2631 5.66416 11.711 5.69173 12.1596 5.69317C12.9264 5.70019 13.6882 5.59177 14.4059 5.37344C14.9385 5.2077 15.4152 4.94267 15.7971 4.59991C15.8728 4.52362 15.9677 4.46118 16.0755 4.41674C16.1833 4.37229 16.3016 4.34684 16.4225 4.34207H17.4308C17.7385 4.33355 18.0464 4.35083 18.3497 4.39364C20.0345 4.62054 21.0811 5.54878 21.298 7.01332C21.515 8.47787 21.1066 9.68457 20.7492 10.6644Z" fill="#878687"/>
</g>
<defs>
<clipPath id="clip0_1415_5533">
<rect width="20" height="24" fill="white" transform="translate(2)"/>
</clipPath>
</defs>
</svg>
