<svg width="14" height="14" viewBox="0 0 14 14" fill="none" xmlns="http://www.w3.org/2000/svg">
<g clip-path="url(#clip0_832_26721)">
<path d="M5.42632 3.77827C5.79007 3.97079 6.21764 4.07307 6.76646 4.09713H7.04087C7.56416 4.09713 8.01087 4.01892 8.40015 3.84445C8.59953 3.75358 8.78257 3.6338 8.94259 3.48948C8.98083 3.45933 9.01154 3.42159 9.0325 3.37894C9.05346 3.3363 9.06416 3.28981 9.06384 3.24282C8.39377 3.76624 7.5833 3.83242 7.02172 3.83242C6.17935 3.83843 5.49652 3.63388 4.93493 3.21875C4.92881 3.26733 4.93486 3.31658 4.9526 3.36256C4.97033 3.40853 4.99925 3.44994 5.03704 3.48347C5.15048 3.59948 5.28169 3.69885 5.42632 3.77827Z" fill="#878687"/>
<path d="M8.49597 1.43178C8.68161 1.34063 8.84641 1.21593 8.98097 1.06478L9.03841 1.00462L8.94268 0.986572C8.42577 0.932425 7.8961 0.890311 7.38557 0.842181C7.21326 0.824132 6.54957 0.818115 6.5049 0.818115H6.35174L6.15391 0.830148C5.78378 0.854213 5.3945 0.884295 5.01799 0.926409C4.99122 0.926014 4.96482 0.932237 4.94141 0.944458L4.98608 1.0347C5.08818 1.20918 5.26049 1.34154 5.51575 1.44381C5.98649 1.63187 6.49147 1.73199 7.00267 1.73861C7.51737 1.73298 8.02546 1.62858 8.49597 1.43178Z" fill="#878687"/>
<path d="M10.0473 3.05035C9.90781 3.03136 9.76709 3.02131 9.62614 3.02027H9.58147C9.67081 3.39328 9.54956 3.71214 9.2241 3.97686C9.05188 4.11458 8.86086 4.22992 8.65613 4.31979C8.17113 4.53037 7.64146 4.62663 7.04158 4.62663C6.90757 4.62663 6.77355 4.62663 6.63316 4.61459C5.96309 4.56646 5.4398 4.41605 4.99308 4.14532C4.54637 3.87459 4.33578 3.51962 4.41874 3.02027H4.38045C4.25469 3.02012 4.12902 3.02615 4.00393 3.03832C3.42959 3.10449 3.07221 3.40531 2.9382 3.93475C2.86384 4.26922 2.85303 4.61348 2.90629 4.95151C2.99564 5.65542 3.21261 6.37738 3.58913 7.2317C3.75715 7.61028 3.83555 8.01886 3.81886 8.42895C3.78057 9.21709 3.75505 10.2579 3.86354 11.2927C3.92097 11.7861 3.98479 12.2674 4.17623 12.7186C4.23247 12.8508 4.31234 12.9729 4.41235 13.0796C4.47617 13.1518 4.51446 13.1638 4.52722 13.1638C4.57651 13.1404 4.61834 13.1051 4.64847 13.0615C4.71159 12.9747 4.76505 12.8819 4.80802 12.7848L4.82716 12.7246C4.92288 12.4659 4.99946 12.2072 5.06966 11.9425C5.13986 11.6778 5.16539 11.4732 5.20368 11.2446C5.24197 11.016 5.2994 10.7212 5.36322 10.4625C5.50999 9.84278 5.74611 9.39156 6.11625 9.04261C6.37789 8.80196 6.67783 8.6696 6.99053 8.6696C7.30323 8.6696 7.58402 8.78993 7.83929 9.00651C7.93536 9.09916 8.0249 9.19763 8.10731 9.30132C8.36896 9.65026 8.55403 10.0654 8.66251 10.5888C8.71357 10.8234 8.75824 11.0641 8.80291 11.2987C8.84758 11.5334 8.89863 11.8161 8.95607 12.0688C9.0135 12.3215 9.12837 12.7547 9.33897 13.0555C9.39002 13.1217 9.43469 13.1638 9.47298 13.1638C9.51127 13.1638 9.54318 13.1337 9.58785 13.0796C9.69706 12.9458 9.78519 12.7979 9.8495 12.6404C10.0473 12.135 10.1048 11.6176 10.1558 10.9919C10.2388 10.0714 10.2069 9.15091 10.175 8.447C10.1561 8.03734 10.2323 7.62874 10.3983 7.24975C10.5642 6.87072 10.7046 6.48567 10.8259 6.10664C11.0684 5.34859 11.1577 4.765 11.1067 4.19947C11.0429 3.53165 10.6983 3.15263 10.0473 3.05035Z" fill="#878687"/>
<path d="M11.9612 4.05501C11.84 3.07434 11.2018 2.41856 10.2254 2.26816C10.0757 2.24419 9.92417 2.23211 9.77234 2.23206H9.18523C8.9802 2.24703 8.78978 2.33787 8.65555 2.48474C8.49994 2.64798 8.30521 2.7738 8.08759 2.85174C8.00902 2.8821 7.9279 2.90625 7.84509 2.92394C7.89043 2.85562 7.9206 2.77934 7.93376 2.69971C7.94692 2.62008 7.94281 2.53876 7.92167 2.46068C8.34434 2.39313 8.7507 2.25456 9.12141 2.05157C9.4724 1.841 9.70852 1.59433 9.84892 1.28148V1.26945C9.89997 1.13709 10.0085 0.860335 9.86168 0.5896C9.7149 0.318866 9.4022 0.240653 9.26819 0.204555H9.21075L9.12779 0.18049H9.11503C8.29763 0.0631232 7.47216 0.00279601 6.64534 0C6.26883 0 5.87955 0.0120327 5.50303 0.036098C5.2196 0.0513642 4.93903 0.0978044 4.66704 0.174474C4.1948 0.2948 3.97144 0.65578 4.08631 1.11302C4.16659 1.41667 4.35322 1.68589 4.61599 1.87709C4.96698 2.14783 5.38816 2.32832 5.91784 2.43661L6.05185 2.46068C6.02767 2.53352 6.02029 2.61038 6.03019 2.68613C6.0401 2.76188 6.06706 2.83475 6.10929 2.89987C5.88133 2.84485 5.67243 2.73497 5.50303 2.58101C5.1329 2.24409 4.73724 2.20198 4.43092 2.20198H4.06717C2.97591 2.27417 2.26117 2.86979 2.05696 3.89257H2.05057C1.98405 4.29912 1.9819 4.71274 2.04419 5.1199C2.1463 5.87194 2.38242 6.64203 2.78446 7.55651C2.90009 7.81946 2.95659 8.10217 2.95038 8.38676C2.944 8.63945 2.944 8.90417 2.944 9.16287V9.63816C2.944 9.99312 2.944 10.7331 2.98229 11.2265C3.03334 11.9184 3.13545 12.4418 3.32052 12.9231C3.40348 13.1577 3.54387 13.4645 3.82467 13.7052C4.0149 13.8753 4.26463 13.9737 4.52664 13.982H4.53941C4.69747 13.9793 4.85252 13.9407 4.99139 13.8695C5.13026 13.7982 5.24885 13.6965 5.33711 13.5728C5.4609 13.4146 5.55978 13.2403 5.63066 13.0554C5.89869 12.4297 6.01356 11.792 6.09014 11.2505C6.15396 10.8595 6.2433 10.3962 6.47942 9.97508C6.59429 9.77052 6.70278 9.64418 6.83679 9.56596H6.85594C6.89745 9.53433 6.94934 9.51732 7.00271 9.51783C7.04399 9.51864 7.08404 9.53123 7.11758 9.55393C7.23203 9.6378 7.33494 9.73482 7.4239 9.84272C7.5962 10.0713 7.72384 10.3842 7.81956 10.8113C7.84509 10.9497 7.86423 11.064 7.89614 11.2084C7.92805 11.3528 7.92167 11.3648 7.93443 11.4491C7.99825 11.774 8.05568 12.0567 8.11311 12.3034C8.20884 12.7306 8.34285 13.1758 8.64279 13.5789C8.94273 13.982 9.23628 14.006 9.45964 14.006H9.4724C9.73937 13.995 9.9922 13.8897 10.1808 13.7112C10.4552 13.4766 10.5892 13.1758 10.6785 12.9351C10.9019 12.3154 11.0168 11.6536 11.0423 10.8354C11.0614 10.1195 11.055 9.37946 11.0487 8.72368V8.44693C11.0387 8.1445 11.0952 7.8434 11.2146 7.56253C11.3933 7.15342 11.5464 6.73227 11.6804 6.31113C11.8847 5.64933 12.0761 4.93339 11.9612 4.05501ZM5.98165 2.14181C5.50303 2.04555 5.12652 1.88311 4.81382 1.64246C4.6097 1.49244 4.46388 1.28305 4.39901 1.04684C4.32243 0.740009 4.44368 0.54147 4.75 0.463257C5.00226 0.396881 5.26095 0.354554 5.52218 0.336914C5.89869 0.312849 6.27521 0.300817 6.64534 0.300817C7.45717 0.301844 8.26777 0.360165 9.07036 0.47529L9.17885 0.499355H9.19161C9.34477 0.535453 9.51069 0.5896 9.58727 0.727976C9.66385 0.866352 9.6128 1.02278 9.55536 1.16717C9.44687 1.41384 9.25542 1.61839 8.95549 1.79287C8.5343 2.0275 8.05568 2.16588 7.43666 2.22604L7.27712 2.23807V2.38848L7.38561 2.37645C7.45096 2.37529 7.51451 2.39669 7.56429 2.43661C7.60146 2.48668 7.62192 2.54606 7.62306 2.60716C7.62419 2.66826 7.60596 2.72828 7.57068 2.77954C7.46233 2.89572 7.34729 3.00619 7.22607 3.11044L7.18778 3.14654C7.16223 3.17206 7.13131 3.19229 7.09701 3.20593C7.06271 3.21956 7.02577 3.22631 6.98854 3.22575C6.95132 3.22518 6.91463 3.21731 6.88081 3.20264C6.84699 3.18797 6.81679 3.16681 6.79212 3.14052L6.44751 2.81564C6.39305 2.77326 6.35801 2.71272 6.34969 2.6466C6.34137 2.58049 6.36041 2.5139 6.40284 2.46068C6.40922 2.45466 6.4156 2.44263 6.42837 2.43661C6.45115 2.40952 6.48031 2.38781 6.51354 2.37319C6.54677 2.35857 6.58316 2.35144 6.61982 2.35239C6.65266 2.35254 6.68516 2.35867 6.71554 2.37043V2.25011L6.56238 2.23206C6.37093 2.20799 6.1731 2.17791 5.98165 2.14181ZM11.3741 6.22089C11.2461 6.63525 11.0948 7.04293 10.921 7.4422C10.7845 7.76111 10.7193 8.10316 10.7296 8.44693V8.71766C10.736 9.40352 10.7423 10.1195 10.7232 10.8234C10.6977 11.6235 10.5828 12.2613 10.3786 12.8328C10.302 13.0374 10.1871 13.2961 9.96379 13.4886C9.8293 13.6154 9.64959 13.6904 9.45964 13.6992C9.31286 13.6992 9.09588 13.6511 8.90444 13.3984C8.63641 13.0434 8.51516 12.6283 8.42581 12.2372C8.362 11.9605 8.30456 11.6717 8.25351 11.3949C8.20246 11.1182 8.17693 10.9557 8.13226 10.7452C8.03015 10.2819 7.88976 9.93296 7.67916 9.65621C7.57055 9.52677 7.44633 9.40966 7.30903 9.30726C7.21984 9.24626 7.11289 9.21265 7.00271 9.211C6.88331 9.21057 6.76694 9.24643 6.67087 9.31328C6.4858 9.42157 6.33902 9.58401 6.19863 9.83068C5.94336 10.2939 5.84126 10.7873 5.77744 11.2084C5.69448 11.774 5.57961 12.3696 5.33711 12.9471C5.27256 13.1071 5.18679 13.2587 5.08184 13.3984C4.89678 13.633 4.68618 13.6811 4.53941 13.6811C4.35596 13.6766 4.18084 13.608 4.04802 13.4886C3.81828 13.2901 3.70341 13.0434 3.62045 12.8208C3.44815 12.3636 3.35243 11.8702 3.30137 11.2024C3.26308 10.7211 3.26308 9.99312 3.26308 9.63816V9.16287C3.26308 8.91018 3.26308 8.64547 3.26946 8.39278C3.27639 8.06682 3.21119 7.74308 3.07802 7.4422C2.69512 6.56382 2.46538 5.81779 2.36327 5.0838C2.30156 4.70684 2.30371 4.32303 2.36966 3.94671C2.54834 3.06231 3.14183 2.56296 4.09269 2.50279H4.43092C4.69257 2.50279 4.99888 2.53889 5.27968 2.79759C5.56047 3.0563 5.91146 3.19467 6.40922 3.27288C6.63106 3.30409 6.855 3.32018 7.07929 3.32101C7.46271 3.32511 7.84359 3.26186 8.20246 3.13451C8.46877 3.03783 8.7071 2.88322 8.89805 2.68328C8.93592 2.63878 8.98337 2.60236 9.03728 2.57643C9.09118 2.5505 9.15031 2.53566 9.21075 2.53287H9.7149C9.86875 2.5279 10.0227 2.53799 10.1744 2.56296C11.0168 2.69532 11.54 3.23679 11.6485 4.0911C11.757 4.94542 11.5528 5.64933 11.3741 6.22089Z" fill="#878687"/>
</g>
<defs>
<clipPath id="clip0_832_26721">
<rect width="10" height="14" fill="white" transform="translate(2)"/>
</clipPath>
</defs>
</svg>
