<svg width="76" height="76" viewBox="0 0 76 76" fill="none" xmlns="http://www.w3.org/2000/svg">
<g filter="url(#filter0_d_324_10008)">
<rect x="6" y="6" width="60" height="60" rx="30" fill="#353434"/>
<g clip-path="url(#clip0_324_10008)">
<path d="M48.6386 28.6449C48.3798 26.3473 47.053 24.8912 44.9173 24.5352C44.5315 24.48 44.1421 24.453 43.7524 24.4543H42.4742C42.1646 24.4875 41.8774 24.6311 41.6652 24.8588C41.1875 25.4077 40.5817 25.8301 39.9016 26.0885C38.9975 26.4316 38.037 26.6017 37.0701 26.59C36.4963 26.5978 35.9228 26.5599 35.3551 26.4768C34.1092 26.2826 33.1708 25.8619 32.5074 25.2148C31.844 24.5676 31.0189 24.4058 30.3555 24.4058H29.498C27.0872 24.5676 25.5663 25.9105 25.1294 28.2889C24.9571 29.3114 24.9516 30.355 25.1133 31.3792C25.3721 33.337 25.9384 35.3595 26.9254 37.7055C27.2656 38.5135 27.4257 39.3858 27.3946 40.2619V43.6273C27.3946 44.5658 27.3946 46.5235 27.4917 47.8179C27.6211 49.6138 27.8638 50.9568 28.3007 52.1703C28.4949 52.8551 28.8693 53.4753 29.3847 53.9662C29.7181 54.2945 30.1629 54.4851 30.6306 54.5001C31.0027 54.5001 31.5366 54.3545 32.0058 53.6912C32.2724 53.3159 32.4899 52.9081 32.653 52.4777C33.2679 50.9244 33.5591 49.3064 33.7694 47.7855C33.9312 46.653 34.1901 45.3262 34.8373 44.0965C35.1933 43.417 35.5654 42.9963 36.0346 42.6889C36.284 42.5208 36.5754 42.4255 36.8759 42.4139C37.1494 42.4235 37.4139 42.5135 37.6364 42.6727C38.0001 42.9366 38.3172 43.2592 38.5748 43.6273C39.1249 44.3716 39.4809 45.2939 39.7236 46.5397C39.853 47.1222 39.9501 47.7046 40.0472 48.2871C40.1443 48.8696 40.3222 49.808 40.484 50.5685C40.7106 51.6201 41.0018 52.7204 41.6975 53.675C42.1829 54.3545 42.7168 54.5001 43.089 54.5001C43.5713 54.4798 44.028 54.2774 44.3672 53.9339C44.9497 53.3999 45.2409 52.7042 45.4351 52.1541C45.9528 50.6332 46.2279 48.9181 46.3088 46.75C46.3573 44.857 46.3411 42.9478 46.3249 41.0871V40.359C46.3191 39.4347 46.4893 38.5177 46.8265 37.657C47.2654 36.588 47.6488 35.4971 47.9753 34.3887C48.4121 32.8516 48.8975 30.7968 48.6386 28.6449ZM31.6337 26.3473C33.0575 27.4637 34.7888 28.0139 36.9245 28.0139C38.3483 28.0139 40.4031 27.8521 42.102 26.4282C42.1052 26.555 42.0791 26.6808 42.0258 26.7958C41.9725 26.9109 41.8934 27.0121 41.7946 27.0916C41.3928 27.4887 40.9281 27.8167 40.4193 28.0624C39.4324 28.5154 38.2998 28.7419 36.9568 28.7419H36.2773C34.8858 28.661 33.8018 28.386 32.8795 27.8682C32.5107 27.6579 32.1775 27.3903 31.8926 27.0754C31.7921 26.9853 31.7158 26.8715 31.6706 26.7443C31.6254 26.6171 31.6127 26.4807 31.6337 26.3473Z" fill="white"/>
<path d="M43.3479 20.8461C43.0728 21.5095 42.5713 22.0596 41.8108 22.5288C40.7591 23.176 39.5456 23.5482 37.9762 23.6938L37.5717 23.7261V24.1306H37.8468C37.9294 24.1248 38.0123 24.1362 38.0902 24.164C38.1682 24.1919 38.2396 24.2356 38.2998 24.2924C38.3961 24.4262 38.4493 24.5862 38.4522 24.751C38.4551 24.9158 38.4076 25.0776 38.316 25.2147C38.0411 25.5219 37.7495 25.8135 37.4423 26.0884L37.3452 26.1855C37.2155 26.3139 37.0422 26.389 36.8598 26.3958C36.7618 26.3915 36.6655 26.3678 36.5767 26.3262C36.4878 26.2845 36.4081 26.2257 36.342 26.1531L35.4683 25.2956C35.1286 24.972 35.1124 24.5675 35.4198 24.2601C35.4819 24.1936 35.5571 24.1406 35.6406 24.1044C35.7241 24.0682 35.8142 24.0496 35.9052 24.0497C35.9885 24.0501 36.0709 24.0666 36.1479 24.0983V23.7423L35.7596 23.6938C35.2742 23.6291 34.7726 23.5643 34.2872 23.4511C33.0737 23.2084 32.1029 22.7715 31.3263 22.1082C30.809 21.7114 30.4389 21.1534 30.2746 20.5225C30.0805 19.6812 30.3879 19.1473 31.1645 18.9369C31.8062 18.7678 32.4612 18.6541 33.1223 18.5971C34.0769 18.5324 35.0315 18.5001 35.9699 18.5001C38.0237 18.4963 40.0744 18.6587 42.102 18.9855L42.3933 19.0502H42.4256C42.8139 19.1473 43.2346 19.2929 43.4288 19.665C43.6229 20.0371 43.4935 20.474 43.3479 20.8461Z" fill="white"/>
</g>
</g>
<defs>
<filter id="filter0_d_324_10008" x="0" y="0" width="76" height="76" filterUnits="userSpaceOnUse" color-interpolation-filters="sRGB">
<feFlood flood-opacity="0" result="BackgroundImageFix"/>
<feColorMatrix in="SourceAlpha" type="matrix" values="0 0 0 0 0 0 0 0 0 0 0 0 0 0 0 0 0 0 127 0" result="hardAlpha"/>
<feOffset dx="2" dy="2"/>
<feGaussianBlur stdDeviation="4"/>
<feComposite in2="hardAlpha" operator="out"/>
<feColorMatrix type="matrix" values="0 0 0 0 0 0 0 0 0 0 0 0 0 0 0 0 0 0 0.04 0"/>
<feBlend mode="normal" in2="BackgroundImageFix" result="effect1_dropShadow_324_10008"/>
<feBlend mode="normal" in="SourceGraphic" in2="effect1_dropShadow_324_10008" result="shape"/>
</filter>
<clipPath id="clip0_324_10008">
<rect width="23.7196" height="36" fill="white" transform="translate(25 18.5)"/>
</clipPath>
</defs>
</svg>
